<?xml version="1.0" encoding="utf-8" standalone="no"?>
<!DOCTYPE svg PUBLIC "-//W3C//DTD SVG 1.1//EN"
  "http://www.w3.org/Graphics/SVG/1.1/DTD/svg11.dtd">
<!-- Created with matplotlib (http://matplotlib.org/) -->
<svg height="864pt" version="1.1" viewBox="0 0 1152 864" width="1152pt" xmlns="http://www.w3.org/2000/svg" xmlns:xlink="http://www.w3.org/1999/xlink">
 <defs>
  <style type="text/css">
*{stroke-linecap:butt;stroke-linejoin:round;}
  </style>
 </defs>
 <g id="figure_1">
  <g id="patch_1">
   <path d="M 0 864 
L 1152 864 
L 1152 0 
L 0 0 
z
" style="fill:#ffffff;"/>
  </g>
  <g id="axes_1">
   <g id="patch_2">
    <path d="M 144 768.96 
L 1036.8 768.96 
L 1036.8 103.68 
L 144 103.68 
z
" style="fill:#ffffff;"/>
   </g>
   <g id="matplotlib.axis_1">
    <g id="xtick_1">
     <g id="line2d_1">
      <defs>
       <path d="M 0 0 
L 0 3.5 
" id="mb5fc1fb5d1" style="stroke:#000000;stroke-width:0.8;"/>
      </defs>
      <g>
       <use style="stroke:#000000;stroke-width:0.8;" x="144" xlink:href="#mb5fc1fb5d1" y="768.96"/>
      </g>
     </g>
     <g id="text_1">
      <!-- −4000 -->
      <defs>
       <path d="M 10.59375 35.5 
L 73.1875 35.5 
L 73.1875 27.203125 
L 10.59375 27.203125 
z
" id="DejaVuSans-2212"/>
       <path d="M 37.796875 64.3125 
L 12.890625 25.390625 
L 37.796875 25.390625 
z
M 35.203125 72.90625 
L 47.609375 72.90625 
L 47.609375 25.390625 
L 58.015625 25.390625 
L 58.015625 17.1875 
L 47.609375 17.1875 
L 47.609375 0 
L 37.796875 0 
L 37.796875 17.1875 
L 4.890625 17.1875 
L 4.890625 26.703125 
z
" id="DejaVuSans-34"/>
       <path d="M 31.78125 66.40625 
Q 24.171875 66.40625 20.328125 58.90625 
Q 16.5 51.421875 16.5 36.375 
Q 16.5 21.390625 20.328125 13.890625 
Q 24.171875 6.390625 31.78125 6.390625 
Q 39.453125 6.390625 43.28125 13.890625 
Q 47.125 21.390625 47.125 36.375 
Q 47.125 51.421875 43.28125 58.90625 
Q 39.453125 66.40625 31.78125 66.40625 
z
M 31.78125 74.21875 
Q 44.046875 74.21875 50.515625 64.515625 
Q 56.984375 54.828125 56.984375 36.375 
Q 56.984375 17.96875 50.515625 8.265625 
Q 44.046875 -1.421875 31.78125 -1.421875 
Q 19.53125 -1.421875 13.0625 8.265625 
Q 6.59375 17.96875 6.59375 36.375 
Q 6.59375 54.828125 13.0625 64.515625 
Q 19.53125 74.21875 31.78125 74.21875 
z
" id="DejaVuSans-30"/>
      </defs>
      <g transform="translate(127.085156 783.558437)scale(0.1 -0.1)">
       <use xlink:href="#DejaVuSans-2212"/>
       <use x="83.789062" xlink:href="#DejaVuSans-34"/>
       <use x="147.412109" xlink:href="#DejaVuSans-30"/>
       <use x="211.035156" xlink:href="#DejaVuSans-30"/>
       <use x="274.658203" xlink:href="#DejaVuSans-30"/>
      </g>
     </g>
    </g>
    <g id="xtick_2">
     <g id="line2d_2">
      <g>
       <use style="stroke:#000000;stroke-width:0.8;" x="255.6" xlink:href="#mb5fc1fb5d1" y="768.96"/>
      </g>
     </g>
     <g id="text_2">
      <!-- −3000 -->
      <defs>
       <path d="M 40.578125 39.3125 
Q 47.65625 37.796875 51.625 33 
Q 55.609375 28.21875 55.609375 21.1875 
Q 55.609375 10.40625 48.1875 4.484375 
Q 40.765625 -1.421875 27.09375 -1.421875 
Q 22.515625 -1.421875 17.65625 -0.515625 
Q 12.796875 0.390625 7.625 2.203125 
L 7.625 11.71875 
Q 11.71875 9.328125 16.59375 8.109375 
Q 21.484375 6.890625 26.8125 6.890625 
Q 36.078125 6.890625 40.9375 10.546875 
Q 45.796875 14.203125 45.796875 21.1875 
Q 45.796875 27.640625 41.28125 31.265625 
Q 36.765625 34.90625 28.71875 34.90625 
L 20.21875 34.90625 
L 20.21875 43.015625 
L 29.109375 43.015625 
Q 36.375 43.015625 40.234375 45.921875 
Q 44.09375 48.828125 44.09375 54.296875 
Q 44.09375 59.90625 40.109375 62.90625 
Q 36.140625 65.921875 28.71875 65.921875 
Q 24.65625 65.921875 20.015625 65.03125 
Q 15.375 64.15625 9.8125 62.3125 
L 9.8125 71.09375 
Q 15.4375 72.65625 20.34375 73.4375 
Q 25.25 74.21875 29.59375 74.21875 
Q 40.828125 74.21875 47.359375 69.109375 
Q 53.90625 64.015625 53.90625 55.328125 
Q 53.90625 49.265625 50.4375 45.09375 
Q 46.96875 40.921875 40.578125 39.3125 
z
" id="DejaVuSans-33"/>
      </defs>
      <g transform="translate(238.685156 783.558437)scale(0.1 -0.1)">
       <use xlink:href="#DejaVuSans-2212"/>
       <use x="83.789062" xlink:href="#DejaVuSans-33"/>
       <use x="147.412109" xlink:href="#DejaVuSans-30"/>
       <use x="211.035156" xlink:href="#DejaVuSans-30"/>
       <use x="274.658203" xlink:href="#DejaVuSans-30"/>
      </g>
     </g>
    </g>
    <g id="xtick_3">
     <g id="line2d_3">
      <g>
       <use style="stroke:#000000;stroke-width:0.8;" x="367.2" xlink:href="#mb5fc1fb5d1" y="768.96"/>
      </g>
     </g>
     <g id="text_3">
      <!-- −2000 -->
      <defs>
       <path d="M 19.1875 8.296875 
L 53.609375 8.296875 
L 53.609375 0 
L 7.328125 0 
L 7.328125 8.296875 
Q 12.9375 14.109375 22.625 23.890625 
Q 32.328125 33.6875 34.8125 36.53125 
Q 39.546875 41.84375 41.421875 45.53125 
Q 43.3125 49.21875 43.3125 52.78125 
Q 43.3125 58.59375 39.234375 62.25 
Q 35.15625 65.921875 28.609375 65.921875 
Q 23.96875 65.921875 18.8125 64.3125 
Q 13.671875 62.703125 7.8125 59.421875 
L 7.8125 69.390625 
Q 13.765625 71.78125 18.9375 73 
Q 24.125 74.21875 28.421875 74.21875 
Q 39.75 74.21875 46.484375 68.546875 
Q 53.21875 62.890625 53.21875 53.421875 
Q 53.21875 48.921875 51.53125 44.890625 
Q 49.859375 40.875 45.40625 35.40625 
Q 44.1875 33.984375 37.640625 27.21875 
Q 31.109375 20.453125 19.1875 8.296875 
z
" id="DejaVuSans-32"/>
      </defs>
      <g transform="translate(350.285156 783.558437)scale(0.1 -0.1)">
       <use xlink:href="#DejaVuSans-2212"/>
       <use x="83.789062" xlink:href="#DejaVuSans-32"/>
       <use x="147.412109" xlink:href="#DejaVuSans-30"/>
       <use x="211.035156" xlink:href="#DejaVuSans-30"/>
       <use x="274.658203" xlink:href="#DejaVuSans-30"/>
      </g>
     </g>
    </g>
    <g id="xtick_4">
     <g id="line2d_4">
      <g>
       <use style="stroke:#000000;stroke-width:0.8;" x="478.8" xlink:href="#mb5fc1fb5d1" y="768.96"/>
      </g>
     </g>
     <g id="text_4">
      <!-- −1000 -->
      <defs>
       <path d="M 12.40625 8.296875 
L 28.515625 8.296875 
L 28.515625 63.921875 
L 10.984375 60.40625 
L 10.984375 69.390625 
L 28.421875 72.90625 
L 38.28125 72.90625 
L 38.28125 8.296875 
L 54.390625 8.296875 
L 54.390625 0 
L 12.40625 0 
z
" id="DejaVuSans-31"/>
      </defs>
      <g transform="translate(461.885156 783.558437)scale(0.1 -0.1)">
       <use xlink:href="#DejaVuSans-2212"/>
       <use x="83.789062" xlink:href="#DejaVuSans-31"/>
       <use x="147.412109" xlink:href="#DejaVuSans-30"/>
       <use x="211.035156" xlink:href="#DejaVuSans-30"/>
       <use x="274.658203" xlink:href="#DejaVuSans-30"/>
      </g>
     </g>
    </g>
    <g id="xtick_5">
     <g id="line2d_5">
      <g>
       <use style="stroke:#000000;stroke-width:0.8;" x="590.4" xlink:href="#mb5fc1fb5d1" y="768.96"/>
      </g>
     </g>
     <g id="text_5">
      <!-- 0 -->
      <g transform="translate(587.21875 783.558437)scale(0.1 -0.1)">
       <use xlink:href="#DejaVuSans-30"/>
      </g>
     </g>
    </g>
    <g id="xtick_6">
     <g id="line2d_6">
      <g>
       <use style="stroke:#000000;stroke-width:0.8;" x="702" xlink:href="#mb5fc1fb5d1" y="768.96"/>
      </g>
     </g>
     <g id="text_6">
      <!-- 1000 -->
      <g transform="translate(689.275 783.558437)scale(0.1 -0.1)">
       <use xlink:href="#DejaVuSans-31"/>
       <use x="63.623047" xlink:href="#DejaVuSans-30"/>
       <use x="127.246094" xlink:href="#DejaVuSans-30"/>
       <use x="190.869141" xlink:href="#DejaVuSans-30"/>
      </g>
     </g>
    </g>
    <g id="xtick_7">
     <g id="line2d_7">
      <g>
       <use style="stroke:#000000;stroke-width:0.8;" x="813.6" xlink:href="#mb5fc1fb5d1" y="768.96"/>
      </g>
     </g>
     <g id="text_7">
      <!-- 2000 -->
      <g transform="translate(800.875 783.558437)scale(0.1 -0.1)">
       <use xlink:href="#DejaVuSans-32"/>
       <use x="63.623047" xlink:href="#DejaVuSans-30"/>
       <use x="127.246094" xlink:href="#DejaVuSans-30"/>
       <use x="190.869141" xlink:href="#DejaVuSans-30"/>
      </g>
     </g>
    </g>
    <g id="xtick_8">
     <g id="line2d_8">
      <g>
       <use style="stroke:#000000;stroke-width:0.8;" x="925.2" xlink:href="#mb5fc1fb5d1" y="768.96"/>
      </g>
     </g>
     <g id="text_8">
      <!-- 3000 -->
      <g transform="translate(912.475 783.558437)scale(0.1 -0.1)">
       <use xlink:href="#DejaVuSans-33"/>
       <use x="63.623047" xlink:href="#DejaVuSans-30"/>
       <use x="127.246094" xlink:href="#DejaVuSans-30"/>
       <use x="190.869141" xlink:href="#DejaVuSans-30"/>
      </g>
     </g>
    </g>
    <g id="xtick_9">
     <g id="line2d_9">
      <g>
       <use style="stroke:#000000;stroke-width:0.8;" x="1036.8" xlink:href="#mb5fc1fb5d1" y="768.96"/>
      </g>
     </g>
     <g id="text_9">
      <!-- 4000 -->
      <g transform="translate(1024.075 783.558437)scale(0.1 -0.1)">
       <use xlink:href="#DejaVuSans-34"/>
       <use x="63.623047" xlink:href="#DejaVuSans-30"/>
       <use x="127.246094" xlink:href="#DejaVuSans-30"/>
       <use x="190.869141" xlink:href="#DejaVuSans-30"/>
      </g>
     </g>
    </g>
   </g>
   <g id="matplotlib.axis_2">
    <g id="ytick_1">
     <g id="line2d_10">
      <defs>
       <path d="M 0 0 
L -3.5 0 
" id="mb2aff2ab23" style="stroke:#000000;stroke-width:0.8;"/>
      </defs>
      <g>
       <use style="stroke:#000000;stroke-width:0.8;" x="144" xlink:href="#mb2aff2ab23" y="768.96"/>
      </g>
     </g>
     <g id="text_10">
      <!-- −4000 -->
      <g transform="translate(103.170312 772.759219)scale(0.1 -0.1)">
       <use xlink:href="#DejaVuSans-2212"/>
       <use x="83.789062" xlink:href="#DejaVuSans-34"/>
       <use x="147.412109" xlink:href="#DejaVuSans-30"/>
       <use x="211.035156" xlink:href="#DejaVuSans-30"/>
       <use x="274.658203" xlink:href="#DejaVuSans-30"/>
      </g>
     </g>
    </g>
    <g id="ytick_2">
     <g id="line2d_11">
      <g>
       <use style="stroke:#000000;stroke-width:0.8;" x="144" xlink:href="#mb2aff2ab23" y="685.8"/>
      </g>
     </g>
     <g id="text_11">
      <!-- −3000 -->
      <g transform="translate(103.170312 689.599219)scale(0.1 -0.1)">
       <use xlink:href="#DejaVuSans-2212"/>
       <use x="83.789062" xlink:href="#DejaVuSans-33"/>
       <use x="147.412109" xlink:href="#DejaVuSans-30"/>
       <use x="211.035156" xlink:href="#DejaVuSans-30"/>
       <use x="274.658203" xlink:href="#DejaVuSans-30"/>
      </g>
     </g>
    </g>
    <g id="ytick_3">
     <g id="line2d_12">
      <g>
       <use style="stroke:#000000;stroke-width:0.8;" x="144" xlink:href="#mb2aff2ab23" y="602.64"/>
      </g>
     </g>
     <g id="text_12">
      <!-- −2000 -->
      <g transform="translate(103.170312 606.439219)scale(0.1 -0.1)">
       <use xlink:href="#DejaVuSans-2212"/>
       <use x="83.789062" xlink:href="#DejaVuSans-32"/>
       <use x="147.412109" xlink:href="#DejaVuSans-30"/>
       <use x="211.035156" xlink:href="#DejaVuSans-30"/>
       <use x="274.658203" xlink:href="#DejaVuSans-30"/>
      </g>
     </g>
    </g>
    <g id="ytick_4">
     <g id="line2d_13">
      <g>
       <use style="stroke:#000000;stroke-width:0.8;" x="144" xlink:href="#mb2aff2ab23" y="519.48"/>
      </g>
     </g>
     <g id="text_13">
      <!-- −1000 -->
      <g transform="translate(103.170312 523.279219)scale(0.1 -0.1)">
       <use xlink:href="#DejaVuSans-2212"/>
       <use x="83.789062" xlink:href="#DejaVuSans-31"/>
       <use x="147.412109" xlink:href="#DejaVuSans-30"/>
       <use x="211.035156" xlink:href="#DejaVuSans-30"/>
       <use x="274.658203" xlink:href="#DejaVuSans-30"/>
      </g>
     </g>
    </g>
    <g id="ytick_5">
     <g id="line2d_14">
      <g>
       <use style="stroke:#000000;stroke-width:0.8;" x="144" xlink:href="#mb2aff2ab23" y="436.32"/>
      </g>
     </g>
     <g id="text_14">
      <!-- 0 -->
      <g transform="translate(130.6375 440.119219)scale(0.1 -0.1)">
       <use xlink:href="#DejaVuSans-30"/>
      </g>
     </g>
    </g>
    <g id="ytick_6">
     <g id="line2d_15">
      <g>
       <use style="stroke:#000000;stroke-width:0.8;" x="144" xlink:href="#mb2aff2ab23" y="353.16"/>
      </g>
     </g>
     <g id="text_15">
      <!-- 1000 -->
      <g transform="translate(111.55 356.959219)scale(0.1 -0.1)">
       <use xlink:href="#DejaVuSans-31"/>
       <use x="63.623047" xlink:href="#DejaVuSans-30"/>
       <use x="127.246094" xlink:href="#DejaVuSans-30"/>
       <use x="190.869141" xlink:href="#DejaVuSans-30"/>
      </g>
     </g>
    </g>
    <g id="ytick_7">
     <g id="line2d_16">
      <g>
       <use style="stroke:#000000;stroke-width:0.8;" x="144" xlink:href="#mb2aff2ab23" y="270"/>
      </g>
     </g>
     <g id="text_16">
      <!-- 2000 -->
      <g transform="translate(111.55 273.799219)scale(0.1 -0.1)">
       <use xlink:href="#DejaVuSans-32"/>
       <use x="63.623047" xlink:href="#DejaVuSans-30"/>
       <use x="127.246094" xlink:href="#DejaVuSans-30"/>
       <use x="190.869141" xlink:href="#DejaVuSans-30"/>
      </g>
     </g>
    </g>
    <g id="ytick_8">
     <g id="line2d_17">
      <g>
       <use style="stroke:#000000;stroke-width:0.8;" x="144" xlink:href="#mb2aff2ab23" y="186.84"/>
      </g>
     </g>
     <g id="text_17">
      <!-- 3000 -->
      <g transform="translate(111.55 190.639219)scale(0.1 -0.1)">
       <use xlink:href="#DejaVuSans-33"/>
       <use x="63.623047" xlink:href="#DejaVuSans-30"/>
       <use x="127.246094" xlink:href="#DejaVuSans-30"/>
       <use x="190.869141" xlink:href="#DejaVuSans-30"/>
      </g>
     </g>
    </g>
    <g id="ytick_9">
     <g id="line2d_18">
      <g>
       <use style="stroke:#000000;stroke-width:0.8;" x="144" xlink:href="#mb2aff2ab23" y="103.68"/>
      </g>
     </g>
     <g id="text_18">
      <!-- 4000 -->
      <g transform="translate(111.55 107.479219)scale(0.1 -0.1)">
       <use xlink:href="#DejaVuSans-34"/>
       <use x="63.623047" xlink:href="#DejaVuSans-30"/>
       <use x="127.246094" xlink:href="#DejaVuSans-30"/>
       <use x="190.869141" xlink:href="#DejaVuSans-30"/>
      </g>
     </g>
    </g>
   </g>
   <g id="line2d_19">
    <path clip-path="url(#pe9e532f219)" d="M 590.4 768.96 
L 590.4 103.68 
" style="fill:none;stroke:#1f77b4;stroke-linecap:square;stroke-width:1.5;"/>
   </g>
   <g id="line2d_20">
    <path clip-path="url(#pe9e532f219)" d="M 144 436.32 
L 1036.8 436.32 
" style="fill:none;stroke:#1f77b4;stroke-linecap:square;stroke-width:1.5;"/>
   </g>
   <g id="line2d_21">
    <defs>
     <path d="M 0 3 
C 0.795609 3 1.55874 2.683901 2.12132 2.12132 
C 2.683901 1.55874 3 0.795609 3 0 
C 3 -0.795609 2.683901 -1.55874 2.12132 -2.12132 
C 1.55874 -2.683901 0.795609 -3 0 -3 
C -0.795609 -3 -1.55874 -2.683901 -2.12132 -2.12132 
C -2.683901 -1.55874 -3 -0.795609 -3 0 
C -3 0.795609 -2.683901 1.55874 -2.12132 2.12132 
C -1.55874 2.683901 -0.795609 3 0 3 
z
" id="mab22acc15e" style="stroke:#008000;"/>
    </defs>
    <g clip-path="url(#pe9e532f219)">
     <use style="fill:#008000;stroke:#008000;" x="648.758894" xlink:href="#mab22acc15e" y="393.057954"/>
    </g>
   </g>
   <g id="line2d_22">
    <g clip-path="url(#pe9e532f219)">
     <use style="fill:#008000;stroke:#008000;" x="648.758894" xlink:href="#mab22acc15e" y="393.057954"/>
    </g>
   </g>
   <g id="line2d_23">
    <g clip-path="url(#pe9e532f219)">
     <use style="fill:#008000;stroke:#008000;" x="752.006363" xlink:href="#mab22acc15e" y="197.080974"/>
    </g>
   </g>
   <g id="line2d_24">
    <g clip-path="url(#pe9e532f219)">
     <use style="fill:#008000;stroke:#008000;" x="575.797673" xlink:href="#mab22acc15e" y="225.394867"/>
    </g>
   </g>
   <g id="line2d_25">
    <g clip-path="url(#pe9e532f219)">
     <use style="fill:#008000;stroke:#008000;" x="573.801448" xlink:href="#mab22acc15e" y="392.048628"/>
    </g>
   </g>
   <g id="line2d_26">
    <g clip-path="url(#pe9e532f219)">
     <use style="fill:#008000;stroke:#008000;" x="573.801448" xlink:href="#mab22acc15e" y="392.048628"/>
    </g>
   </g>
   <g id="line2d_27">
    <g clip-path="url(#pe9e532f219)">
     <use style="fill:#008000;stroke:#008000;" x="463.543852" xlink:href="#mab22acc15e" y="246.984258"/>
    </g>
   </g>
   <g id="line2d_28">
    <g clip-path="url(#pe9e532f219)">
     <use style="fill:#008000;stroke:#008000;" x="391.37637" xlink:href="#mab22acc15e" y="284.122487"/>
    </g>
   </g>
   <g id="line2d_29">
    <g clip-path="url(#pe9e532f219)">
     <use style="fill:#008000;stroke:#008000;" x="527.670405" xlink:href="#mab22acc15e" y="509.604622"/>
    </g>
   </g>
   <g id="line2d_30">
    <g clip-path="url(#pe9e532f219)">
     <use style="fill:#008000;stroke:#008000;" x="572.089754" xlink:href="#mab22acc15e" y="483.297598"/>
    </g>
   </g>
   <g id="line2d_31">
    <g clip-path="url(#pe9e532f219)">
     <use style="fill:#008000;stroke:#008000;" x="572.089754" xlink:href="#mab22acc15e" y="483.297598"/>
    </g>
   </g>
   <g id="line2d_32">
    <g clip-path="url(#pe9e532f219)">
     <use style="fill:#008000;stroke:#008000;" x="1055.710377" xlink:href="#mab22acc15e" y="538.101479"/>
    </g>
   </g>
   <g id="line2d_33">
    <defs>
     <path d="M 0 1.333333 
C 0.353604 1.333333 0.692773 1.192845 0.942809 0.942809 
C 1.192845 0.692773 1.333333 0.353604 1.333333 0 
C 1.333333 -0.353604 1.192845 -0.692773 0.942809 -0.942809 
C 0.692773 -1.192845 0.353604 -1.333333 0 -1.333333 
C -0.353604 -1.333333 -0.692773 -1.192845 -0.942809 -0.942809 
C -1.192845 -0.692773 -1.333333 -0.353604 -1.333333 0 
C -1.333333 0.353604 -1.192845 0.692773 -0.942809 0.942809 
C -0.692773 1.192845 -0.353604 1.333333 0 1.333333 
z
" id="m052b026669" style="stroke:#ff0000;"/>
    </defs>
    <g clip-path="url(#pe9e532f219)">
     <use style="fill:#ff0000;stroke:#ff0000;" x="1153.817261" xlink:href="#m052b026669" y="500.118859"/>
     <use style="fill:#ff0000;stroke:#ff0000;" x="1280.84905" xlink:href="#m052b026669" y="344.2979"/>
     <use style="fill:#ff0000;stroke:#ff0000;" x="1293.947313" xlink:href="#m052b026669" y="320.095193"/>
     <use style="fill:#ff0000;stroke:#ff0000;" x="1359.607613" xlink:href="#m052b026669" y="284.410004"/>
     <use style="fill:#ff0000;stroke:#ff0000;" x="1316.395476" xlink:href="#m052b026669" y="268.825229"/>
     <use style="fill:#ff0000;stroke:#ff0000;" x="656.8675" xlink:href="#m052b026669" y="397.970544"/>
     <use style="fill:#ff0000;stroke:#ff0000;" x="640.058976" xlink:href="#m052b026669" y="389.036895"/>
     <use style="fill:#ff0000;stroke:#ff0000;" x="798.37839" xlink:href="#m052b026669" y="193.346684"/>
     <use style="fill:#ff0000;stroke:#ff0000;" x="761.563365" xlink:href="#m052b026669" y="195.494238"/>
     <use style="fill:#ff0000;stroke:#ff0000;" x="742.612356" xlink:href="#m052b026669" y="198.857646"/>
     <use style="fill:#ff0000;stroke:#ff0000;" x="575.797673" xlink:href="#m052b026669" y="225.394867"/>
     <use style="fill:#ff0000;stroke:#ff0000;" x="579.996505" xlink:href="#m052b026669" y="390.379097"/>
     <use style="fill:#ff0000;stroke:#ff0000;" x="567.959548" xlink:href="#m052b026669" y="394.173"/>
     <use style="fill:#ff0000;stroke:#ff0000;" x="463.543852" xlink:href="#m052b026669" y="246.984258"/>
     <use style="fill:#ff0000;stroke:#ff0000;" x="390.470239" xlink:href="#m052b026669" y="276.907585"/>
     <use style="fill:#ff0000;stroke:#ff0000;" x="392.59713" xlink:href="#m052b026669" y="291.238067"/>
     <use style="fill:#ff0000;stroke:#ff0000;" x="412.394177" xlink:href="#m052b026669" y="316.494088"/>
     <use style="fill:#ff0000;stroke:#ff0000;" x="420.318054" xlink:href="#m052b026669" y="331.204735"/>
     <use style="fill:#ff0000;stroke:#ff0000;" x="404.853864" xlink:href="#m052b026669" y="363.38427"/>
     <use style="fill:#ff0000;stroke:#ff0000;" x="454.601149" xlink:href="#m052b026669" y="388.864328"/>
     <use style="fill:#ff0000;stroke:#ff0000;" x="439.529829" xlink:href="#m052b026669" y="414.658099"/>
     <use style="fill:#ff0000;stroke:#ff0000;" x="420.749696" xlink:href="#m052b026669" y="437.66457"/>
     <use style="fill:#ff0000;stroke:#ff0000;" x="395.834243" xlink:href="#m052b026669" y="443.402919"/>
     <use style="fill:#ff0000;stroke:#ff0000;" x="401.394528" xlink:href="#m052b026669" y="466.778632"/>
     <use style="fill:#ff0000;stroke:#ff0000;" x="437.171311" xlink:href="#m052b026669" y="466.281242"/>
     <use style="fill:#ff0000;stroke:#ff0000;" x="404.143221" xlink:href="#m052b026669" y="478.545921"/>
     <use style="fill:#ff0000;stroke:#ff0000;" x="412.101742" xlink:href="#m052b026669" y="509.115772"/>
     <use style="fill:#ff0000;stroke:#ff0000;" x="468.881336" xlink:href="#m052b026669" y="491.640033"/>
     <use style="fill:#ff0000;stroke:#ff0000;" x="434.433559" xlink:href="#m052b026669" y="513.290029"/>
     <use style="fill:#ff0000;stroke:#ff0000;" x="467.174532" xlink:href="#m052b026669" y="515.308823"/>
     <use style="fill:#ff0000;stroke:#ff0000;" x="456.463065" xlink:href="#m052b026669" y="529.236773"/>
     <use style="fill:#ff0000;stroke:#ff0000;" x="471.916711" xlink:href="#m052b026669" y="541.24803"/>
     <use style="fill:#ff0000;stroke:#ff0000;" x="458.84103" xlink:href="#m052b026669" y="562.717168"/>
     <use style="fill:#ff0000;stroke:#ff0000;" x="451.056897" xlink:href="#m052b026669" y="581.720807"/>
     <use style="fill:#ff0000;stroke:#ff0000;" x="527.670405" xlink:href="#m052b026669" y="509.604622"/>
     <use style="fill:#ff0000;stroke:#ff0000;" x="565.750591" xlink:href="#m052b026669" y="477.184214"/>
     <use style="fill:#ff0000;stroke:#ff0000;" x="580.264054" xlink:href="#m052b026669" y="488.814718"/>
     <use style="fill:#ff0000;stroke:#ff0000;" x="579.268417" xlink:href="#m052b026669" y="612.007695"/>
     <use style="fill:#ff0000;stroke:#ff0000;" x="588.50389" xlink:href="#m052b026669" y="635.587141"/>
     <use style="fill:#ff0000;stroke:#ff0000;" x="632.239422" xlink:href="#m052b026669" y="630.085407"/>
     <use style="fill:#ff0000;stroke:#ff0000;" x="667.231148" xlink:href="#m052b026669" y="633.541883"/>
     <use style="fill:#ff0000;stroke:#ff0000;" x="668.508575" xlink:href="#m052b026669" y="609.174594"/>
     <use style="fill:#ff0000;stroke:#ff0000;" x="670.491353" xlink:href="#m052b026669" y="591.54116"/>
     <use style="fill:#ff0000;stroke:#ff0000;" x="694.584957" xlink:href="#m052b026669" y="597.610265"/>
     <use style="fill:#ff0000;stroke:#ff0000;" x="745.755801" xlink:href="#m052b026669" y="602.130478"/>
     <use style="fill:#ff0000;stroke:#ff0000;" x="835.989455" xlink:href="#m052b026669" y="570.427182"/>
     <use style="fill:#ff0000;stroke:#ff0000;" x="883.883456" xlink:href="#m052b026669" y="558.480507"/>
     <use style="fill:#ff0000;stroke:#ff0000;" x="901.177726" xlink:href="#m052b026669" y="553.600615"/>
     <use style="fill:#ff0000;stroke:#ff0000;" x="936.140476" xlink:href="#m052b026669" y="553.814718"/>
     <use style="fill:#ff0000;stroke:#ff0000;" x="960.225495" xlink:href="#m052b026669" y="548.799503"/>
     <use style="fill:#ff0000;stroke:#ff0000;" x="1050.385288" xlink:href="#m052b026669" y="544.5984"/>
     <use style="fill:#ff0000;stroke:#ff0000;" x="1060.870231" xlink:href="#m052b026669" y="531.487322"/>
     <use style="fill:#ff0000;stroke:#ff0000;" x="1104.833422" xlink:href="#m052b026669" y="523.939617"/>
     <use style="fill:#ff0000;stroke:#ff0000;" x="1108.578384" xlink:href="#m052b026669" y="507.884312"/>
    </g>
   </g>
   <g id="line2d_34">
    <defs>
     <path d="M -0.5 0.5 
L 0.5 0.5 
L 0.5 -0.5 
L -0.5 -0.5 
z
" id="m9e182d2bfb" style="stroke:#1f77b4;stroke-linejoin:miter;"/>
    </defs>
    <g clip-path="url(#pe9e532f219)">
     <use style="fill:#1f77b4;stroke:#1f77b4;stroke-linejoin:miter;" x="1153.817261" xlink:href="#m9e182d2bfb" y="500.118859"/>
     <use style="fill:#1f77b4;stroke:#1f77b4;stroke-linejoin:miter;" x="1280.84905" xlink:href="#m9e182d2bfb" y="344.2979"/>
     <use style="fill:#1f77b4;stroke:#1f77b4;stroke-linejoin:miter;" x="1293.947313" xlink:href="#m9e182d2bfb" y="320.095193"/>
     <use style="fill:#1f77b4;stroke:#1f77b4;stroke-linejoin:miter;" x="1359.607613" xlink:href="#m9e182d2bfb" y="284.410004"/>
     <use style="fill:#1f77b4;stroke:#1f77b4;stroke-linejoin:miter;" x="1316.395476" xlink:href="#m9e182d2bfb" y="268.825229"/>
     <use style="fill:#1f77b4;stroke:#1f77b4;stroke-linejoin:miter;" x="656.8675" xlink:href="#m9e182d2bfb" y="397.970544"/>
     <use style="fill:#1f77b4;stroke:#1f77b4;stroke-linejoin:miter;" x="650.165278" xlink:href="#m9e182d2bfb" y="398.639377"/>
     <use style="fill:#1f77b4;stroke:#1f77b4;stroke-linejoin:miter;" x="645.791936" xlink:href="#m9e182d2bfb" y="398.185796"/>
     <use style="fill:#1f77b4;stroke:#1f77b4;stroke-linejoin:miter;" x="645.047662" xlink:href="#m9e182d2bfb" y="395.687421"/>
     <use style="fill:#1f77b4;stroke:#1f77b4;stroke-linejoin:miter;" x="643.573385" xlink:href="#m9e182d2bfb" y="393.362439"/>
     <use style="fill:#1f77b4;stroke:#1f77b4;stroke-linejoin:miter;" x="641.599922" xlink:href="#m9e182d2bfb" y="391.476453"/>
     <use style="fill:#1f77b4;stroke:#1f77b4;stroke-linejoin:miter;" x="640.058976" xlink:href="#m9e182d2bfb" y="389.036895"/>
     <use style="fill:#1f77b4;stroke:#1f77b4;stroke-linejoin:miter;" x="798.37839" xlink:href="#m9e182d2bfb" y="193.346684"/>
     <use style="fill:#1f77b4;stroke:#1f77b4;stroke-linejoin:miter;" x="780.150819" xlink:href="#m9e182d2bfb" y="194.017913"/>
     <use style="fill:#1f77b4;stroke:#1f77b4;stroke-linejoin:miter;" x="761.563365" xlink:href="#m9e182d2bfb" y="195.494238"/>
     <use style="fill:#1f77b4;stroke:#1f77b4;stroke-linejoin:miter;" x="742.612356" xlink:href="#m9e182d2bfb" y="198.857646"/>
     <use style="fill:#1f77b4;stroke:#1f77b4;stroke-linejoin:miter;" x="724.643753" xlink:href="#m9e182d2bfb" y="202.608172"/>
     <use style="fill:#1f77b4;stroke:#1f77b4;stroke-linejoin:miter;" x="708.580365" xlink:href="#m9e182d2bfb" y="204.833738"/>
     <use style="fill:#1f77b4;stroke:#1f77b4;stroke-linejoin:miter;" x="693.358147" xlink:href="#m9e182d2bfb" y="206.610529"/>
     <use style="fill:#1f77b4;stroke:#1f77b4;stroke-linejoin:miter;" x="678.312074" xlink:href="#m9e182d2bfb" y="209.499174"/>
     <use style="fill:#1f77b4;stroke:#1f77b4;stroke-linejoin:miter;" x="664.347147" xlink:href="#m9e182d2bfb" y="211.134458"/>
     <use style="fill:#1f77b4;stroke:#1f77b4;stroke-linejoin:miter;" x="650.654628" xlink:href="#m9e182d2bfb" y="213.141165"/>
     <use style="fill:#1f77b4;stroke:#1f77b4;stroke-linejoin:miter;" x="637.580899" xlink:href="#m9e182d2bfb" y="215.125923"/>
     <use style="fill:#1f77b4;stroke:#1f77b4;stroke-linejoin:miter;" x="624.022168" xlink:href="#m9e182d2bfb" y="216.956293"/>
     <use style="fill:#1f77b4;stroke:#1f77b4;stroke-linejoin:miter;" x="611.520121" xlink:href="#m9e182d2bfb" y="218.926557"/>
     <use style="fill:#1f77b4;stroke:#1f77b4;stroke-linejoin:miter;" x="599.274815" xlink:href="#m9e182d2bfb" y="221.785944"/>
     <use style="fill:#1f77b4;stroke:#1f77b4;stroke-linejoin:miter;" x="587.371894" xlink:href="#m9e182d2bfb" y="224.170049"/>
     <use style="fill:#1f77b4;stroke:#1f77b4;stroke-linejoin:miter;" x="575.797673" xlink:href="#m9e182d2bfb" y="225.394867"/>
     <use style="fill:#1f77b4;stroke:#1f77b4;stroke-linejoin:miter;" x="579.996505" xlink:href="#m9e182d2bfb" y="390.379097"/>
     <use style="fill:#1f77b4;stroke:#1f77b4;stroke-linejoin:miter;" x="578.079811" xlink:href="#m9e182d2bfb" y="393.530823"/>
     <use style="fill:#1f77b4;stroke:#1f77b4;stroke-linejoin:miter;" x="576.021315" xlink:href="#m9e182d2bfb" y="394.983358"/>
     <use style="fill:#1f77b4;stroke:#1f77b4;stroke-linejoin:miter;" x="573.818755" xlink:href="#m9e182d2bfb" y="395.748083"/>
     <use style="fill:#1f77b4;stroke:#1f77b4;stroke-linejoin:miter;" x="570.989656" xlink:href="#m9e182d2bfb" y="395.368941"/>
     <use style="fill:#1f77b4;stroke:#1f77b4;stroke-linejoin:miter;" x="567.959548" xlink:href="#m9e182d2bfb" y="394.173"/>
     <use style="fill:#1f77b4;stroke:#1f77b4;stroke-linejoin:miter;" x="463.543852" xlink:href="#m9e182d2bfb" y="246.984258"/>
     <use style="fill:#1f77b4;stroke:#1f77b4;stroke-linejoin:miter;" x="451.262433" xlink:href="#m9e182d2bfb" y="248.552546"/>
     <use style="fill:#1f77b4;stroke:#1f77b4;stroke-linejoin:miter;" x="439.013138" xlink:href="#m9e182d2bfb" y="250.647193"/>
     <use style="fill:#1f77b4;stroke:#1f77b4;stroke-linejoin:miter;" x="426.49347" xlink:href="#m9e182d2bfb" y="252.663241"/>
     <use style="fill:#1f77b4;stroke:#1f77b4;stroke-linejoin:miter;" x="407.615537" xlink:href="#m9e182d2bfb" y="264.029888"/>
     <use style="fill:#1f77b4;stroke:#1f77b4;stroke-linejoin:miter;" x="399.143528" xlink:href="#m9e182d2bfb" y="270.829731"/>
     <use style="fill:#1f77b4;stroke:#1f77b4;stroke-linejoin:miter;" x="390.470239" xlink:href="#m9e182d2bfb" y="276.907585"/>
     <use style="fill:#1f77b4;stroke:#1f77b4;stroke-linejoin:miter;" x="392.59713" xlink:href="#m9e182d2bfb" y="291.238067"/>
     <use style="fill:#1f77b4;stroke:#1f77b4;stroke-linejoin:miter;" x="412.394177" xlink:href="#m9e182d2bfb" y="316.494088"/>
     <use style="fill:#1f77b4;stroke:#1f77b4;stroke-linejoin:miter;" x="420.318054" xlink:href="#m9e182d2bfb" y="331.204735"/>
     <use style="fill:#1f77b4;stroke:#1f77b4;stroke-linejoin:miter;" x="424.76146" xlink:href="#m9e182d2bfb" y="342.304135"/>
     <use style="fill:#1f77b4;stroke:#1f77b4;stroke-linejoin:miter;" x="418.361551" xlink:href="#m9e182d2bfb" y="346.868167"/>
     <use style="fill:#1f77b4;stroke:#1f77b4;stroke-linejoin:miter;" x="420.36773" xlink:href="#m9e182d2bfb" y="355.602264"/>
     <use style="fill:#1f77b4;stroke:#1f77b4;stroke-linejoin:miter;" x="407.357069" xlink:href="#m9e182d2bfb" y="356.975169"/>
     <use style="fill:#1f77b4;stroke:#1f77b4;stroke-linejoin:miter;" x="404.853864" xlink:href="#m9e182d2bfb" y="363.38427"/>
     <use style="fill:#1f77b4;stroke:#1f77b4;stroke-linejoin:miter;" x="454.601149" xlink:href="#m9e182d2bfb" y="388.864328"/>
     <use style="fill:#1f77b4;stroke:#1f77b4;stroke-linejoin:miter;" x="455.001493" xlink:href="#m9e182d2bfb" y="394.141101"/>
     <use style="fill:#1f77b4;stroke:#1f77b4;stroke-linejoin:miter;" x="456.35589" xlink:href="#m9e182d2bfb" y="399.408764"/>
     <use style="fill:#1f77b4;stroke:#1f77b4;stroke-linejoin:miter;" x="457.426978" xlink:href="#m9e182d2bfb" y="404.214493"/>
     <use style="fill:#1f77b4;stroke:#1f77b4;stroke-linejoin:miter;" x="458.712019" xlink:href="#m9e182d2bfb" y="408.962332"/>
     <use style="fill:#1f77b4;stroke:#1f77b4;stroke-linejoin:miter;" x="454.587481" xlink:href="#m9e182d2bfb" y="412.577407"/>
     <use style="fill:#1f77b4;stroke:#1f77b4;stroke-linejoin:miter;" x="439.529829" xlink:href="#m9e182d2bfb" y="414.658099"/>
     <use style="fill:#1f77b4;stroke:#1f77b4;stroke-linejoin:miter;" x="421.783055" xlink:href="#m9e182d2bfb" y="417.226569"/>
     <use style="fill:#1f77b4;stroke:#1f77b4;stroke-linejoin:miter;" x="418.10021" xlink:href="#m9e182d2bfb" y="427.5531"/>
     <use style="fill:#1f77b4;stroke:#1f77b4;stroke-linejoin:miter;" x="420.162995" xlink:href="#m9e182d2bfb" y="432.825115"/>
     <use style="fill:#1f77b4;stroke:#1f77b4;stroke-linejoin:miter;" x="420.749696" xlink:href="#m9e182d2bfb" y="437.66457"/>
     <use style="fill:#1f77b4;stroke:#1f77b4;stroke-linejoin:miter;" x="395.834243" xlink:href="#m9e182d2bfb" y="443.402919"/>
     <use style="fill:#1f77b4;stroke:#1f77b4;stroke-linejoin:miter;" x="396.534199" xlink:href="#m9e182d2bfb" y="449.395511"/>
     <use style="fill:#1f77b4;stroke:#1f77b4;stroke-linejoin:miter;" x="397.531516" xlink:href="#m9e182d2bfb" y="455.161112"/>
     <use style="fill:#1f77b4;stroke:#1f77b4;stroke-linejoin:miter;" x="399.835121" xlink:href="#m9e182d2bfb" y="461.039399"/>
     <use style="fill:#1f77b4;stroke:#1f77b4;stroke-linejoin:miter;" x="401.394528" xlink:href="#m9e182d2bfb" y="466.778632"/>
     <use style="fill:#1f77b4;stroke:#1f77b4;stroke-linejoin:miter;" x="437.171311" xlink:href="#m9e182d2bfb" y="466.281242"/>
     <use style="fill:#1f77b4;stroke:#1f77b4;stroke-linejoin:miter;" x="404.143221" xlink:href="#m9e182d2bfb" y="478.545921"/>
     <use style="fill:#1f77b4;stroke:#1f77b4;stroke-linejoin:miter;" x="405.404879" xlink:href="#m9e182d2bfb" y="484.501977"/>
     <use style="fill:#1f77b4;stroke:#1f77b4;stroke-linejoin:miter;" x="407.451647" xlink:href="#m9e182d2bfb" y="490.321099"/>
     <use style="fill:#1f77b4;stroke:#1f77b4;stroke-linejoin:miter;" x="408.696631" xlink:href="#m9e182d2bfb" y="496.603215"/>
     <use style="fill:#1f77b4;stroke:#1f77b4;stroke-linejoin:miter;" x="412.101742" xlink:href="#m9e182d2bfb" y="509.115772"/>
     <use style="fill:#1f77b4;stroke:#1f77b4;stroke-linejoin:miter;" x="468.881336" xlink:href="#m9e182d2bfb" y="491.640033"/>
     <use style="fill:#1f77b4;stroke:#1f77b4;stroke-linejoin:miter;" x="434.433559" xlink:href="#m9e182d2bfb" y="513.290029"/>
     <use style="fill:#1f77b4;stroke:#1f77b4;stroke-linejoin:miter;" x="442.75826" xlink:href="#m9e182d2bfb" y="515.93153"/>
     <use style="fill:#1f77b4;stroke:#1f77b4;stroke-linejoin:miter;" x="459.589101" xlink:href="#m9e182d2bfb" y="513.422215"/>
     <use style="fill:#1f77b4;stroke:#1f77b4;stroke-linejoin:miter;" x="467.174532" xlink:href="#m9e182d2bfb" y="515.308823"/>
     <use style="fill:#1f77b4;stroke:#1f77b4;stroke-linejoin:miter;" x="456.463065" xlink:href="#m9e182d2bfb" y="529.236773"/>
     <use style="fill:#1f77b4;stroke:#1f77b4;stroke-linejoin:miter;" x="455.166852" xlink:href="#m9e182d2bfb" y="537.918324"/>
     <use style="fill:#1f77b4;stroke:#1f77b4;stroke-linejoin:miter;" x="468.340759" xlink:href="#m9e182d2bfb" y="536.123742"/>
     <use style="fill:#1f77b4;stroke:#1f77b4;stroke-linejoin:miter;" x="471.916711" xlink:href="#m9e182d2bfb" y="541.24803"/>
     <use style="fill:#1f77b4;stroke:#1f77b4;stroke-linejoin:miter;" x="458.84103" xlink:href="#m9e182d2bfb" y="562.717168"/>
     <use style="fill:#1f77b4;stroke:#1f77b4;stroke-linejoin:miter;" x="451.056897" xlink:href="#m9e182d2bfb" y="581.720807"/>
     <use style="fill:#1f77b4;stroke:#1f77b4;stroke-linejoin:miter;" x="527.670405" xlink:href="#m9e182d2bfb" y="509.604622"/>
     <use style="fill:#1f77b4;stroke:#1f77b4;stroke-linejoin:miter;" x="565.750591" xlink:href="#m9e182d2bfb" y="477.184214"/>
     <use style="fill:#1f77b4;stroke:#1f77b4;stroke-linejoin:miter;" x="568.835385" xlink:href="#m9e182d2bfb" y="476.757675"/>
     <use style="fill:#1f77b4;stroke:#1f77b4;stroke-linejoin:miter;" x="570.581486" xlink:href="#m9e182d2bfb" y="478.023515"/>
     <use style="fill:#1f77b4;stroke:#1f77b4;stroke-linejoin:miter;" x="572.418877" xlink:href="#m9e182d2bfb" y="479.638101"/>
     <use style="fill:#1f77b4;stroke:#1f77b4;stroke-linejoin:miter;" x="574.152634" xlink:href="#m9e182d2bfb" y="481.503595"/>
     <use style="fill:#1f77b4;stroke:#1f77b4;stroke-linejoin:miter;" x="576.219154" xlink:href="#m9e182d2bfb" y="483.317111"/>
     <use style="fill:#1f77b4;stroke:#1f77b4;stroke-linejoin:miter;" x="578.30098" xlink:href="#m9e182d2bfb" y="485.563808"/>
     <use style="fill:#1f77b4;stroke:#1f77b4;stroke-linejoin:miter;" x="580.264054" xlink:href="#m9e182d2bfb" y="488.814718"/>
     <use style="fill:#1f77b4;stroke:#1f77b4;stroke-linejoin:miter;" x="579.268417" xlink:href="#m9e182d2bfb" y="612.007695"/>
     <use style="fill:#1f77b4;stroke:#1f77b4;stroke-linejoin:miter;" x="588.50389" xlink:href="#m9e182d2bfb" y="635.587141"/>
     <use style="fill:#1f77b4;stroke:#1f77b4;stroke-linejoin:miter;" x="599.382853" xlink:href="#m9e182d2bfb" y="634.189983"/>
     <use style="fill:#1f77b4;stroke:#1f77b4;stroke-linejoin:miter;" x="610.859168" xlink:href="#m9e182d2bfb" y="641.471366"/>
     <use style="fill:#1f77b4;stroke:#1f77b4;stroke-linejoin:miter;" x="622.75094" xlink:href="#m9e182d2bfb" y="640.473174"/>
     <use style="fill:#1f77b4;stroke:#1f77b4;stroke-linejoin:miter;" x="632.239422" xlink:href="#m9e182d2bfb" y="630.085407"/>
     <use style="fill:#1f77b4;stroke:#1f77b4;stroke-linejoin:miter;" x="667.231148" xlink:href="#m9e182d2bfb" y="633.541883"/>
     <use style="fill:#1f77b4;stroke:#1f77b4;stroke-linejoin:miter;" x="668.508575" xlink:href="#m9e182d2bfb" y="609.174594"/>
     <use style="fill:#1f77b4;stroke:#1f77b4;stroke-linejoin:miter;" x="670.491353" xlink:href="#m9e182d2bfb" y="591.54116"/>
     <use style="fill:#1f77b4;stroke:#1f77b4;stroke-linejoin:miter;" x="684.803198" xlink:href="#m9e182d2bfb" y="599.562634"/>
     <use style="fill:#1f77b4;stroke:#1f77b4;stroke-linejoin:miter;" x="694.584957" xlink:href="#m9e182d2bfb" y="597.610265"/>
     <use style="fill:#1f77b4;stroke:#1f77b4;stroke-linejoin:miter;" x="745.755801" xlink:href="#m9e182d2bfb" y="602.130478"/>
     <use style="fill:#1f77b4;stroke:#1f77b4;stroke-linejoin:miter;" x="757.006242" xlink:href="#m9e182d2bfb" y="599.49122"/>
     <use style="fill:#1f77b4;stroke:#1f77b4;stroke-linejoin:miter;" x="761.552735" xlink:href="#m9e182d2bfb" y="590.433666"/>
     <use style="fill:#1f77b4;stroke:#1f77b4;stroke-linejoin:miter;" x="772.366716" xlink:href="#m9e182d2bfb" y="587.160997"/>
     <use style="fill:#1f77b4;stroke:#1f77b4;stroke-linejoin:miter;" x="785.406781" xlink:href="#m9e182d2bfb" y="585.323752"/>
     <use style="fill:#1f77b4;stroke:#1f77b4;stroke-linejoin:miter;" x="802.761897" xlink:href="#m9e182d2bfb" y="585.996486"/>
     <use style="fill:#1f77b4;stroke:#1f77b4;stroke-linejoin:miter;" x="815.005837" xlink:href="#m9e182d2bfb" y="582.131248"/>
     <use style="fill:#1f77b4;stroke:#1f77b4;stroke-linejoin:miter;" x="830.068967" xlink:href="#m9e182d2bfb" y="579.495183"/>
     <use style="fill:#1f77b4;stroke:#1f77b4;stroke-linejoin:miter;" x="835.989455" xlink:href="#m9e182d2bfb" y="570.427182"/>
     <use style="fill:#1f77b4;stroke:#1f77b4;stroke-linejoin:miter;" x="883.883456" xlink:href="#m9e182d2bfb" y="558.480507"/>
     <use style="fill:#1f77b4;stroke:#1f77b4;stroke-linejoin:miter;" x="901.177726" xlink:href="#m9e182d2bfb" y="553.600615"/>
     <use style="fill:#1f77b4;stroke:#1f77b4;stroke-linejoin:miter;" x="936.140476" xlink:href="#m9e182d2bfb" y="553.814718"/>
     <use style="fill:#1f77b4;stroke:#1f77b4;stroke-linejoin:miter;" x="960.225495" xlink:href="#m9e182d2bfb" y="548.799503"/>
     <use style="fill:#1f77b4;stroke:#1f77b4;stroke-linejoin:miter;" x="1050.385288" xlink:href="#m9e182d2bfb" y="544.5984"/>
     <use style="fill:#1f77b4;stroke:#1f77b4;stroke-linejoin:miter;" x="1060.870231" xlink:href="#m9e182d2bfb" y="531.487322"/>
     <use style="fill:#1f77b4;stroke:#1f77b4;stroke-linejoin:miter;" x="1104.833422" xlink:href="#m9e182d2bfb" y="523.939617"/>
     <use style="fill:#1f77b4;stroke:#1f77b4;stroke-linejoin:miter;" x="1108.578384" xlink:href="#m9e182d2bfb" y="507.884312"/>
    </g>
   </g>
   <g id="patch_3">
    <path d="M 144 768.96 
L 144 103.68 
" style="fill:none;stroke:#000000;stroke-linecap:square;stroke-linejoin:miter;stroke-width:0.8;"/>
   </g>
   <g id="patch_4">
    <path d="M 1036.8 768.96 
L 1036.8 103.68 
" style="fill:none;stroke:#000000;stroke-linecap:square;stroke-linejoin:miter;stroke-width:0.8;"/>
   </g>
   <g id="patch_5">
    <path d="M 144 768.96 
L 1036.8 768.96 
" style="fill:none;stroke:#000000;stroke-linecap:square;stroke-linejoin:miter;stroke-width:0.8;"/>
   </g>
   <g id="patch_6">
    <path d="M 144 103.68 
L 1036.8 103.68 
" style="fill:none;stroke:#000000;stroke-linecap:square;stroke-linejoin:miter;stroke-width:0.8;"/>
   </g>
  </g>
 </g>
 <defs>
  <clipPath id="pe9e532f219">
   <rect height="665.28" width="892.8" x="144" y="103.68"/>
  </clipPath>
 </defs>
</svg>
