<?xml version="1.0" encoding="utf-8" standalone="no"?>
<!DOCTYPE svg PUBLIC "-//W3C//DTD SVG 1.1//EN"
  "http://www.w3.org/Graphics/SVG/1.1/DTD/svg11.dtd">
<!-- Created with matplotlib (http://matplotlib.org/) -->
<svg height="864pt" version="1.1" viewBox="0 0 1152 864" width="1152pt" xmlns="http://www.w3.org/2000/svg" xmlns:xlink="http://www.w3.org/1999/xlink">
 <defs>
  <style type="text/css">
*{stroke-linecap:butt;stroke-linejoin:round;}
  </style>
 </defs>
 <g id="figure_1">
  <g id="patch_1">
   <path d="M 0 864 
L 1152 864 
L 1152 0 
L 0 0 
z
" style="fill:#ffffff;"/>
  </g>
  <g id="axes_1">
   <g id="patch_2">
    <path d="M 144 768.96 
L 1036.8 768.96 
L 1036.8 103.68 
L 144 103.68 
z
" style="fill:#ffffff;"/>
   </g>
   <g id="matplotlib.axis_1">
    <g id="xtick_1">
     <g id="line2d_1">
      <defs>
       <path d="M 0 0 
L 0 3.5 
" id="m8b6bb6cccc" style="stroke:#000000;stroke-width:0.8;"/>
      </defs>
      <g>
       <use style="stroke:#000000;stroke-width:0.8;" x="144" xlink:href="#m8b6bb6cccc" y="768.96"/>
      </g>
     </g>
     <g id="text_1">
      <!-- −4000 -->
      <defs>
       <path d="M 10.59375 35.5 
L 73.1875 35.5 
L 73.1875 27.203125 
L 10.59375 27.203125 
z
" id="DejaVuSans-2212"/>
       <path d="M 37.796875 64.3125 
L 12.890625 25.390625 
L 37.796875 25.390625 
z
M 35.203125 72.90625 
L 47.609375 72.90625 
L 47.609375 25.390625 
L 58.015625 25.390625 
L 58.015625 17.1875 
L 47.609375 17.1875 
L 47.609375 0 
L 37.796875 0 
L 37.796875 17.1875 
L 4.890625 17.1875 
L 4.890625 26.703125 
z
" id="DejaVuSans-34"/>
       <path d="M 31.78125 66.40625 
Q 24.171875 66.40625 20.328125 58.90625 
Q 16.5 51.421875 16.5 36.375 
Q 16.5 21.390625 20.328125 13.890625 
Q 24.171875 6.390625 31.78125 6.390625 
Q 39.453125 6.390625 43.28125 13.890625 
Q 47.125 21.390625 47.125 36.375 
Q 47.125 51.421875 43.28125 58.90625 
Q 39.453125 66.40625 31.78125 66.40625 
z
M 31.78125 74.21875 
Q 44.046875 74.21875 50.515625 64.515625 
Q 56.984375 54.828125 56.984375 36.375 
Q 56.984375 17.96875 50.515625 8.265625 
Q 44.046875 -1.421875 31.78125 -1.421875 
Q 19.53125 -1.421875 13.0625 8.265625 
Q 6.59375 17.96875 6.59375 36.375 
Q 6.59375 54.828125 13.0625 64.515625 
Q 19.53125 74.21875 31.78125 74.21875 
z
" id="DejaVuSans-30"/>
      </defs>
      <g transform="translate(127.085156 783.558437)scale(0.1 -0.1)">
       <use xlink:href="#DejaVuSans-2212"/>
       <use x="83.789062" xlink:href="#DejaVuSans-34"/>
       <use x="147.412109" xlink:href="#DejaVuSans-30"/>
       <use x="211.035156" xlink:href="#DejaVuSans-30"/>
       <use x="274.658203" xlink:href="#DejaVuSans-30"/>
      </g>
     </g>
    </g>
    <g id="xtick_2">
     <g id="line2d_2">
      <g>
       <use style="stroke:#000000;stroke-width:0.8;" x="255.6" xlink:href="#m8b6bb6cccc" y="768.96"/>
      </g>
     </g>
     <g id="text_2">
      <!-- −3000 -->
      <defs>
       <path d="M 40.578125 39.3125 
Q 47.65625 37.796875 51.625 33 
Q 55.609375 28.21875 55.609375 21.1875 
Q 55.609375 10.40625 48.1875 4.484375 
Q 40.765625 -1.421875 27.09375 -1.421875 
Q 22.515625 -1.421875 17.65625 -0.515625 
Q 12.796875 0.390625 7.625 2.203125 
L 7.625 11.71875 
Q 11.71875 9.328125 16.59375 8.109375 
Q 21.484375 6.890625 26.8125 6.890625 
Q 36.078125 6.890625 40.9375 10.546875 
Q 45.796875 14.203125 45.796875 21.1875 
Q 45.796875 27.640625 41.28125 31.265625 
Q 36.765625 34.90625 28.71875 34.90625 
L 20.21875 34.90625 
L 20.21875 43.015625 
L 29.109375 43.015625 
Q 36.375 43.015625 40.234375 45.921875 
Q 44.09375 48.828125 44.09375 54.296875 
Q 44.09375 59.90625 40.109375 62.90625 
Q 36.140625 65.921875 28.71875 65.921875 
Q 24.65625 65.921875 20.015625 65.03125 
Q 15.375 64.15625 9.8125 62.3125 
L 9.8125 71.09375 
Q 15.4375 72.65625 20.34375 73.4375 
Q 25.25 74.21875 29.59375 74.21875 
Q 40.828125 74.21875 47.359375 69.109375 
Q 53.90625 64.015625 53.90625 55.328125 
Q 53.90625 49.265625 50.4375 45.09375 
Q 46.96875 40.921875 40.578125 39.3125 
z
" id="DejaVuSans-33"/>
      </defs>
      <g transform="translate(238.685156 783.558437)scale(0.1 -0.1)">
       <use xlink:href="#DejaVuSans-2212"/>
       <use x="83.789062" xlink:href="#DejaVuSans-33"/>
       <use x="147.412109" xlink:href="#DejaVuSans-30"/>
       <use x="211.035156" xlink:href="#DejaVuSans-30"/>
       <use x="274.658203" xlink:href="#DejaVuSans-30"/>
      </g>
     </g>
    </g>
    <g id="xtick_3">
     <g id="line2d_3">
      <g>
       <use style="stroke:#000000;stroke-width:0.8;" x="367.2" xlink:href="#m8b6bb6cccc" y="768.96"/>
      </g>
     </g>
     <g id="text_3">
      <!-- −2000 -->
      <defs>
       <path d="M 19.1875 8.296875 
L 53.609375 8.296875 
L 53.609375 0 
L 7.328125 0 
L 7.328125 8.296875 
Q 12.9375 14.109375 22.625 23.890625 
Q 32.328125 33.6875 34.8125 36.53125 
Q 39.546875 41.84375 41.421875 45.53125 
Q 43.3125 49.21875 43.3125 52.78125 
Q 43.3125 58.59375 39.234375 62.25 
Q 35.15625 65.921875 28.609375 65.921875 
Q 23.96875 65.921875 18.8125 64.3125 
Q 13.671875 62.703125 7.8125 59.421875 
L 7.8125 69.390625 
Q 13.765625 71.78125 18.9375 73 
Q 24.125 74.21875 28.421875 74.21875 
Q 39.75 74.21875 46.484375 68.546875 
Q 53.21875 62.890625 53.21875 53.421875 
Q 53.21875 48.921875 51.53125 44.890625 
Q 49.859375 40.875 45.40625 35.40625 
Q 44.1875 33.984375 37.640625 27.21875 
Q 31.109375 20.453125 19.1875 8.296875 
z
" id="DejaVuSans-32"/>
      </defs>
      <g transform="translate(350.285156 783.558437)scale(0.1 -0.1)">
       <use xlink:href="#DejaVuSans-2212"/>
       <use x="83.789062" xlink:href="#DejaVuSans-32"/>
       <use x="147.412109" xlink:href="#DejaVuSans-30"/>
       <use x="211.035156" xlink:href="#DejaVuSans-30"/>
       <use x="274.658203" xlink:href="#DejaVuSans-30"/>
      </g>
     </g>
    </g>
    <g id="xtick_4">
     <g id="line2d_4">
      <g>
       <use style="stroke:#000000;stroke-width:0.8;" x="478.8" xlink:href="#m8b6bb6cccc" y="768.96"/>
      </g>
     </g>
     <g id="text_4">
      <!-- −1000 -->
      <defs>
       <path d="M 12.40625 8.296875 
L 28.515625 8.296875 
L 28.515625 63.921875 
L 10.984375 60.40625 
L 10.984375 69.390625 
L 28.421875 72.90625 
L 38.28125 72.90625 
L 38.28125 8.296875 
L 54.390625 8.296875 
L 54.390625 0 
L 12.40625 0 
z
" id="DejaVuSans-31"/>
      </defs>
      <g transform="translate(461.885156 783.558437)scale(0.1 -0.1)">
       <use xlink:href="#DejaVuSans-2212"/>
       <use x="83.789062" xlink:href="#DejaVuSans-31"/>
       <use x="147.412109" xlink:href="#DejaVuSans-30"/>
       <use x="211.035156" xlink:href="#DejaVuSans-30"/>
       <use x="274.658203" xlink:href="#DejaVuSans-30"/>
      </g>
     </g>
    </g>
    <g id="xtick_5">
     <g id="line2d_5">
      <g>
       <use style="stroke:#000000;stroke-width:0.8;" x="590.4" xlink:href="#m8b6bb6cccc" y="768.96"/>
      </g>
     </g>
     <g id="text_5">
      <!-- 0 -->
      <g transform="translate(587.21875 783.558437)scale(0.1 -0.1)">
       <use xlink:href="#DejaVuSans-30"/>
      </g>
     </g>
    </g>
    <g id="xtick_6">
     <g id="line2d_6">
      <g>
       <use style="stroke:#000000;stroke-width:0.8;" x="702" xlink:href="#m8b6bb6cccc" y="768.96"/>
      </g>
     </g>
     <g id="text_6">
      <!-- 1000 -->
      <g transform="translate(689.275 783.558437)scale(0.1 -0.1)">
       <use xlink:href="#DejaVuSans-31"/>
       <use x="63.623047" xlink:href="#DejaVuSans-30"/>
       <use x="127.246094" xlink:href="#DejaVuSans-30"/>
       <use x="190.869141" xlink:href="#DejaVuSans-30"/>
      </g>
     </g>
    </g>
    <g id="xtick_7">
     <g id="line2d_7">
      <g>
       <use style="stroke:#000000;stroke-width:0.8;" x="813.6" xlink:href="#m8b6bb6cccc" y="768.96"/>
      </g>
     </g>
     <g id="text_7">
      <!-- 2000 -->
      <g transform="translate(800.875 783.558437)scale(0.1 -0.1)">
       <use xlink:href="#DejaVuSans-32"/>
       <use x="63.623047" xlink:href="#DejaVuSans-30"/>
       <use x="127.246094" xlink:href="#DejaVuSans-30"/>
       <use x="190.869141" xlink:href="#DejaVuSans-30"/>
      </g>
     </g>
    </g>
    <g id="xtick_8">
     <g id="line2d_8">
      <g>
       <use style="stroke:#000000;stroke-width:0.8;" x="925.2" xlink:href="#m8b6bb6cccc" y="768.96"/>
      </g>
     </g>
     <g id="text_8">
      <!-- 3000 -->
      <g transform="translate(912.475 783.558437)scale(0.1 -0.1)">
       <use xlink:href="#DejaVuSans-33"/>
       <use x="63.623047" xlink:href="#DejaVuSans-30"/>
       <use x="127.246094" xlink:href="#DejaVuSans-30"/>
       <use x="190.869141" xlink:href="#DejaVuSans-30"/>
      </g>
     </g>
    </g>
    <g id="xtick_9">
     <g id="line2d_9">
      <g>
       <use style="stroke:#000000;stroke-width:0.8;" x="1036.8" xlink:href="#m8b6bb6cccc" y="768.96"/>
      </g>
     </g>
     <g id="text_9">
      <!-- 4000 -->
      <g transform="translate(1024.075 783.558437)scale(0.1 -0.1)">
       <use xlink:href="#DejaVuSans-34"/>
       <use x="63.623047" xlink:href="#DejaVuSans-30"/>
       <use x="127.246094" xlink:href="#DejaVuSans-30"/>
       <use x="190.869141" xlink:href="#DejaVuSans-30"/>
      </g>
     </g>
    </g>
   </g>
   <g id="matplotlib.axis_2">
    <g id="ytick_1">
     <g id="line2d_10">
      <defs>
       <path d="M 0 0 
L -3.5 0 
" id="m0e813db8b6" style="stroke:#000000;stroke-width:0.8;"/>
      </defs>
      <g>
       <use style="stroke:#000000;stroke-width:0.8;" x="144" xlink:href="#m0e813db8b6" y="768.96"/>
      </g>
     </g>
     <g id="text_10">
      <!-- −4000 -->
      <g transform="translate(103.170312 772.759219)scale(0.1 -0.1)">
       <use xlink:href="#DejaVuSans-2212"/>
       <use x="83.789062" xlink:href="#DejaVuSans-34"/>
       <use x="147.412109" xlink:href="#DejaVuSans-30"/>
       <use x="211.035156" xlink:href="#DejaVuSans-30"/>
       <use x="274.658203" xlink:href="#DejaVuSans-30"/>
      </g>
     </g>
    </g>
    <g id="ytick_2">
     <g id="line2d_11">
      <g>
       <use style="stroke:#000000;stroke-width:0.8;" x="144" xlink:href="#m0e813db8b6" y="685.8"/>
      </g>
     </g>
     <g id="text_11">
      <!-- −3000 -->
      <g transform="translate(103.170312 689.599219)scale(0.1 -0.1)">
       <use xlink:href="#DejaVuSans-2212"/>
       <use x="83.789062" xlink:href="#DejaVuSans-33"/>
       <use x="147.412109" xlink:href="#DejaVuSans-30"/>
       <use x="211.035156" xlink:href="#DejaVuSans-30"/>
       <use x="274.658203" xlink:href="#DejaVuSans-30"/>
      </g>
     </g>
    </g>
    <g id="ytick_3">
     <g id="line2d_12">
      <g>
       <use style="stroke:#000000;stroke-width:0.8;" x="144" xlink:href="#m0e813db8b6" y="602.64"/>
      </g>
     </g>
     <g id="text_12">
      <!-- −2000 -->
      <g transform="translate(103.170312 606.439219)scale(0.1 -0.1)">
       <use xlink:href="#DejaVuSans-2212"/>
       <use x="83.789062" xlink:href="#DejaVuSans-32"/>
       <use x="147.412109" xlink:href="#DejaVuSans-30"/>
       <use x="211.035156" xlink:href="#DejaVuSans-30"/>
       <use x="274.658203" xlink:href="#DejaVuSans-30"/>
      </g>
     </g>
    </g>
    <g id="ytick_4">
     <g id="line2d_13">
      <g>
       <use style="stroke:#000000;stroke-width:0.8;" x="144" xlink:href="#m0e813db8b6" y="519.48"/>
      </g>
     </g>
     <g id="text_13">
      <!-- −1000 -->
      <g transform="translate(103.170312 523.279219)scale(0.1 -0.1)">
       <use xlink:href="#DejaVuSans-2212"/>
       <use x="83.789062" xlink:href="#DejaVuSans-31"/>
       <use x="147.412109" xlink:href="#DejaVuSans-30"/>
       <use x="211.035156" xlink:href="#DejaVuSans-30"/>
       <use x="274.658203" xlink:href="#DejaVuSans-30"/>
      </g>
     </g>
    </g>
    <g id="ytick_5">
     <g id="line2d_14">
      <g>
       <use style="stroke:#000000;stroke-width:0.8;" x="144" xlink:href="#m0e813db8b6" y="436.32"/>
      </g>
     </g>
     <g id="text_14">
      <!-- 0 -->
      <g transform="translate(130.6375 440.119219)scale(0.1 -0.1)">
       <use xlink:href="#DejaVuSans-30"/>
      </g>
     </g>
    </g>
    <g id="ytick_6">
     <g id="line2d_15">
      <g>
       <use style="stroke:#000000;stroke-width:0.8;" x="144" xlink:href="#m0e813db8b6" y="353.16"/>
      </g>
     </g>
     <g id="text_15">
      <!-- 1000 -->
      <g transform="translate(111.55 356.959219)scale(0.1 -0.1)">
       <use xlink:href="#DejaVuSans-31"/>
       <use x="63.623047" xlink:href="#DejaVuSans-30"/>
       <use x="127.246094" xlink:href="#DejaVuSans-30"/>
       <use x="190.869141" xlink:href="#DejaVuSans-30"/>
      </g>
     </g>
    </g>
    <g id="ytick_7">
     <g id="line2d_16">
      <g>
       <use style="stroke:#000000;stroke-width:0.8;" x="144" xlink:href="#m0e813db8b6" y="270"/>
      </g>
     </g>
     <g id="text_16">
      <!-- 2000 -->
      <g transform="translate(111.55 273.799219)scale(0.1 -0.1)">
       <use xlink:href="#DejaVuSans-32"/>
       <use x="63.623047" xlink:href="#DejaVuSans-30"/>
       <use x="127.246094" xlink:href="#DejaVuSans-30"/>
       <use x="190.869141" xlink:href="#DejaVuSans-30"/>
      </g>
     </g>
    </g>
    <g id="ytick_8">
     <g id="line2d_17">
      <g>
       <use style="stroke:#000000;stroke-width:0.8;" x="144" xlink:href="#m0e813db8b6" y="186.84"/>
      </g>
     </g>
     <g id="text_17">
      <!-- 3000 -->
      <g transform="translate(111.55 190.639219)scale(0.1 -0.1)">
       <use xlink:href="#DejaVuSans-33"/>
       <use x="63.623047" xlink:href="#DejaVuSans-30"/>
       <use x="127.246094" xlink:href="#DejaVuSans-30"/>
       <use x="190.869141" xlink:href="#DejaVuSans-30"/>
      </g>
     </g>
    </g>
    <g id="ytick_9">
     <g id="line2d_18">
      <g>
       <use style="stroke:#000000;stroke-width:0.8;" x="144" xlink:href="#m0e813db8b6" y="103.68"/>
      </g>
     </g>
     <g id="text_18">
      <!-- 4000 -->
      <g transform="translate(111.55 107.479219)scale(0.1 -0.1)">
       <use xlink:href="#DejaVuSans-34"/>
       <use x="63.623047" xlink:href="#DejaVuSans-30"/>
       <use x="127.246094" xlink:href="#DejaVuSans-30"/>
       <use x="190.869141" xlink:href="#DejaVuSans-30"/>
      </g>
     </g>
    </g>
   </g>
   <g id="line2d_19">
    <path clip-path="url(#p0ebf6253da)" d="M 590.4 768.96 
L 590.4 103.68 
" style="fill:none;stroke:#1f77b4;stroke-linecap:square;stroke-width:1.5;"/>
   </g>
   <g id="line2d_20">
    <path clip-path="url(#p0ebf6253da)" d="M 144 436.32 
L 1036.8 436.32 
" style="fill:none;stroke:#1f77b4;stroke-linecap:square;stroke-width:1.5;"/>
   </g>
   <g id="line2d_21">
    <defs>
     <path d="M 0 3 
C 0.795609 3 1.55874 2.683901 2.12132 2.12132 
C 2.683901 1.55874 3 0.795609 3 0 
C 3 -0.795609 2.683901 -1.55874 2.12132 -2.12132 
C 1.55874 -2.683901 0.795609 -3 0 -3 
C -0.795609 -3 -1.55874 -2.683901 -2.12132 -2.12132 
C -2.683901 -1.55874 -3 -0.795609 -3 0 
C -3 0.795609 -2.683901 1.55874 -2.12132 2.12132 
C -1.55874 2.683901 -0.795609 3 0 3 
z
" id="m934f28ab0d" style="stroke:#008000;"/>
    </defs>
    <g clip-path="url(#p0ebf6253da)">
     <use style="fill:#008000;stroke:#008000;" x="1347.218399" xlink:href="#m934f28ab0d" y="346.368097"/>
    </g>
   </g>
   <g id="line2d_22">
    <g clip-path="url(#p0ebf6253da)">
     <use style="fill:#008000;stroke:#008000;" x="1259.004581" xlink:href="#m934f28ab0d" y="328.999549"/>
    </g>
   </g>
   <g id="line2d_23">
    <g clip-path="url(#p0ebf6253da)">
     <use style="fill:#008000;stroke:#008000;" x="647.358844" xlink:href="#m934f28ab0d" y="394.679066"/>
    </g>
   </g>
   <g id="line2d_24">
    <g clip-path="url(#p0ebf6253da)">
     <use style="fill:#008000;stroke:#008000;" x="647.358844" xlink:href="#m934f28ab0d" y="394.679066"/>
    </g>
   </g>
   <g id="line2d_25">
    <g clip-path="url(#p0ebf6253da)">
     <use style="fill:#008000;stroke:#008000;" x="712.072204" xlink:href="#m934f28ab0d" y="203.362359"/>
    </g>
   </g>
   <g id="line2d_26">
    <g clip-path="url(#p0ebf6253da)">
     <use style="fill:#008000;stroke:#008000;" x="537.776128" xlink:href="#m934f28ab0d" y="232.807922"/>
    </g>
   </g>
   <g id="line2d_27">
    <g clip-path="url(#p0ebf6253da)">
     <use style="fill:#008000;stroke:#008000;" x="572.230097" xlink:href="#m934f28ab0d" y="397.985966"/>
    </g>
   </g>
   <g id="line2d_28">
    <g clip-path="url(#p0ebf6253da)">
     <use style="fill:#008000;stroke:#008000;" x="572.230097" xlink:href="#m934f28ab0d" y="397.985966"/>
    </g>
   </g>
   <g id="line2d_29">
    <g clip-path="url(#p0ebf6253da)">
     <use style="fill:#008000;stroke:#008000;" x="449.344185" xlink:href="#m934f28ab0d" y="248.633781"/>
    </g>
   </g>
   <g id="line2d_30">
    <g clip-path="url(#p0ebf6253da)">
     <use style="fill:#008000;stroke:#008000;" x="411.477695" xlink:href="#m934f28ab0d" y="507.070825"/>
    </g>
   </g>
   <g id="line2d_31">
    <g clip-path="url(#p0ebf6253da)">
     <use style="fill:#008000;stroke:#008000;" x="577.563323" xlink:href="#m934f28ab0d" y="623.226975"/>
    </g>
   </g>
   <g id="line2d_32">
    <defs>
     <path d="M 0 1.333333 
C 0.353604 1.333333 0.692773 1.192845 0.942809 0.942809 
C 1.192845 0.692773 1.333333 0.353604 1.333333 0 
C 1.333333 -0.353604 1.192845 -0.692773 0.942809 -0.942809 
C 0.692773 -1.192845 0.353604 -1.333333 0 -1.333333 
C -0.353604 -1.333333 -0.692773 -1.192845 -0.942809 -0.942809 
C -1.192845 -0.692773 -1.333333 -0.353604 -1.333333 0 
C -1.333333 0.353604 -1.192845 0.692773 -0.942809 0.942809 
C -0.692773 1.192845 -0.353604 1.333333 0 1.333333 
z
" id="mad9f761572" style="stroke:#ff0000;"/>
    </defs>
    <g clip-path="url(#p0ebf6253da)">
     <use style="fill:#ff0000;stroke:#ff0000;" x="1347.218399" xlink:href="#mad9f761572" y="346.368097"/>
     <use style="fill:#ff0000;stroke:#ff0000;" x="1259.004581" xlink:href="#mad9f761572" y="328.999549"/>
     <use style="fill:#ff0000;stroke:#ff0000;" x="1353.935701" xlink:href="#mad9f761572" y="282.370686"/>
     <use style="fill:#ff0000;stroke:#ff0000;" x="1347.809072" xlink:href="#mad9f761572" y="250.552694"/>
     <use style="fill:#ff0000;stroke:#ff0000;" x="652.23386" xlink:href="#mad9f761572" y="399.833178"/>
     <use style="fill:#ff0000;stroke:#ff0000;" x="641.706886" xlink:href="#mad9f761572" y="389.889418"/>
     <use style="fill:#ff0000;stroke:#ff0000;" x="795.444604" xlink:href="#mad9f761572" y="191.059279"/>
     <use style="fill:#ff0000;stroke:#ff0000;" x="767.575622" xlink:href="#mad9f761572" y="197.065666"/>
     <use style="fill:#ff0000;stroke:#ff0000;" x="745.418438" xlink:href="#mad9f761572" y="197.833258"/>
     <use style="fill:#ff0000;stroke:#ff0000;" x="722.782714" xlink:href="#mad9f761572" y="201.613479"/>
     <use style="fill:#ff0000;stroke:#ff0000;" x="701.58328" xlink:href="#mad9f761572" y="205.367081"/>
     <use style="fill:#ff0000;stroke:#ff0000;" x="537.776128" xlink:href="#mad9f761572" y="232.807922"/>
     <use style="fill:#ff0000;stroke:#ff0000;" x="575.177288" xlink:href="#mad9f761572" y="397.44211"/>
     <use style="fill:#ff0000;stroke:#ff0000;" x="569.317184" xlink:href="#mad9f761572" y="398.65421"/>
     <use style="fill:#ff0000;stroke:#ff0000;" x="449.344185" xlink:href="#mad9f761572" y="248.633781"/>
     <use style="fill:#ff0000;stroke:#ff0000;" x="393.117845" xlink:href="#mad9f761572" y="286.969173"/>
     <use style="fill:#ff0000;stroke:#ff0000;" x="415.606883" xlink:href="#mad9f761572" y="317.815455"/>
     <use style="fill:#ff0000;stroke:#ff0000;" x="418.665352" xlink:href="#mad9f761572" y="343.077479"/>
     <use style="fill:#ff0000;stroke:#ff0000;" x="401.510277" xlink:href="#mad9f761572" y="364.988976"/>
     <use style="fill:#ff0000;stroke:#ff0000;" x="454.417228" xlink:href="#mad9f761572" y="392.195123"/>
     <use style="fill:#ff0000;stroke:#ff0000;" x="441.05292" xlink:href="#mad9f761572" y="414.057281"/>
     <use style="fill:#ff0000;stroke:#ff0000;" x="418.000729" xlink:href="#mad9f761572" y="424.339032"/>
     <use style="fill:#ff0000;stroke:#ff0000;" x="420.695432" xlink:href="#mad9f761572" y="437.76847"/>
     <use style="fill:#ff0000;stroke:#ff0000;" x="395.873875" xlink:href="#mad9f761572" y="445.423817"/>
     <use style="fill:#ff0000;stroke:#ff0000;" x="411.477695" xlink:href="#mad9f761572" y="507.070825"/>
     <use style="fill:#ff0000;stroke:#ff0000;" x="468.947019" xlink:href="#mad9f761572" y="491.440811"/>
     <use style="fill:#ff0000;stroke:#ff0000;" x="435.211356" xlink:href="#mad9f761572" y="514.826296"/>
     <use style="fill:#ff0000;stroke:#ff0000;" x="451.523946" xlink:href="#mad9f761572" y="514.967337"/>
     <use style="fill:#ff0000;stroke:#ff0000;" x="469.799203" xlink:href="#mad9f761572" y="512.862032"/>
     <use style="fill:#ff0000;stroke:#ff0000;" x="457.268108" xlink:href="#mad9f761572" y="529.846682"/>
     <use style="fill:#ff0000;stroke:#ff0000;" x="456.291592" xlink:href="#mad9f761572" y="540.938963"/>
     <use style="fill:#ff0000;stroke:#ff0000;" x="472.320838" xlink:href="#mad9f761572" y="538.830196"/>
     <use style="fill:#ff0000;stroke:#ff0000;" x="458.562527" xlink:href="#mad9f761572" y="563.056096"/>
     <use style="fill:#ff0000;stroke:#ff0000;" x="537.239665" xlink:href="#mad9f761572" y="502.574127"/>
     <use style="fill:#ff0000;stroke:#ff0000;" x="572.367419" xlink:href="#mad9f761572" y="498.289403"/>
     <use style="fill:#ff0000;stroke:#ff0000;" x="571.136055" xlink:href="#mad9f761572" y="621.293802"/>
     <use style="fill:#ff0000;stroke:#ff0000;" x="584.113857" xlink:href="#mad9f761572" y="625.035075"/>
     <use style="fill:#ff0000;stroke:#ff0000;" x="598.018347" xlink:href="#mad9f761572" y="642.374664"/>
     <use style="fill:#ff0000;stroke:#ff0000;" x="668.730127" xlink:href="#mad9f761572" y="627.982531"/>
     <use style="fill:#ff0000;stroke:#ff0000;" x="667.666721" xlink:href="#mad9f761572" y="593.574545"/>
     <use style="fill:#ff0000;stroke:#ff0000;" x="696.345306" xlink:href="#mad9f761572" y="597.180737"/>
     <use style="fill:#ff0000;stroke:#ff0000;" x="745.95362" xlink:href="#mad9f761572" y="601.189507"/>
     <use style="fill:#ff0000;stroke:#ff0000;" x="783.822331" xlink:href="#mad9f761572" y="584.355186"/>
     <use style="fill:#ff0000;stroke:#ff0000;" x="803.179267" xlink:href="#mad9f761572" y="583.047072"/>
     <use style="fill:#ff0000;stroke:#ff0000;" x="834.021098" xlink:href="#mad9f761572" y="587.554163"/>
     <use style="fill:#ff0000;stroke:#ff0000;" x="874.488042" xlink:href="#mad9f761572" y="576.934155"/>
     <use style="fill:#ff0000;stroke:#ff0000;" x="893.459137" xlink:href="#mad9f761572" y="553.878583"/>
     <use style="fill:#ff0000;stroke:#ff0000;" x="936.683463" xlink:href="#mad9f761572" y="553.829278"/>
     <use style="fill:#ff0000;stroke:#ff0000;" x="964.985851" xlink:href="#mad9f761572" y="546.095176"/>
     <use style="fill:#ff0000;stroke:#ff0000;" x="1058.091869" xlink:href="#mad9f761572" y="552.822764"/>
     <use style="fill:#ff0000;stroke:#ff0000;" x="1088.041993" xlink:href="#mad9f761572" y="517.787238"/>
     <use style="fill:#ff0000;stroke:#ff0000;" x="1126.711939" xlink:href="#mad9f761572" y="502.188698"/>
    </g>
   </g>
   <g id="line2d_33">
    <defs>
     <path d="M -0.5 0.5 
L 0.5 0.5 
L 0.5 -0.5 
L -0.5 -0.5 
z
" id="mc041a83a67" style="stroke:#1f77b4;stroke-linejoin:miter;"/>
    </defs>
    <g clip-path="url(#p0ebf6253da)">
     <use style="fill:#1f77b4;stroke:#1f77b4;stroke-linejoin:miter;" x="1347.218399" xlink:href="#mc041a83a67" y="346.368097"/>
     <use style="fill:#1f77b4;stroke:#1f77b4;stroke-linejoin:miter;" x="1259.004581" xlink:href="#mc041a83a67" y="328.999549"/>
     <use style="fill:#1f77b4;stroke:#1f77b4;stroke-linejoin:miter;" x="1353.935701" xlink:href="#mc041a83a67" y="282.370686"/>
     <use style="fill:#1f77b4;stroke:#1f77b4;stroke-linejoin:miter;" x="1347.809072" xlink:href="#mc041a83a67" y="250.552694"/>
     <use style="fill:#1f77b4;stroke:#1f77b4;stroke-linejoin:miter;" x="652.23386" xlink:href="#mc041a83a67" y="399.833178"/>
     <use style="fill:#1f77b4;stroke:#1f77b4;stroke-linejoin:miter;" x="648.623291" xlink:href="#mc041a83a67" y="398.040874"/>
     <use style="fill:#1f77b4;stroke:#1f77b4;stroke-linejoin:miter;" x="646.512251" xlink:href="#mc041a83a67" y="395.253205"/>
     <use style="fill:#1f77b4;stroke:#1f77b4;stroke-linejoin:miter;" x="643.761425" xlink:href="#mc041a83a67" y="392.926444"/>
     <use style="fill:#1f77b4;stroke:#1f77b4;stroke-linejoin:miter;" x="641.706886" xlink:href="#mc041a83a67" y="389.889418"/>
     <use style="fill:#1f77b4;stroke:#1f77b4;stroke-linejoin:miter;" x="795.444604" xlink:href="#mc041a83a67" y="191.059279"/>
     <use style="fill:#1f77b4;stroke:#1f77b4;stroke-linejoin:miter;" x="767.575622" xlink:href="#mc041a83a67" y="197.065666"/>
     <use style="fill:#1f77b4;stroke:#1f77b4;stroke-linejoin:miter;" x="745.418438" xlink:href="#mc041a83a67" y="197.833258"/>
     <use style="fill:#1f77b4;stroke:#1f77b4;stroke-linejoin:miter;" x="722.782714" xlink:href="#mc041a83a67" y="201.613479"/>
     <use style="fill:#1f77b4;stroke:#1f77b4;stroke-linejoin:miter;" x="701.58328" xlink:href="#mc041a83a67" y="205.367081"/>
     <use style="fill:#1f77b4;stroke:#1f77b4;stroke-linejoin:miter;" x="681.925102" xlink:href="#mc041a83a67" y="208.362088"/>
     <use style="fill:#1f77b4;stroke:#1f77b4;stroke-linejoin:miter;" x="663.789872" xlink:href="#mc041a83a67" y="210.969069"/>
     <use style="fill:#1f77b4;stroke:#1f77b4;stroke-linejoin:miter;" x="646.048054" xlink:href="#mc041a83a67" y="214.275423"/>
     <use style="fill:#1f77b4;stroke:#1f77b4;stroke-linejoin:miter;" x="628.725543" xlink:href="#mc041a83a67" y="216.148053"/>
     <use style="fill:#1f77b4;stroke:#1f77b4;stroke-linejoin:miter;" x="612.777921" xlink:href="#mc041a83a67" y="219.142399"/>
     <use style="fill:#1f77b4;stroke:#1f77b4;stroke-linejoin:miter;" x="597.074911" xlink:href="#mc041a83a67" y="221.78327"/>
     <use style="fill:#1f77b4;stroke:#1f77b4;stroke-linejoin:miter;" x="581.731503" xlink:href="#mc041a83a67" y="224.901194"/>
     <use style="fill:#1f77b4;stroke:#1f77b4;stroke-linejoin:miter;" x="566.835572" xlink:href="#mc041a83a67" y="226.388005"/>
     <use style="fill:#1f77b4;stroke:#1f77b4;stroke-linejoin:miter;" x="552.024474" xlink:href="#mc041a83a67" y="229.577471"/>
     <use style="fill:#1f77b4;stroke:#1f77b4;stroke-linejoin:miter;" x="537.776128" xlink:href="#mc041a83a67" y="232.807922"/>
     <use style="fill:#1f77b4;stroke:#1f77b4;stroke-linejoin:miter;" x="575.177288" xlink:href="#mc041a83a67" y="397.44211"/>
     <use style="fill:#1f77b4;stroke:#1f77b4;stroke-linejoin:miter;" x="572.959984" xlink:href="#mc041a83a67" y="399.811444"/>
     <use style="fill:#1f77b4;stroke:#1f77b4;stroke-linejoin:miter;" x="569.317184" xlink:href="#mc041a83a67" y="398.65421"/>
     <use style="fill:#1f77b4;stroke:#1f77b4;stroke-linejoin:miter;" x="449.344185" xlink:href="#mc041a83a67" y="248.633781"/>
     <use style="fill:#1f77b4;stroke:#1f77b4;stroke-linejoin:miter;" x="433.732893" xlink:href="#mc041a83a67" y="251.741168"/>
     <use style="fill:#1f77b4;stroke:#1f77b4;stroke-linejoin:miter;" x="417.494461" xlink:href="#mc041a83a67" y="254.748458"/>
     <use style="fill:#1f77b4;stroke:#1f77b4;stroke-linejoin:miter;" x="407.692636" xlink:href="#mc041a83a67" y="264.488173"/>
     <use style="fill:#1f77b4;stroke:#1f77b4;stroke-linejoin:miter;" x="396.049596" xlink:href="#mc041a83a67" y="272.538078"/>
     <use style="fill:#1f77b4;stroke:#1f77b4;stroke-linejoin:miter;" x="393.117845" xlink:href="#mc041a83a67" y="286.969173"/>
     <use style="fill:#1f77b4;stroke:#1f77b4;stroke-linejoin:miter;" x="415.606883" xlink:href="#mc041a83a67" y="317.815455"/>
     <use style="fill:#1f77b4;stroke:#1f77b4;stroke-linejoin:miter;" x="418.665352" xlink:href="#mc041a83a67" y="343.077479"/>
     <use style="fill:#1f77b4;stroke:#1f77b4;stroke-linejoin:miter;" x="419.052456" xlink:href="#mc041a83a67" y="353.551061"/>
     <use style="fill:#1f77b4;stroke:#1f77b4;stroke-linejoin:miter;" x="406.700787" xlink:href="#mc041a83a67" y="357.488062"/>
     <use style="fill:#1f77b4;stroke:#1f77b4;stroke-linejoin:miter;" x="401.510277" xlink:href="#mc041a83a67" y="364.988976"/>
     <use style="fill:#1f77b4;stroke:#1f77b4;stroke-linejoin:miter;" x="454.417228" xlink:href="#mc041a83a67" y="392.195123"/>
     <use style="fill:#1f77b4;stroke:#1f77b4;stroke-linejoin:miter;" x="455.927658" xlink:href="#mc041a83a67" y="399.073284"/>
     <use style="fill:#1f77b4;stroke:#1f77b4;stroke-linejoin:miter;" x="457.398419" xlink:href="#mc041a83a67" y="405.309036"/>
     <use style="fill:#1f77b4;stroke:#1f77b4;stroke-linejoin:miter;" x="458.112775" xlink:href="#mc041a83a67" y="411.285058"/>
     <use style="fill:#1f77b4;stroke:#1f77b4;stroke-linejoin:miter;" x="441.05292" xlink:href="#mc041a83a67" y="414.057281"/>
     <use style="fill:#1f77b4;stroke:#1f77b4;stroke-linejoin:miter;" x="418.000729" xlink:href="#mc041a83a67" y="424.339032"/>
     <use style="fill:#1f77b4;stroke:#1f77b4;stroke-linejoin:miter;" x="419.280001" xlink:href="#mc041a83a67" y="431.344867"/>
     <use style="fill:#1f77b4;stroke:#1f77b4;stroke-linejoin:miter;" x="420.695432" xlink:href="#mc041a83a67" y="437.76847"/>
     <use style="fill:#1f77b4;stroke:#1f77b4;stroke-linejoin:miter;" x="395.873875" xlink:href="#mc041a83a67" y="445.423817"/>
     <use style="fill:#1f77b4;stroke:#1f77b4;stroke-linejoin:miter;" x="396.203972" xlink:href="#mc041a83a67" y="453.087208"/>
     <use style="fill:#1f77b4;stroke:#1f77b4;stroke-linejoin:miter;" x="398.783596" xlink:href="#mc041a83a67" y="460.654577"/>
     <use style="fill:#1f77b4;stroke:#1f77b4;stroke-linejoin:miter;" x="401.719616" xlink:href="#mc041a83a67" y="467.972744"/>
     <use style="fill:#1f77b4;stroke:#1f77b4;stroke-linejoin:miter;" x="403.089407" xlink:href="#mc041a83a67" y="475.643585"/>
     <use style="fill:#1f77b4;stroke:#1f77b4;stroke-linejoin:miter;" x="404.874084" xlink:href="#mc041a83a67" y="483.290491"/>
     <use style="fill:#1f77b4;stroke:#1f77b4;stroke-linejoin:miter;" x="407.761518" xlink:href="#mc041a83a67" y="490.788611"/>
     <use style="fill:#1f77b4;stroke:#1f77b4;stroke-linejoin:miter;" x="407.923868" xlink:href="#mc041a83a67" y="499.455128"/>
     <use style="fill:#1f77b4;stroke:#1f77b4;stroke-linejoin:miter;" x="411.477695" xlink:href="#mc041a83a67" y="507.070825"/>
     <use style="fill:#1f77b4;stroke:#1f77b4;stroke-linejoin:miter;" x="468.947019" xlink:href="#mc041a83a67" y="491.440811"/>
     <use style="fill:#1f77b4;stroke:#1f77b4;stroke-linejoin:miter;" x="435.211356" xlink:href="#mc041a83a67" y="514.826296"/>
     <use style="fill:#1f77b4;stroke:#1f77b4;stroke-linejoin:miter;" x="451.523946" xlink:href="#mc041a83a67" y="514.967337"/>
     <use style="fill:#1f77b4;stroke:#1f77b4;stroke-linejoin:miter;" x="469.799203" xlink:href="#mc041a83a67" y="512.862032"/>
     <use style="fill:#1f77b4;stroke:#1f77b4;stroke-linejoin:miter;" x="457.268108" xlink:href="#mc041a83a67" y="529.846682"/>
     <use style="fill:#1f77b4;stroke:#1f77b4;stroke-linejoin:miter;" x="456.291592" xlink:href="#mc041a83a67" y="540.938963"/>
     <use style="fill:#1f77b4;stroke:#1f77b4;stroke-linejoin:miter;" x="472.320838" xlink:href="#mc041a83a67" y="538.830196"/>
     <use style="fill:#1f77b4;stroke:#1f77b4;stroke-linejoin:miter;" x="458.562527" xlink:href="#mc041a83a67" y="563.056096"/>
     <use style="fill:#1f77b4;stroke:#1f77b4;stroke-linejoin:miter;" x="537.239665" xlink:href="#mc041a83a67" y="502.574127"/>
     <use style="fill:#1f77b4;stroke:#1f77b4;stroke-linejoin:miter;" x="547.812231" xlink:href="#mc041a83a67" y="496.958534"/>
     <use style="fill:#1f77b4;stroke:#1f77b4;stroke-linejoin:miter;" x="552.754098" xlink:href="#mc041a83a67" y="497.697572"/>
     <use style="fill:#1f77b4;stroke:#1f77b4;stroke-linejoin:miter;" x="560.101458" xlink:href="#mc041a83a67" y="494.237115"/>
     <use style="fill:#1f77b4;stroke:#1f77b4;stroke-linejoin:miter;" x="565.434465" xlink:href="#mc041a83a67" y="492.684748"/>
     <use style="fill:#1f77b4;stroke:#1f77b4;stroke-linejoin:miter;" x="569.291763" xlink:href="#mc041a83a67" y="494.200011"/>
     <use style="fill:#1f77b4;stroke:#1f77b4;stroke-linejoin:miter;" x="572.367419" xlink:href="#mc041a83a67" y="498.289403"/>
     <use style="fill:#1f77b4;stroke:#1f77b4;stroke-linejoin:miter;" x="571.136055" xlink:href="#mc041a83a67" y="621.293802"/>
     <use style="fill:#1f77b4;stroke:#1f77b4;stroke-linejoin:miter;" x="584.113857" xlink:href="#mc041a83a67" y="625.035075"/>
     <use style="fill:#1f77b4;stroke:#1f77b4;stroke-linejoin:miter;" x="598.018347" xlink:href="#mc041a83a67" y="642.374664"/>
     <use style="fill:#1f77b4;stroke:#1f77b4;stroke-linejoin:miter;" x="613.174361" xlink:href="#mc041a83a67" y="641.231558"/>
     <use style="fill:#1f77b4;stroke:#1f77b4;stroke-linejoin:miter;" x="627.71334" xlink:href="#mc041a83a67" y="639.792673"/>
     <use style="fill:#1f77b4;stroke:#1f77b4;stroke-linejoin:miter;" x="668.730127" xlink:href="#mc041a83a67" y="627.982531"/>
     <use style="fill:#1f77b4;stroke:#1f77b4;stroke-linejoin:miter;" x="667.666721" xlink:href="#mc041a83a67" y="593.574545"/>
     <use style="fill:#1f77b4;stroke:#1f77b4;stroke-linejoin:miter;" x="683.220153" xlink:href="#mc041a83a67" y="598.281522"/>
     <use style="fill:#1f77b4;stroke:#1f77b4;stroke-linejoin:miter;" x="696.345306" xlink:href="#mc041a83a67" y="597.180737"/>
     <use style="fill:#1f77b4;stroke:#1f77b4;stroke-linejoin:miter;" x="745.95362" xlink:href="#mc041a83a67" y="601.189507"/>
     <use style="fill:#1f77b4;stroke:#1f77b4;stroke-linejoin:miter;" x="756.06334" xlink:href="#mc041a83a67" y="593.438487"/>
     <use style="fill:#1f77b4;stroke:#1f77b4;stroke-linejoin:miter;" x="766.228229" xlink:href="#mc041a83a67" y="586.049284"/>
     <use style="fill:#1f77b4;stroke:#1f77b4;stroke-linejoin:miter;" x="783.822331" xlink:href="#mc041a83a67" y="584.355186"/>
     <use style="fill:#1f77b4;stroke:#1f77b4;stroke-linejoin:miter;" x="803.179267" xlink:href="#mc041a83a67" y="583.047072"/>
     <use style="fill:#1f77b4;stroke:#1f77b4;stroke-linejoin:miter;" x="834.021098" xlink:href="#mc041a83a67" y="587.554163"/>
     <use style="fill:#1f77b4;stroke:#1f77b4;stroke-linejoin:miter;" x="874.488042" xlink:href="#mc041a83a67" y="576.934155"/>
     <use style="fill:#1f77b4;stroke:#1f77b4;stroke-linejoin:miter;" x="893.459137" xlink:href="#mc041a83a67" y="553.878583"/>
     <use style="fill:#1f77b4;stroke:#1f77b4;stroke-linejoin:miter;" x="936.683463" xlink:href="#mc041a83a67" y="553.829278"/>
     <use style="fill:#1f77b4;stroke:#1f77b4;stroke-linejoin:miter;" x="964.985851" xlink:href="#mc041a83a67" y="546.095176"/>
     <use style="fill:#1f77b4;stroke:#1f77b4;stroke-linejoin:miter;" x="1058.091869" xlink:href="#mc041a83a67" y="552.822764"/>
     <use style="fill:#1f77b4;stroke:#1f77b4;stroke-linejoin:miter;" x="1088.041993" xlink:href="#mc041a83a67" y="517.787238"/>
     <use style="fill:#1f77b4;stroke:#1f77b4;stroke-linejoin:miter;" x="1126.711939" xlink:href="#mc041a83a67" y="502.188698"/>
    </g>
   </g>
   <g id="patch_3">
    <path d="M 144 768.96 
L 144 103.68 
" style="fill:none;stroke:#000000;stroke-linecap:square;stroke-linejoin:miter;stroke-width:0.8;"/>
   </g>
   <g id="patch_4">
    <path d="M 1036.8 768.96 
L 1036.8 103.68 
" style="fill:none;stroke:#000000;stroke-linecap:square;stroke-linejoin:miter;stroke-width:0.8;"/>
   </g>
   <g id="patch_5">
    <path d="M 144 768.96 
L 1036.8 768.96 
" style="fill:none;stroke:#000000;stroke-linecap:square;stroke-linejoin:miter;stroke-width:0.8;"/>
   </g>
   <g id="patch_6">
    <path d="M 144 103.68 
L 1036.8 103.68 
" style="fill:none;stroke:#000000;stroke-linecap:square;stroke-linejoin:miter;stroke-width:0.8;"/>
   </g>
  </g>
 </g>
 <defs>
  <clipPath id="p0ebf6253da">
   <rect height="665.28" width="892.8" x="144" y="103.68"/>
  </clipPath>
 </defs>
</svg>
