<?xml version="1.0" encoding="utf-8" standalone="no"?>
<!DOCTYPE svg PUBLIC "-//W3C//DTD SVG 1.1//EN"
  "http://www.w3.org/Graphics/SVG/1.1/DTD/svg11.dtd">
<!-- Created with matplotlib (http://matplotlib.org/) -->
<svg height="864pt" version="1.1" viewBox="0 0 1152 864" width="1152pt" xmlns="http://www.w3.org/2000/svg" xmlns:xlink="http://www.w3.org/1999/xlink">
 <defs>
  <style type="text/css">
*{stroke-linecap:butt;stroke-linejoin:round;}
  </style>
 </defs>
 <g id="figure_1">
  <g id="patch_1">
   <path d="M 0 864 
L 1152 864 
L 1152 0 
L 0 0 
z
" style="fill:#ffffff;"/>
  </g>
  <g id="axes_1">
   <g id="patch_2">
    <path d="M 144 768.96 
L 1036.8 768.96 
L 1036.8 103.68 
L 144 103.68 
z
" style="fill:#ffffff;"/>
   </g>
   <g id="matplotlib.axis_1">
    <g id="xtick_1">
     <g id="line2d_1">
      <defs>
       <path d="M 0 0 
L 0 3.5 
" id="mef201c517c" style="stroke:#000000;stroke-width:0.8;"/>
      </defs>
      <g>
       <use style="stroke:#000000;stroke-width:0.8;" x="144" xlink:href="#mef201c517c" y="768.96"/>
      </g>
     </g>
     <g id="text_1">
      <!-- −4000 -->
      <defs>
       <path d="M 10.59375 35.5 
L 73.1875 35.5 
L 73.1875 27.203125 
L 10.59375 27.203125 
z
" id="DejaVuSans-2212"/>
       <path d="M 37.796875 64.3125 
L 12.890625 25.390625 
L 37.796875 25.390625 
z
M 35.203125 72.90625 
L 47.609375 72.90625 
L 47.609375 25.390625 
L 58.015625 25.390625 
L 58.015625 17.1875 
L 47.609375 17.1875 
L 47.609375 0 
L 37.796875 0 
L 37.796875 17.1875 
L 4.890625 17.1875 
L 4.890625 26.703125 
z
" id="DejaVuSans-34"/>
       <path d="M 31.78125 66.40625 
Q 24.171875 66.40625 20.328125 58.90625 
Q 16.5 51.421875 16.5 36.375 
Q 16.5 21.390625 20.328125 13.890625 
Q 24.171875 6.390625 31.78125 6.390625 
Q 39.453125 6.390625 43.28125 13.890625 
Q 47.125 21.390625 47.125 36.375 
Q 47.125 51.421875 43.28125 58.90625 
Q 39.453125 66.40625 31.78125 66.40625 
z
M 31.78125 74.21875 
Q 44.046875 74.21875 50.515625 64.515625 
Q 56.984375 54.828125 56.984375 36.375 
Q 56.984375 17.96875 50.515625 8.265625 
Q 44.046875 -1.421875 31.78125 -1.421875 
Q 19.53125 -1.421875 13.0625 8.265625 
Q 6.59375 17.96875 6.59375 36.375 
Q 6.59375 54.828125 13.0625 64.515625 
Q 19.53125 74.21875 31.78125 74.21875 
z
" id="DejaVuSans-30"/>
      </defs>
      <g transform="translate(127.085156 783.558437)scale(0.1 -0.1)">
       <use xlink:href="#DejaVuSans-2212"/>
       <use x="83.789062" xlink:href="#DejaVuSans-34"/>
       <use x="147.412109" xlink:href="#DejaVuSans-30"/>
       <use x="211.035156" xlink:href="#DejaVuSans-30"/>
       <use x="274.658203" xlink:href="#DejaVuSans-30"/>
      </g>
     </g>
    </g>
    <g id="xtick_2">
     <g id="line2d_2">
      <g>
       <use style="stroke:#000000;stroke-width:0.8;" x="255.6" xlink:href="#mef201c517c" y="768.96"/>
      </g>
     </g>
     <g id="text_2">
      <!-- −3000 -->
      <defs>
       <path d="M 40.578125 39.3125 
Q 47.65625 37.796875 51.625 33 
Q 55.609375 28.21875 55.609375 21.1875 
Q 55.609375 10.40625 48.1875 4.484375 
Q 40.765625 -1.421875 27.09375 -1.421875 
Q 22.515625 -1.421875 17.65625 -0.515625 
Q 12.796875 0.390625 7.625 2.203125 
L 7.625 11.71875 
Q 11.71875 9.328125 16.59375 8.109375 
Q 21.484375 6.890625 26.8125 6.890625 
Q 36.078125 6.890625 40.9375 10.546875 
Q 45.796875 14.203125 45.796875 21.1875 
Q 45.796875 27.640625 41.28125 31.265625 
Q 36.765625 34.90625 28.71875 34.90625 
L 20.21875 34.90625 
L 20.21875 43.015625 
L 29.109375 43.015625 
Q 36.375 43.015625 40.234375 45.921875 
Q 44.09375 48.828125 44.09375 54.296875 
Q 44.09375 59.90625 40.109375 62.90625 
Q 36.140625 65.921875 28.71875 65.921875 
Q 24.65625 65.921875 20.015625 65.03125 
Q 15.375 64.15625 9.8125 62.3125 
L 9.8125 71.09375 
Q 15.4375 72.65625 20.34375 73.4375 
Q 25.25 74.21875 29.59375 74.21875 
Q 40.828125 74.21875 47.359375 69.109375 
Q 53.90625 64.015625 53.90625 55.328125 
Q 53.90625 49.265625 50.4375 45.09375 
Q 46.96875 40.921875 40.578125 39.3125 
z
" id="DejaVuSans-33"/>
      </defs>
      <g transform="translate(238.685156 783.558437)scale(0.1 -0.1)">
       <use xlink:href="#DejaVuSans-2212"/>
       <use x="83.789062" xlink:href="#DejaVuSans-33"/>
       <use x="147.412109" xlink:href="#DejaVuSans-30"/>
       <use x="211.035156" xlink:href="#DejaVuSans-30"/>
       <use x="274.658203" xlink:href="#DejaVuSans-30"/>
      </g>
     </g>
    </g>
    <g id="xtick_3">
     <g id="line2d_3">
      <g>
       <use style="stroke:#000000;stroke-width:0.8;" x="367.2" xlink:href="#mef201c517c" y="768.96"/>
      </g>
     </g>
     <g id="text_3">
      <!-- −2000 -->
      <defs>
       <path d="M 19.1875 8.296875 
L 53.609375 8.296875 
L 53.609375 0 
L 7.328125 0 
L 7.328125 8.296875 
Q 12.9375 14.109375 22.625 23.890625 
Q 32.328125 33.6875 34.8125 36.53125 
Q 39.546875 41.84375 41.421875 45.53125 
Q 43.3125 49.21875 43.3125 52.78125 
Q 43.3125 58.59375 39.234375 62.25 
Q 35.15625 65.921875 28.609375 65.921875 
Q 23.96875 65.921875 18.8125 64.3125 
Q 13.671875 62.703125 7.8125 59.421875 
L 7.8125 69.390625 
Q 13.765625 71.78125 18.9375 73 
Q 24.125 74.21875 28.421875 74.21875 
Q 39.75 74.21875 46.484375 68.546875 
Q 53.21875 62.890625 53.21875 53.421875 
Q 53.21875 48.921875 51.53125 44.890625 
Q 49.859375 40.875 45.40625 35.40625 
Q 44.1875 33.984375 37.640625 27.21875 
Q 31.109375 20.453125 19.1875 8.296875 
z
" id="DejaVuSans-32"/>
      </defs>
      <g transform="translate(350.285156 783.558437)scale(0.1 -0.1)">
       <use xlink:href="#DejaVuSans-2212"/>
       <use x="83.789062" xlink:href="#DejaVuSans-32"/>
       <use x="147.412109" xlink:href="#DejaVuSans-30"/>
       <use x="211.035156" xlink:href="#DejaVuSans-30"/>
       <use x="274.658203" xlink:href="#DejaVuSans-30"/>
      </g>
     </g>
    </g>
    <g id="xtick_4">
     <g id="line2d_4">
      <g>
       <use style="stroke:#000000;stroke-width:0.8;" x="478.8" xlink:href="#mef201c517c" y="768.96"/>
      </g>
     </g>
     <g id="text_4">
      <!-- −1000 -->
      <defs>
       <path d="M 12.40625 8.296875 
L 28.515625 8.296875 
L 28.515625 63.921875 
L 10.984375 60.40625 
L 10.984375 69.390625 
L 28.421875 72.90625 
L 38.28125 72.90625 
L 38.28125 8.296875 
L 54.390625 8.296875 
L 54.390625 0 
L 12.40625 0 
z
" id="DejaVuSans-31"/>
      </defs>
      <g transform="translate(461.885156 783.558437)scale(0.1 -0.1)">
       <use xlink:href="#DejaVuSans-2212"/>
       <use x="83.789062" xlink:href="#DejaVuSans-31"/>
       <use x="147.412109" xlink:href="#DejaVuSans-30"/>
       <use x="211.035156" xlink:href="#DejaVuSans-30"/>
       <use x="274.658203" xlink:href="#DejaVuSans-30"/>
      </g>
     </g>
    </g>
    <g id="xtick_5">
     <g id="line2d_5">
      <g>
       <use style="stroke:#000000;stroke-width:0.8;" x="590.4" xlink:href="#mef201c517c" y="768.96"/>
      </g>
     </g>
     <g id="text_5">
      <!-- 0 -->
      <g transform="translate(587.21875 783.558437)scale(0.1 -0.1)">
       <use xlink:href="#DejaVuSans-30"/>
      </g>
     </g>
    </g>
    <g id="xtick_6">
     <g id="line2d_6">
      <g>
       <use style="stroke:#000000;stroke-width:0.8;" x="702" xlink:href="#mef201c517c" y="768.96"/>
      </g>
     </g>
     <g id="text_6">
      <!-- 1000 -->
      <g transform="translate(689.275 783.558437)scale(0.1 -0.1)">
       <use xlink:href="#DejaVuSans-31"/>
       <use x="63.623047" xlink:href="#DejaVuSans-30"/>
       <use x="127.246094" xlink:href="#DejaVuSans-30"/>
       <use x="190.869141" xlink:href="#DejaVuSans-30"/>
      </g>
     </g>
    </g>
    <g id="xtick_7">
     <g id="line2d_7">
      <g>
       <use style="stroke:#000000;stroke-width:0.8;" x="813.6" xlink:href="#mef201c517c" y="768.96"/>
      </g>
     </g>
     <g id="text_7">
      <!-- 2000 -->
      <g transform="translate(800.875 783.558437)scale(0.1 -0.1)">
       <use xlink:href="#DejaVuSans-32"/>
       <use x="63.623047" xlink:href="#DejaVuSans-30"/>
       <use x="127.246094" xlink:href="#DejaVuSans-30"/>
       <use x="190.869141" xlink:href="#DejaVuSans-30"/>
      </g>
     </g>
    </g>
    <g id="xtick_8">
     <g id="line2d_8">
      <g>
       <use style="stroke:#000000;stroke-width:0.8;" x="925.2" xlink:href="#mef201c517c" y="768.96"/>
      </g>
     </g>
     <g id="text_8">
      <!-- 3000 -->
      <g transform="translate(912.475 783.558437)scale(0.1 -0.1)">
       <use xlink:href="#DejaVuSans-33"/>
       <use x="63.623047" xlink:href="#DejaVuSans-30"/>
       <use x="127.246094" xlink:href="#DejaVuSans-30"/>
       <use x="190.869141" xlink:href="#DejaVuSans-30"/>
      </g>
     </g>
    </g>
    <g id="xtick_9">
     <g id="line2d_9">
      <g>
       <use style="stroke:#000000;stroke-width:0.8;" x="1036.8" xlink:href="#mef201c517c" y="768.96"/>
      </g>
     </g>
     <g id="text_9">
      <!-- 4000 -->
      <g transform="translate(1024.075 783.558437)scale(0.1 -0.1)">
       <use xlink:href="#DejaVuSans-34"/>
       <use x="63.623047" xlink:href="#DejaVuSans-30"/>
       <use x="127.246094" xlink:href="#DejaVuSans-30"/>
       <use x="190.869141" xlink:href="#DejaVuSans-30"/>
      </g>
     </g>
    </g>
   </g>
   <g id="matplotlib.axis_2">
    <g id="ytick_1">
     <g id="line2d_10">
      <defs>
       <path d="M 0 0 
L -3.5 0 
" id="m231270b823" style="stroke:#000000;stroke-width:0.8;"/>
      </defs>
      <g>
       <use style="stroke:#000000;stroke-width:0.8;" x="144" xlink:href="#m231270b823" y="768.96"/>
      </g>
     </g>
     <g id="text_10">
      <!-- −4000 -->
      <g transform="translate(103.170312 772.759219)scale(0.1 -0.1)">
       <use xlink:href="#DejaVuSans-2212"/>
       <use x="83.789062" xlink:href="#DejaVuSans-34"/>
       <use x="147.412109" xlink:href="#DejaVuSans-30"/>
       <use x="211.035156" xlink:href="#DejaVuSans-30"/>
       <use x="274.658203" xlink:href="#DejaVuSans-30"/>
      </g>
     </g>
    </g>
    <g id="ytick_2">
     <g id="line2d_11">
      <g>
       <use style="stroke:#000000;stroke-width:0.8;" x="144" xlink:href="#m231270b823" y="685.8"/>
      </g>
     </g>
     <g id="text_11">
      <!-- −3000 -->
      <g transform="translate(103.170312 689.599219)scale(0.1 -0.1)">
       <use xlink:href="#DejaVuSans-2212"/>
       <use x="83.789062" xlink:href="#DejaVuSans-33"/>
       <use x="147.412109" xlink:href="#DejaVuSans-30"/>
       <use x="211.035156" xlink:href="#DejaVuSans-30"/>
       <use x="274.658203" xlink:href="#DejaVuSans-30"/>
      </g>
     </g>
    </g>
    <g id="ytick_3">
     <g id="line2d_12">
      <g>
       <use style="stroke:#000000;stroke-width:0.8;" x="144" xlink:href="#m231270b823" y="602.64"/>
      </g>
     </g>
     <g id="text_12">
      <!-- −2000 -->
      <g transform="translate(103.170312 606.439219)scale(0.1 -0.1)">
       <use xlink:href="#DejaVuSans-2212"/>
       <use x="83.789062" xlink:href="#DejaVuSans-32"/>
       <use x="147.412109" xlink:href="#DejaVuSans-30"/>
       <use x="211.035156" xlink:href="#DejaVuSans-30"/>
       <use x="274.658203" xlink:href="#DejaVuSans-30"/>
      </g>
     </g>
    </g>
    <g id="ytick_4">
     <g id="line2d_13">
      <g>
       <use style="stroke:#000000;stroke-width:0.8;" x="144" xlink:href="#m231270b823" y="519.48"/>
      </g>
     </g>
     <g id="text_13">
      <!-- −1000 -->
      <g transform="translate(103.170312 523.279219)scale(0.1 -0.1)">
       <use xlink:href="#DejaVuSans-2212"/>
       <use x="83.789062" xlink:href="#DejaVuSans-31"/>
       <use x="147.412109" xlink:href="#DejaVuSans-30"/>
       <use x="211.035156" xlink:href="#DejaVuSans-30"/>
       <use x="274.658203" xlink:href="#DejaVuSans-30"/>
      </g>
     </g>
    </g>
    <g id="ytick_5">
     <g id="line2d_14">
      <g>
       <use style="stroke:#000000;stroke-width:0.8;" x="144" xlink:href="#m231270b823" y="436.32"/>
      </g>
     </g>
     <g id="text_14">
      <!-- 0 -->
      <g transform="translate(130.6375 440.119219)scale(0.1 -0.1)">
       <use xlink:href="#DejaVuSans-30"/>
      </g>
     </g>
    </g>
    <g id="ytick_6">
     <g id="line2d_15">
      <g>
       <use style="stroke:#000000;stroke-width:0.8;" x="144" xlink:href="#m231270b823" y="353.16"/>
      </g>
     </g>
     <g id="text_15">
      <!-- 1000 -->
      <g transform="translate(111.55 356.959219)scale(0.1 -0.1)">
       <use xlink:href="#DejaVuSans-31"/>
       <use x="63.623047" xlink:href="#DejaVuSans-30"/>
       <use x="127.246094" xlink:href="#DejaVuSans-30"/>
       <use x="190.869141" xlink:href="#DejaVuSans-30"/>
      </g>
     </g>
    </g>
    <g id="ytick_7">
     <g id="line2d_16">
      <g>
       <use style="stroke:#000000;stroke-width:0.8;" x="144" xlink:href="#m231270b823" y="270"/>
      </g>
     </g>
     <g id="text_16">
      <!-- 2000 -->
      <g transform="translate(111.55 273.799219)scale(0.1 -0.1)">
       <use xlink:href="#DejaVuSans-32"/>
       <use x="63.623047" xlink:href="#DejaVuSans-30"/>
       <use x="127.246094" xlink:href="#DejaVuSans-30"/>
       <use x="190.869141" xlink:href="#DejaVuSans-30"/>
      </g>
     </g>
    </g>
    <g id="ytick_8">
     <g id="line2d_17">
      <g>
       <use style="stroke:#000000;stroke-width:0.8;" x="144" xlink:href="#m231270b823" y="186.84"/>
      </g>
     </g>
     <g id="text_17">
      <!-- 3000 -->
      <g transform="translate(111.55 190.639219)scale(0.1 -0.1)">
       <use xlink:href="#DejaVuSans-33"/>
       <use x="63.623047" xlink:href="#DejaVuSans-30"/>
       <use x="127.246094" xlink:href="#DejaVuSans-30"/>
       <use x="190.869141" xlink:href="#DejaVuSans-30"/>
      </g>
     </g>
    </g>
    <g id="ytick_9">
     <g id="line2d_18">
      <g>
       <use style="stroke:#000000;stroke-width:0.8;" x="144" xlink:href="#m231270b823" y="103.68"/>
      </g>
     </g>
     <g id="text_18">
      <!-- 4000 -->
      <g transform="translate(111.55 107.479219)scale(0.1 -0.1)">
       <use xlink:href="#DejaVuSans-34"/>
       <use x="63.623047" xlink:href="#DejaVuSans-30"/>
       <use x="127.246094" xlink:href="#DejaVuSans-30"/>
       <use x="190.869141" xlink:href="#DejaVuSans-30"/>
      </g>
     </g>
    </g>
   </g>
   <g id="line2d_19">
    <path clip-path="url(#pc6ffe01ce8)" d="M 590.4 768.96 
L 590.4 103.68 
" style="fill:none;stroke:#1f77b4;stroke-linecap:square;stroke-width:1.5;"/>
   </g>
   <g id="line2d_20">
    <path clip-path="url(#pc6ffe01ce8)" d="M 144 436.32 
L 1036.8 436.32 
" style="fill:none;stroke:#1f77b4;stroke-linecap:square;stroke-width:1.5;"/>
   </g>
   <g id="line2d_21">
    <defs>
     <path d="M 0 3 
C 0.795609 3 1.55874 2.683901 2.12132 2.12132 
C 2.683901 1.55874 3 0.795609 3 0 
C 3 -0.795609 2.683901 -1.55874 2.12132 -2.12132 
C 1.55874 -2.683901 0.795609 -3 0 -3 
C -0.795609 -3 -1.55874 -2.683901 -2.12132 -2.12132 
C -2.683901 -1.55874 -3 -0.795609 -3 0 
C -3 0.795609 -2.683901 1.55874 -2.12132 2.12132 
C -1.55874 2.683901 -0.795609 3 0 3 
z
" id="m73691949d9" style="stroke:#008000;"/>
    </defs>
    <g clip-path="url(#pc6ffe01ce8)">
     <use style="fill:#008000;stroke:#008000;" x="1356.044567" xlink:href="#m73691949d9" y="347.232618"/>
    </g>
   </g>
   <g id="line2d_22">
    <g clip-path="url(#pc6ffe01ce8)">
     <use style="fill:#008000;stroke:#008000;" x="1261.216377" xlink:href="#m73691949d9" y="333.911035"/>
    </g>
   </g>
   <g id="line2d_23">
    <g clip-path="url(#pc6ffe01ce8)">
     <use style="fill:#008000;stroke:#008000;" x="647.583568" xlink:href="#m73691949d9" y="391.661934"/>
    </g>
   </g>
   <g id="line2d_24">
    <g clip-path="url(#pc6ffe01ce8)">
     <use style="fill:#008000;stroke:#008000;" x="647.583568" xlink:href="#m73691949d9" y="391.661934"/>
    </g>
   </g>
   <g id="line2d_25">
    <g clip-path="url(#pc6ffe01ce8)">
     <use style="fill:#008000;stroke:#008000;" x="752.156893" xlink:href="#m73691949d9" y="196.858132"/>
    </g>
   </g>
   <g id="line2d_26">
    <g clip-path="url(#pc6ffe01ce8)">
     <use style="fill:#008000;stroke:#008000;" x="731.768748" xlink:href="#m73691949d9" y="200.323304"/>
    </g>
   </g>
   <g id="line2d_27">
    <g clip-path="url(#pc6ffe01ce8)">
     <use style="fill:#008000;stroke:#008000;" x="455.026091" xlink:href="#m73691949d9" y="583.825943"/>
    </g>
   </g>
   <g id="line2d_28">
    <g clip-path="url(#pc6ffe01ce8)">
     <use style="fill:#008000;stroke:#008000;" x="543.111011" xlink:href="#m73691949d9" y="502.267148"/>
    </g>
   </g>
   <g id="line2d_29">
    <g clip-path="url(#pc6ffe01ce8)">
     <use style="fill:#008000;stroke:#008000;" x="663.410054" xlink:href="#m73691949d9" y="628.021762"/>
    </g>
   </g>
   <g id="line2d_30">
    <defs>
     <path d="M 0 1.333333 
C 0.353604 1.333333 0.692773 1.192845 0.942809 0.942809 
C 1.192845 0.692773 1.333333 0.353604 1.333333 0 
C 1.333333 -0.353604 1.192845 -0.692773 0.942809 -0.942809 
C 0.692773 -1.192845 0.353604 -1.333333 0 -1.333333 
C -0.353604 -1.333333 -0.692773 -1.192845 -0.942809 -0.942809 
C -1.192845 -0.692773 -1.333333 -0.353604 -1.333333 0 
C -1.333333 0.353604 -1.192845 0.692773 -0.942809 0.942809 
C -0.692773 1.192845 -0.353604 1.333333 0 1.333333 
z
" id="m0329fb0003" style="stroke:#ff0000;"/>
    </defs>
    <g clip-path="url(#pc6ffe01ce8)">
     <use style="fill:#ff0000;stroke:#ff0000;" x="1356.044567" xlink:href="#m0329fb0003" y="347.232618"/>
     <use style="fill:#ff0000;stroke:#ff0000;" x="1261.216377" xlink:href="#m0329fb0003" y="333.911035"/>
     <use style="fill:#ff0000;stroke:#ff0000;" x="1357.780634" xlink:href="#m0329fb0003" y="291.759435"/>
     <use style="fill:#ff0000;stroke:#ff0000;" x="1316.856439" xlink:href="#m0329fb0003" y="272.432547"/>
     <use style="fill:#ff0000;stroke:#ff0000;" x="649.879523" xlink:href="#m0329fb0003" y="399.355562"/>
     <use style="fill:#ff0000;stroke:#ff0000;" x="643.664765" xlink:href="#m0329fb0003" y="383.916573"/>
     <use style="fill:#ff0000;stroke:#ff0000;" x="762.513487" xlink:href="#m0329fb0003" y="195.587822"/>
     <use style="fill:#ff0000;stroke:#ff0000;" x="741.973316" xlink:href="#m0329fb0003" y="198.354599"/>
     <use style="fill:#ff0000;stroke:#ff0000;" x="721.771251" xlink:href="#m0329fb0003" y="202.514743"/>
     <use style="fill:#ff0000;stroke:#ff0000;" x="384.238695" xlink:href="#m0329fb0003" y="275.316317"/>
     <use style="fill:#ff0000;stroke:#ff0000;" x="361.796257" xlink:href="#m0329fb0003" y="273.515419"/>
     <use style="fill:#ff0000;stroke:#ff0000;" x="404.380123" xlink:href="#m0329fb0003" y="316.089196"/>
     <use style="fill:#ff0000;stroke:#ff0000;" x="434.119994" xlink:href="#m0329fb0003" y="344.875138"/>
     <use style="fill:#ff0000;stroke:#ff0000;" x="404.327878" xlink:href="#m0329fb0003" y="363.997193"/>
     <use style="fill:#ff0000;stroke:#ff0000;" x="454.100716" xlink:href="#m0329fb0003" y="390.067631"/>
     <use style="fill:#ff0000;stroke:#ff0000;" x="441.028528" xlink:href="#m0329fb0003" y="414.148335"/>
     <use style="fill:#ff0000;stroke:#ff0000;" x="416.439531" xlink:href="#m0329fb0003" y="440.245129"/>
     <use style="fill:#ff0000;stroke:#ff0000;" x="396.130013" xlink:href="#m0329fb0003" y="446.998322"/>
     <use style="fill:#ff0000;stroke:#ff0000;" x="401.350053" xlink:href="#m0329fb0003" y="466.624982"/>
     <use style="fill:#ff0000;stroke:#ff0000;" x="437.456029" xlink:href="#m0329fb0003" y="466.757702"/>
     <use style="fill:#ff0000;stroke:#ff0000;" x="403.521441" xlink:href="#m0329fb0003" y="479.934746"/>
     <use style="fill:#ff0000;stroke:#ff0000;" x="461.698725" xlink:href="#m0329fb0003" y="513.591925"/>
     <use style="fill:#ff0000;stroke:#ff0000;" x="472.133369" xlink:href="#m0329fb0003" y="538.710126"/>
     <use style="fill:#ff0000;stroke:#ff0000;" x="457.803289" xlink:href="#m0329fb0003" y="561.584455"/>
     <use style="fill:#ff0000;stroke:#ff0000;" x="446.395905" xlink:href="#m0329fb0003" y="585.549409"/>
     <use style="fill:#ff0000;stroke:#ff0000;" x="463.46489" xlink:href="#m0329fb0003" y="581.884486"/>
     <use style="fill:#ff0000;stroke:#ff0000;" x="536.157788" xlink:href="#m0329fb0003" y="507.398423"/>
     <use style="fill:#ff0000;stroke:#ff0000;" x="549.661213" xlink:href="#m0329fb0003" y="496.916695"/>
     <use style="fill:#ff0000;stroke:#ff0000;" x="597.864025" xlink:href="#m0329fb0003" y="495.957194"/>
     <use style="fill:#ff0000;stroke:#ff0000;" x="657.526198" xlink:href="#m0329fb0003" y="629.29812"/>
     <use style="fill:#ff0000;stroke:#ff0000;" x="669.250682" xlink:href="#m0329fb0003" y="626.645853"/>
     <use style="fill:#ff0000;stroke:#ff0000;" x="666.643445" xlink:href="#m0329fb0003" y="592.812499"/>
     <use style="fill:#ff0000;stroke:#ff0000;" x="692.371832" xlink:href="#m0329fb0003" y="598.003287"/>
     <use style="fill:#ff0000;stroke:#ff0000;" x="756.269117" xlink:href="#m0329fb0003" y="592.84134"/>
     <use style="fill:#ff0000;stroke:#ff0000;" x="780.889476" xlink:href="#m0329fb0003" y="585.735928"/>
     <use style="fill:#ff0000;stroke:#ff0000;" x="812.866577" xlink:href="#m0329fb0003" y="581.459685"/>
     <use style="fill:#ff0000;stroke:#ff0000;" x="838.748625" xlink:href="#m0329fb0003" y="570.004254"/>
     <use style="fill:#ff0000;stroke:#ff0000;" x="875.615059" xlink:href="#m0329fb0003" y="575.661575"/>
     <use style="fill:#ff0000;stroke:#ff0000;" x="895.706675" xlink:href="#m0329fb0003" y="557.126222"/>
     <use style="fill:#ff0000;stroke:#ff0000;" x="920.47117" xlink:href="#m0329fb0003" y="552.648647"/>
     <use style="fill:#ff0000;stroke:#ff0000;" x="1051.807953" xlink:href="#m0329fb0003" y="544.624009"/>
     <use style="fill:#ff0000;stroke:#ff0000;" x="1067.298939" xlink:href="#m0329fb0003" y="530.398555"/>
     <use style="fill:#ff0000;stroke:#ff0000;" x="1085.20463" xlink:href="#m0329fb0003" y="516.164072"/>
     <use style="fill:#ff0000;stroke:#ff0000;" x="1122.739085" xlink:href="#m0329fb0003" y="503.257372"/>
    </g>
   </g>
   <g id="line2d_31">
    <defs>
     <path d="M -0.5 0.5 
L 0.5 0.5 
L 0.5 -0.5 
L -0.5 -0.5 
z
" id="mafbd3dc239" style="stroke:#1f77b4;stroke-linejoin:miter;"/>
    </defs>
    <g clip-path="url(#pc6ffe01ce8)">
     <use style="fill:#1f77b4;stroke:#1f77b4;stroke-linejoin:miter;" x="1356.044567" xlink:href="#mafbd3dc239" y="347.232618"/>
     <use style="fill:#1f77b4;stroke:#1f77b4;stroke-linejoin:miter;" x="1261.216377" xlink:href="#mafbd3dc239" y="333.911035"/>
     <use style="fill:#1f77b4;stroke:#1f77b4;stroke-linejoin:miter;" x="1357.780634" xlink:href="#mafbd3dc239" y="291.759435"/>
     <use style="fill:#1f77b4;stroke:#1f77b4;stroke-linejoin:miter;" x="1316.856439" xlink:href="#mafbd3dc239" y="272.432547"/>
     <use style="fill:#1f77b4;stroke:#1f77b4;stroke-linejoin:miter;" x="649.879523" xlink:href="#mafbd3dc239" y="399.355562"/>
     <use style="fill:#1f77b4;stroke:#1f77b4;stroke-linejoin:miter;" x="646.945732" xlink:href="#mafbd3dc239" y="397.646288"/>
     <use style="fill:#1f77b4;stroke:#1f77b4;stroke-linejoin:miter;" x="645.48684" xlink:href="#mafbd3dc239" y="394.956777"/>
     <use style="fill:#1f77b4;stroke:#1f77b4;stroke-linejoin:miter;" x="642.869018" xlink:href="#mafbd3dc239" y="393.27659"/>
     <use style="fill:#1f77b4;stroke:#1f77b4;stroke-linejoin:miter;" x="641.665755" xlink:href="#mafbd3dc239" y="390.106701"/>
     <use style="fill:#1f77b4;stroke:#1f77b4;stroke-linejoin:miter;" x="643.664765" xlink:href="#mafbd3dc239" y="383.916573"/>
     <use style="fill:#1f77b4;stroke:#1f77b4;stroke-linejoin:miter;" x="762.513487" xlink:href="#mafbd3dc239" y="195.587822"/>
     <use style="fill:#1f77b4;stroke:#1f77b4;stroke-linejoin:miter;" x="741.973316" xlink:href="#mafbd3dc239" y="198.354599"/>
     <use style="fill:#1f77b4;stroke:#1f77b4;stroke-linejoin:miter;" x="721.771251" xlink:href="#mafbd3dc239" y="202.514743"/>
     <use style="fill:#1f77b4;stroke:#1f77b4;stroke-linejoin:miter;" x="703.83496" xlink:href="#mafbd3dc239" y="204.868911"/>
     <use style="fill:#1f77b4;stroke:#1f77b4;stroke-linejoin:miter;" x="686.74826" xlink:href="#mafbd3dc239" y="207.746264"/>
     <use style="fill:#1f77b4;stroke:#1f77b4;stroke-linejoin:miter;" x="670.279418" xlink:href="#mafbd3dc239" y="210.735411"/>
     <use style="fill:#1f77b4;stroke:#1f77b4;stroke-linejoin:miter;" x="655.07378" xlink:href="#mafbd3dc239" y="212.297647"/>
     <use style="fill:#1f77b4;stroke:#1f77b4;stroke-linejoin:miter;" x="640.25187" xlink:href="#mafbd3dc239" y="214.334194"/>
     <use style="fill:#1f77b4;stroke:#1f77b4;stroke-linejoin:miter;" x="624.753537" xlink:href="#mafbd3dc239" y="217.479715"/>
     <use style="fill:#1f77b4;stroke:#1f77b4;stroke-linejoin:miter;" x="610.937666" xlink:href="#mafbd3dc239" y="219.166512"/>
     <use style="fill:#1f77b4;stroke:#1f77b4;stroke-linejoin:miter;" x="597.39235" xlink:href="#mafbd3dc239" y="221.684904"/>
     <use style="fill:#1f77b4;stroke:#1f77b4;stroke-linejoin:miter;" x="583.977468" xlink:href="#mafbd3dc239" y="224.919075"/>
     <use style="fill:#1f77b4;stroke:#1f77b4;stroke-linejoin:miter;" x="570.969506" xlink:href="#mafbd3dc239" y="225.965526"/>
     <use style="fill:#1f77b4;stroke:#1f77b4;stroke-linejoin:miter;" x="558.099558" xlink:href="#mafbd3dc239" y="227.599462"/>
     <use style="fill:#1f77b4;stroke:#1f77b4;stroke-linejoin:miter;" x="546.077536" xlink:href="#mafbd3dc239" y="233.524255"/>
     <use style="fill:#1f77b4;stroke:#1f77b4;stroke-linejoin:miter;" x="533.586293" xlink:href="#mafbd3dc239" y="235.261207"/>
     <use style="fill:#1f77b4;stroke:#1f77b4;stroke-linejoin:miter;" x="521.019695" xlink:href="#mafbd3dc239" y="236.861647"/>
     <use style="fill:#1f77b4;stroke:#1f77b4;stroke-linejoin:miter;" x="508.485292" xlink:href="#mafbd3dc239" y="239.170755"/>
     <use style="fill:#1f77b4;stroke:#1f77b4;stroke-linejoin:miter;" x="496.47305" xlink:href="#mafbd3dc239" y="242.21229"/>
     <use style="fill:#1f77b4;stroke:#1f77b4;stroke-linejoin:miter;" x="483.360185" xlink:href="#mafbd3dc239" y="243.609048"/>
     <use style="fill:#1f77b4;stroke:#1f77b4;stroke-linejoin:miter;" x="470.196742" xlink:href="#mafbd3dc239" y="245.323775"/>
     <use style="fill:#1f77b4;stroke:#1f77b4;stroke-linejoin:miter;" x="457.338127" xlink:href="#mafbd3dc239" y="248.235578"/>
     <use style="fill:#1f77b4;stroke:#1f77b4;stroke-linejoin:miter;" x="443.231283" xlink:href="#mafbd3dc239" y="249.448209"/>
     <use style="fill:#1f77b4;stroke:#1f77b4;stroke-linejoin:miter;" x="429.408072" xlink:href="#mafbd3dc239" y="252.030591"/>
     <use style="fill:#1f77b4;stroke:#1f77b4;stroke-linejoin:miter;" x="417.941026" xlink:href="#mafbd3dc239" y="257.397397"/>
     <use style="fill:#1f77b4;stroke:#1f77b4;stroke-linejoin:miter;" x="407.668926" xlink:href="#mafbd3dc239" y="264.369558"/>
     <use style="fill:#1f77b4;stroke:#1f77b4;stroke-linejoin:miter;" x="398.183841" xlink:href="#mafbd3dc239" y="271.641107"/>
     <use style="fill:#1f77b4;stroke:#1f77b4;stroke-linejoin:miter;" x="384.238695" xlink:href="#mafbd3dc239" y="275.316317"/>
     <use style="fill:#1f77b4;stroke:#1f77b4;stroke-linejoin:miter;" x="361.796257" xlink:href="#mafbd3dc239" y="273.515419"/>
     <use style="fill:#1f77b4;stroke:#1f77b4;stroke-linejoin:miter;" x="404.380123" xlink:href="#mafbd3dc239" y="316.089196"/>
     <use style="fill:#1f77b4;stroke:#1f77b4;stroke-linejoin:miter;" x="434.119994" xlink:href="#mafbd3dc239" y="344.875138"/>
     <use style="fill:#1f77b4;stroke:#1f77b4;stroke-linejoin:miter;" x="424.086" xlink:href="#mafbd3dc239" y="347.819027"/>
     <use style="fill:#1f77b4;stroke:#1f77b4;stroke-linejoin:miter;" x="420.843821" xlink:href="#mafbd3dc239" y="354.856089"/>
     <use style="fill:#1f77b4;stroke:#1f77b4;stroke-linejoin:miter;" x="408.543514" xlink:href="#mafbd3dc239" y="357.439997"/>
     <use style="fill:#1f77b4;stroke:#1f77b4;stroke-linejoin:miter;" x="404.327878" xlink:href="#mafbd3dc239" y="363.997193"/>
     <use style="fill:#1f77b4;stroke:#1f77b4;stroke-linejoin:miter;" x="454.100716" xlink:href="#mafbd3dc239" y="390.067631"/>
     <use style="fill:#1f77b4;stroke:#1f77b4;stroke-linejoin:miter;" x="455.229646" xlink:href="#mafbd3dc239" y="395.976025"/>
     <use style="fill:#1f77b4;stroke:#1f77b4;stroke-linejoin:miter;" x="456.846067" xlink:href="#mafbd3dc239" y="401.779336"/>
     <use style="fill:#1f77b4;stroke:#1f77b4;stroke-linejoin:miter;" x="458.100051" xlink:href="#mafbd3dc239" y="407.234789"/>
     <use style="fill:#1f77b4;stroke:#1f77b4;stroke-linejoin:miter;" x="458.339538" xlink:href="#mafbd3dc239" y="412.240121"/>
     <use style="fill:#1f77b4;stroke:#1f77b4;stroke-linejoin:miter;" x="441.028528" xlink:href="#mafbd3dc239" y="414.148335"/>
     <use style="fill:#1f77b4;stroke:#1f77b4;stroke-linejoin:miter;" x="422.286969" xlink:href="#mafbd3dc239" y="417.108837"/>
     <use style="fill:#1f77b4;stroke:#1f77b4;stroke-linejoin:miter;" x="418.394012" xlink:href="#mafbd3dc239" y="428.691137"/>
     <use style="fill:#1f77b4;stroke:#1f77b4;stroke-linejoin:miter;" x="420.483848" xlink:href="#mafbd3dc239" y="434.248083"/>
     <use style="fill:#1f77b4;stroke:#1f77b4;stroke-linejoin:miter;" x="416.439531" xlink:href="#mafbd3dc239" y="440.245129"/>
     <use style="fill:#1f77b4;stroke:#1f77b4;stroke-linejoin:miter;" x="396.130013" xlink:href="#mafbd3dc239" y="446.998322"/>
     <use style="fill:#1f77b4;stroke:#1f77b4;stroke-linejoin:miter;" x="396.282677" xlink:href="#mafbd3dc239" y="453.760382"/>
     <use style="fill:#1f77b4;stroke:#1f77b4;stroke-linejoin:miter;" x="398.74153" xlink:href="#mafbd3dc239" y="460.219281"/>
     <use style="fill:#1f77b4;stroke:#1f77b4;stroke-linejoin:miter;" x="401.350053" xlink:href="#mafbd3dc239" y="466.624982"/>
     <use style="fill:#1f77b4;stroke:#1f77b4;stroke-linejoin:miter;" x="437.456029" xlink:href="#mafbd3dc239" y="466.757702"/>
     <use style="fill:#1f77b4;stroke:#1f77b4;stroke-linejoin:miter;" x="403.521441" xlink:href="#mafbd3dc239" y="479.934746"/>
     <use style="fill:#1f77b4;stroke:#1f77b4;stroke-linejoin:miter;" x="405.94731" xlink:href="#mafbd3dc239" y="486.558966"/>
     <use style="fill:#1f77b4;stroke:#1f77b4;stroke-linejoin:miter;" x="407.653721" xlink:href="#mafbd3dc239" y="493.335794"/>
     <use style="fill:#1f77b4;stroke:#1f77b4;stroke-linejoin:miter;" x="411.339211" xlink:href="#mafbd3dc239" y="507.452353"/>
     <use style="fill:#1f77b4;stroke:#1f77b4;stroke-linejoin:miter;" x="433.850498" xlink:href="#mafbd3dc239" y="513.349148"/>
     <use style="fill:#1f77b4;stroke:#1f77b4;stroke-linejoin:miter;" x="444.017193" xlink:href="#mafbd3dc239" y="515.843406"/>
     <use style="fill:#1f77b4;stroke:#1f77b4;stroke-linejoin:miter;" x="461.698725" xlink:href="#mafbd3dc239" y="513.591925"/>
     <use style="fill:#1f77b4;stroke:#1f77b4;stroke-linejoin:miter;" x="458.116182" xlink:href="#mafbd3dc239" y="523.290504"/>
     <use style="fill:#1f77b4;stroke:#1f77b4;stroke-linejoin:miter;" x="456.45562" xlink:href="#mafbd3dc239" y="532.705558"/>
     <use style="fill:#1f77b4;stroke:#1f77b4;stroke-linejoin:miter;" x="462.136971" xlink:href="#mafbd3dc239" y="537.477846"/>
     <use style="fill:#1f77b4;stroke:#1f77b4;stroke-linejoin:miter;" x="472.133369" xlink:href="#mafbd3dc239" y="538.710126"/>
     <use style="fill:#1f77b4;stroke:#1f77b4;stroke-linejoin:miter;" x="457.803289" xlink:href="#mafbd3dc239" y="561.584455"/>
     <use style="fill:#1f77b4;stroke:#1f77b4;stroke-linejoin:miter;" x="446.395905" xlink:href="#mafbd3dc239" y="585.549409"/>
     <use style="fill:#1f77b4;stroke:#1f77b4;stroke-linejoin:miter;" x="463.46489" xlink:href="#mafbd3dc239" y="581.884486"/>
     <use style="fill:#1f77b4;stroke:#1f77b4;stroke-linejoin:miter;" x="536.157788" xlink:href="#mafbd3dc239" y="507.398423"/>
     <use style="fill:#1f77b4;stroke:#1f77b4;stroke-linejoin:miter;" x="549.661213" xlink:href="#mafbd3dc239" y="496.916695"/>
     <use style="fill:#1f77b4;stroke:#1f77b4;stroke-linejoin:miter;" x="555.377788" xlink:href="#mafbd3dc239" y="495.021408"/>
     <use style="fill:#1f77b4;stroke:#1f77b4;stroke-linejoin:miter;" x="560.268053" xlink:href="#mafbd3dc239" y="494.151563"/>
     <use style="fill:#1f77b4;stroke:#1f77b4;stroke-linejoin:miter;" x="565.629866" xlink:href="#mafbd3dc239" y="491.484385"/>
     <use style="fill:#1f77b4;stroke:#1f77b4;stroke-linejoin:miter;" x="569.626744" xlink:href="#mafbd3dc239" y="491.205906"/>
     <use style="fill:#1f77b4;stroke:#1f77b4;stroke-linejoin:miter;" x="573.206805" xlink:href="#mafbd3dc239" y="491.675821"/>
     <use style="fill:#1f77b4;stroke:#1f77b4;stroke-linejoin:miter;" x="576.198824" xlink:href="#mafbd3dc239" y="493.32949"/>
     <use style="fill:#1f77b4;stroke:#1f77b4;stroke-linejoin:miter;" x="579.144528" xlink:href="#mafbd3dc239" y="496.234712"/>
     <use style="fill:#1f77b4;stroke:#1f77b4;stroke-linejoin:miter;" x="582.390196" xlink:href="#mafbd3dc239" y="498.842345"/>
     <use style="fill:#1f77b4;stroke:#1f77b4;stroke-linejoin:miter;" x="586.093795" xlink:href="#mafbd3dc239" y="500.918042"/>
     <use style="fill:#1f77b4;stroke:#1f77b4;stroke-linejoin:miter;" x="590.290855" xlink:href="#mafbd3dc239" y="495.966455"/>
     <use style="fill:#1f77b4;stroke:#1f77b4;stroke-linejoin:miter;" x="594.055646" xlink:href="#mafbd3dc239" y="495.383977"/>
     <use style="fill:#1f77b4;stroke:#1f77b4;stroke-linejoin:miter;" x="597.864025" xlink:href="#mafbd3dc239" y="495.957194"/>
     <use style="fill:#1f77b4;stroke:#1f77b4;stroke-linejoin:miter;" x="657.526198" xlink:href="#mafbd3dc239" y="629.29812"/>
     <use style="fill:#1f77b4;stroke:#1f77b4;stroke-linejoin:miter;" x="669.250682" xlink:href="#mafbd3dc239" y="626.645853"/>
     <use style="fill:#1f77b4;stroke:#1f77b4;stroke-linejoin:miter;" x="666.643445" xlink:href="#mafbd3dc239" y="592.812499"/>
     <use style="fill:#1f77b4;stroke:#1f77b4;stroke-linejoin:miter;" x="680.482726" xlink:href="#mafbd3dc239" y="597.629837"/>
     <use style="fill:#1f77b4;stroke:#1f77b4;stroke-linejoin:miter;" x="692.371832" xlink:href="#mafbd3dc239" y="598.003287"/>
     <use style="fill:#1f77b4;stroke:#1f77b4;stroke-linejoin:miter;" x="756.269117" xlink:href="#mafbd3dc239" y="592.84134"/>
     <use style="fill:#1f77b4;stroke:#1f77b4;stroke-linejoin:miter;" x="764.28981" xlink:href="#mafbd3dc239" y="585.956041"/>
     <use style="fill:#1f77b4;stroke:#1f77b4;stroke-linejoin:miter;" x="780.889476" xlink:href="#mafbd3dc239" y="585.735928"/>
     <use style="fill:#1f77b4;stroke:#1f77b4;stroke-linejoin:miter;" x="798.350339" xlink:href="#mafbd3dc239" y="585.22654"/>
     <use style="fill:#1f77b4;stroke:#1f77b4;stroke-linejoin:miter;" x="812.866577" xlink:href="#mafbd3dc239" y="581.459685"/>
     <use style="fill:#1f77b4;stroke:#1f77b4;stroke-linejoin:miter;" x="833.521777" xlink:href="#mafbd3dc239" y="581.071537"/>
     <use style="fill:#1f77b4;stroke:#1f77b4;stroke-linejoin:miter;" x="838.748625" xlink:href="#mafbd3dc239" y="570.004254"/>
     <use style="fill:#1f77b4;stroke:#1f77b4;stroke-linejoin:miter;" x="875.615059" xlink:href="#mafbd3dc239" y="575.661575"/>
     <use style="fill:#1f77b4;stroke:#1f77b4;stroke-linejoin:miter;" x="895.706675" xlink:href="#mafbd3dc239" y="557.126222"/>
     <use style="fill:#1f77b4;stroke:#1f77b4;stroke-linejoin:miter;" x="920.47117" xlink:href="#mafbd3dc239" y="552.648647"/>
     <use style="fill:#1f77b4;stroke:#1f77b4;stroke-linejoin:miter;" x="1051.807953" xlink:href="#mafbd3dc239" y="544.624009"/>
     <use style="fill:#1f77b4;stroke:#1f77b4;stroke-linejoin:miter;" x="1067.298939" xlink:href="#mafbd3dc239" y="530.398555"/>
     <use style="fill:#1f77b4;stroke:#1f77b4;stroke-linejoin:miter;" x="1085.20463" xlink:href="#mafbd3dc239" y="516.164072"/>
     <use style="fill:#1f77b4;stroke:#1f77b4;stroke-linejoin:miter;" x="1122.739085" xlink:href="#mafbd3dc239" y="503.257372"/>
    </g>
   </g>
   <g id="patch_3">
    <path d="M 144 768.96 
L 144 103.68 
" style="fill:none;stroke:#000000;stroke-linecap:square;stroke-linejoin:miter;stroke-width:0.8;"/>
   </g>
   <g id="patch_4">
    <path d="M 1036.8 768.96 
L 1036.8 103.68 
" style="fill:none;stroke:#000000;stroke-linecap:square;stroke-linejoin:miter;stroke-width:0.8;"/>
   </g>
   <g id="patch_5">
    <path d="M 144 768.96 
L 1036.8 768.96 
" style="fill:none;stroke:#000000;stroke-linecap:square;stroke-linejoin:miter;stroke-width:0.8;"/>
   </g>
   <g id="patch_6">
    <path d="M 144 103.68 
L 1036.8 103.68 
" style="fill:none;stroke:#000000;stroke-linecap:square;stroke-linejoin:miter;stroke-width:0.8;"/>
   </g>
  </g>
 </g>
 <defs>
  <clipPath id="pc6ffe01ce8">
   <rect height="665.28" width="892.8" x="144" y="103.68"/>
  </clipPath>
 </defs>
</svg>
