<?xml version="1.0" encoding="utf-8" standalone="no"?>
<!DOCTYPE svg PUBLIC "-//W3C//DTD SVG 1.1//EN"
  "http://www.w3.org/Graphics/SVG/1.1/DTD/svg11.dtd">
<!-- Created with matplotlib (http://matplotlib.org/) -->
<svg height="864pt" version="1.1" viewBox="0 0 1152 864" width="1152pt" xmlns="http://www.w3.org/2000/svg" xmlns:xlink="http://www.w3.org/1999/xlink">
 <defs>
  <style type="text/css">
*{stroke-linecap:butt;stroke-linejoin:round;}
  </style>
 </defs>
 <g id="figure_1">
  <g id="patch_1">
   <path d="M 0 864 
L 1152 864 
L 1152 0 
L 0 0 
z
" style="fill:#ffffff;"/>
  </g>
  <g id="axes_1">
   <g id="patch_2">
    <path d="M 144 768.96 
L 1036.8 768.96 
L 1036.8 103.68 
L 144 103.68 
z
" style="fill:#ffffff;"/>
   </g>
   <g id="matplotlib.axis_1">
    <g id="xtick_1">
     <g id="line2d_1">
      <defs>
       <path d="M 0 0 
L 0 3.5 
" id="mebd42b3439" style="stroke:#000000;stroke-width:0.8;"/>
      </defs>
      <g>
       <use style="stroke:#000000;stroke-width:0.8;" x="144" xlink:href="#mebd42b3439" y="768.96"/>
      </g>
     </g>
     <g id="text_1">
      <!-- −4000 -->
      <defs>
       <path d="M 10.59375 35.5 
L 73.1875 35.5 
L 73.1875 27.203125 
L 10.59375 27.203125 
z
" id="DejaVuSans-2212"/>
       <path d="M 37.796875 64.3125 
L 12.890625 25.390625 
L 37.796875 25.390625 
z
M 35.203125 72.90625 
L 47.609375 72.90625 
L 47.609375 25.390625 
L 58.015625 25.390625 
L 58.015625 17.1875 
L 47.609375 17.1875 
L 47.609375 0 
L 37.796875 0 
L 37.796875 17.1875 
L 4.890625 17.1875 
L 4.890625 26.703125 
z
" id="DejaVuSans-34"/>
       <path d="M 31.78125 66.40625 
Q 24.171875 66.40625 20.328125 58.90625 
Q 16.5 51.421875 16.5 36.375 
Q 16.5 21.390625 20.328125 13.890625 
Q 24.171875 6.390625 31.78125 6.390625 
Q 39.453125 6.390625 43.28125 13.890625 
Q 47.125 21.390625 47.125 36.375 
Q 47.125 51.421875 43.28125 58.90625 
Q 39.453125 66.40625 31.78125 66.40625 
z
M 31.78125 74.21875 
Q 44.046875 74.21875 50.515625 64.515625 
Q 56.984375 54.828125 56.984375 36.375 
Q 56.984375 17.96875 50.515625 8.265625 
Q 44.046875 -1.421875 31.78125 -1.421875 
Q 19.53125 -1.421875 13.0625 8.265625 
Q 6.59375 17.96875 6.59375 36.375 
Q 6.59375 54.828125 13.0625 64.515625 
Q 19.53125 74.21875 31.78125 74.21875 
z
" id="DejaVuSans-30"/>
      </defs>
      <g transform="translate(127.085156 783.558437)scale(0.1 -0.1)">
       <use xlink:href="#DejaVuSans-2212"/>
       <use x="83.789062" xlink:href="#DejaVuSans-34"/>
       <use x="147.412109" xlink:href="#DejaVuSans-30"/>
       <use x="211.035156" xlink:href="#DejaVuSans-30"/>
       <use x="274.658203" xlink:href="#DejaVuSans-30"/>
      </g>
     </g>
    </g>
    <g id="xtick_2">
     <g id="line2d_2">
      <g>
       <use style="stroke:#000000;stroke-width:0.8;" x="255.6" xlink:href="#mebd42b3439" y="768.96"/>
      </g>
     </g>
     <g id="text_2">
      <!-- −3000 -->
      <defs>
       <path d="M 40.578125 39.3125 
Q 47.65625 37.796875 51.625 33 
Q 55.609375 28.21875 55.609375 21.1875 
Q 55.609375 10.40625 48.1875 4.484375 
Q 40.765625 -1.421875 27.09375 -1.421875 
Q 22.515625 -1.421875 17.65625 -0.515625 
Q 12.796875 0.390625 7.625 2.203125 
L 7.625 11.71875 
Q 11.71875 9.328125 16.59375 8.109375 
Q 21.484375 6.890625 26.8125 6.890625 
Q 36.078125 6.890625 40.9375 10.546875 
Q 45.796875 14.203125 45.796875 21.1875 
Q 45.796875 27.640625 41.28125 31.265625 
Q 36.765625 34.90625 28.71875 34.90625 
L 20.21875 34.90625 
L 20.21875 43.015625 
L 29.109375 43.015625 
Q 36.375 43.015625 40.234375 45.921875 
Q 44.09375 48.828125 44.09375 54.296875 
Q 44.09375 59.90625 40.109375 62.90625 
Q 36.140625 65.921875 28.71875 65.921875 
Q 24.65625 65.921875 20.015625 65.03125 
Q 15.375 64.15625 9.8125 62.3125 
L 9.8125 71.09375 
Q 15.4375 72.65625 20.34375 73.4375 
Q 25.25 74.21875 29.59375 74.21875 
Q 40.828125 74.21875 47.359375 69.109375 
Q 53.90625 64.015625 53.90625 55.328125 
Q 53.90625 49.265625 50.4375 45.09375 
Q 46.96875 40.921875 40.578125 39.3125 
z
" id="DejaVuSans-33"/>
      </defs>
      <g transform="translate(238.685156 783.558437)scale(0.1 -0.1)">
       <use xlink:href="#DejaVuSans-2212"/>
       <use x="83.789062" xlink:href="#DejaVuSans-33"/>
       <use x="147.412109" xlink:href="#DejaVuSans-30"/>
       <use x="211.035156" xlink:href="#DejaVuSans-30"/>
       <use x="274.658203" xlink:href="#DejaVuSans-30"/>
      </g>
     </g>
    </g>
    <g id="xtick_3">
     <g id="line2d_3">
      <g>
       <use style="stroke:#000000;stroke-width:0.8;" x="367.2" xlink:href="#mebd42b3439" y="768.96"/>
      </g>
     </g>
     <g id="text_3">
      <!-- −2000 -->
      <defs>
       <path d="M 19.1875 8.296875 
L 53.609375 8.296875 
L 53.609375 0 
L 7.328125 0 
L 7.328125 8.296875 
Q 12.9375 14.109375 22.625 23.890625 
Q 32.328125 33.6875 34.8125 36.53125 
Q 39.546875 41.84375 41.421875 45.53125 
Q 43.3125 49.21875 43.3125 52.78125 
Q 43.3125 58.59375 39.234375 62.25 
Q 35.15625 65.921875 28.609375 65.921875 
Q 23.96875 65.921875 18.8125 64.3125 
Q 13.671875 62.703125 7.8125 59.421875 
L 7.8125 69.390625 
Q 13.765625 71.78125 18.9375 73 
Q 24.125 74.21875 28.421875 74.21875 
Q 39.75 74.21875 46.484375 68.546875 
Q 53.21875 62.890625 53.21875 53.421875 
Q 53.21875 48.921875 51.53125 44.890625 
Q 49.859375 40.875 45.40625 35.40625 
Q 44.1875 33.984375 37.640625 27.21875 
Q 31.109375 20.453125 19.1875 8.296875 
z
" id="DejaVuSans-32"/>
      </defs>
      <g transform="translate(350.285156 783.558437)scale(0.1 -0.1)">
       <use xlink:href="#DejaVuSans-2212"/>
       <use x="83.789062" xlink:href="#DejaVuSans-32"/>
       <use x="147.412109" xlink:href="#DejaVuSans-30"/>
       <use x="211.035156" xlink:href="#DejaVuSans-30"/>
       <use x="274.658203" xlink:href="#DejaVuSans-30"/>
      </g>
     </g>
    </g>
    <g id="xtick_4">
     <g id="line2d_4">
      <g>
       <use style="stroke:#000000;stroke-width:0.8;" x="478.8" xlink:href="#mebd42b3439" y="768.96"/>
      </g>
     </g>
     <g id="text_4">
      <!-- −1000 -->
      <defs>
       <path d="M 12.40625 8.296875 
L 28.515625 8.296875 
L 28.515625 63.921875 
L 10.984375 60.40625 
L 10.984375 69.390625 
L 28.421875 72.90625 
L 38.28125 72.90625 
L 38.28125 8.296875 
L 54.390625 8.296875 
L 54.390625 0 
L 12.40625 0 
z
" id="DejaVuSans-31"/>
      </defs>
      <g transform="translate(461.885156 783.558437)scale(0.1 -0.1)">
       <use xlink:href="#DejaVuSans-2212"/>
       <use x="83.789062" xlink:href="#DejaVuSans-31"/>
       <use x="147.412109" xlink:href="#DejaVuSans-30"/>
       <use x="211.035156" xlink:href="#DejaVuSans-30"/>
       <use x="274.658203" xlink:href="#DejaVuSans-30"/>
      </g>
     </g>
    </g>
    <g id="xtick_5">
     <g id="line2d_5">
      <g>
       <use style="stroke:#000000;stroke-width:0.8;" x="590.4" xlink:href="#mebd42b3439" y="768.96"/>
      </g>
     </g>
     <g id="text_5">
      <!-- 0 -->
      <g transform="translate(587.21875 783.558437)scale(0.1 -0.1)">
       <use xlink:href="#DejaVuSans-30"/>
      </g>
     </g>
    </g>
    <g id="xtick_6">
     <g id="line2d_6">
      <g>
       <use style="stroke:#000000;stroke-width:0.8;" x="702" xlink:href="#mebd42b3439" y="768.96"/>
      </g>
     </g>
     <g id="text_6">
      <!-- 1000 -->
      <g transform="translate(689.275 783.558437)scale(0.1 -0.1)">
       <use xlink:href="#DejaVuSans-31"/>
       <use x="63.623047" xlink:href="#DejaVuSans-30"/>
       <use x="127.246094" xlink:href="#DejaVuSans-30"/>
       <use x="190.869141" xlink:href="#DejaVuSans-30"/>
      </g>
     </g>
    </g>
    <g id="xtick_7">
     <g id="line2d_7">
      <g>
       <use style="stroke:#000000;stroke-width:0.8;" x="813.6" xlink:href="#mebd42b3439" y="768.96"/>
      </g>
     </g>
     <g id="text_7">
      <!-- 2000 -->
      <g transform="translate(800.875 783.558437)scale(0.1 -0.1)">
       <use xlink:href="#DejaVuSans-32"/>
       <use x="63.623047" xlink:href="#DejaVuSans-30"/>
       <use x="127.246094" xlink:href="#DejaVuSans-30"/>
       <use x="190.869141" xlink:href="#DejaVuSans-30"/>
      </g>
     </g>
    </g>
    <g id="xtick_8">
     <g id="line2d_8">
      <g>
       <use style="stroke:#000000;stroke-width:0.8;" x="925.2" xlink:href="#mebd42b3439" y="768.96"/>
      </g>
     </g>
     <g id="text_8">
      <!-- 3000 -->
      <g transform="translate(912.475 783.558437)scale(0.1 -0.1)">
       <use xlink:href="#DejaVuSans-33"/>
       <use x="63.623047" xlink:href="#DejaVuSans-30"/>
       <use x="127.246094" xlink:href="#DejaVuSans-30"/>
       <use x="190.869141" xlink:href="#DejaVuSans-30"/>
      </g>
     </g>
    </g>
    <g id="xtick_9">
     <g id="line2d_9">
      <g>
       <use style="stroke:#000000;stroke-width:0.8;" x="1036.8" xlink:href="#mebd42b3439" y="768.96"/>
      </g>
     </g>
     <g id="text_9">
      <!-- 4000 -->
      <g transform="translate(1024.075 783.558437)scale(0.1 -0.1)">
       <use xlink:href="#DejaVuSans-34"/>
       <use x="63.623047" xlink:href="#DejaVuSans-30"/>
       <use x="127.246094" xlink:href="#DejaVuSans-30"/>
       <use x="190.869141" xlink:href="#DejaVuSans-30"/>
      </g>
     </g>
    </g>
   </g>
   <g id="matplotlib.axis_2">
    <g id="ytick_1">
     <g id="line2d_10">
      <defs>
       <path d="M 0 0 
L -3.5 0 
" id="m61a893bff1" style="stroke:#000000;stroke-width:0.8;"/>
      </defs>
      <g>
       <use style="stroke:#000000;stroke-width:0.8;" x="144" xlink:href="#m61a893bff1" y="768.96"/>
      </g>
     </g>
     <g id="text_10">
      <!-- −4000 -->
      <g transform="translate(103.170312 772.759219)scale(0.1 -0.1)">
       <use xlink:href="#DejaVuSans-2212"/>
       <use x="83.789062" xlink:href="#DejaVuSans-34"/>
       <use x="147.412109" xlink:href="#DejaVuSans-30"/>
       <use x="211.035156" xlink:href="#DejaVuSans-30"/>
       <use x="274.658203" xlink:href="#DejaVuSans-30"/>
      </g>
     </g>
    </g>
    <g id="ytick_2">
     <g id="line2d_11">
      <g>
       <use style="stroke:#000000;stroke-width:0.8;" x="144" xlink:href="#m61a893bff1" y="685.8"/>
      </g>
     </g>
     <g id="text_11">
      <!-- −3000 -->
      <g transform="translate(103.170312 689.599219)scale(0.1 -0.1)">
       <use xlink:href="#DejaVuSans-2212"/>
       <use x="83.789062" xlink:href="#DejaVuSans-33"/>
       <use x="147.412109" xlink:href="#DejaVuSans-30"/>
       <use x="211.035156" xlink:href="#DejaVuSans-30"/>
       <use x="274.658203" xlink:href="#DejaVuSans-30"/>
      </g>
     </g>
    </g>
    <g id="ytick_3">
     <g id="line2d_12">
      <g>
       <use style="stroke:#000000;stroke-width:0.8;" x="144" xlink:href="#m61a893bff1" y="602.64"/>
      </g>
     </g>
     <g id="text_12">
      <!-- −2000 -->
      <g transform="translate(103.170312 606.439219)scale(0.1 -0.1)">
       <use xlink:href="#DejaVuSans-2212"/>
       <use x="83.789062" xlink:href="#DejaVuSans-32"/>
       <use x="147.412109" xlink:href="#DejaVuSans-30"/>
       <use x="211.035156" xlink:href="#DejaVuSans-30"/>
       <use x="274.658203" xlink:href="#DejaVuSans-30"/>
      </g>
     </g>
    </g>
    <g id="ytick_4">
     <g id="line2d_13">
      <g>
       <use style="stroke:#000000;stroke-width:0.8;" x="144" xlink:href="#m61a893bff1" y="519.48"/>
      </g>
     </g>
     <g id="text_13">
      <!-- −1000 -->
      <g transform="translate(103.170312 523.279219)scale(0.1 -0.1)">
       <use xlink:href="#DejaVuSans-2212"/>
       <use x="83.789062" xlink:href="#DejaVuSans-31"/>
       <use x="147.412109" xlink:href="#DejaVuSans-30"/>
       <use x="211.035156" xlink:href="#DejaVuSans-30"/>
       <use x="274.658203" xlink:href="#DejaVuSans-30"/>
      </g>
     </g>
    </g>
    <g id="ytick_5">
     <g id="line2d_14">
      <g>
       <use style="stroke:#000000;stroke-width:0.8;" x="144" xlink:href="#m61a893bff1" y="436.32"/>
      </g>
     </g>
     <g id="text_14">
      <!-- 0 -->
      <g transform="translate(130.6375 440.119219)scale(0.1 -0.1)">
       <use xlink:href="#DejaVuSans-30"/>
      </g>
     </g>
    </g>
    <g id="ytick_6">
     <g id="line2d_15">
      <g>
       <use style="stroke:#000000;stroke-width:0.8;" x="144" xlink:href="#m61a893bff1" y="353.16"/>
      </g>
     </g>
     <g id="text_15">
      <!-- 1000 -->
      <g transform="translate(111.55 356.959219)scale(0.1 -0.1)">
       <use xlink:href="#DejaVuSans-31"/>
       <use x="63.623047" xlink:href="#DejaVuSans-30"/>
       <use x="127.246094" xlink:href="#DejaVuSans-30"/>
       <use x="190.869141" xlink:href="#DejaVuSans-30"/>
      </g>
     </g>
    </g>
    <g id="ytick_7">
     <g id="line2d_16">
      <g>
       <use style="stroke:#000000;stroke-width:0.8;" x="144" xlink:href="#m61a893bff1" y="270"/>
      </g>
     </g>
     <g id="text_16">
      <!-- 2000 -->
      <g transform="translate(111.55 273.799219)scale(0.1 -0.1)">
       <use xlink:href="#DejaVuSans-32"/>
       <use x="63.623047" xlink:href="#DejaVuSans-30"/>
       <use x="127.246094" xlink:href="#DejaVuSans-30"/>
       <use x="190.869141" xlink:href="#DejaVuSans-30"/>
      </g>
     </g>
    </g>
    <g id="ytick_8">
     <g id="line2d_17">
      <g>
       <use style="stroke:#000000;stroke-width:0.8;" x="144" xlink:href="#m61a893bff1" y="186.84"/>
      </g>
     </g>
     <g id="text_17">
      <!-- 3000 -->
      <g transform="translate(111.55 190.639219)scale(0.1 -0.1)">
       <use xlink:href="#DejaVuSans-33"/>
       <use x="63.623047" xlink:href="#DejaVuSans-30"/>
       <use x="127.246094" xlink:href="#DejaVuSans-30"/>
       <use x="190.869141" xlink:href="#DejaVuSans-30"/>
      </g>
     </g>
    </g>
    <g id="ytick_9">
     <g id="line2d_18">
      <g>
       <use style="stroke:#000000;stroke-width:0.8;" x="144" xlink:href="#m61a893bff1" y="103.68"/>
      </g>
     </g>
     <g id="text_18">
      <!-- 4000 -->
      <g transform="translate(111.55 107.479219)scale(0.1 -0.1)">
       <use xlink:href="#DejaVuSans-34"/>
       <use x="63.623047" xlink:href="#DejaVuSans-30"/>
       <use x="127.246094" xlink:href="#DejaVuSans-30"/>
       <use x="190.869141" xlink:href="#DejaVuSans-30"/>
      </g>
     </g>
    </g>
   </g>
   <g id="line2d_19">
    <path clip-path="url(#p8747a4302d)" d="M 590.4 768.96 
L 590.4 103.68 
" style="fill:none;stroke:#1f77b4;stroke-linecap:square;stroke-width:1.5;"/>
   </g>
   <g id="line2d_20">
    <path clip-path="url(#p8747a4302d)" d="M 144 436.32 
L 1036.8 436.32 
" style="fill:none;stroke:#1f77b4;stroke-linecap:square;stroke-width:1.5;"/>
   </g>
   <g id="line2d_21">
    <defs>
     <path d="M 0 3 
C 0.795609 3 1.55874 2.683901 2.12132 2.12132 
C 2.683901 1.55874 3 0.795609 3 0 
C 3 -0.795609 2.683901 -1.55874 2.12132 -2.12132 
C 1.55874 -2.683901 0.795609 -3 0 -3 
C -0.795609 -3 -1.55874 -2.683901 -2.12132 -2.12132 
C -2.683901 -1.55874 -3 -0.795609 -3 0 
C -3 0.795609 -2.683901 1.55874 -2.12132 2.12132 
C -1.55874 2.683901 -0.795609 3 0 3 
z
" id="md9bdd034bb" style="stroke:#008000;"/>
    </defs>
    <g clip-path="url(#p8747a4302d)">
     <use style="fill:#008000;stroke:#008000;" x="1129.169906" xlink:href="#md9bdd034bb" y="501.422681"/>
    </g>
   </g>
   <g id="line2d_22">
    <g clip-path="url(#p8747a4302d)">
     <use style="fill:#008000;stroke:#008000;" x="1063.080675" xlink:href="#md9bdd034bb" y="435.551567"/>
    </g>
   </g>
   <g id="line2d_23">
    <g clip-path="url(#p8747a4302d)">
     <use style="fill:#008000;stroke:#008000;" x="1339.813883" xlink:href="#md9bdd034bb" y="346.623399"/>
    </g>
   </g>
   <g id="line2d_24">
    <g clip-path="url(#p8747a4302d)">
     <use style="fill:#008000;stroke:#008000;" x="1272.262921" xlink:href="#md9bdd034bb" y="326.291296"/>
    </g>
   </g>
   <g id="line2d_25">
    <g clip-path="url(#p8747a4302d)">
     <use style="fill:#008000;stroke:#008000;" x="647.306118" xlink:href="#md9bdd034bb" y="394.683556"/>
    </g>
   </g>
   <g id="line2d_26">
    <g clip-path="url(#p8747a4302d)">
     <use style="fill:#008000;stroke:#008000;" x="647.306118" xlink:href="#md9bdd034bb" y="394.683556"/>
    </g>
   </g>
   <g id="line2d_27">
    <g clip-path="url(#p8747a4302d)">
     <use style="fill:#008000;stroke:#008000;" x="537.45694" xlink:href="#md9bdd034bb" y="233.065672"/>
    </g>
   </g>
   <g id="line2d_28">
    <g clip-path="url(#p8747a4302d)">
     <use style="fill:#008000;stroke:#008000;" x="571.251211" xlink:href="#md9bdd034bb" y="399.463937"/>
    </g>
   </g>
   <g id="line2d_29">
    <g clip-path="url(#p8747a4302d)">
     <use style="fill:#008000;stroke:#008000;" x="571.251211" xlink:href="#md9bdd034bb" y="399.463937"/>
    </g>
   </g>
   <g id="line2d_30">
    <g clip-path="url(#p8747a4302d)">
     <use style="fill:#008000;stroke:#008000;" x="433.739948" xlink:href="#md9bdd034bb" y="251.860849"/>
    </g>
   </g>
   <g id="line2d_31">
    <g clip-path="url(#p8747a4302d)">
     <use style="fill:#008000;stroke:#008000;" x="411.331105" xlink:href="#md9bdd034bb" y="507.175433"/>
    </g>
   </g>
   <g id="line2d_32">
    <g clip-path="url(#p8747a4302d)">
     <use style="fill:#008000;stroke:#008000;" x="577.504816" xlink:href="#md9bdd034bb" y="623.578634"/>
    </g>
   </g>
   <g id="line2d_33">
    <defs>
     <path d="M 0 1.333333 
C 0.353604 1.333333 0.692773 1.192845 0.942809 0.942809 
C 1.192845 0.692773 1.333333 0.353604 1.333333 0 
C 1.333333 -0.353604 1.192845 -0.692773 0.942809 -0.942809 
C 0.692773 -1.192845 0.353604 -1.333333 0 -1.333333 
C -0.353604 -1.333333 -0.692773 -1.192845 -0.942809 -0.942809 
C -1.192845 -0.692773 -1.333333 -0.353604 -1.333333 0 
C -1.333333 0.353604 -1.192845 0.692773 -0.942809 0.942809 
C -0.692773 1.192845 -0.353604 1.333333 0 1.333333 
z
" id="m6674e69132" style="stroke:#ff0000;"/>
    </defs>
    <g clip-path="url(#p8747a4302d)">
     <use style="fill:#ff0000;stroke:#ff0000;" x="1133.310703" xlink:href="#m6674e69132" y="500.96097"/>
     <use style="fill:#ff0000;stroke:#ff0000;" x="1063.080675" xlink:href="#m6674e69132" y="435.551567"/>
     <use style="fill:#ff0000;stroke:#ff0000;" x="1339.813883" xlink:href="#m6674e69132" y="346.623399"/>
     <use style="fill:#ff0000;stroke:#ff0000;" x="1272.262921" xlink:href="#m6674e69132" y="326.291296"/>
     <use style="fill:#ff0000;stroke:#ff0000;" x="1355.187816" xlink:href="#m6674e69132" y="281.283958"/>
     <use style="fill:#ff0000;stroke:#ff0000;" x="1347.53668" xlink:href="#m6674e69132" y="249.937148"/>
     <use style="fill:#ff0000;stroke:#ff0000;" x="652.014094" xlink:href="#m6674e69132" y="399.860886"/>
     <use style="fill:#ff0000;stroke:#ff0000;" x="641.811849" xlink:href="#m6674e69132" y="389.846108"/>
     <use style="fill:#ff0000;stroke:#ff0000;" x="796.414742" xlink:href="#m6674e69132" y="189.599131"/>
     <use style="fill:#ff0000;stroke:#ff0000;" x="767.932661" xlink:href="#m6674e69132" y="196.428896"/>
     <use style="fill:#ff0000;stroke:#ff0000;" x="745.341044" xlink:href="#m6674e69132" y="197.620565"/>
     <use style="fill:#ff0000;stroke:#ff0000;" x="722.62119" xlink:href="#m6674e69132" y="201.720763"/>
     <use style="fill:#ff0000;stroke:#ff0000;" x="537.45694" xlink:href="#m6674e69132" y="233.065672"/>
     <use style="fill:#ff0000;stroke:#ff0000;" x="572.554175" xlink:href="#m6674e69132" y="399.058452"/>
     <use style="fill:#ff0000;stroke:#ff0000;" x="569.964551" xlink:href="#m6674e69132" y="399.894679"/>
     <use style="fill:#ff0000;stroke:#ff0000;" x="433.739948" xlink:href="#m6674e69132" y="251.860849"/>
     <use style="fill:#ff0000;stroke:#ff0000;" x="390.071186" xlink:href="#m6674e69132" y="284.828086"/>
     <use style="fill:#ff0000;stroke:#ff0000;" x="415.416936" xlink:href="#m6674e69132" y="317.816599"/>
     <use style="fill:#ff0000;stroke:#ff0000;" x="419.758918" xlink:href="#m6674e69132" y="343.724301"/>
     <use style="fill:#ff0000;stroke:#ff0000;" x="401.587395" xlink:href="#m6674e69132" y="364.921626"/>
     <use style="fill:#ff0000;stroke:#ff0000;" x="454.525304" xlink:href="#m6674e69132" y="392.427135"/>
     <use style="fill:#ff0000;stroke:#ff0000;" x="441.075147" xlink:href="#m6674e69132" y="414.186802"/>
     <use style="fill:#ff0000;stroke:#ff0000;" x="418.019766" xlink:href="#m6674e69132" y="424.41102"/>
     <use style="fill:#ff0000;stroke:#ff0000;" x="420.667534" xlink:href="#m6674e69132" y="437.768708"/>
     <use style="fill:#ff0000;stroke:#ff0000;" x="395.932904" xlink:href="#m6674e69132" y="445.460729"/>
     <use style="fill:#ff0000;stroke:#ff0000;" x="411.331105" xlink:href="#m6674e69132" y="507.175433"/>
     <use style="fill:#ff0000;stroke:#ff0000;" x="468.868281" xlink:href="#m6674e69132" y="491.544285"/>
     <use style="fill:#ff0000;stroke:#ff0000;" x="435.309983" xlink:href="#m6674e69132" y="514.638356"/>
     <use style="fill:#ff0000;stroke:#ff0000;" x="450.821956" xlink:href="#m6674e69132" y="515.275428"/>
     <use style="fill:#ff0000;stroke:#ff0000;" x="469.785697" xlink:href="#m6674e69132" y="512.786062"/>
     <use style="fill:#ff0000;stroke:#ff0000;" x="457.186905" xlink:href="#m6674e69132" y="529.903728"/>
     <use style="fill:#ff0000;stroke:#ff0000;" x="456.080062" xlink:href="#m6674e69132" y="540.989623"/>
     <use style="fill:#ff0000;stroke:#ff0000;" x="472.320838" xlink:href="#m6674e69132" y="538.830196"/>
     <use style="fill:#ff0000;stroke:#ff0000;" x="458.518664" xlink:href="#m6674e69132" y="563.241166"/>
     <use style="fill:#ff0000;stroke:#ff0000;" x="531.14932" xlink:href="#m6674e69132" y="502.008606"/>
     <use style="fill:#ff0000;stroke:#ff0000;" x="569.33289" xlink:href="#m6674e69132" y="507.222382"/>
     <use style="fill:#ff0000;stroke:#ff0000;" x="570.959364" xlink:href="#m6674e69132" y="621.679754"/>
     <use style="fill:#ff0000;stroke:#ff0000;" x="584.172651" xlink:href="#m6674e69132" y="625.348101"/>
     <use style="fill:#ff0000;stroke:#ff0000;" x="597.876564" xlink:href="#m6674e69132" y="642.627119"/>
     <use style="fill:#ff0000;stroke:#ff0000;" x="668.557376" xlink:href="#m6674e69132" y="627.934772"/>
     <use style="fill:#ff0000;stroke:#ff0000;" x="667.72419" xlink:href="#m6674e69132" y="593.824535"/>
     <use style="fill:#ff0000;stroke:#ff0000;" x="696.225005" xlink:href="#m6674e69132" y="597.10893"/>
     <use style="fill:#ff0000;stroke:#ff0000;" x="746.688161" xlink:href="#m6674e69132" y="601.872063"/>
     <use style="fill:#ff0000;stroke:#ff0000;" x="783.242796" xlink:href="#m6674e69132" y="583.992191"/>
     <use style="fill:#ff0000;stroke:#ff0000;" x="803.970324" xlink:href="#m6674e69132" y="583.512019"/>
     <use style="fill:#ff0000;stroke:#ff0000;" x="833.779496" xlink:href="#m6674e69132" y="587.153008"/>
     <use style="fill:#ff0000;stroke:#ff0000;" x="836.732344" xlink:href="#m6674e69132" y="572.688307"/>
     <use style="fill:#ff0000;stroke:#ff0000;" x="873.674635" xlink:href="#m6674e69132" y="576.531546"/>
     <use style="fill:#ff0000;stroke:#ff0000;" x="893.63237" xlink:href="#m6674e69132" y="553.945782"/>
     <use style="fill:#ff0000;stroke:#ff0000;" x="936.911983" xlink:href="#m6674e69132" y="553.906825"/>
     <use style="fill:#ff0000;stroke:#ff0000;" x="1057.737542" xlink:href="#m6674e69132" y="552.62893"/>
     <use style="fill:#ff0000;stroke:#ff0000;" x="1088.041993" xlink:href="#m6674e69132" y="517.787238"/>
     <use style="fill:#ff0000;stroke:#ff0000;" x="1125.029176" xlink:href="#m6674e69132" y="501.870436"/>
    </g>
   </g>
   <g id="line2d_34">
    <defs>
     <path d="M -0.5 0.5 
L 0.5 0.5 
L 0.5 -0.5 
L -0.5 -0.5 
z
" id="m948fbcade6" style="stroke:#1f77b4;stroke-linejoin:miter;"/>
    </defs>
    <g clip-path="url(#p8747a4302d)">
     <use style="fill:#1f77b4;stroke:#1f77b4;stroke-linejoin:miter;" x="1133.310703" xlink:href="#m948fbcade6" y="500.96097"/>
     <use style="fill:#1f77b4;stroke:#1f77b4;stroke-linejoin:miter;" x="1063.080675" xlink:href="#m948fbcade6" y="435.551567"/>
     <use style="fill:#1f77b4;stroke:#1f77b4;stroke-linejoin:miter;" x="1339.813883" xlink:href="#m948fbcade6" y="346.623399"/>
     <use style="fill:#1f77b4;stroke:#1f77b4;stroke-linejoin:miter;" x="1272.262921" xlink:href="#m948fbcade6" y="326.291296"/>
     <use style="fill:#1f77b4;stroke:#1f77b4;stroke-linejoin:miter;" x="1355.187816" xlink:href="#m948fbcade6" y="281.283958"/>
     <use style="fill:#1f77b4;stroke:#1f77b4;stroke-linejoin:miter;" x="1347.53668" xlink:href="#m948fbcade6" y="249.937148"/>
     <use style="fill:#1f77b4;stroke:#1f77b4;stroke-linejoin:miter;" x="652.014094" xlink:href="#m948fbcade6" y="399.860886"/>
     <use style="fill:#1f77b4;stroke:#1f77b4;stroke-linejoin:miter;" x="648.211834" xlink:href="#m948fbcade6" y="398.164888"/>
     <use style="fill:#1f77b4;stroke:#1f77b4;stroke-linejoin:miter;" x="646.391883" xlink:href="#m948fbcade6" y="395.162082"/>
     <use style="fill:#1f77b4;stroke:#1f77b4;stroke-linejoin:miter;" x="643.732597" xlink:href="#m948fbcade6" y="392.878588"/>
     <use style="fill:#1f77b4;stroke:#1f77b4;stroke-linejoin:miter;" x="641.811849" xlink:href="#m948fbcade6" y="389.846108"/>
     <use style="fill:#1f77b4;stroke:#1f77b4;stroke-linejoin:miter;" x="796.414742" xlink:href="#m948fbcade6" y="189.599131"/>
     <use style="fill:#1f77b4;stroke:#1f77b4;stroke-linejoin:miter;" x="767.932661" xlink:href="#m948fbcade6" y="196.428896"/>
     <use style="fill:#1f77b4;stroke:#1f77b4;stroke-linejoin:miter;" x="745.341044" xlink:href="#m948fbcade6" y="197.620565"/>
     <use style="fill:#1f77b4;stroke:#1f77b4;stroke-linejoin:miter;" x="722.62119" xlink:href="#m948fbcade6" y="201.720763"/>
     <use style="fill:#1f77b4;stroke:#1f77b4;stroke-linejoin:miter;" x="701.696411" xlink:href="#m948fbcade6" y="204.734744"/>
     <use style="fill:#1f77b4;stroke:#1f77b4;stroke-linejoin:miter;" x="682.017445" xlink:href="#m948fbcade6" y="207.905272"/>
     <use style="fill:#1f77b4;stroke:#1f77b4;stroke-linejoin:miter;" x="663.526443" xlink:href="#m948fbcade6" y="211.242369"/>
     <use style="fill:#1f77b4;stroke:#1f77b4;stroke-linejoin:miter;" x="645.926376" xlink:href="#m948fbcade6" y="214.089329"/>
     <use style="fill:#1f77b4;stroke:#1f77b4;stroke-linejoin:miter;" x="628.684359" xlink:href="#m948fbcade6" y="215.913475"/>
     <use style="fill:#1f77b4;stroke:#1f77b4;stroke-linejoin:miter;" x="612.464195" xlink:href="#m948fbcade6" y="219.082877"/>
     <use style="fill:#1f77b4;stroke:#1f77b4;stroke-linejoin:miter;" x="596.800687" xlink:href="#m948fbcade6" y="223.067931"/>
     <use style="fill:#1f77b4;stroke:#1f77b4;stroke-linejoin:miter;" x="581.42025" xlink:href="#m948fbcade6" y="224.866806"/>
     <use style="fill:#1f77b4;stroke:#1f77b4;stroke-linejoin:miter;" x="566.441995" xlink:href="#m948fbcade6" y="226.329281"/>
     <use style="fill:#1f77b4;stroke:#1f77b4;stroke-linejoin:miter;" x="551.512952" xlink:href="#m948fbcade6" y="228.077156"/>
     <use style="fill:#1f77b4;stroke:#1f77b4;stroke-linejoin:miter;" x="537.45694" xlink:href="#m948fbcade6" y="233.065672"/>
     <use style="fill:#1f77b4;stroke:#1f77b4;stroke-linejoin:miter;" x="572.554175" xlink:href="#m948fbcade6" y="399.058452"/>
     <use style="fill:#1f77b4;stroke:#1f77b4;stroke-linejoin:miter;" x="569.964551" xlink:href="#m948fbcade6" y="399.894679"/>
     <use style="fill:#1f77b4;stroke:#1f77b4;stroke-linejoin:miter;" x="433.739948" xlink:href="#m948fbcade6" y="251.860849"/>
     <use style="fill:#1f77b4;stroke:#1f77b4;stroke-linejoin:miter;" x="416.883053" xlink:href="#m948fbcade6" y="254.001079"/>
     <use style="fill:#1f77b4;stroke:#1f77b4;stroke-linejoin:miter;" x="407.57776" xlink:href="#m948fbcade6" y="264.476433"/>
     <use style="fill:#1f77b4;stroke:#1f77b4;stroke-linejoin:miter;" x="395.837281" xlink:href="#m948fbcade6" y="272.539256"/>
     <use style="fill:#1f77b4;stroke:#1f77b4;stroke-linejoin:miter;" x="390.071186" xlink:href="#m948fbcade6" y="284.828086"/>
     <use style="fill:#1f77b4;stroke:#1f77b4;stroke-linejoin:miter;" x="415.416936" xlink:href="#m948fbcade6" y="317.816599"/>
     <use style="fill:#1f77b4;stroke:#1f77b4;stroke-linejoin:miter;" x="419.758918" xlink:href="#m948fbcade6" y="343.724301"/>
     <use style="fill:#1f77b4;stroke:#1f77b4;stroke-linejoin:miter;" x="419.052456" xlink:href="#m948fbcade6" y="353.551061"/>
     <use style="fill:#1f77b4;stroke:#1f77b4;stroke-linejoin:miter;" x="406.797497" xlink:href="#m948fbcade6" y="357.529563"/>
     <use style="fill:#1f77b4;stroke:#1f77b4;stroke-linejoin:miter;" x="401.587395" xlink:href="#m948fbcade6" y="364.921626"/>
     <use style="fill:#1f77b4;stroke:#1f77b4;stroke-linejoin:miter;" x="454.525304" xlink:href="#m948fbcade6" y="392.427135"/>
     <use style="fill:#1f77b4;stroke:#1f77b4;stroke-linejoin:miter;" x="455.456926" xlink:href="#m948fbcade6" y="398.942898"/>
     <use style="fill:#1f77b4;stroke:#1f77b4;stroke-linejoin:miter;" x="457.261883" xlink:href="#m948fbcade6" y="405.425658"/>
     <use style="fill:#1f77b4;stroke:#1f77b4;stroke-linejoin:miter;" x="458.031238" xlink:href="#m948fbcade6" y="411.355511"/>
     <use style="fill:#1f77b4;stroke:#1f77b4;stroke-linejoin:miter;" x="441.075147" xlink:href="#m948fbcade6" y="414.186802"/>
     <use style="fill:#1f77b4;stroke:#1f77b4;stroke-linejoin:miter;" x="418.019766" xlink:href="#m948fbcade6" y="424.41102"/>
     <use style="fill:#1f77b4;stroke:#1f77b4;stroke-linejoin:miter;" x="420.08668" xlink:href="#m948fbcade6" y="431.402982"/>
     <use style="fill:#1f77b4;stroke:#1f77b4;stroke-linejoin:miter;" x="420.667534" xlink:href="#m948fbcade6" y="437.768708"/>
     <use style="fill:#1f77b4;stroke:#1f77b4;stroke-linejoin:miter;" x="395.932904" xlink:href="#m948fbcade6" y="445.460729"/>
     <use style="fill:#1f77b4;stroke:#1f77b4;stroke-linejoin:miter;" x="397.118553" xlink:href="#m948fbcade6" y="453.008242"/>
     <use style="fill:#1f77b4;stroke:#1f77b4;stroke-linejoin:miter;" x="398.985024" xlink:href="#m948fbcade6" y="460.669026"/>
     <use style="fill:#1f77b4;stroke:#1f77b4;stroke-linejoin:miter;" x="401.76248" xlink:href="#m948fbcade6" y="467.92528"/>
     <use style="fill:#1f77b4;stroke:#1f77b4;stroke-linejoin:miter;" x="404.448213" xlink:href="#m948fbcade6" y="475.480709"/>
     <use style="fill:#1f77b4;stroke:#1f77b4;stroke-linejoin:miter;" x="404.864866" xlink:href="#m948fbcade6" y="483.334883"/>
     <use style="fill:#1f77b4;stroke:#1f77b4;stroke-linejoin:miter;" x="407.574262" xlink:href="#m948fbcade6" y="490.887565"/>
     <use style="fill:#1f77b4;stroke:#1f77b4;stroke-linejoin:miter;" x="408.625636" xlink:href="#m948fbcade6" y="499.34708"/>
     <use style="fill:#1f77b4;stroke:#1f77b4;stroke-linejoin:miter;" x="411.331105" xlink:href="#m948fbcade6" y="507.175433"/>
     <use style="fill:#1f77b4;stroke:#1f77b4;stroke-linejoin:miter;" x="468.868281" xlink:href="#m948fbcade6" y="491.544285"/>
     <use style="fill:#1f77b4;stroke:#1f77b4;stroke-linejoin:miter;" x="435.309983" xlink:href="#m948fbcade6" y="514.638356"/>
     <use style="fill:#1f77b4;stroke:#1f77b4;stroke-linejoin:miter;" x="450.821956" xlink:href="#m948fbcade6" y="515.275428"/>
     <use style="fill:#1f77b4;stroke:#1f77b4;stroke-linejoin:miter;" x="469.785697" xlink:href="#m948fbcade6" y="512.786062"/>
     <use style="fill:#1f77b4;stroke:#1f77b4;stroke-linejoin:miter;" x="457.186905" xlink:href="#m948fbcade6" y="529.903728"/>
     <use style="fill:#1f77b4;stroke:#1f77b4;stroke-linejoin:miter;" x="456.080062" xlink:href="#m948fbcade6" y="540.989623"/>
     <use style="fill:#1f77b4;stroke:#1f77b4;stroke-linejoin:miter;" x="472.320838" xlink:href="#m948fbcade6" y="538.830196"/>
     <use style="fill:#1f77b4;stroke:#1f77b4;stroke-linejoin:miter;" x="458.518664" xlink:href="#m948fbcade6" y="563.241166"/>
     <use style="fill:#1f77b4;stroke:#1f77b4;stroke-linejoin:miter;" x="531.14932" xlink:href="#m948fbcade6" y="502.008606"/>
     <use style="fill:#1f77b4;stroke:#1f77b4;stroke-linejoin:miter;" x="540.534976" xlink:href="#m948fbcade6" y="498.737374"/>
     <use style="fill:#1f77b4;stroke:#1f77b4;stroke-linejoin:miter;" x="548.907614" xlink:href="#m948fbcade6" y="495.438111"/>
     <use style="fill:#1f77b4;stroke:#1f77b4;stroke-linejoin:miter;" x="553.33961" xlink:href="#m948fbcade6" y="497.005401"/>
     <use style="fill:#1f77b4;stroke:#1f77b4;stroke-linejoin:miter;" x="560.72839" xlink:href="#m948fbcade6" y="492.901866"/>
     <use style="fill:#1f77b4;stroke:#1f77b4;stroke-linejoin:miter;" x="565.973337" xlink:href="#m948fbcade6" y="491.569363"/>
     <use style="fill:#1f77b4;stroke:#1f77b4;stroke-linejoin:miter;" x="569.349492" xlink:href="#m948fbcade6" y="494.103979"/>
     <use style="fill:#1f77b4;stroke:#1f77b4;stroke-linejoin:miter;" x="569.33289" xlink:href="#m948fbcade6" y="507.222382"/>
     <use style="fill:#1f77b4;stroke:#1f77b4;stroke-linejoin:miter;" x="570.959364" xlink:href="#m948fbcade6" y="621.679754"/>
     <use style="fill:#1f77b4;stroke:#1f77b4;stroke-linejoin:miter;" x="584.172651" xlink:href="#m948fbcade6" y="625.348101"/>
     <use style="fill:#1f77b4;stroke:#1f77b4;stroke-linejoin:miter;" x="597.876564" xlink:href="#m948fbcade6" y="642.627119"/>
     <use style="fill:#1f77b4;stroke:#1f77b4;stroke-linejoin:miter;" x="613.195085" xlink:href="#m948fbcade6" y="641.41803"/>
     <use style="fill:#1f77b4;stroke:#1f77b4;stroke-linejoin:miter;" x="627.910305" xlink:href="#m948fbcade6" y="641.2834"/>
     <use style="fill:#1f77b4;stroke:#1f77b4;stroke-linejoin:miter;" x="668.557376" xlink:href="#m948fbcade6" y="627.934772"/>
     <use style="fill:#1f77b4;stroke:#1f77b4;stroke-linejoin:miter;" x="667.72419" xlink:href="#m948fbcade6" y="593.824535"/>
     <use style="fill:#1f77b4;stroke:#1f77b4;stroke-linejoin:miter;" x="683.224601" xlink:href="#m948fbcade6" y="598.167068"/>
     <use style="fill:#1f77b4;stroke:#1f77b4;stroke-linejoin:miter;" x="696.225005" xlink:href="#m948fbcade6" y="597.10893"/>
     <use style="fill:#1f77b4;stroke:#1f77b4;stroke-linejoin:miter;" x="746.688161" xlink:href="#m948fbcade6" y="601.872063"/>
     <use style="fill:#1f77b4;stroke:#1f77b4;stroke-linejoin:miter;" x="756.06334" xlink:href="#m948fbcade6" y="593.438487"/>
     <use style="fill:#1f77b4;stroke:#1f77b4;stroke-linejoin:miter;" x="766.48487" xlink:href="#m948fbcade6" y="586.102907"/>
     <use style="fill:#1f77b4;stroke:#1f77b4;stroke-linejoin:miter;" x="783.242796" xlink:href="#m948fbcade6" y="583.992191"/>
     <use style="fill:#1f77b4;stroke:#1f77b4;stroke-linejoin:miter;" x="803.970324" xlink:href="#m948fbcade6" y="583.512019"/>
     <use style="fill:#1f77b4;stroke:#1f77b4;stroke-linejoin:miter;" x="833.779496" xlink:href="#m948fbcade6" y="587.153008"/>
     <use style="fill:#1f77b4;stroke:#1f77b4;stroke-linejoin:miter;" x="836.732344" xlink:href="#m948fbcade6" y="572.688307"/>
     <use style="fill:#1f77b4;stroke:#1f77b4;stroke-linejoin:miter;" x="873.674635" xlink:href="#m948fbcade6" y="576.531546"/>
     <use style="fill:#1f77b4;stroke:#1f77b4;stroke-linejoin:miter;" x="893.63237" xlink:href="#m948fbcade6" y="553.945782"/>
     <use style="fill:#1f77b4;stroke:#1f77b4;stroke-linejoin:miter;" x="936.911983" xlink:href="#m948fbcade6" y="553.906825"/>
     <use style="fill:#1f77b4;stroke:#1f77b4;stroke-linejoin:miter;" x="1057.737542" xlink:href="#m948fbcade6" y="552.62893"/>
     <use style="fill:#1f77b4;stroke:#1f77b4;stroke-linejoin:miter;" x="1088.041993" xlink:href="#m948fbcade6" y="517.787238"/>
     <use style="fill:#1f77b4;stroke:#1f77b4;stroke-linejoin:miter;" x="1125.029176" xlink:href="#m948fbcade6" y="501.870436"/>
    </g>
   </g>
   <g id="patch_3">
    <path d="M 144 768.96 
L 144 103.68 
" style="fill:none;stroke:#000000;stroke-linecap:square;stroke-linejoin:miter;stroke-width:0.8;"/>
   </g>
   <g id="patch_4">
    <path d="M 1036.8 768.96 
L 1036.8 103.68 
" style="fill:none;stroke:#000000;stroke-linecap:square;stroke-linejoin:miter;stroke-width:0.8;"/>
   </g>
   <g id="patch_5">
    <path d="M 144 768.96 
L 1036.8 768.96 
" style="fill:none;stroke:#000000;stroke-linecap:square;stroke-linejoin:miter;stroke-width:0.8;"/>
   </g>
   <g id="patch_6">
    <path d="M 144 103.68 
L 1036.8 103.68 
" style="fill:none;stroke:#000000;stroke-linecap:square;stroke-linejoin:miter;stroke-width:0.8;"/>
   </g>
  </g>
 </g>
 <defs>
  <clipPath id="p8747a4302d">
   <rect height="665.28" width="892.8" x="144" y="103.68"/>
  </clipPath>
 </defs>
</svg>
