<?xml version="1.0" encoding="utf-8" standalone="no"?>
<!DOCTYPE svg PUBLIC "-//W3C//DTD SVG 1.1//EN"
  "http://www.w3.org/Graphics/SVG/1.1/DTD/svg11.dtd">
<!-- Created with matplotlib (http://matplotlib.org/) -->
<svg height="864pt" version="1.1" viewBox="0 0 1152 864" width="1152pt" xmlns="http://www.w3.org/2000/svg" xmlns:xlink="http://www.w3.org/1999/xlink">
 <defs>
  <style type="text/css">
*{stroke-linecap:butt;stroke-linejoin:round;}
  </style>
 </defs>
 <g id="figure_1">
  <g id="patch_1">
   <path d="M 0 864 
L 1152 864 
L 1152 0 
L 0 0 
z
" style="fill:#ffffff;"/>
  </g>
  <g id="axes_1">
   <g id="patch_2">
    <path d="M 144 768.96 
L 1036.8 768.96 
L 1036.8 103.68 
L 144 103.68 
z
" style="fill:#ffffff;"/>
   </g>
   <g id="matplotlib.axis_1">
    <g id="xtick_1">
     <g id="line2d_1">
      <defs>
       <path d="M 0 0 
L 0 3.5 
" id="m8c94ea5a33" style="stroke:#000000;stroke-width:0.8;"/>
      </defs>
      <g>
       <use style="stroke:#000000;stroke-width:0.8;" x="144" xlink:href="#m8c94ea5a33" y="768.96"/>
      </g>
     </g>
     <g id="text_1">
      <!-- −4000 -->
      <defs>
       <path d="M 10.59375 35.5 
L 73.1875 35.5 
L 73.1875 27.203125 
L 10.59375 27.203125 
z
" id="DejaVuSans-2212"/>
       <path d="M 37.796875 64.3125 
L 12.890625 25.390625 
L 37.796875 25.390625 
z
M 35.203125 72.90625 
L 47.609375 72.90625 
L 47.609375 25.390625 
L 58.015625 25.390625 
L 58.015625 17.1875 
L 47.609375 17.1875 
L 47.609375 0 
L 37.796875 0 
L 37.796875 17.1875 
L 4.890625 17.1875 
L 4.890625 26.703125 
z
" id="DejaVuSans-34"/>
       <path d="M 31.78125 66.40625 
Q 24.171875 66.40625 20.328125 58.90625 
Q 16.5 51.421875 16.5 36.375 
Q 16.5 21.390625 20.328125 13.890625 
Q 24.171875 6.390625 31.78125 6.390625 
Q 39.453125 6.390625 43.28125 13.890625 
Q 47.125 21.390625 47.125 36.375 
Q 47.125 51.421875 43.28125 58.90625 
Q 39.453125 66.40625 31.78125 66.40625 
z
M 31.78125 74.21875 
Q 44.046875 74.21875 50.515625 64.515625 
Q 56.984375 54.828125 56.984375 36.375 
Q 56.984375 17.96875 50.515625 8.265625 
Q 44.046875 -1.421875 31.78125 -1.421875 
Q 19.53125 -1.421875 13.0625 8.265625 
Q 6.59375 17.96875 6.59375 36.375 
Q 6.59375 54.828125 13.0625 64.515625 
Q 19.53125 74.21875 31.78125 74.21875 
z
" id="DejaVuSans-30"/>
      </defs>
      <g transform="translate(127.085156 783.558437)scale(0.1 -0.1)">
       <use xlink:href="#DejaVuSans-2212"/>
       <use x="83.789062" xlink:href="#DejaVuSans-34"/>
       <use x="147.412109" xlink:href="#DejaVuSans-30"/>
       <use x="211.035156" xlink:href="#DejaVuSans-30"/>
       <use x="274.658203" xlink:href="#DejaVuSans-30"/>
      </g>
     </g>
    </g>
    <g id="xtick_2">
     <g id="line2d_2">
      <g>
       <use style="stroke:#000000;stroke-width:0.8;" x="255.6" xlink:href="#m8c94ea5a33" y="768.96"/>
      </g>
     </g>
     <g id="text_2">
      <!-- −3000 -->
      <defs>
       <path d="M 40.578125 39.3125 
Q 47.65625 37.796875 51.625 33 
Q 55.609375 28.21875 55.609375 21.1875 
Q 55.609375 10.40625 48.1875 4.484375 
Q 40.765625 -1.421875 27.09375 -1.421875 
Q 22.515625 -1.421875 17.65625 -0.515625 
Q 12.796875 0.390625 7.625 2.203125 
L 7.625 11.71875 
Q 11.71875 9.328125 16.59375 8.109375 
Q 21.484375 6.890625 26.8125 6.890625 
Q 36.078125 6.890625 40.9375 10.546875 
Q 45.796875 14.203125 45.796875 21.1875 
Q 45.796875 27.640625 41.28125 31.265625 
Q 36.765625 34.90625 28.71875 34.90625 
L 20.21875 34.90625 
L 20.21875 43.015625 
L 29.109375 43.015625 
Q 36.375 43.015625 40.234375 45.921875 
Q 44.09375 48.828125 44.09375 54.296875 
Q 44.09375 59.90625 40.109375 62.90625 
Q 36.140625 65.921875 28.71875 65.921875 
Q 24.65625 65.921875 20.015625 65.03125 
Q 15.375 64.15625 9.8125 62.3125 
L 9.8125 71.09375 
Q 15.4375 72.65625 20.34375 73.4375 
Q 25.25 74.21875 29.59375 74.21875 
Q 40.828125 74.21875 47.359375 69.109375 
Q 53.90625 64.015625 53.90625 55.328125 
Q 53.90625 49.265625 50.4375 45.09375 
Q 46.96875 40.921875 40.578125 39.3125 
z
" id="DejaVuSans-33"/>
      </defs>
      <g transform="translate(238.685156 783.558437)scale(0.1 -0.1)">
       <use xlink:href="#DejaVuSans-2212"/>
       <use x="83.789062" xlink:href="#DejaVuSans-33"/>
       <use x="147.412109" xlink:href="#DejaVuSans-30"/>
       <use x="211.035156" xlink:href="#DejaVuSans-30"/>
       <use x="274.658203" xlink:href="#DejaVuSans-30"/>
      </g>
     </g>
    </g>
    <g id="xtick_3">
     <g id="line2d_3">
      <g>
       <use style="stroke:#000000;stroke-width:0.8;" x="367.2" xlink:href="#m8c94ea5a33" y="768.96"/>
      </g>
     </g>
     <g id="text_3">
      <!-- −2000 -->
      <defs>
       <path d="M 19.1875 8.296875 
L 53.609375 8.296875 
L 53.609375 0 
L 7.328125 0 
L 7.328125 8.296875 
Q 12.9375 14.109375 22.625 23.890625 
Q 32.328125 33.6875 34.8125 36.53125 
Q 39.546875 41.84375 41.421875 45.53125 
Q 43.3125 49.21875 43.3125 52.78125 
Q 43.3125 58.59375 39.234375 62.25 
Q 35.15625 65.921875 28.609375 65.921875 
Q 23.96875 65.921875 18.8125 64.3125 
Q 13.671875 62.703125 7.8125 59.421875 
L 7.8125 69.390625 
Q 13.765625 71.78125 18.9375 73 
Q 24.125 74.21875 28.421875 74.21875 
Q 39.75 74.21875 46.484375 68.546875 
Q 53.21875 62.890625 53.21875 53.421875 
Q 53.21875 48.921875 51.53125 44.890625 
Q 49.859375 40.875 45.40625 35.40625 
Q 44.1875 33.984375 37.640625 27.21875 
Q 31.109375 20.453125 19.1875 8.296875 
z
" id="DejaVuSans-32"/>
      </defs>
      <g transform="translate(350.285156 783.558437)scale(0.1 -0.1)">
       <use xlink:href="#DejaVuSans-2212"/>
       <use x="83.789062" xlink:href="#DejaVuSans-32"/>
       <use x="147.412109" xlink:href="#DejaVuSans-30"/>
       <use x="211.035156" xlink:href="#DejaVuSans-30"/>
       <use x="274.658203" xlink:href="#DejaVuSans-30"/>
      </g>
     </g>
    </g>
    <g id="xtick_4">
     <g id="line2d_4">
      <g>
       <use style="stroke:#000000;stroke-width:0.8;" x="478.8" xlink:href="#m8c94ea5a33" y="768.96"/>
      </g>
     </g>
     <g id="text_4">
      <!-- −1000 -->
      <defs>
       <path d="M 12.40625 8.296875 
L 28.515625 8.296875 
L 28.515625 63.921875 
L 10.984375 60.40625 
L 10.984375 69.390625 
L 28.421875 72.90625 
L 38.28125 72.90625 
L 38.28125 8.296875 
L 54.390625 8.296875 
L 54.390625 0 
L 12.40625 0 
z
" id="DejaVuSans-31"/>
      </defs>
      <g transform="translate(461.885156 783.558437)scale(0.1 -0.1)">
       <use xlink:href="#DejaVuSans-2212"/>
       <use x="83.789062" xlink:href="#DejaVuSans-31"/>
       <use x="147.412109" xlink:href="#DejaVuSans-30"/>
       <use x="211.035156" xlink:href="#DejaVuSans-30"/>
       <use x="274.658203" xlink:href="#DejaVuSans-30"/>
      </g>
     </g>
    </g>
    <g id="xtick_5">
     <g id="line2d_5">
      <g>
       <use style="stroke:#000000;stroke-width:0.8;" x="590.4" xlink:href="#m8c94ea5a33" y="768.96"/>
      </g>
     </g>
     <g id="text_5">
      <!-- 0 -->
      <g transform="translate(587.21875 783.558437)scale(0.1 -0.1)">
       <use xlink:href="#DejaVuSans-30"/>
      </g>
     </g>
    </g>
    <g id="xtick_6">
     <g id="line2d_6">
      <g>
       <use style="stroke:#000000;stroke-width:0.8;" x="702" xlink:href="#m8c94ea5a33" y="768.96"/>
      </g>
     </g>
     <g id="text_6">
      <!-- 1000 -->
      <g transform="translate(689.275 783.558437)scale(0.1 -0.1)">
       <use xlink:href="#DejaVuSans-31"/>
       <use x="63.623047" xlink:href="#DejaVuSans-30"/>
       <use x="127.246094" xlink:href="#DejaVuSans-30"/>
       <use x="190.869141" xlink:href="#DejaVuSans-30"/>
      </g>
     </g>
    </g>
    <g id="xtick_7">
     <g id="line2d_7">
      <g>
       <use style="stroke:#000000;stroke-width:0.8;" x="813.6" xlink:href="#m8c94ea5a33" y="768.96"/>
      </g>
     </g>
     <g id="text_7">
      <!-- 2000 -->
      <g transform="translate(800.875 783.558437)scale(0.1 -0.1)">
       <use xlink:href="#DejaVuSans-32"/>
       <use x="63.623047" xlink:href="#DejaVuSans-30"/>
       <use x="127.246094" xlink:href="#DejaVuSans-30"/>
       <use x="190.869141" xlink:href="#DejaVuSans-30"/>
      </g>
     </g>
    </g>
    <g id="xtick_8">
     <g id="line2d_8">
      <g>
       <use style="stroke:#000000;stroke-width:0.8;" x="925.2" xlink:href="#m8c94ea5a33" y="768.96"/>
      </g>
     </g>
     <g id="text_8">
      <!-- 3000 -->
      <g transform="translate(912.475 783.558437)scale(0.1 -0.1)">
       <use xlink:href="#DejaVuSans-33"/>
       <use x="63.623047" xlink:href="#DejaVuSans-30"/>
       <use x="127.246094" xlink:href="#DejaVuSans-30"/>
       <use x="190.869141" xlink:href="#DejaVuSans-30"/>
      </g>
     </g>
    </g>
    <g id="xtick_9">
     <g id="line2d_9">
      <g>
       <use style="stroke:#000000;stroke-width:0.8;" x="1036.8" xlink:href="#m8c94ea5a33" y="768.96"/>
      </g>
     </g>
     <g id="text_9">
      <!-- 4000 -->
      <g transform="translate(1024.075 783.558437)scale(0.1 -0.1)">
       <use xlink:href="#DejaVuSans-34"/>
       <use x="63.623047" xlink:href="#DejaVuSans-30"/>
       <use x="127.246094" xlink:href="#DejaVuSans-30"/>
       <use x="190.869141" xlink:href="#DejaVuSans-30"/>
      </g>
     </g>
    </g>
   </g>
   <g id="matplotlib.axis_2">
    <g id="ytick_1">
     <g id="line2d_10">
      <defs>
       <path d="M 0 0 
L -3.5 0 
" id="m64b3030935" style="stroke:#000000;stroke-width:0.8;"/>
      </defs>
      <g>
       <use style="stroke:#000000;stroke-width:0.8;" x="144" xlink:href="#m64b3030935" y="768.96"/>
      </g>
     </g>
     <g id="text_10">
      <!-- −4000 -->
      <g transform="translate(103.170312 772.759219)scale(0.1 -0.1)">
       <use xlink:href="#DejaVuSans-2212"/>
       <use x="83.789062" xlink:href="#DejaVuSans-34"/>
       <use x="147.412109" xlink:href="#DejaVuSans-30"/>
       <use x="211.035156" xlink:href="#DejaVuSans-30"/>
       <use x="274.658203" xlink:href="#DejaVuSans-30"/>
      </g>
     </g>
    </g>
    <g id="ytick_2">
     <g id="line2d_11">
      <g>
       <use style="stroke:#000000;stroke-width:0.8;" x="144" xlink:href="#m64b3030935" y="685.8"/>
      </g>
     </g>
     <g id="text_11">
      <!-- −3000 -->
      <g transform="translate(103.170312 689.599219)scale(0.1 -0.1)">
       <use xlink:href="#DejaVuSans-2212"/>
       <use x="83.789062" xlink:href="#DejaVuSans-33"/>
       <use x="147.412109" xlink:href="#DejaVuSans-30"/>
       <use x="211.035156" xlink:href="#DejaVuSans-30"/>
       <use x="274.658203" xlink:href="#DejaVuSans-30"/>
      </g>
     </g>
    </g>
    <g id="ytick_3">
     <g id="line2d_12">
      <g>
       <use style="stroke:#000000;stroke-width:0.8;" x="144" xlink:href="#m64b3030935" y="602.64"/>
      </g>
     </g>
     <g id="text_12">
      <!-- −2000 -->
      <g transform="translate(103.170312 606.439219)scale(0.1 -0.1)">
       <use xlink:href="#DejaVuSans-2212"/>
       <use x="83.789062" xlink:href="#DejaVuSans-32"/>
       <use x="147.412109" xlink:href="#DejaVuSans-30"/>
       <use x="211.035156" xlink:href="#DejaVuSans-30"/>
       <use x="274.658203" xlink:href="#DejaVuSans-30"/>
      </g>
     </g>
    </g>
    <g id="ytick_4">
     <g id="line2d_13">
      <g>
       <use style="stroke:#000000;stroke-width:0.8;" x="144" xlink:href="#m64b3030935" y="519.48"/>
      </g>
     </g>
     <g id="text_13">
      <!-- −1000 -->
      <g transform="translate(103.170312 523.279219)scale(0.1 -0.1)">
       <use xlink:href="#DejaVuSans-2212"/>
       <use x="83.789062" xlink:href="#DejaVuSans-31"/>
       <use x="147.412109" xlink:href="#DejaVuSans-30"/>
       <use x="211.035156" xlink:href="#DejaVuSans-30"/>
       <use x="274.658203" xlink:href="#DejaVuSans-30"/>
      </g>
     </g>
    </g>
    <g id="ytick_5">
     <g id="line2d_14">
      <g>
       <use style="stroke:#000000;stroke-width:0.8;" x="144" xlink:href="#m64b3030935" y="436.32"/>
      </g>
     </g>
     <g id="text_14">
      <!-- 0 -->
      <g transform="translate(130.6375 440.119219)scale(0.1 -0.1)">
       <use xlink:href="#DejaVuSans-30"/>
      </g>
     </g>
    </g>
    <g id="ytick_6">
     <g id="line2d_15">
      <g>
       <use style="stroke:#000000;stroke-width:0.8;" x="144" xlink:href="#m64b3030935" y="353.16"/>
      </g>
     </g>
     <g id="text_15">
      <!-- 1000 -->
      <g transform="translate(111.55 356.959219)scale(0.1 -0.1)">
       <use xlink:href="#DejaVuSans-31"/>
       <use x="63.623047" xlink:href="#DejaVuSans-30"/>
       <use x="127.246094" xlink:href="#DejaVuSans-30"/>
       <use x="190.869141" xlink:href="#DejaVuSans-30"/>
      </g>
     </g>
    </g>
    <g id="ytick_7">
     <g id="line2d_16">
      <g>
       <use style="stroke:#000000;stroke-width:0.8;" x="144" xlink:href="#m64b3030935" y="270"/>
      </g>
     </g>
     <g id="text_16">
      <!-- 2000 -->
      <g transform="translate(111.55 273.799219)scale(0.1 -0.1)">
       <use xlink:href="#DejaVuSans-32"/>
       <use x="63.623047" xlink:href="#DejaVuSans-30"/>
       <use x="127.246094" xlink:href="#DejaVuSans-30"/>
       <use x="190.869141" xlink:href="#DejaVuSans-30"/>
      </g>
     </g>
    </g>
    <g id="ytick_8">
     <g id="line2d_17">
      <g>
       <use style="stroke:#000000;stroke-width:0.8;" x="144" xlink:href="#m64b3030935" y="186.84"/>
      </g>
     </g>
     <g id="text_17">
      <!-- 3000 -->
      <g transform="translate(111.55 190.639219)scale(0.1 -0.1)">
       <use xlink:href="#DejaVuSans-33"/>
       <use x="63.623047" xlink:href="#DejaVuSans-30"/>
       <use x="127.246094" xlink:href="#DejaVuSans-30"/>
       <use x="190.869141" xlink:href="#DejaVuSans-30"/>
      </g>
     </g>
    </g>
    <g id="ytick_9">
     <g id="line2d_18">
      <g>
       <use style="stroke:#000000;stroke-width:0.8;" x="144" xlink:href="#m64b3030935" y="103.68"/>
      </g>
     </g>
     <g id="text_18">
      <!-- 4000 -->
      <g transform="translate(111.55 107.479219)scale(0.1 -0.1)">
       <use xlink:href="#DejaVuSans-34"/>
       <use x="63.623047" xlink:href="#DejaVuSans-30"/>
       <use x="127.246094" xlink:href="#DejaVuSans-30"/>
       <use x="190.869141" xlink:href="#DejaVuSans-30"/>
      </g>
     </g>
    </g>
   </g>
   <g id="line2d_19">
    <path clip-path="url(#pf9f29db20e)" d="M 590.4 768.96 
L 590.4 103.68 
" style="fill:none;stroke:#1f77b4;stroke-linecap:square;stroke-width:1.5;"/>
   </g>
   <g id="line2d_20">
    <path clip-path="url(#pf9f29db20e)" d="M 144 436.32 
L 1036.8 436.32 
" style="fill:none;stroke:#1f77b4;stroke-linecap:square;stroke-width:1.5;"/>
   </g>
   <g id="line2d_21">
    <defs>
     <path d="M 0 3 
C 0.795609 3 1.55874 2.683901 2.12132 2.12132 
C 2.683901 1.55874 3 0.795609 3 0 
C 3 -0.795609 2.683901 -1.55874 2.12132 -2.12132 
C 1.55874 -2.683901 0.795609 -3 0 -3 
C -0.795609 -3 -1.55874 -2.683901 -2.12132 -2.12132 
C -2.683901 -1.55874 -3 -0.795609 -3 0 
C -3 0.795609 -2.683901 1.55874 -2.12132 2.12132 
C -1.55874 2.683901 -0.795609 3 0 3 
z
" id="m83eacb3256" style="stroke:#008000;"/>
    </defs>
    <g clip-path="url(#pf9f29db20e)">
     <use style="fill:#008000;stroke:#008000;" x="1409.155625" xlink:href="#m83eacb3256" y="488.691491"/>
    </g>
   </g>
   <g id="line2d_22">
    <g clip-path="url(#pf9f29db20e)">
     <use style="fill:#008000;stroke:#008000;" x="1362.665687" xlink:href="#m83eacb3256" y="346.622963"/>
    </g>
   </g>
   <g id="line2d_23">
    <g clip-path="url(#pf9f29db20e)">
     <use style="fill:#008000;stroke:#008000;" x="1259.701654" xlink:href="#m83eacb3256" y="327.178602"/>
    </g>
   </g>
   <g id="line2d_24">
    <g clip-path="url(#pf9f29db20e)">
     <use style="fill:#008000;stroke:#008000;" x="1319.386849" xlink:href="#m83eacb3256" y="282.798259"/>
    </g>
   </g>
   <g id="line2d_25">
    <g clip-path="url(#pf9f29db20e)">
     <use style="fill:#008000;stroke:#008000;" x="645.686395" xlink:href="#m83eacb3256" y="392.442158"/>
    </g>
   </g>
   <g id="line2d_26">
    <g clip-path="url(#pf9f29db20e)">
     <use style="fill:#008000;stroke:#008000;" x="645.686395" xlink:href="#m83eacb3256" y="392.442158"/>
    </g>
   </g>
   <g id="line2d_27">
    <g clip-path="url(#pf9f29db20e)">
     <use style="fill:#008000;stroke:#008000;" x="564.406091" xlink:href="#m83eacb3256" y="226.150607"/>
    </g>
   </g>
   <g id="line2d_28">
    <g clip-path="url(#pf9f29db20e)">
     <use style="fill:#008000;stroke:#008000;" x="576.293865" xlink:href="#m83eacb3256" y="395.306727"/>
    </g>
   </g>
   <g id="line2d_29">
    <g clip-path="url(#pf9f29db20e)">
     <use style="fill:#008000;stroke:#008000;" x="576.293865" xlink:href="#m83eacb3256" y="395.306727"/>
    </g>
   </g>
   <g id="line2d_30">
    <g clip-path="url(#pf9f29db20e)">
     <use style="fill:#008000;stroke:#008000;" x="466.480351" xlink:href="#m83eacb3256" y="246.600905"/>
    </g>
   </g>
   <g id="line2d_31">
    <g clip-path="url(#pf9f29db20e)">
     <use style="fill:#008000;stroke:#008000;" x="376.656741" xlink:href="#m83eacb3256" y="285.916597"/>
    </g>
   </g>
   <g id="line2d_32">
    <g clip-path="url(#pf9f29db20e)">
     <use style="fill:#008000;stroke:#008000;" x="531.98963" xlink:href="#m83eacb3256" y="654.049373"/>
    </g>
   </g>
   <g id="line2d_33">
    <g clip-path="url(#pf9f29db20e)">
     <use style="fill:#008000;stroke:#008000;" x="572.798524" xlink:href="#m83eacb3256" y="611.202897"/>
    </g>
   </g>
   <g id="line2d_34">
    <g clip-path="url(#pf9f29db20e)">
     <use style="fill:#008000;stroke:#008000;" x="572.798524" xlink:href="#m83eacb3256" y="611.202897"/>
    </g>
   </g>
   <g id="line2d_35">
    <defs>
     <path d="M 0 1.333333 
C 0.353604 1.333333 0.692773 1.192845 0.942809 0.942809 
C 1.192845 0.692773 1.333333 0.353604 1.333333 0 
C 1.333333 -0.353604 1.192845 -0.692773 0.942809 -0.942809 
C 0.692773 -1.192845 0.353604 -1.333333 0 -1.333333 
C -0.353604 -1.333333 -0.692773 -1.192845 -0.942809 -0.942809 
C -1.192845 -0.692773 -1.333333 -0.353604 -1.333333 0 
C -1.333333 0.353604 -1.192845 0.692773 -0.942809 0.942809 
C -0.692773 1.192845 -0.353604 1.333333 0 1.333333 
z
" id="m186d0c6672" style="stroke:#ff0000;"/>
    </defs>
    <g clip-path="url(#pf9f29db20e)">
     <use style="fill:#ff0000;stroke:#ff0000;" x="1156.315409" xlink:href="#m186d0c6672" y="497.345924"/>
     <use style="fill:#ff0000;stroke:#ff0000;" x="1409.155625" xlink:href="#m186d0c6672" y="488.691491"/>
     <use style="fill:#ff0000;stroke:#ff0000;" x="1362.665687" xlink:href="#m186d0c6672" y="346.622963"/>
     <use style="fill:#ff0000;stroke:#ff0000;" x="1259.701654" xlink:href="#m186d0c6672" y="327.178602"/>
     <use style="fill:#ff0000;stroke:#ff0000;" x="1319.386849" xlink:href="#m186d0c6672" y="282.798259"/>
     <use style="fill:#ff0000;stroke:#ff0000;" x="648.912957" xlink:href="#m186d0c6672" y="397.532082"/>
     <use style="fill:#ff0000;stroke:#ff0000;" x="641.692495" xlink:href="#m186d0c6672" y="387.481529"/>
     <use style="fill:#ff0000;stroke:#ff0000;" x="772.822834" xlink:href="#m186d0c6672" y="194.674788"/>
     <use style="fill:#ff0000;stroke:#ff0000;" x="746.34037" xlink:href="#m186d0c6672" y="197.080467"/>
     <use style="fill:#ff0000;stroke:#ff0000;" x="720.495704" xlink:href="#m186d0c6672" y="201.556629"/>
     <use style="fill:#ff0000;stroke:#ff0000;" x="697.217294" xlink:href="#m186d0c6672" y="204.951154"/>
     <use style="fill:#ff0000;stroke:#ff0000;" x="564.406091" xlink:href="#m186d0c6672" y="226.150607"/>
     <use style="fill:#ff0000;stroke:#ff0000;" x="579.309156" xlink:href="#m186d0c6672" y="393.30215"/>
     <use style="fill:#ff0000;stroke:#ff0000;" x="573.563836" xlink:href="#m186d0c6672" y="397.419871"/>
     <use style="fill:#ff0000;stroke:#ff0000;" x="466.480351" xlink:href="#m186d0c6672" y="246.600905"/>
     <use style="fill:#ff0000;stroke:#ff0000;" x="376.656741" xlink:href="#m186d0c6672" y="285.916597"/>
     <use style="fill:#ff0000;stroke:#ff0000;" x="419.074744" xlink:href="#m186d0c6672" y="342.765709"/>
     <use style="fill:#ff0000;stroke:#ff0000;" x="405.318475" xlink:href="#m186d0c6672" y="358.836338"/>
     <use style="fill:#ff0000;stroke:#ff0000;" x="454.779965" xlink:href="#m186d0c6672" y="395.361305"/>
     <use style="fill:#ff0000;stroke:#ff0000;" x="446.341599" xlink:href="#m186d0c6672" y="414.083452"/>
     <use style="fill:#ff0000;stroke:#ff0000;" x="422.177043" xlink:href="#m186d0c6672" y="417.935175"/>
     <use style="fill:#ff0000;stroke:#ff0000;" x="417.669447" xlink:href="#m186d0c6672" y="440.287645"/>
     <use style="fill:#ff0000;stroke:#ff0000;" x="395.181295" xlink:href="#m186d0c6672" y="449.326792"/>
     <use style="fill:#ff0000;stroke:#ff0000;" x="443.203301" xlink:href="#m186d0c6672" y="516.423071"/>
     <use style="fill:#ff0000;stroke:#ff0000;" x="466.723632" xlink:href="#m186d0c6672" y="512.882705"/>
     <use style="fill:#ff0000;stroke:#ff0000;" x="457.686734" xlink:href="#m186d0c6672" y="528.690394"/>
     <use style="fill:#ff0000;stroke:#ff0000;" x="457.003049" xlink:href="#m186d0c6672" y="540.611481"/>
     <use style="fill:#ff0000;stroke:#ff0000;" x="473.042194" xlink:href="#m186d0c6672" y="540.078879"/>
     <use style="fill:#ff0000;stroke:#ff0000;" x="462.952407" xlink:href="#m186d0c6672" y="580.143152"/>
     <use style="fill:#ff0000;stroke:#ff0000;" x="471.838622" xlink:href="#m186d0c6672" y="589.053391"/>
     <use style="fill:#ff0000;stroke:#ff0000;" x="473.615905" xlink:href="#m186d0c6672" y="609.557746"/>
     <use style="fill:#ff0000;stroke:#ff0000;" x="478.460274" xlink:href="#m186d0c6672" y="630.469366"/>
     <use style="fill:#ff0000;stroke:#ff0000;" x="502.823986" xlink:href="#m186d0c6672" y="617.923562"/>
     <use style="fill:#ff0000;stroke:#ff0000;" x="522.312934" xlink:href="#m186d0c6672" y="655.535534"/>
     <use style="fill:#ff0000;stroke:#ff0000;" x="541.483612" xlink:href="#m186d0c6672" y="652.330395"/>
     <use style="fill:#ff0000;stroke:#ff0000;" x="565.952287" xlink:href="#m186d0c6672" y="609.647832"/>
     <use style="fill:#ff0000;stroke:#ff0000;" x="579.747676" xlink:href="#m186d0c6672" y="612.606904"/>
     <use style="fill:#ff0000;stroke:#ff0000;" x="593.610093" xlink:href="#m186d0c6672" y="547.333622"/>
     <use style="fill:#ff0000;stroke:#ff0000;" x="634.396367" xlink:href="#m186d0c6672" y="558.806611"/>
     <use style="fill:#ff0000;stroke:#ff0000;" x="666.735354" xlink:href="#m186d0c6672" y="610.576425"/>
     <use style="fill:#ff0000;stroke:#ff0000;" x="672.681555" xlink:href="#m186d0c6672" y="591.105035"/>
     <use style="fill:#ff0000;stroke:#ff0000;" x="691.732547" xlink:href="#m186d0c6672" y="598.134545"/>
     <use style="fill:#ff0000;stroke:#ff0000;" x="746.078311" xlink:href="#m186d0c6672" y="600.8444"/>
     <use style="fill:#ff0000;stroke:#ff0000;" x="790.39602" xlink:href="#m186d0c6672" y="583.090575"/>
     <use style="fill:#ff0000;stroke:#ff0000;" x="813.195005" xlink:href="#m186d0c6672" y="581.274532"/>
     <use style="fill:#ff0000;stroke:#ff0000;" x="852.346296" xlink:href="#m186d0c6672" y="568.910266"/>
     <use style="fill:#ff0000;stroke:#ff0000;" x="894.767058" xlink:href="#m186d0c6672" y="553.444194"/>
     <use style="fill:#ff0000;stroke:#ff0000;" x="941.045806" xlink:href="#m186d0c6672" y="552.22613"/>
     <use style="fill:#ff0000;stroke:#ff0000;" x="1056.361574" xlink:href="#m186d0c6672" y="543.096293"/>
     <use style="fill:#ff0000;stroke:#ff0000;" x="1085.695575" xlink:href="#m186d0c6672" y="525.992298"/>
     <use style="fill:#ff0000;stroke:#ff0000;" x="1107.815741" xlink:href="#m186d0c6672" y="506.257464"/>
    </g>
   </g>
   <g id="line2d_36">
    <defs>
     <path d="M -0.5 0.5 
L 0.5 0.5 
L 0.5 -0.5 
L -0.5 -0.5 
z
" id="mbf7c57b427" style="stroke:#1f77b4;stroke-linejoin:miter;"/>
    </defs>
    <g clip-path="url(#pf9f29db20e)">
     <use style="fill:#1f77b4;stroke:#1f77b4;stroke-linejoin:miter;" x="1156.315409" xlink:href="#mbf7c57b427" y="497.345924"/>
     <use style="fill:#1f77b4;stroke:#1f77b4;stroke-linejoin:miter;" x="1409.155625" xlink:href="#mbf7c57b427" y="488.691491"/>
     <use style="fill:#1f77b4;stroke:#1f77b4;stroke-linejoin:miter;" x="1362.665687" xlink:href="#mbf7c57b427" y="346.622963"/>
     <use style="fill:#1f77b4;stroke:#1f77b4;stroke-linejoin:miter;" x="1259.701654" xlink:href="#mbf7c57b427" y="327.178602"/>
     <use style="fill:#1f77b4;stroke:#1f77b4;stroke-linejoin:miter;" x="1319.386849" xlink:href="#mbf7c57b427" y="282.798259"/>
     <use style="fill:#1f77b4;stroke:#1f77b4;stroke-linejoin:miter;" x="648.912957" xlink:href="#mbf7c57b427" y="397.532082"/>
     <use style="fill:#1f77b4;stroke:#1f77b4;stroke-linejoin:miter;" x="645.592704" xlink:href="#mbf7c57b427" y="395.035212"/>
     <use style="fill:#1f77b4;stroke:#1f77b4;stroke-linejoin:miter;" x="642.554511" xlink:href="#mbf7c57b427" y="392.368632"/>
     <use style="fill:#1f77b4;stroke:#1f77b4;stroke-linejoin:miter;" x="641.692495" xlink:href="#mbf7c57b427" y="387.481529"/>
     <use style="fill:#1f77b4;stroke:#1f77b4;stroke-linejoin:miter;" x="772.822834" xlink:href="#mbf7c57b427" y="194.674788"/>
     <use style="fill:#1f77b4;stroke:#1f77b4;stroke-linejoin:miter;" x="746.34037" xlink:href="#mbf7c57b427" y="197.080467"/>
     <use style="fill:#1f77b4;stroke:#1f77b4;stroke-linejoin:miter;" x="720.495704" xlink:href="#mbf7c57b427" y="201.556629"/>
     <use style="fill:#1f77b4;stroke:#1f77b4;stroke-linejoin:miter;" x="697.217294" xlink:href="#mbf7c57b427" y="204.951154"/>
     <use style="fill:#1f77b4;stroke:#1f77b4;stroke-linejoin:miter;" x="674.982283" xlink:href="#mbf7c57b427" y="209.530786"/>
     <use style="fill:#1f77b4;stroke:#1f77b4;stroke-linejoin:miter;" x="654.997317" xlink:href="#mbf7c57b427" y="211.668766"/>
     <use style="fill:#1f77b4;stroke:#1f77b4;stroke-linejoin:miter;" x="635.602159" xlink:href="#mbf7c57b427" y="214.665279"/>
     <use style="fill:#1f77b4;stroke:#1f77b4;stroke-linejoin:miter;" x="616.282608" xlink:href="#mbf7c57b427" y="218.607346"/>
     <use style="fill:#1f77b4;stroke:#1f77b4;stroke-linejoin:miter;" x="598.653078" xlink:href="#mbf7c57b427" y="221.605775"/>
     <use style="fill:#1f77b4;stroke:#1f77b4;stroke-linejoin:miter;" x="581.349095" xlink:href="#mbf7c57b427" y="225.014095"/>
     <use style="fill:#1f77b4;stroke:#1f77b4;stroke-linejoin:miter;" x="564.406091" xlink:href="#mbf7c57b427" y="226.150607"/>
     <use style="fill:#1f77b4;stroke:#1f77b4;stroke-linejoin:miter;" x="579.309156" xlink:href="#mbf7c57b427" y="393.30215"/>
     <use style="fill:#1f77b4;stroke:#1f77b4;stroke-linejoin:miter;" x="576.5424" xlink:href="#mbf7c57b427" y="396.880204"/>
     <use style="fill:#1f77b4;stroke:#1f77b4;stroke-linejoin:miter;" x="573.563836" xlink:href="#mbf7c57b427" y="397.419871"/>
     <use style="fill:#1f77b4;stroke:#1f77b4;stroke-linejoin:miter;" x="466.480351" xlink:href="#mbf7c57b427" y="246.600905"/>
     <use style="fill:#1f77b4;stroke:#1f77b4;stroke-linejoin:miter;" x="449.109895" xlink:href="#mbf7c57b427" y="249.518796"/>
     <use style="fill:#1f77b4;stroke:#1f77b4;stroke-linejoin:miter;" x="431.191077" xlink:href="#mbf7c57b427" y="252.210404"/>
     <use style="fill:#1f77b4;stroke:#1f77b4;stroke-linejoin:miter;" x="398.654108" xlink:href="#mbf7c57b427" y="264.141844"/>
     <use style="fill:#1f77b4;stroke:#1f77b4;stroke-linejoin:miter;" x="388.896515" xlink:href="#mbf7c57b427" y="276.353803"/>
     <use style="fill:#1f77b4;stroke:#1f77b4;stroke-linejoin:miter;" x="376.656741" xlink:href="#mbf7c57b427" y="285.916597"/>
     <use style="fill:#1f77b4;stroke:#1f77b4;stroke-linejoin:miter;" x="419.074744" xlink:href="#mbf7c57b427" y="342.765709"/>
     <use style="fill:#1f77b4;stroke:#1f77b4;stroke-linejoin:miter;" x="419.611382" xlink:href="#mbf7c57b427" y="354.362193"/>
     <use style="fill:#1f77b4;stroke:#1f77b4;stroke-linejoin:miter;" x="405.318475" xlink:href="#mbf7c57b427" y="358.836338"/>
     <use style="fill:#1f77b4;stroke:#1f77b4;stroke-linejoin:miter;" x="454.779965" xlink:href="#mbf7c57b427" y="395.361305"/>
     <use style="fill:#1f77b4;stroke:#1f77b4;stroke-linejoin:miter;" x="456.568388" xlink:href="#mbf7c57b427" y="402.770557"/>
     <use style="fill:#1f77b4;stroke:#1f77b4;stroke-linejoin:miter;" x="458.575546" xlink:href="#mbf7c57b427" y="409.884342"/>
     <use style="fill:#1f77b4;stroke:#1f77b4;stroke-linejoin:miter;" x="446.341599" xlink:href="#mbf7c57b427" y="414.083452"/>
     <use style="fill:#1f77b4;stroke:#1f77b4;stroke-linejoin:miter;" x="422.177043" xlink:href="#mbf7c57b427" y="417.935175"/>
     <use style="fill:#1f77b4;stroke:#1f77b4;stroke-linejoin:miter;" x="417.867323" xlink:href="#mbf7c57b427" y="425.213351"/>
     <use style="fill:#1f77b4;stroke:#1f77b4;stroke-linejoin:miter;" x="420.182243" xlink:href="#mbf7c57b427" y="433.067813"/>
     <use style="fill:#1f77b4;stroke:#1f77b4;stroke-linejoin:miter;" x="417.669447" xlink:href="#mbf7c57b427" y="440.287645"/>
     <use style="fill:#1f77b4;stroke:#1f77b4;stroke-linejoin:miter;" x="395.181295" xlink:href="#mbf7c57b427" y="449.326792"/>
     <use style="fill:#1f77b4;stroke:#1f77b4;stroke-linejoin:miter;" x="399.042504" xlink:href="#mbf7c57b427" y="457.789591"/>
     <use style="fill:#1f77b4;stroke:#1f77b4;stroke-linejoin:miter;" x="401.130681" xlink:href="#mbf7c57b427" y="466.257966"/>
     <use style="fill:#1f77b4;stroke:#1f77b4;stroke-linejoin:miter;" x="403.905949" xlink:href="#mbf7c57b427" y="474.573743"/>
     <use style="fill:#1f77b4;stroke:#1f77b4;stroke-linejoin:miter;" x="404.890139" xlink:href="#mbf7c57b427" y="483.454686"/>
     <use style="fill:#1f77b4;stroke:#1f77b4;stroke-linejoin:miter;" x="408.155246" xlink:href="#mbf7c57b427" y="491.791511"/>
     <use style="fill:#1f77b4;stroke:#1f77b4;stroke-linejoin:miter;" x="408.842035" xlink:href="#mbf7c57b427" y="501.485201"/>
     <use style="fill:#1f77b4;stroke:#1f77b4;stroke-linejoin:miter;" x="413.004365" xlink:href="#mbf7c57b427" y="510.159735"/>
     <use style="fill:#1f77b4;stroke:#1f77b4;stroke-linejoin:miter;" x="431.934603" xlink:href="#mbf7c57b427" y="511.95479"/>
     <use style="fill:#1f77b4;stroke:#1f77b4;stroke-linejoin:miter;" x="443.203301" xlink:href="#mbf7c57b427" y="516.423071"/>
     <use style="fill:#1f77b4;stroke:#1f77b4;stroke-linejoin:miter;" x="466.723632" xlink:href="#mbf7c57b427" y="512.882705"/>
     <use style="fill:#1f77b4;stroke:#1f77b4;stroke-linejoin:miter;" x="457.686734" xlink:href="#mbf7c57b427" y="528.690394"/>
     <use style="fill:#1f77b4;stroke:#1f77b4;stroke-linejoin:miter;" x="457.003049" xlink:href="#mbf7c57b427" y="540.611481"/>
     <use style="fill:#1f77b4;stroke:#1f77b4;stroke-linejoin:miter;" x="473.042194" xlink:href="#mbf7c57b427" y="540.078879"/>
     <use style="fill:#1f77b4;stroke:#1f77b4;stroke-linejoin:miter;" x="462.952407" xlink:href="#mbf7c57b427" y="580.143152"/>
     <use style="fill:#1f77b4;stroke:#1f77b4;stroke-linejoin:miter;" x="471.838622" xlink:href="#mbf7c57b427" y="589.053391"/>
     <use style="fill:#1f77b4;stroke:#1f77b4;stroke-linejoin:miter;" x="473.615905" xlink:href="#mbf7c57b427" y="609.557746"/>
     <use style="fill:#1f77b4;stroke:#1f77b4;stroke-linejoin:miter;" x="478.460274" xlink:href="#mbf7c57b427" y="630.469366"/>
     <use style="fill:#1f77b4;stroke:#1f77b4;stroke-linejoin:miter;" x="502.823986" xlink:href="#mbf7c57b427" y="617.923562"/>
     <use style="fill:#1f77b4;stroke:#1f77b4;stroke-linejoin:miter;" x="522.312934" xlink:href="#mbf7c57b427" y="655.535534"/>
     <use style="fill:#1f77b4;stroke:#1f77b4;stroke-linejoin:miter;" x="541.483612" xlink:href="#mbf7c57b427" y="652.330395"/>
     <use style="fill:#1f77b4;stroke:#1f77b4;stroke-linejoin:miter;" x="565.952287" xlink:href="#mbf7c57b427" y="609.647832"/>
     <use style="fill:#1f77b4;stroke:#1f77b4;stroke-linejoin:miter;" x="579.747676" xlink:href="#mbf7c57b427" y="612.606904"/>
     <use style="fill:#1f77b4;stroke:#1f77b4;stroke-linejoin:miter;" x="593.610093" xlink:href="#mbf7c57b427" y="547.333622"/>
     <use style="fill:#1f77b4;stroke:#1f77b4;stroke-linejoin:miter;" x="603.28021" xlink:href="#mbf7c57b427" y="554.162522"/>
     <use style="fill:#1f77b4;stroke:#1f77b4;stroke-linejoin:miter;" x="612.588365" xlink:href="#mbf7c57b427" y="552.131041"/>
     <use style="fill:#1f77b4;stroke:#1f77b4;stroke-linejoin:miter;" x="622.904365" xlink:href="#mbf7c57b427" y="555.038522"/>
     <use style="fill:#1f77b4;stroke:#1f77b4;stroke-linejoin:miter;" x="634.396367" xlink:href="#mbf7c57b427" y="558.806611"/>
     <use style="fill:#1f77b4;stroke:#1f77b4;stroke-linejoin:miter;" x="666.735354" xlink:href="#mbf7c57b427" y="610.576425"/>
     <use style="fill:#1f77b4;stroke:#1f77b4;stroke-linejoin:miter;" x="672.681555" xlink:href="#mbf7c57b427" y="591.105035"/>
     <use style="fill:#1f77b4;stroke:#1f77b4;stroke-linejoin:miter;" x="691.732547" xlink:href="#mbf7c57b427" y="598.134545"/>
     <use style="fill:#1f77b4;stroke:#1f77b4;stroke-linejoin:miter;" x="746.078311" xlink:href="#mbf7c57b427" y="600.8444"/>
     <use style="fill:#1f77b4;stroke:#1f77b4;stroke-linejoin:miter;" x="757.046685" xlink:href="#mbf7c57b427" y="591.823727"/>
     <use style="fill:#1f77b4;stroke:#1f77b4;stroke-linejoin:miter;" x="772.362364" xlink:href="#mbf7c57b427" y="586.744333"/>
     <use style="fill:#1f77b4;stroke:#1f77b4;stroke-linejoin:miter;" x="790.39602" xlink:href="#mbf7c57b427" y="583.090575"/>
     <use style="fill:#1f77b4;stroke:#1f77b4;stroke-linejoin:miter;" x="813.195005" xlink:href="#mbf7c57b427" y="581.274532"/>
     <use style="fill:#1f77b4;stroke:#1f77b4;stroke-linejoin:miter;" x="833.599288" xlink:href="#mbf7c57b427" y="576.55857"/>
     <use style="fill:#1f77b4;stroke:#1f77b4;stroke-linejoin:miter;" x="852.346296" xlink:href="#mbf7c57b427" y="568.910266"/>
     <use style="fill:#1f77b4;stroke:#1f77b4;stroke-linejoin:miter;" x="894.767058" xlink:href="#mbf7c57b427" y="553.444194"/>
     <use style="fill:#1f77b4;stroke:#1f77b4;stroke-linejoin:miter;" x="941.045806" xlink:href="#mbf7c57b427" y="552.22613"/>
     <use style="fill:#1f77b4;stroke:#1f77b4;stroke-linejoin:miter;" x="1056.361574" xlink:href="#mbf7c57b427" y="543.096293"/>
     <use style="fill:#1f77b4;stroke:#1f77b4;stroke-linejoin:miter;" x="1085.695575" xlink:href="#mbf7c57b427" y="525.992298"/>
     <use style="fill:#1f77b4;stroke:#1f77b4;stroke-linejoin:miter;" x="1107.815741" xlink:href="#mbf7c57b427" y="506.257464"/>
    </g>
   </g>
   <g id="patch_3">
    <path d="M 144 768.96 
L 144 103.68 
" style="fill:none;stroke:#000000;stroke-linecap:square;stroke-linejoin:miter;stroke-width:0.8;"/>
   </g>
   <g id="patch_4">
    <path d="M 1036.8 768.96 
L 1036.8 103.68 
" style="fill:none;stroke:#000000;stroke-linecap:square;stroke-linejoin:miter;stroke-width:0.8;"/>
   </g>
   <g id="patch_5">
    <path d="M 144 768.96 
L 1036.8 768.96 
" style="fill:none;stroke:#000000;stroke-linecap:square;stroke-linejoin:miter;stroke-width:0.8;"/>
   </g>
   <g id="patch_6">
    <path d="M 144 103.68 
L 1036.8 103.68 
" style="fill:none;stroke:#000000;stroke-linecap:square;stroke-linejoin:miter;stroke-width:0.8;"/>
   </g>
  </g>
 </g>
 <defs>
  <clipPath id="pf9f29db20e">
   <rect height="665.28" width="892.8" x="144" y="103.68"/>
  </clipPath>
 </defs>
</svg>
