<?xml version="1.0" encoding="utf-8" standalone="no"?>
<!DOCTYPE svg PUBLIC "-//W3C//DTD SVG 1.1//EN"
  "http://www.w3.org/Graphics/SVG/1.1/DTD/svg11.dtd">
<!-- Created with matplotlib (http://matplotlib.org/) -->
<svg height="864pt" version="1.1" viewBox="0 0 1152 864" width="1152pt" xmlns="http://www.w3.org/2000/svg" xmlns:xlink="http://www.w3.org/1999/xlink">
 <defs>
  <style type="text/css">
*{stroke-linecap:butt;stroke-linejoin:round;}
  </style>
 </defs>
 <g id="figure_1">
  <g id="patch_1">
   <path d="M 0 864 
L 1152 864 
L 1152 0 
L 0 0 
z
" style="fill:#ffffff;"/>
  </g>
  <g id="axes_1">
   <g id="patch_2">
    <path d="M 144 768.96 
L 1036.8 768.96 
L 1036.8 103.68 
L 144 103.68 
z
" style="fill:#ffffff;"/>
   </g>
   <g id="matplotlib.axis_1">
    <g id="xtick_1">
     <g id="line2d_1">
      <defs>
       <path d="M 0 0 
L 0 3.5 
" id="m663c90685d" style="stroke:#000000;stroke-width:0.8;"/>
      </defs>
      <g>
       <use style="stroke:#000000;stroke-width:0.8;" x="144" xlink:href="#m663c90685d" y="768.96"/>
      </g>
     </g>
     <g id="text_1">
      <!-- −4000 -->
      <defs>
       <path d="M 10.59375 35.5 
L 73.1875 35.5 
L 73.1875 27.203125 
L 10.59375 27.203125 
z
" id="DejaVuSans-2212"/>
       <path d="M 37.796875 64.3125 
L 12.890625 25.390625 
L 37.796875 25.390625 
z
M 35.203125 72.90625 
L 47.609375 72.90625 
L 47.609375 25.390625 
L 58.015625 25.390625 
L 58.015625 17.1875 
L 47.609375 17.1875 
L 47.609375 0 
L 37.796875 0 
L 37.796875 17.1875 
L 4.890625 17.1875 
L 4.890625 26.703125 
z
" id="DejaVuSans-34"/>
       <path d="M 31.78125 66.40625 
Q 24.171875 66.40625 20.328125 58.90625 
Q 16.5 51.421875 16.5 36.375 
Q 16.5 21.390625 20.328125 13.890625 
Q 24.171875 6.390625 31.78125 6.390625 
Q 39.453125 6.390625 43.28125 13.890625 
Q 47.125 21.390625 47.125 36.375 
Q 47.125 51.421875 43.28125 58.90625 
Q 39.453125 66.40625 31.78125 66.40625 
z
M 31.78125 74.21875 
Q 44.046875 74.21875 50.515625 64.515625 
Q 56.984375 54.828125 56.984375 36.375 
Q 56.984375 17.96875 50.515625 8.265625 
Q 44.046875 -1.421875 31.78125 -1.421875 
Q 19.53125 -1.421875 13.0625 8.265625 
Q 6.59375 17.96875 6.59375 36.375 
Q 6.59375 54.828125 13.0625 64.515625 
Q 19.53125 74.21875 31.78125 74.21875 
z
" id="DejaVuSans-30"/>
      </defs>
      <g transform="translate(127.085156 783.558437)scale(0.1 -0.1)">
       <use xlink:href="#DejaVuSans-2212"/>
       <use x="83.789062" xlink:href="#DejaVuSans-34"/>
       <use x="147.412109" xlink:href="#DejaVuSans-30"/>
       <use x="211.035156" xlink:href="#DejaVuSans-30"/>
       <use x="274.658203" xlink:href="#DejaVuSans-30"/>
      </g>
     </g>
    </g>
    <g id="xtick_2">
     <g id="line2d_2">
      <g>
       <use style="stroke:#000000;stroke-width:0.8;" x="255.6" xlink:href="#m663c90685d" y="768.96"/>
      </g>
     </g>
     <g id="text_2">
      <!-- −3000 -->
      <defs>
       <path d="M 40.578125 39.3125 
Q 47.65625 37.796875 51.625 33 
Q 55.609375 28.21875 55.609375 21.1875 
Q 55.609375 10.40625 48.1875 4.484375 
Q 40.765625 -1.421875 27.09375 -1.421875 
Q 22.515625 -1.421875 17.65625 -0.515625 
Q 12.796875 0.390625 7.625 2.203125 
L 7.625 11.71875 
Q 11.71875 9.328125 16.59375 8.109375 
Q 21.484375 6.890625 26.8125 6.890625 
Q 36.078125 6.890625 40.9375 10.546875 
Q 45.796875 14.203125 45.796875 21.1875 
Q 45.796875 27.640625 41.28125 31.265625 
Q 36.765625 34.90625 28.71875 34.90625 
L 20.21875 34.90625 
L 20.21875 43.015625 
L 29.109375 43.015625 
Q 36.375 43.015625 40.234375 45.921875 
Q 44.09375 48.828125 44.09375 54.296875 
Q 44.09375 59.90625 40.109375 62.90625 
Q 36.140625 65.921875 28.71875 65.921875 
Q 24.65625 65.921875 20.015625 65.03125 
Q 15.375 64.15625 9.8125 62.3125 
L 9.8125 71.09375 
Q 15.4375 72.65625 20.34375 73.4375 
Q 25.25 74.21875 29.59375 74.21875 
Q 40.828125 74.21875 47.359375 69.109375 
Q 53.90625 64.015625 53.90625 55.328125 
Q 53.90625 49.265625 50.4375 45.09375 
Q 46.96875 40.921875 40.578125 39.3125 
z
" id="DejaVuSans-33"/>
      </defs>
      <g transform="translate(238.685156 783.558437)scale(0.1 -0.1)">
       <use xlink:href="#DejaVuSans-2212"/>
       <use x="83.789062" xlink:href="#DejaVuSans-33"/>
       <use x="147.412109" xlink:href="#DejaVuSans-30"/>
       <use x="211.035156" xlink:href="#DejaVuSans-30"/>
       <use x="274.658203" xlink:href="#DejaVuSans-30"/>
      </g>
     </g>
    </g>
    <g id="xtick_3">
     <g id="line2d_3">
      <g>
       <use style="stroke:#000000;stroke-width:0.8;" x="367.2" xlink:href="#m663c90685d" y="768.96"/>
      </g>
     </g>
     <g id="text_3">
      <!-- −2000 -->
      <defs>
       <path d="M 19.1875 8.296875 
L 53.609375 8.296875 
L 53.609375 0 
L 7.328125 0 
L 7.328125 8.296875 
Q 12.9375 14.109375 22.625 23.890625 
Q 32.328125 33.6875 34.8125 36.53125 
Q 39.546875 41.84375 41.421875 45.53125 
Q 43.3125 49.21875 43.3125 52.78125 
Q 43.3125 58.59375 39.234375 62.25 
Q 35.15625 65.921875 28.609375 65.921875 
Q 23.96875 65.921875 18.8125 64.3125 
Q 13.671875 62.703125 7.8125 59.421875 
L 7.8125 69.390625 
Q 13.765625 71.78125 18.9375 73 
Q 24.125 74.21875 28.421875 74.21875 
Q 39.75 74.21875 46.484375 68.546875 
Q 53.21875 62.890625 53.21875 53.421875 
Q 53.21875 48.921875 51.53125 44.890625 
Q 49.859375 40.875 45.40625 35.40625 
Q 44.1875 33.984375 37.640625 27.21875 
Q 31.109375 20.453125 19.1875 8.296875 
z
" id="DejaVuSans-32"/>
      </defs>
      <g transform="translate(350.285156 783.558437)scale(0.1 -0.1)">
       <use xlink:href="#DejaVuSans-2212"/>
       <use x="83.789062" xlink:href="#DejaVuSans-32"/>
       <use x="147.412109" xlink:href="#DejaVuSans-30"/>
       <use x="211.035156" xlink:href="#DejaVuSans-30"/>
       <use x="274.658203" xlink:href="#DejaVuSans-30"/>
      </g>
     </g>
    </g>
    <g id="xtick_4">
     <g id="line2d_4">
      <g>
       <use style="stroke:#000000;stroke-width:0.8;" x="478.8" xlink:href="#m663c90685d" y="768.96"/>
      </g>
     </g>
     <g id="text_4">
      <!-- −1000 -->
      <defs>
       <path d="M 12.40625 8.296875 
L 28.515625 8.296875 
L 28.515625 63.921875 
L 10.984375 60.40625 
L 10.984375 69.390625 
L 28.421875 72.90625 
L 38.28125 72.90625 
L 38.28125 8.296875 
L 54.390625 8.296875 
L 54.390625 0 
L 12.40625 0 
z
" id="DejaVuSans-31"/>
      </defs>
      <g transform="translate(461.885156 783.558437)scale(0.1 -0.1)">
       <use xlink:href="#DejaVuSans-2212"/>
       <use x="83.789062" xlink:href="#DejaVuSans-31"/>
       <use x="147.412109" xlink:href="#DejaVuSans-30"/>
       <use x="211.035156" xlink:href="#DejaVuSans-30"/>
       <use x="274.658203" xlink:href="#DejaVuSans-30"/>
      </g>
     </g>
    </g>
    <g id="xtick_5">
     <g id="line2d_5">
      <g>
       <use style="stroke:#000000;stroke-width:0.8;" x="590.4" xlink:href="#m663c90685d" y="768.96"/>
      </g>
     </g>
     <g id="text_5">
      <!-- 0 -->
      <g transform="translate(587.21875 783.558437)scale(0.1 -0.1)">
       <use xlink:href="#DejaVuSans-30"/>
      </g>
     </g>
    </g>
    <g id="xtick_6">
     <g id="line2d_6">
      <g>
       <use style="stroke:#000000;stroke-width:0.8;" x="702" xlink:href="#m663c90685d" y="768.96"/>
      </g>
     </g>
     <g id="text_6">
      <!-- 1000 -->
      <g transform="translate(689.275 783.558437)scale(0.1 -0.1)">
       <use xlink:href="#DejaVuSans-31"/>
       <use x="63.623047" xlink:href="#DejaVuSans-30"/>
       <use x="127.246094" xlink:href="#DejaVuSans-30"/>
       <use x="190.869141" xlink:href="#DejaVuSans-30"/>
      </g>
     </g>
    </g>
    <g id="xtick_7">
     <g id="line2d_7">
      <g>
       <use style="stroke:#000000;stroke-width:0.8;" x="813.6" xlink:href="#m663c90685d" y="768.96"/>
      </g>
     </g>
     <g id="text_7">
      <!-- 2000 -->
      <g transform="translate(800.875 783.558437)scale(0.1 -0.1)">
       <use xlink:href="#DejaVuSans-32"/>
       <use x="63.623047" xlink:href="#DejaVuSans-30"/>
       <use x="127.246094" xlink:href="#DejaVuSans-30"/>
       <use x="190.869141" xlink:href="#DejaVuSans-30"/>
      </g>
     </g>
    </g>
    <g id="xtick_8">
     <g id="line2d_8">
      <g>
       <use style="stroke:#000000;stroke-width:0.8;" x="925.2" xlink:href="#m663c90685d" y="768.96"/>
      </g>
     </g>
     <g id="text_8">
      <!-- 3000 -->
      <g transform="translate(912.475 783.558437)scale(0.1 -0.1)">
       <use xlink:href="#DejaVuSans-33"/>
       <use x="63.623047" xlink:href="#DejaVuSans-30"/>
       <use x="127.246094" xlink:href="#DejaVuSans-30"/>
       <use x="190.869141" xlink:href="#DejaVuSans-30"/>
      </g>
     </g>
    </g>
    <g id="xtick_9">
     <g id="line2d_9">
      <g>
       <use style="stroke:#000000;stroke-width:0.8;" x="1036.8" xlink:href="#m663c90685d" y="768.96"/>
      </g>
     </g>
     <g id="text_9">
      <!-- 4000 -->
      <g transform="translate(1024.075 783.558437)scale(0.1 -0.1)">
       <use xlink:href="#DejaVuSans-34"/>
       <use x="63.623047" xlink:href="#DejaVuSans-30"/>
       <use x="127.246094" xlink:href="#DejaVuSans-30"/>
       <use x="190.869141" xlink:href="#DejaVuSans-30"/>
      </g>
     </g>
    </g>
   </g>
   <g id="matplotlib.axis_2">
    <g id="ytick_1">
     <g id="line2d_10">
      <defs>
       <path d="M 0 0 
L -3.5 0 
" id="m5e25546ef5" style="stroke:#000000;stroke-width:0.8;"/>
      </defs>
      <g>
       <use style="stroke:#000000;stroke-width:0.8;" x="144" xlink:href="#m5e25546ef5" y="768.96"/>
      </g>
     </g>
     <g id="text_10">
      <!-- −4000 -->
      <g transform="translate(103.170312 772.759219)scale(0.1 -0.1)">
       <use xlink:href="#DejaVuSans-2212"/>
       <use x="83.789062" xlink:href="#DejaVuSans-34"/>
       <use x="147.412109" xlink:href="#DejaVuSans-30"/>
       <use x="211.035156" xlink:href="#DejaVuSans-30"/>
       <use x="274.658203" xlink:href="#DejaVuSans-30"/>
      </g>
     </g>
    </g>
    <g id="ytick_2">
     <g id="line2d_11">
      <g>
       <use style="stroke:#000000;stroke-width:0.8;" x="144" xlink:href="#m5e25546ef5" y="685.8"/>
      </g>
     </g>
     <g id="text_11">
      <!-- −3000 -->
      <g transform="translate(103.170312 689.599219)scale(0.1 -0.1)">
       <use xlink:href="#DejaVuSans-2212"/>
       <use x="83.789062" xlink:href="#DejaVuSans-33"/>
       <use x="147.412109" xlink:href="#DejaVuSans-30"/>
       <use x="211.035156" xlink:href="#DejaVuSans-30"/>
       <use x="274.658203" xlink:href="#DejaVuSans-30"/>
      </g>
     </g>
    </g>
    <g id="ytick_3">
     <g id="line2d_12">
      <g>
       <use style="stroke:#000000;stroke-width:0.8;" x="144" xlink:href="#m5e25546ef5" y="602.64"/>
      </g>
     </g>
     <g id="text_12">
      <!-- −2000 -->
      <g transform="translate(103.170312 606.439219)scale(0.1 -0.1)">
       <use xlink:href="#DejaVuSans-2212"/>
       <use x="83.789062" xlink:href="#DejaVuSans-32"/>
       <use x="147.412109" xlink:href="#DejaVuSans-30"/>
       <use x="211.035156" xlink:href="#DejaVuSans-30"/>
       <use x="274.658203" xlink:href="#DejaVuSans-30"/>
      </g>
     </g>
    </g>
    <g id="ytick_4">
     <g id="line2d_13">
      <g>
       <use style="stroke:#000000;stroke-width:0.8;" x="144" xlink:href="#m5e25546ef5" y="519.48"/>
      </g>
     </g>
     <g id="text_13">
      <!-- −1000 -->
      <g transform="translate(103.170312 523.279219)scale(0.1 -0.1)">
       <use xlink:href="#DejaVuSans-2212"/>
       <use x="83.789062" xlink:href="#DejaVuSans-31"/>
       <use x="147.412109" xlink:href="#DejaVuSans-30"/>
       <use x="211.035156" xlink:href="#DejaVuSans-30"/>
       <use x="274.658203" xlink:href="#DejaVuSans-30"/>
      </g>
     </g>
    </g>
    <g id="ytick_5">
     <g id="line2d_14">
      <g>
       <use style="stroke:#000000;stroke-width:0.8;" x="144" xlink:href="#m5e25546ef5" y="436.32"/>
      </g>
     </g>
     <g id="text_14">
      <!-- 0 -->
      <g transform="translate(130.6375 440.119219)scale(0.1 -0.1)">
       <use xlink:href="#DejaVuSans-30"/>
      </g>
     </g>
    </g>
    <g id="ytick_6">
     <g id="line2d_15">
      <g>
       <use style="stroke:#000000;stroke-width:0.8;" x="144" xlink:href="#m5e25546ef5" y="353.16"/>
      </g>
     </g>
     <g id="text_15">
      <!-- 1000 -->
      <g transform="translate(111.55 356.959219)scale(0.1 -0.1)">
       <use xlink:href="#DejaVuSans-31"/>
       <use x="63.623047" xlink:href="#DejaVuSans-30"/>
       <use x="127.246094" xlink:href="#DejaVuSans-30"/>
       <use x="190.869141" xlink:href="#DejaVuSans-30"/>
      </g>
     </g>
    </g>
    <g id="ytick_7">
     <g id="line2d_16">
      <g>
       <use style="stroke:#000000;stroke-width:0.8;" x="144" xlink:href="#m5e25546ef5" y="270"/>
      </g>
     </g>
     <g id="text_16">
      <!-- 2000 -->
      <g transform="translate(111.55 273.799219)scale(0.1 -0.1)">
       <use xlink:href="#DejaVuSans-32"/>
       <use x="63.623047" xlink:href="#DejaVuSans-30"/>
       <use x="127.246094" xlink:href="#DejaVuSans-30"/>
       <use x="190.869141" xlink:href="#DejaVuSans-30"/>
      </g>
     </g>
    </g>
    <g id="ytick_8">
     <g id="line2d_17">
      <g>
       <use style="stroke:#000000;stroke-width:0.8;" x="144" xlink:href="#m5e25546ef5" y="186.84"/>
      </g>
     </g>
     <g id="text_17">
      <!-- 3000 -->
      <g transform="translate(111.55 190.639219)scale(0.1 -0.1)">
       <use xlink:href="#DejaVuSans-33"/>
       <use x="63.623047" xlink:href="#DejaVuSans-30"/>
       <use x="127.246094" xlink:href="#DejaVuSans-30"/>
       <use x="190.869141" xlink:href="#DejaVuSans-30"/>
      </g>
     </g>
    </g>
    <g id="ytick_9">
     <g id="line2d_18">
      <g>
       <use style="stroke:#000000;stroke-width:0.8;" x="144" xlink:href="#m5e25546ef5" y="103.68"/>
      </g>
     </g>
     <g id="text_18">
      <!-- 4000 -->
      <g transform="translate(111.55 107.479219)scale(0.1 -0.1)">
       <use xlink:href="#DejaVuSans-34"/>
       <use x="63.623047" xlink:href="#DejaVuSans-30"/>
       <use x="127.246094" xlink:href="#DejaVuSans-30"/>
       <use x="190.869141" xlink:href="#DejaVuSans-30"/>
      </g>
     </g>
    </g>
   </g>
   <g id="line2d_19">
    <path clip-path="url(#pafcddeab02)" d="M 590.4 768.96 
L 590.4 103.68 
" style="fill:none;stroke:#1f77b4;stroke-linecap:square;stroke-width:1.5;"/>
   </g>
   <g id="line2d_20">
    <path clip-path="url(#pafcddeab02)" d="M 144 436.32 
L 1036.8 436.32 
" style="fill:none;stroke:#1f77b4;stroke-linecap:square;stroke-width:1.5;"/>
   </g>
   <g id="line2d_21">
    <defs>
     <path d="M 0 3 
C 0.795609 3 1.55874 2.683901 2.12132 2.12132 
C 2.683901 1.55874 3 0.795609 3 0 
C 3 -0.795609 2.683901 -1.55874 2.12132 -2.12132 
C 1.55874 -2.683901 0.795609 -3 0 -3 
C -0.795609 -3 -1.55874 -2.683901 -2.12132 -2.12132 
C -2.683901 -1.55874 -3 -0.795609 -3 0 
C -3 0.795609 -2.683901 1.55874 -2.12132 2.12132 
C -1.55874 2.683901 -0.795609 3 0 3 
z
" id="mb59339698f" style="stroke:#008000;"/>
    </defs>
    <g clip-path="url(#pafcddeab02)">
     <use style="fill:#008000;stroke:#008000;" x="1180.880934" xlink:href="#mb59339698f" y="495.224423"/>
    </g>
   </g>
   <g id="line2d_22">
    <g clip-path="url(#pafcddeab02)">
     <use style="fill:#008000;stroke:#008000;" x="1414.033255" xlink:href="#mb59339698f" y="486.138325"/>
    </g>
   </g>
   <g id="line2d_23">
    <g clip-path="url(#pafcddeab02)">
     <use style="fill:#008000;stroke:#008000;" x="1383.165215" xlink:href="#mb59339698f" y="389.665815"/>
    </g>
   </g>
   <g id="line2d_24">
    <g clip-path="url(#pafcddeab02)">
     <use style="fill:#008000;stroke:#008000;" x="1272.722339" xlink:href="#mb59339698f" y="340.220506"/>
    </g>
   </g>
   <g id="line2d_25">
    <g clip-path="url(#pafcddeab02)">
     <use style="fill:#008000;stroke:#008000;" x="1319.419851" xlink:href="#mb59339698f" y="272.500927"/>
    </g>
   </g>
   <g id="line2d_26">
    <g clip-path="url(#pafcddeab02)">
     <use style="fill:#008000;stroke:#008000;" x="872.928602" xlink:href="#mb59339698f" y="303.084163"/>
    </g>
   </g>
   <g id="line2d_27">
    <g clip-path="url(#pafcddeab02)">
     <use style="fill:#008000;stroke:#008000;" x="646.605585" xlink:href="#mb59339698f" y="392.878617"/>
    </g>
   </g>
   <g id="line2d_28">
    <g clip-path="url(#pafcddeab02)">
     <use style="fill:#008000;stroke:#008000;" x="646.605585" xlink:href="#mb59339698f" y="392.878617"/>
    </g>
   </g>
   <g id="line2d_29">
    <g clip-path="url(#pafcddeab02)">
     <use style="fill:#008000;stroke:#008000;" x="544.036373" xlink:href="#mb59339698f" y="231.922121"/>
    </g>
   </g>
   <g id="line2d_30">
    <g clip-path="url(#pafcddeab02)">
     <use style="fill:#008000;stroke:#008000;" x="573.715804" xlink:href="#mb59339698f" y="398.530903"/>
    </g>
   </g>
   <g id="line2d_31">
    <g clip-path="url(#pafcddeab02)">
     <use style="fill:#008000;stroke:#008000;" x="573.715804" xlink:href="#mb59339698f" y="398.530903"/>
    </g>
   </g>
   <g id="line2d_32">
    <g clip-path="url(#pafcddeab02)">
     <use style="fill:#008000;stroke:#008000;" x="456.817362" xlink:href="#mb59339698f" y="248.37008"/>
    </g>
   </g>
   <g id="line2d_33">
    <g clip-path="url(#pafcddeab02)">
     <use style="fill:#008000;stroke:#008000;" x="406.322831" xlink:href="#mb59339698f" y="487.882023"/>
    </g>
   </g>
   <g id="line2d_34">
    <g clip-path="url(#pafcddeab02)">
     <use style="fill:#008000;stroke:#008000;" x="467.415009" xlink:href="#mb59339698f" y="486.256567"/>
    </g>
   </g>
   <g id="line2d_35">
    <g clip-path="url(#pafcddeab02)">
     <use style="fill:#008000;stroke:#008000;" x="539.57851" xlink:href="#mb59339698f" y="500.731297"/>
    </g>
   </g>
   <g id="line2d_36">
    <defs>
     <path d="M 0 1.333333 
C 0.353604 1.333333 0.692773 1.192845 0.942809 0.942809 
C 1.192845 0.692773 1.333333 0.353604 1.333333 0 
C 1.333333 -0.353604 1.192845 -0.692773 0.942809 -0.942809 
C 0.692773 -1.192845 0.353604 -1.333333 0 -1.333333 
C -0.353604 -1.333333 -0.692773 -1.192845 -0.942809 -0.942809 
C -1.192845 -0.692773 -1.333333 -0.353604 -1.333333 0 
C -1.333333 0.353604 -1.192845 0.692773 -0.942809 0.942809 
C -0.692773 1.192845 -0.353604 1.333333 0 1.333333 
z
" id="m2920b046f6" style="stroke:#ff0000;"/>
    </defs>
    <g clip-path="url(#pafcddeab02)">
     <use style="fill:#ff0000;stroke:#ff0000;" x="1180.880934" xlink:href="#m2920b046f6" y="495.224423"/>
     <use style="fill:#ff0000;stroke:#ff0000;" x="1414.033255" xlink:href="#m2920b046f6" y="486.138325"/>
     <use style="fill:#ff0000;stroke:#ff0000;" x="1383.165215" xlink:href="#m2920b046f6" y="389.665815"/>
     <use style="fill:#ff0000;stroke:#ff0000;" x="1272.722339" xlink:href="#m2920b046f6" y="340.220506"/>
     <use style="fill:#ff0000;stroke:#ff0000;" x="1319.419851" xlink:href="#m2920b046f6" y="272.500927"/>
     <use style="fill:#ff0000;stroke:#ff0000;" x="872.928602" xlink:href="#m2920b046f6" y="303.084163"/>
     <use style="fill:#ff0000;stroke:#ff0000;" x="649.845076" xlink:href="#m2920b046f6" y="399.13051"/>
     <use style="fill:#ff0000;stroke:#ff0000;" x="642.235263" xlink:href="#m2920b046f6" y="386.742253"/>
     <use style="fill:#ff0000;stroke:#ff0000;" x="781.660637" xlink:href="#m2920b046f6" y="192.700818"/>
     <use style="fill:#ff0000;stroke:#ff0000;" x="756.737737" xlink:href="#m2920b046f6" y="195.820373"/>
     <use style="fill:#ff0000;stroke:#ff0000;" x="733.304516" xlink:href="#m2920b046f6" y="199.583102"/>
     <use style="fill:#ff0000;stroke:#ff0000;" x="711.173817" xlink:href="#m2920b046f6" y="203.392641"/>
     <use style="fill:#ff0000;stroke:#ff0000;" x="544.036373" xlink:href="#m2920b046f6" y="231.922121"/>
     <use style="fill:#ff0000;stroke:#ff0000;" x="576.190579" xlink:href="#m2920b046f6" y="397.272797"/>
     <use style="fill:#ff0000;stroke:#ff0000;" x="571.379288" xlink:href="#m2920b046f6" y="399.87291"/>
     <use style="fill:#ff0000;stroke:#ff0000;" x="456.817362" xlink:href="#m2920b046f6" y="248.37008"/>
     <use style="fill:#ff0000;stroke:#ff0000;" x="388.440473" xlink:href="#m2920b046f6" y="292.490614"/>
     <use style="fill:#ff0000;stroke:#ff0000;" x="404.643201" xlink:href="#m2920b046f6" y="317.7724"/>
     <use style="fill:#ff0000;stroke:#ff0000;" x="432.206579" xlink:href="#m2920b046f6" y="346.377469"/>
     <use style="fill:#ff0000;stroke:#ff0000;" x="407.51708" xlink:href="#m2920b046f6" y="363.239198"/>
     <use style="fill:#ff0000;stroke:#ff0000;" x="454.627489" xlink:href="#m2920b046f6" y="389.5115"/>
     <use style="fill:#ff0000;stroke:#ff0000;" x="451.281776" xlink:href="#m2920b046f6" y="413.278582"/>
     <use style="fill:#ff0000;stroke:#ff0000;" x="429.177753" xlink:href="#m2920b046f6" y="416.081289"/>
     <use style="fill:#ff0000;stroke:#ff0000;" x="411.240729" xlink:href="#m2920b046f6" y="441.857062"/>
     <use style="fill:#ff0000;stroke:#ff0000;" x="395.269328" xlink:href="#m2920b046f6" y="450.040704"/>
     <use style="fill:#ff0000;stroke:#ff0000;" x="401.022874" xlink:href="#m2920b046f6" y="464.950333"/>
     <use style="fill:#ff0000;stroke:#ff0000;" x="437.570342" xlink:href="#m2920b046f6" y="466.103654"/>
     <use style="fill:#ff0000;stroke:#ff0000;" x="404.884123" xlink:href="#m2920b046f6" y="479.906668"/>
     <use style="fill:#ff0000;stroke:#ff0000;" x="408.38208" xlink:href="#m2920b046f6" y="495.867419"/>
     <use style="fill:#ff0000;stroke:#ff0000;" x="466.976452" xlink:href="#m2920b046f6" y="483.276102"/>
     <use style="fill:#ff0000;stroke:#ff0000;" x="467.980306" xlink:href="#m2920b046f6" y="489.252977"/>
     <use style="fill:#ff0000;stroke:#ff0000;" x="430.935905" xlink:href="#m2920b046f6" y="513.026915"/>
     <use style="fill:#ff0000;stroke:#ff0000;" x="442.520206" xlink:href="#m2920b046f6" y="516.289053"/>
     <use style="fill:#ff0000;stroke:#ff0000;" x="463.408049" xlink:href="#m2920b046f6" y="513.24901"/>
     <use style="fill:#ff0000;stroke:#ff0000;" x="456.686728" xlink:href="#m2920b046f6" y="526.280726"/>
     <use style="fill:#ff0000;stroke:#ff0000;" x="469.66266" xlink:href="#m2920b046f6" y="536.845265"/>
     <use style="fill:#ff0000;stroke:#ff0000;" x="455.07663" xlink:href="#m2920b046f6" y="561.052749"/>
     <use style="fill:#ff0000;stroke:#ff0000;" x="533.116924" xlink:href="#m2920b046f6" y="504.300019"/>
     <use style="fill:#ff0000;stroke:#ff0000;" x="545.708656" xlink:href="#m2920b046f6" y="496.943571"/>
     <use style="fill:#ff0000;stroke:#ff0000;" x="571.310179" xlink:href="#m2920b046f6" y="495.785651"/>
     <use style="fill:#ff0000;stroke:#ff0000;" x="564.111538" xlink:href="#m2920b046f6" y="635.211917"/>
     <use style="fill:#ff0000;stroke:#ff0000;" x="580.024115" xlink:href="#m2920b046f6" y="612.303909"/>
     <use style="fill:#ff0000;stroke:#ff0000;" x="592.364753" xlink:href="#m2920b046f6" y="642.80109"/>
     <use style="fill:#ff0000;stroke:#ff0000;" x="636.329754" xlink:href="#m2920b046f6" y="636.808291"/>
     <use style="fill:#ff0000;stroke:#ff0000;" x="644.52816" xlink:href="#m2920b046f6" y="613.896517"/>
     <use style="fill:#ff0000;stroke:#ff0000;" x="663.735603" xlink:href="#m2920b046f6" y="629.076681"/>
     <use style="fill:#ff0000;stroke:#ff0000;" x="669.890219" xlink:href="#m2920b046f6" y="609.110239"/>
     <use style="fill:#ff0000;stroke:#ff0000;" x="692.051995" xlink:href="#m2920b046f6" y="598.298706"/>
     <use style="fill:#ff0000;stroke:#ff0000;" x="764.398272" xlink:href="#m2920b046f6" y="590.070981"/>
     <use style="fill:#ff0000;stroke:#ff0000;" x="796.45369" xlink:href="#m2920b046f6" y="583.546592"/>
     <use style="fill:#ff0000;stroke:#ff0000;" x="849.260908" xlink:href="#m2920b046f6" y="569.434644"/>
     <use style="fill:#ff0000;stroke:#ff0000;" x="889.291343" xlink:href="#m2920b046f6" y="557.326975"/>
     <use style="fill:#ff0000;stroke:#ff0000;" x="1063.714204" xlink:href="#m2920b046f6" y="540.479354"/>
     <use style="fill:#ff0000;stroke:#ff0000;" x="1089.820181" xlink:href="#m2920b046f6" y="525.128459"/>
     <use style="fill:#ff0000;stroke:#ff0000;" x="1105.848455" xlink:href="#m2920b046f6" y="506.532643"/>
    </g>
   </g>
   <g id="line2d_37">
    <defs>
     <path d="M -0.5 0.5 
L 0.5 0.5 
L 0.5 -0.5 
L -0.5 -0.5 
z
" id="md9c1665661" style="stroke:#1f77b4;stroke-linejoin:miter;"/>
    </defs>
    <g clip-path="url(#pafcddeab02)">
     <use style="fill:#1f77b4;stroke:#1f77b4;stroke-linejoin:miter;" x="1180.880934" xlink:href="#md9c1665661" y="495.224423"/>
     <use style="fill:#1f77b4;stroke:#1f77b4;stroke-linejoin:miter;" x="1414.033255" xlink:href="#md9c1665661" y="486.138325"/>
     <use style="fill:#1f77b4;stroke:#1f77b4;stroke-linejoin:miter;" x="1383.165215" xlink:href="#md9c1665661" y="389.665815"/>
     <use style="fill:#1f77b4;stroke:#1f77b4;stroke-linejoin:miter;" x="1272.722339" xlink:href="#md9c1665661" y="340.220506"/>
     <use style="fill:#1f77b4;stroke:#1f77b4;stroke-linejoin:miter;" x="1319.419851" xlink:href="#md9c1665661" y="272.500927"/>
     <use style="fill:#1f77b4;stroke:#1f77b4;stroke-linejoin:miter;" x="872.928602" xlink:href="#md9c1665661" y="303.084163"/>
     <use style="fill:#1f77b4;stroke:#1f77b4;stroke-linejoin:miter;" x="649.845076" xlink:href="#md9c1665661" y="399.13051"/>
     <use style="fill:#1f77b4;stroke:#1f77b4;stroke-linejoin:miter;" x="646.904448" xlink:href="#md9c1665661" y="396.970564"/>
     <use style="fill:#1f77b4;stroke:#1f77b4;stroke-linejoin:miter;" x="645.271401" xlink:href="#md9c1665661" y="393.956077"/>
     <use style="fill:#1f77b4;stroke:#1f77b4;stroke-linejoin:miter;" x="642.165481" xlink:href="#md9c1665661" y="391.700942"/>
     <use style="fill:#1f77b4;stroke:#1f77b4;stroke-linejoin:miter;" x="642.235263" xlink:href="#md9c1665661" y="386.742253"/>
     <use style="fill:#1f77b4;stroke:#1f77b4;stroke-linejoin:miter;" x="781.660637" xlink:href="#md9c1665661" y="192.700818"/>
     <use style="fill:#1f77b4;stroke:#1f77b4;stroke-linejoin:miter;" x="756.737737" xlink:href="#md9c1665661" y="195.820373"/>
     <use style="fill:#1f77b4;stroke:#1f77b4;stroke-linejoin:miter;" x="733.304516" xlink:href="#md9c1665661" y="199.583102"/>
     <use style="fill:#1f77b4;stroke:#1f77b4;stroke-linejoin:miter;" x="711.173817" xlink:href="#md9c1665661" y="203.392641"/>
     <use style="fill:#1f77b4;stroke:#1f77b4;stroke-linejoin:miter;" x="691.30604" xlink:href="#md9c1665661" y="205.974233"/>
     <use style="fill:#1f77b4;stroke:#1f77b4;stroke-linejoin:miter;" x="671.864072" xlink:href="#md9c1665661" y="210.016937"/>
     <use style="fill:#1f77b4;stroke:#1f77b4;stroke-linejoin:miter;" x="654.205174" xlink:href="#md9c1665661" y="211.734353"/>
     <use style="fill:#1f77b4;stroke:#1f77b4;stroke-linejoin:miter;" x="636.920224" xlink:href="#md9c1665661" y="215.111366"/>
     <use style="fill:#1f77b4;stroke:#1f77b4;stroke-linejoin:miter;" x="619.832289" xlink:href="#md9c1665661" y="217.917605"/>
     <use style="fill:#1f77b4;stroke:#1f77b4;stroke-linejoin:miter;" x="603.89493" xlink:href="#md9c1665661" y="219.567909"/>
     <use style="fill:#1f77b4;stroke:#1f77b4;stroke-linejoin:miter;" x="588.460597" xlink:href="#md9c1665661" y="224.350086"/>
     <use style="fill:#1f77b4;stroke:#1f77b4;stroke-linejoin:miter;" x="573.323058" xlink:href="#md9c1665661" y="225.435596"/>
     <use style="fill:#1f77b4;stroke:#1f77b4;stroke-linejoin:miter;" x="558.541349" xlink:href="#md9c1665661" y="228.96373"/>
     <use style="fill:#1f77b4;stroke:#1f77b4;stroke-linejoin:miter;" x="544.036373" xlink:href="#md9c1665661" y="231.922121"/>
     <use style="fill:#1f77b4;stroke:#1f77b4;stroke-linejoin:miter;" x="576.190579" xlink:href="#md9c1665661" y="397.272797"/>
     <use style="fill:#1f77b4;stroke:#1f77b4;stroke-linejoin:miter;" x="574.248193" xlink:href="#md9c1665661" y="400.381653"/>
     <use style="fill:#1f77b4;stroke:#1f77b4;stroke-linejoin:miter;" x="571.379288" xlink:href="#md9c1665661" y="399.87291"/>
     <use style="fill:#1f77b4;stroke:#1f77b4;stroke-linejoin:miter;" x="456.817362" xlink:href="#md9c1665661" y="248.37008"/>
     <use style="fill:#1f77b4;stroke:#1f77b4;stroke-linejoin:miter;" x="440.984109" xlink:href="#md9c1665661" y="250.562204"/>
     <use style="fill:#1f77b4;stroke:#1f77b4;stroke-linejoin:miter;" x="424.509442" xlink:href="#md9c1665661" y="253.052896"/>
     <use style="fill:#1f77b4;stroke:#1f77b4;stroke-linejoin:miter;" x="418.141229" xlink:href="#md9c1665661" y="266.558419"/>
     <use style="fill:#1f77b4;stroke:#1f77b4;stroke-linejoin:miter;" x="400.804542" xlink:href="#md9c1665661" y="268.601267"/>
     <use style="fill:#1f77b4;stroke:#1f77b4;stroke-linejoin:miter;" x="390.09774" xlink:href="#md9c1665661" y="277.481113"/>
     <use style="fill:#1f77b4;stroke:#1f77b4;stroke-linejoin:miter;" x="388.440473" xlink:href="#md9c1665661" y="292.490614"/>
     <use style="fill:#1f77b4;stroke:#1f77b4;stroke-linejoin:miter;" x="404.643201" xlink:href="#md9c1665661" y="317.7724"/>
     <use style="fill:#1f77b4;stroke:#1f77b4;stroke-linejoin:miter;" x="432.206579" xlink:href="#md9c1665661" y="346.377469"/>
     <use style="fill:#1f77b4;stroke:#1f77b4;stroke-linejoin:miter;" x="418.177012" xlink:href="#md9c1665661" y="348.530167"/>
     <use style="fill:#1f77b4;stroke:#1f77b4;stroke-linejoin:miter;" x="415.545781" xlink:href="#md9c1665661" y="357.206674"/>
     <use style="fill:#1f77b4;stroke:#1f77b4;stroke-linejoin:miter;" x="407.51708" xlink:href="#md9c1665661" y="363.239198"/>
     <use style="fill:#1f77b4;stroke:#1f77b4;stroke-linejoin:miter;" x="454.627489" xlink:href="#md9c1665661" y="389.5115"/>
     <use style="fill:#1f77b4;stroke:#1f77b4;stroke-linejoin:miter;" x="454.678359" xlink:href="#md9c1665661" y="395.939447"/>
     <use style="fill:#1f77b4;stroke:#1f77b4;stroke-linejoin:miter;" x="456.647719" xlink:href="#md9c1665661" y="402.790444"/>
     <use style="fill:#1f77b4;stroke:#1f77b4;stroke-linejoin:miter;" x="458.383249" xlink:href="#md9c1665661" y="409.067427"/>
     <use style="fill:#1f77b4;stroke:#1f77b4;stroke-linejoin:miter;" x="451.281776" xlink:href="#md9c1665661" y="413.278582"/>
     <use style="fill:#1f77b4;stroke:#1f77b4;stroke-linejoin:miter;" x="429.177753" xlink:href="#md9c1665661" y="416.081289"/>
     <use style="fill:#1f77b4;stroke:#1f77b4;stroke-linejoin:miter;" x="425.588406" xlink:href="#md9c1665661" y="422.22564"/>
     <use style="fill:#1f77b4;stroke:#1f77b4;stroke-linejoin:miter;" x="418.305368" xlink:href="#md9c1665661" y="428.406405"/>
     <use style="fill:#1f77b4;stroke:#1f77b4;stroke-linejoin:miter;" x="420.471211" xlink:href="#md9c1665661" y="434.938688"/>
     <use style="fill:#1f77b4;stroke:#1f77b4;stroke-linejoin:miter;" x="411.240729" xlink:href="#md9c1665661" y="441.857062"/>
     <use style="fill:#1f77b4;stroke:#1f77b4;stroke-linejoin:miter;" x="395.269328" xlink:href="#md9c1665661" y="450.040704"/>
     <use style="fill:#1f77b4;stroke:#1f77b4;stroke-linejoin:miter;" x="397.150822" xlink:href="#md9c1665661" y="457.640517"/>
     <use style="fill:#1f77b4;stroke:#1f77b4;stroke-linejoin:miter;" x="401.022874" xlink:href="#md9c1665661" y="464.950333"/>
     <use style="fill:#1f77b4;stroke:#1f77b4;stroke-linejoin:miter;" x="437.570342" xlink:href="#md9c1665661" y="466.103654"/>
     <use style="fill:#1f77b4;stroke:#1f77b4;stroke-linejoin:miter;" x="404.884123" xlink:href="#md9c1665661" y="479.906668"/>
     <use style="fill:#1f77b4;stroke:#1f77b4;stroke-linejoin:miter;" x="406.37869" xlink:href="#md9c1665661" y="487.845038"/>
     <use style="fill:#1f77b4;stroke:#1f77b4;stroke-linejoin:miter;" x="408.38208" xlink:href="#md9c1665661" y="495.867419"/>
     <use style="fill:#1f77b4;stroke:#1f77b4;stroke-linejoin:miter;" x="466.976452" xlink:href="#md9c1665661" y="483.276102"/>
     <use style="fill:#1f77b4;stroke:#1f77b4;stroke-linejoin:miter;" x="467.980306" xlink:href="#md9c1665661" y="489.252977"/>
     <use style="fill:#1f77b4;stroke:#1f77b4;stroke-linejoin:miter;" x="430.935905" xlink:href="#md9c1665661" y="513.026915"/>
     <use style="fill:#1f77b4;stroke:#1f77b4;stroke-linejoin:miter;" x="442.520206" xlink:href="#md9c1665661" y="516.289053"/>
     <use style="fill:#1f77b4;stroke:#1f77b4;stroke-linejoin:miter;" x="463.408049" xlink:href="#md9c1665661" y="513.24901"/>
     <use style="fill:#1f77b4;stroke:#1f77b4;stroke-linejoin:miter;" x="456.686728" xlink:href="#md9c1665661" y="526.280726"/>
     <use style="fill:#1f77b4;stroke:#1f77b4;stroke-linejoin:miter;" x="457.452186" xlink:href="#md9c1665661" y="535.712294"/>
     <use style="fill:#1f77b4;stroke:#1f77b4;stroke-linejoin:miter;" x="469.66266" xlink:href="#md9c1665661" y="536.845265"/>
     <use style="fill:#1f77b4;stroke:#1f77b4;stroke-linejoin:miter;" x="455.07663" xlink:href="#md9c1665661" y="561.052749"/>
     <use style="fill:#1f77b4;stroke:#1f77b4;stroke-linejoin:miter;" x="533.116924" xlink:href="#md9c1665661" y="504.300019"/>
     <use style="fill:#1f77b4;stroke:#1f77b4;stroke-linejoin:miter;" x="545.708656" xlink:href="#md9c1665661" y="496.943571"/>
     <use style="fill:#1f77b4;stroke:#1f77b4;stroke-linejoin:miter;" x="551.008661" xlink:href="#md9c1665661" y="497.132475"/>
     <use style="fill:#1f77b4;stroke:#1f77b4;stroke-linejoin:miter;" x="555.127946" xlink:href="#md9c1665661" y="499.287426"/>
     <use style="fill:#1f77b4;stroke:#1f77b4;stroke-linejoin:miter;" x="563.708442" xlink:href="#md9c1665661" y="492.92742"/>
     <use style="fill:#1f77b4;stroke:#1f77b4;stroke-linejoin:miter;" x="568.369963" xlink:href="#md9c1665661" y="492.299393"/>
     <use style="fill:#1f77b4;stroke:#1f77b4;stroke-linejoin:miter;" x="571.310179" xlink:href="#md9c1665661" y="495.785651"/>
     <use style="fill:#1f77b4;stroke:#1f77b4;stroke-linejoin:miter;" x="564.111538" xlink:href="#md9c1665661" y="635.211917"/>
     <use style="fill:#1f77b4;stroke:#1f77b4;stroke-linejoin:miter;" x="580.024115" xlink:href="#md9c1665661" y="612.303909"/>
     <use style="fill:#1f77b4;stroke:#1f77b4;stroke-linejoin:miter;" x="592.364753" xlink:href="#md9c1665661" y="642.80109"/>
     <use style="fill:#1f77b4;stroke:#1f77b4;stroke-linejoin:miter;" x="607.127684" xlink:href="#md9c1665661" y="641.034216"/>
     <use style="fill:#1f77b4;stroke:#1f77b4;stroke-linejoin:miter;" x="622.28648" xlink:href="#md9c1665661" y="640.409092"/>
     <use style="fill:#1f77b4;stroke:#1f77b4;stroke-linejoin:miter;" x="636.329754" xlink:href="#md9c1665661" y="636.808291"/>
     <use style="fill:#1f77b4;stroke:#1f77b4;stroke-linejoin:miter;" x="644.52816" xlink:href="#md9c1665661" y="613.896517"/>
     <use style="fill:#1f77b4;stroke:#1f77b4;stroke-linejoin:miter;" x="663.735603" xlink:href="#md9c1665661" y="629.076681"/>
     <use style="fill:#1f77b4;stroke:#1f77b4;stroke-linejoin:miter;" x="669.890219" xlink:href="#md9c1665661" y="609.110239"/>
     <use style="fill:#1f77b4;stroke:#1f77b4;stroke-linejoin:miter;" x="678.07426" xlink:href="#md9c1665661" y="597.894175"/>
     <use style="fill:#1f77b4;stroke:#1f77b4;stroke-linejoin:miter;" x="692.051995" xlink:href="#md9c1665661" y="598.298706"/>
     <use style="fill:#1f77b4;stroke:#1f77b4;stroke-linejoin:miter;" x="764.398272" xlink:href="#md9c1665661" y="590.070981"/>
     <use style="fill:#1f77b4;stroke:#1f77b4;stroke-linejoin:miter;" x="778.430577" xlink:href="#md9c1665661" y="585.835498"/>
     <use style="fill:#1f77b4;stroke:#1f77b4;stroke-linejoin:miter;" x="796.45369" xlink:href="#md9c1665661" y="583.546592"/>
     <use style="fill:#1f77b4;stroke:#1f77b4;stroke-linejoin:miter;" x="815.604512" xlink:href="#md9c1665661" y="581.07708"/>
     <use style="fill:#1f77b4;stroke:#1f77b4;stroke-linejoin:miter;" x="832.952925" xlink:href="#md9c1665661" y="576.501341"/>
     <use style="fill:#1f77b4;stroke:#1f77b4;stroke-linejoin:miter;" x="849.260908" xlink:href="#md9c1665661" y="569.434644"/>
     <use style="fill:#1f77b4;stroke:#1f77b4;stroke-linejoin:miter;" x="889.291343" xlink:href="#md9c1665661" y="557.326975"/>
     <use style="fill:#1f77b4;stroke:#1f77b4;stroke-linejoin:miter;" x="1063.714204" xlink:href="#md9c1665661" y="540.479354"/>
     <use style="fill:#1f77b4;stroke:#1f77b4;stroke-linejoin:miter;" x="1089.820181" xlink:href="#md9c1665661" y="525.128459"/>
     <use style="fill:#1f77b4;stroke:#1f77b4;stroke-linejoin:miter;" x="1105.848455" xlink:href="#md9c1665661" y="506.532643"/>
    </g>
   </g>
   <g id="patch_3">
    <path d="M 144 768.96 
L 144 103.68 
" style="fill:none;stroke:#000000;stroke-linecap:square;stroke-linejoin:miter;stroke-width:0.8;"/>
   </g>
   <g id="patch_4">
    <path d="M 1036.8 768.96 
L 1036.8 103.68 
" style="fill:none;stroke:#000000;stroke-linecap:square;stroke-linejoin:miter;stroke-width:0.8;"/>
   </g>
   <g id="patch_5">
    <path d="M 144 768.96 
L 1036.8 768.96 
" style="fill:none;stroke:#000000;stroke-linecap:square;stroke-linejoin:miter;stroke-width:0.8;"/>
   </g>
   <g id="patch_6">
    <path d="M 144 103.68 
L 1036.8 103.68 
" style="fill:none;stroke:#000000;stroke-linecap:square;stroke-linejoin:miter;stroke-width:0.8;"/>
   </g>
  </g>
 </g>
 <defs>
  <clipPath id="pafcddeab02">
   <rect height="665.28" width="892.8" x="144" y="103.68"/>
  </clipPath>
 </defs>
</svg>
