<?xml version="1.0" encoding="utf-8" standalone="no"?>
<!DOCTYPE svg PUBLIC "-//W3C//DTD SVG 1.1//EN"
  "http://www.w3.org/Graphics/SVG/1.1/DTD/svg11.dtd">
<!-- Created with matplotlib (http://matplotlib.org/) -->
<svg height="864pt" version="1.1" viewBox="0 0 1152 864" width="1152pt" xmlns="http://www.w3.org/2000/svg" xmlns:xlink="http://www.w3.org/1999/xlink">
 <defs>
  <style type="text/css">
*{stroke-linecap:butt;stroke-linejoin:round;}
  </style>
 </defs>
 <g id="figure_1">
  <g id="patch_1">
   <path d="M 0 864 
L 1152 864 
L 1152 0 
L 0 0 
z
" style="fill:#ffffff;"/>
  </g>
  <g id="axes_1">
   <g id="patch_2">
    <path d="M 144 768.96 
L 1036.8 768.96 
L 1036.8 103.68 
L 144 103.68 
z
" style="fill:#ffffff;"/>
   </g>
   <g id="matplotlib.axis_1">
    <g id="xtick_1">
     <g id="line2d_1">
      <defs>
       <path d="M 0 0 
L 0 3.5 
" id="m8a1fb43feb" style="stroke:#000000;stroke-width:0.8;"/>
      </defs>
      <g>
       <use style="stroke:#000000;stroke-width:0.8;" x="144" xlink:href="#m8a1fb43feb" y="768.96"/>
      </g>
     </g>
     <g id="text_1">
      <!-- −4000 -->
      <defs>
       <path d="M 10.59375 35.5 
L 73.1875 35.5 
L 73.1875 27.203125 
L 10.59375 27.203125 
z
" id="DejaVuSans-2212"/>
       <path d="M 37.796875 64.3125 
L 12.890625 25.390625 
L 37.796875 25.390625 
z
M 35.203125 72.90625 
L 47.609375 72.90625 
L 47.609375 25.390625 
L 58.015625 25.390625 
L 58.015625 17.1875 
L 47.609375 17.1875 
L 47.609375 0 
L 37.796875 0 
L 37.796875 17.1875 
L 4.890625 17.1875 
L 4.890625 26.703125 
z
" id="DejaVuSans-34"/>
       <path d="M 31.78125 66.40625 
Q 24.171875 66.40625 20.328125 58.90625 
Q 16.5 51.421875 16.5 36.375 
Q 16.5 21.390625 20.328125 13.890625 
Q 24.171875 6.390625 31.78125 6.390625 
Q 39.453125 6.390625 43.28125 13.890625 
Q 47.125 21.390625 47.125 36.375 
Q 47.125 51.421875 43.28125 58.90625 
Q 39.453125 66.40625 31.78125 66.40625 
z
M 31.78125 74.21875 
Q 44.046875 74.21875 50.515625 64.515625 
Q 56.984375 54.828125 56.984375 36.375 
Q 56.984375 17.96875 50.515625 8.265625 
Q 44.046875 -1.421875 31.78125 -1.421875 
Q 19.53125 -1.421875 13.0625 8.265625 
Q 6.59375 17.96875 6.59375 36.375 
Q 6.59375 54.828125 13.0625 64.515625 
Q 19.53125 74.21875 31.78125 74.21875 
z
" id="DejaVuSans-30"/>
      </defs>
      <g transform="translate(127.085156 783.558437)scale(0.1 -0.1)">
       <use xlink:href="#DejaVuSans-2212"/>
       <use x="83.789062" xlink:href="#DejaVuSans-34"/>
       <use x="147.412109" xlink:href="#DejaVuSans-30"/>
       <use x="211.035156" xlink:href="#DejaVuSans-30"/>
       <use x="274.658203" xlink:href="#DejaVuSans-30"/>
      </g>
     </g>
    </g>
    <g id="xtick_2">
     <g id="line2d_2">
      <g>
       <use style="stroke:#000000;stroke-width:0.8;" x="255.6" xlink:href="#m8a1fb43feb" y="768.96"/>
      </g>
     </g>
     <g id="text_2">
      <!-- −3000 -->
      <defs>
       <path d="M 40.578125 39.3125 
Q 47.65625 37.796875 51.625 33 
Q 55.609375 28.21875 55.609375 21.1875 
Q 55.609375 10.40625 48.1875 4.484375 
Q 40.765625 -1.421875 27.09375 -1.421875 
Q 22.515625 -1.421875 17.65625 -0.515625 
Q 12.796875 0.390625 7.625 2.203125 
L 7.625 11.71875 
Q 11.71875 9.328125 16.59375 8.109375 
Q 21.484375 6.890625 26.8125 6.890625 
Q 36.078125 6.890625 40.9375 10.546875 
Q 45.796875 14.203125 45.796875 21.1875 
Q 45.796875 27.640625 41.28125 31.265625 
Q 36.765625 34.90625 28.71875 34.90625 
L 20.21875 34.90625 
L 20.21875 43.015625 
L 29.109375 43.015625 
Q 36.375 43.015625 40.234375 45.921875 
Q 44.09375 48.828125 44.09375 54.296875 
Q 44.09375 59.90625 40.109375 62.90625 
Q 36.140625 65.921875 28.71875 65.921875 
Q 24.65625 65.921875 20.015625 65.03125 
Q 15.375 64.15625 9.8125 62.3125 
L 9.8125 71.09375 
Q 15.4375 72.65625 20.34375 73.4375 
Q 25.25 74.21875 29.59375 74.21875 
Q 40.828125 74.21875 47.359375 69.109375 
Q 53.90625 64.015625 53.90625 55.328125 
Q 53.90625 49.265625 50.4375 45.09375 
Q 46.96875 40.921875 40.578125 39.3125 
z
" id="DejaVuSans-33"/>
      </defs>
      <g transform="translate(238.685156 783.558437)scale(0.1 -0.1)">
       <use xlink:href="#DejaVuSans-2212"/>
       <use x="83.789062" xlink:href="#DejaVuSans-33"/>
       <use x="147.412109" xlink:href="#DejaVuSans-30"/>
       <use x="211.035156" xlink:href="#DejaVuSans-30"/>
       <use x="274.658203" xlink:href="#DejaVuSans-30"/>
      </g>
     </g>
    </g>
    <g id="xtick_3">
     <g id="line2d_3">
      <g>
       <use style="stroke:#000000;stroke-width:0.8;" x="367.2" xlink:href="#m8a1fb43feb" y="768.96"/>
      </g>
     </g>
     <g id="text_3">
      <!-- −2000 -->
      <defs>
       <path d="M 19.1875 8.296875 
L 53.609375 8.296875 
L 53.609375 0 
L 7.328125 0 
L 7.328125 8.296875 
Q 12.9375 14.109375 22.625 23.890625 
Q 32.328125 33.6875 34.8125 36.53125 
Q 39.546875 41.84375 41.421875 45.53125 
Q 43.3125 49.21875 43.3125 52.78125 
Q 43.3125 58.59375 39.234375 62.25 
Q 35.15625 65.921875 28.609375 65.921875 
Q 23.96875 65.921875 18.8125 64.3125 
Q 13.671875 62.703125 7.8125 59.421875 
L 7.8125 69.390625 
Q 13.765625 71.78125 18.9375 73 
Q 24.125 74.21875 28.421875 74.21875 
Q 39.75 74.21875 46.484375 68.546875 
Q 53.21875 62.890625 53.21875 53.421875 
Q 53.21875 48.921875 51.53125 44.890625 
Q 49.859375 40.875 45.40625 35.40625 
Q 44.1875 33.984375 37.640625 27.21875 
Q 31.109375 20.453125 19.1875 8.296875 
z
" id="DejaVuSans-32"/>
      </defs>
      <g transform="translate(350.285156 783.558437)scale(0.1 -0.1)">
       <use xlink:href="#DejaVuSans-2212"/>
       <use x="83.789062" xlink:href="#DejaVuSans-32"/>
       <use x="147.412109" xlink:href="#DejaVuSans-30"/>
       <use x="211.035156" xlink:href="#DejaVuSans-30"/>
       <use x="274.658203" xlink:href="#DejaVuSans-30"/>
      </g>
     </g>
    </g>
    <g id="xtick_4">
     <g id="line2d_4">
      <g>
       <use style="stroke:#000000;stroke-width:0.8;" x="478.8" xlink:href="#m8a1fb43feb" y="768.96"/>
      </g>
     </g>
     <g id="text_4">
      <!-- −1000 -->
      <defs>
       <path d="M 12.40625 8.296875 
L 28.515625 8.296875 
L 28.515625 63.921875 
L 10.984375 60.40625 
L 10.984375 69.390625 
L 28.421875 72.90625 
L 38.28125 72.90625 
L 38.28125 8.296875 
L 54.390625 8.296875 
L 54.390625 0 
L 12.40625 0 
z
" id="DejaVuSans-31"/>
      </defs>
      <g transform="translate(461.885156 783.558437)scale(0.1 -0.1)">
       <use xlink:href="#DejaVuSans-2212"/>
       <use x="83.789062" xlink:href="#DejaVuSans-31"/>
       <use x="147.412109" xlink:href="#DejaVuSans-30"/>
       <use x="211.035156" xlink:href="#DejaVuSans-30"/>
       <use x="274.658203" xlink:href="#DejaVuSans-30"/>
      </g>
     </g>
    </g>
    <g id="xtick_5">
     <g id="line2d_5">
      <g>
       <use style="stroke:#000000;stroke-width:0.8;" x="590.4" xlink:href="#m8a1fb43feb" y="768.96"/>
      </g>
     </g>
     <g id="text_5">
      <!-- 0 -->
      <g transform="translate(587.21875 783.558437)scale(0.1 -0.1)">
       <use xlink:href="#DejaVuSans-30"/>
      </g>
     </g>
    </g>
    <g id="xtick_6">
     <g id="line2d_6">
      <g>
       <use style="stroke:#000000;stroke-width:0.8;" x="702" xlink:href="#m8a1fb43feb" y="768.96"/>
      </g>
     </g>
     <g id="text_6">
      <!-- 1000 -->
      <g transform="translate(689.275 783.558437)scale(0.1 -0.1)">
       <use xlink:href="#DejaVuSans-31"/>
       <use x="63.623047" xlink:href="#DejaVuSans-30"/>
       <use x="127.246094" xlink:href="#DejaVuSans-30"/>
       <use x="190.869141" xlink:href="#DejaVuSans-30"/>
      </g>
     </g>
    </g>
    <g id="xtick_7">
     <g id="line2d_7">
      <g>
       <use style="stroke:#000000;stroke-width:0.8;" x="813.6" xlink:href="#m8a1fb43feb" y="768.96"/>
      </g>
     </g>
     <g id="text_7">
      <!-- 2000 -->
      <g transform="translate(800.875 783.558437)scale(0.1 -0.1)">
       <use xlink:href="#DejaVuSans-32"/>
       <use x="63.623047" xlink:href="#DejaVuSans-30"/>
       <use x="127.246094" xlink:href="#DejaVuSans-30"/>
       <use x="190.869141" xlink:href="#DejaVuSans-30"/>
      </g>
     </g>
    </g>
    <g id="xtick_8">
     <g id="line2d_8">
      <g>
       <use style="stroke:#000000;stroke-width:0.8;" x="925.2" xlink:href="#m8a1fb43feb" y="768.96"/>
      </g>
     </g>
     <g id="text_8">
      <!-- 3000 -->
      <g transform="translate(912.475 783.558437)scale(0.1 -0.1)">
       <use xlink:href="#DejaVuSans-33"/>
       <use x="63.623047" xlink:href="#DejaVuSans-30"/>
       <use x="127.246094" xlink:href="#DejaVuSans-30"/>
       <use x="190.869141" xlink:href="#DejaVuSans-30"/>
      </g>
     </g>
    </g>
    <g id="xtick_9">
     <g id="line2d_9">
      <g>
       <use style="stroke:#000000;stroke-width:0.8;" x="1036.8" xlink:href="#m8a1fb43feb" y="768.96"/>
      </g>
     </g>
     <g id="text_9">
      <!-- 4000 -->
      <g transform="translate(1024.075 783.558437)scale(0.1 -0.1)">
       <use xlink:href="#DejaVuSans-34"/>
       <use x="63.623047" xlink:href="#DejaVuSans-30"/>
       <use x="127.246094" xlink:href="#DejaVuSans-30"/>
       <use x="190.869141" xlink:href="#DejaVuSans-30"/>
      </g>
     </g>
    </g>
   </g>
   <g id="matplotlib.axis_2">
    <g id="ytick_1">
     <g id="line2d_10">
      <defs>
       <path d="M 0 0 
L -3.5 0 
" id="mc19d2e5797" style="stroke:#000000;stroke-width:0.8;"/>
      </defs>
      <g>
       <use style="stroke:#000000;stroke-width:0.8;" x="144" xlink:href="#mc19d2e5797" y="768.96"/>
      </g>
     </g>
     <g id="text_10">
      <!-- −4000 -->
      <g transform="translate(103.170312 772.759219)scale(0.1 -0.1)">
       <use xlink:href="#DejaVuSans-2212"/>
       <use x="83.789062" xlink:href="#DejaVuSans-34"/>
       <use x="147.412109" xlink:href="#DejaVuSans-30"/>
       <use x="211.035156" xlink:href="#DejaVuSans-30"/>
       <use x="274.658203" xlink:href="#DejaVuSans-30"/>
      </g>
     </g>
    </g>
    <g id="ytick_2">
     <g id="line2d_11">
      <g>
       <use style="stroke:#000000;stroke-width:0.8;" x="144" xlink:href="#mc19d2e5797" y="685.8"/>
      </g>
     </g>
     <g id="text_11">
      <!-- −3000 -->
      <g transform="translate(103.170312 689.599219)scale(0.1 -0.1)">
       <use xlink:href="#DejaVuSans-2212"/>
       <use x="83.789062" xlink:href="#DejaVuSans-33"/>
       <use x="147.412109" xlink:href="#DejaVuSans-30"/>
       <use x="211.035156" xlink:href="#DejaVuSans-30"/>
       <use x="274.658203" xlink:href="#DejaVuSans-30"/>
      </g>
     </g>
    </g>
    <g id="ytick_3">
     <g id="line2d_12">
      <g>
       <use style="stroke:#000000;stroke-width:0.8;" x="144" xlink:href="#mc19d2e5797" y="602.64"/>
      </g>
     </g>
     <g id="text_12">
      <!-- −2000 -->
      <g transform="translate(103.170312 606.439219)scale(0.1 -0.1)">
       <use xlink:href="#DejaVuSans-2212"/>
       <use x="83.789062" xlink:href="#DejaVuSans-32"/>
       <use x="147.412109" xlink:href="#DejaVuSans-30"/>
       <use x="211.035156" xlink:href="#DejaVuSans-30"/>
       <use x="274.658203" xlink:href="#DejaVuSans-30"/>
      </g>
     </g>
    </g>
    <g id="ytick_4">
     <g id="line2d_13">
      <g>
       <use style="stroke:#000000;stroke-width:0.8;" x="144" xlink:href="#mc19d2e5797" y="519.48"/>
      </g>
     </g>
     <g id="text_13">
      <!-- −1000 -->
      <g transform="translate(103.170312 523.279219)scale(0.1 -0.1)">
       <use xlink:href="#DejaVuSans-2212"/>
       <use x="83.789062" xlink:href="#DejaVuSans-31"/>
       <use x="147.412109" xlink:href="#DejaVuSans-30"/>
       <use x="211.035156" xlink:href="#DejaVuSans-30"/>
       <use x="274.658203" xlink:href="#DejaVuSans-30"/>
      </g>
     </g>
    </g>
    <g id="ytick_5">
     <g id="line2d_14">
      <g>
       <use style="stroke:#000000;stroke-width:0.8;" x="144" xlink:href="#mc19d2e5797" y="436.32"/>
      </g>
     </g>
     <g id="text_14">
      <!-- 0 -->
      <g transform="translate(130.6375 440.119219)scale(0.1 -0.1)">
       <use xlink:href="#DejaVuSans-30"/>
      </g>
     </g>
    </g>
    <g id="ytick_6">
     <g id="line2d_15">
      <g>
       <use style="stroke:#000000;stroke-width:0.8;" x="144" xlink:href="#mc19d2e5797" y="353.16"/>
      </g>
     </g>
     <g id="text_15">
      <!-- 1000 -->
      <g transform="translate(111.55 356.959219)scale(0.1 -0.1)">
       <use xlink:href="#DejaVuSans-31"/>
       <use x="63.623047" xlink:href="#DejaVuSans-30"/>
       <use x="127.246094" xlink:href="#DejaVuSans-30"/>
       <use x="190.869141" xlink:href="#DejaVuSans-30"/>
      </g>
     </g>
    </g>
    <g id="ytick_7">
     <g id="line2d_16">
      <g>
       <use style="stroke:#000000;stroke-width:0.8;" x="144" xlink:href="#mc19d2e5797" y="270"/>
      </g>
     </g>
     <g id="text_16">
      <!-- 2000 -->
      <g transform="translate(111.55 273.799219)scale(0.1 -0.1)">
       <use xlink:href="#DejaVuSans-32"/>
       <use x="63.623047" xlink:href="#DejaVuSans-30"/>
       <use x="127.246094" xlink:href="#DejaVuSans-30"/>
       <use x="190.869141" xlink:href="#DejaVuSans-30"/>
      </g>
     </g>
    </g>
    <g id="ytick_8">
     <g id="line2d_17">
      <g>
       <use style="stroke:#000000;stroke-width:0.8;" x="144" xlink:href="#mc19d2e5797" y="186.84"/>
      </g>
     </g>
     <g id="text_17">
      <!-- 3000 -->
      <g transform="translate(111.55 190.639219)scale(0.1 -0.1)">
       <use xlink:href="#DejaVuSans-33"/>
       <use x="63.623047" xlink:href="#DejaVuSans-30"/>
       <use x="127.246094" xlink:href="#DejaVuSans-30"/>
       <use x="190.869141" xlink:href="#DejaVuSans-30"/>
      </g>
     </g>
    </g>
    <g id="ytick_9">
     <g id="line2d_18">
      <g>
       <use style="stroke:#000000;stroke-width:0.8;" x="144" xlink:href="#mc19d2e5797" y="103.68"/>
      </g>
     </g>
     <g id="text_18">
      <!-- 4000 -->
      <g transform="translate(111.55 107.479219)scale(0.1 -0.1)">
       <use xlink:href="#DejaVuSans-34"/>
       <use x="63.623047" xlink:href="#DejaVuSans-30"/>
       <use x="127.246094" xlink:href="#DejaVuSans-30"/>
       <use x="190.869141" xlink:href="#DejaVuSans-30"/>
      </g>
     </g>
    </g>
   </g>
   <g id="line2d_19">
    <path clip-path="url(#pecfeae54c3)" d="M 590.4 768.96 
L 590.4 103.68 
" style="fill:none;stroke:#1f77b4;stroke-linecap:square;stroke-width:1.5;"/>
   </g>
   <g id="line2d_20">
    <path clip-path="url(#pecfeae54c3)" d="M 144 436.32 
L 1036.8 436.32 
" style="fill:none;stroke:#1f77b4;stroke-linecap:square;stroke-width:1.5;"/>
   </g>
   <g id="line2d_21">
    <defs>
     <path d="M 0 3 
C 0.795609 3 1.55874 2.683901 2.12132 2.12132 
C 2.683901 1.55874 3 0.795609 3 0 
C 3 -0.795609 2.683901 -1.55874 2.12132 -2.12132 
C 1.55874 -2.683901 0.795609 -3 0 -3 
C -0.795609 -3 -1.55874 -2.683901 -2.12132 -2.12132 
C -2.683901 -1.55874 -3 -0.795609 -3 0 
C -3 0.795609 -2.683901 1.55874 -2.12132 2.12132 
C -1.55874 2.683901 -0.795609 3 0 3 
z
" id="m5fcd5bec37" style="stroke:#008000;"/>
    </defs>
    <g clip-path="url(#pecfeae54c3)">
     <use style="fill:#008000;stroke:#008000;" x="1351.190843" xlink:href="#m5fcd5bec37" y="498.876358"/>
    </g>
   </g>
   <g id="line2d_22">
    <g clip-path="url(#pecfeae54c3)">
     <use style="fill:#008000;stroke:#008000;" x="1351.819083" xlink:href="#m5fcd5bec37" y="346.614436"/>
    </g>
   </g>
   <g id="line2d_23">
    <g clip-path="url(#pecfeae54c3)">
     <use style="fill:#008000;stroke:#008000;" x="1259.239344" xlink:href="#m5fcd5bec37" y="329.8149"/>
    </g>
   </g>
   <g id="line2d_24">
    <g clip-path="url(#pecfeae54c3)">
     <use style="fill:#008000;stroke:#008000;" x="647.447318" xlink:href="#m5fcd5bec37" y="394.716642"/>
    </g>
   </g>
   <g id="line2d_25">
    <g clip-path="url(#pecfeae54c3)">
     <use style="fill:#008000;stroke:#008000;" x="647.447318" xlink:href="#m5fcd5bec37" y="394.716642"/>
    </g>
   </g>
   <g id="line2d_26">
    <g clip-path="url(#pecfeae54c3)">
     <use style="fill:#008000;stroke:#008000;" x="537.654717" xlink:href="#m5fcd5bec37" y="232.338389"/>
    </g>
   </g>
   <g id="line2d_27">
    <g clip-path="url(#pecfeae54c3)">
     <use style="fill:#008000;stroke:#008000;" x="572.341614" xlink:href="#m5fcd5bec37" y="398.188129"/>
    </g>
   </g>
   <g id="line2d_28">
    <g clip-path="url(#pecfeae54c3)">
     <use style="fill:#008000;stroke:#008000;" x="572.341614" xlink:href="#m5fcd5bec37" y="398.188129"/>
    </g>
   </g>
   <g id="line2d_29">
    <g clip-path="url(#pecfeae54c3)">
     <use style="fill:#008000;stroke:#008000;" x="449.754485" xlink:href="#m5fcd5bec37" y="248.820063"/>
    </g>
   </g>
   <g id="line2d_30">
    <g clip-path="url(#pecfeae54c3)">
     <use style="fill:#008000;stroke:#008000;" x="411.434936" xlink:href="#m5fcd5bec37" y="507.320946"/>
    </g>
   </g>
   <g id="line2d_31">
    <defs>
     <path d="M 0 1.333333 
C 0.353604 1.333333 0.692773 1.192845 0.942809 0.942809 
C 1.192845 0.692773 1.333333 0.353604 1.333333 0 
C 1.333333 -0.353604 1.192845 -0.692773 0.942809 -0.942809 
C 0.692773 -1.192845 0.353604 -1.333333 0 -1.333333 
C -0.353604 -1.333333 -0.692773 -1.192845 -0.942809 -0.942809 
C -1.192845 -0.692773 -1.333333 -0.353604 -1.333333 0 
C -1.333333 0.353604 -1.192845 0.692773 -0.942809 0.942809 
C -0.692773 1.192845 -0.353604 1.333333 0 1.333333 
z
" id="mcdc2c9149f" style="stroke:#ff0000;"/>
    </defs>
    <g clip-path="url(#pecfeae54c3)">
     <use style="fill:#ff0000;stroke:#ff0000;" x="1351.190843" xlink:href="#mcdc2c9149f" y="498.876358"/>
     <use style="fill:#ff0000;stroke:#ff0000;" x="1351.819083" xlink:href="#mcdc2c9149f" y="346.614436"/>
     <use style="fill:#ff0000;stroke:#ff0000;" x="1259.239344" xlink:href="#mcdc2c9149f" y="329.8149"/>
     <use style="fill:#ff0000;stroke:#ff0000;" x="1355.752359" xlink:href="#mcdc2c9149f" y="282.838668"/>
     <use style="fill:#ff0000;stroke:#ff0000;" x="1339.054256" xlink:href="#mcdc2c9149f" y="253.542666"/>
     <use style="fill:#ff0000;stroke:#ff0000;" x="652.260557" xlink:href="#mcdc2c9149f" y="399.858314"/>
     <use style="fill:#ff0000;stroke:#ff0000;" x="641.86129" xlink:href="#mcdc2c9149f" y="389.930437"/>
     <use style="fill:#ff0000;stroke:#ff0000;" x="795.509561" xlink:href="#mcdc2c9149f" y="191.873705"/>
     <use style="fill:#ff0000;stroke:#ff0000;" x="768.35108" xlink:href="#mcdc2c9149f" y="196.791188"/>
     <use style="fill:#ff0000;stroke:#ff0000;" x="746.049832" xlink:href="#mcdc2c9149f" y="197.691813"/>
     <use style="fill:#ff0000;stroke:#ff0000;" x="723.321308" xlink:href="#mcdc2c9149f" y="201.376396"/>
     <use style="fill:#ff0000;stroke:#ff0000;" x="537.654717" xlink:href="#mcdc2c9149f" y="232.338389"/>
     <use style="fill:#ff0000;stroke:#ff0000;" x="575.18552" xlink:href="#mcdc2c9149f" y="398.198866"/>
     <use style="fill:#ff0000;stroke:#ff0000;" x="569.45871" xlink:href="#mcdc2c9149f" y="398.295591"/>
     <use style="fill:#ff0000;stroke:#ff0000;" x="449.754485" xlink:href="#mcdc2c9149f" y="248.820063"/>
     <use style="fill:#ff0000;stroke:#ff0000;" x="392.569839" xlink:href="#mcdc2c9149f" y="286.55431"/>
     <use style="fill:#ff0000;stroke:#ff0000;" x="415.606883" xlink:href="#mcdc2c9149f" y="317.815455"/>
     <use style="fill:#ff0000;stroke:#ff0000;" x="418.733626" xlink:href="#mcdc2c9149f" y="343.007697"/>
     <use style="fill:#ff0000;stroke:#ff0000;" x="401.613532" xlink:href="#mcdc2c9149f" y="364.883259"/>
     <use style="fill:#ff0000;stroke:#ff0000;" x="454.618158" xlink:href="#mcdc2c9149f" y="392.424349"/>
     <use style="fill:#ff0000;stroke:#ff0000;" x="441.039687" xlink:href="#mcdc2c9149f" y="414.213097"/>
     <use style="fill:#ff0000;stroke:#ff0000;" x="418.062315" xlink:href="#mcdc2c9149f" y="424.519917"/>
     <use style="fill:#ff0000;stroke:#ff0000;" x="420.781934" xlink:href="#mcdc2c9149f" y="437.940099"/>
     <use style="fill:#ff0000;stroke:#ff0000;" x="395.856092" xlink:href="#mcdc2c9149f" y="445.543723"/>
     <use style="fill:#ff0000;stroke:#ff0000;" x="411.434936" xlink:href="#mcdc2c9149f" y="507.320946"/>
     <use style="fill:#ff0000;stroke:#ff0000;" x="469.068218" xlink:href="#mcdc2c9149f" y="491.588821"/>
     <use style="fill:#ff0000;stroke:#ff0000;" x="434.599675" xlink:href="#mcdc2c9149f" y="515.228269"/>
     <use style="fill:#ff0000;stroke:#ff0000;" x="451.692551" xlink:href="#mcdc2c9149f" y="514.960825"/>
     <use style="fill:#ff0000;stroke:#ff0000;" x="469.771196" xlink:href="#mcdc2c9149f" y="512.837521"/>
     <use style="fill:#ff0000;stroke:#ff0000;" x="457.398823" xlink:href="#mcdc2c9149f" y="530.010429"/>
     <use style="fill:#ff0000;stroke:#ff0000;" x="456.56079" xlink:href="#mcdc2c9149f" y="540.843038"/>
     <use style="fill:#ff0000;stroke:#ff0000;" x="472.455406" xlink:href="#mcdc2c9149f" y="539.053018"/>
     <use style="fill:#ff0000;stroke:#ff0000;" x="458.631678" xlink:href="#mcdc2c9149f" y="563.490237"/>
     <use style="fill:#ff0000;stroke:#ff0000;" x="537.390973" xlink:href="#mcdc2c9149f" y="502.713992"/>
     <use style="fill:#ff0000;stroke:#ff0000;" x="572.626739" xlink:href="#mcdc2c9149f" y="497.884481"/>
     <use style="fill:#ff0000;stroke:#ff0000;" x="571.121465" xlink:href="#mcdc2c9149f" y="626.130392"/>
     <use style="fill:#ff0000;stroke:#ff0000;" x="598.542918" xlink:href="#mcdc2c9149f" y="642.280328"/>
     <use style="fill:#ff0000;stroke:#ff0000;" x="668.181308" xlink:href="#mcdc2c9149f" y="624.976945"/>
     <use style="fill:#ff0000;stroke:#ff0000;" x="668.37783" xlink:href="#mcdc2c9149f" y="593.95574"/>
     <use style="fill:#ff0000;stroke:#ff0000;" x="697.020138" xlink:href="#mcdc2c9149f" y="597.095315"/>
     <use style="fill:#ff0000;stroke:#ff0000;" x="746.608905" xlink:href="#mcdc2c9149f" y="601.023364"/>
     <use style="fill:#ff0000;stroke:#ff0000;" x="784.597586" xlink:href="#mcdc2c9149f" y="584.139856"/>
     <use style="fill:#ff0000;stroke:#ff0000;" x="803.925197" xlink:href="#mcdc2c9149f" y="582.59777"/>
     <use style="fill:#ff0000;stroke:#ff0000;" x="833.998532" xlink:href="#mcdc2c9149f" y="586.369871"/>
     <use style="fill:#ff0000;stroke:#ff0000;" x="837.010862" xlink:href="#mcdc2c9149f" y="571.988885"/>
     <use style="fill:#ff0000;stroke:#ff0000;" x="874.44282" xlink:href="#mcdc2c9149f" y="576.081394"/>
     <use style="fill:#ff0000;stroke:#ff0000;" x="874.132042" xlink:href="#mcdc2c9149f" y="560.00672"/>
     <use style="fill:#ff0000;stroke:#ff0000;" x="894.221687" xlink:href="#mcdc2c9149f" y="553.234329"/>
     <use style="fill:#ff0000;stroke:#ff0000;" x="937.113192" xlink:href="#mcdc2c9149f" y="552.871002"/>
     <use style="fill:#ff0000;stroke:#ff0000;" x="1059.077523" xlink:href="#mcdc2c9149f" y="531.329239"/>
     <use style="fill:#ff0000;stroke:#ff0000;" x="1083.950303" xlink:href="#mcdc2c9149f" y="515.961668"/>
     <use style="fill:#ff0000;stroke:#ff0000;" x="1129.945471" xlink:href="#mcdc2c9149f" y="501.235115"/>
    </g>
   </g>
   <g id="line2d_32">
    <defs>
     <path d="M -0.5 0.5 
L 0.5 0.5 
L 0.5 -0.5 
L -0.5 -0.5 
z
" id="m4a267990ca" style="stroke:#1f77b4;stroke-linejoin:miter;"/>
    </defs>
    <g clip-path="url(#pecfeae54c3)">
     <use style="fill:#1f77b4;stroke:#1f77b4;stroke-linejoin:miter;" x="1351.190843" xlink:href="#m4a267990ca" y="498.876358"/>
     <use style="fill:#1f77b4;stroke:#1f77b4;stroke-linejoin:miter;" x="1351.819083" xlink:href="#m4a267990ca" y="346.614436"/>
     <use style="fill:#1f77b4;stroke:#1f77b4;stroke-linejoin:miter;" x="1259.239344" xlink:href="#m4a267990ca" y="329.8149"/>
     <use style="fill:#1f77b4;stroke:#1f77b4;stroke-linejoin:miter;" x="1355.752359" xlink:href="#m4a267990ca" y="282.838668"/>
     <use style="fill:#1f77b4;stroke:#1f77b4;stroke-linejoin:miter;" x="1339.054256" xlink:href="#m4a267990ca" y="253.542666"/>
     <use style="fill:#1f77b4;stroke:#1f77b4;stroke-linejoin:miter;" x="652.260557" xlink:href="#m4a267990ca" y="399.858314"/>
     <use style="fill:#1f77b4;stroke:#1f77b4;stroke-linejoin:miter;" x="648.686316" xlink:href="#m4a267990ca" y="398.125644"/>
     <use style="fill:#1f77b4;stroke:#1f77b4;stroke-linejoin:miter;" x="646.482729" xlink:href="#m4a267990ca" y="395.408937"/>
     <use style="fill:#1f77b4;stroke:#1f77b4;stroke-linejoin:miter;" x="643.837756" xlink:href="#m4a267990ca" y="393.006869"/>
     <use style="fill:#1f77b4;stroke:#1f77b4;stroke-linejoin:miter;" x="641.86129" xlink:href="#m4a267990ca" y="389.930437"/>
     <use style="fill:#1f77b4;stroke:#1f77b4;stroke-linejoin:miter;" x="795.509561" xlink:href="#m4a267990ca" y="191.873705"/>
     <use style="fill:#1f77b4;stroke:#1f77b4;stroke-linejoin:miter;" x="768.35108" xlink:href="#m4a267990ca" y="196.791188"/>
     <use style="fill:#1f77b4;stroke:#1f77b4;stroke-linejoin:miter;" x="746.049832" xlink:href="#m4a267990ca" y="197.691813"/>
     <use style="fill:#1f77b4;stroke:#1f77b4;stroke-linejoin:miter;" x="723.321308" xlink:href="#m4a267990ca" y="201.376396"/>
     <use style="fill:#1f77b4;stroke:#1f77b4;stroke-linejoin:miter;" x="702.232743" xlink:href="#m4a267990ca" y="205.010839"/>
     <use style="fill:#1f77b4;stroke:#1f77b4;stroke-linejoin:miter;" x="682.623316" xlink:href="#m4a267990ca" y="207.75846"/>
     <use style="fill:#1f77b4;stroke:#1f77b4;stroke-linejoin:miter;" x="664.037263" xlink:href="#m4a267990ca" y="211.013885"/>
     <use style="fill:#1f77b4;stroke:#1f77b4;stroke-linejoin:miter;" x="646.466724" xlink:href="#m4a267990ca" y="213.614681"/>
     <use style="fill:#1f77b4;stroke:#1f77b4;stroke-linejoin:miter;" x="629.138303" xlink:href="#m4a267990ca" y="215.663978"/>
     <use style="fill:#1f77b4;stroke:#1f77b4;stroke-linejoin:miter;" x="612.713337" xlink:href="#m4a267990ca" y="218.992753"/>
     <use style="fill:#1f77b4;stroke:#1f77b4;stroke-linejoin:miter;" x="596.997675" xlink:href="#m4a267990ca" y="221.740353"/>
     <use style="fill:#1f77b4;stroke:#1f77b4;stroke-linejoin:miter;" x="581.963625" xlink:href="#m4a267990ca" y="224.89598"/>
     <use style="fill:#1f77b4;stroke:#1f77b4;stroke-linejoin:miter;" x="566.884587" xlink:href="#m4a267990ca" y="226.134606"/>
     <use style="fill:#1f77b4;stroke:#1f77b4;stroke-linejoin:miter;" x="552.080632" xlink:href="#m4a267990ca" y="228.207593"/>
     <use style="fill:#1f77b4;stroke:#1f77b4;stroke-linejoin:miter;" x="537.654717" xlink:href="#m4a267990ca" y="232.338389"/>
     <use style="fill:#1f77b4;stroke:#1f77b4;stroke-linejoin:miter;" x="575.18552" xlink:href="#m4a267990ca" y="398.198866"/>
     <use style="fill:#1f77b4;stroke:#1f77b4;stroke-linejoin:miter;" x="573.017485" xlink:href="#m4a267990ca" y="399.774163"/>
     <use style="fill:#1f77b4;stroke:#1f77b4;stroke-linejoin:miter;" x="569.45871" xlink:href="#m4a267990ca" y="398.295591"/>
     <use style="fill:#1f77b4;stroke:#1f77b4;stroke-linejoin:miter;" x="449.754485" xlink:href="#m4a267990ca" y="248.820063"/>
     <use style="fill:#1f77b4;stroke:#1f77b4;stroke-linejoin:miter;" x="434.180932" xlink:href="#m4a267990ca" y="252.046632"/>
     <use style="fill:#1f77b4;stroke:#1f77b4;stroke-linejoin:miter;" x="418.276235" xlink:href="#m4a267990ca" y="255.151001"/>
     <use style="fill:#1f77b4;stroke:#1f77b4;stroke-linejoin:miter;" x="407.692636" xlink:href="#m4a267990ca" y="264.488173"/>
     <use style="fill:#1f77b4;stroke:#1f77b4;stroke-linejoin:miter;" x="395.901744" xlink:href="#m4a267990ca" y="272.413482"/>
     <use style="fill:#1f77b4;stroke:#1f77b4;stroke-linejoin:miter;" x="392.569839" xlink:href="#m4a267990ca" y="286.55431"/>
     <use style="fill:#1f77b4;stroke:#1f77b4;stroke-linejoin:miter;" x="415.606883" xlink:href="#m4a267990ca" y="317.815455"/>
     <use style="fill:#1f77b4;stroke:#1f77b4;stroke-linejoin:miter;" x="418.733626" xlink:href="#m4a267990ca" y="343.007697"/>
     <use style="fill:#1f77b4;stroke:#1f77b4;stroke-linejoin:miter;" x="419.274242" xlink:href="#m4a267990ca" y="353.411037"/>
     <use style="fill:#1f77b4;stroke:#1f77b4;stroke-linejoin:miter;" x="406.811565" xlink:href="#m4a267990ca" y="357.386489"/>
     <use style="fill:#1f77b4;stroke:#1f77b4;stroke-linejoin:miter;" x="401.613532" xlink:href="#m4a267990ca" y="364.883259"/>
     <use style="fill:#1f77b4;stroke:#1f77b4;stroke-linejoin:miter;" x="454.618158" xlink:href="#m4a267990ca" y="392.424349"/>
     <use style="fill:#1f77b4;stroke:#1f77b4;stroke-linejoin:miter;" x="456.070958" xlink:href="#m4a267990ca" y="399.144041"/>
     <use style="fill:#1f77b4;stroke:#1f77b4;stroke-linejoin:miter;" x="457.395074" xlink:href="#m4a267990ca" y="405.456564"/>
     <use style="fill:#1f77b4;stroke:#1f77b4;stroke-linejoin:miter;" x="458.121189" xlink:href="#m4a267990ca" y="411.429673"/>
     <use style="fill:#1f77b4;stroke:#1f77b4;stroke-linejoin:miter;" x="441.039687" xlink:href="#m4a267990ca" y="414.213097"/>
     <use style="fill:#1f77b4;stroke:#1f77b4;stroke-linejoin:miter;" x="418.062315" xlink:href="#m4a267990ca" y="424.519917"/>
     <use style="fill:#1f77b4;stroke:#1f77b4;stroke-linejoin:miter;" x="419.377366" xlink:href="#m4a267990ca" y="431.626127"/>
     <use style="fill:#1f77b4;stroke:#1f77b4;stroke-linejoin:miter;" x="420.781934" xlink:href="#m4a267990ca" y="437.940099"/>
     <use style="fill:#1f77b4;stroke:#1f77b4;stroke-linejoin:miter;" x="395.856092" xlink:href="#m4a267990ca" y="445.543723"/>
     <use style="fill:#1f77b4;stroke:#1f77b4;stroke-linejoin:miter;" x="396.071547" xlink:href="#m4a267990ca" y="453.138663"/>
     <use style="fill:#1f77b4;stroke:#1f77b4;stroke-linejoin:miter;" x="398.820011" xlink:href="#m4a267990ca" y="460.690017"/>
     <use style="fill:#1f77b4;stroke:#1f77b4;stroke-linejoin:miter;" x="401.785641" xlink:href="#m4a267990ca" y="468.001942"/>
     <use style="fill:#1f77b4;stroke:#1f77b4;stroke-linejoin:miter;" x="403.05416" xlink:href="#m4a267990ca" y="475.856527"/>
     <use style="fill:#1f77b4;stroke:#1f77b4;stroke-linejoin:miter;" x="404.750019" xlink:href="#m4a267990ca" y="483.406079"/>
     <use style="fill:#1f77b4;stroke:#1f77b4;stroke-linejoin:miter;" x="407.976745" xlink:href="#m4a267990ca" y="490.853491"/>
     <use style="fill:#1f77b4;stroke:#1f77b4;stroke-linejoin:miter;" x="411.434936" xlink:href="#m4a267990ca" y="507.320946"/>
     <use style="fill:#1f77b4;stroke:#1f77b4;stroke-linejoin:miter;" x="469.068218" xlink:href="#m4a267990ca" y="491.588821"/>
     <use style="fill:#1f77b4;stroke:#1f77b4;stroke-linejoin:miter;" x="434.599675" xlink:href="#m4a267990ca" y="515.228269"/>
     <use style="fill:#1f77b4;stroke:#1f77b4;stroke-linejoin:miter;" x="451.692551" xlink:href="#m4a267990ca" y="514.960825"/>
     <use style="fill:#1f77b4;stroke:#1f77b4;stroke-linejoin:miter;" x="469.771196" xlink:href="#m4a267990ca" y="512.837521"/>
     <use style="fill:#1f77b4;stroke:#1f77b4;stroke-linejoin:miter;" x="457.398823" xlink:href="#m4a267990ca" y="530.010429"/>
     <use style="fill:#1f77b4;stroke:#1f77b4;stroke-linejoin:miter;" x="456.56079" xlink:href="#m4a267990ca" y="540.843038"/>
     <use style="fill:#1f77b4;stroke:#1f77b4;stroke-linejoin:miter;" x="472.455406" xlink:href="#m4a267990ca" y="539.053018"/>
     <use style="fill:#1f77b4;stroke:#1f77b4;stroke-linejoin:miter;" x="458.631678" xlink:href="#m4a267990ca" y="563.490237"/>
     <use style="fill:#1f77b4;stroke:#1f77b4;stroke-linejoin:miter;" x="537.390973" xlink:href="#m4a267990ca" y="502.713992"/>
     <use style="fill:#1f77b4;stroke:#1f77b4;stroke-linejoin:miter;" x="548.056533" xlink:href="#m4a267990ca" y="497.053459"/>
     <use style="fill:#1f77b4;stroke:#1f77b4;stroke-linejoin:miter;" x="552.875626" xlink:href="#m4a267990ca" y="497.898747"/>
     <use style="fill:#1f77b4;stroke:#1f77b4;stroke-linejoin:miter;" x="560.250945" xlink:href="#m4a267990ca" y="494.325006"/>
     <use style="fill:#1f77b4;stroke:#1f77b4;stroke-linejoin:miter;" x="565.538424" xlink:href="#m4a267990ca" y="493.12589"/>
     <use style="fill:#1f77b4;stroke:#1f77b4;stroke-linejoin:miter;" x="569.513428" xlink:href="#m4a267990ca" y="493.964744"/>
     <use style="fill:#1f77b4;stroke:#1f77b4;stroke-linejoin:miter;" x="572.626739" xlink:href="#m4a267990ca" y="497.884481"/>
     <use style="fill:#1f77b4;stroke:#1f77b4;stroke-linejoin:miter;" x="571.121465" xlink:href="#m4a267990ca" y="626.130392"/>
     <use style="fill:#1f77b4;stroke:#1f77b4;stroke-linejoin:miter;" x="584.358948" xlink:href="#m4a267990ca" y="632.796308"/>
     <use style="fill:#1f77b4;stroke:#1f77b4;stroke-linejoin:miter;" x="598.542918" xlink:href="#m4a267990ca" y="642.280328"/>
     <use style="fill:#1f77b4;stroke:#1f77b4;stroke-linejoin:miter;" x="613.715752" xlink:href="#m4a267990ca" y="641.343799"/>
     <use style="fill:#1f77b4;stroke:#1f77b4;stroke-linejoin:miter;" x="628.437247" xlink:href="#m4a267990ca" y="640.0121"/>
     <use style="fill:#1f77b4;stroke:#1f77b4;stroke-linejoin:miter;" x="668.181308" xlink:href="#m4a267990ca" y="624.976945"/>
     <use style="fill:#1f77b4;stroke:#1f77b4;stroke-linejoin:miter;" x="668.37783" xlink:href="#m4a267990ca" y="593.95574"/>
     <use style="fill:#1f77b4;stroke:#1f77b4;stroke-linejoin:miter;" x="683.866031" xlink:href="#m4a267990ca" y="598.550375"/>
     <use style="fill:#1f77b4;stroke:#1f77b4;stroke-linejoin:miter;" x="697.020138" xlink:href="#m4a267990ca" y="597.095315"/>
     <use style="fill:#1f77b4;stroke:#1f77b4;stroke-linejoin:miter;" x="746.608905" xlink:href="#m4a267990ca" y="601.023364"/>
     <use style="fill:#1f77b4;stroke:#1f77b4;stroke-linejoin:miter;" x="755.703715" xlink:href="#m4a267990ca" y="592.220371"/>
     <use style="fill:#1f77b4;stroke:#1f77b4;stroke-linejoin:miter;" x="767.143608" xlink:href="#m4a267990ca" y="585.920855"/>
     <use style="fill:#1f77b4;stroke:#1f77b4;stroke-linejoin:miter;" x="784.597586" xlink:href="#m4a267990ca" y="584.139856"/>
     <use style="fill:#1f77b4;stroke:#1f77b4;stroke-linejoin:miter;" x="803.925197" xlink:href="#m4a267990ca" y="582.59777"/>
     <use style="fill:#1f77b4;stroke:#1f77b4;stroke-linejoin:miter;" x="833.998532" xlink:href="#m4a267990ca" y="586.369871"/>
     <use style="fill:#1f77b4;stroke:#1f77b4;stroke-linejoin:miter;" x="837.010862" xlink:href="#m4a267990ca" y="571.988885"/>
     <use style="fill:#1f77b4;stroke:#1f77b4;stroke-linejoin:miter;" x="874.44282" xlink:href="#m4a267990ca" y="576.081394"/>
     <use style="fill:#1f77b4;stroke:#1f77b4;stroke-linejoin:miter;" x="874.132042" xlink:href="#m4a267990ca" y="560.00672"/>
     <use style="fill:#1f77b4;stroke:#1f77b4;stroke-linejoin:miter;" x="894.221687" xlink:href="#m4a267990ca" y="553.234329"/>
     <use style="fill:#1f77b4;stroke:#1f77b4;stroke-linejoin:miter;" x="937.113192" xlink:href="#m4a267990ca" y="552.871002"/>
     <use style="fill:#1f77b4;stroke:#1f77b4;stroke-linejoin:miter;" x="1059.077523" xlink:href="#m4a267990ca" y="531.329239"/>
     <use style="fill:#1f77b4;stroke:#1f77b4;stroke-linejoin:miter;" x="1083.950303" xlink:href="#m4a267990ca" y="515.961668"/>
     <use style="fill:#1f77b4;stroke:#1f77b4;stroke-linejoin:miter;" x="1129.945471" xlink:href="#m4a267990ca" y="501.235115"/>
    </g>
   </g>
   <g id="patch_3">
    <path d="M 144 768.96 
L 144 103.68 
" style="fill:none;stroke:#000000;stroke-linecap:square;stroke-linejoin:miter;stroke-width:0.8;"/>
   </g>
   <g id="patch_4">
    <path d="M 1036.8 768.96 
L 1036.8 103.68 
" style="fill:none;stroke:#000000;stroke-linecap:square;stroke-linejoin:miter;stroke-width:0.8;"/>
   </g>
   <g id="patch_5">
    <path d="M 144 768.96 
L 1036.8 768.96 
" style="fill:none;stroke:#000000;stroke-linecap:square;stroke-linejoin:miter;stroke-width:0.8;"/>
   </g>
   <g id="patch_6">
    <path d="M 144 103.68 
L 1036.8 103.68 
" style="fill:none;stroke:#000000;stroke-linecap:square;stroke-linejoin:miter;stroke-width:0.8;"/>
   </g>
  </g>
 </g>
 <defs>
  <clipPath id="pecfeae54c3">
   <rect height="665.28" width="892.8" x="144" y="103.68"/>
  </clipPath>
 </defs>
</svg>
