<?xml version="1.0" encoding="utf-8" standalone="no"?>
<!DOCTYPE svg PUBLIC "-//W3C//DTD SVG 1.1//EN"
  "http://www.w3.org/Graphics/SVG/1.1/DTD/svg11.dtd">
<!-- Created with matplotlib (http://matplotlib.org/) -->
<svg height="864pt" version="1.1" viewBox="0 0 1152 864" width="1152pt" xmlns="http://www.w3.org/2000/svg" xmlns:xlink="http://www.w3.org/1999/xlink">
 <defs>
  <style type="text/css">
*{stroke-linecap:butt;stroke-linejoin:round;}
  </style>
 </defs>
 <g id="figure_1">
  <g id="patch_1">
   <path d="M 0 864 
L 1152 864 
L 1152 0 
L 0 0 
z
" style="fill:#ffffff;"/>
  </g>
  <g id="axes_1">
   <g id="patch_2">
    <path d="M 144 768.96 
L 1036.8 768.96 
L 1036.8 103.68 
L 144 103.68 
z
" style="fill:#ffffff;"/>
   </g>
   <g id="matplotlib.axis_1">
    <g id="xtick_1">
     <g id="line2d_1">
      <defs>
       <path d="M 0 0 
L 0 3.5 
" id="m585de64c46" style="stroke:#000000;stroke-width:0.8;"/>
      </defs>
      <g>
       <use style="stroke:#000000;stroke-width:0.8;" x="144" xlink:href="#m585de64c46" y="768.96"/>
      </g>
     </g>
     <g id="text_1">
      <!-- −4000 -->
      <defs>
       <path d="M 10.59375 35.5 
L 73.1875 35.5 
L 73.1875 27.203125 
L 10.59375 27.203125 
z
" id="DejaVuSans-2212"/>
       <path d="M 37.796875 64.3125 
L 12.890625 25.390625 
L 37.796875 25.390625 
z
M 35.203125 72.90625 
L 47.609375 72.90625 
L 47.609375 25.390625 
L 58.015625 25.390625 
L 58.015625 17.1875 
L 47.609375 17.1875 
L 47.609375 0 
L 37.796875 0 
L 37.796875 17.1875 
L 4.890625 17.1875 
L 4.890625 26.703125 
z
" id="DejaVuSans-34"/>
       <path d="M 31.78125 66.40625 
Q 24.171875 66.40625 20.328125 58.90625 
Q 16.5 51.421875 16.5 36.375 
Q 16.5 21.390625 20.328125 13.890625 
Q 24.171875 6.390625 31.78125 6.390625 
Q 39.453125 6.390625 43.28125 13.890625 
Q 47.125 21.390625 47.125 36.375 
Q 47.125 51.421875 43.28125 58.90625 
Q 39.453125 66.40625 31.78125 66.40625 
z
M 31.78125 74.21875 
Q 44.046875 74.21875 50.515625 64.515625 
Q 56.984375 54.828125 56.984375 36.375 
Q 56.984375 17.96875 50.515625 8.265625 
Q 44.046875 -1.421875 31.78125 -1.421875 
Q 19.53125 -1.421875 13.0625 8.265625 
Q 6.59375 17.96875 6.59375 36.375 
Q 6.59375 54.828125 13.0625 64.515625 
Q 19.53125 74.21875 31.78125 74.21875 
z
" id="DejaVuSans-30"/>
      </defs>
      <g transform="translate(127.085156 783.558437)scale(0.1 -0.1)">
       <use xlink:href="#DejaVuSans-2212"/>
       <use x="83.789062" xlink:href="#DejaVuSans-34"/>
       <use x="147.412109" xlink:href="#DejaVuSans-30"/>
       <use x="211.035156" xlink:href="#DejaVuSans-30"/>
       <use x="274.658203" xlink:href="#DejaVuSans-30"/>
      </g>
     </g>
    </g>
    <g id="xtick_2">
     <g id="line2d_2">
      <g>
       <use style="stroke:#000000;stroke-width:0.8;" x="255.6" xlink:href="#m585de64c46" y="768.96"/>
      </g>
     </g>
     <g id="text_2">
      <!-- −3000 -->
      <defs>
       <path d="M 40.578125 39.3125 
Q 47.65625 37.796875 51.625 33 
Q 55.609375 28.21875 55.609375 21.1875 
Q 55.609375 10.40625 48.1875 4.484375 
Q 40.765625 -1.421875 27.09375 -1.421875 
Q 22.515625 -1.421875 17.65625 -0.515625 
Q 12.796875 0.390625 7.625 2.203125 
L 7.625 11.71875 
Q 11.71875 9.328125 16.59375 8.109375 
Q 21.484375 6.890625 26.8125 6.890625 
Q 36.078125 6.890625 40.9375 10.546875 
Q 45.796875 14.203125 45.796875 21.1875 
Q 45.796875 27.640625 41.28125 31.265625 
Q 36.765625 34.90625 28.71875 34.90625 
L 20.21875 34.90625 
L 20.21875 43.015625 
L 29.109375 43.015625 
Q 36.375 43.015625 40.234375 45.921875 
Q 44.09375 48.828125 44.09375 54.296875 
Q 44.09375 59.90625 40.109375 62.90625 
Q 36.140625 65.921875 28.71875 65.921875 
Q 24.65625 65.921875 20.015625 65.03125 
Q 15.375 64.15625 9.8125 62.3125 
L 9.8125 71.09375 
Q 15.4375 72.65625 20.34375 73.4375 
Q 25.25 74.21875 29.59375 74.21875 
Q 40.828125 74.21875 47.359375 69.109375 
Q 53.90625 64.015625 53.90625 55.328125 
Q 53.90625 49.265625 50.4375 45.09375 
Q 46.96875 40.921875 40.578125 39.3125 
z
" id="DejaVuSans-33"/>
      </defs>
      <g transform="translate(238.685156 783.558437)scale(0.1 -0.1)">
       <use xlink:href="#DejaVuSans-2212"/>
       <use x="83.789062" xlink:href="#DejaVuSans-33"/>
       <use x="147.412109" xlink:href="#DejaVuSans-30"/>
       <use x="211.035156" xlink:href="#DejaVuSans-30"/>
       <use x="274.658203" xlink:href="#DejaVuSans-30"/>
      </g>
     </g>
    </g>
    <g id="xtick_3">
     <g id="line2d_3">
      <g>
       <use style="stroke:#000000;stroke-width:0.8;" x="367.2" xlink:href="#m585de64c46" y="768.96"/>
      </g>
     </g>
     <g id="text_3">
      <!-- −2000 -->
      <defs>
       <path d="M 19.1875 8.296875 
L 53.609375 8.296875 
L 53.609375 0 
L 7.328125 0 
L 7.328125 8.296875 
Q 12.9375 14.109375 22.625 23.890625 
Q 32.328125 33.6875 34.8125 36.53125 
Q 39.546875 41.84375 41.421875 45.53125 
Q 43.3125 49.21875 43.3125 52.78125 
Q 43.3125 58.59375 39.234375 62.25 
Q 35.15625 65.921875 28.609375 65.921875 
Q 23.96875 65.921875 18.8125 64.3125 
Q 13.671875 62.703125 7.8125 59.421875 
L 7.8125 69.390625 
Q 13.765625 71.78125 18.9375 73 
Q 24.125 74.21875 28.421875 74.21875 
Q 39.75 74.21875 46.484375 68.546875 
Q 53.21875 62.890625 53.21875 53.421875 
Q 53.21875 48.921875 51.53125 44.890625 
Q 49.859375 40.875 45.40625 35.40625 
Q 44.1875 33.984375 37.640625 27.21875 
Q 31.109375 20.453125 19.1875 8.296875 
z
" id="DejaVuSans-32"/>
      </defs>
      <g transform="translate(350.285156 783.558437)scale(0.1 -0.1)">
       <use xlink:href="#DejaVuSans-2212"/>
       <use x="83.789062" xlink:href="#DejaVuSans-32"/>
       <use x="147.412109" xlink:href="#DejaVuSans-30"/>
       <use x="211.035156" xlink:href="#DejaVuSans-30"/>
       <use x="274.658203" xlink:href="#DejaVuSans-30"/>
      </g>
     </g>
    </g>
    <g id="xtick_4">
     <g id="line2d_4">
      <g>
       <use style="stroke:#000000;stroke-width:0.8;" x="478.8" xlink:href="#m585de64c46" y="768.96"/>
      </g>
     </g>
     <g id="text_4">
      <!-- −1000 -->
      <defs>
       <path d="M 12.40625 8.296875 
L 28.515625 8.296875 
L 28.515625 63.921875 
L 10.984375 60.40625 
L 10.984375 69.390625 
L 28.421875 72.90625 
L 38.28125 72.90625 
L 38.28125 8.296875 
L 54.390625 8.296875 
L 54.390625 0 
L 12.40625 0 
z
" id="DejaVuSans-31"/>
      </defs>
      <g transform="translate(461.885156 783.558437)scale(0.1 -0.1)">
       <use xlink:href="#DejaVuSans-2212"/>
       <use x="83.789062" xlink:href="#DejaVuSans-31"/>
       <use x="147.412109" xlink:href="#DejaVuSans-30"/>
       <use x="211.035156" xlink:href="#DejaVuSans-30"/>
       <use x="274.658203" xlink:href="#DejaVuSans-30"/>
      </g>
     </g>
    </g>
    <g id="xtick_5">
     <g id="line2d_5">
      <g>
       <use style="stroke:#000000;stroke-width:0.8;" x="590.4" xlink:href="#m585de64c46" y="768.96"/>
      </g>
     </g>
     <g id="text_5">
      <!-- 0 -->
      <g transform="translate(587.21875 783.558437)scale(0.1 -0.1)">
       <use xlink:href="#DejaVuSans-30"/>
      </g>
     </g>
    </g>
    <g id="xtick_6">
     <g id="line2d_6">
      <g>
       <use style="stroke:#000000;stroke-width:0.8;" x="702" xlink:href="#m585de64c46" y="768.96"/>
      </g>
     </g>
     <g id="text_6">
      <!-- 1000 -->
      <g transform="translate(689.275 783.558437)scale(0.1 -0.1)">
       <use xlink:href="#DejaVuSans-31"/>
       <use x="63.623047" xlink:href="#DejaVuSans-30"/>
       <use x="127.246094" xlink:href="#DejaVuSans-30"/>
       <use x="190.869141" xlink:href="#DejaVuSans-30"/>
      </g>
     </g>
    </g>
    <g id="xtick_7">
     <g id="line2d_7">
      <g>
       <use style="stroke:#000000;stroke-width:0.8;" x="813.6" xlink:href="#m585de64c46" y="768.96"/>
      </g>
     </g>
     <g id="text_7">
      <!-- 2000 -->
      <g transform="translate(800.875 783.558437)scale(0.1 -0.1)">
       <use xlink:href="#DejaVuSans-32"/>
       <use x="63.623047" xlink:href="#DejaVuSans-30"/>
       <use x="127.246094" xlink:href="#DejaVuSans-30"/>
       <use x="190.869141" xlink:href="#DejaVuSans-30"/>
      </g>
     </g>
    </g>
    <g id="xtick_8">
     <g id="line2d_8">
      <g>
       <use style="stroke:#000000;stroke-width:0.8;" x="925.2" xlink:href="#m585de64c46" y="768.96"/>
      </g>
     </g>
     <g id="text_8">
      <!-- 3000 -->
      <g transform="translate(912.475 783.558437)scale(0.1 -0.1)">
       <use xlink:href="#DejaVuSans-33"/>
       <use x="63.623047" xlink:href="#DejaVuSans-30"/>
       <use x="127.246094" xlink:href="#DejaVuSans-30"/>
       <use x="190.869141" xlink:href="#DejaVuSans-30"/>
      </g>
     </g>
    </g>
    <g id="xtick_9">
     <g id="line2d_9">
      <g>
       <use style="stroke:#000000;stroke-width:0.8;" x="1036.8" xlink:href="#m585de64c46" y="768.96"/>
      </g>
     </g>
     <g id="text_9">
      <!-- 4000 -->
      <g transform="translate(1024.075 783.558437)scale(0.1 -0.1)">
       <use xlink:href="#DejaVuSans-34"/>
       <use x="63.623047" xlink:href="#DejaVuSans-30"/>
       <use x="127.246094" xlink:href="#DejaVuSans-30"/>
       <use x="190.869141" xlink:href="#DejaVuSans-30"/>
      </g>
     </g>
    </g>
   </g>
   <g id="matplotlib.axis_2">
    <g id="ytick_1">
     <g id="line2d_10">
      <defs>
       <path d="M 0 0 
L -3.5 0 
" id="mdcceb00164" style="stroke:#000000;stroke-width:0.8;"/>
      </defs>
      <g>
       <use style="stroke:#000000;stroke-width:0.8;" x="144" xlink:href="#mdcceb00164" y="768.96"/>
      </g>
     </g>
     <g id="text_10">
      <!-- −4000 -->
      <g transform="translate(103.170312 772.759219)scale(0.1 -0.1)">
       <use xlink:href="#DejaVuSans-2212"/>
       <use x="83.789062" xlink:href="#DejaVuSans-34"/>
       <use x="147.412109" xlink:href="#DejaVuSans-30"/>
       <use x="211.035156" xlink:href="#DejaVuSans-30"/>
       <use x="274.658203" xlink:href="#DejaVuSans-30"/>
      </g>
     </g>
    </g>
    <g id="ytick_2">
     <g id="line2d_11">
      <g>
       <use style="stroke:#000000;stroke-width:0.8;" x="144" xlink:href="#mdcceb00164" y="685.8"/>
      </g>
     </g>
     <g id="text_11">
      <!-- −3000 -->
      <g transform="translate(103.170312 689.599219)scale(0.1 -0.1)">
       <use xlink:href="#DejaVuSans-2212"/>
       <use x="83.789062" xlink:href="#DejaVuSans-33"/>
       <use x="147.412109" xlink:href="#DejaVuSans-30"/>
       <use x="211.035156" xlink:href="#DejaVuSans-30"/>
       <use x="274.658203" xlink:href="#DejaVuSans-30"/>
      </g>
     </g>
    </g>
    <g id="ytick_3">
     <g id="line2d_12">
      <g>
       <use style="stroke:#000000;stroke-width:0.8;" x="144" xlink:href="#mdcceb00164" y="602.64"/>
      </g>
     </g>
     <g id="text_12">
      <!-- −2000 -->
      <g transform="translate(103.170312 606.439219)scale(0.1 -0.1)">
       <use xlink:href="#DejaVuSans-2212"/>
       <use x="83.789062" xlink:href="#DejaVuSans-32"/>
       <use x="147.412109" xlink:href="#DejaVuSans-30"/>
       <use x="211.035156" xlink:href="#DejaVuSans-30"/>
       <use x="274.658203" xlink:href="#DejaVuSans-30"/>
      </g>
     </g>
    </g>
    <g id="ytick_4">
     <g id="line2d_13">
      <g>
       <use style="stroke:#000000;stroke-width:0.8;" x="144" xlink:href="#mdcceb00164" y="519.48"/>
      </g>
     </g>
     <g id="text_13">
      <!-- −1000 -->
      <g transform="translate(103.170312 523.279219)scale(0.1 -0.1)">
       <use xlink:href="#DejaVuSans-2212"/>
       <use x="83.789062" xlink:href="#DejaVuSans-31"/>
       <use x="147.412109" xlink:href="#DejaVuSans-30"/>
       <use x="211.035156" xlink:href="#DejaVuSans-30"/>
       <use x="274.658203" xlink:href="#DejaVuSans-30"/>
      </g>
     </g>
    </g>
    <g id="ytick_5">
     <g id="line2d_14">
      <g>
       <use style="stroke:#000000;stroke-width:0.8;" x="144" xlink:href="#mdcceb00164" y="436.32"/>
      </g>
     </g>
     <g id="text_14">
      <!-- 0 -->
      <g transform="translate(130.6375 440.119219)scale(0.1 -0.1)">
       <use xlink:href="#DejaVuSans-30"/>
      </g>
     </g>
    </g>
    <g id="ytick_6">
     <g id="line2d_15">
      <g>
       <use style="stroke:#000000;stroke-width:0.8;" x="144" xlink:href="#mdcceb00164" y="353.16"/>
      </g>
     </g>
     <g id="text_15">
      <!-- 1000 -->
      <g transform="translate(111.55 356.959219)scale(0.1 -0.1)">
       <use xlink:href="#DejaVuSans-31"/>
       <use x="63.623047" xlink:href="#DejaVuSans-30"/>
       <use x="127.246094" xlink:href="#DejaVuSans-30"/>
       <use x="190.869141" xlink:href="#DejaVuSans-30"/>
      </g>
     </g>
    </g>
    <g id="ytick_7">
     <g id="line2d_16">
      <g>
       <use style="stroke:#000000;stroke-width:0.8;" x="144" xlink:href="#mdcceb00164" y="270"/>
      </g>
     </g>
     <g id="text_16">
      <!-- 2000 -->
      <g transform="translate(111.55 273.799219)scale(0.1 -0.1)">
       <use xlink:href="#DejaVuSans-32"/>
       <use x="63.623047" xlink:href="#DejaVuSans-30"/>
       <use x="127.246094" xlink:href="#DejaVuSans-30"/>
       <use x="190.869141" xlink:href="#DejaVuSans-30"/>
      </g>
     </g>
    </g>
    <g id="ytick_8">
     <g id="line2d_17">
      <g>
       <use style="stroke:#000000;stroke-width:0.8;" x="144" xlink:href="#mdcceb00164" y="186.84"/>
      </g>
     </g>
     <g id="text_17">
      <!-- 3000 -->
      <g transform="translate(111.55 190.639219)scale(0.1 -0.1)">
       <use xlink:href="#DejaVuSans-33"/>
       <use x="63.623047" xlink:href="#DejaVuSans-30"/>
       <use x="127.246094" xlink:href="#DejaVuSans-30"/>
       <use x="190.869141" xlink:href="#DejaVuSans-30"/>
      </g>
     </g>
    </g>
    <g id="ytick_9">
     <g id="line2d_18">
      <g>
       <use style="stroke:#000000;stroke-width:0.8;" x="144" xlink:href="#mdcceb00164" y="103.68"/>
      </g>
     </g>
     <g id="text_18">
      <!-- 4000 -->
      <g transform="translate(111.55 107.479219)scale(0.1 -0.1)">
       <use xlink:href="#DejaVuSans-34"/>
       <use x="63.623047" xlink:href="#DejaVuSans-30"/>
       <use x="127.246094" xlink:href="#DejaVuSans-30"/>
       <use x="190.869141" xlink:href="#DejaVuSans-30"/>
      </g>
     </g>
    </g>
   </g>
   <g id="line2d_19">
    <path clip-path="url(#pf190e3b796)" d="M 590.4 768.96 
L 590.4 103.68 
" style="fill:none;stroke:#1f77b4;stroke-linecap:square;stroke-width:1.5;"/>
   </g>
   <g id="line2d_20">
    <path clip-path="url(#pf190e3b796)" d="M 144 436.32 
L 1036.8 436.32 
" style="fill:none;stroke:#1f77b4;stroke-linecap:square;stroke-width:1.5;"/>
   </g>
   <g id="line2d_21">
    <defs>
     <path d="M 0 3 
C 0.795609 3 1.55874 2.683901 2.12132 2.12132 
C 2.683901 1.55874 3 0.795609 3 0 
C 3 -0.795609 2.683901 -1.55874 2.12132 -2.12132 
C 1.55874 -2.683901 0.795609 -3 0 -3 
C -0.795609 -3 -1.55874 -2.683901 -2.12132 -2.12132 
C -2.683901 -1.55874 -3 -0.795609 -3 0 
C -3 0.795609 -2.683901 1.55874 -2.12132 2.12132 
C -1.55874 2.683901 -0.795609 3 0 3 
z
" id="m4ed6a26434" style="stroke:#008000;"/>
    </defs>
    <g clip-path="url(#pf190e3b796)">
     <use style="fill:#008000;stroke:#008000;" x="1075.688666" xlink:href="#m4ed6a26434" y="440.462057"/>
    </g>
   </g>
   <g id="line2d_22">
    <g clip-path="url(#pf190e3b796)">
     <use style="fill:#008000;stroke:#008000;" x="873.310802" xlink:href="#m4ed6a26434" y="304.748504"/>
    </g>
   </g>
   <g id="line2d_23">
    <g clip-path="url(#pf190e3b796)">
     <use style="fill:#008000;stroke:#008000;" x="789.196862" xlink:href="#m4ed6a26434" y="197.663193"/>
    </g>
   </g>
   <g id="line2d_24">
    <g clip-path="url(#pf190e3b796)">
     <use style="fill:#008000;stroke:#008000;" x="442.496485" xlink:href="#m4ed6a26434" y="515.661268"/>
    </g>
   </g>
   <g id="line2d_25">
    <g clip-path="url(#pf190e3b796)">
     <use style="fill:#008000;stroke:#008000;" x="545.931734" xlink:href="#m4ed6a26434" y="487.421251"/>
    </g>
   </g>
   <g id="line2d_26">
    <g clip-path="url(#pf190e3b796)">
     <use style="fill:#008000;stroke:#008000;" x="619.347547" xlink:href="#m4ed6a26434" y="636.815593"/>
    </g>
   </g>
   <g id="line2d_27">
    <g clip-path="url(#pf190e3b796)">
     <use style="fill:#008000;stroke:#008000;" x="682.896356" xlink:href="#m4ed6a26434" y="595.250629"/>
    </g>
   </g>
   <g id="line2d_28">
    <g clip-path="url(#pf190e3b796)">
     <use style="fill:#008000;stroke:#008000;" x="756.110808" xlink:href="#m4ed6a26434" y="597.699078"/>
    </g>
   </g>
   <g id="line2d_29">
    <g clip-path="url(#pf190e3b796)">
     <use style="fill:#008000;stroke:#008000;" x="948.663913" xlink:href="#m4ed6a26434" y="551.491593"/>
    </g>
   </g>
   <g id="line2d_30">
    <g clip-path="url(#pf190e3b796)">
     <use style="fill:#008000;stroke:#008000;" x="1081.931122" xlink:href="#m4ed6a26434" y="522.934191"/>
    </g>
   </g>
   <g id="line2d_31">
    <defs>
     <path d="M 0 1.333333 
C 0.353604 1.333333 0.692773 1.192845 0.942809 0.942809 
C 1.192845 0.692773 1.333333 0.353604 1.333333 0 
C 1.333333 -0.353604 1.192845 -0.692773 0.942809 -0.942809 
C 0.692773 -1.192845 0.353604 -1.333333 0 -1.333333 
C -0.353604 -1.333333 -0.692773 -1.192845 -0.942809 -0.942809 
C -1.192845 -0.692773 -1.333333 -0.353604 -1.333333 0 
C -1.333333 0.353604 -1.192845 0.692773 -0.942809 0.942809 
C -0.692773 1.192845 -0.353604 1.333333 0 1.333333 
z
" id="mbdec67b5af" style="stroke:#ff0000;"/>
    </defs>
    <g clip-path="url(#pf190e3b796)">
     <use style="fill:#ff0000;stroke:#ff0000;" x="1401.188836" xlink:href="#mbdec67b5af" y="509.164952"/>
     <use style="fill:#ff0000;stroke:#ff0000;" x="1415.514685" xlink:href="#mbdec67b5af" y="488.422677"/>
     <use style="fill:#ff0000;stroke:#ff0000;" x="1075.688666" xlink:href="#mbdec67b5af" y="440.462057"/>
     <use style="fill:#ff0000;stroke:#ff0000;" x="1289.547402" xlink:href="#mbdec67b5af" y="350.598122"/>
     <use style="fill:#ff0000;stroke:#ff0000;" x="1256.902854" xlink:href="#mbdec67b5af" y="335.839046"/>
     <use style="fill:#ff0000;stroke:#ff0000;" x="1323.917671" xlink:href="#mbdec67b5af" y="285.37936"/>
     <use style="fill:#ff0000;stroke:#ff0000;" x="1315.735751" xlink:href="#mbdec67b5af" y="266.065523"/>
     <use style="fill:#ff0000;stroke:#ff0000;" x="873.310802" xlink:href="#mbdec67b5af" y="304.748504"/>
     <use style="fill:#ff0000;stroke:#ff0000;" x="652.080064" xlink:href="#mbdec67b5af" y="398.368987"/>
     <use style="fill:#ff0000;stroke:#ff0000;" x="643.539977" xlink:href="#mbdec67b5af" y="382.989292"/>
     <use style="fill:#ff0000;stroke:#ff0000;" x="789.196862" xlink:href="#mbdec67b5af" y="197.663193"/>
     <use style="fill:#ff0000;stroke:#ff0000;" x="416.996534" xlink:href="#mbdec67b5af" y="266.683777"/>
     <use style="fill:#ff0000;stroke:#ff0000;" x="387.005904" xlink:href="#mbdec67b5af" y="275.995766"/>
     <use style="fill:#ff0000;stroke:#ff0000;" x="393.611198" xlink:href="#mbdec67b5af" y="291.981853"/>
     <use style="fill:#ff0000;stroke:#ff0000;" x="415.043093" xlink:href="#mbdec67b5af" y="317.041845"/>
     <use style="fill:#ff0000;stroke:#ff0000;" x="434.549382" xlink:href="#mbdec67b5af" y="344.972692"/>
     <use style="fill:#ff0000;stroke:#ff0000;" x="419.220583" xlink:href="#mbdec67b5af" y="342.898801"/>
     <use style="fill:#ff0000;stroke:#ff0000;" x="406.741622" xlink:href="#mbdec67b5af" y="363.217395"/>
     <use style="fill:#ff0000;stroke:#ff0000;" x="454.621019" xlink:href="#mbdec67b5af" y="391.899714"/>
     <use style="fill:#ff0000;stroke:#ff0000;" x="441.36773" xlink:href="#mbdec67b5af" y="413.631364"/>
     <use style="fill:#ff0000;stroke:#ff0000;" x="410.657372" xlink:href="#mbdec67b5af" y="441.91168"/>
     <use style="fill:#ff0000;stroke:#ff0000;" x="400.936674" xlink:href="#mbdec67b5af" y="467.457481"/>
     <use style="fill:#ff0000;stroke:#ff0000;" x="437.445834" xlink:href="#mbdec67b5af" y="465.995124"/>
     <use style="fill:#ff0000;stroke:#ff0000;" x="404.69952" xlink:href="#mbdec67b5af" y="477.103924"/>
     <use style="fill:#ff0000;stroke:#ff0000;" x="435.277391" xlink:href="#mbdec67b5af" y="516.368583"/>
     <use style="fill:#ff0000;stroke:#ff0000;" x="449.627363" xlink:href="#mbdec67b5af" y="514.785046"/>
     <use style="fill:#ff0000;stroke:#ff0000;" x="463.229138" xlink:href="#mbdec67b5af" y="512.886401"/>
     <use style="fill:#ff0000;stroke:#ff0000;" x="470.649002" xlink:href="#mbdec67b5af" y="538.576854"/>
     <use style="fill:#ff0000;stroke:#ff0000;" x="453.159148" xlink:href="#mbdec67b5af" y="561.418386"/>
     <use style="fill:#ff0000;stroke:#ff0000;" x="539.275378" xlink:href="#mbdec67b5af" y="488.664659"/>
     <use style="fill:#ff0000;stroke:#ff0000;" x="552.25204" xlink:href="#mbdec67b5af" y="485.804949"/>
     <use style="fill:#ff0000;stroke:#ff0000;" x="591.066501" xlink:href="#mbdec67b5af" y="497.024768"/>
     <use style="fill:#ff0000;stroke:#ff0000;" x="614.128961" xlink:href="#mbdec67b5af" y="633.470256"/>
     <use style="fill:#ff0000;stroke:#ff0000;" x="624.732572" xlink:href="#mbdec67b5af" y="640.083861"/>
     <use style="fill:#ff0000;stroke:#ff0000;" x="647.265101" xlink:href="#mbdec67b5af" y="615.835629"/>
     <use style="fill:#ff0000;stroke:#ff0000;" x="662.22406" xlink:href="#mbdec67b5af" y="632.842128"/>
     <use style="fill:#ff0000;stroke:#ff0000;" x="671.408787" xlink:href="#mbdec67b5af" y="608.123322"/>
     <use style="fill:#ff0000;stroke:#ff0000;" x="672.624988" xlink:href="#mbdec67b5af" y="592.239145"/>
     <use style="fill:#ff0000;stroke:#ff0000;" x="693.54442" xlink:href="#mbdec67b5af" y="597.912123"/>
     <use style="fill:#ff0000;stroke:#ff0000;" x="756.110808" xlink:href="#mbdec67b5af" y="597.699078"/>
     <use style="fill:#ff0000;stroke:#ff0000;" x="853.299394" xlink:href="#mbdec67b5af" y="570.488599"/>
     <use style="fill:#ff0000;stroke:#ff0000;" x="875.704071" xlink:href="#mbdec67b5af" y="571.108421"/>
     <use style="fill:#ff0000;stroke:#ff0000;" x="871.654889" xlink:href="#mbdec67b5af" y="559.003587"/>
     <use style="fill:#ff0000;stroke:#ff0000;" x="893.161162" xlink:href="#mbdec67b5af" y="557.939149"/>
     <use style="fill:#ff0000;stroke:#ff0000;" x="938.187918" xlink:href="#mbdec67b5af" y="553.57268"/>
     <use style="fill:#ff0000;stroke:#ff0000;" x="959.146865" xlink:href="#mbdec67b5af" y="549.171405"/>
     <use style="fill:#ff0000;stroke:#ff0000;" x="1079.681968" xlink:href="#mbdec67b5af" y="529.444462"/>
     <use style="fill:#ff0000;stroke:#ff0000;" x="1084.024254" xlink:href="#mbdec67b5af" y="516.393756"/>
     <use style="fill:#ff0000;stroke:#ff0000;" x="1114.019898" xlink:href="#mbdec67b5af" y="507.09606"/>
    </g>
   </g>
   <g id="line2d_32">
    <defs>
     <path d="M -0.5 0.5 
L 0.5 0.5 
L 0.5 -0.5 
L -0.5 -0.5 
z
" id="mb79f4259dd" style="stroke:#1f77b4;stroke-linejoin:miter;"/>
    </defs>
    <g clip-path="url(#pf190e3b796)">
     <use style="fill:#1f77b4;stroke:#1f77b4;stroke-linejoin:miter;" x="1401.188836" xlink:href="#mb79f4259dd" y="509.164952"/>
     <use style="fill:#1f77b4;stroke:#1f77b4;stroke-linejoin:miter;" x="1415.514685" xlink:href="#mb79f4259dd" y="488.422677"/>
     <use style="fill:#1f77b4;stroke:#1f77b4;stroke-linejoin:miter;" x="1075.688666" xlink:href="#mb79f4259dd" y="440.462057"/>
     <use style="fill:#1f77b4;stroke:#1f77b4;stroke-linejoin:miter;" x="1289.547402" xlink:href="#mb79f4259dd" y="350.598122"/>
     <use style="fill:#1f77b4;stroke:#1f77b4;stroke-linejoin:miter;" x="1256.902854" xlink:href="#mb79f4259dd" y="335.839046"/>
     <use style="fill:#1f77b4;stroke:#1f77b4;stroke-linejoin:miter;" x="1323.917671" xlink:href="#mb79f4259dd" y="285.37936"/>
     <use style="fill:#1f77b4;stroke:#1f77b4;stroke-linejoin:miter;" x="1315.735751" xlink:href="#mb79f4259dd" y="266.065523"/>
     <use style="fill:#1f77b4;stroke:#1f77b4;stroke-linejoin:miter;" x="873.310802" xlink:href="#mb79f4259dd" y="304.748504"/>
     <use style="fill:#1f77b4;stroke:#1f77b4;stroke-linejoin:miter;" x="652.080064" xlink:href="#mb79f4259dd" y="398.368987"/>
     <use style="fill:#1f77b4;stroke:#1f77b4;stroke-linejoin:miter;" x="648.44759" xlink:href="#mb79f4259dd" y="397.861697"/>
     <use style="fill:#1f77b4;stroke:#1f77b4;stroke-linejoin:miter;" x="646.937769" xlink:href="#mb79f4259dd" y="396.209137"/>
     <use style="fill:#1f77b4;stroke:#1f77b4;stroke-linejoin:miter;" x="645.341327" xlink:href="#mb79f4259dd" y="394.499609"/>
     <use style="fill:#1f77b4;stroke:#1f77b4;stroke-linejoin:miter;" x="644.155266" xlink:href="#mb79f4259dd" y="392.462315"/>
     <use style="fill:#1f77b4;stroke:#1f77b4;stroke-linejoin:miter;" x="641.826182" xlink:href="#mb79f4259dd" y="391.128667"/>
     <use style="fill:#1f77b4;stroke:#1f77b4;stroke-linejoin:miter;" x="641.479052" xlink:href="#mb79f4259dd" y="388.362055"/>
     <use style="fill:#1f77b4;stroke:#1f77b4;stroke-linejoin:miter;" x="643.539977" xlink:href="#mb79f4259dd" y="382.989292"/>
     <use style="fill:#1f77b4;stroke:#1f77b4;stroke-linejoin:miter;" x="789.196862" xlink:href="#mb79f4259dd" y="197.663193"/>
     <use style="fill:#1f77b4;stroke:#1f77b4;stroke-linejoin:miter;" x="776.354203" xlink:href="#mb79f4259dd" y="194.950689"/>
     <use style="fill:#1f77b4;stroke:#1f77b4;stroke-linejoin:miter;" x="760.344393" xlink:href="#mb79f4259dd" y="196.260448"/>
     <use style="fill:#1f77b4;stroke:#1f77b4;stroke-linejoin:miter;" x="744.280472" xlink:href="#mb79f4259dd" y="198.924232"/>
     <use style="fill:#1f77b4;stroke:#1f77b4;stroke-linejoin:miter;" x="729.179711" xlink:href="#mb79f4259dd" y="201.469226"/>
     <use style="fill:#1f77b4;stroke:#1f77b4;stroke-linejoin:miter;" x="714.8402" xlink:href="#mb79f4259dd" y="203.526555"/>
     <use style="fill:#1f77b4;stroke:#1f77b4;stroke-linejoin:miter;" x="701.395471" xlink:href="#mb79f4259dd" y="205.162355"/>
     <use style="fill:#1f77b4;stroke:#1f77b4;stroke-linejoin:miter;" x="687.951405" xlink:href="#mb79f4259dd" y="208.160715"/>
     <use style="fill:#1f77b4;stroke:#1f77b4;stroke-linejoin:miter;" x="675.254722" xlink:href="#mb79f4259dd" y="210.234869"/>
     <use style="fill:#1f77b4;stroke:#1f77b4;stroke-linejoin:miter;" x="663.365379" xlink:href="#mb79f4259dd" y="211.470009"/>
     <use style="fill:#1f77b4;stroke:#1f77b4;stroke-linejoin:miter;" x="651.651205" xlink:href="#mb79f4259dd" y="213.228188"/>
     <use style="fill:#1f77b4;stroke:#1f77b4;stroke-linejoin:miter;" x="640.277761" xlink:href="#mb79f4259dd" y="214.590381"/>
     <use style="fill:#1f77b4;stroke:#1f77b4;stroke-linejoin:miter;" x="628.798925" xlink:href="#mb79f4259dd" y="216.197082"/>
     <use style="fill:#1f77b4;stroke:#1f77b4;stroke-linejoin:miter;" x="617.87052" xlink:href="#mb79f4259dd" y="218.757173"/>
     <use style="fill:#1f77b4;stroke:#1f77b4;stroke-linejoin:miter;" x="607.246581" xlink:href="#mb79f4259dd" y="219.427483"/>
     <use style="fill:#1f77b4;stroke:#1f77b4;stroke-linejoin:miter;" x="596.911567" xlink:href="#mb79f4259dd" y="221.988436"/>
     <use style="fill:#1f77b4;stroke:#1f77b4;stroke-linejoin:miter;" x="586.677519" xlink:href="#mb79f4259dd" y="224.425685"/>
     <use style="fill:#1f77b4;stroke:#1f77b4;stroke-linejoin:miter;" x="576.720022" xlink:href="#mb79f4259dd" y="225.298091"/>
     <use style="fill:#1f77b4;stroke:#1f77b4;stroke-linejoin:miter;" x="566.688939" xlink:href="#mb79f4259dd" y="226.459763"/>
     <use style="fill:#1f77b4;stroke:#1f77b4;stroke-linejoin:miter;" x="556.817975" xlink:href="#mb79f4259dd" y="227.816499"/>
     <use style="fill:#1f77b4;stroke:#1f77b4;stroke-linejoin:miter;" x="547.610036" xlink:href="#mb79f4259dd" y="232.121053"/>
     <use style="fill:#1f77b4;stroke:#1f77b4;stroke-linejoin:miter;" x="537.717509" xlink:href="#mb79f4259dd" y="232.879864"/>
     <use style="fill:#1f77b4;stroke:#1f77b4;stroke-linejoin:miter;" x="528.766016" xlink:href="#mb79f4259dd" y="236.392447"/>
     <use style="fill:#1f77b4;stroke:#1f77b4;stroke-linejoin:miter;" x="519.26667" xlink:href="#mb79f4259dd" y="237.850299"/>
     <use style="fill:#1f77b4;stroke:#1f77b4;stroke-linejoin:miter;" x="509.482172" xlink:href="#mb79f4259dd" y="239.290138"/>
     <use style="fill:#1f77b4;stroke:#1f77b4;stroke-linejoin:miter;" x="500.023069" xlink:href="#mb79f4259dd" y="241.080774"/>
     <use style="fill:#1f77b4;stroke:#1f77b4;stroke-linejoin:miter;" x="490.020978" xlink:href="#mb79f4259dd" y="242.096606"/>
     <use style="fill:#1f77b4;stroke:#1f77b4;stroke-linejoin:miter;" x="479.674617" xlink:href="#mb79f4259dd" y="242.823585"/>
     <use style="fill:#1f77b4;stroke:#1f77b4;stroke-linejoin:miter;" x="470.245378" xlink:href="#mb79f4259dd" y="245.536414"/>
     <use style="fill:#1f77b4;stroke:#1f77b4;stroke-linejoin:miter;" x="460.194028" xlink:href="#mb79f4259dd" y="247.175727"/>
     <use style="fill:#1f77b4;stroke:#1f77b4;stroke-linejoin:miter;" x="450.028354" xlink:href="#mb79f4259dd" y="248.825163"/>
     <use style="fill:#1f77b4;stroke:#1f77b4;stroke-linejoin:miter;" x="439.801116" xlink:href="#mb79f4259dd" y="251.044804"/>
     <use style="fill:#1f77b4;stroke:#1f77b4;stroke-linejoin:miter;" x="428.32154" xlink:href="#mb79f4259dd" y="251.888829"/>
     <use style="fill:#1f77b4;stroke:#1f77b4;stroke-linejoin:miter;" x="419.441342" xlink:href="#mb79f4259dd" y="256.064808"/>
     <use style="fill:#1f77b4;stroke:#1f77b4;stroke-linejoin:miter;" x="416.996534" xlink:href="#mb79f4259dd" y="266.683777"/>
     <use style="fill:#1f77b4;stroke:#1f77b4;stroke-linejoin:miter;" x="399.877288" xlink:href="#mb79f4259dd" y="263.039982"/>
     <use style="fill:#1f77b4;stroke:#1f77b4;stroke-linejoin:miter;" x="396.52485" xlink:href="#mb79f4259dd" y="272.30872"/>
     <use style="fill:#1f77b4;stroke:#1f77b4;stroke-linejoin:miter;" x="387.005904" xlink:href="#mb79f4259dd" y="275.995766"/>
     <use style="fill:#1f77b4;stroke:#1f77b4;stroke-linejoin:miter;" x="393.611198" xlink:href="#mb79f4259dd" y="291.981853"/>
     <use style="fill:#1f77b4;stroke:#1f77b4;stroke-linejoin:miter;" x="415.043093" xlink:href="#mb79f4259dd" y="317.041845"/>
     <use style="fill:#1f77b4;stroke:#1f77b4;stroke-linejoin:miter;" x="434.549382" xlink:href="#mb79f4259dd" y="344.972692"/>
     <use style="fill:#1f77b4;stroke:#1f77b4;stroke-linejoin:miter;" x="419.220583" xlink:href="#mb79f4259dd" y="342.898801"/>
     <use style="fill:#1f77b4;stroke:#1f77b4;stroke-linejoin:miter;" x="419.515017" xlink:href="#mb79f4259dd" y="356.412692"/>
     <use style="fill:#1f77b4;stroke:#1f77b4;stroke-linejoin:miter;" x="407.018966" xlink:href="#mb79f4259dd" y="357.07779"/>
     <use style="fill:#1f77b4;stroke:#1f77b4;stroke-linejoin:miter;" x="406.741622" xlink:href="#mb79f4259dd" y="363.217395"/>
     <use style="fill:#1f77b4;stroke:#1f77b4;stroke-linejoin:miter;" x="454.621019" xlink:href="#mb79f4259dd" y="391.899714"/>
     <use style="fill:#1f77b4;stroke:#1f77b4;stroke-linejoin:miter;" x="455.534594" xlink:href="#mb79f4259dd" y="396.416456"/>
     <use style="fill:#1f77b4;stroke:#1f77b4;stroke-linejoin:miter;" x="456.757023" xlink:href="#mb79f4259dd" y="400.902008"/>
     <use style="fill:#1f77b4;stroke:#1f77b4;stroke-linejoin:miter;" x="457.732974" xlink:href="#mb79f4259dd" y="405.001826"/>
     <use style="fill:#1f77b4;stroke:#1f77b4;stroke-linejoin:miter;" x="458.837454" xlink:href="#mb79f4259dd" y="409.24753"/>
     <use style="fill:#1f77b4;stroke:#1f77b4;stroke-linejoin:miter;" x="455.966411" xlink:href="#mb79f4259dd" y="412.299072"/>
     <use style="fill:#1f77b4;stroke:#1f77b4;stroke-linejoin:miter;" x="441.36773" xlink:href="#mb79f4259dd" y="413.631364"/>
     <use style="fill:#1f77b4;stroke:#1f77b4;stroke-linejoin:miter;" x="426.501534" xlink:href="#mb79f4259dd" y="415.779584"/>
     <use style="fill:#1f77b4;stroke:#1f77b4;stroke-linejoin:miter;" x="425.657283" xlink:href="#mb79f4259dd" y="419.953962"/>
     <use style="fill:#1f77b4;stroke:#1f77b4;stroke-linejoin:miter;" x="418.100293" xlink:href="#mb79f4259dd" y="423.780633"/>
     <use style="fill:#1f77b4;stroke:#1f77b4;stroke-linejoin:miter;" x="419.196473" xlink:href="#mb79f4259dd" y="428.447382"/>
     <use style="fill:#1f77b4;stroke:#1f77b4;stroke-linejoin:miter;" x="420.264732" xlink:href="#mb79f4259dd" y="433.103985"/>
     <use style="fill:#1f77b4;stroke:#1f77b4;stroke-linejoin:miter;" x="420.660036" xlink:href="#mb79f4259dd" y="437.147845"/>
     <use style="fill:#1f77b4;stroke:#1f77b4;stroke-linejoin:miter;" x="410.657372" xlink:href="#mb79f4259dd" y="441.91168"/>
     <use style="fill:#1f77b4;stroke:#1f77b4;stroke-linejoin:miter;" x="394.699009" xlink:href="#mb79f4259dd" y="447.236932"/>
     <use style="fill:#1f77b4;stroke:#1f77b4;stroke-linejoin:miter;" x="395.830357" xlink:href="#mb79f4259dd" y="452.478674"/>
     <use style="fill:#1f77b4;stroke:#1f77b4;stroke-linejoin:miter;" x="399.004446" xlink:href="#mb79f4259dd" y="457.316789"/>
     <use style="fill:#1f77b4;stroke:#1f77b4;stroke-linejoin:miter;" x="400.123451" xlink:href="#mb79f4259dd" y="462.35872"/>
     <use style="fill:#1f77b4;stroke:#1f77b4;stroke-linejoin:miter;" x="400.936674" xlink:href="#mb79f4259dd" y="467.457481"/>
     <use style="fill:#1f77b4;stroke:#1f77b4;stroke-linejoin:miter;" x="437.445834" xlink:href="#mb79f4259dd" y="465.995124"/>
     <use style="fill:#1f77b4;stroke:#1f77b4;stroke-linejoin:miter;" x="404.69952" xlink:href="#mb79f4259dd" y="477.103924"/>
     <use style="fill:#1f77b4;stroke:#1f77b4;stroke-linejoin:miter;" x="404.328757" xlink:href="#mb79f4259dd" y="482.670633"/>
     <use style="fill:#1f77b4;stroke:#1f77b4;stroke-linejoin:miter;" x="404.659966" xlink:href="#mb79f4259dd" y="487.981965"/>
     <use style="fill:#1f77b4;stroke:#1f77b4;stroke-linejoin:miter;" x="407.053612" xlink:href="#mb79f4259dd" y="492.910947"/>
     <use style="fill:#1f77b4;stroke:#1f77b4;stroke-linejoin:miter;" x="407.373244" xlink:href="#mb79f4259dd" y="498.563834"/>
     <use style="fill:#1f77b4;stroke:#1f77b4;stroke-linejoin:miter;" x="435.277391" xlink:href="#mb79f4259dd" y="516.368583"/>
     <use style="fill:#1f77b4;stroke:#1f77b4;stroke-linejoin:miter;" x="449.627363" xlink:href="#mb79f4259dd" y="514.785046"/>
     <use style="fill:#1f77b4;stroke:#1f77b4;stroke-linejoin:miter;" x="463.229138" xlink:href="#mb79f4259dd" y="512.886401"/>
     <use style="fill:#1f77b4;stroke:#1f77b4;stroke-linejoin:miter;" x="458.041937" xlink:href="#mb79f4259dd" y="521.679047"/>
     <use style="fill:#1f77b4;stroke:#1f77b4;stroke-linejoin:miter;" x="456.831855" xlink:href="#mb79f4259dd" y="528.677385"/>
     <use style="fill:#1f77b4;stroke:#1f77b4;stroke-linejoin:miter;" x="456.825282" xlink:href="#mb79f4259dd" y="535.421352"/>
     <use style="fill:#1f77b4;stroke:#1f77b4;stroke-linejoin:miter;" x="465.530629" xlink:href="#mb79f4259dd" y="535.774814"/>
     <use style="fill:#1f77b4;stroke:#1f77b4;stroke-linejoin:miter;" x="470.649002" xlink:href="#mb79f4259dd" y="538.576854"/>
     <use style="fill:#1f77b4;stroke:#1f77b4;stroke-linejoin:miter;" x="453.159148" xlink:href="#mb79f4259dd" y="561.418386"/>
     <use style="fill:#1f77b4;stroke:#1f77b4;stroke-linejoin:miter;" x="539.275378" xlink:href="#mb79f4259dd" y="488.664659"/>
     <use style="fill:#1f77b4;stroke:#1f77b4;stroke-linejoin:miter;" x="542.374833" xlink:href="#mb79f4259dd" y="489.344464"/>
     <use style="fill:#1f77b4;stroke:#1f77b4;stroke-linejoin:miter;" x="542.300287" xlink:href="#mb79f4259dd" y="493.229317"/>
     <use style="fill:#1f77b4;stroke:#1f77b4;stroke-linejoin:miter;" x="552.25204" xlink:href="#mb79f4259dd" y="485.804949"/>
     <use style="fill:#1f77b4;stroke:#1f77b4;stroke-linejoin:miter;" x="554.582994" xlink:href="#mb79f4259dd" y="487.115509"/>
     <use style="fill:#1f77b4;stroke:#1f77b4;stroke-linejoin:miter;" x="556.53791" xlink:href="#mb79f4259dd" y="488.779002"/>
     <use style="fill:#1f77b4;stroke:#1f77b4;stroke-linejoin:miter;" x="556.880587" xlink:href="#mb79f4259dd" y="492.834362"/>
     <use style="fill:#1f77b4;stroke:#1f77b4;stroke-linejoin:miter;" x="559.225206" xlink:href="#mb79f4259dd" y="494.179999"/>
     <use style="fill:#1f77b4;stroke:#1f77b4;stroke-linejoin:miter;" x="561.434694" xlink:href="#mb79f4259dd" y="495.721858"/>
     <use style="fill:#1f77b4;stroke:#1f77b4;stroke-linejoin:miter;" x="564.017229" xlink:href="#mb79f4259dd" y="497.391667"/>
     <use style="fill:#1f77b4;stroke:#1f77b4;stroke-linejoin:miter;" x="567.101452" xlink:href="#mb79f4259dd" y="497.241658"/>
     <use style="fill:#1f77b4;stroke:#1f77b4;stroke-linejoin:miter;" x="569.94807" xlink:href="#mb79f4259dd" y="498.234894"/>
     <use style="fill:#1f77b4;stroke:#1f77b4;stroke-linejoin:miter;" x="572.517613" xlink:href="#mb79f4259dd" y="500.034989"/>
     <use style="fill:#1f77b4;stroke:#1f77b4;stroke-linejoin:miter;" x="575.122089" xlink:href="#mb79f4259dd" y="501.824481"/>
     <use style="fill:#1f77b4;stroke:#1f77b4;stroke-linejoin:miter;" x="579.388825" xlink:href="#mb79f4259dd" y="496.364831"/>
     <use style="fill:#1f77b4;stroke:#1f77b4;stroke-linejoin:miter;" x="582.757692" xlink:href="#mb79f4259dd" y="494.62879"/>
     <use style="fill:#1f77b4;stroke:#1f77b4;stroke-linejoin:miter;" x="585.416485" xlink:href="#mb79f4259dd" y="494.434263"/>
     <use style="fill:#1f77b4;stroke:#1f77b4;stroke-linejoin:miter;" x="588.344102" xlink:href="#mb79f4259dd" y="494.823795"/>
     <use style="fill:#1f77b4;stroke:#1f77b4;stroke-linejoin:miter;" x="591.066501" xlink:href="#mb79f4259dd" y="497.024768"/>
     <use style="fill:#1f77b4;stroke:#1f77b4;stroke-linejoin:miter;" x="614.128961" xlink:href="#mb79f4259dd" y="633.470256"/>
     <use style="fill:#1f77b4;stroke:#1f77b4;stroke-linejoin:miter;" x="624.732572" xlink:href="#mb79f4259dd" y="640.083861"/>
     <use style="fill:#1f77b4;stroke:#1f77b4;stroke-linejoin:miter;" x="647.265101" xlink:href="#mb79f4259dd" y="615.835629"/>
     <use style="fill:#1f77b4;stroke:#1f77b4;stroke-linejoin:miter;" x="662.22406" xlink:href="#mb79f4259dd" y="632.842128"/>
     <use style="fill:#1f77b4;stroke:#1f77b4;stroke-linejoin:miter;" x="671.408787" xlink:href="#mb79f4259dd" y="608.123322"/>
     <use style="fill:#1f77b4;stroke:#1f77b4;stroke-linejoin:miter;" x="672.624988" xlink:href="#mb79f4259dd" y="592.239145"/>
     <use style="fill:#1f77b4;stroke:#1f77b4;stroke-linejoin:miter;" x="684.840905" xlink:href="#mb79f4259dd" y="598.531228"/>
     <use style="fill:#1f77b4;stroke:#1f77b4;stroke-linejoin:miter;" x="693.54442" xlink:href="#mb79f4259dd" y="597.912123"/>
     <use style="fill:#1f77b4;stroke:#1f77b4;stroke-linejoin:miter;" x="756.110808" xlink:href="#mb79f4259dd" y="597.699078"/>
     <use style="fill:#1f77b4;stroke:#1f77b4;stroke-linejoin:miter;" x="760.863985" xlink:href="#mb79f4259dd" y="590.668524"/>
     <use style="fill:#1f77b4;stroke:#1f77b4;stroke-linejoin:miter;" x="771.184721" xlink:href="#mb79f4259dd" y="588.753672"/>
     <use style="fill:#1f77b4;stroke:#1f77b4;stroke-linejoin:miter;" x="779.69484" xlink:href="#mb79f4259dd" y="585.20491"/>
     <use style="fill:#1f77b4;stroke:#1f77b4;stroke-linejoin:miter;" x="791.781933" xlink:href="#mb79f4259dd" y="584.027058"/>
     <use style="fill:#1f77b4;stroke:#1f77b4;stroke-linejoin:miter;" x="805.429596" xlink:href="#mb79f4259dd" y="583.467199"/>
     <use style="fill:#1f77b4;stroke:#1f77b4;stroke-linejoin:miter;" x="818.305579" xlink:href="#mb79f4259dd" y="581.445576"/>
     <use style="fill:#1f77b4;stroke:#1f77b4;stroke-linejoin:miter;" x="830.377523" xlink:href="#mb79f4259dd" y="578.641049"/>
     <use style="fill:#1f77b4;stroke:#1f77b4;stroke-linejoin:miter;" x="836.728397" xlink:href="#mb79f4259dd" y="571.678873"/>
     <use style="fill:#1f77b4;stroke:#1f77b4;stroke-linejoin:miter;" x="853.299394" xlink:href="#mb79f4259dd" y="570.488599"/>
     <use style="fill:#1f77b4;stroke:#1f77b4;stroke-linejoin:miter;" x="875.704071" xlink:href="#mb79f4259dd" y="571.108421"/>
     <use style="fill:#1f77b4;stroke:#1f77b4;stroke-linejoin:miter;" x="871.654889" xlink:href="#mb79f4259dd" y="559.003587"/>
     <use style="fill:#1f77b4;stroke:#1f77b4;stroke-linejoin:miter;" x="893.161162" xlink:href="#mb79f4259dd" y="557.939149"/>
     <use style="fill:#1f77b4;stroke:#1f77b4;stroke-linejoin:miter;" x="938.187918" xlink:href="#mb79f4259dd" y="553.57268"/>
     <use style="fill:#1f77b4;stroke:#1f77b4;stroke-linejoin:miter;" x="959.146865" xlink:href="#mb79f4259dd" y="549.171405"/>
     <use style="fill:#1f77b4;stroke:#1f77b4;stroke-linejoin:miter;" x="1079.681968" xlink:href="#mb79f4259dd" y="529.444462"/>
     <use style="fill:#1f77b4;stroke:#1f77b4;stroke-linejoin:miter;" x="1084.024254" xlink:href="#mb79f4259dd" y="516.393756"/>
     <use style="fill:#1f77b4;stroke:#1f77b4;stroke-linejoin:miter;" x="1114.019898" xlink:href="#mb79f4259dd" y="507.09606"/>
    </g>
   </g>
   <g id="patch_3">
    <path d="M 144 768.96 
L 144 103.68 
" style="fill:none;stroke:#000000;stroke-linecap:square;stroke-linejoin:miter;stroke-width:0.8;"/>
   </g>
   <g id="patch_4">
    <path d="M 1036.8 768.96 
L 1036.8 103.68 
" style="fill:none;stroke:#000000;stroke-linecap:square;stroke-linejoin:miter;stroke-width:0.8;"/>
   </g>
   <g id="patch_5">
    <path d="M 144 768.96 
L 1036.8 768.96 
" style="fill:none;stroke:#000000;stroke-linecap:square;stroke-linejoin:miter;stroke-width:0.8;"/>
   </g>
   <g id="patch_6">
    <path d="M 144 103.68 
L 1036.8 103.68 
" style="fill:none;stroke:#000000;stroke-linecap:square;stroke-linejoin:miter;stroke-width:0.8;"/>
   </g>
  </g>
 </g>
 <defs>
  <clipPath id="pf190e3b796">
   <rect height="665.28" width="892.8" x="144" y="103.68"/>
  </clipPath>
 </defs>
</svg>
