<?xml version="1.0" encoding="utf-8" standalone="no"?>
<!DOCTYPE svg PUBLIC "-//W3C//DTD SVG 1.1//EN"
  "http://www.w3.org/Graphics/SVG/1.1/DTD/svg11.dtd">
<!-- Created with matplotlib (http://matplotlib.org/) -->
<svg height="864pt" version="1.1" viewBox="0 0 1152 864" width="1152pt" xmlns="http://www.w3.org/2000/svg" xmlns:xlink="http://www.w3.org/1999/xlink">
 <defs>
  <style type="text/css">
*{stroke-linecap:butt;stroke-linejoin:round;}
  </style>
 </defs>
 <g id="figure_1">
  <g id="patch_1">
   <path d="M 0 864 
L 1152 864 
L 1152 0 
L 0 0 
z
" style="fill:#ffffff;"/>
  </g>
  <g id="axes_1">
   <g id="patch_2">
    <path d="M 144 768.96 
L 1036.8 768.96 
L 1036.8 103.68 
L 144 103.68 
z
" style="fill:#ffffff;"/>
   </g>
   <g id="matplotlib.axis_1">
    <g id="xtick_1">
     <g id="line2d_1">
      <defs>
       <path d="M 0 0 
L 0 3.5 
" id="m651a12e69a" style="stroke:#000000;stroke-width:0.8;"/>
      </defs>
      <g>
       <use style="stroke:#000000;stroke-width:0.8;" x="144" xlink:href="#m651a12e69a" y="768.96"/>
      </g>
     </g>
     <g id="text_1">
      <!-- −4000 -->
      <defs>
       <path d="M 10.59375 35.5 
L 73.1875 35.5 
L 73.1875 27.203125 
L 10.59375 27.203125 
z
" id="DejaVuSans-2212"/>
       <path d="M 37.796875 64.3125 
L 12.890625 25.390625 
L 37.796875 25.390625 
z
M 35.203125 72.90625 
L 47.609375 72.90625 
L 47.609375 25.390625 
L 58.015625 25.390625 
L 58.015625 17.1875 
L 47.609375 17.1875 
L 47.609375 0 
L 37.796875 0 
L 37.796875 17.1875 
L 4.890625 17.1875 
L 4.890625 26.703125 
z
" id="DejaVuSans-34"/>
       <path d="M 31.78125 66.40625 
Q 24.171875 66.40625 20.328125 58.90625 
Q 16.5 51.421875 16.5 36.375 
Q 16.5 21.390625 20.328125 13.890625 
Q 24.171875 6.390625 31.78125 6.390625 
Q 39.453125 6.390625 43.28125 13.890625 
Q 47.125 21.390625 47.125 36.375 
Q 47.125 51.421875 43.28125 58.90625 
Q 39.453125 66.40625 31.78125 66.40625 
z
M 31.78125 74.21875 
Q 44.046875 74.21875 50.515625 64.515625 
Q 56.984375 54.828125 56.984375 36.375 
Q 56.984375 17.96875 50.515625 8.265625 
Q 44.046875 -1.421875 31.78125 -1.421875 
Q 19.53125 -1.421875 13.0625 8.265625 
Q 6.59375 17.96875 6.59375 36.375 
Q 6.59375 54.828125 13.0625 64.515625 
Q 19.53125 74.21875 31.78125 74.21875 
z
" id="DejaVuSans-30"/>
      </defs>
      <g transform="translate(127.085156 783.558437)scale(0.1 -0.1)">
       <use xlink:href="#DejaVuSans-2212"/>
       <use x="83.789062" xlink:href="#DejaVuSans-34"/>
       <use x="147.412109" xlink:href="#DejaVuSans-30"/>
       <use x="211.035156" xlink:href="#DejaVuSans-30"/>
       <use x="274.658203" xlink:href="#DejaVuSans-30"/>
      </g>
     </g>
    </g>
    <g id="xtick_2">
     <g id="line2d_2">
      <g>
       <use style="stroke:#000000;stroke-width:0.8;" x="255.6" xlink:href="#m651a12e69a" y="768.96"/>
      </g>
     </g>
     <g id="text_2">
      <!-- −3000 -->
      <defs>
       <path d="M 40.578125 39.3125 
Q 47.65625 37.796875 51.625 33 
Q 55.609375 28.21875 55.609375 21.1875 
Q 55.609375 10.40625 48.1875 4.484375 
Q 40.765625 -1.421875 27.09375 -1.421875 
Q 22.515625 -1.421875 17.65625 -0.515625 
Q 12.796875 0.390625 7.625 2.203125 
L 7.625 11.71875 
Q 11.71875 9.328125 16.59375 8.109375 
Q 21.484375 6.890625 26.8125 6.890625 
Q 36.078125 6.890625 40.9375 10.546875 
Q 45.796875 14.203125 45.796875 21.1875 
Q 45.796875 27.640625 41.28125 31.265625 
Q 36.765625 34.90625 28.71875 34.90625 
L 20.21875 34.90625 
L 20.21875 43.015625 
L 29.109375 43.015625 
Q 36.375 43.015625 40.234375 45.921875 
Q 44.09375 48.828125 44.09375 54.296875 
Q 44.09375 59.90625 40.109375 62.90625 
Q 36.140625 65.921875 28.71875 65.921875 
Q 24.65625 65.921875 20.015625 65.03125 
Q 15.375 64.15625 9.8125 62.3125 
L 9.8125 71.09375 
Q 15.4375 72.65625 20.34375 73.4375 
Q 25.25 74.21875 29.59375 74.21875 
Q 40.828125 74.21875 47.359375 69.109375 
Q 53.90625 64.015625 53.90625 55.328125 
Q 53.90625 49.265625 50.4375 45.09375 
Q 46.96875 40.921875 40.578125 39.3125 
z
" id="DejaVuSans-33"/>
      </defs>
      <g transform="translate(238.685156 783.558437)scale(0.1 -0.1)">
       <use xlink:href="#DejaVuSans-2212"/>
       <use x="83.789062" xlink:href="#DejaVuSans-33"/>
       <use x="147.412109" xlink:href="#DejaVuSans-30"/>
       <use x="211.035156" xlink:href="#DejaVuSans-30"/>
       <use x="274.658203" xlink:href="#DejaVuSans-30"/>
      </g>
     </g>
    </g>
    <g id="xtick_3">
     <g id="line2d_3">
      <g>
       <use style="stroke:#000000;stroke-width:0.8;" x="367.2" xlink:href="#m651a12e69a" y="768.96"/>
      </g>
     </g>
     <g id="text_3">
      <!-- −2000 -->
      <defs>
       <path d="M 19.1875 8.296875 
L 53.609375 8.296875 
L 53.609375 0 
L 7.328125 0 
L 7.328125 8.296875 
Q 12.9375 14.109375 22.625 23.890625 
Q 32.328125 33.6875 34.8125 36.53125 
Q 39.546875 41.84375 41.421875 45.53125 
Q 43.3125 49.21875 43.3125 52.78125 
Q 43.3125 58.59375 39.234375 62.25 
Q 35.15625 65.921875 28.609375 65.921875 
Q 23.96875 65.921875 18.8125 64.3125 
Q 13.671875 62.703125 7.8125 59.421875 
L 7.8125 69.390625 
Q 13.765625 71.78125 18.9375 73 
Q 24.125 74.21875 28.421875 74.21875 
Q 39.75 74.21875 46.484375 68.546875 
Q 53.21875 62.890625 53.21875 53.421875 
Q 53.21875 48.921875 51.53125 44.890625 
Q 49.859375 40.875 45.40625 35.40625 
Q 44.1875 33.984375 37.640625 27.21875 
Q 31.109375 20.453125 19.1875 8.296875 
z
" id="DejaVuSans-32"/>
      </defs>
      <g transform="translate(350.285156 783.558437)scale(0.1 -0.1)">
       <use xlink:href="#DejaVuSans-2212"/>
       <use x="83.789062" xlink:href="#DejaVuSans-32"/>
       <use x="147.412109" xlink:href="#DejaVuSans-30"/>
       <use x="211.035156" xlink:href="#DejaVuSans-30"/>
       <use x="274.658203" xlink:href="#DejaVuSans-30"/>
      </g>
     </g>
    </g>
    <g id="xtick_4">
     <g id="line2d_4">
      <g>
       <use style="stroke:#000000;stroke-width:0.8;" x="478.8" xlink:href="#m651a12e69a" y="768.96"/>
      </g>
     </g>
     <g id="text_4">
      <!-- −1000 -->
      <defs>
       <path d="M 12.40625 8.296875 
L 28.515625 8.296875 
L 28.515625 63.921875 
L 10.984375 60.40625 
L 10.984375 69.390625 
L 28.421875 72.90625 
L 38.28125 72.90625 
L 38.28125 8.296875 
L 54.390625 8.296875 
L 54.390625 0 
L 12.40625 0 
z
" id="DejaVuSans-31"/>
      </defs>
      <g transform="translate(461.885156 783.558437)scale(0.1 -0.1)">
       <use xlink:href="#DejaVuSans-2212"/>
       <use x="83.789062" xlink:href="#DejaVuSans-31"/>
       <use x="147.412109" xlink:href="#DejaVuSans-30"/>
       <use x="211.035156" xlink:href="#DejaVuSans-30"/>
       <use x="274.658203" xlink:href="#DejaVuSans-30"/>
      </g>
     </g>
    </g>
    <g id="xtick_5">
     <g id="line2d_5">
      <g>
       <use style="stroke:#000000;stroke-width:0.8;" x="590.4" xlink:href="#m651a12e69a" y="768.96"/>
      </g>
     </g>
     <g id="text_5">
      <!-- 0 -->
      <g transform="translate(587.21875 783.558437)scale(0.1 -0.1)">
       <use xlink:href="#DejaVuSans-30"/>
      </g>
     </g>
    </g>
    <g id="xtick_6">
     <g id="line2d_6">
      <g>
       <use style="stroke:#000000;stroke-width:0.8;" x="702" xlink:href="#m651a12e69a" y="768.96"/>
      </g>
     </g>
     <g id="text_6">
      <!-- 1000 -->
      <g transform="translate(689.275 783.558437)scale(0.1 -0.1)">
       <use xlink:href="#DejaVuSans-31"/>
       <use x="63.623047" xlink:href="#DejaVuSans-30"/>
       <use x="127.246094" xlink:href="#DejaVuSans-30"/>
       <use x="190.869141" xlink:href="#DejaVuSans-30"/>
      </g>
     </g>
    </g>
    <g id="xtick_7">
     <g id="line2d_7">
      <g>
       <use style="stroke:#000000;stroke-width:0.8;" x="813.6" xlink:href="#m651a12e69a" y="768.96"/>
      </g>
     </g>
     <g id="text_7">
      <!-- 2000 -->
      <g transform="translate(800.875 783.558437)scale(0.1 -0.1)">
       <use xlink:href="#DejaVuSans-32"/>
       <use x="63.623047" xlink:href="#DejaVuSans-30"/>
       <use x="127.246094" xlink:href="#DejaVuSans-30"/>
       <use x="190.869141" xlink:href="#DejaVuSans-30"/>
      </g>
     </g>
    </g>
    <g id="xtick_8">
     <g id="line2d_8">
      <g>
       <use style="stroke:#000000;stroke-width:0.8;" x="925.2" xlink:href="#m651a12e69a" y="768.96"/>
      </g>
     </g>
     <g id="text_8">
      <!-- 3000 -->
      <g transform="translate(912.475 783.558437)scale(0.1 -0.1)">
       <use xlink:href="#DejaVuSans-33"/>
       <use x="63.623047" xlink:href="#DejaVuSans-30"/>
       <use x="127.246094" xlink:href="#DejaVuSans-30"/>
       <use x="190.869141" xlink:href="#DejaVuSans-30"/>
      </g>
     </g>
    </g>
    <g id="xtick_9">
     <g id="line2d_9">
      <g>
       <use style="stroke:#000000;stroke-width:0.8;" x="1036.8" xlink:href="#m651a12e69a" y="768.96"/>
      </g>
     </g>
     <g id="text_9">
      <!-- 4000 -->
      <g transform="translate(1024.075 783.558437)scale(0.1 -0.1)">
       <use xlink:href="#DejaVuSans-34"/>
       <use x="63.623047" xlink:href="#DejaVuSans-30"/>
       <use x="127.246094" xlink:href="#DejaVuSans-30"/>
       <use x="190.869141" xlink:href="#DejaVuSans-30"/>
      </g>
     </g>
    </g>
   </g>
   <g id="matplotlib.axis_2">
    <g id="ytick_1">
     <g id="line2d_10">
      <defs>
       <path d="M 0 0 
L -3.5 0 
" id="ma866fef91d" style="stroke:#000000;stroke-width:0.8;"/>
      </defs>
      <g>
       <use style="stroke:#000000;stroke-width:0.8;" x="144" xlink:href="#ma866fef91d" y="768.96"/>
      </g>
     </g>
     <g id="text_10">
      <!-- −4000 -->
      <g transform="translate(103.170312 772.759219)scale(0.1 -0.1)">
       <use xlink:href="#DejaVuSans-2212"/>
       <use x="83.789062" xlink:href="#DejaVuSans-34"/>
       <use x="147.412109" xlink:href="#DejaVuSans-30"/>
       <use x="211.035156" xlink:href="#DejaVuSans-30"/>
       <use x="274.658203" xlink:href="#DejaVuSans-30"/>
      </g>
     </g>
    </g>
    <g id="ytick_2">
     <g id="line2d_11">
      <g>
       <use style="stroke:#000000;stroke-width:0.8;" x="144" xlink:href="#ma866fef91d" y="685.8"/>
      </g>
     </g>
     <g id="text_11">
      <!-- −3000 -->
      <g transform="translate(103.170312 689.599219)scale(0.1 -0.1)">
       <use xlink:href="#DejaVuSans-2212"/>
       <use x="83.789062" xlink:href="#DejaVuSans-33"/>
       <use x="147.412109" xlink:href="#DejaVuSans-30"/>
       <use x="211.035156" xlink:href="#DejaVuSans-30"/>
       <use x="274.658203" xlink:href="#DejaVuSans-30"/>
      </g>
     </g>
    </g>
    <g id="ytick_3">
     <g id="line2d_12">
      <g>
       <use style="stroke:#000000;stroke-width:0.8;" x="144" xlink:href="#ma866fef91d" y="602.64"/>
      </g>
     </g>
     <g id="text_12">
      <!-- −2000 -->
      <g transform="translate(103.170312 606.439219)scale(0.1 -0.1)">
       <use xlink:href="#DejaVuSans-2212"/>
       <use x="83.789062" xlink:href="#DejaVuSans-32"/>
       <use x="147.412109" xlink:href="#DejaVuSans-30"/>
       <use x="211.035156" xlink:href="#DejaVuSans-30"/>
       <use x="274.658203" xlink:href="#DejaVuSans-30"/>
      </g>
     </g>
    </g>
    <g id="ytick_4">
     <g id="line2d_13">
      <g>
       <use style="stroke:#000000;stroke-width:0.8;" x="144" xlink:href="#ma866fef91d" y="519.48"/>
      </g>
     </g>
     <g id="text_13">
      <!-- −1000 -->
      <g transform="translate(103.170312 523.279219)scale(0.1 -0.1)">
       <use xlink:href="#DejaVuSans-2212"/>
       <use x="83.789062" xlink:href="#DejaVuSans-31"/>
       <use x="147.412109" xlink:href="#DejaVuSans-30"/>
       <use x="211.035156" xlink:href="#DejaVuSans-30"/>
       <use x="274.658203" xlink:href="#DejaVuSans-30"/>
      </g>
     </g>
    </g>
    <g id="ytick_5">
     <g id="line2d_14">
      <g>
       <use style="stroke:#000000;stroke-width:0.8;" x="144" xlink:href="#ma866fef91d" y="436.32"/>
      </g>
     </g>
     <g id="text_14">
      <!-- 0 -->
      <g transform="translate(130.6375 440.119219)scale(0.1 -0.1)">
       <use xlink:href="#DejaVuSans-30"/>
      </g>
     </g>
    </g>
    <g id="ytick_6">
     <g id="line2d_15">
      <g>
       <use style="stroke:#000000;stroke-width:0.8;" x="144" xlink:href="#ma866fef91d" y="353.16"/>
      </g>
     </g>
     <g id="text_15">
      <!-- 1000 -->
      <g transform="translate(111.55 356.959219)scale(0.1 -0.1)">
       <use xlink:href="#DejaVuSans-31"/>
       <use x="63.623047" xlink:href="#DejaVuSans-30"/>
       <use x="127.246094" xlink:href="#DejaVuSans-30"/>
       <use x="190.869141" xlink:href="#DejaVuSans-30"/>
      </g>
     </g>
    </g>
    <g id="ytick_7">
     <g id="line2d_16">
      <g>
       <use style="stroke:#000000;stroke-width:0.8;" x="144" xlink:href="#ma866fef91d" y="270"/>
      </g>
     </g>
     <g id="text_16">
      <!-- 2000 -->
      <g transform="translate(111.55 273.799219)scale(0.1 -0.1)">
       <use xlink:href="#DejaVuSans-32"/>
       <use x="63.623047" xlink:href="#DejaVuSans-30"/>
       <use x="127.246094" xlink:href="#DejaVuSans-30"/>
       <use x="190.869141" xlink:href="#DejaVuSans-30"/>
      </g>
     </g>
    </g>
    <g id="ytick_8">
     <g id="line2d_17">
      <g>
       <use style="stroke:#000000;stroke-width:0.8;" x="144" xlink:href="#ma866fef91d" y="186.84"/>
      </g>
     </g>
     <g id="text_17">
      <!-- 3000 -->
      <g transform="translate(111.55 190.639219)scale(0.1 -0.1)">
       <use xlink:href="#DejaVuSans-33"/>
       <use x="63.623047" xlink:href="#DejaVuSans-30"/>
       <use x="127.246094" xlink:href="#DejaVuSans-30"/>
       <use x="190.869141" xlink:href="#DejaVuSans-30"/>
      </g>
     </g>
    </g>
    <g id="ytick_9">
     <g id="line2d_18">
      <g>
       <use style="stroke:#000000;stroke-width:0.8;" x="144" xlink:href="#ma866fef91d" y="103.68"/>
      </g>
     </g>
     <g id="text_18">
      <!-- 4000 -->
      <g transform="translate(111.55 107.479219)scale(0.1 -0.1)">
       <use xlink:href="#DejaVuSans-34"/>
       <use x="63.623047" xlink:href="#DejaVuSans-30"/>
       <use x="127.246094" xlink:href="#DejaVuSans-30"/>
       <use x="190.869141" xlink:href="#DejaVuSans-30"/>
      </g>
     </g>
    </g>
   </g>
   <g id="line2d_19">
    <path clip-path="url(#pb45a6543a5)" d="M 590.4 768.96 
L 590.4 103.68 
" style="fill:none;stroke:#1f77b4;stroke-linecap:square;stroke-width:1.5;"/>
   </g>
   <g id="line2d_20">
    <path clip-path="url(#pb45a6543a5)" d="M 144 436.32 
L 1036.8 436.32 
" style="fill:none;stroke:#1f77b4;stroke-linecap:square;stroke-width:1.5;"/>
   </g>
   <g id="line2d_21">
    <defs>
     <path d="M 0 3 
C 0.795609 3 1.55874 2.683901 2.12132 2.12132 
C 2.683901 1.55874 3 0.795609 3 0 
C 3 -0.795609 2.683901 -1.55874 2.12132 -2.12132 
C 1.55874 -2.683901 0.795609 -3 0 -3 
C -0.795609 -3 -1.55874 -2.683901 -2.12132 -2.12132 
C -2.683901 -1.55874 -3 -0.795609 -3 0 
C -3 0.795609 -2.683901 1.55874 -2.12132 2.12132 
C -1.55874 2.683901 -0.795609 3 0 3 
z
" id="m3b0544d20d" style="stroke:#008000;"/>
    </defs>
    <g clip-path="url(#pb45a6543a5)">
     <use style="fill:#008000;stroke:#008000;" x="1405.541346" xlink:href="#m3b0544d20d" y="510.396409"/>
    </g>
   </g>
   <g id="line2d_22">
    <g clip-path="url(#pb45a6543a5)">
     <use style="fill:#008000;stroke:#008000;" x="1072.39522" xlink:href="#m3b0544d20d" y="434.654892"/>
    </g>
   </g>
   <g id="line2d_23">
    <g clip-path="url(#pb45a6543a5)">
     <use style="fill:#008000;stroke:#008000;" x="648.205936" xlink:href="#m3b0544d20d" y="390.754801"/>
    </g>
   </g>
   <g id="line2d_24">
    <g clip-path="url(#pb45a6543a5)">
     <use style="fill:#008000;stroke:#008000;" x="648.205936" xlink:href="#m3b0544d20d" y="390.754801"/>
    </g>
   </g>
   <g id="line2d_25">
    <g clip-path="url(#pb45a6543a5)">
     <use style="fill:#008000;stroke:#008000;" x="775.138379" xlink:href="#m3b0544d20d" y="195.007106"/>
    </g>
   </g>
   <g id="line2d_26">
    <g clip-path="url(#pb45a6543a5)">
     <use style="fill:#008000;stroke:#008000;" x="775.138379" xlink:href="#m3b0544d20d" y="195.007106"/>
    </g>
   </g>
   <g id="line2d_27">
    <g clip-path="url(#pb45a6543a5)">
     <use style="fill:#008000;stroke:#008000;" x="555.927642" xlink:href="#m3b0544d20d" y="227.582988"/>
    </g>
   </g>
   <g id="line2d_28">
    <g clip-path="url(#pb45a6543a5)">
     <use style="fill:#008000;stroke:#008000;" x="571.36337" xlink:href="#m3b0544d20d" y="397.47793"/>
    </g>
   </g>
   <g id="line2d_29">
    <g clip-path="url(#pb45a6543a5)">
     <use style="fill:#008000;stroke:#008000;" x="571.36337" xlink:href="#m3b0544d20d" y="397.47793"/>
    </g>
   </g>
   <g id="line2d_30">
    <g clip-path="url(#pb45a6543a5)">
     <use style="fill:#008000;stroke:#008000;" x="455.042408" xlink:href="#m3b0544d20d" y="248.604386"/>
    </g>
   </g>
   <g id="line2d_31">
    <g clip-path="url(#pb45a6543a5)">
     <use style="fill:#008000;stroke:#008000;" x="410.511515" xlink:href="#m3b0544d20d" y="472.472683"/>
    </g>
   </g>
   <g id="line2d_32">
    <g clip-path="url(#pb45a6543a5)">
     <use style="fill:#008000;stroke:#008000;" x="462.435511" xlink:href="#m3b0544d20d" y="513.063828"/>
    </g>
   </g>
   <g id="line2d_33">
    <g clip-path="url(#pb45a6543a5)">
     <use style="fill:#008000;stroke:#008000;" x="461.05655" xlink:href="#m3b0544d20d" y="531.292743"/>
    </g>
   </g>
   <g id="line2d_34">
    <g clip-path="url(#pb45a6543a5)">
     <use style="fill:#008000;stroke:#008000;" x="579.811881" xlink:href="#m3b0544d20d" y="629.734834"/>
    </g>
   </g>
   <g id="line2d_35">
    <g clip-path="url(#pb45a6543a5)">
     <use style="fill:#008000;stroke:#008000;" x="821.058261" xlink:href="#m3b0544d20d" y="584.052082"/>
    </g>
   </g>
   <g id="line2d_36">
    <g clip-path="url(#pb45a6543a5)">
     <use style="fill:#008000;stroke:#008000;" x="1091.078285" xlink:href="#m3b0544d20d" y="518.87109"/>
    </g>
   </g>
   <g id="line2d_37">
    <defs>
     <path d="M 0 1.333333 
C 0.353604 1.333333 0.692773 1.192845 0.942809 0.942809 
C 1.192845 0.692773 1.333333 0.353604 1.333333 0 
C 1.333333 -0.353604 1.192845 -0.692773 0.942809 -0.942809 
C 0.692773 -1.192845 0.353604 -1.333333 0 -1.333333 
C -0.353604 -1.333333 -0.692773 -1.192845 -0.942809 -0.942809 
C -1.192845 -0.692773 -1.333333 -0.353604 -1.333333 0 
C -1.333333 0.353604 -1.192845 0.692773 -0.942809 0.942809 
C -0.692773 1.192845 -0.353604 1.333333 0 1.333333 
z
" id="m00c3322289" style="stroke:#ff0000;"/>
    </defs>
    <g clip-path="url(#pb45a6543a5)">
     <use style="fill:#ff0000;stroke:#ff0000;" x="1405.541346" xlink:href="#m00c3322289" y="510.396409"/>
     <use style="fill:#ff0000;stroke:#ff0000;" x="1072.39522" xlink:href="#m00c3322289" y="434.654892"/>
     <use style="fill:#ff0000;stroke:#ff0000;" x="1289.515788" xlink:href="#m00c3322289" y="348.557901"/>
     <use style="fill:#ff0000;stroke:#ff0000;" x="1260.263826" xlink:href="#m00c3322289" y="330.505506"/>
     <use style="fill:#ff0000;stroke:#ff0000;" x="1356.948459" xlink:href="#m00c3322289" y="290.921429"/>
     <use style="fill:#ff0000;stroke:#ff0000;" x="1316.636758" xlink:href="#m00c3322289" y="274.413476"/>
     <use style="fill:#ff0000;stroke:#ff0000;" x="651.548322" xlink:href="#m00c3322289" y="398.444705"/>
     <use style="fill:#ff0000;stroke:#ff0000;" x="643.226518" xlink:href="#m00c3322289" y="383.152563"/>
     <use style="fill:#ff0000;stroke:#ff0000;" x="785.878039" xlink:href="#m00c3322289" y="192.845018"/>
     <use style="fill:#ff0000;stroke:#ff0000;" x="764.604634" xlink:href="#m00c3322289" y="197.394112"/>
     <use style="fill:#ff0000;stroke:#ff0000;" x="555.927642" xlink:href="#m00c3322289" y="227.582988"/>
     <use style="fill:#ff0000;stroke:#ff0000;" x="576.84491" xlink:href="#m00c3322289" y="396.457171"/>
     <use style="fill:#ff0000;stroke:#ff0000;" x="566.020985" xlink:href="#m00c3322289" y="398.918369"/>
     <use style="fill:#ff0000;stroke:#ff0000;" x="455.042408" xlink:href="#m00c3322289" y="248.604386"/>
     <use style="fill:#ff0000;stroke:#ff0000;" x="394.387942" xlink:href="#m00c3322289" y="289.220085"/>
     <use style="fill:#ff0000;stroke:#ff0000;" x="416.91102" xlink:href="#m00c3322289" y="316.817319"/>
     <use style="fill:#ff0000;stroke:#ff0000;" x="435.479593" xlink:href="#m00c3322289" y="346.482207"/>
     <use style="fill:#ff0000;stroke:#ff0000;" x="408.169927" xlink:href="#m00c3322289" y="362.687481"/>
     <use style="fill:#ff0000;stroke:#ff0000;" x="455.174875" xlink:href="#m00c3322289" y="392.669612"/>
     <use style="fill:#ff0000;stroke:#ff0000;" x="443.609227" xlink:href="#m00c3322289" y="413.972609"/>
     <use style="fill:#ff0000;stroke:#ff0000;" x="411.275003" xlink:href="#m00c3322289" y="441.45496"/>
     <use style="fill:#ff0000;stroke:#ff0000;" x="394.906587" xlink:href="#m00c3322289" y="447.624926"/>
     <use style="fill:#ff0000;stroke:#ff0000;" x="400.917679" xlink:href="#m00c3322289" y="465.086526"/>
     <use style="fill:#ff0000;stroke:#ff0000;" x="417.731478" xlink:href="#m00c3322289" y="468.288226"/>
     <use style="fill:#ff0000;stroke:#ff0000;" x="403.449905" xlink:href="#m00c3322289" y="476.883357"/>
     <use style="fill:#ff0000;stroke:#ff0000;" x="455.627645" xlink:href="#m00c3322289" y="513.729142"/>
     <use style="fill:#ff0000;stroke:#ff0000;" x="469.144433" xlink:href="#m00c3322289" y="512.220827"/>
     <use style="fill:#ff0000;stroke:#ff0000;" x="456.884266" xlink:href="#m00c3322289" y="526.691041"/>
     <use style="fill:#ff0000;stroke:#ff0000;" x="465.511568" xlink:href="#m00c3322289" y="535.789995"/>
     <use style="fill:#ff0000;stroke:#ff0000;" x="560.494159" xlink:href="#m00c3322289" y="464.52464"/>
     <use style="fill:#ff0000;stroke:#ff0000;" x="578.115477" xlink:href="#m00c3322289" y="493.112938"/>
     <use style="fill:#ff0000;stroke:#ff0000;" x="575.098366" xlink:href="#m00c3322289" y="623.582148"/>
     <use style="fill:#ff0000;stroke:#ff0000;" x="584.85036" xlink:href="#m00c3322289" y="635.819564"/>
     <use style="fill:#ff0000;stroke:#ff0000;" x="619.066856" xlink:href="#m00c3322289" y="640.632326"/>
     <use style="fill:#ff0000;stroke:#ff0000;" x="627.0596" xlink:href="#m00c3322289" y="621.172964"/>
     <use style="fill:#ff0000;stroke:#ff0000;" x="646.26374" xlink:href="#m00c3322289" y="615.071013"/>
     <use style="fill:#ff0000;stroke:#ff0000;" x="662.868948" xlink:href="#m00c3322289" y="631.869595"/>
     <use style="fill:#ff0000;stroke:#ff0000;" x="665.371377" xlink:href="#m00c3322289" y="609.703975"/>
     <use style="fill:#ff0000;stroke:#ff0000;" x="703.3752" xlink:href="#m00c3322289" y="599.665336"/>
     <use style="fill:#ff0000;stroke:#ff0000;" x="810.633352" xlink:href="#m00c3322289" y="583.276351"/>
     <use style="fill:#ff0000;stroke:#ff0000;" x="831.613701" xlink:href="#m00c3322289" y="584.571133"/>
     <use style="fill:#ff0000;stroke:#ff0000;" x="850.30807" xlink:href="#m00c3322289" y="570.207167"/>
     <use style="fill:#ff0000;stroke:#ff0000;" x="876.01263" xlink:href="#m00c3322289" y="571.17284"/>
     <use style="fill:#ff0000;stroke:#ff0000;" x="894.29468" xlink:href="#m00c3322289" y="554.752671"/>
     <use style="fill:#ff0000;stroke:#ff0000;" x="925.263217" xlink:href="#m00c3322289" y="554.337532"/>
     <use style="fill:#ff0000;stroke:#ff0000;" x="1089.545373" xlink:href="#m00c3322289" y="526.689297"/>
     <use style="fill:#ff0000;stroke:#ff0000;" x="1092.391135" xlink:href="#m00c3322289" y="511.044219"/>
     <use style="fill:#ff0000;stroke:#ff0000;" x="1143.475408" xlink:href="#m00c3322289" y="501.249453"/>
    </g>
   </g>
   <g id="line2d_38">
    <defs>
     <path d="M -0.5 0.5 
L 0.5 0.5 
L 0.5 -0.5 
L -0.5 -0.5 
z
" id="mfde99fa9ea" style="stroke:#1f77b4;stroke-linejoin:miter;"/>
    </defs>
    <g clip-path="url(#pb45a6543a5)">
     <use style="fill:#1f77b4;stroke:#1f77b4;stroke-linejoin:miter;" x="1405.541346" xlink:href="#mfde99fa9ea" y="510.396409"/>
     <use style="fill:#1f77b4;stroke:#1f77b4;stroke-linejoin:miter;" x="1072.39522" xlink:href="#mfde99fa9ea" y="434.654892"/>
     <use style="fill:#1f77b4;stroke:#1f77b4;stroke-linejoin:miter;" x="1289.515788" xlink:href="#mfde99fa9ea" y="348.557901"/>
     <use style="fill:#1f77b4;stroke:#1f77b4;stroke-linejoin:miter;" x="1260.263826" xlink:href="#mfde99fa9ea" y="330.505506"/>
     <use style="fill:#1f77b4;stroke:#1f77b4;stroke-linejoin:miter;" x="1356.948459" xlink:href="#mfde99fa9ea" y="290.921429"/>
     <use style="fill:#1f77b4;stroke:#1f77b4;stroke-linejoin:miter;" x="1316.636758" xlink:href="#mfde99fa9ea" y="274.413476"/>
     <use style="fill:#1f77b4;stroke:#1f77b4;stroke-linejoin:miter;" x="651.548322" xlink:href="#mfde99fa9ea" y="398.444705"/>
     <use style="fill:#1f77b4;stroke:#1f77b4;stroke-linejoin:miter;" x="647.362327" xlink:href="#mfde99fa9ea" y="398.080376"/>
     <use style="fill:#1f77b4;stroke:#1f77b4;stroke-linejoin:miter;" x="645.741031" xlink:href="#mfde99fa9ea" y="395.795536"/>
     <use style="fill:#1f77b4;stroke:#1f77b4;stroke-linejoin:miter;" x="644.454841" xlink:href="#mfde99fa9ea" y="393.548318"/>
     <use style="fill:#1f77b4;stroke:#1f77b4;stroke-linejoin:miter;" x="641.946522" xlink:href="#mfde99fa9ea" y="391.889672"/>
     <use style="fill:#1f77b4;stroke:#1f77b4;stroke-linejoin:miter;" x="640.852529" xlink:href="#mfde99fa9ea" y="389.372443"/>
     <use style="fill:#1f77b4;stroke:#1f77b4;stroke-linejoin:miter;" x="643.226518" xlink:href="#mfde99fa9ea" y="383.152563"/>
     <use style="fill:#1f77b4;stroke:#1f77b4;stroke-linejoin:miter;" x="785.878039" xlink:href="#mfde99fa9ea" y="192.845018"/>
     <use style="fill:#1f77b4;stroke:#1f77b4;stroke-linejoin:miter;" x="764.604634" xlink:href="#mfde99fa9ea" y="197.394112"/>
     <use style="fill:#1f77b4;stroke:#1f77b4;stroke-linejoin:miter;" x="747.162612" xlink:href="#mfde99fa9ea" y="198.629306"/>
     <use style="fill:#1f77b4;stroke:#1f77b4;stroke-linejoin:miter;" x="729.633025" xlink:href="#mfde99fa9ea" y="201.050103"/>
     <use style="fill:#1f77b4;stroke:#1f77b4;stroke-linejoin:miter;" x="712.706762" xlink:href="#mfde99fa9ea" y="203.837212"/>
     <use style="fill:#1f77b4;stroke:#1f77b4;stroke-linejoin:miter;" x="697.27835" xlink:href="#mfde99fa9ea" y="206.044459"/>
     <use style="fill:#1f77b4;stroke:#1f77b4;stroke-linejoin:miter;" x="682.173446" xlink:href="#mfde99fa9ea" y="208.873394"/>
     <use style="fill:#1f77b4;stroke:#1f77b4;stroke-linejoin:miter;" x="667.758145" xlink:href="#mfde99fa9ea" y="210.891742"/>
     <use style="fill:#1f77b4;stroke:#1f77b4;stroke-linejoin:miter;" x="654.231301" xlink:href="#mfde99fa9ea" y="212.546082"/>
     <use style="fill:#1f77b4;stroke:#1f77b4;stroke-linejoin:miter;" x="640.926815" xlink:href="#mfde99fa9ea" y="214.671994"/>
     <use style="fill:#1f77b4;stroke:#1f77b4;stroke-linejoin:miter;" x="627.367123" xlink:href="#mfde99fa9ea" y="216.920079"/>
     <use style="fill:#1f77b4;stroke:#1f77b4;stroke-linejoin:miter;" x="614.726689" xlink:href="#mfde99fa9ea" y="218.883262"/>
     <use style="fill:#1f77b4;stroke:#1f77b4;stroke-linejoin:miter;" x="602.61389" xlink:href="#mfde99fa9ea" y="219.733812"/>
     <use style="fill:#1f77b4;stroke:#1f77b4;stroke-linejoin:miter;" x="590.632776" xlink:href="#mfde99fa9ea" y="224.303651"/>
     <use style="fill:#1f77b4;stroke:#1f77b4;stroke-linejoin:miter;" x="578.965667" xlink:href="#mfde99fa9ea" y="225.327939"/>
     <use style="fill:#1f77b4;stroke:#1f77b4;stroke-linejoin:miter;" x="567.260098" xlink:href="#mfde99fa9ea" y="226.028027"/>
     <use style="fill:#1f77b4;stroke:#1f77b4;stroke-linejoin:miter;" x="555.927642" xlink:href="#mfde99fa9ea" y="227.582988"/>
     <use style="fill:#1f77b4;stroke:#1f77b4;stroke-linejoin:miter;" x="576.84491" xlink:href="#mfde99fa9ea" y="396.457171"/>
     <use style="fill:#1f77b4;stroke:#1f77b4;stroke-linejoin:miter;" x="574.898167" xlink:href="#mfde99fa9ea" y="397.048103"/>
     <use style="fill:#1f77b4;stroke:#1f77b4;stroke-linejoin:miter;" x="573.165036" xlink:href="#mfde99fa9ea" y="399.316998"/>
     <use style="fill:#1f77b4;stroke:#1f77b4;stroke-linejoin:miter;" x="571.168342" xlink:href="#mfde99fa9ea" y="399.822729"/>
     <use style="fill:#1f77b4;stroke:#1f77b4;stroke-linejoin:miter;" x="568.801051" xlink:href="#mfde99fa9ea" y="399.769053"/>
     <use style="fill:#1f77b4;stroke:#1f77b4;stroke-linejoin:miter;" x="566.020985" xlink:href="#mfde99fa9ea" y="398.918369"/>
     <use style="fill:#1f77b4;stroke:#1f77b4;stroke-linejoin:miter;" x="455.042408" xlink:href="#mfde99fa9ea" y="248.604386"/>
     <use style="fill:#1f77b4;stroke:#1f77b4;stroke-linejoin:miter;" x="442.9429" xlink:href="#mfde99fa9ea" y="250.709099"/>
     <use style="fill:#1f77b4;stroke:#1f77b4;stroke-linejoin:miter;" x="429.49412" xlink:href="#mfde99fa9ea" y="251.468261"/>
     <use style="fill:#1f77b4;stroke:#1f77b4;stroke-linejoin:miter;" x="418.742136" xlink:href="#mfde99fa9ea" y="255.745827"/>
     <use style="fill:#1f77b4;stroke:#1f77b4;stroke-linejoin:miter;" x="411.600643" xlink:href="#mfde99fa9ea" y="263.662569"/>
     <use style="fill:#1f77b4;stroke:#1f77b4;stroke-linejoin:miter;" x="401.678469" xlink:href="#mfde99fa9ea" y="269.004284"/>
     <use style="fill:#1f77b4;stroke:#1f77b4;stroke-linejoin:miter;" x="390.12679" xlink:href="#mfde99fa9ea" y="273.011156"/>
     <use style="fill:#1f77b4;stroke:#1f77b4;stroke-linejoin:miter;" x="394.387942" xlink:href="#mfde99fa9ea" y="289.220085"/>
     <use style="fill:#1f77b4;stroke:#1f77b4;stroke-linejoin:miter;" x="416.91102" xlink:href="#mfde99fa9ea" y="316.817319"/>
     <use style="fill:#1f77b4;stroke:#1f77b4;stroke-linejoin:miter;" x="435.479593" xlink:href="#mfde99fa9ea" y="346.482207"/>
     <use style="fill:#1f77b4;stroke:#1f77b4;stroke-linejoin:miter;" x="423.615929" xlink:href="#mfde99fa9ea" y="347.415269"/>
     <use style="fill:#1f77b4;stroke:#1f77b4;stroke-linejoin:miter;" x="419.71131" xlink:href="#mfde99fa9ea" y="353.177942"/>
     <use style="fill:#1f77b4;stroke:#1f77b4;stroke-linejoin:miter;" x="411.755728" xlink:href="#mfde99fa9ea" y="356.778184"/>
     <use style="fill:#1f77b4;stroke:#1f77b4;stroke-linejoin:miter;" x="408.169927" xlink:href="#mfde99fa9ea" y="362.687481"/>
     <use style="fill:#1f77b4;stroke:#1f77b4;stroke-linejoin:miter;" x="455.174875" xlink:href="#mfde99fa9ea" y="392.669612"/>
     <use style="fill:#1f77b4;stroke:#1f77b4;stroke-linejoin:miter;" x="455.647484" xlink:href="#mfde99fa9ea" y="397.743885"/>
     <use style="fill:#1f77b4;stroke:#1f77b4;stroke-linejoin:miter;" x="456.767684" xlink:href="#mfde99fa9ea" y="402.850743"/>
     <use style="fill:#1f77b4;stroke:#1f77b4;stroke-linejoin:miter;" x="458.353839" xlink:href="#mfde99fa9ea" y="407.698489"/>
     <use style="fill:#1f77b4;stroke:#1f77b4;stroke-linejoin:miter;" x="459.060414" xlink:href="#mfde99fa9ea" y="412.145142"/>
     <use style="fill:#1f77b4;stroke:#1f77b4;stroke-linejoin:miter;" x="443.609227" xlink:href="#mfde99fa9ea" y="413.972609"/>
     <use style="fill:#1f77b4;stroke:#1f77b4;stroke-linejoin:miter;" x="425.791805" xlink:href="#mfde99fa9ea" y="416.171881"/>
     <use style="fill:#1f77b4;stroke:#1f77b4;stroke-linejoin:miter;" x="425.205958" xlink:href="#mfde99fa9ea" y="421.273833"/>
     <use style="fill:#1f77b4;stroke:#1f77b4;stroke-linejoin:miter;" x="421.7894" xlink:href="#mfde99fa9ea" y="426.190386"/>
     <use style="fill:#1f77b4;stroke:#1f77b4;stroke-linejoin:miter;" x="420.146061" xlink:href="#mfde99fa9ea" y="431.335396"/>
     <use style="fill:#1f77b4;stroke:#1f77b4;stroke-linejoin:miter;" x="420.517127" xlink:href="#mfde99fa9ea" y="436.112867"/>
     <use style="fill:#1f77b4;stroke:#1f77b4;stroke-linejoin:miter;" x="411.275003" xlink:href="#mfde99fa9ea" y="441.45496"/>
     <use style="fill:#1f77b4;stroke:#1f77b4;stroke-linejoin:miter;" x="394.906587" xlink:href="#mfde99fa9ea" y="447.624926"/>
     <use style="fill:#1f77b4;stroke:#1f77b4;stroke-linejoin:miter;" x="396.263594" xlink:href="#mfde99fa9ea" y="453.642036"/>
     <use style="fill:#1f77b4;stroke:#1f77b4;stroke-linejoin:miter;" x="398.792044" xlink:href="#mfde99fa9ea" y="459.293309"/>
     <use style="fill:#1f77b4;stroke:#1f77b4;stroke-linejoin:miter;" x="400.917679" xlink:href="#mfde99fa9ea" y="465.086526"/>
     <use style="fill:#1f77b4;stroke:#1f77b4;stroke-linejoin:miter;" x="417.731478" xlink:href="#mfde99fa9ea" y="468.288226"/>
     <use style="fill:#1f77b4;stroke:#1f77b4;stroke-linejoin:miter;" x="403.449905" xlink:href="#mfde99fa9ea" y="476.883357"/>
     <use style="fill:#1f77b4;stroke:#1f77b4;stroke-linejoin:miter;" x="404.413745" xlink:href="#mfde99fa9ea" y="482.859649"/>
     <use style="fill:#1f77b4;stroke:#1f77b4;stroke-linejoin:miter;" x="406.758559" xlink:href="#mfde99fa9ea" y="488.592171"/>
     <use style="fill:#1f77b4;stroke:#1f77b4;stroke-linejoin:miter;" x="408.046477" xlink:href="#mfde99fa9ea" y="494.87552"/>
     <use style="fill:#1f77b4;stroke:#1f77b4;stroke-linejoin:miter;" x="412.072752" xlink:href="#mfde99fa9ea" y="506.974912"/>
     <use style="fill:#1f77b4;stroke:#1f77b4;stroke-linejoin:miter;" x="432.090375" xlink:href="#mfde99fa9ea" y="512.289405"/>
     <use style="fill:#1f77b4;stroke:#1f77b4;stroke-linejoin:miter;" x="437.722043" xlink:href="#mfde99fa9ea" y="516.399259"/>
     <use style="fill:#1f77b4;stroke:#1f77b4;stroke-linejoin:miter;" x="455.627645" xlink:href="#mfde99fa9ea" y="513.729142"/>
     <use style="fill:#1f77b4;stroke:#1f77b4;stroke-linejoin:miter;" x="469.144433" xlink:href="#mfde99fa9ea" y="512.220827"/>
     <use style="fill:#1f77b4;stroke:#1f77b4;stroke-linejoin:miter;" x="456.884266" xlink:href="#mfde99fa9ea" y="526.691041"/>
     <use style="fill:#1f77b4;stroke:#1f77b4;stroke-linejoin:miter;" x="456.551551" xlink:href="#mfde99fa9ea" y="534.654243"/>
     <use style="fill:#1f77b4;stroke:#1f77b4;stroke-linejoin:miter;" x="465.511568" xlink:href="#mfde99fa9ea" y="535.789995"/>
     <use style="fill:#1f77b4;stroke:#1f77b4;stroke-linejoin:miter;" x="560.494159" xlink:href="#mfde99fa9ea" y="464.52464"/>
     <use style="fill:#1f77b4;stroke:#1f77b4;stroke-linejoin:miter;" x="559.480205" xlink:href="#mfde99fa9ea" y="467.814902"/>
     <use style="fill:#1f77b4;stroke:#1f77b4;stroke-linejoin:miter;" x="558.854685" xlink:href="#mfde99fa9ea" y="470.945088"/>
     <use style="fill:#1f77b4;stroke:#1f77b4;stroke-linejoin:miter;" x="559.6889" xlink:href="#mfde99fa9ea" y="473.256263"/>
     <use style="fill:#1f77b4;stroke:#1f77b4;stroke-linejoin:miter;" x="561.219511" xlink:href="#mfde99fa9ea" y="474.777158"/>
     <use style="fill:#1f77b4;stroke:#1f77b4;stroke-linejoin:miter;" x="563.02726" xlink:href="#mfde99fa9ea" y="476.163363"/>
     <use style="fill:#1f77b4;stroke:#1f77b4;stroke-linejoin:miter;" x="565.130434" xlink:href="#mfde99fa9ea" y="477.019162"/>
     <use style="fill:#1f77b4;stroke:#1f77b4;stroke-linejoin:miter;" x="566.889921" xlink:href="#mfde99fa9ea" y="478.322249"/>
     <use style="fill:#1f77b4;stroke:#1f77b4;stroke-linejoin:miter;" x="568.675769" xlink:href="#mfde99fa9ea" y="480.162822"/>
     <use style="fill:#1f77b4;stroke:#1f77b4;stroke-linejoin:miter;" x="570.61835" xlink:href="#mfde99fa9ea" y="481.983071"/>
     <use style="fill:#1f77b4;stroke:#1f77b4;stroke-linejoin:miter;" x="572.492714" xlink:href="#mfde99fa9ea" y="483.535018"/>
     <use style="fill:#1f77b4;stroke:#1f77b4;stroke-linejoin:miter;" x="574.429816" xlink:href="#mfde99fa9ea" y="485.888579"/>
     <use style="fill:#1f77b4;stroke:#1f77b4;stroke-linejoin:miter;" x="576.285757" xlink:href="#mfde99fa9ea" y="489.044172"/>
     <use style="fill:#1f77b4;stroke:#1f77b4;stroke-linejoin:miter;" x="578.115477" xlink:href="#mfde99fa9ea" y="493.112938"/>
     <use style="fill:#1f77b4;stroke:#1f77b4;stroke-linejoin:miter;" x="575.098366" xlink:href="#mfde99fa9ea" y="623.582148"/>
     <use style="fill:#1f77b4;stroke:#1f77b4;stroke-linejoin:miter;" x="584.85036" xlink:href="#mfde99fa9ea" y="635.819564"/>
     <use style="fill:#1f77b4;stroke:#1f77b4;stroke-linejoin:miter;" x="595.88273" xlink:href="#mfde99fa9ea" y="644.366999"/>
     <use style="fill:#1f77b4;stroke:#1f77b4;stroke-linejoin:miter;" x="607.178758" xlink:href="#mfde99fa9ea" y="640.740292"/>
     <use style="fill:#1f77b4;stroke:#1f77b4;stroke-linejoin:miter;" x="619.066856" xlink:href="#mfde99fa9ea" y="640.632326"/>
     <use style="fill:#1f77b4;stroke:#1f77b4;stroke-linejoin:miter;" x="627.0596" xlink:href="#mfde99fa9ea" y="621.172964"/>
     <use style="fill:#1f77b4;stroke:#1f77b4;stroke-linejoin:miter;" x="646.26374" xlink:href="#mfde99fa9ea" y="615.071013"/>
     <use style="fill:#1f77b4;stroke:#1f77b4;stroke-linejoin:miter;" x="662.868948" xlink:href="#mfde99fa9ea" y="631.869595"/>
     <use style="fill:#1f77b4;stroke:#1f77b4;stroke-linejoin:miter;" x="665.371377" xlink:href="#mfde99fa9ea" y="609.703975"/>
     <use style="fill:#1f77b4;stroke:#1f77b4;stroke-linejoin:miter;" x="681.002136" xlink:href="#mfde99fa9ea" y="598.684753"/>
     <use style="fill:#1f77b4;stroke:#1f77b4;stroke-linejoin:miter;" x="691.5187" xlink:href="#mfde99fa9ea" y="598.369316"/>
     <use style="fill:#1f77b4;stroke:#1f77b4;stroke-linejoin:miter;" x="703.3752" xlink:href="#mfde99fa9ea" y="599.665336"/>
     <use style="fill:#1f77b4;stroke:#1f77b4;stroke-linejoin:miter;" x="758.069615" xlink:href="#mfde99fa9ea" y="591.55904"/>
     <use style="fill:#1f77b4;stroke:#1f77b4;stroke-linejoin:miter;" x="766.81616" xlink:href="#mfde99fa9ea" y="586.549946"/>
     <use style="fill:#1f77b4;stroke:#1f77b4;stroke-linejoin:miter;" x="780.392943" xlink:href="#mfde99fa9ea" y="585.42787"/>
     <use style="fill:#1f77b4;stroke:#1f77b4;stroke-linejoin:miter;" x="794.575819" xlink:href="#mfde99fa9ea" y="584.128254"/>
     <use style="fill:#1f77b4;stroke:#1f77b4;stroke-linejoin:miter;" x="810.633352" xlink:href="#mfde99fa9ea" y="583.276351"/>
     <use style="fill:#1f77b4;stroke:#1f77b4;stroke-linejoin:miter;" x="831.613701" xlink:href="#mfde99fa9ea" y="584.571133"/>
     <use style="fill:#1f77b4;stroke:#1f77b4;stroke-linejoin:miter;" x="835.077881" xlink:href="#mfde99fa9ea" y="573.711355"/>
     <use style="fill:#1f77b4;stroke:#1f77b4;stroke-linejoin:miter;" x="850.30807" xlink:href="#mfde99fa9ea" y="570.207167"/>
     <use style="fill:#1f77b4;stroke:#1f77b4;stroke-linejoin:miter;" x="876.01263" xlink:href="#mfde99fa9ea" y="571.17284"/>
     <use style="fill:#1f77b4;stroke:#1f77b4;stroke-linejoin:miter;" x="876.904482" xlink:href="#mfde99fa9ea" y="559.346918"/>
     <use style="fill:#1f77b4;stroke:#1f77b4;stroke-linejoin:miter;" x="894.29468" xlink:href="#mfde99fa9ea" y="554.752671"/>
     <use style="fill:#1f77b4;stroke:#1f77b4;stroke-linejoin:miter;" x="925.263217" xlink:href="#mfde99fa9ea" y="554.337532"/>
     <use style="fill:#1f77b4;stroke:#1f77b4;stroke-linejoin:miter;" x="1089.545373" xlink:href="#mfde99fa9ea" y="526.689297"/>
     <use style="fill:#1f77b4;stroke:#1f77b4;stroke-linejoin:miter;" x="1092.391135" xlink:href="#mfde99fa9ea" y="511.044219"/>
     <use style="fill:#1f77b4;stroke:#1f77b4;stroke-linejoin:miter;" x="1143.475408" xlink:href="#mfde99fa9ea" y="501.249453"/>
    </g>
   </g>
   <g id="patch_3">
    <path d="M 144 768.96 
L 144 103.68 
" style="fill:none;stroke:#000000;stroke-linecap:square;stroke-linejoin:miter;stroke-width:0.8;"/>
   </g>
   <g id="patch_4">
    <path d="M 1036.8 768.96 
L 1036.8 103.68 
" style="fill:none;stroke:#000000;stroke-linecap:square;stroke-linejoin:miter;stroke-width:0.8;"/>
   </g>
   <g id="patch_5">
    <path d="M 144 768.96 
L 1036.8 768.96 
" style="fill:none;stroke:#000000;stroke-linecap:square;stroke-linejoin:miter;stroke-width:0.8;"/>
   </g>
   <g id="patch_6">
    <path d="M 144 103.68 
L 1036.8 103.68 
" style="fill:none;stroke:#000000;stroke-linecap:square;stroke-linejoin:miter;stroke-width:0.8;"/>
   </g>
  </g>
 </g>
 <defs>
  <clipPath id="pb45a6543a5">
   <rect height="665.28" width="892.8" x="144" y="103.68"/>
  </clipPath>
 </defs>
</svg>
