<?xml version="1.0" encoding="utf-8" standalone="no"?>
<!DOCTYPE svg PUBLIC "-//W3C//DTD SVG 1.1//EN"
  "http://www.w3.org/Graphics/SVG/1.1/DTD/svg11.dtd">
<!-- Created with matplotlib (http://matplotlib.org/) -->
<svg height="864pt" version="1.1" viewBox="0 0 1152 864" width="1152pt" xmlns="http://www.w3.org/2000/svg" xmlns:xlink="http://www.w3.org/1999/xlink">
 <defs>
  <style type="text/css">
*{stroke-linecap:butt;stroke-linejoin:round;}
  </style>
 </defs>
 <g id="figure_1">
  <g id="patch_1">
   <path d="M 0 864 
L 1152 864 
L 1152 0 
L 0 0 
z
" style="fill:#ffffff;"/>
  </g>
  <g id="axes_1">
   <g id="patch_2">
    <path d="M 144 768.96 
L 1036.8 768.96 
L 1036.8 103.68 
L 144 103.68 
z
" style="fill:#ffffff;"/>
   </g>
   <g id="matplotlib.axis_1">
    <g id="xtick_1">
     <g id="line2d_1">
      <defs>
       <path d="M 0 0 
L 0 3.5 
" id="m6859fd9fd6" style="stroke:#000000;stroke-width:0.8;"/>
      </defs>
      <g>
       <use style="stroke:#000000;stroke-width:0.8;" x="144" xlink:href="#m6859fd9fd6" y="768.96"/>
      </g>
     </g>
     <g id="text_1">
      <!-- −4000 -->
      <defs>
       <path d="M 10.59375 35.5 
L 73.1875 35.5 
L 73.1875 27.203125 
L 10.59375 27.203125 
z
" id="DejaVuSans-2212"/>
       <path d="M 37.796875 64.3125 
L 12.890625 25.390625 
L 37.796875 25.390625 
z
M 35.203125 72.90625 
L 47.609375 72.90625 
L 47.609375 25.390625 
L 58.015625 25.390625 
L 58.015625 17.1875 
L 47.609375 17.1875 
L 47.609375 0 
L 37.796875 0 
L 37.796875 17.1875 
L 4.890625 17.1875 
L 4.890625 26.703125 
z
" id="DejaVuSans-34"/>
       <path d="M 31.78125 66.40625 
Q 24.171875 66.40625 20.328125 58.90625 
Q 16.5 51.421875 16.5 36.375 
Q 16.5 21.390625 20.328125 13.890625 
Q 24.171875 6.390625 31.78125 6.390625 
Q 39.453125 6.390625 43.28125 13.890625 
Q 47.125 21.390625 47.125 36.375 
Q 47.125 51.421875 43.28125 58.90625 
Q 39.453125 66.40625 31.78125 66.40625 
z
M 31.78125 74.21875 
Q 44.046875 74.21875 50.515625 64.515625 
Q 56.984375 54.828125 56.984375 36.375 
Q 56.984375 17.96875 50.515625 8.265625 
Q 44.046875 -1.421875 31.78125 -1.421875 
Q 19.53125 -1.421875 13.0625 8.265625 
Q 6.59375 17.96875 6.59375 36.375 
Q 6.59375 54.828125 13.0625 64.515625 
Q 19.53125 74.21875 31.78125 74.21875 
z
" id="DejaVuSans-30"/>
      </defs>
      <g transform="translate(127.085156 783.558437)scale(0.1 -0.1)">
       <use xlink:href="#DejaVuSans-2212"/>
       <use x="83.789062" xlink:href="#DejaVuSans-34"/>
       <use x="147.412109" xlink:href="#DejaVuSans-30"/>
       <use x="211.035156" xlink:href="#DejaVuSans-30"/>
       <use x="274.658203" xlink:href="#DejaVuSans-30"/>
      </g>
     </g>
    </g>
    <g id="xtick_2">
     <g id="line2d_2">
      <g>
       <use style="stroke:#000000;stroke-width:0.8;" x="255.6" xlink:href="#m6859fd9fd6" y="768.96"/>
      </g>
     </g>
     <g id="text_2">
      <!-- −3000 -->
      <defs>
       <path d="M 40.578125 39.3125 
Q 47.65625 37.796875 51.625 33 
Q 55.609375 28.21875 55.609375 21.1875 
Q 55.609375 10.40625 48.1875 4.484375 
Q 40.765625 -1.421875 27.09375 -1.421875 
Q 22.515625 -1.421875 17.65625 -0.515625 
Q 12.796875 0.390625 7.625 2.203125 
L 7.625 11.71875 
Q 11.71875 9.328125 16.59375 8.109375 
Q 21.484375 6.890625 26.8125 6.890625 
Q 36.078125 6.890625 40.9375 10.546875 
Q 45.796875 14.203125 45.796875 21.1875 
Q 45.796875 27.640625 41.28125 31.265625 
Q 36.765625 34.90625 28.71875 34.90625 
L 20.21875 34.90625 
L 20.21875 43.015625 
L 29.109375 43.015625 
Q 36.375 43.015625 40.234375 45.921875 
Q 44.09375 48.828125 44.09375 54.296875 
Q 44.09375 59.90625 40.109375 62.90625 
Q 36.140625 65.921875 28.71875 65.921875 
Q 24.65625 65.921875 20.015625 65.03125 
Q 15.375 64.15625 9.8125 62.3125 
L 9.8125 71.09375 
Q 15.4375 72.65625 20.34375 73.4375 
Q 25.25 74.21875 29.59375 74.21875 
Q 40.828125 74.21875 47.359375 69.109375 
Q 53.90625 64.015625 53.90625 55.328125 
Q 53.90625 49.265625 50.4375 45.09375 
Q 46.96875 40.921875 40.578125 39.3125 
z
" id="DejaVuSans-33"/>
      </defs>
      <g transform="translate(238.685156 783.558437)scale(0.1 -0.1)">
       <use xlink:href="#DejaVuSans-2212"/>
       <use x="83.789062" xlink:href="#DejaVuSans-33"/>
       <use x="147.412109" xlink:href="#DejaVuSans-30"/>
       <use x="211.035156" xlink:href="#DejaVuSans-30"/>
       <use x="274.658203" xlink:href="#DejaVuSans-30"/>
      </g>
     </g>
    </g>
    <g id="xtick_3">
     <g id="line2d_3">
      <g>
       <use style="stroke:#000000;stroke-width:0.8;" x="367.2" xlink:href="#m6859fd9fd6" y="768.96"/>
      </g>
     </g>
     <g id="text_3">
      <!-- −2000 -->
      <defs>
       <path d="M 19.1875 8.296875 
L 53.609375 8.296875 
L 53.609375 0 
L 7.328125 0 
L 7.328125 8.296875 
Q 12.9375 14.109375 22.625 23.890625 
Q 32.328125 33.6875 34.8125 36.53125 
Q 39.546875 41.84375 41.421875 45.53125 
Q 43.3125 49.21875 43.3125 52.78125 
Q 43.3125 58.59375 39.234375 62.25 
Q 35.15625 65.921875 28.609375 65.921875 
Q 23.96875 65.921875 18.8125 64.3125 
Q 13.671875 62.703125 7.8125 59.421875 
L 7.8125 69.390625 
Q 13.765625 71.78125 18.9375 73 
Q 24.125 74.21875 28.421875 74.21875 
Q 39.75 74.21875 46.484375 68.546875 
Q 53.21875 62.890625 53.21875 53.421875 
Q 53.21875 48.921875 51.53125 44.890625 
Q 49.859375 40.875 45.40625 35.40625 
Q 44.1875 33.984375 37.640625 27.21875 
Q 31.109375 20.453125 19.1875 8.296875 
z
" id="DejaVuSans-32"/>
      </defs>
      <g transform="translate(350.285156 783.558437)scale(0.1 -0.1)">
       <use xlink:href="#DejaVuSans-2212"/>
       <use x="83.789062" xlink:href="#DejaVuSans-32"/>
       <use x="147.412109" xlink:href="#DejaVuSans-30"/>
       <use x="211.035156" xlink:href="#DejaVuSans-30"/>
       <use x="274.658203" xlink:href="#DejaVuSans-30"/>
      </g>
     </g>
    </g>
    <g id="xtick_4">
     <g id="line2d_4">
      <g>
       <use style="stroke:#000000;stroke-width:0.8;" x="478.8" xlink:href="#m6859fd9fd6" y="768.96"/>
      </g>
     </g>
     <g id="text_4">
      <!-- −1000 -->
      <defs>
       <path d="M 12.40625 8.296875 
L 28.515625 8.296875 
L 28.515625 63.921875 
L 10.984375 60.40625 
L 10.984375 69.390625 
L 28.421875 72.90625 
L 38.28125 72.90625 
L 38.28125 8.296875 
L 54.390625 8.296875 
L 54.390625 0 
L 12.40625 0 
z
" id="DejaVuSans-31"/>
      </defs>
      <g transform="translate(461.885156 783.558437)scale(0.1 -0.1)">
       <use xlink:href="#DejaVuSans-2212"/>
       <use x="83.789062" xlink:href="#DejaVuSans-31"/>
       <use x="147.412109" xlink:href="#DejaVuSans-30"/>
       <use x="211.035156" xlink:href="#DejaVuSans-30"/>
       <use x="274.658203" xlink:href="#DejaVuSans-30"/>
      </g>
     </g>
    </g>
    <g id="xtick_5">
     <g id="line2d_5">
      <g>
       <use style="stroke:#000000;stroke-width:0.8;" x="590.4" xlink:href="#m6859fd9fd6" y="768.96"/>
      </g>
     </g>
     <g id="text_5">
      <!-- 0 -->
      <g transform="translate(587.21875 783.558437)scale(0.1 -0.1)">
       <use xlink:href="#DejaVuSans-30"/>
      </g>
     </g>
    </g>
    <g id="xtick_6">
     <g id="line2d_6">
      <g>
       <use style="stroke:#000000;stroke-width:0.8;" x="702" xlink:href="#m6859fd9fd6" y="768.96"/>
      </g>
     </g>
     <g id="text_6">
      <!-- 1000 -->
      <g transform="translate(689.275 783.558437)scale(0.1 -0.1)">
       <use xlink:href="#DejaVuSans-31"/>
       <use x="63.623047" xlink:href="#DejaVuSans-30"/>
       <use x="127.246094" xlink:href="#DejaVuSans-30"/>
       <use x="190.869141" xlink:href="#DejaVuSans-30"/>
      </g>
     </g>
    </g>
    <g id="xtick_7">
     <g id="line2d_7">
      <g>
       <use style="stroke:#000000;stroke-width:0.8;" x="813.6" xlink:href="#m6859fd9fd6" y="768.96"/>
      </g>
     </g>
     <g id="text_7">
      <!-- 2000 -->
      <g transform="translate(800.875 783.558437)scale(0.1 -0.1)">
       <use xlink:href="#DejaVuSans-32"/>
       <use x="63.623047" xlink:href="#DejaVuSans-30"/>
       <use x="127.246094" xlink:href="#DejaVuSans-30"/>
       <use x="190.869141" xlink:href="#DejaVuSans-30"/>
      </g>
     </g>
    </g>
    <g id="xtick_8">
     <g id="line2d_8">
      <g>
       <use style="stroke:#000000;stroke-width:0.8;" x="925.2" xlink:href="#m6859fd9fd6" y="768.96"/>
      </g>
     </g>
     <g id="text_8">
      <!-- 3000 -->
      <g transform="translate(912.475 783.558437)scale(0.1 -0.1)">
       <use xlink:href="#DejaVuSans-33"/>
       <use x="63.623047" xlink:href="#DejaVuSans-30"/>
       <use x="127.246094" xlink:href="#DejaVuSans-30"/>
       <use x="190.869141" xlink:href="#DejaVuSans-30"/>
      </g>
     </g>
    </g>
    <g id="xtick_9">
     <g id="line2d_9">
      <g>
       <use style="stroke:#000000;stroke-width:0.8;" x="1036.8" xlink:href="#m6859fd9fd6" y="768.96"/>
      </g>
     </g>
     <g id="text_9">
      <!-- 4000 -->
      <g transform="translate(1024.075 783.558437)scale(0.1 -0.1)">
       <use xlink:href="#DejaVuSans-34"/>
       <use x="63.623047" xlink:href="#DejaVuSans-30"/>
       <use x="127.246094" xlink:href="#DejaVuSans-30"/>
       <use x="190.869141" xlink:href="#DejaVuSans-30"/>
      </g>
     </g>
    </g>
   </g>
   <g id="matplotlib.axis_2">
    <g id="ytick_1">
     <g id="line2d_10">
      <defs>
       <path d="M 0 0 
L -3.5 0 
" id="m5a91e0c9de" style="stroke:#000000;stroke-width:0.8;"/>
      </defs>
      <g>
       <use style="stroke:#000000;stroke-width:0.8;" x="144" xlink:href="#m5a91e0c9de" y="768.96"/>
      </g>
     </g>
     <g id="text_10">
      <!-- −4000 -->
      <g transform="translate(103.170312 772.759219)scale(0.1 -0.1)">
       <use xlink:href="#DejaVuSans-2212"/>
       <use x="83.789062" xlink:href="#DejaVuSans-34"/>
       <use x="147.412109" xlink:href="#DejaVuSans-30"/>
       <use x="211.035156" xlink:href="#DejaVuSans-30"/>
       <use x="274.658203" xlink:href="#DejaVuSans-30"/>
      </g>
     </g>
    </g>
    <g id="ytick_2">
     <g id="line2d_11">
      <g>
       <use style="stroke:#000000;stroke-width:0.8;" x="144" xlink:href="#m5a91e0c9de" y="685.8"/>
      </g>
     </g>
     <g id="text_11">
      <!-- −3000 -->
      <g transform="translate(103.170312 689.599219)scale(0.1 -0.1)">
       <use xlink:href="#DejaVuSans-2212"/>
       <use x="83.789062" xlink:href="#DejaVuSans-33"/>
       <use x="147.412109" xlink:href="#DejaVuSans-30"/>
       <use x="211.035156" xlink:href="#DejaVuSans-30"/>
       <use x="274.658203" xlink:href="#DejaVuSans-30"/>
      </g>
     </g>
    </g>
    <g id="ytick_3">
     <g id="line2d_12">
      <g>
       <use style="stroke:#000000;stroke-width:0.8;" x="144" xlink:href="#m5a91e0c9de" y="602.64"/>
      </g>
     </g>
     <g id="text_12">
      <!-- −2000 -->
      <g transform="translate(103.170312 606.439219)scale(0.1 -0.1)">
       <use xlink:href="#DejaVuSans-2212"/>
       <use x="83.789062" xlink:href="#DejaVuSans-32"/>
       <use x="147.412109" xlink:href="#DejaVuSans-30"/>
       <use x="211.035156" xlink:href="#DejaVuSans-30"/>
       <use x="274.658203" xlink:href="#DejaVuSans-30"/>
      </g>
     </g>
    </g>
    <g id="ytick_4">
     <g id="line2d_13">
      <g>
       <use style="stroke:#000000;stroke-width:0.8;" x="144" xlink:href="#m5a91e0c9de" y="519.48"/>
      </g>
     </g>
     <g id="text_13">
      <!-- −1000 -->
      <g transform="translate(103.170312 523.279219)scale(0.1 -0.1)">
       <use xlink:href="#DejaVuSans-2212"/>
       <use x="83.789062" xlink:href="#DejaVuSans-31"/>
       <use x="147.412109" xlink:href="#DejaVuSans-30"/>
       <use x="211.035156" xlink:href="#DejaVuSans-30"/>
       <use x="274.658203" xlink:href="#DejaVuSans-30"/>
      </g>
     </g>
    </g>
    <g id="ytick_5">
     <g id="line2d_14">
      <g>
       <use style="stroke:#000000;stroke-width:0.8;" x="144" xlink:href="#m5a91e0c9de" y="436.32"/>
      </g>
     </g>
     <g id="text_14">
      <!-- 0 -->
      <g transform="translate(130.6375 440.119219)scale(0.1 -0.1)">
       <use xlink:href="#DejaVuSans-30"/>
      </g>
     </g>
    </g>
    <g id="ytick_6">
     <g id="line2d_15">
      <g>
       <use style="stroke:#000000;stroke-width:0.8;" x="144" xlink:href="#m5a91e0c9de" y="353.16"/>
      </g>
     </g>
     <g id="text_15">
      <!-- 1000 -->
      <g transform="translate(111.55 356.959219)scale(0.1 -0.1)">
       <use xlink:href="#DejaVuSans-31"/>
       <use x="63.623047" xlink:href="#DejaVuSans-30"/>
       <use x="127.246094" xlink:href="#DejaVuSans-30"/>
       <use x="190.869141" xlink:href="#DejaVuSans-30"/>
      </g>
     </g>
    </g>
    <g id="ytick_7">
     <g id="line2d_16">
      <g>
       <use style="stroke:#000000;stroke-width:0.8;" x="144" xlink:href="#m5a91e0c9de" y="270"/>
      </g>
     </g>
     <g id="text_16">
      <!-- 2000 -->
      <g transform="translate(111.55 273.799219)scale(0.1 -0.1)">
       <use xlink:href="#DejaVuSans-32"/>
       <use x="63.623047" xlink:href="#DejaVuSans-30"/>
       <use x="127.246094" xlink:href="#DejaVuSans-30"/>
       <use x="190.869141" xlink:href="#DejaVuSans-30"/>
      </g>
     </g>
    </g>
    <g id="ytick_8">
     <g id="line2d_17">
      <g>
       <use style="stroke:#000000;stroke-width:0.8;" x="144" xlink:href="#m5a91e0c9de" y="186.84"/>
      </g>
     </g>
     <g id="text_17">
      <!-- 3000 -->
      <g transform="translate(111.55 190.639219)scale(0.1 -0.1)">
       <use xlink:href="#DejaVuSans-33"/>
       <use x="63.623047" xlink:href="#DejaVuSans-30"/>
       <use x="127.246094" xlink:href="#DejaVuSans-30"/>
       <use x="190.869141" xlink:href="#DejaVuSans-30"/>
      </g>
     </g>
    </g>
    <g id="ytick_9">
     <g id="line2d_18">
      <g>
       <use style="stroke:#000000;stroke-width:0.8;" x="144" xlink:href="#m5a91e0c9de" y="103.68"/>
      </g>
     </g>
     <g id="text_18">
      <!-- 4000 -->
      <g transform="translate(111.55 107.479219)scale(0.1 -0.1)">
       <use xlink:href="#DejaVuSans-34"/>
       <use x="63.623047" xlink:href="#DejaVuSans-30"/>
       <use x="127.246094" xlink:href="#DejaVuSans-30"/>
       <use x="190.869141" xlink:href="#DejaVuSans-30"/>
      </g>
     </g>
    </g>
   </g>
   <g id="line2d_19">
    <path clip-path="url(#p95c29f8d91)" d="M 590.4 768.96 
L 590.4 103.68 
" style="fill:none;stroke:#1f77b4;stroke-linecap:square;stroke-width:1.5;"/>
   </g>
   <g id="line2d_20">
    <path clip-path="url(#p95c29f8d91)" d="M 144 436.32 
L 1036.8 436.32 
" style="fill:none;stroke:#1f77b4;stroke-linecap:square;stroke-width:1.5;"/>
   </g>
   <g id="line2d_21">
    <defs>
     <path d="M 0 3 
C 0.795609 3 1.55874 2.683901 2.12132 2.12132 
C 2.683901 1.55874 3 0.795609 3 0 
C 3 -0.795609 2.683901 -1.55874 2.12132 -2.12132 
C 1.55874 -2.683901 0.795609 -3 0 -3 
C -0.795609 -3 -1.55874 -2.683901 -2.12132 -2.12132 
C -2.683901 -1.55874 -3 -0.795609 -3 0 
C -3 0.795609 -2.683901 1.55874 -2.12132 2.12132 
C -1.55874 2.683901 -0.795609 3 0 3 
z
" id="mc647e6a6fc" style="stroke:#008000;"/>
    </defs>
    <g clip-path="url(#p95c29f8d91)">
     <use style="fill:#008000;stroke:#008000;" x="771.106937" xlink:href="#mc647e6a6fc" y="197.557617"/>
    </g>
   </g>
   <g id="line2d_22">
    <g clip-path="url(#p95c29f8d91)">
     <use style="fill:#008000;stroke:#008000;" x="564.636848" xlink:href="#mc647e6a6fc" y="226.13483"/>
    </g>
   </g>
   <g id="line2d_23">
    <g clip-path="url(#p95c29f8d91)">
     <use style="fill:#008000;stroke:#008000;" x="578.082593" xlink:href="#mc647e6a6fc" y="394.998664"/>
    </g>
   </g>
   <g id="line2d_24">
    <g clip-path="url(#p95c29f8d91)">
     <use style="fill:#008000;stroke:#008000;" x="578.082593" xlink:href="#mc647e6a6fc" y="394.998664"/>
    </g>
   </g>
   <g id="line2d_25">
    <g clip-path="url(#p95c29f8d91)">
     <use style="fill:#008000;stroke:#008000;" x="487.961495" xlink:href="#mc647e6a6fc" y="242.381779"/>
    </g>
   </g>
   <g id="line2d_26">
    <g clip-path="url(#p95c29f8d91)">
     <use style="fill:#008000;stroke:#008000;" x="546.442745" xlink:href="#mc647e6a6fc" y="651.870172"/>
    </g>
   </g>
   <g id="line2d_27">
    <g clip-path="url(#p95c29f8d91)">
     <use style="fill:#008000;stroke:#008000;" x="755.114969" xlink:href="#mc647e6a6fc" y="593.595775"/>
    </g>
   </g>
   <g id="line2d_28">
    <defs>
     <path d="M 0 1.333333 
C 0.353604 1.333333 0.692773 1.192845 0.942809 0.942809 
C 1.192845 0.692773 1.333333 0.353604 1.333333 0 
C 1.333333 -0.353604 1.192845 -0.692773 0.942809 -0.942809 
C 0.692773 -1.192845 0.353604 -1.333333 0 -1.333333 
C -0.353604 -1.333333 -0.692773 -1.192845 -0.942809 -0.942809 
C -1.192845 -0.692773 -1.333333 -0.353604 -1.333333 0 
C -1.333333 0.353604 -1.192845 0.692773 -0.942809 0.942809 
C -0.692773 1.192845 -0.353604 1.333333 0 1.333333 
z
" id="mff82c908c4" style="stroke:#ff0000;"/>
    </defs>
    <g clip-path="url(#p95c29f8d91)">
     <use style="fill:#ff0000;stroke:#ff0000;" x="1165.258076" xlink:href="#mff82c908c4" y="499.622741"/>
     <use style="fill:#ff0000;stroke:#ff0000;" x="1289.440561" xlink:href="#mff82c908c4" y="346.374556"/>
     <use style="fill:#ff0000;stroke:#ff0000;" x="1259.053801" xlink:href="#mff82c908c4" y="331.973841"/>
     <use style="fill:#ff0000;stroke:#ff0000;" x="1325.224312" xlink:href="#mff82c908c4" y="280.762344"/>
     <use style="fill:#ff0000;stroke:#ff0000;" x="1347.751026" xlink:href="#mff82c908c4" y="254.312241"/>
     <use style="fill:#ff0000;stroke:#ff0000;" x="661.094779" xlink:href="#mff82c908c4" y="398.331065"/>
     <use style="fill:#ff0000;stroke:#ff0000;" x="648.00447" xlink:href="#mff82c908c4" y="377.744712"/>
     <use style="fill:#ff0000;stroke:#ff0000;" x="771.106937" xlink:href="#mff82c908c4" y="197.557617"/>
     <use style="fill:#ff0000;stroke:#ff0000;" x="564.636848" xlink:href="#mff82c908c4" y="226.13483"/>
     <use style="fill:#ff0000;stroke:#ff0000;" x="580.980083" xlink:href="#mff82c908c4" y="394.30359"/>
     <use style="fill:#ff0000;stroke:#ff0000;" x="575.257292" xlink:href="#mff82c908c4" y="395.803751"/>
     <use style="fill:#ff0000;stroke:#ff0000;" x="487.961495" xlink:href="#mff82c908c4" y="242.381779"/>
     <use style="fill:#ff0000;stroke:#ff0000;" x="393.023597" xlink:href="#mff82c908c4" y="293.58987"/>
     <use style="fill:#ff0000;stroke:#ff0000;" x="411.882493" xlink:href="#mff82c908c4" y="316.54435"/>
     <use style="fill:#ff0000;stroke:#ff0000;" x="421.782489" xlink:href="#mff82c908c4" y="331.064497"/>
     <use style="fill:#ff0000;stroke:#ff0000;" x="436.174969" xlink:href="#mff82c908c4" y="347.136789"/>
     <use style="fill:#ff0000;stroke:#ff0000;" x="404.120015" xlink:href="#mff82c908c4" y="363.530734"/>
     <use style="fill:#ff0000;stroke:#ff0000;" x="454.449507" xlink:href="#mff82c908c4" y="388.372471"/>
     <use style="fill:#ff0000;stroke:#ff0000;" x="467.645886" xlink:href="#mff82c908c4" y="411.890445"/>
     <use style="fill:#ff0000;stroke:#ff0000;" x="452.499564" xlink:href="#mff82c908c4" y="412.566913"/>
     <use style="fill:#ff0000;stroke:#ff0000;" x="441.808121" xlink:href="#mff82c908c4" y="414.640533"/>
     <use style="fill:#ff0000;stroke:#ff0000;" x="420.534644" xlink:href="#mff82c908c4" y="438.14961"/>
     <use style="fill:#ff0000;stroke:#ff0000;" x="395.988675" xlink:href="#mff82c908c4" y="443.199306"/>
     <use style="fill:#ff0000;stroke:#ff0000;" x="400.833346" xlink:href="#mff82c908c4" y="468.445379"/>
     <use style="fill:#ff0000;stroke:#ff0000;" x="436.460998" xlink:href="#mff82c908c4" y="467.123353"/>
     <use style="fill:#ff0000;stroke:#ff0000;" x="402.891192" xlink:href="#mff82c908c4" y="478.621698"/>
     <use style="fill:#ff0000;stroke:#ff0000;" x="411.691181" xlink:href="#mff82c908c4" y="510.325626"/>
     <use style="fill:#ff0000;stroke:#ff0000;" x="468.881336" xlink:href="#mff82c908c4" y="491.640033"/>
     <use style="fill:#ff0000;stroke:#ff0000;" x="433.116059" xlink:href="#mff82c908c4" y="512.932636"/>
     <use style="fill:#ff0000;stroke:#ff0000;" x="453.17691" xlink:href="#mff82c908c4" y="514.251427"/>
     <use style="fill:#ff0000;stroke:#ff0000;" x="466.115686" xlink:href="#mff82c908c4" y="512.366864"/>
     <use style="fill:#ff0000;stroke:#ff0000;" x="456.625152" xlink:href="#mff82c908c4" y="523.884759"/>
     <use style="fill:#ff0000;stroke:#ff0000;" x="446.561285" xlink:href="#mff82c908c4" y="544.383538"/>
     <use style="fill:#ff0000;stroke:#ff0000;" x="467.591722" xlink:href="#mff82c908c4" y="535.697012"/>
     <use style="fill:#ff0000;stroke:#ff0000;" x="471.375914" xlink:href="#mff82c908c4" y="539.65053"/>
     <use style="fill:#ff0000;stroke:#ff0000;" x="455.352197" xlink:href="#mff82c908c4" y="561.565366"/>
     <use style="fill:#ff0000;stroke:#ff0000;" x="529.917454" xlink:href="#mff82c908c4" y="503.295391"/>
     <use style="fill:#ff0000;stroke:#ff0000;" x="567.585203" xlink:href="#mff82c908c4" y="506.878672"/>
     <use style="fill:#ff0000;stroke:#ff0000;" x="546.442745" xlink:href="#mff82c908c4" y="651.870172"/>
     <use style="fill:#ff0000;stroke:#ff0000;" x="564.021297" xlink:href="#mff82c908c4" y="608.841909"/>
     <use style="fill:#ff0000;stroke:#ff0000;" x="570.308912" xlink:href="#mff82c908c4" y="625.228545"/>
     <use style="fill:#ff0000;stroke:#ff0000;" x="580.325926" xlink:href="#mff82c908c4" y="611.543713"/>
     <use style="fill:#ff0000;stroke:#ff0000;" x="587.910915" xlink:href="#mff82c908c4" y="636.352781"/>
     <use style="fill:#ff0000;stroke:#ff0000;" x="627.136116" xlink:href="#mff82c908c4" y="639.955872"/>
     <use style="fill:#ff0000;stroke:#ff0000;" x="633.04772" xlink:href="#mff82c908c4" y="621.871689"/>
     <use style="fill:#ff0000;stroke:#ff0000;" x="640.657506" xlink:href="#mff82c908c4" y="615.631647"/>
     <use style="fill:#ff0000;stroke:#ff0000;" x="665.128679" xlink:href="#mff82c908c4" y="633.557924"/>
     <use style="fill:#ff0000;stroke:#ff0000;" x="665.465498" xlink:href="#mff82c908c4" y="609.921645"/>
     <use style="fill:#ff0000;stroke:#ff0000;" x="695.851845" xlink:href="#mff82c908c4" y="597.430073"/>
     <use style="fill:#ff0000;stroke:#ff0000;" x="755.114969" xlink:href="#mff82c908c4" y="593.595775"/>
     <use style="fill:#ff0000;stroke:#ff0000;" x="810.019809" xlink:href="#mff82c908c4" y="583.350157"/>
     <use style="fill:#ff0000;stroke:#ff0000;" x="833.796066" xlink:href="#mff82c908c4" y="588.338441"/>
     <use style="fill:#ff0000;stroke:#ff0000;" x="838.529685" xlink:href="#mff82c908c4" y="569.73299"/>
     <use style="fill:#ff0000;stroke:#ff0000;" x="871.401052" xlink:href="#mff82c908c4" y="576.561293"/>
     <use style="fill:#ff0000;stroke:#ff0000;" x="893.719045" xlink:href="#mff82c908c4" y="555.078368"/>
     <use style="fill:#ff0000;stroke:#ff0000;" x="946.073572" xlink:href="#mff82c908c4" y="552.851569"/>
     <use style="fill:#ff0000;stroke:#ff0000;" x="1050.279375" xlink:href="#mff82c908c4" y="545.808091"/>
     <use style="fill:#ff0000;stroke:#ff0000;" x="1089.702048" xlink:href="#mff82c908c4" y="526.825123"/>
     <use style="fill:#ff0000;stroke:#ff0000;" x="1086.204798" xlink:href="#mff82c908c4" y="512.641244"/>
     <use style="fill:#ff0000;stroke:#ff0000;" x="1126.714306" xlink:href="#mff82c908c4" y="504.317796"/>
    </g>
   </g>
   <g id="line2d_29">
    <defs>
     <path d="M -0.5 0.5 
L 0.5 0.5 
L 0.5 -0.5 
L -0.5 -0.5 
z
" id="mf0dfb4b3c4" style="stroke:#1f77b4;stroke-linejoin:miter;"/>
    </defs>
    <g clip-path="url(#p95c29f8d91)">
     <use style="fill:#1f77b4;stroke:#1f77b4;stroke-linejoin:miter;" x="1165.258076" xlink:href="#mf0dfb4b3c4" y="499.622741"/>
     <use style="fill:#1f77b4;stroke:#1f77b4;stroke-linejoin:miter;" x="1289.440561" xlink:href="#mf0dfb4b3c4" y="346.374556"/>
     <use style="fill:#1f77b4;stroke:#1f77b4;stroke-linejoin:miter;" x="1259.053801" xlink:href="#mf0dfb4b3c4" y="331.973841"/>
     <use style="fill:#1f77b4;stroke:#1f77b4;stroke-linejoin:miter;" x="1325.224312" xlink:href="#mf0dfb4b3c4" y="280.762344"/>
     <use style="fill:#1f77b4;stroke:#1f77b4;stroke-linejoin:miter;" x="1347.751026" xlink:href="#mf0dfb4b3c4" y="254.312241"/>
     <use style="fill:#1f77b4;stroke:#1f77b4;stroke-linejoin:miter;" x="661.094779" xlink:href="#mf0dfb4b3c4" y="398.331065"/>
     <use style="fill:#1f77b4;stroke:#1f77b4;stroke-linejoin:miter;" x="649.7654" xlink:href="#mf0dfb4b3c4" y="399.221472"/>
     <use style="fill:#1f77b4;stroke:#1f77b4;stroke-linejoin:miter;" x="647.576289" xlink:href="#mf0dfb4b3c4" y="397.915686"/>
     <use style="fill:#1f77b4;stroke:#1f77b4;stroke-linejoin:miter;" x="646.390967" xlink:href="#mf0dfb4b3c4" y="395.875037"/>
     <use style="fill:#1f77b4;stroke:#1f77b4;stroke-linejoin:miter;" x="645.22102" xlink:href="#mf0dfb4b3c4" y="393.948749"/>
     <use style="fill:#1f77b4;stroke:#1f77b4;stroke-linejoin:miter;" x="643.43963" xlink:href="#mf0dfb4b3c4" y="392.232123"/>
     <use style="fill:#1f77b4;stroke:#1f77b4;stroke-linejoin:miter;" x="641.617564" xlink:href="#mf0dfb4b3c4" y="390.861494"/>
     <use style="fill:#1f77b4;stroke:#1f77b4;stroke-linejoin:miter;" x="642.053589" xlink:href="#mf0dfb4b3c4" y="387.137712"/>
     <use style="fill:#1f77b4;stroke:#1f77b4;stroke-linejoin:miter;" x="648.00447" xlink:href="#mf0dfb4b3c4" y="377.744712"/>
     <use style="fill:#1f77b4;stroke:#1f77b4;stroke-linejoin:miter;" x="771.106937" xlink:href="#mf0dfb4b3c4" y="197.557617"/>
     <use style="fill:#1f77b4;stroke:#1f77b4;stroke-linejoin:miter;" x="756.399258" xlink:href="#mf0dfb4b3c4" y="197.749496"/>
     <use style="fill:#1f77b4;stroke:#1f77b4;stroke-linejoin:miter;" x="741.650311" xlink:href="#mf0dfb4b3c4" y="198.861707"/>
     <use style="fill:#1f77b4;stroke:#1f77b4;stroke-linejoin:miter;" x="726.023407" xlink:href="#mf0dfb4b3c4" y="202.32603"/>
     <use style="fill:#1f77b4;stroke:#1f77b4;stroke-linejoin:miter;" x="711.78035" xlink:href="#mf0dfb4b3c4" y="204.482496"/>
     <use style="fill:#1f77b4;stroke:#1f77b4;stroke-linejoin:miter;" x="698.40088" xlink:href="#mf0dfb4b3c4" y="206.269379"/>
     <use style="fill:#1f77b4;stroke:#1f77b4;stroke-linejoin:miter;" x="685.297159" xlink:href="#mf0dfb4b3c4" y="208.584703"/>
     <use style="fill:#1f77b4;stroke:#1f77b4;stroke-linejoin:miter;" x="672.830365" xlink:href="#mf0dfb4b3c4" y="210.53448"/>
     <use style="fill:#1f77b4;stroke:#1f77b4;stroke-linejoin:miter;" x="661.127327" xlink:href="#mf0dfb4b3c4" y="211.948775"/>
     <use style="fill:#1f77b4;stroke:#1f77b4;stroke-linejoin:miter;" x="649.370359" xlink:href="#mf0dfb4b3c4" y="213.501695"/>
     <use style="fill:#1f77b4;stroke:#1f77b4;stroke-linejoin:miter;" x="638.120875" xlink:href="#mf0dfb4b3c4" y="215.316596"/>
     <use style="fill:#1f77b4;stroke:#1f77b4;stroke-linejoin:miter;" x="626.521041" xlink:href="#mf0dfb4b3c4" y="216.611439"/>
     <use style="fill:#1f77b4;stroke:#1f77b4;stroke-linejoin:miter;" x="615.633127" xlink:href="#mf0dfb4b3c4" y="218.669351"/>
     <use style="fill:#1f77b4;stroke:#1f77b4;stroke-linejoin:miter;" x="605.015747" xlink:href="#mf0dfb4b3c4" y="220.628271"/>
     <use style="fill:#1f77b4;stroke:#1f77b4;stroke-linejoin:miter;" x="594.833404" xlink:href="#mf0dfb4b3c4" y="223.809507"/>
     <use style="fill:#1f77b4;stroke:#1f77b4;stroke-linejoin:miter;" x="584.593564" xlink:href="#mf0dfb4b3c4" y="224.805209"/>
     <use style="fill:#1f77b4;stroke:#1f77b4;stroke-linejoin:miter;" x="574.712455" xlink:href="#mf0dfb4b3c4" y="225.375673"/>
     <use style="fill:#1f77b4;stroke:#1f77b4;stroke-linejoin:miter;" x="564.636848" xlink:href="#mf0dfb4b3c4" y="226.13483"/>
     <use style="fill:#1f77b4;stroke:#1f77b4;stroke-linejoin:miter;" x="580.980083" xlink:href="#mf0dfb4b3c4" y="394.30359"/>
     <use style="fill:#1f77b4;stroke:#1f77b4;stroke-linejoin:miter;" x="579.165671" xlink:href="#mf0dfb4b3c4" y="395.230677"/>
     <use style="fill:#1f77b4;stroke:#1f77b4;stroke-linejoin:miter;" x="577.504309" xlink:href="#mf0dfb4b3c4" y="396.485569"/>
     <use style="fill:#1f77b4;stroke:#1f77b4;stroke-linejoin:miter;" x="575.257292" xlink:href="#mf0dfb4b3c4" y="395.803751"/>
     <use style="fill:#1f77b4;stroke:#1f77b4;stroke-linejoin:miter;" x="487.961495" xlink:href="#mf0dfb4b3c4" y="242.381779"/>
     <use style="fill:#1f77b4;stroke:#1f77b4;stroke-linejoin:miter;" x="477.85126" xlink:href="#mf0dfb4b3c4" y="243.295254"/>
     <use style="fill:#1f77b4;stroke:#1f77b4;stroke-linejoin:miter;" x="468.271798" xlink:href="#mf0dfb4b3c4" y="245.657441"/>
     <use style="fill:#1f77b4;stroke:#1f77b4;stroke-linejoin:miter;" x="458.084145" xlink:href="#mf0dfb4b3c4" y="247.169547"/>
     <use style="fill:#1f77b4;stroke:#1f77b4;stroke-linejoin:miter;" x="447.545998" xlink:href="#mf0dfb4b3c4" y="248.768703"/>
     <use style="fill:#1f77b4;stroke:#1f77b4;stroke-linejoin:miter;" x="437.378662" xlink:href="#mf0dfb4b3c4" y="250.928759"/>
     <use style="fill:#1f77b4;stroke:#1f77b4;stroke-linejoin:miter;" x="426.323523" xlink:href="#mf0dfb4b3c4" y="252.472816"/>
     <use style="fill:#1f77b4;stroke:#1f77b4;stroke-linejoin:miter;" x="410.882193" xlink:href="#mf0dfb4b3c4" y="263.261714"/>
     <use style="fill:#1f77b4;stroke:#1f77b4;stroke-linejoin:miter;" x="400.925889" xlink:href="#mf0dfb4b3c4" y="266.276173"/>
     <use style="fill:#1f77b4;stroke:#1f77b4;stroke-linejoin:miter;" x="394.289592" xlink:href="#mf0dfb4b3c4" y="272.590815"/>
     <use style="fill:#1f77b4;stroke:#1f77b4;stroke-linejoin:miter;" x="390.642333" xlink:href="#mf0dfb4b3c4" y="281.166674"/>
     <use style="fill:#1f77b4;stroke:#1f77b4;stroke-linejoin:miter;" x="393.023597" xlink:href="#mf0dfb4b3c4" y="293.58987"/>
     <use style="fill:#1f77b4;stroke:#1f77b4;stroke-linejoin:miter;" x="411.882493" xlink:href="#mf0dfb4b3c4" y="316.54435"/>
     <use style="fill:#1f77b4;stroke:#1f77b4;stroke-linejoin:miter;" x="421.782489" xlink:href="#mf0dfb4b3c4" y="331.064497"/>
     <use style="fill:#1f77b4;stroke:#1f77b4;stroke-linejoin:miter;" x="436.174969" xlink:href="#mf0dfb4b3c4" y="347.136789"/>
     <use style="fill:#1f77b4;stroke:#1f77b4;stroke-linejoin:miter;" x="425.158875" xlink:href="#mf0dfb4b3c4" y="347.525122"/>
     <use style="fill:#1f77b4;stroke:#1f77b4;stroke-linejoin:miter;" x="422.879911" xlink:href="#mf0dfb4b3c4" y="352.960836"/>
     <use style="fill:#1f77b4;stroke:#1f77b4;stroke-linejoin:miter;" x="416.407767" xlink:href="#mf0dfb4b3c4" y="356.039832"/>
     <use style="fill:#1f77b4;stroke:#1f77b4;stroke-linejoin:miter;" x="405.846891" xlink:href="#mf0dfb4b3c4" y="357.719797"/>
     <use style="fill:#1f77b4;stroke:#1f77b4;stroke-linejoin:miter;" x="404.120015" xlink:href="#mf0dfb4b3c4" y="363.530734"/>
     <use style="fill:#1f77b4;stroke:#1f77b4;stroke-linejoin:miter;" x="454.449507" xlink:href="#mf0dfb4b3c4" y="388.372471"/>
     <use style="fill:#1f77b4;stroke:#1f77b4;stroke-linejoin:miter;" x="455.173175" xlink:href="#mf0dfb4b3c4" y="393.092686"/>
     <use style="fill:#1f77b4;stroke:#1f77b4;stroke-linejoin:miter;" x="456.262206" xlink:href="#mf0dfb4b3c4" y="397.481279"/>
     <use style="fill:#1f77b4;stroke:#1f77b4;stroke-linejoin:miter;" x="456.674227" xlink:href="#mf0dfb4b3c4" y="401.704443"/>
     <use style="fill:#1f77b4;stroke:#1f77b4;stroke-linejoin:miter;" x="457.526898" xlink:href="#mf0dfb4b3c4" y="405.84223"/>
     <use style="fill:#1f77b4;stroke:#1f77b4;stroke-linejoin:miter;" x="467.645886" xlink:href="#mf0dfb4b3c4" y="411.890445"/>
     <use style="fill:#1f77b4;stroke:#1f77b4;stroke-linejoin:miter;" x="452.499564" xlink:href="#mf0dfb4b3c4" y="412.566913"/>
     <use style="fill:#1f77b4;stroke:#1f77b4;stroke-linejoin:miter;" x="441.808121" xlink:href="#mf0dfb4b3c4" y="414.640533"/>
     <use style="fill:#1f77b4;stroke:#1f77b4;stroke-linejoin:miter;" x="424.023914" xlink:href="#mf0dfb4b3c4" y="416.371929"/>
     <use style="fill:#1f77b4;stroke:#1f77b4;stroke-linejoin:miter;" x="425.593852" xlink:href="#mf0dfb4b3c4" y="420.96914"/>
     <use style="fill:#1f77b4;stroke:#1f77b4;stroke-linejoin:miter;" x="418.12258" xlink:href="#mf0dfb4b3c4" y="424.947569"/>
     <use style="fill:#1f77b4;stroke:#1f77b4;stroke-linejoin:miter;" x="419.313293" xlink:href="#mf0dfb4b3c4" y="429.464356"/>
     <use style="fill:#1f77b4;stroke:#1f77b4;stroke-linejoin:miter;" x="420.542774" xlink:href="#mf0dfb4b3c4" y="434.110694"/>
     <use style="fill:#1f77b4;stroke:#1f77b4;stroke-linejoin:miter;" x="420.534644" xlink:href="#mf0dfb4b3c4" y="438.14961"/>
     <use style="fill:#1f77b4;stroke:#1f77b4;stroke-linejoin:miter;" x="395.988675" xlink:href="#mf0dfb4b3c4" y="443.199306"/>
     <use style="fill:#1f77b4;stroke:#1f77b4;stroke-linejoin:miter;" x="394.955608" xlink:href="#mf0dfb4b3c4" y="448.341573"/>
     <use style="fill:#1f77b4;stroke:#1f77b4;stroke-linejoin:miter;" x="396.065838" xlink:href="#mf0dfb4b3c4" y="453.459428"/>
     <use style="fill:#1f77b4;stroke:#1f77b4;stroke-linejoin:miter;" x="398.318627" xlink:href="#mf0dfb4b3c4" y="458.39002"/>
     <use style="fill:#1f77b4;stroke:#1f77b4;stroke-linejoin:miter;" x="399.47919" xlink:href="#mf0dfb4b3c4" y="463.410595"/>
     <use style="fill:#1f77b4;stroke:#1f77b4;stroke-linejoin:miter;" x="400.833346" xlink:href="#mf0dfb4b3c4" y="468.445379"/>
     <use style="fill:#1f77b4;stroke:#1f77b4;stroke-linejoin:miter;" x="436.460998" xlink:href="#mf0dfb4b3c4" y="467.123353"/>
     <use style="fill:#1f77b4;stroke:#1f77b4;stroke-linejoin:miter;" x="402.891192" xlink:href="#mf0dfb4b3c4" y="478.621698"/>
     <use style="fill:#1f77b4;stroke:#1f77b4;stroke-linejoin:miter;" x="404.959249" xlink:href="#mf0dfb4b3c4" y="483.605448"/>
     <use style="fill:#1f77b4;stroke:#1f77b4;stroke-linejoin:miter;" x="406.433571" xlink:href="#mf0dfb4b3c4" y="488.599017"/>
     <use style="fill:#1f77b4;stroke:#1f77b4;stroke-linejoin:miter;" x="407.578309" xlink:href="#mf0dfb4b3c4" y="494.059233"/>
     <use style="fill:#1f77b4;stroke:#1f77b4;stroke-linejoin:miter;" x="409.923542" xlink:href="#mf0dfb4b3c4" y="504.935474"/>
     <use style="fill:#1f77b4;stroke:#1f77b4;stroke-linejoin:miter;" x="411.691181" xlink:href="#mf0dfb4b3c4" y="510.325626"/>
     <use style="fill:#1f77b4;stroke:#1f77b4;stroke-linejoin:miter;" x="468.881336" xlink:href="#mf0dfb4b3c4" y="491.640033"/>
     <use style="fill:#1f77b4;stroke:#1f77b4;stroke-linejoin:miter;" x="433.116059" xlink:href="#mf0dfb4b3c4" y="512.932636"/>
     <use style="fill:#1f77b4;stroke:#1f77b4;stroke-linejoin:miter;" x="438.865247" xlink:href="#mf0dfb4b3c4" y="515.983992"/>
     <use style="fill:#1f77b4;stroke:#1f77b4;stroke-linejoin:miter;" x="453.17691" xlink:href="#mf0dfb4b3c4" y="514.251427"/>
     <use style="fill:#1f77b4;stroke:#1f77b4;stroke-linejoin:miter;" x="466.115686" xlink:href="#mf0dfb4b3c4" y="512.366864"/>
     <use style="fill:#1f77b4;stroke:#1f77b4;stroke-linejoin:miter;" x="456.625152" xlink:href="#mf0dfb4b3c4" y="523.884759"/>
     <use style="fill:#1f77b4;stroke:#1f77b4;stroke-linejoin:miter;" x="446.561285" xlink:href="#mf0dfb4b3c4" y="544.383538"/>
     <use style="fill:#1f77b4;stroke:#1f77b4;stroke-linejoin:miter;" x="467.591722" xlink:href="#mf0dfb4b3c4" y="535.697012"/>
     <use style="fill:#1f77b4;stroke:#1f77b4;stroke-linejoin:miter;" x="471.375914" xlink:href="#mf0dfb4b3c4" y="539.65053"/>
     <use style="fill:#1f77b4;stroke:#1f77b4;stroke-linejoin:miter;" x="455.352197" xlink:href="#mf0dfb4b3c4" y="561.565366"/>
     <use style="fill:#1f77b4;stroke:#1f77b4;stroke-linejoin:miter;" x="529.917454" xlink:href="#mf0dfb4b3c4" y="503.295391"/>
     <use style="fill:#1f77b4;stroke:#1f77b4;stroke-linejoin:miter;" x="542.357862" xlink:href="#mf0dfb4b3c4" y="494.382871"/>
     <use style="fill:#1f77b4;stroke:#1f77b4;stroke-linejoin:miter;" x="545.635885" xlink:href="#mf0dfb4b3c4" y="494.792734"/>
     <use style="fill:#1f77b4;stroke:#1f77b4;stroke-linejoin:miter;" x="552.770206" xlink:href="#mf0dfb4b3c4" y="490.256655"/>
     <use style="fill:#1f77b4;stroke:#1f77b4;stroke-linejoin:miter;" x="556.711847" xlink:href="#mf0dfb4b3c4" y="489.508604"/>
     <use style="fill:#1f77b4;stroke:#1f77b4;stroke-linejoin:miter;" x="559.221707" xlink:href="#mf0dfb4b3c4" y="490.193282"/>
     <use style="fill:#1f77b4;stroke:#1f77b4;stroke-linejoin:miter;" x="561.631299" xlink:href="#mf0dfb4b3c4" y="491.445982"/>
     <use style="fill:#1f77b4;stroke:#1f77b4;stroke-linejoin:miter;" x="563.362039" xlink:href="#mf0dfb4b3c4" y="493.762226"/>
     <use style="fill:#1f77b4;stroke:#1f77b4;stroke-linejoin:miter;" x="562.366811" xlink:href="#mf0dfb4b3c4" y="502.258587"/>
     <use style="fill:#1f77b4;stroke:#1f77b4;stroke-linejoin:miter;" x="565.548892" xlink:href="#mf0dfb4b3c4" y="502.812312"/>
     <use style="fill:#1f77b4;stroke:#1f77b4;stroke-linejoin:miter;" x="567.585203" xlink:href="#mf0dfb4b3c4" y="506.878672"/>
     <use style="fill:#1f77b4;stroke:#1f77b4;stroke-linejoin:miter;" x="546.442745" xlink:href="#mf0dfb4b3c4" y="651.870172"/>
     <use style="fill:#1f77b4;stroke:#1f77b4;stroke-linejoin:miter;" x="564.021297" xlink:href="#mf0dfb4b3c4" y="608.841909"/>
     <use style="fill:#1f77b4;stroke:#1f77b4;stroke-linejoin:miter;" x="570.308912" xlink:href="#mf0dfb4b3c4" y="625.228545"/>
     <use style="fill:#1f77b4;stroke:#1f77b4;stroke-linejoin:miter;" x="580.325926" xlink:href="#mf0dfb4b3c4" y="611.543713"/>
     <use style="fill:#1f77b4;stroke:#1f77b4;stroke-linejoin:miter;" x="587.910915" xlink:href="#mf0dfb4b3c4" y="636.352781"/>
     <use style="fill:#1f77b4;stroke:#1f77b4;stroke-linejoin:miter;" x="597.539092" xlink:href="#mf0dfb4b3c4" y="643.798381"/>
     <use style="fill:#1f77b4;stroke:#1f77b4;stroke-linejoin:miter;" x="607.268967" xlink:href="#mf0dfb4b3c4" y="640.923633"/>
     <use style="fill:#1f77b4;stroke:#1f77b4;stroke-linejoin:miter;" x="617.451437" xlink:href="#mf0dfb4b3c4" y="640.984397"/>
     <use style="fill:#1f77b4;stroke:#1f77b4;stroke-linejoin:miter;" x="627.136116" xlink:href="#mf0dfb4b3c4" y="639.955872"/>
     <use style="fill:#1f77b4;stroke:#1f77b4;stroke-linejoin:miter;" x="633.04772" xlink:href="#mf0dfb4b3c4" y="621.871689"/>
     <use style="fill:#1f77b4;stroke:#1f77b4;stroke-linejoin:miter;" x="640.657506" xlink:href="#mf0dfb4b3c4" y="615.631647"/>
     <use style="fill:#1f77b4;stroke:#1f77b4;stroke-linejoin:miter;" x="665.128679" xlink:href="#mf0dfb4b3c4" y="633.557924"/>
     <use style="fill:#1f77b4;stroke:#1f77b4;stroke-linejoin:miter;" x="665.465498" xlink:href="#mf0dfb4b3c4" y="609.921645"/>
     <use style="fill:#1f77b4;stroke:#1f77b4;stroke-linejoin:miter;" x="677.903601" xlink:href="#mf0dfb4b3c4" y="598.214522"/>
     <use style="fill:#1f77b4;stroke:#1f77b4;stroke-linejoin:miter;" x="687.323061" xlink:href="#mf0dfb4b3c4" y="599.013608"/>
     <use style="fill:#1f77b4;stroke:#1f77b4;stroke-linejoin:miter;" x="695.851845" xlink:href="#mf0dfb4b3c4" y="597.430073"/>
     <use style="fill:#1f77b4;stroke:#1f77b4;stroke-linejoin:miter;" x="755.114969" xlink:href="#mf0dfb4b3c4" y="593.595775"/>
     <use style="fill:#1f77b4;stroke:#1f77b4;stroke-linejoin:miter;" x="765.059966" xlink:href="#mf0dfb4b3c4" y="591.340672"/>
     <use style="fill:#1f77b4;stroke:#1f77b4;stroke-linejoin:miter;" x="772.755491" xlink:href="#mf0dfb4b3c4" y="587.152013"/>
     <use style="fill:#1f77b4;stroke:#1f77b4;stroke-linejoin:miter;" x="782.632023" xlink:href="#mf0dfb4b3c4" y="584.491548"/>
     <use style="fill:#1f77b4;stroke:#1f77b4;stroke-linejoin:miter;" x="797.566888" xlink:href="#mf0dfb4b3c4" y="585.233397"/>
     <use style="fill:#1f77b4;stroke:#1f77b4;stroke-linejoin:miter;" x="810.019809" xlink:href="#mf0dfb4b3c4" y="583.350157"/>
     <use style="fill:#1f77b4;stroke:#1f77b4;stroke-linejoin:miter;" x="833.796066" xlink:href="#mf0dfb4b3c4" y="588.338441"/>
     <use style="fill:#1f77b4;stroke:#1f77b4;stroke-linejoin:miter;" x="831.867012" xlink:href="#mf0dfb4b3c4" y="576.661273"/>
     <use style="fill:#1f77b4;stroke:#1f77b4;stroke-linejoin:miter;" x="838.529685" xlink:href="#mf0dfb4b3c4" y="569.73299"/>
     <use style="fill:#1f77b4;stroke:#1f77b4;stroke-linejoin:miter;" x="871.401052" xlink:href="#mf0dfb4b3c4" y="576.561293"/>
     <use style="fill:#1f77b4;stroke:#1f77b4;stroke-linejoin:miter;" x="879.567761" xlink:href="#mf0dfb4b3c4" y="559.39709"/>
     <use style="fill:#1f77b4;stroke:#1f77b4;stroke-linejoin:miter;" x="893.719045" xlink:href="#mf0dfb4b3c4" y="555.078368"/>
     <use style="fill:#1f77b4;stroke:#1f77b4;stroke-linejoin:miter;" x="946.073572" xlink:href="#mf0dfb4b3c4" y="552.851569"/>
     <use style="fill:#1f77b4;stroke:#1f77b4;stroke-linejoin:miter;" x="1050.279375" xlink:href="#mf0dfb4b3c4" y="545.808091"/>
     <use style="fill:#1f77b4;stroke:#1f77b4;stroke-linejoin:miter;" x="1089.702048" xlink:href="#mf0dfb4b3c4" y="526.825123"/>
     <use style="fill:#1f77b4;stroke:#1f77b4;stroke-linejoin:miter;" x="1086.204798" xlink:href="#mf0dfb4b3c4" y="512.641244"/>
     <use style="fill:#1f77b4;stroke:#1f77b4;stroke-linejoin:miter;" x="1126.714306" xlink:href="#mf0dfb4b3c4" y="504.317796"/>
    </g>
   </g>
   <g id="patch_3">
    <path d="M 144 768.96 
L 144 103.68 
" style="fill:none;stroke:#000000;stroke-linecap:square;stroke-linejoin:miter;stroke-width:0.8;"/>
   </g>
   <g id="patch_4">
    <path d="M 1036.8 768.96 
L 1036.8 103.68 
" style="fill:none;stroke:#000000;stroke-linecap:square;stroke-linejoin:miter;stroke-width:0.8;"/>
   </g>
   <g id="patch_5">
    <path d="M 144 768.96 
L 1036.8 768.96 
" style="fill:none;stroke:#000000;stroke-linecap:square;stroke-linejoin:miter;stroke-width:0.8;"/>
   </g>
   <g id="patch_6">
    <path d="M 144 103.68 
L 1036.8 103.68 
" style="fill:none;stroke:#000000;stroke-linecap:square;stroke-linejoin:miter;stroke-width:0.8;"/>
   </g>
  </g>
 </g>
 <defs>
  <clipPath id="p95c29f8d91">
   <rect height="665.28" width="892.8" x="144" y="103.68"/>
  </clipPath>
 </defs>
</svg>
