<?xml version="1.0" encoding="utf-8" standalone="no"?>
<!DOCTYPE svg PUBLIC "-//W3C//DTD SVG 1.1//EN"
  "http://www.w3.org/Graphics/SVG/1.1/DTD/svg11.dtd">
<!-- Created with matplotlib (http://matplotlib.org/) -->
<svg height="864pt" version="1.1" viewBox="0 0 1152 864" width="1152pt" xmlns="http://www.w3.org/2000/svg" xmlns:xlink="http://www.w3.org/1999/xlink">
 <defs>
  <style type="text/css">
*{stroke-linecap:butt;stroke-linejoin:round;}
  </style>
 </defs>
 <g id="figure_1">
  <g id="patch_1">
   <path d="M 0 864 
L 1152 864 
L 1152 0 
L 0 0 
z
" style="fill:#ffffff;"/>
  </g>
  <g id="axes_1">
   <g id="patch_2">
    <path d="M 144 768.96 
L 1036.8 768.96 
L 1036.8 103.68 
L 144 103.68 
z
" style="fill:#ffffff;"/>
   </g>
   <g id="matplotlib.axis_1">
    <g id="xtick_1">
     <g id="line2d_1">
      <defs>
       <path d="M 0 0 
L 0 3.5 
" id="m0a422920e5" style="stroke:#000000;stroke-width:0.8;"/>
      </defs>
      <g>
       <use style="stroke:#000000;stroke-width:0.8;" x="144" xlink:href="#m0a422920e5" y="768.96"/>
      </g>
     </g>
     <g id="text_1">
      <!-- −4000 -->
      <defs>
       <path d="M 10.59375 35.5 
L 73.1875 35.5 
L 73.1875 27.203125 
L 10.59375 27.203125 
z
" id="DejaVuSans-2212"/>
       <path d="M 37.796875 64.3125 
L 12.890625 25.390625 
L 37.796875 25.390625 
z
M 35.203125 72.90625 
L 47.609375 72.90625 
L 47.609375 25.390625 
L 58.015625 25.390625 
L 58.015625 17.1875 
L 47.609375 17.1875 
L 47.609375 0 
L 37.796875 0 
L 37.796875 17.1875 
L 4.890625 17.1875 
L 4.890625 26.703125 
z
" id="DejaVuSans-34"/>
       <path d="M 31.78125 66.40625 
Q 24.171875 66.40625 20.328125 58.90625 
Q 16.5 51.421875 16.5 36.375 
Q 16.5 21.390625 20.328125 13.890625 
Q 24.171875 6.390625 31.78125 6.390625 
Q 39.453125 6.390625 43.28125 13.890625 
Q 47.125 21.390625 47.125 36.375 
Q 47.125 51.421875 43.28125 58.90625 
Q 39.453125 66.40625 31.78125 66.40625 
z
M 31.78125 74.21875 
Q 44.046875 74.21875 50.515625 64.515625 
Q 56.984375 54.828125 56.984375 36.375 
Q 56.984375 17.96875 50.515625 8.265625 
Q 44.046875 -1.421875 31.78125 -1.421875 
Q 19.53125 -1.421875 13.0625 8.265625 
Q 6.59375 17.96875 6.59375 36.375 
Q 6.59375 54.828125 13.0625 64.515625 
Q 19.53125 74.21875 31.78125 74.21875 
z
" id="DejaVuSans-30"/>
      </defs>
      <g transform="translate(127.085156 783.558437)scale(0.1 -0.1)">
       <use xlink:href="#DejaVuSans-2212"/>
       <use x="83.789062" xlink:href="#DejaVuSans-34"/>
       <use x="147.412109" xlink:href="#DejaVuSans-30"/>
       <use x="211.035156" xlink:href="#DejaVuSans-30"/>
       <use x="274.658203" xlink:href="#DejaVuSans-30"/>
      </g>
     </g>
    </g>
    <g id="xtick_2">
     <g id="line2d_2">
      <g>
       <use style="stroke:#000000;stroke-width:0.8;" x="255.6" xlink:href="#m0a422920e5" y="768.96"/>
      </g>
     </g>
     <g id="text_2">
      <!-- −3000 -->
      <defs>
       <path d="M 40.578125 39.3125 
Q 47.65625 37.796875 51.625 33 
Q 55.609375 28.21875 55.609375 21.1875 
Q 55.609375 10.40625 48.1875 4.484375 
Q 40.765625 -1.421875 27.09375 -1.421875 
Q 22.515625 -1.421875 17.65625 -0.515625 
Q 12.796875 0.390625 7.625 2.203125 
L 7.625 11.71875 
Q 11.71875 9.328125 16.59375 8.109375 
Q 21.484375 6.890625 26.8125 6.890625 
Q 36.078125 6.890625 40.9375 10.546875 
Q 45.796875 14.203125 45.796875 21.1875 
Q 45.796875 27.640625 41.28125 31.265625 
Q 36.765625 34.90625 28.71875 34.90625 
L 20.21875 34.90625 
L 20.21875 43.015625 
L 29.109375 43.015625 
Q 36.375 43.015625 40.234375 45.921875 
Q 44.09375 48.828125 44.09375 54.296875 
Q 44.09375 59.90625 40.109375 62.90625 
Q 36.140625 65.921875 28.71875 65.921875 
Q 24.65625 65.921875 20.015625 65.03125 
Q 15.375 64.15625 9.8125 62.3125 
L 9.8125 71.09375 
Q 15.4375 72.65625 20.34375 73.4375 
Q 25.25 74.21875 29.59375 74.21875 
Q 40.828125 74.21875 47.359375 69.109375 
Q 53.90625 64.015625 53.90625 55.328125 
Q 53.90625 49.265625 50.4375 45.09375 
Q 46.96875 40.921875 40.578125 39.3125 
z
" id="DejaVuSans-33"/>
      </defs>
      <g transform="translate(238.685156 783.558437)scale(0.1 -0.1)">
       <use xlink:href="#DejaVuSans-2212"/>
       <use x="83.789062" xlink:href="#DejaVuSans-33"/>
       <use x="147.412109" xlink:href="#DejaVuSans-30"/>
       <use x="211.035156" xlink:href="#DejaVuSans-30"/>
       <use x="274.658203" xlink:href="#DejaVuSans-30"/>
      </g>
     </g>
    </g>
    <g id="xtick_3">
     <g id="line2d_3">
      <g>
       <use style="stroke:#000000;stroke-width:0.8;" x="367.2" xlink:href="#m0a422920e5" y="768.96"/>
      </g>
     </g>
     <g id="text_3">
      <!-- −2000 -->
      <defs>
       <path d="M 19.1875 8.296875 
L 53.609375 8.296875 
L 53.609375 0 
L 7.328125 0 
L 7.328125 8.296875 
Q 12.9375 14.109375 22.625 23.890625 
Q 32.328125 33.6875 34.8125 36.53125 
Q 39.546875 41.84375 41.421875 45.53125 
Q 43.3125 49.21875 43.3125 52.78125 
Q 43.3125 58.59375 39.234375 62.25 
Q 35.15625 65.921875 28.609375 65.921875 
Q 23.96875 65.921875 18.8125 64.3125 
Q 13.671875 62.703125 7.8125 59.421875 
L 7.8125 69.390625 
Q 13.765625 71.78125 18.9375 73 
Q 24.125 74.21875 28.421875 74.21875 
Q 39.75 74.21875 46.484375 68.546875 
Q 53.21875 62.890625 53.21875 53.421875 
Q 53.21875 48.921875 51.53125 44.890625 
Q 49.859375 40.875 45.40625 35.40625 
Q 44.1875 33.984375 37.640625 27.21875 
Q 31.109375 20.453125 19.1875 8.296875 
z
" id="DejaVuSans-32"/>
      </defs>
      <g transform="translate(350.285156 783.558437)scale(0.1 -0.1)">
       <use xlink:href="#DejaVuSans-2212"/>
       <use x="83.789062" xlink:href="#DejaVuSans-32"/>
       <use x="147.412109" xlink:href="#DejaVuSans-30"/>
       <use x="211.035156" xlink:href="#DejaVuSans-30"/>
       <use x="274.658203" xlink:href="#DejaVuSans-30"/>
      </g>
     </g>
    </g>
    <g id="xtick_4">
     <g id="line2d_4">
      <g>
       <use style="stroke:#000000;stroke-width:0.8;" x="478.8" xlink:href="#m0a422920e5" y="768.96"/>
      </g>
     </g>
     <g id="text_4">
      <!-- −1000 -->
      <defs>
       <path d="M 12.40625 8.296875 
L 28.515625 8.296875 
L 28.515625 63.921875 
L 10.984375 60.40625 
L 10.984375 69.390625 
L 28.421875 72.90625 
L 38.28125 72.90625 
L 38.28125 8.296875 
L 54.390625 8.296875 
L 54.390625 0 
L 12.40625 0 
z
" id="DejaVuSans-31"/>
      </defs>
      <g transform="translate(461.885156 783.558437)scale(0.1 -0.1)">
       <use xlink:href="#DejaVuSans-2212"/>
       <use x="83.789062" xlink:href="#DejaVuSans-31"/>
       <use x="147.412109" xlink:href="#DejaVuSans-30"/>
       <use x="211.035156" xlink:href="#DejaVuSans-30"/>
       <use x="274.658203" xlink:href="#DejaVuSans-30"/>
      </g>
     </g>
    </g>
    <g id="xtick_5">
     <g id="line2d_5">
      <g>
       <use style="stroke:#000000;stroke-width:0.8;" x="590.4" xlink:href="#m0a422920e5" y="768.96"/>
      </g>
     </g>
     <g id="text_5">
      <!-- 0 -->
      <g transform="translate(587.21875 783.558437)scale(0.1 -0.1)">
       <use xlink:href="#DejaVuSans-30"/>
      </g>
     </g>
    </g>
    <g id="xtick_6">
     <g id="line2d_6">
      <g>
       <use style="stroke:#000000;stroke-width:0.8;" x="702" xlink:href="#m0a422920e5" y="768.96"/>
      </g>
     </g>
     <g id="text_6">
      <!-- 1000 -->
      <g transform="translate(689.275 783.558437)scale(0.1 -0.1)">
       <use xlink:href="#DejaVuSans-31"/>
       <use x="63.623047" xlink:href="#DejaVuSans-30"/>
       <use x="127.246094" xlink:href="#DejaVuSans-30"/>
       <use x="190.869141" xlink:href="#DejaVuSans-30"/>
      </g>
     </g>
    </g>
    <g id="xtick_7">
     <g id="line2d_7">
      <g>
       <use style="stroke:#000000;stroke-width:0.8;" x="813.6" xlink:href="#m0a422920e5" y="768.96"/>
      </g>
     </g>
     <g id="text_7">
      <!-- 2000 -->
      <g transform="translate(800.875 783.558437)scale(0.1 -0.1)">
       <use xlink:href="#DejaVuSans-32"/>
       <use x="63.623047" xlink:href="#DejaVuSans-30"/>
       <use x="127.246094" xlink:href="#DejaVuSans-30"/>
       <use x="190.869141" xlink:href="#DejaVuSans-30"/>
      </g>
     </g>
    </g>
    <g id="xtick_8">
     <g id="line2d_8">
      <g>
       <use style="stroke:#000000;stroke-width:0.8;" x="925.2" xlink:href="#m0a422920e5" y="768.96"/>
      </g>
     </g>
     <g id="text_8">
      <!-- 3000 -->
      <g transform="translate(912.475 783.558437)scale(0.1 -0.1)">
       <use xlink:href="#DejaVuSans-33"/>
       <use x="63.623047" xlink:href="#DejaVuSans-30"/>
       <use x="127.246094" xlink:href="#DejaVuSans-30"/>
       <use x="190.869141" xlink:href="#DejaVuSans-30"/>
      </g>
     </g>
    </g>
    <g id="xtick_9">
     <g id="line2d_9">
      <g>
       <use style="stroke:#000000;stroke-width:0.8;" x="1036.8" xlink:href="#m0a422920e5" y="768.96"/>
      </g>
     </g>
     <g id="text_9">
      <!-- 4000 -->
      <g transform="translate(1024.075 783.558437)scale(0.1 -0.1)">
       <use xlink:href="#DejaVuSans-34"/>
       <use x="63.623047" xlink:href="#DejaVuSans-30"/>
       <use x="127.246094" xlink:href="#DejaVuSans-30"/>
       <use x="190.869141" xlink:href="#DejaVuSans-30"/>
      </g>
     </g>
    </g>
   </g>
   <g id="matplotlib.axis_2">
    <g id="ytick_1">
     <g id="line2d_10">
      <defs>
       <path d="M 0 0 
L -3.5 0 
" id="m2316dafb8b" style="stroke:#000000;stroke-width:0.8;"/>
      </defs>
      <g>
       <use style="stroke:#000000;stroke-width:0.8;" x="144" xlink:href="#m2316dafb8b" y="768.96"/>
      </g>
     </g>
     <g id="text_10">
      <!-- −4000 -->
      <g transform="translate(103.170312 772.759219)scale(0.1 -0.1)">
       <use xlink:href="#DejaVuSans-2212"/>
       <use x="83.789062" xlink:href="#DejaVuSans-34"/>
       <use x="147.412109" xlink:href="#DejaVuSans-30"/>
       <use x="211.035156" xlink:href="#DejaVuSans-30"/>
       <use x="274.658203" xlink:href="#DejaVuSans-30"/>
      </g>
     </g>
    </g>
    <g id="ytick_2">
     <g id="line2d_11">
      <g>
       <use style="stroke:#000000;stroke-width:0.8;" x="144" xlink:href="#m2316dafb8b" y="685.8"/>
      </g>
     </g>
     <g id="text_11">
      <!-- −3000 -->
      <g transform="translate(103.170312 689.599219)scale(0.1 -0.1)">
       <use xlink:href="#DejaVuSans-2212"/>
       <use x="83.789062" xlink:href="#DejaVuSans-33"/>
       <use x="147.412109" xlink:href="#DejaVuSans-30"/>
       <use x="211.035156" xlink:href="#DejaVuSans-30"/>
       <use x="274.658203" xlink:href="#DejaVuSans-30"/>
      </g>
     </g>
    </g>
    <g id="ytick_3">
     <g id="line2d_12">
      <g>
       <use style="stroke:#000000;stroke-width:0.8;" x="144" xlink:href="#m2316dafb8b" y="602.64"/>
      </g>
     </g>
     <g id="text_12">
      <!-- −2000 -->
      <g transform="translate(103.170312 606.439219)scale(0.1 -0.1)">
       <use xlink:href="#DejaVuSans-2212"/>
       <use x="83.789062" xlink:href="#DejaVuSans-32"/>
       <use x="147.412109" xlink:href="#DejaVuSans-30"/>
       <use x="211.035156" xlink:href="#DejaVuSans-30"/>
       <use x="274.658203" xlink:href="#DejaVuSans-30"/>
      </g>
     </g>
    </g>
    <g id="ytick_4">
     <g id="line2d_13">
      <g>
       <use style="stroke:#000000;stroke-width:0.8;" x="144" xlink:href="#m2316dafb8b" y="519.48"/>
      </g>
     </g>
     <g id="text_13">
      <!-- −1000 -->
      <g transform="translate(103.170312 523.279219)scale(0.1 -0.1)">
       <use xlink:href="#DejaVuSans-2212"/>
       <use x="83.789062" xlink:href="#DejaVuSans-31"/>
       <use x="147.412109" xlink:href="#DejaVuSans-30"/>
       <use x="211.035156" xlink:href="#DejaVuSans-30"/>
       <use x="274.658203" xlink:href="#DejaVuSans-30"/>
      </g>
     </g>
    </g>
    <g id="ytick_5">
     <g id="line2d_14">
      <g>
       <use style="stroke:#000000;stroke-width:0.8;" x="144" xlink:href="#m2316dafb8b" y="436.32"/>
      </g>
     </g>
     <g id="text_14">
      <!-- 0 -->
      <g transform="translate(130.6375 440.119219)scale(0.1 -0.1)">
       <use xlink:href="#DejaVuSans-30"/>
      </g>
     </g>
    </g>
    <g id="ytick_6">
     <g id="line2d_15">
      <g>
       <use style="stroke:#000000;stroke-width:0.8;" x="144" xlink:href="#m2316dafb8b" y="353.16"/>
      </g>
     </g>
     <g id="text_15">
      <!-- 1000 -->
      <g transform="translate(111.55 356.959219)scale(0.1 -0.1)">
       <use xlink:href="#DejaVuSans-31"/>
       <use x="63.623047" xlink:href="#DejaVuSans-30"/>
       <use x="127.246094" xlink:href="#DejaVuSans-30"/>
       <use x="190.869141" xlink:href="#DejaVuSans-30"/>
      </g>
     </g>
    </g>
    <g id="ytick_7">
     <g id="line2d_16">
      <g>
       <use style="stroke:#000000;stroke-width:0.8;" x="144" xlink:href="#m2316dafb8b" y="270"/>
      </g>
     </g>
     <g id="text_16">
      <!-- 2000 -->
      <g transform="translate(111.55 273.799219)scale(0.1 -0.1)">
       <use xlink:href="#DejaVuSans-32"/>
       <use x="63.623047" xlink:href="#DejaVuSans-30"/>
       <use x="127.246094" xlink:href="#DejaVuSans-30"/>
       <use x="190.869141" xlink:href="#DejaVuSans-30"/>
      </g>
     </g>
    </g>
    <g id="ytick_8">
     <g id="line2d_17">
      <g>
       <use style="stroke:#000000;stroke-width:0.8;" x="144" xlink:href="#m2316dafb8b" y="186.84"/>
      </g>
     </g>
     <g id="text_17">
      <!-- 3000 -->
      <g transform="translate(111.55 190.639219)scale(0.1 -0.1)">
       <use xlink:href="#DejaVuSans-33"/>
       <use x="63.623047" xlink:href="#DejaVuSans-30"/>
       <use x="127.246094" xlink:href="#DejaVuSans-30"/>
       <use x="190.869141" xlink:href="#DejaVuSans-30"/>
      </g>
     </g>
    </g>
    <g id="ytick_9">
     <g id="line2d_18">
      <g>
       <use style="stroke:#000000;stroke-width:0.8;" x="144" xlink:href="#m2316dafb8b" y="103.68"/>
      </g>
     </g>
     <g id="text_18">
      <!-- 4000 -->
      <g transform="translate(111.55 107.479219)scale(0.1 -0.1)">
       <use xlink:href="#DejaVuSans-34"/>
       <use x="63.623047" xlink:href="#DejaVuSans-30"/>
       <use x="127.246094" xlink:href="#DejaVuSans-30"/>
       <use x="190.869141" xlink:href="#DejaVuSans-30"/>
      </g>
     </g>
    </g>
   </g>
   <g id="line2d_19">
    <path clip-path="url(#p05d87b4404)" d="M 590.4 768.96 
L 590.4 103.68 
" style="fill:none;stroke:#1f77b4;stroke-linecap:square;stroke-width:1.5;"/>
   </g>
   <g id="line2d_20">
    <path clip-path="url(#p05d87b4404)" d="M 144 436.32 
L 1036.8 436.32 
" style="fill:none;stroke:#1f77b4;stroke-linecap:square;stroke-width:1.5;"/>
   </g>
   <g id="line2d_21">
    <defs>
     <path d="M 0 3 
C 0.795609 3 1.55874 2.683901 2.12132 2.12132 
C 2.683901 1.55874 3 0.795609 3 0 
C 3 -0.795609 2.683901 -1.55874 2.12132 -2.12132 
C 1.55874 -2.683901 0.795609 -3 0 -3 
C -0.795609 -3 -1.55874 -2.683901 -2.12132 -2.12132 
C -2.683901 -1.55874 -3 -0.795609 -3 0 
C -3 0.795609 -2.683901 1.55874 -2.12132 2.12132 
C -1.55874 2.683901 -0.795609 3 0 3 
z
" id="mb2672d1b4d" style="stroke:#008000;"/>
    </defs>
    <g clip-path="url(#p05d87b4404)">
     <use style="fill:#008000;stroke:#008000;" x="1407.497734" xlink:href="#mb2672d1b4d" y="492.937106"/>
    </g>
   </g>
   <g id="line2d_22">
    <g clip-path="url(#p05d87b4404)">
     <use style="fill:#008000;stroke:#008000;" x="1082.094223" xlink:href="#mb2672d1b4d" y="439.217676"/>
    </g>
   </g>
   <g id="line2d_23">
    <g clip-path="url(#p05d87b4404)">
     <use style="fill:#008000;stroke:#008000;" x="1385.700704" xlink:href="#mb2672d1b4d" y="393.41757"/>
    </g>
   </g>
   <g id="line2d_24">
    <g clip-path="url(#p05d87b4404)">
     <use style="fill:#008000;stroke:#008000;" x="1345.188125" xlink:href="#mb2672d1b4d" y="348.652945"/>
    </g>
   </g>
   <g id="line2d_25">
    <g clip-path="url(#p05d87b4404)">
     <use style="fill:#008000;stroke:#008000;" x="1258.480943" xlink:href="#mb2672d1b4d" y="337.154702"/>
    </g>
   </g>
   <g id="line2d_26">
    <g clip-path="url(#p05d87b4404)">
     <use style="fill:#008000;stroke:#008000;" x="657.705732" xlink:href="#mb2672d1b4d" y="397.639827"/>
    </g>
   </g>
   <g id="line2d_27">
    <g clip-path="url(#p05d87b4404)">
     <use style="fill:#008000;stroke:#008000;" x="646.931402" xlink:href="#mb2672d1b4d" y="392.650633"/>
    </g>
   </g>
   <g id="line2d_28">
    <g clip-path="url(#p05d87b4404)">
     <use style="fill:#008000;stroke:#008000;" x="779.835517" xlink:href="#mb2672d1b4d" y="194.723338"/>
    </g>
   </g>
   <g id="line2d_29">
    <g clip-path="url(#p05d87b4404)">
     <use style="fill:#008000;stroke:#008000;" x="779.835517" xlink:href="#mb2672d1b4d" y="194.723338"/>
    </g>
   </g>
   <g id="line2d_30">
    <g clip-path="url(#p05d87b4404)">
     <use style="fill:#008000;stroke:#008000;" x="569.867613" xlink:href="#mb2672d1b4d" y="225.773514"/>
    </g>
   </g>
   <g id="line2d_31">
    <g clip-path="url(#p05d87b4404)">
     <use style="fill:#008000;stroke:#008000;" x="574.036075" xlink:href="#mb2672d1b4d" y="392.766097"/>
    </g>
   </g>
   <g id="line2d_32">
    <g clip-path="url(#p05d87b4404)">
     <use style="fill:#008000;stroke:#008000;" x="574.036075" xlink:href="#mb2672d1b4d" y="392.766097"/>
    </g>
   </g>
   <g id="line2d_33">
    <g clip-path="url(#p05d87b4404)">
     <use style="fill:#008000;stroke:#008000;" x="459.240339" xlink:href="#mb2672d1b4d" y="513.562809"/>
    </g>
   </g>
   <g id="line2d_34">
    <g clip-path="url(#p05d87b4404)">
     <use style="fill:#008000;stroke:#008000;" x="524.69216" xlink:href="#mb2672d1b4d" y="509.945431"/>
    </g>
   </g>
   <g id="line2d_35">
    <g clip-path="url(#p05d87b4404)">
     <use style="fill:#008000;stroke:#008000;" x="1054.31577" xlink:href="#mb2672d1b4d" y="545.782875"/>
    </g>
   </g>
   <g id="line2d_36">
    <defs>
     <path d="M 0 1.333333 
C 0.353604 1.333333 0.692773 1.192845 0.942809 0.942809 
C 1.192845 0.692773 1.333333 0.353604 1.333333 0 
C 1.333333 -0.353604 1.192845 -0.692773 0.942809 -0.942809 
C 0.692773 -1.192845 0.353604 -1.333333 0 -1.333333 
C -0.353604 -1.333333 -0.692773 -1.192845 -0.942809 -0.942809 
C -1.192845 -0.692773 -1.333333 -0.353604 -1.333333 0 
C -1.333333 0.353604 -1.192845 0.692773 -0.942809 0.942809 
C -0.692773 1.192845 -0.353604 1.333333 0 1.333333 
z
" id="m189eb3257b" style="stroke:#ff0000;"/>
    </defs>
    <g clip-path="url(#p05d87b4404)">
     <use style="fill:#ff0000;stroke:#ff0000;" x="1184.817293" xlink:href="#m189eb3257b" y="495.24827"/>
     <use style="fill:#ff0000;stroke:#ff0000;" x="1407.497734" xlink:href="#m189eb3257b" y="492.937106"/>
     <use style="fill:#ff0000;stroke:#ff0000;" x="1082.094223" xlink:href="#m189eb3257b" y="439.217676"/>
     <use style="fill:#ff0000;stroke:#ff0000;" x="1385.700704" xlink:href="#m189eb3257b" y="393.41757"/>
     <use style="fill:#ff0000;stroke:#ff0000;" x="1345.188125" xlink:href="#m189eb3257b" y="348.652945"/>
     <use style="fill:#ff0000;stroke:#ff0000;" x="1258.480943" xlink:href="#m189eb3257b" y="337.154702"/>
     <use style="fill:#ff0000;stroke:#ff0000;" x="1322.065074" xlink:href="#m189eb3257b" y="280.466591"/>
     <use style="fill:#ff0000;stroke:#ff0000;" x="1345.292475" xlink:href="#m189eb3257b" y="249.979029"/>
     <use style="fill:#ff0000;stroke:#ff0000;" x="663.473665" xlink:href="#m189eb3257b" y="396.280108"/>
     <use style="fill:#ff0000;stroke:#ff0000;" x="652.062106" xlink:href="#m189eb3257b" y="399.17407"/>
     <use style="fill:#ff0000;stroke:#ff0000;" x="640.56048" xlink:href="#m189eb3257b" y="386.520679"/>
     <use style="fill:#ff0000;stroke:#ff0000;" x="790.650515" xlink:href="#m189eb3257b" y="192.518455"/>
     <use style="fill:#ff0000;stroke:#ff0000;" x="769.227024" xlink:href="#m189eb3257b" y="197.153695"/>
     <use style="fill:#ff0000;stroke:#ff0000;" x="569.867613" xlink:href="#m189eb3257b" y="225.773514"/>
     <use style="fill:#ff0000;stroke:#ff0000;" x="578.710936" xlink:href="#m189eb3257b" y="391.313155"/>
     <use style="fill:#ff0000;stroke:#ff0000;" x="569.600221" xlink:href="#m189eb3257b" y="394.483369"/>
     <use style="fill:#ff0000;stroke:#ff0000;" x="457.357989" xlink:href="#m189eb3257b" y="247.64045"/>
     <use style="fill:#ff0000;stroke:#ff0000;" x="417.89282" xlink:href="#m189eb3257b" y="266.698539"/>
     <use style="fill:#ff0000;stroke:#ff0000;" x="394.104065" xlink:href="#m189eb3257b" y="286.249357"/>
     <use style="fill:#ff0000;stroke:#ff0000;" x="378.94257" xlink:href="#m189eb3257b" y="287.443743"/>
     <use style="fill:#ff0000;stroke:#ff0000;" x="404.063977" xlink:href="#m189eb3257b" y="315.884861"/>
     <use style="fill:#ff0000;stroke:#ff0000;" x="431.704775" xlink:href="#m189eb3257b" y="342.6249"/>
     <use style="fill:#ff0000;stroke:#ff0000;" x="400.395011" xlink:href="#m189eb3257b" y="365.390854"/>
     <use style="fill:#ff0000;stroke:#ff0000;" x="454.605479" xlink:href="#m189eb3257b" y="391.565096"/>
     <use style="fill:#ff0000;stroke:#ff0000;" x="446.859012" xlink:href="#m189eb3257b" y="413.462721"/>
     <use style="fill:#ff0000;stroke:#ff0000;" x="415.713027" xlink:href="#m189eb3257b" y="440.22599"/>
     <use style="fill:#ff0000;stroke:#ff0000;" x="394.76118" xlink:href="#m189eb3257b" y="446.434206"/>
     <use style="fill:#ff0000;stroke:#ff0000;" x="451.347931" xlink:href="#m189eb3257b" y="514.622162"/>
     <use style="fill:#ff0000;stroke:#ff0000;" x="467.003128" xlink:href="#m189eb3257b" y="512.286815"/>
     <use style="fill:#ff0000;stroke:#ff0000;" x="457.688079" xlink:href="#m189eb3257b" y="524.778292"/>
     <use style="fill:#ff0000;stroke:#ff0000;" x="471.178965" xlink:href="#m189eb3257b" y="537.900425"/>
     <use style="fill:#ff0000;stroke:#ff0000;" x="453.724042" xlink:href="#m189eb3257b" y="561.94872"/>
     <use style="fill:#ff0000;stroke:#ff0000;" x="524.69216" xlink:href="#m189eb3257b" y="509.945431"/>
     <use style="fill:#ff0000;stroke:#ff0000;" x="564.598375" xlink:href="#m189eb3257b" y="477.201269"/>
     <use style="fill:#ff0000;stroke:#ff0000;" x="580.828341" xlink:href="#m189eb3257b" y="492.878227"/>
     <use style="fill:#ff0000;stroke:#ff0000;" x="583.097332" xlink:href="#m189eb3257b" y="631.899002"/>
     <use style="fill:#ff0000;stroke:#ff0000;" x="628.355025" xlink:href="#m189eb3257b" y="639.978637"/>
     <use style="fill:#ff0000;stroke:#ff0000;" x="644.606263" xlink:href="#m189eb3257b" y="615.737755"/>
     <use style="fill:#ff0000;stroke:#ff0000;" x="659.745315" xlink:href="#m189eb3257b" y="629.3785"/>
     <use style="fill:#ff0000;stroke:#ff0000;" x="663.74287" xlink:href="#m189eb3257b" y="610.48255"/>
     <use style="fill:#ff0000;stroke:#ff0000;" x="666.93272" xlink:href="#m189eb3257b" y="594.481114"/>
     <use style="fill:#ff0000;stroke:#ff0000;" x="701.657312" xlink:href="#m189eb3257b" y="600.132367"/>
     <use style="fill:#ff0000;stroke:#ff0000;" x="806.821532" xlink:href="#m189eb3257b" y="582.886684"/>
     <use style="fill:#ff0000;stroke:#ff0000;" x="833.21874" xlink:href="#m189eb3257b" y="587.977859"/>
     <use style="fill:#ff0000;stroke:#ff0000;" x="846.09785" xlink:href="#m189eb3257b" y="570.199994"/>
     <use style="fill:#ff0000;stroke:#ff0000;" x="874.464233" xlink:href="#m189eb3257b" y="572.554702"/>
     <use style="fill:#ff0000;stroke:#ff0000;" x="873.397282" xlink:href="#m189eb3257b" y="559.995374"/>
     <use style="fill:#ff0000;stroke:#ff0000;" x="894.672758" xlink:href="#m189eb3257b" y="557.113733"/>
     <use style="fill:#ff0000;stroke:#ff0000;" x="947.824833" xlink:href="#m189eb3257b" y="551.523505"/>
     <use style="fill:#ff0000;stroke:#ff0000;" x="1053.161345" xlink:href="#m189eb3257b" y="553.374637"/>
     <use style="fill:#ff0000;stroke:#ff0000;" x="1055.2477" xlink:href="#m189eb3257b" y="538.205511"/>
     <use style="fill:#ff0000;stroke:#ff0000;" x="1082.157061" xlink:href="#m189eb3257b" y="528.001829"/>
     <use style="fill:#ff0000;stroke:#ff0000;" x="1085.683742" xlink:href="#m189eb3257b" y="512.875916"/>
     <use style="fill:#ff0000;stroke:#ff0000;" x="1132.06184" xlink:href="#m189eb3257b" y="503.184994"/>
    </g>
   </g>
   <g id="line2d_37">
    <defs>
     <path d="M -0.5 0.5 
L 0.5 0.5 
L 0.5 -0.5 
L -0.5 -0.5 
z
" id="mc37584cbf6" style="stroke:#1f77b4;stroke-linejoin:miter;"/>
    </defs>
    <g clip-path="url(#p05d87b4404)">
     <use style="fill:#1f77b4;stroke:#1f77b4;stroke-linejoin:miter;" x="1184.817293" xlink:href="#mc37584cbf6" y="495.24827"/>
     <use style="fill:#1f77b4;stroke:#1f77b4;stroke-linejoin:miter;" x="1407.497734" xlink:href="#mc37584cbf6" y="492.937106"/>
     <use style="fill:#1f77b4;stroke:#1f77b4;stroke-linejoin:miter;" x="1082.094223" xlink:href="#mc37584cbf6" y="439.217676"/>
     <use style="fill:#1f77b4;stroke:#1f77b4;stroke-linejoin:miter;" x="1385.700704" xlink:href="#mc37584cbf6" y="393.41757"/>
     <use style="fill:#1f77b4;stroke:#1f77b4;stroke-linejoin:miter;" x="1345.188125" xlink:href="#mc37584cbf6" y="348.652945"/>
     <use style="fill:#1f77b4;stroke:#1f77b4;stroke-linejoin:miter;" x="1258.480943" xlink:href="#mc37584cbf6" y="337.154702"/>
     <use style="fill:#1f77b4;stroke:#1f77b4;stroke-linejoin:miter;" x="1322.065074" xlink:href="#mc37584cbf6" y="280.466591"/>
     <use style="fill:#1f77b4;stroke:#1f77b4;stroke-linejoin:miter;" x="1345.292475" xlink:href="#mc37584cbf6" y="249.979029"/>
     <use style="fill:#1f77b4;stroke:#1f77b4;stroke-linejoin:miter;" x="663.473665" xlink:href="#mc37584cbf6" y="396.280108"/>
     <use style="fill:#1f77b4;stroke:#1f77b4;stroke-linejoin:miter;" x="652.062106" xlink:href="#mc37584cbf6" y="399.17407"/>
     <use style="fill:#1f77b4;stroke:#1f77b4;stroke-linejoin:miter;" x="648.965582" xlink:href="#mc37584cbf6" y="397.921534"/>
     <use style="fill:#1f77b4;stroke:#1f77b4;stroke-linejoin:miter;" x="645.351177" xlink:href="#mc37584cbf6" y="396.928252"/>
     <use style="fill:#1f77b4;stroke:#1f77b4;stroke-linejoin:miter;" x="643.985891" xlink:href="#mc37584cbf6" y="394.880772"/>
     <use style="fill:#1f77b4;stroke:#1f77b4;stroke-linejoin:miter;" x="642.716123" xlink:href="#mc37584cbf6" y="392.280866"/>
     <use style="fill:#1f77b4;stroke:#1f77b4;stroke-linejoin:miter;" x="640.671573" xlink:href="#mc37584cbf6" y="390.547204"/>
     <use style="fill:#1f77b4;stroke:#1f77b4;stroke-linejoin:miter;" x="640.56048" xlink:href="#mc37584cbf6" y="386.520679"/>
     <use style="fill:#1f77b4;stroke:#1f77b4;stroke-linejoin:miter;" x="790.650515" xlink:href="#mc37584cbf6" y="192.518455"/>
     <use style="fill:#1f77b4;stroke:#1f77b4;stroke-linejoin:miter;" x="769.227024" xlink:href="#mc37584cbf6" y="197.153695"/>
     <use style="fill:#1f77b4;stroke:#1f77b4;stroke-linejoin:miter;" x="751.815918" xlink:href="#mc37584cbf6" y="198.010554"/>
     <use style="fill:#1f77b4;stroke:#1f77b4;stroke-linejoin:miter;" x="734.470229" xlink:href="#mc37584cbf6" y="199.724592"/>
     <use style="fill:#1f77b4;stroke:#1f77b4;stroke-linejoin:miter;" x="717.025222" xlink:href="#mc37584cbf6" y="203.329159"/>
     <use style="fill:#1f77b4;stroke:#1f77b4;stroke-linejoin:miter;" x="701.489463" xlink:href="#mc37584cbf6" y="204.966608"/>
     <use style="fill:#1f77b4;stroke:#1f77b4;stroke-linejoin:miter;" x="685.945979" xlink:href="#mc37584cbf6" y="207.907746"/>
     <use style="fill:#1f77b4;stroke:#1f77b4;stroke-linejoin:miter;" x="671.295175" xlink:href="#mc37584cbf6" y="210.613692"/>
     <use style="fill:#1f77b4;stroke:#1f77b4;stroke-linejoin:miter;" x="657.884419" xlink:href="#mc37584cbf6" y="211.522676"/>
     <use style="fill:#1f77b4;stroke:#1f77b4;stroke-linejoin:miter;" x="644.352386" xlink:href="#mc37584cbf6" y="214.338961"/>
     <use style="fill:#1f77b4;stroke:#1f77b4;stroke-linejoin:miter;" x="631.233487" xlink:href="#mc37584cbf6" y="216.335569"/>
     <use style="fill:#1f77b4;stroke:#1f77b4;stroke-linejoin:miter;" x="617.765838" xlink:href="#mc37584cbf6" y="218.311349"/>
     <use style="fill:#1f77b4;stroke:#1f77b4;stroke-linejoin:miter;" x="605.478332" xlink:href="#mc37584cbf6" y="219.667503"/>
     <use style="fill:#1f77b4;stroke:#1f77b4;stroke-linejoin:miter;" x="593.35191" xlink:href="#mc37584cbf6" y="224.065497"/>
     <use style="fill:#1f77b4;stroke:#1f77b4;stroke-linejoin:miter;" x="581.662726" xlink:href="#mc37584cbf6" y="225.110764"/>
     <use style="fill:#1f77b4;stroke:#1f77b4;stroke-linejoin:miter;" x="569.867613" xlink:href="#mc37584cbf6" y="225.773514"/>
     <use style="fill:#1f77b4;stroke:#1f77b4;stroke-linejoin:miter;" x="578.710936" xlink:href="#mc37584cbf6" y="391.313155"/>
     <use style="fill:#1f77b4;stroke:#1f77b4;stroke-linejoin:miter;" x="576.868752" xlink:href="#mc37584cbf6" y="393.862642"/>
     <use style="fill:#1f77b4;stroke:#1f77b4;stroke-linejoin:miter;" x="574.655332" xlink:href="#mc37584cbf6" y="394.936419"/>
     <use style="fill:#1f77b4;stroke:#1f77b4;stroke-linejoin:miter;" x="572.411503" xlink:href="#mc37584cbf6" y="395.294241"/>
     <use style="fill:#1f77b4;stroke:#1f77b4;stroke-linejoin:miter;" x="569.600221" xlink:href="#mc37584cbf6" y="394.483369"/>
     <use style="fill:#1f77b4;stroke:#1f77b4;stroke-linejoin:miter;" x="457.357989" xlink:href="#mc37584cbf6" y="247.64045"/>
     <use style="fill:#1f77b4;stroke:#1f77b4;stroke-linejoin:miter;" x="445.699604" xlink:href="#mc37584cbf6" y="249.796406"/>
     <use style="fill:#1f77b4;stroke:#1f77b4;stroke-linejoin:miter;" x="432.849331" xlink:href="#mc37584cbf6" y="251.370758"/>
     <use style="fill:#1f77b4;stroke:#1f77b4;stroke-linejoin:miter;" x="419.145308" xlink:href="#mc37584cbf6" y="252.260377"/>
     <use style="fill:#1f77b4;stroke:#1f77b4;stroke-linejoin:miter;" x="417.89282" xlink:href="#mc37584cbf6" y="266.698539"/>
     <use style="fill:#1f77b4;stroke:#1f77b4;stroke-linejoin:miter;" x="399.243842" xlink:href="#mc37584cbf6" y="263.427789"/>
     <use style="fill:#1f77b4;stroke:#1f77b4;stroke-linejoin:miter;" x="393.206616" xlink:href="#mc37584cbf6" y="272.587651"/>
     <use style="fill:#1f77b4;stroke:#1f77b4;stroke-linejoin:miter;" x="394.104065" xlink:href="#mc37584cbf6" y="286.249357"/>
     <use style="fill:#1f77b4;stroke:#1f77b4;stroke-linejoin:miter;" x="378.94257" xlink:href="#mc37584cbf6" y="287.443743"/>
     <use style="fill:#1f77b4;stroke:#1f77b4;stroke-linejoin:miter;" x="404.063977" xlink:href="#mc37584cbf6" y="315.884861"/>
     <use style="fill:#1f77b4;stroke:#1f77b4;stroke-linejoin:miter;" x="431.704775" xlink:href="#mc37584cbf6" y="342.6249"/>
     <use style="fill:#1f77b4;stroke:#1f77b4;stroke-linejoin:miter;" x="419.060198" xlink:href="#mc37584cbf6" y="343.238545"/>
     <use style="fill:#1f77b4;stroke:#1f77b4;stroke-linejoin:miter;" x="422.006548" xlink:href="#mc37584cbf6" y="352.625166"/>
     <use style="fill:#1f77b4;stroke:#1f77b4;stroke-linejoin:miter;" x="415.542536" xlink:href="#mc37584cbf6" y="357.010544"/>
     <use style="fill:#1f77b4;stroke:#1f77b4;stroke-linejoin:miter;" x="409.362379" xlink:href="#mc37584cbf6" y="361.542475"/>
     <use style="fill:#1f77b4;stroke:#1f77b4;stroke-linejoin:miter;" x="400.395011" xlink:href="#mc37584cbf6" y="365.390854"/>
     <use style="fill:#1f77b4;stroke:#1f77b4;stroke-linejoin:miter;" x="454.605479" xlink:href="#mc37584cbf6" y="391.565096"/>
     <use style="fill:#1f77b4;stroke:#1f77b4;stroke-linejoin:miter;" x="455.547852" xlink:href="#mc37584cbf6" y="396.673951"/>
     <use style="fill:#1f77b4;stroke:#1f77b4;stroke-linejoin:miter;" x="456.637377" xlink:href="#mc37584cbf6" y="401.847143"/>
     <use style="fill:#1f77b4;stroke:#1f77b4;stroke-linejoin:miter;" x="458.020278" xlink:href="#mc37584cbf6" y="406.778081"/>
     <use style="fill:#1f77b4;stroke:#1f77b4;stroke-linejoin:miter;" x="458.384166" xlink:href="#mc37584cbf6" y="411.165002"/>
     <use style="fill:#1f77b4;stroke:#1f77b4;stroke-linejoin:miter;" x="446.859012" xlink:href="#mc37584cbf6" y="413.462721"/>
     <use style="fill:#1f77b4;stroke:#1f77b4;stroke-linejoin:miter;" x="429.545223" xlink:href="#mc37584cbf6" y="415.589176"/>
     <use style="fill:#1f77b4;stroke:#1f77b4;stroke-linejoin:miter;" x="425.36079" xlink:href="#mc37584cbf6" y="420.1975"/>
     <use style="fill:#1f77b4;stroke:#1f77b4;stroke-linejoin:miter;" x="418.079546" xlink:href="#mc37584cbf6" y="424.838844"/>
     <use style="fill:#1f77b4;stroke:#1f77b4;stroke-linejoin:miter;" x="419.426164" xlink:href="#mc37584cbf6" y="430.270037"/>
     <use style="fill:#1f77b4;stroke:#1f77b4;stroke-linejoin:miter;" x="420.441852" xlink:href="#mc37584cbf6" y="435.042073"/>
     <use style="fill:#1f77b4;stroke:#1f77b4;stroke-linejoin:miter;" x="415.713027" xlink:href="#mc37584cbf6" y="440.22599"/>
     <use style="fill:#1f77b4;stroke:#1f77b4;stroke-linejoin:miter;" x="394.76118" xlink:href="#mc37584cbf6" y="446.434206"/>
     <use style="fill:#1f77b4;stroke:#1f77b4;stroke-linejoin:miter;" x="396.783261" xlink:href="#mc37584cbf6" y="452.280046"/>
     <use style="fill:#1f77b4;stroke:#1f77b4;stroke-linejoin:miter;" x="399.01511" xlink:href="#mc37584cbf6" y="458.071158"/>
     <use style="fill:#1f77b4;stroke:#1f77b4;stroke-linejoin:miter;" x="400.605329" xlink:href="#mc37584cbf6" y="463.810749"/>
     <use style="fill:#1f77b4;stroke:#1f77b4;stroke-linejoin:miter;" x="402.689354" xlink:href="#mc37584cbf6" y="469.618671"/>
     <use style="fill:#1f77b4;stroke:#1f77b4;stroke-linejoin:miter;" x="403.126878" xlink:href="#mc37584cbf6" y="475.512517"/>
     <use style="fill:#1f77b4;stroke:#1f77b4;stroke-linejoin:miter;" x="404.131104" xlink:href="#mc37584cbf6" y="481.628308"/>
     <use style="fill:#1f77b4;stroke:#1f77b4;stroke-linejoin:miter;" x="405.813457" xlink:href="#mc37584cbf6" y="487.490256"/>
     <use style="fill:#1f77b4;stroke:#1f77b4;stroke-linejoin:miter;" x="407.563967" xlink:href="#mc37584cbf6" y="493.713458"/>
     <use style="fill:#1f77b4;stroke:#1f77b4;stroke-linejoin:miter;" x="410.785915" xlink:href="#mc37584cbf6" y="506.225574"/>
     <use style="fill:#1f77b4;stroke:#1f77b4;stroke-linejoin:miter;" x="432.047238" xlink:href="#mc37584cbf6" y="511.04163"/>
     <use style="fill:#1f77b4;stroke:#1f77b4;stroke-linejoin:miter;" x="434.002705" xlink:href="#mc37584cbf6" y="516.932353"/>
     <use style="fill:#1f77b4;stroke:#1f77b4;stroke-linejoin:miter;" x="451.347931" xlink:href="#mc37584cbf6" y="514.622162"/>
     <use style="fill:#1f77b4;stroke:#1f77b4;stroke-linejoin:miter;" x="467.003128" xlink:href="#mc37584cbf6" y="512.286815"/>
     <use style="fill:#1f77b4;stroke:#1f77b4;stroke-linejoin:miter;" x="457.688079" xlink:href="#mc37584cbf6" y="524.778292"/>
     <use style="fill:#1f77b4;stroke:#1f77b4;stroke-linejoin:miter;" x="457.403924" xlink:href="#mc37584cbf6" y="532.389449"/>
     <use style="fill:#1f77b4;stroke:#1f77b4;stroke-linejoin:miter;" x="459.886056" xlink:href="#mc37584cbf6" y="538.580632"/>
     <use style="fill:#1f77b4;stroke:#1f77b4;stroke-linejoin:miter;" x="471.178965" xlink:href="#mc37584cbf6" y="537.900425"/>
     <use style="fill:#1f77b4;stroke:#1f77b4;stroke-linejoin:miter;" x="453.724042" xlink:href="#mc37584cbf6" y="561.94872"/>
     <use style="fill:#1f77b4;stroke:#1f77b4;stroke-linejoin:miter;" x="524.69216" xlink:href="#mc37584cbf6" y="509.945431"/>
     <use style="fill:#1f77b4;stroke:#1f77b4;stroke-linejoin:miter;" x="564.598375" xlink:href="#mc37584cbf6" y="477.201269"/>
     <use style="fill:#1f77b4;stroke:#1f77b4;stroke-linejoin:miter;" x="568.08786" xlink:href="#mc37584cbf6" y="475.96885"/>
     <use style="fill:#1f77b4;stroke:#1f77b4;stroke-linejoin:miter;" x="569.839377" xlink:href="#mc37584cbf6" y="477.468781"/>
     <use style="fill:#1f77b4;stroke:#1f77b4;stroke-linejoin:miter;" x="571.4944" xlink:href="#mc37584cbf6" y="479.003217"/>
     <use style="fill:#1f77b4;stroke:#1f77b4;stroke-linejoin:miter;" x="573.137367" xlink:href="#mc37584cbf6" y="480.904708"/>
     <use style="fill:#1f77b4;stroke:#1f77b4;stroke-linejoin:miter;" x="575.191191" xlink:href="#mc37584cbf6" y="482.688979"/>
     <use style="fill:#1f77b4;stroke:#1f77b4;stroke-linejoin:miter;" x="577.182765" xlink:href="#mc37584cbf6" y="485.000997"/>
     <use style="fill:#1f77b4;stroke:#1f77b4;stroke-linejoin:miter;" x="579.195448" xlink:href="#mc37584cbf6" y="487.8517"/>
     <use style="fill:#1f77b4;stroke:#1f77b4;stroke-linejoin:miter;" x="580.828341" xlink:href="#mc37584cbf6" y="492.878227"/>
     <use style="fill:#1f77b4;stroke:#1f77b4;stroke-linejoin:miter;" x="583.097332" xlink:href="#mc37584cbf6" y="631.899002"/>
     <use style="fill:#1f77b4;stroke:#1f77b4;stroke-linejoin:miter;" x="593.850046" xlink:href="#mc37584cbf6" y="636.885444"/>
     <use style="fill:#1f77b4;stroke:#1f77b4;stroke-linejoin:miter;" x="605.182368" xlink:href="#mc37584cbf6" y="641.15897"/>
     <use style="fill:#1f77b4;stroke:#1f77b4;stroke-linejoin:miter;" x="616.97779" xlink:href="#mc37584cbf6" y="640.830867"/>
     <use style="fill:#1f77b4;stroke:#1f77b4;stroke-linejoin:miter;" x="628.355025" xlink:href="#mc37584cbf6" y="639.978637"/>
     <use style="fill:#1f77b4;stroke:#1f77b4;stroke-linejoin:miter;" x="644.606263" xlink:href="#mc37584cbf6" y="615.737755"/>
     <use style="fill:#1f77b4;stroke:#1f77b4;stroke-linejoin:miter;" x="659.745315" xlink:href="#mc37584cbf6" y="629.3785"/>
     <use style="fill:#1f77b4;stroke:#1f77b4;stroke-linejoin:miter;" x="663.74287" xlink:href="#mc37584cbf6" y="610.48255"/>
     <use style="fill:#1f77b4;stroke:#1f77b4;stroke-linejoin:miter;" x="666.93272" xlink:href="#mc37584cbf6" y="594.481114"/>
     <use style="fill:#1f77b4;stroke:#1f77b4;stroke-linejoin:miter;" x="678.666656" xlink:href="#mc37584cbf6" y="598.096571"/>
     <use style="fill:#1f77b4;stroke:#1f77b4;stroke-linejoin:miter;" x="689.562832" xlink:href="#mc37584cbf6" y="598.696498"/>
     <use style="fill:#1f77b4;stroke:#1f77b4;stroke-linejoin:miter;" x="701.657312" xlink:href="#mc37584cbf6" y="600.132367"/>
     <use style="fill:#1f77b4;stroke:#1f77b4;stroke-linejoin:miter;" x="756.248733" xlink:href="#mc37584cbf6" y="592.296695"/>
     <use style="fill:#1f77b4;stroke:#1f77b4;stroke-linejoin:miter;" x="763.851485" xlink:href="#mc37584cbf6" y="586.155896"/>
     <use style="fill:#1f77b4;stroke:#1f77b4;stroke-linejoin:miter;" x="778.633061" xlink:href="#mc37584cbf6" y="586.406143"/>
     <use style="fill:#1f77b4;stroke:#1f77b4;stroke-linejoin:miter;" x="789.865347" xlink:href="#mc37584cbf6" y="582.781001"/>
     <use style="fill:#1f77b4;stroke:#1f77b4;stroke-linejoin:miter;" x="806.821532" xlink:href="#mc37584cbf6" y="582.886684"/>
     <use style="fill:#1f77b4;stroke:#1f77b4;stroke-linejoin:miter;" x="833.21874" xlink:href="#mc37584cbf6" y="587.977859"/>
     <use style="fill:#1f77b4;stroke:#1f77b4;stroke-linejoin:miter;" x="833.450552" xlink:href="#mc37584cbf6" y="575.135143"/>
     <use style="fill:#1f77b4;stroke:#1f77b4;stroke-linejoin:miter;" x="846.09785" xlink:href="#mc37584cbf6" y="570.199994"/>
     <use style="fill:#1f77b4;stroke:#1f77b4;stroke-linejoin:miter;" x="874.464233" xlink:href="#mc37584cbf6" y="572.554702"/>
     <use style="fill:#1f77b4;stroke:#1f77b4;stroke-linejoin:miter;" x="873.397282" xlink:href="#mc37584cbf6" y="559.995374"/>
     <use style="fill:#1f77b4;stroke:#1f77b4;stroke-linejoin:miter;" x="894.672758" xlink:href="#mc37584cbf6" y="557.113733"/>
     <use style="fill:#1f77b4;stroke:#1f77b4;stroke-linejoin:miter;" x="947.824833" xlink:href="#mc37584cbf6" y="551.523505"/>
     <use style="fill:#1f77b4;stroke:#1f77b4;stroke-linejoin:miter;" x="1053.161345" xlink:href="#mc37584cbf6" y="553.374637"/>
     <use style="fill:#1f77b4;stroke:#1f77b4;stroke-linejoin:miter;" x="1055.2477" xlink:href="#mc37584cbf6" y="538.205511"/>
     <use style="fill:#1f77b4;stroke:#1f77b4;stroke-linejoin:miter;" x="1082.157061" xlink:href="#mc37584cbf6" y="528.001829"/>
     <use style="fill:#1f77b4;stroke:#1f77b4;stroke-linejoin:miter;" x="1085.683742" xlink:href="#mc37584cbf6" y="512.875916"/>
     <use style="fill:#1f77b4;stroke:#1f77b4;stroke-linejoin:miter;" x="1132.06184" xlink:href="#mc37584cbf6" y="503.184994"/>
    </g>
   </g>
   <g id="patch_3">
    <path d="M 144 768.96 
L 144 103.68 
" style="fill:none;stroke:#000000;stroke-linecap:square;stroke-linejoin:miter;stroke-width:0.8;"/>
   </g>
   <g id="patch_4">
    <path d="M 1036.8 768.96 
L 1036.8 103.68 
" style="fill:none;stroke:#000000;stroke-linecap:square;stroke-linejoin:miter;stroke-width:0.8;"/>
   </g>
   <g id="patch_5">
    <path d="M 144 768.96 
L 1036.8 768.96 
" style="fill:none;stroke:#000000;stroke-linecap:square;stroke-linejoin:miter;stroke-width:0.8;"/>
   </g>
   <g id="patch_6">
    <path d="M 144 103.68 
L 1036.8 103.68 
" style="fill:none;stroke:#000000;stroke-linecap:square;stroke-linejoin:miter;stroke-width:0.8;"/>
   </g>
  </g>
 </g>
 <defs>
  <clipPath id="p05d87b4404">
   <rect height="665.28" width="892.8" x="144" y="103.68"/>
  </clipPath>
 </defs>
</svg>
