<?xml version="1.0" encoding="utf-8" standalone="no"?>
<!DOCTYPE svg PUBLIC "-//W3C//DTD SVG 1.1//EN"
  "http://www.w3.org/Graphics/SVG/1.1/DTD/svg11.dtd">
<!-- Created with matplotlib (http://matplotlib.org/) -->
<svg height="864pt" version="1.1" viewBox="0 0 1152 864" width="1152pt" xmlns="http://www.w3.org/2000/svg" xmlns:xlink="http://www.w3.org/1999/xlink">
 <defs>
  <style type="text/css">
*{stroke-linecap:butt;stroke-linejoin:round;}
  </style>
 </defs>
 <g id="figure_1">
  <g id="patch_1">
   <path d="M 0 864 
L 1152 864 
L 1152 0 
L 0 0 
z
" style="fill:#ffffff;"/>
  </g>
  <g id="axes_1">
   <g id="patch_2">
    <path d="M 144 768.96 
L 1036.8 768.96 
L 1036.8 103.68 
L 144 103.68 
z
" style="fill:#ffffff;"/>
   </g>
   <g id="matplotlib.axis_1">
    <g id="xtick_1">
     <g id="line2d_1">
      <defs>
       <path d="M 0 0 
L 0 3.5 
" id="m76e804ec19" style="stroke:#000000;stroke-width:0.8;"/>
      </defs>
      <g>
       <use style="stroke:#000000;stroke-width:0.8;" x="144" xlink:href="#m76e804ec19" y="768.96"/>
      </g>
     </g>
     <g id="text_1">
      <!-- −4000 -->
      <defs>
       <path d="M 10.59375 35.5 
L 73.1875 35.5 
L 73.1875 27.203125 
L 10.59375 27.203125 
z
" id="DejaVuSans-2212"/>
       <path d="M 37.796875 64.3125 
L 12.890625 25.390625 
L 37.796875 25.390625 
z
M 35.203125 72.90625 
L 47.609375 72.90625 
L 47.609375 25.390625 
L 58.015625 25.390625 
L 58.015625 17.1875 
L 47.609375 17.1875 
L 47.609375 0 
L 37.796875 0 
L 37.796875 17.1875 
L 4.890625 17.1875 
L 4.890625 26.703125 
z
" id="DejaVuSans-34"/>
       <path d="M 31.78125 66.40625 
Q 24.171875 66.40625 20.328125 58.90625 
Q 16.5 51.421875 16.5 36.375 
Q 16.5 21.390625 20.328125 13.890625 
Q 24.171875 6.390625 31.78125 6.390625 
Q 39.453125 6.390625 43.28125 13.890625 
Q 47.125 21.390625 47.125 36.375 
Q 47.125 51.421875 43.28125 58.90625 
Q 39.453125 66.40625 31.78125 66.40625 
z
M 31.78125 74.21875 
Q 44.046875 74.21875 50.515625 64.515625 
Q 56.984375 54.828125 56.984375 36.375 
Q 56.984375 17.96875 50.515625 8.265625 
Q 44.046875 -1.421875 31.78125 -1.421875 
Q 19.53125 -1.421875 13.0625 8.265625 
Q 6.59375 17.96875 6.59375 36.375 
Q 6.59375 54.828125 13.0625 64.515625 
Q 19.53125 74.21875 31.78125 74.21875 
z
" id="DejaVuSans-30"/>
      </defs>
      <g transform="translate(127.085156 783.558437)scale(0.1 -0.1)">
       <use xlink:href="#DejaVuSans-2212"/>
       <use x="83.789062" xlink:href="#DejaVuSans-34"/>
       <use x="147.412109" xlink:href="#DejaVuSans-30"/>
       <use x="211.035156" xlink:href="#DejaVuSans-30"/>
       <use x="274.658203" xlink:href="#DejaVuSans-30"/>
      </g>
     </g>
    </g>
    <g id="xtick_2">
     <g id="line2d_2">
      <g>
       <use style="stroke:#000000;stroke-width:0.8;" x="255.6" xlink:href="#m76e804ec19" y="768.96"/>
      </g>
     </g>
     <g id="text_2">
      <!-- −3000 -->
      <defs>
       <path d="M 40.578125 39.3125 
Q 47.65625 37.796875 51.625 33 
Q 55.609375 28.21875 55.609375 21.1875 
Q 55.609375 10.40625 48.1875 4.484375 
Q 40.765625 -1.421875 27.09375 -1.421875 
Q 22.515625 -1.421875 17.65625 -0.515625 
Q 12.796875 0.390625 7.625 2.203125 
L 7.625 11.71875 
Q 11.71875 9.328125 16.59375 8.109375 
Q 21.484375 6.890625 26.8125 6.890625 
Q 36.078125 6.890625 40.9375 10.546875 
Q 45.796875 14.203125 45.796875 21.1875 
Q 45.796875 27.640625 41.28125 31.265625 
Q 36.765625 34.90625 28.71875 34.90625 
L 20.21875 34.90625 
L 20.21875 43.015625 
L 29.109375 43.015625 
Q 36.375 43.015625 40.234375 45.921875 
Q 44.09375 48.828125 44.09375 54.296875 
Q 44.09375 59.90625 40.109375 62.90625 
Q 36.140625 65.921875 28.71875 65.921875 
Q 24.65625 65.921875 20.015625 65.03125 
Q 15.375 64.15625 9.8125 62.3125 
L 9.8125 71.09375 
Q 15.4375 72.65625 20.34375 73.4375 
Q 25.25 74.21875 29.59375 74.21875 
Q 40.828125 74.21875 47.359375 69.109375 
Q 53.90625 64.015625 53.90625 55.328125 
Q 53.90625 49.265625 50.4375 45.09375 
Q 46.96875 40.921875 40.578125 39.3125 
z
" id="DejaVuSans-33"/>
      </defs>
      <g transform="translate(238.685156 783.558437)scale(0.1 -0.1)">
       <use xlink:href="#DejaVuSans-2212"/>
       <use x="83.789062" xlink:href="#DejaVuSans-33"/>
       <use x="147.412109" xlink:href="#DejaVuSans-30"/>
       <use x="211.035156" xlink:href="#DejaVuSans-30"/>
       <use x="274.658203" xlink:href="#DejaVuSans-30"/>
      </g>
     </g>
    </g>
    <g id="xtick_3">
     <g id="line2d_3">
      <g>
       <use style="stroke:#000000;stroke-width:0.8;" x="367.2" xlink:href="#m76e804ec19" y="768.96"/>
      </g>
     </g>
     <g id="text_3">
      <!-- −2000 -->
      <defs>
       <path d="M 19.1875 8.296875 
L 53.609375 8.296875 
L 53.609375 0 
L 7.328125 0 
L 7.328125 8.296875 
Q 12.9375 14.109375 22.625 23.890625 
Q 32.328125 33.6875 34.8125 36.53125 
Q 39.546875 41.84375 41.421875 45.53125 
Q 43.3125 49.21875 43.3125 52.78125 
Q 43.3125 58.59375 39.234375 62.25 
Q 35.15625 65.921875 28.609375 65.921875 
Q 23.96875 65.921875 18.8125 64.3125 
Q 13.671875 62.703125 7.8125 59.421875 
L 7.8125 69.390625 
Q 13.765625 71.78125 18.9375 73 
Q 24.125 74.21875 28.421875 74.21875 
Q 39.75 74.21875 46.484375 68.546875 
Q 53.21875 62.890625 53.21875 53.421875 
Q 53.21875 48.921875 51.53125 44.890625 
Q 49.859375 40.875 45.40625 35.40625 
Q 44.1875 33.984375 37.640625 27.21875 
Q 31.109375 20.453125 19.1875 8.296875 
z
" id="DejaVuSans-32"/>
      </defs>
      <g transform="translate(350.285156 783.558437)scale(0.1 -0.1)">
       <use xlink:href="#DejaVuSans-2212"/>
       <use x="83.789062" xlink:href="#DejaVuSans-32"/>
       <use x="147.412109" xlink:href="#DejaVuSans-30"/>
       <use x="211.035156" xlink:href="#DejaVuSans-30"/>
       <use x="274.658203" xlink:href="#DejaVuSans-30"/>
      </g>
     </g>
    </g>
    <g id="xtick_4">
     <g id="line2d_4">
      <g>
       <use style="stroke:#000000;stroke-width:0.8;" x="478.8" xlink:href="#m76e804ec19" y="768.96"/>
      </g>
     </g>
     <g id="text_4">
      <!-- −1000 -->
      <defs>
       <path d="M 12.40625 8.296875 
L 28.515625 8.296875 
L 28.515625 63.921875 
L 10.984375 60.40625 
L 10.984375 69.390625 
L 28.421875 72.90625 
L 38.28125 72.90625 
L 38.28125 8.296875 
L 54.390625 8.296875 
L 54.390625 0 
L 12.40625 0 
z
" id="DejaVuSans-31"/>
      </defs>
      <g transform="translate(461.885156 783.558437)scale(0.1 -0.1)">
       <use xlink:href="#DejaVuSans-2212"/>
       <use x="83.789062" xlink:href="#DejaVuSans-31"/>
       <use x="147.412109" xlink:href="#DejaVuSans-30"/>
       <use x="211.035156" xlink:href="#DejaVuSans-30"/>
       <use x="274.658203" xlink:href="#DejaVuSans-30"/>
      </g>
     </g>
    </g>
    <g id="xtick_5">
     <g id="line2d_5">
      <g>
       <use style="stroke:#000000;stroke-width:0.8;" x="590.4" xlink:href="#m76e804ec19" y="768.96"/>
      </g>
     </g>
     <g id="text_5">
      <!-- 0 -->
      <g transform="translate(587.21875 783.558437)scale(0.1 -0.1)">
       <use xlink:href="#DejaVuSans-30"/>
      </g>
     </g>
    </g>
    <g id="xtick_6">
     <g id="line2d_6">
      <g>
       <use style="stroke:#000000;stroke-width:0.8;" x="702" xlink:href="#m76e804ec19" y="768.96"/>
      </g>
     </g>
     <g id="text_6">
      <!-- 1000 -->
      <g transform="translate(689.275 783.558437)scale(0.1 -0.1)">
       <use xlink:href="#DejaVuSans-31"/>
       <use x="63.623047" xlink:href="#DejaVuSans-30"/>
       <use x="127.246094" xlink:href="#DejaVuSans-30"/>
       <use x="190.869141" xlink:href="#DejaVuSans-30"/>
      </g>
     </g>
    </g>
    <g id="xtick_7">
     <g id="line2d_7">
      <g>
       <use style="stroke:#000000;stroke-width:0.8;" x="813.6" xlink:href="#m76e804ec19" y="768.96"/>
      </g>
     </g>
     <g id="text_7">
      <!-- 2000 -->
      <g transform="translate(800.875 783.558437)scale(0.1 -0.1)">
       <use xlink:href="#DejaVuSans-32"/>
       <use x="63.623047" xlink:href="#DejaVuSans-30"/>
       <use x="127.246094" xlink:href="#DejaVuSans-30"/>
       <use x="190.869141" xlink:href="#DejaVuSans-30"/>
      </g>
     </g>
    </g>
    <g id="xtick_8">
     <g id="line2d_8">
      <g>
       <use style="stroke:#000000;stroke-width:0.8;" x="925.2" xlink:href="#m76e804ec19" y="768.96"/>
      </g>
     </g>
     <g id="text_8">
      <!-- 3000 -->
      <g transform="translate(912.475 783.558437)scale(0.1 -0.1)">
       <use xlink:href="#DejaVuSans-33"/>
       <use x="63.623047" xlink:href="#DejaVuSans-30"/>
       <use x="127.246094" xlink:href="#DejaVuSans-30"/>
       <use x="190.869141" xlink:href="#DejaVuSans-30"/>
      </g>
     </g>
    </g>
    <g id="xtick_9">
     <g id="line2d_9">
      <g>
       <use style="stroke:#000000;stroke-width:0.8;" x="1036.8" xlink:href="#m76e804ec19" y="768.96"/>
      </g>
     </g>
     <g id="text_9">
      <!-- 4000 -->
      <g transform="translate(1024.075 783.558437)scale(0.1 -0.1)">
       <use xlink:href="#DejaVuSans-34"/>
       <use x="63.623047" xlink:href="#DejaVuSans-30"/>
       <use x="127.246094" xlink:href="#DejaVuSans-30"/>
       <use x="190.869141" xlink:href="#DejaVuSans-30"/>
      </g>
     </g>
    </g>
   </g>
   <g id="matplotlib.axis_2">
    <g id="ytick_1">
     <g id="line2d_10">
      <defs>
       <path d="M 0 0 
L -3.5 0 
" id="m9d3609eae8" style="stroke:#000000;stroke-width:0.8;"/>
      </defs>
      <g>
       <use style="stroke:#000000;stroke-width:0.8;" x="144" xlink:href="#m9d3609eae8" y="768.96"/>
      </g>
     </g>
     <g id="text_10">
      <!-- −4000 -->
      <g transform="translate(103.170312 772.759219)scale(0.1 -0.1)">
       <use xlink:href="#DejaVuSans-2212"/>
       <use x="83.789062" xlink:href="#DejaVuSans-34"/>
       <use x="147.412109" xlink:href="#DejaVuSans-30"/>
       <use x="211.035156" xlink:href="#DejaVuSans-30"/>
       <use x="274.658203" xlink:href="#DejaVuSans-30"/>
      </g>
     </g>
    </g>
    <g id="ytick_2">
     <g id="line2d_11">
      <g>
       <use style="stroke:#000000;stroke-width:0.8;" x="144" xlink:href="#m9d3609eae8" y="685.8"/>
      </g>
     </g>
     <g id="text_11">
      <!-- −3000 -->
      <g transform="translate(103.170312 689.599219)scale(0.1 -0.1)">
       <use xlink:href="#DejaVuSans-2212"/>
       <use x="83.789062" xlink:href="#DejaVuSans-33"/>
       <use x="147.412109" xlink:href="#DejaVuSans-30"/>
       <use x="211.035156" xlink:href="#DejaVuSans-30"/>
       <use x="274.658203" xlink:href="#DejaVuSans-30"/>
      </g>
     </g>
    </g>
    <g id="ytick_3">
     <g id="line2d_12">
      <g>
       <use style="stroke:#000000;stroke-width:0.8;" x="144" xlink:href="#m9d3609eae8" y="602.64"/>
      </g>
     </g>
     <g id="text_12">
      <!-- −2000 -->
      <g transform="translate(103.170312 606.439219)scale(0.1 -0.1)">
       <use xlink:href="#DejaVuSans-2212"/>
       <use x="83.789062" xlink:href="#DejaVuSans-32"/>
       <use x="147.412109" xlink:href="#DejaVuSans-30"/>
       <use x="211.035156" xlink:href="#DejaVuSans-30"/>
       <use x="274.658203" xlink:href="#DejaVuSans-30"/>
      </g>
     </g>
    </g>
    <g id="ytick_4">
     <g id="line2d_13">
      <g>
       <use style="stroke:#000000;stroke-width:0.8;" x="144" xlink:href="#m9d3609eae8" y="519.48"/>
      </g>
     </g>
     <g id="text_13">
      <!-- −1000 -->
      <g transform="translate(103.170312 523.279219)scale(0.1 -0.1)">
       <use xlink:href="#DejaVuSans-2212"/>
       <use x="83.789062" xlink:href="#DejaVuSans-31"/>
       <use x="147.412109" xlink:href="#DejaVuSans-30"/>
       <use x="211.035156" xlink:href="#DejaVuSans-30"/>
       <use x="274.658203" xlink:href="#DejaVuSans-30"/>
      </g>
     </g>
    </g>
    <g id="ytick_5">
     <g id="line2d_14">
      <g>
       <use style="stroke:#000000;stroke-width:0.8;" x="144" xlink:href="#m9d3609eae8" y="436.32"/>
      </g>
     </g>
     <g id="text_14">
      <!-- 0 -->
      <g transform="translate(130.6375 440.119219)scale(0.1 -0.1)">
       <use xlink:href="#DejaVuSans-30"/>
      </g>
     </g>
    </g>
    <g id="ytick_6">
     <g id="line2d_15">
      <g>
       <use style="stroke:#000000;stroke-width:0.8;" x="144" xlink:href="#m9d3609eae8" y="353.16"/>
      </g>
     </g>
     <g id="text_15">
      <!-- 1000 -->
      <g transform="translate(111.55 356.959219)scale(0.1 -0.1)">
       <use xlink:href="#DejaVuSans-31"/>
       <use x="63.623047" xlink:href="#DejaVuSans-30"/>
       <use x="127.246094" xlink:href="#DejaVuSans-30"/>
       <use x="190.869141" xlink:href="#DejaVuSans-30"/>
      </g>
     </g>
    </g>
    <g id="ytick_7">
     <g id="line2d_16">
      <g>
       <use style="stroke:#000000;stroke-width:0.8;" x="144" xlink:href="#m9d3609eae8" y="270"/>
      </g>
     </g>
     <g id="text_16">
      <!-- 2000 -->
      <g transform="translate(111.55 273.799219)scale(0.1 -0.1)">
       <use xlink:href="#DejaVuSans-32"/>
       <use x="63.623047" xlink:href="#DejaVuSans-30"/>
       <use x="127.246094" xlink:href="#DejaVuSans-30"/>
       <use x="190.869141" xlink:href="#DejaVuSans-30"/>
      </g>
     </g>
    </g>
    <g id="ytick_8">
     <g id="line2d_17">
      <g>
       <use style="stroke:#000000;stroke-width:0.8;" x="144" xlink:href="#m9d3609eae8" y="186.84"/>
      </g>
     </g>
     <g id="text_17">
      <!-- 3000 -->
      <g transform="translate(111.55 190.639219)scale(0.1 -0.1)">
       <use xlink:href="#DejaVuSans-33"/>
       <use x="63.623047" xlink:href="#DejaVuSans-30"/>
       <use x="127.246094" xlink:href="#DejaVuSans-30"/>
       <use x="190.869141" xlink:href="#DejaVuSans-30"/>
      </g>
     </g>
    </g>
    <g id="ytick_9">
     <g id="line2d_18">
      <g>
       <use style="stroke:#000000;stroke-width:0.8;" x="144" xlink:href="#m9d3609eae8" y="103.68"/>
      </g>
     </g>
     <g id="text_18">
      <!-- 4000 -->
      <g transform="translate(111.55 107.479219)scale(0.1 -0.1)">
       <use xlink:href="#DejaVuSans-34"/>
       <use x="63.623047" xlink:href="#DejaVuSans-30"/>
       <use x="127.246094" xlink:href="#DejaVuSans-30"/>
       <use x="190.869141" xlink:href="#DejaVuSans-30"/>
      </g>
     </g>
    </g>
   </g>
   <g id="line2d_19">
    <path clip-path="url(#p0a0635dbe1)" d="M 590.4 768.96 
L 590.4 103.68 
" style="fill:none;stroke:#1f77b4;stroke-linecap:square;stroke-width:1.5;"/>
   </g>
   <g id="line2d_20">
    <path clip-path="url(#p0a0635dbe1)" d="M 144 436.32 
L 1036.8 436.32 
" style="fill:none;stroke:#1f77b4;stroke-linecap:square;stroke-width:1.5;"/>
   </g>
   <g id="line2d_21">
    <defs>
     <path d="M 0 3 
C 0.795609 3 1.55874 2.683901 2.12132 2.12132 
C 2.683901 1.55874 3 0.795609 3 0 
C 3 -0.795609 2.683901 -1.55874 2.12132 -2.12132 
C 1.55874 -2.683901 0.795609 -3 0 -3 
C -0.795609 -3 -1.55874 -2.683901 -2.12132 -2.12132 
C -2.683901 -1.55874 -3 -0.795609 -3 0 
C -3 0.795609 -2.683901 1.55874 -2.12132 2.12132 
C -1.55874 2.683901 -0.795609 3 0 3 
z
" id="m5b9356d5e1" style="stroke:#008000;"/>
    </defs>
    <g clip-path="url(#p0a0635dbe1)">
     <use style="fill:#008000;stroke:#008000;" x="1409.155625" xlink:href="#m5b9356d5e1" y="488.691491"/>
    </g>
   </g>
   <g id="line2d_22">
    <g clip-path="url(#p0a0635dbe1)">
     <use style="fill:#008000;stroke:#008000;" x="1070.865614" xlink:href="#m5b9356d5e1" y="436.710544"/>
    </g>
   </g>
   <g id="line2d_23">
    <g clip-path="url(#p0a0635dbe1)">
     <use style="fill:#008000;stroke:#008000;" x="1388.515981" xlink:href="#m5b9356d5e1" y="389.187721"/>
    </g>
   </g>
   <g id="line2d_24">
    <g clip-path="url(#p0a0635dbe1)">
     <use style="fill:#008000;stroke:#008000;" x="1320.738819" xlink:href="#m5b9356d5e1" y="277.04998"/>
    </g>
   </g>
   <g id="line2d_25">
    <g clip-path="url(#p0a0635dbe1)">
     <use style="fill:#008000;stroke:#008000;" x="1359.435524" xlink:href="#m5b9356d5e1" y="243.01307"/>
    </g>
   </g>
   <g id="line2d_26">
    <g clip-path="url(#p0a0635dbe1)">
     <use style="fill:#008000;stroke:#008000;" x="1185.171466" xlink:href="#m5b9356d5e1" y="150.559788"/>
    </g>
   </g>
   <g id="line2d_27">
    <g clip-path="url(#p0a0635dbe1)">
     <use style="fill:#008000;stroke:#008000;" x="647.875943" xlink:href="#m5b9356d5e1" y="391.568187"/>
    </g>
   </g>
   <g id="line2d_28">
    <g clip-path="url(#p0a0635dbe1)">
     <use style="fill:#008000;stroke:#008000;" x="647.875943" xlink:href="#m5b9356d5e1" y="391.568187"/>
    </g>
   </g>
   <g id="line2d_29">
    <g clip-path="url(#p0a0635dbe1)">
     <use style="fill:#008000;stroke:#008000;" x="777.834697" xlink:href="#m5b9356d5e1" y="194.710479"/>
    </g>
   </g>
   <g id="line2d_30">
    <g clip-path="url(#p0a0635dbe1)">
     <use style="fill:#008000;stroke:#008000;" x="777.834697" xlink:href="#m5b9356d5e1" y="194.710479"/>
    </g>
   </g>
   <g id="line2d_31">
    <g clip-path="url(#p0a0635dbe1)">
     <use style="fill:#008000;stroke:#008000;" x="569.434263" xlink:href="#m5b9356d5e1" y="226.08909"/>
    </g>
   </g>
   <g id="line2d_32">
    <g clip-path="url(#p0a0635dbe1)">
     <use style="fill:#008000;stroke:#008000;" x="572.646411" xlink:href="#m5b9356d5e1" y="393.091119"/>
    </g>
   </g>
   <g id="line2d_33">
    <g clip-path="url(#p0a0635dbe1)">
     <use style="fill:#008000;stroke:#008000;" x="572.646411" xlink:href="#m5b9356d5e1" y="393.091119"/>
    </g>
   </g>
   <g id="line2d_34">
    <g clip-path="url(#p0a0635dbe1)">
     <use style="fill:#008000;stroke:#008000;" x="411.79781" xlink:href="#m5b9356d5e1" y="505.69322"/>
    </g>
   </g>
   <g id="line2d_35">
    <g clip-path="url(#p0a0635dbe1)">
     <use style="fill:#008000;stroke:#008000;" x="1054.642642" xlink:href="#m5b9356d5e1" y="555.224186"/>
    </g>
   </g>
   <g id="line2d_36">
    <defs>
     <path d="M 0 1.333333 
C 0.353604 1.333333 0.692773 1.192845 0.942809 0.942809 
C 1.192845 0.692773 1.333333 0.353604 1.333333 0 
C 1.333333 -0.353604 1.192845 -0.692773 0.942809 -0.942809 
C 0.692773 -1.192845 0.353604 -1.333333 0 -1.333333 
C -0.353604 -1.333333 -0.692773 -1.192845 -0.942809 -0.942809 
C -1.192845 -0.692773 -1.333333 -0.353604 -1.333333 0 
C -1.333333 0.353604 -1.192845 0.692773 -0.942809 0.942809 
C -0.692773 1.192845 -0.353604 1.333333 0 1.333333 
z
" id="m872c17b531" style="stroke:#ff0000;"/>
    </defs>
    <g clip-path="url(#p0a0635dbe1)">
     <use style="fill:#ff0000;stroke:#ff0000;" x="1409.155625" xlink:href="#m872c17b531" y="488.691491"/>
     <use style="fill:#ff0000;stroke:#ff0000;" x="1070.865614" xlink:href="#m872c17b531" y="436.710544"/>
     <use style="fill:#ff0000;stroke:#ff0000;" x="1388.515981" xlink:href="#m872c17b531" y="389.187721"/>
     <use style="fill:#ff0000;stroke:#ff0000;" x="1287.228811" xlink:href="#m872c17b531" y="351.754791"/>
     <use style="fill:#ff0000;stroke:#ff0000;" x="1262.661396" xlink:href="#m872c17b531" y="333.263327"/>
     <use style="fill:#ff0000;stroke:#ff0000;" x="1320.738819" xlink:href="#m872c17b531" y="277.04998"/>
     <use style="fill:#ff0000;stroke:#ff0000;" x="1359.435524" xlink:href="#m872c17b531" y="243.01307"/>
     <use style="fill:#ff0000;stroke:#ff0000;" x="1185.171466" xlink:href="#m872c17b531" y="150.559788"/>
     <use style="fill:#ff0000;stroke:#ff0000;" x="652.064198" xlink:href="#m872c17b531" y="398.714731"/>
     <use style="fill:#ff0000;stroke:#ff0000;" x="642.237001" xlink:href="#m872c17b531" y="384.651079"/>
     <use style="fill:#ff0000;stroke:#ff0000;" x="788.131862" xlink:href="#m872c17b531" y="192.909397"/>
     <use style="fill:#ff0000;stroke:#ff0000;" x="767.717095" xlink:href="#m872c17b531" y="196.720181"/>
     <use style="fill:#ff0000;stroke:#ff0000;" x="569.434263" xlink:href="#m872c17b531" y="226.08909"/>
     <use style="fill:#ff0000;stroke:#ff0000;" x="578.658895" xlink:href="#m872c17b531" y="391.892652"/>
     <use style="fill:#ff0000;stroke:#ff0000;" x="566.839542" xlink:href="#m872c17b531" y="394.739341"/>
     <use style="fill:#ff0000;stroke:#ff0000;" x="457.183795" xlink:href="#m872c17b531" y="248.390292"/>
     <use style="fill:#ff0000;stroke:#ff0000;" x="417.926153" xlink:href="#m872c17b531" y="252.132524"/>
     <use style="fill:#ff0000;stroke:#ff0000;" x="417.23898" xlink:href="#m872c17b531" y="266.729145"/>
     <use style="fill:#ff0000;stroke:#ff0000;" x="390.172974" xlink:href="#m872c17b531" y="295.811842"/>
     <use style="fill:#ff0000;stroke:#ff0000;" x="404.116366" xlink:href="#m872c17b531" y="316.316165"/>
     <use style="fill:#ff0000;stroke:#ff0000;" x="432.606156" xlink:href="#m872c17b531" y="343.41778"/>
     <use style="fill:#ff0000;stroke:#ff0000;" x="400.296268" xlink:href="#m872c17b531" y="365.30566"/>
     <use style="fill:#ff0000;stroke:#ff0000;" x="454.638257" xlink:href="#m872c17b531" y="391.509913"/>
     <use style="fill:#ff0000;stroke:#ff0000;" x="446.649123" xlink:href="#m872c17b531" y="413.398751"/>
     <use style="fill:#ff0000;stroke:#ff0000;" x="415.936127" xlink:href="#m872c17b531" y="440.221002"/>
     <use style="fill:#ff0000;stroke:#ff0000;" x="394.538515" xlink:href="#m872c17b531" y="446.445717"/>
     <use style="fill:#ff0000;stroke:#ff0000;" x="411.79781" xlink:href="#m872c17b531" y="505.69322"/>
     <use style="fill:#ff0000;stroke:#ff0000;" x="467.392988" xlink:href="#m872c17b531" y="489.741077"/>
     <use style="fill:#ff0000;stroke:#ff0000;" x="432.386114" xlink:href="#m872c17b531" y="510.701904"/>
     <use style="fill:#ff0000;stroke:#ff0000;" x="451.252489" xlink:href="#m872c17b531" y="514.631491"/>
     <use style="fill:#ff0000;stroke:#ff0000;" x="466.418371" xlink:href="#m872c17b531" y="512.477397"/>
     <use style="fill:#ff0000;stroke:#ff0000;" x="456.87177" xlink:href="#m872c17b531" y="525.127206"/>
     <use style="fill:#ff0000;stroke:#ff0000;" x="470.881845" xlink:href="#m872c17b531" y="537.706367"/>
     <use style="fill:#ff0000;stroke:#ff0000;" x="453.976525" xlink:href="#m872c17b531" y="561.298059"/>
     <use style="fill:#ff0000;stroke:#ff0000;" x="555.577665" xlink:href="#m872c17b531" y="476.879534"/>
     <use style="fill:#ff0000;stroke:#ff0000;" x="578.376794" xlink:href="#m872c17b531" y="489.858236"/>
     <use style="fill:#ff0000;stroke:#ff0000;" x="572.618826" xlink:href="#m872c17b531" y="622.87691"/>
     <use style="fill:#ff0000;stroke:#ff0000;" x="593.195208" xlink:href="#m872c17b531" y="637.306928"/>
     <use style="fill:#ff0000;stroke:#ff0000;" x="635.915766" xlink:href="#m872c17b531" y="626.246599"/>
     <use style="fill:#ff0000;stroke:#ff0000;" x="654.15719" xlink:href="#m872c17b531" y="615.384264"/>
     <use style="fill:#ff0000;stroke:#ff0000;" x="666.938785" xlink:href="#m872c17b531" y="596.268468"/>
     <use style="fill:#ff0000;stroke:#ff0000;" x="699.438587" xlink:href="#m872c17b531" y="598.288221"/>
     <use style="fill:#ff0000;stroke:#ff0000;" x="755.579033" xlink:href="#m872c17b531" y="592.452605"/>
     <use style="fill:#ff0000;stroke:#ff0000;" x="806.057783" xlink:href="#m872c17b531" y="583.17166"/>
     <use style="fill:#ff0000;stroke:#ff0000;" x="832.505104" xlink:href="#m872c17b531" y="588.287554"/>
     <use style="fill:#ff0000;stroke:#ff0000;" x="846.142427" xlink:href="#m872c17b531" y="571.235022"/>
     <use style="fill:#ff0000;stroke:#ff0000;" x="874.676871" xlink:href="#m872c17b531" y="573.803271"/>
     <use style="fill:#ff0000;stroke:#ff0000;" x="892.82298" xlink:href="#m872c17b531" y="557.486228"/>
     <use style="fill:#ff0000;stroke:#ff0000;" x="946.771809" xlink:href="#m872c17b531" y="552.389647"/>
     <use style="fill:#ff0000;stroke:#ff0000;" x="1054.642642" xlink:href="#m872c17b531" y="555.224186"/>
     <use style="fill:#ff0000;stroke:#ff0000;" x="1083.184917" xlink:href="#m872c17b531" y="514.057735"/>
     <use style="fill:#ff0000;stroke:#ff0000;" x="1126.543939" xlink:href="#m872c17b531" y="504.072007"/>
    </g>
   </g>
   <g id="line2d_37">
    <defs>
     <path d="M -0.5 0.5 
L 0.5 0.5 
L 0.5 -0.5 
L -0.5 -0.5 
z
" id="mc1cfe16b2a" style="stroke:#1f77b4;stroke-linejoin:miter;"/>
    </defs>
    <g clip-path="url(#p0a0635dbe1)">
     <use style="fill:#1f77b4;stroke:#1f77b4;stroke-linejoin:miter;" x="1409.155625" xlink:href="#mc1cfe16b2a" y="488.691491"/>
     <use style="fill:#1f77b4;stroke:#1f77b4;stroke-linejoin:miter;" x="1070.865614" xlink:href="#mc1cfe16b2a" y="436.710544"/>
     <use style="fill:#1f77b4;stroke:#1f77b4;stroke-linejoin:miter;" x="1388.515981" xlink:href="#mc1cfe16b2a" y="389.187721"/>
     <use style="fill:#1f77b4;stroke:#1f77b4;stroke-linejoin:miter;" x="1287.228811" xlink:href="#mc1cfe16b2a" y="351.754791"/>
     <use style="fill:#1f77b4;stroke:#1f77b4;stroke-linejoin:miter;" x="1262.661396" xlink:href="#mc1cfe16b2a" y="333.263327"/>
     <use style="fill:#1f77b4;stroke:#1f77b4;stroke-linejoin:miter;" x="1320.738819" xlink:href="#mc1cfe16b2a" y="277.04998"/>
     <use style="fill:#1f77b4;stroke:#1f77b4;stroke-linejoin:miter;" x="1359.435524" xlink:href="#mc1cfe16b2a" y="243.01307"/>
     <use style="fill:#1f77b4;stroke:#1f77b4;stroke-linejoin:miter;" x="1185.171466" xlink:href="#mc1cfe16b2a" y="150.559788"/>
     <use style="fill:#1f77b4;stroke:#1f77b4;stroke-linejoin:miter;" x="652.064198" xlink:href="#mc1cfe16b2a" y="398.714731"/>
     <use style="fill:#1f77b4;stroke:#1f77b4;stroke-linejoin:miter;" x="647.273215" xlink:href="#mc1cfe16b2a" y="398.598349"/>
     <use style="fill:#1f77b4;stroke:#1f77b4;stroke-linejoin:miter;" x="646.122411" xlink:href="#mc1cfe16b2a" y="396.266237"/>
     <use style="fill:#1f77b4;stroke:#1f77b4;stroke-linejoin:miter;" x="644.397319" xlink:href="#mc1cfe16b2a" y="393.965641"/>
     <use style="fill:#1f77b4;stroke:#1f77b4;stroke-linejoin:miter;" x="642.545342" xlink:href="#mc1cfe16b2a" y="392.085492"/>
     <use style="fill:#1f77b4;stroke:#1f77b4;stroke-linejoin:miter;" x="640.688592" xlink:href="#mc1cfe16b2a" y="389.941208"/>
     <use style="fill:#1f77b4;stroke:#1f77b4;stroke-linejoin:miter;" x="642.237001" xlink:href="#mc1cfe16b2a" y="384.651079"/>
     <use style="fill:#1f77b4;stroke:#1f77b4;stroke-linejoin:miter;" x="788.131862" xlink:href="#mc1cfe16b2a" y="192.909397"/>
     <use style="fill:#1f77b4;stroke:#1f77b4;stroke-linejoin:miter;" x="767.717095" xlink:href="#mc1cfe16b2a" y="196.720181"/>
     <use style="fill:#1f77b4;stroke:#1f77b4;stroke-linejoin:miter;" x="750.044937" xlink:href="#mc1cfe16b2a" y="197.720691"/>
     <use style="fill:#1f77b4;stroke:#1f77b4;stroke-linejoin:miter;" x="732.608748" xlink:href="#mc1cfe16b2a" y="199.874474"/>
     <use style="fill:#1f77b4;stroke:#1f77b4;stroke-linejoin:miter;" x="715.732252" xlink:href="#mc1cfe16b2a" y="202.784546"/>
     <use style="fill:#1f77b4;stroke:#1f77b4;stroke-linejoin:miter;" x="699.705644" xlink:href="#mc1cfe16b2a" y="205.310784"/>
     <use style="fill:#1f77b4;stroke:#1f77b4;stroke-linejoin:miter;" x="684.28162" xlink:href="#mc1cfe16b2a" y="208.612081"/>
     <use style="fill:#1f77b4;stroke:#1f77b4;stroke-linejoin:miter;" x="669.717849" xlink:href="#mc1cfe16b2a" y="211.076752"/>
     <use style="fill:#1f77b4;stroke:#1f77b4;stroke-linejoin:miter;" x="656.203191" xlink:href="#mc1cfe16b2a" y="212.544198"/>
     <use style="fill:#1f77b4;stroke:#1f77b4;stroke-linejoin:miter;" x="642.969568" xlink:href="#mc1cfe16b2a" y="214.513699"/>
     <use style="fill:#1f77b4;stroke:#1f77b4;stroke-linejoin:miter;" x="630.208976" xlink:href="#mc1cfe16b2a" y="216.105457"/>
     <use style="fill:#1f77b4;stroke:#1f77b4;stroke-linejoin:miter;" x="616.914913" xlink:href="#mc1cfe16b2a" y="218.691351"/>
     <use style="fill:#1f77b4;stroke:#1f77b4;stroke-linejoin:miter;" x="604.775703" xlink:href="#mc1cfe16b2a" y="219.474462"/>
     <use style="fill:#1f77b4;stroke:#1f77b4;stroke-linejoin:miter;" x="592.651246" xlink:href="#mc1cfe16b2a" y="224.206263"/>
     <use style="fill:#1f77b4;stroke:#1f77b4;stroke-linejoin:miter;" x="580.967084" xlink:href="#mc1cfe16b2a" y="225.12738"/>
     <use style="fill:#1f77b4;stroke:#1f77b4;stroke-linejoin:miter;" x="569.434263" xlink:href="#mc1cfe16b2a" y="226.08909"/>
     <use style="fill:#1f77b4;stroke:#1f77b4;stroke-linejoin:miter;" x="578.658895" xlink:href="#mc1cfe16b2a" y="391.892652"/>
     <use style="fill:#1f77b4;stroke:#1f77b4;stroke-linejoin:miter;" x="576.674298" xlink:href="#mc1cfe16b2a" y="393.769011"/>
     <use style="fill:#1f77b4;stroke:#1f77b4;stroke-linejoin:miter;" x="574.611851" xlink:href="#mc1cfe16b2a" y="395.291553"/>
     <use style="fill:#1f77b4;stroke:#1f77b4;stroke-linejoin:miter;" x="572.334376" xlink:href="#mc1cfe16b2a" y="396.013866"/>
     <use style="fill:#1f77b4;stroke:#1f77b4;stroke-linejoin:miter;" x="569.958131" xlink:href="#mc1cfe16b2a" y="395.915107"/>
     <use style="fill:#1f77b4;stroke:#1f77b4;stroke-linejoin:miter;" x="566.839542" xlink:href="#mc1cfe16b2a" y="394.739341"/>
     <use style="fill:#1f77b4;stroke:#1f77b4;stroke-linejoin:miter;" x="457.183795" xlink:href="#mc1cfe16b2a" y="248.390292"/>
     <use style="fill:#1f77b4;stroke:#1f77b4;stroke-linejoin:miter;" x="444.330099" xlink:href="#mc1cfe16b2a" y="249.210589"/>
     <use style="fill:#1f77b4;stroke:#1f77b4;stroke-linejoin:miter;" x="431.932795" xlink:href="#mc1cfe16b2a" y="251.411256"/>
     <use style="fill:#1f77b4;stroke:#1f77b4;stroke-linejoin:miter;" x="417.926153" xlink:href="#mc1cfe16b2a" y="252.132524"/>
     <use style="fill:#1f77b4;stroke:#1f77b4;stroke-linejoin:miter;" x="417.23898" xlink:href="#mc1cfe16b2a" y="266.729145"/>
     <use style="fill:#1f77b4;stroke:#1f77b4;stroke-linejoin:miter;" x="399.991675" xlink:href="#mc1cfe16b2a" y="264.962891"/>
     <use style="fill:#1f77b4;stroke:#1f77b4;stroke-linejoin:miter;" x="392.855103" xlink:href="#mc1cfe16b2a" y="272.655291"/>
     <use style="fill:#1f77b4;stroke:#1f77b4;stroke-linejoin:miter;" x="394.063652" xlink:href="#mc1cfe16b2a" y="286.627362"/>
     <use style="fill:#1f77b4;stroke:#1f77b4;stroke-linejoin:miter;" x="390.172974" xlink:href="#mc1cfe16b2a" y="295.811842"/>
     <use style="fill:#1f77b4;stroke:#1f77b4;stroke-linejoin:miter;" x="404.116366" xlink:href="#mc1cfe16b2a" y="316.316165"/>
     <use style="fill:#1f77b4;stroke:#1f77b4;stroke-linejoin:miter;" x="432.606156" xlink:href="#mc1cfe16b2a" y="343.41778"/>
     <use style="fill:#1f77b4;stroke:#1f77b4;stroke-linejoin:miter;" x="419.13827" xlink:href="#mc1cfe16b2a" y="343.547194"/>
     <use style="fill:#1f77b4;stroke:#1f77b4;stroke-linejoin:miter;" x="421.404747" xlink:href="#mc1cfe16b2a" y="352.623454"/>
     <use style="fill:#1f77b4;stroke:#1f77b4;stroke-linejoin:miter;" x="415.17459" xlink:href="#mc1cfe16b2a" y="356.941224"/>
     <use style="fill:#1f77b4;stroke:#1f77b4;stroke-linejoin:miter;" x="409.182689" xlink:href="#mc1cfe16b2a" y="361.612609"/>
     <use style="fill:#1f77b4;stroke:#1f77b4;stroke-linejoin:miter;" x="400.296268" xlink:href="#mc1cfe16b2a" y="365.30566"/>
     <use style="fill:#1f77b4;stroke:#1f77b4;stroke-linejoin:miter;" x="454.638257" xlink:href="#mc1cfe16b2a" y="391.509913"/>
     <use style="fill:#1f77b4;stroke:#1f77b4;stroke-linejoin:miter;" x="455.037064" xlink:href="#mc1cfe16b2a" y="396.619117"/>
     <use style="fill:#1f77b4;stroke:#1f77b4;stroke-linejoin:miter;" x="456.598396" xlink:href="#mc1cfe16b2a" y="401.867536"/>
     <use style="fill:#1f77b4;stroke:#1f77b4;stroke-linejoin:miter;" x="458.223306" xlink:href="#mc1cfe16b2a" y="406.852655"/>
     <use style="fill:#1f77b4;stroke:#1f77b4;stroke-linejoin:miter;" x="457.825093" xlink:href="#mc1cfe16b2a" y="411.11587"/>
     <use style="fill:#1f77b4;stroke:#1f77b4;stroke-linejoin:miter;" x="446.649123" xlink:href="#mc1cfe16b2a" y="413.398751"/>
     <use style="fill:#1f77b4;stroke:#1f77b4;stroke-linejoin:miter;" x="429.332891" xlink:href="#mc1cfe16b2a" y="415.5281"/>
     <use style="fill:#1f77b4;stroke:#1f77b4;stroke-linejoin:miter;" x="425.637422" xlink:href="#mc1cfe16b2a" y="420.224524"/>
     <use style="fill:#1f77b4;stroke:#1f77b4;stroke-linejoin:miter;" x="417.203022" xlink:href="#mc1cfe16b2a" y="424.674006"/>
     <use style="fill:#1f77b4;stroke:#1f77b4;stroke-linejoin:miter;" x="419.235543" xlink:href="#mc1cfe16b2a" y="430.193568"/>
     <use style="fill:#1f77b4;stroke:#1f77b4;stroke-linejoin:miter;" x="420.412607" xlink:href="#mc1cfe16b2a" y="435.145493"/>
     <use style="fill:#1f77b4;stroke:#1f77b4;stroke-linejoin:miter;" x="415.936127" xlink:href="#mc1cfe16b2a" y="440.221002"/>
     <use style="fill:#1f77b4;stroke:#1f77b4;stroke-linejoin:miter;" x="394.538515" xlink:href="#mc1cfe16b2a" y="446.445717"/>
     <use style="fill:#1f77b4;stroke:#1f77b4;stroke-linejoin:miter;" x="396.024455" xlink:href="#mc1cfe16b2a" y="452.462554"/>
     <use style="fill:#1f77b4;stroke:#1f77b4;stroke-linejoin:miter;" x="399.026801" xlink:href="#mc1cfe16b2a" y="457.990248"/>
     <use style="fill:#1f77b4;stroke:#1f77b4;stroke-linejoin:miter;" x="399.786701" xlink:href="#mc1cfe16b2a" y="464.049937"/>
     <use style="fill:#1f77b4;stroke:#1f77b4;stroke-linejoin:miter;" x="404.118784" xlink:href="#mc1cfe16b2a" y="469.245123"/>
     <use style="fill:#1f77b4;stroke:#1f77b4;stroke-linejoin:miter;" x="403.438516" xlink:href="#mc1cfe16b2a" y="475.570294"/>
     <use style="fill:#1f77b4;stroke:#1f77b4;stroke-linejoin:miter;" x="404.124496" xlink:href="#mc1cfe16b2a" y="481.546156"/>
     <use style="fill:#1f77b4;stroke:#1f77b4;stroke-linejoin:miter;" x="406.187014" xlink:href="#mc1cfe16b2a" y="487.34409"/>
     <use style="fill:#1f77b4;stroke:#1f77b4;stroke-linejoin:miter;" x="407.341963" xlink:href="#mc1cfe16b2a" y="493.695565"/>
     <use style="fill:#1f77b4;stroke:#1f77b4;stroke-linejoin:miter;" x="408.678099" xlink:href="#mc1cfe16b2a" y="499.823739"/>
     <use style="fill:#1f77b4;stroke:#1f77b4;stroke-linejoin:miter;" x="411.79781" xlink:href="#mc1cfe16b2a" y="505.69322"/>
     <use style="fill:#1f77b4;stroke:#1f77b4;stroke-linejoin:miter;" x="467.392988" xlink:href="#mc1cfe16b2a" y="489.741077"/>
     <use style="fill:#1f77b4;stroke:#1f77b4;stroke-linejoin:miter;" x="432.386114" xlink:href="#mc1cfe16b2a" y="510.701904"/>
     <use style="fill:#1f77b4;stroke:#1f77b4;stroke-linejoin:miter;" x="433.737137" xlink:href="#mc1cfe16b2a" y="516.975136"/>
     <use style="fill:#1f77b4;stroke:#1f77b4;stroke-linejoin:miter;" x="451.252489" xlink:href="#mc1cfe16b2a" y="514.631491"/>
     <use style="fill:#1f77b4;stroke:#1f77b4;stroke-linejoin:miter;" x="466.418371" xlink:href="#mc1cfe16b2a" y="512.477397"/>
     <use style="fill:#1f77b4;stroke:#1f77b4;stroke-linejoin:miter;" x="456.87177" xlink:href="#mc1cfe16b2a" y="525.127206"/>
     <use style="fill:#1f77b4;stroke:#1f77b4;stroke-linejoin:miter;" x="457.208195" xlink:href="#mc1cfe16b2a" y="532.268678"/>
     <use style="fill:#1f77b4;stroke:#1f77b4;stroke-linejoin:miter;" x="458.661036" xlink:href="#mc1cfe16b2a" y="539.14667"/>
     <use style="fill:#1f77b4;stroke:#1f77b4;stroke-linejoin:miter;" x="470.881845" xlink:href="#mc1cfe16b2a" y="537.706367"/>
     <use style="fill:#1f77b4;stroke:#1f77b4;stroke-linejoin:miter;" x="453.976525" xlink:href="#mc1cfe16b2a" y="561.298059"/>
     <use style="fill:#1f77b4;stroke:#1f77b4;stroke-linejoin:miter;" x="555.577665" xlink:href="#mc1cfe16b2a" y="476.879534"/>
     <use style="fill:#1f77b4;stroke:#1f77b4;stroke-linejoin:miter;" x="556.227861" xlink:href="#mc1cfe16b2a" y="479.495013"/>
     <use style="fill:#1f77b4;stroke:#1f77b4;stroke-linejoin:miter;" x="564.02316" xlink:href="#mc1cfe16b2a" y="477.412147"/>
     <use style="fill:#1f77b4;stroke:#1f77b4;stroke-linejoin:miter;" x="567.085786" xlink:href="#mc1cfe16b2a" y="476.939528"/>
     <use style="fill:#1f77b4;stroke:#1f77b4;stroke-linejoin:miter;" x="569.129097" xlink:href="#mc1cfe16b2a" y="478.225"/>
     <use style="fill:#1f77b4;stroke:#1f77b4;stroke-linejoin:miter;" x="570.714751" xlink:href="#mc1cfe16b2a" y="480.080746"/>
     <use style="fill:#1f77b4;stroke:#1f77b4;stroke-linejoin:miter;" x="572.868941" xlink:href="#mc1cfe16b2a" y="481.690873"/>
     <use style="fill:#1f77b4;stroke:#1f77b4;stroke-linejoin:miter;" x="574.583716" xlink:href="#mc1cfe16b2a" y="483.755084"/>
     <use style="fill:#1f77b4;stroke:#1f77b4;stroke-linejoin:miter;" x="576.403694" xlink:href="#mc1cfe16b2a" y="486.32497"/>
     <use style="fill:#1f77b4;stroke:#1f77b4;stroke-linejoin:miter;" x="578.376794" xlink:href="#mc1cfe16b2a" y="489.858236"/>
     <use style="fill:#1f77b4;stroke:#1f77b4;stroke-linejoin:miter;" x="572.618826" xlink:href="#mc1cfe16b2a" y="622.87691"/>
     <use style="fill:#1f77b4;stroke:#1f77b4;stroke-linejoin:miter;" x="582.891264" xlink:href="#mc1cfe16b2a" y="622.784741"/>
     <use style="fill:#1f77b4;stroke:#1f77b4;stroke-linejoin:miter;" x="593.195208" xlink:href="#mc1cfe16b2a" y="637.306928"/>
     <use style="fill:#1f77b4;stroke:#1f77b4;stroke-linejoin:miter;" x="604.142774" xlink:href="#mc1cfe16b2a" y="634.829223"/>
     <use style="fill:#1f77b4;stroke:#1f77b4;stroke-linejoin:miter;" x="616.182198" xlink:href="#mc1cfe16b2a" y="640.511541"/>
     <use style="fill:#1f77b4;stroke:#1f77b4;stroke-linejoin:miter;" x="627.561273" xlink:href="#mc1cfe16b2a" y="640.206769"/>
     <use style="fill:#1f77b4;stroke:#1f77b4;stroke-linejoin:miter;" x="635.915766" xlink:href="#mc1cfe16b2a" y="626.246599"/>
     <use style="fill:#1f77b4;stroke:#1f77b4;stroke-linejoin:miter;" x="643.762819" xlink:href="#mc1cfe16b2a" y="615.452197"/>
     <use style="fill:#1f77b4;stroke:#1f77b4;stroke-linejoin:miter;" x="654.15719" xlink:href="#mc1cfe16b2a" y="615.384264"/>
     <use style="fill:#1f77b4;stroke:#1f77b4;stroke-linejoin:miter;" x="666.938785" xlink:href="#mc1cfe16b2a" y="596.268468"/>
     <use style="fill:#1f77b4;stroke:#1f77b4;stroke-linejoin:miter;" x="677.962846" xlink:href="#mc1cfe16b2a" y="598.196734"/>
     <use style="fill:#1f77b4;stroke:#1f77b4;stroke-linejoin:miter;" x="688.981733" xlink:href="#mc1cfe16b2a" y="598.801592"/>
     <use style="fill:#1f77b4;stroke:#1f77b4;stroke-linejoin:miter;" x="699.438587" xlink:href="#mc1cfe16b2a" y="598.288221"/>
     <use style="fill:#1f77b4;stroke:#1f77b4;stroke-linejoin:miter;" x="755.579033" xlink:href="#mc1cfe16b2a" y="592.452605"/>
     <use style="fill:#1f77b4;stroke:#1f77b4;stroke-linejoin:miter;" x="762.502667" xlink:href="#mc1cfe16b2a" y="585.978165"/>
     <use style="fill:#1f77b4;stroke:#1f77b4;stroke-linejoin:miter;" x="777.435152" xlink:href="#mc1cfe16b2a" y="586.186656"/>
     <use style="fill:#1f77b4;stroke:#1f77b4;stroke-linejoin:miter;" x="789.829641" xlink:href="#mc1cfe16b2a" y="583.636032"/>
     <use style="fill:#1f77b4;stroke:#1f77b4;stroke-linejoin:miter;" x="806.057783" xlink:href="#mc1cfe16b2a" y="583.17166"/>
     <use style="fill:#1f77b4;stroke:#1f77b4;stroke-linejoin:miter;" x="832.505104" xlink:href="#mc1cfe16b2a" y="588.287554"/>
     <use style="fill:#1f77b4;stroke:#1f77b4;stroke-linejoin:miter;" x="833.231938" xlink:href="#mc1cfe16b2a" y="576.504601"/>
     <use style="fill:#1f77b4;stroke:#1f77b4;stroke-linejoin:miter;" x="846.142427" xlink:href="#mc1cfe16b2a" y="571.235022"/>
     <use style="fill:#1f77b4;stroke:#1f77b4;stroke-linejoin:miter;" x="874.676871" xlink:href="#mc1cfe16b2a" y="573.803271"/>
     <use style="fill:#1f77b4;stroke:#1f77b4;stroke-linejoin:miter;" x="892.82298" xlink:href="#mc1cfe16b2a" y="557.486228"/>
     <use style="fill:#1f77b4;stroke:#1f77b4;stroke-linejoin:miter;" x="946.771809" xlink:href="#mc1cfe16b2a" y="552.389647"/>
     <use style="fill:#1f77b4;stroke:#1f77b4;stroke-linejoin:miter;" x="1054.642642" xlink:href="#mc1cfe16b2a" y="555.224186"/>
     <use style="fill:#1f77b4;stroke:#1f77b4;stroke-linejoin:miter;" x="1058.331639" xlink:href="#mc1cfe16b2a" y="540.329504"/>
     <use style="fill:#1f77b4;stroke:#1f77b4;stroke-linejoin:miter;" x="1076.958472" xlink:href="#mc1cfe16b2a" y="528.399663"/>
     <use style="fill:#1f77b4;stroke:#1f77b4;stroke-linejoin:miter;" x="1083.184917" xlink:href="#mc1cfe16b2a" y="514.057735"/>
     <use style="fill:#1f77b4;stroke:#1f77b4;stroke-linejoin:miter;" x="1126.543939" xlink:href="#mc1cfe16b2a" y="504.072007"/>
    </g>
   </g>
   <g id="patch_3">
    <path d="M 144 768.96 
L 144 103.68 
" style="fill:none;stroke:#000000;stroke-linecap:square;stroke-linejoin:miter;stroke-width:0.8;"/>
   </g>
   <g id="patch_4">
    <path d="M 1036.8 768.96 
L 1036.8 103.68 
" style="fill:none;stroke:#000000;stroke-linecap:square;stroke-linejoin:miter;stroke-width:0.8;"/>
   </g>
   <g id="patch_5">
    <path d="M 144 768.96 
L 1036.8 768.96 
" style="fill:none;stroke:#000000;stroke-linecap:square;stroke-linejoin:miter;stroke-width:0.8;"/>
   </g>
   <g id="patch_6">
    <path d="M 144 103.68 
L 1036.8 103.68 
" style="fill:none;stroke:#000000;stroke-linecap:square;stroke-linejoin:miter;stroke-width:0.8;"/>
   </g>
  </g>
 </g>
 <defs>
  <clipPath id="p0a0635dbe1">
   <rect height="665.28" width="892.8" x="144" y="103.68"/>
  </clipPath>
 </defs>
</svg>
