<?xml version="1.0" encoding="utf-8" standalone="no"?>
<!DOCTYPE svg PUBLIC "-//W3C//DTD SVG 1.1//EN"
  "http://www.w3.org/Graphics/SVG/1.1/DTD/svg11.dtd">
<!-- Created with matplotlib (http://matplotlib.org/) -->
<svg height="864pt" version="1.1" viewBox="0 0 1152 864" width="1152pt" xmlns="http://www.w3.org/2000/svg" xmlns:xlink="http://www.w3.org/1999/xlink">
 <defs>
  <style type="text/css">
*{stroke-linecap:butt;stroke-linejoin:round;}
  </style>
 </defs>
 <g id="figure_1">
  <g id="patch_1">
   <path d="M 0 864 
L 1152 864 
L 1152 0 
L 0 0 
z
" style="fill:#ffffff;"/>
  </g>
  <g id="axes_1">
   <g id="patch_2">
    <path d="M 144 768.96 
L 1036.8 768.96 
L 1036.8 103.68 
L 144 103.68 
z
" style="fill:#ffffff;"/>
   </g>
   <g id="matplotlib.axis_1">
    <g id="xtick_1">
     <g id="line2d_1">
      <defs>
       <path d="M 0 0 
L 0 3.5 
" id="m9fafca02b6" style="stroke:#000000;stroke-width:0.8;"/>
      </defs>
      <g>
       <use style="stroke:#000000;stroke-width:0.8;" x="144" xlink:href="#m9fafca02b6" y="768.96"/>
      </g>
     </g>
     <g id="text_1">
      <!-- −4000 -->
      <defs>
       <path d="M 10.59375 35.5 
L 73.1875 35.5 
L 73.1875 27.203125 
L 10.59375 27.203125 
z
" id="DejaVuSans-2212"/>
       <path d="M 37.796875 64.3125 
L 12.890625 25.390625 
L 37.796875 25.390625 
z
M 35.203125 72.90625 
L 47.609375 72.90625 
L 47.609375 25.390625 
L 58.015625 25.390625 
L 58.015625 17.1875 
L 47.609375 17.1875 
L 47.609375 0 
L 37.796875 0 
L 37.796875 17.1875 
L 4.890625 17.1875 
L 4.890625 26.703125 
z
" id="DejaVuSans-34"/>
       <path d="M 31.78125 66.40625 
Q 24.171875 66.40625 20.328125 58.90625 
Q 16.5 51.421875 16.5 36.375 
Q 16.5 21.390625 20.328125 13.890625 
Q 24.171875 6.390625 31.78125 6.390625 
Q 39.453125 6.390625 43.28125 13.890625 
Q 47.125 21.390625 47.125 36.375 
Q 47.125 51.421875 43.28125 58.90625 
Q 39.453125 66.40625 31.78125 66.40625 
z
M 31.78125 74.21875 
Q 44.046875 74.21875 50.515625 64.515625 
Q 56.984375 54.828125 56.984375 36.375 
Q 56.984375 17.96875 50.515625 8.265625 
Q 44.046875 -1.421875 31.78125 -1.421875 
Q 19.53125 -1.421875 13.0625 8.265625 
Q 6.59375 17.96875 6.59375 36.375 
Q 6.59375 54.828125 13.0625 64.515625 
Q 19.53125 74.21875 31.78125 74.21875 
z
" id="DejaVuSans-30"/>
      </defs>
      <g transform="translate(127.085156 783.558437)scale(0.1 -0.1)">
       <use xlink:href="#DejaVuSans-2212"/>
       <use x="83.789062" xlink:href="#DejaVuSans-34"/>
       <use x="147.412109" xlink:href="#DejaVuSans-30"/>
       <use x="211.035156" xlink:href="#DejaVuSans-30"/>
       <use x="274.658203" xlink:href="#DejaVuSans-30"/>
      </g>
     </g>
    </g>
    <g id="xtick_2">
     <g id="line2d_2">
      <g>
       <use style="stroke:#000000;stroke-width:0.8;" x="255.6" xlink:href="#m9fafca02b6" y="768.96"/>
      </g>
     </g>
     <g id="text_2">
      <!-- −3000 -->
      <defs>
       <path d="M 40.578125 39.3125 
Q 47.65625 37.796875 51.625 33 
Q 55.609375 28.21875 55.609375 21.1875 
Q 55.609375 10.40625 48.1875 4.484375 
Q 40.765625 -1.421875 27.09375 -1.421875 
Q 22.515625 -1.421875 17.65625 -0.515625 
Q 12.796875 0.390625 7.625 2.203125 
L 7.625 11.71875 
Q 11.71875 9.328125 16.59375 8.109375 
Q 21.484375 6.890625 26.8125 6.890625 
Q 36.078125 6.890625 40.9375 10.546875 
Q 45.796875 14.203125 45.796875 21.1875 
Q 45.796875 27.640625 41.28125 31.265625 
Q 36.765625 34.90625 28.71875 34.90625 
L 20.21875 34.90625 
L 20.21875 43.015625 
L 29.109375 43.015625 
Q 36.375 43.015625 40.234375 45.921875 
Q 44.09375 48.828125 44.09375 54.296875 
Q 44.09375 59.90625 40.109375 62.90625 
Q 36.140625 65.921875 28.71875 65.921875 
Q 24.65625 65.921875 20.015625 65.03125 
Q 15.375 64.15625 9.8125 62.3125 
L 9.8125 71.09375 
Q 15.4375 72.65625 20.34375 73.4375 
Q 25.25 74.21875 29.59375 74.21875 
Q 40.828125 74.21875 47.359375 69.109375 
Q 53.90625 64.015625 53.90625 55.328125 
Q 53.90625 49.265625 50.4375 45.09375 
Q 46.96875 40.921875 40.578125 39.3125 
z
" id="DejaVuSans-33"/>
      </defs>
      <g transform="translate(238.685156 783.558437)scale(0.1 -0.1)">
       <use xlink:href="#DejaVuSans-2212"/>
       <use x="83.789062" xlink:href="#DejaVuSans-33"/>
       <use x="147.412109" xlink:href="#DejaVuSans-30"/>
       <use x="211.035156" xlink:href="#DejaVuSans-30"/>
       <use x="274.658203" xlink:href="#DejaVuSans-30"/>
      </g>
     </g>
    </g>
    <g id="xtick_3">
     <g id="line2d_3">
      <g>
       <use style="stroke:#000000;stroke-width:0.8;" x="367.2" xlink:href="#m9fafca02b6" y="768.96"/>
      </g>
     </g>
     <g id="text_3">
      <!-- −2000 -->
      <defs>
       <path d="M 19.1875 8.296875 
L 53.609375 8.296875 
L 53.609375 0 
L 7.328125 0 
L 7.328125 8.296875 
Q 12.9375 14.109375 22.625 23.890625 
Q 32.328125 33.6875 34.8125 36.53125 
Q 39.546875 41.84375 41.421875 45.53125 
Q 43.3125 49.21875 43.3125 52.78125 
Q 43.3125 58.59375 39.234375 62.25 
Q 35.15625 65.921875 28.609375 65.921875 
Q 23.96875 65.921875 18.8125 64.3125 
Q 13.671875 62.703125 7.8125 59.421875 
L 7.8125 69.390625 
Q 13.765625 71.78125 18.9375 73 
Q 24.125 74.21875 28.421875 74.21875 
Q 39.75 74.21875 46.484375 68.546875 
Q 53.21875 62.890625 53.21875 53.421875 
Q 53.21875 48.921875 51.53125 44.890625 
Q 49.859375 40.875 45.40625 35.40625 
Q 44.1875 33.984375 37.640625 27.21875 
Q 31.109375 20.453125 19.1875 8.296875 
z
" id="DejaVuSans-32"/>
      </defs>
      <g transform="translate(350.285156 783.558437)scale(0.1 -0.1)">
       <use xlink:href="#DejaVuSans-2212"/>
       <use x="83.789062" xlink:href="#DejaVuSans-32"/>
       <use x="147.412109" xlink:href="#DejaVuSans-30"/>
       <use x="211.035156" xlink:href="#DejaVuSans-30"/>
       <use x="274.658203" xlink:href="#DejaVuSans-30"/>
      </g>
     </g>
    </g>
    <g id="xtick_4">
     <g id="line2d_4">
      <g>
       <use style="stroke:#000000;stroke-width:0.8;" x="478.8" xlink:href="#m9fafca02b6" y="768.96"/>
      </g>
     </g>
     <g id="text_4">
      <!-- −1000 -->
      <defs>
       <path d="M 12.40625 8.296875 
L 28.515625 8.296875 
L 28.515625 63.921875 
L 10.984375 60.40625 
L 10.984375 69.390625 
L 28.421875 72.90625 
L 38.28125 72.90625 
L 38.28125 8.296875 
L 54.390625 8.296875 
L 54.390625 0 
L 12.40625 0 
z
" id="DejaVuSans-31"/>
      </defs>
      <g transform="translate(461.885156 783.558437)scale(0.1 -0.1)">
       <use xlink:href="#DejaVuSans-2212"/>
       <use x="83.789062" xlink:href="#DejaVuSans-31"/>
       <use x="147.412109" xlink:href="#DejaVuSans-30"/>
       <use x="211.035156" xlink:href="#DejaVuSans-30"/>
       <use x="274.658203" xlink:href="#DejaVuSans-30"/>
      </g>
     </g>
    </g>
    <g id="xtick_5">
     <g id="line2d_5">
      <g>
       <use style="stroke:#000000;stroke-width:0.8;" x="590.4" xlink:href="#m9fafca02b6" y="768.96"/>
      </g>
     </g>
     <g id="text_5">
      <!-- 0 -->
      <g transform="translate(587.21875 783.558437)scale(0.1 -0.1)">
       <use xlink:href="#DejaVuSans-30"/>
      </g>
     </g>
    </g>
    <g id="xtick_6">
     <g id="line2d_6">
      <g>
       <use style="stroke:#000000;stroke-width:0.8;" x="702" xlink:href="#m9fafca02b6" y="768.96"/>
      </g>
     </g>
     <g id="text_6">
      <!-- 1000 -->
      <g transform="translate(689.275 783.558437)scale(0.1 -0.1)">
       <use xlink:href="#DejaVuSans-31"/>
       <use x="63.623047" xlink:href="#DejaVuSans-30"/>
       <use x="127.246094" xlink:href="#DejaVuSans-30"/>
       <use x="190.869141" xlink:href="#DejaVuSans-30"/>
      </g>
     </g>
    </g>
    <g id="xtick_7">
     <g id="line2d_7">
      <g>
       <use style="stroke:#000000;stroke-width:0.8;" x="813.6" xlink:href="#m9fafca02b6" y="768.96"/>
      </g>
     </g>
     <g id="text_7">
      <!-- 2000 -->
      <g transform="translate(800.875 783.558437)scale(0.1 -0.1)">
       <use xlink:href="#DejaVuSans-32"/>
       <use x="63.623047" xlink:href="#DejaVuSans-30"/>
       <use x="127.246094" xlink:href="#DejaVuSans-30"/>
       <use x="190.869141" xlink:href="#DejaVuSans-30"/>
      </g>
     </g>
    </g>
    <g id="xtick_8">
     <g id="line2d_8">
      <g>
       <use style="stroke:#000000;stroke-width:0.8;" x="925.2" xlink:href="#m9fafca02b6" y="768.96"/>
      </g>
     </g>
     <g id="text_8">
      <!-- 3000 -->
      <g transform="translate(912.475 783.558437)scale(0.1 -0.1)">
       <use xlink:href="#DejaVuSans-33"/>
       <use x="63.623047" xlink:href="#DejaVuSans-30"/>
       <use x="127.246094" xlink:href="#DejaVuSans-30"/>
       <use x="190.869141" xlink:href="#DejaVuSans-30"/>
      </g>
     </g>
    </g>
    <g id="xtick_9">
     <g id="line2d_9">
      <g>
       <use style="stroke:#000000;stroke-width:0.8;" x="1036.8" xlink:href="#m9fafca02b6" y="768.96"/>
      </g>
     </g>
     <g id="text_9">
      <!-- 4000 -->
      <g transform="translate(1024.075 783.558437)scale(0.1 -0.1)">
       <use xlink:href="#DejaVuSans-34"/>
       <use x="63.623047" xlink:href="#DejaVuSans-30"/>
       <use x="127.246094" xlink:href="#DejaVuSans-30"/>
       <use x="190.869141" xlink:href="#DejaVuSans-30"/>
      </g>
     </g>
    </g>
   </g>
   <g id="matplotlib.axis_2">
    <g id="ytick_1">
     <g id="line2d_10">
      <defs>
       <path d="M 0 0 
L -3.5 0 
" id="mfb58554716" style="stroke:#000000;stroke-width:0.8;"/>
      </defs>
      <g>
       <use style="stroke:#000000;stroke-width:0.8;" x="144" xlink:href="#mfb58554716" y="768.96"/>
      </g>
     </g>
     <g id="text_10">
      <!-- −4000 -->
      <g transform="translate(103.170312 772.759219)scale(0.1 -0.1)">
       <use xlink:href="#DejaVuSans-2212"/>
       <use x="83.789062" xlink:href="#DejaVuSans-34"/>
       <use x="147.412109" xlink:href="#DejaVuSans-30"/>
       <use x="211.035156" xlink:href="#DejaVuSans-30"/>
       <use x="274.658203" xlink:href="#DejaVuSans-30"/>
      </g>
     </g>
    </g>
    <g id="ytick_2">
     <g id="line2d_11">
      <g>
       <use style="stroke:#000000;stroke-width:0.8;" x="144" xlink:href="#mfb58554716" y="685.8"/>
      </g>
     </g>
     <g id="text_11">
      <!-- −3000 -->
      <g transform="translate(103.170312 689.599219)scale(0.1 -0.1)">
       <use xlink:href="#DejaVuSans-2212"/>
       <use x="83.789062" xlink:href="#DejaVuSans-33"/>
       <use x="147.412109" xlink:href="#DejaVuSans-30"/>
       <use x="211.035156" xlink:href="#DejaVuSans-30"/>
       <use x="274.658203" xlink:href="#DejaVuSans-30"/>
      </g>
     </g>
    </g>
    <g id="ytick_3">
     <g id="line2d_12">
      <g>
       <use style="stroke:#000000;stroke-width:0.8;" x="144" xlink:href="#mfb58554716" y="602.64"/>
      </g>
     </g>
     <g id="text_12">
      <!-- −2000 -->
      <g transform="translate(103.170312 606.439219)scale(0.1 -0.1)">
       <use xlink:href="#DejaVuSans-2212"/>
       <use x="83.789062" xlink:href="#DejaVuSans-32"/>
       <use x="147.412109" xlink:href="#DejaVuSans-30"/>
       <use x="211.035156" xlink:href="#DejaVuSans-30"/>
       <use x="274.658203" xlink:href="#DejaVuSans-30"/>
      </g>
     </g>
    </g>
    <g id="ytick_4">
     <g id="line2d_13">
      <g>
       <use style="stroke:#000000;stroke-width:0.8;" x="144" xlink:href="#mfb58554716" y="519.48"/>
      </g>
     </g>
     <g id="text_13">
      <!-- −1000 -->
      <g transform="translate(103.170312 523.279219)scale(0.1 -0.1)">
       <use xlink:href="#DejaVuSans-2212"/>
       <use x="83.789062" xlink:href="#DejaVuSans-31"/>
       <use x="147.412109" xlink:href="#DejaVuSans-30"/>
       <use x="211.035156" xlink:href="#DejaVuSans-30"/>
       <use x="274.658203" xlink:href="#DejaVuSans-30"/>
      </g>
     </g>
    </g>
    <g id="ytick_5">
     <g id="line2d_14">
      <g>
       <use style="stroke:#000000;stroke-width:0.8;" x="144" xlink:href="#mfb58554716" y="436.32"/>
      </g>
     </g>
     <g id="text_14">
      <!-- 0 -->
      <g transform="translate(130.6375 440.119219)scale(0.1 -0.1)">
       <use xlink:href="#DejaVuSans-30"/>
      </g>
     </g>
    </g>
    <g id="ytick_6">
     <g id="line2d_15">
      <g>
       <use style="stroke:#000000;stroke-width:0.8;" x="144" xlink:href="#mfb58554716" y="353.16"/>
      </g>
     </g>
     <g id="text_15">
      <!-- 1000 -->
      <g transform="translate(111.55 356.959219)scale(0.1 -0.1)">
       <use xlink:href="#DejaVuSans-31"/>
       <use x="63.623047" xlink:href="#DejaVuSans-30"/>
       <use x="127.246094" xlink:href="#DejaVuSans-30"/>
       <use x="190.869141" xlink:href="#DejaVuSans-30"/>
      </g>
     </g>
    </g>
    <g id="ytick_7">
     <g id="line2d_16">
      <g>
       <use style="stroke:#000000;stroke-width:0.8;" x="144" xlink:href="#mfb58554716" y="270"/>
      </g>
     </g>
     <g id="text_16">
      <!-- 2000 -->
      <g transform="translate(111.55 273.799219)scale(0.1 -0.1)">
       <use xlink:href="#DejaVuSans-32"/>
       <use x="63.623047" xlink:href="#DejaVuSans-30"/>
       <use x="127.246094" xlink:href="#DejaVuSans-30"/>
       <use x="190.869141" xlink:href="#DejaVuSans-30"/>
      </g>
     </g>
    </g>
    <g id="ytick_8">
     <g id="line2d_17">
      <g>
       <use style="stroke:#000000;stroke-width:0.8;" x="144" xlink:href="#mfb58554716" y="186.84"/>
      </g>
     </g>
     <g id="text_17">
      <!-- 3000 -->
      <g transform="translate(111.55 190.639219)scale(0.1 -0.1)">
       <use xlink:href="#DejaVuSans-33"/>
       <use x="63.623047" xlink:href="#DejaVuSans-30"/>
       <use x="127.246094" xlink:href="#DejaVuSans-30"/>
       <use x="190.869141" xlink:href="#DejaVuSans-30"/>
      </g>
     </g>
    </g>
    <g id="ytick_9">
     <g id="line2d_18">
      <g>
       <use style="stroke:#000000;stroke-width:0.8;" x="144" xlink:href="#mfb58554716" y="103.68"/>
      </g>
     </g>
     <g id="text_18">
      <!-- 4000 -->
      <g transform="translate(111.55 107.479219)scale(0.1 -0.1)">
       <use xlink:href="#DejaVuSans-34"/>
       <use x="63.623047" xlink:href="#DejaVuSans-30"/>
       <use x="127.246094" xlink:href="#DejaVuSans-30"/>
       <use x="190.869141" xlink:href="#DejaVuSans-30"/>
      </g>
     </g>
    </g>
   </g>
   <g id="line2d_19">
    <path clip-path="url(#pe6eeff9629)" d="M 590.4 768.96 
L 590.4 103.68 
" style="fill:none;stroke:#1f77b4;stroke-linecap:square;stroke-width:1.5;"/>
   </g>
   <g id="line2d_20">
    <path clip-path="url(#pe6eeff9629)" d="M 144 436.32 
L 1036.8 436.32 
" style="fill:none;stroke:#1f77b4;stroke-linecap:square;stroke-width:1.5;"/>
   </g>
   <g id="line2d_21">
    <defs>
     <path d="M 0 3 
C 0.795609 3 1.55874 2.683901 2.12132 2.12132 
C 2.683901 1.55874 3 0.795609 3 0 
C 3 -0.795609 2.683901 -1.55874 2.12132 -2.12132 
C 1.55874 -2.683901 0.795609 -3 0 -3 
C -0.795609 -3 -1.55874 -2.683901 -2.12132 -2.12132 
C -2.683901 -1.55874 -3 -0.795609 -3 0 
C -3 0.795609 -2.683901 1.55874 -2.12132 2.12132 
C -1.55874 2.683901 -0.795609 3 0 3 
z
" id="mf4a7b4bf02" style="stroke:#008000;"/>
    </defs>
    <g clip-path="url(#pe6eeff9629)">
     <use style="fill:#008000;stroke:#008000;" x="1365.486048" xlink:href="#mf4a7b4bf02" y="501.646511"/>
    </g>
   </g>
   <g id="line2d_22">
    <g clip-path="url(#pe6eeff9629)">
     <use style="fill:#008000;stroke:#008000;" x="1363.816691" xlink:href="#mf4a7b4bf02" y="347.133109"/>
    </g>
   </g>
   <g id="line2d_23">
    <g clip-path="url(#pe6eeff9629)">
     <use style="fill:#008000;stroke:#008000;" x="1263.912699" xlink:href="#mf4a7b4bf02" y="330.501046"/>
    </g>
   </g>
   <g id="line2d_24">
    <g clip-path="url(#pe6eeff9629)">
     <use style="fill:#008000;stroke:#008000;" x="647.106537" xlink:href="#mf4a7b4bf02" y="395.066568"/>
    </g>
   </g>
   <g id="line2d_25">
    <g clip-path="url(#pe6eeff9629)">
     <use style="fill:#008000;stroke:#008000;" x="647.106537" xlink:href="#mf4a7b4bf02" y="395.066568"/>
    </g>
   </g>
   <g id="line2d_26">
    <g clip-path="url(#pe6eeff9629)">
     <use style="fill:#008000;stroke:#008000;" x="713.284089" xlink:href="#mf4a7b4bf02" y="202.833515"/>
    </g>
   </g>
   <g id="line2d_27">
    <g clip-path="url(#pe6eeff9629)">
     <use style="fill:#008000;stroke:#008000;" x="537.941765" xlink:href="#mf4a7b4bf02" y="232.551315"/>
    </g>
   </g>
   <g id="line2d_28">
    <g clip-path="url(#pe6eeff9629)">
     <use style="fill:#008000;stroke:#008000;" x="572.480771" xlink:href="#mf4a7b4bf02" y="398.316925"/>
    </g>
   </g>
   <g id="line2d_29">
    <g clip-path="url(#pe6eeff9629)">
     <use style="fill:#008000;stroke:#008000;" x="572.480771" xlink:href="#mf4a7b4bf02" y="398.316925"/>
    </g>
   </g>
   <g id="line2d_30">
    <g clip-path="url(#pe6eeff9629)">
     <use style="fill:#008000;stroke:#008000;" x="449.481581" xlink:href="#mf4a7b4bf02" y="248.57648"/>
    </g>
   </g>
   <g id="line2d_31">
    <g clip-path="url(#pe6eeff9629)">
     <use style="fill:#008000;stroke:#008000;" x="411.585411" xlink:href="#mf4a7b4bf02" y="507.35455"/>
    </g>
   </g>
   <g id="line2d_32">
    <g clip-path="url(#pe6eeff9629)">
     <use style="fill:#008000;stroke:#008000;" x="690.753122" xlink:href="#mf4a7b4bf02" y="597.660008"/>
    </g>
   </g>
   <g id="line2d_33">
    <defs>
     <path d="M 0 1.333333 
C 0.353604 1.333333 0.692773 1.192845 0.942809 0.942809 
C 1.192845 0.692773 1.333333 0.353604 1.333333 0 
C 1.333333 -0.353604 1.192845 -0.692773 0.942809 -0.942809 
C 0.692773 -1.192845 0.353604 -1.333333 0 -1.333333 
C -0.353604 -1.333333 -0.692773 -1.192845 -0.942809 -0.942809 
C -1.192845 -0.692773 -1.333333 -0.353604 -1.333333 0 
C -1.333333 0.353604 -1.192845 0.692773 -0.942809 0.942809 
C -0.692773 1.192845 -0.353604 1.333333 0 1.333333 
z
" id="md42e943a68" style="stroke:#ff0000;"/>
    </defs>
    <g clip-path="url(#pe6eeff9629)">
     <use style="fill:#ff0000;stroke:#ff0000;" x="1365.486048" xlink:href="#md42e943a68" y="501.646511"/>
     <use style="fill:#ff0000;stroke:#ff0000;" x="1363.816691" xlink:href="#md42e943a68" y="347.133109"/>
     <use style="fill:#ff0000;stroke:#ff0000;" x="1263.912699" xlink:href="#md42e943a68" y="330.501046"/>
     <use style="fill:#ff0000;stroke:#ff0000;" x="1363.507593" xlink:href="#md42e943a68" y="282.798801"/>
     <use style="fill:#ff0000;stroke:#ff0000;" x="1330.791506" xlink:href="#md42e943a68" y="257.0582"/>
     <use style="fill:#ff0000;stroke:#ff0000;" x="652.016445" xlink:href="#md42e943a68" y="400.164759"/>
     <use style="fill:#ff0000;stroke:#ff0000;" x="641.433721" xlink:href="#md42e943a68" y="390.341407"/>
     <use style="fill:#ff0000;stroke:#ff0000;" x="794.874226" xlink:href="#md42e943a68" y="192.926307"/>
     <use style="fill:#ff0000;stroke:#ff0000;" x="768.910143" xlink:href="#md42e943a68" y="197.117434"/>
     <use style="fill:#ff0000;stroke:#ff0000;" x="746.807797" xlink:href="#md42e943a68" y="197.689485"/>
     <use style="fill:#ff0000;stroke:#ff0000;" x="723.903325" xlink:href="#md42e943a68" y="201.243624"/>
     <use style="fill:#ff0000;stroke:#ff0000;" x="702.874225" xlink:href="#md42e943a68" y="204.675038"/>
     <use style="fill:#ff0000;stroke:#ff0000;" x="537.941765" xlink:href="#md42e943a68" y="232.551315"/>
     <use style="fill:#ff0000;stroke:#ff0000;" x="575.090023" xlink:href="#md42e943a68" y="397.179545"/>
     <use style="fill:#ff0000;stroke:#ff0000;" x="569.991387" xlink:href="#md42e943a68" y="399.54863"/>
     <use style="fill:#ff0000;stroke:#ff0000;" x="449.481581" xlink:href="#md42e943a68" y="248.57648"/>
     <use style="fill:#ff0000;stroke:#ff0000;" x="392.569839" xlink:href="#md42e943a68" y="286.55431"/>
     <use style="fill:#ff0000;stroke:#ff0000;" x="415.503699" xlink:href="#md42e943a68" y="317.7455"/>
     <use style="fill:#ff0000;stroke:#ff0000;" x="418.880461" xlink:href="#md42e943a68" y="343.034099"/>
     <use style="fill:#ff0000;stroke:#ff0000;" x="401.612275" xlink:href="#md42e943a68" y="364.931034"/>
     <use style="fill:#ff0000;stroke:#ff0000;" x="454.640811" xlink:href="#md42e943a68" y="392.333296"/>
     <use style="fill:#ff0000;stroke:#ff0000;" x="440.981926" xlink:href="#md42e943a68" y="414.109848"/>
     <use style="fill:#ff0000;stroke:#ff0000;" x="418.06664" xlink:href="#md42e943a68" y="424.484897"/>
     <use style="fill:#ff0000;stroke:#ff0000;" x="420.66862" xlink:href="#md42e943a68" y="437.837691"/>
     <use style="fill:#ff0000;stroke:#ff0000;" x="395.908412" xlink:href="#md42e943a68" y="445.501561"/>
     <use style="fill:#ff0000;stroke:#ff0000;" x="411.585411" xlink:href="#md42e943a68" y="507.35455"/>
     <use style="fill:#ff0000;stroke:#ff0000;" x="468.989706" xlink:href="#md42e943a68" y="491.69239"/>
     <use style="fill:#ff0000;stroke:#ff0000;" x="434.420925" xlink:href="#md42e943a68" y="515.365149"/>
     <use style="fill:#ff0000;stroke:#ff0000;" x="452.695171" xlink:href="#md42e943a68" y="514.569261"/>
     <use style="fill:#ff0000;stroke:#ff0000;" x="469.88328" xlink:href="#md42e943a68" y="512.935528"/>
     <use style="fill:#ff0000;stroke:#ff0000;" x="457.548475" xlink:href="#md42e943a68" y="530.007308"/>
     <use style="fill:#ff0000;stroke:#ff0000;" x="456.598141" xlink:href="#md42e943a68" y="541.214056"/>
     <use style="fill:#ff0000;stroke:#ff0000;" x="472.530618" xlink:href="#md42e943a68" y="539.100938"/>
     <use style="fill:#ff0000;stroke:#ff0000;" x="458.605508" xlink:href="#md42e943a68" y="563.659011"/>
     <use style="fill:#ff0000;stroke:#ff0000;" x="528.404163" xlink:href="#md42e943a68" y="505.092542"/>
     <use style="fill:#ff0000;stroke:#ff0000;" x="572.037559" xlink:href="#md42e943a68" y="499.257205"/>
     <use style="fill:#ff0000;stroke:#ff0000;" x="571.193505" xlink:href="#md42e943a68" y="626.801609"/>
     <use style="fill:#ff0000;stroke:#ff0000;" x="598.780863" xlink:href="#md42e943a68" y="642.566222"/>
     <use style="fill:#ff0000;stroke:#ff0000;" x="628.551589" xlink:href="#md42e943a68" y="639.8113"/>
     <use style="fill:#ff0000;stroke:#ff0000;" x="684.181964" xlink:href="#md42e943a68" y="598.245332"/>
     <use style="fill:#ff0000;stroke:#ff0000;" x="697.348227" xlink:href="#md42e943a68" y="596.927855"/>
     <use style="fill:#ff0000;stroke:#ff0000;" x="747.48264" xlink:href="#md42e943a68" y="601.275601"/>
     <use style="fill:#ff0000;stroke:#ff0000;" x="785.04833" xlink:href="#md42e943a68" y="584.16"/>
     <use style="fill:#ff0000;stroke:#ff0000;" x="805.529384" xlink:href="#md42e943a68" y="583.293911"/>
     <use style="fill:#ff0000;stroke:#ff0000;" x="833.217988" xlink:href="#md42e943a68" y="585.474243"/>
     <use style="fill:#ff0000;stroke:#ff0000;" x="837.443274" xlink:href="#md42e943a68" y="571.761943"/>
     <use style="fill:#ff0000;stroke:#ff0000;" x="875.401936" xlink:href="#md42e943a68" y="576.054851"/>
     <use style="fill:#ff0000;stroke:#ff0000;" x="873.255824" xlink:href="#md42e943a68" y="559.393409"/>
     <use style="fill:#ff0000;stroke:#ff0000;" x="895.328395" xlink:href="#md42e943a68" y="553.26803"/>
     <use style="fill:#ff0000;stroke:#ff0000;" x="939.63252" xlink:href="#md42e943a68" y="553.461761"/>
     <use style="fill:#ff0000;stroke:#ff0000;" x="1061.009265" xlink:href="#md42e943a68" y="531.104846"/>
     <use style="fill:#ff0000;stroke:#ff0000;" x="1083.11682" xlink:href="#md42e943a68" y="515.093729"/>
    </g>
   </g>
   <g id="line2d_34">
    <defs>
     <path d="M -0.5 0.5 
L 0.5 0.5 
L 0.5 -0.5 
L -0.5 -0.5 
z
" id="m66afbcbfaa" style="stroke:#1f77b4;stroke-linejoin:miter;"/>
    </defs>
    <g clip-path="url(#pe6eeff9629)">
     <use style="fill:#1f77b4;stroke:#1f77b4;stroke-linejoin:miter;" x="1365.486048" xlink:href="#m66afbcbfaa" y="501.646511"/>
     <use style="fill:#1f77b4;stroke:#1f77b4;stroke-linejoin:miter;" x="1363.816691" xlink:href="#m66afbcbfaa" y="347.133109"/>
     <use style="fill:#1f77b4;stroke:#1f77b4;stroke-linejoin:miter;" x="1263.912699" xlink:href="#m66afbcbfaa" y="330.501046"/>
     <use style="fill:#1f77b4;stroke:#1f77b4;stroke-linejoin:miter;" x="1363.507593" xlink:href="#m66afbcbfaa" y="282.798801"/>
     <use style="fill:#1f77b4;stroke:#1f77b4;stroke-linejoin:miter;" x="1330.791506" xlink:href="#m66afbcbfaa" y="257.0582"/>
     <use style="fill:#1f77b4;stroke:#1f77b4;stroke-linejoin:miter;" x="652.016445" xlink:href="#m66afbcbfaa" y="400.164759"/>
     <use style="fill:#1f77b4;stroke:#1f77b4;stroke-linejoin:miter;" x="649.23187" xlink:href="#m66afbcbfaa" y="397.958544"/>
     <use style="fill:#1f77b4;stroke:#1f77b4;stroke-linejoin:miter;" x="646.45772" xlink:href="#m66afbcbfaa" y="395.538575"/>
     <use style="fill:#1f77b4;stroke:#1f77b4;stroke-linejoin:miter;" x="643.850557" xlink:href="#m66afbcbfaa" y="393.043891"/>
     <use style="fill:#1f77b4;stroke:#1f77b4;stroke-linejoin:miter;" x="641.433721" xlink:href="#m66afbcbfaa" y="390.341407"/>
     <use style="fill:#1f77b4;stroke:#1f77b4;stroke-linejoin:miter;" x="794.874226" xlink:href="#m66afbcbfaa" y="192.926307"/>
     <use style="fill:#1f77b4;stroke:#1f77b4;stroke-linejoin:miter;" x="768.910143" xlink:href="#m66afbcbfaa" y="197.117434"/>
     <use style="fill:#1f77b4;stroke:#1f77b4;stroke-linejoin:miter;" x="746.807797" xlink:href="#m66afbcbfaa" y="197.689485"/>
     <use style="fill:#1f77b4;stroke:#1f77b4;stroke-linejoin:miter;" x="723.903325" xlink:href="#m66afbcbfaa" y="201.243624"/>
     <use style="fill:#1f77b4;stroke:#1f77b4;stroke-linejoin:miter;" x="702.874225" xlink:href="#m66afbcbfaa" y="204.675038"/>
     <use style="fill:#1f77b4;stroke:#1f77b4;stroke-linejoin:miter;" x="682.793673" xlink:href="#m66afbcbfaa" y="208.013805"/>
     <use style="fill:#1f77b4;stroke:#1f77b4;stroke-linejoin:miter;" x="664.297853" xlink:href="#m66afbcbfaa" y="211.018461"/>
     <use style="fill:#1f77b4;stroke:#1f77b4;stroke-linejoin:miter;" x="646.834099" xlink:href="#m66afbcbfaa" y="213.496952"/>
     <use style="fill:#1f77b4;stroke:#1f77b4;stroke-linejoin:miter;" x="629.985696" xlink:href="#m66afbcbfaa" y="215.978231"/>
     <use style="fill:#1f77b4;stroke:#1f77b4;stroke-linejoin:miter;" x="613.110994" xlink:href="#m66afbcbfaa" y="219.015627"/>
     <use style="fill:#1f77b4;stroke:#1f77b4;stroke-linejoin:miter;" x="597.380162" xlink:href="#m66afbcbfaa" y="222.059014"/>
     <use style="fill:#1f77b4;stroke:#1f77b4;stroke-linejoin:miter;" x="582.199785" xlink:href="#m66afbcbfaa" y="224.994814"/>
     <use style="fill:#1f77b4;stroke:#1f77b4;stroke-linejoin:miter;" x="567.203726" xlink:href="#m66afbcbfaa" y="226.219217"/>
     <use style="fill:#1f77b4;stroke:#1f77b4;stroke-linejoin:miter;" x="552.565376" xlink:href="#m66afbcbfaa" y="230.004724"/>
     <use style="fill:#1f77b4;stroke:#1f77b4;stroke-linejoin:miter;" x="537.941765" xlink:href="#m66afbcbfaa" y="232.551315"/>
     <use style="fill:#1f77b4;stroke:#1f77b4;stroke-linejoin:miter;" x="575.090023" xlink:href="#m66afbcbfaa" y="397.179545"/>
     <use style="fill:#1f77b4;stroke:#1f77b4;stroke-linejoin:miter;" x="573.033418" xlink:href="#m66afbcbfaa" y="399.902311"/>
     <use style="fill:#1f77b4;stroke:#1f77b4;stroke-linejoin:miter;" x="569.991387" xlink:href="#m66afbcbfaa" y="399.54863"/>
     <use style="fill:#1f77b4;stroke:#1f77b4;stroke-linejoin:miter;" x="449.481581" xlink:href="#m66afbcbfaa" y="248.57648"/>
     <use style="fill:#1f77b4;stroke:#1f77b4;stroke-linejoin:miter;" x="434.294012" xlink:href="#m66afbcbfaa" y="251.845943"/>
     <use style="fill:#1f77b4;stroke:#1f77b4;stroke-linejoin:miter;" x="416.599652" xlink:href="#m66afbcbfaa" y="253.386313"/>
     <use style="fill:#1f77b4;stroke:#1f77b4;stroke-linejoin:miter;" x="407.831247" xlink:href="#m66afbcbfaa" y="264.618534"/>
     <use style="fill:#1f77b4;stroke:#1f77b4;stroke-linejoin:miter;" x="396.10504" xlink:href="#m66afbcbfaa" y="272.584802"/>
     <use style="fill:#1f77b4;stroke:#1f77b4;stroke-linejoin:miter;" x="392.569839" xlink:href="#m66afbcbfaa" y="286.55431"/>
     <use style="fill:#1f77b4;stroke:#1f77b4;stroke-linejoin:miter;" x="415.503699" xlink:href="#m66afbcbfaa" y="317.7455"/>
     <use style="fill:#1f77b4;stroke:#1f77b4;stroke-linejoin:miter;" x="418.880461" xlink:href="#m66afbcbfaa" y="343.034099"/>
     <use style="fill:#1f77b4;stroke:#1f77b4;stroke-linejoin:miter;" x="420.032545" xlink:href="#m66afbcbfaa" y="353.876905"/>
     <use style="fill:#1f77b4;stroke:#1f77b4;stroke-linejoin:miter;" x="406.835731" xlink:href="#m66afbcbfaa" y="357.396879"/>
     <use style="fill:#1f77b4;stroke:#1f77b4;stroke-linejoin:miter;" x="401.612275" xlink:href="#m66afbcbfaa" y="364.931034"/>
     <use style="fill:#1f77b4;stroke:#1f77b4;stroke-linejoin:miter;" x="454.640811" xlink:href="#m66afbcbfaa" y="392.333296"/>
     <use style="fill:#1f77b4;stroke:#1f77b4;stroke-linejoin:miter;" x="455.417098" xlink:href="#m66afbcbfaa" y="398.963083"/>
     <use style="fill:#1f77b4;stroke:#1f77b4;stroke-linejoin:miter;" x="457.387075" xlink:href="#m66afbcbfaa" y="405.336064"/>
     <use style="fill:#1f77b4;stroke:#1f77b4;stroke-linejoin:miter;" x="458.16619" xlink:href="#m66afbcbfaa" y="411.466723"/>
     <use style="fill:#1f77b4;stroke:#1f77b4;stroke-linejoin:miter;" x="440.981926" xlink:href="#m66afbcbfaa" y="414.109848"/>
     <use style="fill:#1f77b4;stroke:#1f77b4;stroke-linejoin:miter;" x="418.06664" xlink:href="#m66afbcbfaa" y="424.484897"/>
     <use style="fill:#1f77b4;stroke:#1f77b4;stroke-linejoin:miter;" x="419.586667" xlink:href="#m66afbcbfaa" y="431.353783"/>
     <use style="fill:#1f77b4;stroke:#1f77b4;stroke-linejoin:miter;" x="420.66862" xlink:href="#m66afbcbfaa" y="437.837691"/>
     <use style="fill:#1f77b4;stroke:#1f77b4;stroke-linejoin:miter;" x="395.908412" xlink:href="#m66afbcbfaa" y="445.501561"/>
     <use style="fill:#1f77b4;stroke:#1f77b4;stroke-linejoin:miter;" x="396.173211" xlink:href="#m66afbcbfaa" y="453.24988"/>
     <use style="fill:#1f77b4;stroke:#1f77b4;stroke-linejoin:miter;" x="398.646079" xlink:href="#m66afbcbfaa" y="460.672042"/>
     <use style="fill:#1f77b4;stroke:#1f77b4;stroke-linejoin:miter;" x="401.738852" xlink:href="#m66afbcbfaa" y="468.130682"/>
     <use style="fill:#1f77b4;stroke:#1f77b4;stroke-linejoin:miter;" x="402.221989" xlink:href="#m66afbcbfaa" y="476.032144"/>
     <use style="fill:#1f77b4;stroke:#1f77b4;stroke-linejoin:miter;" x="404.924667" xlink:href="#m66afbcbfaa" y="483.530074"/>
     <use style="fill:#1f77b4;stroke:#1f77b4;stroke-linejoin:miter;" x="407.646032" xlink:href="#m66afbcbfaa" y="490.909244"/>
     <use style="fill:#1f77b4;stroke:#1f77b4;stroke-linejoin:miter;" x="408.010091" xlink:href="#m66afbcbfaa" y="499.740956"/>
     <use style="fill:#1f77b4;stroke:#1f77b4;stroke-linejoin:miter;" x="411.585411" xlink:href="#m66afbcbfaa" y="507.35455"/>
     <use style="fill:#1f77b4;stroke:#1f77b4;stroke-linejoin:miter;" x="468.989706" xlink:href="#m66afbcbfaa" y="491.69239"/>
     <use style="fill:#1f77b4;stroke:#1f77b4;stroke-linejoin:miter;" x="434.420925" xlink:href="#m66afbcbfaa" y="515.365149"/>
     <use style="fill:#1f77b4;stroke:#1f77b4;stroke-linejoin:miter;" x="452.695171" xlink:href="#m66afbcbfaa" y="514.569261"/>
     <use style="fill:#1f77b4;stroke:#1f77b4;stroke-linejoin:miter;" x="469.88328" xlink:href="#m66afbcbfaa" y="512.935528"/>
     <use style="fill:#1f77b4;stroke:#1f77b4;stroke-linejoin:miter;" x="457.548475" xlink:href="#m66afbcbfaa" y="530.007308"/>
     <use style="fill:#1f77b4;stroke:#1f77b4;stroke-linejoin:miter;" x="456.598141" xlink:href="#m66afbcbfaa" y="541.214056"/>
     <use style="fill:#1f77b4;stroke:#1f77b4;stroke-linejoin:miter;" x="472.530618" xlink:href="#m66afbcbfaa" y="539.100938"/>
     <use style="fill:#1f77b4;stroke:#1f77b4;stroke-linejoin:miter;" x="458.605508" xlink:href="#m66afbcbfaa" y="563.659011"/>
     <use style="fill:#1f77b4;stroke:#1f77b4;stroke-linejoin:miter;" x="528.404163" xlink:href="#m66afbcbfaa" y="505.092542"/>
     <use style="fill:#1f77b4;stroke:#1f77b4;stroke-linejoin:miter;" x="537.866184" xlink:href="#m66afbcbfaa" y="502.077972"/>
     <use style="fill:#1f77b4;stroke:#1f77b4;stroke-linejoin:miter;" x="548.05226" xlink:href="#m66afbcbfaa" y="496.817419"/>
     <use style="fill:#1f77b4;stroke:#1f77b4;stroke-linejoin:miter;" x="552.795912" xlink:href="#m66afbcbfaa" y="497.940262"/>
     <use style="fill:#1f77b4;stroke:#1f77b4;stroke-linejoin:miter;" x="560.427969" xlink:href="#m66afbcbfaa" y="493.751779"/>
     <use style="fill:#1f77b4;stroke:#1f77b4;stroke-linejoin:miter;" x="566.118008" xlink:href="#m66afbcbfaa" y="491.801605"/>
     <use style="fill:#1f77b4;stroke:#1f77b4;stroke-linejoin:miter;" x="569.574979" xlink:href="#m66afbcbfaa" y="494.170854"/>
     <use style="fill:#1f77b4;stroke:#1f77b4;stroke-linejoin:miter;" x="572.037559" xlink:href="#m66afbcbfaa" y="499.257205"/>
     <use style="fill:#1f77b4;stroke:#1f77b4;stroke-linejoin:miter;" x="571.193505" xlink:href="#m66afbcbfaa" y="626.801609"/>
     <use style="fill:#1f77b4;stroke:#1f77b4;stroke-linejoin:miter;" x="584.573432" xlink:href="#m66afbcbfaa" y="632.841495"/>
     <use style="fill:#1f77b4;stroke:#1f77b4;stroke-linejoin:miter;" x="598.780863" xlink:href="#m66afbcbfaa" y="642.566222"/>
     <use style="fill:#1f77b4;stroke:#1f77b4;stroke-linejoin:miter;" x="614.015869" xlink:href="#m66afbcbfaa" y="641.324725"/>
     <use style="fill:#1f77b4;stroke:#1f77b4;stroke-linejoin:miter;" x="628.551589" xlink:href="#m66afbcbfaa" y="639.8113"/>
     <use style="fill:#1f77b4;stroke:#1f77b4;stroke-linejoin:miter;" x="684.181964" xlink:href="#m66afbcbfaa" y="598.245332"/>
     <use style="fill:#1f77b4;stroke:#1f77b4;stroke-linejoin:miter;" x="697.348227" xlink:href="#m66afbcbfaa" y="596.927855"/>
     <use style="fill:#1f77b4;stroke:#1f77b4;stroke-linejoin:miter;" x="747.48264" xlink:href="#m66afbcbfaa" y="601.275601"/>
     <use style="fill:#1f77b4;stroke:#1f77b4;stroke-linejoin:miter;" x="756.30581" xlink:href="#m66afbcbfaa" y="592.262987"/>
     <use style="fill:#1f77b4;stroke:#1f77b4;stroke-linejoin:miter;" x="767.620299" xlink:href="#m66afbcbfaa" y="585.912579"/>
     <use style="fill:#1f77b4;stroke:#1f77b4;stroke-linejoin:miter;" x="785.04833" xlink:href="#m66afbcbfaa" y="584.16"/>
     <use style="fill:#1f77b4;stroke:#1f77b4;stroke-linejoin:miter;" x="805.529384" xlink:href="#m66afbcbfaa" y="583.293911"/>
     <use style="fill:#1f77b4;stroke:#1f77b4;stroke-linejoin:miter;" x="833.217988" xlink:href="#m66afbcbfaa" y="585.474243"/>
     <use style="fill:#1f77b4;stroke:#1f77b4;stroke-linejoin:miter;" x="837.443274" xlink:href="#m66afbcbfaa" y="571.761943"/>
     <use style="fill:#1f77b4;stroke:#1f77b4;stroke-linejoin:miter;" x="875.401936" xlink:href="#m66afbcbfaa" y="576.054851"/>
     <use style="fill:#1f77b4;stroke:#1f77b4;stroke-linejoin:miter;" x="873.255824" xlink:href="#m66afbcbfaa" y="559.393409"/>
     <use style="fill:#1f77b4;stroke:#1f77b4;stroke-linejoin:miter;" x="895.328395" xlink:href="#m66afbcbfaa" y="553.26803"/>
     <use style="fill:#1f77b4;stroke:#1f77b4;stroke-linejoin:miter;" x="939.63252" xlink:href="#m66afbcbfaa" y="553.461761"/>
     <use style="fill:#1f77b4;stroke:#1f77b4;stroke-linejoin:miter;" x="1061.009265" xlink:href="#m66afbcbfaa" y="531.104846"/>
     <use style="fill:#1f77b4;stroke:#1f77b4;stroke-linejoin:miter;" x="1083.11682" xlink:href="#m66afbcbfaa" y="515.093729"/>
    </g>
   </g>
   <g id="patch_3">
    <path d="M 144 768.96 
L 144 103.68 
" style="fill:none;stroke:#000000;stroke-linecap:square;stroke-linejoin:miter;stroke-width:0.8;"/>
   </g>
   <g id="patch_4">
    <path d="M 1036.8 768.96 
L 1036.8 103.68 
" style="fill:none;stroke:#000000;stroke-linecap:square;stroke-linejoin:miter;stroke-width:0.8;"/>
   </g>
   <g id="patch_5">
    <path d="M 144 768.96 
L 1036.8 768.96 
" style="fill:none;stroke:#000000;stroke-linecap:square;stroke-linejoin:miter;stroke-width:0.8;"/>
   </g>
   <g id="patch_6">
    <path d="M 144 103.68 
L 1036.8 103.68 
" style="fill:none;stroke:#000000;stroke-linecap:square;stroke-linejoin:miter;stroke-width:0.8;"/>
   </g>
  </g>
 </g>
 <defs>
  <clipPath id="pe6eeff9629">
   <rect height="665.28" width="892.8" x="144" y="103.68"/>
  </clipPath>
 </defs>
</svg>
