<?xml version="1.0" encoding="utf-8" standalone="no"?>
<!DOCTYPE svg PUBLIC "-//W3C//DTD SVG 1.1//EN"
  "http://www.w3.org/Graphics/SVG/1.1/DTD/svg11.dtd">
<!-- Created with matplotlib (http://matplotlib.org/) -->
<svg height="864pt" version="1.1" viewBox="0 0 1152 864" width="1152pt" xmlns="http://www.w3.org/2000/svg" xmlns:xlink="http://www.w3.org/1999/xlink">
 <defs>
  <style type="text/css">
*{stroke-linecap:butt;stroke-linejoin:round;}
  </style>
 </defs>
 <g id="figure_1">
  <g id="patch_1">
   <path d="M 0 864 
L 1152 864 
L 1152 0 
L 0 0 
z
" style="fill:#ffffff;"/>
  </g>
  <g id="axes_1">
   <g id="patch_2">
    <path d="M 144 768.96 
L 1036.8 768.96 
L 1036.8 103.68 
L 144 103.68 
z
" style="fill:#ffffff;"/>
   </g>
   <g id="matplotlib.axis_1">
    <g id="xtick_1">
     <g id="line2d_1">
      <defs>
       <path d="M 0 0 
L 0 3.5 
" id="mc9c60493d4" style="stroke:#000000;stroke-width:0.8;"/>
      </defs>
      <g>
       <use style="stroke:#000000;stroke-width:0.8;" x="144" xlink:href="#mc9c60493d4" y="768.96"/>
      </g>
     </g>
     <g id="text_1">
      <!-- −4000 -->
      <defs>
       <path d="M 10.59375 35.5 
L 73.1875 35.5 
L 73.1875 27.203125 
L 10.59375 27.203125 
z
" id="DejaVuSans-2212"/>
       <path d="M 37.796875 64.3125 
L 12.890625 25.390625 
L 37.796875 25.390625 
z
M 35.203125 72.90625 
L 47.609375 72.90625 
L 47.609375 25.390625 
L 58.015625 25.390625 
L 58.015625 17.1875 
L 47.609375 17.1875 
L 47.609375 0 
L 37.796875 0 
L 37.796875 17.1875 
L 4.890625 17.1875 
L 4.890625 26.703125 
z
" id="DejaVuSans-34"/>
       <path d="M 31.78125 66.40625 
Q 24.171875 66.40625 20.328125 58.90625 
Q 16.5 51.421875 16.5 36.375 
Q 16.5 21.390625 20.328125 13.890625 
Q 24.171875 6.390625 31.78125 6.390625 
Q 39.453125 6.390625 43.28125 13.890625 
Q 47.125 21.390625 47.125 36.375 
Q 47.125 51.421875 43.28125 58.90625 
Q 39.453125 66.40625 31.78125 66.40625 
z
M 31.78125 74.21875 
Q 44.046875 74.21875 50.515625 64.515625 
Q 56.984375 54.828125 56.984375 36.375 
Q 56.984375 17.96875 50.515625 8.265625 
Q 44.046875 -1.421875 31.78125 -1.421875 
Q 19.53125 -1.421875 13.0625 8.265625 
Q 6.59375 17.96875 6.59375 36.375 
Q 6.59375 54.828125 13.0625 64.515625 
Q 19.53125 74.21875 31.78125 74.21875 
z
" id="DejaVuSans-30"/>
      </defs>
      <g transform="translate(127.085156 783.558437)scale(0.1 -0.1)">
       <use xlink:href="#DejaVuSans-2212"/>
       <use x="83.789062" xlink:href="#DejaVuSans-34"/>
       <use x="147.412109" xlink:href="#DejaVuSans-30"/>
       <use x="211.035156" xlink:href="#DejaVuSans-30"/>
       <use x="274.658203" xlink:href="#DejaVuSans-30"/>
      </g>
     </g>
    </g>
    <g id="xtick_2">
     <g id="line2d_2">
      <g>
       <use style="stroke:#000000;stroke-width:0.8;" x="255.6" xlink:href="#mc9c60493d4" y="768.96"/>
      </g>
     </g>
     <g id="text_2">
      <!-- −3000 -->
      <defs>
       <path d="M 40.578125 39.3125 
Q 47.65625 37.796875 51.625 33 
Q 55.609375 28.21875 55.609375 21.1875 
Q 55.609375 10.40625 48.1875 4.484375 
Q 40.765625 -1.421875 27.09375 -1.421875 
Q 22.515625 -1.421875 17.65625 -0.515625 
Q 12.796875 0.390625 7.625 2.203125 
L 7.625 11.71875 
Q 11.71875 9.328125 16.59375 8.109375 
Q 21.484375 6.890625 26.8125 6.890625 
Q 36.078125 6.890625 40.9375 10.546875 
Q 45.796875 14.203125 45.796875 21.1875 
Q 45.796875 27.640625 41.28125 31.265625 
Q 36.765625 34.90625 28.71875 34.90625 
L 20.21875 34.90625 
L 20.21875 43.015625 
L 29.109375 43.015625 
Q 36.375 43.015625 40.234375 45.921875 
Q 44.09375 48.828125 44.09375 54.296875 
Q 44.09375 59.90625 40.109375 62.90625 
Q 36.140625 65.921875 28.71875 65.921875 
Q 24.65625 65.921875 20.015625 65.03125 
Q 15.375 64.15625 9.8125 62.3125 
L 9.8125 71.09375 
Q 15.4375 72.65625 20.34375 73.4375 
Q 25.25 74.21875 29.59375 74.21875 
Q 40.828125 74.21875 47.359375 69.109375 
Q 53.90625 64.015625 53.90625 55.328125 
Q 53.90625 49.265625 50.4375 45.09375 
Q 46.96875 40.921875 40.578125 39.3125 
z
" id="DejaVuSans-33"/>
      </defs>
      <g transform="translate(238.685156 783.558437)scale(0.1 -0.1)">
       <use xlink:href="#DejaVuSans-2212"/>
       <use x="83.789062" xlink:href="#DejaVuSans-33"/>
       <use x="147.412109" xlink:href="#DejaVuSans-30"/>
       <use x="211.035156" xlink:href="#DejaVuSans-30"/>
       <use x="274.658203" xlink:href="#DejaVuSans-30"/>
      </g>
     </g>
    </g>
    <g id="xtick_3">
     <g id="line2d_3">
      <g>
       <use style="stroke:#000000;stroke-width:0.8;" x="367.2" xlink:href="#mc9c60493d4" y="768.96"/>
      </g>
     </g>
     <g id="text_3">
      <!-- −2000 -->
      <defs>
       <path d="M 19.1875 8.296875 
L 53.609375 8.296875 
L 53.609375 0 
L 7.328125 0 
L 7.328125 8.296875 
Q 12.9375 14.109375 22.625 23.890625 
Q 32.328125 33.6875 34.8125 36.53125 
Q 39.546875 41.84375 41.421875 45.53125 
Q 43.3125 49.21875 43.3125 52.78125 
Q 43.3125 58.59375 39.234375 62.25 
Q 35.15625 65.921875 28.609375 65.921875 
Q 23.96875 65.921875 18.8125 64.3125 
Q 13.671875 62.703125 7.8125 59.421875 
L 7.8125 69.390625 
Q 13.765625 71.78125 18.9375 73 
Q 24.125 74.21875 28.421875 74.21875 
Q 39.75 74.21875 46.484375 68.546875 
Q 53.21875 62.890625 53.21875 53.421875 
Q 53.21875 48.921875 51.53125 44.890625 
Q 49.859375 40.875 45.40625 35.40625 
Q 44.1875 33.984375 37.640625 27.21875 
Q 31.109375 20.453125 19.1875 8.296875 
z
" id="DejaVuSans-32"/>
      </defs>
      <g transform="translate(350.285156 783.558437)scale(0.1 -0.1)">
       <use xlink:href="#DejaVuSans-2212"/>
       <use x="83.789062" xlink:href="#DejaVuSans-32"/>
       <use x="147.412109" xlink:href="#DejaVuSans-30"/>
       <use x="211.035156" xlink:href="#DejaVuSans-30"/>
       <use x="274.658203" xlink:href="#DejaVuSans-30"/>
      </g>
     </g>
    </g>
    <g id="xtick_4">
     <g id="line2d_4">
      <g>
       <use style="stroke:#000000;stroke-width:0.8;" x="478.8" xlink:href="#mc9c60493d4" y="768.96"/>
      </g>
     </g>
     <g id="text_4">
      <!-- −1000 -->
      <defs>
       <path d="M 12.40625 8.296875 
L 28.515625 8.296875 
L 28.515625 63.921875 
L 10.984375 60.40625 
L 10.984375 69.390625 
L 28.421875 72.90625 
L 38.28125 72.90625 
L 38.28125 8.296875 
L 54.390625 8.296875 
L 54.390625 0 
L 12.40625 0 
z
" id="DejaVuSans-31"/>
      </defs>
      <g transform="translate(461.885156 783.558437)scale(0.1 -0.1)">
       <use xlink:href="#DejaVuSans-2212"/>
       <use x="83.789062" xlink:href="#DejaVuSans-31"/>
       <use x="147.412109" xlink:href="#DejaVuSans-30"/>
       <use x="211.035156" xlink:href="#DejaVuSans-30"/>
       <use x="274.658203" xlink:href="#DejaVuSans-30"/>
      </g>
     </g>
    </g>
    <g id="xtick_5">
     <g id="line2d_5">
      <g>
       <use style="stroke:#000000;stroke-width:0.8;" x="590.4" xlink:href="#mc9c60493d4" y="768.96"/>
      </g>
     </g>
     <g id="text_5">
      <!-- 0 -->
      <g transform="translate(587.21875 783.558437)scale(0.1 -0.1)">
       <use xlink:href="#DejaVuSans-30"/>
      </g>
     </g>
    </g>
    <g id="xtick_6">
     <g id="line2d_6">
      <g>
       <use style="stroke:#000000;stroke-width:0.8;" x="702" xlink:href="#mc9c60493d4" y="768.96"/>
      </g>
     </g>
     <g id="text_6">
      <!-- 1000 -->
      <g transform="translate(689.275 783.558437)scale(0.1 -0.1)">
       <use xlink:href="#DejaVuSans-31"/>
       <use x="63.623047" xlink:href="#DejaVuSans-30"/>
       <use x="127.246094" xlink:href="#DejaVuSans-30"/>
       <use x="190.869141" xlink:href="#DejaVuSans-30"/>
      </g>
     </g>
    </g>
    <g id="xtick_7">
     <g id="line2d_7">
      <g>
       <use style="stroke:#000000;stroke-width:0.8;" x="813.6" xlink:href="#mc9c60493d4" y="768.96"/>
      </g>
     </g>
     <g id="text_7">
      <!-- 2000 -->
      <g transform="translate(800.875 783.558437)scale(0.1 -0.1)">
       <use xlink:href="#DejaVuSans-32"/>
       <use x="63.623047" xlink:href="#DejaVuSans-30"/>
       <use x="127.246094" xlink:href="#DejaVuSans-30"/>
       <use x="190.869141" xlink:href="#DejaVuSans-30"/>
      </g>
     </g>
    </g>
    <g id="xtick_8">
     <g id="line2d_8">
      <g>
       <use style="stroke:#000000;stroke-width:0.8;" x="925.2" xlink:href="#mc9c60493d4" y="768.96"/>
      </g>
     </g>
     <g id="text_8">
      <!-- 3000 -->
      <g transform="translate(912.475 783.558437)scale(0.1 -0.1)">
       <use xlink:href="#DejaVuSans-33"/>
       <use x="63.623047" xlink:href="#DejaVuSans-30"/>
       <use x="127.246094" xlink:href="#DejaVuSans-30"/>
       <use x="190.869141" xlink:href="#DejaVuSans-30"/>
      </g>
     </g>
    </g>
    <g id="xtick_9">
     <g id="line2d_9">
      <g>
       <use style="stroke:#000000;stroke-width:0.8;" x="1036.8" xlink:href="#mc9c60493d4" y="768.96"/>
      </g>
     </g>
     <g id="text_9">
      <!-- 4000 -->
      <g transform="translate(1024.075 783.558437)scale(0.1 -0.1)">
       <use xlink:href="#DejaVuSans-34"/>
       <use x="63.623047" xlink:href="#DejaVuSans-30"/>
       <use x="127.246094" xlink:href="#DejaVuSans-30"/>
       <use x="190.869141" xlink:href="#DejaVuSans-30"/>
      </g>
     </g>
    </g>
   </g>
   <g id="matplotlib.axis_2">
    <g id="ytick_1">
     <g id="line2d_10">
      <defs>
       <path d="M 0 0 
L -3.5 0 
" id="mbcc422a196" style="stroke:#000000;stroke-width:0.8;"/>
      </defs>
      <g>
       <use style="stroke:#000000;stroke-width:0.8;" x="144" xlink:href="#mbcc422a196" y="768.96"/>
      </g>
     </g>
     <g id="text_10">
      <!-- −4000 -->
      <g transform="translate(103.170312 772.759219)scale(0.1 -0.1)">
       <use xlink:href="#DejaVuSans-2212"/>
       <use x="83.789062" xlink:href="#DejaVuSans-34"/>
       <use x="147.412109" xlink:href="#DejaVuSans-30"/>
       <use x="211.035156" xlink:href="#DejaVuSans-30"/>
       <use x="274.658203" xlink:href="#DejaVuSans-30"/>
      </g>
     </g>
    </g>
    <g id="ytick_2">
     <g id="line2d_11">
      <g>
       <use style="stroke:#000000;stroke-width:0.8;" x="144" xlink:href="#mbcc422a196" y="685.8"/>
      </g>
     </g>
     <g id="text_11">
      <!-- −3000 -->
      <g transform="translate(103.170312 689.599219)scale(0.1 -0.1)">
       <use xlink:href="#DejaVuSans-2212"/>
       <use x="83.789062" xlink:href="#DejaVuSans-33"/>
       <use x="147.412109" xlink:href="#DejaVuSans-30"/>
       <use x="211.035156" xlink:href="#DejaVuSans-30"/>
       <use x="274.658203" xlink:href="#DejaVuSans-30"/>
      </g>
     </g>
    </g>
    <g id="ytick_3">
     <g id="line2d_12">
      <g>
       <use style="stroke:#000000;stroke-width:0.8;" x="144" xlink:href="#mbcc422a196" y="602.64"/>
      </g>
     </g>
     <g id="text_12">
      <!-- −2000 -->
      <g transform="translate(103.170312 606.439219)scale(0.1 -0.1)">
       <use xlink:href="#DejaVuSans-2212"/>
       <use x="83.789062" xlink:href="#DejaVuSans-32"/>
       <use x="147.412109" xlink:href="#DejaVuSans-30"/>
       <use x="211.035156" xlink:href="#DejaVuSans-30"/>
       <use x="274.658203" xlink:href="#DejaVuSans-30"/>
      </g>
     </g>
    </g>
    <g id="ytick_4">
     <g id="line2d_13">
      <g>
       <use style="stroke:#000000;stroke-width:0.8;" x="144" xlink:href="#mbcc422a196" y="519.48"/>
      </g>
     </g>
     <g id="text_13">
      <!-- −1000 -->
      <g transform="translate(103.170312 523.279219)scale(0.1 -0.1)">
       <use xlink:href="#DejaVuSans-2212"/>
       <use x="83.789062" xlink:href="#DejaVuSans-31"/>
       <use x="147.412109" xlink:href="#DejaVuSans-30"/>
       <use x="211.035156" xlink:href="#DejaVuSans-30"/>
       <use x="274.658203" xlink:href="#DejaVuSans-30"/>
      </g>
     </g>
    </g>
    <g id="ytick_5">
     <g id="line2d_14">
      <g>
       <use style="stroke:#000000;stroke-width:0.8;" x="144" xlink:href="#mbcc422a196" y="436.32"/>
      </g>
     </g>
     <g id="text_14">
      <!-- 0 -->
      <g transform="translate(130.6375 440.119219)scale(0.1 -0.1)">
       <use xlink:href="#DejaVuSans-30"/>
      </g>
     </g>
    </g>
    <g id="ytick_6">
     <g id="line2d_15">
      <g>
       <use style="stroke:#000000;stroke-width:0.8;" x="144" xlink:href="#mbcc422a196" y="353.16"/>
      </g>
     </g>
     <g id="text_15">
      <!-- 1000 -->
      <g transform="translate(111.55 356.959219)scale(0.1 -0.1)">
       <use xlink:href="#DejaVuSans-31"/>
       <use x="63.623047" xlink:href="#DejaVuSans-30"/>
       <use x="127.246094" xlink:href="#DejaVuSans-30"/>
       <use x="190.869141" xlink:href="#DejaVuSans-30"/>
      </g>
     </g>
    </g>
    <g id="ytick_7">
     <g id="line2d_16">
      <g>
       <use style="stroke:#000000;stroke-width:0.8;" x="144" xlink:href="#mbcc422a196" y="270"/>
      </g>
     </g>
     <g id="text_16">
      <!-- 2000 -->
      <g transform="translate(111.55 273.799219)scale(0.1 -0.1)">
       <use xlink:href="#DejaVuSans-32"/>
       <use x="63.623047" xlink:href="#DejaVuSans-30"/>
       <use x="127.246094" xlink:href="#DejaVuSans-30"/>
       <use x="190.869141" xlink:href="#DejaVuSans-30"/>
      </g>
     </g>
    </g>
    <g id="ytick_8">
     <g id="line2d_17">
      <g>
       <use style="stroke:#000000;stroke-width:0.8;" x="144" xlink:href="#mbcc422a196" y="186.84"/>
      </g>
     </g>
     <g id="text_17">
      <!-- 3000 -->
      <g transform="translate(111.55 190.639219)scale(0.1 -0.1)">
       <use xlink:href="#DejaVuSans-33"/>
       <use x="63.623047" xlink:href="#DejaVuSans-30"/>
       <use x="127.246094" xlink:href="#DejaVuSans-30"/>
       <use x="190.869141" xlink:href="#DejaVuSans-30"/>
      </g>
     </g>
    </g>
    <g id="ytick_9">
     <g id="line2d_18">
      <g>
       <use style="stroke:#000000;stroke-width:0.8;" x="144" xlink:href="#mbcc422a196" y="103.68"/>
      </g>
     </g>
     <g id="text_18">
      <!-- 4000 -->
      <g transform="translate(111.55 107.479219)scale(0.1 -0.1)">
       <use xlink:href="#DejaVuSans-34"/>
       <use x="63.623047" xlink:href="#DejaVuSans-30"/>
       <use x="127.246094" xlink:href="#DejaVuSans-30"/>
       <use x="190.869141" xlink:href="#DejaVuSans-30"/>
      </g>
     </g>
    </g>
   </g>
   <g id="line2d_19">
    <path clip-path="url(#p8f6ba36ad3)" d="M 590.4 768.96 
L 590.4 103.68 
" style="fill:none;stroke:#1f77b4;stroke-linecap:square;stroke-width:1.5;"/>
   </g>
   <g id="line2d_20">
    <path clip-path="url(#p8f6ba36ad3)" d="M 144 436.32 
L 1036.8 436.32 
" style="fill:none;stroke:#1f77b4;stroke-linecap:square;stroke-width:1.5;"/>
   </g>
   <g id="line2d_21">
    <defs>
     <path d="M 0 3 
C 0.795609 3 1.55874 2.683901 2.12132 2.12132 
C 2.683901 1.55874 3 0.795609 3 0 
C 3 -0.795609 2.683901 -1.55874 2.12132 -2.12132 
C 1.55874 -2.683901 0.795609 -3 0 -3 
C -0.795609 -3 -1.55874 -2.683901 -2.12132 -2.12132 
C -2.683901 -1.55874 -3 -0.795609 -3 0 
C -3 0.795609 -2.683901 1.55874 -2.12132 2.12132 
C -1.55874 2.683901 -0.795609 3 0 3 
z
" id="m8a9871c421" style="stroke:#008000;"/>
    </defs>
    <g clip-path="url(#p8f6ba36ad3)">
     <use style="fill:#008000;stroke:#008000;" x="1181.851846" xlink:href="#m8a9871c421" y="494.831975"/>
    </g>
   </g>
   <g id="line2d_22">
    <g clip-path="url(#p8f6ba36ad3)">
     <use style="fill:#008000;stroke:#008000;" x="1411.357674" xlink:href="#m8a9871c421" y="489.504636"/>
    </g>
   </g>
   <g id="line2d_23">
    <g clip-path="url(#p8f6ba36ad3)">
     <use style="fill:#008000;stroke:#008000;" x="1265.96683" xlink:href="#m8a9871c421" y="338.04026"/>
    </g>
   </g>
   <g id="line2d_24">
    <g clip-path="url(#p8f6ba36ad3)">
     <use style="fill:#008000;stroke:#008000;" x="1321.955773" xlink:href="#m8a9871c421" y="276.300296"/>
    </g>
   </g>
   <g id="line2d_25">
    <g clip-path="url(#p8f6ba36ad3)">
     <use style="fill:#008000;stroke:#008000;" x="647.717202" xlink:href="#m8a9871c421" y="391.958958"/>
    </g>
   </g>
   <g id="line2d_26">
    <g clip-path="url(#p8f6ba36ad3)">
     <use style="fill:#008000;stroke:#008000;" x="647.717202" xlink:href="#m8a9871c421" y="391.958958"/>
    </g>
   </g>
   <g id="line2d_27">
    <g clip-path="url(#p8f6ba36ad3)">
     <use style="fill:#008000;stroke:#008000;" x="752.962869" xlink:href="#m8a9871c421" y="197.371147"/>
    </g>
   </g>
   <g id="line2d_28">
    <g clip-path="url(#p8f6ba36ad3)">
     <use style="fill:#008000;stroke:#008000;" x="733.02092" xlink:href="#m8a9871c421" y="199.966772"/>
    </g>
   </g>
   <g id="line2d_29">
    <g clip-path="url(#p8f6ba36ad3)">
     <use style="fill:#008000;stroke:#008000;" x="404.046124" xlink:href="#m8a9871c421" y="444.870285"/>
    </g>
   </g>
   <g id="line2d_30">
    <g clip-path="url(#p8f6ba36ad3)">
     <use style="fill:#008000;stroke:#008000;" x="412.495354" xlink:href="#m8a9871c421" y="509.00208"/>
    </g>
   </g>
   <g id="line2d_31">
    <g clip-path="url(#p8f6ba36ad3)">
     <use style="fill:#008000;stroke:#008000;" x="517.845477" xlink:href="#m8a9871c421" y="508.557077"/>
    </g>
   </g>
   <g id="line2d_32">
    <g clip-path="url(#p8f6ba36ad3)">
     <use style="fill:#008000;stroke:#008000;" x="578.947207" xlink:href="#m8a9871c421" y="504.142698"/>
    </g>
   </g>
   <g id="line2d_33">
    <defs>
     <path d="M 0 1.333333 
C 0.353604 1.333333 0.692773 1.192845 0.942809 0.942809 
C 1.192845 0.692773 1.333333 0.353604 1.333333 0 
C 1.333333 -0.353604 1.192845 -0.692773 0.942809 -0.942809 
C 0.692773 -1.192845 0.353604 -1.333333 0 -1.333333 
C -0.353604 -1.333333 -0.692773 -1.192845 -0.942809 -0.942809 
C -1.192845 -0.692773 -1.333333 -0.353604 -1.333333 0 
C -1.333333 0.353604 -1.192845 0.692773 -0.942809 0.942809 
C -0.692773 1.192845 -0.353604 1.333333 0 1.333333 
z
" id="m250e9e0864" style="stroke:#ff0000;"/>
    </defs>
    <g clip-path="url(#p8f6ba36ad3)">
     <use style="fill:#ff0000;stroke:#ff0000;" x="1181.851846" xlink:href="#m250e9e0864" y="494.831975"/>
     <use style="fill:#ff0000;stroke:#ff0000;" x="1411.357674" xlink:href="#m250e9e0864" y="489.504636"/>
     <use style="fill:#ff0000;stroke:#ff0000;" x="1265.96683" xlink:href="#m250e9e0864" y="338.04026"/>
     <use style="fill:#ff0000;stroke:#ff0000;" x="1321.955773" xlink:href="#m250e9e0864" y="276.300296"/>
     <use style="fill:#ff0000;stroke:#ff0000;" x="650.132963" xlink:href="#m250e9e0864" y="399.485284"/>
     <use style="fill:#ff0000;stroke:#ff0000;" x="643.740108" xlink:href="#m250e9e0864" y="384.403561"/>
     <use style="fill:#ff0000;stroke:#ff0000;" x="763.099249" xlink:href="#m250e9e0864" y="196.504887"/>
     <use style="fill:#ff0000;stroke:#ff0000;" x="742.975987" xlink:href="#m250e9e0864" y="198.457166"/>
     <use style="fill:#ff0000;stroke:#ff0000;" x="723.244606" xlink:href="#m250e9e0864" y="201.69074"/>
     <use style="fill:#ff0000;stroke:#ff0000;" x="383.819423" xlink:href="#m250e9e0864" y="276.566388"/>
     <use style="fill:#ff0000;stroke:#ff0000;" x="359.347446" xlink:href="#m250e9e0864" y="273.291994"/>
     <use style="fill:#ff0000;stroke:#ff0000;" x="435.436856" xlink:href="#m250e9e0864" y="346.760407"/>
     <use style="fill:#ff0000;stroke:#ff0000;" x="403.149192" xlink:href="#m250e9e0864" y="364.744897"/>
     <use style="fill:#ff0000;stroke:#ff0000;" x="453.935404" xlink:href="#m250e9e0864" y="390.846011"/>
     <use style="fill:#ff0000;stroke:#ff0000;" x="439.858296" xlink:href="#m250e9e0864" y="414.927272"/>
     <use style="fill:#ff0000;stroke:#ff0000;" x="413.063031" xlink:href="#m250e9e0864" y="441.475885"/>
     <use style="fill:#ff0000;stroke:#ff0000;" x="395.149077" xlink:href="#m250e9e0864" y="448.569391"/>
     <use style="fill:#ff0000;stroke:#ff0000;" x="412.495354" xlink:href="#m250e9e0864" y="509.00208"/>
     <use style="fill:#ff0000;stroke:#ff0000;" x="468.31517" xlink:href="#m250e9e0864" y="492.581429"/>
     <use style="fill:#ff0000;stroke:#ff0000;" x="434.484255" xlink:href="#m250e9e0864" y="515.101581"/>
     <use style="fill:#ff0000;stroke:#ff0000;" x="449.254023" xlink:href="#m250e9e0864" y="515.037882"/>
     <use style="fill:#ff0000;stroke:#ff0000;" x="466.549214" xlink:href="#m250e9e0864" y="512.693384"/>
     <use style="fill:#ff0000;stroke:#ff0000;" x="456.880563" xlink:href="#m250e9e0864" y="526.347513"/>
     <use style="fill:#ff0000;stroke:#ff0000;" x="472.549241" xlink:href="#m250e9e0864" y="541.209358"/>
     <use style="fill:#ff0000;stroke:#ff0000;" x="517.845477" xlink:href="#m250e9e0864" y="508.557077"/>
     <use style="fill:#ff0000;stroke:#ff0000;" x="578.947207" xlink:href="#m250e9e0864" y="504.142698"/>
     <use style="fill:#ff0000;stroke:#ff0000;" x="588.587088" xlink:href="#m250e9e0864" y="634.464885"/>
     <use style="fill:#ff0000;stroke:#ff0000;" x="636.258848" xlink:href="#m250e9e0864" y="623.834413"/>
     <use style="fill:#ff0000;stroke:#ff0000;" x="645.441699" xlink:href="#m250e9e0864" y="613.975237"/>
     <use style="fill:#ff0000;stroke:#ff0000;" x="661.690892" xlink:href="#m250e9e0864" y="626.265948"/>
     <use style="fill:#ff0000;stroke:#ff0000;" x="667.399011" xlink:href="#m250e9e0864" y="609.209859"/>
     <use style="fill:#ff0000;stroke:#ff0000;" x="670.541338" xlink:href="#m250e9e0864" y="591.259494"/>
     <use style="fill:#ff0000;stroke:#ff0000;" x="697.181105" xlink:href="#m250e9e0864" y="596.896783"/>
     <use style="fill:#ff0000;stroke:#ff0000;" x="760.838177" xlink:href="#m250e9e0864" y="590.388089"/>
     <use style="fill:#ff0000;stroke:#ff0000;" x="805.04983" xlink:href="#m250e9e0864" y="583.529266"/>
     <use style="fill:#ff0000;stroke:#ff0000;" x="832.316912" xlink:href="#m250e9e0864" y="587.582072"/>
     <use style="fill:#ff0000;stroke:#ff0000;" x="849.794761" xlink:href="#m250e9e0864" y="569.553597"/>
     <use style="fill:#ff0000;stroke:#ff0000;" x="877.122891" xlink:href="#m250e9e0864" y="569.583413"/>
     <use style="fill:#ff0000;stroke:#ff0000;" x="901.761728" xlink:href="#m250e9e0864" y="552.551797"/>
     <use style="fill:#ff0000;stroke:#ff0000;" x="940.417086" xlink:href="#m250e9e0864" y="552.358966"/>
     <use style="fill:#ff0000;stroke:#ff0000;" x="1057.899949" xlink:href="#m250e9e0864" y="554.679216"/>
     <use style="fill:#ff0000;stroke:#ff0000;" x="1092.767027" xlink:href="#m250e9e0864" y="525.868305"/>
     <use style="fill:#ff0000;stroke:#ff0000;" x="1100.208261" xlink:href="#m250e9e0864" y="508.766302"/>
    </g>
   </g>
   <g id="line2d_34">
    <defs>
     <path d="M -0.5 0.5 
L 0.5 0.5 
L 0.5 -0.5 
L -0.5 -0.5 
z
" id="mbe5e5875e2" style="stroke:#1f77b4;stroke-linejoin:miter;"/>
    </defs>
    <g clip-path="url(#p8f6ba36ad3)">
     <use style="fill:#1f77b4;stroke:#1f77b4;stroke-linejoin:miter;" x="1181.851846" xlink:href="#mbe5e5875e2" y="494.831975"/>
     <use style="fill:#1f77b4;stroke:#1f77b4;stroke-linejoin:miter;" x="1411.357674" xlink:href="#mbe5e5875e2" y="489.504636"/>
     <use style="fill:#1f77b4;stroke:#1f77b4;stroke-linejoin:miter;" x="1265.96683" xlink:href="#mbe5e5875e2" y="338.04026"/>
     <use style="fill:#1f77b4;stroke:#1f77b4;stroke-linejoin:miter;" x="1321.955773" xlink:href="#mbe5e5875e2" y="276.300296"/>
     <use style="fill:#1f77b4;stroke:#1f77b4;stroke-linejoin:miter;" x="650.132963" xlink:href="#mbe5e5875e2" y="399.485284"/>
     <use style="fill:#1f77b4;stroke:#1f77b4;stroke-linejoin:miter;" x="647.288942" xlink:href="#mbe5e5875e2" y="397.772111"/>
     <use style="fill:#1f77b4;stroke:#1f77b4;stroke-linejoin:miter;" x="646.027002" xlink:href="#mbe5e5875e2" y="395.094378"/>
     <use style="fill:#1f77b4;stroke:#1f77b4;stroke-linejoin:miter;" x="643.233317" xlink:href="#mbe5e5875e2" y="393.214512"/>
     <use style="fill:#1f77b4;stroke:#1f77b4;stroke-linejoin:miter;" x="641.828652" xlink:href="#mbe5e5875e2" y="390.369622"/>
     <use style="fill:#1f77b4;stroke:#1f77b4;stroke-linejoin:miter;" x="643.740108" xlink:href="#mbe5e5875e2" y="384.403561"/>
     <use style="fill:#1f77b4;stroke:#1f77b4;stroke-linejoin:miter;" x="763.099249" xlink:href="#mbe5e5875e2" y="196.504887"/>
     <use style="fill:#1f77b4;stroke:#1f77b4;stroke-linejoin:miter;" x="742.975987" xlink:href="#mbe5e5875e2" y="198.457166"/>
     <use style="fill:#1f77b4;stroke:#1f77b4;stroke-linejoin:miter;" x="723.244606" xlink:href="#mbe5e5875e2" y="201.69074"/>
     <use style="fill:#1f77b4;stroke:#1f77b4;stroke-linejoin:miter;" x="704.720151" xlink:href="#mbe5e5875e2" y="205.022249"/>
     <use style="fill:#1f77b4;stroke:#1f77b4;stroke-linejoin:miter;" x="687.518696" xlink:href="#mbe5e5875e2" y="207.447635"/>
     <use style="fill:#1f77b4;stroke:#1f77b4;stroke-linejoin:miter;" x="670.928243" xlink:href="#mbe5e5875e2" y="210.153656"/>
     <use style="fill:#1f77b4;stroke:#1f77b4;stroke-linejoin:miter;" x="655.519078" xlink:href="#mbe5e5875e2" y="212.241653"/>
     <use style="fill:#1f77b4;stroke:#1f77b4;stroke-linejoin:miter;" x="640.511914" xlink:href="#mbe5e5875e2" y="214.661864"/>
     <use style="fill:#1f77b4;stroke:#1f77b4;stroke-linejoin:miter;" x="625.172026" xlink:href="#mbe5e5875e2" y="216.888373"/>
     <use style="fill:#1f77b4;stroke:#1f77b4;stroke-linejoin:miter;" x="611.166154" xlink:href="#mbe5e5875e2" y="219.282792"/>
     <use style="fill:#1f77b4;stroke:#1f77b4;stroke-linejoin:miter;" x="597.338182" xlink:href="#mbe5e5875e2" y="223.347614"/>
     <use style="fill:#1f77b4;stroke:#1f77b4;stroke-linejoin:miter;" x="584.054835" xlink:href="#mbe5e5875e2" y="224.917778"/>
     <use style="fill:#1f77b4;stroke:#1f77b4;stroke-linejoin:miter;" x="571.040766" xlink:href="#mbe5e5875e2" y="225.899362"/>
     <use style="fill:#1f77b4;stroke:#1f77b4;stroke-linejoin:miter;" x="557.914678" xlink:href="#mbe5e5875e2" y="227.406103"/>
     <use style="fill:#1f77b4;stroke:#1f77b4;stroke-linejoin:miter;" x="545.596127" xlink:href="#mbe5e5875e2" y="232.023979"/>
     <use style="fill:#1f77b4;stroke:#1f77b4;stroke-linejoin:miter;" x="533.303557" xlink:href="#mbe5e5875e2" y="235.348186"/>
     <use style="fill:#1f77b4;stroke:#1f77b4;stroke-linejoin:miter;" x="520.666346" xlink:href="#mbe5e5875e2" y="237.187904"/>
     <use style="fill:#1f77b4;stroke:#1f77b4;stroke-linejoin:miter;" x="507.820228" xlink:href="#mbe5e5875e2" y="238.7151"/>
     <use style="fill:#1f77b4;stroke:#1f77b4;stroke-linejoin:miter;" x="495.975956" xlink:href="#mbe5e5875e2" y="242.346252"/>
     <use style="fill:#1f77b4;stroke:#1f77b4;stroke-linejoin:miter;" x="482.429775" xlink:href="#mbe5e5875e2" y="243.424336"/>
     <use style="fill:#1f77b4;stroke:#1f77b4;stroke-linejoin:miter;" x="469.428393" xlink:href="#mbe5e5875e2" y="245.593327"/>
     <use style="fill:#1f77b4;stroke:#1f77b4;stroke-linejoin:miter;" x="455.865602" xlink:href="#mbe5e5875e2" y="247.404806"/>
     <use style="fill:#1f77b4;stroke:#1f77b4;stroke-linejoin:miter;" x="441.876945" xlink:href="#mbe5e5875e2" y="249.367333"/>
     <use style="fill:#1f77b4;stroke:#1f77b4;stroke-linejoin:miter;" x="427.262095" xlink:href="#mbe5e5875e2" y="251.014236"/>
     <use style="fill:#1f77b4;stroke:#1f77b4;stroke-linejoin:miter;" x="406.447966" xlink:href="#mbe5e5875e2" y="264.668059"/>
     <use style="fill:#1f77b4;stroke:#1f77b4;stroke-linejoin:miter;" x="397.124544" xlink:href="#mbe5e5875e2" y="272.275656"/>
     <use style="fill:#1f77b4;stroke:#1f77b4;stroke-linejoin:miter;" x="383.819423" xlink:href="#mbe5e5875e2" y="276.566388"/>
     <use style="fill:#1f77b4;stroke:#1f77b4;stroke-linejoin:miter;" x="359.347446" xlink:href="#mbe5e5875e2" y="273.291994"/>
     <use style="fill:#1f77b4;stroke:#1f77b4;stroke-linejoin:miter;" x="435.436856" xlink:href="#mbe5e5875e2" y="346.760407"/>
     <use style="fill:#1f77b4;stroke:#1f77b4;stroke-linejoin:miter;" x="420.764059" xlink:href="#mbe5e5875e2" y="347.139954"/>
     <use style="fill:#1f77b4;stroke:#1f77b4;stroke-linejoin:miter;" x="420.526474" xlink:href="#mbe5e5875e2" y="355.726145"/>
     <use style="fill:#1f77b4;stroke:#1f77b4;stroke-linejoin:miter;" x="406.358532" xlink:href="#mbe5e5875e2" y="357.639725"/>
     <use style="fill:#1f77b4;stroke:#1f77b4;stroke-linejoin:miter;" x="403.149192" xlink:href="#mbe5e5875e2" y="364.744897"/>
     <use style="fill:#1f77b4;stroke:#1f77b4;stroke-linejoin:miter;" x="453.935404" xlink:href="#mbe5e5875e2" y="390.846011"/>
     <use style="fill:#1f77b4;stroke:#1f77b4;stroke-linejoin:miter;" x="454.938567" xlink:href="#mbe5e5875e2" y="396.749103"/>
     <use style="fill:#1f77b4;stroke:#1f77b4;stroke-linejoin:miter;" x="456.904749" xlink:href="#mbe5e5875e2" y="402.613116"/>
     <use style="fill:#1f77b4;stroke:#1f77b4;stroke-linejoin:miter;" x="458.480528" xlink:href="#mbe5e5875e2" y="408.045505"/>
     <use style="fill:#1f77b4;stroke:#1f77b4;stroke-linejoin:miter;" x="457.922316" xlink:href="#mbe5e5875e2" y="412.819304"/>
     <use style="fill:#1f77b4;stroke:#1f77b4;stroke-linejoin:miter;" x="439.858296" xlink:href="#mbe5e5875e2" y="414.927272"/>
     <use style="fill:#1f77b4;stroke:#1f77b4;stroke-linejoin:miter;" x="418.211364" xlink:href="#mbe5e5875e2" y="423.788717"/>
     <use style="fill:#1f77b4;stroke:#1f77b4;stroke-linejoin:miter;" x="420.059642" xlink:href="#mbe5e5875e2" y="429.980178"/>
     <use style="fill:#1f77b4;stroke:#1f77b4;stroke-linejoin:miter;" x="420.520539" xlink:href="#mbe5e5875e2" y="435.491474"/>
     <use style="fill:#1f77b4;stroke:#1f77b4;stroke-linejoin:miter;" x="413.063031" xlink:href="#mbe5e5875e2" y="441.475885"/>
     <use style="fill:#1f77b4;stroke:#1f77b4;stroke-linejoin:miter;" x="395.149077" xlink:href="#mbe5e5875e2" y="448.569391"/>
     <use style="fill:#1f77b4;stroke:#1f77b4;stroke-linejoin:miter;" x="397.171893" xlink:href="#mbe5e5875e2" y="455.196243"/>
     <use style="fill:#1f77b4;stroke:#1f77b4;stroke-linejoin:miter;" x="400.063802" xlink:href="#mbe5e5875e2" y="461.528115"/>
     <use style="fill:#1f77b4;stroke:#1f77b4;stroke-linejoin:miter;" x="401.793276" xlink:href="#mbe5e5875e2" y="468.121505"/>
     <use style="fill:#1f77b4;stroke:#1f77b4;stroke-linejoin:miter;" x="402.844057" xlink:href="#mbe5e5875e2" y="474.832563"/>
     <use style="fill:#1f77b4;stroke:#1f77b4;stroke-linejoin:miter;" x="404.141054" xlink:href="#mbe5e5875e2" y="481.584008"/>
     <use style="fill:#1f77b4;stroke:#1f77b4;stroke-linejoin:miter;" x="406.563219" xlink:href="#mbe5e5875e2" y="488.09201"/>
     <use style="fill:#1f77b4;stroke:#1f77b4;stroke-linejoin:miter;" x="408.04321" xlink:href="#mbe5e5875e2" y="495.184391"/>
     <use style="fill:#1f77b4;stroke:#1f77b4;stroke-linejoin:miter;" x="412.495354" xlink:href="#mbe5e5875e2" y="509.00208"/>
     <use style="fill:#1f77b4;stroke:#1f77b4;stroke-linejoin:miter;" x="468.31517" xlink:href="#mbe5e5875e2" y="492.581429"/>
     <use style="fill:#1f77b4;stroke:#1f77b4;stroke-linejoin:miter;" x="434.484255" xlink:href="#mbe5e5875e2" y="515.101581"/>
     <use style="fill:#1f77b4;stroke:#1f77b4;stroke-linejoin:miter;" x="449.254023" xlink:href="#mbe5e5875e2" y="515.037882"/>
     <use style="fill:#1f77b4;stroke:#1f77b4;stroke-linejoin:miter;" x="466.549214" xlink:href="#mbe5e5875e2" y="512.693384"/>
     <use style="fill:#1f77b4;stroke:#1f77b4;stroke-linejoin:miter;" x="456.880563" xlink:href="#mbe5e5875e2" y="526.347513"/>
     <use style="fill:#1f77b4;stroke:#1f77b4;stroke-linejoin:miter;" x="456.697466" xlink:href="#mbe5e5875e2" y="535.030434"/>
     <use style="fill:#1f77b4;stroke:#1f77b4;stroke-linejoin:miter;" x="467.679325" xlink:href="#mbe5e5875e2" y="535.898263"/>
     <use style="fill:#1f77b4;stroke:#1f77b4;stroke-linejoin:miter;" x="472.549241" xlink:href="#mbe5e5875e2" y="541.209358"/>
     <use style="fill:#1f77b4;stroke:#1f77b4;stroke-linejoin:miter;" x="517.845477" xlink:href="#mbe5e5875e2" y="508.557077"/>
     <use style="fill:#1f77b4;stroke:#1f77b4;stroke-linejoin:miter;" x="529.937512" xlink:href="#mbe5e5875e2" y="503.155064"/>
     <use style="fill:#1f77b4;stroke:#1f77b4;stroke-linejoin:miter;" x="537.094551" xlink:href="#mbe5e5875e2" y="501.537592"/>
     <use style="fill:#1f77b4;stroke:#1f77b4;stroke-linejoin:miter;" x="544.068574" xlink:href="#mbe5e5875e2" y="499.782138"/>
     <use style="fill:#1f77b4;stroke:#1f77b4;stroke-linejoin:miter;" x="549.92445" xlink:href="#mbe5e5875e2" y="498.589251"/>
     <use style="fill:#1f77b4;stroke:#1f77b4;stroke-linejoin:miter;" x="554.388061" xlink:href="#mbe5e5875e2" y="498.873511"/>
     <use style="fill:#1f77b4;stroke:#1f77b4;stroke-linejoin:miter;" x="557.166903" xlink:href="#mbe5e5875e2" y="502.170882"/>
     <use style="fill:#1f77b4;stroke:#1f77b4;stroke-linejoin:miter;" x="561.06478" xlink:href="#mbe5e5875e2" y="503.847081"/>
     <use style="fill:#1f77b4;stroke:#1f77b4;stroke-linejoin:miter;" x="564.704039" xlink:href="#mbe5e5875e2" y="506.628264"/>
     <use style="fill:#1f77b4;stroke:#1f77b4;stroke-linejoin:miter;" x="569.404323" xlink:href="#mbe5e5875e2" y="506.169273"/>
     <use style="fill:#1f77b4;stroke:#1f77b4;stroke-linejoin:miter;" x="574.611841" xlink:href="#mbe5e5875e2" y="504.121782"/>
     <use style="fill:#1f77b4;stroke:#1f77b4;stroke-linejoin:miter;" x="578.947207" xlink:href="#mbe5e5875e2" y="504.142698"/>
     <use style="fill:#1f77b4;stroke:#1f77b4;stroke-linejoin:miter;" x="588.587088" xlink:href="#mbe5e5875e2" y="634.464885"/>
     <use style="fill:#1f77b4;stroke:#1f77b4;stroke-linejoin:miter;" x="600.675938" xlink:href="#mbe5e5875e2" y="632.573806"/>
     <use style="fill:#1f77b4;stroke:#1f77b4;stroke-linejoin:miter;" x="614.400673" xlink:href="#mbe5e5875e2" y="641.383385"/>
     <use style="fill:#1f77b4;stroke:#1f77b4;stroke-linejoin:miter;" x="627.00557" xlink:href="#mbe5e5875e2" y="640.073803"/>
     <use style="fill:#1f77b4;stroke:#1f77b4;stroke-linejoin:miter;" x="636.258848" xlink:href="#mbe5e5875e2" y="623.834413"/>
     <use style="fill:#1f77b4;stroke:#1f77b4;stroke-linejoin:miter;" x="645.441699" xlink:href="#mbe5e5875e2" y="613.975237"/>
     <use style="fill:#1f77b4;stroke:#1f77b4;stroke-linejoin:miter;" x="661.690892" xlink:href="#mbe5e5875e2" y="626.265948"/>
     <use style="fill:#1f77b4;stroke:#1f77b4;stroke-linejoin:miter;" x="667.399011" xlink:href="#mbe5e5875e2" y="609.209859"/>
     <use style="fill:#1f77b4;stroke:#1f77b4;stroke-linejoin:miter;" x="670.541338" xlink:href="#mbe5e5875e2" y="591.259494"/>
     <use style="fill:#1f77b4;stroke:#1f77b4;stroke-linejoin:miter;" x="686.36184" xlink:href="#mbe5e5875e2" y="599.193466"/>
     <use style="fill:#1f77b4;stroke:#1f77b4;stroke-linejoin:miter;" x="697.181105" xlink:href="#mbe5e5875e2" y="596.896783"/>
     <use style="fill:#1f77b4;stroke:#1f77b4;stroke-linejoin:miter;" x="760.838177" xlink:href="#mbe5e5875e2" y="590.388089"/>
     <use style="fill:#1f77b4;stroke:#1f77b4;stroke-linejoin:miter;" x="772.935707" xlink:href="#mbe5e5875e2" y="586.722726"/>
     <use style="fill:#1f77b4;stroke:#1f77b4;stroke-linejoin:miter;" x="785.40058" xlink:href="#mbe5e5875e2" y="582.820562"/>
     <use style="fill:#1f77b4;stroke:#1f77b4;stroke-linejoin:miter;" x="805.04983" xlink:href="#mbe5e5875e2" y="583.529266"/>
     <use style="fill:#1f77b4;stroke:#1f77b4;stroke-linejoin:miter;" x="832.316912" xlink:href="#mbe5e5875e2" y="587.582072"/>
     <use style="fill:#1f77b4;stroke:#1f77b4;stroke-linejoin:miter;" x="834.788091" xlink:href="#mbe5e5875e2" y="574.720193"/>
     <use style="fill:#1f77b4;stroke:#1f77b4;stroke-linejoin:miter;" x="849.794761" xlink:href="#mbe5e5875e2" y="569.553597"/>
     <use style="fill:#1f77b4;stroke:#1f77b4;stroke-linejoin:miter;" x="877.122891" xlink:href="#mbe5e5875e2" y="569.583413"/>
     <use style="fill:#1f77b4;stroke:#1f77b4;stroke-linejoin:miter;" x="883.408387" xlink:href="#mbe5e5875e2" y="558.517235"/>
     <use style="fill:#1f77b4;stroke:#1f77b4;stroke-linejoin:miter;" x="901.761728" xlink:href="#mbe5e5875e2" y="552.551797"/>
     <use style="fill:#1f77b4;stroke:#1f77b4;stroke-linejoin:miter;" x="940.417086" xlink:href="#mbe5e5875e2" y="552.358966"/>
     <use style="fill:#1f77b4;stroke:#1f77b4;stroke-linejoin:miter;" x="1057.899949" xlink:href="#mbe5e5875e2" y="554.679216"/>
     <use style="fill:#1f77b4;stroke:#1f77b4;stroke-linejoin:miter;" x="1092.767027" xlink:href="#mbe5e5875e2" y="525.868305"/>
     <use style="fill:#1f77b4;stroke:#1f77b4;stroke-linejoin:miter;" x="1100.208261" xlink:href="#mbe5e5875e2" y="508.766302"/>
    </g>
   </g>
   <g id="patch_3">
    <path d="M 144 768.96 
L 144 103.68 
" style="fill:none;stroke:#000000;stroke-linecap:square;stroke-linejoin:miter;stroke-width:0.8;"/>
   </g>
   <g id="patch_4">
    <path d="M 1036.8 768.96 
L 1036.8 103.68 
" style="fill:none;stroke:#000000;stroke-linecap:square;stroke-linejoin:miter;stroke-width:0.8;"/>
   </g>
   <g id="patch_5">
    <path d="M 144 768.96 
L 1036.8 768.96 
" style="fill:none;stroke:#000000;stroke-linecap:square;stroke-linejoin:miter;stroke-width:0.8;"/>
   </g>
   <g id="patch_6">
    <path d="M 144 103.68 
L 1036.8 103.68 
" style="fill:none;stroke:#000000;stroke-linecap:square;stroke-linejoin:miter;stroke-width:0.8;"/>
   </g>
  </g>
 </g>
 <defs>
  <clipPath id="p8f6ba36ad3">
   <rect height="665.28" width="892.8" x="144" y="103.68"/>
  </clipPath>
 </defs>
</svg>
