<?xml version="1.0" encoding="utf-8" standalone="no"?>
<!DOCTYPE svg PUBLIC "-//W3C//DTD SVG 1.1//EN"
  "http://www.w3.org/Graphics/SVG/1.1/DTD/svg11.dtd">
<!-- Created with matplotlib (http://matplotlib.org/) -->
<svg height="864pt" version="1.1" viewBox="0 0 1152 864" width="1152pt" xmlns="http://www.w3.org/2000/svg" xmlns:xlink="http://www.w3.org/1999/xlink">
 <defs>
  <style type="text/css">
*{stroke-linecap:butt;stroke-linejoin:round;}
  </style>
 </defs>
 <g id="figure_1">
  <g id="patch_1">
   <path d="M 0 864 
L 1152 864 
L 1152 0 
L 0 0 
z
" style="fill:#ffffff;"/>
  </g>
  <g id="axes_1">
   <g id="patch_2">
    <path d="M 144 768.96 
L 1036.8 768.96 
L 1036.8 103.68 
L 144 103.68 
z
" style="fill:#ffffff;"/>
   </g>
   <g id="matplotlib.axis_1">
    <g id="xtick_1">
     <g id="line2d_1">
      <defs>
       <path d="M 0 0 
L 0 3.5 
" id="m22932ef280" style="stroke:#000000;stroke-width:0.8;"/>
      </defs>
      <g>
       <use style="stroke:#000000;stroke-width:0.8;" x="144" xlink:href="#m22932ef280" y="768.96"/>
      </g>
     </g>
     <g id="text_1">
      <!-- −4000 -->
      <defs>
       <path d="M 10.59375 35.5 
L 73.1875 35.5 
L 73.1875 27.203125 
L 10.59375 27.203125 
z
" id="DejaVuSans-2212"/>
       <path d="M 37.796875 64.3125 
L 12.890625 25.390625 
L 37.796875 25.390625 
z
M 35.203125 72.90625 
L 47.609375 72.90625 
L 47.609375 25.390625 
L 58.015625 25.390625 
L 58.015625 17.1875 
L 47.609375 17.1875 
L 47.609375 0 
L 37.796875 0 
L 37.796875 17.1875 
L 4.890625 17.1875 
L 4.890625 26.703125 
z
" id="DejaVuSans-34"/>
       <path d="M 31.78125 66.40625 
Q 24.171875 66.40625 20.328125 58.90625 
Q 16.5 51.421875 16.5 36.375 
Q 16.5 21.390625 20.328125 13.890625 
Q 24.171875 6.390625 31.78125 6.390625 
Q 39.453125 6.390625 43.28125 13.890625 
Q 47.125 21.390625 47.125 36.375 
Q 47.125 51.421875 43.28125 58.90625 
Q 39.453125 66.40625 31.78125 66.40625 
z
M 31.78125 74.21875 
Q 44.046875 74.21875 50.515625 64.515625 
Q 56.984375 54.828125 56.984375 36.375 
Q 56.984375 17.96875 50.515625 8.265625 
Q 44.046875 -1.421875 31.78125 -1.421875 
Q 19.53125 -1.421875 13.0625 8.265625 
Q 6.59375 17.96875 6.59375 36.375 
Q 6.59375 54.828125 13.0625 64.515625 
Q 19.53125 74.21875 31.78125 74.21875 
z
" id="DejaVuSans-30"/>
      </defs>
      <g transform="translate(127.085156 783.558437)scale(0.1 -0.1)">
       <use xlink:href="#DejaVuSans-2212"/>
       <use x="83.789062" xlink:href="#DejaVuSans-34"/>
       <use x="147.412109" xlink:href="#DejaVuSans-30"/>
       <use x="211.035156" xlink:href="#DejaVuSans-30"/>
       <use x="274.658203" xlink:href="#DejaVuSans-30"/>
      </g>
     </g>
    </g>
    <g id="xtick_2">
     <g id="line2d_2">
      <g>
       <use style="stroke:#000000;stroke-width:0.8;" x="255.6" xlink:href="#m22932ef280" y="768.96"/>
      </g>
     </g>
     <g id="text_2">
      <!-- −3000 -->
      <defs>
       <path d="M 40.578125 39.3125 
Q 47.65625 37.796875 51.625 33 
Q 55.609375 28.21875 55.609375 21.1875 
Q 55.609375 10.40625 48.1875 4.484375 
Q 40.765625 -1.421875 27.09375 -1.421875 
Q 22.515625 -1.421875 17.65625 -0.515625 
Q 12.796875 0.390625 7.625 2.203125 
L 7.625 11.71875 
Q 11.71875 9.328125 16.59375 8.109375 
Q 21.484375 6.890625 26.8125 6.890625 
Q 36.078125 6.890625 40.9375 10.546875 
Q 45.796875 14.203125 45.796875 21.1875 
Q 45.796875 27.640625 41.28125 31.265625 
Q 36.765625 34.90625 28.71875 34.90625 
L 20.21875 34.90625 
L 20.21875 43.015625 
L 29.109375 43.015625 
Q 36.375 43.015625 40.234375 45.921875 
Q 44.09375 48.828125 44.09375 54.296875 
Q 44.09375 59.90625 40.109375 62.90625 
Q 36.140625 65.921875 28.71875 65.921875 
Q 24.65625 65.921875 20.015625 65.03125 
Q 15.375 64.15625 9.8125 62.3125 
L 9.8125 71.09375 
Q 15.4375 72.65625 20.34375 73.4375 
Q 25.25 74.21875 29.59375 74.21875 
Q 40.828125 74.21875 47.359375 69.109375 
Q 53.90625 64.015625 53.90625 55.328125 
Q 53.90625 49.265625 50.4375 45.09375 
Q 46.96875 40.921875 40.578125 39.3125 
z
" id="DejaVuSans-33"/>
      </defs>
      <g transform="translate(238.685156 783.558437)scale(0.1 -0.1)">
       <use xlink:href="#DejaVuSans-2212"/>
       <use x="83.789062" xlink:href="#DejaVuSans-33"/>
       <use x="147.412109" xlink:href="#DejaVuSans-30"/>
       <use x="211.035156" xlink:href="#DejaVuSans-30"/>
       <use x="274.658203" xlink:href="#DejaVuSans-30"/>
      </g>
     </g>
    </g>
    <g id="xtick_3">
     <g id="line2d_3">
      <g>
       <use style="stroke:#000000;stroke-width:0.8;" x="367.2" xlink:href="#m22932ef280" y="768.96"/>
      </g>
     </g>
     <g id="text_3">
      <!-- −2000 -->
      <defs>
       <path d="M 19.1875 8.296875 
L 53.609375 8.296875 
L 53.609375 0 
L 7.328125 0 
L 7.328125 8.296875 
Q 12.9375 14.109375 22.625 23.890625 
Q 32.328125 33.6875 34.8125 36.53125 
Q 39.546875 41.84375 41.421875 45.53125 
Q 43.3125 49.21875 43.3125 52.78125 
Q 43.3125 58.59375 39.234375 62.25 
Q 35.15625 65.921875 28.609375 65.921875 
Q 23.96875 65.921875 18.8125 64.3125 
Q 13.671875 62.703125 7.8125 59.421875 
L 7.8125 69.390625 
Q 13.765625 71.78125 18.9375 73 
Q 24.125 74.21875 28.421875 74.21875 
Q 39.75 74.21875 46.484375 68.546875 
Q 53.21875 62.890625 53.21875 53.421875 
Q 53.21875 48.921875 51.53125 44.890625 
Q 49.859375 40.875 45.40625 35.40625 
Q 44.1875 33.984375 37.640625 27.21875 
Q 31.109375 20.453125 19.1875 8.296875 
z
" id="DejaVuSans-32"/>
      </defs>
      <g transform="translate(350.285156 783.558437)scale(0.1 -0.1)">
       <use xlink:href="#DejaVuSans-2212"/>
       <use x="83.789062" xlink:href="#DejaVuSans-32"/>
       <use x="147.412109" xlink:href="#DejaVuSans-30"/>
       <use x="211.035156" xlink:href="#DejaVuSans-30"/>
       <use x="274.658203" xlink:href="#DejaVuSans-30"/>
      </g>
     </g>
    </g>
    <g id="xtick_4">
     <g id="line2d_4">
      <g>
       <use style="stroke:#000000;stroke-width:0.8;" x="478.8" xlink:href="#m22932ef280" y="768.96"/>
      </g>
     </g>
     <g id="text_4">
      <!-- −1000 -->
      <defs>
       <path d="M 12.40625 8.296875 
L 28.515625 8.296875 
L 28.515625 63.921875 
L 10.984375 60.40625 
L 10.984375 69.390625 
L 28.421875 72.90625 
L 38.28125 72.90625 
L 38.28125 8.296875 
L 54.390625 8.296875 
L 54.390625 0 
L 12.40625 0 
z
" id="DejaVuSans-31"/>
      </defs>
      <g transform="translate(461.885156 783.558437)scale(0.1 -0.1)">
       <use xlink:href="#DejaVuSans-2212"/>
       <use x="83.789062" xlink:href="#DejaVuSans-31"/>
       <use x="147.412109" xlink:href="#DejaVuSans-30"/>
       <use x="211.035156" xlink:href="#DejaVuSans-30"/>
       <use x="274.658203" xlink:href="#DejaVuSans-30"/>
      </g>
     </g>
    </g>
    <g id="xtick_5">
     <g id="line2d_5">
      <g>
       <use style="stroke:#000000;stroke-width:0.8;" x="590.4" xlink:href="#m22932ef280" y="768.96"/>
      </g>
     </g>
     <g id="text_5">
      <!-- 0 -->
      <g transform="translate(587.21875 783.558437)scale(0.1 -0.1)">
       <use xlink:href="#DejaVuSans-30"/>
      </g>
     </g>
    </g>
    <g id="xtick_6">
     <g id="line2d_6">
      <g>
       <use style="stroke:#000000;stroke-width:0.8;" x="702" xlink:href="#m22932ef280" y="768.96"/>
      </g>
     </g>
     <g id="text_6">
      <!-- 1000 -->
      <g transform="translate(689.275 783.558437)scale(0.1 -0.1)">
       <use xlink:href="#DejaVuSans-31"/>
       <use x="63.623047" xlink:href="#DejaVuSans-30"/>
       <use x="127.246094" xlink:href="#DejaVuSans-30"/>
       <use x="190.869141" xlink:href="#DejaVuSans-30"/>
      </g>
     </g>
    </g>
    <g id="xtick_7">
     <g id="line2d_7">
      <g>
       <use style="stroke:#000000;stroke-width:0.8;" x="813.6" xlink:href="#m22932ef280" y="768.96"/>
      </g>
     </g>
     <g id="text_7">
      <!-- 2000 -->
      <g transform="translate(800.875 783.558437)scale(0.1 -0.1)">
       <use xlink:href="#DejaVuSans-32"/>
       <use x="63.623047" xlink:href="#DejaVuSans-30"/>
       <use x="127.246094" xlink:href="#DejaVuSans-30"/>
       <use x="190.869141" xlink:href="#DejaVuSans-30"/>
      </g>
     </g>
    </g>
    <g id="xtick_8">
     <g id="line2d_8">
      <g>
       <use style="stroke:#000000;stroke-width:0.8;" x="925.2" xlink:href="#m22932ef280" y="768.96"/>
      </g>
     </g>
     <g id="text_8">
      <!-- 3000 -->
      <g transform="translate(912.475 783.558437)scale(0.1 -0.1)">
       <use xlink:href="#DejaVuSans-33"/>
       <use x="63.623047" xlink:href="#DejaVuSans-30"/>
       <use x="127.246094" xlink:href="#DejaVuSans-30"/>
       <use x="190.869141" xlink:href="#DejaVuSans-30"/>
      </g>
     </g>
    </g>
    <g id="xtick_9">
     <g id="line2d_9">
      <g>
       <use style="stroke:#000000;stroke-width:0.8;" x="1036.8" xlink:href="#m22932ef280" y="768.96"/>
      </g>
     </g>
     <g id="text_9">
      <!-- 4000 -->
      <g transform="translate(1024.075 783.558437)scale(0.1 -0.1)">
       <use xlink:href="#DejaVuSans-34"/>
       <use x="63.623047" xlink:href="#DejaVuSans-30"/>
       <use x="127.246094" xlink:href="#DejaVuSans-30"/>
       <use x="190.869141" xlink:href="#DejaVuSans-30"/>
      </g>
     </g>
    </g>
   </g>
   <g id="matplotlib.axis_2">
    <g id="ytick_1">
     <g id="line2d_10">
      <defs>
       <path d="M 0 0 
L -3.5 0 
" id="m55019df818" style="stroke:#000000;stroke-width:0.8;"/>
      </defs>
      <g>
       <use style="stroke:#000000;stroke-width:0.8;" x="144" xlink:href="#m55019df818" y="768.96"/>
      </g>
     </g>
     <g id="text_10">
      <!-- −4000 -->
      <g transform="translate(103.170312 772.759219)scale(0.1 -0.1)">
       <use xlink:href="#DejaVuSans-2212"/>
       <use x="83.789062" xlink:href="#DejaVuSans-34"/>
       <use x="147.412109" xlink:href="#DejaVuSans-30"/>
       <use x="211.035156" xlink:href="#DejaVuSans-30"/>
       <use x="274.658203" xlink:href="#DejaVuSans-30"/>
      </g>
     </g>
    </g>
    <g id="ytick_2">
     <g id="line2d_11">
      <g>
       <use style="stroke:#000000;stroke-width:0.8;" x="144" xlink:href="#m55019df818" y="685.8"/>
      </g>
     </g>
     <g id="text_11">
      <!-- −3000 -->
      <g transform="translate(103.170312 689.599219)scale(0.1 -0.1)">
       <use xlink:href="#DejaVuSans-2212"/>
       <use x="83.789062" xlink:href="#DejaVuSans-33"/>
       <use x="147.412109" xlink:href="#DejaVuSans-30"/>
       <use x="211.035156" xlink:href="#DejaVuSans-30"/>
       <use x="274.658203" xlink:href="#DejaVuSans-30"/>
      </g>
     </g>
    </g>
    <g id="ytick_3">
     <g id="line2d_12">
      <g>
       <use style="stroke:#000000;stroke-width:0.8;" x="144" xlink:href="#m55019df818" y="602.64"/>
      </g>
     </g>
     <g id="text_12">
      <!-- −2000 -->
      <g transform="translate(103.170312 606.439219)scale(0.1 -0.1)">
       <use xlink:href="#DejaVuSans-2212"/>
       <use x="83.789062" xlink:href="#DejaVuSans-32"/>
       <use x="147.412109" xlink:href="#DejaVuSans-30"/>
       <use x="211.035156" xlink:href="#DejaVuSans-30"/>
       <use x="274.658203" xlink:href="#DejaVuSans-30"/>
      </g>
     </g>
    </g>
    <g id="ytick_4">
     <g id="line2d_13">
      <g>
       <use style="stroke:#000000;stroke-width:0.8;" x="144" xlink:href="#m55019df818" y="519.48"/>
      </g>
     </g>
     <g id="text_13">
      <!-- −1000 -->
      <g transform="translate(103.170312 523.279219)scale(0.1 -0.1)">
       <use xlink:href="#DejaVuSans-2212"/>
       <use x="83.789062" xlink:href="#DejaVuSans-31"/>
       <use x="147.412109" xlink:href="#DejaVuSans-30"/>
       <use x="211.035156" xlink:href="#DejaVuSans-30"/>
       <use x="274.658203" xlink:href="#DejaVuSans-30"/>
      </g>
     </g>
    </g>
    <g id="ytick_5">
     <g id="line2d_14">
      <g>
       <use style="stroke:#000000;stroke-width:0.8;" x="144" xlink:href="#m55019df818" y="436.32"/>
      </g>
     </g>
     <g id="text_14">
      <!-- 0 -->
      <g transform="translate(130.6375 440.119219)scale(0.1 -0.1)">
       <use xlink:href="#DejaVuSans-30"/>
      </g>
     </g>
    </g>
    <g id="ytick_6">
     <g id="line2d_15">
      <g>
       <use style="stroke:#000000;stroke-width:0.8;" x="144" xlink:href="#m55019df818" y="353.16"/>
      </g>
     </g>
     <g id="text_15">
      <!-- 1000 -->
      <g transform="translate(111.55 356.959219)scale(0.1 -0.1)">
       <use xlink:href="#DejaVuSans-31"/>
       <use x="63.623047" xlink:href="#DejaVuSans-30"/>
       <use x="127.246094" xlink:href="#DejaVuSans-30"/>
       <use x="190.869141" xlink:href="#DejaVuSans-30"/>
      </g>
     </g>
    </g>
    <g id="ytick_7">
     <g id="line2d_16">
      <g>
       <use style="stroke:#000000;stroke-width:0.8;" x="144" xlink:href="#m55019df818" y="270"/>
      </g>
     </g>
     <g id="text_16">
      <!-- 2000 -->
      <g transform="translate(111.55 273.799219)scale(0.1 -0.1)">
       <use xlink:href="#DejaVuSans-32"/>
       <use x="63.623047" xlink:href="#DejaVuSans-30"/>
       <use x="127.246094" xlink:href="#DejaVuSans-30"/>
       <use x="190.869141" xlink:href="#DejaVuSans-30"/>
      </g>
     </g>
    </g>
    <g id="ytick_8">
     <g id="line2d_17">
      <g>
       <use style="stroke:#000000;stroke-width:0.8;" x="144" xlink:href="#m55019df818" y="186.84"/>
      </g>
     </g>
     <g id="text_17">
      <!-- 3000 -->
      <g transform="translate(111.55 190.639219)scale(0.1 -0.1)">
       <use xlink:href="#DejaVuSans-33"/>
       <use x="63.623047" xlink:href="#DejaVuSans-30"/>
       <use x="127.246094" xlink:href="#DejaVuSans-30"/>
       <use x="190.869141" xlink:href="#DejaVuSans-30"/>
      </g>
     </g>
    </g>
    <g id="ytick_9">
     <g id="line2d_18">
      <g>
       <use style="stroke:#000000;stroke-width:0.8;" x="144" xlink:href="#m55019df818" y="103.68"/>
      </g>
     </g>
     <g id="text_18">
      <!-- 4000 -->
      <g transform="translate(111.55 107.479219)scale(0.1 -0.1)">
       <use xlink:href="#DejaVuSans-34"/>
       <use x="63.623047" xlink:href="#DejaVuSans-30"/>
       <use x="127.246094" xlink:href="#DejaVuSans-30"/>
       <use x="190.869141" xlink:href="#DejaVuSans-30"/>
      </g>
     </g>
    </g>
   </g>
   <g id="line2d_19">
    <path clip-path="url(#p605bd727a8)" d="M 590.4 768.96 
L 590.4 103.68 
" style="fill:none;stroke:#1f77b4;stroke-linecap:square;stroke-width:1.5;"/>
   </g>
   <g id="line2d_20">
    <path clip-path="url(#p605bd727a8)" d="M 144 436.32 
L 1036.8 436.32 
" style="fill:none;stroke:#1f77b4;stroke-linecap:square;stroke-width:1.5;"/>
   </g>
   <g id="line2d_21">
    <defs>
     <path d="M 0 3 
C 0.795609 3 1.55874 2.683901 2.12132 2.12132 
C 2.683901 1.55874 3 0.795609 3 0 
C 3 -0.795609 2.683901 -1.55874 2.12132 -2.12132 
C 1.55874 -2.683901 0.795609 -3 0 -3 
C -0.795609 -3 -1.55874 -2.683901 -2.12132 -2.12132 
C -2.683901 -1.55874 -3 -0.795609 -3 0 
C -3 0.795609 -2.683901 1.55874 -2.12132 2.12132 
C -1.55874 2.683901 -0.795609 3 0 3 
z
" id="m7669ab2374" style="stroke:#008000;"/>
    </defs>
    <g clip-path="url(#p605bd727a8)">
     <use style="fill:#008000;stroke:#008000;" x="1375.658848" xlink:href="#m7669ab2374" y="503.797145"/>
    </g>
   </g>
   <g id="line2d_22">
    <g clip-path="url(#p605bd727a8)">
     <use style="fill:#008000;stroke:#008000;" x="1078.614271" xlink:href="#m7669ab2374" y="443.364834"/>
    </g>
   </g>
   <g id="line2d_23">
    <g clip-path="url(#p605bd727a8)">
     <use style="fill:#008000;stroke:#008000;" x="1384.705519" xlink:href="#m7669ab2374" y="394.120235"/>
    </g>
   </g>
   <g id="line2d_24">
    <g clip-path="url(#p605bd727a8)">
     <use style="fill:#008000;stroke:#008000;" x="1259.834837" xlink:href="#m7669ab2374" y="329.008622"/>
    </g>
   </g>
   <g id="line2d_25">
    <g clip-path="url(#p605bd727a8)">
     <use style="fill:#008000;stroke:#008000;" x="646.314767" xlink:href="#m7669ab2374" y="393.232917"/>
    </g>
   </g>
   <g id="line2d_26">
    <g clip-path="url(#p605bd727a8)">
     <use style="fill:#008000;stroke:#008000;" x="646.314767" xlink:href="#m7669ab2374" y="393.232917"/>
    </g>
   </g>
   <g id="line2d_27">
    <g clip-path="url(#p605bd727a8)">
     <use style="fill:#008000;stroke:#008000;" x="744.368723" xlink:href="#m7669ab2374" y="198.124996"/>
    </g>
   </g>
   <g id="line2d_28">
    <g clip-path="url(#p605bd727a8)">
     <use style="fill:#008000;stroke:#008000;" x="756.596685" xlink:href="#m7669ab2374" y="592.886919"/>
    </g>
   </g>
   <g id="line2d_29">
    <defs>
     <path d="M 0 1.333333 
C 0.353604 1.333333 0.692773 1.192845 0.942809 0.942809 
C 1.192845 0.692773 1.333333 0.353604 1.333333 0 
C 1.333333 -0.353604 1.192845 -0.692773 0.942809 -0.942809 
C 0.692773 -1.192845 0.353604 -1.333333 0 -1.333333 
C -0.353604 -1.333333 -0.692773 -1.192845 -0.942809 -0.942809 
C -1.192845 -0.692773 -1.333333 -0.353604 -1.333333 0 
C -1.333333 0.353604 -1.192845 0.692773 -0.942809 0.942809 
C -0.692773 1.192845 -0.353604 1.333333 0 1.333333 
z
" id="m7d4cb7bee9" style="stroke:#ff0000;"/>
    </defs>
    <g clip-path="url(#p605bd727a8)">
     <use style="fill:#ff0000;stroke:#ff0000;" x="1375.658848" xlink:href="#m7d4cb7bee9" y="503.797145"/>
     <use style="fill:#ff0000;stroke:#ff0000;" x="1078.614271" xlink:href="#m7d4cb7bee9" y="443.364834"/>
     <use style="fill:#ff0000;stroke:#ff0000;" x="1384.705519" xlink:href="#m7d4cb7bee9" y="394.120235"/>
     <use style="fill:#ff0000;stroke:#ff0000;" x="1259.834837" xlink:href="#m7d4cb7bee9" y="329.008622"/>
     <use style="fill:#ff0000;stroke:#ff0000;" x="1358.804419" xlink:href="#m7d4cb7bee9" y="285.236898"/>
     <use style="fill:#ff0000;stroke:#ff0000;" x="1315.407795" xlink:href="#m7d4cb7bee9" y="266.466344"/>
     <use style="fill:#ff0000;stroke:#ff0000;" x="649.735097" xlink:href="#m7d4cb7bee9" y="398.327518"/>
     <use style="fill:#ff0000;stroke:#ff0000;" x="642.126191" xlink:href="#m7d4cb7bee9" y="388.294729"/>
     <use style="fill:#ff0000;stroke:#ff0000;" x="794.775634" xlink:href="#m7d4cb7bee9" y="195.532916"/>
     <use style="fill:#ff0000;stroke:#ff0000;" x="754.577011" xlink:href="#m7d4cb7bee9" y="196.86356"/>
     <use style="fill:#ff0000;stroke:#ff0000;" x="734.331577" xlink:href="#m7d4cb7bee9" y="199.609263"/>
     <use style="fill:#ff0000;stroke:#ff0000;" x="463.632658" xlink:href="#m7d4cb7bee9" y="246.858306"/>
     <use style="fill:#ff0000;stroke:#ff0000;" x="420.359857" xlink:href="#m7d4cb7bee9" y="251.636181"/>
     <use style="fill:#ff0000;stroke:#ff0000;" x="417.673753" xlink:href="#m7d4cb7bee9" y="266.483137"/>
     <use style="fill:#ff0000;stroke:#ff0000;" x="393.957114" xlink:href="#m7d4cb7bee9" y="290.89331"/>
     <use style="fill:#ff0000;stroke:#ff0000;" x="411.975084" xlink:href="#m7d4cb7bee9" y="316.343602"/>
     <use style="fill:#ff0000;stroke:#ff0000;" x="419.767755" xlink:href="#m7d4cb7bee9" y="341.751206"/>
     <use style="fill:#ff0000;stroke:#ff0000;" x="409.485929" xlink:href="#m7d4cb7bee9" y="362.885868"/>
     <use style="fill:#ff0000;stroke:#ff0000;" x="454.87353" xlink:href="#m7d4cb7bee9" y="393.777331"/>
     <use style="fill:#ff0000;stroke:#ff0000;" x="447.836724" xlink:href="#m7d4cb7bee9" y="413.436587"/>
     <use style="fill:#ff0000;stroke:#ff0000;" x="420.676907" xlink:href="#m7d4cb7bee9" y="438.286068"/>
     <use style="fill:#ff0000;stroke:#ff0000;" x="395.844476" xlink:href="#m7d4cb7bee9" y="445.068021"/>
     <use style="fill:#ff0000;stroke:#ff0000;" x="401.090471" xlink:href="#m7d4cb7bee9" y="464.779936"/>
     <use style="fill:#ff0000;stroke:#ff0000;" x="433.845675" xlink:href="#m7d4cb7bee9" y="465.913551"/>
     <use style="fill:#ff0000;stroke:#ff0000;" x="404.035121" xlink:href="#m7d4cb7bee9" y="477.991821"/>
     <use style="fill:#ff0000;stroke:#ff0000;" x="407.700017" xlink:href="#m7d4cb7bee9" y="491.454121"/>
     <use style="fill:#ff0000;stroke:#ff0000;" x="462.475126" xlink:href="#m7d4cb7bee9" y="486.472732"/>
     <use style="fill:#ff0000;stroke:#ff0000;" x="438.611803" xlink:href="#m7d4cb7bee9" y="502.157924"/>
     <use style="fill:#ff0000;stroke:#ff0000;" x="439.576613" xlink:href="#m7d4cb7bee9" y="516.300575"/>
     <use style="fill:#ff0000;stroke:#ff0000;" x="464.252932" xlink:href="#m7d4cb7bee9" y="517.71836"/>
     <use style="fill:#ff0000;stroke:#ff0000;" x="455.602281" xlink:href="#m7d4cb7bee9" y="540.619152"/>
     <use style="fill:#ff0000;stroke:#ff0000;" x="471.086253" xlink:href="#m7d4cb7bee9" y="537.867598"/>
     <use style="fill:#ff0000;stroke:#ff0000;" x="454.779012" xlink:href="#m7d4cb7bee9" y="562.44879"/>
     <use style="fill:#ff0000;stroke:#ff0000;" x="526.689191" xlink:href="#m7d4cb7bee9" y="503.301363"/>
     <use style="fill:#ff0000;stroke:#ff0000;" x="577.00546" xlink:href="#m7d4cb7bee9" y="503.860847"/>
     <use style="fill:#ff0000;stroke:#ff0000;" x="583.556707" xlink:href="#m7d4cb7bee9" y="619.596083"/>
     <use style="fill:#ff0000;stroke:#ff0000;" x="595.218095" xlink:href="#m7d4cb7bee9" y="642.005718"/>
     <use style="fill:#ff0000;stroke:#ff0000;" x="606.283752" xlink:href="#m7d4cb7bee9" y="617.659536"/>
     <use style="fill:#ff0000;stroke:#ff0000;" x="621.299661" xlink:href="#m7d4cb7bee9" y="640.388751"/>
     <use style="fill:#ff0000;stroke:#ff0000;" x="630.805291" xlink:href="#m7d4cb7bee9" y="623.11889"/>
     <use style="fill:#ff0000;stroke:#ff0000;" x="668.918726" xlink:href="#m7d4cb7bee9" y="626.765539"/>
     <use style="fill:#ff0000;stroke:#ff0000;" x="667.325573" xlink:href="#m7d4cb7bee9" y="594.751156"/>
     <use style="fill:#ff0000;stroke:#ff0000;" x="692.466621" xlink:href="#m7d4cb7bee9" y="598.038999"/>
     <use style="fill:#ff0000;stroke:#ff0000;" x="756.596685" xlink:href="#m7d4cb7bee9" y="592.886919"/>
     <use style="fill:#ff0000;stroke:#ff0000;" x="814.543035" xlink:href="#m7d4cb7bee9" y="581.830803"/>
     <use style="fill:#ff0000;stroke:#ff0000;" x="839.085024" xlink:href="#m7d4cb7bee9" y="569.264624"/>
     <use style="fill:#ff0000;stroke:#ff0000;" x="874.97391" xlink:href="#m7d4cb7bee9" y="574.11136"/>
     <use style="fill:#ff0000;stroke:#ff0000;" x="873.343318" xlink:href="#m7d4cb7bee9" y="559.817292"/>
     <use style="fill:#ff0000;stroke:#ff0000;" x="892.897934" xlink:href="#m7d4cb7bee9" y="554.678448"/>
     <use style="fill:#ff0000;stroke:#ff0000;" x="928.301483" xlink:href="#m7d4cb7bee9" y="554.066676"/>
     <use style="fill:#ff0000;stroke:#ff0000;" x="1055.271939" xlink:href="#m7d4cb7bee9" y="543.260343"/>
     <use style="fill:#ff0000;stroke:#ff0000;" x="1084.610961" xlink:href="#m7d4cb7bee9" y="513.653332"/>
     <use style="fill:#ff0000;stroke:#ff0000;" x="1133.344014" xlink:href="#m7d4cb7bee9" y="501.98368"/>
    </g>
   </g>
   <g id="line2d_30">
    <defs>
     <path d="M -0.5 0.5 
L 0.5 0.5 
L 0.5 -0.5 
L -0.5 -0.5 
z
" id="mb79723cf25" style="stroke:#1f77b4;stroke-linejoin:miter;"/>
    </defs>
    <g clip-path="url(#p605bd727a8)">
     <use style="fill:#1f77b4;stroke:#1f77b4;stroke-linejoin:miter;" x="1375.658848" xlink:href="#mb79723cf25" y="503.797145"/>
     <use style="fill:#1f77b4;stroke:#1f77b4;stroke-linejoin:miter;" x="1078.614271" xlink:href="#mb79723cf25" y="443.364834"/>
     <use style="fill:#1f77b4;stroke:#1f77b4;stroke-linejoin:miter;" x="1384.705519" xlink:href="#mb79723cf25" y="394.120235"/>
     <use style="fill:#1f77b4;stroke:#1f77b4;stroke-linejoin:miter;" x="1259.834837" xlink:href="#mb79723cf25" y="329.008622"/>
     <use style="fill:#1f77b4;stroke:#1f77b4;stroke-linejoin:miter;" x="1358.804419" xlink:href="#mb79723cf25" y="285.236898"/>
     <use style="fill:#1f77b4;stroke:#1f77b4;stroke-linejoin:miter;" x="1315.407795" xlink:href="#mb79723cf25" y="266.466344"/>
     <use style="fill:#1f77b4;stroke:#1f77b4;stroke-linejoin:miter;" x="649.735097" xlink:href="#mb79723cf25" y="398.327518"/>
     <use style="fill:#1f77b4;stroke:#1f77b4;stroke-linejoin:miter;" x="646.213221" xlink:href="#mb79723cf25" y="396.938838"/>
     <use style="fill:#1f77b4;stroke:#1f77b4;stroke-linejoin:miter;" x="644.94141" xlink:href="#mb79723cf25" y="394.325594"/>
     <use style="fill:#1f77b4;stroke:#1f77b4;stroke-linejoin:miter;" x="642.504014" xlink:href="#mb79723cf25" y="392.16914"/>
     <use style="fill:#1f77b4;stroke:#1f77b4;stroke-linejoin:miter;" x="642.126191" xlink:href="#mb79723cf25" y="388.294729"/>
     <use style="fill:#1f77b4;stroke:#1f77b4;stroke-linejoin:miter;" x="794.775634" xlink:href="#mb79723cf25" y="195.532916"/>
     <use style="fill:#1f77b4;stroke:#1f77b4;stroke-linejoin:miter;" x="776.621569" xlink:href="#mb79723cf25" y="193.531423"/>
     <use style="fill:#1f77b4;stroke:#1f77b4;stroke-linejoin:miter;" x="754.577011" xlink:href="#mb79723cf25" y="196.86356"/>
     <use style="fill:#1f77b4;stroke:#1f77b4;stroke-linejoin:miter;" x="734.331577" xlink:href="#mb79723cf25" y="199.609263"/>
     <use style="fill:#1f77b4;stroke:#1f77b4;stroke-linejoin:miter;" x="715.155313" xlink:href="#mb79723cf25" y="203.306826"/>
     <use style="fill:#1f77b4;stroke:#1f77b4;stroke-linejoin:miter;" x="697.257857" xlink:href="#mb79723cf25" y="205.885199"/>
     <use style="fill:#1f77b4;stroke:#1f77b4;stroke-linejoin:miter;" x="680.167343" xlink:href="#mb79723cf25" y="208.905996"/>
     <use style="fill:#1f77b4;stroke:#1f77b4;stroke-linejoin:miter;" x="664.063214" xlink:href="#mb79723cf25" y="211.467981"/>
     <use style="fill:#1f77b4;stroke:#1f77b4;stroke-linejoin:miter;" x="648.922393" xlink:href="#mb79723cf25" y="212.948907"/>
     <use style="fill:#1f77b4;stroke:#1f77b4;stroke-linejoin:miter;" x="633.938666" xlink:href="#mb79723cf25" y="215.531066"/>
     <use style="fill:#1f77b4;stroke:#1f77b4;stroke-linejoin:miter;" x="618.85141" xlink:href="#mb79723cf25" y="218.012544"/>
     <use style="fill:#1f77b4;stroke:#1f77b4;stroke-linejoin:miter;" x="605.077654" xlink:href="#mb79723cf25" y="219.714675"/>
     <use style="fill:#1f77b4;stroke:#1f77b4;stroke-linejoin:miter;" x="591.410375" xlink:href="#mb79723cf25" y="223.951485"/>
     <use style="fill:#1f77b4;stroke:#1f77b4;stroke-linejoin:miter;" x="578.333719" xlink:href="#mb79723cf25" y="225.097775"/>
     <use style="fill:#1f77b4;stroke:#1f77b4;stroke-linejoin:miter;" x="565.088977" xlink:href="#mb79723cf25" y="226.667921"/>
     <use style="fill:#1f77b4;stroke:#1f77b4;stroke-linejoin:miter;" x="552.353691" xlink:href="#mb79723cf25" y="229.690579"/>
     <use style="fill:#1f77b4;stroke:#1f77b4;stroke-linejoin:miter;" x="539.884946" xlink:href="#mb79723cf25" y="232.913125"/>
     <use style="fill:#1f77b4;stroke:#1f77b4;stroke-linejoin:miter;" x="527.684967" xlink:href="#mb79723cf25" y="236.387051"/>
     <use style="fill:#1f77b4;stroke:#1f77b4;stroke-linejoin:miter;" x="514.982937" xlink:href="#mb79723cf25" y="238.29818"/>
     <use style="fill:#1f77b4;stroke:#1f77b4;stroke-linejoin:miter;" x="502.50055" xlink:href="#mb79723cf25" y="240.563323"/>
     <use style="fill:#1f77b4;stroke:#1f77b4;stroke-linejoin:miter;" x="488.809214" xlink:href="#mb79723cf25" y="240.706932"/>
     <use style="fill:#1f77b4;stroke:#1f77b4;stroke-linejoin:miter;" x="476.276638" xlink:href="#mb79723cf25" y="243.763854"/>
     <use style="fill:#1f77b4;stroke:#1f77b4;stroke-linejoin:miter;" x="463.632658" xlink:href="#mb79723cf25" y="246.858306"/>
     <use style="fill:#1f77b4;stroke:#1f77b4;stroke-linejoin:miter;" x="420.359857" xlink:href="#mb79723cf25" y="251.636181"/>
     <use style="fill:#1f77b4;stroke:#1f77b4;stroke-linejoin:miter;" x="417.673753" xlink:href="#mb79723cf25" y="266.483137"/>
     <use style="fill:#1f77b4;stroke:#1f77b4;stroke-linejoin:miter;" x="400.204796" xlink:href="#mb79723cf25" y="266.29049"/>
     <use style="fill:#1f77b4;stroke:#1f77b4;stroke-linejoin:miter;" x="389.620806" xlink:href="#mb79723cf25" y="273.046188"/>
     <use style="fill:#1f77b4;stroke:#1f77b4;stroke-linejoin:miter;" x="393.957114" xlink:href="#mb79723cf25" y="290.89331"/>
     <use style="fill:#1f77b4;stroke:#1f77b4;stroke-linejoin:miter;" x="411.975084" xlink:href="#mb79723cf25" y="316.343602"/>
     <use style="fill:#1f77b4;stroke:#1f77b4;stroke-linejoin:miter;" x="419.767755" xlink:href="#mb79723cf25" y="341.751206"/>
     <use style="fill:#1f77b4;stroke:#1f77b4;stroke-linejoin:miter;" x="416.127058" xlink:href="#mb79723cf25" y="357.615014"/>
     <use style="fill:#1f77b4;stroke:#1f77b4;stroke-linejoin:miter;" x="409.485929" xlink:href="#mb79723cf25" y="362.885868"/>
     <use style="fill:#1f77b4;stroke:#1f77b4;stroke-linejoin:miter;" x="454.87353" xlink:href="#mb79723cf25" y="393.777331"/>
     <use style="fill:#1f77b4;stroke:#1f77b4;stroke-linejoin:miter;" x="456.090321" xlink:href="#mb79723cf25" y="399.645527"/>
     <use style="fill:#1f77b4;stroke:#1f77b4;stroke-linejoin:miter;" x="457.451495" xlink:href="#mb79723cf25" y="405.113654"/>
     <use style="fill:#1f77b4;stroke:#1f77b4;stroke-linejoin:miter;" x="460.164732" xlink:href="#mb79723cf25" y="410.769847"/>
     <use style="fill:#1f77b4;stroke:#1f77b4;stroke-linejoin:miter;" x="447.836724" xlink:href="#mb79723cf25" y="413.436587"/>
     <use style="fill:#1f77b4;stroke:#1f77b4;stroke-linejoin:miter;" x="428.677365" xlink:href="#mb79723cf25" y="415.91707"/>
     <use style="fill:#1f77b4;stroke:#1f77b4;stroke-linejoin:miter;" x="425.97045" xlink:href="#mb79723cf25" y="421.411286"/>
     <use style="fill:#1f77b4;stroke:#1f77b4;stroke-linejoin:miter;" x="419.509413" xlink:href="#mb79723cf25" y="426.856925"/>
     <use style="fill:#1f77b4;stroke:#1f77b4;stroke-linejoin:miter;" x="420.165578" xlink:href="#mb79723cf25" y="432.755928"/>
     <use style="fill:#1f77b4;stroke:#1f77b4;stroke-linejoin:miter;" x="420.676907" xlink:href="#mb79723cf25" y="438.286068"/>
     <use style="fill:#1f77b4;stroke:#1f77b4;stroke-linejoin:miter;" x="395.844476" xlink:href="#mb79723cf25" y="445.068021"/>
     <use style="fill:#1f77b4;stroke:#1f77b4;stroke-linejoin:miter;" x="395.637379" xlink:href="#mb79723cf25" y="451.733811"/>
     <use style="fill:#1f77b4;stroke:#1f77b4;stroke-linejoin:miter;" x="399.173425" xlink:href="#mb79723cf25" y="458.291805"/>
     <use style="fill:#1f77b4;stroke:#1f77b4;stroke-linejoin:miter;" x="401.090471" xlink:href="#mb79723cf25" y="464.779936"/>
     <use style="fill:#1f77b4;stroke:#1f77b4;stroke-linejoin:miter;" x="433.845675" xlink:href="#mb79723cf25" y="465.913551"/>
     <use style="fill:#1f77b4;stroke:#1f77b4;stroke-linejoin:miter;" x="404.035121" xlink:href="#mb79723cf25" y="477.991821"/>
     <use style="fill:#1f77b4;stroke:#1f77b4;stroke-linejoin:miter;" x="405.379313" xlink:href="#mb79723cf25" y="484.761929"/>
     <use style="fill:#1f77b4;stroke:#1f77b4;stroke-linejoin:miter;" x="407.700017" xlink:href="#mb79723cf25" y="491.454121"/>
     <use style="fill:#1f77b4;stroke:#1f77b4;stroke-linejoin:miter;" x="462.475126" xlink:href="#mb79723cf25" y="486.472732"/>
     <use style="fill:#1f77b4;stroke:#1f77b4;stroke-linejoin:miter;" x="438.611803" xlink:href="#mb79723cf25" y="502.157924"/>
     <use style="fill:#1f77b4;stroke:#1f77b4;stroke-linejoin:miter;" x="439.576613" xlink:href="#mb79723cf25" y="516.300575"/>
     <use style="fill:#1f77b4;stroke:#1f77b4;stroke-linejoin:miter;" x="458.276745" xlink:href="#mb79723cf25" y="513.760204"/>
     <use style="fill:#1f77b4;stroke:#1f77b4;stroke-linejoin:miter;" x="464.252932" xlink:href="#mb79723cf25" y="517.71836"/>
     <use style="fill:#1f77b4;stroke:#1f77b4;stroke-linejoin:miter;" x="455.602281" xlink:href="#mb79723cf25" y="540.619152"/>
     <use style="fill:#1f77b4;stroke:#1f77b4;stroke-linejoin:miter;" x="471.086253" xlink:href="#mb79723cf25" y="537.867598"/>
     <use style="fill:#1f77b4;stroke:#1f77b4;stroke-linejoin:miter;" x="454.779012" xlink:href="#mb79723cf25" y="562.44879"/>
     <use style="fill:#1f77b4;stroke:#1f77b4;stroke-linejoin:miter;" x="526.689191" xlink:href="#mb79723cf25" y="503.301363"/>
     <use style="fill:#1f77b4;stroke:#1f77b4;stroke-linejoin:miter;" x="534.617021" xlink:href="#mb79723cf25" y="501.489152"/>
     <use style="fill:#1f77b4;stroke:#1f77b4;stroke-linejoin:miter;" x="542.58331" xlink:href="#mb79723cf25" y="498.425477"/>
     <use style="fill:#1f77b4;stroke:#1f77b4;stroke-linejoin:miter;" x="548.054669" xlink:href="#mb79723cf25" y="498.081766"/>
     <use style="fill:#1f77b4;stroke:#1f77b4;stroke-linejoin:miter;" x="552.299298" xlink:href="#mb79723cf25" y="498.754043"/>
     <use style="fill:#1f77b4;stroke:#1f77b4;stroke-linejoin:miter;" x="555.20793" xlink:href="#mb79723cf25" y="501.89447"/>
     <use style="fill:#1f77b4;stroke:#1f77b4;stroke-linejoin:miter;" x="559.055916" xlink:href="#mb79723cf25" y="503.674193"/>
     <use style="fill:#1f77b4;stroke:#1f77b4;stroke-linejoin:miter;" x="562.509852" xlink:href="#mb79723cf25" y="506.270877"/>
     <use style="fill:#1f77b4;stroke:#1f77b4;stroke-linejoin:miter;" x="567.864238" xlink:href="#mb79723cf25" y="504.704045"/>
     <use style="fill:#1f77b4;stroke:#1f77b4;stroke-linejoin:miter;" x="572.794772" xlink:href="#mb79723cf25" y="503.322142"/>
     <use style="fill:#1f77b4;stroke:#1f77b4;stroke-linejoin:miter;" x="577.00546" xlink:href="#mb79723cf25" y="503.860847"/>
     <use style="fill:#1f77b4;stroke:#1f77b4;stroke-linejoin:miter;" x="583.556707" xlink:href="#mb79723cf25" y="619.596083"/>
     <use style="fill:#1f77b4;stroke:#1f77b4;stroke-linejoin:miter;" x="595.218095" xlink:href="#mb79723cf25" y="642.005718"/>
     <use style="fill:#1f77b4;stroke:#1f77b4;stroke-linejoin:miter;" x="606.283752" xlink:href="#mb79723cf25" y="617.659536"/>
     <use style="fill:#1f77b4;stroke:#1f77b4;stroke-linejoin:miter;" x="621.299661" xlink:href="#mb79723cf25" y="640.388751"/>
     <use style="fill:#1f77b4;stroke:#1f77b4;stroke-linejoin:miter;" x="630.805291" xlink:href="#mb79723cf25" y="623.11889"/>
     <use style="fill:#1f77b4;stroke:#1f77b4;stroke-linejoin:miter;" x="656.546298" xlink:href="#mb79723cf25" y="627.554261"/>
     <use style="fill:#1f77b4;stroke:#1f77b4;stroke-linejoin:miter;" x="668.918726" xlink:href="#mb79723cf25" y="626.765539"/>
     <use style="fill:#1f77b4;stroke:#1f77b4;stroke-linejoin:miter;" x="667.325573" xlink:href="#mb79723cf25" y="594.751156"/>
     <use style="fill:#1f77b4;stroke:#1f77b4;stroke-linejoin:miter;" x="680.779686" xlink:href="#mb79723cf25" y="598.911111"/>
     <use style="fill:#1f77b4;stroke:#1f77b4;stroke-linejoin:miter;" x="692.466621" xlink:href="#mb79723cf25" y="598.038999"/>
     <use style="fill:#1f77b4;stroke:#1f77b4;stroke-linejoin:miter;" x="756.596685" xlink:href="#mb79723cf25" y="592.886919"/>
     <use style="fill:#1f77b4;stroke:#1f77b4;stroke-linejoin:miter;" x="765.313299" xlink:href="#mb79723cf25" y="586.09237"/>
     <use style="fill:#1f77b4;stroke:#1f77b4;stroke-linejoin:miter;" x="780.803068" xlink:href="#mb79723cf25" y="584.935966"/>
     <use style="fill:#1f77b4;stroke:#1f77b4;stroke-linejoin:miter;" x="797.287507" xlink:href="#mb79723cf25" y="583.739407"/>
     <use style="fill:#1f77b4;stroke:#1f77b4;stroke-linejoin:miter;" x="814.543035" xlink:href="#mb79723cf25" y="581.830803"/>
     <use style="fill:#1f77b4;stroke:#1f77b4;stroke-linejoin:miter;" x="834.383789" xlink:href="#mb79723cf25" y="580.531722"/>
     <use style="fill:#1f77b4;stroke:#1f77b4;stroke-linejoin:miter;" x="839.085024" xlink:href="#mb79723cf25" y="569.264624"/>
     <use style="fill:#1f77b4;stroke:#1f77b4;stroke-linejoin:miter;" x="874.97391" xlink:href="#mb79723cf25" y="574.11136"/>
     <use style="fill:#1f77b4;stroke:#1f77b4;stroke-linejoin:miter;" x="873.343318" xlink:href="#mb79723cf25" y="559.817292"/>
     <use style="fill:#1f77b4;stroke:#1f77b4;stroke-linejoin:miter;" x="892.897934" xlink:href="#mb79723cf25" y="554.678448"/>
     <use style="fill:#1f77b4;stroke:#1f77b4;stroke-linejoin:miter;" x="928.301483" xlink:href="#mb79723cf25" y="554.066676"/>
     <use style="fill:#1f77b4;stroke:#1f77b4;stroke-linejoin:miter;" x="1055.271939" xlink:href="#mb79723cf25" y="543.260343"/>
     <use style="fill:#1f77b4;stroke:#1f77b4;stroke-linejoin:miter;" x="1075.044237" xlink:href="#mb79723cf25" y="529.611605"/>
     <use style="fill:#1f77b4;stroke:#1f77b4;stroke-linejoin:miter;" x="1084.610961" xlink:href="#mb79723cf25" y="513.653332"/>
     <use style="fill:#1f77b4;stroke:#1f77b4;stroke-linejoin:miter;" x="1133.344014" xlink:href="#mb79723cf25" y="501.98368"/>
    </g>
   </g>
   <g id="patch_3">
    <path d="M 144 768.96 
L 144 103.68 
" style="fill:none;stroke:#000000;stroke-linecap:square;stroke-linejoin:miter;stroke-width:0.8;"/>
   </g>
   <g id="patch_4">
    <path d="M 1036.8 768.96 
L 1036.8 103.68 
" style="fill:none;stroke:#000000;stroke-linecap:square;stroke-linejoin:miter;stroke-width:0.8;"/>
   </g>
   <g id="patch_5">
    <path d="M 144 768.96 
L 1036.8 768.96 
" style="fill:none;stroke:#000000;stroke-linecap:square;stroke-linejoin:miter;stroke-width:0.8;"/>
   </g>
   <g id="patch_6">
    <path d="M 144 103.68 
L 1036.8 103.68 
" style="fill:none;stroke:#000000;stroke-linecap:square;stroke-linejoin:miter;stroke-width:0.8;"/>
   </g>
  </g>
 </g>
 <defs>
  <clipPath id="p605bd727a8">
   <rect height="665.28" width="892.8" x="144" y="103.68"/>
  </clipPath>
 </defs>
</svg>
