<?xml version="1.0" encoding="utf-8" standalone="no"?>
<!DOCTYPE svg PUBLIC "-//W3C//DTD SVG 1.1//EN"
  "http://www.w3.org/Graphics/SVG/1.1/DTD/svg11.dtd">
<!-- Created with matplotlib (http://matplotlib.org/) -->
<svg height="864pt" version="1.1" viewBox="0 0 1152 864" width="1152pt" xmlns="http://www.w3.org/2000/svg" xmlns:xlink="http://www.w3.org/1999/xlink">
 <defs>
  <style type="text/css">
*{stroke-linecap:butt;stroke-linejoin:round;}
  </style>
 </defs>
 <g id="figure_1">
  <g id="patch_1">
   <path d="M 0 864 
L 1152 864 
L 1152 0 
L 0 0 
z
" style="fill:#ffffff;"/>
  </g>
  <g id="axes_1">
   <g id="patch_2">
    <path d="M 144 768.96 
L 1036.8 768.96 
L 1036.8 103.68 
L 144 103.68 
z
" style="fill:#ffffff;"/>
   </g>
   <g id="matplotlib.axis_1">
    <g id="xtick_1">
     <g id="line2d_1">
      <defs>
       <path d="M 0 0 
L 0 3.5 
" id="m2496790051" style="stroke:#000000;stroke-width:0.8;"/>
      </defs>
      <g>
       <use style="stroke:#000000;stroke-width:0.8;" x="144" xlink:href="#m2496790051" y="768.96"/>
      </g>
     </g>
     <g id="text_1">
      <!-- −4000 -->
      <defs>
       <path d="M 10.59375 35.5 
L 73.1875 35.5 
L 73.1875 27.203125 
L 10.59375 27.203125 
z
" id="DejaVuSans-2212"/>
       <path d="M 37.796875 64.3125 
L 12.890625 25.390625 
L 37.796875 25.390625 
z
M 35.203125 72.90625 
L 47.609375 72.90625 
L 47.609375 25.390625 
L 58.015625 25.390625 
L 58.015625 17.1875 
L 47.609375 17.1875 
L 47.609375 0 
L 37.796875 0 
L 37.796875 17.1875 
L 4.890625 17.1875 
L 4.890625 26.703125 
z
" id="DejaVuSans-34"/>
       <path d="M 31.78125 66.40625 
Q 24.171875 66.40625 20.328125 58.90625 
Q 16.5 51.421875 16.5 36.375 
Q 16.5 21.390625 20.328125 13.890625 
Q 24.171875 6.390625 31.78125 6.390625 
Q 39.453125 6.390625 43.28125 13.890625 
Q 47.125 21.390625 47.125 36.375 
Q 47.125 51.421875 43.28125 58.90625 
Q 39.453125 66.40625 31.78125 66.40625 
z
M 31.78125 74.21875 
Q 44.046875 74.21875 50.515625 64.515625 
Q 56.984375 54.828125 56.984375 36.375 
Q 56.984375 17.96875 50.515625 8.265625 
Q 44.046875 -1.421875 31.78125 -1.421875 
Q 19.53125 -1.421875 13.0625 8.265625 
Q 6.59375 17.96875 6.59375 36.375 
Q 6.59375 54.828125 13.0625 64.515625 
Q 19.53125 74.21875 31.78125 74.21875 
z
" id="DejaVuSans-30"/>
      </defs>
      <g transform="translate(127.085156 783.558437)scale(0.1 -0.1)">
       <use xlink:href="#DejaVuSans-2212"/>
       <use x="83.789062" xlink:href="#DejaVuSans-34"/>
       <use x="147.412109" xlink:href="#DejaVuSans-30"/>
       <use x="211.035156" xlink:href="#DejaVuSans-30"/>
       <use x="274.658203" xlink:href="#DejaVuSans-30"/>
      </g>
     </g>
    </g>
    <g id="xtick_2">
     <g id="line2d_2">
      <g>
       <use style="stroke:#000000;stroke-width:0.8;" x="255.6" xlink:href="#m2496790051" y="768.96"/>
      </g>
     </g>
     <g id="text_2">
      <!-- −3000 -->
      <defs>
       <path d="M 40.578125 39.3125 
Q 47.65625 37.796875 51.625 33 
Q 55.609375 28.21875 55.609375 21.1875 
Q 55.609375 10.40625 48.1875 4.484375 
Q 40.765625 -1.421875 27.09375 -1.421875 
Q 22.515625 -1.421875 17.65625 -0.515625 
Q 12.796875 0.390625 7.625 2.203125 
L 7.625 11.71875 
Q 11.71875 9.328125 16.59375 8.109375 
Q 21.484375 6.890625 26.8125 6.890625 
Q 36.078125 6.890625 40.9375 10.546875 
Q 45.796875 14.203125 45.796875 21.1875 
Q 45.796875 27.640625 41.28125 31.265625 
Q 36.765625 34.90625 28.71875 34.90625 
L 20.21875 34.90625 
L 20.21875 43.015625 
L 29.109375 43.015625 
Q 36.375 43.015625 40.234375 45.921875 
Q 44.09375 48.828125 44.09375 54.296875 
Q 44.09375 59.90625 40.109375 62.90625 
Q 36.140625 65.921875 28.71875 65.921875 
Q 24.65625 65.921875 20.015625 65.03125 
Q 15.375 64.15625 9.8125 62.3125 
L 9.8125 71.09375 
Q 15.4375 72.65625 20.34375 73.4375 
Q 25.25 74.21875 29.59375 74.21875 
Q 40.828125 74.21875 47.359375 69.109375 
Q 53.90625 64.015625 53.90625 55.328125 
Q 53.90625 49.265625 50.4375 45.09375 
Q 46.96875 40.921875 40.578125 39.3125 
z
" id="DejaVuSans-33"/>
      </defs>
      <g transform="translate(238.685156 783.558437)scale(0.1 -0.1)">
       <use xlink:href="#DejaVuSans-2212"/>
       <use x="83.789062" xlink:href="#DejaVuSans-33"/>
       <use x="147.412109" xlink:href="#DejaVuSans-30"/>
       <use x="211.035156" xlink:href="#DejaVuSans-30"/>
       <use x="274.658203" xlink:href="#DejaVuSans-30"/>
      </g>
     </g>
    </g>
    <g id="xtick_3">
     <g id="line2d_3">
      <g>
       <use style="stroke:#000000;stroke-width:0.8;" x="367.2" xlink:href="#m2496790051" y="768.96"/>
      </g>
     </g>
     <g id="text_3">
      <!-- −2000 -->
      <defs>
       <path d="M 19.1875 8.296875 
L 53.609375 8.296875 
L 53.609375 0 
L 7.328125 0 
L 7.328125 8.296875 
Q 12.9375 14.109375 22.625 23.890625 
Q 32.328125 33.6875 34.8125 36.53125 
Q 39.546875 41.84375 41.421875 45.53125 
Q 43.3125 49.21875 43.3125 52.78125 
Q 43.3125 58.59375 39.234375 62.25 
Q 35.15625 65.921875 28.609375 65.921875 
Q 23.96875 65.921875 18.8125 64.3125 
Q 13.671875 62.703125 7.8125 59.421875 
L 7.8125 69.390625 
Q 13.765625 71.78125 18.9375 73 
Q 24.125 74.21875 28.421875 74.21875 
Q 39.75 74.21875 46.484375 68.546875 
Q 53.21875 62.890625 53.21875 53.421875 
Q 53.21875 48.921875 51.53125 44.890625 
Q 49.859375 40.875 45.40625 35.40625 
Q 44.1875 33.984375 37.640625 27.21875 
Q 31.109375 20.453125 19.1875 8.296875 
z
" id="DejaVuSans-32"/>
      </defs>
      <g transform="translate(350.285156 783.558437)scale(0.1 -0.1)">
       <use xlink:href="#DejaVuSans-2212"/>
       <use x="83.789062" xlink:href="#DejaVuSans-32"/>
       <use x="147.412109" xlink:href="#DejaVuSans-30"/>
       <use x="211.035156" xlink:href="#DejaVuSans-30"/>
       <use x="274.658203" xlink:href="#DejaVuSans-30"/>
      </g>
     </g>
    </g>
    <g id="xtick_4">
     <g id="line2d_4">
      <g>
       <use style="stroke:#000000;stroke-width:0.8;" x="478.8" xlink:href="#m2496790051" y="768.96"/>
      </g>
     </g>
     <g id="text_4">
      <!-- −1000 -->
      <defs>
       <path d="M 12.40625 8.296875 
L 28.515625 8.296875 
L 28.515625 63.921875 
L 10.984375 60.40625 
L 10.984375 69.390625 
L 28.421875 72.90625 
L 38.28125 72.90625 
L 38.28125 8.296875 
L 54.390625 8.296875 
L 54.390625 0 
L 12.40625 0 
z
" id="DejaVuSans-31"/>
      </defs>
      <g transform="translate(461.885156 783.558437)scale(0.1 -0.1)">
       <use xlink:href="#DejaVuSans-2212"/>
       <use x="83.789062" xlink:href="#DejaVuSans-31"/>
       <use x="147.412109" xlink:href="#DejaVuSans-30"/>
       <use x="211.035156" xlink:href="#DejaVuSans-30"/>
       <use x="274.658203" xlink:href="#DejaVuSans-30"/>
      </g>
     </g>
    </g>
    <g id="xtick_5">
     <g id="line2d_5">
      <g>
       <use style="stroke:#000000;stroke-width:0.8;" x="590.4" xlink:href="#m2496790051" y="768.96"/>
      </g>
     </g>
     <g id="text_5">
      <!-- 0 -->
      <g transform="translate(587.21875 783.558437)scale(0.1 -0.1)">
       <use xlink:href="#DejaVuSans-30"/>
      </g>
     </g>
    </g>
    <g id="xtick_6">
     <g id="line2d_6">
      <g>
       <use style="stroke:#000000;stroke-width:0.8;" x="702" xlink:href="#m2496790051" y="768.96"/>
      </g>
     </g>
     <g id="text_6">
      <!-- 1000 -->
      <g transform="translate(689.275 783.558437)scale(0.1 -0.1)">
       <use xlink:href="#DejaVuSans-31"/>
       <use x="63.623047" xlink:href="#DejaVuSans-30"/>
       <use x="127.246094" xlink:href="#DejaVuSans-30"/>
       <use x="190.869141" xlink:href="#DejaVuSans-30"/>
      </g>
     </g>
    </g>
    <g id="xtick_7">
     <g id="line2d_7">
      <g>
       <use style="stroke:#000000;stroke-width:0.8;" x="813.6" xlink:href="#m2496790051" y="768.96"/>
      </g>
     </g>
     <g id="text_7">
      <!-- 2000 -->
      <g transform="translate(800.875 783.558437)scale(0.1 -0.1)">
       <use xlink:href="#DejaVuSans-32"/>
       <use x="63.623047" xlink:href="#DejaVuSans-30"/>
       <use x="127.246094" xlink:href="#DejaVuSans-30"/>
       <use x="190.869141" xlink:href="#DejaVuSans-30"/>
      </g>
     </g>
    </g>
    <g id="xtick_8">
     <g id="line2d_8">
      <g>
       <use style="stroke:#000000;stroke-width:0.8;" x="925.2" xlink:href="#m2496790051" y="768.96"/>
      </g>
     </g>
     <g id="text_8">
      <!-- 3000 -->
      <g transform="translate(912.475 783.558437)scale(0.1 -0.1)">
       <use xlink:href="#DejaVuSans-33"/>
       <use x="63.623047" xlink:href="#DejaVuSans-30"/>
       <use x="127.246094" xlink:href="#DejaVuSans-30"/>
       <use x="190.869141" xlink:href="#DejaVuSans-30"/>
      </g>
     </g>
    </g>
    <g id="xtick_9">
     <g id="line2d_9">
      <g>
       <use style="stroke:#000000;stroke-width:0.8;" x="1036.8" xlink:href="#m2496790051" y="768.96"/>
      </g>
     </g>
     <g id="text_9">
      <!-- 4000 -->
      <g transform="translate(1024.075 783.558437)scale(0.1 -0.1)">
       <use xlink:href="#DejaVuSans-34"/>
       <use x="63.623047" xlink:href="#DejaVuSans-30"/>
       <use x="127.246094" xlink:href="#DejaVuSans-30"/>
       <use x="190.869141" xlink:href="#DejaVuSans-30"/>
      </g>
     </g>
    </g>
   </g>
   <g id="matplotlib.axis_2">
    <g id="ytick_1">
     <g id="line2d_10">
      <defs>
       <path d="M 0 0 
L -3.5 0 
" id="m600f367cdd" style="stroke:#000000;stroke-width:0.8;"/>
      </defs>
      <g>
       <use style="stroke:#000000;stroke-width:0.8;" x="144" xlink:href="#m600f367cdd" y="768.96"/>
      </g>
     </g>
     <g id="text_10">
      <!-- −4000 -->
      <g transform="translate(103.170312 772.759219)scale(0.1 -0.1)">
       <use xlink:href="#DejaVuSans-2212"/>
       <use x="83.789062" xlink:href="#DejaVuSans-34"/>
       <use x="147.412109" xlink:href="#DejaVuSans-30"/>
       <use x="211.035156" xlink:href="#DejaVuSans-30"/>
       <use x="274.658203" xlink:href="#DejaVuSans-30"/>
      </g>
     </g>
    </g>
    <g id="ytick_2">
     <g id="line2d_11">
      <g>
       <use style="stroke:#000000;stroke-width:0.8;" x="144" xlink:href="#m600f367cdd" y="685.8"/>
      </g>
     </g>
     <g id="text_11">
      <!-- −3000 -->
      <g transform="translate(103.170312 689.599219)scale(0.1 -0.1)">
       <use xlink:href="#DejaVuSans-2212"/>
       <use x="83.789062" xlink:href="#DejaVuSans-33"/>
       <use x="147.412109" xlink:href="#DejaVuSans-30"/>
       <use x="211.035156" xlink:href="#DejaVuSans-30"/>
       <use x="274.658203" xlink:href="#DejaVuSans-30"/>
      </g>
     </g>
    </g>
    <g id="ytick_3">
     <g id="line2d_12">
      <g>
       <use style="stroke:#000000;stroke-width:0.8;" x="144" xlink:href="#m600f367cdd" y="602.64"/>
      </g>
     </g>
     <g id="text_12">
      <!-- −2000 -->
      <g transform="translate(103.170312 606.439219)scale(0.1 -0.1)">
       <use xlink:href="#DejaVuSans-2212"/>
       <use x="83.789062" xlink:href="#DejaVuSans-32"/>
       <use x="147.412109" xlink:href="#DejaVuSans-30"/>
       <use x="211.035156" xlink:href="#DejaVuSans-30"/>
       <use x="274.658203" xlink:href="#DejaVuSans-30"/>
      </g>
     </g>
    </g>
    <g id="ytick_4">
     <g id="line2d_13">
      <g>
       <use style="stroke:#000000;stroke-width:0.8;" x="144" xlink:href="#m600f367cdd" y="519.48"/>
      </g>
     </g>
     <g id="text_13">
      <!-- −1000 -->
      <g transform="translate(103.170312 523.279219)scale(0.1 -0.1)">
       <use xlink:href="#DejaVuSans-2212"/>
       <use x="83.789062" xlink:href="#DejaVuSans-31"/>
       <use x="147.412109" xlink:href="#DejaVuSans-30"/>
       <use x="211.035156" xlink:href="#DejaVuSans-30"/>
       <use x="274.658203" xlink:href="#DejaVuSans-30"/>
      </g>
     </g>
    </g>
    <g id="ytick_5">
     <g id="line2d_14">
      <g>
       <use style="stroke:#000000;stroke-width:0.8;" x="144" xlink:href="#m600f367cdd" y="436.32"/>
      </g>
     </g>
     <g id="text_14">
      <!-- 0 -->
      <g transform="translate(130.6375 440.119219)scale(0.1 -0.1)">
       <use xlink:href="#DejaVuSans-30"/>
      </g>
     </g>
    </g>
    <g id="ytick_6">
     <g id="line2d_15">
      <g>
       <use style="stroke:#000000;stroke-width:0.8;" x="144" xlink:href="#m600f367cdd" y="353.16"/>
      </g>
     </g>
     <g id="text_15">
      <!-- 1000 -->
      <g transform="translate(111.55 356.959219)scale(0.1 -0.1)">
       <use xlink:href="#DejaVuSans-31"/>
       <use x="63.623047" xlink:href="#DejaVuSans-30"/>
       <use x="127.246094" xlink:href="#DejaVuSans-30"/>
       <use x="190.869141" xlink:href="#DejaVuSans-30"/>
      </g>
     </g>
    </g>
    <g id="ytick_7">
     <g id="line2d_16">
      <g>
       <use style="stroke:#000000;stroke-width:0.8;" x="144" xlink:href="#m600f367cdd" y="270"/>
      </g>
     </g>
     <g id="text_16">
      <!-- 2000 -->
      <g transform="translate(111.55 273.799219)scale(0.1 -0.1)">
       <use xlink:href="#DejaVuSans-32"/>
       <use x="63.623047" xlink:href="#DejaVuSans-30"/>
       <use x="127.246094" xlink:href="#DejaVuSans-30"/>
       <use x="190.869141" xlink:href="#DejaVuSans-30"/>
      </g>
     </g>
    </g>
    <g id="ytick_8">
     <g id="line2d_17">
      <g>
       <use style="stroke:#000000;stroke-width:0.8;" x="144" xlink:href="#m600f367cdd" y="186.84"/>
      </g>
     </g>
     <g id="text_17">
      <!-- 3000 -->
      <g transform="translate(111.55 190.639219)scale(0.1 -0.1)">
       <use xlink:href="#DejaVuSans-33"/>
       <use x="63.623047" xlink:href="#DejaVuSans-30"/>
       <use x="127.246094" xlink:href="#DejaVuSans-30"/>
       <use x="190.869141" xlink:href="#DejaVuSans-30"/>
      </g>
     </g>
    </g>
    <g id="ytick_9">
     <g id="line2d_18">
      <g>
       <use style="stroke:#000000;stroke-width:0.8;" x="144" xlink:href="#m600f367cdd" y="103.68"/>
      </g>
     </g>
     <g id="text_18">
      <!-- 4000 -->
      <g transform="translate(111.55 107.479219)scale(0.1 -0.1)">
       <use xlink:href="#DejaVuSans-34"/>
       <use x="63.623047" xlink:href="#DejaVuSans-30"/>
       <use x="127.246094" xlink:href="#DejaVuSans-30"/>
       <use x="190.869141" xlink:href="#DejaVuSans-30"/>
      </g>
     </g>
    </g>
   </g>
   <g id="line2d_19">
    <path clip-path="url(#p3983c971dc)" d="M 590.4 768.96 
L 590.4 103.68 
" style="fill:none;stroke:#1f77b4;stroke-linecap:square;stroke-width:1.5;"/>
   </g>
   <g id="line2d_20">
    <path clip-path="url(#p3983c971dc)" d="M 144 436.32 
L 1036.8 436.32 
" style="fill:none;stroke:#1f77b4;stroke-linecap:square;stroke-width:1.5;"/>
   </g>
   <g id="line2d_21">
    <defs>
     <path d="M 0 3 
C 0.795609 3 1.55874 2.683901 2.12132 2.12132 
C 2.683901 1.55874 3 0.795609 3 0 
C 3 -0.795609 2.683901 -1.55874 2.12132 -2.12132 
C 1.55874 -2.683901 0.795609 -3 0 -3 
C -0.795609 -3 -1.55874 -2.683901 -2.12132 -2.12132 
C -2.683901 -1.55874 -3 -0.795609 -3 0 
C -3 0.795609 -2.683901 1.55874 -2.12132 2.12132 
C -1.55874 2.683901 -0.795609 3 0 3 
z
" id="mbb4e6d2ed5" style="stroke:#008000;"/>
    </defs>
    <g clip-path="url(#p3983c971dc)">
     <use style="fill:#008000;stroke:#008000;" x="1354.490564" xlink:href="#mbb4e6d2ed5" y="500.090825"/>
    </g>
   </g>
   <g id="line2d_22">
    <g clip-path="url(#p3983c971dc)">
     <use style="fill:#008000;stroke:#008000;" x="1362.141912" xlink:href="#mbb4e6d2ed5" y="346.683799"/>
    </g>
   </g>
   <g id="line2d_23">
    <g clip-path="url(#p3983c971dc)">
     <use style="fill:#008000;stroke:#008000;" x="1258.325989" xlink:href="#mbb4e6d2ed5" y="330.811615"/>
    </g>
   </g>
   <g id="line2d_24">
    <g clip-path="url(#p3983c971dc)">
     <use style="fill:#008000;stroke:#008000;" x="647.174233" xlink:href="#mbb4e6d2ed5" y="395.073616"/>
    </g>
   </g>
   <g id="line2d_25">
    <g clip-path="url(#p3983c971dc)">
     <use style="fill:#008000;stroke:#008000;" x="647.174233" xlink:href="#mbb4e6d2ed5" y="395.073616"/>
    </g>
   </g>
   <g id="line2d_26">
    <g clip-path="url(#p3983c971dc)">
     <use style="fill:#008000;stroke:#008000;" x="713.468943" xlink:href="#mbb4e6d2ed5" y="203.043947"/>
    </g>
   </g>
   <g id="line2d_27">
    <g clip-path="url(#p3983c971dc)">
     <use style="fill:#008000;stroke:#008000;" x="538.398184" xlink:href="#mbb4e6d2ed5" y="232.824972"/>
    </g>
   </g>
   <g id="line2d_28">
    <g clip-path="url(#p3983c971dc)">
     <use style="fill:#008000;stroke:#008000;" x="572.190007" xlink:href="#mbb4e6d2ed5" y="397.632818"/>
    </g>
   </g>
   <g id="line2d_29">
    <g clip-path="url(#p3983c971dc)">
     <use style="fill:#008000;stroke:#008000;" x="572.190007" xlink:href="#mbb4e6d2ed5" y="397.632818"/>
    </g>
   </g>
   <g id="line2d_30">
    <g clip-path="url(#p3983c971dc)">
     <use style="fill:#008000;stroke:#008000;" x="434.95312" xlink:href="#mbb4e6d2ed5" y="251.733481"/>
    </g>
   </g>
   <g id="line2d_31">
    <g clip-path="url(#p3983c971dc)">
     <use style="fill:#008000;stroke:#008000;" x="411.368584" xlink:href="#mbb4e6d2ed5" y="506.69488"/>
    </g>
   </g>
   <g id="line2d_32">
    <g clip-path="url(#p3983c971dc)">
     <use style="fill:#008000;stroke:#008000;" x="577.557769" xlink:href="#mbb4e6d2ed5" y="620.843149"/>
    </g>
   </g>
   <g id="line2d_33">
    <g clip-path="url(#p3983c971dc)">
     <use style="fill:#008000;stroke:#008000;" x="1057.281926" xlink:href="#mbb4e6d2ed5" y="552.726494"/>
    </g>
   </g>
   <g id="line2d_34">
    <defs>
     <path d="M 0 1.333333 
C 0.353604 1.333333 0.692773 1.192845 0.942809 0.942809 
C 1.192845 0.692773 1.333333 0.353604 1.333333 0 
C 1.333333 -0.353604 1.192845 -0.692773 0.942809 -0.942809 
C 0.692773 -1.192845 0.353604 -1.333333 0 -1.333333 
C -0.353604 -1.333333 -0.692773 -1.192845 -0.942809 -0.942809 
C -1.192845 -0.692773 -1.333333 -0.353604 -1.333333 0 
C -1.333333 0.353604 -1.192845 0.692773 -0.942809 0.942809 
C -0.692773 1.192845 -0.353604 1.333333 0 1.333333 
z
" id="m7567cbf968" style="stroke:#ff0000;"/>
    </defs>
    <g clip-path="url(#p3983c971dc)">
     <use style="fill:#ff0000;stroke:#ff0000;" x="1354.490564" xlink:href="#m7567cbf968" y="500.090825"/>
     <use style="fill:#ff0000;stroke:#ff0000;" x="1362.141912" xlink:href="#m7567cbf968" y="346.683799"/>
     <use style="fill:#ff0000;stroke:#ff0000;" x="1258.325989" xlink:href="#m7567cbf968" y="330.811615"/>
     <use style="fill:#ff0000;stroke:#ff0000;" x="1355.576241" xlink:href="#m7567cbf968" y="283.87407"/>
     <use style="fill:#ff0000;stroke:#ff0000;" x="1334.586593" xlink:href="#m7567cbf968" y="255.804899"/>
     <use style="fill:#ff0000;stroke:#ff0000;" x="651.885057" xlink:href="#m7567cbf968" y="400.342957"/>
     <use style="fill:#ff0000;stroke:#ff0000;" x="641.647102" xlink:href="#m7567cbf968" y="390.149162"/>
     <use style="fill:#ff0000;stroke:#ff0000;" x="795.274794" xlink:href="#m7567cbf968" y="192.892527"/>
     <use style="fill:#ff0000;stroke:#ff0000;" x="769.302363" xlink:href="#m7567cbf968" y="196.899395"/>
     <use style="fill:#ff0000;stroke:#ff0000;" x="746.98088" xlink:href="#m7567cbf968" y="197.590528"/>
     <use style="fill:#ff0000;stroke:#ff0000;" x="724.171061" xlink:href="#m7567cbf968" y="201.486242"/>
     <use style="fill:#ff0000;stroke:#ff0000;" x="702.977213" xlink:href="#m7567cbf968" y="204.857606"/>
     <use style="fill:#ff0000;stroke:#ff0000;" x="538.398184" xlink:href="#m7567cbf968" y="232.824972"/>
     <use style="fill:#ff0000;stroke:#ff0000;" x="574.575919" xlink:href="#m7567cbf968" y="395.450685"/>
     <use style="fill:#ff0000;stroke:#ff0000;" x="570.08195" xlink:href="#m7567cbf968" y="399.880743"/>
     <use style="fill:#ff0000;stroke:#ff0000;" x="434.95312" xlink:href="#m7567cbf968" y="251.733481"/>
     <use style="fill:#ff0000;stroke:#ff0000;" x="391.983412" xlink:href="#m7567cbf968" y="285.206296"/>
     <use style="fill:#ff0000;stroke:#ff0000;" x="415.830678" xlink:href="#m7567cbf968" y="317.447431"/>
     <use style="fill:#ff0000;stroke:#ff0000;" x="418.896957" xlink:href="#m7567cbf968" y="331.672449"/>
     <use style="fill:#ff0000;stroke:#ff0000;" x="402.966172" xlink:href="#m7567cbf968" y="365.011388"/>
     <use style="fill:#ff0000;stroke:#ff0000;" x="454.351604" xlink:href="#m7567cbf968" y="391.943414"/>
     <use style="fill:#ff0000;stroke:#ff0000;" x="442.989084" xlink:href="#m7567cbf968" y="414.158912"/>
     <use style="fill:#ff0000;stroke:#ff0000;" x="421.865688" xlink:href="#m7567cbf968" y="417.656186"/>
     <use style="fill:#ff0000;stroke:#ff0000;" x="420.748276" xlink:href="#m7567cbf968" y="437.561145"/>
     <use style="fill:#ff0000;stroke:#ff0000;" x="395.847684" xlink:href="#m7567cbf968" y="445.107556"/>
     <use style="fill:#ff0000;stroke:#ff0000;" x="411.368584" xlink:href="#m7567cbf968" y="506.69488"/>
     <use style="fill:#ff0000;stroke:#ff0000;" x="469.037054" xlink:href="#m7567cbf968" y="491.231036"/>
     <use style="fill:#ff0000;stroke:#ff0000;" x="435.057924" xlink:href="#m7567cbf968" y="514.397667"/>
     <use style="fill:#ff0000;stroke:#ff0000;" x="450.315022" xlink:href="#m7567cbf968" y="515.293291"/>
     <use style="fill:#ff0000;stroke:#ff0000;" x="469.724349" xlink:href="#m7567cbf968" y="512.571669"/>
     <use style="fill:#ff0000;stroke:#ff0000;" x="457.021499" xlink:href="#m7567cbf968" y="529.560243"/>
     <use style="fill:#ff0000;stroke:#ff0000;" x="456.295739" xlink:href="#m7567cbf968" y="540.366163"/>
     <use style="fill:#ff0000;stroke:#ff0000;" x="472.094867" xlink:href="#m7567cbf968" y="538.630545"/>
     <use style="fill:#ff0000;stroke:#ff0000;" x="458.957763" xlink:href="#m7567cbf968" y="562.179229"/>
     <use style="fill:#ff0000;stroke:#ff0000;" x="529.900265" xlink:href="#m7567cbf968" y="502.960716"/>
     <use style="fill:#ff0000;stroke:#ff0000;" x="569.137535" xlink:href="#m7567cbf968" y="507.147388"/>
     <use style="fill:#ff0000;stroke:#ff0000;" x="571.007571" xlink:href="#m7567cbf968" y="619.930849"/>
     <use style="fill:#ff0000;stroke:#ff0000;" x="584.159579" xlink:href="#m7567cbf968" y="621.625303"/>
     <use style="fill:#ff0000;stroke:#ff0000;" x="597.578163" xlink:href="#m7567cbf968" y="642.736989"/>
     <use style="fill:#ff0000;stroke:#ff0000;" x="669.178414" xlink:href="#m7567cbf968" y="629.836618"/>
     <use style="fill:#ff0000;stroke:#ff0000;" x="667.626898" xlink:href="#m7567cbf968" y="594.293639"/>
     <use style="fill:#ff0000;stroke:#ff0000;" x="695.930686" xlink:href="#m7567cbf968" y="597.216305"/>
     <use style="fill:#ff0000;stroke:#ff0000;" x="746.217736" xlink:href="#m7567cbf968" y="601.661036"/>
     <use style="fill:#ff0000;stroke:#ff0000;" x="782.983395" xlink:href="#m7567cbf968" y="584.035147"/>
     <use style="fill:#ff0000;stroke:#ff0000;" x="804.294026" xlink:href="#m7567cbf968" y="584.138861"/>
     <use style="fill:#ff0000;stroke:#ff0000;" x="833.613813" xlink:href="#m7567cbf968" y="587.301329"/>
     <use style="fill:#ff0000;stroke:#ff0000;" x="836.928732" xlink:href="#m7567cbf968" y="572.874791"/>
     <use style="fill:#ff0000;stroke:#ff0000;" x="874.263882" xlink:href="#m7567cbf968" y="577.072746"/>
     <use style="fill:#ff0000;stroke:#ff0000;" x="893.706613" xlink:href="#m7567cbf968" y="553.974581"/>
     <use style="fill:#ff0000;stroke:#ff0000;" x="933.560361" xlink:href="#m7567cbf968" y="552.769471"/>
     <use style="fill:#ff0000;stroke:#ff0000;" x="965.219529" xlink:href="#m7567cbf968" y="546.163657"/>
     <use style="fill:#ff0000;stroke:#ff0000;" x="1057.281926" xlink:href="#m7567cbf968" y="552.726494"/>
     <use style="fill:#ff0000;stroke:#ff0000;" x="1089.235645" xlink:href="#m7567cbf968" y="518.195196"/>
     <use style="fill:#ff0000;stroke:#ff0000;" x="1125.920442" xlink:href="#m7567cbf968" y="502.315069"/>
    </g>
   </g>
   <g id="line2d_35">
    <defs>
     <path d="M -0.5 0.5 
L 0.5 0.5 
L 0.5 -0.5 
L -0.5 -0.5 
z
" id="m6d66c062d2" style="stroke:#1f77b4;stroke-linejoin:miter;"/>
    </defs>
    <g clip-path="url(#p3983c971dc)">
     <use style="fill:#1f77b4;stroke:#1f77b4;stroke-linejoin:miter;" x="1354.490564" xlink:href="#m6d66c062d2" y="500.090825"/>
     <use style="fill:#1f77b4;stroke:#1f77b4;stroke-linejoin:miter;" x="1362.141912" xlink:href="#m6d66c062d2" y="346.683799"/>
     <use style="fill:#1f77b4;stroke:#1f77b4;stroke-linejoin:miter;" x="1258.325989" xlink:href="#m6d66c062d2" y="330.811615"/>
     <use style="fill:#1f77b4;stroke:#1f77b4;stroke-linejoin:miter;" x="1355.576241" xlink:href="#m6d66c062d2" y="283.87407"/>
     <use style="fill:#1f77b4;stroke:#1f77b4;stroke-linejoin:miter;" x="1334.586593" xlink:href="#m6d66c062d2" y="255.804899"/>
     <use style="fill:#1f77b4;stroke:#1f77b4;stroke-linejoin:miter;" x="651.885057" xlink:href="#m6d66c062d2" y="400.342957"/>
     <use style="fill:#1f77b4;stroke:#1f77b4;stroke-linejoin:miter;" x="649.056763" xlink:href="#m6d66c062d2" y="397.967364"/>
     <use style="fill:#1f77b4;stroke:#1f77b4;stroke-linejoin:miter;" x="646.178622" xlink:href="#m6d66c062d2" y="395.652967"/>
     <use style="fill:#1f77b4;stroke:#1f77b4;stroke-linejoin:miter;" x="643.790927" xlink:href="#m6d66c062d2" y="393.257436"/>
     <use style="fill:#1f77b4;stroke:#1f77b4;stroke-linejoin:miter;" x="641.647102" xlink:href="#m6d66c062d2" y="390.149162"/>
     <use style="fill:#1f77b4;stroke:#1f77b4;stroke-linejoin:miter;" x="795.274794" xlink:href="#m6d66c062d2" y="192.892527"/>
     <use style="fill:#1f77b4;stroke:#1f77b4;stroke-linejoin:miter;" x="769.302363" xlink:href="#m6d66c062d2" y="196.899395"/>
     <use style="fill:#1f77b4;stroke:#1f77b4;stroke-linejoin:miter;" x="746.98088" xlink:href="#m6d66c062d2" y="197.590528"/>
     <use style="fill:#1f77b4;stroke:#1f77b4;stroke-linejoin:miter;" x="724.171061" xlink:href="#m6d66c062d2" y="201.486242"/>
     <use style="fill:#1f77b4;stroke:#1f77b4;stroke-linejoin:miter;" x="702.977213" xlink:href="#m6d66c062d2" y="204.857606"/>
     <use style="fill:#1f77b4;stroke:#1f77b4;stroke-linejoin:miter;" x="683.305423" xlink:href="#m6d66c062d2" y="208.324688"/>
     <use style="fill:#1f77b4;stroke:#1f77b4;stroke-linejoin:miter;" x="664.809969" xlink:href="#m6d66c062d2" y="210.790923"/>
     <use style="fill:#1f77b4;stroke:#1f77b4;stroke-linejoin:miter;" x="647.241781" xlink:href="#m6d66c062d2" y="213.5545"/>
     <use style="fill:#1f77b4;stroke:#1f77b4;stroke-linejoin:miter;" x="630.501045" xlink:href="#m6d66c062d2" y="215.400585"/>
     <use style="fill:#1f77b4;stroke:#1f77b4;stroke-linejoin:miter;" x="613.543876" xlink:href="#m6d66c062d2" y="218.707304"/>
     <use style="fill:#1f77b4;stroke:#1f77b4;stroke-linejoin:miter;" x="597.707962" xlink:href="#m6d66c062d2" y="221.649149"/>
     <use style="fill:#1f77b4;stroke:#1f77b4;stroke-linejoin:miter;" x="582.422402" xlink:href="#m6d66c062d2" y="224.740504"/>
     <use style="fill:#1f77b4;stroke:#1f77b4;stroke-linejoin:miter;" x="567.434406" xlink:href="#m6d66c062d2" y="226.205146"/>
     <use style="fill:#1f77b4;stroke:#1f77b4;stroke-linejoin:miter;" x="552.537662" xlink:href="#m6d66c062d2" y="228.16115"/>
     <use style="fill:#1f77b4;stroke:#1f77b4;stroke-linejoin:miter;" x="538.398184" xlink:href="#m6d66c062d2" y="232.824972"/>
     <use style="fill:#1f77b4;stroke:#1f77b4;stroke-linejoin:miter;" x="574.575919" xlink:href="#m6d66c062d2" y="395.450685"/>
     <use style="fill:#1f77b4;stroke:#1f77b4;stroke-linejoin:miter;" x="573.166761" xlink:href="#m6d66c062d2" y="399.867156"/>
     <use style="fill:#1f77b4;stroke:#1f77b4;stroke-linejoin:miter;" x="570.08195" xlink:href="#m6d66c062d2" y="399.880743"/>
     <use style="fill:#1f77b4;stroke:#1f77b4;stroke-linejoin:miter;" x="434.95312" xlink:href="#m6d66c062d2" y="251.733481"/>
     <use style="fill:#1f77b4;stroke:#1f77b4;stroke-linejoin:miter;" x="416.95887" xlink:href="#m6d66c062d2" y="252.917266"/>
     <use style="fill:#1f77b4;stroke:#1f77b4;stroke-linejoin:miter;" x="408.333415" xlink:href="#m6d66c062d2" y="264.031536"/>
     <use style="fill:#1f77b4;stroke:#1f77b4;stroke-linejoin:miter;" x="396.797107" xlink:href="#m6d66c062d2" y="272.268642"/>
     <use style="fill:#1f77b4;stroke:#1f77b4;stroke-linejoin:miter;" x="391.983412" xlink:href="#m6d66c062d2" y="285.206296"/>
     <use style="fill:#1f77b4;stroke:#1f77b4;stroke-linejoin:miter;" x="415.830678" xlink:href="#m6d66c062d2" y="317.447431"/>
     <use style="fill:#1f77b4;stroke:#1f77b4;stroke-linejoin:miter;" x="418.896957" xlink:href="#m6d66c062d2" y="331.672449"/>
     <use style="fill:#1f77b4;stroke:#1f77b4;stroke-linejoin:miter;" x="420.042429" xlink:href="#m6d66c062d2" y="343.294125"/>
     <use style="fill:#1f77b4;stroke:#1f77b4;stroke-linejoin:miter;" x="420.290797" xlink:href="#m6d66c062d2" y="353.657424"/>
     <use style="fill:#1f77b4;stroke:#1f77b4;stroke-linejoin:miter;" x="407.308591" xlink:href="#m6d66c062d2" y="357.202942"/>
     <use style="fill:#1f77b4;stroke:#1f77b4;stroke-linejoin:miter;" x="402.966172" xlink:href="#m6d66c062d2" y="365.011388"/>
     <use style="fill:#1f77b4;stroke:#1f77b4;stroke-linejoin:miter;" x="454.351604" xlink:href="#m6d66c062d2" y="391.943414"/>
     <use style="fill:#1f77b4;stroke:#1f77b4;stroke-linejoin:miter;" x="456.013593" xlink:href="#m6d66c062d2" y="398.723646"/>
     <use style="fill:#1f77b4;stroke:#1f77b4;stroke-linejoin:miter;" x="457.117007" xlink:href="#m6d66c062d2" y="405.005367"/>
     <use style="fill:#1f77b4;stroke:#1f77b4;stroke-linejoin:miter;" x="453.257984" xlink:href="#m6d66c062d2" y="410.158539"/>
     <use style="fill:#1f77b4;stroke:#1f77b4;stroke-linejoin:miter;" x="442.989084" xlink:href="#m6d66c062d2" y="414.158912"/>
     <use style="fill:#1f77b4;stroke:#1f77b4;stroke-linejoin:miter;" x="421.865688" xlink:href="#m6d66c062d2" y="417.656186"/>
     <use style="fill:#1f77b4;stroke:#1f77b4;stroke-linejoin:miter;" x="417.907264" xlink:href="#m6d66c062d2" y="424.191093"/>
     <use style="fill:#1f77b4;stroke:#1f77b4;stroke-linejoin:miter;" x="420.15534" xlink:href="#m6d66c062d2" y="431.162413"/>
     <use style="fill:#1f77b4;stroke:#1f77b4;stroke-linejoin:miter;" x="420.748276" xlink:href="#m6d66c062d2" y="437.561145"/>
     <use style="fill:#1f77b4;stroke:#1f77b4;stroke-linejoin:miter;" x="395.847684" xlink:href="#m6d66c062d2" y="445.107556"/>
     <use style="fill:#1f77b4;stroke:#1f77b4;stroke-linejoin:miter;" x="396.111975" xlink:href="#m6d66c062d2" y="452.855127"/>
     <use style="fill:#1f77b4;stroke:#1f77b4;stroke-linejoin:miter;" x="399.153024" xlink:href="#m6d66c062d2" y="460.287841"/>
     <use style="fill:#1f77b4;stroke:#1f77b4;stroke-linejoin:miter;" x="401.798007" xlink:href="#m6d66c062d2" y="467.758313"/>
     <use style="fill:#1f77b4;stroke:#1f77b4;stroke-linejoin:miter;" x="403.216561" xlink:href="#m6d66c062d2" y="475.288636"/>
     <use style="fill:#1f77b4;stroke:#1f77b4;stroke-linejoin:miter;" x="404.780527" xlink:href="#m6d66c062d2" y="483.019848"/>
     <use style="fill:#1f77b4;stroke:#1f77b4;stroke-linejoin:miter;" x="407.634519" xlink:href="#m6d66c062d2" y="490.439065"/>
     <use style="fill:#1f77b4;stroke:#1f77b4;stroke-linejoin:miter;" x="408.269013" xlink:href="#m6d66c062d2" y="499.021058"/>
     <use style="fill:#1f77b4;stroke:#1f77b4;stroke-linejoin:miter;" x="411.368584" xlink:href="#m6d66c062d2" y="506.69488"/>
     <use style="fill:#1f77b4;stroke:#1f77b4;stroke-linejoin:miter;" x="469.037054" xlink:href="#m6d66c062d2" y="491.231036"/>
     <use style="fill:#1f77b4;stroke:#1f77b4;stroke-linejoin:miter;" x="435.057924" xlink:href="#m6d66c062d2" y="514.397667"/>
     <use style="fill:#1f77b4;stroke:#1f77b4;stroke-linejoin:miter;" x="450.315022" xlink:href="#m6d66c062d2" y="515.293291"/>
     <use style="fill:#1f77b4;stroke:#1f77b4;stroke-linejoin:miter;" x="469.724349" xlink:href="#m6d66c062d2" y="512.571669"/>
     <use style="fill:#1f77b4;stroke:#1f77b4;stroke-linejoin:miter;" x="457.021499" xlink:href="#m6d66c062d2" y="529.560243"/>
     <use style="fill:#1f77b4;stroke:#1f77b4;stroke-linejoin:miter;" x="456.295739" xlink:href="#m6d66c062d2" y="540.366163"/>
     <use style="fill:#1f77b4;stroke:#1f77b4;stroke-linejoin:miter;" x="472.094867" xlink:href="#m6d66c062d2" y="538.630545"/>
     <use style="fill:#1f77b4;stroke:#1f77b4;stroke-linejoin:miter;" x="458.957763" xlink:href="#m6d66c062d2" y="562.179229"/>
     <use style="fill:#1f77b4;stroke:#1f77b4;stroke-linejoin:miter;" x="529.900265" xlink:href="#m6d66c062d2" y="502.960716"/>
     <use style="fill:#1f77b4;stroke:#1f77b4;stroke-linejoin:miter;" x="538.858701" xlink:href="#m6d66c062d2" y="500.437155"/>
     <use style="fill:#1f77b4;stroke:#1f77b4;stroke-linejoin:miter;" x="548.487935" xlink:href="#m6d66c062d2" y="495.720146"/>
     <use style="fill:#1f77b4;stroke:#1f77b4;stroke-linejoin:miter;" x="552.907472" xlink:href="#m6d66c062d2" y="497.315471"/>
     <use style="fill:#1f77b4;stroke:#1f77b4;stroke-linejoin:miter;" x="560.490751" xlink:href="#m6d66c062d2" y="492.89939"/>
     <use style="fill:#1f77b4;stroke:#1f77b4;stroke-linejoin:miter;" x="565.755544" xlink:href="#m6d66c062d2" y="491.756595"/>
     <use style="fill:#1f77b4;stroke:#1f77b4;stroke-linejoin:miter;" x="569.069009" xlink:href="#m6d66c062d2" y="494.434892"/>
     <use style="fill:#1f77b4;stroke:#1f77b4;stroke-linejoin:miter;" x="569.137535" xlink:href="#m6d66c062d2" y="507.147388"/>
     <use style="fill:#1f77b4;stroke:#1f77b4;stroke-linejoin:miter;" x="571.007571" xlink:href="#m6d66c062d2" y="619.930849"/>
     <use style="fill:#1f77b4;stroke:#1f77b4;stroke-linejoin:miter;" x="584.159579" xlink:href="#m6d66c062d2" y="621.625303"/>
     <use style="fill:#1f77b4;stroke:#1f77b4;stroke-linejoin:miter;" x="597.578163" xlink:href="#m6d66c062d2" y="642.736989"/>
     <use style="fill:#1f77b4;stroke:#1f77b4;stroke-linejoin:miter;" x="612.644878" xlink:href="#m6d66c062d2" y="641.222136"/>
     <use style="fill:#1f77b4;stroke:#1f77b4;stroke-linejoin:miter;" x="627.259035" xlink:href="#m6d66c062d2" y="639.796689"/>
     <use style="fill:#1f77b4;stroke:#1f77b4;stroke-linejoin:miter;" x="669.178414" xlink:href="#m6d66c062d2" y="629.836618"/>
     <use style="fill:#1f77b4;stroke:#1f77b4;stroke-linejoin:miter;" x="667.626898" xlink:href="#m6d66c062d2" y="594.293639"/>
     <use style="fill:#1f77b4;stroke:#1f77b4;stroke-linejoin:miter;" x="682.983005" xlink:href="#m6d66c062d2" y="598.356874"/>
     <use style="fill:#1f77b4;stroke:#1f77b4;stroke-linejoin:miter;" x="695.930686" xlink:href="#m6d66c062d2" y="597.216305"/>
     <use style="fill:#1f77b4;stroke:#1f77b4;stroke-linejoin:miter;" x="746.217736" xlink:href="#m6d66c062d2" y="601.661036"/>
     <use style="fill:#1f77b4;stroke:#1f77b4;stroke-linejoin:miter;" x="755.930544" xlink:href="#m6d66c062d2" y="593.753951"/>
     <use style="fill:#1f77b4;stroke:#1f77b4;stroke-linejoin:miter;" x="766.027069" xlink:href="#m6d66c062d2" y="586.125111"/>
     <use style="fill:#1f77b4;stroke:#1f77b4;stroke-linejoin:miter;" x="782.983395" xlink:href="#m6d66c062d2" y="584.035147"/>
     <use style="fill:#1f77b4;stroke:#1f77b4;stroke-linejoin:miter;" x="804.294026" xlink:href="#m6d66c062d2" y="584.138861"/>
     <use style="fill:#1f77b4;stroke:#1f77b4;stroke-linejoin:miter;" x="833.613813" xlink:href="#m6d66c062d2" y="587.301329"/>
     <use style="fill:#1f77b4;stroke:#1f77b4;stroke-linejoin:miter;" x="836.928732" xlink:href="#m6d66c062d2" y="572.874791"/>
     <use style="fill:#1f77b4;stroke:#1f77b4;stroke-linejoin:miter;" x="874.263882" xlink:href="#m6d66c062d2" y="577.072746"/>
     <use style="fill:#1f77b4;stroke:#1f77b4;stroke-linejoin:miter;" x="893.706613" xlink:href="#m6d66c062d2" y="553.974581"/>
     <use style="fill:#1f77b4;stroke:#1f77b4;stroke-linejoin:miter;" x="933.560361" xlink:href="#m6d66c062d2" y="552.769471"/>
     <use style="fill:#1f77b4;stroke:#1f77b4;stroke-linejoin:miter;" x="965.219529" xlink:href="#m6d66c062d2" y="546.163657"/>
     <use style="fill:#1f77b4;stroke:#1f77b4;stroke-linejoin:miter;" x="1057.281926" xlink:href="#m6d66c062d2" y="552.726494"/>
     <use style="fill:#1f77b4;stroke:#1f77b4;stroke-linejoin:miter;" x="1089.235645" xlink:href="#m6d66c062d2" y="518.195196"/>
     <use style="fill:#1f77b4;stroke:#1f77b4;stroke-linejoin:miter;" x="1125.920442" xlink:href="#m6d66c062d2" y="502.315069"/>
    </g>
   </g>
   <g id="patch_3">
    <path d="M 144 768.96 
L 144 103.68 
" style="fill:none;stroke:#000000;stroke-linecap:square;stroke-linejoin:miter;stroke-width:0.8;"/>
   </g>
   <g id="patch_4">
    <path d="M 1036.8 768.96 
L 1036.8 103.68 
" style="fill:none;stroke:#000000;stroke-linecap:square;stroke-linejoin:miter;stroke-width:0.8;"/>
   </g>
   <g id="patch_5">
    <path d="M 144 768.96 
L 1036.8 768.96 
" style="fill:none;stroke:#000000;stroke-linecap:square;stroke-linejoin:miter;stroke-width:0.8;"/>
   </g>
   <g id="patch_6">
    <path d="M 144 103.68 
L 1036.8 103.68 
" style="fill:none;stroke:#000000;stroke-linecap:square;stroke-linejoin:miter;stroke-width:0.8;"/>
   </g>
  </g>
 </g>
 <defs>
  <clipPath id="p3983c971dc">
   <rect height="665.28" width="892.8" x="144" y="103.68"/>
  </clipPath>
 </defs>
</svg>
