<?xml version="1.0" encoding="utf-8" standalone="no"?>
<!DOCTYPE svg PUBLIC "-//W3C//DTD SVG 1.1//EN"
  "http://www.w3.org/Graphics/SVG/1.1/DTD/svg11.dtd">
<!-- Created with matplotlib (http://matplotlib.org/) -->
<svg height="864pt" version="1.1" viewBox="0 0 1152 864" width="1152pt" xmlns="http://www.w3.org/2000/svg" xmlns:xlink="http://www.w3.org/1999/xlink">
 <defs>
  <style type="text/css">
*{stroke-linecap:butt;stroke-linejoin:round;}
  </style>
 </defs>
 <g id="figure_1">
  <g id="patch_1">
   <path d="M 0 864 
L 1152 864 
L 1152 0 
L 0 0 
z
" style="fill:#ffffff;"/>
  </g>
  <g id="axes_1">
   <g id="patch_2">
    <path d="M 144 768.96 
L 1036.8 768.96 
L 1036.8 103.68 
L 144 103.68 
z
" style="fill:#ffffff;"/>
   </g>
   <g id="matplotlib.axis_1">
    <g id="xtick_1">
     <g id="line2d_1">
      <defs>
       <path d="M 0 0 
L 0 3.5 
" id="mdabc77cec1" style="stroke:#000000;stroke-width:0.8;"/>
      </defs>
      <g>
       <use style="stroke:#000000;stroke-width:0.8;" x="144" xlink:href="#mdabc77cec1" y="768.96"/>
      </g>
     </g>
     <g id="text_1">
      <!-- −4000 -->
      <defs>
       <path d="M 10.59375 35.5 
L 73.1875 35.5 
L 73.1875 27.203125 
L 10.59375 27.203125 
z
" id="DejaVuSans-2212"/>
       <path d="M 37.796875 64.3125 
L 12.890625 25.390625 
L 37.796875 25.390625 
z
M 35.203125 72.90625 
L 47.609375 72.90625 
L 47.609375 25.390625 
L 58.015625 25.390625 
L 58.015625 17.1875 
L 47.609375 17.1875 
L 47.609375 0 
L 37.796875 0 
L 37.796875 17.1875 
L 4.890625 17.1875 
L 4.890625 26.703125 
z
" id="DejaVuSans-34"/>
       <path d="M 31.78125 66.40625 
Q 24.171875 66.40625 20.328125 58.90625 
Q 16.5 51.421875 16.5 36.375 
Q 16.5 21.390625 20.328125 13.890625 
Q 24.171875 6.390625 31.78125 6.390625 
Q 39.453125 6.390625 43.28125 13.890625 
Q 47.125 21.390625 47.125 36.375 
Q 47.125 51.421875 43.28125 58.90625 
Q 39.453125 66.40625 31.78125 66.40625 
z
M 31.78125 74.21875 
Q 44.046875 74.21875 50.515625 64.515625 
Q 56.984375 54.828125 56.984375 36.375 
Q 56.984375 17.96875 50.515625 8.265625 
Q 44.046875 -1.421875 31.78125 -1.421875 
Q 19.53125 -1.421875 13.0625 8.265625 
Q 6.59375 17.96875 6.59375 36.375 
Q 6.59375 54.828125 13.0625 64.515625 
Q 19.53125 74.21875 31.78125 74.21875 
z
" id="DejaVuSans-30"/>
      </defs>
      <g transform="translate(127.085156 783.558437)scale(0.1 -0.1)">
       <use xlink:href="#DejaVuSans-2212"/>
       <use x="83.789062" xlink:href="#DejaVuSans-34"/>
       <use x="147.412109" xlink:href="#DejaVuSans-30"/>
       <use x="211.035156" xlink:href="#DejaVuSans-30"/>
       <use x="274.658203" xlink:href="#DejaVuSans-30"/>
      </g>
     </g>
    </g>
    <g id="xtick_2">
     <g id="line2d_2">
      <g>
       <use style="stroke:#000000;stroke-width:0.8;" x="255.6" xlink:href="#mdabc77cec1" y="768.96"/>
      </g>
     </g>
     <g id="text_2">
      <!-- −3000 -->
      <defs>
       <path d="M 40.578125 39.3125 
Q 47.65625 37.796875 51.625 33 
Q 55.609375 28.21875 55.609375 21.1875 
Q 55.609375 10.40625 48.1875 4.484375 
Q 40.765625 -1.421875 27.09375 -1.421875 
Q 22.515625 -1.421875 17.65625 -0.515625 
Q 12.796875 0.390625 7.625 2.203125 
L 7.625 11.71875 
Q 11.71875 9.328125 16.59375 8.109375 
Q 21.484375 6.890625 26.8125 6.890625 
Q 36.078125 6.890625 40.9375 10.546875 
Q 45.796875 14.203125 45.796875 21.1875 
Q 45.796875 27.640625 41.28125 31.265625 
Q 36.765625 34.90625 28.71875 34.90625 
L 20.21875 34.90625 
L 20.21875 43.015625 
L 29.109375 43.015625 
Q 36.375 43.015625 40.234375 45.921875 
Q 44.09375 48.828125 44.09375 54.296875 
Q 44.09375 59.90625 40.109375 62.90625 
Q 36.140625 65.921875 28.71875 65.921875 
Q 24.65625 65.921875 20.015625 65.03125 
Q 15.375 64.15625 9.8125 62.3125 
L 9.8125 71.09375 
Q 15.4375 72.65625 20.34375 73.4375 
Q 25.25 74.21875 29.59375 74.21875 
Q 40.828125 74.21875 47.359375 69.109375 
Q 53.90625 64.015625 53.90625 55.328125 
Q 53.90625 49.265625 50.4375 45.09375 
Q 46.96875 40.921875 40.578125 39.3125 
z
" id="DejaVuSans-33"/>
      </defs>
      <g transform="translate(238.685156 783.558437)scale(0.1 -0.1)">
       <use xlink:href="#DejaVuSans-2212"/>
       <use x="83.789062" xlink:href="#DejaVuSans-33"/>
       <use x="147.412109" xlink:href="#DejaVuSans-30"/>
       <use x="211.035156" xlink:href="#DejaVuSans-30"/>
       <use x="274.658203" xlink:href="#DejaVuSans-30"/>
      </g>
     </g>
    </g>
    <g id="xtick_3">
     <g id="line2d_3">
      <g>
       <use style="stroke:#000000;stroke-width:0.8;" x="367.2" xlink:href="#mdabc77cec1" y="768.96"/>
      </g>
     </g>
     <g id="text_3">
      <!-- −2000 -->
      <defs>
       <path d="M 19.1875 8.296875 
L 53.609375 8.296875 
L 53.609375 0 
L 7.328125 0 
L 7.328125 8.296875 
Q 12.9375 14.109375 22.625 23.890625 
Q 32.328125 33.6875 34.8125 36.53125 
Q 39.546875 41.84375 41.421875 45.53125 
Q 43.3125 49.21875 43.3125 52.78125 
Q 43.3125 58.59375 39.234375 62.25 
Q 35.15625 65.921875 28.609375 65.921875 
Q 23.96875 65.921875 18.8125 64.3125 
Q 13.671875 62.703125 7.8125 59.421875 
L 7.8125 69.390625 
Q 13.765625 71.78125 18.9375 73 
Q 24.125 74.21875 28.421875 74.21875 
Q 39.75 74.21875 46.484375 68.546875 
Q 53.21875 62.890625 53.21875 53.421875 
Q 53.21875 48.921875 51.53125 44.890625 
Q 49.859375 40.875 45.40625 35.40625 
Q 44.1875 33.984375 37.640625 27.21875 
Q 31.109375 20.453125 19.1875 8.296875 
z
" id="DejaVuSans-32"/>
      </defs>
      <g transform="translate(350.285156 783.558437)scale(0.1 -0.1)">
       <use xlink:href="#DejaVuSans-2212"/>
       <use x="83.789062" xlink:href="#DejaVuSans-32"/>
       <use x="147.412109" xlink:href="#DejaVuSans-30"/>
       <use x="211.035156" xlink:href="#DejaVuSans-30"/>
       <use x="274.658203" xlink:href="#DejaVuSans-30"/>
      </g>
     </g>
    </g>
    <g id="xtick_4">
     <g id="line2d_4">
      <g>
       <use style="stroke:#000000;stroke-width:0.8;" x="478.8" xlink:href="#mdabc77cec1" y="768.96"/>
      </g>
     </g>
     <g id="text_4">
      <!-- −1000 -->
      <defs>
       <path d="M 12.40625 8.296875 
L 28.515625 8.296875 
L 28.515625 63.921875 
L 10.984375 60.40625 
L 10.984375 69.390625 
L 28.421875 72.90625 
L 38.28125 72.90625 
L 38.28125 8.296875 
L 54.390625 8.296875 
L 54.390625 0 
L 12.40625 0 
z
" id="DejaVuSans-31"/>
      </defs>
      <g transform="translate(461.885156 783.558437)scale(0.1 -0.1)">
       <use xlink:href="#DejaVuSans-2212"/>
       <use x="83.789062" xlink:href="#DejaVuSans-31"/>
       <use x="147.412109" xlink:href="#DejaVuSans-30"/>
       <use x="211.035156" xlink:href="#DejaVuSans-30"/>
       <use x="274.658203" xlink:href="#DejaVuSans-30"/>
      </g>
     </g>
    </g>
    <g id="xtick_5">
     <g id="line2d_5">
      <g>
       <use style="stroke:#000000;stroke-width:0.8;" x="590.4" xlink:href="#mdabc77cec1" y="768.96"/>
      </g>
     </g>
     <g id="text_5">
      <!-- 0 -->
      <g transform="translate(587.21875 783.558437)scale(0.1 -0.1)">
       <use xlink:href="#DejaVuSans-30"/>
      </g>
     </g>
    </g>
    <g id="xtick_6">
     <g id="line2d_6">
      <g>
       <use style="stroke:#000000;stroke-width:0.8;" x="702" xlink:href="#mdabc77cec1" y="768.96"/>
      </g>
     </g>
     <g id="text_6">
      <!-- 1000 -->
      <g transform="translate(689.275 783.558437)scale(0.1 -0.1)">
       <use xlink:href="#DejaVuSans-31"/>
       <use x="63.623047" xlink:href="#DejaVuSans-30"/>
       <use x="127.246094" xlink:href="#DejaVuSans-30"/>
       <use x="190.869141" xlink:href="#DejaVuSans-30"/>
      </g>
     </g>
    </g>
    <g id="xtick_7">
     <g id="line2d_7">
      <g>
       <use style="stroke:#000000;stroke-width:0.8;" x="813.6" xlink:href="#mdabc77cec1" y="768.96"/>
      </g>
     </g>
     <g id="text_7">
      <!-- 2000 -->
      <g transform="translate(800.875 783.558437)scale(0.1 -0.1)">
       <use xlink:href="#DejaVuSans-32"/>
       <use x="63.623047" xlink:href="#DejaVuSans-30"/>
       <use x="127.246094" xlink:href="#DejaVuSans-30"/>
       <use x="190.869141" xlink:href="#DejaVuSans-30"/>
      </g>
     </g>
    </g>
    <g id="xtick_8">
     <g id="line2d_8">
      <g>
       <use style="stroke:#000000;stroke-width:0.8;" x="925.2" xlink:href="#mdabc77cec1" y="768.96"/>
      </g>
     </g>
     <g id="text_8">
      <!-- 3000 -->
      <g transform="translate(912.475 783.558437)scale(0.1 -0.1)">
       <use xlink:href="#DejaVuSans-33"/>
       <use x="63.623047" xlink:href="#DejaVuSans-30"/>
       <use x="127.246094" xlink:href="#DejaVuSans-30"/>
       <use x="190.869141" xlink:href="#DejaVuSans-30"/>
      </g>
     </g>
    </g>
    <g id="xtick_9">
     <g id="line2d_9">
      <g>
       <use style="stroke:#000000;stroke-width:0.8;" x="1036.8" xlink:href="#mdabc77cec1" y="768.96"/>
      </g>
     </g>
     <g id="text_9">
      <!-- 4000 -->
      <g transform="translate(1024.075 783.558437)scale(0.1 -0.1)">
       <use xlink:href="#DejaVuSans-34"/>
       <use x="63.623047" xlink:href="#DejaVuSans-30"/>
       <use x="127.246094" xlink:href="#DejaVuSans-30"/>
       <use x="190.869141" xlink:href="#DejaVuSans-30"/>
      </g>
     </g>
    </g>
   </g>
   <g id="matplotlib.axis_2">
    <g id="ytick_1">
     <g id="line2d_10">
      <defs>
       <path d="M 0 0 
L -3.5 0 
" id="m5d9e823dff" style="stroke:#000000;stroke-width:0.8;"/>
      </defs>
      <g>
       <use style="stroke:#000000;stroke-width:0.8;" x="144" xlink:href="#m5d9e823dff" y="768.96"/>
      </g>
     </g>
     <g id="text_10">
      <!-- −4000 -->
      <g transform="translate(103.170312 772.759219)scale(0.1 -0.1)">
       <use xlink:href="#DejaVuSans-2212"/>
       <use x="83.789062" xlink:href="#DejaVuSans-34"/>
       <use x="147.412109" xlink:href="#DejaVuSans-30"/>
       <use x="211.035156" xlink:href="#DejaVuSans-30"/>
       <use x="274.658203" xlink:href="#DejaVuSans-30"/>
      </g>
     </g>
    </g>
    <g id="ytick_2">
     <g id="line2d_11">
      <g>
       <use style="stroke:#000000;stroke-width:0.8;" x="144" xlink:href="#m5d9e823dff" y="685.8"/>
      </g>
     </g>
     <g id="text_11">
      <!-- −3000 -->
      <g transform="translate(103.170312 689.599219)scale(0.1 -0.1)">
       <use xlink:href="#DejaVuSans-2212"/>
       <use x="83.789062" xlink:href="#DejaVuSans-33"/>
       <use x="147.412109" xlink:href="#DejaVuSans-30"/>
       <use x="211.035156" xlink:href="#DejaVuSans-30"/>
       <use x="274.658203" xlink:href="#DejaVuSans-30"/>
      </g>
     </g>
    </g>
    <g id="ytick_3">
     <g id="line2d_12">
      <g>
       <use style="stroke:#000000;stroke-width:0.8;" x="144" xlink:href="#m5d9e823dff" y="602.64"/>
      </g>
     </g>
     <g id="text_12">
      <!-- −2000 -->
      <g transform="translate(103.170312 606.439219)scale(0.1 -0.1)">
       <use xlink:href="#DejaVuSans-2212"/>
       <use x="83.789062" xlink:href="#DejaVuSans-32"/>
       <use x="147.412109" xlink:href="#DejaVuSans-30"/>
       <use x="211.035156" xlink:href="#DejaVuSans-30"/>
       <use x="274.658203" xlink:href="#DejaVuSans-30"/>
      </g>
     </g>
    </g>
    <g id="ytick_4">
     <g id="line2d_13">
      <g>
       <use style="stroke:#000000;stroke-width:0.8;" x="144" xlink:href="#m5d9e823dff" y="519.48"/>
      </g>
     </g>
     <g id="text_13">
      <!-- −1000 -->
      <g transform="translate(103.170312 523.279219)scale(0.1 -0.1)">
       <use xlink:href="#DejaVuSans-2212"/>
       <use x="83.789062" xlink:href="#DejaVuSans-31"/>
       <use x="147.412109" xlink:href="#DejaVuSans-30"/>
       <use x="211.035156" xlink:href="#DejaVuSans-30"/>
       <use x="274.658203" xlink:href="#DejaVuSans-30"/>
      </g>
     </g>
    </g>
    <g id="ytick_5">
     <g id="line2d_14">
      <g>
       <use style="stroke:#000000;stroke-width:0.8;" x="144" xlink:href="#m5d9e823dff" y="436.32"/>
      </g>
     </g>
     <g id="text_14">
      <!-- 0 -->
      <g transform="translate(130.6375 440.119219)scale(0.1 -0.1)">
       <use xlink:href="#DejaVuSans-30"/>
      </g>
     </g>
    </g>
    <g id="ytick_6">
     <g id="line2d_15">
      <g>
       <use style="stroke:#000000;stroke-width:0.8;" x="144" xlink:href="#m5d9e823dff" y="353.16"/>
      </g>
     </g>
     <g id="text_15">
      <!-- 1000 -->
      <g transform="translate(111.55 356.959219)scale(0.1 -0.1)">
       <use xlink:href="#DejaVuSans-31"/>
       <use x="63.623047" xlink:href="#DejaVuSans-30"/>
       <use x="127.246094" xlink:href="#DejaVuSans-30"/>
       <use x="190.869141" xlink:href="#DejaVuSans-30"/>
      </g>
     </g>
    </g>
    <g id="ytick_7">
     <g id="line2d_16">
      <g>
       <use style="stroke:#000000;stroke-width:0.8;" x="144" xlink:href="#m5d9e823dff" y="270"/>
      </g>
     </g>
     <g id="text_16">
      <!-- 2000 -->
      <g transform="translate(111.55 273.799219)scale(0.1 -0.1)">
       <use xlink:href="#DejaVuSans-32"/>
       <use x="63.623047" xlink:href="#DejaVuSans-30"/>
       <use x="127.246094" xlink:href="#DejaVuSans-30"/>
       <use x="190.869141" xlink:href="#DejaVuSans-30"/>
      </g>
     </g>
    </g>
    <g id="ytick_8">
     <g id="line2d_17">
      <g>
       <use style="stroke:#000000;stroke-width:0.8;" x="144" xlink:href="#m5d9e823dff" y="186.84"/>
      </g>
     </g>
     <g id="text_17">
      <!-- 3000 -->
      <g transform="translate(111.55 190.639219)scale(0.1 -0.1)">
       <use xlink:href="#DejaVuSans-33"/>
       <use x="63.623047" xlink:href="#DejaVuSans-30"/>
       <use x="127.246094" xlink:href="#DejaVuSans-30"/>
       <use x="190.869141" xlink:href="#DejaVuSans-30"/>
      </g>
     </g>
    </g>
    <g id="ytick_9">
     <g id="line2d_18">
      <g>
       <use style="stroke:#000000;stroke-width:0.8;" x="144" xlink:href="#m5d9e823dff" y="103.68"/>
      </g>
     </g>
     <g id="text_18">
      <!-- 4000 -->
      <g transform="translate(111.55 107.479219)scale(0.1 -0.1)">
       <use xlink:href="#DejaVuSans-34"/>
       <use x="63.623047" xlink:href="#DejaVuSans-30"/>
       <use x="127.246094" xlink:href="#DejaVuSans-30"/>
       <use x="190.869141" xlink:href="#DejaVuSans-30"/>
      </g>
     </g>
    </g>
   </g>
   <g id="line2d_19">
    <path clip-path="url(#p0d2f70261a)" d="M 590.4 768.96 
L 590.4 103.68 
" style="fill:none;stroke:#1f77b4;stroke-linecap:square;stroke-width:1.5;"/>
   </g>
   <g id="line2d_20">
    <path clip-path="url(#p0d2f70261a)" d="M 144 436.32 
L 1036.8 436.32 
" style="fill:none;stroke:#1f77b4;stroke-linecap:square;stroke-width:1.5;"/>
   </g>
   <g id="line2d_21">
    <defs>
     <path d="M 0 3 
C 0.795609 3 1.55874 2.683901 2.12132 2.12132 
C 2.683901 1.55874 3 0.795609 3 0 
C 3 -0.795609 2.683901 -1.55874 2.12132 -2.12132 
C 1.55874 -2.683901 0.795609 -3 0 -3 
C -0.795609 -3 -1.55874 -2.683901 -2.12132 -2.12132 
C -2.683901 -1.55874 -3 -0.795609 -3 0 
C -3 0.795609 -2.683901 1.55874 -2.12132 2.12132 
C -1.55874 2.683901 -0.795609 3 0 3 
z
" id="m92f7541485" style="stroke:#008000;"/>
    </defs>
    <g clip-path="url(#p0d2f70261a)">
     <use style="fill:#008000;stroke:#008000;" x="1081.660391" xlink:href="#m92f7541485" y="440.413185"/>
    </g>
   </g>
   <g id="line2d_22">
    <g clip-path="url(#p0d2f70261a)">
     <use style="fill:#008000;stroke:#008000;" x="873.358943" xlink:href="#m92f7541485" y="304.805999"/>
    </g>
   </g>
   <g id="line2d_23">
    <g clip-path="url(#p0d2f70261a)">
     <use style="fill:#008000;stroke:#008000;" x="789.562962" xlink:href="#m92f7541485" y="197.514471"/>
    </g>
   </g>
   <g id="line2d_24">
    <g clip-path="url(#p0d2f70261a)">
     <use style="fill:#008000;stroke:#008000;" x="441.967903" xlink:href="#m92f7541485" y="515.647531"/>
    </g>
   </g>
   <g id="line2d_25">
    <g clip-path="url(#p0d2f70261a)">
     <use style="fill:#008000;stroke:#008000;" x="456.98392" xlink:href="#m92f7541485" y="581.650124"/>
    </g>
   </g>
   <g id="line2d_26">
    <defs>
     <path d="M 0 1.333333 
C 0.353604 1.333333 0.692773 1.192845 0.942809 0.942809 
C 1.192845 0.692773 1.333333 0.353604 1.333333 0 
C 1.333333 -0.353604 1.192845 -0.692773 0.942809 -0.942809 
C 0.692773 -1.192845 0.353604 -1.333333 0 -1.333333 
C -0.353604 -1.333333 -0.692773 -1.192845 -0.942809 -0.942809 
C -1.192845 -0.692773 -1.333333 -0.353604 -1.333333 0 
C -1.333333 0.353604 -1.192845 0.692773 -0.942809 0.942809 
C -0.692773 1.192845 -0.353604 1.333333 0 1.333333 
z
" id="m785735a5fb" style="stroke:#ff0000;"/>
    </defs>
    <g clip-path="url(#p0d2f70261a)">
     <use style="fill:#ff0000;stroke:#ff0000;" x="1399.525747" xlink:href="#m785735a5fb" y="508.848724"/>
     <use style="fill:#ff0000;stroke:#ff0000;" x="1413.81006" xlink:href="#m785735a5fb" y="488.146513"/>
     <use style="fill:#ff0000;stroke:#ff0000;" x="1081.660391" xlink:href="#m785735a5fb" y="440.413185"/>
     <use style="fill:#ff0000;stroke:#ff0000;" x="1286.979566" xlink:href="#m785735a5fb" y="350.622166"/>
     <use style="fill:#ff0000;stroke:#ff0000;" x="1260.029865" xlink:href="#m785735a5fb" y="335.509261"/>
     <use style="fill:#ff0000;stroke:#ff0000;" x="1324.319557" xlink:href="#m785735a5fb" y="285.136135"/>
     <use style="fill:#ff0000;stroke:#ff0000;" x="1319.008903" xlink:href="#m785735a5fb" y="265.297233"/>
     <use style="fill:#ff0000;stroke:#ff0000;" x="873.358943" xlink:href="#m785735a5fb" y="304.805999"/>
     <use style="fill:#ff0000;stroke:#ff0000;" x="652.034058" xlink:href="#m785735a5fb" y="398.523508"/>
     <use style="fill:#ff0000;stroke:#ff0000;" x="643.329013" xlink:href="#m785735a5fb" y="383.079773"/>
     <use style="fill:#ff0000;stroke:#ff0000;" x="789.562962" xlink:href="#m785735a5fb" y="197.514471"/>
     <use style="fill:#ff0000;stroke:#ff0000;" x="416.525781" xlink:href="#m785735a5fb" y="265.64462"/>
     <use style="fill:#ff0000;stroke:#ff0000;" x="393.439026" xlink:href="#m785735a5fb" y="291.223789"/>
     <use style="fill:#ff0000;stroke:#ff0000;" x="416.343562" xlink:href="#m785735a5fb" y="317.276383"/>
     <use style="fill:#ff0000;stroke:#ff0000;" x="433.308759" xlink:href="#m785735a5fb" y="343.727695"/>
     <use style="fill:#ff0000;stroke:#ff0000;" x="419.405867" xlink:href="#m785735a5fb" y="342.464984"/>
     <use style="fill:#ff0000;stroke:#ff0000;" x="407.199656" xlink:href="#m785735a5fb" y="363.064412"/>
     <use style="fill:#ff0000;stroke:#ff0000;" x="454.762728" xlink:href="#m785735a5fb" y="391.814509"/>
     <use style="fill:#ff0000;stroke:#ff0000;" x="442.491785" xlink:href="#m785735a5fb" y="413.583226"/>
     <use style="fill:#ff0000;stroke:#ff0000;" x="410.886582" xlink:href="#m785735a5fb" y="441.502629"/>
     <use style="fill:#ff0000;stroke:#ff0000;" x="394.866181" xlink:href="#m785735a5fb" y="446.947945"/>
     <use style="fill:#ff0000;stroke:#ff0000;" x="401.368654" xlink:href="#m785735a5fb" y="466.98391"/>
     <use style="fill:#ff0000;stroke:#ff0000;" x="437.267501" xlink:href="#m785735a5fb" y="465.730864"/>
     <use style="fill:#ff0000;stroke:#ff0000;" x="403.55416" xlink:href="#m785735a5fb" y="477.149215"/>
     <use style="fill:#ff0000;stroke:#ff0000;" x="434.642567" xlink:href="#m785735a5fb" y="516.415505"/>
     <use style="fill:#ff0000;stroke:#ff0000;" x="449.202876" xlink:href="#m785735a5fb" y="514.708867"/>
     <use style="fill:#ff0000;stroke:#ff0000;" x="462.508152" xlink:href="#m785735a5fb" y="512.849119"/>
     <use style="fill:#ff0000;stroke:#ff0000;" x="471.049496" xlink:href="#m785735a5fb" y="537.898882"/>
     <use style="fill:#ff0000;stroke:#ff0000;" x="453.66316" xlink:href="#m785735a5fb" y="560.543608"/>
     <use style="fill:#ff0000;stroke:#ff0000;" x="451.702604" xlink:href="#m785735a5fb" y="581.884764"/>
     <use style="fill:#ff0000;stroke:#ff0000;" x="462.211433" xlink:href="#m785735a5fb" y="581.323073"/>
     <use style="fill:#ff0000;stroke:#ff0000;" x="543.608263" xlink:href="#m785735a5fb" y="500.873197"/>
     <use style="fill:#ff0000;stroke:#ff0000;" x="588.031815" xlink:href="#m785735a5fb" y="495.12923"/>
     <use style="fill:#ff0000;stroke:#ff0000;" x="603.22956" xlink:href="#m785735a5fb" y="626.682815"/>
     <use style="fill:#ff0000;stroke:#ff0000;" x="631.720115" xlink:href="#m785735a5fb" y="630.378828"/>
     <use style="fill:#ff0000;stroke:#ff0000;" x="646.333349" xlink:href="#m785735a5fb" y="615.293743"/>
     <use style="fill:#ff0000;stroke:#ff0000;" x="661.76586" xlink:href="#m785735a5fb" y="633.710024"/>
     <use style="fill:#ff0000;stroke:#ff0000;" x="670.622252" xlink:href="#m785735a5fb" y="607.799809"/>
     <use style="fill:#ff0000;stroke:#ff0000;" x="671.699398" xlink:href="#m785735a5fb" y="591.727696"/>
     <use style="fill:#ff0000;stroke:#ff0000;" x="704.69747" xlink:href="#m785735a5fb" y="601.356034"/>
     <use style="fill:#ff0000;stroke:#ff0000;" x="746.604943" xlink:href="#m785735a5fb" y="601.305405"/>
     <use style="fill:#ff0000;stroke:#ff0000;" x="851.113163" xlink:href="#m785735a5fb" y="569.996448"/>
     <use style="fill:#ff0000;stroke:#ff0000;" x="875.48943" xlink:href="#m785735a5fb" y="571.902148"/>
     <use style="fill:#ff0000;stroke:#ff0000;" x="872.577839" xlink:href="#m785735a5fb" y="560.254569"/>
     <use style="fill:#ff0000;stroke:#ff0000;" x="901.277208" xlink:href="#m785735a5fb" y="551.739388"/>
     <use style="fill:#ff0000;stroke:#ff0000;" x="937.572151" xlink:href="#m785735a5fb" y="554.130849"/>
     <use style="fill:#ff0000;stroke:#ff0000;" x="1056.034789" xlink:href="#m785735a5fb" y="538.789392"/>
     <use style="fill:#ff0000;stroke:#ff0000;" x="1084.105826" xlink:href="#m785735a5fb" y="517.668864"/>
     <use style="fill:#ff0000;stroke:#ff0000;" x="1110.961487" xlink:href="#m785735a5fb" y="507.885233"/>
    </g>
   </g>
   <g id="line2d_27">
    <defs>
     <path d="M -0.5 0.5 
L 0.5 0.5 
L 0.5 -0.5 
L -0.5 -0.5 
z
" id="m46d00295f8" style="stroke:#1f77b4;stroke-linejoin:miter;"/>
    </defs>
    <g clip-path="url(#p0d2f70261a)">
     <use style="fill:#1f77b4;stroke:#1f77b4;stroke-linejoin:miter;" x="1399.525747" xlink:href="#m46d00295f8" y="508.848724"/>
     <use style="fill:#1f77b4;stroke:#1f77b4;stroke-linejoin:miter;" x="1413.81006" xlink:href="#m46d00295f8" y="488.146513"/>
     <use style="fill:#1f77b4;stroke:#1f77b4;stroke-linejoin:miter;" x="1081.660391" xlink:href="#m46d00295f8" y="440.413185"/>
     <use style="fill:#1f77b4;stroke:#1f77b4;stroke-linejoin:miter;" x="1286.979566" xlink:href="#m46d00295f8" y="350.622166"/>
     <use style="fill:#1f77b4;stroke:#1f77b4;stroke-linejoin:miter;" x="1260.029865" xlink:href="#m46d00295f8" y="335.509261"/>
     <use style="fill:#1f77b4;stroke:#1f77b4;stroke-linejoin:miter;" x="1324.319557" xlink:href="#m46d00295f8" y="285.136135"/>
     <use style="fill:#1f77b4;stroke:#1f77b4;stroke-linejoin:miter;" x="1319.008903" xlink:href="#m46d00295f8" y="265.297233"/>
     <use style="fill:#1f77b4;stroke:#1f77b4;stroke-linejoin:miter;" x="873.358943" xlink:href="#m46d00295f8" y="304.805999"/>
     <use style="fill:#1f77b4;stroke:#1f77b4;stroke-linejoin:miter;" x="652.034058" xlink:href="#m46d00295f8" y="398.523508"/>
     <use style="fill:#1f77b4;stroke:#1f77b4;stroke-linejoin:miter;" x="648.482984" xlink:href="#m46d00295f8" y="397.9227"/>
     <use style="fill:#1f77b4;stroke:#1f77b4;stroke-linejoin:miter;" x="647.022233" xlink:href="#m46d00295f8" y="396.214971"/>
     <use style="fill:#1f77b4;stroke:#1f77b4;stroke-linejoin:miter;" x="645.302292" xlink:href="#m46d00295f8" y="394.529321"/>
     <use style="fill:#1f77b4;stroke:#1f77b4;stroke-linejoin:miter;" x="644.093227" xlink:href="#m46d00295f8" y="392.560886"/>
     <use style="fill:#1f77b4;stroke:#1f77b4;stroke-linejoin:miter;" x="641.992972" xlink:href="#m46d00295f8" y="391.207033"/>
     <use style="fill:#1f77b4;stroke:#1f77b4;stroke-linejoin:miter;" x="641.462078" xlink:href="#m46d00295f8" y="388.431654"/>
     <use style="fill:#1f77b4;stroke:#1f77b4;stroke-linejoin:miter;" x="643.329013" xlink:href="#m46d00295f8" y="383.079773"/>
     <use style="fill:#1f77b4;stroke:#1f77b4;stroke-linejoin:miter;" x="789.562962" xlink:href="#m46d00295f8" y="197.514471"/>
     <use style="fill:#1f77b4;stroke:#1f77b4;stroke-linejoin:miter;" x="776.993173" xlink:href="#m46d00295f8" y="194.121303"/>
     <use style="fill:#1f77b4;stroke:#1f77b4;stroke-linejoin:miter;" x="760.624326" xlink:href="#m46d00295f8" y="196.182488"/>
     <use style="fill:#1f77b4;stroke:#1f77b4;stroke-linejoin:miter;" x="744.782216" xlink:href="#m46d00295f8" y="198.481485"/>
     <use style="fill:#1f77b4;stroke:#1f77b4;stroke-linejoin:miter;" x="729.351587" xlink:href="#m46d00295f8" y="201.525664"/>
     <use style="fill:#1f77b4;stroke:#1f77b4;stroke-linejoin:miter;" x="715.289714" xlink:href="#m46d00295f8" y="203.055797"/>
     <use style="fill:#1f77b4;stroke:#1f77b4;stroke-linejoin:miter;" x="701.470513" xlink:href="#m46d00295f8" y="205.403209"/>
     <use style="fill:#1f77b4;stroke:#1f77b4;stroke-linejoin:miter;" x="687.931743" xlink:href="#m46d00295f8" y="208.636117"/>
     <use style="fill:#1f77b4;stroke:#1f77b4;stroke-linejoin:miter;" x="675.284806" xlink:href="#m46d00295f8" y="210.392262"/>
     <use style="fill:#1f77b4;stroke:#1f77b4;stroke-linejoin:miter;" x="663.549662" xlink:href="#m46d00295f8" y="211.439082"/>
     <use style="fill:#1f77b4;stroke:#1f77b4;stroke-linejoin:miter;" x="651.760846" xlink:href="#m46d00295f8" y="213.138809"/>
     <use style="fill:#1f77b4;stroke:#1f77b4;stroke-linejoin:miter;" x="640.565179" xlink:href="#m46d00295f8" y="214.795057"/>
     <use style="fill:#1f77b4;stroke:#1f77b4;stroke-linejoin:miter;" x="628.938368" xlink:href="#m46d00295f8" y="216.336412"/>
     <use style="fill:#1f77b4;stroke:#1f77b4;stroke-linejoin:miter;" x="618.181059" xlink:href="#m46d00295f8" y="218.841722"/>
     <use style="fill:#1f77b4;stroke:#1f77b4;stroke-linejoin:miter;" x="607.656649" xlink:href="#m46d00295f8" y="219.278773"/>
     <use style="fill:#1f77b4;stroke:#1f77b4;stroke-linejoin:miter;" x="597.303757" xlink:href="#m46d00295f8" y="221.995251"/>
     <use style="fill:#1f77b4;stroke:#1f77b4;stroke-linejoin:miter;" x="587.061987" xlink:href="#m46d00295f8" y="224.214214"/>
     <use style="fill:#1f77b4;stroke:#1f77b4;stroke-linejoin:miter;" x="577.110099" xlink:href="#m46d00295f8" y="225.346689"/>
     <use style="fill:#1f77b4;stroke:#1f77b4;stroke-linejoin:miter;" x="567.019268" xlink:href="#m46d00295f8" y="226.6478"/>
     <use style="fill:#1f77b4;stroke:#1f77b4;stroke-linejoin:miter;" x="557.199538" xlink:href="#m46d00295f8" y="227.782572"/>
     <use style="fill:#1f77b4;stroke:#1f77b4;stroke-linejoin:miter;" x="547.885595" xlink:href="#m46d00295f8" y="231.605221"/>
     <use style="fill:#1f77b4;stroke:#1f77b4;stroke-linejoin:miter;" x="538.756935" xlink:href="#m46d00295f8" y="234.826964"/>
     <use style="fill:#1f77b4;stroke:#1f77b4;stroke-linejoin:miter;" x="529.076027" xlink:href="#m46d00295f8" y="236.147592"/>
     <use style="fill:#1f77b4;stroke:#1f77b4;stroke-linejoin:miter;" x="519.702571" xlink:href="#m46d00295f8" y="237.763834"/>
     <use style="fill:#1f77b4;stroke:#1f77b4;stroke-linejoin:miter;" x="510.044857" xlink:href="#m46d00295f8" y="239.509978"/>
     <use style="fill:#1f77b4;stroke:#1f77b4;stroke-linejoin:miter;" x="500.47001" xlink:href="#m46d00295f8" y="241.010171"/>
     <use style="fill:#1f77b4;stroke:#1f77b4;stroke-linejoin:miter;" x="490.256576" xlink:href="#m46d00295f8" y="241.761862"/>
     <use style="fill:#1f77b4;stroke:#1f77b4;stroke-linejoin:miter;" x="480.10515" xlink:href="#m46d00295f8" y="242.845207"/>
     <use style="fill:#1f77b4;stroke:#1f77b4;stroke-linejoin:miter;" x="470.781565" xlink:href="#m46d00295f8" y="245.441194"/>
     <use style="fill:#1f77b4;stroke:#1f77b4;stroke-linejoin:miter;" x="460.546063" xlink:href="#m46d00295f8" y="246.924656"/>
     <use style="fill:#1f77b4;stroke:#1f77b4;stroke-linejoin:miter;" x="449.883433" xlink:href="#m46d00295f8" y="248.028607"/>
     <use style="fill:#1f77b4;stroke:#1f77b4;stroke-linejoin:miter;" x="440.000286" xlink:href="#m46d00295f8" y="250.83353"/>
     <use style="fill:#1f77b4;stroke:#1f77b4;stroke-linejoin:miter;" x="428.805251" xlink:href="#m46d00295f8" y="252.000865"/>
     <use style="fill:#1f77b4;stroke:#1f77b4;stroke-linejoin:miter;" x="418.549925" xlink:href="#m46d00295f8" y="254.599704"/>
     <use style="fill:#1f77b4;stroke:#1f77b4;stroke-linejoin:miter;" x="416.525781" xlink:href="#m46d00295f8" y="265.64462"/>
     <use style="fill:#1f77b4;stroke:#1f77b4;stroke-linejoin:miter;" x="400.473239" xlink:href="#m46d00295f8" y="262.811216"/>
     <use style="fill:#1f77b4;stroke:#1f77b4;stroke-linejoin:miter;" x="396.950311" xlink:href="#m46d00295f8" y="271.947037"/>
     <use style="fill:#1f77b4;stroke:#1f77b4;stroke-linejoin:miter;" x="388.546621" xlink:href="#m46d00295f8" y="276.513273"/>
     <use style="fill:#1f77b4;stroke:#1f77b4;stroke-linejoin:miter;" x="393.439026" xlink:href="#m46d00295f8" y="291.223789"/>
     <use style="fill:#1f77b4;stroke:#1f77b4;stroke-linejoin:miter;" x="416.343562" xlink:href="#m46d00295f8" y="317.276383"/>
     <use style="fill:#1f77b4;stroke:#1f77b4;stroke-linejoin:miter;" x="433.308759" xlink:href="#m46d00295f8" y="343.727695"/>
     <use style="fill:#1f77b4;stroke:#1f77b4;stroke-linejoin:miter;" x="419.405867" xlink:href="#m46d00295f8" y="342.464984"/>
     <use style="fill:#1f77b4;stroke:#1f77b4;stroke-linejoin:miter;" x="419.867373" xlink:href="#m46d00295f8" y="356.190522"/>
     <use style="fill:#1f77b4;stroke:#1f77b4;stroke-linejoin:miter;" x="407.512489" xlink:href="#m46d00295f8" y="356.693963"/>
     <use style="fill:#1f77b4;stroke:#1f77b4;stroke-linejoin:miter;" x="407.199656" xlink:href="#m46d00295f8" y="363.064412"/>
     <use style="fill:#1f77b4;stroke:#1f77b4;stroke-linejoin:miter;" x="454.762728" xlink:href="#m46d00295f8" y="391.814509"/>
     <use style="fill:#1f77b4;stroke:#1f77b4;stroke-linejoin:miter;" x="455.729468" xlink:href="#m46d00295f8" y="396.220445"/>
     <use style="fill:#1f77b4;stroke:#1f77b4;stroke-linejoin:miter;" x="456.926807" xlink:href="#m46d00295f8" y="400.732981"/>
     <use style="fill:#1f77b4;stroke:#1f77b4;stroke-linejoin:miter;" x="457.881671" xlink:href="#m46d00295f8" y="404.859045"/>
     <use style="fill:#1f77b4;stroke:#1f77b4;stroke-linejoin:miter;" x="458.732063" xlink:href="#m46d00295f8" y="408.908815"/>
     <use style="fill:#1f77b4;stroke:#1f77b4;stroke-linejoin:miter;" x="458.660989" xlink:href="#m46d00295f8" y="412.752234"/>
     <use style="fill:#1f77b4;stroke:#1f77b4;stroke-linejoin:miter;" x="442.491785" xlink:href="#m46d00295f8" y="413.583226"/>
     <use style="fill:#1f77b4;stroke:#1f77b4;stroke-linejoin:miter;" x="428.467331" xlink:href="#m46d00295f8" y="415.721284"/>
     <use style="fill:#1f77b4;stroke:#1f77b4;stroke-linejoin:miter;" x="425.804038" xlink:href="#m46d00295f8" y="419.764243"/>
     <use style="fill:#1f77b4;stroke:#1f77b4;stroke-linejoin:miter;" x="418.003055" xlink:href="#m46d00295f8" y="423.667447"/>
     <use style="fill:#1f77b4;stroke:#1f77b4;stroke-linejoin:miter;" x="419.266728" xlink:href="#m46d00295f8" y="428.276054"/>
     <use style="fill:#1f77b4;stroke:#1f77b4;stroke-linejoin:miter;" x="419.464482" xlink:href="#m46d00295f8" y="432.845537"/>
     <use style="fill:#1f77b4;stroke:#1f77b4;stroke-linejoin:miter;" x="420.742377" xlink:href="#m46d00295f8" y="436.975056"/>
     <use style="fill:#1f77b4;stroke:#1f77b4;stroke-linejoin:miter;" x="410.886582" xlink:href="#m46d00295f8" y="441.502629"/>
     <use style="fill:#1f77b4;stroke:#1f77b4;stroke-linejoin:miter;" x="394.866181" xlink:href="#m46d00295f8" y="446.947945"/>
     <use style="fill:#1f77b4;stroke:#1f77b4;stroke-linejoin:miter;" x="395.877133" xlink:href="#m46d00295f8" y="452.034712"/>
     <use style="fill:#1f77b4;stroke:#1f77b4;stroke-linejoin:miter;" x="397.756143" xlink:href="#m46d00295f8" y="457.133867"/>
     <use style="fill:#1f77b4;stroke:#1f77b4;stroke-linejoin:miter;" x="400.28534" xlink:href="#m46d00295f8" y="461.9773"/>
     <use style="fill:#1f77b4;stroke:#1f77b4;stroke-linejoin:miter;" x="401.368654" xlink:href="#m46d00295f8" y="466.98391"/>
     <use style="fill:#1f77b4;stroke:#1f77b4;stroke-linejoin:miter;" x="437.267501" xlink:href="#m46d00295f8" y="465.730864"/>
     <use style="fill:#1f77b4;stroke:#1f77b4;stroke-linejoin:miter;" x="403.55416" xlink:href="#m46d00295f8" y="477.149215"/>
     <use style="fill:#1f77b4;stroke:#1f77b4;stroke-linejoin:miter;" x="404.232155" xlink:href="#m46d00295f8" y="482.190537"/>
     <use style="fill:#1f77b4;stroke:#1f77b4;stroke-linejoin:miter;" x="406.172313" xlink:href="#m46d00295f8" y="487.135221"/>
     <use style="fill:#1f77b4;stroke:#1f77b4;stroke-linejoin:miter;" x="407.745049" xlink:href="#m46d00295f8" y="492.306554"/>
     <use style="fill:#1f77b4;stroke:#1f77b4;stroke-linejoin:miter;" x="406.883874" xlink:href="#m46d00295f8" y="498.415113"/>
     <use style="fill:#1f77b4;stroke:#1f77b4;stroke-linejoin:miter;" x="434.642567" xlink:href="#m46d00295f8" y="516.415505"/>
     <use style="fill:#1f77b4;stroke:#1f77b4;stroke-linejoin:miter;" x="449.202876" xlink:href="#m46d00295f8" y="514.708867"/>
     <use style="fill:#1f77b4;stroke:#1f77b4;stroke-linejoin:miter;" x="462.508152" xlink:href="#m46d00295f8" y="512.849119"/>
     <use style="fill:#1f77b4;stroke:#1f77b4;stroke-linejoin:miter;" x="457.899208" xlink:href="#m46d00295f8" y="521.301266"/>
     <use style="fill:#1f77b4;stroke:#1f77b4;stroke-linejoin:miter;" x="456.336351" xlink:href="#m46d00295f8" y="528.615214"/>
     <use style="fill:#1f77b4;stroke:#1f77b4;stroke-linejoin:miter;" x="456.572885" xlink:href="#m46d00295f8" y="534.90708"/>
     <use style="fill:#1f77b4;stroke:#1f77b4;stroke-linejoin:miter;" x="465.106007" xlink:href="#m46d00295f8" y="535.677632"/>
     <use style="fill:#1f77b4;stroke:#1f77b4;stroke-linejoin:miter;" x="471.049496" xlink:href="#m46d00295f8" y="537.898882"/>
     <use style="fill:#1f77b4;stroke:#1f77b4;stroke-linejoin:miter;" x="453.66316" xlink:href="#m46d00295f8" y="560.543608"/>
     <use style="fill:#1f77b4;stroke:#1f77b4;stroke-linejoin:miter;" x="451.702604" xlink:href="#m46d00295f8" y="581.884764"/>
     <use style="fill:#1f77b4;stroke:#1f77b4;stroke-linejoin:miter;" x="462.211433" xlink:href="#m46d00295f8" y="581.323073"/>
     <use style="fill:#1f77b4;stroke:#1f77b4;stroke-linejoin:miter;" x="543.608263" xlink:href="#m46d00295f8" y="500.873197"/>
     <use style="fill:#1f77b4;stroke:#1f77b4;stroke-linejoin:miter;" x="550.174894" xlink:href="#m46d00295f8" y="497.269164"/>
     <use style="fill:#1f77b4;stroke:#1f77b4;stroke-linejoin:miter;" x="555.281774" xlink:href="#m46d00295f8" y="494.966783"/>
     <use style="fill:#1f77b4;stroke:#1f77b4;stroke-linejoin:miter;" x="558.522254" xlink:href="#m46d00295f8" y="495.067237"/>
     <use style="fill:#1f77b4;stroke:#1f77b4;stroke-linejoin:miter;" x="561.13624" xlink:href="#m46d00295f8" y="495.928447"/>
     <use style="fill:#1f77b4;stroke:#1f77b4;stroke-linejoin:miter;" x="564.08597" xlink:href="#m46d00295f8" y="496.556015"/>
     <use style="fill:#1f77b4;stroke:#1f77b4;stroke-linejoin:miter;" x="567.310634" xlink:href="#m46d00295f8" y="496.507819"/>
     <use style="fill:#1f77b4;stroke:#1f77b4;stroke-linejoin:miter;" x="569.863143" xlink:href="#m46d00295f8" y="497.769453"/>
     <use style="fill:#1f77b4;stroke:#1f77b4;stroke-linejoin:miter;" x="572.43555" xlink:href="#m46d00295f8" y="499.12965"/>
     <use style="fill:#1f77b4;stroke:#1f77b4;stroke-linejoin:miter;" x="576.729827" xlink:href="#m46d00295f8" y="495.216841"/>
     <use style="fill:#1f77b4;stroke:#1f77b4;stroke-linejoin:miter;" x="579.83997" xlink:href="#m46d00295f8" y="493.787866"/>
     <use style="fill:#1f77b4;stroke:#1f77b4;stroke-linejoin:miter;" x="582.825883" xlink:href="#m46d00295f8" y="492.523761"/>
     <use style="fill:#1f77b4;stroke:#1f77b4;stroke-linejoin:miter;" x="585.582163" xlink:href="#m46d00295f8" y="493.233854"/>
     <use style="fill:#1f77b4;stroke:#1f77b4;stroke-linejoin:miter;" x="588.031815" xlink:href="#m46d00295f8" y="495.12923"/>
     <use style="fill:#1f77b4;stroke:#1f77b4;stroke-linejoin:miter;" x="603.22956" xlink:href="#m46d00295f8" y="626.682815"/>
     <use style="fill:#1f77b4;stroke:#1f77b4;stroke-linejoin:miter;" x="613.873742" xlink:href="#m46d00295f8" y="637.515134"/>
     <use style="fill:#1f77b4;stroke:#1f77b4;stroke-linejoin:miter;" x="623.975708" xlink:href="#m46d00295f8" y="641.473415"/>
     <use style="fill:#1f77b4;stroke:#1f77b4;stroke-linejoin:miter;" x="631.720115" xlink:href="#m46d00295f8" y="630.378828"/>
     <use style="fill:#1f77b4;stroke:#1f77b4;stroke-linejoin:miter;" x="646.333349" xlink:href="#m46d00295f8" y="615.293743"/>
     <use style="fill:#1f77b4;stroke:#1f77b4;stroke-linejoin:miter;" x="661.76586" xlink:href="#m46d00295f8" y="633.710024"/>
     <use style="fill:#1f77b4;stroke:#1f77b4;stroke-linejoin:miter;" x="670.622252" xlink:href="#m46d00295f8" y="607.799809"/>
     <use style="fill:#1f77b4;stroke:#1f77b4;stroke-linejoin:miter;" x="671.699398" xlink:href="#m46d00295f8" y="591.727696"/>
     <use style="fill:#1f77b4;stroke:#1f77b4;stroke-linejoin:miter;" x="684.224839" xlink:href="#m46d00295f8" y="598.684349"/>
     <use style="fill:#1f77b4;stroke:#1f77b4;stroke-linejoin:miter;" x="692.975102" xlink:href="#m46d00295f8" y="597.81426"/>
     <use style="fill:#1f77b4;stroke:#1f77b4;stroke-linejoin:miter;" x="704.69747" xlink:href="#m46d00295f8" y="601.356034"/>
     <use style="fill:#1f77b4;stroke:#1f77b4;stroke-linejoin:miter;" x="746.604943" xlink:href="#m46d00295f8" y="601.305405"/>
     <use style="fill:#1f77b4;stroke:#1f77b4;stroke-linejoin:miter;" x="755.4012" xlink:href="#m46d00295f8" y="598.102305"/>
     <use style="fill:#1f77b4;stroke:#1f77b4;stroke-linejoin:miter;" x="759.955669" xlink:href="#m46d00295f8" y="590.874131"/>
     <use style="fill:#1f77b4;stroke:#1f77b4;stroke-linejoin:miter;" x="769.207408" xlink:href="#m46d00295f8" y="588.084453"/>
     <use style="fill:#1f77b4;stroke:#1f77b4;stroke-linejoin:miter;" x="780.868954" xlink:href="#m46d00295f8" y="586.866737"/>
     <use style="fill:#1f77b4;stroke:#1f77b4;stroke-linejoin:miter;" x="789.713691" xlink:href="#m46d00295f8" y="583.309662"/>
     <use style="fill:#1f77b4;stroke:#1f77b4;stroke-linejoin:miter;" x="805.087805" xlink:href="#m46d00295f8" y="583.958722"/>
     <use style="fill:#1f77b4;stroke:#1f77b4;stroke-linejoin:miter;" x="818.355002" xlink:href="#m46d00295f8" y="582.360976"/>
     <use style="fill:#1f77b4;stroke:#1f77b4;stroke-linejoin:miter;" x="830.818094" xlink:href="#m46d00295f8" y="579.862464"/>
     <use style="fill:#1f77b4;stroke:#1f77b4;stroke-linejoin:miter;" x="837.043895" xlink:href="#m46d00295f8" y="572.549897"/>
     <use style="fill:#1f77b4;stroke:#1f77b4;stroke-linejoin:miter;" x="851.113163" xlink:href="#m46d00295f8" y="569.996448"/>
     <use style="fill:#1f77b4;stroke:#1f77b4;stroke-linejoin:miter;" x="875.48943" xlink:href="#m46d00295f8" y="571.902148"/>
     <use style="fill:#1f77b4;stroke:#1f77b4;stroke-linejoin:miter;" x="872.577839" xlink:href="#m46d00295f8" y="560.254569"/>
     <use style="fill:#1f77b4;stroke:#1f77b4;stroke-linejoin:miter;" x="890.336251" xlink:href="#m46d00295f8" y="557.592172"/>
     <use style="fill:#1f77b4;stroke:#1f77b4;stroke-linejoin:miter;" x="901.277208" xlink:href="#m46d00295f8" y="551.739388"/>
     <use style="fill:#1f77b4;stroke:#1f77b4;stroke-linejoin:miter;" x="937.572151" xlink:href="#m46d00295f8" y="554.130849"/>
     <use style="fill:#1f77b4;stroke:#1f77b4;stroke-linejoin:miter;" x="1056.034789" xlink:href="#m46d00295f8" y="538.789392"/>
     <use style="fill:#1f77b4;stroke:#1f77b4;stroke-linejoin:miter;" x="1075.517705" xlink:href="#m46d00295f8" y="529.492455"/>
     <use style="fill:#1f77b4;stroke:#1f77b4;stroke-linejoin:miter;" x="1084.105826" xlink:href="#m46d00295f8" y="517.668864"/>
     <use style="fill:#1f77b4;stroke:#1f77b4;stroke-linejoin:miter;" x="1110.961487" xlink:href="#m46d00295f8" y="507.885233"/>
    </g>
   </g>
   <g id="patch_3">
    <path d="M 144 768.96 
L 144 103.68 
" style="fill:none;stroke:#000000;stroke-linecap:square;stroke-linejoin:miter;stroke-width:0.8;"/>
   </g>
   <g id="patch_4">
    <path d="M 1036.8 768.96 
L 1036.8 103.68 
" style="fill:none;stroke:#000000;stroke-linecap:square;stroke-linejoin:miter;stroke-width:0.8;"/>
   </g>
   <g id="patch_5">
    <path d="M 144 768.96 
L 1036.8 768.96 
" style="fill:none;stroke:#000000;stroke-linecap:square;stroke-linejoin:miter;stroke-width:0.8;"/>
   </g>
   <g id="patch_6">
    <path d="M 144 103.68 
L 1036.8 103.68 
" style="fill:none;stroke:#000000;stroke-linecap:square;stroke-linejoin:miter;stroke-width:0.8;"/>
   </g>
  </g>
 </g>
 <defs>
  <clipPath id="p0d2f70261a">
   <rect height="665.28" width="892.8" x="144" y="103.68"/>
  </clipPath>
 </defs>
</svg>
