<?xml version="1.0" encoding="utf-8" standalone="no"?>
<!DOCTYPE svg PUBLIC "-//W3C//DTD SVG 1.1//EN"
  "http://www.w3.org/Graphics/SVG/1.1/DTD/svg11.dtd">
<!-- Created with matplotlib (http://matplotlib.org/) -->
<svg height="864pt" version="1.1" viewBox="0 0 1152 864" width="1152pt" xmlns="http://www.w3.org/2000/svg" xmlns:xlink="http://www.w3.org/1999/xlink">
 <defs>
  <style type="text/css">
*{stroke-linecap:butt;stroke-linejoin:round;}
  </style>
 </defs>
 <g id="figure_1">
  <g id="patch_1">
   <path d="M 0 864 
L 1152 864 
L 1152 0 
L 0 0 
z
" style="fill:#ffffff;"/>
  </g>
  <g id="axes_1">
   <g id="patch_2">
    <path d="M 144 768.96 
L 1036.8 768.96 
L 1036.8 103.68 
L 144 103.68 
z
" style="fill:#ffffff;"/>
   </g>
   <g id="matplotlib.axis_1">
    <g id="xtick_1">
     <g id="line2d_1">
      <defs>
       <path d="M 0 0 
L 0 3.5 
" id="m2d4071708f" style="stroke:#000000;stroke-width:0.8;"/>
      </defs>
      <g>
       <use style="stroke:#000000;stroke-width:0.8;" x="144" xlink:href="#m2d4071708f" y="768.96"/>
      </g>
     </g>
     <g id="text_1">
      <!-- −4000 -->
      <defs>
       <path d="M 10.59375 35.5 
L 73.1875 35.5 
L 73.1875 27.203125 
L 10.59375 27.203125 
z
" id="DejaVuSans-2212"/>
       <path d="M 37.796875 64.3125 
L 12.890625 25.390625 
L 37.796875 25.390625 
z
M 35.203125 72.90625 
L 47.609375 72.90625 
L 47.609375 25.390625 
L 58.015625 25.390625 
L 58.015625 17.1875 
L 47.609375 17.1875 
L 47.609375 0 
L 37.796875 0 
L 37.796875 17.1875 
L 4.890625 17.1875 
L 4.890625 26.703125 
z
" id="DejaVuSans-34"/>
       <path d="M 31.78125 66.40625 
Q 24.171875 66.40625 20.328125 58.90625 
Q 16.5 51.421875 16.5 36.375 
Q 16.5 21.390625 20.328125 13.890625 
Q 24.171875 6.390625 31.78125 6.390625 
Q 39.453125 6.390625 43.28125 13.890625 
Q 47.125 21.390625 47.125 36.375 
Q 47.125 51.421875 43.28125 58.90625 
Q 39.453125 66.40625 31.78125 66.40625 
z
M 31.78125 74.21875 
Q 44.046875 74.21875 50.515625 64.515625 
Q 56.984375 54.828125 56.984375 36.375 
Q 56.984375 17.96875 50.515625 8.265625 
Q 44.046875 -1.421875 31.78125 -1.421875 
Q 19.53125 -1.421875 13.0625 8.265625 
Q 6.59375 17.96875 6.59375 36.375 
Q 6.59375 54.828125 13.0625 64.515625 
Q 19.53125 74.21875 31.78125 74.21875 
z
" id="DejaVuSans-30"/>
      </defs>
      <g transform="translate(127.085156 783.558437)scale(0.1 -0.1)">
       <use xlink:href="#DejaVuSans-2212"/>
       <use x="83.789062" xlink:href="#DejaVuSans-34"/>
       <use x="147.412109" xlink:href="#DejaVuSans-30"/>
       <use x="211.035156" xlink:href="#DejaVuSans-30"/>
       <use x="274.658203" xlink:href="#DejaVuSans-30"/>
      </g>
     </g>
    </g>
    <g id="xtick_2">
     <g id="line2d_2">
      <g>
       <use style="stroke:#000000;stroke-width:0.8;" x="255.6" xlink:href="#m2d4071708f" y="768.96"/>
      </g>
     </g>
     <g id="text_2">
      <!-- −3000 -->
      <defs>
       <path d="M 40.578125 39.3125 
Q 47.65625 37.796875 51.625 33 
Q 55.609375 28.21875 55.609375 21.1875 
Q 55.609375 10.40625 48.1875 4.484375 
Q 40.765625 -1.421875 27.09375 -1.421875 
Q 22.515625 -1.421875 17.65625 -0.515625 
Q 12.796875 0.390625 7.625 2.203125 
L 7.625 11.71875 
Q 11.71875 9.328125 16.59375 8.109375 
Q 21.484375 6.890625 26.8125 6.890625 
Q 36.078125 6.890625 40.9375 10.546875 
Q 45.796875 14.203125 45.796875 21.1875 
Q 45.796875 27.640625 41.28125 31.265625 
Q 36.765625 34.90625 28.71875 34.90625 
L 20.21875 34.90625 
L 20.21875 43.015625 
L 29.109375 43.015625 
Q 36.375 43.015625 40.234375 45.921875 
Q 44.09375 48.828125 44.09375 54.296875 
Q 44.09375 59.90625 40.109375 62.90625 
Q 36.140625 65.921875 28.71875 65.921875 
Q 24.65625 65.921875 20.015625 65.03125 
Q 15.375 64.15625 9.8125 62.3125 
L 9.8125 71.09375 
Q 15.4375 72.65625 20.34375 73.4375 
Q 25.25 74.21875 29.59375 74.21875 
Q 40.828125 74.21875 47.359375 69.109375 
Q 53.90625 64.015625 53.90625 55.328125 
Q 53.90625 49.265625 50.4375 45.09375 
Q 46.96875 40.921875 40.578125 39.3125 
z
" id="DejaVuSans-33"/>
      </defs>
      <g transform="translate(238.685156 783.558437)scale(0.1 -0.1)">
       <use xlink:href="#DejaVuSans-2212"/>
       <use x="83.789062" xlink:href="#DejaVuSans-33"/>
       <use x="147.412109" xlink:href="#DejaVuSans-30"/>
       <use x="211.035156" xlink:href="#DejaVuSans-30"/>
       <use x="274.658203" xlink:href="#DejaVuSans-30"/>
      </g>
     </g>
    </g>
    <g id="xtick_3">
     <g id="line2d_3">
      <g>
       <use style="stroke:#000000;stroke-width:0.8;" x="367.2" xlink:href="#m2d4071708f" y="768.96"/>
      </g>
     </g>
     <g id="text_3">
      <!-- −2000 -->
      <defs>
       <path d="M 19.1875 8.296875 
L 53.609375 8.296875 
L 53.609375 0 
L 7.328125 0 
L 7.328125 8.296875 
Q 12.9375 14.109375 22.625 23.890625 
Q 32.328125 33.6875 34.8125 36.53125 
Q 39.546875 41.84375 41.421875 45.53125 
Q 43.3125 49.21875 43.3125 52.78125 
Q 43.3125 58.59375 39.234375 62.25 
Q 35.15625 65.921875 28.609375 65.921875 
Q 23.96875 65.921875 18.8125 64.3125 
Q 13.671875 62.703125 7.8125 59.421875 
L 7.8125 69.390625 
Q 13.765625 71.78125 18.9375 73 
Q 24.125 74.21875 28.421875 74.21875 
Q 39.75 74.21875 46.484375 68.546875 
Q 53.21875 62.890625 53.21875 53.421875 
Q 53.21875 48.921875 51.53125 44.890625 
Q 49.859375 40.875 45.40625 35.40625 
Q 44.1875 33.984375 37.640625 27.21875 
Q 31.109375 20.453125 19.1875 8.296875 
z
" id="DejaVuSans-32"/>
      </defs>
      <g transform="translate(350.285156 783.558437)scale(0.1 -0.1)">
       <use xlink:href="#DejaVuSans-2212"/>
       <use x="83.789062" xlink:href="#DejaVuSans-32"/>
       <use x="147.412109" xlink:href="#DejaVuSans-30"/>
       <use x="211.035156" xlink:href="#DejaVuSans-30"/>
       <use x="274.658203" xlink:href="#DejaVuSans-30"/>
      </g>
     </g>
    </g>
    <g id="xtick_4">
     <g id="line2d_4">
      <g>
       <use style="stroke:#000000;stroke-width:0.8;" x="478.8" xlink:href="#m2d4071708f" y="768.96"/>
      </g>
     </g>
     <g id="text_4">
      <!-- −1000 -->
      <defs>
       <path d="M 12.40625 8.296875 
L 28.515625 8.296875 
L 28.515625 63.921875 
L 10.984375 60.40625 
L 10.984375 69.390625 
L 28.421875 72.90625 
L 38.28125 72.90625 
L 38.28125 8.296875 
L 54.390625 8.296875 
L 54.390625 0 
L 12.40625 0 
z
" id="DejaVuSans-31"/>
      </defs>
      <g transform="translate(461.885156 783.558437)scale(0.1 -0.1)">
       <use xlink:href="#DejaVuSans-2212"/>
       <use x="83.789062" xlink:href="#DejaVuSans-31"/>
       <use x="147.412109" xlink:href="#DejaVuSans-30"/>
       <use x="211.035156" xlink:href="#DejaVuSans-30"/>
       <use x="274.658203" xlink:href="#DejaVuSans-30"/>
      </g>
     </g>
    </g>
    <g id="xtick_5">
     <g id="line2d_5">
      <g>
       <use style="stroke:#000000;stroke-width:0.8;" x="590.4" xlink:href="#m2d4071708f" y="768.96"/>
      </g>
     </g>
     <g id="text_5">
      <!-- 0 -->
      <g transform="translate(587.21875 783.558437)scale(0.1 -0.1)">
       <use xlink:href="#DejaVuSans-30"/>
      </g>
     </g>
    </g>
    <g id="xtick_6">
     <g id="line2d_6">
      <g>
       <use style="stroke:#000000;stroke-width:0.8;" x="702" xlink:href="#m2d4071708f" y="768.96"/>
      </g>
     </g>
     <g id="text_6">
      <!-- 1000 -->
      <g transform="translate(689.275 783.558437)scale(0.1 -0.1)">
       <use xlink:href="#DejaVuSans-31"/>
       <use x="63.623047" xlink:href="#DejaVuSans-30"/>
       <use x="127.246094" xlink:href="#DejaVuSans-30"/>
       <use x="190.869141" xlink:href="#DejaVuSans-30"/>
      </g>
     </g>
    </g>
    <g id="xtick_7">
     <g id="line2d_7">
      <g>
       <use style="stroke:#000000;stroke-width:0.8;" x="813.6" xlink:href="#m2d4071708f" y="768.96"/>
      </g>
     </g>
     <g id="text_7">
      <!-- 2000 -->
      <g transform="translate(800.875 783.558437)scale(0.1 -0.1)">
       <use xlink:href="#DejaVuSans-32"/>
       <use x="63.623047" xlink:href="#DejaVuSans-30"/>
       <use x="127.246094" xlink:href="#DejaVuSans-30"/>
       <use x="190.869141" xlink:href="#DejaVuSans-30"/>
      </g>
     </g>
    </g>
    <g id="xtick_8">
     <g id="line2d_8">
      <g>
       <use style="stroke:#000000;stroke-width:0.8;" x="925.2" xlink:href="#m2d4071708f" y="768.96"/>
      </g>
     </g>
     <g id="text_8">
      <!-- 3000 -->
      <g transform="translate(912.475 783.558437)scale(0.1 -0.1)">
       <use xlink:href="#DejaVuSans-33"/>
       <use x="63.623047" xlink:href="#DejaVuSans-30"/>
       <use x="127.246094" xlink:href="#DejaVuSans-30"/>
       <use x="190.869141" xlink:href="#DejaVuSans-30"/>
      </g>
     </g>
    </g>
    <g id="xtick_9">
     <g id="line2d_9">
      <g>
       <use style="stroke:#000000;stroke-width:0.8;" x="1036.8" xlink:href="#m2d4071708f" y="768.96"/>
      </g>
     </g>
     <g id="text_9">
      <!-- 4000 -->
      <g transform="translate(1024.075 783.558437)scale(0.1 -0.1)">
       <use xlink:href="#DejaVuSans-34"/>
       <use x="63.623047" xlink:href="#DejaVuSans-30"/>
       <use x="127.246094" xlink:href="#DejaVuSans-30"/>
       <use x="190.869141" xlink:href="#DejaVuSans-30"/>
      </g>
     </g>
    </g>
   </g>
   <g id="matplotlib.axis_2">
    <g id="ytick_1">
     <g id="line2d_10">
      <defs>
       <path d="M 0 0 
L -3.5 0 
" id="ma8410e3f6a" style="stroke:#000000;stroke-width:0.8;"/>
      </defs>
      <g>
       <use style="stroke:#000000;stroke-width:0.8;" x="144" xlink:href="#ma8410e3f6a" y="768.96"/>
      </g>
     </g>
     <g id="text_10">
      <!-- −4000 -->
      <g transform="translate(103.170312 772.759219)scale(0.1 -0.1)">
       <use xlink:href="#DejaVuSans-2212"/>
       <use x="83.789062" xlink:href="#DejaVuSans-34"/>
       <use x="147.412109" xlink:href="#DejaVuSans-30"/>
       <use x="211.035156" xlink:href="#DejaVuSans-30"/>
       <use x="274.658203" xlink:href="#DejaVuSans-30"/>
      </g>
     </g>
    </g>
    <g id="ytick_2">
     <g id="line2d_11">
      <g>
       <use style="stroke:#000000;stroke-width:0.8;" x="144" xlink:href="#ma8410e3f6a" y="685.8"/>
      </g>
     </g>
     <g id="text_11">
      <!-- −3000 -->
      <g transform="translate(103.170312 689.599219)scale(0.1 -0.1)">
       <use xlink:href="#DejaVuSans-2212"/>
       <use x="83.789062" xlink:href="#DejaVuSans-33"/>
       <use x="147.412109" xlink:href="#DejaVuSans-30"/>
       <use x="211.035156" xlink:href="#DejaVuSans-30"/>
       <use x="274.658203" xlink:href="#DejaVuSans-30"/>
      </g>
     </g>
    </g>
    <g id="ytick_3">
     <g id="line2d_12">
      <g>
       <use style="stroke:#000000;stroke-width:0.8;" x="144" xlink:href="#ma8410e3f6a" y="602.64"/>
      </g>
     </g>
     <g id="text_12">
      <!-- −2000 -->
      <g transform="translate(103.170312 606.439219)scale(0.1 -0.1)">
       <use xlink:href="#DejaVuSans-2212"/>
       <use x="83.789062" xlink:href="#DejaVuSans-32"/>
       <use x="147.412109" xlink:href="#DejaVuSans-30"/>
       <use x="211.035156" xlink:href="#DejaVuSans-30"/>
       <use x="274.658203" xlink:href="#DejaVuSans-30"/>
      </g>
     </g>
    </g>
    <g id="ytick_4">
     <g id="line2d_13">
      <g>
       <use style="stroke:#000000;stroke-width:0.8;" x="144" xlink:href="#ma8410e3f6a" y="519.48"/>
      </g>
     </g>
     <g id="text_13">
      <!-- −1000 -->
      <g transform="translate(103.170312 523.279219)scale(0.1 -0.1)">
       <use xlink:href="#DejaVuSans-2212"/>
       <use x="83.789062" xlink:href="#DejaVuSans-31"/>
       <use x="147.412109" xlink:href="#DejaVuSans-30"/>
       <use x="211.035156" xlink:href="#DejaVuSans-30"/>
       <use x="274.658203" xlink:href="#DejaVuSans-30"/>
      </g>
     </g>
    </g>
    <g id="ytick_5">
     <g id="line2d_14">
      <g>
       <use style="stroke:#000000;stroke-width:0.8;" x="144" xlink:href="#ma8410e3f6a" y="436.32"/>
      </g>
     </g>
     <g id="text_14">
      <!-- 0 -->
      <g transform="translate(130.6375 440.119219)scale(0.1 -0.1)">
       <use xlink:href="#DejaVuSans-30"/>
      </g>
     </g>
    </g>
    <g id="ytick_6">
     <g id="line2d_15">
      <g>
       <use style="stroke:#000000;stroke-width:0.8;" x="144" xlink:href="#ma8410e3f6a" y="353.16"/>
      </g>
     </g>
     <g id="text_15">
      <!-- 1000 -->
      <g transform="translate(111.55 356.959219)scale(0.1 -0.1)">
       <use xlink:href="#DejaVuSans-31"/>
       <use x="63.623047" xlink:href="#DejaVuSans-30"/>
       <use x="127.246094" xlink:href="#DejaVuSans-30"/>
       <use x="190.869141" xlink:href="#DejaVuSans-30"/>
      </g>
     </g>
    </g>
    <g id="ytick_7">
     <g id="line2d_16">
      <g>
       <use style="stroke:#000000;stroke-width:0.8;" x="144" xlink:href="#ma8410e3f6a" y="270"/>
      </g>
     </g>
     <g id="text_16">
      <!-- 2000 -->
      <g transform="translate(111.55 273.799219)scale(0.1 -0.1)">
       <use xlink:href="#DejaVuSans-32"/>
       <use x="63.623047" xlink:href="#DejaVuSans-30"/>
       <use x="127.246094" xlink:href="#DejaVuSans-30"/>
       <use x="190.869141" xlink:href="#DejaVuSans-30"/>
      </g>
     </g>
    </g>
    <g id="ytick_8">
     <g id="line2d_17">
      <g>
       <use style="stroke:#000000;stroke-width:0.8;" x="144" xlink:href="#ma8410e3f6a" y="186.84"/>
      </g>
     </g>
     <g id="text_17">
      <!-- 3000 -->
      <g transform="translate(111.55 190.639219)scale(0.1 -0.1)">
       <use xlink:href="#DejaVuSans-33"/>
       <use x="63.623047" xlink:href="#DejaVuSans-30"/>
       <use x="127.246094" xlink:href="#DejaVuSans-30"/>
       <use x="190.869141" xlink:href="#DejaVuSans-30"/>
      </g>
     </g>
    </g>
    <g id="ytick_9">
     <g id="line2d_18">
      <g>
       <use style="stroke:#000000;stroke-width:0.8;" x="144" xlink:href="#ma8410e3f6a" y="103.68"/>
      </g>
     </g>
     <g id="text_18">
      <!-- 4000 -->
      <g transform="translate(111.55 107.479219)scale(0.1 -0.1)">
       <use xlink:href="#DejaVuSans-34"/>
       <use x="63.623047" xlink:href="#DejaVuSans-30"/>
       <use x="127.246094" xlink:href="#DejaVuSans-30"/>
       <use x="190.869141" xlink:href="#DejaVuSans-30"/>
      </g>
     </g>
    </g>
   </g>
   <g id="line2d_19">
    <path clip-path="url(#p63423b67ba)" d="M 590.4 768.96 
L 590.4 103.68 
" style="fill:none;stroke:#1f77b4;stroke-linecap:square;stroke-width:1.5;"/>
   </g>
   <g id="line2d_20">
    <path clip-path="url(#p63423b67ba)" d="M 144 436.32 
L 1036.8 436.32 
" style="fill:none;stroke:#1f77b4;stroke-linecap:square;stroke-width:1.5;"/>
   </g>
   <g id="line2d_21">
    <defs>
     <path d="M 0 3 
C 0.795609 3 1.55874 2.683901 2.12132 2.12132 
C 2.683901 1.55874 3 0.795609 3 0 
C 3 -0.795609 2.683901 -1.55874 2.12132 -2.12132 
C 1.55874 -2.683901 0.795609 -3 0 -3 
C -0.795609 -3 -1.55874 -2.683901 -2.12132 -2.12132 
C -2.683901 -1.55874 -3 -0.795609 -3 0 
C -3 0.795609 -2.683901 1.55874 -2.12132 2.12132 
C -1.55874 2.683901 -0.795609 3 0 3 
z
" id="mc88dfce07c" style="stroke:#008000;"/>
    </defs>
    <g clip-path="url(#p63423b67ba)">
     <use style="fill:#008000;stroke:#008000;" x="1405.941173" xlink:href="#mc88dfce07c" y="507.911109"/>
    </g>
   </g>
   <g id="line2d_22">
    <g clip-path="url(#p63423b67ba)">
     <use style="fill:#008000;stroke:#008000;" x="745.57471" xlink:href="#mc88dfce07c" y="197.924355"/>
    </g>
   </g>
   <g id="line2d_23">
    <g clip-path="url(#p63423b67ba)">
     <use style="fill:#008000;stroke:#008000;" x="464.195139" xlink:href="#mc88dfce07c" y="246.53389"/>
    </g>
   </g>
   <g id="line2d_24">
    <g clip-path="url(#p63423b67ba)">
     <use style="fill:#008000;stroke:#008000;" x="557.48128" xlink:href="#mc88dfce07c" y="397.629985"/>
    </g>
   </g>
   <g id="line2d_25">
    <g clip-path="url(#p63423b67ba)">
     <use style="fill:#008000;stroke:#008000;" x="557.48128" xlink:href="#mc88dfce07c" y="397.629985"/>
    </g>
   </g>
   <g id="line2d_26">
    <g clip-path="url(#p63423b67ba)">
     <use style="fill:#008000;stroke:#008000;" x="419.844733" xlink:href="#mc88dfce07c" y="259.168612"/>
    </g>
   </g>
   <g id="line2d_27">
    <g clip-path="url(#p63423b67ba)">
     <use style="fill:#008000;stroke:#008000;" x="410.15292" xlink:href="#mc88dfce07c" y="505.542167"/>
    </g>
   </g>
   <g id="line2d_28">
    <g clip-path="url(#p63423b67ba)">
     <use style="fill:#008000;stroke:#008000;" x="823.377131" xlink:href="#mc88dfce07c" y="581.710198"/>
    </g>
   </g>
   <g id="line2d_29">
    <g clip-path="url(#p63423b67ba)">
     <use style="fill:#008000;stroke:#008000;" x="923.15473" xlink:href="#mc88dfce07c" y="553.428979"/>
    </g>
   </g>
   <g id="line2d_30">
    <defs>
     <path d="M 0 1.333333 
C 0.353604 1.333333 0.692773 1.192845 0.942809 0.942809 
C 1.192845 0.692773 1.333333 0.353604 1.333333 0 
C 1.333333 -0.353604 1.192845 -0.692773 0.942809 -0.942809 
C 0.692773 -1.192845 0.353604 -1.333333 0 -1.333333 
C -0.353604 -1.333333 -0.692773 -1.192845 -0.942809 -0.942809 
C -1.192845 -0.692773 -1.333333 -0.353604 -1.333333 0 
C -1.333333 0.353604 -1.192845 0.692773 -0.942809 0.942809 
C -0.692773 1.192845 -0.353604 1.333333 0 1.333333 
z
" id="mb253f88d38" style="stroke:#ff0000;"/>
    </defs>
    <g clip-path="url(#p63423b67ba)">
     <use style="fill:#ff0000;stroke:#ff0000;" x="1405.941173" xlink:href="#mb253f88d38" y="507.911109"/>
     <use style="fill:#ff0000;stroke:#ff0000;" x="1287.961738" xlink:href="#mb253f88d38" y="351.22925"/>
     <use style="fill:#ff0000;stroke:#ff0000;" x="1271.620919" xlink:href="#mb253f88d38" y="328.422153"/>
     <use style="fill:#ff0000;stroke:#ff0000;" x="1360.325509" xlink:href="#mb253f88d38" y="286.443006"/>
     <use style="fill:#ff0000;stroke:#ff0000;" x="1318.761847" xlink:href="#mb253f88d38" y="267.143213"/>
     <use style="fill:#ff0000;stroke:#ff0000;" x="649.732823" xlink:href="#mb253f88d38" y="398.517214"/>
     <use style="fill:#ff0000;stroke:#ff0000;" x="648.227365" xlink:href="#mb253f88d38" y="378.38417"/>
     <use style="fill:#ff0000;stroke:#ff0000;" x="825.233376" xlink:href="#mb253f88d38" y="187.998952"/>
     <use style="fill:#ff0000;stroke:#ff0000;" x="798.860768" xlink:href="#mb253f88d38" y="192.343117"/>
     <use style="fill:#ff0000;stroke:#ff0000;" x="778.129786" xlink:href="#mb253f88d38" y="192.953486"/>
     <use style="fill:#ff0000;stroke:#ff0000;" x="755.875398" xlink:href="#mb253f88d38" y="196.424927"/>
     <use style="fill:#ff0000;stroke:#ff0000;" x="735.457711" xlink:href="#mb253f88d38" y="199.648396"/>
     <use style="fill:#ff0000;stroke:#ff0000;" x="464.195139" xlink:href="#mb253f88d38" y="246.53389"/>
     <use style="fill:#ff0000;stroke:#ff0000;" x="559.11963" xlink:href="#mb253f88d38" y="397.742231"/>
     <use style="fill:#ff0000;stroke:#ff0000;" x="555.822168" xlink:href="#mb253f88d38" y="397.552723"/>
     <use style="fill:#ff0000;stroke:#ff0000;" x="421.728107" xlink:href="#mb253f88d38" y="252.047038"/>
     <use style="fill:#ff0000;stroke:#ff0000;" x="418.317655" xlink:href="#mb253f88d38" y="266.25075"/>
     <use style="fill:#ff0000;stroke:#ff0000;" x="394.442607" xlink:href="#mb253f88d38" y="290.618355"/>
     <use style="fill:#ff0000;stroke:#ff0000;" x="414.935628" xlink:href="#mb253f88d38" y="317.685823"/>
     <use style="fill:#ff0000;stroke:#ff0000;" x="420.039241" xlink:href="#mb253f88d38" y="331.847907"/>
     <use style="fill:#ff0000;stroke:#ff0000;" x="409.877671" xlink:href="#mb253f88d38" y="362.568478"/>
     <use style="fill:#ff0000;stroke:#ff0000;" x="455.092489" xlink:href="#mb253f88d38" y="393.392075"/>
     <use style="fill:#ff0000;stroke:#ff0000;" x="465.875489" xlink:href="#mb253f88d38" y="411.754867"/>
     <use style="fill:#ff0000;stroke:#ff0000;" x="449.002921" xlink:href="#mb253f88d38" y="413.353033"/>
     <use style="fill:#ff0000;stroke:#ff0000;" x="420.726738" xlink:href="#mb253f88d38" y="437.975111"/>
     <use style="fill:#ff0000;stroke:#ff0000;" x="395.720513" xlink:href="#mb253f88d38" y="444.557536"/>
     <use style="fill:#ff0000;stroke:#ff0000;" x="410.15292" xlink:href="#mb253f88d38" y="505.542167"/>
     <use style="fill:#ff0000;stroke:#ff0000;" x="467.123331" xlink:href="#mb253f88d38" y="489.891753"/>
     <use style="fill:#ff0000;stroke:#ff0000;" x="431.812937" xlink:href="#mb253f88d38" y="511.96742"/>
     <use style="fill:#ff0000;stroke:#ff0000;" x="457.215596" xlink:href="#mb253f88d38" y="514.032292"/>
     <use style="fill:#ff0000;stroke:#ff0000;" x="467.641746" xlink:href="#mb253f88d38" y="515.139643"/>
     <use style="fill:#ff0000;stroke:#ff0000;" x="456.496682" xlink:href="#mb253f88d38" y="530.388618"/>
     <use style="fill:#ff0000;stroke:#ff0000;" x="455.550196" xlink:href="#mb253f88d38" y="540.148217"/>
     <use style="fill:#ff0000;stroke:#ff0000;" x="470.752141" xlink:href="#mb253f88d38" y="537.649079"/>
     <use style="fill:#ff0000;stroke:#ff0000;" x="454.464486" xlink:href="#mb253f88d38" y="561.967027"/>
     <use style="fill:#ff0000;stroke:#ff0000;" x="526.232929" xlink:href="#mb253f88d38" y="503.23803"/>
     <use style="fill:#ff0000;stroke:#ff0000;" x="576.743784" xlink:href="#mb253f88d38" y="503.285048"/>
     <use style="fill:#ff0000;stroke:#ff0000;" x="583.191873" xlink:href="#mb253f88d38" y="612.121366"/>
     <use style="fill:#ff0000;stroke:#ff0000;" x="594.37001" xlink:href="#mb253f88d38" y="637.191987"/>
     <use style="fill:#ff0000;stroke:#ff0000;" x="620.403297" xlink:href="#mb253f88d38" y="640.463008"/>
     <use style="fill:#ff0000;stroke:#ff0000;" x="629.832487" xlink:href="#mb253f88d38" y="622.497666"/>
     <use style="fill:#ff0000;stroke:#ff0000;" x="668.253942" xlink:href="#mb253f88d38" y="627.003949"/>
     <use style="fill:#ff0000;stroke:#ff0000;" x="668.034791" xlink:href="#mb253f88d38" y="598.140262"/>
     <use style="fill:#ff0000;stroke:#ff0000;" x="705.864943" xlink:href="#mb253f88d38" y="600.833784"/>
     <use style="fill:#ff0000;stroke:#ff0000;" x="747.451639" xlink:href="#mb253f88d38" y="600.577757"/>
     <use style="fill:#ff0000;stroke:#ff0000;" x="812.779805" xlink:href="#mb253f88d38" y="581.722701"/>
     <use style="fill:#ff0000;stroke:#ff0000;" x="834.088495" xlink:href="#mb253f88d38" y="581.408953"/>
     <use style="fill:#ff0000;stroke:#ff0000;" x="837.843976" xlink:href="#mb253f88d38" y="569.517288"/>
     <use style="fill:#ff0000;stroke:#ff0000;" x="875.545062" xlink:href="#mb253f88d38" y="575.627377"/>
     <use style="fill:#ff0000;stroke:#ff0000;" x="923.15473" xlink:href="#mb253f88d38" y="553.428979"/>
     <use style="fill:#ff0000;stroke:#ff0000;" x="1051.044766" xlink:href="#mb253f88d38" y="543.519516"/>
     <use style="fill:#ff0000;stroke:#ff0000;" x="1069.759141" xlink:href="#mb253f88d38" y="530.050457"/>
     <use style="fill:#ff0000;stroke:#ff0000;" x="1084.459693" xlink:href="#mb253f88d38" y="514.88844"/>
     <use style="fill:#ff0000;stroke:#ff0000;" x="1126.862908" xlink:href="#mb253f88d38" y="502.655228"/>
    </g>
   </g>
   <g id="line2d_31">
    <defs>
     <path d="M -0.5 0.5 
L 0.5 0.5 
L 0.5 -0.5 
L -0.5 -0.5 
z
" id="mb9db79f7d9" style="stroke:#1f77b4;stroke-linejoin:miter;"/>
    </defs>
    <g clip-path="url(#p63423b67ba)">
     <use style="fill:#1f77b4;stroke:#1f77b4;stroke-linejoin:miter;" x="1405.941173" xlink:href="#mb9db79f7d9" y="507.911109"/>
     <use style="fill:#1f77b4;stroke:#1f77b4;stroke-linejoin:miter;" x="1287.961738" xlink:href="#mb9db79f7d9" y="351.22925"/>
     <use style="fill:#1f77b4;stroke:#1f77b4;stroke-linejoin:miter;" x="1271.620919" xlink:href="#mb9db79f7d9" y="328.422153"/>
     <use style="fill:#1f77b4;stroke:#1f77b4;stroke-linejoin:miter;" x="1360.325509" xlink:href="#mb9db79f7d9" y="286.443006"/>
     <use style="fill:#1f77b4;stroke:#1f77b4;stroke-linejoin:miter;" x="1318.761847" xlink:href="#mb9db79f7d9" y="267.143213"/>
     <use style="fill:#1f77b4;stroke:#1f77b4;stroke-linejoin:miter;" x="649.732823" xlink:href="#mb9db79f7d9" y="398.517214"/>
     <use style="fill:#1f77b4;stroke:#1f77b4;stroke-linejoin:miter;" x="646.542518" xlink:href="#mb9db79f7d9" y="396.986843"/>
     <use style="fill:#1f77b4;stroke:#1f77b4;stroke-linejoin:miter;" x="644.769756" xlink:href="#mb9db79f7d9" y="394.549035"/>
     <use style="fill:#1f77b4;stroke:#1f77b4;stroke-linejoin:miter;" x="642.838496" xlink:href="#mb9db79f7d9" y="392.250552"/>
     <use style="fill:#1f77b4;stroke:#1f77b4;stroke-linejoin:miter;" x="642.214078" xlink:href="#mb9db79f7d9" y="388.374054"/>
     <use style="fill:#1f77b4;stroke:#1f77b4;stroke-linejoin:miter;" x="648.227365" xlink:href="#mb9db79f7d9" y="378.38417"/>
     <use style="fill:#1f77b4;stroke:#1f77b4;stroke-linejoin:miter;" x="825.233376" xlink:href="#mb9db79f7d9" y="187.998952"/>
     <use style="fill:#1f77b4;stroke:#1f77b4;stroke-linejoin:miter;" x="798.860768" xlink:href="#mb9db79f7d9" y="192.343117"/>
     <use style="fill:#1f77b4;stroke:#1f77b4;stroke-linejoin:miter;" x="778.129786" xlink:href="#mb9db79f7d9" y="192.953486"/>
     <use style="fill:#1f77b4;stroke:#1f77b4;stroke-linejoin:miter;" x="755.875398" xlink:href="#mb9db79f7d9" y="196.424927"/>
     <use style="fill:#1f77b4;stroke:#1f77b4;stroke-linejoin:miter;" x="735.457711" xlink:href="#mb9db79f7d9" y="199.648396"/>
     <use style="fill:#1f77b4;stroke:#1f77b4;stroke-linejoin:miter;" x="716.172073" xlink:href="#mb9db79f7d9" y="203.072709"/>
     <use style="fill:#1f77b4;stroke:#1f77b4;stroke-linejoin:miter;" x="698.099118" xlink:href="#mb9db79f7d9" y="205.904626"/>
     <use style="fill:#1f77b4;stroke:#1f77b4;stroke-linejoin:miter;" x="680.939931" xlink:href="#mb9db79f7d9" y="209.011064"/>
     <use style="fill:#1f77b4;stroke:#1f77b4;stroke-linejoin:miter;" x="665.097654" xlink:href="#mb9db79f7d9" y="210.715253"/>
     <use style="fill:#1f77b4;stroke:#1f77b4;stroke-linejoin:miter;" x="649.707125" xlink:href="#mb9db79f7d9" y="213.191025"/>
     <use style="fill:#1f77b4;stroke:#1f77b4;stroke-linejoin:miter;" x="634.825024" xlink:href="#mb9db79f7d9" y="215.229707"/>
     <use style="fill:#1f77b4;stroke:#1f77b4;stroke-linejoin:miter;" x="619.825564" xlink:href="#mb9db79f7d9" y="218.564842"/>
     <use style="fill:#1f77b4;stroke:#1f77b4;stroke-linejoin:miter;" x="605.973421" xlink:href="#mb9db79f7d9" y="219.416294"/>
     <use style="fill:#1f77b4;stroke:#1f77b4;stroke-linejoin:miter;" x="592.344539" xlink:href="#mb9db79f7d9" y="223.788769"/>
     <use style="fill:#1f77b4;stroke:#1f77b4;stroke-linejoin:miter;" x="579.029466" xlink:href="#mb9db79f7d9" y="225.076343"/>
     <use style="fill:#1f77b4;stroke:#1f77b4;stroke-linejoin:miter;" x="565.815127" xlink:href="#mb9db79f7d9" y="226.265172"/>
     <use style="fill:#1f77b4;stroke:#1f77b4;stroke-linejoin:miter;" x="553.214115" xlink:href="#mb9db79f7d9" y="230.190964"/>
     <use style="fill:#1f77b4;stroke:#1f77b4;stroke-linejoin:miter;" x="540.629544" xlink:href="#mb9db79f7d9" y="232.81123"/>
     <use style="fill:#1f77b4;stroke:#1f77b4;stroke-linejoin:miter;" x="528.287131" xlink:href="#mb9db79f7d9" y="236.090651"/>
     <use style="fill:#1f77b4;stroke:#1f77b4;stroke-linejoin:miter;" x="515.830396" xlink:href="#mb9db79f7d9" y="238.055277"/>
     <use style="fill:#1f77b4;stroke:#1f77b4;stroke-linejoin:miter;" x="503.367959" xlink:href="#mb9db79f7d9" y="240.545339"/>
     <use style="fill:#1f77b4;stroke:#1f77b4;stroke-linejoin:miter;" x="490.466395" xlink:href="#mb9db79f7d9" y="242.169496"/>
     <use style="fill:#1f77b4;stroke:#1f77b4;stroke-linejoin:miter;" x="477.209049" xlink:href="#mb9db79f7d9" y="243.776221"/>
     <use style="fill:#1f77b4;stroke:#1f77b4;stroke-linejoin:miter;" x="464.195139" xlink:href="#mb9db79f7d9" y="246.53389"/>
     <use style="fill:#1f77b4;stroke:#1f77b4;stroke-linejoin:miter;" x="559.11963" xlink:href="#mb9db79f7d9" y="397.742231"/>
     <use style="fill:#1f77b4;stroke:#1f77b4;stroke-linejoin:miter;" x="555.822168" xlink:href="#mb9db79f7d9" y="397.552723"/>
     <use style="fill:#1f77b4;stroke:#1f77b4;stroke-linejoin:miter;" x="421.728107" xlink:href="#mb9db79f7d9" y="252.047038"/>
     <use style="fill:#1f77b4;stroke:#1f77b4;stroke-linejoin:miter;" x="418.317655" xlink:href="#mb9db79f7d9" y="266.25075"/>
     <use style="fill:#1f77b4;stroke:#1f77b4;stroke-linejoin:miter;" x="400.827762" xlink:href="#mb9db79f7d9" y="265.904624"/>
     <use style="fill:#1f77b4;stroke:#1f77b4;stroke-linejoin:miter;" x="390.519772" xlink:href="#mb9db79f7d9" y="272.88465"/>
     <use style="fill:#1f77b4;stroke:#1f77b4;stroke-linejoin:miter;" x="394.442607" xlink:href="#mb9db79f7d9" y="290.618355"/>
     <use style="fill:#1f77b4;stroke:#1f77b4;stroke-linejoin:miter;" x="414.935628" xlink:href="#mb9db79f7d9" y="317.685823"/>
     <use style="fill:#1f77b4;stroke:#1f77b4;stroke-linejoin:miter;" x="420.039241" xlink:href="#mb9db79f7d9" y="331.847907"/>
     <use style="fill:#1f77b4;stroke:#1f77b4;stroke-linejoin:miter;" x="420.546852" xlink:href="#mb9db79f7d9" y="341.807198"/>
     <use style="fill:#1f77b4;stroke:#1f77b4;stroke-linejoin:miter;" x="415.793639" xlink:href="#mb9db79f7d9" y="356.783645"/>
     <use style="fill:#1f77b4;stroke:#1f77b4;stroke-linejoin:miter;" x="409.877671" xlink:href="#mb9db79f7d9" y="362.568478"/>
     <use style="fill:#1f77b4;stroke:#1f77b4;stroke-linejoin:miter;" x="455.092489" xlink:href="#mb9db79f7d9" y="393.392075"/>
     <use style="fill:#1f77b4;stroke:#1f77b4;stroke-linejoin:miter;" x="456.147442" xlink:href="#mb9db79f7d9" y="399.289337"/>
     <use style="fill:#1f77b4;stroke:#1f77b4;stroke-linejoin:miter;" x="457.599988" xlink:href="#mb9db79f7d9" y="404.970432"/>
     <use style="fill:#1f77b4;stroke:#1f77b4;stroke-linejoin:miter;" x="465.875489" xlink:href="#mb9db79f7d9" y="411.754867"/>
     <use style="fill:#1f77b4;stroke:#1f77b4;stroke-linejoin:miter;" x="449.002921" xlink:href="#mb9db79f7d9" y="413.353033"/>
     <use style="fill:#1f77b4;stroke:#1f77b4;stroke-linejoin:miter;" x="429.392601" xlink:href="#mb9db79f7d9" y="415.636895"/>
     <use style="fill:#1f77b4;stroke:#1f77b4;stroke-linejoin:miter;" x="425.870697" xlink:href="#mb9db79f7d9" y="420.994927"/>
     <use style="fill:#1f77b4;stroke:#1f77b4;stroke-linejoin:miter;" x="422.552508" xlink:href="#mb9db79f7d9" y="426.648086"/>
     <use style="fill:#1f77b4;stroke:#1f77b4;stroke-linejoin:miter;" x="420.286569" xlink:href="#mb9db79f7d9" y="432.516274"/>
     <use style="fill:#1f77b4;stroke:#1f77b4;stroke-linejoin:miter;" x="420.726738" xlink:href="#mb9db79f7d9" y="437.975111"/>
     <use style="fill:#1f77b4;stroke:#1f77b4;stroke-linejoin:miter;" x="395.720513" xlink:href="#mb9db79f7d9" y="444.557536"/>
     <use style="fill:#1f77b4;stroke:#1f77b4;stroke-linejoin:miter;" x="395.781454" xlink:href="#mb9db79f7d9" y="451.362549"/>
     <use style="fill:#1f77b4;stroke:#1f77b4;stroke-linejoin:miter;" x="399.121311" xlink:href="#mb9db79f7d9" y="457.900017"/>
     <use style="fill:#1f77b4;stroke:#1f77b4;stroke-linejoin:miter;" x="400.969939" xlink:href="#mb9db79f7d9" y="464.437683"/>
     <use style="fill:#1f77b4;stroke:#1f77b4;stroke-linejoin:miter;" x="404.507377" xlink:href="#mb9db79f7d9" y="470.616267"/>
     <use style="fill:#1f77b4;stroke:#1f77b4;stroke-linejoin:miter;" x="403.921696" xlink:href="#mb9db79f7d9" y="477.563217"/>
     <use style="fill:#1f77b4;stroke:#1f77b4;stroke-linejoin:miter;" x="405.158899" xlink:href="#mb9db79f7d9" y="484.481575"/>
     <use style="fill:#1f77b4;stroke:#1f77b4;stroke-linejoin:miter;" x="407.602475" xlink:href="#mb9db79f7d9" y="491.051644"/>
     <use style="fill:#1f77b4;stroke:#1f77b4;stroke-linejoin:miter;" x="409.214929" xlink:href="#mb9db79f7d9" y="498.115552"/>
     <use style="fill:#1f77b4;stroke:#1f77b4;stroke-linejoin:miter;" x="410.15292" xlink:href="#mb9db79f7d9" y="505.542167"/>
     <use style="fill:#1f77b4;stroke:#1f77b4;stroke-linejoin:miter;" x="467.123331" xlink:href="#mb9db79f7d9" y="489.891753"/>
     <use style="fill:#1f77b4;stroke:#1f77b4;stroke-linejoin:miter;" x="431.812937" xlink:href="#mb9db79f7d9" y="511.96742"/>
     <use style="fill:#1f77b4;stroke:#1f77b4;stroke-linejoin:miter;" x="438.106762" xlink:href="#mb9db79f7d9" y="516.661169"/>
     <use style="fill:#1f77b4;stroke:#1f77b4;stroke-linejoin:miter;" x="457.215596" xlink:href="#mb9db79f7d9" y="514.032292"/>
     <use style="fill:#1f77b4;stroke:#1f77b4;stroke-linejoin:miter;" x="467.641746" xlink:href="#mb9db79f7d9" y="515.139643"/>
     <use style="fill:#1f77b4;stroke:#1f77b4;stroke-linejoin:miter;" x="456.496682" xlink:href="#mb9db79f7d9" y="530.388618"/>
     <use style="fill:#1f77b4;stroke:#1f77b4;stroke-linejoin:miter;" x="455.550196" xlink:href="#mb9db79f7d9" y="540.148217"/>
     <use style="fill:#1f77b4;stroke:#1f77b4;stroke-linejoin:miter;" x="470.752141" xlink:href="#mb9db79f7d9" y="537.649079"/>
     <use style="fill:#1f77b4;stroke:#1f77b4;stroke-linejoin:miter;" x="454.464486" xlink:href="#mb9db79f7d9" y="561.967027"/>
     <use style="fill:#1f77b4;stroke:#1f77b4;stroke-linejoin:miter;" x="526.232929" xlink:href="#mb9db79f7d9" y="503.23803"/>
     <use style="fill:#1f77b4;stroke:#1f77b4;stroke-linejoin:miter;" x="534.253342" xlink:href="#mb9db79f7d9" y="501.364948"/>
     <use style="fill:#1f77b4;stroke:#1f77b4;stroke-linejoin:miter;" x="542.736077" xlink:href="#mb9db79f7d9" y="497.915346"/>
     <use style="fill:#1f77b4;stroke:#1f77b4;stroke-linejoin:miter;" x="547.882834" xlink:href="#mb9db79f7d9" y="497.875921"/>
     <use style="fill:#1f77b4;stroke:#1f77b4;stroke-linejoin:miter;" x="552.288613" xlink:href="#mb9db79f7d9" y="498.636204"/>
     <use style="fill:#1f77b4;stroke:#1f77b4;stroke-linejoin:miter;" x="555.08725" xlink:href="#mb9db79f7d9" y="501.499849"/>
     <use style="fill:#1f77b4;stroke:#1f77b4;stroke-linejoin:miter;" x="558.818776" xlink:href="#mb9db79f7d9" y="503.414403"/>
     <use style="fill:#1f77b4;stroke:#1f77b4;stroke-linejoin:miter;" x="562.364821" xlink:href="#mb9db79f7d9" y="505.869729"/>
     <use style="fill:#1f77b4;stroke:#1f77b4;stroke-linejoin:miter;" x="567.78897" xlink:href="#mb9db79f7d9" y="504.133405"/>
     <use style="fill:#1f77b4;stroke:#1f77b4;stroke-linejoin:miter;" x="572.753265" xlink:href="#mb9db79f7d9" y="502.616782"/>
     <use style="fill:#1f77b4;stroke:#1f77b4;stroke-linejoin:miter;" x="576.743784" xlink:href="#mb9db79f7d9" y="503.285048"/>
     <use style="fill:#1f77b4;stroke:#1f77b4;stroke-linejoin:miter;" x="583.191873" xlink:href="#mb9db79f7d9" y="612.121366"/>
     <use style="fill:#1f77b4;stroke:#1f77b4;stroke-linejoin:miter;" x="594.37001" xlink:href="#mb9db79f7d9" y="637.191987"/>
     <use style="fill:#1f77b4;stroke:#1f77b4;stroke-linejoin:miter;" x="606.579138" xlink:href="#mb9db79f7d9" y="631.686213"/>
     <use style="fill:#1f77b4;stroke:#1f77b4;stroke-linejoin:miter;" x="620.403297" xlink:href="#mb9db79f7d9" y="640.463008"/>
     <use style="fill:#1f77b4;stroke:#1f77b4;stroke-linejoin:miter;" x="629.832487" xlink:href="#mb9db79f7d9" y="622.497666"/>
     <use style="fill:#1f77b4;stroke:#1f77b4;stroke-linejoin:miter;" x="655.645386" xlink:href="#mb9db79f7d9" y="627.318456"/>
     <use style="fill:#1f77b4;stroke:#1f77b4;stroke-linejoin:miter;" x="668.253942" xlink:href="#mb9db79f7d9" y="627.003949"/>
     <use style="fill:#1f77b4;stroke:#1f77b4;stroke-linejoin:miter;" x="668.034791" xlink:href="#mb9db79f7d9" y="598.140262"/>
     <use style="fill:#1f77b4;stroke:#1f77b4;stroke-linejoin:miter;" x="679.505495" xlink:href="#mb9db79f7d9" y="597.863506"/>
     <use style="fill:#1f77b4;stroke:#1f77b4;stroke-linejoin:miter;" x="691.637662" xlink:href="#mb9db79f7d9" y="598.213394"/>
     <use style="fill:#1f77b4;stroke:#1f77b4;stroke-linejoin:miter;" x="705.864943" xlink:href="#mb9db79f7d9" y="600.833784"/>
     <use style="fill:#1f77b4;stroke:#1f77b4;stroke-linejoin:miter;" x="747.451639" xlink:href="#mb9db79f7d9" y="600.577757"/>
     <use style="fill:#1f77b4;stroke:#1f77b4;stroke-linejoin:miter;" x="756.092073" xlink:href="#mb9db79f7d9" y="593.28943"/>
     <use style="fill:#1f77b4;stroke:#1f77b4;stroke-linejoin:miter;" x="764.161716" xlink:href="#mb9db79f7d9" y="586.258464"/>
     <use style="fill:#1f77b4;stroke:#1f77b4;stroke-linejoin:miter;" x="779.998843" xlink:href="#mb9db79f7d9" y="585.362586"/>
     <use style="fill:#1f77b4;stroke:#1f77b4;stroke-linejoin:miter;" x="797.529353" xlink:href="#mb9db79f7d9" y="584.962836"/>
     <use style="fill:#1f77b4;stroke:#1f77b4;stroke-linejoin:miter;" x="812.779805" xlink:href="#mb9db79f7d9" y="581.722701"/>
     <use style="fill:#1f77b4;stroke:#1f77b4;stroke-linejoin:miter;" x="834.088495" xlink:href="#mb9db79f7d9" y="581.408953"/>
     <use style="fill:#1f77b4;stroke:#1f77b4;stroke-linejoin:miter;" x="837.843976" xlink:href="#mb9db79f7d9" y="569.517288"/>
     <use style="fill:#1f77b4;stroke:#1f77b4;stroke-linejoin:miter;" x="875.545062" xlink:href="#mb9db79f7d9" y="575.627377"/>
     <use style="fill:#1f77b4;stroke:#1f77b4;stroke-linejoin:miter;" x="923.15473" xlink:href="#mb9db79f7d9" y="553.428979"/>
     <use style="fill:#1f77b4;stroke:#1f77b4;stroke-linejoin:miter;" x="1051.044766" xlink:href="#mb9db79f7d9" y="543.519516"/>
     <use style="fill:#1f77b4;stroke:#1f77b4;stroke-linejoin:miter;" x="1069.759141" xlink:href="#mb9db79f7d9" y="530.050457"/>
     <use style="fill:#1f77b4;stroke:#1f77b4;stroke-linejoin:miter;" x="1084.459693" xlink:href="#mb9db79f7d9" y="514.88844"/>
     <use style="fill:#1f77b4;stroke:#1f77b4;stroke-linejoin:miter;" x="1126.862908" xlink:href="#mb9db79f7d9" y="502.655228"/>
    </g>
   </g>
   <g id="patch_3">
    <path d="M 144 768.96 
L 144 103.68 
" style="fill:none;stroke:#000000;stroke-linecap:square;stroke-linejoin:miter;stroke-width:0.8;"/>
   </g>
   <g id="patch_4">
    <path d="M 1036.8 768.96 
L 1036.8 103.68 
" style="fill:none;stroke:#000000;stroke-linecap:square;stroke-linejoin:miter;stroke-width:0.8;"/>
   </g>
   <g id="patch_5">
    <path d="M 144 768.96 
L 1036.8 768.96 
" style="fill:none;stroke:#000000;stroke-linecap:square;stroke-linejoin:miter;stroke-width:0.8;"/>
   </g>
   <g id="patch_6">
    <path d="M 144 103.68 
L 1036.8 103.68 
" style="fill:none;stroke:#000000;stroke-linecap:square;stroke-linejoin:miter;stroke-width:0.8;"/>
   </g>
  </g>
 </g>
 <defs>
  <clipPath id="p63423b67ba">
   <rect height="665.28" width="892.8" x="144" y="103.68"/>
  </clipPath>
 </defs>
</svg>
