<?xml version="1.0" encoding="utf-8" standalone="no"?>
<!DOCTYPE svg PUBLIC "-//W3C//DTD SVG 1.1//EN"
  "http://www.w3.org/Graphics/SVG/1.1/DTD/svg11.dtd">
<!-- Created with matplotlib (http://matplotlib.org/) -->
<svg height="864pt" version="1.1" viewBox="0 0 1152 864" width="1152pt" xmlns="http://www.w3.org/2000/svg" xmlns:xlink="http://www.w3.org/1999/xlink">
 <defs>
  <style type="text/css">
*{stroke-linecap:butt;stroke-linejoin:round;}
  </style>
 </defs>
 <g id="figure_1">
  <g id="patch_1">
   <path d="M 0 864 
L 1152 864 
L 1152 0 
L 0 0 
z
" style="fill:#ffffff;"/>
  </g>
  <g id="axes_1">
   <g id="patch_2">
    <path d="M 144 768.96 
L 1036.8 768.96 
L 1036.8 103.68 
L 144 103.68 
z
" style="fill:#ffffff;"/>
   </g>
   <g id="matplotlib.axis_1">
    <g id="xtick_1">
     <g id="line2d_1">
      <defs>
       <path d="M 0 0 
L 0 3.5 
" id="m6d584f1f2a" style="stroke:#000000;stroke-width:0.8;"/>
      </defs>
      <g>
       <use style="stroke:#000000;stroke-width:0.8;" x="144" xlink:href="#m6d584f1f2a" y="768.96"/>
      </g>
     </g>
     <g id="text_1">
      <!-- −4000 -->
      <defs>
       <path d="M 10.59375 35.5 
L 73.1875 35.5 
L 73.1875 27.203125 
L 10.59375 27.203125 
z
" id="DejaVuSans-2212"/>
       <path d="M 37.796875 64.3125 
L 12.890625 25.390625 
L 37.796875 25.390625 
z
M 35.203125 72.90625 
L 47.609375 72.90625 
L 47.609375 25.390625 
L 58.015625 25.390625 
L 58.015625 17.1875 
L 47.609375 17.1875 
L 47.609375 0 
L 37.796875 0 
L 37.796875 17.1875 
L 4.890625 17.1875 
L 4.890625 26.703125 
z
" id="DejaVuSans-34"/>
       <path d="M 31.78125 66.40625 
Q 24.171875 66.40625 20.328125 58.90625 
Q 16.5 51.421875 16.5 36.375 
Q 16.5 21.390625 20.328125 13.890625 
Q 24.171875 6.390625 31.78125 6.390625 
Q 39.453125 6.390625 43.28125 13.890625 
Q 47.125 21.390625 47.125 36.375 
Q 47.125 51.421875 43.28125 58.90625 
Q 39.453125 66.40625 31.78125 66.40625 
z
M 31.78125 74.21875 
Q 44.046875 74.21875 50.515625 64.515625 
Q 56.984375 54.828125 56.984375 36.375 
Q 56.984375 17.96875 50.515625 8.265625 
Q 44.046875 -1.421875 31.78125 -1.421875 
Q 19.53125 -1.421875 13.0625 8.265625 
Q 6.59375 17.96875 6.59375 36.375 
Q 6.59375 54.828125 13.0625 64.515625 
Q 19.53125 74.21875 31.78125 74.21875 
z
" id="DejaVuSans-30"/>
      </defs>
      <g transform="translate(127.085156 783.558437)scale(0.1 -0.1)">
       <use xlink:href="#DejaVuSans-2212"/>
       <use x="83.789062" xlink:href="#DejaVuSans-34"/>
       <use x="147.412109" xlink:href="#DejaVuSans-30"/>
       <use x="211.035156" xlink:href="#DejaVuSans-30"/>
       <use x="274.658203" xlink:href="#DejaVuSans-30"/>
      </g>
     </g>
    </g>
    <g id="xtick_2">
     <g id="line2d_2">
      <g>
       <use style="stroke:#000000;stroke-width:0.8;" x="255.6" xlink:href="#m6d584f1f2a" y="768.96"/>
      </g>
     </g>
     <g id="text_2">
      <!-- −3000 -->
      <defs>
       <path d="M 40.578125 39.3125 
Q 47.65625 37.796875 51.625 33 
Q 55.609375 28.21875 55.609375 21.1875 
Q 55.609375 10.40625 48.1875 4.484375 
Q 40.765625 -1.421875 27.09375 -1.421875 
Q 22.515625 -1.421875 17.65625 -0.515625 
Q 12.796875 0.390625 7.625 2.203125 
L 7.625 11.71875 
Q 11.71875 9.328125 16.59375 8.109375 
Q 21.484375 6.890625 26.8125 6.890625 
Q 36.078125 6.890625 40.9375 10.546875 
Q 45.796875 14.203125 45.796875 21.1875 
Q 45.796875 27.640625 41.28125 31.265625 
Q 36.765625 34.90625 28.71875 34.90625 
L 20.21875 34.90625 
L 20.21875 43.015625 
L 29.109375 43.015625 
Q 36.375 43.015625 40.234375 45.921875 
Q 44.09375 48.828125 44.09375 54.296875 
Q 44.09375 59.90625 40.109375 62.90625 
Q 36.140625 65.921875 28.71875 65.921875 
Q 24.65625 65.921875 20.015625 65.03125 
Q 15.375 64.15625 9.8125 62.3125 
L 9.8125 71.09375 
Q 15.4375 72.65625 20.34375 73.4375 
Q 25.25 74.21875 29.59375 74.21875 
Q 40.828125 74.21875 47.359375 69.109375 
Q 53.90625 64.015625 53.90625 55.328125 
Q 53.90625 49.265625 50.4375 45.09375 
Q 46.96875 40.921875 40.578125 39.3125 
z
" id="DejaVuSans-33"/>
      </defs>
      <g transform="translate(238.685156 783.558437)scale(0.1 -0.1)">
       <use xlink:href="#DejaVuSans-2212"/>
       <use x="83.789062" xlink:href="#DejaVuSans-33"/>
       <use x="147.412109" xlink:href="#DejaVuSans-30"/>
       <use x="211.035156" xlink:href="#DejaVuSans-30"/>
       <use x="274.658203" xlink:href="#DejaVuSans-30"/>
      </g>
     </g>
    </g>
    <g id="xtick_3">
     <g id="line2d_3">
      <g>
       <use style="stroke:#000000;stroke-width:0.8;" x="367.2" xlink:href="#m6d584f1f2a" y="768.96"/>
      </g>
     </g>
     <g id="text_3">
      <!-- −2000 -->
      <defs>
       <path d="M 19.1875 8.296875 
L 53.609375 8.296875 
L 53.609375 0 
L 7.328125 0 
L 7.328125 8.296875 
Q 12.9375 14.109375 22.625 23.890625 
Q 32.328125 33.6875 34.8125 36.53125 
Q 39.546875 41.84375 41.421875 45.53125 
Q 43.3125 49.21875 43.3125 52.78125 
Q 43.3125 58.59375 39.234375 62.25 
Q 35.15625 65.921875 28.609375 65.921875 
Q 23.96875 65.921875 18.8125 64.3125 
Q 13.671875 62.703125 7.8125 59.421875 
L 7.8125 69.390625 
Q 13.765625 71.78125 18.9375 73 
Q 24.125 74.21875 28.421875 74.21875 
Q 39.75 74.21875 46.484375 68.546875 
Q 53.21875 62.890625 53.21875 53.421875 
Q 53.21875 48.921875 51.53125 44.890625 
Q 49.859375 40.875 45.40625 35.40625 
Q 44.1875 33.984375 37.640625 27.21875 
Q 31.109375 20.453125 19.1875 8.296875 
z
" id="DejaVuSans-32"/>
      </defs>
      <g transform="translate(350.285156 783.558437)scale(0.1 -0.1)">
       <use xlink:href="#DejaVuSans-2212"/>
       <use x="83.789062" xlink:href="#DejaVuSans-32"/>
       <use x="147.412109" xlink:href="#DejaVuSans-30"/>
       <use x="211.035156" xlink:href="#DejaVuSans-30"/>
       <use x="274.658203" xlink:href="#DejaVuSans-30"/>
      </g>
     </g>
    </g>
    <g id="xtick_4">
     <g id="line2d_4">
      <g>
       <use style="stroke:#000000;stroke-width:0.8;" x="478.8" xlink:href="#m6d584f1f2a" y="768.96"/>
      </g>
     </g>
     <g id="text_4">
      <!-- −1000 -->
      <defs>
       <path d="M 12.40625 8.296875 
L 28.515625 8.296875 
L 28.515625 63.921875 
L 10.984375 60.40625 
L 10.984375 69.390625 
L 28.421875 72.90625 
L 38.28125 72.90625 
L 38.28125 8.296875 
L 54.390625 8.296875 
L 54.390625 0 
L 12.40625 0 
z
" id="DejaVuSans-31"/>
      </defs>
      <g transform="translate(461.885156 783.558437)scale(0.1 -0.1)">
       <use xlink:href="#DejaVuSans-2212"/>
       <use x="83.789062" xlink:href="#DejaVuSans-31"/>
       <use x="147.412109" xlink:href="#DejaVuSans-30"/>
       <use x="211.035156" xlink:href="#DejaVuSans-30"/>
       <use x="274.658203" xlink:href="#DejaVuSans-30"/>
      </g>
     </g>
    </g>
    <g id="xtick_5">
     <g id="line2d_5">
      <g>
       <use style="stroke:#000000;stroke-width:0.8;" x="590.4" xlink:href="#m6d584f1f2a" y="768.96"/>
      </g>
     </g>
     <g id="text_5">
      <!-- 0 -->
      <g transform="translate(587.21875 783.558437)scale(0.1 -0.1)">
       <use xlink:href="#DejaVuSans-30"/>
      </g>
     </g>
    </g>
    <g id="xtick_6">
     <g id="line2d_6">
      <g>
       <use style="stroke:#000000;stroke-width:0.8;" x="702" xlink:href="#m6d584f1f2a" y="768.96"/>
      </g>
     </g>
     <g id="text_6">
      <!-- 1000 -->
      <g transform="translate(689.275 783.558437)scale(0.1 -0.1)">
       <use xlink:href="#DejaVuSans-31"/>
       <use x="63.623047" xlink:href="#DejaVuSans-30"/>
       <use x="127.246094" xlink:href="#DejaVuSans-30"/>
       <use x="190.869141" xlink:href="#DejaVuSans-30"/>
      </g>
     </g>
    </g>
    <g id="xtick_7">
     <g id="line2d_7">
      <g>
       <use style="stroke:#000000;stroke-width:0.8;" x="813.6" xlink:href="#m6d584f1f2a" y="768.96"/>
      </g>
     </g>
     <g id="text_7">
      <!-- 2000 -->
      <g transform="translate(800.875 783.558437)scale(0.1 -0.1)">
       <use xlink:href="#DejaVuSans-32"/>
       <use x="63.623047" xlink:href="#DejaVuSans-30"/>
       <use x="127.246094" xlink:href="#DejaVuSans-30"/>
       <use x="190.869141" xlink:href="#DejaVuSans-30"/>
      </g>
     </g>
    </g>
    <g id="xtick_8">
     <g id="line2d_8">
      <g>
       <use style="stroke:#000000;stroke-width:0.8;" x="925.2" xlink:href="#m6d584f1f2a" y="768.96"/>
      </g>
     </g>
     <g id="text_8">
      <!-- 3000 -->
      <g transform="translate(912.475 783.558437)scale(0.1 -0.1)">
       <use xlink:href="#DejaVuSans-33"/>
       <use x="63.623047" xlink:href="#DejaVuSans-30"/>
       <use x="127.246094" xlink:href="#DejaVuSans-30"/>
       <use x="190.869141" xlink:href="#DejaVuSans-30"/>
      </g>
     </g>
    </g>
    <g id="xtick_9">
     <g id="line2d_9">
      <g>
       <use style="stroke:#000000;stroke-width:0.8;" x="1036.8" xlink:href="#m6d584f1f2a" y="768.96"/>
      </g>
     </g>
     <g id="text_9">
      <!-- 4000 -->
      <g transform="translate(1024.075 783.558437)scale(0.1 -0.1)">
       <use xlink:href="#DejaVuSans-34"/>
       <use x="63.623047" xlink:href="#DejaVuSans-30"/>
       <use x="127.246094" xlink:href="#DejaVuSans-30"/>
       <use x="190.869141" xlink:href="#DejaVuSans-30"/>
      </g>
     </g>
    </g>
   </g>
   <g id="matplotlib.axis_2">
    <g id="ytick_1">
     <g id="line2d_10">
      <defs>
       <path d="M 0 0 
L -3.5 0 
" id="m24ff30e923" style="stroke:#000000;stroke-width:0.8;"/>
      </defs>
      <g>
       <use style="stroke:#000000;stroke-width:0.8;" x="144" xlink:href="#m24ff30e923" y="768.96"/>
      </g>
     </g>
     <g id="text_10">
      <!-- −4000 -->
      <g transform="translate(103.170312 772.759219)scale(0.1 -0.1)">
       <use xlink:href="#DejaVuSans-2212"/>
       <use x="83.789062" xlink:href="#DejaVuSans-34"/>
       <use x="147.412109" xlink:href="#DejaVuSans-30"/>
       <use x="211.035156" xlink:href="#DejaVuSans-30"/>
       <use x="274.658203" xlink:href="#DejaVuSans-30"/>
      </g>
     </g>
    </g>
    <g id="ytick_2">
     <g id="line2d_11">
      <g>
       <use style="stroke:#000000;stroke-width:0.8;" x="144" xlink:href="#m24ff30e923" y="685.8"/>
      </g>
     </g>
     <g id="text_11">
      <!-- −3000 -->
      <g transform="translate(103.170312 689.599219)scale(0.1 -0.1)">
       <use xlink:href="#DejaVuSans-2212"/>
       <use x="83.789062" xlink:href="#DejaVuSans-33"/>
       <use x="147.412109" xlink:href="#DejaVuSans-30"/>
       <use x="211.035156" xlink:href="#DejaVuSans-30"/>
       <use x="274.658203" xlink:href="#DejaVuSans-30"/>
      </g>
     </g>
    </g>
    <g id="ytick_3">
     <g id="line2d_12">
      <g>
       <use style="stroke:#000000;stroke-width:0.8;" x="144" xlink:href="#m24ff30e923" y="602.64"/>
      </g>
     </g>
     <g id="text_12">
      <!-- −2000 -->
      <g transform="translate(103.170312 606.439219)scale(0.1 -0.1)">
       <use xlink:href="#DejaVuSans-2212"/>
       <use x="83.789062" xlink:href="#DejaVuSans-32"/>
       <use x="147.412109" xlink:href="#DejaVuSans-30"/>
       <use x="211.035156" xlink:href="#DejaVuSans-30"/>
       <use x="274.658203" xlink:href="#DejaVuSans-30"/>
      </g>
     </g>
    </g>
    <g id="ytick_4">
     <g id="line2d_13">
      <g>
       <use style="stroke:#000000;stroke-width:0.8;" x="144" xlink:href="#m24ff30e923" y="519.48"/>
      </g>
     </g>
     <g id="text_13">
      <!-- −1000 -->
      <g transform="translate(103.170312 523.279219)scale(0.1 -0.1)">
       <use xlink:href="#DejaVuSans-2212"/>
       <use x="83.789062" xlink:href="#DejaVuSans-31"/>
       <use x="147.412109" xlink:href="#DejaVuSans-30"/>
       <use x="211.035156" xlink:href="#DejaVuSans-30"/>
       <use x="274.658203" xlink:href="#DejaVuSans-30"/>
      </g>
     </g>
    </g>
    <g id="ytick_5">
     <g id="line2d_14">
      <g>
       <use style="stroke:#000000;stroke-width:0.8;" x="144" xlink:href="#m24ff30e923" y="436.32"/>
      </g>
     </g>
     <g id="text_14">
      <!-- 0 -->
      <g transform="translate(130.6375 440.119219)scale(0.1 -0.1)">
       <use xlink:href="#DejaVuSans-30"/>
      </g>
     </g>
    </g>
    <g id="ytick_6">
     <g id="line2d_15">
      <g>
       <use style="stroke:#000000;stroke-width:0.8;" x="144" xlink:href="#m24ff30e923" y="353.16"/>
      </g>
     </g>
     <g id="text_15">
      <!-- 1000 -->
      <g transform="translate(111.55 356.959219)scale(0.1 -0.1)">
       <use xlink:href="#DejaVuSans-31"/>
       <use x="63.623047" xlink:href="#DejaVuSans-30"/>
       <use x="127.246094" xlink:href="#DejaVuSans-30"/>
       <use x="190.869141" xlink:href="#DejaVuSans-30"/>
      </g>
     </g>
    </g>
    <g id="ytick_7">
     <g id="line2d_16">
      <g>
       <use style="stroke:#000000;stroke-width:0.8;" x="144" xlink:href="#m24ff30e923" y="270"/>
      </g>
     </g>
     <g id="text_16">
      <!-- 2000 -->
      <g transform="translate(111.55 273.799219)scale(0.1 -0.1)">
       <use xlink:href="#DejaVuSans-32"/>
       <use x="63.623047" xlink:href="#DejaVuSans-30"/>
       <use x="127.246094" xlink:href="#DejaVuSans-30"/>
       <use x="190.869141" xlink:href="#DejaVuSans-30"/>
      </g>
     </g>
    </g>
    <g id="ytick_8">
     <g id="line2d_17">
      <g>
       <use style="stroke:#000000;stroke-width:0.8;" x="144" xlink:href="#m24ff30e923" y="186.84"/>
      </g>
     </g>
     <g id="text_17">
      <!-- 3000 -->
      <g transform="translate(111.55 190.639219)scale(0.1 -0.1)">
       <use xlink:href="#DejaVuSans-33"/>
       <use x="63.623047" xlink:href="#DejaVuSans-30"/>
       <use x="127.246094" xlink:href="#DejaVuSans-30"/>
       <use x="190.869141" xlink:href="#DejaVuSans-30"/>
      </g>
     </g>
    </g>
    <g id="ytick_9">
     <g id="line2d_18">
      <g>
       <use style="stroke:#000000;stroke-width:0.8;" x="144" xlink:href="#m24ff30e923" y="103.68"/>
      </g>
     </g>
     <g id="text_18">
      <!-- 4000 -->
      <g transform="translate(111.55 107.479219)scale(0.1 -0.1)">
       <use xlink:href="#DejaVuSans-34"/>
       <use x="63.623047" xlink:href="#DejaVuSans-30"/>
       <use x="127.246094" xlink:href="#DejaVuSans-30"/>
       <use x="190.869141" xlink:href="#DejaVuSans-30"/>
      </g>
     </g>
    </g>
   </g>
   <g id="line2d_19">
    <path clip-path="url(#pdf60431f9d)" d="M 590.4 768.96 
L 590.4 103.68 
" style="fill:none;stroke:#1f77b4;stroke-linecap:square;stroke-width:1.5;"/>
   </g>
   <g id="line2d_20">
    <path clip-path="url(#pdf60431f9d)" d="M 144 436.32 
L 1036.8 436.32 
" style="fill:none;stroke:#1f77b4;stroke-linecap:square;stroke-width:1.5;"/>
   </g>
   <g id="line2d_21">
    <defs>
     <path d="M 0 3 
C 0.795609 3 1.55874 2.683901 2.12132 2.12132 
C 2.683901 1.55874 3 0.795609 3 0 
C 3 -0.795609 2.683901 -1.55874 2.12132 -2.12132 
C 1.55874 -2.683901 0.795609 -3 0 -3 
C -0.795609 -3 -1.55874 -2.683901 -2.12132 -2.12132 
C -2.683901 -1.55874 -3 -0.795609 -3 0 
C -3 0.795609 -2.683901 1.55874 -2.12132 2.12132 
C -1.55874 2.683901 -0.795609 3 0 3 
z
" id="m414f76fe70" style="stroke:#008000;"/>
    </defs>
    <g clip-path="url(#pdf60431f9d)">
     <use style="fill:#008000;stroke:#008000;" x="1196.414931" xlink:href="#m414f76fe70" y="493.267589"/>
    </g>
   </g>
   <g id="line2d_22">
    <g clip-path="url(#pdf60431f9d)">
     <use style="fill:#008000;stroke:#008000;" x="1078.43144" xlink:href="#m414f76fe70" y="442.866155"/>
    </g>
   </g>
   <g id="line2d_23">
    <g clip-path="url(#pdf60431f9d)">
     <use style="fill:#008000;stroke:#008000;" x="1276.572397" xlink:href="#m414f76fe70" y="335.773433"/>
    </g>
   </g>
   <g id="line2d_24">
    <g clip-path="url(#pdf60431f9d)">
     <use style="fill:#008000;stroke:#008000;" x="646.783639" xlink:href="#m414f76fe70" y="392.142141"/>
    </g>
   </g>
   <g id="line2d_25">
    <g clip-path="url(#pdf60431f9d)">
     <use style="fill:#008000;stroke:#008000;" x="646.783639" xlink:href="#m414f76fe70" y="392.142141"/>
    </g>
   </g>
   <g id="line2d_26">
    <g clip-path="url(#pdf60431f9d)">
     <use style="fill:#008000;stroke:#008000;" x="542.283424" xlink:href="#m414f76fe70" y="233.624935"/>
    </g>
   </g>
   <g id="line2d_27">
    <g clip-path="url(#pdf60431f9d)">
     <use style="fill:#008000;stroke:#008000;" x="573.289421" xlink:href="#m414f76fe70" y="398.231105"/>
    </g>
   </g>
   <g id="line2d_28">
    <g clip-path="url(#pdf60431f9d)">
     <use style="fill:#008000;stroke:#008000;" x="573.289421" xlink:href="#m414f76fe70" y="398.231105"/>
    </g>
   </g>
   <g id="line2d_29">
    <g clip-path="url(#pdf60431f9d)">
     <use style="fill:#008000;stroke:#008000;" x="454.344257" xlink:href="#m414f76fe70" y="248.128827"/>
    </g>
   </g>
   <g id="line2d_30">
    <g clip-path="url(#pdf60431f9d)">
     <use style="fill:#008000;stroke:#008000;" x="371.310456" xlink:href="#m414f76fe70" y="282.322967"/>
    </g>
   </g>
   <g id="line2d_31">
    <g clip-path="url(#pdf60431f9d)">
     <use style="fill:#008000;stroke:#008000;" x="540.854607" xlink:href="#m414f76fe70" y="500.346741"/>
    </g>
   </g>
   <g id="line2d_32">
    <g clip-path="url(#pdf60431f9d)">
     <use style="fill:#008000;stroke:#008000;" x="575.366941" xlink:href="#m414f76fe70" y="613.523274"/>
    </g>
   </g>
   <g id="line2d_33">
    <defs>
     <path d="M 0 1.333333 
C 0.353604 1.333333 0.692773 1.192845 0.942809 0.942809 
C 1.192845 0.692773 1.333333 0.353604 1.333333 0 
C 1.333333 -0.353604 1.192845 -0.692773 0.942809 -0.942809 
C 0.692773 -1.192845 0.353604 -1.333333 0 -1.333333 
C -0.353604 -1.333333 -0.692773 -1.192845 -0.942809 -0.942809 
C -1.192845 -0.692773 -1.333333 -0.353604 -1.333333 0 
C -1.333333 0.353604 -1.192845 0.692773 -0.942809 0.942809 
C -0.692773 1.192845 -0.353604 1.333333 0 1.333333 
z
" id="m6a989adfeb" style="stroke:#ff0000;"/>
    </defs>
    <g clip-path="url(#pdf60431f9d)">
     <use style="fill:#ff0000;stroke:#ff0000;" x="1196.414931" xlink:href="#m6a989adfeb" y="493.267589"/>
     <use style="fill:#ff0000;stroke:#ff0000;" x="1078.43144" xlink:href="#m6a989adfeb" y="442.866155"/>
     <use style="fill:#ff0000;stroke:#ff0000;" x="1276.572397" xlink:href="#m6a989adfeb" y="335.773433"/>
     <use style="fill:#ff0000;stroke:#ff0000;" x="1351.362965" xlink:href="#m6a989adfeb" y="293.626303"/>
     <use style="fill:#ff0000;stroke:#ff0000;" x="1315.915743" xlink:href="#m6a989adfeb" y="268.935908"/>
     <use style="fill:#ff0000;stroke:#ff0000;" x="649.301237" xlink:href="#m6a989adfeb" y="398.812906"/>
     <use style="fill:#ff0000;stroke:#ff0000;" x="643.015564" xlink:href="#m6a989adfeb" y="385.483172"/>
     <use style="fill:#ff0000;stroke:#ff0000;" x="778.433142" xlink:href="#m6a989adfeb" y="192.86765"/>
     <use style="fill:#ff0000;stroke:#ff0000;" x="753.348938" xlink:href="#m6a989adfeb" y="196.39823"/>
     <use style="fill:#ff0000;stroke:#ff0000;" x="730.491965" xlink:href="#m6a989adfeb" y="199.423738"/>
     <use style="fill:#ff0000;stroke:#ff0000;" x="708.269455" xlink:href="#m6a989adfeb" y="204.301085"/>
     <use style="fill:#ff0000;stroke:#ff0000;" x="542.283424" xlink:href="#m6a989adfeb" y="233.624935"/>
     <use style="fill:#ff0000;stroke:#ff0000;" x="575.92552" xlink:href="#m6a989adfeb" y="397.262185"/>
     <use style="fill:#ff0000;stroke:#ff0000;" x="570.750625" xlink:href="#m6a989adfeb" y="399.297355"/>
     <use style="fill:#ff0000;stroke:#ff0000;" x="454.344257" xlink:href="#m6a989adfeb" y="248.128827"/>
     <use style="fill:#ff0000;stroke:#ff0000;" x="371.310456" xlink:href="#m6a989adfeb" y="282.322967"/>
     <use style="fill:#ff0000;stroke:#ff0000;" x="422.815621" xlink:href="#m6a989adfeb" y="342.324877"/>
     <use style="fill:#ff0000;stroke:#ff0000;" x="404.897287" xlink:href="#m6a989adfeb" y="363.545835"/>
     <use style="fill:#ff0000;stroke:#ff0000;" x="454.456716" xlink:href="#m6a989adfeb" y="390.388415"/>
     <use style="fill:#ff0000;stroke:#ff0000;" x="448.373875" xlink:href="#m6a989adfeb" y="413.553006"/>
     <use style="fill:#ff0000;stroke:#ff0000;" x="425.946274" xlink:href="#m6a989adfeb" y="416.499549"/>
     <use style="fill:#ff0000;stroke:#ff0000;" x="409.848827" xlink:href="#m6a989adfeb" y="442.855959"/>
     <use style="fill:#ff0000;stroke:#ff0000;" x="395.560573" xlink:href="#m6a989adfeb" y="450.979538"/>
     <use style="fill:#ff0000;stroke:#ff0000;" x="401.398438" xlink:href="#m6a989adfeb" y="465.894659"/>
     <use style="fill:#ff0000;stroke:#ff0000;" x="437.68259" xlink:href="#m6a989adfeb" y="467.145242"/>
     <use style="fill:#ff0000;stroke:#ff0000;" x="403.972353" xlink:href="#m6a989adfeb" y="481.331793"/>
     <use style="fill:#ff0000;stroke:#ff0000;" x="409.877056" xlink:href="#m6a989adfeb" y="505.369775"/>
     <use style="fill:#ff0000;stroke:#ff0000;" x="438.37145" xlink:href="#m6a989adfeb" y="502.59349"/>
     <use style="fill:#ff0000;stroke:#ff0000;" x="445.942132" xlink:href="#m6a989adfeb" y="515.655121"/>
     <use style="fill:#ff0000;stroke:#ff0000;" x="465.861393" xlink:href="#m6a989adfeb" y="513.117533"/>
     <use style="fill:#ff0000;stroke:#ff0000;" x="457.509638" xlink:href="#m6a989adfeb" y="527.109161"/>
     <use style="fill:#ff0000;stroke:#ff0000;" x="449.836282" xlink:href="#m6a989adfeb" y="542.790665"/>
     <use style="fill:#ff0000;stroke:#ff0000;" x="470.67769" xlink:href="#m6a989adfeb" y="537.489391"/>
     <use style="fill:#ff0000;stroke:#ff0000;" x="455.530697" xlink:href="#m6a989adfeb" y="562.523692"/>
     <use style="fill:#ff0000;stroke:#ff0000;" x="448.424555" xlink:href="#m6a989adfeb" y="584.126403"/>
     <use style="fill:#ff0000;stroke:#ff0000;" x="534.652232" xlink:href="#m6a989adfeb" y="503.860567"/>
     <use style="fill:#ff0000;stroke:#ff0000;" x="546.741794" xlink:href="#m6a989adfeb" y="496.628866"/>
     <use style="fill:#ff0000;stroke:#ff0000;" x="571.775911" xlink:href="#m6a989adfeb" y="496.657178"/>
     <use style="fill:#ff0000;stroke:#ff0000;" x="568.72325" xlink:href="#m6a989adfeb" y="615.322241"/>
     <use style="fill:#ff0000;stroke:#ff0000;" x="581.865176" xlink:href="#m6a989adfeb" y="611.589092"/>
     <use style="fill:#ff0000;stroke:#ff0000;" x="594.485369" xlink:href="#m6a989adfeb" y="639.269939"/>
     <use style="fill:#ff0000;stroke:#ff0000;" x="607.405035" xlink:href="#m6a989adfeb" y="620.416461"/>
     <use style="fill:#ff0000;stroke:#ff0000;" x="624.302248" xlink:href="#m6a989adfeb" y="640.22861"/>
     <use style="fill:#ff0000;stroke:#ff0000;" x="635.128983" xlink:href="#m6a989adfeb" y="622.085215"/>
     <use style="fill:#ff0000;stroke:#ff0000;" x="646.866463" xlink:href="#m6a989adfeb" y="615.670596"/>
     <use style="fill:#ff0000;stroke:#ff0000;" x="667.149506" xlink:href="#m6a989adfeb" y="632.931712"/>
     <use style="fill:#ff0000;stroke:#ff0000;" x="671.603008" xlink:href="#m6a989adfeb" y="608.535227"/>
     <use style="fill:#ff0000;stroke:#ff0000;" x="693.638686" xlink:href="#m6a989adfeb" y="597.83264"/>
     <use style="fill:#ff0000;stroke:#ff0000;" x="756.066266" xlink:href="#m6a989adfeb" y="597.200681"/>
     <use style="fill:#ff0000;stroke:#ff0000;" x="800.81604" xlink:href="#m6a989adfeb" y="584.625011"/>
     <use style="fill:#ff0000;stroke:#ff0000;" x="852.713106" xlink:href="#m6a989adfeb" y="569.173851"/>
     <use style="fill:#ff0000;stroke:#ff0000;" x="892.669464" xlink:href="#m6a989adfeb" y="556.555122"/>
     <use style="fill:#ff0000;stroke:#ff0000;" x="926.211518" xlink:href="#m6a989adfeb" y="553.421571"/>
     <use style="fill:#ff0000;stroke:#ff0000;" x="960.021797" xlink:href="#m6a989adfeb" y="548.124658"/>
     <use style="fill:#ff0000;stroke:#ff0000;" x="1096.311451" xlink:href="#m6a989adfeb" y="523.35399"/>
     <use style="fill:#ff0000;stroke:#ff0000;" x="1116.178874" xlink:href="#m6a989adfeb" y="505.182848"/>
    </g>
   </g>
   <g id="line2d_34">
    <defs>
     <path d="M -0.5 0.5 
L 0.5 0.5 
L 0.5 -0.5 
L -0.5 -0.5 
z
" id="mdd254c8470" style="stroke:#1f77b4;stroke-linejoin:miter;"/>
    </defs>
    <g clip-path="url(#pdf60431f9d)">
     <use style="fill:#1f77b4;stroke:#1f77b4;stroke-linejoin:miter;" x="1196.414931" xlink:href="#mdd254c8470" y="493.267589"/>
     <use style="fill:#1f77b4;stroke:#1f77b4;stroke-linejoin:miter;" x="1078.43144" xlink:href="#mdd254c8470" y="442.866155"/>
     <use style="fill:#1f77b4;stroke:#1f77b4;stroke-linejoin:miter;" x="1276.572397" xlink:href="#mdd254c8470" y="335.773433"/>
     <use style="fill:#1f77b4;stroke:#1f77b4;stroke-linejoin:miter;" x="1351.362965" xlink:href="#mdd254c8470" y="293.626303"/>
     <use style="fill:#1f77b4;stroke:#1f77b4;stroke-linejoin:miter;" x="1315.915743" xlink:href="#mdd254c8470" y="268.935908"/>
     <use style="fill:#1f77b4;stroke:#1f77b4;stroke-linejoin:miter;" x="649.301237" xlink:href="#mdd254c8470" y="398.812906"/>
     <use style="fill:#1f77b4;stroke:#1f77b4;stroke-linejoin:miter;" x="646.586616" xlink:href="#mdd254c8470" y="396.718662"/>
     <use style="fill:#1f77b4;stroke:#1f77b4;stroke-linejoin:miter;" x="644.73836" xlink:href="#mdd254c8470" y="393.60492"/>
     <use style="fill:#1f77b4;stroke:#1f77b4;stroke-linejoin:miter;" x="641.989768" xlink:href="#mdd254c8470" y="391.259641"/>
     <use style="fill:#1f77b4;stroke:#1f77b4;stroke-linejoin:miter;" x="643.015564" xlink:href="#mdd254c8470" y="385.483172"/>
     <use style="fill:#1f77b4;stroke:#1f77b4;stroke-linejoin:miter;" x="778.433142" xlink:href="#mdd254c8470" y="192.86765"/>
     <use style="fill:#1f77b4;stroke:#1f77b4;stroke-linejoin:miter;" x="753.348938" xlink:href="#mdd254c8470" y="196.39823"/>
     <use style="fill:#1f77b4;stroke:#1f77b4;stroke-linejoin:miter;" x="730.491965" xlink:href="#mdd254c8470" y="199.423738"/>
     <use style="fill:#1f77b4;stroke:#1f77b4;stroke-linejoin:miter;" x="708.269455" xlink:href="#mdd254c8470" y="204.301085"/>
     <use style="fill:#1f77b4;stroke:#1f77b4;stroke-linejoin:miter;" x="688.357017" xlink:href="#mdd254c8470" y="207.427873"/>
     <use style="fill:#1f77b4;stroke:#1f77b4;stroke-linejoin:miter;" x="669.370928" xlink:href="#mdd254c8470" y="210.55787"/>
     <use style="fill:#1f77b4;stroke:#1f77b4;stroke-linejoin:miter;" x="651.954904" xlink:href="#mdd254c8470" y="211.810272"/>
     <use style="fill:#1f77b4;stroke:#1f77b4;stroke-linejoin:miter;" x="634.768853" xlink:href="#mdd254c8470" y="215.097317"/>
     <use style="fill:#1f77b4;stroke:#1f77b4;stroke-linejoin:miter;" x="617.752846" xlink:href="#mdd254c8470" y="218.414847"/>
     <use style="fill:#1f77b4;stroke:#1f77b4;stroke-linejoin:miter;" x="601.829965" xlink:href="#mdd254c8470" y="219.543606"/>
     <use style="fill:#1f77b4;stroke:#1f77b4;stroke-linejoin:miter;" x="586.363376" xlink:href="#mdd254c8470" y="224.220958"/>
     <use style="fill:#1f77b4;stroke:#1f77b4;stroke-linejoin:miter;" x="571.190998" xlink:href="#mdd254c8470" y="225.850041"/>
     <use style="fill:#1f77b4;stroke:#1f77b4;stroke-linejoin:miter;" x="556.386039" xlink:href="#mdd254c8470" y="227.541237"/>
     <use style="fill:#1f77b4;stroke:#1f77b4;stroke-linejoin:miter;" x="542.283424" xlink:href="#mdd254c8470" y="233.624935"/>
     <use style="fill:#1f77b4;stroke:#1f77b4;stroke-linejoin:miter;" x="575.92552" xlink:href="#mdd254c8470" y="397.262185"/>
     <use style="fill:#1f77b4;stroke:#1f77b4;stroke-linejoin:miter;" x="573.934053" xlink:href="#mdd254c8470" y="400.109503"/>
     <use style="fill:#1f77b4;stroke:#1f77b4;stroke-linejoin:miter;" x="570.750625" xlink:href="#mdd254c8470" y="399.297355"/>
     <use style="fill:#1f77b4;stroke:#1f77b4;stroke-linejoin:miter;" x="454.344257" xlink:href="#mdd254c8470" y="248.128827"/>
     <use style="fill:#1f77b4;stroke:#1f77b4;stroke-linejoin:miter;" x="438.8671" xlink:href="#mdd254c8470" y="251.151524"/>
     <use style="fill:#1f77b4;stroke:#1f77b4;stroke-linejoin:miter;" x="421.524351" xlink:href="#mdd254c8470" y="252.578904"/>
     <use style="fill:#1f77b4;stroke:#1f77b4;stroke-linejoin:miter;" x="416.337372" xlink:href="#mdd254c8470" y="267.190021"/>
     <use style="fill:#1f77b4;stroke:#1f77b4;stroke-linejoin:miter;" x="400.403232" xlink:href="#mdd254c8470" y="271.010147"/>
     <use style="fill:#1f77b4;stroke:#1f77b4;stroke-linejoin:miter;" x="386.435485" xlink:href="#mdd254c8470" y="276.857874"/>
     <use style="fill:#1f77b4;stroke:#1f77b4;stroke-linejoin:miter;" x="371.310456" xlink:href="#mdd254c8470" y="282.322967"/>
     <use style="fill:#1f77b4;stroke:#1f77b4;stroke-linejoin:miter;" x="422.815621" xlink:href="#mdd254c8470" y="342.324877"/>
     <use style="fill:#1f77b4;stroke:#1f77b4;stroke-linejoin:miter;" x="425.100766" xlink:href="#mdd254c8470" y="353.628101"/>
     <use style="fill:#1f77b4;stroke:#1f77b4;stroke-linejoin:miter;" x="412.645956" xlink:href="#mdd254c8470" y="357.370506"/>
     <use style="fill:#1f77b4;stroke:#1f77b4;stroke-linejoin:miter;" x="404.897287" xlink:href="#mdd254c8470" y="363.545835"/>
     <use style="fill:#1f77b4;stroke:#1f77b4;stroke-linejoin:miter;" x="454.456716" xlink:href="#mdd254c8470" y="390.388415"/>
     <use style="fill:#1f77b4;stroke:#1f77b4;stroke-linejoin:miter;" x="454.851858" xlink:href="#mdd254c8470" y="396.914319"/>
     <use style="fill:#1f77b4;stroke:#1f77b4;stroke-linejoin:miter;" x="456.503081" xlink:href="#mdd254c8470" y="403.509684"/>
     <use style="fill:#1f77b4;stroke:#1f77b4;stroke-linejoin:miter;" x="458.629429" xlink:href="#mdd254c8470" y="409.895148"/>
     <use style="fill:#1f77b4;stroke:#1f77b4;stroke-linejoin:miter;" x="448.373875" xlink:href="#mdd254c8470" y="413.553006"/>
     <use style="fill:#1f77b4;stroke:#1f77b4;stroke-linejoin:miter;" x="425.946274" xlink:href="#mdd254c8470" y="416.499549"/>
     <use style="fill:#1f77b4;stroke:#1f77b4;stroke-linejoin:miter;" x="419.22224" xlink:href="#mdd254c8470" y="429.56536"/>
     <use style="fill:#1f77b4;stroke:#1f77b4;stroke-linejoin:miter;" x="420.573331" xlink:href="#mdd254c8470" y="435.974892"/>
     <use style="fill:#1f77b4;stroke:#1f77b4;stroke-linejoin:miter;" x="409.848827" xlink:href="#mdd254c8470" y="442.855959"/>
     <use style="fill:#1f77b4;stroke:#1f77b4;stroke-linejoin:miter;" x="395.560573" xlink:href="#mdd254c8470" y="450.979538"/>
     <use style="fill:#1f77b4;stroke:#1f77b4;stroke-linejoin:miter;" x="398.323479" xlink:href="#mdd254c8470" y="458.54933"/>
     <use style="fill:#1f77b4;stroke:#1f77b4;stroke-linejoin:miter;" x="401.398438" xlink:href="#mdd254c8470" y="465.894659"/>
     <use style="fill:#1f77b4;stroke:#1f77b4;stroke-linejoin:miter;" x="437.68259" xlink:href="#mdd254c8470" y="467.145242"/>
     <use style="fill:#1f77b4;stroke:#1f77b4;stroke-linejoin:miter;" x="403.972353" xlink:href="#mdd254c8470" y="481.331793"/>
     <use style="fill:#1f77b4;stroke:#1f77b4;stroke-linejoin:miter;" x="406.750182" xlink:href="#mdd254c8470" y="488.808493"/>
     <use style="fill:#1f77b4;stroke:#1f77b4;stroke-linejoin:miter;" x="408.972115" xlink:href="#mdd254c8470" y="496.909842"/>
     <use style="fill:#1f77b4;stroke:#1f77b4;stroke-linejoin:miter;" x="409.877056" xlink:href="#mdd254c8470" y="505.369775"/>
     <use style="fill:#1f77b4;stroke:#1f77b4;stroke-linejoin:miter;" x="438.37145" xlink:href="#mdd254c8470" y="502.59349"/>
     <use style="fill:#1f77b4;stroke:#1f77b4;stroke-linejoin:miter;" x="433.942361" xlink:href="#mdd254c8470" y="512.8482"/>
     <use style="fill:#1f77b4;stroke:#1f77b4;stroke-linejoin:miter;" x="445.942132" xlink:href="#mdd254c8470" y="515.655121"/>
     <use style="fill:#1f77b4;stroke:#1f77b4;stroke-linejoin:miter;" x="465.861393" xlink:href="#mdd254c8470" y="513.117533"/>
     <use style="fill:#1f77b4;stroke:#1f77b4;stroke-linejoin:miter;" x="457.509638" xlink:href="#mdd254c8470" y="527.109161"/>
     <use style="fill:#1f77b4;stroke:#1f77b4;stroke-linejoin:miter;" x="449.836282" xlink:href="#mdd254c8470" y="542.790665"/>
     <use style="fill:#1f77b4;stroke:#1f77b4;stroke-linejoin:miter;" x="470.67769" xlink:href="#mdd254c8470" y="537.489391"/>
     <use style="fill:#1f77b4;stroke:#1f77b4;stroke-linejoin:miter;" x="455.530697" xlink:href="#mdd254c8470" y="562.523692"/>
     <use style="fill:#1f77b4;stroke:#1f77b4;stroke-linejoin:miter;" x="448.424555" xlink:href="#mdd254c8470" y="584.126403"/>
     <use style="fill:#1f77b4;stroke:#1f77b4;stroke-linejoin:miter;" x="534.652232" xlink:href="#mdd254c8470" y="503.860567"/>
     <use style="fill:#1f77b4;stroke:#1f77b4;stroke-linejoin:miter;" x="546.741794" xlink:href="#mdd254c8470" y="496.628866"/>
     <use style="fill:#1f77b4;stroke:#1f77b4;stroke-linejoin:miter;" x="551.641875" xlink:href="#mdd254c8470" y="497.426969"/>
     <use style="fill:#1f77b4;stroke:#1f77b4;stroke-linejoin:miter;" x="556.717197" xlink:href="#mdd254c8470" y="497.527489"/>
     <use style="fill:#1f77b4;stroke:#1f77b4;stroke-linejoin:miter;" x="564.570793" xlink:href="#mdd254c8470" y="492.666005"/>
     <use style="fill:#1f77b4;stroke:#1f77b4;stroke-linejoin:miter;" x="568.813628" xlink:href="#mdd254c8470" y="492.589914"/>
     <use style="fill:#1f77b4;stroke:#1f77b4;stroke-linejoin:miter;" x="571.775911" xlink:href="#mdd254c8470" y="496.657178"/>
     <use style="fill:#1f77b4;stroke:#1f77b4;stroke-linejoin:miter;" x="568.72325" xlink:href="#mdd254c8470" y="615.322241"/>
     <use style="fill:#1f77b4;stroke:#1f77b4;stroke-linejoin:miter;" x="581.865176" xlink:href="#mdd254c8470" y="611.589092"/>
     <use style="fill:#1f77b4;stroke:#1f77b4;stroke-linejoin:miter;" x="594.485369" xlink:href="#mdd254c8470" y="639.269939"/>
     <use style="fill:#1f77b4;stroke:#1f77b4;stroke-linejoin:miter;" x="607.405035" xlink:href="#mdd254c8470" y="620.416461"/>
     <use style="fill:#1f77b4;stroke:#1f77b4;stroke-linejoin:miter;" x="624.302248" xlink:href="#mdd254c8470" y="640.22861"/>
     <use style="fill:#1f77b4;stroke:#1f77b4;stroke-linejoin:miter;" x="635.128983" xlink:href="#mdd254c8470" y="622.085215"/>
     <use style="fill:#1f77b4;stroke:#1f77b4;stroke-linejoin:miter;" x="646.866463" xlink:href="#mdd254c8470" y="615.670596"/>
     <use style="fill:#1f77b4;stroke:#1f77b4;stroke-linejoin:miter;" x="667.149506" xlink:href="#mdd254c8470" y="632.931712"/>
     <use style="fill:#1f77b4;stroke:#1f77b4;stroke-linejoin:miter;" x="671.603008" xlink:href="#mdd254c8470" y="608.535227"/>
     <use style="fill:#1f77b4;stroke:#1f77b4;stroke-linejoin:miter;" x="679.913341" xlink:href="#mdd254c8470" y="597.850727"/>
     <use style="fill:#1f77b4;stroke:#1f77b4;stroke-linejoin:miter;" x="693.638686" xlink:href="#mdd254c8470" y="597.83264"/>
     <use style="fill:#1f77b4;stroke:#1f77b4;stroke-linejoin:miter;" x="756.066266" xlink:href="#mdd254c8470" y="597.200681"/>
     <use style="fill:#1f77b4;stroke:#1f77b4;stroke-linejoin:miter;" x="780.758591" xlink:href="#mdd254c8470" y="585.226125"/>
     <use style="fill:#1f77b4;stroke:#1f77b4;stroke-linejoin:miter;" x="800.81604" xlink:href="#mdd254c8470" y="584.625011"/>
     <use style="fill:#1f77b4;stroke:#1f77b4;stroke-linejoin:miter;" x="819.133485" xlink:href="#mdd254c8470" y="581.170392"/>
     <use style="fill:#1f77b4;stroke:#1f77b4;stroke-linejoin:miter;" x="834.654813" xlink:href="#mdd254c8470" y="574.644716"/>
     <use style="fill:#1f77b4;stroke:#1f77b4;stroke-linejoin:miter;" x="852.713106" xlink:href="#mdd254c8470" y="569.173851"/>
     <use style="fill:#1f77b4;stroke:#1f77b4;stroke-linejoin:miter;" x="892.669464" xlink:href="#mdd254c8470" y="556.555122"/>
     <use style="fill:#1f77b4;stroke:#1f77b4;stroke-linejoin:miter;" x="926.211518" xlink:href="#mdd254c8470" y="553.421571"/>
     <use style="fill:#1f77b4;stroke:#1f77b4;stroke-linejoin:miter;" x="960.021797" xlink:href="#mdd254c8470" y="548.124658"/>
     <use style="fill:#1f77b4;stroke:#1f77b4;stroke-linejoin:miter;" x="1096.311451" xlink:href="#mdd254c8470" y="523.35399"/>
     <use style="fill:#1f77b4;stroke:#1f77b4;stroke-linejoin:miter;" x="1116.178874" xlink:href="#mdd254c8470" y="505.182848"/>
    </g>
   </g>
   <g id="patch_3">
    <path d="M 144 768.96 
L 144 103.68 
" style="fill:none;stroke:#000000;stroke-linecap:square;stroke-linejoin:miter;stroke-width:0.8;"/>
   </g>
   <g id="patch_4">
    <path d="M 1036.8 768.96 
L 1036.8 103.68 
" style="fill:none;stroke:#000000;stroke-linecap:square;stroke-linejoin:miter;stroke-width:0.8;"/>
   </g>
   <g id="patch_5">
    <path d="M 144 768.96 
L 1036.8 768.96 
" style="fill:none;stroke:#000000;stroke-linecap:square;stroke-linejoin:miter;stroke-width:0.8;"/>
   </g>
   <g id="patch_6">
    <path d="M 144 103.68 
L 1036.8 103.68 
" style="fill:none;stroke:#000000;stroke-linecap:square;stroke-linejoin:miter;stroke-width:0.8;"/>
   </g>
  </g>
 </g>
 <defs>
  <clipPath id="pdf60431f9d">
   <rect height="665.28" width="892.8" x="144" y="103.68"/>
  </clipPath>
 </defs>
</svg>
