<?xml version="1.0" encoding="utf-8" standalone="no"?>
<!DOCTYPE svg PUBLIC "-//W3C//DTD SVG 1.1//EN"
  "http://www.w3.org/Graphics/SVG/1.1/DTD/svg11.dtd">
<!-- Created with matplotlib (http://matplotlib.org/) -->
<svg height="864pt" version="1.1" viewBox="0 0 1152 864" width="1152pt" xmlns="http://www.w3.org/2000/svg" xmlns:xlink="http://www.w3.org/1999/xlink">
 <defs>
  <style type="text/css">
*{stroke-linecap:butt;stroke-linejoin:round;}
  </style>
 </defs>
 <g id="figure_1">
  <g id="patch_1">
   <path d="M 0 864 
L 1152 864 
L 1152 0 
L 0 0 
z
" style="fill:#ffffff;"/>
  </g>
  <g id="axes_1">
   <g id="patch_2">
    <path d="M 144 768.96 
L 1036.8 768.96 
L 1036.8 103.68 
L 144 103.68 
z
" style="fill:#ffffff;"/>
   </g>
   <g id="matplotlib.axis_1">
    <g id="xtick_1">
     <g id="line2d_1">
      <defs>
       <path d="M 0 0 
L 0 3.5 
" id="me701c98c5f" style="stroke:#000000;stroke-width:0.8;"/>
      </defs>
      <g>
       <use style="stroke:#000000;stroke-width:0.8;" x="144" xlink:href="#me701c98c5f" y="768.96"/>
      </g>
     </g>
     <g id="text_1">
      <!-- −4000 -->
      <defs>
       <path d="M 10.59375 35.5 
L 73.1875 35.5 
L 73.1875 27.203125 
L 10.59375 27.203125 
z
" id="DejaVuSans-2212"/>
       <path d="M 37.796875 64.3125 
L 12.890625 25.390625 
L 37.796875 25.390625 
z
M 35.203125 72.90625 
L 47.609375 72.90625 
L 47.609375 25.390625 
L 58.015625 25.390625 
L 58.015625 17.1875 
L 47.609375 17.1875 
L 47.609375 0 
L 37.796875 0 
L 37.796875 17.1875 
L 4.890625 17.1875 
L 4.890625 26.703125 
z
" id="DejaVuSans-34"/>
       <path d="M 31.78125 66.40625 
Q 24.171875 66.40625 20.328125 58.90625 
Q 16.5 51.421875 16.5 36.375 
Q 16.5 21.390625 20.328125 13.890625 
Q 24.171875 6.390625 31.78125 6.390625 
Q 39.453125 6.390625 43.28125 13.890625 
Q 47.125 21.390625 47.125 36.375 
Q 47.125 51.421875 43.28125 58.90625 
Q 39.453125 66.40625 31.78125 66.40625 
z
M 31.78125 74.21875 
Q 44.046875 74.21875 50.515625 64.515625 
Q 56.984375 54.828125 56.984375 36.375 
Q 56.984375 17.96875 50.515625 8.265625 
Q 44.046875 -1.421875 31.78125 -1.421875 
Q 19.53125 -1.421875 13.0625 8.265625 
Q 6.59375 17.96875 6.59375 36.375 
Q 6.59375 54.828125 13.0625 64.515625 
Q 19.53125 74.21875 31.78125 74.21875 
z
" id="DejaVuSans-30"/>
      </defs>
      <g transform="translate(127.085156 783.558437)scale(0.1 -0.1)">
       <use xlink:href="#DejaVuSans-2212"/>
       <use x="83.789062" xlink:href="#DejaVuSans-34"/>
       <use x="147.412109" xlink:href="#DejaVuSans-30"/>
       <use x="211.035156" xlink:href="#DejaVuSans-30"/>
       <use x="274.658203" xlink:href="#DejaVuSans-30"/>
      </g>
     </g>
    </g>
    <g id="xtick_2">
     <g id="line2d_2">
      <g>
       <use style="stroke:#000000;stroke-width:0.8;" x="255.6" xlink:href="#me701c98c5f" y="768.96"/>
      </g>
     </g>
     <g id="text_2">
      <!-- −3000 -->
      <defs>
       <path d="M 40.578125 39.3125 
Q 47.65625 37.796875 51.625 33 
Q 55.609375 28.21875 55.609375 21.1875 
Q 55.609375 10.40625 48.1875 4.484375 
Q 40.765625 -1.421875 27.09375 -1.421875 
Q 22.515625 -1.421875 17.65625 -0.515625 
Q 12.796875 0.390625 7.625 2.203125 
L 7.625 11.71875 
Q 11.71875 9.328125 16.59375 8.109375 
Q 21.484375 6.890625 26.8125 6.890625 
Q 36.078125 6.890625 40.9375 10.546875 
Q 45.796875 14.203125 45.796875 21.1875 
Q 45.796875 27.640625 41.28125 31.265625 
Q 36.765625 34.90625 28.71875 34.90625 
L 20.21875 34.90625 
L 20.21875 43.015625 
L 29.109375 43.015625 
Q 36.375 43.015625 40.234375 45.921875 
Q 44.09375 48.828125 44.09375 54.296875 
Q 44.09375 59.90625 40.109375 62.90625 
Q 36.140625 65.921875 28.71875 65.921875 
Q 24.65625 65.921875 20.015625 65.03125 
Q 15.375 64.15625 9.8125 62.3125 
L 9.8125 71.09375 
Q 15.4375 72.65625 20.34375 73.4375 
Q 25.25 74.21875 29.59375 74.21875 
Q 40.828125 74.21875 47.359375 69.109375 
Q 53.90625 64.015625 53.90625 55.328125 
Q 53.90625 49.265625 50.4375 45.09375 
Q 46.96875 40.921875 40.578125 39.3125 
z
" id="DejaVuSans-33"/>
      </defs>
      <g transform="translate(238.685156 783.558437)scale(0.1 -0.1)">
       <use xlink:href="#DejaVuSans-2212"/>
       <use x="83.789062" xlink:href="#DejaVuSans-33"/>
       <use x="147.412109" xlink:href="#DejaVuSans-30"/>
       <use x="211.035156" xlink:href="#DejaVuSans-30"/>
       <use x="274.658203" xlink:href="#DejaVuSans-30"/>
      </g>
     </g>
    </g>
    <g id="xtick_3">
     <g id="line2d_3">
      <g>
       <use style="stroke:#000000;stroke-width:0.8;" x="367.2" xlink:href="#me701c98c5f" y="768.96"/>
      </g>
     </g>
     <g id="text_3">
      <!-- −2000 -->
      <defs>
       <path d="M 19.1875 8.296875 
L 53.609375 8.296875 
L 53.609375 0 
L 7.328125 0 
L 7.328125 8.296875 
Q 12.9375 14.109375 22.625 23.890625 
Q 32.328125 33.6875 34.8125 36.53125 
Q 39.546875 41.84375 41.421875 45.53125 
Q 43.3125 49.21875 43.3125 52.78125 
Q 43.3125 58.59375 39.234375 62.25 
Q 35.15625 65.921875 28.609375 65.921875 
Q 23.96875 65.921875 18.8125 64.3125 
Q 13.671875 62.703125 7.8125 59.421875 
L 7.8125 69.390625 
Q 13.765625 71.78125 18.9375 73 
Q 24.125 74.21875 28.421875 74.21875 
Q 39.75 74.21875 46.484375 68.546875 
Q 53.21875 62.890625 53.21875 53.421875 
Q 53.21875 48.921875 51.53125 44.890625 
Q 49.859375 40.875 45.40625 35.40625 
Q 44.1875 33.984375 37.640625 27.21875 
Q 31.109375 20.453125 19.1875 8.296875 
z
" id="DejaVuSans-32"/>
      </defs>
      <g transform="translate(350.285156 783.558437)scale(0.1 -0.1)">
       <use xlink:href="#DejaVuSans-2212"/>
       <use x="83.789062" xlink:href="#DejaVuSans-32"/>
       <use x="147.412109" xlink:href="#DejaVuSans-30"/>
       <use x="211.035156" xlink:href="#DejaVuSans-30"/>
       <use x="274.658203" xlink:href="#DejaVuSans-30"/>
      </g>
     </g>
    </g>
    <g id="xtick_4">
     <g id="line2d_4">
      <g>
       <use style="stroke:#000000;stroke-width:0.8;" x="478.8" xlink:href="#me701c98c5f" y="768.96"/>
      </g>
     </g>
     <g id="text_4">
      <!-- −1000 -->
      <defs>
       <path d="M 12.40625 8.296875 
L 28.515625 8.296875 
L 28.515625 63.921875 
L 10.984375 60.40625 
L 10.984375 69.390625 
L 28.421875 72.90625 
L 38.28125 72.90625 
L 38.28125 8.296875 
L 54.390625 8.296875 
L 54.390625 0 
L 12.40625 0 
z
" id="DejaVuSans-31"/>
      </defs>
      <g transform="translate(461.885156 783.558437)scale(0.1 -0.1)">
       <use xlink:href="#DejaVuSans-2212"/>
       <use x="83.789062" xlink:href="#DejaVuSans-31"/>
       <use x="147.412109" xlink:href="#DejaVuSans-30"/>
       <use x="211.035156" xlink:href="#DejaVuSans-30"/>
       <use x="274.658203" xlink:href="#DejaVuSans-30"/>
      </g>
     </g>
    </g>
    <g id="xtick_5">
     <g id="line2d_5">
      <g>
       <use style="stroke:#000000;stroke-width:0.8;" x="590.4" xlink:href="#me701c98c5f" y="768.96"/>
      </g>
     </g>
     <g id="text_5">
      <!-- 0 -->
      <g transform="translate(587.21875 783.558437)scale(0.1 -0.1)">
       <use xlink:href="#DejaVuSans-30"/>
      </g>
     </g>
    </g>
    <g id="xtick_6">
     <g id="line2d_6">
      <g>
       <use style="stroke:#000000;stroke-width:0.8;" x="702" xlink:href="#me701c98c5f" y="768.96"/>
      </g>
     </g>
     <g id="text_6">
      <!-- 1000 -->
      <g transform="translate(689.275 783.558437)scale(0.1 -0.1)">
       <use xlink:href="#DejaVuSans-31"/>
       <use x="63.623047" xlink:href="#DejaVuSans-30"/>
       <use x="127.246094" xlink:href="#DejaVuSans-30"/>
       <use x="190.869141" xlink:href="#DejaVuSans-30"/>
      </g>
     </g>
    </g>
    <g id="xtick_7">
     <g id="line2d_7">
      <g>
       <use style="stroke:#000000;stroke-width:0.8;" x="813.6" xlink:href="#me701c98c5f" y="768.96"/>
      </g>
     </g>
     <g id="text_7">
      <!-- 2000 -->
      <g transform="translate(800.875 783.558437)scale(0.1 -0.1)">
       <use xlink:href="#DejaVuSans-32"/>
       <use x="63.623047" xlink:href="#DejaVuSans-30"/>
       <use x="127.246094" xlink:href="#DejaVuSans-30"/>
       <use x="190.869141" xlink:href="#DejaVuSans-30"/>
      </g>
     </g>
    </g>
    <g id="xtick_8">
     <g id="line2d_8">
      <g>
       <use style="stroke:#000000;stroke-width:0.8;" x="925.2" xlink:href="#me701c98c5f" y="768.96"/>
      </g>
     </g>
     <g id="text_8">
      <!-- 3000 -->
      <g transform="translate(912.475 783.558437)scale(0.1 -0.1)">
       <use xlink:href="#DejaVuSans-33"/>
       <use x="63.623047" xlink:href="#DejaVuSans-30"/>
       <use x="127.246094" xlink:href="#DejaVuSans-30"/>
       <use x="190.869141" xlink:href="#DejaVuSans-30"/>
      </g>
     </g>
    </g>
    <g id="xtick_9">
     <g id="line2d_9">
      <g>
       <use style="stroke:#000000;stroke-width:0.8;" x="1036.8" xlink:href="#me701c98c5f" y="768.96"/>
      </g>
     </g>
     <g id="text_9">
      <!-- 4000 -->
      <g transform="translate(1024.075 783.558437)scale(0.1 -0.1)">
       <use xlink:href="#DejaVuSans-34"/>
       <use x="63.623047" xlink:href="#DejaVuSans-30"/>
       <use x="127.246094" xlink:href="#DejaVuSans-30"/>
       <use x="190.869141" xlink:href="#DejaVuSans-30"/>
      </g>
     </g>
    </g>
   </g>
   <g id="matplotlib.axis_2">
    <g id="ytick_1">
     <g id="line2d_10">
      <defs>
       <path d="M 0 0 
L -3.5 0 
" id="m9036d50e16" style="stroke:#000000;stroke-width:0.8;"/>
      </defs>
      <g>
       <use style="stroke:#000000;stroke-width:0.8;" x="144" xlink:href="#m9036d50e16" y="768.96"/>
      </g>
     </g>
     <g id="text_10">
      <!-- −4000 -->
      <g transform="translate(103.170312 772.759219)scale(0.1 -0.1)">
       <use xlink:href="#DejaVuSans-2212"/>
       <use x="83.789062" xlink:href="#DejaVuSans-34"/>
       <use x="147.412109" xlink:href="#DejaVuSans-30"/>
       <use x="211.035156" xlink:href="#DejaVuSans-30"/>
       <use x="274.658203" xlink:href="#DejaVuSans-30"/>
      </g>
     </g>
    </g>
    <g id="ytick_2">
     <g id="line2d_11">
      <g>
       <use style="stroke:#000000;stroke-width:0.8;" x="144" xlink:href="#m9036d50e16" y="685.8"/>
      </g>
     </g>
     <g id="text_11">
      <!-- −3000 -->
      <g transform="translate(103.170312 689.599219)scale(0.1 -0.1)">
       <use xlink:href="#DejaVuSans-2212"/>
       <use x="83.789062" xlink:href="#DejaVuSans-33"/>
       <use x="147.412109" xlink:href="#DejaVuSans-30"/>
       <use x="211.035156" xlink:href="#DejaVuSans-30"/>
       <use x="274.658203" xlink:href="#DejaVuSans-30"/>
      </g>
     </g>
    </g>
    <g id="ytick_3">
     <g id="line2d_12">
      <g>
       <use style="stroke:#000000;stroke-width:0.8;" x="144" xlink:href="#m9036d50e16" y="602.64"/>
      </g>
     </g>
     <g id="text_12">
      <!-- −2000 -->
      <g transform="translate(103.170312 606.439219)scale(0.1 -0.1)">
       <use xlink:href="#DejaVuSans-2212"/>
       <use x="83.789062" xlink:href="#DejaVuSans-32"/>
       <use x="147.412109" xlink:href="#DejaVuSans-30"/>
       <use x="211.035156" xlink:href="#DejaVuSans-30"/>
       <use x="274.658203" xlink:href="#DejaVuSans-30"/>
      </g>
     </g>
    </g>
    <g id="ytick_4">
     <g id="line2d_13">
      <g>
       <use style="stroke:#000000;stroke-width:0.8;" x="144" xlink:href="#m9036d50e16" y="519.48"/>
      </g>
     </g>
     <g id="text_13">
      <!-- −1000 -->
      <g transform="translate(103.170312 523.279219)scale(0.1 -0.1)">
       <use xlink:href="#DejaVuSans-2212"/>
       <use x="83.789062" xlink:href="#DejaVuSans-31"/>
       <use x="147.412109" xlink:href="#DejaVuSans-30"/>
       <use x="211.035156" xlink:href="#DejaVuSans-30"/>
       <use x="274.658203" xlink:href="#DejaVuSans-30"/>
      </g>
     </g>
    </g>
    <g id="ytick_5">
     <g id="line2d_14">
      <g>
       <use style="stroke:#000000;stroke-width:0.8;" x="144" xlink:href="#m9036d50e16" y="436.32"/>
      </g>
     </g>
     <g id="text_14">
      <!-- 0 -->
      <g transform="translate(130.6375 440.119219)scale(0.1 -0.1)">
       <use xlink:href="#DejaVuSans-30"/>
      </g>
     </g>
    </g>
    <g id="ytick_6">
     <g id="line2d_15">
      <g>
       <use style="stroke:#000000;stroke-width:0.8;" x="144" xlink:href="#m9036d50e16" y="353.16"/>
      </g>
     </g>
     <g id="text_15">
      <!-- 1000 -->
      <g transform="translate(111.55 356.959219)scale(0.1 -0.1)">
       <use xlink:href="#DejaVuSans-31"/>
       <use x="63.623047" xlink:href="#DejaVuSans-30"/>
       <use x="127.246094" xlink:href="#DejaVuSans-30"/>
       <use x="190.869141" xlink:href="#DejaVuSans-30"/>
      </g>
     </g>
    </g>
    <g id="ytick_7">
     <g id="line2d_16">
      <g>
       <use style="stroke:#000000;stroke-width:0.8;" x="144" xlink:href="#m9036d50e16" y="270"/>
      </g>
     </g>
     <g id="text_16">
      <!-- 2000 -->
      <g transform="translate(111.55 273.799219)scale(0.1 -0.1)">
       <use xlink:href="#DejaVuSans-32"/>
       <use x="63.623047" xlink:href="#DejaVuSans-30"/>
       <use x="127.246094" xlink:href="#DejaVuSans-30"/>
       <use x="190.869141" xlink:href="#DejaVuSans-30"/>
      </g>
     </g>
    </g>
    <g id="ytick_8">
     <g id="line2d_17">
      <g>
       <use style="stroke:#000000;stroke-width:0.8;" x="144" xlink:href="#m9036d50e16" y="186.84"/>
      </g>
     </g>
     <g id="text_17">
      <!-- 3000 -->
      <g transform="translate(111.55 190.639219)scale(0.1 -0.1)">
       <use xlink:href="#DejaVuSans-33"/>
       <use x="63.623047" xlink:href="#DejaVuSans-30"/>
       <use x="127.246094" xlink:href="#DejaVuSans-30"/>
       <use x="190.869141" xlink:href="#DejaVuSans-30"/>
      </g>
     </g>
    </g>
    <g id="ytick_9">
     <g id="line2d_18">
      <g>
       <use style="stroke:#000000;stroke-width:0.8;" x="144" xlink:href="#m9036d50e16" y="103.68"/>
      </g>
     </g>
     <g id="text_18">
      <!-- 4000 -->
      <g transform="translate(111.55 107.479219)scale(0.1 -0.1)">
       <use xlink:href="#DejaVuSans-34"/>
       <use x="63.623047" xlink:href="#DejaVuSans-30"/>
       <use x="127.246094" xlink:href="#DejaVuSans-30"/>
       <use x="190.869141" xlink:href="#DejaVuSans-30"/>
      </g>
     </g>
    </g>
   </g>
   <g id="line2d_19">
    <path clip-path="url(#p4407d52c49)" d="M 590.4 768.96 
L 590.4 103.68 
" style="fill:none;stroke:#1f77b4;stroke-linecap:square;stroke-width:1.5;"/>
   </g>
   <g id="line2d_20">
    <path clip-path="url(#p4407d52c49)" d="M 144 436.32 
L 1036.8 436.32 
" style="fill:none;stroke:#1f77b4;stroke-linecap:square;stroke-width:1.5;"/>
   </g>
   <g id="line2d_21">
    <defs>
     <path d="M 0 3 
C 0.795609 3 1.55874 2.683901 2.12132 2.12132 
C 2.683901 1.55874 3 0.795609 3 0 
C 3 -0.795609 2.683901 -1.55874 2.12132 -2.12132 
C 1.55874 -2.683901 0.795609 -3 0 -3 
C -0.795609 -3 -1.55874 -2.683901 -2.12132 -2.12132 
C -2.683901 -1.55874 -3 -0.795609 -3 0 
C -3 0.795609 -2.683901 1.55874 -2.12132 2.12132 
C -1.55874 2.683901 -0.795609 3 0 3 
z
" id="mbbe0eb141a" style="stroke:#008000;"/>
    </defs>
    <g clip-path="url(#p4407d52c49)">
     <use style="fill:#008000;stroke:#008000;" x="1412.536136" xlink:href="#mbbe0eb141a" y="489.244337"/>
    </g>
   </g>
   <g id="line2d_22">
    <g clip-path="url(#p4407d52c49)">
     <use style="fill:#008000;stroke:#008000;" x="1060.68212" xlink:href="#mbbe0eb141a" y="436.702267"/>
    </g>
   </g>
   <g id="line2d_23">
    <g clip-path="url(#p4407d52c49)">
     <use style="fill:#008000;stroke:#008000;" x="1391.276132" xlink:href="#mbbe0eb141a" y="389.352247"/>
    </g>
   </g>
   <g id="line2d_24">
    <g clip-path="url(#p4407d52c49)">
     <use style="fill:#008000;stroke:#008000;" x="1258.090498" xlink:href="#mbbe0eb141a" y="334.246856"/>
    </g>
   </g>
   <g id="line2d_25">
    <g clip-path="url(#p4407d52c49)">
     <use style="fill:#008000;stroke:#008000;" x="1324.689879" xlink:href="#mbbe0eb141a" y="276.674217"/>
    </g>
   </g>
   <g id="line2d_26">
    <g clip-path="url(#p4407d52c49)">
     <use style="fill:#008000;stroke:#008000;" x="1358.519248" xlink:href="#mbbe0eb141a" y="243.591028"/>
    </g>
   </g>
   <g id="line2d_27">
    <g clip-path="url(#p4407d52c49)">
     <use style="fill:#008000;stroke:#008000;" x="647.567879" xlink:href="#mbbe0eb141a" y="391.880892"/>
    </g>
   </g>
   <g id="line2d_28">
    <g clip-path="url(#p4407d52c49)">
     <use style="fill:#008000;stroke:#008000;" x="647.567879" xlink:href="#mbbe0eb141a" y="391.880892"/>
    </g>
   </g>
   <g id="line2d_29">
    <g clip-path="url(#p4407d52c49)">
     <use style="fill:#008000;stroke:#008000;" x="558.092511" xlink:href="#mbbe0eb141a" y="229.044155"/>
    </g>
   </g>
   <g id="line2d_30">
    <g clip-path="url(#p4407d52c49)">
     <use style="fill:#008000;stroke:#008000;" x="574.555068" xlink:href="#mbbe0eb141a" y="398.71202"/>
    </g>
   </g>
   <g id="line2d_31">
    <g clip-path="url(#p4407d52c49)">
     <use style="fill:#008000;stroke:#008000;" x="574.555068" xlink:href="#mbbe0eb141a" y="398.71202"/>
    </g>
   </g>
   <g id="line2d_32">
    <g clip-path="url(#p4407d52c49)">
     <use style="fill:#008000;stroke:#008000;" x="410.85846" xlink:href="#mbbe0eb141a" y="506.10449"/>
    </g>
   </g>
   <g id="line2d_33">
    <g clip-path="url(#p4407d52c49)">
     <use style="fill:#008000;stroke:#008000;" x="573.379623" xlink:href="#mbbe0eb141a" y="490.916043"/>
    </g>
   </g>
   <g id="line2d_34">
    <g clip-path="url(#p4407d52c49)">
     <use style="fill:#008000;stroke:#008000;" x="572.716196" xlink:href="#mbbe0eb141a" y="624.02833"/>
    </g>
   </g>
   <g id="line2d_35">
    <g clip-path="url(#p4407d52c49)">
     <use style="fill:#008000;stroke:#008000;" x="645.172785" xlink:href="#mbbe0eb141a" y="619.712412"/>
    </g>
   </g>
   <g id="line2d_36">
    <g clip-path="url(#p4407d52c49)">
     <use style="fill:#008000;stroke:#008000;" x="1056.673281" xlink:href="#mbbe0eb141a" y="555.426535"/>
    </g>
   </g>
   <g id="line2d_37">
    <defs>
     <path d="M 0 1.333333 
C 0.353604 1.333333 0.692773 1.192845 0.942809 0.942809 
C 1.192845 0.692773 1.333333 0.353604 1.333333 0 
C 1.333333 -0.353604 1.192845 -0.692773 0.942809 -0.942809 
C 0.692773 -1.192845 0.353604 -1.333333 0 -1.333333 
C -0.353604 -1.333333 -0.692773 -1.192845 -0.942809 -0.942809 
C -1.192845 -0.692773 -1.333333 -0.353604 -1.333333 0 
C -1.333333 0.353604 -1.192845 0.692773 -0.942809 0.942809 
C -0.692773 1.192845 -0.353604 1.333333 0 1.333333 
z
" id="meec1542bf4" style="stroke:#ff0000;"/>
    </defs>
    <g clip-path="url(#p4407d52c49)">
     <use style="fill:#ff0000;stroke:#ff0000;" x="1412.536136" xlink:href="#meec1542bf4" y="489.244337"/>
     <use style="fill:#ff0000;stroke:#ff0000;" x="1060.68212" xlink:href="#meec1542bf4" y="436.702267"/>
     <use style="fill:#ff0000;stroke:#ff0000;" x="1391.276132" xlink:href="#meec1542bf4" y="389.352247"/>
     <use style="fill:#ff0000;stroke:#ff0000;" x="1258.090498" xlink:href="#meec1542bf4" y="334.246856"/>
     <use style="fill:#ff0000;stroke:#ff0000;" x="1324.689879" xlink:href="#meec1542bf4" y="276.674217"/>
     <use style="fill:#ff0000;stroke:#ff0000;" x="1358.519248" xlink:href="#meec1542bf4" y="243.591028"/>
     <use style="fill:#ff0000;stroke:#ff0000;" x="651.478903" xlink:href="#meec1542bf4" y="399.133801"/>
     <use style="fill:#ff0000;stroke:#ff0000;" x="642.159922" xlink:href="#meec1542bf4" y="384.815826"/>
     <use style="fill:#ff0000;stroke:#ff0000;" x="789.081494" xlink:href="#meec1542bf4" y="192.341549"/>
     <use style="fill:#ff0000;stroke:#ff0000;" x="767.609231" xlink:href="#meec1542bf4" y="197.174478"/>
     <use style="fill:#ff0000;stroke:#ff0000;" x="558.092511" xlink:href="#meec1542bf4" y="229.044155"/>
     <use style="fill:#ff0000;stroke:#ff0000;" x="577.424347" xlink:href="#meec1542bf4" y="397.313437"/>
     <use style="fill:#ff0000;stroke:#ff0000;" x="571.865682" xlink:href="#meec1542bf4" y="400.223327"/>
     <use style="fill:#ff0000;stroke:#ff0000;" x="456.736929" xlink:href="#meec1542bf4" y="247.884339"/>
     <use style="fill:#ff0000;stroke:#ff0000;" x="416.242248" xlink:href="#meec1542bf4" y="265.752964"/>
     <use style="fill:#ff0000;stroke:#ff0000;" x="390.904485" xlink:href="#meec1542bf4" y="284.21872"/>
     <use style="fill:#ff0000;stroke:#ff0000;" x="359.982454" xlink:href="#meec1542bf4" y="274.183504"/>
     <use style="fill:#ff0000;stroke:#ff0000;" x="406.481429" xlink:href="#meec1542bf4" y="317.774415"/>
     <use style="fill:#ff0000;stroke:#ff0000;" x="431.920624" xlink:href="#meec1542bf4" y="342.857139"/>
     <use style="fill:#ff0000;stroke:#ff0000;" x="400.294215" xlink:href="#meec1542bf4" y="365.401547"/>
     <use style="fill:#ff0000;stroke:#ff0000;" x="454.545325" xlink:href="#meec1542bf4" y="391.512259"/>
     <use style="fill:#ff0000;stroke:#ff0000;" x="446.804444" xlink:href="#meec1542bf4" y="413.454032"/>
     <use style="fill:#ff0000;stroke:#ff0000;" x="415.936127" xlink:href="#meec1542bf4" y="440.221002"/>
     <use style="fill:#ff0000;stroke:#ff0000;" x="410.85846" xlink:href="#meec1542bf4" y="506.10449"/>
     <use style="fill:#ff0000;stroke:#ff0000;" x="467.001297" xlink:href="#meec1542bf4" y="489.776896"/>
     <use style="fill:#ff0000;stroke:#ff0000;" x="433.871847" xlink:href="#meec1542bf4" y="516.717957"/>
     <use style="fill:#ff0000;stroke:#ff0000;" x="451.230226" xlink:href="#meec1542bf4" y="514.644021"/>
     <use style="fill:#ff0000;stroke:#ff0000;" x="466.347438" xlink:href="#meec1542bf4" y="512.478639"/>
     <use style="fill:#ff0000;stroke:#ff0000;" x="457.431542" xlink:href="#meec1542bf4" y="524.657868"/>
     <use style="fill:#ff0000;stroke:#ff0000;" x="470.992874" xlink:href="#meec1542bf4" y="537.723673"/>
     <use style="fill:#ff0000;stroke:#ff0000;" x="454.043435" xlink:href="#meec1542bf4" y="561.445741"/>
     <use style="fill:#ff0000;stroke:#ff0000;" x="531.675453" xlink:href="#meec1542bf4" y="502.120673"/>
     <use style="fill:#ff0000;stroke:#ff0000;" x="569.313888" xlink:href="#meec1542bf4" y="488.995233"/>
     <use style="fill:#ff0000;stroke:#ff0000;" x="577.684072" xlink:href="#meec1542bf4" y="492.659671"/>
     <use style="fill:#ff0000;stroke:#ff0000;" x="572.716196" xlink:href="#meec1542bf4" y="624.02833"/>
     <use style="fill:#ff0000;stroke:#ff0000;" x="635.330202" xlink:href="#meec1542bf4" y="622.628599"/>
     <use style="fill:#ff0000;stroke:#ff0000;" x="654.770028" xlink:href="#meec1542bf4" y="616.510577"/>
     <use style="fill:#ff0000;stroke:#ff0000;" x="668.125725" xlink:href="#meec1542bf4" y="598.469288"/>
     <use style="fill:#ff0000;stroke:#ff0000;" x="699.860306" xlink:href="#meec1542bf4" y="598.362982"/>
     <use style="fill:#ff0000;stroke:#ff0000;" x="755.917989" xlink:href="#meec1542bf4" y="592.597606"/>
     <use style="fill:#ff0000;stroke:#ff0000;" x="804.190388" xlink:href="#meec1542bf4" y="581.581483"/>
     <use style="fill:#ff0000;stroke:#ff0000;" x="833.755934" xlink:href="#meec1542bf4" y="588.988168"/>
     <use style="fill:#ff0000;stroke:#ff0000;" x="845.04082" xlink:href="#meec1542bf4" y="570.343392"/>
     <use style="fill:#ff0000;stroke:#ff0000;" x="874.499904" xlink:href="#meec1542bf4" y="573.471664"/>
     <use style="fill:#ff0000;stroke:#ff0000;" x="873.664449" xlink:href="#meec1542bf4" y="560.886987"/>
     <use style="fill:#ff0000;stroke:#ff0000;" x="893.083685" xlink:href="#meec1542bf4" y="557.432146"/>
     <use style="fill:#ff0000;stroke:#ff0000;" x="947.214703" xlink:href="#meec1542bf4" y="552.361216"/>
     <use style="fill:#ff0000;stroke:#ff0000;" x="1056.673281" xlink:href="#meec1542bf4" y="555.426535"/>
     <use style="fill:#ff0000;stroke:#ff0000;" x="1083.897996" xlink:href="#meec1542bf4" y="513.855942"/>
     <use style="fill:#ff0000;stroke:#ff0000;" x="1128.076232" xlink:href="#meec1542bf4" y="503.928475"/>
    </g>
   </g>
   <g id="line2d_38">
    <defs>
     <path d="M -0.5 0.5 
L 0.5 0.5 
L 0.5 -0.5 
L -0.5 -0.5 
z
" id="m8009dcdb37" style="stroke:#1f77b4;stroke-linejoin:miter;"/>
    </defs>
    <g clip-path="url(#p4407d52c49)">
     <use style="fill:#1f77b4;stroke:#1f77b4;stroke-linejoin:miter;" x="1412.536136" xlink:href="#m8009dcdb37" y="489.244337"/>
     <use style="fill:#1f77b4;stroke:#1f77b4;stroke-linejoin:miter;" x="1060.68212" xlink:href="#m8009dcdb37" y="436.702267"/>
     <use style="fill:#1f77b4;stroke:#1f77b4;stroke-linejoin:miter;" x="1391.276132" xlink:href="#m8009dcdb37" y="389.352247"/>
     <use style="fill:#1f77b4;stroke:#1f77b4;stroke-linejoin:miter;" x="1258.090498" xlink:href="#m8009dcdb37" y="334.246856"/>
     <use style="fill:#1f77b4;stroke:#1f77b4;stroke-linejoin:miter;" x="1324.689879" xlink:href="#m8009dcdb37" y="276.674217"/>
     <use style="fill:#1f77b4;stroke:#1f77b4;stroke-linejoin:miter;" x="1358.519248" xlink:href="#m8009dcdb37" y="243.591028"/>
     <use style="fill:#1f77b4;stroke:#1f77b4;stroke-linejoin:miter;" x="651.478903" xlink:href="#m8009dcdb37" y="399.133801"/>
     <use style="fill:#1f77b4;stroke:#1f77b4;stroke-linejoin:miter;" x="646.982209" xlink:href="#m8009dcdb37" y="398.667535"/>
     <use style="fill:#1f77b4;stroke:#1f77b4;stroke-linejoin:miter;" x="646.049067" xlink:href="#m8009dcdb37" y="396.209657"/>
     <use style="fill:#1f77b4;stroke:#1f77b4;stroke-linejoin:miter;" x="644.528748" xlink:href="#m8009dcdb37" y="394.001436"/>
     <use style="fill:#1f77b4;stroke:#1f77b4;stroke-linejoin:miter;" x="642.393468" xlink:href="#m8009dcdb37" y="392.262812"/>
     <use style="fill:#1f77b4;stroke:#1f77b4;stroke-linejoin:miter;" x="640.841841" xlink:href="#m8009dcdb37" y="390.006929"/>
     <use style="fill:#1f77b4;stroke:#1f77b4;stroke-linejoin:miter;" x="642.159922" xlink:href="#m8009dcdb37" y="384.815826"/>
     <use style="fill:#1f77b4;stroke:#1f77b4;stroke-linejoin:miter;" x="789.081494" xlink:href="#m8009dcdb37" y="192.341549"/>
     <use style="fill:#1f77b4;stroke:#1f77b4;stroke-linejoin:miter;" x="767.609231" xlink:href="#m8009dcdb37" y="197.174478"/>
     <use style="fill:#1f77b4;stroke:#1f77b4;stroke-linejoin:miter;" x="750.119854" xlink:href="#m8009dcdb37" y="197.934414"/>
     <use style="fill:#1f77b4;stroke:#1f77b4;stroke-linejoin:miter;" x="732.920478" xlink:href="#m8009dcdb37" y="200.047096"/>
     <use style="fill:#1f77b4;stroke:#1f77b4;stroke-linejoin:miter;" x="715.716438" xlink:href="#m8009dcdb37" y="203.182908"/>
     <use style="fill:#1f77b4;stroke:#1f77b4;stroke-linejoin:miter;" x="700.024328" xlink:href="#m8009dcdb37" y="205.240289"/>
     <use style="fill:#1f77b4;stroke:#1f77b4;stroke-linejoin:miter;" x="684.4729" xlink:href="#m8009dcdb37" y="208.590661"/>
     <use style="fill:#1f77b4;stroke:#1f77b4;stroke-linejoin:miter;" x="670.029051" xlink:href="#m8009dcdb37" y="210.944238"/>
     <use style="fill:#1f77b4;stroke:#1f77b4;stroke-linejoin:miter;" x="656.640667" xlink:href="#m8009dcdb37" y="211.934644"/>
     <use style="fill:#1f77b4;stroke:#1f77b4;stroke-linejoin:miter;" x="643.242323" xlink:href="#m8009dcdb37" y="214.423"/>
     <use style="fill:#1f77b4;stroke:#1f77b4;stroke-linejoin:miter;" x="630.521937" xlink:href="#m8009dcdb37" y="215.738369"/>
     <use style="fill:#1f77b4;stroke:#1f77b4;stroke-linejoin:miter;" x="616.907346" xlink:href="#m8009dcdb37" y="218.753465"/>
     <use style="fill:#1f77b4;stroke:#1f77b4;stroke-linejoin:miter;" x="604.782586" xlink:href="#m8009dcdb37" y="219.370638"/>
     <use style="fill:#1f77b4;stroke:#1f77b4;stroke-linejoin:miter;" x="592.653894" xlink:href="#m8009dcdb37" y="223.956791"/>
     <use style="fill:#1f77b4;stroke:#1f77b4;stroke-linejoin:miter;" x="581.044375" xlink:href="#m8009dcdb37" y="225.125471"/>
     <use style="fill:#1f77b4;stroke:#1f77b4;stroke-linejoin:miter;" x="569.261644" xlink:href="#m8009dcdb37" y="225.911054"/>
     <use style="fill:#1f77b4;stroke:#1f77b4;stroke-linejoin:miter;" x="558.092511" xlink:href="#m8009dcdb37" y="229.044155"/>
     <use style="fill:#1f77b4;stroke:#1f77b4;stroke-linejoin:miter;" x="577.424347" xlink:href="#m8009dcdb37" y="397.313437"/>
     <use style="fill:#1f77b4;stroke:#1f77b4;stroke-linejoin:miter;" x="575.894744" xlink:href="#m8009dcdb37" y="399.386852"/>
     <use style="fill:#1f77b4;stroke:#1f77b4;stroke-linejoin:miter;" x="574.106977" xlink:href="#m8009dcdb37" y="400.263473"/>
     <use style="fill:#1f77b4;stroke:#1f77b4;stroke-linejoin:miter;" x="571.865682" xlink:href="#m8009dcdb37" y="400.223327"/>
     <use style="fill:#1f77b4;stroke:#1f77b4;stroke-linejoin:miter;" x="456.736929" xlink:href="#m8009dcdb37" y="247.884339"/>
     <use style="fill:#1f77b4;stroke:#1f77b4;stroke-linejoin:miter;" x="444.231896" xlink:href="#m8009dcdb37" y="249.084795"/>
     <use style="fill:#1f77b4;stroke:#1f77b4;stroke-linejoin:miter;" x="432.090871" xlink:href="#m8009dcdb37" y="251.262118"/>
     <use style="fill:#1f77b4;stroke:#1f77b4;stroke-linejoin:miter;" x="418.041444" xlink:href="#m8009dcdb37" y="252.148641"/>
     <use style="fill:#1f77b4;stroke:#1f77b4;stroke-linejoin:miter;" x="416.242248" xlink:href="#m8009dcdb37" y="265.752964"/>
     <use style="fill:#1f77b4;stroke:#1f77b4;stroke-linejoin:miter;" x="398.900008" xlink:href="#m8009dcdb37" y="263.693139"/>
     <use style="fill:#1f77b4;stroke:#1f77b4;stroke-linejoin:miter;" x="393.056497" xlink:href="#m8009dcdb37" y="272.911793"/>
     <use style="fill:#1f77b4;stroke:#1f77b4;stroke-linejoin:miter;" x="390.904485" xlink:href="#m8009dcdb37" y="284.21872"/>
     <use style="fill:#1f77b4;stroke:#1f77b4;stroke-linejoin:miter;" x="359.982454" xlink:href="#m8009dcdb37" y="274.183504"/>
     <use style="fill:#1f77b4;stroke:#1f77b4;stroke-linejoin:miter;" x="406.481429" xlink:href="#m8009dcdb37" y="317.774415"/>
     <use style="fill:#1f77b4;stroke:#1f77b4;stroke-linejoin:miter;" x="431.920624" xlink:href="#m8009dcdb37" y="342.857139"/>
     <use style="fill:#1f77b4;stroke:#1f77b4;stroke-linejoin:miter;" x="420.37946" xlink:href="#m8009dcdb37" y="344.219549"/>
     <use style="fill:#1f77b4;stroke:#1f77b4;stroke-linejoin:miter;" x="421.92325" xlink:href="#m8009dcdb37" y="352.830879"/>
     <use style="fill:#1f77b4;stroke:#1f77b4;stroke-linejoin:miter;" x="416.104357" xlink:href="#m8009dcdb37" y="357.362418"/>
     <use style="fill:#1f77b4;stroke:#1f77b4;stroke-linejoin:miter;" x="409.060624" xlink:href="#m8009dcdb37" y="361.562287"/>
     <use style="fill:#1f77b4;stroke:#1f77b4;stroke-linejoin:miter;" x="400.294215" xlink:href="#m8009dcdb37" y="365.401547"/>
     <use style="fill:#1f77b4;stroke:#1f77b4;stroke-linejoin:miter;" x="454.545325" xlink:href="#m8009dcdb37" y="391.512259"/>
     <use style="fill:#1f77b4;stroke:#1f77b4;stroke-linejoin:miter;" x="455.429525" xlink:href="#m8009dcdb37" y="396.670856"/>
     <use style="fill:#1f77b4;stroke:#1f77b4;stroke-linejoin:miter;" x="456.557179" xlink:href="#m8009dcdb37" y="401.76556"/>
     <use style="fill:#1f77b4;stroke:#1f77b4;stroke-linejoin:miter;" x="457.966824" xlink:href="#m8009dcdb37" y="406.766152"/>
     <use style="fill:#1f77b4;stroke:#1f77b4;stroke-linejoin:miter;" x="458.374459" xlink:href="#m8009dcdb37" y="411.277454"/>
     <use style="fill:#1f77b4;stroke:#1f77b4;stroke-linejoin:miter;" x="446.804444" xlink:href="#m8009dcdb37" y="413.454032"/>
     <use style="fill:#1f77b4;stroke:#1f77b4;stroke-linejoin:miter;" x="429.385037" xlink:href="#m8009dcdb37" y="415.669614"/>
     <use style="fill:#1f77b4;stroke:#1f77b4;stroke-linejoin:miter;" x="425.797524" xlink:href="#m8009dcdb37" y="420.274187"/>
     <use style="fill:#1f77b4;stroke:#1f77b4;stroke-linejoin:miter;" x="417.170978" xlink:href="#m8009dcdb37" y="424.707339"/>
     <use style="fill:#1f77b4;stroke:#1f77b4;stroke-linejoin:miter;" x="419.240052" xlink:href="#m8009dcdb37" y="430.124004"/>
     <use style="fill:#1f77b4;stroke:#1f77b4;stroke-linejoin:miter;" x="420.440083" xlink:href="#m8009dcdb37" y="435.180223"/>
     <use style="fill:#1f77b4;stroke:#1f77b4;stroke-linejoin:miter;" x="415.936127" xlink:href="#m8009dcdb37" y="440.221002"/>
     <use style="fill:#1f77b4;stroke:#1f77b4;stroke-linejoin:miter;" x="394.74078" xlink:href="#m8009dcdb37" y="446.515167"/>
     <use style="fill:#1f77b4;stroke:#1f77b4;stroke-linejoin:miter;" x="395.729489" xlink:href="#m8009dcdb37" y="452.36691"/>
     <use style="fill:#1f77b4;stroke:#1f77b4;stroke-linejoin:miter;" x="399.121788" xlink:href="#m8009dcdb37" y="458.178371"/>
     <use style="fill:#1f77b4;stroke:#1f77b4;stroke-linejoin:miter;" x="400.745107" xlink:href="#m8009dcdb37" y="463.91051"/>
     <use style="fill:#1f77b4;stroke:#1f77b4;stroke-linejoin:miter;" x="404.031395" xlink:href="#m8009dcdb37" y="469.420622"/>
     <use style="fill:#1f77b4;stroke:#1f77b4;stroke-linejoin:miter;" x="403.250534" xlink:href="#m8009dcdb37" y="475.609759"/>
     <use style="fill:#1f77b4;stroke:#1f77b4;stroke-linejoin:miter;" x="403.975303" xlink:href="#m8009dcdb37" y="481.540478"/>
     <use style="fill:#1f77b4;stroke:#1f77b4;stroke-linejoin:miter;" x="406.145948" xlink:href="#m8009dcdb37" y="487.440713"/>
     <use style="fill:#1f77b4;stroke:#1f77b4;stroke-linejoin:miter;" x="407.507852" xlink:href="#m8009dcdb37" y="493.774839"/>
     <use style="fill:#1f77b4;stroke:#1f77b4;stroke-linejoin:miter;" x="410.85846" xlink:href="#m8009dcdb37" y="506.10449"/>
     <use style="fill:#1f77b4;stroke:#1f77b4;stroke-linejoin:miter;" x="467.001297" xlink:href="#m8009dcdb37" y="489.776896"/>
     <use style="fill:#1f77b4;stroke:#1f77b4;stroke-linejoin:miter;" x="433.871847" xlink:href="#m8009dcdb37" y="516.717957"/>
     <use style="fill:#1f77b4;stroke:#1f77b4;stroke-linejoin:miter;" x="451.230226" xlink:href="#m8009dcdb37" y="514.644021"/>
     <use style="fill:#1f77b4;stroke:#1f77b4;stroke-linejoin:miter;" x="466.347438" xlink:href="#m8009dcdb37" y="512.478639"/>
     <use style="fill:#1f77b4;stroke:#1f77b4;stroke-linejoin:miter;" x="457.431542" xlink:href="#m8009dcdb37" y="524.657868"/>
     <use style="fill:#1f77b4;stroke:#1f77b4;stroke-linejoin:miter;" x="457.143046" xlink:href="#m8009dcdb37" y="532.368011"/>
     <use style="fill:#1f77b4;stroke:#1f77b4;stroke-linejoin:miter;" x="459.618844" xlink:href="#m8009dcdb37" y="538.678144"/>
     <use style="fill:#1f77b4;stroke:#1f77b4;stroke-linejoin:miter;" x="470.992874" xlink:href="#m8009dcdb37" y="537.723673"/>
     <use style="fill:#1f77b4;stroke:#1f77b4;stroke-linejoin:miter;" x="454.043435" xlink:href="#m8009dcdb37" y="561.445741"/>
     <use style="fill:#1f77b4;stroke:#1f77b4;stroke-linejoin:miter;" x="531.675453" xlink:href="#m8009dcdb37" y="502.120673"/>
     <use style="fill:#1f77b4;stroke:#1f77b4;stroke-linejoin:miter;" x="539.987816" xlink:href="#m8009dcdb37" y="498.492844"/>
     <use style="fill:#1f77b4;stroke:#1f77b4;stroke-linejoin:miter;" x="548.394017" xlink:href="#m8009dcdb37" y="493.820034"/>
     <use style="fill:#1f77b4;stroke:#1f77b4;stroke-linejoin:miter;" x="551.890712" xlink:href="#m8009dcdb37" y="494.469002"/>
     <use style="fill:#1f77b4;stroke:#1f77b4;stroke-linejoin:miter;" x="554.573071" xlink:href="#m8009dcdb37" y="496.37021"/>
     <use style="fill:#1f77b4;stroke:#1f77b4;stroke-linejoin:miter;" x="558.145446" xlink:href="#m8009dcdb37" y="497.238551"/>
     <use style="fill:#1f77b4;stroke:#1f77b4;stroke-linejoin:miter;" x="560.601234" xlink:href="#m8009dcdb37" y="499.738293"/>
     <use style="fill:#1f77b4;stroke:#1f77b4;stroke-linejoin:miter;" x="569.313888" xlink:href="#m8009dcdb37" y="488.995233"/>
     <use style="fill:#1f77b4;stroke:#1f77b4;stroke-linejoin:miter;" x="572.533021" xlink:href="#m8009dcdb37" y="489.287702"/>
     <use style="fill:#1f77b4;stroke:#1f77b4;stroke-linejoin:miter;" x="575.110588" xlink:href="#m8009dcdb37" y="490.944884"/>
     <use style="fill:#1f77b4;stroke:#1f77b4;stroke-linejoin:miter;" x="577.684072" xlink:href="#m8009dcdb37" y="492.659671"/>
     <use style="fill:#1f77b4;stroke:#1f77b4;stroke-linejoin:miter;" x="572.716196" xlink:href="#m8009dcdb37" y="624.02833"/>
     <use style="fill:#1f77b4;stroke:#1f77b4;stroke-linejoin:miter;" x="583.226884" xlink:href="#m8009dcdb37" y="622.937668"/>
     <use style="fill:#1f77b4;stroke:#1f77b4;stroke-linejoin:miter;" x="593.562001" xlink:href="#m8009dcdb37" y="637.241535"/>
     <use style="fill:#1f77b4;stroke:#1f77b4;stroke-linejoin:miter;" x="604.436296" xlink:href="#m8009dcdb37" y="634.859456"/>
     <use style="fill:#1f77b4;stroke:#1f77b4;stroke-linejoin:miter;" x="616.393193" xlink:href="#m8009dcdb37" y="640.39227"/>
     <use style="fill:#1f77b4;stroke:#1f77b4;stroke-linejoin:miter;" x="627.650183" xlink:href="#m8009dcdb37" y="639.862046"/>
     <use style="fill:#1f77b4;stroke:#1f77b4;stroke-linejoin:miter;" x="635.330202" xlink:href="#m8009dcdb37" y="622.628599"/>
     <use style="fill:#1f77b4;stroke:#1f77b4;stroke-linejoin:miter;" x="643.431524" xlink:href="#m8009dcdb37" y="613.654177"/>
     <use style="fill:#1f77b4;stroke:#1f77b4;stroke-linejoin:miter;" x="654.770028" xlink:href="#m8009dcdb37" y="616.510577"/>
     <use style="fill:#1f77b4;stroke:#1f77b4;stroke-linejoin:miter;" x="668.125725" xlink:href="#m8009dcdb37" y="598.469288"/>
     <use style="fill:#1f77b4;stroke:#1f77b4;stroke-linejoin:miter;" x="678.764526" xlink:href="#m8009dcdb37" y="599.16626"/>
     <use style="fill:#1f77b4;stroke:#1f77b4;stroke-linejoin:miter;" x="688.960688" xlink:href="#m8009dcdb37" y="598.648962"/>
     <use style="fill:#1f77b4;stroke:#1f77b4;stroke-linejoin:miter;" x="699.860306" xlink:href="#m8009dcdb37" y="598.362982"/>
     <use style="fill:#1f77b4;stroke:#1f77b4;stroke-linejoin:miter;" x="755.917989" xlink:href="#m8009dcdb37" y="592.597606"/>
     <use style="fill:#1f77b4;stroke:#1f77b4;stroke-linejoin:miter;" x="763.284756" xlink:href="#m8009dcdb37" y="586.409567"/>
     <use style="fill:#1f77b4;stroke:#1f77b4;stroke-linejoin:miter;" x="777.77078" xlink:href="#m8009dcdb37" y="586.209497"/>
     <use style="fill:#1f77b4;stroke:#1f77b4;stroke-linejoin:miter;" x="789.57488" xlink:href="#m8009dcdb37" y="583.207291"/>
     <use style="fill:#1f77b4;stroke:#1f77b4;stroke-linejoin:miter;" x="804.190388" xlink:href="#m8009dcdb37" y="581.581483"/>
     <use style="fill:#1f77b4;stroke:#1f77b4;stroke-linejoin:miter;" x="833.755934" xlink:href="#m8009dcdb37" y="588.988168"/>
     <use style="fill:#1f77b4;stroke:#1f77b4;stroke-linejoin:miter;" x="832.533184" xlink:href="#m8009dcdb37" y="576.022498"/>
     <use style="fill:#1f77b4;stroke:#1f77b4;stroke-linejoin:miter;" x="845.04082" xlink:href="#m8009dcdb37" y="570.343392"/>
     <use style="fill:#1f77b4;stroke:#1f77b4;stroke-linejoin:miter;" x="874.499904" xlink:href="#m8009dcdb37" y="573.471664"/>
     <use style="fill:#1f77b4;stroke:#1f77b4;stroke-linejoin:miter;" x="873.664449" xlink:href="#m8009dcdb37" y="560.886987"/>
     <use style="fill:#1f77b4;stroke:#1f77b4;stroke-linejoin:miter;" x="893.083685" xlink:href="#m8009dcdb37" y="557.432146"/>
     <use style="fill:#1f77b4;stroke:#1f77b4;stroke-linejoin:miter;" x="947.214703" xlink:href="#m8009dcdb37" y="552.361216"/>
     <use style="fill:#1f77b4;stroke:#1f77b4;stroke-linejoin:miter;" x="1056.673281" xlink:href="#m8009dcdb37" y="555.426535"/>
     <use style="fill:#1f77b4;stroke:#1f77b4;stroke-linejoin:miter;" x="1058.632873" xlink:href="#m8009dcdb37" y="540.085687"/>
     <use style="fill:#1f77b4;stroke:#1f77b4;stroke-linejoin:miter;" x="1078.858148" xlink:href="#m8009dcdb37" y="528.653515"/>
     <use style="fill:#1f77b4;stroke:#1f77b4;stroke-linejoin:miter;" x="1083.897996" xlink:href="#m8009dcdb37" y="513.855942"/>
     <use style="fill:#1f77b4;stroke:#1f77b4;stroke-linejoin:miter;" x="1128.076232" xlink:href="#m8009dcdb37" y="503.928475"/>
    </g>
   </g>
   <g id="patch_3">
    <path d="M 144 768.96 
L 144 103.68 
" style="fill:none;stroke:#000000;stroke-linecap:square;stroke-linejoin:miter;stroke-width:0.8;"/>
   </g>
   <g id="patch_4">
    <path d="M 1036.8 768.96 
L 1036.8 103.68 
" style="fill:none;stroke:#000000;stroke-linecap:square;stroke-linejoin:miter;stroke-width:0.8;"/>
   </g>
   <g id="patch_5">
    <path d="M 144 768.96 
L 1036.8 768.96 
" style="fill:none;stroke:#000000;stroke-linecap:square;stroke-linejoin:miter;stroke-width:0.8;"/>
   </g>
   <g id="patch_6">
    <path d="M 144 103.68 
L 1036.8 103.68 
" style="fill:none;stroke:#000000;stroke-linecap:square;stroke-linejoin:miter;stroke-width:0.8;"/>
   </g>
  </g>
 </g>
 <defs>
  <clipPath id="p4407d52c49">
   <rect height="665.28" width="892.8" x="144" y="103.68"/>
  </clipPath>
 </defs>
</svg>
