<?xml version="1.0" encoding="utf-8" standalone="no"?>
<!DOCTYPE svg PUBLIC "-//W3C//DTD SVG 1.1//EN"
  "http://www.w3.org/Graphics/SVG/1.1/DTD/svg11.dtd">
<!-- Created with matplotlib (http://matplotlib.org/) -->
<svg height="864pt" version="1.1" viewBox="0 0 1152 864" width="1152pt" xmlns="http://www.w3.org/2000/svg" xmlns:xlink="http://www.w3.org/1999/xlink">
 <defs>
  <style type="text/css">
*{stroke-linecap:butt;stroke-linejoin:round;}
  </style>
 </defs>
 <g id="figure_1">
  <g id="patch_1">
   <path d="M 0 864 
L 1152 864 
L 1152 0 
L 0 0 
z
" style="fill:#ffffff;"/>
  </g>
  <g id="axes_1">
   <g id="patch_2">
    <path d="M 144 768.96 
L 1036.8 768.96 
L 1036.8 103.68 
L 144 103.68 
z
" style="fill:#ffffff;"/>
   </g>
   <g id="matplotlib.axis_1">
    <g id="xtick_1">
     <g id="line2d_1">
      <defs>
       <path d="M 0 0 
L 0 3.5 
" id="mb904629ec6" style="stroke:#000000;stroke-width:0.8;"/>
      </defs>
      <g>
       <use style="stroke:#000000;stroke-width:0.8;" x="144" xlink:href="#mb904629ec6" y="768.96"/>
      </g>
     </g>
     <g id="text_1">
      <!-- −4000 -->
      <defs>
       <path d="M 10.59375 35.5 
L 73.1875 35.5 
L 73.1875 27.203125 
L 10.59375 27.203125 
z
" id="DejaVuSans-2212"/>
       <path d="M 37.796875 64.3125 
L 12.890625 25.390625 
L 37.796875 25.390625 
z
M 35.203125 72.90625 
L 47.609375 72.90625 
L 47.609375 25.390625 
L 58.015625 25.390625 
L 58.015625 17.1875 
L 47.609375 17.1875 
L 47.609375 0 
L 37.796875 0 
L 37.796875 17.1875 
L 4.890625 17.1875 
L 4.890625 26.703125 
z
" id="DejaVuSans-34"/>
       <path d="M 31.78125 66.40625 
Q 24.171875 66.40625 20.328125 58.90625 
Q 16.5 51.421875 16.5 36.375 
Q 16.5 21.390625 20.328125 13.890625 
Q 24.171875 6.390625 31.78125 6.390625 
Q 39.453125 6.390625 43.28125 13.890625 
Q 47.125 21.390625 47.125 36.375 
Q 47.125 51.421875 43.28125 58.90625 
Q 39.453125 66.40625 31.78125 66.40625 
z
M 31.78125 74.21875 
Q 44.046875 74.21875 50.515625 64.515625 
Q 56.984375 54.828125 56.984375 36.375 
Q 56.984375 17.96875 50.515625 8.265625 
Q 44.046875 -1.421875 31.78125 -1.421875 
Q 19.53125 -1.421875 13.0625 8.265625 
Q 6.59375 17.96875 6.59375 36.375 
Q 6.59375 54.828125 13.0625 64.515625 
Q 19.53125 74.21875 31.78125 74.21875 
z
" id="DejaVuSans-30"/>
      </defs>
      <g transform="translate(127.085156 783.558437)scale(0.1 -0.1)">
       <use xlink:href="#DejaVuSans-2212"/>
       <use x="83.789062" xlink:href="#DejaVuSans-34"/>
       <use x="147.412109" xlink:href="#DejaVuSans-30"/>
       <use x="211.035156" xlink:href="#DejaVuSans-30"/>
       <use x="274.658203" xlink:href="#DejaVuSans-30"/>
      </g>
     </g>
    </g>
    <g id="xtick_2">
     <g id="line2d_2">
      <g>
       <use style="stroke:#000000;stroke-width:0.8;" x="255.6" xlink:href="#mb904629ec6" y="768.96"/>
      </g>
     </g>
     <g id="text_2">
      <!-- −3000 -->
      <defs>
       <path d="M 40.578125 39.3125 
Q 47.65625 37.796875 51.625 33 
Q 55.609375 28.21875 55.609375 21.1875 
Q 55.609375 10.40625 48.1875 4.484375 
Q 40.765625 -1.421875 27.09375 -1.421875 
Q 22.515625 -1.421875 17.65625 -0.515625 
Q 12.796875 0.390625 7.625 2.203125 
L 7.625 11.71875 
Q 11.71875 9.328125 16.59375 8.109375 
Q 21.484375 6.890625 26.8125 6.890625 
Q 36.078125 6.890625 40.9375 10.546875 
Q 45.796875 14.203125 45.796875 21.1875 
Q 45.796875 27.640625 41.28125 31.265625 
Q 36.765625 34.90625 28.71875 34.90625 
L 20.21875 34.90625 
L 20.21875 43.015625 
L 29.109375 43.015625 
Q 36.375 43.015625 40.234375 45.921875 
Q 44.09375 48.828125 44.09375 54.296875 
Q 44.09375 59.90625 40.109375 62.90625 
Q 36.140625 65.921875 28.71875 65.921875 
Q 24.65625 65.921875 20.015625 65.03125 
Q 15.375 64.15625 9.8125 62.3125 
L 9.8125 71.09375 
Q 15.4375 72.65625 20.34375 73.4375 
Q 25.25 74.21875 29.59375 74.21875 
Q 40.828125 74.21875 47.359375 69.109375 
Q 53.90625 64.015625 53.90625 55.328125 
Q 53.90625 49.265625 50.4375 45.09375 
Q 46.96875 40.921875 40.578125 39.3125 
z
" id="DejaVuSans-33"/>
      </defs>
      <g transform="translate(238.685156 783.558437)scale(0.1 -0.1)">
       <use xlink:href="#DejaVuSans-2212"/>
       <use x="83.789062" xlink:href="#DejaVuSans-33"/>
       <use x="147.412109" xlink:href="#DejaVuSans-30"/>
       <use x="211.035156" xlink:href="#DejaVuSans-30"/>
       <use x="274.658203" xlink:href="#DejaVuSans-30"/>
      </g>
     </g>
    </g>
    <g id="xtick_3">
     <g id="line2d_3">
      <g>
       <use style="stroke:#000000;stroke-width:0.8;" x="367.2" xlink:href="#mb904629ec6" y="768.96"/>
      </g>
     </g>
     <g id="text_3">
      <!-- −2000 -->
      <defs>
       <path d="M 19.1875 8.296875 
L 53.609375 8.296875 
L 53.609375 0 
L 7.328125 0 
L 7.328125 8.296875 
Q 12.9375 14.109375 22.625 23.890625 
Q 32.328125 33.6875 34.8125 36.53125 
Q 39.546875 41.84375 41.421875 45.53125 
Q 43.3125 49.21875 43.3125 52.78125 
Q 43.3125 58.59375 39.234375 62.25 
Q 35.15625 65.921875 28.609375 65.921875 
Q 23.96875 65.921875 18.8125 64.3125 
Q 13.671875 62.703125 7.8125 59.421875 
L 7.8125 69.390625 
Q 13.765625 71.78125 18.9375 73 
Q 24.125 74.21875 28.421875 74.21875 
Q 39.75 74.21875 46.484375 68.546875 
Q 53.21875 62.890625 53.21875 53.421875 
Q 53.21875 48.921875 51.53125 44.890625 
Q 49.859375 40.875 45.40625 35.40625 
Q 44.1875 33.984375 37.640625 27.21875 
Q 31.109375 20.453125 19.1875 8.296875 
z
" id="DejaVuSans-32"/>
      </defs>
      <g transform="translate(350.285156 783.558437)scale(0.1 -0.1)">
       <use xlink:href="#DejaVuSans-2212"/>
       <use x="83.789062" xlink:href="#DejaVuSans-32"/>
       <use x="147.412109" xlink:href="#DejaVuSans-30"/>
       <use x="211.035156" xlink:href="#DejaVuSans-30"/>
       <use x="274.658203" xlink:href="#DejaVuSans-30"/>
      </g>
     </g>
    </g>
    <g id="xtick_4">
     <g id="line2d_4">
      <g>
       <use style="stroke:#000000;stroke-width:0.8;" x="478.8" xlink:href="#mb904629ec6" y="768.96"/>
      </g>
     </g>
     <g id="text_4">
      <!-- −1000 -->
      <defs>
       <path d="M 12.40625 8.296875 
L 28.515625 8.296875 
L 28.515625 63.921875 
L 10.984375 60.40625 
L 10.984375 69.390625 
L 28.421875 72.90625 
L 38.28125 72.90625 
L 38.28125 8.296875 
L 54.390625 8.296875 
L 54.390625 0 
L 12.40625 0 
z
" id="DejaVuSans-31"/>
      </defs>
      <g transform="translate(461.885156 783.558437)scale(0.1 -0.1)">
       <use xlink:href="#DejaVuSans-2212"/>
       <use x="83.789062" xlink:href="#DejaVuSans-31"/>
       <use x="147.412109" xlink:href="#DejaVuSans-30"/>
       <use x="211.035156" xlink:href="#DejaVuSans-30"/>
       <use x="274.658203" xlink:href="#DejaVuSans-30"/>
      </g>
     </g>
    </g>
    <g id="xtick_5">
     <g id="line2d_5">
      <g>
       <use style="stroke:#000000;stroke-width:0.8;" x="590.4" xlink:href="#mb904629ec6" y="768.96"/>
      </g>
     </g>
     <g id="text_5">
      <!-- 0 -->
      <g transform="translate(587.21875 783.558437)scale(0.1 -0.1)">
       <use xlink:href="#DejaVuSans-30"/>
      </g>
     </g>
    </g>
    <g id="xtick_6">
     <g id="line2d_6">
      <g>
       <use style="stroke:#000000;stroke-width:0.8;" x="702" xlink:href="#mb904629ec6" y="768.96"/>
      </g>
     </g>
     <g id="text_6">
      <!-- 1000 -->
      <g transform="translate(689.275 783.558437)scale(0.1 -0.1)">
       <use xlink:href="#DejaVuSans-31"/>
       <use x="63.623047" xlink:href="#DejaVuSans-30"/>
       <use x="127.246094" xlink:href="#DejaVuSans-30"/>
       <use x="190.869141" xlink:href="#DejaVuSans-30"/>
      </g>
     </g>
    </g>
    <g id="xtick_7">
     <g id="line2d_7">
      <g>
       <use style="stroke:#000000;stroke-width:0.8;" x="813.6" xlink:href="#mb904629ec6" y="768.96"/>
      </g>
     </g>
     <g id="text_7">
      <!-- 2000 -->
      <g transform="translate(800.875 783.558437)scale(0.1 -0.1)">
       <use xlink:href="#DejaVuSans-32"/>
       <use x="63.623047" xlink:href="#DejaVuSans-30"/>
       <use x="127.246094" xlink:href="#DejaVuSans-30"/>
       <use x="190.869141" xlink:href="#DejaVuSans-30"/>
      </g>
     </g>
    </g>
    <g id="xtick_8">
     <g id="line2d_8">
      <g>
       <use style="stroke:#000000;stroke-width:0.8;" x="925.2" xlink:href="#mb904629ec6" y="768.96"/>
      </g>
     </g>
     <g id="text_8">
      <!-- 3000 -->
      <g transform="translate(912.475 783.558437)scale(0.1 -0.1)">
       <use xlink:href="#DejaVuSans-33"/>
       <use x="63.623047" xlink:href="#DejaVuSans-30"/>
       <use x="127.246094" xlink:href="#DejaVuSans-30"/>
       <use x="190.869141" xlink:href="#DejaVuSans-30"/>
      </g>
     </g>
    </g>
    <g id="xtick_9">
     <g id="line2d_9">
      <g>
       <use style="stroke:#000000;stroke-width:0.8;" x="1036.8" xlink:href="#mb904629ec6" y="768.96"/>
      </g>
     </g>
     <g id="text_9">
      <!-- 4000 -->
      <g transform="translate(1024.075 783.558437)scale(0.1 -0.1)">
       <use xlink:href="#DejaVuSans-34"/>
       <use x="63.623047" xlink:href="#DejaVuSans-30"/>
       <use x="127.246094" xlink:href="#DejaVuSans-30"/>
       <use x="190.869141" xlink:href="#DejaVuSans-30"/>
      </g>
     </g>
    </g>
   </g>
   <g id="matplotlib.axis_2">
    <g id="ytick_1">
     <g id="line2d_10">
      <defs>
       <path d="M 0 0 
L -3.5 0 
" id="m5c300d4d88" style="stroke:#000000;stroke-width:0.8;"/>
      </defs>
      <g>
       <use style="stroke:#000000;stroke-width:0.8;" x="144" xlink:href="#m5c300d4d88" y="768.96"/>
      </g>
     </g>
     <g id="text_10">
      <!-- −4000 -->
      <g transform="translate(103.170312 772.759219)scale(0.1 -0.1)">
       <use xlink:href="#DejaVuSans-2212"/>
       <use x="83.789062" xlink:href="#DejaVuSans-34"/>
       <use x="147.412109" xlink:href="#DejaVuSans-30"/>
       <use x="211.035156" xlink:href="#DejaVuSans-30"/>
       <use x="274.658203" xlink:href="#DejaVuSans-30"/>
      </g>
     </g>
    </g>
    <g id="ytick_2">
     <g id="line2d_11">
      <g>
       <use style="stroke:#000000;stroke-width:0.8;" x="144" xlink:href="#m5c300d4d88" y="685.8"/>
      </g>
     </g>
     <g id="text_11">
      <!-- −3000 -->
      <g transform="translate(103.170312 689.599219)scale(0.1 -0.1)">
       <use xlink:href="#DejaVuSans-2212"/>
       <use x="83.789062" xlink:href="#DejaVuSans-33"/>
       <use x="147.412109" xlink:href="#DejaVuSans-30"/>
       <use x="211.035156" xlink:href="#DejaVuSans-30"/>
       <use x="274.658203" xlink:href="#DejaVuSans-30"/>
      </g>
     </g>
    </g>
    <g id="ytick_3">
     <g id="line2d_12">
      <g>
       <use style="stroke:#000000;stroke-width:0.8;" x="144" xlink:href="#m5c300d4d88" y="602.64"/>
      </g>
     </g>
     <g id="text_12">
      <!-- −2000 -->
      <g transform="translate(103.170312 606.439219)scale(0.1 -0.1)">
       <use xlink:href="#DejaVuSans-2212"/>
       <use x="83.789062" xlink:href="#DejaVuSans-32"/>
       <use x="147.412109" xlink:href="#DejaVuSans-30"/>
       <use x="211.035156" xlink:href="#DejaVuSans-30"/>
       <use x="274.658203" xlink:href="#DejaVuSans-30"/>
      </g>
     </g>
    </g>
    <g id="ytick_4">
     <g id="line2d_13">
      <g>
       <use style="stroke:#000000;stroke-width:0.8;" x="144" xlink:href="#m5c300d4d88" y="519.48"/>
      </g>
     </g>
     <g id="text_13">
      <!-- −1000 -->
      <g transform="translate(103.170312 523.279219)scale(0.1 -0.1)">
       <use xlink:href="#DejaVuSans-2212"/>
       <use x="83.789062" xlink:href="#DejaVuSans-31"/>
       <use x="147.412109" xlink:href="#DejaVuSans-30"/>
       <use x="211.035156" xlink:href="#DejaVuSans-30"/>
       <use x="274.658203" xlink:href="#DejaVuSans-30"/>
      </g>
     </g>
    </g>
    <g id="ytick_5">
     <g id="line2d_14">
      <g>
       <use style="stroke:#000000;stroke-width:0.8;" x="144" xlink:href="#m5c300d4d88" y="436.32"/>
      </g>
     </g>
     <g id="text_14">
      <!-- 0 -->
      <g transform="translate(130.6375 440.119219)scale(0.1 -0.1)">
       <use xlink:href="#DejaVuSans-30"/>
      </g>
     </g>
    </g>
    <g id="ytick_6">
     <g id="line2d_15">
      <g>
       <use style="stroke:#000000;stroke-width:0.8;" x="144" xlink:href="#m5c300d4d88" y="353.16"/>
      </g>
     </g>
     <g id="text_15">
      <!-- 1000 -->
      <g transform="translate(111.55 356.959219)scale(0.1 -0.1)">
       <use xlink:href="#DejaVuSans-31"/>
       <use x="63.623047" xlink:href="#DejaVuSans-30"/>
       <use x="127.246094" xlink:href="#DejaVuSans-30"/>
       <use x="190.869141" xlink:href="#DejaVuSans-30"/>
      </g>
     </g>
    </g>
    <g id="ytick_7">
     <g id="line2d_16">
      <g>
       <use style="stroke:#000000;stroke-width:0.8;" x="144" xlink:href="#m5c300d4d88" y="270"/>
      </g>
     </g>
     <g id="text_16">
      <!-- 2000 -->
      <g transform="translate(111.55 273.799219)scale(0.1 -0.1)">
       <use xlink:href="#DejaVuSans-32"/>
       <use x="63.623047" xlink:href="#DejaVuSans-30"/>
       <use x="127.246094" xlink:href="#DejaVuSans-30"/>
       <use x="190.869141" xlink:href="#DejaVuSans-30"/>
      </g>
     </g>
    </g>
    <g id="ytick_8">
     <g id="line2d_17">
      <g>
       <use style="stroke:#000000;stroke-width:0.8;" x="144" xlink:href="#m5c300d4d88" y="186.84"/>
      </g>
     </g>
     <g id="text_17">
      <!-- 3000 -->
      <g transform="translate(111.55 190.639219)scale(0.1 -0.1)">
       <use xlink:href="#DejaVuSans-33"/>
       <use x="63.623047" xlink:href="#DejaVuSans-30"/>
       <use x="127.246094" xlink:href="#DejaVuSans-30"/>
       <use x="190.869141" xlink:href="#DejaVuSans-30"/>
      </g>
     </g>
    </g>
    <g id="ytick_9">
     <g id="line2d_18">
      <g>
       <use style="stroke:#000000;stroke-width:0.8;" x="144" xlink:href="#m5c300d4d88" y="103.68"/>
      </g>
     </g>
     <g id="text_18">
      <!-- 4000 -->
      <g transform="translate(111.55 107.479219)scale(0.1 -0.1)">
       <use xlink:href="#DejaVuSans-34"/>
       <use x="63.623047" xlink:href="#DejaVuSans-30"/>
       <use x="127.246094" xlink:href="#DejaVuSans-30"/>
       <use x="190.869141" xlink:href="#DejaVuSans-30"/>
      </g>
     </g>
    </g>
   </g>
   <g id="line2d_19">
    <path clip-path="url(#pfa0729455d)" d="M 590.4 768.96 
L 590.4 103.68 
" style="fill:none;stroke:#1f77b4;stroke-linecap:square;stroke-width:1.5;"/>
   </g>
   <g id="line2d_20">
    <path clip-path="url(#pfa0729455d)" d="M 144 436.32 
L 1036.8 436.32 
" style="fill:none;stroke:#1f77b4;stroke-linecap:square;stroke-width:1.5;"/>
   </g>
   <g id="line2d_21">
    <defs>
     <path d="M 0 3 
C 0.795609 3 1.55874 2.683901 2.12132 2.12132 
C 2.683901 1.55874 3 0.795609 3 0 
C 3 -0.795609 2.683901 -1.55874 2.12132 -2.12132 
C 1.55874 -2.683901 0.795609 -3 0 -3 
C -0.795609 -3 -1.55874 -2.683901 -2.12132 -2.12132 
C -2.683901 -1.55874 -3 -0.795609 -3 0 
C -3 0.795609 -2.683901 1.55874 -2.12132 2.12132 
C -1.55874 2.683901 -0.795609 3 0 3 
z
" id="m58f174758c" style="stroke:#008000;"/>
    </defs>
    <g clip-path="url(#pfa0729455d)">
     <use style="fill:#008000;stroke:#008000;" x="1204.231802" xlink:href="#m58f174758c" y="494.76263"/>
    </g>
   </g>
   <g id="line2d_22">
    <g clip-path="url(#pfa0729455d)">
     <use style="fill:#008000;stroke:#008000;" x="1411.33818" xlink:href="#m58f174758c" y="489.671462"/>
    </g>
   </g>
   <g id="line2d_23">
    <g clip-path="url(#pfa0729455d)">
     <use style="fill:#008000;stroke:#008000;" x="1381.664316" xlink:href="#m58f174758c" y="390.56304"/>
    </g>
   </g>
   <g id="line2d_24">
    <g clip-path="url(#pfa0729455d)">
     <use style="fill:#008000;stroke:#008000;" x="1319.212296" xlink:href="#m58f174758c" y="278.347144"/>
    </g>
   </g>
   <g id="line2d_25">
    <g clip-path="url(#pfa0729455d)">
     <use style="fill:#008000;stroke:#008000;" x="1358.131277" xlink:href="#m58f174758c" y="244.03571"/>
    </g>
   </g>
   <g id="line2d_26">
    <g clip-path="url(#pfa0729455d)">
     <use style="fill:#008000;stroke:#008000;" x="647.784484" xlink:href="#m58f174758c" y="391.8341"/>
    </g>
   </g>
   <g id="line2d_27">
    <g clip-path="url(#pfa0729455d)">
     <use style="fill:#008000;stroke:#008000;" x="647.784484" xlink:href="#m58f174758c" y="391.8341"/>
    </g>
   </g>
   <g id="line2d_28">
    <g clip-path="url(#pfa0729455d)">
     <use style="fill:#008000;stroke:#008000;" x="778.621949" xlink:href="#m58f174758c" y="194.305361"/>
    </g>
   </g>
   <g id="line2d_29">
    <g clip-path="url(#pfa0729455d)">
     <use style="fill:#008000;stroke:#008000;" x="778.621949" xlink:href="#m58f174758c" y="194.305361"/>
    </g>
   </g>
   <g id="line2d_30">
    <g clip-path="url(#pfa0729455d)">
     <use style="fill:#008000;stroke:#008000;" x="558.129834" xlink:href="#m58f174758c" y="228.789775"/>
    </g>
   </g>
   <g id="line2d_31">
    <g clip-path="url(#pfa0729455d)">
     <use style="fill:#008000;stroke:#008000;" x="572.214497" xlink:href="#m58f174758c" y="395.561527"/>
    </g>
   </g>
   <g id="line2d_32">
    <g clip-path="url(#pfa0729455d)">
     <use style="fill:#008000;stroke:#008000;" x="572.214497" xlink:href="#m58f174758c" y="395.561527"/>
    </g>
   </g>
   <g id="line2d_33">
    <g clip-path="url(#pfa0729455d)">
     <use style="fill:#008000;stroke:#008000;" x="459.442305" xlink:href="#m58f174758c" y="513.552011"/>
    </g>
   </g>
   <g id="line2d_34">
    <g clip-path="url(#pfa0729455d)">
     <use style="fill:#008000;stroke:#008000;" x="463.584952" xlink:href="#m58f174758c" y="531.958413"/>
    </g>
   </g>
   <g id="line2d_35">
    <g clip-path="url(#pfa0729455d)">
     <use style="fill:#008000;stroke:#008000;" x="573.378808" xlink:href="#m58f174758c" y="624.333225"/>
    </g>
   </g>
   <g id="line2d_36">
    <g clip-path="url(#pfa0729455d)">
     <use style="fill:#008000;stroke:#008000;" x="1055.758871" xlink:href="#m58f174758c" y="546.071359"/>
    </g>
   </g>
   <g id="line2d_37">
    <defs>
     <path d="M 0 1.333333 
C 0.353604 1.333333 0.692773 1.192845 0.942809 0.942809 
C 1.192845 0.692773 1.333333 0.353604 1.333333 0 
C 1.333333 -0.353604 1.192845 -0.692773 0.942809 -0.942809 
C 0.692773 -1.192845 0.353604 -1.333333 0 -1.333333 
C -0.353604 -1.333333 -0.692773 -1.192845 -0.942809 -0.942809 
C -1.192845 -0.692773 -1.333333 -0.353604 -1.333333 0 
C -1.333333 0.353604 -1.192845 0.692773 -0.942809 0.942809 
C -0.692773 1.192845 -0.353604 1.333333 0 1.333333 
z
" id="m5e11e90f7a" style="stroke:#ff0000;"/>
    </defs>
    <g clip-path="url(#pfa0729455d)">
     <use style="fill:#ff0000;stroke:#ff0000;" x="1204.231802" xlink:href="#m5e11e90f7a" y="494.76263"/>
     <use style="fill:#ff0000;stroke:#ff0000;" x="1411.33818" xlink:href="#m5e11e90f7a" y="489.671462"/>
     <use style="fill:#ff0000;stroke:#ff0000;" x="1381.664316" xlink:href="#m5e11e90f7a" y="390.56304"/>
     <use style="fill:#ff0000;stroke:#ff0000;" x="1287.35219" xlink:href="#m5e11e90f7a" y="352.321255"/>
     <use style="fill:#ff0000;stroke:#ff0000;" x="1271.989965" xlink:href="#m5e11e90f7a" y="332.699193"/>
     <use style="fill:#ff0000;stroke:#ff0000;" x="1319.212296" xlink:href="#m5e11e90f7a" y="278.347144"/>
     <use style="fill:#ff0000;stroke:#ff0000;" x="1358.131277" xlink:href="#m5e11e90f7a" y="244.03571"/>
     <use style="fill:#ff0000;stroke:#ff0000;" x="651.863358" xlink:href="#m5e11e90f7a" y="399.024536"/>
     <use style="fill:#ff0000;stroke:#ff0000;" x="642.235287" xlink:href="#m5e11e90f7a" y="384.85793"/>
     <use style="fill:#ff0000;stroke:#ff0000;" x="789.301099" xlink:href="#m5e11e90f7a" y="192.221996"/>
     <use style="fill:#ff0000;stroke:#ff0000;" x="768.14201" xlink:href="#m5e11e90f7a" y="196.609995"/>
     <use style="fill:#ff0000;stroke:#ff0000;" x="558.129834" xlink:href="#m5e11e90f7a" y="228.789775"/>
     <use style="fill:#ff0000;stroke:#ff0000;" x="576.694811" xlink:href="#m5e11e90f7a" y="394.086111"/>
     <use style="fill:#ff0000;stroke:#ff0000;" x="567.967845" xlink:href="#m5e11e90f7a" y="397.296134"/>
     <use style="fill:#ff0000;stroke:#ff0000;" x="444.693052" xlink:href="#m5e11e90f7a" y="249.558355"/>
     <use style="fill:#ff0000;stroke:#ff0000;" x="416.157779" xlink:href="#m5e11e90f7a" y="265.670236"/>
     <use style="fill:#ff0000;stroke:#ff0000;" x="387.683599" xlink:href="#m5e11e90f7a" y="294.142646"/>
     <use style="fill:#ff0000;stroke:#ff0000;" x="403.458421" xlink:href="#m5e11e90f7a" y="316.025015"/>
     <use style="fill:#ff0000;stroke:#ff0000;" x="432.846963" xlink:href="#m5e11e90f7a" y="343.559556"/>
     <use style="fill:#ff0000;stroke:#ff0000;" x="400.044732" xlink:href="#m5e11e90f7a" y="365.308478"/>
     <use style="fill:#ff0000;stroke:#ff0000;" x="454.658487" xlink:href="#m5e11e90f7a" y="391.681471"/>
     <use style="fill:#ff0000;stroke:#ff0000;" x="446.607314" xlink:href="#m5e11e90f7a" y="413.544832"/>
     <use style="fill:#ff0000;stroke:#ff0000;" x="415.718849" xlink:href="#m5e11e90f7a" y="440.367982"/>
     <use style="fill:#ff0000;stroke:#ff0000;" x="452.186999" xlink:href="#m5e11e90f7a" y="514.414754"/>
     <use style="fill:#ff0000;stroke:#ff0000;" x="466.588082" xlink:href="#m5e11e90f7a" y="512.500006"/>
     <use style="fill:#ff0000;stroke:#ff0000;" x="456.559253" xlink:href="#m5e11e90f7a" y="525.67769"/>
     <use style="fill:#ff0000;stroke:#ff0000;" x="471.142231" xlink:href="#m5e11e90f7a" y="537.931724"/>
     <use style="fill:#ff0000;stroke:#ff0000;" x="530.766524" xlink:href="#m5e11e90f7a" y="503.218227"/>
     <use style="fill:#ff0000;stroke:#ff0000;" x="560.58834" xlink:href="#m5e11e90f7a" y="474.651651"/>
     <use style="fill:#ff0000;stroke:#ff0000;" x="578.108816" xlink:href="#m5e11e90f7a" y="491.700755"/>
     <use style="fill:#ff0000;stroke:#ff0000;" x="573.378808" xlink:href="#m5e11e90f7a" y="624.333225"/>
     <use style="fill:#ff0000;stroke:#ff0000;" x="628.689019" xlink:href="#m5e11e90f7a" y="640.951541"/>
     <use style="fill:#ff0000;stroke:#ff0000;" x="636.490636" xlink:href="#m5e11e90f7a" y="625.366706"/>
     <use style="fill:#ff0000;stroke:#ff0000;" x="644.645439" xlink:href="#m5e11e90f7a" y="615.4115"/>
     <use style="fill:#ff0000;stroke:#ff0000;" x="659.096082" xlink:href="#m5e11e90f7a" y="627.571024"/>
     <use style="fill:#ff0000;stroke:#ff0000;" x="666.789726" xlink:href="#m5e11e90f7a" y="594.320626"/>
     <use style="fill:#ff0000;stroke:#ff0000;" x="701.559582" xlink:href="#m5e11e90f7a" y="600.099312"/>
     <use style="fill:#ff0000;stroke:#ff0000;" x="756.778995" xlink:href="#m5e11e90f7a" y="592.62018"/>
     <use style="fill:#ff0000;stroke:#ff0000;" x="806.973957" xlink:href="#m5e11e90f7a" y="582.668782"/>
     <use style="fill:#ff0000;stroke:#ff0000;" x="832.712939" xlink:href="#m5e11e90f7a" y="587.326921"/>
     <use style="fill:#ff0000;stroke:#ff0000;" x="847.291974" xlink:href="#m5e11e90f7a" y="570.669327"/>
     <use style="fill:#ff0000;stroke:#ff0000;" x="875.379207" xlink:href="#m5e11e90f7a" y="572.993515"/>
     <use style="fill:#ff0000;stroke:#ff0000;" x="873.683236" xlink:href="#m5e11e90f7a" y="560.042987"/>
     <use style="fill:#ff0000;stroke:#ff0000;" x="894.716953" xlink:href="#m5e11e90f7a" y="557.051897"/>
     <use style="fill:#ff0000;stroke:#ff0000;" x="949.173101" xlink:href="#m5e11e90f7a" y="551.871536"/>
     <use style="fill:#ff0000;stroke:#ff0000;" x="1055.433409" xlink:href="#m5e11e90f7a" y="553.949352"/>
     <use style="fill:#ff0000;stroke:#ff0000;" x="1055.847104" xlink:href="#m5e11e90f7a" y="538.234129"/>
     <use style="fill:#ff0000;stroke:#ff0000;" x="1085.492513" xlink:href="#m5e11e90f7a" y="512.846357"/>
     <use style="fill:#ff0000;stroke:#ff0000;" x="1129.856675" xlink:href="#m5e11e90f7a" y="502.800152"/>
    </g>
   </g>
   <g id="line2d_38">
    <defs>
     <path d="M -0.5 0.5 
L 0.5 0.5 
L 0.5 -0.5 
L -0.5 -0.5 
z
" id="m2bd0f2b1ea" style="stroke:#1f77b4;stroke-linejoin:miter;"/>
    </defs>
    <g clip-path="url(#pfa0729455d)">
     <use style="fill:#1f77b4;stroke:#1f77b4;stroke-linejoin:miter;" x="1204.231802" xlink:href="#m2bd0f2b1ea" y="494.76263"/>
     <use style="fill:#1f77b4;stroke:#1f77b4;stroke-linejoin:miter;" x="1411.33818" xlink:href="#m2bd0f2b1ea" y="489.671462"/>
     <use style="fill:#1f77b4;stroke:#1f77b4;stroke-linejoin:miter;" x="1381.664316" xlink:href="#m2bd0f2b1ea" y="390.56304"/>
     <use style="fill:#1f77b4;stroke:#1f77b4;stroke-linejoin:miter;" x="1287.35219" xlink:href="#m2bd0f2b1ea" y="352.321255"/>
     <use style="fill:#1f77b4;stroke:#1f77b4;stroke-linejoin:miter;" x="1271.989965" xlink:href="#m2bd0f2b1ea" y="332.699193"/>
     <use style="fill:#1f77b4;stroke:#1f77b4;stroke-linejoin:miter;" x="1319.212296" xlink:href="#m2bd0f2b1ea" y="278.347144"/>
     <use style="fill:#1f77b4;stroke:#1f77b4;stroke-linejoin:miter;" x="1358.131277" xlink:href="#m2bd0f2b1ea" y="244.03571"/>
     <use style="fill:#1f77b4;stroke:#1f77b4;stroke-linejoin:miter;" x="651.863358" xlink:href="#m2bd0f2b1ea" y="399.024536"/>
     <use style="fill:#1f77b4;stroke:#1f77b4;stroke-linejoin:miter;" x="647.259408" xlink:href="#m2bd0f2b1ea" y="398.586793"/>
     <use style="fill:#1f77b4;stroke:#1f77b4;stroke-linejoin:miter;" x="646.20656" xlink:href="#m2bd0f2b1ea" y="396.271377"/>
     <use style="fill:#1f77b4;stroke:#1f77b4;stroke-linejoin:miter;" x="644.49813" xlink:href="#m2bd0f2b1ea" y="394.094599"/>
     <use style="fill:#1f77b4;stroke:#1f77b4;stroke-linejoin:miter;" x="642.457753" xlink:href="#m2bd0f2b1ea" y="392.111186"/>
     <use style="fill:#1f77b4;stroke:#1f77b4;stroke-linejoin:miter;" x="640.757624" xlink:href="#m2bd0f2b1ea" y="389.929325"/>
     <use style="fill:#1f77b4;stroke:#1f77b4;stroke-linejoin:miter;" x="642.235287" xlink:href="#m2bd0f2b1ea" y="384.85793"/>
     <use style="fill:#1f77b4;stroke:#1f77b4;stroke-linejoin:miter;" x="789.301099" xlink:href="#m2bd0f2b1ea" y="192.221996"/>
     <use style="fill:#1f77b4;stroke:#1f77b4;stroke-linejoin:miter;" x="768.14201" xlink:href="#m2bd0f2b1ea" y="196.609995"/>
     <use style="fill:#1f77b4;stroke:#1f77b4;stroke-linejoin:miter;" x="750.206982" xlink:href="#m2bd0f2b1ea" y="198.129533"/>
     <use style="fill:#1f77b4;stroke:#1f77b4;stroke-linejoin:miter;" x="732.36532" xlink:href="#m2bd0f2b1ea" y="200.795701"/>
     <use style="fill:#1f77b4;stroke:#1f77b4;stroke-linejoin:miter;" x="715.697946" xlink:href="#m2bd0f2b1ea" y="203.401356"/>
     <use style="fill:#1f77b4;stroke:#1f77b4;stroke-linejoin:miter;" x="699.987914" xlink:href="#m2bd0f2b1ea" y="205.517366"/>
     <use style="fill:#1f77b4;stroke:#1f77b4;stroke-linejoin:miter;" x="684.546773" xlink:href="#m2bd0f2b1ea" y="208.411831"/>
     <use style="fill:#1f77b4;stroke:#1f77b4;stroke-linejoin:miter;" x="670.029051" xlink:href="#m2bd0f2b1ea" y="210.944238"/>
     <use style="fill:#1f77b4;stroke:#1f77b4;stroke-linejoin:miter;" x="656.486706" xlink:href="#m2bd0f2b1ea" y="212.16486"/>
     <use style="fill:#1f77b4;stroke:#1f77b4;stroke-linejoin:miter;" x="643.021582" xlink:href="#m2bd0f2b1ea" y="214.647223"/>
     <use style="fill:#1f77b4;stroke:#1f77b4;stroke-linejoin:miter;" x="630.308228" xlink:href="#m2bd0f2b1ea" y="216.010539"/>
     <use style="fill:#1f77b4;stroke:#1f77b4;stroke-linejoin:miter;" x="616.919959" xlink:href="#m2bd0f2b1ea" y="218.649941"/>
     <use style="fill:#1f77b4;stroke:#1f77b4;stroke-linejoin:miter;" x="604.789469" xlink:href="#m2bd0f2b1ea" y="219.266815"/>
     <use style="fill:#1f77b4;stroke:#1f77b4;stroke-linejoin:miter;" x="592.727732" xlink:href="#m2bd0f2b1ea" y="224.310675"/>
     <use style="fill:#1f77b4;stroke:#1f77b4;stroke-linejoin:miter;" x="581.117102" xlink:href="#m2bd0f2b1ea" y="225.019683"/>
     <use style="fill:#1f77b4;stroke:#1f77b4;stroke-linejoin:miter;" x="569.500903" xlink:href="#m2bd0f2b1ea" y="225.981171"/>
     <use style="fill:#1f77b4;stroke:#1f77b4;stroke-linejoin:miter;" x="558.129834" xlink:href="#m2bd0f2b1ea" y="228.789775"/>
     <use style="fill:#1f77b4;stroke:#1f77b4;stroke-linejoin:miter;" x="576.694811" xlink:href="#m2bd0f2b1ea" y="394.086111"/>
     <use style="fill:#1f77b4;stroke:#1f77b4;stroke-linejoin:miter;" x="574.677085" xlink:href="#m2bd0f2b1ea" y="395.753507"/>
     <use style="fill:#1f77b4;stroke:#1f77b4;stroke-linejoin:miter;" x="572.782263" xlink:href="#m2bd0f2b1ea" y="397.261448"/>
     <use style="fill:#1f77b4;stroke:#1f77b4;stroke-linejoin:miter;" x="570.616686" xlink:href="#m2bd0f2b1ea" y="397.152084"/>
     <use style="fill:#1f77b4;stroke:#1f77b4;stroke-linejoin:miter;" x="567.967845" xlink:href="#m2bd0f2b1ea" y="397.296134"/>
     <use style="fill:#1f77b4;stroke:#1f77b4;stroke-linejoin:miter;" x="444.693052" xlink:href="#m2bd0f2b1ea" y="249.558355"/>
     <use style="fill:#1f77b4;stroke:#1f77b4;stroke-linejoin:miter;" x="432.188189" xlink:href="#m2bd0f2b1ea" y="251.487103"/>
     <use style="fill:#1f77b4;stroke:#1f77b4;stroke-linejoin:miter;" x="418.013135" xlink:href="#m2bd0f2b1ea" y="252.011286"/>
     <use style="fill:#1f77b4;stroke:#1f77b4;stroke-linejoin:miter;" x="416.157779" xlink:href="#m2bd0f2b1ea" y="265.670236"/>
     <use style="fill:#1f77b4;stroke:#1f77b4;stroke-linejoin:miter;" x="399.912093" xlink:href="#m2bd0f2b1ea" y="264.79607"/>
     <use style="fill:#1f77b4;stroke:#1f77b4;stroke-linejoin:miter;" x="392.996702" xlink:href="#m2bd0f2b1ea" y="272.951902"/>
     <use style="fill:#1f77b4;stroke:#1f77b4;stroke-linejoin:miter;" x="393.131085" xlink:href="#m2bd0f2b1ea" y="285.998376"/>
     <use style="fill:#1f77b4;stroke:#1f77b4;stroke-linejoin:miter;" x="387.683599" xlink:href="#m2bd0f2b1ea" y="294.142646"/>
     <use style="fill:#1f77b4;stroke:#1f77b4;stroke-linejoin:miter;" x="403.458421" xlink:href="#m2bd0f2b1ea" y="316.025015"/>
     <use style="fill:#1f77b4;stroke:#1f77b4;stroke-linejoin:miter;" x="432.846963" xlink:href="#m2bd0f2b1ea" y="343.559556"/>
     <use style="fill:#1f77b4;stroke:#1f77b4;stroke-linejoin:miter;" x="420.018387" xlink:href="#m2bd0f2b1ea" y="344.023955"/>
     <use style="fill:#1f77b4;stroke:#1f77b4;stroke-linejoin:miter;" x="421.39635" xlink:href="#m2bd0f2b1ea" y="352.520231"/>
     <use style="fill:#1f77b4;stroke:#1f77b4;stroke-linejoin:miter;" x="415.055389" xlink:href="#m2bd0f2b1ea" y="356.887225"/>
     <use style="fill:#1f77b4;stroke:#1f77b4;stroke-linejoin:miter;" x="408.981512" xlink:href="#m2bd0f2b1ea" y="361.625944"/>
     <use style="fill:#1f77b4;stroke:#1f77b4;stroke-linejoin:miter;" x="400.044732" xlink:href="#m2bd0f2b1ea" y="365.308478"/>
     <use style="fill:#1f77b4;stroke:#1f77b4;stroke-linejoin:miter;" x="454.658487" xlink:href="#m2bd0f2b1ea" y="391.681471"/>
     <use style="fill:#1f77b4;stroke:#1f77b4;stroke-linejoin:miter;" x="455.100432" xlink:href="#m2bd0f2b1ea" y="396.669453"/>
     <use style="fill:#1f77b4;stroke:#1f77b4;stroke-linejoin:miter;" x="456.584642" xlink:href="#m2bd0f2b1ea" y="401.833552"/>
     <use style="fill:#1f77b4;stroke:#1f77b4;stroke-linejoin:miter;" x="457.998675" xlink:href="#m2bd0f2b1ea" y="406.831887"/>
     <use style="fill:#1f77b4;stroke:#1f77b4;stroke-linejoin:miter;" x="458.266307" xlink:href="#m2bd0f2b1ea" y="411.25694"/>
     <use style="fill:#1f77b4;stroke:#1f77b4;stroke-linejoin:miter;" x="446.607314" xlink:href="#m2bd0f2b1ea" y="413.544832"/>
     <use style="fill:#1f77b4;stroke:#1f77b4;stroke-linejoin:miter;" x="429.227634" xlink:href="#m2bd0f2b1ea" y="415.615703"/>
     <use style="fill:#1f77b4;stroke:#1f77b4;stroke-linejoin:miter;" x="425.902319" xlink:href="#m2bd0f2b1ea" y="420.318401"/>
     <use style="fill:#1f77b4;stroke:#1f77b4;stroke-linejoin:miter;" x="417.115403" xlink:href="#m2bd0f2b1ea" y="424.703613"/>
     <use style="fill:#1f77b4;stroke:#1f77b4;stroke-linejoin:miter;" x="419.228874" xlink:href="#m2bd0f2b1ea" y="430.297918"/>
     <use style="fill:#1f77b4;stroke:#1f77b4;stroke-linejoin:miter;" x="420.383476" xlink:href="#m2bd0f2b1ea" y="435.248947"/>
     <use style="fill:#1f77b4;stroke:#1f77b4;stroke-linejoin:miter;" x="415.718849" xlink:href="#m2bd0f2b1ea" y="440.367982"/>
     <use style="fill:#1f77b4;stroke:#1f77b4;stroke-linejoin:miter;" x="394.629452" xlink:href="#m2bd0f2b1ea" y="446.520968"/>
     <use style="fill:#1f77b4;stroke:#1f77b4;stroke-linejoin:miter;" x="395.719444" xlink:href="#m2bd0f2b1ea" y="452.487885"/>
     <use style="fill:#1f77b4;stroke:#1f77b4;stroke-linejoin:miter;" x="399.039055" xlink:href="#m2bd0f2b1ea" y="458.187825"/>
     <use style="fill:#1f77b4;stroke:#1f77b4;stroke-linejoin:miter;" x="400.802841" xlink:href="#m2bd0f2b1ea" y="464.022121"/>
     <use style="fill:#1f77b4;stroke:#1f77b4;stroke-linejoin:miter;" x="403.727237" xlink:href="#m2bd0f2b1ea" y="469.635041"/>
     <use style="fill:#1f77b4;stroke:#1f77b4;stroke-linejoin:miter;" x="404.312167" xlink:href="#m2bd0f2b1ea" y="475.427701"/>
     <use style="fill:#1f77b4;stroke:#1f77b4;stroke-linejoin:miter;" x="404.180911" xlink:href="#m2bd0f2b1ea" y="481.741848"/>
     <use style="fill:#1f77b4;stroke:#1f77b4;stroke-linejoin:miter;" x="406.261817" xlink:href="#m2bd0f2b1ea" y="487.493796"/>
     <use style="fill:#1f77b4;stroke:#1f77b4;stroke-linejoin:miter;" x="407.456435" xlink:href="#m2bd0f2b1ea" y="493.790992"/>
     <use style="fill:#1f77b4;stroke:#1f77b4;stroke-linejoin:miter;" x="407.249461" xlink:href="#m2bd0f2b1ea" y="500.686587"/>
     <use style="fill:#1f77b4;stroke:#1f77b4;stroke-linejoin:miter;" x="410.836232" xlink:href="#m2bd0f2b1ea" y="506.252441"/>
     <use style="fill:#1f77b4;stroke:#1f77b4;stroke-linejoin:miter;" x="431.611026" xlink:href="#m2bd0f2b1ea" y="511.383156"/>
     <use style="fill:#1f77b4;stroke:#1f77b4;stroke-linejoin:miter;" x="434.943475" xlink:href="#m2bd0f2b1ea" y="516.447448"/>
     <use style="fill:#1f77b4;stroke:#1f77b4;stroke-linejoin:miter;" x="452.186999" xlink:href="#m2bd0f2b1ea" y="514.414754"/>
     <use style="fill:#1f77b4;stroke:#1f77b4;stroke-linejoin:miter;" x="466.588082" xlink:href="#m2bd0f2b1ea" y="512.500006"/>
     <use style="fill:#1f77b4;stroke:#1f77b4;stroke-linejoin:miter;" x="456.559253" xlink:href="#m2bd0f2b1ea" y="525.67769"/>
     <use style="fill:#1f77b4;stroke:#1f77b4;stroke-linejoin:miter;" x="457.454239" xlink:href="#m2bd0f2b1ea" y="532.457965"/>
     <use style="fill:#1f77b4;stroke:#1f77b4;stroke-linejoin:miter;" x="461.478998" xlink:href="#m2bd0f2b1ea" y="537.442916"/>
     <use style="fill:#1f77b4;stroke:#1f77b4;stroke-linejoin:miter;" x="471.142231" xlink:href="#m2bd0f2b1ea" y="537.931724"/>
     <use style="fill:#1f77b4;stroke:#1f77b4;stroke-linejoin:miter;" x="530.766524" xlink:href="#m2bd0f2b1ea" y="503.218227"/>
     <use style="fill:#1f77b4;stroke:#1f77b4;stroke-linejoin:miter;" x="560.58834" xlink:href="#m2bd0f2b1ea" y="474.651651"/>
     <use style="fill:#1f77b4;stroke:#1f77b4;stroke-linejoin:miter;" x="562.745734" xlink:href="#m2bd0f2b1ea" y="475.774024"/>
     <use style="fill:#1f77b4;stroke:#1f77b4;stroke-linejoin:miter;" x="564.776481" xlink:href="#m2bd0f2b1ea" y="476.919069"/>
     <use style="fill:#1f77b4;stroke:#1f77b4;stroke-linejoin:miter;" x="566.920965" xlink:href="#m2bd0f2b1ea" y="477.474787"/>
     <use style="fill:#1f77b4;stroke:#1f77b4;stroke-linejoin:miter;" x="568.95743" xlink:href="#m2bd0f2b1ea" y="478.843324"/>
     <use style="fill:#1f77b4;stroke:#1f77b4;stroke-linejoin:miter;" x="570.779726" xlink:href="#m2bd0f2b1ea" y="480.294171"/>
     <use style="fill:#1f77b4;stroke:#1f77b4;stroke-linejoin:miter;" x="572.627758" xlink:href="#m2bd0f2b1ea" y="482.504481"/>
     <use style="fill:#1f77b4;stroke:#1f77b4;stroke-linejoin:miter;" x="574.412039" xlink:href="#m2bd0f2b1ea" y="484.494464"/>
     <use style="fill:#1f77b4;stroke:#1f77b4;stroke-linejoin:miter;" x="576.523836" xlink:href="#m2bd0f2b1ea" y="487.213663"/>
     <use style="fill:#1f77b4;stroke:#1f77b4;stroke-linejoin:miter;" x="578.108816" xlink:href="#m2bd0f2b1ea" y="491.700755"/>
     <use style="fill:#1f77b4;stroke:#1f77b4;stroke-linejoin:miter;" x="573.378808" xlink:href="#m2bd0f2b1ea" y="624.333225"/>
     <use style="fill:#1f77b4;stroke:#1f77b4;stroke-linejoin:miter;" x="583.15892" xlink:href="#m2bd0f2b1ea" y="632.170646"/>
     <use style="fill:#1f77b4;stroke:#1f77b4;stroke-linejoin:miter;" x="594.07177" xlink:href="#m2bd0f2b1ea" y="636.966426"/>
     <use style="fill:#1f77b4;stroke:#1f77b4;stroke-linejoin:miter;" x="605.308083" xlink:href="#m2bd0f2b1ea" y="640.820782"/>
     <use style="fill:#1f77b4;stroke:#1f77b4;stroke-linejoin:miter;" x="617.188756" xlink:href="#m2bd0f2b1ea" y="640.711138"/>
     <use style="fill:#1f77b4;stroke:#1f77b4;stroke-linejoin:miter;" x="628.689019" xlink:href="#m2bd0f2b1ea" y="640.951541"/>
     <use style="fill:#1f77b4;stroke:#1f77b4;stroke-linejoin:miter;" x="636.490636" xlink:href="#m2bd0f2b1ea" y="625.366706"/>
     <use style="fill:#1f77b4;stroke:#1f77b4;stroke-linejoin:miter;" x="644.645439" xlink:href="#m2bd0f2b1ea" y="615.4115"/>
     <use style="fill:#1f77b4;stroke:#1f77b4;stroke-linejoin:miter;" x="659.096082" xlink:href="#m2bd0f2b1ea" y="627.571024"/>
     <use style="fill:#1f77b4;stroke:#1f77b4;stroke-linejoin:miter;" x="666.789726" xlink:href="#m2bd0f2b1ea" y="594.320626"/>
     <use style="fill:#1f77b4;stroke:#1f77b4;stroke-linejoin:miter;" x="678.725858" xlink:href="#m2bd0f2b1ea" y="598.078628"/>
     <use style="fill:#1f77b4;stroke:#1f77b4;stroke-linejoin:miter;" x="689.635388" xlink:href="#m2bd0f2b1ea" y="598.580499"/>
     <use style="fill:#1f77b4;stroke:#1f77b4;stroke-linejoin:miter;" x="701.559582" xlink:href="#m2bd0f2b1ea" y="600.099312"/>
     <use style="fill:#1f77b4;stroke:#1f77b4;stroke-linejoin:miter;" x="756.778995" xlink:href="#m2bd0f2b1ea" y="592.62018"/>
     <use style="fill:#1f77b4;stroke:#1f77b4;stroke-linejoin:miter;" x="764.434265" xlink:href="#m2bd0f2b1ea" y="586.74225"/>
     <use style="fill:#1f77b4;stroke:#1f77b4;stroke-linejoin:miter;" x="778.931246" xlink:href="#m2bd0f2b1ea" y="586.397584"/>
     <use style="fill:#1f77b4;stroke:#1f77b4;stroke-linejoin:miter;" x="790.535168" xlink:href="#m2bd0f2b1ea" y="583.192692"/>
     <use style="fill:#1f77b4;stroke:#1f77b4;stroke-linejoin:miter;" x="806.973957" xlink:href="#m2bd0f2b1ea" y="582.668782"/>
     <use style="fill:#1f77b4;stroke:#1f77b4;stroke-linejoin:miter;" x="832.712939" xlink:href="#m2bd0f2b1ea" y="587.326921"/>
     <use style="fill:#1f77b4;stroke:#1f77b4;stroke-linejoin:miter;" x="847.291974" xlink:href="#m2bd0f2b1ea" y="570.669327"/>
     <use style="fill:#1f77b4;stroke:#1f77b4;stroke-linejoin:miter;" x="875.379207" xlink:href="#m2bd0f2b1ea" y="572.993515"/>
     <use style="fill:#1f77b4;stroke:#1f77b4;stroke-linejoin:miter;" x="873.683236" xlink:href="#m2bd0f2b1ea" y="560.042987"/>
     <use style="fill:#1f77b4;stroke:#1f77b4;stroke-linejoin:miter;" x="894.716953" xlink:href="#m2bd0f2b1ea" y="557.051897"/>
     <use style="fill:#1f77b4;stroke:#1f77b4;stroke-linejoin:miter;" x="949.173101" xlink:href="#m2bd0f2b1ea" y="551.871536"/>
     <use style="fill:#1f77b4;stroke:#1f77b4;stroke-linejoin:miter;" x="1055.433409" xlink:href="#m2bd0f2b1ea" y="553.949352"/>
     <use style="fill:#1f77b4;stroke:#1f77b4;stroke-linejoin:miter;" x="1055.847104" xlink:href="#m2bd0f2b1ea" y="538.234129"/>
     <use style="fill:#1f77b4;stroke:#1f77b4;stroke-linejoin:miter;" x="1081.318024" xlink:href="#m2bd0f2b1ea" y="527.845401"/>
     <use style="fill:#1f77b4;stroke:#1f77b4;stroke-linejoin:miter;" x="1085.492513" xlink:href="#m2bd0f2b1ea" y="512.846357"/>
     <use style="fill:#1f77b4;stroke:#1f77b4;stroke-linejoin:miter;" x="1129.856675" xlink:href="#m2bd0f2b1ea" y="502.800152"/>
    </g>
   </g>
   <g id="patch_3">
    <path d="M 144 768.96 
L 144 103.68 
" style="fill:none;stroke:#000000;stroke-linecap:square;stroke-linejoin:miter;stroke-width:0.8;"/>
   </g>
   <g id="patch_4">
    <path d="M 1036.8 768.96 
L 1036.8 103.68 
" style="fill:none;stroke:#000000;stroke-linecap:square;stroke-linejoin:miter;stroke-width:0.8;"/>
   </g>
   <g id="patch_5">
    <path d="M 144 768.96 
L 1036.8 768.96 
" style="fill:none;stroke:#000000;stroke-linecap:square;stroke-linejoin:miter;stroke-width:0.8;"/>
   </g>
   <g id="patch_6">
    <path d="M 144 103.68 
L 1036.8 103.68 
" style="fill:none;stroke:#000000;stroke-linecap:square;stroke-linejoin:miter;stroke-width:0.8;"/>
   </g>
  </g>
 </g>
 <defs>
  <clipPath id="pfa0729455d">
   <rect height="665.28" width="892.8" x="144" y="103.68"/>
  </clipPath>
 </defs>
</svg>
