<?xml version="1.0" encoding="utf-8" standalone="no"?>
<!DOCTYPE svg PUBLIC "-//W3C//DTD SVG 1.1//EN"
  "http://www.w3.org/Graphics/SVG/1.1/DTD/svg11.dtd">
<!-- Created with matplotlib (http://matplotlib.org/) -->
<svg height="864pt" version="1.1" viewBox="0 0 1152 864" width="1152pt" xmlns="http://www.w3.org/2000/svg" xmlns:xlink="http://www.w3.org/1999/xlink">
 <defs>
  <style type="text/css">
*{stroke-linecap:butt;stroke-linejoin:round;}
  </style>
 </defs>
 <g id="figure_1">
  <g id="patch_1">
   <path d="M 0 864 
L 1152 864 
L 1152 0 
L 0 0 
z
" style="fill:#ffffff;"/>
  </g>
  <g id="axes_1">
   <g id="patch_2">
    <path d="M 144 768.96 
L 1036.8 768.96 
L 1036.8 103.68 
L 144 103.68 
z
" style="fill:#ffffff;"/>
   </g>
   <g id="matplotlib.axis_1">
    <g id="xtick_1">
     <g id="line2d_1">
      <defs>
       <path d="M 0 0 
L 0 3.5 
" id="m2f093b4a45" style="stroke:#000000;stroke-width:0.8;"/>
      </defs>
      <g>
       <use style="stroke:#000000;stroke-width:0.8;" x="144" xlink:href="#m2f093b4a45" y="768.96"/>
      </g>
     </g>
     <g id="text_1">
      <!-- −4000 -->
      <defs>
       <path d="M 10.59375 35.5 
L 73.1875 35.5 
L 73.1875 27.203125 
L 10.59375 27.203125 
z
" id="DejaVuSans-2212"/>
       <path d="M 37.796875 64.3125 
L 12.890625 25.390625 
L 37.796875 25.390625 
z
M 35.203125 72.90625 
L 47.609375 72.90625 
L 47.609375 25.390625 
L 58.015625 25.390625 
L 58.015625 17.1875 
L 47.609375 17.1875 
L 47.609375 0 
L 37.796875 0 
L 37.796875 17.1875 
L 4.890625 17.1875 
L 4.890625 26.703125 
z
" id="DejaVuSans-34"/>
       <path d="M 31.78125 66.40625 
Q 24.171875 66.40625 20.328125 58.90625 
Q 16.5 51.421875 16.5 36.375 
Q 16.5 21.390625 20.328125 13.890625 
Q 24.171875 6.390625 31.78125 6.390625 
Q 39.453125 6.390625 43.28125 13.890625 
Q 47.125 21.390625 47.125 36.375 
Q 47.125 51.421875 43.28125 58.90625 
Q 39.453125 66.40625 31.78125 66.40625 
z
M 31.78125 74.21875 
Q 44.046875 74.21875 50.515625 64.515625 
Q 56.984375 54.828125 56.984375 36.375 
Q 56.984375 17.96875 50.515625 8.265625 
Q 44.046875 -1.421875 31.78125 -1.421875 
Q 19.53125 -1.421875 13.0625 8.265625 
Q 6.59375 17.96875 6.59375 36.375 
Q 6.59375 54.828125 13.0625 64.515625 
Q 19.53125 74.21875 31.78125 74.21875 
z
" id="DejaVuSans-30"/>
      </defs>
      <g transform="translate(127.085156 783.558437)scale(0.1 -0.1)">
       <use xlink:href="#DejaVuSans-2212"/>
       <use x="83.789062" xlink:href="#DejaVuSans-34"/>
       <use x="147.412109" xlink:href="#DejaVuSans-30"/>
       <use x="211.035156" xlink:href="#DejaVuSans-30"/>
       <use x="274.658203" xlink:href="#DejaVuSans-30"/>
      </g>
     </g>
    </g>
    <g id="xtick_2">
     <g id="line2d_2">
      <g>
       <use style="stroke:#000000;stroke-width:0.8;" x="255.6" xlink:href="#m2f093b4a45" y="768.96"/>
      </g>
     </g>
     <g id="text_2">
      <!-- −3000 -->
      <defs>
       <path d="M 40.578125 39.3125 
Q 47.65625 37.796875 51.625 33 
Q 55.609375 28.21875 55.609375 21.1875 
Q 55.609375 10.40625 48.1875 4.484375 
Q 40.765625 -1.421875 27.09375 -1.421875 
Q 22.515625 -1.421875 17.65625 -0.515625 
Q 12.796875 0.390625 7.625 2.203125 
L 7.625 11.71875 
Q 11.71875 9.328125 16.59375 8.109375 
Q 21.484375 6.890625 26.8125 6.890625 
Q 36.078125 6.890625 40.9375 10.546875 
Q 45.796875 14.203125 45.796875 21.1875 
Q 45.796875 27.640625 41.28125 31.265625 
Q 36.765625 34.90625 28.71875 34.90625 
L 20.21875 34.90625 
L 20.21875 43.015625 
L 29.109375 43.015625 
Q 36.375 43.015625 40.234375 45.921875 
Q 44.09375 48.828125 44.09375 54.296875 
Q 44.09375 59.90625 40.109375 62.90625 
Q 36.140625 65.921875 28.71875 65.921875 
Q 24.65625 65.921875 20.015625 65.03125 
Q 15.375 64.15625 9.8125 62.3125 
L 9.8125 71.09375 
Q 15.4375 72.65625 20.34375 73.4375 
Q 25.25 74.21875 29.59375 74.21875 
Q 40.828125 74.21875 47.359375 69.109375 
Q 53.90625 64.015625 53.90625 55.328125 
Q 53.90625 49.265625 50.4375 45.09375 
Q 46.96875 40.921875 40.578125 39.3125 
z
" id="DejaVuSans-33"/>
      </defs>
      <g transform="translate(238.685156 783.558437)scale(0.1 -0.1)">
       <use xlink:href="#DejaVuSans-2212"/>
       <use x="83.789062" xlink:href="#DejaVuSans-33"/>
       <use x="147.412109" xlink:href="#DejaVuSans-30"/>
       <use x="211.035156" xlink:href="#DejaVuSans-30"/>
       <use x="274.658203" xlink:href="#DejaVuSans-30"/>
      </g>
     </g>
    </g>
    <g id="xtick_3">
     <g id="line2d_3">
      <g>
       <use style="stroke:#000000;stroke-width:0.8;" x="367.2" xlink:href="#m2f093b4a45" y="768.96"/>
      </g>
     </g>
     <g id="text_3">
      <!-- −2000 -->
      <defs>
       <path d="M 19.1875 8.296875 
L 53.609375 8.296875 
L 53.609375 0 
L 7.328125 0 
L 7.328125 8.296875 
Q 12.9375 14.109375 22.625 23.890625 
Q 32.328125 33.6875 34.8125 36.53125 
Q 39.546875 41.84375 41.421875 45.53125 
Q 43.3125 49.21875 43.3125 52.78125 
Q 43.3125 58.59375 39.234375 62.25 
Q 35.15625 65.921875 28.609375 65.921875 
Q 23.96875 65.921875 18.8125 64.3125 
Q 13.671875 62.703125 7.8125 59.421875 
L 7.8125 69.390625 
Q 13.765625 71.78125 18.9375 73 
Q 24.125 74.21875 28.421875 74.21875 
Q 39.75 74.21875 46.484375 68.546875 
Q 53.21875 62.890625 53.21875 53.421875 
Q 53.21875 48.921875 51.53125 44.890625 
Q 49.859375 40.875 45.40625 35.40625 
Q 44.1875 33.984375 37.640625 27.21875 
Q 31.109375 20.453125 19.1875 8.296875 
z
" id="DejaVuSans-32"/>
      </defs>
      <g transform="translate(350.285156 783.558437)scale(0.1 -0.1)">
       <use xlink:href="#DejaVuSans-2212"/>
       <use x="83.789062" xlink:href="#DejaVuSans-32"/>
       <use x="147.412109" xlink:href="#DejaVuSans-30"/>
       <use x="211.035156" xlink:href="#DejaVuSans-30"/>
       <use x="274.658203" xlink:href="#DejaVuSans-30"/>
      </g>
     </g>
    </g>
    <g id="xtick_4">
     <g id="line2d_4">
      <g>
       <use style="stroke:#000000;stroke-width:0.8;" x="478.8" xlink:href="#m2f093b4a45" y="768.96"/>
      </g>
     </g>
     <g id="text_4">
      <!-- −1000 -->
      <defs>
       <path d="M 12.40625 8.296875 
L 28.515625 8.296875 
L 28.515625 63.921875 
L 10.984375 60.40625 
L 10.984375 69.390625 
L 28.421875 72.90625 
L 38.28125 72.90625 
L 38.28125 8.296875 
L 54.390625 8.296875 
L 54.390625 0 
L 12.40625 0 
z
" id="DejaVuSans-31"/>
      </defs>
      <g transform="translate(461.885156 783.558437)scale(0.1 -0.1)">
       <use xlink:href="#DejaVuSans-2212"/>
       <use x="83.789062" xlink:href="#DejaVuSans-31"/>
       <use x="147.412109" xlink:href="#DejaVuSans-30"/>
       <use x="211.035156" xlink:href="#DejaVuSans-30"/>
       <use x="274.658203" xlink:href="#DejaVuSans-30"/>
      </g>
     </g>
    </g>
    <g id="xtick_5">
     <g id="line2d_5">
      <g>
       <use style="stroke:#000000;stroke-width:0.8;" x="590.4" xlink:href="#m2f093b4a45" y="768.96"/>
      </g>
     </g>
     <g id="text_5">
      <!-- 0 -->
      <g transform="translate(587.21875 783.558437)scale(0.1 -0.1)">
       <use xlink:href="#DejaVuSans-30"/>
      </g>
     </g>
    </g>
    <g id="xtick_6">
     <g id="line2d_6">
      <g>
       <use style="stroke:#000000;stroke-width:0.8;" x="702" xlink:href="#m2f093b4a45" y="768.96"/>
      </g>
     </g>
     <g id="text_6">
      <!-- 1000 -->
      <g transform="translate(689.275 783.558437)scale(0.1 -0.1)">
       <use xlink:href="#DejaVuSans-31"/>
       <use x="63.623047" xlink:href="#DejaVuSans-30"/>
       <use x="127.246094" xlink:href="#DejaVuSans-30"/>
       <use x="190.869141" xlink:href="#DejaVuSans-30"/>
      </g>
     </g>
    </g>
    <g id="xtick_7">
     <g id="line2d_7">
      <g>
       <use style="stroke:#000000;stroke-width:0.8;" x="813.6" xlink:href="#m2f093b4a45" y="768.96"/>
      </g>
     </g>
     <g id="text_7">
      <!-- 2000 -->
      <g transform="translate(800.875 783.558437)scale(0.1 -0.1)">
       <use xlink:href="#DejaVuSans-32"/>
       <use x="63.623047" xlink:href="#DejaVuSans-30"/>
       <use x="127.246094" xlink:href="#DejaVuSans-30"/>
       <use x="190.869141" xlink:href="#DejaVuSans-30"/>
      </g>
     </g>
    </g>
    <g id="xtick_8">
     <g id="line2d_8">
      <g>
       <use style="stroke:#000000;stroke-width:0.8;" x="925.2" xlink:href="#m2f093b4a45" y="768.96"/>
      </g>
     </g>
     <g id="text_8">
      <!-- 3000 -->
      <g transform="translate(912.475 783.558437)scale(0.1 -0.1)">
       <use xlink:href="#DejaVuSans-33"/>
       <use x="63.623047" xlink:href="#DejaVuSans-30"/>
       <use x="127.246094" xlink:href="#DejaVuSans-30"/>
       <use x="190.869141" xlink:href="#DejaVuSans-30"/>
      </g>
     </g>
    </g>
    <g id="xtick_9">
     <g id="line2d_9">
      <g>
       <use style="stroke:#000000;stroke-width:0.8;" x="1036.8" xlink:href="#m2f093b4a45" y="768.96"/>
      </g>
     </g>
     <g id="text_9">
      <!-- 4000 -->
      <g transform="translate(1024.075 783.558437)scale(0.1 -0.1)">
       <use xlink:href="#DejaVuSans-34"/>
       <use x="63.623047" xlink:href="#DejaVuSans-30"/>
       <use x="127.246094" xlink:href="#DejaVuSans-30"/>
       <use x="190.869141" xlink:href="#DejaVuSans-30"/>
      </g>
     </g>
    </g>
   </g>
   <g id="matplotlib.axis_2">
    <g id="ytick_1">
     <g id="line2d_10">
      <defs>
       <path d="M 0 0 
L -3.5 0 
" id="m32764ff9be" style="stroke:#000000;stroke-width:0.8;"/>
      </defs>
      <g>
       <use style="stroke:#000000;stroke-width:0.8;" x="144" xlink:href="#m32764ff9be" y="768.96"/>
      </g>
     </g>
     <g id="text_10">
      <!-- −4000 -->
      <g transform="translate(103.170312 772.759219)scale(0.1 -0.1)">
       <use xlink:href="#DejaVuSans-2212"/>
       <use x="83.789062" xlink:href="#DejaVuSans-34"/>
       <use x="147.412109" xlink:href="#DejaVuSans-30"/>
       <use x="211.035156" xlink:href="#DejaVuSans-30"/>
       <use x="274.658203" xlink:href="#DejaVuSans-30"/>
      </g>
     </g>
    </g>
    <g id="ytick_2">
     <g id="line2d_11">
      <g>
       <use style="stroke:#000000;stroke-width:0.8;" x="144" xlink:href="#m32764ff9be" y="685.8"/>
      </g>
     </g>
     <g id="text_11">
      <!-- −3000 -->
      <g transform="translate(103.170312 689.599219)scale(0.1 -0.1)">
       <use xlink:href="#DejaVuSans-2212"/>
       <use x="83.789062" xlink:href="#DejaVuSans-33"/>
       <use x="147.412109" xlink:href="#DejaVuSans-30"/>
       <use x="211.035156" xlink:href="#DejaVuSans-30"/>
       <use x="274.658203" xlink:href="#DejaVuSans-30"/>
      </g>
     </g>
    </g>
    <g id="ytick_3">
     <g id="line2d_12">
      <g>
       <use style="stroke:#000000;stroke-width:0.8;" x="144" xlink:href="#m32764ff9be" y="602.64"/>
      </g>
     </g>
     <g id="text_12">
      <!-- −2000 -->
      <g transform="translate(103.170312 606.439219)scale(0.1 -0.1)">
       <use xlink:href="#DejaVuSans-2212"/>
       <use x="83.789062" xlink:href="#DejaVuSans-32"/>
       <use x="147.412109" xlink:href="#DejaVuSans-30"/>
       <use x="211.035156" xlink:href="#DejaVuSans-30"/>
       <use x="274.658203" xlink:href="#DejaVuSans-30"/>
      </g>
     </g>
    </g>
    <g id="ytick_4">
     <g id="line2d_13">
      <g>
       <use style="stroke:#000000;stroke-width:0.8;" x="144" xlink:href="#m32764ff9be" y="519.48"/>
      </g>
     </g>
     <g id="text_13">
      <!-- −1000 -->
      <g transform="translate(103.170312 523.279219)scale(0.1 -0.1)">
       <use xlink:href="#DejaVuSans-2212"/>
       <use x="83.789062" xlink:href="#DejaVuSans-31"/>
       <use x="147.412109" xlink:href="#DejaVuSans-30"/>
       <use x="211.035156" xlink:href="#DejaVuSans-30"/>
       <use x="274.658203" xlink:href="#DejaVuSans-30"/>
      </g>
     </g>
    </g>
    <g id="ytick_5">
     <g id="line2d_14">
      <g>
       <use style="stroke:#000000;stroke-width:0.8;" x="144" xlink:href="#m32764ff9be" y="436.32"/>
      </g>
     </g>
     <g id="text_14">
      <!-- 0 -->
      <g transform="translate(130.6375 440.119219)scale(0.1 -0.1)">
       <use xlink:href="#DejaVuSans-30"/>
      </g>
     </g>
    </g>
    <g id="ytick_6">
     <g id="line2d_15">
      <g>
       <use style="stroke:#000000;stroke-width:0.8;" x="144" xlink:href="#m32764ff9be" y="353.16"/>
      </g>
     </g>
     <g id="text_15">
      <!-- 1000 -->
      <g transform="translate(111.55 356.959219)scale(0.1 -0.1)">
       <use xlink:href="#DejaVuSans-31"/>
       <use x="63.623047" xlink:href="#DejaVuSans-30"/>
       <use x="127.246094" xlink:href="#DejaVuSans-30"/>
       <use x="190.869141" xlink:href="#DejaVuSans-30"/>
      </g>
     </g>
    </g>
    <g id="ytick_7">
     <g id="line2d_16">
      <g>
       <use style="stroke:#000000;stroke-width:0.8;" x="144" xlink:href="#m32764ff9be" y="270"/>
      </g>
     </g>
     <g id="text_16">
      <!-- 2000 -->
      <g transform="translate(111.55 273.799219)scale(0.1 -0.1)">
       <use xlink:href="#DejaVuSans-32"/>
       <use x="63.623047" xlink:href="#DejaVuSans-30"/>
       <use x="127.246094" xlink:href="#DejaVuSans-30"/>
       <use x="190.869141" xlink:href="#DejaVuSans-30"/>
      </g>
     </g>
    </g>
    <g id="ytick_8">
     <g id="line2d_17">
      <g>
       <use style="stroke:#000000;stroke-width:0.8;" x="144" xlink:href="#m32764ff9be" y="186.84"/>
      </g>
     </g>
     <g id="text_17">
      <!-- 3000 -->
      <g transform="translate(111.55 190.639219)scale(0.1 -0.1)">
       <use xlink:href="#DejaVuSans-33"/>
       <use x="63.623047" xlink:href="#DejaVuSans-30"/>
       <use x="127.246094" xlink:href="#DejaVuSans-30"/>
       <use x="190.869141" xlink:href="#DejaVuSans-30"/>
      </g>
     </g>
    </g>
    <g id="ytick_9">
     <g id="line2d_18">
      <g>
       <use style="stroke:#000000;stroke-width:0.8;" x="144" xlink:href="#m32764ff9be" y="103.68"/>
      </g>
     </g>
     <g id="text_18">
      <!-- 4000 -->
      <g transform="translate(111.55 107.479219)scale(0.1 -0.1)">
       <use xlink:href="#DejaVuSans-34"/>
       <use x="63.623047" xlink:href="#DejaVuSans-30"/>
       <use x="127.246094" xlink:href="#DejaVuSans-30"/>
       <use x="190.869141" xlink:href="#DejaVuSans-30"/>
      </g>
     </g>
    </g>
   </g>
   <g id="line2d_19">
    <path clip-path="url(#p175da80883)" d="M 590.4 768.96 
L 590.4 103.68 
" style="fill:none;stroke:#1f77b4;stroke-linecap:square;stroke-width:1.5;"/>
   </g>
   <g id="line2d_20">
    <path clip-path="url(#p175da80883)" d="M 144 436.32 
L 1036.8 436.32 
" style="fill:none;stroke:#1f77b4;stroke-linecap:square;stroke-width:1.5;"/>
   </g>
   <g id="line2d_21">
    <defs>
     <path d="M 0 3 
C 0.795609 3 1.55874 2.683901 2.12132 2.12132 
C 2.683901 1.55874 3 0.795609 3 0 
C 3 -0.795609 2.683901 -1.55874 2.12132 -2.12132 
C 1.55874 -2.683901 0.795609 -3 0 -3 
C -0.795609 -3 -1.55874 -2.683901 -2.12132 -2.12132 
C -2.683901 -1.55874 -3 -0.795609 -3 0 
C -3 0.795609 -2.683901 1.55874 -2.12132 2.12132 
C -1.55874 2.683901 -0.795609 3 0 3 
z
" id="mdee8cf94a0" style="stroke:#008000;"/>
    </defs>
    <g clip-path="url(#p175da80883)">
     <use style="fill:#008000;stroke:#008000;" x="1284.963665" xlink:href="#mdee8cf94a0" y="340.249562"/>
    </g>
   </g>
   <g id="line2d_22">
    <g clip-path="url(#p175da80883)">
     <use style="fill:#008000;stroke:#008000;" x="1316.711816" xlink:href="#mdee8cf94a0" y="267.133445"/>
    </g>
   </g>
   <g id="line2d_23">
    <g clip-path="url(#p175da80883)">
     <use style="fill:#008000;stroke:#008000;" x="645.767416" xlink:href="#mdee8cf94a0" y="395.062345"/>
    </g>
   </g>
   <g id="line2d_24">
    <g clip-path="url(#p175da80883)">
     <use style="fill:#008000;stroke:#008000;" x="645.767416" xlink:href="#mdee8cf94a0" y="395.062345"/>
    </g>
   </g>
   <g id="line2d_25">
    <g clip-path="url(#p175da80883)">
     <use style="fill:#008000;stroke:#008000;" x="573.794321" xlink:href="#mdee8cf94a0" y="225.518828"/>
    </g>
   </g>
   <g id="line2d_26">
    <g clip-path="url(#p175da80883)">
     <use style="fill:#008000;stroke:#008000;" x="575.211246" xlink:href="#mdee8cf94a0" y="397.131689"/>
    </g>
   </g>
   <g id="line2d_27">
    <g clip-path="url(#p175da80883)">
     <use style="fill:#008000;stroke:#008000;" x="575.211246" xlink:href="#mdee8cf94a0" y="397.131689"/>
    </g>
   </g>
   <g id="line2d_28">
    <g clip-path="url(#p175da80883)">
     <use style="fill:#008000;stroke:#008000;" x="459.094668" xlink:href="#mdee8cf94a0" y="248.11354"/>
    </g>
   </g>
   <g id="line2d_29">
    <g clip-path="url(#p175da80883)">
     <use style="fill:#008000;stroke:#008000;" x="689.896055" xlink:href="#mdee8cf94a0" y="598.537557"/>
    </g>
   </g>
   <g id="line2d_30">
    <g clip-path="url(#p175da80883)">
     <use style="fill:#008000;stroke:#008000;" x="689.896055" xlink:href="#mdee8cf94a0" y="598.537557"/>
    </g>
   </g>
   <g id="line2d_31">
    <g clip-path="url(#p175da80883)">
     <use style="fill:#008000;stroke:#008000;" x="1095.507004" xlink:href="#mdee8cf94a0" y="519.978211"/>
    </g>
   </g>
   <g id="line2d_32">
    <defs>
     <path d="M 0 1.333333 
C 0.353604 1.333333 0.692773 1.192845 0.942809 0.942809 
C 1.192845 0.692773 1.333333 0.353604 1.333333 0 
C 1.333333 -0.353604 1.192845 -0.692773 0.942809 -0.942809 
C 0.692773 -1.192845 0.353604 -1.333333 0 -1.333333 
C -0.353604 -1.333333 -0.692773 -1.192845 -0.942809 -0.942809 
C -1.192845 -0.692773 -1.333333 -0.353604 -1.333333 0 
C -1.333333 0.353604 -1.192845 0.692773 -0.942809 0.942809 
C -0.692773 1.192845 -0.353604 1.333333 0 1.333333 
z
" id="m6e15c52f78" style="stroke:#ff0000;"/>
    </defs>
    <g clip-path="url(#p175da80883)">
     <use style="fill:#ff0000;stroke:#ff0000;" x="1284.963665" xlink:href="#m6e15c52f78" y="340.249562"/>
     <use style="fill:#ff0000;stroke:#ff0000;" x="1316.711816" xlink:href="#m6e15c52f78" y="267.133445"/>
     <use style="fill:#ff0000;stroke:#ff0000;" x="649.803969" xlink:href="#m6e15c52f78" y="399.32057"/>
     <use style="fill:#ff0000;stroke:#ff0000;" x="641.18017" xlink:href="#m6e15c52f78" y="391.049514"/>
     <use style="fill:#ff0000;stroke:#ff0000;" x="788.813561" xlink:href="#m6e15c52f78" y="192.220507"/>
     <use style="fill:#ff0000;stroke:#ff0000;" x="760.460535" xlink:href="#m6e15c52f78" y="195.460092"/>
     <use style="fill:#ff0000;stroke:#ff0000;" x="734.421472" xlink:href="#m6e15c52f78" y="198.772454"/>
     <use style="fill:#ff0000;stroke:#ff0000;" x="709.369923" xlink:href="#m6e15c52f78" y="203.478276"/>
     <use style="fill:#ff0000;stroke:#ff0000;" x="573.794321" xlink:href="#m6e15c52f78" y="225.518828"/>
     <use style="fill:#ff0000;stroke:#ff0000;" x="578.573842" xlink:href="#m6e15c52f78" y="396.62109"/>
     <use style="fill:#ff0000;stroke:#ff0000;" x="571.888224" xlink:href="#m6e15c52f78" y="397.800749"/>
     <use style="fill:#ff0000;stroke:#ff0000;" x="459.094668" xlink:href="#m6e15c52f78" y="248.11354"/>
     <use style="fill:#ff0000;stroke:#ff0000;" x="392.434618" xlink:href="#m6e15c52f78" y="287.267191"/>
     <use style="fill:#ff0000;stroke:#ff0000;" x="410.995508" xlink:href="#m6e15c52f78" y="317.001323"/>
     <use style="fill:#ff0000;stroke:#ff0000;" x="419.322656" xlink:href="#m6e15c52f78" y="347.986781"/>
     <use style="fill:#ff0000;stroke:#ff0000;" x="406.336295" xlink:href="#m6e15c52f78" y="363.919175"/>
     <use style="fill:#ff0000;stroke:#ff0000;" x="454.260077" xlink:href="#m6e15c52f78" y="391.120088"/>
     <use style="fill:#ff0000;stroke:#ff0000;" x="457.963274" xlink:href="#m6e15c52f78" y="412.513529"/>
     <use style="fill:#ff0000;stroke:#ff0000;" x="434.742729" xlink:href="#m6e15c52f78" y="415.182264"/>
     <use style="fill:#ff0000;stroke:#ff0000;" x="420.462522" xlink:href="#m6e15c52f78" y="435.801999"/>
     <use style="fill:#ff0000;stroke:#ff0000;" x="395.752576" xlink:href="#m6e15c52f78" y="444.238762"/>
     <use style="fill:#ff0000;stroke:#ff0000;" x="411.29139" xlink:href="#m6e15c52f78" y="504.736846"/>
     <use style="fill:#ff0000;stroke:#ff0000;" x="439.028255" xlink:href="#m6e15c52f78" y="503.260301"/>
     <use style="fill:#ff0000;stroke:#ff0000;" x="435.236168" xlink:href="#m6e15c52f78" y="514.445784"/>
     <use style="fill:#ff0000;stroke:#ff0000;" x="465.759222" xlink:href="#m6e15c52f78" y="517.235205"/>
     <use style="fill:#ff0000;stroke:#ff0000;" x="457.883394" xlink:href="#m6e15c52f78" y="532.935099"/>
     <use style="fill:#ff0000;stroke:#ff0000;" x="468.761817" xlink:href="#m6e15c52f78" y="536.380726"/>
     <use style="fill:#ff0000;stroke:#ff0000;" x="454.718993" xlink:href="#m6e15c52f78" y="561.45218"/>
     <use style="fill:#ff0000;stroke:#ff0000;" x="446.865634" xlink:href="#m6e15c52f78" y="585.749349"/>
     <use style="fill:#ff0000;stroke:#ff0000;" x="472.84557" xlink:href="#m6e15c52f78" y="596.298499"/>
     <use style="fill:#ff0000;stroke:#ff0000;" x="471.557907" xlink:href="#m6e15c52f78" y="622.898397"/>
     <use style="fill:#ff0000;stroke:#ff0000;" x="484.561815" xlink:href="#m6e15c52f78" y="632.136197"/>
     <use style="fill:#ff0000;stroke:#ff0000;" x="511.376153" xlink:href="#m6e15c52f78" y="612.629759"/>
     <use style="fill:#ff0000;stroke:#ff0000;" x="512.773916" xlink:href="#m6e15c52f78" y="649.634908"/>
     <use style="fill:#ff0000;stroke:#ff0000;" x="548.166922" xlink:href="#m6e15c52f78" y="652.124526"/>
     <use style="fill:#ff0000;stroke:#ff0000;" x="570.448831" xlink:href="#m6e15c52f78" y="615.829984"/>
     <use style="fill:#ff0000;stroke:#ff0000;" x="584.603911" xlink:href="#m6e15c52f78" y="622.61071"/>
     <use style="fill:#ff0000;stroke:#ff0000;" x="600.084059" xlink:href="#m6e15c52f78" y="638.228308"/>
     <use style="fill:#ff0000;stroke:#ff0000;" x="605.994799" xlink:href="#m6e15c52f78" y="544.888945"/>
     <use style="fill:#ff0000;stroke:#ff0000;" x="643.527293" xlink:href="#m6e15c52f78" y="546.86712"/>
     <use style="fill:#ff0000;stroke:#ff0000;" x="682.932466" xlink:href="#m6e15c52f78" y="599.750227"/>
     <use style="fill:#ff0000;stroke:#ff0000;" x="696.843585" xlink:href="#m6e15c52f78" y="597.160261"/>
     <use style="fill:#ff0000;stroke:#ff0000;" x="762.489285" xlink:href="#m6e15c52f78" y="589.907636"/>
     <use style="fill:#ff0000;stroke:#ff0000;" x="800.451188" xlink:href="#m6e15c52f78" y="583.88337"/>
     <use style="fill:#ff0000;stroke:#ff0000;" x="836.831296" xlink:href="#m6e15c52f78" y="571.8901"/>
     <use style="fill:#ff0000;stroke:#ff0000;" x="875.979885" xlink:href="#m6e15c52f78" y="574.598455"/>
     <use style="fill:#ff0000;stroke:#ff0000;" x="878.605853" xlink:href="#m6e15c52f78" y="558.134721"/>
     <use style="fill:#ff0000;stroke:#ff0000;" x="902.96905" xlink:href="#m6e15c52f78" y="550.549611"/>
     <use style="fill:#ff0000;stroke:#ff0000;" x="1095.507004" xlink:href="#m6e15c52f78" y="519.978211"/>
    </g>
   </g>
   <g id="line2d_33">
    <defs>
     <path d="M -0.5 0.5 
L 0.5 0.5 
L 0.5 -0.5 
L -0.5 -0.5 
z
" id="m6081c1a07d" style="stroke:#1f77b4;stroke-linejoin:miter;"/>
    </defs>
    <g clip-path="url(#p175da80883)">
     <use style="fill:#1f77b4;stroke:#1f77b4;stroke-linejoin:miter;" x="1284.963665" xlink:href="#m6081c1a07d" y="340.249562"/>
     <use style="fill:#1f77b4;stroke:#1f77b4;stroke-linejoin:miter;" x="1316.711816" xlink:href="#m6081c1a07d" y="267.133445"/>
     <use style="fill:#1f77b4;stroke:#1f77b4;stroke-linejoin:miter;" x="649.803969" xlink:href="#m6081c1a07d" y="399.32057"/>
     <use style="fill:#1f77b4;stroke:#1f77b4;stroke-linejoin:miter;" x="646.891024" xlink:href="#m6081c1a07d" y="396.656085"/>
     <use style="fill:#1f77b4;stroke:#1f77b4;stroke-linejoin:miter;" x="644.677527" xlink:href="#m6081c1a07d" y="393.419021"/>
     <use style="fill:#1f77b4;stroke:#1f77b4;stroke-linejoin:miter;" x="641.18017" xlink:href="#m6081c1a07d" y="391.049514"/>
     <use style="fill:#1f77b4;stroke:#1f77b4;stroke-linejoin:miter;" x="788.813561" xlink:href="#m6081c1a07d" y="192.220507"/>
     <use style="fill:#1f77b4;stroke:#1f77b4;stroke-linejoin:miter;" x="760.460535" xlink:href="#m6081c1a07d" y="195.460092"/>
     <use style="fill:#1f77b4;stroke:#1f77b4;stroke-linejoin:miter;" x="734.421472" xlink:href="#m6081c1a07d" y="198.772454"/>
     <use style="fill:#1f77b4;stroke:#1f77b4;stroke-linejoin:miter;" x="709.369923" xlink:href="#m6081c1a07d" y="203.478276"/>
     <use style="fill:#1f77b4;stroke:#1f77b4;stroke-linejoin:miter;" x="686.580943" xlink:href="#m6081c1a07d" y="207.70714"/>
     <use style="fill:#1f77b4;stroke:#1f77b4;stroke-linejoin:miter;" x="665.59105" xlink:href="#m6081c1a07d" y="210.549225"/>
     <use style="fill:#1f77b4;stroke:#1f77b4;stroke-linejoin:miter;" x="645.712874" xlink:href="#m6081c1a07d" y="213.932901"/>
     <use style="fill:#1f77b4;stroke:#1f77b4;stroke-linejoin:miter;" x="626.612641" xlink:href="#m6081c1a07d" y="216.054275"/>
     <use style="fill:#1f77b4;stroke:#1f77b4;stroke-linejoin:miter;" x="608.433632" xlink:href="#m6081c1a07d" y="219.522149"/>
     <use style="fill:#1f77b4;stroke:#1f77b4;stroke-linejoin:miter;" x="590.710733" xlink:href="#m6081c1a07d" y="224.054226"/>
     <use style="fill:#1f77b4;stroke:#1f77b4;stroke-linejoin:miter;" x="573.794321" xlink:href="#m6081c1a07d" y="225.518828"/>
     <use style="fill:#1f77b4;stroke:#1f77b4;stroke-linejoin:miter;" x="578.573842" xlink:href="#m6081c1a07d" y="396.62109"/>
     <use style="fill:#1f77b4;stroke:#1f77b4;stroke-linejoin:miter;" x="575.638585" xlink:href="#m6081c1a07d" y="398.273186"/>
     <use style="fill:#1f77b4;stroke:#1f77b4;stroke-linejoin:miter;" x="571.888224" xlink:href="#m6081c1a07d" y="397.800749"/>
     <use style="fill:#1f77b4;stroke:#1f77b4;stroke-linejoin:miter;" x="459.094668" xlink:href="#m6081c1a07d" y="248.11354"/>
     <use style="fill:#1f77b4;stroke:#1f77b4;stroke-linejoin:miter;" x="441.327713" xlink:href="#m6081c1a07d" y="250.530082"/>
     <use style="fill:#1f77b4;stroke:#1f77b4;stroke-linejoin:miter;" x="422.312846" xlink:href="#m6081c1a07d" y="253.008209"/>
     <use style="fill:#1f77b4;stroke:#1f77b4;stroke-linejoin:miter;" x="411.961739" xlink:href="#m6081c1a07d" y="264.689665"/>
     <use style="fill:#1f77b4;stroke:#1f77b4;stroke-linejoin:miter;" x="397.092579" xlink:href="#m6081c1a07d" y="272.158252"/>
     <use style="fill:#1f77b4;stroke:#1f77b4;stroke-linejoin:miter;" x="392.434618" xlink:href="#m6081c1a07d" y="287.267191"/>
     <use style="fill:#1f77b4;stroke:#1f77b4;stroke-linejoin:miter;" x="410.995508" xlink:href="#m6081c1a07d" y="317.001323"/>
     <use style="fill:#1f77b4;stroke:#1f77b4;stroke-linejoin:miter;" x="419.322656" xlink:href="#m6081c1a07d" y="347.986781"/>
     <use style="fill:#1f77b4;stroke:#1f77b4;stroke-linejoin:miter;" x="415.57474" xlink:href="#m6081c1a07d" y="357.171145"/>
     <use style="fill:#1f77b4;stroke:#1f77b4;stroke-linejoin:miter;" x="406.336295" xlink:href="#m6081c1a07d" y="363.919175"/>
     <use style="fill:#1f77b4;stroke:#1f77b4;stroke-linejoin:miter;" x="454.260077" xlink:href="#m6081c1a07d" y="391.120088"/>
     <use style="fill:#1f77b4;stroke:#1f77b4;stroke-linejoin:miter;" x="455.684955" xlink:href="#m6081c1a07d" y="398.725379"/>
     <use style="fill:#1f77b4;stroke:#1f77b4;stroke-linejoin:miter;" x="457.378078" xlink:href="#m6081c1a07d" y="405.778499"/>
     <use style="fill:#1f77b4;stroke:#1f77b4;stroke-linejoin:miter;" x="457.963274" xlink:href="#m6081c1a07d" y="412.513529"/>
     <use style="fill:#1f77b4;stroke:#1f77b4;stroke-linejoin:miter;" x="434.742729" xlink:href="#m6081c1a07d" y="415.182264"/>
     <use style="fill:#1f77b4;stroke:#1f77b4;stroke-linejoin:miter;" x="425.372469" xlink:href="#m6081c1a07d" y="421.459153"/>
     <use style="fill:#1f77b4;stroke:#1f77b4;stroke-linejoin:miter;" x="418.238189" xlink:href="#m6081c1a07d" y="428.54378"/>
     <use style="fill:#1f77b4;stroke:#1f77b4;stroke-linejoin:miter;" x="420.462522" xlink:href="#m6081c1a07d" y="435.801999"/>
     <use style="fill:#1f77b4;stroke:#1f77b4;stroke-linejoin:miter;" x="395.752576" xlink:href="#m6081c1a07d" y="444.238762"/>
     <use style="fill:#1f77b4;stroke:#1f77b4;stroke-linejoin:miter;" x="396.204775" xlink:href="#m6081c1a07d" y="452.727308"/>
     <use style="fill:#1f77b4;stroke:#1f77b4;stroke-linejoin:miter;" x="400.054528" xlink:href="#m6081c1a07d" y="461.250122"/>
     <use style="fill:#1f77b4;stroke:#1f77b4;stroke-linejoin:miter;" x="402.230689" xlink:href="#m6081c1a07d" y="469.619235"/>
     <use style="fill:#1f77b4;stroke:#1f77b4;stroke-linejoin:miter;" x="404.073455" xlink:href="#m6081c1a07d" y="478.231009"/>
     <use style="fill:#1f77b4;stroke:#1f77b4;stroke-linejoin:miter;" x="407.142174" xlink:href="#m6081c1a07d" y="486.571516"/>
     <use style="fill:#1f77b4;stroke:#1f77b4;stroke-linejoin:miter;" x="408.578934" xlink:href="#m6081c1a07d" y="495.891179"/>
     <use style="fill:#1f77b4;stroke:#1f77b4;stroke-linejoin:miter;" x="411.29139" xlink:href="#m6081c1a07d" y="504.736846"/>
     <use style="fill:#1f77b4;stroke:#1f77b4;stroke-linejoin:miter;" x="439.028255" xlink:href="#m6081c1a07d" y="503.260301"/>
     <use style="fill:#1f77b4;stroke:#1f77b4;stroke-linejoin:miter;" x="435.236168" xlink:href="#m6081c1a07d" y="514.445784"/>
     <use style="fill:#1f77b4;stroke:#1f77b4;stroke-linejoin:miter;" x="453.559293" xlink:href="#m6081c1a07d" y="514.82852"/>
     <use style="fill:#1f77b4;stroke:#1f77b4;stroke-linejoin:miter;" x="465.759222" xlink:href="#m6081c1a07d" y="517.235205"/>
     <use style="fill:#1f77b4;stroke:#1f77b4;stroke-linejoin:miter;" x="457.883394" xlink:href="#m6081c1a07d" y="532.935099"/>
     <use style="fill:#1f77b4;stroke:#1f77b4;stroke-linejoin:miter;" x="468.761817" xlink:href="#m6081c1a07d" y="536.380726"/>
     <use style="fill:#1f77b4;stroke:#1f77b4;stroke-linejoin:miter;" x="454.718993" xlink:href="#m6081c1a07d" y="561.45218"/>
     <use style="fill:#1f77b4;stroke:#1f77b4;stroke-linejoin:miter;" x="446.865634" xlink:href="#m6081c1a07d" y="585.749349"/>
     <use style="fill:#1f77b4;stroke:#1f77b4;stroke-linejoin:miter;" x="462.866894" xlink:href="#m6081c1a07d" y="587.668419"/>
     <use style="fill:#1f77b4;stroke:#1f77b4;stroke-linejoin:miter;" x="472.84557" xlink:href="#m6081c1a07d" y="596.298499"/>
     <use style="fill:#1f77b4;stroke:#1f77b4;stroke-linejoin:miter;" x="471.557907" xlink:href="#m6081c1a07d" y="622.898397"/>
     <use style="fill:#1f77b4;stroke:#1f77b4;stroke-linejoin:miter;" x="484.561815" xlink:href="#m6081c1a07d" y="632.136197"/>
     <use style="fill:#1f77b4;stroke:#1f77b4;stroke-linejoin:miter;" x="511.376153" xlink:href="#m6081c1a07d" y="612.629759"/>
     <use style="fill:#1f77b4;stroke:#1f77b4;stroke-linejoin:miter;" x="512.773916" xlink:href="#m6081c1a07d" y="649.634908"/>
     <use style="fill:#1f77b4;stroke:#1f77b4;stroke-linejoin:miter;" x="529.386579" xlink:href="#m6081c1a07d" y="655.500174"/>
     <use style="fill:#1f77b4;stroke:#1f77b4;stroke-linejoin:miter;" x="548.166922" xlink:href="#m6081c1a07d" y="652.124526"/>
     <use style="fill:#1f77b4;stroke:#1f77b4;stroke-linejoin:miter;" x="570.448831" xlink:href="#m6081c1a07d" y="615.829984"/>
     <use style="fill:#1f77b4;stroke:#1f77b4;stroke-linejoin:miter;" x="584.603911" xlink:href="#m6081c1a07d" y="622.61071"/>
     <use style="fill:#1f77b4;stroke:#1f77b4;stroke-linejoin:miter;" x="600.084059" xlink:href="#m6081c1a07d" y="638.228308"/>
     <use style="fill:#1f77b4;stroke:#1f77b4;stroke-linejoin:miter;" x="605.994799" xlink:href="#m6081c1a07d" y="544.888945"/>
     <use style="fill:#1f77b4;stroke:#1f77b4;stroke-linejoin:miter;" x="613.579228" xlink:href="#m6081c1a07d" y="538.677398"/>
     <use style="fill:#1f77b4;stroke:#1f77b4;stroke-linejoin:miter;" x="623.47377" xlink:href="#m6081c1a07d" y="543.203468"/>
     <use style="fill:#1f77b4;stroke:#1f77b4;stroke-linejoin:miter;" x="632.890228" xlink:href="#m6081c1a07d" y="544.072056"/>
     <use style="fill:#1f77b4;stroke:#1f77b4;stroke-linejoin:miter;" x="643.527293" xlink:href="#m6081c1a07d" y="546.86712"/>
     <use style="fill:#1f77b4;stroke:#1f77b4;stroke-linejoin:miter;" x="682.932466" xlink:href="#m6081c1a07d" y="599.750227"/>
     <use style="fill:#1f77b4;stroke:#1f77b4;stroke-linejoin:miter;" x="696.843585" xlink:href="#m6081c1a07d" y="597.160261"/>
     <use style="fill:#1f77b4;stroke:#1f77b4;stroke-linejoin:miter;" x="762.489285" xlink:href="#m6081c1a07d" y="589.907636"/>
     <use style="fill:#1f77b4;stroke:#1f77b4;stroke-linejoin:miter;" x="779.171136" xlink:href="#m6081c1a07d" y="585.687915"/>
     <use style="fill:#1f77b4;stroke:#1f77b4;stroke-linejoin:miter;" x="800.451188" xlink:href="#m6081c1a07d" y="583.88337"/>
     <use style="fill:#1f77b4;stroke:#1f77b4;stroke-linejoin:miter;" x="825.008147" xlink:href="#m6081c1a07d" y="582.687488"/>
     <use style="fill:#1f77b4;stroke:#1f77b4;stroke-linejoin:miter;" x="836.831296" xlink:href="#m6081c1a07d" y="571.8901"/>
     <use style="fill:#1f77b4;stroke:#1f77b4;stroke-linejoin:miter;" x="875.979885" xlink:href="#m6081c1a07d" y="574.598455"/>
     <use style="fill:#1f77b4;stroke:#1f77b4;stroke-linejoin:miter;" x="878.605853" xlink:href="#m6081c1a07d" y="558.134721"/>
     <use style="fill:#1f77b4;stroke:#1f77b4;stroke-linejoin:miter;" x="902.96905" xlink:href="#m6081c1a07d" y="550.549611"/>
     <use style="fill:#1f77b4;stroke:#1f77b4;stroke-linejoin:miter;" x="1095.507004" xlink:href="#m6081c1a07d" y="519.978211"/>
    </g>
   </g>
   <g id="patch_3">
    <path d="M 144 768.96 
L 144 103.68 
" style="fill:none;stroke:#000000;stroke-linecap:square;stroke-linejoin:miter;stroke-width:0.8;"/>
   </g>
   <g id="patch_4">
    <path d="M 1036.8 768.96 
L 1036.8 103.68 
" style="fill:none;stroke:#000000;stroke-linecap:square;stroke-linejoin:miter;stroke-width:0.8;"/>
   </g>
   <g id="patch_5">
    <path d="M 144 768.96 
L 1036.8 768.96 
" style="fill:none;stroke:#000000;stroke-linecap:square;stroke-linejoin:miter;stroke-width:0.8;"/>
   </g>
   <g id="patch_6">
    <path d="M 144 103.68 
L 1036.8 103.68 
" style="fill:none;stroke:#000000;stroke-linecap:square;stroke-linejoin:miter;stroke-width:0.8;"/>
   </g>
  </g>
 </g>
 <defs>
  <clipPath id="p175da80883">
   <rect height="665.28" width="892.8" x="144" y="103.68"/>
  </clipPath>
 </defs>
</svg>
