<?xml version="1.0" encoding="utf-8" standalone="no"?>
<!DOCTYPE svg PUBLIC "-//W3C//DTD SVG 1.1//EN"
  "http://www.w3.org/Graphics/SVG/1.1/DTD/svg11.dtd">
<!-- Created with matplotlib (http://matplotlib.org/) -->
<svg height="864pt" version="1.1" viewBox="0 0 1152 864" width="1152pt" xmlns="http://www.w3.org/2000/svg" xmlns:xlink="http://www.w3.org/1999/xlink">
 <defs>
  <style type="text/css">
*{stroke-linecap:butt;stroke-linejoin:round;}
  </style>
 </defs>
 <g id="figure_1">
  <g id="patch_1">
   <path d="M 0 864 
L 1152 864 
L 1152 0 
L 0 0 
z
" style="fill:#ffffff;"/>
  </g>
  <g id="axes_1">
   <g id="patch_2">
    <path d="M 144 768.96 
L 1036.8 768.96 
L 1036.8 103.68 
L 144 103.68 
z
" style="fill:#ffffff;"/>
   </g>
   <g id="matplotlib.axis_1">
    <g id="xtick_1">
     <g id="line2d_1">
      <defs>
       <path d="M 0 0 
L 0 3.5 
" id="me8b8b989d9" style="stroke:#000000;stroke-width:0.8;"/>
      </defs>
      <g>
       <use style="stroke:#000000;stroke-width:0.8;" x="144" xlink:href="#me8b8b989d9" y="768.96"/>
      </g>
     </g>
     <g id="text_1">
      <!-- −4000 -->
      <defs>
       <path d="M 10.59375 35.5 
L 73.1875 35.5 
L 73.1875 27.203125 
L 10.59375 27.203125 
z
" id="DejaVuSans-2212"/>
       <path d="M 37.796875 64.3125 
L 12.890625 25.390625 
L 37.796875 25.390625 
z
M 35.203125 72.90625 
L 47.609375 72.90625 
L 47.609375 25.390625 
L 58.015625 25.390625 
L 58.015625 17.1875 
L 47.609375 17.1875 
L 47.609375 0 
L 37.796875 0 
L 37.796875 17.1875 
L 4.890625 17.1875 
L 4.890625 26.703125 
z
" id="DejaVuSans-34"/>
       <path d="M 31.78125 66.40625 
Q 24.171875 66.40625 20.328125 58.90625 
Q 16.5 51.421875 16.5 36.375 
Q 16.5 21.390625 20.328125 13.890625 
Q 24.171875 6.390625 31.78125 6.390625 
Q 39.453125 6.390625 43.28125 13.890625 
Q 47.125 21.390625 47.125 36.375 
Q 47.125 51.421875 43.28125 58.90625 
Q 39.453125 66.40625 31.78125 66.40625 
z
M 31.78125 74.21875 
Q 44.046875 74.21875 50.515625 64.515625 
Q 56.984375 54.828125 56.984375 36.375 
Q 56.984375 17.96875 50.515625 8.265625 
Q 44.046875 -1.421875 31.78125 -1.421875 
Q 19.53125 -1.421875 13.0625 8.265625 
Q 6.59375 17.96875 6.59375 36.375 
Q 6.59375 54.828125 13.0625 64.515625 
Q 19.53125 74.21875 31.78125 74.21875 
z
" id="DejaVuSans-30"/>
      </defs>
      <g transform="translate(127.085156 783.558437)scale(0.1 -0.1)">
       <use xlink:href="#DejaVuSans-2212"/>
       <use x="83.789062" xlink:href="#DejaVuSans-34"/>
       <use x="147.412109" xlink:href="#DejaVuSans-30"/>
       <use x="211.035156" xlink:href="#DejaVuSans-30"/>
       <use x="274.658203" xlink:href="#DejaVuSans-30"/>
      </g>
     </g>
    </g>
    <g id="xtick_2">
     <g id="line2d_2">
      <g>
       <use style="stroke:#000000;stroke-width:0.8;" x="255.6" xlink:href="#me8b8b989d9" y="768.96"/>
      </g>
     </g>
     <g id="text_2">
      <!-- −3000 -->
      <defs>
       <path d="M 40.578125 39.3125 
Q 47.65625 37.796875 51.625 33 
Q 55.609375 28.21875 55.609375 21.1875 
Q 55.609375 10.40625 48.1875 4.484375 
Q 40.765625 -1.421875 27.09375 -1.421875 
Q 22.515625 -1.421875 17.65625 -0.515625 
Q 12.796875 0.390625 7.625 2.203125 
L 7.625 11.71875 
Q 11.71875 9.328125 16.59375 8.109375 
Q 21.484375 6.890625 26.8125 6.890625 
Q 36.078125 6.890625 40.9375 10.546875 
Q 45.796875 14.203125 45.796875 21.1875 
Q 45.796875 27.640625 41.28125 31.265625 
Q 36.765625 34.90625 28.71875 34.90625 
L 20.21875 34.90625 
L 20.21875 43.015625 
L 29.109375 43.015625 
Q 36.375 43.015625 40.234375 45.921875 
Q 44.09375 48.828125 44.09375 54.296875 
Q 44.09375 59.90625 40.109375 62.90625 
Q 36.140625 65.921875 28.71875 65.921875 
Q 24.65625 65.921875 20.015625 65.03125 
Q 15.375 64.15625 9.8125 62.3125 
L 9.8125 71.09375 
Q 15.4375 72.65625 20.34375 73.4375 
Q 25.25 74.21875 29.59375 74.21875 
Q 40.828125 74.21875 47.359375 69.109375 
Q 53.90625 64.015625 53.90625 55.328125 
Q 53.90625 49.265625 50.4375 45.09375 
Q 46.96875 40.921875 40.578125 39.3125 
z
" id="DejaVuSans-33"/>
      </defs>
      <g transform="translate(238.685156 783.558437)scale(0.1 -0.1)">
       <use xlink:href="#DejaVuSans-2212"/>
       <use x="83.789062" xlink:href="#DejaVuSans-33"/>
       <use x="147.412109" xlink:href="#DejaVuSans-30"/>
       <use x="211.035156" xlink:href="#DejaVuSans-30"/>
       <use x="274.658203" xlink:href="#DejaVuSans-30"/>
      </g>
     </g>
    </g>
    <g id="xtick_3">
     <g id="line2d_3">
      <g>
       <use style="stroke:#000000;stroke-width:0.8;" x="367.2" xlink:href="#me8b8b989d9" y="768.96"/>
      </g>
     </g>
     <g id="text_3">
      <!-- −2000 -->
      <defs>
       <path d="M 19.1875 8.296875 
L 53.609375 8.296875 
L 53.609375 0 
L 7.328125 0 
L 7.328125 8.296875 
Q 12.9375 14.109375 22.625 23.890625 
Q 32.328125 33.6875 34.8125 36.53125 
Q 39.546875 41.84375 41.421875 45.53125 
Q 43.3125 49.21875 43.3125 52.78125 
Q 43.3125 58.59375 39.234375 62.25 
Q 35.15625 65.921875 28.609375 65.921875 
Q 23.96875 65.921875 18.8125 64.3125 
Q 13.671875 62.703125 7.8125 59.421875 
L 7.8125 69.390625 
Q 13.765625 71.78125 18.9375 73 
Q 24.125 74.21875 28.421875 74.21875 
Q 39.75 74.21875 46.484375 68.546875 
Q 53.21875 62.890625 53.21875 53.421875 
Q 53.21875 48.921875 51.53125 44.890625 
Q 49.859375 40.875 45.40625 35.40625 
Q 44.1875 33.984375 37.640625 27.21875 
Q 31.109375 20.453125 19.1875 8.296875 
z
" id="DejaVuSans-32"/>
      </defs>
      <g transform="translate(350.285156 783.558437)scale(0.1 -0.1)">
       <use xlink:href="#DejaVuSans-2212"/>
       <use x="83.789062" xlink:href="#DejaVuSans-32"/>
       <use x="147.412109" xlink:href="#DejaVuSans-30"/>
       <use x="211.035156" xlink:href="#DejaVuSans-30"/>
       <use x="274.658203" xlink:href="#DejaVuSans-30"/>
      </g>
     </g>
    </g>
    <g id="xtick_4">
     <g id="line2d_4">
      <g>
       <use style="stroke:#000000;stroke-width:0.8;" x="478.8" xlink:href="#me8b8b989d9" y="768.96"/>
      </g>
     </g>
     <g id="text_4">
      <!-- −1000 -->
      <defs>
       <path d="M 12.40625 8.296875 
L 28.515625 8.296875 
L 28.515625 63.921875 
L 10.984375 60.40625 
L 10.984375 69.390625 
L 28.421875 72.90625 
L 38.28125 72.90625 
L 38.28125 8.296875 
L 54.390625 8.296875 
L 54.390625 0 
L 12.40625 0 
z
" id="DejaVuSans-31"/>
      </defs>
      <g transform="translate(461.885156 783.558437)scale(0.1 -0.1)">
       <use xlink:href="#DejaVuSans-2212"/>
       <use x="83.789062" xlink:href="#DejaVuSans-31"/>
       <use x="147.412109" xlink:href="#DejaVuSans-30"/>
       <use x="211.035156" xlink:href="#DejaVuSans-30"/>
       <use x="274.658203" xlink:href="#DejaVuSans-30"/>
      </g>
     </g>
    </g>
    <g id="xtick_5">
     <g id="line2d_5">
      <g>
       <use style="stroke:#000000;stroke-width:0.8;" x="590.4" xlink:href="#me8b8b989d9" y="768.96"/>
      </g>
     </g>
     <g id="text_5">
      <!-- 0 -->
      <g transform="translate(587.21875 783.558437)scale(0.1 -0.1)">
       <use xlink:href="#DejaVuSans-30"/>
      </g>
     </g>
    </g>
    <g id="xtick_6">
     <g id="line2d_6">
      <g>
       <use style="stroke:#000000;stroke-width:0.8;" x="702" xlink:href="#me8b8b989d9" y="768.96"/>
      </g>
     </g>
     <g id="text_6">
      <!-- 1000 -->
      <g transform="translate(689.275 783.558437)scale(0.1 -0.1)">
       <use xlink:href="#DejaVuSans-31"/>
       <use x="63.623047" xlink:href="#DejaVuSans-30"/>
       <use x="127.246094" xlink:href="#DejaVuSans-30"/>
       <use x="190.869141" xlink:href="#DejaVuSans-30"/>
      </g>
     </g>
    </g>
    <g id="xtick_7">
     <g id="line2d_7">
      <g>
       <use style="stroke:#000000;stroke-width:0.8;" x="813.6" xlink:href="#me8b8b989d9" y="768.96"/>
      </g>
     </g>
     <g id="text_7">
      <!-- 2000 -->
      <g transform="translate(800.875 783.558437)scale(0.1 -0.1)">
       <use xlink:href="#DejaVuSans-32"/>
       <use x="63.623047" xlink:href="#DejaVuSans-30"/>
       <use x="127.246094" xlink:href="#DejaVuSans-30"/>
       <use x="190.869141" xlink:href="#DejaVuSans-30"/>
      </g>
     </g>
    </g>
    <g id="xtick_8">
     <g id="line2d_8">
      <g>
       <use style="stroke:#000000;stroke-width:0.8;" x="925.2" xlink:href="#me8b8b989d9" y="768.96"/>
      </g>
     </g>
     <g id="text_8">
      <!-- 3000 -->
      <g transform="translate(912.475 783.558437)scale(0.1 -0.1)">
       <use xlink:href="#DejaVuSans-33"/>
       <use x="63.623047" xlink:href="#DejaVuSans-30"/>
       <use x="127.246094" xlink:href="#DejaVuSans-30"/>
       <use x="190.869141" xlink:href="#DejaVuSans-30"/>
      </g>
     </g>
    </g>
    <g id="xtick_9">
     <g id="line2d_9">
      <g>
       <use style="stroke:#000000;stroke-width:0.8;" x="1036.8" xlink:href="#me8b8b989d9" y="768.96"/>
      </g>
     </g>
     <g id="text_9">
      <!-- 4000 -->
      <g transform="translate(1024.075 783.558437)scale(0.1 -0.1)">
       <use xlink:href="#DejaVuSans-34"/>
       <use x="63.623047" xlink:href="#DejaVuSans-30"/>
       <use x="127.246094" xlink:href="#DejaVuSans-30"/>
       <use x="190.869141" xlink:href="#DejaVuSans-30"/>
      </g>
     </g>
    </g>
   </g>
   <g id="matplotlib.axis_2">
    <g id="ytick_1">
     <g id="line2d_10">
      <defs>
       <path d="M 0 0 
L -3.5 0 
" id="m472a9c9ff0" style="stroke:#000000;stroke-width:0.8;"/>
      </defs>
      <g>
       <use style="stroke:#000000;stroke-width:0.8;" x="144" xlink:href="#m472a9c9ff0" y="768.96"/>
      </g>
     </g>
     <g id="text_10">
      <!-- −4000 -->
      <g transform="translate(103.170312 772.759219)scale(0.1 -0.1)">
       <use xlink:href="#DejaVuSans-2212"/>
       <use x="83.789062" xlink:href="#DejaVuSans-34"/>
       <use x="147.412109" xlink:href="#DejaVuSans-30"/>
       <use x="211.035156" xlink:href="#DejaVuSans-30"/>
       <use x="274.658203" xlink:href="#DejaVuSans-30"/>
      </g>
     </g>
    </g>
    <g id="ytick_2">
     <g id="line2d_11">
      <g>
       <use style="stroke:#000000;stroke-width:0.8;" x="144" xlink:href="#m472a9c9ff0" y="685.8"/>
      </g>
     </g>
     <g id="text_11">
      <!-- −3000 -->
      <g transform="translate(103.170312 689.599219)scale(0.1 -0.1)">
       <use xlink:href="#DejaVuSans-2212"/>
       <use x="83.789062" xlink:href="#DejaVuSans-33"/>
       <use x="147.412109" xlink:href="#DejaVuSans-30"/>
       <use x="211.035156" xlink:href="#DejaVuSans-30"/>
       <use x="274.658203" xlink:href="#DejaVuSans-30"/>
      </g>
     </g>
    </g>
    <g id="ytick_3">
     <g id="line2d_12">
      <g>
       <use style="stroke:#000000;stroke-width:0.8;" x="144" xlink:href="#m472a9c9ff0" y="602.64"/>
      </g>
     </g>
     <g id="text_12">
      <!-- −2000 -->
      <g transform="translate(103.170312 606.439219)scale(0.1 -0.1)">
       <use xlink:href="#DejaVuSans-2212"/>
       <use x="83.789062" xlink:href="#DejaVuSans-32"/>
       <use x="147.412109" xlink:href="#DejaVuSans-30"/>
       <use x="211.035156" xlink:href="#DejaVuSans-30"/>
       <use x="274.658203" xlink:href="#DejaVuSans-30"/>
      </g>
     </g>
    </g>
    <g id="ytick_4">
     <g id="line2d_13">
      <g>
       <use style="stroke:#000000;stroke-width:0.8;" x="144" xlink:href="#m472a9c9ff0" y="519.48"/>
      </g>
     </g>
     <g id="text_13">
      <!-- −1000 -->
      <g transform="translate(103.170312 523.279219)scale(0.1 -0.1)">
       <use xlink:href="#DejaVuSans-2212"/>
       <use x="83.789062" xlink:href="#DejaVuSans-31"/>
       <use x="147.412109" xlink:href="#DejaVuSans-30"/>
       <use x="211.035156" xlink:href="#DejaVuSans-30"/>
       <use x="274.658203" xlink:href="#DejaVuSans-30"/>
      </g>
     </g>
    </g>
    <g id="ytick_5">
     <g id="line2d_14">
      <g>
       <use style="stroke:#000000;stroke-width:0.8;" x="144" xlink:href="#m472a9c9ff0" y="436.32"/>
      </g>
     </g>
     <g id="text_14">
      <!-- 0 -->
      <g transform="translate(130.6375 440.119219)scale(0.1 -0.1)">
       <use xlink:href="#DejaVuSans-30"/>
      </g>
     </g>
    </g>
    <g id="ytick_6">
     <g id="line2d_15">
      <g>
       <use style="stroke:#000000;stroke-width:0.8;" x="144" xlink:href="#m472a9c9ff0" y="353.16"/>
      </g>
     </g>
     <g id="text_15">
      <!-- 1000 -->
      <g transform="translate(111.55 356.959219)scale(0.1 -0.1)">
       <use xlink:href="#DejaVuSans-31"/>
       <use x="63.623047" xlink:href="#DejaVuSans-30"/>
       <use x="127.246094" xlink:href="#DejaVuSans-30"/>
       <use x="190.869141" xlink:href="#DejaVuSans-30"/>
      </g>
     </g>
    </g>
    <g id="ytick_7">
     <g id="line2d_16">
      <g>
       <use style="stroke:#000000;stroke-width:0.8;" x="144" xlink:href="#m472a9c9ff0" y="270"/>
      </g>
     </g>
     <g id="text_16">
      <!-- 2000 -->
      <g transform="translate(111.55 273.799219)scale(0.1 -0.1)">
       <use xlink:href="#DejaVuSans-32"/>
       <use x="63.623047" xlink:href="#DejaVuSans-30"/>
       <use x="127.246094" xlink:href="#DejaVuSans-30"/>
       <use x="190.869141" xlink:href="#DejaVuSans-30"/>
      </g>
     </g>
    </g>
    <g id="ytick_8">
     <g id="line2d_17">
      <g>
       <use style="stroke:#000000;stroke-width:0.8;" x="144" xlink:href="#m472a9c9ff0" y="186.84"/>
      </g>
     </g>
     <g id="text_17">
      <!-- 3000 -->
      <g transform="translate(111.55 190.639219)scale(0.1 -0.1)">
       <use xlink:href="#DejaVuSans-33"/>
       <use x="63.623047" xlink:href="#DejaVuSans-30"/>
       <use x="127.246094" xlink:href="#DejaVuSans-30"/>
       <use x="190.869141" xlink:href="#DejaVuSans-30"/>
      </g>
     </g>
    </g>
    <g id="ytick_9">
     <g id="line2d_18">
      <g>
       <use style="stroke:#000000;stroke-width:0.8;" x="144" xlink:href="#m472a9c9ff0" y="103.68"/>
      </g>
     </g>
     <g id="text_18">
      <!-- 4000 -->
      <g transform="translate(111.55 107.479219)scale(0.1 -0.1)">
       <use xlink:href="#DejaVuSans-34"/>
       <use x="63.623047" xlink:href="#DejaVuSans-30"/>
       <use x="127.246094" xlink:href="#DejaVuSans-30"/>
       <use x="190.869141" xlink:href="#DejaVuSans-30"/>
      </g>
     </g>
    </g>
   </g>
   <g id="line2d_19">
    <path clip-path="url(#p7e6240665b)" d="M 590.4 768.96 
L 590.4 103.68 
" style="fill:none;stroke:#1f77b4;stroke-linecap:square;stroke-width:1.5;"/>
   </g>
   <g id="line2d_20">
    <path clip-path="url(#p7e6240665b)" d="M 144 436.32 
L 1036.8 436.32 
" style="fill:none;stroke:#1f77b4;stroke-linecap:square;stroke-width:1.5;"/>
   </g>
   <g id="line2d_21">
    <defs>
     <path d="M 0 3 
C 0.795609 3 1.55874 2.683901 2.12132 2.12132 
C 2.683901 1.55874 3 0.795609 3 0 
C 3 -0.795609 2.683901 -1.55874 2.12132 -2.12132 
C 1.55874 -2.683901 0.795609 -3 0 -3 
C -0.795609 -3 -1.55874 -2.683901 -2.12132 -2.12132 
C -2.683901 -1.55874 -3 -0.795609 -3 0 
C -3 0.795609 -2.683901 1.55874 -2.12132 2.12132 
C -1.55874 2.683901 -0.795609 3 0 3 
z
" id="m65a3104bf2" style="stroke:#008000;"/>
    </defs>
    <g clip-path="url(#p7e6240665b)">
     <use style="fill:#008000;stroke:#008000;" x="1203.241799" xlink:href="#m65a3104bf2" y="494.794946"/>
    </g>
   </g>
   <g id="line2d_22">
    <g clip-path="url(#p7e6240665b)">
     <use style="fill:#008000;stroke:#008000;" x="1405.640309" xlink:href="#m65a3104bf2" y="489.301166"/>
    </g>
   </g>
   <g id="line2d_23">
    <g clip-path="url(#p7e6240665b)">
     <use style="fill:#008000;stroke:#008000;" x="1385.391709" xlink:href="#m65a3104bf2" y="390.347493"/>
    </g>
   </g>
   <g id="line2d_24">
    <g clip-path="url(#p7e6240665b)">
     <use style="fill:#008000;stroke:#008000;" x="1263.194532" xlink:href="#m65a3104bf2" y="333.751493"/>
    </g>
   </g>
   <g id="line2d_25">
    <g clip-path="url(#p7e6240665b)">
     <use style="fill:#008000;stroke:#008000;" x="648.193921" xlink:href="#m65a3104bf2" y="391.406503"/>
    </g>
   </g>
   <g id="line2d_26">
    <g clip-path="url(#p7e6240665b)">
     <use style="fill:#008000;stroke:#008000;" x="648.193921" xlink:href="#m65a3104bf2" y="391.406503"/>
    </g>
   </g>
   <g id="line2d_27">
    <g clip-path="url(#p7e6240665b)">
     <use style="fill:#008000;stroke:#008000;" x="767.292745" xlink:href="#m65a3104bf2" y="197.139358"/>
    </g>
   </g>
   <g id="line2d_28">
    <g clip-path="url(#p7e6240665b)">
     <use style="fill:#008000;stroke:#008000;" x="535.249147" xlink:href="#m65a3104bf2" y="234.325328"/>
    </g>
   </g>
   <g id="line2d_29">
    <g clip-path="url(#p7e6240665b)">
     <use style="fill:#008000;stroke:#008000;" x="573.096394" xlink:href="#m65a3104bf2" y="398.301508"/>
    </g>
   </g>
   <g id="line2d_30">
    <g clip-path="url(#p7e6240665b)">
     <use style="fill:#008000;stroke:#008000;" x="573.096394" xlink:href="#m65a3104bf2" y="398.301508"/>
    </g>
   </g>
   <g id="line2d_31">
    <g clip-path="url(#p7e6240665b)">
     <use style="fill:#008000;stroke:#008000;" x="404.952955" xlink:href="#m65a3104bf2" y="443.769977"/>
    </g>
   </g>
   <g id="line2d_32">
    <g clip-path="url(#p7e6240665b)">
     <use style="fill:#008000;stroke:#008000;" x="539.094429" xlink:href="#m65a3104bf2" y="497.669671"/>
    </g>
   </g>
   <g id="line2d_33">
    <g clip-path="url(#p7e6240665b)">
     <use style="fill:#008000;stroke:#008000;" x="691.610669" xlink:href="#m65a3104bf2" y="599.563479"/>
    </g>
   </g>
   <g id="line2d_34">
    <g clip-path="url(#p7e6240665b)">
     <use style="fill:#008000;stroke:#008000;" x="821.047288" xlink:href="#m65a3104bf2" y="584.412176"/>
    </g>
   </g>
   <g id="line2d_35">
    <g clip-path="url(#p7e6240665b)">
     <use style="fill:#008000;stroke:#008000;" x="1089.584819" xlink:href="#m65a3104bf2" y="518.944127"/>
    </g>
   </g>
   <g id="line2d_36">
    <defs>
     <path d="M 0 1.333333 
C 0.353604 1.333333 0.692773 1.192845 0.942809 0.942809 
C 1.192845 0.692773 1.333333 0.353604 1.333333 0 
C 1.333333 -0.353604 1.192845 -0.692773 0.942809 -0.942809 
C 0.692773 -1.192845 0.353604 -1.333333 0 -1.333333 
C -0.353604 -1.333333 -0.692773 -1.192845 -0.942809 -0.942809 
C -1.192845 -0.692773 -1.333333 -0.353604 -1.333333 0 
C -1.333333 0.353604 -1.192845 0.692773 -0.942809 0.942809 
C -0.692773 1.192845 -0.353604 1.333333 0 1.333333 
z
" id="md920c94016" style="stroke:#ff0000;"/>
    </defs>
    <g clip-path="url(#p7e6240665b)">
     <use style="fill:#ff0000;stroke:#ff0000;" x="1203.241799" xlink:href="#md920c94016" y="494.794946"/>
     <use style="fill:#ff0000;stroke:#ff0000;" x="1405.640309" xlink:href="#md920c94016" y="489.301166"/>
     <use style="fill:#ff0000;stroke:#ff0000;" x="1385.391709" xlink:href="#md920c94016" y="390.347493"/>
     <use style="fill:#ff0000;stroke:#ff0000;" x="1263.194532" xlink:href="#md920c94016" y="333.751493"/>
     <use style="fill:#ff0000;stroke:#ff0000;" x="1321.909026" xlink:href="#md920c94016" y="277.44011"/>
     <use style="fill:#ff0000;stroke:#ff0000;" x="1338.529638" xlink:href="#md920c94016" y="248.606625"/>
     <use style="fill:#ff0000;stroke:#ff0000;" x="651.730224" xlink:href="#md920c94016" y="399.001569"/>
     <use style="fill:#ff0000;stroke:#ff0000;" x="643.046279" xlink:href="#md920c94016" y="383.933849"/>
     <use style="fill:#ff0000;stroke:#ff0000;" x="767.292745" xlink:href="#md920c94016" y="197.139358"/>
     <use style="fill:#ff0000;stroke:#ff0000;" x="535.249147" xlink:href="#md920c94016" y="234.325328"/>
     <use style="fill:#ff0000;stroke:#ff0000;" x="574.994119" xlink:href="#md920c94016" y="397.330463"/>
     <use style="fill:#ff0000;stroke:#ff0000;" x="571.278754" xlink:href="#md920c94016" y="399.322296"/>
     <use style="fill:#ff0000;stroke:#ff0000;" x="456.254438" xlink:href="#md920c94016" y="248.074815"/>
     <use style="fill:#ff0000;stroke:#ff0000;" x="416.358898" xlink:href="#md920c94016" y="266.732575"/>
     <use style="fill:#ff0000;stroke:#ff0000;" x="393.407305" xlink:href="#md920c94016" y="287.106935"/>
     <use style="fill:#ff0000;stroke:#ff0000;" x="418.892381" xlink:href="#md920c94016" y="317.274042"/>
     <use style="fill:#ff0000;stroke:#ff0000;" x="434.349008" xlink:href="#md920c94016" y="345.162838"/>
     <use style="fill:#ff0000;stroke:#ff0000;" x="398.133562" xlink:href="#md920c94016" y="365.229616"/>
     <use style="fill:#ff0000;stroke:#ff0000;" x="455.06996" xlink:href="#md920c94016" y="392.276004"/>
     <use style="fill:#ff0000;stroke:#ff0000;" x="445.407434" xlink:href="#md920c94016" y="413.754823"/>
     <use style="fill:#ff0000;stroke:#ff0000;" x="414.955185" xlink:href="#md920c94016" y="440.778271"/>
     <use style="fill:#ff0000;stroke:#ff0000;" x="395.044861" xlink:href="#md920c94016" y="447.057968"/>
     <use style="fill:#ff0000;stroke:#ff0000;" x="410.973753" xlink:href="#md920c94016" y="506.850083"/>
     <use style="fill:#ff0000;stroke:#ff0000;" x="438.587858" xlink:href="#md920c94016" y="502.374987"/>
     <use style="fill:#ff0000;stroke:#ff0000;" x="453.398962" xlink:href="#md920c94016" y="514.433848"/>
     <use style="fill:#ff0000;stroke:#ff0000;" x="468.683223" xlink:href="#md920c94016" y="512.004656"/>
     <use style="fill:#ff0000;stroke:#ff0000;" x="456.508816" xlink:href="#md920c94016" y="526.351047"/>
     <use style="fill:#ff0000;stroke:#ff0000;" x="471.72088" xlink:href="#md920c94016" y="538.389756"/>
     <use style="fill:#ff0000;stroke:#ff0000;" x="455.123146" xlink:href="#md920c94016" y="561.988218"/>
     <use style="fill:#ff0000;stroke:#ff0000;" x="533.556376" xlink:href="#md920c94016" y="501.003094"/>
     <use style="fill:#ff0000;stroke:#ff0000;" x="544.400631" xlink:href="#md920c94016" y="494.185475"/>
     <use style="fill:#ff0000;stroke:#ff0000;" x="574.319941" xlink:href="#md920c94016" y="494.644458"/>
     <use style="fill:#ff0000;stroke:#ff0000;" x="561.435739" xlink:href="#md920c94016" y="641.131669"/>
     <use style="fill:#ff0000;stroke:#ff0000;" x="574.497495" xlink:href="#md920c94016" y="623.366863"/>
     <use style="fill:#ff0000;stroke:#ff0000;" x="584.444741" xlink:href="#md920c94016" y="634.731721"/>
     <use style="fill:#ff0000;stroke:#ff0000;" x="618.725683" xlink:href="#md920c94016" y="641.99634"/>
     <use style="fill:#ff0000;stroke:#ff0000;" x="645.868913" xlink:href="#md920c94016" y="615.800695"/>
     <use style="fill:#ff0000;stroke:#ff0000;" x="662.382584" xlink:href="#md920c94016" y="632.853021"/>
     <use style="fill:#ff0000;stroke:#ff0000;" x="680.6118" xlink:href="#md920c94016" y="598.985369"/>
     <use style="fill:#ff0000;stroke:#ff0000;" x="702.82033" xlink:href="#md920c94016" y="599.737605"/>
     <use style="fill:#ff0000;stroke:#ff0000;" x="810.189687" xlink:href="#md920c94016" y="583.302534"/>
     <use style="fill:#ff0000;stroke:#ff0000;" x="832.051674" xlink:href="#md920c94016" y="585.253341"/>
     <use style="fill:#ff0000;stroke:#ff0000;" x="850.200404" xlink:href="#md920c94016" y="570.542197"/>
     <use style="fill:#ff0000;stroke:#ff0000;" x="875.930432" xlink:href="#md920c94016" y="571.540973"/>
     <use style="fill:#ff0000;stroke:#ff0000;" x="892.854607" xlink:href="#md920c94016" y="554.739915"/>
     <use style="fill:#ff0000;stroke:#ff0000;" x="921.435054" xlink:href="#md920c94016" y="553.317796"/>
     <use style="fill:#ff0000;stroke:#ff0000;" x="1088.82857" xlink:href="#md920c94016" y="526.77408"/>
     <use style="fill:#ff0000;stroke:#ff0000;" x="1090.120525" xlink:href="#md920c94016" y="511.128722"/>
     <use style="fill:#ff0000;stroke:#ff0000;" x="1139.718939" xlink:href="#md920c94016" y="501.38057"/>
    </g>
   </g>
   <g id="line2d_37">
    <defs>
     <path d="M -0.5 0.5 
L 0.5 0.5 
L 0.5 -0.5 
L -0.5 -0.5 
z
" id="m17ca572efb" style="stroke:#1f77b4;stroke-linejoin:miter;"/>
    </defs>
    <g clip-path="url(#p7e6240665b)">
     <use style="fill:#1f77b4;stroke:#1f77b4;stroke-linejoin:miter;" x="1203.241799" xlink:href="#m17ca572efb" y="494.794946"/>
     <use style="fill:#1f77b4;stroke:#1f77b4;stroke-linejoin:miter;" x="1405.640309" xlink:href="#m17ca572efb" y="489.301166"/>
     <use style="fill:#1f77b4;stroke:#1f77b4;stroke-linejoin:miter;" x="1385.391709" xlink:href="#m17ca572efb" y="390.347493"/>
     <use style="fill:#1f77b4;stroke:#1f77b4;stroke-linejoin:miter;" x="1263.194532" xlink:href="#m17ca572efb" y="333.751493"/>
     <use style="fill:#1f77b4;stroke:#1f77b4;stroke-linejoin:miter;" x="1321.909026" xlink:href="#m17ca572efb" y="277.44011"/>
     <use style="fill:#1f77b4;stroke:#1f77b4;stroke-linejoin:miter;" x="1338.529638" xlink:href="#m17ca572efb" y="248.606625"/>
     <use style="fill:#1f77b4;stroke:#1f77b4;stroke-linejoin:miter;" x="651.730224" xlink:href="#m17ca572efb" y="399.001569"/>
     <use style="fill:#1f77b4;stroke:#1f77b4;stroke-linejoin:miter;" x="647.328709" xlink:href="#m17ca572efb" y="398.582271"/>
     <use style="fill:#1f77b4;stroke:#1f77b4;stroke-linejoin:miter;" x="646.224216" xlink:href="#m17ca572efb" y="396.105366"/>
     <use style="fill:#1f77b4;stroke:#1f77b4;stroke-linejoin:miter;" x="644.670909" xlink:href="#m17ca572efb" y="393.84393"/>
     <use style="fill:#1f77b4;stroke:#1f77b4;stroke-linejoin:miter;" x="642.427582" xlink:href="#m17ca572efb" y="392.063827"/>
     <use style="fill:#1f77b4;stroke:#1f77b4;stroke-linejoin:miter;" x="640.791572" xlink:href="#m17ca572efb" y="389.949799"/>
     <use style="fill:#1f77b4;stroke:#1f77b4;stroke-linejoin:miter;" x="643.046279" xlink:href="#m17ca572efb" y="383.933849"/>
     <use style="fill:#1f77b4;stroke:#1f77b4;stroke-linejoin:miter;" x="767.292745" xlink:href="#m17ca572efb" y="197.139358"/>
     <use style="fill:#1f77b4;stroke:#1f77b4;stroke-linejoin:miter;" x="749.957611" xlink:href="#m17ca572efb" y="197.688258"/>
     <use style="fill:#1f77b4;stroke:#1f77b4;stroke-linejoin:miter;" x="732.145894" xlink:href="#m17ca572efb" y="200.47173"/>
     <use style="fill:#1f77b4;stroke:#1f77b4;stroke-linejoin:miter;" x="715.325847" xlink:href="#m17ca572efb" y="203.357564"/>
     <use style="fill:#1f77b4;stroke:#1f77b4;stroke-linejoin:miter;" x="699.472775" xlink:href="#m17ca572efb" y="205.602322"/>
     <use style="fill:#1f77b4;stroke:#1f77b4;stroke-linejoin:miter;" x="684.139474" xlink:href="#m17ca572efb" y="208.514329"/>
     <use style="fill:#1f77b4;stroke:#1f77b4;stroke-linejoin:miter;" x="669.468173" xlink:href="#m17ca572efb" y="211.285894"/>
     <use style="fill:#1f77b4;stroke:#1f77b4;stroke-linejoin:miter;" x="656.040776" xlink:href="#m17ca572efb" y="212.219792"/>
     <use style="fill:#1f77b4;stroke:#1f77b4;stroke-linejoin:miter;" x="642.768513" xlink:href="#m17ca572efb" y="214.656168"/>
     <use style="fill:#1f77b4;stroke:#1f77b4;stroke-linejoin:miter;" x="629.092124" xlink:href="#m17ca572efb" y="216.393334"/>
     <use style="fill:#1f77b4;stroke:#1f77b4;stroke-linejoin:miter;" x="616.262912" xlink:href="#m17ca572efb" y="218.773017"/>
     <use style="fill:#1f77b4;stroke:#1f77b4;stroke-linejoin:miter;" x="604.282225" xlink:href="#m17ca572efb" y="219.727186"/>
     <use style="fill:#1f77b4;stroke:#1f77b4;stroke-linejoin:miter;" x="592.188103" xlink:href="#m17ca572efb" y="223.891959"/>
     <use style="fill:#1f77b4;stroke:#1f77b4;stroke-linejoin:miter;" x="580.426069" xlink:href="#m17ca572efb" y="225.141183"/>
     <use style="fill:#1f77b4;stroke:#1f77b4;stroke-linejoin:miter;" x="568.649953" xlink:href="#m17ca572efb" y="225.987377"/>
     <use style="fill:#1f77b4;stroke:#1f77b4;stroke-linejoin:miter;" x="557.17653" xlink:href="#m17ca572efb" y="227.638055"/>
     <use style="fill:#1f77b4;stroke:#1f77b4;stroke-linejoin:miter;" x="546.321835" xlink:href="#m17ca572efb" y="231.831058"/>
     <use style="fill:#1f77b4;stroke:#1f77b4;stroke-linejoin:miter;" x="535.249147" xlink:href="#m17ca572efb" y="234.325328"/>
     <use style="fill:#1f77b4;stroke:#1f77b4;stroke-linejoin:miter;" x="574.994119" xlink:href="#m17ca572efb" y="397.330463"/>
     <use style="fill:#1f77b4;stroke:#1f77b4;stroke-linejoin:miter;" x="573.06055" xlink:href="#m17ca572efb" y="398.222754"/>
     <use style="fill:#1f77b4;stroke:#1f77b4;stroke-linejoin:miter;" x="571.278754" xlink:href="#m17ca572efb" y="399.322296"/>
     <use style="fill:#1f77b4;stroke:#1f77b4;stroke-linejoin:miter;" x="456.254438" xlink:href="#m17ca572efb" y="248.074815"/>
     <use style="fill:#1f77b4;stroke:#1f77b4;stroke-linejoin:miter;" x="443.824878" xlink:href="#m17ca572efb" y="249.502342"/>
     <use style="fill:#1f77b4;stroke:#1f77b4;stroke-linejoin:miter;" x="431.602254" xlink:href="#m17ca572efb" y="251.692235"/>
     <use style="fill:#1f77b4;stroke:#1f77b4;stroke-linejoin:miter;" x="417.630715" xlink:href="#m17ca572efb" y="252.565496"/>
     <use style="fill:#1f77b4;stroke:#1f77b4;stroke-linejoin:miter;" x="416.358898" xlink:href="#m17ca572efb" y="266.732575"/>
     <use style="fill:#1f77b4;stroke:#1f77b4;stroke-linejoin:miter;" x="400.721036" xlink:href="#m17ca572efb" y="266.18675"/>
     <use style="fill:#1f77b4;stroke:#1f77b4;stroke-linejoin:miter;" x="391.747861" xlink:href="#m17ca572efb" y="272.727624"/>
     <use style="fill:#1f77b4;stroke:#1f77b4;stroke-linejoin:miter;" x="393.407305" xlink:href="#m17ca572efb" y="287.106935"/>
     <use style="fill:#1f77b4;stroke:#1f77b4;stroke-linejoin:miter;" x="418.892381" xlink:href="#m17ca572efb" y="317.274042"/>
     <use style="fill:#1f77b4;stroke:#1f77b4;stroke-linejoin:miter;" x="434.349008" xlink:href="#m17ca572efb" y="345.162838"/>
     <use style="fill:#1f77b4;stroke:#1f77b4;stroke-linejoin:miter;" x="424.535249" xlink:href="#m17ca572efb" y="347.138763"/>
     <use style="fill:#1f77b4;stroke:#1f77b4;stroke-linejoin:miter;" x="421.124065" xlink:href="#m17ca572efb" y="353.127653"/>
     <use style="fill:#1f77b4;stroke:#1f77b4;stroke-linejoin:miter;" x="413.460117" xlink:href="#m17ca572efb" y="356.803363"/>
     <use style="fill:#1f77b4;stroke:#1f77b4;stroke-linejoin:miter;" x="409.681956" xlink:href="#m17ca572efb" y="362.48852"/>
     <use style="fill:#1f77b4;stroke:#1f77b4;stroke-linejoin:miter;" x="398.133562" xlink:href="#m17ca572efb" y="365.229616"/>
     <use style="fill:#1f77b4;stroke:#1f77b4;stroke-linejoin:miter;" x="455.06996" xlink:href="#m17ca572efb" y="392.276004"/>
     <use style="fill:#1f77b4;stroke:#1f77b4;stroke-linejoin:miter;" x="455.262307" xlink:href="#m17ca572efb" y="397.160154"/>
     <use style="fill:#1f77b4;stroke:#1f77b4;stroke-linejoin:miter;" x="456.803468" xlink:href="#m17ca572efb" y="402.254284"/>
     <use style="fill:#1f77b4;stroke:#1f77b4;stroke-linejoin:miter;" x="458.094604" xlink:href="#m17ca572efb" y="407.17513"/>
     <use style="fill:#1f77b4;stroke:#1f77b4;stroke-linejoin:miter;" x="458.427551" xlink:href="#m17ca572efb" y="411.715421"/>
     <use style="fill:#1f77b4;stroke:#1f77b4;stroke-linejoin:miter;" x="445.407434" xlink:href="#m17ca572efb" y="413.754823"/>
     <use style="fill:#1f77b4;stroke:#1f77b4;stroke-linejoin:miter;" x="428.317431" xlink:href="#m17ca572efb" y="416.00716"/>
     <use style="fill:#1f77b4;stroke:#1f77b4;stroke-linejoin:miter;" x="426.175691" xlink:href="#m17ca572efb" y="420.853838"/>
     <use style="fill:#1f77b4;stroke:#1f77b4;stroke-linejoin:miter;" x="417.827388" xlink:href="#m17ca572efb" y="425.316764"/>
     <use style="fill:#1f77b4;stroke:#1f77b4;stroke-linejoin:miter;" x="420.286344" xlink:href="#m17ca572efb" y="430.820081"/>
     <use style="fill:#1f77b4;stroke:#1f77b4;stroke-linejoin:miter;" x="420.464443" xlink:href="#m17ca572efb" y="435.525735"/>
     <use style="fill:#1f77b4;stroke:#1f77b4;stroke-linejoin:miter;" x="414.955185" xlink:href="#m17ca572efb" y="440.778271"/>
     <use style="fill:#1f77b4;stroke:#1f77b4;stroke-linejoin:miter;" x="395.044861" xlink:href="#m17ca572efb" y="447.057968"/>
     <use style="fill:#1f77b4;stroke:#1f77b4;stroke-linejoin:miter;" x="398.076439" xlink:href="#m17ca572efb" y="452.846327"/>
     <use style="fill:#1f77b4;stroke:#1f77b4;stroke-linejoin:miter;" x="398.400111" xlink:href="#m17ca572efb" y="458.780269"/>
     <use style="fill:#1f77b4;stroke:#1f77b4;stroke-linejoin:miter;" x="400.963188" xlink:href="#m17ca572efb" y="464.518741"/>
     <use style="fill:#1f77b4;stroke:#1f77b4;stroke-linejoin:miter;" x="403.37183" xlink:href="#m17ca572efb" y="470.221338"/>
     <use style="fill:#1f77b4;stroke:#1f77b4;stroke-linejoin:miter;" x="403.372726" xlink:href="#m17ca572efb" y="476.159046"/>
     <use style="fill:#1f77b4;stroke:#1f77b4;stroke-linejoin:miter;" x="404.232155" xlink:href="#m17ca572efb" y="482.190537"/>
     <use style="fill:#1f77b4;stroke:#1f77b4;stroke-linejoin:miter;" x="407.666623" xlink:href="#m17ca572efb" y="487.738837"/>
     <use style="fill:#1f77b4;stroke:#1f77b4;stroke-linejoin:miter;" x="407.61507" xlink:href="#m17ca572efb" y="494.44238"/>
     <use style="fill:#1f77b4;stroke:#1f77b4;stroke-linejoin:miter;" x="410.973753" xlink:href="#m17ca572efb" y="506.850083"/>
     <use style="fill:#1f77b4;stroke:#1f77b4;stroke-linejoin:miter;" x="438.587858" xlink:href="#m17ca572efb" y="502.374987"/>
     <use style="fill:#1f77b4;stroke:#1f77b4;stroke-linejoin:miter;" x="431.405" xlink:href="#m17ca572efb" y="512.070942"/>
     <use style="fill:#1f77b4;stroke:#1f77b4;stroke-linejoin:miter;" x="436.090605" xlink:href="#m17ca572efb" y="516.693521"/>
     <use style="fill:#1f77b4;stroke:#1f77b4;stroke-linejoin:miter;" x="453.398962" xlink:href="#m17ca572efb" y="514.433848"/>
     <use style="fill:#1f77b4;stroke:#1f77b4;stroke-linejoin:miter;" x="468.683223" xlink:href="#m17ca572efb" y="512.004656"/>
     <use style="fill:#1f77b4;stroke:#1f77b4;stroke-linejoin:miter;" x="456.508816" xlink:href="#m17ca572efb" y="526.351047"/>
     <use style="fill:#1f77b4;stroke:#1f77b4;stroke-linejoin:miter;" x="457.874404" xlink:href="#m17ca572efb" y="533.047132"/>
     <use style="fill:#1f77b4;stroke:#1f77b4;stroke-linejoin:miter;" x="464.932274" xlink:href="#m17ca572efb" y="535.869789"/>
     <use style="fill:#1f77b4;stroke:#1f77b4;stroke-linejoin:miter;" x="471.72088" xlink:href="#m17ca572efb" y="538.389756"/>
     <use style="fill:#1f77b4;stroke:#1f77b4;stroke-linejoin:miter;" x="455.123146" xlink:href="#m17ca572efb" y="561.988218"/>
     <use style="fill:#1f77b4;stroke:#1f77b4;stroke-linejoin:miter;" x="533.556376" xlink:href="#m17ca572efb" y="501.003094"/>
     <use style="fill:#1f77b4;stroke:#1f77b4;stroke-linejoin:miter;" x="544.400631" xlink:href="#m17ca572efb" y="494.185475"/>
     <use style="fill:#1f77b4;stroke:#1f77b4;stroke-linejoin:miter;" x="548.786539" xlink:href="#m17ca572efb" y="494.143484"/>
     <use style="fill:#1f77b4;stroke:#1f77b4;stroke-linejoin:miter;" x="551.714839" xlink:href="#m17ca572efb" y="495.793496"/>
     <use style="fill:#1f77b4;stroke:#1f77b4;stroke-linejoin:miter;" x="555.023366" xlink:href="#m17ca572efb" y="496.631727"/>
     <use style="fill:#1f77b4;stroke:#1f77b4;stroke-linejoin:miter;" x="557.824007" xlink:href="#m17ca572efb" y="498.640789"/>
     <use style="fill:#1f77b4;stroke:#1f77b4;stroke-linejoin:miter;" x="565.196024" xlink:href="#m17ca572efb" y="491.945982"/>
     <use style="fill:#1f77b4;stroke:#1f77b4;stroke-linejoin:miter;" x="568.515951" xlink:href="#m17ca572efb" y="491.984644"/>
     <use style="fill:#1f77b4;stroke:#1f77b4;stroke-linejoin:miter;" x="571.434649" xlink:href="#m17ca572efb" y="493.13333"/>
     <use style="fill:#1f77b4;stroke:#1f77b4;stroke-linejoin:miter;" x="574.319941" xlink:href="#m17ca572efb" y="494.644458"/>
     <use style="fill:#1f77b4;stroke:#1f77b4;stroke-linejoin:miter;" x="561.435739" xlink:href="#m17ca572efb" y="641.131669"/>
     <use style="fill:#1f77b4;stroke:#1f77b4;stroke-linejoin:miter;" x="574.497495" xlink:href="#m17ca572efb" y="623.366863"/>
     <use style="fill:#1f77b4;stroke:#1f77b4;stroke-linejoin:miter;" x="584.444741" xlink:href="#m17ca572efb" y="634.731721"/>
     <use style="fill:#1f77b4;stroke:#1f77b4;stroke-linejoin:miter;" x="595.388227" xlink:href="#m17ca572efb" y="642.814408"/>
     <use style="fill:#1f77b4;stroke:#1f77b4;stroke-linejoin:miter;" x="606.681445" xlink:href="#m17ca572efb" y="641.095845"/>
     <use style="fill:#1f77b4;stroke:#1f77b4;stroke-linejoin:miter;" x="618.725683" xlink:href="#m17ca572efb" y="641.99634"/>
     <use style="fill:#1f77b4;stroke:#1f77b4;stroke-linejoin:miter;" x="645.868913" xlink:href="#m17ca572efb" y="615.800695"/>
     <use style="fill:#1f77b4;stroke:#1f77b4;stroke-linejoin:miter;" x="662.382584" xlink:href="#m17ca572efb" y="632.853021"/>
     <use style="fill:#1f77b4;stroke:#1f77b4;stroke-linejoin:miter;" x="680.6118" xlink:href="#m17ca572efb" y="598.985369"/>
     <use style="fill:#1f77b4;stroke:#1f77b4;stroke-linejoin:miter;" x="690.830824" xlink:href="#m17ca572efb" y="598.537986"/>
     <use style="fill:#1f77b4;stroke:#1f77b4;stroke-linejoin:miter;" x="702.82033" xlink:href="#m17ca572efb" y="599.737605"/>
     <use style="fill:#1f77b4;stroke:#1f77b4;stroke-linejoin:miter;" x="758.139239" xlink:href="#m17ca572efb" y="591.970812"/>
     <use style="fill:#1f77b4;stroke:#1f77b4;stroke-linejoin:miter;" x="765.990771" xlink:href="#m17ca572efb" y="586.259125"/>
     <use style="fill:#1f77b4;stroke:#1f77b4;stroke-linejoin:miter;" x="780.77484" xlink:href="#m17ca572efb" y="586.218024"/>
     <use style="fill:#1f77b4;stroke:#1f77b4;stroke-linejoin:miter;" x="793.479758" xlink:href="#m17ca572efb" y="583.655997"/>
     <use style="fill:#1f77b4;stroke:#1f77b4;stroke-linejoin:miter;" x="810.189687" xlink:href="#m17ca572efb" y="583.302534"/>
     <use style="fill:#1f77b4;stroke:#1f77b4;stroke-linejoin:miter;" x="832.051674" xlink:href="#m17ca572efb" y="585.253341"/>
     <use style="fill:#1f77b4;stroke:#1f77b4;stroke-linejoin:miter;" x="836.365688" xlink:href="#m17ca572efb" y="575.06244"/>
     <use style="fill:#1f77b4;stroke:#1f77b4;stroke-linejoin:miter;" x="850.200404" xlink:href="#m17ca572efb" y="570.542197"/>
     <use style="fill:#1f77b4;stroke:#1f77b4;stroke-linejoin:miter;" x="875.930432" xlink:href="#m17ca572efb" y="571.540973"/>
     <use style="fill:#1f77b4;stroke:#1f77b4;stroke-linejoin:miter;" x="875.960971" xlink:href="#m17ca572efb" y="559.48346"/>
     <use style="fill:#1f77b4;stroke:#1f77b4;stroke-linejoin:miter;" x="892.854607" xlink:href="#m17ca572efb" y="554.739915"/>
     <use style="fill:#1f77b4;stroke:#1f77b4;stroke-linejoin:miter;" x="921.435054" xlink:href="#m17ca572efb" y="553.317796"/>
     <use style="fill:#1f77b4;stroke:#1f77b4;stroke-linejoin:miter;" x="1088.82857" xlink:href="#m17ca572efb" y="526.77408"/>
     <use style="fill:#1f77b4;stroke:#1f77b4;stroke-linejoin:miter;" x="1090.120525" xlink:href="#m17ca572efb" y="511.128722"/>
     <use style="fill:#1f77b4;stroke:#1f77b4;stroke-linejoin:miter;" x="1139.718939" xlink:href="#m17ca572efb" y="501.38057"/>
    </g>
   </g>
   <g id="patch_3">
    <path d="M 144 768.96 
L 144 103.68 
" style="fill:none;stroke:#000000;stroke-linecap:square;stroke-linejoin:miter;stroke-width:0.8;"/>
   </g>
   <g id="patch_4">
    <path d="M 1036.8 768.96 
L 1036.8 103.68 
" style="fill:none;stroke:#000000;stroke-linecap:square;stroke-linejoin:miter;stroke-width:0.8;"/>
   </g>
   <g id="patch_5">
    <path d="M 144 768.96 
L 1036.8 768.96 
" style="fill:none;stroke:#000000;stroke-linecap:square;stroke-linejoin:miter;stroke-width:0.8;"/>
   </g>
   <g id="patch_6">
    <path d="M 144 103.68 
L 1036.8 103.68 
" style="fill:none;stroke:#000000;stroke-linecap:square;stroke-linejoin:miter;stroke-width:0.8;"/>
   </g>
  </g>
 </g>
 <defs>
  <clipPath id="p7e6240665b">
   <rect height="665.28" width="892.8" x="144" y="103.68"/>
  </clipPath>
 </defs>
</svg>
