<?xml version="1.0" encoding="utf-8" standalone="no"?>
<!DOCTYPE svg PUBLIC "-//W3C//DTD SVG 1.1//EN"
  "http://www.w3.org/Graphics/SVG/1.1/DTD/svg11.dtd">
<!-- Created with matplotlib (http://matplotlib.org/) -->
<svg height="864pt" version="1.1" viewBox="0 0 1152 864" width="1152pt" xmlns="http://www.w3.org/2000/svg" xmlns:xlink="http://www.w3.org/1999/xlink">
 <defs>
  <style type="text/css">
*{stroke-linecap:butt;stroke-linejoin:round;}
  </style>
 </defs>
 <g id="figure_1">
  <g id="patch_1">
   <path d="M 0 864 
L 1152 864 
L 1152 0 
L 0 0 
z
" style="fill:#ffffff;"/>
  </g>
  <g id="axes_1">
   <g id="patch_2">
    <path d="M 144 768.96 
L 1036.8 768.96 
L 1036.8 103.68 
L 144 103.68 
z
" style="fill:#ffffff;"/>
   </g>
   <g id="matplotlib.axis_1">
    <g id="xtick_1">
     <g id="line2d_1">
      <defs>
       <path d="M 0 0 
L 0 3.5 
" id="mc79d6fc511" style="stroke:#000000;stroke-width:0.8;"/>
      </defs>
      <g>
       <use style="stroke:#000000;stroke-width:0.8;" x="144" xlink:href="#mc79d6fc511" y="768.96"/>
      </g>
     </g>
     <g id="text_1">
      <!-- −4000 -->
      <defs>
       <path d="M 10.59375 35.5 
L 73.1875 35.5 
L 73.1875 27.203125 
L 10.59375 27.203125 
z
" id="DejaVuSans-2212"/>
       <path d="M 37.796875 64.3125 
L 12.890625 25.390625 
L 37.796875 25.390625 
z
M 35.203125 72.90625 
L 47.609375 72.90625 
L 47.609375 25.390625 
L 58.015625 25.390625 
L 58.015625 17.1875 
L 47.609375 17.1875 
L 47.609375 0 
L 37.796875 0 
L 37.796875 17.1875 
L 4.890625 17.1875 
L 4.890625 26.703125 
z
" id="DejaVuSans-34"/>
       <path d="M 31.78125 66.40625 
Q 24.171875 66.40625 20.328125 58.90625 
Q 16.5 51.421875 16.5 36.375 
Q 16.5 21.390625 20.328125 13.890625 
Q 24.171875 6.390625 31.78125 6.390625 
Q 39.453125 6.390625 43.28125 13.890625 
Q 47.125 21.390625 47.125 36.375 
Q 47.125 51.421875 43.28125 58.90625 
Q 39.453125 66.40625 31.78125 66.40625 
z
M 31.78125 74.21875 
Q 44.046875 74.21875 50.515625 64.515625 
Q 56.984375 54.828125 56.984375 36.375 
Q 56.984375 17.96875 50.515625 8.265625 
Q 44.046875 -1.421875 31.78125 -1.421875 
Q 19.53125 -1.421875 13.0625 8.265625 
Q 6.59375 17.96875 6.59375 36.375 
Q 6.59375 54.828125 13.0625 64.515625 
Q 19.53125 74.21875 31.78125 74.21875 
z
" id="DejaVuSans-30"/>
      </defs>
      <g transform="translate(127.085156 783.558437)scale(0.1 -0.1)">
       <use xlink:href="#DejaVuSans-2212"/>
       <use x="83.789062" xlink:href="#DejaVuSans-34"/>
       <use x="147.412109" xlink:href="#DejaVuSans-30"/>
       <use x="211.035156" xlink:href="#DejaVuSans-30"/>
       <use x="274.658203" xlink:href="#DejaVuSans-30"/>
      </g>
     </g>
    </g>
    <g id="xtick_2">
     <g id="line2d_2">
      <g>
       <use style="stroke:#000000;stroke-width:0.8;" x="255.6" xlink:href="#mc79d6fc511" y="768.96"/>
      </g>
     </g>
     <g id="text_2">
      <!-- −3000 -->
      <defs>
       <path d="M 40.578125 39.3125 
Q 47.65625 37.796875 51.625 33 
Q 55.609375 28.21875 55.609375 21.1875 
Q 55.609375 10.40625 48.1875 4.484375 
Q 40.765625 -1.421875 27.09375 -1.421875 
Q 22.515625 -1.421875 17.65625 -0.515625 
Q 12.796875 0.390625 7.625 2.203125 
L 7.625 11.71875 
Q 11.71875 9.328125 16.59375 8.109375 
Q 21.484375 6.890625 26.8125 6.890625 
Q 36.078125 6.890625 40.9375 10.546875 
Q 45.796875 14.203125 45.796875 21.1875 
Q 45.796875 27.640625 41.28125 31.265625 
Q 36.765625 34.90625 28.71875 34.90625 
L 20.21875 34.90625 
L 20.21875 43.015625 
L 29.109375 43.015625 
Q 36.375 43.015625 40.234375 45.921875 
Q 44.09375 48.828125 44.09375 54.296875 
Q 44.09375 59.90625 40.109375 62.90625 
Q 36.140625 65.921875 28.71875 65.921875 
Q 24.65625 65.921875 20.015625 65.03125 
Q 15.375 64.15625 9.8125 62.3125 
L 9.8125 71.09375 
Q 15.4375 72.65625 20.34375 73.4375 
Q 25.25 74.21875 29.59375 74.21875 
Q 40.828125 74.21875 47.359375 69.109375 
Q 53.90625 64.015625 53.90625 55.328125 
Q 53.90625 49.265625 50.4375 45.09375 
Q 46.96875 40.921875 40.578125 39.3125 
z
" id="DejaVuSans-33"/>
      </defs>
      <g transform="translate(238.685156 783.558437)scale(0.1 -0.1)">
       <use xlink:href="#DejaVuSans-2212"/>
       <use x="83.789062" xlink:href="#DejaVuSans-33"/>
       <use x="147.412109" xlink:href="#DejaVuSans-30"/>
       <use x="211.035156" xlink:href="#DejaVuSans-30"/>
       <use x="274.658203" xlink:href="#DejaVuSans-30"/>
      </g>
     </g>
    </g>
    <g id="xtick_3">
     <g id="line2d_3">
      <g>
       <use style="stroke:#000000;stroke-width:0.8;" x="367.2" xlink:href="#mc79d6fc511" y="768.96"/>
      </g>
     </g>
     <g id="text_3">
      <!-- −2000 -->
      <defs>
       <path d="M 19.1875 8.296875 
L 53.609375 8.296875 
L 53.609375 0 
L 7.328125 0 
L 7.328125 8.296875 
Q 12.9375 14.109375 22.625 23.890625 
Q 32.328125 33.6875 34.8125 36.53125 
Q 39.546875 41.84375 41.421875 45.53125 
Q 43.3125 49.21875 43.3125 52.78125 
Q 43.3125 58.59375 39.234375 62.25 
Q 35.15625 65.921875 28.609375 65.921875 
Q 23.96875 65.921875 18.8125 64.3125 
Q 13.671875 62.703125 7.8125 59.421875 
L 7.8125 69.390625 
Q 13.765625 71.78125 18.9375 73 
Q 24.125 74.21875 28.421875 74.21875 
Q 39.75 74.21875 46.484375 68.546875 
Q 53.21875 62.890625 53.21875 53.421875 
Q 53.21875 48.921875 51.53125 44.890625 
Q 49.859375 40.875 45.40625 35.40625 
Q 44.1875 33.984375 37.640625 27.21875 
Q 31.109375 20.453125 19.1875 8.296875 
z
" id="DejaVuSans-32"/>
      </defs>
      <g transform="translate(350.285156 783.558437)scale(0.1 -0.1)">
       <use xlink:href="#DejaVuSans-2212"/>
       <use x="83.789062" xlink:href="#DejaVuSans-32"/>
       <use x="147.412109" xlink:href="#DejaVuSans-30"/>
       <use x="211.035156" xlink:href="#DejaVuSans-30"/>
       <use x="274.658203" xlink:href="#DejaVuSans-30"/>
      </g>
     </g>
    </g>
    <g id="xtick_4">
     <g id="line2d_4">
      <g>
       <use style="stroke:#000000;stroke-width:0.8;" x="478.8" xlink:href="#mc79d6fc511" y="768.96"/>
      </g>
     </g>
     <g id="text_4">
      <!-- −1000 -->
      <defs>
       <path d="M 12.40625 8.296875 
L 28.515625 8.296875 
L 28.515625 63.921875 
L 10.984375 60.40625 
L 10.984375 69.390625 
L 28.421875 72.90625 
L 38.28125 72.90625 
L 38.28125 8.296875 
L 54.390625 8.296875 
L 54.390625 0 
L 12.40625 0 
z
" id="DejaVuSans-31"/>
      </defs>
      <g transform="translate(461.885156 783.558437)scale(0.1 -0.1)">
       <use xlink:href="#DejaVuSans-2212"/>
       <use x="83.789062" xlink:href="#DejaVuSans-31"/>
       <use x="147.412109" xlink:href="#DejaVuSans-30"/>
       <use x="211.035156" xlink:href="#DejaVuSans-30"/>
       <use x="274.658203" xlink:href="#DejaVuSans-30"/>
      </g>
     </g>
    </g>
    <g id="xtick_5">
     <g id="line2d_5">
      <g>
       <use style="stroke:#000000;stroke-width:0.8;" x="590.4" xlink:href="#mc79d6fc511" y="768.96"/>
      </g>
     </g>
     <g id="text_5">
      <!-- 0 -->
      <g transform="translate(587.21875 783.558437)scale(0.1 -0.1)">
       <use xlink:href="#DejaVuSans-30"/>
      </g>
     </g>
    </g>
    <g id="xtick_6">
     <g id="line2d_6">
      <g>
       <use style="stroke:#000000;stroke-width:0.8;" x="702" xlink:href="#mc79d6fc511" y="768.96"/>
      </g>
     </g>
     <g id="text_6">
      <!-- 1000 -->
      <g transform="translate(689.275 783.558437)scale(0.1 -0.1)">
       <use xlink:href="#DejaVuSans-31"/>
       <use x="63.623047" xlink:href="#DejaVuSans-30"/>
       <use x="127.246094" xlink:href="#DejaVuSans-30"/>
       <use x="190.869141" xlink:href="#DejaVuSans-30"/>
      </g>
     </g>
    </g>
    <g id="xtick_7">
     <g id="line2d_7">
      <g>
       <use style="stroke:#000000;stroke-width:0.8;" x="813.6" xlink:href="#mc79d6fc511" y="768.96"/>
      </g>
     </g>
     <g id="text_7">
      <!-- 2000 -->
      <g transform="translate(800.875 783.558437)scale(0.1 -0.1)">
       <use xlink:href="#DejaVuSans-32"/>
       <use x="63.623047" xlink:href="#DejaVuSans-30"/>
       <use x="127.246094" xlink:href="#DejaVuSans-30"/>
       <use x="190.869141" xlink:href="#DejaVuSans-30"/>
      </g>
     </g>
    </g>
    <g id="xtick_8">
     <g id="line2d_8">
      <g>
       <use style="stroke:#000000;stroke-width:0.8;" x="925.2" xlink:href="#mc79d6fc511" y="768.96"/>
      </g>
     </g>
     <g id="text_8">
      <!-- 3000 -->
      <g transform="translate(912.475 783.558437)scale(0.1 -0.1)">
       <use xlink:href="#DejaVuSans-33"/>
       <use x="63.623047" xlink:href="#DejaVuSans-30"/>
       <use x="127.246094" xlink:href="#DejaVuSans-30"/>
       <use x="190.869141" xlink:href="#DejaVuSans-30"/>
      </g>
     </g>
    </g>
    <g id="xtick_9">
     <g id="line2d_9">
      <g>
       <use style="stroke:#000000;stroke-width:0.8;" x="1036.8" xlink:href="#mc79d6fc511" y="768.96"/>
      </g>
     </g>
     <g id="text_9">
      <!-- 4000 -->
      <g transform="translate(1024.075 783.558437)scale(0.1 -0.1)">
       <use xlink:href="#DejaVuSans-34"/>
       <use x="63.623047" xlink:href="#DejaVuSans-30"/>
       <use x="127.246094" xlink:href="#DejaVuSans-30"/>
       <use x="190.869141" xlink:href="#DejaVuSans-30"/>
      </g>
     </g>
    </g>
   </g>
   <g id="matplotlib.axis_2">
    <g id="ytick_1">
     <g id="line2d_10">
      <defs>
       <path d="M 0 0 
L -3.5 0 
" id="m86c37f1b2b" style="stroke:#000000;stroke-width:0.8;"/>
      </defs>
      <g>
       <use style="stroke:#000000;stroke-width:0.8;" x="144" xlink:href="#m86c37f1b2b" y="768.96"/>
      </g>
     </g>
     <g id="text_10">
      <!-- −4000 -->
      <g transform="translate(103.170312 772.759219)scale(0.1 -0.1)">
       <use xlink:href="#DejaVuSans-2212"/>
       <use x="83.789062" xlink:href="#DejaVuSans-34"/>
       <use x="147.412109" xlink:href="#DejaVuSans-30"/>
       <use x="211.035156" xlink:href="#DejaVuSans-30"/>
       <use x="274.658203" xlink:href="#DejaVuSans-30"/>
      </g>
     </g>
    </g>
    <g id="ytick_2">
     <g id="line2d_11">
      <g>
       <use style="stroke:#000000;stroke-width:0.8;" x="144" xlink:href="#m86c37f1b2b" y="685.8"/>
      </g>
     </g>
     <g id="text_11">
      <!-- −3000 -->
      <g transform="translate(103.170312 689.599219)scale(0.1 -0.1)">
       <use xlink:href="#DejaVuSans-2212"/>
       <use x="83.789062" xlink:href="#DejaVuSans-33"/>
       <use x="147.412109" xlink:href="#DejaVuSans-30"/>
       <use x="211.035156" xlink:href="#DejaVuSans-30"/>
       <use x="274.658203" xlink:href="#DejaVuSans-30"/>
      </g>
     </g>
    </g>
    <g id="ytick_3">
     <g id="line2d_12">
      <g>
       <use style="stroke:#000000;stroke-width:0.8;" x="144" xlink:href="#m86c37f1b2b" y="602.64"/>
      </g>
     </g>
     <g id="text_12">
      <!-- −2000 -->
      <g transform="translate(103.170312 606.439219)scale(0.1 -0.1)">
       <use xlink:href="#DejaVuSans-2212"/>
       <use x="83.789062" xlink:href="#DejaVuSans-32"/>
       <use x="147.412109" xlink:href="#DejaVuSans-30"/>
       <use x="211.035156" xlink:href="#DejaVuSans-30"/>
       <use x="274.658203" xlink:href="#DejaVuSans-30"/>
      </g>
     </g>
    </g>
    <g id="ytick_4">
     <g id="line2d_13">
      <g>
       <use style="stroke:#000000;stroke-width:0.8;" x="144" xlink:href="#m86c37f1b2b" y="519.48"/>
      </g>
     </g>
     <g id="text_13">
      <!-- −1000 -->
      <g transform="translate(103.170312 523.279219)scale(0.1 -0.1)">
       <use xlink:href="#DejaVuSans-2212"/>
       <use x="83.789062" xlink:href="#DejaVuSans-31"/>
       <use x="147.412109" xlink:href="#DejaVuSans-30"/>
       <use x="211.035156" xlink:href="#DejaVuSans-30"/>
       <use x="274.658203" xlink:href="#DejaVuSans-30"/>
      </g>
     </g>
    </g>
    <g id="ytick_5">
     <g id="line2d_14">
      <g>
       <use style="stroke:#000000;stroke-width:0.8;" x="144" xlink:href="#m86c37f1b2b" y="436.32"/>
      </g>
     </g>
     <g id="text_14">
      <!-- 0 -->
      <g transform="translate(130.6375 440.119219)scale(0.1 -0.1)">
       <use xlink:href="#DejaVuSans-30"/>
      </g>
     </g>
    </g>
    <g id="ytick_6">
     <g id="line2d_15">
      <g>
       <use style="stroke:#000000;stroke-width:0.8;" x="144" xlink:href="#m86c37f1b2b" y="353.16"/>
      </g>
     </g>
     <g id="text_15">
      <!-- 1000 -->
      <g transform="translate(111.55 356.959219)scale(0.1 -0.1)">
       <use xlink:href="#DejaVuSans-31"/>
       <use x="63.623047" xlink:href="#DejaVuSans-30"/>
       <use x="127.246094" xlink:href="#DejaVuSans-30"/>
       <use x="190.869141" xlink:href="#DejaVuSans-30"/>
      </g>
     </g>
    </g>
    <g id="ytick_7">
     <g id="line2d_16">
      <g>
       <use style="stroke:#000000;stroke-width:0.8;" x="144" xlink:href="#m86c37f1b2b" y="270"/>
      </g>
     </g>
     <g id="text_16">
      <!-- 2000 -->
      <g transform="translate(111.55 273.799219)scale(0.1 -0.1)">
       <use xlink:href="#DejaVuSans-32"/>
       <use x="63.623047" xlink:href="#DejaVuSans-30"/>
       <use x="127.246094" xlink:href="#DejaVuSans-30"/>
       <use x="190.869141" xlink:href="#DejaVuSans-30"/>
      </g>
     </g>
    </g>
    <g id="ytick_8">
     <g id="line2d_17">
      <g>
       <use style="stroke:#000000;stroke-width:0.8;" x="144" xlink:href="#m86c37f1b2b" y="186.84"/>
      </g>
     </g>
     <g id="text_17">
      <!-- 3000 -->
      <g transform="translate(111.55 190.639219)scale(0.1 -0.1)">
       <use xlink:href="#DejaVuSans-33"/>
       <use x="63.623047" xlink:href="#DejaVuSans-30"/>
       <use x="127.246094" xlink:href="#DejaVuSans-30"/>
       <use x="190.869141" xlink:href="#DejaVuSans-30"/>
      </g>
     </g>
    </g>
    <g id="ytick_9">
     <g id="line2d_18">
      <g>
       <use style="stroke:#000000;stroke-width:0.8;" x="144" xlink:href="#m86c37f1b2b" y="103.68"/>
      </g>
     </g>
     <g id="text_18">
      <!-- 4000 -->
      <g transform="translate(111.55 107.479219)scale(0.1 -0.1)">
       <use xlink:href="#DejaVuSans-34"/>
       <use x="63.623047" xlink:href="#DejaVuSans-30"/>
       <use x="127.246094" xlink:href="#DejaVuSans-30"/>
       <use x="190.869141" xlink:href="#DejaVuSans-30"/>
      </g>
     </g>
    </g>
   </g>
   <g id="line2d_19">
    <path clip-path="url(#p84febb06e0)" d="M 590.4 768.96 
L 590.4 103.68 
" style="fill:none;stroke:#1f77b4;stroke-linecap:square;stroke-width:1.5;"/>
   </g>
   <g id="line2d_20">
    <path clip-path="url(#p84febb06e0)" d="M 144 436.32 
L 1036.8 436.32 
" style="fill:none;stroke:#1f77b4;stroke-linecap:square;stroke-width:1.5;"/>
   </g>
   <g id="line2d_21">
    <defs>
     <path d="M 0 3 
C 0.795609 3 1.55874 2.683901 2.12132 2.12132 
C 2.683901 1.55874 3 0.795609 3 0 
C 3 -0.795609 2.683901 -1.55874 2.12132 -2.12132 
C 1.55874 -2.683901 0.795609 -3 0 -3 
C -0.795609 -3 -1.55874 -2.683901 -2.12132 -2.12132 
C -2.683901 -1.55874 -3 -0.795609 -3 0 
C -3 0.795609 -2.683901 1.55874 -2.12132 2.12132 
C -1.55874 2.683901 -0.795609 3 0 3 
z
" id="m8644fbe495" style="stroke:#008000;"/>
    </defs>
    <g clip-path="url(#p84febb06e0)">
     <use style="fill:#008000;stroke:#008000;" x="1403.941544" xlink:href="#m8644fbe495" y="494.02497"/>
    </g>
   </g>
   <g id="line2d_22">
    <g clip-path="url(#p84febb06e0)">
     <use style="fill:#008000;stroke:#008000;" x="1383.841083" xlink:href="#m8644fbe495" y="385.89258"/>
    </g>
   </g>
   <g id="line2d_23">
    <g clip-path="url(#p84febb06e0)">
     <use style="fill:#008000;stroke:#008000;" x="1257.944979" xlink:href="#m8644fbe495" y="332.288471"/>
    </g>
   </g>
   <g id="line2d_24">
    <g clip-path="url(#p84febb06e0)">
     <use style="fill:#008000;stroke:#008000;" x="644.923357" xlink:href="#m8644fbe495" y="393.692926"/>
    </g>
   </g>
   <g id="line2d_25">
    <g clip-path="url(#p84febb06e0)">
     <use style="fill:#008000;stroke:#008000;" x="644.923357" xlink:href="#m8644fbe495" y="393.692926"/>
    </g>
   </g>
   <g id="line2d_26">
    <g clip-path="url(#p84febb06e0)">
     <use style="fill:#008000;stroke:#008000;" x="567.038434" xlink:href="#m8644fbe495" y="226.12508"/>
    </g>
   </g>
   <g id="line2d_27">
    <g clip-path="url(#p84febb06e0)">
     <use style="fill:#008000;stroke:#008000;" x="574.717485" xlink:href="#m8644fbe495" y="394.469846"/>
    </g>
   </g>
   <g id="line2d_28">
    <g clip-path="url(#p84febb06e0)">
     <use style="fill:#008000;stroke:#008000;" x="574.717485" xlink:href="#m8644fbe495" y="394.469846"/>
    </g>
   </g>
   <g id="line2d_29">
    <g clip-path="url(#p84febb06e0)">
     <use style="fill:#008000;stroke:#008000;" x="452.00617" xlink:href="#m8644fbe495" y="249.315263"/>
    </g>
   </g>
   <g id="line2d_30">
    <g clip-path="url(#p84febb06e0)">
     <use style="fill:#008000;stroke:#008000;" x="509.287294" xlink:href="#m8644fbe495" y="616.065836"/>
    </g>
   </g>
   <g id="line2d_31">
    <g clip-path="url(#p84febb06e0)">
     <use style="fill:#008000;stroke:#008000;" x="529.205498" xlink:href="#m8644fbe495" y="654.059805"/>
    </g>
   </g>
   <g id="line2d_32">
    <g clip-path="url(#p84febb06e0)">
     <use style="fill:#008000;stroke:#008000;" x="529.205498" xlink:href="#m8644fbe495" y="654.059805"/>
    </g>
   </g>
   <g id="line2d_33">
    <g clip-path="url(#p84febb06e0)">
     <use style="fill:#008000;stroke:#008000;" x="570.175446" xlink:href="#m8644fbe495" y="615.030615"/>
    </g>
   </g>
   <g id="line2d_34">
    <g clip-path="url(#p84febb06e0)">
     <use style="fill:#008000;stroke:#008000;" x="570.175446" xlink:href="#m8644fbe495" y="615.030615"/>
    </g>
   </g>
   <g id="line2d_35">
    <g clip-path="url(#p84febb06e0)">
     <use style="fill:#008000;stroke:#008000;" x="680.230146" xlink:href="#m8644fbe495" y="595.522623"/>
    </g>
   </g>
   <g id="line2d_36">
    <g clip-path="url(#p84febb06e0)">
     <use style="fill:#008000;stroke:#008000;" x="680.230146" xlink:href="#m8644fbe495" y="595.522623"/>
    </g>
   </g>
   <g id="line2d_37">
    <defs>
     <path d="M 0 1.333333 
C 0.353604 1.333333 0.692773 1.192845 0.942809 0.942809 
C 1.192845 0.692773 1.333333 0.353604 1.333333 0 
C 1.333333 -0.353604 1.192845 -0.692773 0.942809 -0.942809 
C 0.692773 -1.192845 0.353604 -1.333333 0 -1.333333 
C -0.353604 -1.333333 -0.692773 -1.192845 -0.942809 -0.942809 
C -1.192845 -0.692773 -1.333333 -0.353604 -1.333333 0 
C -1.333333 0.353604 -1.192845 0.692773 -0.942809 0.942809 
C -0.692773 1.192845 -0.353604 1.333333 0 1.333333 
z
" id="m7d9a34dfe0" style="stroke:#ff0000;"/>
    </defs>
    <g clip-path="url(#p84febb06e0)">
     <use style="fill:#ff0000;stroke:#ff0000;" x="1135.471553" xlink:href="#m7d9a34dfe0" y="499.288592"/>
     <use style="fill:#ff0000;stroke:#ff0000;" x="1403.941544" xlink:href="#m7d9a34dfe0" y="494.02497"/>
     <use style="fill:#ff0000;stroke:#ff0000;" x="1383.841083" xlink:href="#m7d9a34dfe0" y="385.89258"/>
     <use style="fill:#ff0000;stroke:#ff0000;" x="1257.944979" xlink:href="#m7d9a34dfe0" y="332.288471"/>
     <use style="fill:#ff0000;stroke:#ff0000;" x="1355.699325" xlink:href="#m7d9a34dfe0" y="281.180266"/>
     <use style="fill:#ff0000;stroke:#ff0000;" x="1355.091303" xlink:href="#m7d9a34dfe0" y="243.75883"/>
     <use style="fill:#ff0000;stroke:#ff0000;" x="648.476635" xlink:href="#m7d9a34dfe0" y="398.325786"/>
     <use style="fill:#ff0000;stroke:#ff0000;" x="640.715288" xlink:href="#m7d9a34dfe0" y="389.237566"/>
     <use style="fill:#ff0000;stroke:#ff0000;" x="778.528963" xlink:href="#m7d9a34dfe0" y="191.973539"/>
     <use style="fill:#ff0000;stroke:#ff0000;" x="750.077264" xlink:href="#m7d9a34dfe0" y="196.362799"/>
     <use style="fill:#ff0000;stroke:#ff0000;" x="723.773824" xlink:href="#m7d9a34dfe0" y="201.293096"/>
     <use style="fill:#ff0000;stroke:#ff0000;" x="700.415992" xlink:href="#m7d9a34dfe0" y="204.615794"/>
     <use style="fill:#ff0000;stroke:#ff0000;" x="567.038434" xlink:href="#m7d9a34dfe0" y="226.12508"/>
     <use style="fill:#ff0000;stroke:#ff0000;" x="579.721608" xlink:href="#m7d9a34dfe0" y="392.589009"/>
     <use style="fill:#ff0000;stroke:#ff0000;" x="570.084703" xlink:href="#m7d9a34dfe0" y="396.657572"/>
     <use style="fill:#ff0000;stroke:#ff0000;" x="452.00617" xlink:href="#m7d9a34dfe0" y="249.315263"/>
     <use style="fill:#ff0000;stroke:#ff0000;" x="388.637134" xlink:href="#m7d9a34dfe0" y="273.409562"/>
     <use style="fill:#ff0000;stroke:#ff0000;" x="389.977011" xlink:href="#m7d9a34dfe0" y="293.038383"/>
     <use style="fill:#ff0000;stroke:#ff0000;" x="421.071257" xlink:href="#m7d9a34dfe0" y="342.152583"/>
     <use style="fill:#ff0000;stroke:#ff0000;" x="400.181485" xlink:href="#m7d9a34dfe0" y="366.083152"/>
     <use style="fill:#ff0000;stroke:#ff0000;" x="454.728746" xlink:href="#m7d9a34dfe0" y="394.250332"/>
     <use style="fill:#ff0000;stroke:#ff0000;" x="449.244325" xlink:href="#m7d9a34dfe0" y="413.602489"/>
     <use style="fill:#ff0000;stroke:#ff0000;" x="424.997197" xlink:href="#m7d9a34dfe0" y="417.108812"/>
     <use style="fill:#ff0000;stroke:#ff0000;" x="420.477793" xlink:href="#m7d9a34dfe0" y="439.221036"/>
     <use style="fill:#ff0000;stroke:#ff0000;" x="396.101751" xlink:href="#m7d9a34dfe0" y="448.072334"/>
     <use style="fill:#ff0000;stroke:#ff0000;" x="401.121781" xlink:href="#m7d9a34dfe0" y="464.895336"/>
     <use style="fill:#ff0000;stroke:#ff0000;" x="437.404087" xlink:href="#m7d9a34dfe0" y="466.93464"/>
     <use style="fill:#ff0000;stroke:#ff0000;" x="404.381385" xlink:href="#m7d9a34dfe0" y="482.195706"/>
     <use style="fill:#ff0000;stroke:#ff0000;" x="439.944633" xlink:href="#m7d9a34dfe0" y="516.613144"/>
     <use style="fill:#ff0000;stroke:#ff0000;" x="463.462437" xlink:href="#m7d9a34dfe0" y="513.430515"/>
     <use style="fill:#ff0000;stroke:#ff0000;" x="457.596665" xlink:href="#m7d9a34dfe0" y="527.149099"/>
     <use style="fill:#ff0000;stroke:#ff0000;" x="453.921545" xlink:href="#m7d9a34dfe0" y="541.230317"/>
     <use style="fill:#ff0000;stroke:#ff0000;" x="472.359567" xlink:href="#m7d9a34dfe0" y="538.909737"/>
     <use style="fill:#ff0000;stroke:#ff0000;" x="459.699887" xlink:href="#m7d9a34dfe0" y="563.891681"/>
     <use style="fill:#ff0000;stroke:#ff0000;" x="470.901057" xlink:href="#m7d9a34dfe0" y="587.490088"/>
     <use style="fill:#ff0000;stroke:#ff0000;" x="471.908743" xlink:href="#m7d9a34dfe0" y="608.562489"/>
     <use style="fill:#ff0000;stroke:#ff0000;" x="477.438132" xlink:href="#m7d9a34dfe0" y="627.621811"/>
     <use style="fill:#ff0000;stroke:#ff0000;" x="500.066016" xlink:href="#m7d9a34dfe0" y="618.169796"/>
     <use style="fill:#ff0000;stroke:#ff0000;" x="518.254748" xlink:href="#m7d9a34dfe0" y="613.716611"/>
     <use style="fill:#ff0000;stroke:#ff0000;" x="519.424627" xlink:href="#m7d9a34dfe0" y="655.560949"/>
     <use style="fill:#ff0000;stroke:#ff0000;" x="538.798623" xlink:href="#m7d9a34dfe0" y="652.321112"/>
     <use style="fill:#ff0000;stroke:#ff0000;" x="563.714383" xlink:href="#m7d9a34dfe0" y="610.427033"/>
     <use style="fill:#ff0000;stroke:#ff0000;" x="576.979097" xlink:href="#m7d9a34dfe0" y="619.498165"/>
     <use style="fill:#ff0000;stroke:#ff0000;" x="600.927986" xlink:href="#m7d9a34dfe0" y="543.871993"/>
     <use style="fill:#ff0000;stroke:#ff0000;" x="631.916394" xlink:href="#m7d9a34dfe0" y="556.347231"/>
     <use style="fill:#ff0000;stroke:#ff0000;" x="671.137045" xlink:href="#m7d9a34dfe0" y="592.157854"/>
     <use style="fill:#ff0000;stroke:#ff0000;" x="689.658528" xlink:href="#m7d9a34dfe0" y="598.618335"/>
     <use style="fill:#ff0000;stroke:#ff0000;" x="756.377924" xlink:href="#m7d9a34dfe0" y="594.179448"/>
     <use style="fill:#ff0000;stroke:#ff0000;" x="786.206241" xlink:href="#m7d9a34dfe0" y="582.545899"/>
     <use style="fill:#ff0000;stroke:#ff0000;" x="810.610502" xlink:href="#m7d9a34dfe0" y="582.296334"/>
     <use style="fill:#ff0000;stroke:#ff0000;" x="848.899454" xlink:href="#m7d9a34dfe0" y="569.714577"/>
     <use style="fill:#ff0000;stroke:#ff0000;" x="894.746622" xlink:href="#m7d9a34dfe0" y="556.033697"/>
     <use style="fill:#ff0000;stroke:#ff0000;" x="934.102697" xlink:href="#m7d9a34dfe0" y="552.784894"/>
     <use style="fill:#ff0000;stroke:#ff0000;" x="1077.424847" xlink:href="#m7d9a34dfe0" y="528.382578"/>
     <use style="fill:#ff0000;stroke:#ff0000;" x="1098.866304" xlink:href="#m7d9a34dfe0" y="508.682692"/>
    </g>
   </g>
   <g id="line2d_38">
    <defs>
     <path d="M -0.5 0.5 
L 0.5 0.5 
L 0.5 -0.5 
L -0.5 -0.5 
z
" id="md49828fde6" style="stroke:#1f77b4;stroke-linejoin:miter;"/>
    </defs>
    <g clip-path="url(#p84febb06e0)">
     <use style="fill:#1f77b4;stroke:#1f77b4;stroke-linejoin:miter;" x="1135.471553" xlink:href="#md49828fde6" y="499.288592"/>
     <use style="fill:#1f77b4;stroke:#1f77b4;stroke-linejoin:miter;" x="1403.941544" xlink:href="#md49828fde6" y="494.02497"/>
     <use style="fill:#1f77b4;stroke:#1f77b4;stroke-linejoin:miter;" x="1383.841083" xlink:href="#md49828fde6" y="385.89258"/>
     <use style="fill:#1f77b4;stroke:#1f77b4;stroke-linejoin:miter;" x="1257.944979" xlink:href="#md49828fde6" y="332.288471"/>
     <use style="fill:#1f77b4;stroke:#1f77b4;stroke-linejoin:miter;" x="1355.699325" xlink:href="#md49828fde6" y="281.180266"/>
     <use style="fill:#1f77b4;stroke:#1f77b4;stroke-linejoin:miter;" x="1355.091303" xlink:href="#md49828fde6" y="243.75883"/>
     <use style="fill:#1f77b4;stroke:#1f77b4;stroke-linejoin:miter;" x="648.476635" xlink:href="#md49828fde6" y="398.325786"/>
     <use style="fill:#1f77b4;stroke:#1f77b4;stroke-linejoin:miter;" x="645.557803" xlink:href="#md49828fde6" y="395.68663"/>
     <use style="fill:#1f77b4;stroke:#1f77b4;stroke-linejoin:miter;" x="643.008664" xlink:href="#md49828fde6" y="392.61434"/>
     <use style="fill:#1f77b4;stroke:#1f77b4;stroke-linejoin:miter;" x="640.715288" xlink:href="#md49828fde6" y="389.237566"/>
     <use style="fill:#1f77b4;stroke:#1f77b4;stroke-linejoin:miter;" x="778.528963" xlink:href="#md49828fde6" y="191.973539"/>
     <use style="fill:#1f77b4;stroke:#1f77b4;stroke-linejoin:miter;" x="750.077264" xlink:href="#md49828fde6" y="196.362799"/>
     <use style="fill:#1f77b4;stroke:#1f77b4;stroke-linejoin:miter;" x="723.773824" xlink:href="#md49828fde6" y="201.293096"/>
     <use style="fill:#1f77b4;stroke:#1f77b4;stroke-linejoin:miter;" x="700.415992" xlink:href="#md49828fde6" y="204.615794"/>
     <use style="fill:#1f77b4;stroke:#1f77b4;stroke-linejoin:miter;" x="677.920058" xlink:href="#md49828fde6" y="209.350117"/>
     <use style="fill:#1f77b4;stroke:#1f77b4;stroke-linejoin:miter;" x="657.619383" xlink:href="#md49828fde6" y="211.542487"/>
     <use style="fill:#1f77b4;stroke:#1f77b4;stroke-linejoin:miter;" x="638.085468" xlink:href="#md49828fde6" y="214.322729"/>
     <use style="fill:#1f77b4;stroke:#1f77b4;stroke-linejoin:miter;" x="619.17267" xlink:href="#md49828fde6" y="217.409232"/>
     <use style="fill:#1f77b4;stroke:#1f77b4;stroke-linejoin:miter;" x="601.12285" xlink:href="#md49828fde6" y="220.979839"/>
     <use style="fill:#1f77b4;stroke:#1f77b4;stroke-linejoin:miter;" x="583.893711" xlink:href="#md49828fde6" y="224.712543"/>
     <use style="fill:#1f77b4;stroke:#1f77b4;stroke-linejoin:miter;" x="567.038434" xlink:href="#md49828fde6" y="226.12508"/>
     <use style="fill:#1f77b4;stroke:#1f77b4;stroke-linejoin:miter;" x="579.721608" xlink:href="#md49828fde6" y="392.589009"/>
     <use style="fill:#1f77b4;stroke:#1f77b4;stroke-linejoin:miter;" x="577.038301" xlink:href="#md49828fde6" y="396.570942"/>
     <use style="fill:#1f77b4;stroke:#1f77b4;stroke-linejoin:miter;" x="573.818507" xlink:href="#md49828fde6" y="397.206532"/>
     <use style="fill:#1f77b4;stroke:#1f77b4;stroke-linejoin:miter;" x="570.084703" xlink:href="#md49828fde6" y="396.657572"/>
     <use style="fill:#1f77b4;stroke:#1f77b4;stroke-linejoin:miter;" x="452.00617" xlink:href="#md49828fde6" y="249.315263"/>
     <use style="fill:#1f77b4;stroke:#1f77b4;stroke-linejoin:miter;" x="433.837288" xlink:href="#md49828fde6" y="251.864162"/>
     <use style="fill:#1f77b4;stroke:#1f77b4;stroke-linejoin:miter;" x="417.319785" xlink:href="#md49828fde6" y="257.474415"/>
     <use style="fill:#1f77b4;stroke:#1f77b4;stroke-linejoin:miter;" x="402.113275" xlink:href="#md49828fde6" y="264.309481"/>
     <use style="fill:#1f77b4;stroke:#1f77b4;stroke-linejoin:miter;" x="388.637134" xlink:href="#md49828fde6" y="273.409562"/>
     <use style="fill:#1f77b4;stroke:#1f77b4;stroke-linejoin:miter;" x="389.977011" xlink:href="#md49828fde6" y="293.038383"/>
     <use style="fill:#1f77b4;stroke:#1f77b4;stroke-linejoin:miter;" x="421.071257" xlink:href="#md49828fde6" y="342.152583"/>
     <use style="fill:#1f77b4;stroke:#1f77b4;stroke-linejoin:miter;" x="420.610243" xlink:href="#md49828fde6" y="353.369359"/>
     <use style="fill:#1f77b4;stroke:#1f77b4;stroke-linejoin:miter;" x="406.470423" xlink:href="#md49828fde6" y="357.786887"/>
     <use style="fill:#1f77b4;stroke:#1f77b4;stroke-linejoin:miter;" x="400.181485" xlink:href="#md49828fde6" y="366.083152"/>
     <use style="fill:#1f77b4;stroke:#1f77b4;stroke-linejoin:miter;" x="454.728746" xlink:href="#md49828fde6" y="394.250332"/>
     <use style="fill:#1f77b4;stroke:#1f77b4;stroke-linejoin:miter;" x="456.333617" xlink:href="#md49828fde6" y="401.738354"/>
     <use style="fill:#1f77b4;stroke:#1f77b4;stroke-linejoin:miter;" x="458.140901" xlink:href="#md49828fde6" y="408.785744"/>
     <use style="fill:#1f77b4;stroke:#1f77b4;stroke-linejoin:miter;" x="449.244325" xlink:href="#md49828fde6" y="413.602489"/>
     <use style="fill:#1f77b4;stroke:#1f77b4;stroke-linejoin:miter;" x="424.997197" xlink:href="#md49828fde6" y="417.108812"/>
     <use style="fill:#1f77b4;stroke:#1f77b4;stroke-linejoin:miter;" x="418.008443" xlink:href="#md49828fde6" y="424.056817"/>
     <use style="fill:#1f77b4;stroke:#1f77b4;stroke-linejoin:miter;" x="419.916921" xlink:href="#md49828fde6" y="432.022497"/>
     <use style="fill:#1f77b4;stroke:#1f77b4;stroke-linejoin:miter;" x="420.477793" xlink:href="#md49828fde6" y="439.221036"/>
     <use style="fill:#1f77b4;stroke:#1f77b4;stroke-linejoin:miter;" x="396.101751" xlink:href="#md49828fde6" y="448.072334"/>
     <use style="fill:#1f77b4;stroke:#1f77b4;stroke-linejoin:miter;" x="397.975025" xlink:href="#md49828fde6" y="456.511696"/>
     <use style="fill:#1f77b4;stroke:#1f77b4;stroke-linejoin:miter;" x="401.121781" xlink:href="#md49828fde6" y="464.895336"/>
     <use style="fill:#1f77b4;stroke:#1f77b4;stroke-linejoin:miter;" x="437.404087" xlink:href="#md49828fde6" y="466.93464"/>
     <use style="fill:#1f77b4;stroke:#1f77b4;stroke-linejoin:miter;" x="404.381385" xlink:href="#md49828fde6" y="482.195706"/>
     <use style="fill:#1f77b4;stroke:#1f77b4;stroke-linejoin:miter;" x="407.624045" xlink:href="#md49828fde6" y="490.700378"/>
     <use style="fill:#1f77b4;stroke:#1f77b4;stroke-linejoin:miter;" x="408.083988" xlink:href="#md49828fde6" y="500.348016"/>
     <use style="fill:#1f77b4;stroke:#1f77b4;stroke-linejoin:miter;" x="412.268763" xlink:href="#md49828fde6" y="508.953478"/>
     <use style="fill:#1f77b4;stroke:#1f77b4;stroke-linejoin:miter;" x="431.794377" xlink:href="#md49828fde6" y="510.665185"/>
     <use style="fill:#1f77b4;stroke:#1f77b4;stroke-linejoin:miter;" x="439.944633" xlink:href="#md49828fde6" y="516.613144"/>
     <use style="fill:#1f77b4;stroke:#1f77b4;stroke-linejoin:miter;" x="463.462437" xlink:href="#md49828fde6" y="513.430515"/>
     <use style="fill:#1f77b4;stroke:#1f77b4;stroke-linejoin:miter;" x="457.596665" xlink:href="#md49828fde6" y="527.149099"/>
     <use style="fill:#1f77b4;stroke:#1f77b4;stroke-linejoin:miter;" x="453.921545" xlink:href="#md49828fde6" y="541.230317"/>
     <use style="fill:#1f77b4;stroke:#1f77b4;stroke-linejoin:miter;" x="472.359567" xlink:href="#md49828fde6" y="538.909737"/>
     <use style="fill:#1f77b4;stroke:#1f77b4;stroke-linejoin:miter;" x="459.699887" xlink:href="#md49828fde6" y="563.891681"/>
     <use style="fill:#1f77b4;stroke:#1f77b4;stroke-linejoin:miter;" x="459.9334" xlink:href="#md49828fde6" y="580.792284"/>
     <use style="fill:#1f77b4;stroke:#1f77b4;stroke-linejoin:miter;" x="470.901057" xlink:href="#md49828fde6" y="587.490088"/>
     <use style="fill:#1f77b4;stroke:#1f77b4;stroke-linejoin:miter;" x="471.908743" xlink:href="#md49828fde6" y="608.562489"/>
     <use style="fill:#1f77b4;stroke:#1f77b4;stroke-linejoin:miter;" x="477.438132" xlink:href="#md49828fde6" y="627.621811"/>
     <use style="fill:#1f77b4;stroke:#1f77b4;stroke-linejoin:miter;" x="500.066016" xlink:href="#md49828fde6" y="618.169796"/>
     <use style="fill:#1f77b4;stroke:#1f77b4;stroke-linejoin:miter;" x="518.254748" xlink:href="#md49828fde6" y="613.716611"/>
     <use style="fill:#1f77b4;stroke:#1f77b4;stroke-linejoin:miter;" x="519.424627" xlink:href="#md49828fde6" y="655.560949"/>
     <use style="fill:#1f77b4;stroke:#1f77b4;stroke-linejoin:miter;" x="538.798623" xlink:href="#md49828fde6" y="652.321112"/>
     <use style="fill:#1f77b4;stroke:#1f77b4;stroke-linejoin:miter;" x="563.714383" xlink:href="#md49828fde6" y="610.427033"/>
     <use style="fill:#1f77b4;stroke:#1f77b4;stroke-linejoin:miter;" x="576.979097" xlink:href="#md49828fde6" y="619.498165"/>
     <use style="fill:#1f77b4;stroke:#1f77b4;stroke-linejoin:miter;" x="600.927986" xlink:href="#md49828fde6" y="543.871993"/>
     <use style="fill:#1f77b4;stroke:#1f77b4;stroke-linejoin:miter;" x="610.917581" xlink:href="#md49828fde6" y="550.288558"/>
     <use style="fill:#1f77b4;stroke:#1f77b4;stroke-linejoin:miter;" x="620.663012" xlink:href="#md49828fde6" y="551.662058"/>
     <use style="fill:#1f77b4;stroke:#1f77b4;stroke-linejoin:miter;" x="631.916394" xlink:href="#md49828fde6" y="556.347231"/>
     <use style="fill:#1f77b4;stroke:#1f77b4;stroke-linejoin:miter;" x="671.137045" xlink:href="#md49828fde6" y="592.157854"/>
     <use style="fill:#1f77b4;stroke:#1f77b4;stroke-linejoin:miter;" x="689.658528" xlink:href="#md49828fde6" y="598.618335"/>
     <use style="fill:#1f77b4;stroke:#1f77b4;stroke-linejoin:miter;" x="756.377924" xlink:href="#md49828fde6" y="594.179448"/>
     <use style="fill:#1f77b4;stroke:#1f77b4;stroke-linejoin:miter;" x="767.9653" xlink:href="#md49828fde6" y="585.546339"/>
     <use style="fill:#1f77b4;stroke:#1f77b4;stroke-linejoin:miter;" x="786.206241" xlink:href="#md49828fde6" y="582.545899"/>
     <use style="fill:#1f77b4;stroke:#1f77b4;stroke-linejoin:miter;" x="810.610502" xlink:href="#md49828fde6" y="582.296334"/>
     <use style="fill:#1f77b4;stroke:#1f77b4;stroke-linejoin:miter;" x="830.822187" xlink:href="#md49828fde6" y="577.553079"/>
     <use style="fill:#1f77b4;stroke:#1f77b4;stroke-linejoin:miter;" x="848.899454" xlink:href="#md49828fde6" y="569.714577"/>
     <use style="fill:#1f77b4;stroke:#1f77b4;stroke-linejoin:miter;" x="894.746622" xlink:href="#md49828fde6" y="556.033697"/>
     <use style="fill:#1f77b4;stroke:#1f77b4;stroke-linejoin:miter;" x="934.102697" xlink:href="#md49828fde6" y="552.784894"/>
     <use style="fill:#1f77b4;stroke:#1f77b4;stroke-linejoin:miter;" x="1077.424847" xlink:href="#md49828fde6" y="528.382578"/>
     <use style="fill:#1f77b4;stroke:#1f77b4;stroke-linejoin:miter;" x="1098.866304" xlink:href="#md49828fde6" y="508.682692"/>
    </g>
   </g>
   <g id="patch_3">
    <path d="M 144 768.96 
L 144 103.68 
" style="fill:none;stroke:#000000;stroke-linecap:square;stroke-linejoin:miter;stroke-width:0.8;"/>
   </g>
   <g id="patch_4">
    <path d="M 1036.8 768.96 
L 1036.8 103.68 
" style="fill:none;stroke:#000000;stroke-linecap:square;stroke-linejoin:miter;stroke-width:0.8;"/>
   </g>
   <g id="patch_5">
    <path d="M 144 768.96 
L 1036.8 768.96 
" style="fill:none;stroke:#000000;stroke-linecap:square;stroke-linejoin:miter;stroke-width:0.8;"/>
   </g>
   <g id="patch_6">
    <path d="M 144 103.68 
L 1036.8 103.68 
" style="fill:none;stroke:#000000;stroke-linecap:square;stroke-linejoin:miter;stroke-width:0.8;"/>
   </g>
  </g>
 </g>
 <defs>
  <clipPath id="p84febb06e0">
   <rect height="665.28" width="892.8" x="144" y="103.68"/>
  </clipPath>
 </defs>
</svg>
