<?xml version="1.0" encoding="utf-8" standalone="no"?>
<!DOCTYPE svg PUBLIC "-//W3C//DTD SVG 1.1//EN"
  "http://www.w3.org/Graphics/SVG/1.1/DTD/svg11.dtd">
<!-- Created with matplotlib (http://matplotlib.org/) -->
<svg height="864pt" version="1.1" viewBox="0 0 1152 864" width="1152pt" xmlns="http://www.w3.org/2000/svg" xmlns:xlink="http://www.w3.org/1999/xlink">
 <defs>
  <style type="text/css">
*{stroke-linecap:butt;stroke-linejoin:round;}
  </style>
 </defs>
 <g id="figure_1">
  <g id="patch_1">
   <path d="M 0 864 
L 1152 864 
L 1152 0 
L 0 0 
z
" style="fill:#ffffff;"/>
  </g>
  <g id="axes_1">
   <g id="patch_2">
    <path d="M 144 768.96 
L 1036.8 768.96 
L 1036.8 103.68 
L 144 103.68 
z
" style="fill:#ffffff;"/>
   </g>
   <g id="matplotlib.axis_1">
    <g id="xtick_1">
     <g id="line2d_1">
      <defs>
       <path d="M 0 0 
L 0 3.5 
" id="m97501a5d90" style="stroke:#000000;stroke-width:0.8;"/>
      </defs>
      <g>
       <use style="stroke:#000000;stroke-width:0.8;" x="144" xlink:href="#m97501a5d90" y="768.96"/>
      </g>
     </g>
     <g id="text_1">
      <!-- −4000 -->
      <defs>
       <path d="M 10.59375 35.5 
L 73.1875 35.5 
L 73.1875 27.203125 
L 10.59375 27.203125 
z
" id="DejaVuSans-2212"/>
       <path d="M 37.796875 64.3125 
L 12.890625 25.390625 
L 37.796875 25.390625 
z
M 35.203125 72.90625 
L 47.609375 72.90625 
L 47.609375 25.390625 
L 58.015625 25.390625 
L 58.015625 17.1875 
L 47.609375 17.1875 
L 47.609375 0 
L 37.796875 0 
L 37.796875 17.1875 
L 4.890625 17.1875 
L 4.890625 26.703125 
z
" id="DejaVuSans-34"/>
       <path d="M 31.78125 66.40625 
Q 24.171875 66.40625 20.328125 58.90625 
Q 16.5 51.421875 16.5 36.375 
Q 16.5 21.390625 20.328125 13.890625 
Q 24.171875 6.390625 31.78125 6.390625 
Q 39.453125 6.390625 43.28125 13.890625 
Q 47.125 21.390625 47.125 36.375 
Q 47.125 51.421875 43.28125 58.90625 
Q 39.453125 66.40625 31.78125 66.40625 
z
M 31.78125 74.21875 
Q 44.046875 74.21875 50.515625 64.515625 
Q 56.984375 54.828125 56.984375 36.375 
Q 56.984375 17.96875 50.515625 8.265625 
Q 44.046875 -1.421875 31.78125 -1.421875 
Q 19.53125 -1.421875 13.0625 8.265625 
Q 6.59375 17.96875 6.59375 36.375 
Q 6.59375 54.828125 13.0625 64.515625 
Q 19.53125 74.21875 31.78125 74.21875 
z
" id="DejaVuSans-30"/>
      </defs>
      <g transform="translate(127.085156 783.558437)scale(0.1 -0.1)">
       <use xlink:href="#DejaVuSans-2212"/>
       <use x="83.789062" xlink:href="#DejaVuSans-34"/>
       <use x="147.412109" xlink:href="#DejaVuSans-30"/>
       <use x="211.035156" xlink:href="#DejaVuSans-30"/>
       <use x="274.658203" xlink:href="#DejaVuSans-30"/>
      </g>
     </g>
    </g>
    <g id="xtick_2">
     <g id="line2d_2">
      <g>
       <use style="stroke:#000000;stroke-width:0.8;" x="255.6" xlink:href="#m97501a5d90" y="768.96"/>
      </g>
     </g>
     <g id="text_2">
      <!-- −3000 -->
      <defs>
       <path d="M 40.578125 39.3125 
Q 47.65625 37.796875 51.625 33 
Q 55.609375 28.21875 55.609375 21.1875 
Q 55.609375 10.40625 48.1875 4.484375 
Q 40.765625 -1.421875 27.09375 -1.421875 
Q 22.515625 -1.421875 17.65625 -0.515625 
Q 12.796875 0.390625 7.625 2.203125 
L 7.625 11.71875 
Q 11.71875 9.328125 16.59375 8.109375 
Q 21.484375 6.890625 26.8125 6.890625 
Q 36.078125 6.890625 40.9375 10.546875 
Q 45.796875 14.203125 45.796875 21.1875 
Q 45.796875 27.640625 41.28125 31.265625 
Q 36.765625 34.90625 28.71875 34.90625 
L 20.21875 34.90625 
L 20.21875 43.015625 
L 29.109375 43.015625 
Q 36.375 43.015625 40.234375 45.921875 
Q 44.09375 48.828125 44.09375 54.296875 
Q 44.09375 59.90625 40.109375 62.90625 
Q 36.140625 65.921875 28.71875 65.921875 
Q 24.65625 65.921875 20.015625 65.03125 
Q 15.375 64.15625 9.8125 62.3125 
L 9.8125 71.09375 
Q 15.4375 72.65625 20.34375 73.4375 
Q 25.25 74.21875 29.59375 74.21875 
Q 40.828125 74.21875 47.359375 69.109375 
Q 53.90625 64.015625 53.90625 55.328125 
Q 53.90625 49.265625 50.4375 45.09375 
Q 46.96875 40.921875 40.578125 39.3125 
z
" id="DejaVuSans-33"/>
      </defs>
      <g transform="translate(238.685156 783.558437)scale(0.1 -0.1)">
       <use xlink:href="#DejaVuSans-2212"/>
       <use x="83.789062" xlink:href="#DejaVuSans-33"/>
       <use x="147.412109" xlink:href="#DejaVuSans-30"/>
       <use x="211.035156" xlink:href="#DejaVuSans-30"/>
       <use x="274.658203" xlink:href="#DejaVuSans-30"/>
      </g>
     </g>
    </g>
    <g id="xtick_3">
     <g id="line2d_3">
      <g>
       <use style="stroke:#000000;stroke-width:0.8;" x="367.2" xlink:href="#m97501a5d90" y="768.96"/>
      </g>
     </g>
     <g id="text_3">
      <!-- −2000 -->
      <defs>
       <path d="M 19.1875 8.296875 
L 53.609375 8.296875 
L 53.609375 0 
L 7.328125 0 
L 7.328125 8.296875 
Q 12.9375 14.109375 22.625 23.890625 
Q 32.328125 33.6875 34.8125 36.53125 
Q 39.546875 41.84375 41.421875 45.53125 
Q 43.3125 49.21875 43.3125 52.78125 
Q 43.3125 58.59375 39.234375 62.25 
Q 35.15625 65.921875 28.609375 65.921875 
Q 23.96875 65.921875 18.8125 64.3125 
Q 13.671875 62.703125 7.8125 59.421875 
L 7.8125 69.390625 
Q 13.765625 71.78125 18.9375 73 
Q 24.125 74.21875 28.421875 74.21875 
Q 39.75 74.21875 46.484375 68.546875 
Q 53.21875 62.890625 53.21875 53.421875 
Q 53.21875 48.921875 51.53125 44.890625 
Q 49.859375 40.875 45.40625 35.40625 
Q 44.1875 33.984375 37.640625 27.21875 
Q 31.109375 20.453125 19.1875 8.296875 
z
" id="DejaVuSans-32"/>
      </defs>
      <g transform="translate(350.285156 783.558437)scale(0.1 -0.1)">
       <use xlink:href="#DejaVuSans-2212"/>
       <use x="83.789062" xlink:href="#DejaVuSans-32"/>
       <use x="147.412109" xlink:href="#DejaVuSans-30"/>
       <use x="211.035156" xlink:href="#DejaVuSans-30"/>
       <use x="274.658203" xlink:href="#DejaVuSans-30"/>
      </g>
     </g>
    </g>
    <g id="xtick_4">
     <g id="line2d_4">
      <g>
       <use style="stroke:#000000;stroke-width:0.8;" x="478.8" xlink:href="#m97501a5d90" y="768.96"/>
      </g>
     </g>
     <g id="text_4">
      <!-- −1000 -->
      <defs>
       <path d="M 12.40625 8.296875 
L 28.515625 8.296875 
L 28.515625 63.921875 
L 10.984375 60.40625 
L 10.984375 69.390625 
L 28.421875 72.90625 
L 38.28125 72.90625 
L 38.28125 8.296875 
L 54.390625 8.296875 
L 54.390625 0 
L 12.40625 0 
z
" id="DejaVuSans-31"/>
      </defs>
      <g transform="translate(461.885156 783.558437)scale(0.1 -0.1)">
       <use xlink:href="#DejaVuSans-2212"/>
       <use x="83.789062" xlink:href="#DejaVuSans-31"/>
       <use x="147.412109" xlink:href="#DejaVuSans-30"/>
       <use x="211.035156" xlink:href="#DejaVuSans-30"/>
       <use x="274.658203" xlink:href="#DejaVuSans-30"/>
      </g>
     </g>
    </g>
    <g id="xtick_5">
     <g id="line2d_5">
      <g>
       <use style="stroke:#000000;stroke-width:0.8;" x="590.4" xlink:href="#m97501a5d90" y="768.96"/>
      </g>
     </g>
     <g id="text_5">
      <!-- 0 -->
      <g transform="translate(587.21875 783.558437)scale(0.1 -0.1)">
       <use xlink:href="#DejaVuSans-30"/>
      </g>
     </g>
    </g>
    <g id="xtick_6">
     <g id="line2d_6">
      <g>
       <use style="stroke:#000000;stroke-width:0.8;" x="702" xlink:href="#m97501a5d90" y="768.96"/>
      </g>
     </g>
     <g id="text_6">
      <!-- 1000 -->
      <g transform="translate(689.275 783.558437)scale(0.1 -0.1)">
       <use xlink:href="#DejaVuSans-31"/>
       <use x="63.623047" xlink:href="#DejaVuSans-30"/>
       <use x="127.246094" xlink:href="#DejaVuSans-30"/>
       <use x="190.869141" xlink:href="#DejaVuSans-30"/>
      </g>
     </g>
    </g>
    <g id="xtick_7">
     <g id="line2d_7">
      <g>
       <use style="stroke:#000000;stroke-width:0.8;" x="813.6" xlink:href="#m97501a5d90" y="768.96"/>
      </g>
     </g>
     <g id="text_7">
      <!-- 2000 -->
      <g transform="translate(800.875 783.558437)scale(0.1 -0.1)">
       <use xlink:href="#DejaVuSans-32"/>
       <use x="63.623047" xlink:href="#DejaVuSans-30"/>
       <use x="127.246094" xlink:href="#DejaVuSans-30"/>
       <use x="190.869141" xlink:href="#DejaVuSans-30"/>
      </g>
     </g>
    </g>
    <g id="xtick_8">
     <g id="line2d_8">
      <g>
       <use style="stroke:#000000;stroke-width:0.8;" x="925.2" xlink:href="#m97501a5d90" y="768.96"/>
      </g>
     </g>
     <g id="text_8">
      <!-- 3000 -->
      <g transform="translate(912.475 783.558437)scale(0.1 -0.1)">
       <use xlink:href="#DejaVuSans-33"/>
       <use x="63.623047" xlink:href="#DejaVuSans-30"/>
       <use x="127.246094" xlink:href="#DejaVuSans-30"/>
       <use x="190.869141" xlink:href="#DejaVuSans-30"/>
      </g>
     </g>
    </g>
    <g id="xtick_9">
     <g id="line2d_9">
      <g>
       <use style="stroke:#000000;stroke-width:0.8;" x="1036.8" xlink:href="#m97501a5d90" y="768.96"/>
      </g>
     </g>
     <g id="text_9">
      <!-- 4000 -->
      <g transform="translate(1024.075 783.558437)scale(0.1 -0.1)">
       <use xlink:href="#DejaVuSans-34"/>
       <use x="63.623047" xlink:href="#DejaVuSans-30"/>
       <use x="127.246094" xlink:href="#DejaVuSans-30"/>
       <use x="190.869141" xlink:href="#DejaVuSans-30"/>
      </g>
     </g>
    </g>
   </g>
   <g id="matplotlib.axis_2">
    <g id="ytick_1">
     <g id="line2d_10">
      <defs>
       <path d="M 0 0 
L -3.5 0 
" id="mb119e04bb6" style="stroke:#000000;stroke-width:0.8;"/>
      </defs>
      <g>
       <use style="stroke:#000000;stroke-width:0.8;" x="144" xlink:href="#mb119e04bb6" y="768.96"/>
      </g>
     </g>
     <g id="text_10">
      <!-- −4000 -->
      <g transform="translate(103.170312 772.759219)scale(0.1 -0.1)">
       <use xlink:href="#DejaVuSans-2212"/>
       <use x="83.789062" xlink:href="#DejaVuSans-34"/>
       <use x="147.412109" xlink:href="#DejaVuSans-30"/>
       <use x="211.035156" xlink:href="#DejaVuSans-30"/>
       <use x="274.658203" xlink:href="#DejaVuSans-30"/>
      </g>
     </g>
    </g>
    <g id="ytick_2">
     <g id="line2d_11">
      <g>
       <use style="stroke:#000000;stroke-width:0.8;" x="144" xlink:href="#mb119e04bb6" y="685.8"/>
      </g>
     </g>
     <g id="text_11">
      <!-- −3000 -->
      <g transform="translate(103.170312 689.599219)scale(0.1 -0.1)">
       <use xlink:href="#DejaVuSans-2212"/>
       <use x="83.789062" xlink:href="#DejaVuSans-33"/>
       <use x="147.412109" xlink:href="#DejaVuSans-30"/>
       <use x="211.035156" xlink:href="#DejaVuSans-30"/>
       <use x="274.658203" xlink:href="#DejaVuSans-30"/>
      </g>
     </g>
    </g>
    <g id="ytick_3">
     <g id="line2d_12">
      <g>
       <use style="stroke:#000000;stroke-width:0.8;" x="144" xlink:href="#mb119e04bb6" y="602.64"/>
      </g>
     </g>
     <g id="text_12">
      <!-- −2000 -->
      <g transform="translate(103.170312 606.439219)scale(0.1 -0.1)">
       <use xlink:href="#DejaVuSans-2212"/>
       <use x="83.789062" xlink:href="#DejaVuSans-32"/>
       <use x="147.412109" xlink:href="#DejaVuSans-30"/>
       <use x="211.035156" xlink:href="#DejaVuSans-30"/>
       <use x="274.658203" xlink:href="#DejaVuSans-30"/>
      </g>
     </g>
    </g>
    <g id="ytick_4">
     <g id="line2d_13">
      <g>
       <use style="stroke:#000000;stroke-width:0.8;" x="144" xlink:href="#mb119e04bb6" y="519.48"/>
      </g>
     </g>
     <g id="text_13">
      <!-- −1000 -->
      <g transform="translate(103.170312 523.279219)scale(0.1 -0.1)">
       <use xlink:href="#DejaVuSans-2212"/>
       <use x="83.789062" xlink:href="#DejaVuSans-31"/>
       <use x="147.412109" xlink:href="#DejaVuSans-30"/>
       <use x="211.035156" xlink:href="#DejaVuSans-30"/>
       <use x="274.658203" xlink:href="#DejaVuSans-30"/>
      </g>
     </g>
    </g>
    <g id="ytick_5">
     <g id="line2d_14">
      <g>
       <use style="stroke:#000000;stroke-width:0.8;" x="144" xlink:href="#mb119e04bb6" y="436.32"/>
      </g>
     </g>
     <g id="text_14">
      <!-- 0 -->
      <g transform="translate(130.6375 440.119219)scale(0.1 -0.1)">
       <use xlink:href="#DejaVuSans-30"/>
      </g>
     </g>
    </g>
    <g id="ytick_6">
     <g id="line2d_15">
      <g>
       <use style="stroke:#000000;stroke-width:0.8;" x="144" xlink:href="#mb119e04bb6" y="353.16"/>
      </g>
     </g>
     <g id="text_15">
      <!-- 1000 -->
      <g transform="translate(111.55 356.959219)scale(0.1 -0.1)">
       <use xlink:href="#DejaVuSans-31"/>
       <use x="63.623047" xlink:href="#DejaVuSans-30"/>
       <use x="127.246094" xlink:href="#DejaVuSans-30"/>
       <use x="190.869141" xlink:href="#DejaVuSans-30"/>
      </g>
     </g>
    </g>
    <g id="ytick_7">
     <g id="line2d_16">
      <g>
       <use style="stroke:#000000;stroke-width:0.8;" x="144" xlink:href="#mb119e04bb6" y="270"/>
      </g>
     </g>
     <g id="text_16">
      <!-- 2000 -->
      <g transform="translate(111.55 273.799219)scale(0.1 -0.1)">
       <use xlink:href="#DejaVuSans-32"/>
       <use x="63.623047" xlink:href="#DejaVuSans-30"/>
       <use x="127.246094" xlink:href="#DejaVuSans-30"/>
       <use x="190.869141" xlink:href="#DejaVuSans-30"/>
      </g>
     </g>
    </g>
    <g id="ytick_8">
     <g id="line2d_17">
      <g>
       <use style="stroke:#000000;stroke-width:0.8;" x="144" xlink:href="#mb119e04bb6" y="186.84"/>
      </g>
     </g>
     <g id="text_17">
      <!-- 3000 -->
      <g transform="translate(111.55 190.639219)scale(0.1 -0.1)">
       <use xlink:href="#DejaVuSans-33"/>
       <use x="63.623047" xlink:href="#DejaVuSans-30"/>
       <use x="127.246094" xlink:href="#DejaVuSans-30"/>
       <use x="190.869141" xlink:href="#DejaVuSans-30"/>
      </g>
     </g>
    </g>
    <g id="ytick_9">
     <g id="line2d_18">
      <g>
       <use style="stroke:#000000;stroke-width:0.8;" x="144" xlink:href="#mb119e04bb6" y="103.68"/>
      </g>
     </g>
     <g id="text_18">
      <!-- 4000 -->
      <g transform="translate(111.55 107.479219)scale(0.1 -0.1)">
       <use xlink:href="#DejaVuSans-34"/>
       <use x="63.623047" xlink:href="#DejaVuSans-30"/>
       <use x="127.246094" xlink:href="#DejaVuSans-30"/>
       <use x="190.869141" xlink:href="#DejaVuSans-30"/>
      </g>
     </g>
    </g>
   </g>
   <g id="line2d_19">
    <path clip-path="url(#ped5d0fd7ad)" d="M 590.4 768.96 
L 590.4 103.68 
" style="fill:none;stroke:#1f77b4;stroke-linecap:square;stroke-width:1.5;"/>
   </g>
   <g id="line2d_20">
    <path clip-path="url(#ped5d0fd7ad)" d="M 144 436.32 
L 1036.8 436.32 
" style="fill:none;stroke:#1f77b4;stroke-linecap:square;stroke-width:1.5;"/>
   </g>
   <g id="line2d_21">
    <defs>
     <path d="M 0 3 
C 0.795609 3 1.55874 2.683901 2.12132 2.12132 
C 2.683901 1.55874 3 0.795609 3 0 
C 3 -0.795609 2.683901 -1.55874 2.12132 -2.12132 
C 1.55874 -2.683901 0.795609 -3 0 -3 
C -0.795609 -3 -1.55874 -2.683901 -2.12132 -2.12132 
C -2.683901 -1.55874 -3 -0.795609 -3 0 
C -3 0.795609 -2.683901 1.55874 -2.12132 2.12132 
C -1.55874 2.683901 -0.795609 3 0 3 
z
" id="mf6e6357d28" style="stroke:#008000;"/>
    </defs>
    <g clip-path="url(#ped5d0fd7ad)">
     <use style="fill:#008000;stroke:#008000;" x="1396.864203" xlink:href="#mf6e6357d28" y="390.343488"/>
    </g>
   </g>
   <g id="line2d_22">
    <g clip-path="url(#ped5d0fd7ad)">
     <use style="fill:#008000;stroke:#008000;" x="1257.569398" xlink:href="#mf6e6357d28" y="336.726059"/>
    </g>
   </g>
   <g id="line2d_23">
    <g clip-path="url(#ped5d0fd7ad)">
     <use style="fill:#008000;stroke:#008000;" x="645.468865" xlink:href="#mf6e6357d28" y="394.069602"/>
    </g>
   </g>
   <g id="line2d_24">
    <g clip-path="url(#ped5d0fd7ad)">
     <use style="fill:#008000;stroke:#008000;" x="645.468865" xlink:href="#mf6e6357d28" y="394.069602"/>
    </g>
   </g>
   <g id="line2d_25">
    <g clip-path="url(#ped5d0fd7ad)">
     <use style="fill:#008000;stroke:#008000;" x="569.962798" xlink:href="#mf6e6357d28" y="225.955971"/>
    </g>
   </g>
   <g id="line2d_26">
    <g clip-path="url(#ped5d0fd7ad)">
     <use style="fill:#008000;stroke:#008000;" x="573.943576" xlink:href="#mf6e6357d28" y="395.795891"/>
    </g>
   </g>
   <g id="line2d_27">
    <g clip-path="url(#ped5d0fd7ad)">
     <use style="fill:#008000;stroke:#008000;" x="573.943576" xlink:href="#mf6e6357d28" y="395.795891"/>
    </g>
   </g>
   <g id="line2d_28">
    <g clip-path="url(#ped5d0fd7ad)">
     <use style="fill:#008000;stroke:#008000;" x="455.177106" xlink:href="#mf6e6357d28" y="248.668469"/>
    </g>
   </g>
   <g id="line2d_29">
    <g clip-path="url(#ped5d0fd7ad)">
     <use style="fill:#008000;stroke:#008000;" x="411.645482" xlink:href="#mf6e6357d28" y="506.818369"/>
    </g>
   </g>
   <g id="line2d_30">
    <g clip-path="url(#ped5d0fd7ad)">
     <use style="fill:#008000;stroke:#008000;" x="693.404613" xlink:href="#mf6e6357d28" y="598.433311"/>
    </g>
   </g>
   <g id="line2d_31">
    <g clip-path="url(#ped5d0fd7ad)">
     <use style="fill:#008000;stroke:#008000;" x="693.404613" xlink:href="#mf6e6357d28" y="598.433311"/>
    </g>
   </g>
   <g id="line2d_32">
    <g clip-path="url(#ped5d0fd7ad)">
     <use style="fill:#008000;stroke:#008000;" x="792.869332" xlink:href="#mf6e6357d28" y="583.333396"/>
    </g>
   </g>
   <g id="line2d_33">
    <g clip-path="url(#ped5d0fd7ad)">
     <use style="fill:#008000;stroke:#008000;" x="880.749235" xlink:href="#mf6e6357d28" y="563.803759"/>
    </g>
   </g>
   <g id="line2d_34">
    <g clip-path="url(#ped5d0fd7ad)">
     <use style="fill:#008000;stroke:#008000;" x="960.089514" xlink:href="#mf6e6357d28" y="547.445726"/>
    </g>
   </g>
   <g id="line2d_35">
    <defs>
     <path d="M 0 1.333333 
C 0.353604 1.333333 0.692773 1.192845 0.942809 0.942809 
C 1.192845 0.692773 1.333333 0.353604 1.333333 0 
C 1.333333 -0.353604 1.192845 -0.692773 0.942809 -0.942809 
C 0.692773 -1.192845 0.353604 -1.333333 0 -1.333333 
C -0.353604 -1.333333 -0.692773 -1.192845 -0.942809 -0.942809 
C -1.192845 -0.692773 -1.333333 -0.353604 -1.333333 0 
C -1.333333 0.353604 -1.192845 0.692773 -0.942809 0.942809 
C -0.692773 1.192845 -0.353604 1.333333 0 1.333333 
z
" id="mff9ab7ad98" style="stroke:#ff0000;"/>
    </defs>
    <g clip-path="url(#ped5d0fd7ad)">
     <use style="fill:#ff0000;stroke:#ff0000;" x="1396.864203" xlink:href="#mff9ab7ad98" y="390.343488"/>
     <use style="fill:#ff0000;stroke:#ff0000;" x="1257.569398" xlink:href="#mff9ab7ad98" y="336.726059"/>
     <use style="fill:#ff0000;stroke:#ff0000;" x="1357.487017" xlink:href="#mff9ab7ad98" y="286.162667"/>
     <use style="fill:#ff0000;stroke:#ff0000;" x="1332.571707" xlink:href="#mff9ab7ad98" y="254.958301"/>
     <use style="fill:#ff0000;stroke:#ff0000;" x="649.291591" xlink:href="#mff9ab7ad98" y="398.549042"/>
     <use style="fill:#ff0000;stroke:#ff0000;" x="641.035799" xlink:href="#mff9ab7ad98" y="389.802927"/>
     <use style="fill:#ff0000;stroke:#ff0000;" x="783.688522" xlink:href="#mff9ab7ad98" y="191.345592"/>
     <use style="fill:#ff0000;stroke:#ff0000;" x="754.746346" xlink:href="#mff9ab7ad98" y="195.807693"/>
     <use style="fill:#ff0000;stroke:#ff0000;" x="728.613362" xlink:href="#mff9ab7ad98" y="199.809193"/>
     <use style="fill:#ff0000;stroke:#ff0000;" x="704.167301" xlink:href="#mff9ab7ad98" y="204.583131"/>
     <use style="fill:#ff0000;stroke:#ff0000;" x="569.962798" xlink:href="#mff9ab7ad98" y="225.955971"/>
     <use style="fill:#ff0000;stroke:#ff0000;" x="577.251404" xlink:href="#mff9ab7ad98" y="395.312111"/>
     <use style="fill:#ff0000;stroke:#ff0000;" x="570.666717" xlink:href="#mff9ab7ad98" y="396.428268"/>
     <use style="fill:#ff0000;stroke:#ff0000;" x="455.177106" xlink:href="#mff9ab7ad98" y="248.668469"/>
     <use style="fill:#ff0000;stroke:#ff0000;" x="392.165909" xlink:href="#mff9ab7ad98" y="291.23869"/>
     <use style="fill:#ff0000;stroke:#ff0000;" x="404.324617" xlink:href="#mff9ab7ad98" y="315.788028"/>
     <use style="fill:#ff0000;stroke:#ff0000;" x="434.12307" xlink:href="#mff9ab7ad98" y="347.31628"/>
     <use style="fill:#ff0000;stroke:#ff0000;" x="402.351889" xlink:href="#mff9ab7ad98" y="364.536645"/>
     <use style="fill:#ff0000;stroke:#ff0000;" x="454.678964" xlink:href="#mff9ab7ad98" y="392.738633"/>
     <use style="fill:#ff0000;stroke:#ff0000;" x="453.293707" xlink:href="#mff9ab7ad98" y="413.05564"/>
     <use style="fill:#ff0000;stroke:#ff0000;" x="429.440179" xlink:href="#mff9ab7ad98" y="416.046951"/>
     <use style="fill:#ff0000;stroke:#ff0000;" x="420.663696" xlink:href="#mff9ab7ad98" y="437.492773"/>
     <use style="fill:#ff0000;stroke:#ff0000;" x="394.787708" xlink:href="#mff9ab7ad98" y="446.113347"/>
     <use style="fill:#ff0000;stroke:#ff0000;" x="411.645482" xlink:href="#mff9ab7ad98" y="506.818369"/>
     <use style="fill:#ff0000;stroke:#ff0000;" x="469.332207" xlink:href="#mff9ab7ad98" y="492.146756"/>
     <use style="fill:#ff0000;stroke:#ff0000;" x="433.764747" xlink:href="#mff9ab7ad98" y="517.47926"/>
     <use style="fill:#ff0000;stroke:#ff0000;" x="458.71161" xlink:href="#mff9ab7ad98" y="514.070019"/>
     <use style="fill:#ff0000;stroke:#ff0000;" x="470.67769" xlink:href="#mff9ab7ad98" y="537.489391"/>
     <use style="fill:#ff0000;stroke:#ff0000;" x="456.728249" xlink:href="#mff9ab7ad98" y="563.097012"/>
     <use style="fill:#ff0000;stroke:#ff0000;" x="453.479724" xlink:href="#mff9ab7ad98" y="583.221163"/>
     <use style="fill:#ff0000;stroke:#ff0000;" x="472.139408" xlink:href="#mff9ab7ad98" y="602.273959"/>
     <use style="fill:#ff0000;stroke:#ff0000;" x="475.595075" xlink:href="#mff9ab7ad98" y="623.497013"/>
     <use style="fill:#ff0000;stroke:#ff0000;" x="477.051776" xlink:href="#mff9ab7ad98" y="653.866679"/>
     <use style="fill:#ff0000;stroke:#ff0000;" x="514.834484" xlink:href="#mff9ab7ad98" y="656.274453"/>
     <use style="fill:#ff0000;stroke:#ff0000;" x="537.116284" xlink:href="#mff9ab7ad98" y="642.383889"/>
     <use style="fill:#ff0000;stroke:#ff0000;" x="558.26603" xlink:href="#mff9ab7ad98" y="620.528885"/>
     <use style="fill:#ff0000;stroke:#ff0000;" x="587.556459" xlink:href="#mff9ab7ad98" y="635.539302"/>
     <use style="fill:#ff0000;stroke:#ff0000;" x="602.440186" xlink:href="#mff9ab7ad98" y="612.099324"/>
     <use style="fill:#ff0000;stroke:#ff0000;" x="608.461236" xlink:href="#mff9ab7ad98" y="549.765517"/>
     <use style="fill:#ff0000;stroke:#ff0000;" x="629.13149" xlink:href="#mff9ab7ad98" y="528.911516"/>
     <use style="fill:#ff0000;stroke:#ff0000;" x="685.437586" xlink:href="#mff9ab7ad98" y="598.224155"/>
     <use style="fill:#ff0000;stroke:#ff0000;" x="701.471783" xlink:href="#mff9ab7ad98" y="598.430186"/>
     <use style="fill:#ff0000;stroke:#ff0000;" x="781.832757" xlink:href="#mff9ab7ad98" y="583.794975"/>
     <use style="fill:#ff0000;stroke:#ff0000;" x="804.032232" xlink:href="#mff9ab7ad98" y="582.510967"/>
     <use style="fill:#ff0000;stroke:#ff0000;" x="832.6732" xlink:href="#mff9ab7ad98" y="583.411298"/>
     <use style="fill:#ff0000;stroke:#ff0000;" x="838.553499" xlink:href="#mff9ab7ad98" y="568.675187"/>
     <use style="fill:#ff0000;stroke:#ff0000;" x="874.849177" xlink:href="#mff9ab7ad98" y="569.976325"/>
     <use style="fill:#ff0000;stroke:#ff0000;" x="886.407845" xlink:href="#mff9ab7ad98" y="557.487375"/>
     <use style="fill:#ff0000;stroke:#ff0000;" x="960.089514" xlink:href="#mff9ab7ad98" y="547.445726"/>
     <use style="fill:#ff0000;stroke:#ff0000;" x="1058.913079" xlink:href="#mff9ab7ad98" y="553.874721"/>
     <use style="fill:#ff0000;stroke:#ff0000;" x="1059.62027" xlink:href="#mff9ab7ad98" y="531.029754"/>
     <use style="fill:#ff0000;stroke:#ff0000;" x="1082.131824" xlink:href="#mff9ab7ad98" y="512.431127"/>
    </g>
   </g>
   <g id="line2d_36">
    <defs>
     <path d="M -0.5 0.5 
L 0.5 0.5 
L 0.5 -0.5 
L -0.5 -0.5 
z
" id="mdf5e62fc17" style="stroke:#1f77b4;stroke-linejoin:miter;"/>
    </defs>
    <g clip-path="url(#ped5d0fd7ad)">
     <use style="fill:#1f77b4;stroke:#1f77b4;stroke-linejoin:miter;" x="1396.864203" xlink:href="#mdf5e62fc17" y="390.343488"/>
     <use style="fill:#1f77b4;stroke:#1f77b4;stroke-linejoin:miter;" x="1257.569398" xlink:href="#mdf5e62fc17" y="336.726059"/>
     <use style="fill:#1f77b4;stroke:#1f77b4;stroke-linejoin:miter;" x="1357.487017" xlink:href="#mdf5e62fc17" y="286.162667"/>
     <use style="fill:#1f77b4;stroke:#1f77b4;stroke-linejoin:miter;" x="1332.571707" xlink:href="#mdf5e62fc17" y="254.958301"/>
     <use style="fill:#1f77b4;stroke:#1f77b4;stroke-linejoin:miter;" x="649.291591" xlink:href="#mdf5e62fc17" y="398.549042"/>
     <use style="fill:#1f77b4;stroke:#1f77b4;stroke-linejoin:miter;" x="646.025048" xlink:href="#mdf5e62fc17" y="396.161278"/>
     <use style="fill:#1f77b4;stroke:#1f77b4;stroke-linejoin:miter;" x="643.593733" xlink:href="#mdf5e62fc17" y="392.896682"/>
     <use style="fill:#1f77b4;stroke:#1f77b4;stroke-linejoin:miter;" x="641.035799" xlink:href="#mdf5e62fc17" y="389.802927"/>
     <use style="fill:#1f77b4;stroke:#1f77b4;stroke-linejoin:miter;" x="783.688522" xlink:href="#mdf5e62fc17" y="191.345592"/>
     <use style="fill:#1f77b4;stroke:#1f77b4;stroke-linejoin:miter;" x="754.746346" xlink:href="#mdf5e62fc17" y="195.807693"/>
     <use style="fill:#1f77b4;stroke:#1f77b4;stroke-linejoin:miter;" x="728.613362" xlink:href="#mdf5e62fc17" y="199.809193"/>
     <use style="fill:#1f77b4;stroke:#1f77b4;stroke-linejoin:miter;" x="704.167301" xlink:href="#mdf5e62fc17" y="204.583131"/>
     <use style="fill:#1f77b4;stroke:#1f77b4;stroke-linejoin:miter;" x="682.077044" xlink:href="#mdf5e62fc17" y="207.983651"/>
     <use style="fill:#1f77b4;stroke:#1f77b4;stroke-linejoin:miter;" x="661.24913" xlink:href="#mdf5e62fc17" y="211.286717"/>
     <use style="fill:#1f77b4;stroke:#1f77b4;stroke-linejoin:miter;" x="641.832088" xlink:href="#mdf5e62fc17" y="214.007022"/>
     <use style="fill:#1f77b4;stroke:#1f77b4;stroke-linejoin:miter;" x="622.391942" xlink:href="#mdf5e62fc17" y="216.988255"/>
     <use style="fill:#1f77b4;stroke:#1f77b4;stroke-linejoin:miter;" x="604.319493" xlink:href="#mdf5e62fc17" y="219.145729"/>
     <use style="fill:#1f77b4;stroke:#1f77b4;stroke-linejoin:miter;" x="586.748988" xlink:href="#mdf5e62fc17" y="224.071536"/>
     <use style="fill:#1f77b4;stroke:#1f77b4;stroke-linejoin:miter;" x="569.962798" xlink:href="#mdf5e62fc17" y="225.955971"/>
     <use style="fill:#1f77b4;stroke:#1f77b4;stroke-linejoin:miter;" x="577.251404" xlink:href="#mdf5e62fc17" y="395.312111"/>
     <use style="fill:#1f77b4;stroke:#1f77b4;stroke-linejoin:miter;" x="574.390209" xlink:href="#mdf5e62fc17" y="397.031042"/>
     <use style="fill:#1f77b4;stroke:#1f77b4;stroke-linejoin:miter;" x="570.666717" xlink:href="#mdf5e62fc17" y="396.428268"/>
     <use style="fill:#1f77b4;stroke:#1f77b4;stroke-linejoin:miter;" x="455.177106" xlink:href="#mdf5e62fc17" y="248.668469"/>
     <use style="fill:#1f77b4;stroke:#1f77b4;stroke-linejoin:miter;" x="437.496323" xlink:href="#mdf5e62fc17" y="251.973781"/>
     <use style="fill:#1f77b4;stroke:#1f77b4;stroke-linejoin:miter;" x="417.19839" xlink:href="#mdf5e62fc17" y="252.639147"/>
     <use style="fill:#1f77b4;stroke:#1f77b4;stroke-linejoin:miter;" x="405.645145" xlink:href="#mdf5e62fc17" y="263.629365"/>
     <use style="fill:#1f77b4;stroke:#1f77b4;stroke-linejoin:miter;" x="393.116375" xlink:href="#mdf5e62fc17" y="273.319318"/>
     <use style="fill:#1f77b4;stroke:#1f77b4;stroke-linejoin:miter;" x="392.165909" xlink:href="#mdf5e62fc17" y="291.23869"/>
     <use style="fill:#1f77b4;stroke:#1f77b4;stroke-linejoin:miter;" x="404.324617" xlink:href="#mdf5e62fc17" y="315.788028"/>
     <use style="fill:#1f77b4;stroke:#1f77b4;stroke-linejoin:miter;" x="434.12307" xlink:href="#mdf5e62fc17" y="347.31628"/>
     <use style="fill:#1f77b4;stroke:#1f77b4;stroke-linejoin:miter;" x="420.985987" xlink:href="#mdf5e62fc17" y="351.369741"/>
     <use style="fill:#1f77b4;stroke:#1f77b4;stroke-linejoin:miter;" x="410.834938" xlink:href="#mdf5e62fc17" y="357.404538"/>
     <use style="fill:#1f77b4;stroke:#1f77b4;stroke-linejoin:miter;" x="402.351889" xlink:href="#mdf5e62fc17" y="364.536645"/>
     <use style="fill:#1f77b4;stroke:#1f77b4;stroke-linejoin:miter;" x="454.678964" xlink:href="#mdf5e62fc17" y="392.738633"/>
     <use style="fill:#1f77b4;stroke:#1f77b4;stroke-linejoin:miter;" x="455.902475" xlink:href="#mdf5e62fc17" y="400.274778"/>
     <use style="fill:#1f77b4;stroke:#1f77b4;stroke-linejoin:miter;" x="457.699507" xlink:href="#mdf5e62fc17" y="407.439631"/>
     <use style="fill:#1f77b4;stroke:#1f77b4;stroke-linejoin:miter;" x="453.293707" xlink:href="#mdf5e62fc17" y="413.05564"/>
     <use style="fill:#1f77b4;stroke:#1f77b4;stroke-linejoin:miter;" x="429.440179" xlink:href="#mdf5e62fc17" y="416.046951"/>
     <use style="fill:#1f77b4;stroke:#1f77b4;stroke-linejoin:miter;" x="420.122879" xlink:href="#mdf5e62fc17" y="430.294691"/>
     <use style="fill:#1f77b4;stroke:#1f77b4;stroke-linejoin:miter;" x="420.663696" xlink:href="#mdf5e62fc17" y="437.492773"/>
     <use style="fill:#1f77b4;stroke:#1f77b4;stroke-linejoin:miter;" x="394.787708" xlink:href="#mdf5e62fc17" y="446.113347"/>
     <use style="fill:#1f77b4;stroke:#1f77b4;stroke-linejoin:miter;" x="397.373513" xlink:href="#mdf5e62fc17" y="454.737826"/>
     <use style="fill:#1f77b4;stroke:#1f77b4;stroke-linejoin:miter;" x="400.289455" xlink:href="#mdf5e62fc17" y="463.135523"/>
     <use style="fill:#1f77b4;stroke:#1f77b4;stroke-linejoin:miter;" x="404.371087" xlink:href="#mdf5e62fc17" y="471.32425"/>
     <use style="fill:#1f77b4;stroke:#1f77b4;stroke-linejoin:miter;" x="403.66566" xlink:href="#mdf5e62fc17" y="480.276396"/>
     <use style="fill:#1f77b4;stroke:#1f77b4;stroke-linejoin:miter;" x="407.687968" xlink:href="#mdf5e62fc17" y="488.540467"/>
     <use style="fill:#1f77b4;stroke:#1f77b4;stroke-linejoin:miter;" x="409.183907" xlink:href="#mdf5e62fc17" y="497.814626"/>
     <use style="fill:#1f77b4;stroke:#1f77b4;stroke-linejoin:miter;" x="411.645482" xlink:href="#mdf5e62fc17" y="506.818369"/>
     <use style="fill:#1f77b4;stroke:#1f77b4;stroke-linejoin:miter;" x="469.332207" xlink:href="#mdf5e62fc17" y="492.146756"/>
     <use style="fill:#1f77b4;stroke:#1f77b4;stroke-linejoin:miter;" x="433.764747" xlink:href="#mdf5e62fc17" y="517.47926"/>
     <use style="fill:#1f77b4;stroke:#1f77b4;stroke-linejoin:miter;" x="458.71161" xlink:href="#mdf5e62fc17" y="514.070019"/>
     <use style="fill:#1f77b4;stroke:#1f77b4;stroke-linejoin:miter;" x="456.964195" xlink:href="#mdf5e62fc17" y="525.017032"/>
     <use style="fill:#1f77b4;stroke:#1f77b4;stroke-linejoin:miter;" x="457.285837" xlink:href="#mdf5e62fc17" y="535.999625"/>
     <use style="fill:#1f77b4;stroke:#1f77b4;stroke-linejoin:miter;" x="470.67769" xlink:href="#mdf5e62fc17" y="537.489391"/>
     <use style="fill:#1f77b4;stroke:#1f77b4;stroke-linejoin:miter;" x="456.728249" xlink:href="#mdf5e62fc17" y="563.097012"/>
     <use style="fill:#1f77b4;stroke:#1f77b4;stroke-linejoin:miter;" x="453.479724" xlink:href="#mdf5e62fc17" y="583.221163"/>
     <use style="fill:#1f77b4;stroke:#1f77b4;stroke-linejoin:miter;" x="461.918338" xlink:href="#mdf5e62fc17" y="593.513395"/>
     <use style="fill:#1f77b4;stroke:#1f77b4;stroke-linejoin:miter;" x="472.139408" xlink:href="#mdf5e62fc17" y="602.273959"/>
     <use style="fill:#1f77b4;stroke:#1f77b4;stroke-linejoin:miter;" x="475.595075" xlink:href="#mdf5e62fc17" y="623.497013"/>
     <use style="fill:#1f77b4;stroke:#1f77b4;stroke-linejoin:miter;" x="477.051776" xlink:href="#mdf5e62fc17" y="653.866679"/>
     <use style="fill:#1f77b4;stroke:#1f77b4;stroke-linejoin:miter;" x="514.834484" xlink:href="#mdf5e62fc17" y="656.274453"/>
     <use style="fill:#1f77b4;stroke:#1f77b4;stroke-linejoin:miter;" x="537.116284" xlink:href="#mdf5e62fc17" y="642.383889"/>
     <use style="fill:#1f77b4;stroke:#1f77b4;stroke-linejoin:miter;" x="558.26603" xlink:href="#mdf5e62fc17" y="620.528885"/>
     <use style="fill:#1f77b4;stroke:#1f77b4;stroke-linejoin:miter;" x="572.288315" xlink:href="#mdf5e62fc17" y="628.570162"/>
     <use style="fill:#1f77b4;stroke:#1f77b4;stroke-linejoin:miter;" x="587.556459" xlink:href="#mdf5e62fc17" y="635.539302"/>
     <use style="fill:#1f77b4;stroke:#1f77b4;stroke-linejoin:miter;" x="602.440186" xlink:href="#mdf5e62fc17" y="612.099324"/>
     <use style="fill:#1f77b4;stroke:#1f77b4;stroke-linejoin:miter;" x="608.461236" xlink:href="#mdf5e62fc17" y="549.765517"/>
     <use style="fill:#1f77b4;stroke:#1f77b4;stroke-linejoin:miter;" x="616.642484" xlink:href="#mdf5e62fc17" y="544.124097"/>
     <use style="fill:#1f77b4;stroke:#1f77b4;stroke-linejoin:miter;" x="623.968331" xlink:href="#mdf5e62fc17" y="538.543049"/>
     <use style="fill:#1f77b4;stroke:#1f77b4;stroke-linejoin:miter;" x="629.13149" xlink:href="#mdf5e62fc17" y="528.911516"/>
     <use style="fill:#1f77b4;stroke:#1f77b4;stroke-linejoin:miter;" x="685.437586" xlink:href="#mdf5e62fc17" y="598.224155"/>
     <use style="fill:#1f77b4;stroke:#1f77b4;stroke-linejoin:miter;" x="701.471783" xlink:href="#mdf5e62fc17" y="598.430186"/>
     <use style="fill:#1f77b4;stroke:#1f77b4;stroke-linejoin:miter;" x="781.832757" xlink:href="#mdf5e62fc17" y="583.794975"/>
     <use style="fill:#1f77b4;stroke:#1f77b4;stroke-linejoin:miter;" x="804.032232" xlink:href="#mdf5e62fc17" y="582.510967"/>
     <use style="fill:#1f77b4;stroke:#1f77b4;stroke-linejoin:miter;" x="832.6732" xlink:href="#mdf5e62fc17" y="583.411298"/>
     <use style="fill:#1f77b4;stroke:#1f77b4;stroke-linejoin:miter;" x="838.553499" xlink:href="#mdf5e62fc17" y="568.675187"/>
     <use style="fill:#1f77b4;stroke:#1f77b4;stroke-linejoin:miter;" x="874.849177" xlink:href="#mdf5e62fc17" y="569.976325"/>
     <use style="fill:#1f77b4;stroke:#1f77b4;stroke-linejoin:miter;" x="886.407845" xlink:href="#mdf5e62fc17" y="557.487375"/>
     <use style="fill:#1f77b4;stroke:#1f77b4;stroke-linejoin:miter;" x="960.089514" xlink:href="#mdf5e62fc17" y="547.445726"/>
     <use style="fill:#1f77b4;stroke:#1f77b4;stroke-linejoin:miter;" x="1058.913079" xlink:href="#mdf5e62fc17" y="553.874721"/>
     <use style="fill:#1f77b4;stroke:#1f77b4;stroke-linejoin:miter;" x="1059.62027" xlink:href="#mdf5e62fc17" y="531.029754"/>
     <use style="fill:#1f77b4;stroke:#1f77b4;stroke-linejoin:miter;" x="1082.131824" xlink:href="#mdf5e62fc17" y="512.431127"/>
    </g>
   </g>
   <g id="patch_3">
    <path d="M 144 768.96 
L 144 103.68 
" style="fill:none;stroke:#000000;stroke-linecap:square;stroke-linejoin:miter;stroke-width:0.8;"/>
   </g>
   <g id="patch_4">
    <path d="M 1036.8 768.96 
L 1036.8 103.68 
" style="fill:none;stroke:#000000;stroke-linecap:square;stroke-linejoin:miter;stroke-width:0.8;"/>
   </g>
   <g id="patch_5">
    <path d="M 144 768.96 
L 1036.8 768.96 
" style="fill:none;stroke:#000000;stroke-linecap:square;stroke-linejoin:miter;stroke-width:0.8;"/>
   </g>
   <g id="patch_6">
    <path d="M 144 103.68 
L 1036.8 103.68 
" style="fill:none;stroke:#000000;stroke-linecap:square;stroke-linejoin:miter;stroke-width:0.8;"/>
   </g>
  </g>
 </g>
 <defs>
  <clipPath id="ped5d0fd7ad">
   <rect height="665.28" width="892.8" x="144" y="103.68"/>
  </clipPath>
 </defs>
</svg>
