<?xml version="1.0" encoding="utf-8" standalone="no"?>
<!DOCTYPE svg PUBLIC "-//W3C//DTD SVG 1.1//EN"
  "http://www.w3.org/Graphics/SVG/1.1/DTD/svg11.dtd">
<!-- Created with matplotlib (http://matplotlib.org/) -->
<svg height="864pt" version="1.1" viewBox="0 0 1152 864" width="1152pt" xmlns="http://www.w3.org/2000/svg" xmlns:xlink="http://www.w3.org/1999/xlink">
 <defs>
  <style type="text/css">
*{stroke-linecap:butt;stroke-linejoin:round;}
  </style>
 </defs>
 <g id="figure_1">
  <g id="patch_1">
   <path d="M 0 864 
L 1152 864 
L 1152 0 
L 0 0 
z
" style="fill:#ffffff;"/>
  </g>
  <g id="axes_1">
   <g id="patch_2">
    <path d="M 144 768.96 
L 1036.8 768.96 
L 1036.8 103.68 
L 144 103.68 
z
" style="fill:#ffffff;"/>
   </g>
   <g id="matplotlib.axis_1">
    <g id="xtick_1">
     <g id="line2d_1">
      <defs>
       <path d="M 0 0 
L 0 3.5 
" id="mf2fcf37987" style="stroke:#000000;stroke-width:0.8;"/>
      </defs>
      <g>
       <use style="stroke:#000000;stroke-width:0.8;" x="144" xlink:href="#mf2fcf37987" y="768.96"/>
      </g>
     </g>
     <g id="text_1">
      <!-- −4000 -->
      <defs>
       <path d="M 10.59375 35.5 
L 73.1875 35.5 
L 73.1875 27.203125 
L 10.59375 27.203125 
z
" id="DejaVuSans-2212"/>
       <path d="M 37.796875 64.3125 
L 12.890625 25.390625 
L 37.796875 25.390625 
z
M 35.203125 72.90625 
L 47.609375 72.90625 
L 47.609375 25.390625 
L 58.015625 25.390625 
L 58.015625 17.1875 
L 47.609375 17.1875 
L 47.609375 0 
L 37.796875 0 
L 37.796875 17.1875 
L 4.890625 17.1875 
L 4.890625 26.703125 
z
" id="DejaVuSans-34"/>
       <path d="M 31.78125 66.40625 
Q 24.171875 66.40625 20.328125 58.90625 
Q 16.5 51.421875 16.5 36.375 
Q 16.5 21.390625 20.328125 13.890625 
Q 24.171875 6.390625 31.78125 6.390625 
Q 39.453125 6.390625 43.28125 13.890625 
Q 47.125 21.390625 47.125 36.375 
Q 47.125 51.421875 43.28125 58.90625 
Q 39.453125 66.40625 31.78125 66.40625 
z
M 31.78125 74.21875 
Q 44.046875 74.21875 50.515625 64.515625 
Q 56.984375 54.828125 56.984375 36.375 
Q 56.984375 17.96875 50.515625 8.265625 
Q 44.046875 -1.421875 31.78125 -1.421875 
Q 19.53125 -1.421875 13.0625 8.265625 
Q 6.59375 17.96875 6.59375 36.375 
Q 6.59375 54.828125 13.0625 64.515625 
Q 19.53125 74.21875 31.78125 74.21875 
z
" id="DejaVuSans-30"/>
      </defs>
      <g transform="translate(127.085156 783.558437)scale(0.1 -0.1)">
       <use xlink:href="#DejaVuSans-2212"/>
       <use x="83.789062" xlink:href="#DejaVuSans-34"/>
       <use x="147.412109" xlink:href="#DejaVuSans-30"/>
       <use x="211.035156" xlink:href="#DejaVuSans-30"/>
       <use x="274.658203" xlink:href="#DejaVuSans-30"/>
      </g>
     </g>
    </g>
    <g id="xtick_2">
     <g id="line2d_2">
      <g>
       <use style="stroke:#000000;stroke-width:0.8;" x="255.6" xlink:href="#mf2fcf37987" y="768.96"/>
      </g>
     </g>
     <g id="text_2">
      <!-- −3000 -->
      <defs>
       <path d="M 40.578125 39.3125 
Q 47.65625 37.796875 51.625 33 
Q 55.609375 28.21875 55.609375 21.1875 
Q 55.609375 10.40625 48.1875 4.484375 
Q 40.765625 -1.421875 27.09375 -1.421875 
Q 22.515625 -1.421875 17.65625 -0.515625 
Q 12.796875 0.390625 7.625 2.203125 
L 7.625 11.71875 
Q 11.71875 9.328125 16.59375 8.109375 
Q 21.484375 6.890625 26.8125 6.890625 
Q 36.078125 6.890625 40.9375 10.546875 
Q 45.796875 14.203125 45.796875 21.1875 
Q 45.796875 27.640625 41.28125 31.265625 
Q 36.765625 34.90625 28.71875 34.90625 
L 20.21875 34.90625 
L 20.21875 43.015625 
L 29.109375 43.015625 
Q 36.375 43.015625 40.234375 45.921875 
Q 44.09375 48.828125 44.09375 54.296875 
Q 44.09375 59.90625 40.109375 62.90625 
Q 36.140625 65.921875 28.71875 65.921875 
Q 24.65625 65.921875 20.015625 65.03125 
Q 15.375 64.15625 9.8125 62.3125 
L 9.8125 71.09375 
Q 15.4375 72.65625 20.34375 73.4375 
Q 25.25 74.21875 29.59375 74.21875 
Q 40.828125 74.21875 47.359375 69.109375 
Q 53.90625 64.015625 53.90625 55.328125 
Q 53.90625 49.265625 50.4375 45.09375 
Q 46.96875 40.921875 40.578125 39.3125 
z
" id="DejaVuSans-33"/>
      </defs>
      <g transform="translate(238.685156 783.558437)scale(0.1 -0.1)">
       <use xlink:href="#DejaVuSans-2212"/>
       <use x="83.789062" xlink:href="#DejaVuSans-33"/>
       <use x="147.412109" xlink:href="#DejaVuSans-30"/>
       <use x="211.035156" xlink:href="#DejaVuSans-30"/>
       <use x="274.658203" xlink:href="#DejaVuSans-30"/>
      </g>
     </g>
    </g>
    <g id="xtick_3">
     <g id="line2d_3">
      <g>
       <use style="stroke:#000000;stroke-width:0.8;" x="367.2" xlink:href="#mf2fcf37987" y="768.96"/>
      </g>
     </g>
     <g id="text_3">
      <!-- −2000 -->
      <defs>
       <path d="M 19.1875 8.296875 
L 53.609375 8.296875 
L 53.609375 0 
L 7.328125 0 
L 7.328125 8.296875 
Q 12.9375 14.109375 22.625 23.890625 
Q 32.328125 33.6875 34.8125 36.53125 
Q 39.546875 41.84375 41.421875 45.53125 
Q 43.3125 49.21875 43.3125 52.78125 
Q 43.3125 58.59375 39.234375 62.25 
Q 35.15625 65.921875 28.609375 65.921875 
Q 23.96875 65.921875 18.8125 64.3125 
Q 13.671875 62.703125 7.8125 59.421875 
L 7.8125 69.390625 
Q 13.765625 71.78125 18.9375 73 
Q 24.125 74.21875 28.421875 74.21875 
Q 39.75 74.21875 46.484375 68.546875 
Q 53.21875 62.890625 53.21875 53.421875 
Q 53.21875 48.921875 51.53125 44.890625 
Q 49.859375 40.875 45.40625 35.40625 
Q 44.1875 33.984375 37.640625 27.21875 
Q 31.109375 20.453125 19.1875 8.296875 
z
" id="DejaVuSans-32"/>
      </defs>
      <g transform="translate(350.285156 783.558437)scale(0.1 -0.1)">
       <use xlink:href="#DejaVuSans-2212"/>
       <use x="83.789062" xlink:href="#DejaVuSans-32"/>
       <use x="147.412109" xlink:href="#DejaVuSans-30"/>
       <use x="211.035156" xlink:href="#DejaVuSans-30"/>
       <use x="274.658203" xlink:href="#DejaVuSans-30"/>
      </g>
     </g>
    </g>
    <g id="xtick_4">
     <g id="line2d_4">
      <g>
       <use style="stroke:#000000;stroke-width:0.8;" x="478.8" xlink:href="#mf2fcf37987" y="768.96"/>
      </g>
     </g>
     <g id="text_4">
      <!-- −1000 -->
      <defs>
       <path d="M 12.40625 8.296875 
L 28.515625 8.296875 
L 28.515625 63.921875 
L 10.984375 60.40625 
L 10.984375 69.390625 
L 28.421875 72.90625 
L 38.28125 72.90625 
L 38.28125 8.296875 
L 54.390625 8.296875 
L 54.390625 0 
L 12.40625 0 
z
" id="DejaVuSans-31"/>
      </defs>
      <g transform="translate(461.885156 783.558437)scale(0.1 -0.1)">
       <use xlink:href="#DejaVuSans-2212"/>
       <use x="83.789062" xlink:href="#DejaVuSans-31"/>
       <use x="147.412109" xlink:href="#DejaVuSans-30"/>
       <use x="211.035156" xlink:href="#DejaVuSans-30"/>
       <use x="274.658203" xlink:href="#DejaVuSans-30"/>
      </g>
     </g>
    </g>
    <g id="xtick_5">
     <g id="line2d_5">
      <g>
       <use style="stroke:#000000;stroke-width:0.8;" x="590.4" xlink:href="#mf2fcf37987" y="768.96"/>
      </g>
     </g>
     <g id="text_5">
      <!-- 0 -->
      <g transform="translate(587.21875 783.558437)scale(0.1 -0.1)">
       <use xlink:href="#DejaVuSans-30"/>
      </g>
     </g>
    </g>
    <g id="xtick_6">
     <g id="line2d_6">
      <g>
       <use style="stroke:#000000;stroke-width:0.8;" x="702" xlink:href="#mf2fcf37987" y="768.96"/>
      </g>
     </g>
     <g id="text_6">
      <!-- 1000 -->
      <g transform="translate(689.275 783.558437)scale(0.1 -0.1)">
       <use xlink:href="#DejaVuSans-31"/>
       <use x="63.623047" xlink:href="#DejaVuSans-30"/>
       <use x="127.246094" xlink:href="#DejaVuSans-30"/>
       <use x="190.869141" xlink:href="#DejaVuSans-30"/>
      </g>
     </g>
    </g>
    <g id="xtick_7">
     <g id="line2d_7">
      <g>
       <use style="stroke:#000000;stroke-width:0.8;" x="813.6" xlink:href="#mf2fcf37987" y="768.96"/>
      </g>
     </g>
     <g id="text_7">
      <!-- 2000 -->
      <g transform="translate(800.875 783.558437)scale(0.1 -0.1)">
       <use xlink:href="#DejaVuSans-32"/>
       <use x="63.623047" xlink:href="#DejaVuSans-30"/>
       <use x="127.246094" xlink:href="#DejaVuSans-30"/>
       <use x="190.869141" xlink:href="#DejaVuSans-30"/>
      </g>
     </g>
    </g>
    <g id="xtick_8">
     <g id="line2d_8">
      <g>
       <use style="stroke:#000000;stroke-width:0.8;" x="925.2" xlink:href="#mf2fcf37987" y="768.96"/>
      </g>
     </g>
     <g id="text_8">
      <!-- 3000 -->
      <g transform="translate(912.475 783.558437)scale(0.1 -0.1)">
       <use xlink:href="#DejaVuSans-33"/>
       <use x="63.623047" xlink:href="#DejaVuSans-30"/>
       <use x="127.246094" xlink:href="#DejaVuSans-30"/>
       <use x="190.869141" xlink:href="#DejaVuSans-30"/>
      </g>
     </g>
    </g>
    <g id="xtick_9">
     <g id="line2d_9">
      <g>
       <use style="stroke:#000000;stroke-width:0.8;" x="1036.8" xlink:href="#mf2fcf37987" y="768.96"/>
      </g>
     </g>
     <g id="text_9">
      <!-- 4000 -->
      <g transform="translate(1024.075 783.558437)scale(0.1 -0.1)">
       <use xlink:href="#DejaVuSans-34"/>
       <use x="63.623047" xlink:href="#DejaVuSans-30"/>
       <use x="127.246094" xlink:href="#DejaVuSans-30"/>
       <use x="190.869141" xlink:href="#DejaVuSans-30"/>
      </g>
     </g>
    </g>
   </g>
   <g id="matplotlib.axis_2">
    <g id="ytick_1">
     <g id="line2d_10">
      <defs>
       <path d="M 0 0 
L -3.5 0 
" id="m5a577527e4" style="stroke:#000000;stroke-width:0.8;"/>
      </defs>
      <g>
       <use style="stroke:#000000;stroke-width:0.8;" x="144" xlink:href="#m5a577527e4" y="768.96"/>
      </g>
     </g>
     <g id="text_10">
      <!-- −4000 -->
      <g transform="translate(103.170312 772.759219)scale(0.1 -0.1)">
       <use xlink:href="#DejaVuSans-2212"/>
       <use x="83.789062" xlink:href="#DejaVuSans-34"/>
       <use x="147.412109" xlink:href="#DejaVuSans-30"/>
       <use x="211.035156" xlink:href="#DejaVuSans-30"/>
       <use x="274.658203" xlink:href="#DejaVuSans-30"/>
      </g>
     </g>
    </g>
    <g id="ytick_2">
     <g id="line2d_11">
      <g>
       <use style="stroke:#000000;stroke-width:0.8;" x="144" xlink:href="#m5a577527e4" y="685.8"/>
      </g>
     </g>
     <g id="text_11">
      <!-- −3000 -->
      <g transform="translate(103.170312 689.599219)scale(0.1 -0.1)">
       <use xlink:href="#DejaVuSans-2212"/>
       <use x="83.789062" xlink:href="#DejaVuSans-33"/>
       <use x="147.412109" xlink:href="#DejaVuSans-30"/>
       <use x="211.035156" xlink:href="#DejaVuSans-30"/>
       <use x="274.658203" xlink:href="#DejaVuSans-30"/>
      </g>
     </g>
    </g>
    <g id="ytick_3">
     <g id="line2d_12">
      <g>
       <use style="stroke:#000000;stroke-width:0.8;" x="144" xlink:href="#m5a577527e4" y="602.64"/>
      </g>
     </g>
     <g id="text_12">
      <!-- −2000 -->
      <g transform="translate(103.170312 606.439219)scale(0.1 -0.1)">
       <use xlink:href="#DejaVuSans-2212"/>
       <use x="83.789062" xlink:href="#DejaVuSans-32"/>
       <use x="147.412109" xlink:href="#DejaVuSans-30"/>
       <use x="211.035156" xlink:href="#DejaVuSans-30"/>
       <use x="274.658203" xlink:href="#DejaVuSans-30"/>
      </g>
     </g>
    </g>
    <g id="ytick_4">
     <g id="line2d_13">
      <g>
       <use style="stroke:#000000;stroke-width:0.8;" x="144" xlink:href="#m5a577527e4" y="519.48"/>
      </g>
     </g>
     <g id="text_13">
      <!-- −1000 -->
      <g transform="translate(103.170312 523.279219)scale(0.1 -0.1)">
       <use xlink:href="#DejaVuSans-2212"/>
       <use x="83.789062" xlink:href="#DejaVuSans-31"/>
       <use x="147.412109" xlink:href="#DejaVuSans-30"/>
       <use x="211.035156" xlink:href="#DejaVuSans-30"/>
       <use x="274.658203" xlink:href="#DejaVuSans-30"/>
      </g>
     </g>
    </g>
    <g id="ytick_5">
     <g id="line2d_14">
      <g>
       <use style="stroke:#000000;stroke-width:0.8;" x="144" xlink:href="#m5a577527e4" y="436.32"/>
      </g>
     </g>
     <g id="text_14">
      <!-- 0 -->
      <g transform="translate(130.6375 440.119219)scale(0.1 -0.1)">
       <use xlink:href="#DejaVuSans-30"/>
      </g>
     </g>
    </g>
    <g id="ytick_6">
     <g id="line2d_15">
      <g>
       <use style="stroke:#000000;stroke-width:0.8;" x="144" xlink:href="#m5a577527e4" y="353.16"/>
      </g>
     </g>
     <g id="text_15">
      <!-- 1000 -->
      <g transform="translate(111.55 356.959219)scale(0.1 -0.1)">
       <use xlink:href="#DejaVuSans-31"/>
       <use x="63.623047" xlink:href="#DejaVuSans-30"/>
       <use x="127.246094" xlink:href="#DejaVuSans-30"/>
       <use x="190.869141" xlink:href="#DejaVuSans-30"/>
      </g>
     </g>
    </g>
    <g id="ytick_7">
     <g id="line2d_16">
      <g>
       <use style="stroke:#000000;stroke-width:0.8;" x="144" xlink:href="#m5a577527e4" y="270"/>
      </g>
     </g>
     <g id="text_16">
      <!-- 2000 -->
      <g transform="translate(111.55 273.799219)scale(0.1 -0.1)">
       <use xlink:href="#DejaVuSans-32"/>
       <use x="63.623047" xlink:href="#DejaVuSans-30"/>
       <use x="127.246094" xlink:href="#DejaVuSans-30"/>
       <use x="190.869141" xlink:href="#DejaVuSans-30"/>
      </g>
     </g>
    </g>
    <g id="ytick_8">
     <g id="line2d_17">
      <g>
       <use style="stroke:#000000;stroke-width:0.8;" x="144" xlink:href="#m5a577527e4" y="186.84"/>
      </g>
     </g>
     <g id="text_17">
      <!-- 3000 -->
      <g transform="translate(111.55 190.639219)scale(0.1 -0.1)">
       <use xlink:href="#DejaVuSans-33"/>
       <use x="63.623047" xlink:href="#DejaVuSans-30"/>
       <use x="127.246094" xlink:href="#DejaVuSans-30"/>
       <use x="190.869141" xlink:href="#DejaVuSans-30"/>
      </g>
     </g>
    </g>
    <g id="ytick_9">
     <g id="line2d_18">
      <g>
       <use style="stroke:#000000;stroke-width:0.8;" x="144" xlink:href="#m5a577527e4" y="103.68"/>
      </g>
     </g>
     <g id="text_18">
      <!-- 4000 -->
      <g transform="translate(111.55 107.479219)scale(0.1 -0.1)">
       <use xlink:href="#DejaVuSans-34"/>
       <use x="63.623047" xlink:href="#DejaVuSans-30"/>
       <use x="127.246094" xlink:href="#DejaVuSans-30"/>
       <use x="190.869141" xlink:href="#DejaVuSans-30"/>
      </g>
     </g>
    </g>
   </g>
   <g id="line2d_19">
    <path clip-path="url(#pd3dd4b1e33)" d="M 590.4 768.96 
L 590.4 103.68 
" style="fill:none;stroke:#1f77b4;stroke-linecap:square;stroke-width:1.5;"/>
   </g>
   <g id="line2d_20">
    <path clip-path="url(#pd3dd4b1e33)" d="M 144 436.32 
L 1036.8 436.32 
" style="fill:none;stroke:#1f77b4;stroke-linecap:square;stroke-width:1.5;"/>
   </g>
   <g id="line2d_21">
    <defs>
     <path d="M 0 3 
C 0.795609 3 1.55874 2.683901 2.12132 2.12132 
C 2.683901 1.55874 3 0.795609 3 0 
C 3 -0.795609 2.683901 -1.55874 2.12132 -2.12132 
C 1.55874 -2.683901 0.795609 -3 0 -3 
C -0.795609 -3 -1.55874 -2.683901 -2.12132 -2.12132 
C -2.683901 -1.55874 -3 -0.795609 -3 0 
C -3 0.795609 -2.683901 1.55874 -2.12132 2.12132 
C -1.55874 2.683901 -0.795609 3 0 3 
z
" id="m49977fb9f2" style="stroke:#008000;"/>
    </defs>
    <g clip-path="url(#pd3dd4b1e33)">
     <use style="fill:#008000;stroke:#008000;" x="1409.925255" xlink:href="#m49977fb9f2" y="496.298434"/>
    </g>
   </g>
   <g id="line2d_22">
    <g clip-path="url(#pd3dd4b1e33)">
     <use style="fill:#008000;stroke:#008000;" x="1399.834359" xlink:href="#m49977fb9f2" y="386.698171"/>
    </g>
   </g>
   <g id="line2d_23">
    <g clip-path="url(#pd3dd4b1e33)">
     <use style="fill:#008000;stroke:#008000;" x="1260.235946" xlink:href="#m49977fb9f2" y="333.351355"/>
    </g>
   </g>
   <g id="line2d_24">
    <g clip-path="url(#pd3dd4b1e33)">
     <use style="fill:#008000;stroke:#008000;" x="645.16657" xlink:href="#m49977fb9f2" y="393.851984"/>
    </g>
   </g>
   <g id="line2d_25">
    <g clip-path="url(#pd3dd4b1e33)">
     <use style="fill:#008000;stroke:#008000;" x="645.16657" xlink:href="#m49977fb9f2" y="393.851984"/>
    </g>
   </g>
   <g id="line2d_26">
    <g clip-path="url(#pd3dd4b1e33)">
     <use style="fill:#008000;stroke:#008000;" x="567.880278" xlink:href="#m49977fb9f2" y="226.032357"/>
    </g>
   </g>
   <g id="line2d_27">
    <g clip-path="url(#pd3dd4b1e33)">
     <use style="fill:#008000;stroke:#008000;" x="573.925317" xlink:href="#m49977fb9f2" y="397.235954"/>
    </g>
   </g>
   <g id="line2d_28">
    <g clip-path="url(#pd3dd4b1e33)">
     <use style="fill:#008000;stroke:#008000;" x="573.925317" xlink:href="#m49977fb9f2" y="397.235954"/>
    </g>
   </g>
   <g id="line2d_29">
    <g clip-path="url(#pd3dd4b1e33)">
     <use style="fill:#008000;stroke:#008000;" x="452.493348" xlink:href="#m49977fb9f2" y="248.522836"/>
    </g>
   </g>
   <g id="line2d_30">
    <g clip-path="url(#pd3dd4b1e33)">
     <use style="fill:#008000;stroke:#008000;" x="459.015089" xlink:href="#m49977fb9f2" y="520.307104"/>
    </g>
   </g>
   <g id="line2d_31">
    <g clip-path="url(#pd3dd4b1e33)">
     <use style="fill:#008000;stroke:#008000;" x="528.21424" xlink:href="#m49977fb9f2" y="652.872772"/>
    </g>
   </g>
   <g id="line2d_32">
    <g clip-path="url(#pd3dd4b1e33)">
     <use style="fill:#008000;stroke:#008000;" x="568.75207" xlink:href="#m49977fb9f2" y="616.733145"/>
    </g>
   </g>
   <g id="line2d_33">
    <g clip-path="url(#pd3dd4b1e33)">
     <use style="fill:#008000;stroke:#008000;" x="696.545547" xlink:href="#m49977fb9f2" y="599.109166"/>
    </g>
   </g>
   <g id="line2d_34">
    <defs>
     <path d="M 0 1.333333 
C 0.353604 1.333333 0.692773 1.192845 0.942809 0.942809 
C 1.192845 0.692773 1.333333 0.353604 1.333333 0 
C 1.333333 -0.353604 1.192845 -0.692773 0.942809 -0.942809 
C 0.692773 -1.192845 0.353604 -1.333333 0 -1.333333 
C -0.353604 -1.333333 -0.692773 -1.192845 -0.942809 -0.942809 
C -1.192845 -0.692773 -1.333333 -0.353604 -1.333333 0 
C -1.333333 0.353604 -1.192845 0.692773 -0.942809 0.942809 
C -0.692773 1.192845 -0.353604 1.333333 0 1.333333 
z
" id="m02bccf6f6d" style="stroke:#ff0000;"/>
    </defs>
    <g clip-path="url(#pd3dd4b1e33)">
     <use style="fill:#ff0000;stroke:#ff0000;" x="1132.529773" xlink:href="#m02bccf6f6d" y="499.851571"/>
     <use style="fill:#ff0000;stroke:#ff0000;" x="1409.925255" xlink:href="#m02bccf6f6d" y="496.298434"/>
     <use style="fill:#ff0000;stroke:#ff0000;" x="1399.834359" xlink:href="#m02bccf6f6d" y="386.698171"/>
     <use style="fill:#ff0000;stroke:#ff0000;" x="1260.235946" xlink:href="#m02bccf6f6d" y="333.351355"/>
     <use style="fill:#ff0000;stroke:#ff0000;" x="1356.83235" xlink:href="#m02bccf6f6d" y="282.789105"/>
     <use style="fill:#ff0000;stroke:#ff0000;" x="1354.831181" xlink:href="#m02bccf6f6d" y="245.7263"/>
     <use style="fill:#ff0000;stroke:#ff0000;" x="648.782744" xlink:href="#m02bccf6f6d" y="398.460384"/>
     <use style="fill:#ff0000;stroke:#ff0000;" x="640.903762" xlink:href="#m02bccf6f6d" y="389.429695"/>
     <use style="fill:#ff0000;stroke:#ff0000;" x="779.656892" xlink:href="#m02bccf6f6d" y="192.36161"/>
     <use style="fill:#ff0000;stroke:#ff0000;" x="751.593131" xlink:href="#m02bccf6f6d" y="196.554121"/>
     <use style="fill:#ff0000;stroke:#ff0000;" x="725.622442" xlink:href="#m02bccf6f6d" y="200.726739"/>
     <use style="fill:#ff0000;stroke:#ff0000;" x="701.91295" xlink:href="#m02bccf6f6d" y="204.483377"/>
     <use style="fill:#ff0000;stroke:#ff0000;" x="567.880278" xlink:href="#m02bccf6f6d" y="226.032357"/>
     <use style="fill:#ff0000;stroke:#ff0000;" x="577.254497" xlink:href="#m02bccf6f6d" y="397.259288"/>
     <use style="fill:#ff0000;stroke:#ff0000;" x="570.548252" xlink:href="#m02bccf6f6d" y="397.371401"/>
     <use style="fill:#ff0000;stroke:#ff0000;" x="452.493348" xlink:href="#m02bccf6f6d" y="248.522836"/>
     <use style="fill:#ff0000;stroke:#ff0000;" x="380.517791" xlink:href="#m02bccf6f6d" y="285.042575"/>
     <use style="fill:#ff0000;stroke:#ff0000;" x="403.199627" xlink:href="#m02bccf6f6d" y="316.982956"/>
     <use style="fill:#ff0000;stroke:#ff0000;" x="422.511735" xlink:href="#m02bccf6f6d" y="342.314672"/>
     <use style="fill:#ff0000;stroke:#ff0000;" x="400.796087" xlink:href="#m02bccf6f6d" y="365.444151"/>
     <use style="fill:#ff0000;stroke:#ff0000;" x="454.759886" xlink:href="#m02bccf6f6d" y="393.871418"/>
     <use style="fill:#ff0000;stroke:#ff0000;" x="451.015552" xlink:href="#m02bccf6f6d" y="413.501857"/>
     <use style="fill:#ff0000;stroke:#ff0000;" x="425.827514" xlink:href="#m02bccf6f6d" y="416.656787"/>
     <use style="fill:#ff0000;stroke:#ff0000;" x="420.6019" xlink:href="#m02bccf6f6d" y="438.666601"/>
     <use style="fill:#ff0000;stroke:#ff0000;" x="395.967" xlink:href="#m02bccf6f6d" y="447.325141"/>
     <use style="fill:#ff0000;stroke:#ff0000;" x="399.752051" xlink:href="#m02bccf6f6d" y="464.457377"/>
     <use style="fill:#ff0000;stroke:#ff0000;" x="437.610017" xlink:href="#m02bccf6f6d" y="466.461105"/>
     <use style="fill:#ff0000;stroke:#ff0000;" x="403.909009" xlink:href="#m02bccf6f6d" y="481.724269"/>
     <use style="fill:#ff0000;stroke:#ff0000;" x="461.239368" xlink:href="#m02bccf6f6d" y="514.127783"/>
     <use style="fill:#ff0000;stroke:#ff0000;" x="457.16926" xlink:href="#m02bccf6f6d" y="526.646486"/>
     <use style="fill:#ff0000;stroke:#ff0000;" x="449.582563" xlink:href="#m02bccf6f6d" y="543.566298"/>
     <use style="fill:#ff0000;stroke:#ff0000;" x="471.925109" xlink:href="#m02bccf6f6d" y="538.43898"/>
     <use style="fill:#ff0000;stroke:#ff0000;" x="459.178814" xlink:href="#m02bccf6f6d" y="563.463203"/>
     <use style="fill:#ff0000;stroke:#ff0000;" x="456.746195" xlink:href="#m02bccf6f6d" y="582.850402"/>
     <use style="fill:#ff0000;stroke:#ff0000;" x="472.086131" xlink:href="#m02bccf6f6d" y="606.244687"/>
     <use style="fill:#ff0000;stroke:#ff0000;" x="476.97463" xlink:href="#m02bccf6f6d" y="625.877156"/>
     <use style="fill:#ff0000;stroke:#ff0000;" x="486.422126" xlink:href="#m02bccf6f6d" y="642.180183"/>
     <use style="fill:#ff0000;stroke:#ff0000;" x="516.783535" xlink:href="#m02bccf6f6d" y="614.01176"/>
     <use style="fill:#ff0000;stroke:#ff0000;" x="518.248675" xlink:href="#m02bccf6f6d" y="655.518962"/>
     <use style="fill:#ff0000;stroke:#ff0000;" x="537.90392" xlink:href="#m02bccf6f6d" y="649.982504"/>
     <use style="fill:#ff0000;stroke:#ff0000;" x="562.408125" xlink:href="#m02bccf6f6d" y="610.920316"/>
     <use style="fill:#ff0000;stroke:#ff0000;" x="575.535531" xlink:href="#m02bccf6f6d" y="622.414585"/>
     <use style="fill:#ff0000;stroke:#ff0000;" x="590.254601" xlink:href="#m02bccf6f6d" y="634.96842"/>
     <use style="fill:#ff0000;stroke:#ff0000;" x="600.420295" xlink:href="#m02bccf6f6d" y="545.670252"/>
     <use style="fill:#ff0000;stroke:#ff0000;" x="640.174805" xlink:href="#m02bccf6f6d" y="552.84626"/>
     <use style="fill:#ff0000;stroke:#ff0000;" x="688.368531" xlink:href="#m02bccf6f6d" y="598.733918"/>
     <use style="fill:#ff0000;stroke:#ff0000;" x="704.83846" xlink:href="#m02bccf6f6d" y="599.263036"/>
     <use style="fill:#ff0000;stroke:#ff0000;" x="756.813727" xlink:href="#m02bccf6f6d" y="596.114373"/>
     <use style="fill:#ff0000;stroke:#ff0000;" x="786.054184" xlink:href="#m02bccf6f6d" y="584.034963"/>
     <use style="fill:#ff0000;stroke:#ff0000;" x="807.941487" xlink:href="#m02bccf6f6d" y="582.118628"/>
     <use style="fill:#ff0000;stroke:#ff0000;" x="845.568729" xlink:href="#m02bccf6f6d" y="569.458763"/>
     <use style="fill:#ff0000;stroke:#ff0000;" x="891.588351" xlink:href="#m02bccf6f6d" y="556.518596"/>
     <use style="fill:#ff0000;stroke:#ff0000;" x="929.89307" xlink:href="#m02bccf6f6d" y="552.944038"/>
     <use style="fill:#ff0000;stroke:#ff0000;" x="965.046491" xlink:href="#m02bccf6f6d" y="545.410287"/>
     <use style="fill:#ff0000;stroke:#ff0000;" x="1069.168857" xlink:href="#m02bccf6f6d" y="528.68822"/>
     <use style="fill:#ff0000;stroke:#ff0000;" x="1091.621523" xlink:href="#m02bccf6f6d" y="509.659463"/>
    </g>
   </g>
   <g id="line2d_35">
    <defs>
     <path d="M -0.5 0.5 
L 0.5 0.5 
L 0.5 -0.5 
L -0.5 -0.5 
z
" id="m9394e8125f" style="stroke:#1f77b4;stroke-linejoin:miter;"/>
    </defs>
    <g clip-path="url(#pd3dd4b1e33)">
     <use style="fill:#1f77b4;stroke:#1f77b4;stroke-linejoin:miter;" x="1132.529773" xlink:href="#m9394e8125f" y="499.851571"/>
     <use style="fill:#1f77b4;stroke:#1f77b4;stroke-linejoin:miter;" x="1409.925255" xlink:href="#m9394e8125f" y="496.298434"/>
     <use style="fill:#1f77b4;stroke:#1f77b4;stroke-linejoin:miter;" x="1399.834359" xlink:href="#m9394e8125f" y="386.698171"/>
     <use style="fill:#1f77b4;stroke:#1f77b4;stroke-linejoin:miter;" x="1260.235946" xlink:href="#m9394e8125f" y="333.351355"/>
     <use style="fill:#1f77b4;stroke:#1f77b4;stroke-linejoin:miter;" x="1356.83235" xlink:href="#m9394e8125f" y="282.789105"/>
     <use style="fill:#1f77b4;stroke:#1f77b4;stroke-linejoin:miter;" x="1354.831181" xlink:href="#m9394e8125f" y="245.7263"/>
     <use style="fill:#1f77b4;stroke:#1f77b4;stroke-linejoin:miter;" x="648.782744" xlink:href="#m9394e8125f" y="398.460384"/>
     <use style="fill:#1f77b4;stroke:#1f77b4;stroke-linejoin:miter;" x="645.636869" xlink:href="#m9394e8125f" y="395.805564"/>
     <use style="fill:#1f77b4;stroke:#1f77b4;stroke-linejoin:miter;" x="643.443017" xlink:href="#m9394e8125f" y="392.710218"/>
     <use style="fill:#1f77b4;stroke:#1f77b4;stroke-linejoin:miter;" x="640.903762" xlink:href="#m9394e8125f" y="389.429695"/>
     <use style="fill:#1f77b4;stroke:#1f77b4;stroke-linejoin:miter;" x="779.656892" xlink:href="#m9394e8125f" y="192.36161"/>
     <use style="fill:#1f77b4;stroke:#1f77b4;stroke-linejoin:miter;" x="751.593131" xlink:href="#m9394e8125f" y="196.554121"/>
     <use style="fill:#1f77b4;stroke:#1f77b4;stroke-linejoin:miter;" x="725.622442" xlink:href="#m9394e8125f" y="200.726739"/>
     <use style="fill:#1f77b4;stroke:#1f77b4;stroke-linejoin:miter;" x="701.91295" xlink:href="#m9394e8125f" y="204.483377"/>
     <use style="fill:#1f77b4;stroke:#1f77b4;stroke-linejoin:miter;" x="679.683476" xlink:href="#m9394e8125f" y="208.063884"/>
     <use style="fill:#1f77b4;stroke:#1f77b4;stroke-linejoin:miter;" x="658.990618" xlink:href="#m9394e8125f" y="211.580731"/>
     <use style="fill:#1f77b4;stroke:#1f77b4;stroke-linejoin:miter;" x="639.57456" xlink:href="#m9394e8125f" y="214.376753"/>
     <use style="fill:#1f77b4;stroke:#1f77b4;stroke-linejoin:miter;" x="620.271464" xlink:href="#m9394e8125f" y="217.65815"/>
     <use style="fill:#1f77b4;stroke:#1f77b4;stroke-linejoin:miter;" x="602.320786" xlink:href="#m9394e8125f" y="219.287788"/>
     <use style="fill:#1f77b4;stroke:#1f77b4;stroke-linejoin:miter;" x="584.891317" xlink:href="#m9394e8125f" y="224.343321"/>
     <use style="fill:#1f77b4;stroke:#1f77b4;stroke-linejoin:miter;" x="567.880278" xlink:href="#m9394e8125f" y="226.032357"/>
     <use style="fill:#1f77b4;stroke:#1f77b4;stroke-linejoin:miter;" x="577.254497" xlink:href="#m9394e8125f" y="397.259288"/>
     <use style="fill:#1f77b4;stroke:#1f77b4;stroke-linejoin:miter;" x="574.314735" xlink:href="#m9394e8125f" y="397.940253"/>
     <use style="fill:#1f77b4;stroke:#1f77b4;stroke-linejoin:miter;" x="570.548252" xlink:href="#m9394e8125f" y="397.371401"/>
     <use style="fill:#1f77b4;stroke:#1f77b4;stroke-linejoin:miter;" x="452.493348" xlink:href="#m9394e8125f" y="248.522836"/>
     <use style="fill:#1f77b4;stroke:#1f77b4;stroke-linejoin:miter;" x="435.010993" xlink:href="#m9394e8125f" y="252.025535"/>
     <use style="fill:#1f77b4;stroke:#1f77b4;stroke-linejoin:miter;" x="416.49916" xlink:href="#m9394e8125f" y="255.277021"/>
     <use style="fill:#1f77b4;stroke:#1f77b4;stroke-linejoin:miter;" x="404.501061" xlink:href="#m9394e8125f" y="265.542117"/>
     <use style="fill:#1f77b4;stroke:#1f77b4;stroke-linejoin:miter;" x="389.978936" xlink:href="#m9394e8125f" y="273.33742"/>
     <use style="fill:#1f77b4;stroke:#1f77b4;stroke-linejoin:miter;" x="380.517791" xlink:href="#m9394e8125f" y="285.042575"/>
     <use style="fill:#1f77b4;stroke:#1f77b4;stroke-linejoin:miter;" x="403.199627" xlink:href="#m9394e8125f" y="316.982956"/>
     <use style="fill:#1f77b4;stroke:#1f77b4;stroke-linejoin:miter;" x="422.511735" xlink:href="#m9394e8125f" y="342.314672"/>
     <use style="fill:#1f77b4;stroke:#1f77b4;stroke-linejoin:miter;" x="421.609418" xlink:href="#m9394e8125f" y="353.070544"/>
     <use style="fill:#1f77b4;stroke:#1f77b4;stroke-linejoin:miter;" x="408.115223" xlink:href="#m9394e8125f" y="357.699929"/>
     <use style="fill:#1f77b4;stroke:#1f77b4;stroke-linejoin:miter;" x="400.796087" xlink:href="#m9394e8125f" y="365.444151"/>
     <use style="fill:#1f77b4;stroke:#1f77b4;stroke-linejoin:miter;" x="454.759886" xlink:href="#m9394e8125f" y="393.871418"/>
     <use style="fill:#1f77b4;stroke:#1f77b4;stroke-linejoin:miter;" x="456.366612" xlink:href="#m9394e8125f" y="401.288701"/>
     <use style="fill:#1f77b4;stroke:#1f77b4;stroke-linejoin:miter;" x="457.843222" xlink:href="#m9394e8125f" y="408.345882"/>
     <use style="fill:#1f77b4;stroke:#1f77b4;stroke-linejoin:miter;" x="451.015552" xlink:href="#m9394e8125f" y="413.501857"/>
     <use style="fill:#1f77b4;stroke:#1f77b4;stroke-linejoin:miter;" x="425.827514" xlink:href="#m9394e8125f" y="416.656787"/>
     <use style="fill:#1f77b4;stroke:#1f77b4;stroke-linejoin:miter;" x="420.168525" xlink:href="#m9394e8125f" y="431.439989"/>
     <use style="fill:#1f77b4;stroke:#1f77b4;stroke-linejoin:miter;" x="420.6019" xlink:href="#m9394e8125f" y="438.666601"/>
     <use style="fill:#1f77b4;stroke:#1f77b4;stroke-linejoin:miter;" x="395.967" xlink:href="#m9394e8125f" y="447.325141"/>
     <use style="fill:#1f77b4;stroke:#1f77b4;stroke-linejoin:miter;" x="397.500421" xlink:href="#m9394e8125f" y="456.081996"/>
     <use style="fill:#1f77b4;stroke:#1f77b4;stroke-linejoin:miter;" x="399.752051" xlink:href="#m9394e8125f" y="464.457377"/>
     <use style="fill:#1f77b4;stroke:#1f77b4;stroke-linejoin:miter;" x="437.610017" xlink:href="#m9394e8125f" y="466.461105"/>
     <use style="fill:#1f77b4;stroke:#1f77b4;stroke-linejoin:miter;" x="403.909009" xlink:href="#m9394e8125f" y="481.724269"/>
     <use style="fill:#1f77b4;stroke:#1f77b4;stroke-linejoin:miter;" x="407.365558" xlink:href="#m9394e8125f" y="490.045521"/>
     <use style="fill:#1f77b4;stroke:#1f77b4;stroke-linejoin:miter;" x="408.442036" xlink:href="#m9394e8125f" y="499.545737"/>
     <use style="fill:#1f77b4;stroke:#1f77b4;stroke-linejoin:miter;" x="411.873392" xlink:href="#m9394e8125f" y="508.456084"/>
     <use style="fill:#1f77b4;stroke:#1f77b4;stroke-linejoin:miter;" x="431.861115" xlink:href="#m9394e8125f" y="509.961152"/>
     <use style="fill:#1f77b4;stroke:#1f77b4;stroke-linejoin:miter;" x="438.110696" xlink:href="#m9394e8125f" y="516.845068"/>
     <use style="fill:#1f77b4;stroke:#1f77b4;stroke-linejoin:miter;" x="461.239368" xlink:href="#m9394e8125f" y="514.127783"/>
     <use style="fill:#1f77b4;stroke:#1f77b4;stroke-linejoin:miter;" x="457.16926" xlink:href="#m9394e8125f" y="526.646486"/>
     <use style="fill:#1f77b4;stroke:#1f77b4;stroke-linejoin:miter;" x="449.582563" xlink:href="#m9394e8125f" y="543.566298"/>
     <use style="fill:#1f77b4;stroke:#1f77b4;stroke-linejoin:miter;" x="471.925109" xlink:href="#m9394e8125f" y="538.43898"/>
     <use style="fill:#1f77b4;stroke:#1f77b4;stroke-linejoin:miter;" x="459.178814" xlink:href="#m9394e8125f" y="563.463203"/>
     <use style="fill:#1f77b4;stroke:#1f77b4;stroke-linejoin:miter;" x="456.746195" xlink:href="#m9394e8125f" y="582.850402"/>
     <use style="fill:#1f77b4;stroke:#1f77b4;stroke-linejoin:miter;" x="469.048454" xlink:href="#m9394e8125f" y="588.218951"/>
     <use style="fill:#1f77b4;stroke:#1f77b4;stroke-linejoin:miter;" x="472.086131" xlink:href="#m9394e8125f" y="606.244687"/>
     <use style="fill:#1f77b4;stroke:#1f77b4;stroke-linejoin:miter;" x="476.97463" xlink:href="#m9394e8125f" y="625.877156"/>
     <use style="fill:#1f77b4;stroke:#1f77b4;stroke-linejoin:miter;" x="486.422126" xlink:href="#m9394e8125f" y="642.180183"/>
     <use style="fill:#1f77b4;stroke:#1f77b4;stroke-linejoin:miter;" x="516.783535" xlink:href="#m9394e8125f" y="614.01176"/>
     <use style="fill:#1f77b4;stroke:#1f77b4;stroke-linejoin:miter;" x="518.248675" xlink:href="#m9394e8125f" y="655.518962"/>
     <use style="fill:#1f77b4;stroke:#1f77b4;stroke-linejoin:miter;" x="537.90392" xlink:href="#m9394e8125f" y="649.982504"/>
     <use style="fill:#1f77b4;stroke:#1f77b4;stroke-linejoin:miter;" x="562.408125" xlink:href="#m9394e8125f" y="610.920316"/>
     <use style="fill:#1f77b4;stroke:#1f77b4;stroke-linejoin:miter;" x="575.535531" xlink:href="#m9394e8125f" y="622.414585"/>
     <use style="fill:#1f77b4;stroke:#1f77b4;stroke-linejoin:miter;" x="590.254601" xlink:href="#m9394e8125f" y="634.96842"/>
     <use style="fill:#1f77b4;stroke:#1f77b4;stroke-linejoin:miter;" x="600.420295" xlink:href="#m9394e8125f" y="545.670252"/>
     <use style="fill:#1f77b4;stroke:#1f77b4;stroke-linejoin:miter;" x="610.333503" xlink:href="#m9394e8125f" y="550.346099"/>
     <use style="fill:#1f77b4;stroke:#1f77b4;stroke-linejoin:miter;" x="619.205764" xlink:href="#m9394e8125f" y="548.378217"/>
     <use style="fill:#1f77b4;stroke:#1f77b4;stroke-linejoin:miter;" x="629.388936" xlink:href="#m9394e8125f" y="550.455681"/>
     <use style="fill:#1f77b4;stroke:#1f77b4;stroke-linejoin:miter;" x="640.174805" xlink:href="#m9394e8125f" y="552.84626"/>
     <use style="fill:#1f77b4;stroke:#1f77b4;stroke-linejoin:miter;" x="688.368531" xlink:href="#m9394e8125f" y="598.733918"/>
     <use style="fill:#1f77b4;stroke:#1f77b4;stroke-linejoin:miter;" x="704.83846" xlink:href="#m9394e8125f" y="599.263036"/>
     <use style="fill:#1f77b4;stroke:#1f77b4;stroke-linejoin:miter;" x="756.813727" xlink:href="#m9394e8125f" y="596.114373"/>
     <use style="fill:#1f77b4;stroke:#1f77b4;stroke-linejoin:miter;" x="765.786267" xlink:href="#m9394e8125f" y="585.508654"/>
     <use style="fill:#1f77b4;stroke:#1f77b4;stroke-linejoin:miter;" x="786.054184" xlink:href="#m9394e8125f" y="584.034963"/>
     <use style="fill:#1f77b4;stroke:#1f77b4;stroke-linejoin:miter;" x="807.941487" xlink:href="#m9394e8125f" y="582.118628"/>
     <use style="fill:#1f77b4;stroke:#1f77b4;stroke-linejoin:miter;" x="830.142394" xlink:href="#m9394e8125f" y="578.660828"/>
     <use style="fill:#1f77b4;stroke:#1f77b4;stroke-linejoin:miter;" x="845.568729" xlink:href="#m9394e8125f" y="569.458763"/>
     <use style="fill:#1f77b4;stroke:#1f77b4;stroke-linejoin:miter;" x="891.588351" xlink:href="#m9394e8125f" y="556.518596"/>
     <use style="fill:#1f77b4;stroke:#1f77b4;stroke-linejoin:miter;" x="929.89307" xlink:href="#m9394e8125f" y="552.944038"/>
     <use style="fill:#1f77b4;stroke:#1f77b4;stroke-linejoin:miter;" x="965.046491" xlink:href="#m9394e8125f" y="545.410287"/>
     <use style="fill:#1f77b4;stroke:#1f77b4;stroke-linejoin:miter;" x="1069.168857" xlink:href="#m9394e8125f" y="528.68822"/>
     <use style="fill:#1f77b4;stroke:#1f77b4;stroke-linejoin:miter;" x="1091.621523" xlink:href="#m9394e8125f" y="509.659463"/>
    </g>
   </g>
   <g id="patch_3">
    <path d="M 144 768.96 
L 144 103.68 
" style="fill:none;stroke:#000000;stroke-linecap:square;stroke-linejoin:miter;stroke-width:0.8;"/>
   </g>
   <g id="patch_4">
    <path d="M 1036.8 768.96 
L 1036.8 103.68 
" style="fill:none;stroke:#000000;stroke-linecap:square;stroke-linejoin:miter;stroke-width:0.8;"/>
   </g>
   <g id="patch_5">
    <path d="M 144 768.96 
L 1036.8 768.96 
" style="fill:none;stroke:#000000;stroke-linecap:square;stroke-linejoin:miter;stroke-width:0.8;"/>
   </g>
   <g id="patch_6">
    <path d="M 144 103.68 
L 1036.8 103.68 
" style="fill:none;stroke:#000000;stroke-linecap:square;stroke-linejoin:miter;stroke-width:0.8;"/>
   </g>
  </g>
 </g>
 <defs>
  <clipPath id="pd3dd4b1e33">
   <rect height="665.28" width="892.8" x="144" y="103.68"/>
  </clipPath>
 </defs>
</svg>
