<?xml version="1.0" encoding="utf-8" standalone="no"?>
<!DOCTYPE svg PUBLIC "-//W3C//DTD SVG 1.1//EN"
  "http://www.w3.org/Graphics/SVG/1.1/DTD/svg11.dtd">
<!-- Created with matplotlib (http://matplotlib.org/) -->
<svg height="864pt" version="1.1" viewBox="0 0 1152 864" width="1152pt" xmlns="http://www.w3.org/2000/svg" xmlns:xlink="http://www.w3.org/1999/xlink">
 <defs>
  <style type="text/css">
*{stroke-linecap:butt;stroke-linejoin:round;}
  </style>
 </defs>
 <g id="figure_1">
  <g id="patch_1">
   <path d="M 0 864 
L 1152 864 
L 1152 0 
L 0 0 
z
" style="fill:#ffffff;"/>
  </g>
  <g id="axes_1">
   <g id="patch_2">
    <path d="M 144 768.96 
L 1036.8 768.96 
L 1036.8 103.68 
L 144 103.68 
z
" style="fill:#ffffff;"/>
   </g>
   <g id="matplotlib.axis_1">
    <g id="xtick_1">
     <g id="line2d_1">
      <defs>
       <path d="M 0 0 
L 0 3.5 
" id="mb8a457b168" style="stroke:#000000;stroke-width:0.8;"/>
      </defs>
      <g>
       <use style="stroke:#000000;stroke-width:0.8;" x="144" xlink:href="#mb8a457b168" y="768.96"/>
      </g>
     </g>
     <g id="text_1">
      <!-- −4000 -->
      <defs>
       <path d="M 10.59375 35.5 
L 73.1875 35.5 
L 73.1875 27.203125 
L 10.59375 27.203125 
z
" id="DejaVuSans-2212"/>
       <path d="M 37.796875 64.3125 
L 12.890625 25.390625 
L 37.796875 25.390625 
z
M 35.203125 72.90625 
L 47.609375 72.90625 
L 47.609375 25.390625 
L 58.015625 25.390625 
L 58.015625 17.1875 
L 47.609375 17.1875 
L 47.609375 0 
L 37.796875 0 
L 37.796875 17.1875 
L 4.890625 17.1875 
L 4.890625 26.703125 
z
" id="DejaVuSans-34"/>
       <path d="M 31.78125 66.40625 
Q 24.171875 66.40625 20.328125 58.90625 
Q 16.5 51.421875 16.5 36.375 
Q 16.5 21.390625 20.328125 13.890625 
Q 24.171875 6.390625 31.78125 6.390625 
Q 39.453125 6.390625 43.28125 13.890625 
Q 47.125 21.390625 47.125 36.375 
Q 47.125 51.421875 43.28125 58.90625 
Q 39.453125 66.40625 31.78125 66.40625 
z
M 31.78125 74.21875 
Q 44.046875 74.21875 50.515625 64.515625 
Q 56.984375 54.828125 56.984375 36.375 
Q 56.984375 17.96875 50.515625 8.265625 
Q 44.046875 -1.421875 31.78125 -1.421875 
Q 19.53125 -1.421875 13.0625 8.265625 
Q 6.59375 17.96875 6.59375 36.375 
Q 6.59375 54.828125 13.0625 64.515625 
Q 19.53125 74.21875 31.78125 74.21875 
z
" id="DejaVuSans-30"/>
      </defs>
      <g transform="translate(127.085156 783.558437)scale(0.1 -0.1)">
       <use xlink:href="#DejaVuSans-2212"/>
       <use x="83.789062" xlink:href="#DejaVuSans-34"/>
       <use x="147.412109" xlink:href="#DejaVuSans-30"/>
       <use x="211.035156" xlink:href="#DejaVuSans-30"/>
       <use x="274.658203" xlink:href="#DejaVuSans-30"/>
      </g>
     </g>
    </g>
    <g id="xtick_2">
     <g id="line2d_2">
      <g>
       <use style="stroke:#000000;stroke-width:0.8;" x="255.6" xlink:href="#mb8a457b168" y="768.96"/>
      </g>
     </g>
     <g id="text_2">
      <!-- −3000 -->
      <defs>
       <path d="M 40.578125 39.3125 
Q 47.65625 37.796875 51.625 33 
Q 55.609375 28.21875 55.609375 21.1875 
Q 55.609375 10.40625 48.1875 4.484375 
Q 40.765625 -1.421875 27.09375 -1.421875 
Q 22.515625 -1.421875 17.65625 -0.515625 
Q 12.796875 0.390625 7.625 2.203125 
L 7.625 11.71875 
Q 11.71875 9.328125 16.59375 8.109375 
Q 21.484375 6.890625 26.8125 6.890625 
Q 36.078125 6.890625 40.9375 10.546875 
Q 45.796875 14.203125 45.796875 21.1875 
Q 45.796875 27.640625 41.28125 31.265625 
Q 36.765625 34.90625 28.71875 34.90625 
L 20.21875 34.90625 
L 20.21875 43.015625 
L 29.109375 43.015625 
Q 36.375 43.015625 40.234375 45.921875 
Q 44.09375 48.828125 44.09375 54.296875 
Q 44.09375 59.90625 40.109375 62.90625 
Q 36.140625 65.921875 28.71875 65.921875 
Q 24.65625 65.921875 20.015625 65.03125 
Q 15.375 64.15625 9.8125 62.3125 
L 9.8125 71.09375 
Q 15.4375 72.65625 20.34375 73.4375 
Q 25.25 74.21875 29.59375 74.21875 
Q 40.828125 74.21875 47.359375 69.109375 
Q 53.90625 64.015625 53.90625 55.328125 
Q 53.90625 49.265625 50.4375 45.09375 
Q 46.96875 40.921875 40.578125 39.3125 
z
" id="DejaVuSans-33"/>
      </defs>
      <g transform="translate(238.685156 783.558437)scale(0.1 -0.1)">
       <use xlink:href="#DejaVuSans-2212"/>
       <use x="83.789062" xlink:href="#DejaVuSans-33"/>
       <use x="147.412109" xlink:href="#DejaVuSans-30"/>
       <use x="211.035156" xlink:href="#DejaVuSans-30"/>
       <use x="274.658203" xlink:href="#DejaVuSans-30"/>
      </g>
     </g>
    </g>
    <g id="xtick_3">
     <g id="line2d_3">
      <g>
       <use style="stroke:#000000;stroke-width:0.8;" x="367.2" xlink:href="#mb8a457b168" y="768.96"/>
      </g>
     </g>
     <g id="text_3">
      <!-- −2000 -->
      <defs>
       <path d="M 19.1875 8.296875 
L 53.609375 8.296875 
L 53.609375 0 
L 7.328125 0 
L 7.328125 8.296875 
Q 12.9375 14.109375 22.625 23.890625 
Q 32.328125 33.6875 34.8125 36.53125 
Q 39.546875 41.84375 41.421875 45.53125 
Q 43.3125 49.21875 43.3125 52.78125 
Q 43.3125 58.59375 39.234375 62.25 
Q 35.15625 65.921875 28.609375 65.921875 
Q 23.96875 65.921875 18.8125 64.3125 
Q 13.671875 62.703125 7.8125 59.421875 
L 7.8125 69.390625 
Q 13.765625 71.78125 18.9375 73 
Q 24.125 74.21875 28.421875 74.21875 
Q 39.75 74.21875 46.484375 68.546875 
Q 53.21875 62.890625 53.21875 53.421875 
Q 53.21875 48.921875 51.53125 44.890625 
Q 49.859375 40.875 45.40625 35.40625 
Q 44.1875 33.984375 37.640625 27.21875 
Q 31.109375 20.453125 19.1875 8.296875 
z
" id="DejaVuSans-32"/>
      </defs>
      <g transform="translate(350.285156 783.558437)scale(0.1 -0.1)">
       <use xlink:href="#DejaVuSans-2212"/>
       <use x="83.789062" xlink:href="#DejaVuSans-32"/>
       <use x="147.412109" xlink:href="#DejaVuSans-30"/>
       <use x="211.035156" xlink:href="#DejaVuSans-30"/>
       <use x="274.658203" xlink:href="#DejaVuSans-30"/>
      </g>
     </g>
    </g>
    <g id="xtick_4">
     <g id="line2d_4">
      <g>
       <use style="stroke:#000000;stroke-width:0.8;" x="478.8" xlink:href="#mb8a457b168" y="768.96"/>
      </g>
     </g>
     <g id="text_4">
      <!-- −1000 -->
      <defs>
       <path d="M 12.40625 8.296875 
L 28.515625 8.296875 
L 28.515625 63.921875 
L 10.984375 60.40625 
L 10.984375 69.390625 
L 28.421875 72.90625 
L 38.28125 72.90625 
L 38.28125 8.296875 
L 54.390625 8.296875 
L 54.390625 0 
L 12.40625 0 
z
" id="DejaVuSans-31"/>
      </defs>
      <g transform="translate(461.885156 783.558437)scale(0.1 -0.1)">
       <use xlink:href="#DejaVuSans-2212"/>
       <use x="83.789062" xlink:href="#DejaVuSans-31"/>
       <use x="147.412109" xlink:href="#DejaVuSans-30"/>
       <use x="211.035156" xlink:href="#DejaVuSans-30"/>
       <use x="274.658203" xlink:href="#DejaVuSans-30"/>
      </g>
     </g>
    </g>
    <g id="xtick_5">
     <g id="line2d_5">
      <g>
       <use style="stroke:#000000;stroke-width:0.8;" x="590.4" xlink:href="#mb8a457b168" y="768.96"/>
      </g>
     </g>
     <g id="text_5">
      <!-- 0 -->
      <g transform="translate(587.21875 783.558437)scale(0.1 -0.1)">
       <use xlink:href="#DejaVuSans-30"/>
      </g>
     </g>
    </g>
    <g id="xtick_6">
     <g id="line2d_6">
      <g>
       <use style="stroke:#000000;stroke-width:0.8;" x="702" xlink:href="#mb8a457b168" y="768.96"/>
      </g>
     </g>
     <g id="text_6">
      <!-- 1000 -->
      <g transform="translate(689.275 783.558437)scale(0.1 -0.1)">
       <use xlink:href="#DejaVuSans-31"/>
       <use x="63.623047" xlink:href="#DejaVuSans-30"/>
       <use x="127.246094" xlink:href="#DejaVuSans-30"/>
       <use x="190.869141" xlink:href="#DejaVuSans-30"/>
      </g>
     </g>
    </g>
    <g id="xtick_7">
     <g id="line2d_7">
      <g>
       <use style="stroke:#000000;stroke-width:0.8;" x="813.6" xlink:href="#mb8a457b168" y="768.96"/>
      </g>
     </g>
     <g id="text_7">
      <!-- 2000 -->
      <g transform="translate(800.875 783.558437)scale(0.1 -0.1)">
       <use xlink:href="#DejaVuSans-32"/>
       <use x="63.623047" xlink:href="#DejaVuSans-30"/>
       <use x="127.246094" xlink:href="#DejaVuSans-30"/>
       <use x="190.869141" xlink:href="#DejaVuSans-30"/>
      </g>
     </g>
    </g>
    <g id="xtick_8">
     <g id="line2d_8">
      <g>
       <use style="stroke:#000000;stroke-width:0.8;" x="925.2" xlink:href="#mb8a457b168" y="768.96"/>
      </g>
     </g>
     <g id="text_8">
      <!-- 3000 -->
      <g transform="translate(912.475 783.558437)scale(0.1 -0.1)">
       <use xlink:href="#DejaVuSans-33"/>
       <use x="63.623047" xlink:href="#DejaVuSans-30"/>
       <use x="127.246094" xlink:href="#DejaVuSans-30"/>
       <use x="190.869141" xlink:href="#DejaVuSans-30"/>
      </g>
     </g>
    </g>
    <g id="xtick_9">
     <g id="line2d_9">
      <g>
       <use style="stroke:#000000;stroke-width:0.8;" x="1036.8" xlink:href="#mb8a457b168" y="768.96"/>
      </g>
     </g>
     <g id="text_9">
      <!-- 4000 -->
      <g transform="translate(1024.075 783.558437)scale(0.1 -0.1)">
       <use xlink:href="#DejaVuSans-34"/>
       <use x="63.623047" xlink:href="#DejaVuSans-30"/>
       <use x="127.246094" xlink:href="#DejaVuSans-30"/>
       <use x="190.869141" xlink:href="#DejaVuSans-30"/>
      </g>
     </g>
    </g>
   </g>
   <g id="matplotlib.axis_2">
    <g id="ytick_1">
     <g id="line2d_10">
      <defs>
       <path d="M 0 0 
L -3.5 0 
" id="ma0ea02a991" style="stroke:#000000;stroke-width:0.8;"/>
      </defs>
      <g>
       <use style="stroke:#000000;stroke-width:0.8;" x="144" xlink:href="#ma0ea02a991" y="768.96"/>
      </g>
     </g>
     <g id="text_10">
      <!-- −4000 -->
      <g transform="translate(103.170312 772.759219)scale(0.1 -0.1)">
       <use xlink:href="#DejaVuSans-2212"/>
       <use x="83.789062" xlink:href="#DejaVuSans-34"/>
       <use x="147.412109" xlink:href="#DejaVuSans-30"/>
       <use x="211.035156" xlink:href="#DejaVuSans-30"/>
       <use x="274.658203" xlink:href="#DejaVuSans-30"/>
      </g>
     </g>
    </g>
    <g id="ytick_2">
     <g id="line2d_11">
      <g>
       <use style="stroke:#000000;stroke-width:0.8;" x="144" xlink:href="#ma0ea02a991" y="685.8"/>
      </g>
     </g>
     <g id="text_11">
      <!-- −3000 -->
      <g transform="translate(103.170312 689.599219)scale(0.1 -0.1)">
       <use xlink:href="#DejaVuSans-2212"/>
       <use x="83.789062" xlink:href="#DejaVuSans-33"/>
       <use x="147.412109" xlink:href="#DejaVuSans-30"/>
       <use x="211.035156" xlink:href="#DejaVuSans-30"/>
       <use x="274.658203" xlink:href="#DejaVuSans-30"/>
      </g>
     </g>
    </g>
    <g id="ytick_3">
     <g id="line2d_12">
      <g>
       <use style="stroke:#000000;stroke-width:0.8;" x="144" xlink:href="#ma0ea02a991" y="602.64"/>
      </g>
     </g>
     <g id="text_12">
      <!-- −2000 -->
      <g transform="translate(103.170312 606.439219)scale(0.1 -0.1)">
       <use xlink:href="#DejaVuSans-2212"/>
       <use x="83.789062" xlink:href="#DejaVuSans-32"/>
       <use x="147.412109" xlink:href="#DejaVuSans-30"/>
       <use x="211.035156" xlink:href="#DejaVuSans-30"/>
       <use x="274.658203" xlink:href="#DejaVuSans-30"/>
      </g>
     </g>
    </g>
    <g id="ytick_4">
     <g id="line2d_13">
      <g>
       <use style="stroke:#000000;stroke-width:0.8;" x="144" xlink:href="#ma0ea02a991" y="519.48"/>
      </g>
     </g>
     <g id="text_13">
      <!-- −1000 -->
      <g transform="translate(103.170312 523.279219)scale(0.1 -0.1)">
       <use xlink:href="#DejaVuSans-2212"/>
       <use x="83.789062" xlink:href="#DejaVuSans-31"/>
       <use x="147.412109" xlink:href="#DejaVuSans-30"/>
       <use x="211.035156" xlink:href="#DejaVuSans-30"/>
       <use x="274.658203" xlink:href="#DejaVuSans-30"/>
      </g>
     </g>
    </g>
    <g id="ytick_5">
     <g id="line2d_14">
      <g>
       <use style="stroke:#000000;stroke-width:0.8;" x="144" xlink:href="#ma0ea02a991" y="436.32"/>
      </g>
     </g>
     <g id="text_14">
      <!-- 0 -->
      <g transform="translate(130.6375 440.119219)scale(0.1 -0.1)">
       <use xlink:href="#DejaVuSans-30"/>
      </g>
     </g>
    </g>
    <g id="ytick_6">
     <g id="line2d_15">
      <g>
       <use style="stroke:#000000;stroke-width:0.8;" x="144" xlink:href="#ma0ea02a991" y="353.16"/>
      </g>
     </g>
     <g id="text_15">
      <!-- 1000 -->
      <g transform="translate(111.55 356.959219)scale(0.1 -0.1)">
       <use xlink:href="#DejaVuSans-31"/>
       <use x="63.623047" xlink:href="#DejaVuSans-30"/>
       <use x="127.246094" xlink:href="#DejaVuSans-30"/>
       <use x="190.869141" xlink:href="#DejaVuSans-30"/>
      </g>
     </g>
    </g>
    <g id="ytick_7">
     <g id="line2d_16">
      <g>
       <use style="stroke:#000000;stroke-width:0.8;" x="144" xlink:href="#ma0ea02a991" y="270"/>
      </g>
     </g>
     <g id="text_16">
      <!-- 2000 -->
      <g transform="translate(111.55 273.799219)scale(0.1 -0.1)">
       <use xlink:href="#DejaVuSans-32"/>
       <use x="63.623047" xlink:href="#DejaVuSans-30"/>
       <use x="127.246094" xlink:href="#DejaVuSans-30"/>
       <use x="190.869141" xlink:href="#DejaVuSans-30"/>
      </g>
     </g>
    </g>
    <g id="ytick_8">
     <g id="line2d_17">
      <g>
       <use style="stroke:#000000;stroke-width:0.8;" x="144" xlink:href="#ma0ea02a991" y="186.84"/>
      </g>
     </g>
     <g id="text_17">
      <!-- 3000 -->
      <g transform="translate(111.55 190.639219)scale(0.1 -0.1)">
       <use xlink:href="#DejaVuSans-33"/>
       <use x="63.623047" xlink:href="#DejaVuSans-30"/>
       <use x="127.246094" xlink:href="#DejaVuSans-30"/>
       <use x="190.869141" xlink:href="#DejaVuSans-30"/>
      </g>
     </g>
    </g>
    <g id="ytick_9">
     <g id="line2d_18">
      <g>
       <use style="stroke:#000000;stroke-width:0.8;" x="144" xlink:href="#ma0ea02a991" y="103.68"/>
      </g>
     </g>
     <g id="text_18">
      <!-- 4000 -->
      <g transform="translate(111.55 107.479219)scale(0.1 -0.1)">
       <use xlink:href="#DejaVuSans-34"/>
       <use x="63.623047" xlink:href="#DejaVuSans-30"/>
       <use x="127.246094" xlink:href="#DejaVuSans-30"/>
       <use x="190.869141" xlink:href="#DejaVuSans-30"/>
      </g>
     </g>
    </g>
   </g>
   <g id="line2d_19">
    <path clip-path="url(#pae6b173694)" d="M 590.4 768.96 
L 590.4 103.68 
" style="fill:none;stroke:#1f77b4;stroke-linecap:square;stroke-width:1.5;"/>
   </g>
   <g id="line2d_20">
    <path clip-path="url(#pae6b173694)" d="M 144 436.32 
L 1036.8 436.32 
" style="fill:none;stroke:#1f77b4;stroke-linecap:square;stroke-width:1.5;"/>
   </g>
   <g id="line2d_21">
    <defs>
     <path d="M 0 3 
C 0.795609 3 1.55874 2.683901 2.12132 2.12132 
C 2.683901 1.55874 3 0.795609 3 0 
C 3 -0.795609 2.683901 -1.55874 2.12132 -2.12132 
C 1.55874 -2.683901 0.795609 -3 0 -3 
C -0.795609 -3 -1.55874 -2.683901 -2.12132 -2.12132 
C -2.683901 -1.55874 -3 -0.795609 -3 0 
C -3 0.795609 -2.683901 1.55874 -2.12132 2.12132 
C -1.55874 2.683901 -0.795609 3 0 3 
z
" id="m4ca36011ce" style="stroke:#008000;"/>
    </defs>
    <g clip-path="url(#pae6b173694)">
     <use style="fill:#008000;stroke:#008000;" x="1353.284208" xlink:href="#m4ca36011ce" y="501.560339"/>
    </g>
   </g>
   <g id="line2d_22">
    <g clip-path="url(#pae6b173694)">
     <use style="fill:#008000;stroke:#008000;" x="646.576851" xlink:href="#m4ca36011ce" y="393.219524"/>
    </g>
   </g>
   <g id="line2d_23">
    <g clip-path="url(#pae6b173694)">
     <use style="fill:#008000;stroke:#008000;" x="646.576851" xlink:href="#m4ca36011ce" y="393.219524"/>
    </g>
   </g>
   <g id="line2d_24">
    <g clip-path="url(#pae6b173694)">
     <use style="fill:#008000;stroke:#008000;" x="772.976508" xlink:href="#m4ca36011ce" y="194.548378"/>
    </g>
   </g>
   <g id="line2d_25">
    <g clip-path="url(#pae6b173694)">
     <use style="fill:#008000;stroke:#008000;" x="543.372715" xlink:href="#m4ca36011ce" y="232.048512"/>
    </g>
   </g>
   <g id="line2d_26">
    <g clip-path="url(#pae6b173694)">
     <use style="fill:#008000;stroke:#008000;" x="571.834832" xlink:href="#m4ca36011ce" y="399.609383"/>
    </g>
   </g>
   <g id="line2d_27">
    <g clip-path="url(#pae6b173694)">
     <use style="fill:#008000;stroke:#008000;" x="571.834832" xlink:href="#m4ca36011ce" y="399.609383"/>
    </g>
   </g>
   <g id="line2d_28">
    <g clip-path="url(#pae6b173694)">
     <use style="fill:#008000;stroke:#008000;" x="441.166792" xlink:href="#m4ca36011ce" y="250.674528"/>
    </g>
   </g>
   <g id="line2d_29">
    <g clip-path="url(#pae6b173694)">
     <use style="fill:#008000;stroke:#008000;" x="447.997303" xlink:href="#m4ca36011ce" y="515.08605"/>
    </g>
   </g>
   <g id="line2d_30">
    <g clip-path="url(#pae6b173694)">
     <use style="fill:#008000;stroke:#008000;" x="566.360679" xlink:href="#m4ca36011ce" y="619.218084"/>
    </g>
   </g>
   <g id="line2d_31">
    <g clip-path="url(#pae6b173694)">
     <use style="fill:#008000;stroke:#008000;" x="1093.721312" xlink:href="#m4ca36011ce" y="518.288214"/>
    </g>
   </g>
   <g id="line2d_32">
    <defs>
     <path d="M 0 1.333333 
C 0.353604 1.333333 0.692773 1.192845 0.942809 0.942809 
C 1.192845 0.692773 1.333333 0.353604 1.333333 0 
C 1.333333 -0.353604 1.192845 -0.692773 0.942809 -0.942809 
C 0.692773 -1.192845 0.353604 -1.333333 0 -1.333333 
C -0.353604 -1.333333 -0.692773 -1.192845 -0.942809 -0.942809 
C -1.192845 -0.692773 -1.333333 -0.353604 -1.333333 0 
C -1.333333 0.353604 -1.192845 0.692773 -0.942809 0.942809 
C -0.692773 1.192845 -0.353604 1.333333 0 1.333333 
z
" id="m677afd0d46" style="stroke:#ff0000;"/>
    </defs>
    <g clip-path="url(#pae6b173694)">
     <use style="fill:#ff0000;stroke:#ff0000;" x="1149.256873" xlink:href="#m677afd0d46" y="500.88112"/>
     <use style="fill:#ff0000;stroke:#ff0000;" x="1353.284208" xlink:href="#m677afd0d46" y="501.560339"/>
     <use style="fill:#ff0000;stroke:#ff0000;" x="1286.574756" xlink:href="#m677afd0d46" y="345.139888"/>
     <use style="fill:#ff0000;stroke:#ff0000;" x="1277.690126" xlink:href="#m677afd0d46" y="324.537937"/>
     <use style="fill:#ff0000;stroke:#ff0000;" x="1365.562363" xlink:href="#m677afd0d46" y="285.423577"/>
     <use style="fill:#ff0000;stroke:#ff0000;" x="1318.575196" xlink:href="#m677afd0d46" y="270.428096"/>
     <use style="fill:#ff0000;stroke:#ff0000;" x="651.26827" xlink:href="#m677afd0d46" y="398.324419"/>
     <use style="fill:#ff0000;stroke:#ff0000;" x="641.113218" xlink:href="#m677afd0d46" y="388.437952"/>
     <use style="fill:#ff0000;stroke:#ff0000;" x="804.693518" xlink:href="#m677afd0d46" y="188.6588"/>
     <use style="fill:#ff0000;stroke:#ff0000;" x="782.850727" xlink:href="#m677afd0d46" y="193.318339"/>
     <use style="fill:#ff0000;stroke:#ff0000;" x="763.253163" xlink:href="#m677afd0d46" y="195.976623"/>
     <use style="fill:#ff0000;stroke:#ff0000;" x="543.372715" xlink:href="#m677afd0d46" y="232.048512"/>
     <use style="fill:#ff0000;stroke:#ff0000;" x="574.802654" xlink:href="#m677afd0d46" y="398.415331"/>
     <use style="fill:#ff0000;stroke:#ff0000;" x="569.005942" xlink:href="#m677afd0d46" y="400.93002"/>
     <use style="fill:#ff0000;stroke:#ff0000;" x="441.166792" xlink:href="#m677afd0d46" y="250.674528"/>
     <use style="fill:#ff0000;stroke:#ff0000;" x="393.675837" xlink:href="#m677afd0d46" y="290.367003"/>
     <use style="fill:#ff0000;stroke:#ff0000;" x="415.935961" xlink:href="#m677afd0d46" y="317.454047"/>
     <use style="fill:#ff0000;stroke:#ff0000;" x="432.170974" xlink:href="#m677afd0d46" y="345.591736"/>
     <use style="fill:#ff0000;stroke:#ff0000;" x="407.222028" xlink:href="#m677afd0d46" y="363.121294"/>
     <use style="fill:#ff0000;stroke:#ff0000;" x="455.119856" xlink:href="#m677afd0d46" y="393.238295"/>
     <use style="fill:#ff0000;stroke:#ff0000;" x="440.396329" xlink:href="#m677afd0d46" y="413.959405"/>
     <use style="fill:#ff0000;stroke:#ff0000;" x="410.526292" xlink:href="#m677afd0d46" y="442.062229"/>
     <use style="fill:#ff0000;stroke:#ff0000;" x="395.126844" xlink:href="#m677afd0d46" y="448.370994"/>
     <use style="fill:#ff0000;stroke:#ff0000;" x="401.251809" xlink:href="#m677afd0d46" y="465.676894"/>
     <use style="fill:#ff0000;stroke:#ff0000;" x="437.073629" xlink:href="#m677afd0d46" y="465.502428"/>
     <use style="fill:#ff0000;stroke:#ff0000;" x="403.777863" xlink:href="#m677afd0d46" y="477.347561"/>
     <use style="fill:#ff0000;stroke:#ff0000;" x="439.4304" xlink:href="#m677afd0d46" y="516.147256"/>
     <use style="fill:#ff0000;stroke:#ff0000;" x="456.431194" xlink:href="#m677afd0d46" y="513.789709"/>
     <use style="fill:#ff0000;stroke:#ff0000;" x="469.499716" xlink:href="#m677afd0d46" y="512.502682"/>
     <use style="fill:#ff0000;stroke:#ff0000;" x="457.319754" xlink:href="#m677afd0d46" y="527.139386"/>
     <use style="fill:#ff0000;stroke:#ff0000;" x="557.773026" xlink:href="#m677afd0d46" y="462.881353"/>
     <use style="fill:#ff0000;stroke:#ff0000;" x="578.218855" xlink:href="#m677afd0d46" y="494.346098"/>
     <use style="fill:#ff0000;stroke:#ff0000;" x="555.859745" xlink:href="#m677afd0d46" y="620.916675"/>
     <use style="fill:#ff0000;stroke:#ff0000;" x="576.616815" xlink:href="#m677afd0d46" y="617.192689"/>
     <use style="fill:#ff0000;stroke:#ff0000;" x="586.088013" xlink:href="#m677afd0d46" y="636.00289"/>
     <use style="fill:#ff0000;stroke:#ff0000;" x="597.02146" xlink:href="#m677afd0d46" y="644.244626"/>
     <use style="fill:#ff0000;stroke:#ff0000;" x="606.972263" xlink:href="#m677afd0d46" y="623.167894"/>
     <use style="fill:#ff0000;stroke:#ff0000;" x="619.984914" xlink:href="#m677afd0d46" y="640.706018"/>
     <use style="fill:#ff0000;stroke:#ff0000;" x="627.976419" xlink:href="#m677afd0d46" y="621.259959"/>
     <use style="fill:#ff0000;stroke:#ff0000;" x="647.171637" xlink:href="#m677afd0d46" y="615.104394"/>
     <use style="fill:#ff0000;stroke:#ff0000;" x="662.549342" xlink:href="#m677afd0d46" y="628.958186"/>
     <use style="fill:#ff0000;stroke:#ff0000;" x="666.146752" xlink:href="#m677afd0d46" y="609.713531"/>
     <use style="fill:#ff0000;stroke:#ff0000;" x="668.903238" xlink:href="#m677afd0d46" y="593.300681"/>
     <use style="fill:#ff0000;stroke:#ff0000;" x="705.125009" xlink:href="#m677afd0d46" y="600.980436"/>
     <use style="fill:#ff0000;stroke:#ff0000;" x="811.110791" xlink:href="#m677afd0d46" y="582.627973"/>
     <use style="fill:#ff0000;stroke:#ff0000;" x="850.845887" xlink:href="#m677afd0d46" y="569.625587"/>
     <use style="fill:#ff0000;stroke:#ff0000;" x="876.674176" xlink:href="#m677afd0d46" y="570.508853"/>
     <use style="fill:#ff0000;stroke:#ff0000;" x="894.337286" xlink:href="#m677afd0d46" y="554.062266"/>
     <use style="fill:#ff0000;stroke:#ff0000;" x="928.86146" xlink:href="#m677afd0d46" y="554.597259"/>
     <use style="fill:#ff0000;stroke:#ff0000;" x="1091.80041" xlink:href="#m677afd0d46" y="526.019229"/>
     <use style="fill:#ff0000;stroke:#ff0000;" x="1095.427769" xlink:href="#m677afd0d46" y="510.536204"/>
    </g>
   </g>
   <g id="line2d_33">
    <defs>
     <path d="M -0.5 0.5 
L 0.5 0.5 
L 0.5 -0.5 
L -0.5 -0.5 
z
" id="m22623fd07d" style="stroke:#1f77b4;stroke-linejoin:miter;"/>
    </defs>
    <g clip-path="url(#pae6b173694)">
     <use style="fill:#1f77b4;stroke:#1f77b4;stroke-linejoin:miter;" x="1149.256873" xlink:href="#m22623fd07d" y="500.88112"/>
     <use style="fill:#1f77b4;stroke:#1f77b4;stroke-linejoin:miter;" x="1353.284208" xlink:href="#m22623fd07d" y="501.560339"/>
     <use style="fill:#1f77b4;stroke:#1f77b4;stroke-linejoin:miter;" x="1286.574756" xlink:href="#m22623fd07d" y="345.139888"/>
     <use style="fill:#1f77b4;stroke:#1f77b4;stroke-linejoin:miter;" x="1277.690126" xlink:href="#m22623fd07d" y="324.537937"/>
     <use style="fill:#1f77b4;stroke:#1f77b4;stroke-linejoin:miter;" x="1365.562363" xlink:href="#m22623fd07d" y="285.423577"/>
     <use style="fill:#1f77b4;stroke:#1f77b4;stroke-linejoin:miter;" x="1318.575196" xlink:href="#m22623fd07d" y="270.428096"/>
     <use style="fill:#1f77b4;stroke:#1f77b4;stroke-linejoin:miter;" x="651.26827" xlink:href="#m22623fd07d" y="398.324419"/>
     <use style="fill:#1f77b4;stroke:#1f77b4;stroke-linejoin:miter;" x="646.804137" xlink:href="#m22623fd07d" y="397.869647"/>
     <use style="fill:#1f77b4;stroke:#1f77b4;stroke-linejoin:miter;" x="645.414001" xlink:href="#m22623fd07d" y="395.637532"/>
     <use style="fill:#1f77b4;stroke:#1f77b4;stroke-linejoin:miter;" x="643.859945" xlink:href="#m22623fd07d" y="393.390054"/>
     <use style="fill:#1f77b4;stroke:#1f77b4;stroke-linejoin:miter;" x="641.696592" xlink:href="#m22623fd07d" y="391.811528"/>
     <use style="fill:#1f77b4;stroke:#1f77b4;stroke-linejoin:miter;" x="641.113218" xlink:href="#m22623fd07d" y="388.437952"/>
     <use style="fill:#1f77b4;stroke:#1f77b4;stroke-linejoin:miter;" x="804.693518" xlink:href="#m22623fd07d" y="188.6588"/>
     <use style="fill:#1f77b4;stroke:#1f77b4;stroke-linejoin:miter;" x="782.850727" xlink:href="#m22623fd07d" y="193.318339"/>
     <use style="fill:#1f77b4;stroke:#1f77b4;stroke-linejoin:miter;" x="763.253163" xlink:href="#m22623fd07d" y="195.976623"/>
     <use style="fill:#1f77b4;stroke:#1f77b4;stroke-linejoin:miter;" x="744.685029" xlink:href="#m22623fd07d" y="198.63121"/>
     <use style="fill:#1f77b4;stroke:#1f77b4;stroke-linejoin:miter;" x="727.414265" xlink:href="#m22623fd07d" y="200.98498"/>
     <use style="fill:#1f77b4;stroke:#1f77b4;stroke-linejoin:miter;" x="710.545967" xlink:href="#m22623fd07d" y="204.415431"/>
     <use style="fill:#1f77b4;stroke:#1f77b4;stroke-linejoin:miter;" x="695.243185" xlink:href="#m22623fd07d" y="205.964561"/>
     <use style="fill:#1f77b4;stroke:#1f77b4;stroke-linejoin:miter;" x="680.10771" xlink:href="#m22623fd07d" y="208.827922"/>
     <use style="fill:#1f77b4;stroke:#1f77b4;stroke-linejoin:miter;" x="665.882482" xlink:href="#m22623fd07d" y="210.988912"/>
     <use style="fill:#1f77b4;stroke:#1f77b4;stroke-linejoin:miter;" x="652.169179" xlink:href="#m22623fd07d" y="213.201362"/>
     <use style="fill:#1f77b4;stroke:#1f77b4;stroke-linejoin:miter;" x="639.375865" xlink:href="#m22623fd07d" y="214.520914"/>
     <use style="fill:#1f77b4;stroke:#1f77b4;stroke-linejoin:miter;" x="625.547046" xlink:href="#m22623fd07d" y="217.089053"/>
     <use style="fill:#1f77b4;stroke:#1f77b4;stroke-linejoin:miter;" x="613.009879" xlink:href="#m22623fd07d" y="219.218297"/>
     <use style="fill:#1f77b4;stroke:#1f77b4;stroke-linejoin:miter;" x="600.766442" xlink:href="#m22623fd07d" y="221.823089"/>
     <use style="fill:#1f77b4;stroke:#1f77b4;stroke-linejoin:miter;" x="589.077708" xlink:href="#m22623fd07d" y="223.786114"/>
     <use style="fill:#1f77b4;stroke:#1f77b4;stroke-linejoin:miter;" x="577.273572" xlink:href="#m22623fd07d" y="225.486693"/>
     <use style="fill:#1f77b4;stroke:#1f77b4;stroke-linejoin:miter;" x="565.755276" xlink:href="#m22623fd07d" y="226.415152"/>
     <use style="fill:#1f77b4;stroke:#1f77b4;stroke-linejoin:miter;" x="554.225041" xlink:href="#m22623fd07d" y="228.057482"/>
     <use style="fill:#1f77b4;stroke:#1f77b4;stroke-linejoin:miter;" x="543.372715" xlink:href="#m22623fd07d" y="232.048512"/>
     <use style="fill:#1f77b4;stroke:#1f77b4;stroke-linejoin:miter;" x="574.802654" xlink:href="#m22623fd07d" y="398.415331"/>
     <use style="fill:#1f77b4;stroke:#1f77b4;stroke-linejoin:miter;" x="573.528298" xlink:href="#m22623fd07d" y="400.631901"/>
     <use style="fill:#1f77b4;stroke:#1f77b4;stroke-linejoin:miter;" x="571.537832" xlink:href="#m22623fd07d" y="401.256771"/>
     <use style="fill:#1f77b4;stroke:#1f77b4;stroke-linejoin:miter;" x="569.005942" xlink:href="#m22623fd07d" y="400.93002"/>
     <use style="fill:#1f77b4;stroke:#1f77b4;stroke-linejoin:miter;" x="441.166792" xlink:href="#m22623fd07d" y="250.674528"/>
     <use style="fill:#1f77b4;stroke:#1f77b4;stroke-linejoin:miter;" x="428.220061" xlink:href="#m22623fd07d" y="252.211866"/>
     <use style="fill:#1f77b4;stroke:#1f77b4;stroke-linejoin:miter;" x="418.511822" xlink:href="#m22623fd07d" y="257.578404"/>
     <use style="fill:#1f77b4;stroke:#1f77b4;stroke-linejoin:miter;" x="409.555461" xlink:href="#m22623fd07d" y="263.740189"/>
     <use style="fill:#1f77b4;stroke:#1f77b4;stroke-linejoin:miter;" x="401.607743" xlink:href="#m22623fd07d" y="270.600012"/>
     <use style="fill:#1f77b4;stroke:#1f77b4;stroke-linejoin:miter;" x="389.997073" xlink:href="#m22623fd07d" y="274.596138"/>
     <use style="fill:#1f77b4;stroke:#1f77b4;stroke-linejoin:miter;" x="393.675837" xlink:href="#m22623fd07d" y="290.367003"/>
     <use style="fill:#1f77b4;stroke:#1f77b4;stroke-linejoin:miter;" x="415.935961" xlink:href="#m22623fd07d" y="317.454047"/>
     <use style="fill:#1f77b4;stroke:#1f77b4;stroke-linejoin:miter;" x="432.170974" xlink:href="#m22623fd07d" y="345.591736"/>
     <use style="fill:#1f77b4;stroke:#1f77b4;stroke-linejoin:miter;" x="421.112656" xlink:href="#m22623fd07d" y="347.168556"/>
     <use style="fill:#1f77b4;stroke:#1f77b4;stroke-linejoin:miter;" x="420.933318" xlink:href="#m22623fd07d" y="354.75275"/>
     <use style="fill:#1f77b4;stroke:#1f77b4;stroke-linejoin:miter;" x="409.8977" xlink:href="#m22623fd07d" y="356.99264"/>
     <use style="fill:#1f77b4;stroke:#1f77b4;stroke-linejoin:miter;" x="407.222028" xlink:href="#m22623fd07d" y="363.121294"/>
     <use style="fill:#1f77b4;stroke:#1f77b4;stroke-linejoin:miter;" x="455.119856" xlink:href="#m22623fd07d" y="393.238295"/>
     <use style="fill:#1f77b4;stroke:#1f77b4;stroke-linejoin:miter;" x="455.824683" xlink:href="#m22623fd07d" y="398.389719"/>
     <use style="fill:#1f77b4;stroke:#1f77b4;stroke-linejoin:miter;" x="456.705399" xlink:href="#m22623fd07d" y="403.318238"/>
     <use style="fill:#1f77b4;stroke:#1f77b4;stroke-linejoin:miter;" x="458.385574" xlink:href="#m22623fd07d" y="408.141302"/>
     <use style="fill:#1f77b4;stroke:#1f77b4;stroke-linejoin:miter;" x="458.206389" xlink:href="#m22623fd07d" y="412.471935"/>
     <use style="fill:#1f77b4;stroke:#1f77b4;stroke-linejoin:miter;" x="440.396329" xlink:href="#m22623fd07d" y="413.959405"/>
     <use style="fill:#1f77b4;stroke:#1f77b4;stroke-linejoin:miter;" x="424.03544" xlink:href="#m22623fd07d" y="416.58135"/>
     <use style="fill:#1f77b4;stroke:#1f77b4;stroke-linejoin:miter;" x="425.408375" xlink:href="#m22623fd07d" y="421.938418"/>
     <use style="fill:#1f77b4;stroke:#1f77b4;stroke-linejoin:miter;" x="419.03322" xlink:href="#m22623fd07d" y="426.585409"/>
     <use style="fill:#1f77b4;stroke:#1f77b4;stroke-linejoin:miter;" x="420.20377" xlink:href="#m22623fd07d" y="431.856593"/>
     <use style="fill:#1f77b4;stroke:#1f77b4;stroke-linejoin:miter;" x="420.657031" xlink:href="#m22623fd07d" y="436.664938"/>
     <use style="fill:#1f77b4;stroke:#1f77b4;stroke-linejoin:miter;" x="410.526292" xlink:href="#m22623fd07d" y="442.062229"/>
     <use style="fill:#1f77b4;stroke:#1f77b4;stroke-linejoin:miter;" x="395.126844" xlink:href="#m22623fd07d" y="448.370994"/>
     <use style="fill:#1f77b4;stroke:#1f77b4;stroke-linejoin:miter;" x="397.425534" xlink:href="#m22623fd07d" y="454.214947"/>
     <use style="fill:#1f77b4;stroke:#1f77b4;stroke-linejoin:miter;" x="399.129706" xlink:href="#m22623fd07d" y="459.931202"/>
     <use style="fill:#1f77b4;stroke:#1f77b4;stroke-linejoin:miter;" x="401.251809" xlink:href="#m22623fd07d" y="465.676894"/>
     <use style="fill:#1f77b4;stroke:#1f77b4;stroke-linejoin:miter;" x="437.073629" xlink:href="#m22623fd07d" y="465.502428"/>
     <use style="fill:#1f77b4;stroke:#1f77b4;stroke-linejoin:miter;" x="403.777863" xlink:href="#m22623fd07d" y="477.347561"/>
     <use style="fill:#1f77b4;stroke:#1f77b4;stroke-linejoin:miter;" x="404.890139" xlink:href="#m22623fd07d" y="483.454686"/>
     <use style="fill:#1f77b4;stroke:#1f77b4;stroke-linejoin:miter;" x="406.748127" xlink:href="#m22623fd07d" y="489.151851"/>
     <use style="fill:#1f77b4;stroke:#1f77b4;stroke-linejoin:miter;" x="408.237643" xlink:href="#m22623fd07d" y="495.517726"/>
     <use style="fill:#1f77b4;stroke:#1f77b4;stroke-linejoin:miter;" x="411.731194" xlink:href="#m22623fd07d" y="507.997564"/>
     <use style="fill:#1f77b4;stroke:#1f77b4;stroke-linejoin:miter;" x="439.4304" xlink:href="#m22623fd07d" y="516.147256"/>
     <use style="fill:#1f77b4;stroke:#1f77b4;stroke-linejoin:miter;" x="456.431194" xlink:href="#m22623fd07d" y="513.789709"/>
     <use style="fill:#1f77b4;stroke:#1f77b4;stroke-linejoin:miter;" x="469.499716" xlink:href="#m22623fd07d" y="512.502682"/>
     <use style="fill:#1f77b4;stroke:#1f77b4;stroke-linejoin:miter;" x="457.319754" xlink:href="#m22623fd07d" y="527.139386"/>
     <use style="fill:#1f77b4;stroke:#1f77b4;stroke-linejoin:miter;" x="557.773026" xlink:href="#m22623fd07d" y="462.881353"/>
     <use style="fill:#1f77b4;stroke:#1f77b4;stroke-linejoin:miter;" x="559.056953" xlink:href="#m22623fd07d" y="463.726404"/>
     <use style="fill:#1f77b4;stroke:#1f77b4;stroke-linejoin:miter;" x="559.602738" xlink:href="#m22623fd07d" y="465.430576"/>
     <use style="fill:#1f77b4;stroke:#1f77b4;stroke-linejoin:miter;" x="558.430495" xlink:href="#m22623fd07d" y="468.865508"/>
     <use style="fill:#1f77b4;stroke:#1f77b4;stroke-linejoin:miter;" x="558.46111" xlink:href="#m22623fd07d" y="471.87565"/>
     <use style="fill:#1f77b4;stroke:#1f77b4;stroke-linejoin:miter;" x="559.657432" xlink:href="#m22623fd07d" y="473.657013"/>
     <use style="fill:#1f77b4;stroke:#1f77b4;stroke-linejoin:miter;" x="561.253093" xlink:href="#m22623fd07d" y="475.077532"/>
     <use style="fill:#1f77b4;stroke:#1f77b4;stroke-linejoin:miter;" x="562.688652" xlink:href="#m22623fd07d" y="476.547993"/>
     <use style="fill:#1f77b4;stroke:#1f77b4;stroke-linejoin:miter;" x="564.902798" xlink:href="#m22623fd07d" y="477.444636"/>
     <use style="fill:#1f77b4;stroke:#1f77b4;stroke-linejoin:miter;" x="566.995639" xlink:href="#m22623fd07d" y="478.84978"/>
     <use style="fill:#1f77b4;stroke:#1f77b4;stroke-linejoin:miter;" x="568.823608" xlink:href="#m22623fd07d" y="480.269759"/>
     <use style="fill:#1f77b4;stroke:#1f77b4;stroke-linejoin:miter;" x="570.717778" xlink:href="#m22623fd07d" y="482.137914"/>
     <use style="fill:#1f77b4;stroke:#1f77b4;stroke-linejoin:miter;" x="572.437668" xlink:href="#m22623fd07d" y="484.128191"/>
     <use style="fill:#1f77b4;stroke:#1f77b4;stroke-linejoin:miter;" x="574.59147" xlink:href="#m22623fd07d" y="486.408687"/>
     <use style="fill:#1f77b4;stroke:#1f77b4;stroke-linejoin:miter;" x="576.297736" xlink:href="#m22623fd07d" y="489.681773"/>
     <use style="fill:#1f77b4;stroke:#1f77b4;stroke-linejoin:miter;" x="578.218855" xlink:href="#m22623fd07d" y="494.346098"/>
     <use style="fill:#1f77b4;stroke:#1f77b4;stroke-linejoin:miter;" x="555.859745" xlink:href="#m22623fd07d" y="620.916675"/>
     <use style="fill:#1f77b4;stroke:#1f77b4;stroke-linejoin:miter;" x="565.836954" xlink:href="#m22623fd07d" y="622.678842"/>
     <use style="fill:#1f77b4;stroke:#1f77b4;stroke-linejoin:miter;" x="576.616815" xlink:href="#m22623fd07d" y="617.192689"/>
     <use style="fill:#1f77b4;stroke:#1f77b4;stroke-linejoin:miter;" x="586.088013" xlink:href="#m22623fd07d" y="636.00289"/>
     <use style="fill:#1f77b4;stroke:#1f77b4;stroke-linejoin:miter;" x="597.02146" xlink:href="#m22623fd07d" y="644.244626"/>
     <use style="fill:#1f77b4;stroke:#1f77b4;stroke-linejoin:miter;" x="606.972263" xlink:href="#m22623fd07d" y="623.167894"/>
     <use style="fill:#1f77b4;stroke:#1f77b4;stroke-linejoin:miter;" x="619.984914" xlink:href="#m22623fd07d" y="640.706018"/>
     <use style="fill:#1f77b4;stroke:#1f77b4;stroke-linejoin:miter;" x="627.976419" xlink:href="#m22623fd07d" y="621.259959"/>
     <use style="fill:#1f77b4;stroke:#1f77b4;stroke-linejoin:miter;" x="647.171637" xlink:href="#m22623fd07d" y="615.104394"/>
     <use style="fill:#1f77b4;stroke:#1f77b4;stroke-linejoin:miter;" x="662.549342" xlink:href="#m22623fd07d" y="628.958186"/>
     <use style="fill:#1f77b4;stroke:#1f77b4;stroke-linejoin:miter;" x="666.146752" xlink:href="#m22623fd07d" y="609.713531"/>
     <use style="fill:#1f77b4;stroke:#1f77b4;stroke-linejoin:miter;" x="668.903238" xlink:href="#m22623fd07d" y="593.300681"/>
     <use style="fill:#1f77b4;stroke:#1f77b4;stroke-linejoin:miter;" x="681.763249" xlink:href="#m22623fd07d" y="598.673223"/>
     <use style="fill:#1f77b4;stroke:#1f77b4;stroke-linejoin:miter;" x="692.20613" xlink:href="#m22623fd07d" y="598.084222"/>
     <use style="fill:#1f77b4;stroke:#1f77b4;stroke-linejoin:miter;" x="705.125009" xlink:href="#m22623fd07d" y="600.980436"/>
     <use style="fill:#1f77b4;stroke:#1f77b4;stroke-linejoin:miter;" x="759.232865" xlink:href="#m22623fd07d" y="591.419966"/>
     <use style="fill:#1f77b4;stroke:#1f77b4;stroke-linejoin:miter;" x="769.042497" xlink:href="#m22623fd07d" y="587.445014"/>
     <use style="fill:#1f77b4;stroke:#1f77b4;stroke-linejoin:miter;" x="780.953806" xlink:href="#m22623fd07d" y="584.972437"/>
     <use style="fill:#1f77b4;stroke:#1f77b4;stroke-linejoin:miter;" x="796.161278" xlink:href="#m22623fd07d" y="584.223032"/>
     <use style="fill:#1f77b4;stroke:#1f77b4;stroke-linejoin:miter;" x="811.110791" xlink:href="#m22623fd07d" y="582.627973"/>
     <use style="fill:#1f77b4;stroke:#1f77b4;stroke-linejoin:miter;" x="830.817908" xlink:href="#m22623fd07d" y="583.26296"/>
     <use style="fill:#1f77b4;stroke:#1f77b4;stroke-linejoin:miter;" x="836.143515" xlink:href="#m22623fd07d" y="573.450426"/>
     <use style="fill:#1f77b4;stroke:#1f77b4;stroke-linejoin:miter;" x="850.845887" xlink:href="#m22623fd07d" y="569.625587"/>
     <use style="fill:#1f77b4;stroke:#1f77b4;stroke-linejoin:miter;" x="876.674176" xlink:href="#m22623fd07d" y="570.508853"/>
     <use style="fill:#1f77b4;stroke:#1f77b4;stroke-linejoin:miter;" x="879.197033" xlink:href="#m22623fd07d" y="559.62877"/>
     <use style="fill:#1f77b4;stroke:#1f77b4;stroke-linejoin:miter;" x="894.337286" xlink:href="#m22623fd07d" y="554.062266"/>
     <use style="fill:#1f77b4;stroke:#1f77b4;stroke-linejoin:miter;" x="928.86146" xlink:href="#m22623fd07d" y="554.597259"/>
     <use style="fill:#1f77b4;stroke:#1f77b4;stroke-linejoin:miter;" x="1091.80041" xlink:href="#m22623fd07d" y="526.019229"/>
     <use style="fill:#1f77b4;stroke:#1f77b4;stroke-linejoin:miter;" x="1095.427769" xlink:href="#m22623fd07d" y="510.536204"/>
    </g>
   </g>
   <g id="patch_3">
    <path d="M 144 768.96 
L 144 103.68 
" style="fill:none;stroke:#000000;stroke-linecap:square;stroke-linejoin:miter;stroke-width:0.8;"/>
   </g>
   <g id="patch_4">
    <path d="M 1036.8 768.96 
L 1036.8 103.68 
" style="fill:none;stroke:#000000;stroke-linecap:square;stroke-linejoin:miter;stroke-width:0.8;"/>
   </g>
   <g id="patch_5">
    <path d="M 144 768.96 
L 1036.8 768.96 
" style="fill:none;stroke:#000000;stroke-linecap:square;stroke-linejoin:miter;stroke-width:0.8;"/>
   </g>
   <g id="patch_6">
    <path d="M 144 103.68 
L 1036.8 103.68 
" style="fill:none;stroke:#000000;stroke-linecap:square;stroke-linejoin:miter;stroke-width:0.8;"/>
   </g>
  </g>
 </g>
 <defs>
  <clipPath id="pae6b173694">
   <rect height="665.28" width="892.8" x="144" y="103.68"/>
  </clipPath>
 </defs>
</svg>
