<?xml version="1.0" encoding="utf-8" standalone="no"?>
<!DOCTYPE svg PUBLIC "-//W3C//DTD SVG 1.1//EN"
  "http://www.w3.org/Graphics/SVG/1.1/DTD/svg11.dtd">
<!-- Created with matplotlib (http://matplotlib.org/) -->
<svg height="864pt" version="1.1" viewBox="0 0 1152 864" width="1152pt" xmlns="http://www.w3.org/2000/svg" xmlns:xlink="http://www.w3.org/1999/xlink">
 <defs>
  <style type="text/css">
*{stroke-linecap:butt;stroke-linejoin:round;}
  </style>
 </defs>
 <g id="figure_1">
  <g id="patch_1">
   <path d="M 0 864 
L 1152 864 
L 1152 0 
L 0 0 
z
" style="fill:#ffffff;"/>
  </g>
  <g id="axes_1">
   <g id="patch_2">
    <path d="M 144 768.96 
L 1036.8 768.96 
L 1036.8 103.68 
L 144 103.68 
z
" style="fill:#ffffff;"/>
   </g>
   <g id="matplotlib.axis_1">
    <g id="xtick_1">
     <g id="line2d_1">
      <defs>
       <path d="M 0 0 
L 0 3.5 
" id="mfd71814b8e" style="stroke:#000000;stroke-width:0.8;"/>
      </defs>
      <g>
       <use style="stroke:#000000;stroke-width:0.8;" x="144" xlink:href="#mfd71814b8e" y="768.96"/>
      </g>
     </g>
     <g id="text_1">
      <!-- −4000 -->
      <defs>
       <path d="M 10.59375 35.5 
L 73.1875 35.5 
L 73.1875 27.203125 
L 10.59375 27.203125 
z
" id="DejaVuSans-2212"/>
       <path d="M 37.796875 64.3125 
L 12.890625 25.390625 
L 37.796875 25.390625 
z
M 35.203125 72.90625 
L 47.609375 72.90625 
L 47.609375 25.390625 
L 58.015625 25.390625 
L 58.015625 17.1875 
L 47.609375 17.1875 
L 47.609375 0 
L 37.796875 0 
L 37.796875 17.1875 
L 4.890625 17.1875 
L 4.890625 26.703125 
z
" id="DejaVuSans-34"/>
       <path d="M 31.78125 66.40625 
Q 24.171875 66.40625 20.328125 58.90625 
Q 16.5 51.421875 16.5 36.375 
Q 16.5 21.390625 20.328125 13.890625 
Q 24.171875 6.390625 31.78125 6.390625 
Q 39.453125 6.390625 43.28125 13.890625 
Q 47.125 21.390625 47.125 36.375 
Q 47.125 51.421875 43.28125 58.90625 
Q 39.453125 66.40625 31.78125 66.40625 
z
M 31.78125 74.21875 
Q 44.046875 74.21875 50.515625 64.515625 
Q 56.984375 54.828125 56.984375 36.375 
Q 56.984375 17.96875 50.515625 8.265625 
Q 44.046875 -1.421875 31.78125 -1.421875 
Q 19.53125 -1.421875 13.0625 8.265625 
Q 6.59375 17.96875 6.59375 36.375 
Q 6.59375 54.828125 13.0625 64.515625 
Q 19.53125 74.21875 31.78125 74.21875 
z
" id="DejaVuSans-30"/>
      </defs>
      <g transform="translate(127.085156 783.558437)scale(0.1 -0.1)">
       <use xlink:href="#DejaVuSans-2212"/>
       <use x="83.789062" xlink:href="#DejaVuSans-34"/>
       <use x="147.412109" xlink:href="#DejaVuSans-30"/>
       <use x="211.035156" xlink:href="#DejaVuSans-30"/>
       <use x="274.658203" xlink:href="#DejaVuSans-30"/>
      </g>
     </g>
    </g>
    <g id="xtick_2">
     <g id="line2d_2">
      <g>
       <use style="stroke:#000000;stroke-width:0.8;" x="255.6" xlink:href="#mfd71814b8e" y="768.96"/>
      </g>
     </g>
     <g id="text_2">
      <!-- −3000 -->
      <defs>
       <path d="M 40.578125 39.3125 
Q 47.65625 37.796875 51.625 33 
Q 55.609375 28.21875 55.609375 21.1875 
Q 55.609375 10.40625 48.1875 4.484375 
Q 40.765625 -1.421875 27.09375 -1.421875 
Q 22.515625 -1.421875 17.65625 -0.515625 
Q 12.796875 0.390625 7.625 2.203125 
L 7.625 11.71875 
Q 11.71875 9.328125 16.59375 8.109375 
Q 21.484375 6.890625 26.8125 6.890625 
Q 36.078125 6.890625 40.9375 10.546875 
Q 45.796875 14.203125 45.796875 21.1875 
Q 45.796875 27.640625 41.28125 31.265625 
Q 36.765625 34.90625 28.71875 34.90625 
L 20.21875 34.90625 
L 20.21875 43.015625 
L 29.109375 43.015625 
Q 36.375 43.015625 40.234375 45.921875 
Q 44.09375 48.828125 44.09375 54.296875 
Q 44.09375 59.90625 40.109375 62.90625 
Q 36.140625 65.921875 28.71875 65.921875 
Q 24.65625 65.921875 20.015625 65.03125 
Q 15.375 64.15625 9.8125 62.3125 
L 9.8125 71.09375 
Q 15.4375 72.65625 20.34375 73.4375 
Q 25.25 74.21875 29.59375 74.21875 
Q 40.828125 74.21875 47.359375 69.109375 
Q 53.90625 64.015625 53.90625 55.328125 
Q 53.90625 49.265625 50.4375 45.09375 
Q 46.96875 40.921875 40.578125 39.3125 
z
" id="DejaVuSans-33"/>
      </defs>
      <g transform="translate(238.685156 783.558437)scale(0.1 -0.1)">
       <use xlink:href="#DejaVuSans-2212"/>
       <use x="83.789062" xlink:href="#DejaVuSans-33"/>
       <use x="147.412109" xlink:href="#DejaVuSans-30"/>
       <use x="211.035156" xlink:href="#DejaVuSans-30"/>
       <use x="274.658203" xlink:href="#DejaVuSans-30"/>
      </g>
     </g>
    </g>
    <g id="xtick_3">
     <g id="line2d_3">
      <g>
       <use style="stroke:#000000;stroke-width:0.8;" x="367.2" xlink:href="#mfd71814b8e" y="768.96"/>
      </g>
     </g>
     <g id="text_3">
      <!-- −2000 -->
      <defs>
       <path d="M 19.1875 8.296875 
L 53.609375 8.296875 
L 53.609375 0 
L 7.328125 0 
L 7.328125 8.296875 
Q 12.9375 14.109375 22.625 23.890625 
Q 32.328125 33.6875 34.8125 36.53125 
Q 39.546875 41.84375 41.421875 45.53125 
Q 43.3125 49.21875 43.3125 52.78125 
Q 43.3125 58.59375 39.234375 62.25 
Q 35.15625 65.921875 28.609375 65.921875 
Q 23.96875 65.921875 18.8125 64.3125 
Q 13.671875 62.703125 7.8125 59.421875 
L 7.8125 69.390625 
Q 13.765625 71.78125 18.9375 73 
Q 24.125 74.21875 28.421875 74.21875 
Q 39.75 74.21875 46.484375 68.546875 
Q 53.21875 62.890625 53.21875 53.421875 
Q 53.21875 48.921875 51.53125 44.890625 
Q 49.859375 40.875 45.40625 35.40625 
Q 44.1875 33.984375 37.640625 27.21875 
Q 31.109375 20.453125 19.1875 8.296875 
z
" id="DejaVuSans-32"/>
      </defs>
      <g transform="translate(350.285156 783.558437)scale(0.1 -0.1)">
       <use xlink:href="#DejaVuSans-2212"/>
       <use x="83.789062" xlink:href="#DejaVuSans-32"/>
       <use x="147.412109" xlink:href="#DejaVuSans-30"/>
       <use x="211.035156" xlink:href="#DejaVuSans-30"/>
       <use x="274.658203" xlink:href="#DejaVuSans-30"/>
      </g>
     </g>
    </g>
    <g id="xtick_4">
     <g id="line2d_4">
      <g>
       <use style="stroke:#000000;stroke-width:0.8;" x="478.8" xlink:href="#mfd71814b8e" y="768.96"/>
      </g>
     </g>
     <g id="text_4">
      <!-- −1000 -->
      <defs>
       <path d="M 12.40625 8.296875 
L 28.515625 8.296875 
L 28.515625 63.921875 
L 10.984375 60.40625 
L 10.984375 69.390625 
L 28.421875 72.90625 
L 38.28125 72.90625 
L 38.28125 8.296875 
L 54.390625 8.296875 
L 54.390625 0 
L 12.40625 0 
z
" id="DejaVuSans-31"/>
      </defs>
      <g transform="translate(461.885156 783.558437)scale(0.1 -0.1)">
       <use xlink:href="#DejaVuSans-2212"/>
       <use x="83.789062" xlink:href="#DejaVuSans-31"/>
       <use x="147.412109" xlink:href="#DejaVuSans-30"/>
       <use x="211.035156" xlink:href="#DejaVuSans-30"/>
       <use x="274.658203" xlink:href="#DejaVuSans-30"/>
      </g>
     </g>
    </g>
    <g id="xtick_5">
     <g id="line2d_5">
      <g>
       <use style="stroke:#000000;stroke-width:0.8;" x="590.4" xlink:href="#mfd71814b8e" y="768.96"/>
      </g>
     </g>
     <g id="text_5">
      <!-- 0 -->
      <g transform="translate(587.21875 783.558437)scale(0.1 -0.1)">
       <use xlink:href="#DejaVuSans-30"/>
      </g>
     </g>
    </g>
    <g id="xtick_6">
     <g id="line2d_6">
      <g>
       <use style="stroke:#000000;stroke-width:0.8;" x="702" xlink:href="#mfd71814b8e" y="768.96"/>
      </g>
     </g>
     <g id="text_6">
      <!-- 1000 -->
      <g transform="translate(689.275 783.558437)scale(0.1 -0.1)">
       <use xlink:href="#DejaVuSans-31"/>
       <use x="63.623047" xlink:href="#DejaVuSans-30"/>
       <use x="127.246094" xlink:href="#DejaVuSans-30"/>
       <use x="190.869141" xlink:href="#DejaVuSans-30"/>
      </g>
     </g>
    </g>
    <g id="xtick_7">
     <g id="line2d_7">
      <g>
       <use style="stroke:#000000;stroke-width:0.8;" x="813.6" xlink:href="#mfd71814b8e" y="768.96"/>
      </g>
     </g>
     <g id="text_7">
      <!-- 2000 -->
      <g transform="translate(800.875 783.558437)scale(0.1 -0.1)">
       <use xlink:href="#DejaVuSans-32"/>
       <use x="63.623047" xlink:href="#DejaVuSans-30"/>
       <use x="127.246094" xlink:href="#DejaVuSans-30"/>
       <use x="190.869141" xlink:href="#DejaVuSans-30"/>
      </g>
     </g>
    </g>
    <g id="xtick_8">
     <g id="line2d_8">
      <g>
       <use style="stroke:#000000;stroke-width:0.8;" x="925.2" xlink:href="#mfd71814b8e" y="768.96"/>
      </g>
     </g>
     <g id="text_8">
      <!-- 3000 -->
      <g transform="translate(912.475 783.558437)scale(0.1 -0.1)">
       <use xlink:href="#DejaVuSans-33"/>
       <use x="63.623047" xlink:href="#DejaVuSans-30"/>
       <use x="127.246094" xlink:href="#DejaVuSans-30"/>
       <use x="190.869141" xlink:href="#DejaVuSans-30"/>
      </g>
     </g>
    </g>
    <g id="xtick_9">
     <g id="line2d_9">
      <g>
       <use style="stroke:#000000;stroke-width:0.8;" x="1036.8" xlink:href="#mfd71814b8e" y="768.96"/>
      </g>
     </g>
     <g id="text_9">
      <!-- 4000 -->
      <g transform="translate(1024.075 783.558437)scale(0.1 -0.1)">
       <use xlink:href="#DejaVuSans-34"/>
       <use x="63.623047" xlink:href="#DejaVuSans-30"/>
       <use x="127.246094" xlink:href="#DejaVuSans-30"/>
       <use x="190.869141" xlink:href="#DejaVuSans-30"/>
      </g>
     </g>
    </g>
   </g>
   <g id="matplotlib.axis_2">
    <g id="ytick_1">
     <g id="line2d_10">
      <defs>
       <path d="M 0 0 
L -3.5 0 
" id="ma1fc589a5a" style="stroke:#000000;stroke-width:0.8;"/>
      </defs>
      <g>
       <use style="stroke:#000000;stroke-width:0.8;" x="144" xlink:href="#ma1fc589a5a" y="768.96"/>
      </g>
     </g>
     <g id="text_10">
      <!-- −4000 -->
      <g transform="translate(103.170312 772.759219)scale(0.1 -0.1)">
       <use xlink:href="#DejaVuSans-2212"/>
       <use x="83.789062" xlink:href="#DejaVuSans-34"/>
       <use x="147.412109" xlink:href="#DejaVuSans-30"/>
       <use x="211.035156" xlink:href="#DejaVuSans-30"/>
       <use x="274.658203" xlink:href="#DejaVuSans-30"/>
      </g>
     </g>
    </g>
    <g id="ytick_2">
     <g id="line2d_11">
      <g>
       <use style="stroke:#000000;stroke-width:0.8;" x="144" xlink:href="#ma1fc589a5a" y="685.8"/>
      </g>
     </g>
     <g id="text_11">
      <!-- −3000 -->
      <g transform="translate(103.170312 689.599219)scale(0.1 -0.1)">
       <use xlink:href="#DejaVuSans-2212"/>
       <use x="83.789062" xlink:href="#DejaVuSans-33"/>
       <use x="147.412109" xlink:href="#DejaVuSans-30"/>
       <use x="211.035156" xlink:href="#DejaVuSans-30"/>
       <use x="274.658203" xlink:href="#DejaVuSans-30"/>
      </g>
     </g>
    </g>
    <g id="ytick_3">
     <g id="line2d_12">
      <g>
       <use style="stroke:#000000;stroke-width:0.8;" x="144" xlink:href="#ma1fc589a5a" y="602.64"/>
      </g>
     </g>
     <g id="text_12">
      <!-- −2000 -->
      <g transform="translate(103.170312 606.439219)scale(0.1 -0.1)">
       <use xlink:href="#DejaVuSans-2212"/>
       <use x="83.789062" xlink:href="#DejaVuSans-32"/>
       <use x="147.412109" xlink:href="#DejaVuSans-30"/>
       <use x="211.035156" xlink:href="#DejaVuSans-30"/>
       <use x="274.658203" xlink:href="#DejaVuSans-30"/>
      </g>
     </g>
    </g>
    <g id="ytick_4">
     <g id="line2d_13">
      <g>
       <use style="stroke:#000000;stroke-width:0.8;" x="144" xlink:href="#ma1fc589a5a" y="519.48"/>
      </g>
     </g>
     <g id="text_13">
      <!-- −1000 -->
      <g transform="translate(103.170312 523.279219)scale(0.1 -0.1)">
       <use xlink:href="#DejaVuSans-2212"/>
       <use x="83.789062" xlink:href="#DejaVuSans-31"/>
       <use x="147.412109" xlink:href="#DejaVuSans-30"/>
       <use x="211.035156" xlink:href="#DejaVuSans-30"/>
       <use x="274.658203" xlink:href="#DejaVuSans-30"/>
      </g>
     </g>
    </g>
    <g id="ytick_5">
     <g id="line2d_14">
      <g>
       <use style="stroke:#000000;stroke-width:0.8;" x="144" xlink:href="#ma1fc589a5a" y="436.32"/>
      </g>
     </g>
     <g id="text_14">
      <!-- 0 -->
      <g transform="translate(130.6375 440.119219)scale(0.1 -0.1)">
       <use xlink:href="#DejaVuSans-30"/>
      </g>
     </g>
    </g>
    <g id="ytick_6">
     <g id="line2d_15">
      <g>
       <use style="stroke:#000000;stroke-width:0.8;" x="144" xlink:href="#ma1fc589a5a" y="353.16"/>
      </g>
     </g>
     <g id="text_15">
      <!-- 1000 -->
      <g transform="translate(111.55 356.959219)scale(0.1 -0.1)">
       <use xlink:href="#DejaVuSans-31"/>
       <use x="63.623047" xlink:href="#DejaVuSans-30"/>
       <use x="127.246094" xlink:href="#DejaVuSans-30"/>
       <use x="190.869141" xlink:href="#DejaVuSans-30"/>
      </g>
     </g>
    </g>
    <g id="ytick_7">
     <g id="line2d_16">
      <g>
       <use style="stroke:#000000;stroke-width:0.8;" x="144" xlink:href="#ma1fc589a5a" y="270"/>
      </g>
     </g>
     <g id="text_16">
      <!-- 2000 -->
      <g transform="translate(111.55 273.799219)scale(0.1 -0.1)">
       <use xlink:href="#DejaVuSans-32"/>
       <use x="63.623047" xlink:href="#DejaVuSans-30"/>
       <use x="127.246094" xlink:href="#DejaVuSans-30"/>
       <use x="190.869141" xlink:href="#DejaVuSans-30"/>
      </g>
     </g>
    </g>
    <g id="ytick_8">
     <g id="line2d_17">
      <g>
       <use style="stroke:#000000;stroke-width:0.8;" x="144" xlink:href="#ma1fc589a5a" y="186.84"/>
      </g>
     </g>
     <g id="text_17">
      <!-- 3000 -->
      <g transform="translate(111.55 190.639219)scale(0.1 -0.1)">
       <use xlink:href="#DejaVuSans-33"/>
       <use x="63.623047" xlink:href="#DejaVuSans-30"/>
       <use x="127.246094" xlink:href="#DejaVuSans-30"/>
       <use x="190.869141" xlink:href="#DejaVuSans-30"/>
      </g>
     </g>
    </g>
    <g id="ytick_9">
     <g id="line2d_18">
      <g>
       <use style="stroke:#000000;stroke-width:0.8;" x="144" xlink:href="#ma1fc589a5a" y="103.68"/>
      </g>
     </g>
     <g id="text_18">
      <!-- 4000 -->
      <g transform="translate(111.55 107.479219)scale(0.1 -0.1)">
       <use xlink:href="#DejaVuSans-34"/>
       <use x="63.623047" xlink:href="#DejaVuSans-30"/>
       <use x="127.246094" xlink:href="#DejaVuSans-30"/>
       <use x="190.869141" xlink:href="#DejaVuSans-30"/>
      </g>
     </g>
    </g>
   </g>
   <g id="line2d_19">
    <path clip-path="url(#p0b824b69ff)" d="M 590.4 768.96 
L 590.4 103.68 
" style="fill:none;stroke:#1f77b4;stroke-linecap:square;stroke-width:1.5;"/>
   </g>
   <g id="line2d_20">
    <path clip-path="url(#p0b824b69ff)" d="M 144 436.32 
L 1036.8 436.32 
" style="fill:none;stroke:#1f77b4;stroke-linecap:square;stroke-width:1.5;"/>
   </g>
   <g id="line2d_21">
    <defs>
     <path d="M 0 3 
C 0.795609 3 1.55874 2.683901 2.12132 2.12132 
C 2.683901 1.55874 3 0.795609 3 0 
C 3 -0.795609 2.683901 -1.55874 2.12132 -2.12132 
C 1.55874 -2.683901 0.795609 -3 0 -3 
C -0.795609 -3 -1.55874 -2.683901 -2.12132 -2.12132 
C -2.683901 -1.55874 -3 -0.795609 -3 0 
C -3 0.795609 -2.683901 1.55874 -2.12132 2.12132 
C -1.55874 2.683901 -0.795609 3 0 3 
z
" id="md91cd1aa4b" style="stroke:#008000;"/>
    </defs>
    <g clip-path="url(#p0b824b69ff)">
     <use style="fill:#008000;stroke:#008000;" x="1076.277636" xlink:href="#md91cd1aa4b" y="441.849634"/>
    </g>
   </g>
   <g id="line2d_22">
    <g clip-path="url(#p0b824b69ff)">
     <use style="fill:#008000;stroke:#008000;" x="1383.861575" xlink:href="#md91cd1aa4b" y="391.246949"/>
    </g>
   </g>
   <g id="line2d_23">
    <g clip-path="url(#p0b824b69ff)">
     <use style="fill:#008000;stroke:#008000;" x="647.821475" xlink:href="#md91cd1aa4b" y="393.741262"/>
    </g>
   </g>
   <g id="line2d_24">
    <g clip-path="url(#p0b824b69ff)">
     <use style="fill:#008000;stroke:#008000;" x="647.821475" xlink:href="#md91cd1aa4b" y="393.741262"/>
    </g>
   </g>
   <g id="line2d_25">
    <g clip-path="url(#p0b824b69ff)">
     <use style="fill:#008000;stroke:#008000;" x="742.384328" xlink:href="#md91cd1aa4b" y="198.212401"/>
    </g>
   </g>
   <g id="line2d_26">
    <g clip-path="url(#p0b824b69ff)">
     <use style="fill:#008000;stroke:#008000;" x="460.697465" xlink:href="#md91cd1aa4b" y="245.607611"/>
    </g>
   </g>
   <g id="line2d_27">
    <g clip-path="url(#p0b824b69ff)">
     <use style="fill:#008000;stroke:#008000;" x="557.414818" xlink:href="#md91cd1aa4b" y="398.538933"/>
    </g>
   </g>
   <g id="line2d_28">
    <g clip-path="url(#p0b824b69ff)">
     <use style="fill:#008000;stroke:#008000;" x="557.414818" xlink:href="#md91cd1aa4b" y="398.538933"/>
    </g>
   </g>
   <g id="line2d_29">
    <g clip-path="url(#p0b824b69ff)">
     <use style="fill:#008000;stroke:#008000;" x="516.116462" xlink:href="#md91cd1aa4b" y="507.890276"/>
    </g>
   </g>
   <g id="line2d_30">
    <g clip-path="url(#p0b824b69ff)">
     <use style="fill:#008000;stroke:#008000;" x="577.770487" xlink:href="#md91cd1aa4b" y="503.018938"/>
    </g>
   </g>
   <g id="line2d_31">
    <g clip-path="url(#p0b824b69ff)">
     <use style="fill:#008000;stroke:#008000;" x="591.18156" xlink:href="#md91cd1aa4b" y="639.707736"/>
    </g>
   </g>
   <g id="line2d_32">
    <g clip-path="url(#p0b824b69ff)">
     <use style="fill:#008000;stroke:#008000;" x="688.366399" xlink:href="#md91cd1aa4b" y="598.198836"/>
    </g>
   </g>
   <g id="line2d_33">
    <defs>
     <path d="M 0 1.333333 
C 0.353604 1.333333 0.692773 1.192845 0.942809 0.942809 
C 1.192845 0.692773 1.333333 0.353604 1.333333 0 
C 1.333333 -0.353604 1.192845 -0.692773 0.942809 -0.942809 
C 0.692773 -1.192845 0.353604 -1.333333 0 -1.333333 
C -0.353604 -1.333333 -0.692773 -1.192845 -0.942809 -0.942809 
C -1.192845 -0.692773 -1.333333 -0.353604 -1.333333 0 
C -1.333333 0.353604 -1.192845 0.692773 -0.942809 0.942809 
C -0.692773 1.192845 -0.353604 1.333333 0 1.333333 
z
" id="m2ce5818b38" style="stroke:#ff0000;"/>
    </defs>
    <g clip-path="url(#p0b824b69ff)">
     <use style="fill:#ff0000;stroke:#ff0000;" x="1139.908114" xlink:href="#m2ce5818b38" y="500.487394"/>
     <use style="fill:#ff0000;stroke:#ff0000;" x="1076.277636" xlink:href="#m2ce5818b38" y="441.849634"/>
     <use style="fill:#ff0000;stroke:#ff0000;" x="1383.861575" xlink:href="#m2ce5818b38" y="391.246949"/>
     <use style="fill:#ff0000;stroke:#ff0000;" x="1288.37209" xlink:href="#m2ce5818b38" y="347.388178"/>
     <use style="fill:#ff0000;stroke:#ff0000;" x="1269.500163" xlink:href="#m2ce5818b38" y="325.436164"/>
     <use style="fill:#ff0000;stroke:#ff0000;" x="1355.008347" xlink:href="#m2ce5818b38" y="283.820715"/>
     <use style="fill:#ff0000;stroke:#ff0000;" x="1319.274228" xlink:href="#m2ce5818b38" y="263.442322"/>
     <use style="fill:#ff0000;stroke:#ff0000;" x="652.380466" xlink:href="#m2ce5818b38" y="399.97156"/>
     <use style="fill:#ff0000;stroke:#ff0000;" x="642.139366" xlink:href="#m2ce5818b38" y="387.823622"/>
     <use style="fill:#ff0000;stroke:#ff0000;" x="796.338896" xlink:href="#m2ce5818b38" y="191.034149"/>
     <use style="fill:#ff0000;stroke:#ff0000;" x="773.374537" xlink:href="#m2ce5818b38" y="194.715517"/>
     <use style="fill:#ff0000;stroke:#ff0000;" x="752.218715" xlink:href="#m2ce5818b38" y="197.253824"/>
     <use style="fill:#ff0000;stroke:#ff0000;" x="732.697784" xlink:href="#m2ce5818b38" y="199.380254"/>
     <use style="fill:#ff0000;stroke:#ff0000;" x="460.697465" xlink:href="#m2ce5818b38" y="245.607611"/>
     <use style="fill:#ff0000;stroke:#ff0000;" x="559.038081" xlink:href="#m2ce5818b38" y="398.485866"/>
     <use style="fill:#ff0000;stroke:#ff0000;" x="555.777889" xlink:href="#m2ce5818b38" y="398.628199"/>
     <use style="fill:#ff0000;stroke:#ff0000;" x="402.488021" xlink:href="#m2ce5818b38" y="270.916106"/>
     <use style="fill:#ff0000;stroke:#ff0000;" x="393.687235" xlink:href="#m2ce5818b38" y="292.665905"/>
     <use style="fill:#ff0000;stroke:#ff0000;" x="409.084682" xlink:href="#m2ce5818b38" y="316.193058"/>
     <use style="fill:#ff0000;stroke:#ff0000;" x="417.325187" xlink:href="#m2ce5818b38" y="332.057832"/>
     <use style="fill:#ff0000;stroke:#ff0000;" x="407.293612" xlink:href="#m2ce5818b38" y="363.197802"/>
     <use style="fill:#ff0000;stroke:#ff0000;" x="454.722968" xlink:href="#m2ce5818b38" y="388.671244"/>
     <use style="fill:#ff0000;stroke:#ff0000;" x="445.382708" xlink:href="#m2ce5818b38" y="413.843223"/>
     <use style="fill:#ff0000;stroke:#ff0000;" x="425.588227" xlink:href="#m2ce5818b38" y="416.456396"/>
     <use style="fill:#ff0000;stroke:#ff0000;" x="420.368373" xlink:href="#m2ce5818b38" y="439.292046"/>
     <use style="fill:#ff0000;stroke:#ff0000;" x="394.95832" xlink:href="#m2ce5818b38" y="446.144701"/>
     <use style="fill:#ff0000;stroke:#ff0000;" x="401.316524" xlink:href="#m2ce5818b38" y="465.907477"/>
     <use style="fill:#ff0000;stroke:#ff0000;" x="437.63008" xlink:href="#m2ce5818b38" y="466.191537"/>
     <use style="fill:#ff0000;stroke:#ff0000;" x="403.432621" xlink:href="#m2ce5818b38" y="479.372078"/>
     <use style="fill:#ff0000;stroke:#ff0000;" x="460.71312" xlink:href="#m2ce5818b38" y="513.706742"/>
     <use style="fill:#ff0000;stroke:#ff0000;" x="471.984558" xlink:href="#m2ce5818b38" y="538.669485"/>
     <use style="fill:#ff0000;stroke:#ff0000;" x="516.116462" xlink:href="#m2ce5818b38" y="507.890276"/>
     <use style="fill:#ff0000;stroke:#ff0000;" x="577.770487" xlink:href="#m2ce5818b38" y="503.018938"/>
     <use style="fill:#ff0000;stroke:#ff0000;" x="584.938207" xlink:href="#m2ce5818b38" y="635.280257"/>
     <use style="fill:#ff0000;stroke:#ff0000;" x="597.698987" xlink:href="#m2ce5818b38" y="644.024061"/>
     <use style="fill:#ff0000;stroke:#ff0000;" x="608.528345" xlink:href="#m2ce5818b38" y="618.772607"/>
     <use style="fill:#ff0000;stroke:#ff0000;" x="623.250608" xlink:href="#m2ce5818b38" y="640.28229"/>
     <use style="fill:#ff0000;stroke:#ff0000;" x="635.785349" xlink:href="#m2ce5818b38" y="638.078781"/>
     <use style="fill:#ff0000;stroke:#ff0000;" x="643.016401" xlink:href="#m2ce5818b38" y="616.425926"/>
     <use style="fill:#ff0000;stroke:#ff0000;" x="669.686405" xlink:href="#m2ce5818b38" y="623.168338"/>
     <use style="fill:#ff0000;stroke:#ff0000;" x="682.698295" xlink:href="#m2ce5818b38" y="598.718004"/>
     <use style="fill:#ff0000;stroke:#ff0000;" x="694.05105" xlink:href="#m2ce5818b38" y="597.570671"/>
     <use style="fill:#ff0000;stroke:#ff0000;" x="758.453685" xlink:href="#m2ce5818b38" y="592.262596"/>
     <use style="fill:#ff0000;stroke:#ff0000;" x="801.506823" xlink:href="#m2ce5818b38" y="584.624966"/>
     <use style="fill:#ff0000;stroke:#ff0000;" x="845.275664" xlink:href="#m2ce5818b38" y="570.31179"/>
     <use style="fill:#ff0000;stroke:#ff0000;" x="874.611789" xlink:href="#m2ce5818b38" y="571.728729"/>
     <use style="fill:#ff0000;stroke:#ff0000;" x="895.601272" xlink:href="#m2ce5818b38" y="553.372686"/>
     <use style="fill:#ff0000;stroke:#ff0000;" x="936.153477" xlink:href="#m2ce5818b38" y="554.243772"/>
     <use style="fill:#ff0000;stroke:#ff0000;" x="962.588481" xlink:href="#m2ce5818b38" y="548.108965"/>
     <use style="fill:#ff0000;stroke:#ff0000;" x="1057.365857" xlink:href="#m2ce5818b38" y="540.631725"/>
     <use style="fill:#ff0000;stroke:#ff0000;" x="1088.944025" xlink:href="#m2ce5818b38" y="511.479737"/>
    </g>
   </g>
   <g id="line2d_34">
    <defs>
     <path d="M -0.5 0.5 
L 0.5 0.5 
L 0.5 -0.5 
L -0.5 -0.5 
z
" id="m8295e02513" style="stroke:#1f77b4;stroke-linejoin:miter;"/>
    </defs>
    <g clip-path="url(#p0b824b69ff)">
     <use style="fill:#1f77b4;stroke:#1f77b4;stroke-linejoin:miter;" x="1139.908114" xlink:href="#m8295e02513" y="500.487394"/>
     <use style="fill:#1f77b4;stroke:#1f77b4;stroke-linejoin:miter;" x="1076.277636" xlink:href="#m8295e02513" y="441.849634"/>
     <use style="fill:#1f77b4;stroke:#1f77b4;stroke-linejoin:miter;" x="1383.861575" xlink:href="#m8295e02513" y="391.246949"/>
     <use style="fill:#1f77b4;stroke:#1f77b4;stroke-linejoin:miter;" x="1288.37209" xlink:href="#m8295e02513" y="347.388178"/>
     <use style="fill:#1f77b4;stroke:#1f77b4;stroke-linejoin:miter;" x="1269.500163" xlink:href="#m8295e02513" y="325.436164"/>
     <use style="fill:#1f77b4;stroke:#1f77b4;stroke-linejoin:miter;" x="1355.008347" xlink:href="#m8295e02513" y="283.820715"/>
     <use style="fill:#1f77b4;stroke:#1f77b4;stroke-linejoin:miter;" x="1319.274228" xlink:href="#m8295e02513" y="263.442322"/>
     <use style="fill:#1f77b4;stroke:#1f77b4;stroke-linejoin:miter;" x="652.380466" xlink:href="#m8295e02513" y="399.97156"/>
     <use style="fill:#1f77b4;stroke:#1f77b4;stroke-linejoin:miter;" x="649.224097" xlink:href="#m8295e02513" y="398.300039"/>
     <use style="fill:#1f77b4;stroke:#1f77b4;stroke-linejoin:miter;" x="646.493226" xlink:href="#m8295e02513" y="396.524519"/>
     <use style="fill:#1f77b4;stroke:#1f77b4;stroke-linejoin:miter;" x="644.413368" xlink:href="#m8295e02513" y="394.206771"/>
     <use style="fill:#1f77b4;stroke:#1f77b4;stroke-linejoin:miter;" x="642.338732" xlink:href="#m8295e02513" y="391.895564"/>
     <use style="fill:#1f77b4;stroke:#1f77b4;stroke-linejoin:miter;" x="642.139366" xlink:href="#m8295e02513" y="387.823622"/>
     <use style="fill:#1f77b4;stroke:#1f77b4;stroke-linejoin:miter;" x="796.338896" xlink:href="#m8295e02513" y="191.034149"/>
     <use style="fill:#1f77b4;stroke:#1f77b4;stroke-linejoin:miter;" x="773.374537" xlink:href="#m8295e02513" y="194.715517"/>
     <use style="fill:#1f77b4;stroke:#1f77b4;stroke-linejoin:miter;" x="752.218715" xlink:href="#m8295e02513" y="197.253824"/>
     <use style="fill:#1f77b4;stroke:#1f77b4;stroke-linejoin:miter;" x="732.697784" xlink:href="#m8295e02513" y="199.380254"/>
     <use style="fill:#1f77b4;stroke:#1f77b4;stroke-linejoin:miter;" x="712.920602" xlink:href="#m8295e02513" y="203.43074"/>
     <use style="fill:#1f77b4;stroke:#1f77b4;stroke-linejoin:miter;" x="695.506848" xlink:href="#m8295e02513" y="205.592141"/>
     <use style="fill:#1f77b4;stroke:#1f77b4;stroke-linejoin:miter;" x="678.408754" xlink:href="#m8295e02513" y="208.784267"/>
     <use style="fill:#1f77b4;stroke:#1f77b4;stroke-linejoin:miter;" x="662.45515" xlink:href="#m8295e02513" y="211.050603"/>
     <use style="fill:#1f77b4;stroke:#1f77b4;stroke-linejoin:miter;" x="647.005969" xlink:href="#m8295e02513" y="213.817398"/>
     <use style="fill:#1f77b4;stroke:#1f77b4;stroke-linejoin:miter;" x="632.321977" xlink:href="#m8295e02513" y="215.3574"/>
     <use style="fill:#1f77b4;stroke:#1f77b4;stroke-linejoin:miter;" x="617.146206" xlink:href="#m8295e02513" y="218.769698"/>
     <use style="fill:#1f77b4;stroke:#1f77b4;stroke-linejoin:miter;" x="603.349548" xlink:href="#m8295e02513" y="219.382952"/>
     <use style="fill:#1f77b4;stroke:#1f77b4;stroke-linejoin:miter;" x="589.700852" xlink:href="#m8295e02513" y="224.054739"/>
     <use style="fill:#1f77b4;stroke:#1f77b4;stroke-linejoin:miter;" x="576.562845" xlink:href="#m8295e02513" y="225.262152"/>
     <use style="fill:#1f77b4;stroke:#1f77b4;stroke-linejoin:miter;" x="563.451551" xlink:href="#m8295e02513" y="226.572418"/>
     <use style="fill:#1f77b4;stroke:#1f77b4;stroke-linejoin:miter;" x="550.642935" xlink:href="#m8295e02513" y="230.415589"/>
     <use style="fill:#1f77b4;stroke:#1f77b4;stroke-linejoin:miter;" x="537.940886" xlink:href="#m8295e02513" y="232.847815"/>
     <use style="fill:#1f77b4;stroke:#1f77b4;stroke-linejoin:miter;" x="525.857195" xlink:href="#m8295e02513" y="236.710305"/>
     <use style="fill:#1f77b4;stroke:#1f77b4;stroke-linejoin:miter;" x="513.403253" xlink:href="#m8295e02513" y="238.874167"/>
     <use style="fill:#1f77b4;stroke:#1f77b4;stroke-linejoin:miter;" x="500.917669" xlink:href="#m8295e02513" y="241.115718"/>
     <use style="fill:#1f77b4;stroke:#1f77b4;stroke-linejoin:miter;" x="487.696769" xlink:href="#m8295e02513" y="242.191346"/>
     <use style="fill:#1f77b4;stroke:#1f77b4;stroke-linejoin:miter;" x="474.450555" xlink:href="#m8295e02513" y="244.097012"/>
     <use style="fill:#1f77b4;stroke:#1f77b4;stroke-linejoin:miter;" x="460.697465" xlink:href="#m8295e02513" y="245.607611"/>
     <use style="fill:#1f77b4;stroke:#1f77b4;stroke-linejoin:miter;" x="559.038081" xlink:href="#m8295e02513" y="398.485866"/>
     <use style="fill:#1f77b4;stroke:#1f77b4;stroke-linejoin:miter;" x="555.777889" xlink:href="#m8295e02513" y="398.628199"/>
     <use style="fill:#1f77b4;stroke:#1f77b4;stroke-linejoin:miter;" x="402.488021" xlink:href="#m8295e02513" y="270.916106"/>
     <use style="fill:#1f77b4;stroke:#1f77b4;stroke-linejoin:miter;" x="390.714117" xlink:href="#m8295e02513" y="276.141526"/>
     <use style="fill:#1f77b4;stroke:#1f77b4;stroke-linejoin:miter;" x="393.687235" xlink:href="#m8295e02513" y="292.665905"/>
     <use style="fill:#1f77b4;stroke:#1f77b4;stroke-linejoin:miter;" x="409.084682" xlink:href="#m8295e02513" y="316.193058"/>
     <use style="fill:#1f77b4;stroke:#1f77b4;stroke-linejoin:miter;" x="417.325187" xlink:href="#m8295e02513" y="332.057832"/>
     <use style="fill:#1f77b4;stroke:#1f77b4;stroke-linejoin:miter;" x="420.154471" xlink:href="#m8295e02513" y="343.461613"/>
     <use style="fill:#1f77b4;stroke:#1f77b4;stroke-linejoin:miter;" x="421.41607" xlink:href="#m8295e02513" y="353.024557"/>
     <use style="fill:#1f77b4;stroke:#1f77b4;stroke-linejoin:miter;" x="412.120092" xlink:href="#m8295e02513" y="356.891247"/>
     <use style="fill:#1f77b4;stroke:#1f77b4;stroke-linejoin:miter;" x="407.293612" xlink:href="#m8295e02513" y="363.197802"/>
     <use style="fill:#1f77b4;stroke:#1f77b4;stroke-linejoin:miter;" x="454.722968" xlink:href="#m8295e02513" y="388.671244"/>
     <use style="fill:#1f77b4;stroke:#1f77b4;stroke-linejoin:miter;" x="454.972649" xlink:href="#m8295e02513" y="394.680667"/>
     <use style="fill:#1f77b4;stroke:#1f77b4;stroke-linejoin:miter;" x="456.453806" xlink:href="#m8295e02513" y="400.484003"/>
     <use style="fill:#1f77b4;stroke:#1f77b4;stroke-linejoin:miter;" x="457.70026" xlink:href="#m8295e02513" y="406.059033"/>
     <use style="fill:#1f77b4;stroke:#1f77b4;stroke-linejoin:miter;" x="457.969483" xlink:href="#m8295e02513" y="411.114655"/>
     <use style="fill:#1f77b4;stroke:#1f77b4;stroke-linejoin:miter;" x="445.382708" xlink:href="#m8295e02513" y="413.843223"/>
     <use style="fill:#1f77b4;stroke:#1f77b4;stroke-linejoin:miter;" x="425.588227" xlink:href="#m8295e02513" y="416.456396"/>
     <use style="fill:#1f77b4;stroke:#1f77b4;stroke-linejoin:miter;" x="418.254502" xlink:href="#m8295e02513" y="427.70152"/>
     <use style="fill:#1f77b4;stroke:#1f77b4;stroke-linejoin:miter;" x="419.495371" xlink:href="#m8295e02513" y="433.610672"/>
     <use style="fill:#1f77b4;stroke:#1f77b4;stroke-linejoin:miter;" x="420.368373" xlink:href="#m8295e02513" y="439.292046"/>
     <use style="fill:#1f77b4;stroke:#1f77b4;stroke-linejoin:miter;" x="394.95832" xlink:href="#m8295e02513" y="446.144701"/>
     <use style="fill:#1f77b4;stroke:#1f77b4;stroke-linejoin:miter;" x="396.124107" xlink:href="#m8295e02513" y="452.934088"/>
     <use style="fill:#1f77b4;stroke:#1f77b4;stroke-linejoin:miter;" x="398.533455" xlink:href="#m8295e02513" y="459.404317"/>
     <use style="fill:#1f77b4;stroke:#1f77b4;stroke-linejoin:miter;" x="401.316524" xlink:href="#m8295e02513" y="465.907477"/>
     <use style="fill:#1f77b4;stroke:#1f77b4;stroke-linejoin:miter;" x="437.63008" xlink:href="#m8295e02513" y="466.191537"/>
     <use style="fill:#1f77b4;stroke:#1f77b4;stroke-linejoin:miter;" x="403.432621" xlink:href="#m8295e02513" y="479.372078"/>
     <use style="fill:#1f77b4;stroke:#1f77b4;stroke-linejoin:miter;" x="405.584234" xlink:href="#m8295e02513" y="485.935313"/>
     <use style="fill:#1f77b4;stroke:#1f77b4;stroke-linejoin:miter;" x="407.053612" xlink:href="#m8295e02513" y="492.910947"/>
     <use style="fill:#1f77b4;stroke:#1f77b4;stroke-linejoin:miter;" x="411.270979" xlink:href="#m8295e02513" y="506.779784"/>
     <use style="fill:#1f77b4;stroke:#1f77b4;stroke-linejoin:miter;" x="434.231777" xlink:href="#m8295e02513" y="512.570484"/>
     <use style="fill:#1f77b4;stroke:#1f77b4;stroke-linejoin:miter;" x="442.845716" xlink:href="#m8295e02513" y="516.021511"/>
     <use style="fill:#1f77b4;stroke:#1f77b4;stroke-linejoin:miter;" x="460.71312" xlink:href="#m8295e02513" y="513.706742"/>
     <use style="fill:#1f77b4;stroke:#1f77b4;stroke-linejoin:miter;" x="458.2923" xlink:href="#m8295e02513" y="522.936282"/>
     <use style="fill:#1f77b4;stroke:#1f77b4;stroke-linejoin:miter;" x="462.526088" xlink:href="#m8295e02513" y="536.950836"/>
     <use style="fill:#1f77b4;stroke:#1f77b4;stroke-linejoin:miter;" x="471.984558" xlink:href="#m8295e02513" y="538.669485"/>
     <use style="fill:#1f77b4;stroke:#1f77b4;stroke-linejoin:miter;" x="516.116462" xlink:href="#m8295e02513" y="507.890276"/>
     <use style="fill:#1f77b4;stroke:#1f77b4;stroke-linejoin:miter;" x="528.071212" xlink:href="#m8295e02513" y="502.881872"/>
     <use style="fill:#1f77b4;stroke:#1f77b4;stroke-linejoin:miter;" x="535.520235" xlink:href="#m8295e02513" y="501.251155"/>
     <use style="fill:#1f77b4;stroke:#1f77b4;stroke-linejoin:miter;" x="543.933446" xlink:href="#m8295e02513" y="497.753943"/>
     <use style="fill:#1f77b4;stroke:#1f77b4;stroke-linejoin:miter;" x="548.948901" xlink:href="#m8295e02513" y="497.766856"/>
     <use style="fill:#1f77b4;stroke:#1f77b4;stroke-linejoin:miter;" x="552.770957" xlink:href="#m8295e02513" y="499.390768"/>
     <use style="fill:#1f77b4;stroke:#1f77b4;stroke-linejoin:miter;" x="556.389664" xlink:href="#m8295e02513" y="501.437318"/>
     <use style="fill:#1f77b4;stroke:#1f77b4;stroke-linejoin:miter;" x="559.593087" xlink:href="#m8295e02513" y="504.250715"/>
     <use style="fill:#1f77b4;stroke:#1f77b4;stroke-linejoin:miter;" x="563.630881" xlink:href="#m8295e02513" y="505.670357"/>
     <use style="fill:#1f77b4;stroke:#1f77b4;stroke-linejoin:miter;" x="569.906134" xlink:href="#m8295e02513" y="501.413276"/>
     <use style="fill:#1f77b4;stroke:#1f77b4;stroke-linejoin:miter;" x="574.218378" xlink:href="#m8295e02513" y="500.984961"/>
     <use style="fill:#1f77b4;stroke:#1f77b4;stroke-linejoin:miter;" x="577.770487" xlink:href="#m8295e02513" y="503.018938"/>
     <use style="fill:#1f77b4;stroke:#1f77b4;stroke-linejoin:miter;" x="584.938207" xlink:href="#m8295e02513" y="635.280257"/>
     <use style="fill:#1f77b4;stroke:#1f77b4;stroke-linejoin:miter;" x="597.698987" xlink:href="#m8295e02513" y="644.024061"/>
     <use style="fill:#1f77b4;stroke:#1f77b4;stroke-linejoin:miter;" x="608.528345" xlink:href="#m8295e02513" y="618.772607"/>
     <use style="fill:#1f77b4;stroke:#1f77b4;stroke-linejoin:miter;" x="623.250608" xlink:href="#m8295e02513" y="640.28229"/>
     <use style="fill:#1f77b4;stroke:#1f77b4;stroke-linejoin:miter;" x="635.785349" xlink:href="#m8295e02513" y="638.078781"/>
     <use style="fill:#1f77b4;stroke:#1f77b4;stroke-linejoin:miter;" x="643.016401" xlink:href="#m8295e02513" y="616.425926"/>
     <use style="fill:#1f77b4;stroke:#1f77b4;stroke-linejoin:miter;" x="657.102536" xlink:href="#m8295e02513" y="623.039949"/>
     <use style="fill:#1f77b4;stroke:#1f77b4;stroke-linejoin:miter;" x="669.686405" xlink:href="#m8295e02513" y="623.168338"/>
     <use style="fill:#1f77b4;stroke:#1f77b4;stroke-linejoin:miter;" x="682.698295" xlink:href="#m8295e02513" y="598.718004"/>
     <use style="fill:#1f77b4;stroke:#1f77b4;stroke-linejoin:miter;" x="694.05105" xlink:href="#m8295e02513" y="597.570671"/>
     <use style="fill:#1f77b4;stroke:#1f77b4;stroke-linejoin:miter;" x="758.453685" xlink:href="#m8295e02513" y="592.262596"/>
     <use style="fill:#1f77b4;stroke:#1f77b4;stroke-linejoin:miter;" x="768.506189" xlink:href="#m8295e02513" y="586.577752"/>
     <use style="fill:#1f77b4;stroke:#1f77b4;stroke-linejoin:miter;" x="782.441125" xlink:href="#m8295e02513" y="584.021645"/>
     <use style="fill:#1f77b4;stroke:#1f77b4;stroke-linejoin:miter;" x="801.506823" xlink:href="#m8295e02513" y="584.624966"/>
     <use style="fill:#1f77b4;stroke:#1f77b4;stroke-linejoin:miter;" x="818.356033" xlink:href="#m8295e02513" y="582.200583"/>
     <use style="fill:#1f77b4;stroke:#1f77b4;stroke-linejoin:miter;" x="832.101041" xlink:href="#m8295e02513" y="577.113546"/>
     <use style="fill:#1f77b4;stroke:#1f77b4;stroke-linejoin:miter;" x="845.275664" xlink:href="#m8295e02513" y="570.31179"/>
     <use style="fill:#1f77b4;stroke:#1f77b4;stroke-linejoin:miter;" x="874.611789" xlink:href="#m8295e02513" y="571.728729"/>
     <use style="fill:#1f77b4;stroke:#1f77b4;stroke-linejoin:miter;" x="876.769956" xlink:href="#m8295e02513" y="558.979274"/>
     <use style="fill:#1f77b4;stroke:#1f77b4;stroke-linejoin:miter;" x="895.601272" xlink:href="#m8295e02513" y="553.372686"/>
     <use style="fill:#1f77b4;stroke:#1f77b4;stroke-linejoin:miter;" x="936.153477" xlink:href="#m8295e02513" y="554.243772"/>
     <use style="fill:#1f77b4;stroke:#1f77b4;stroke-linejoin:miter;" x="962.588481" xlink:href="#m8295e02513" y="548.108965"/>
     <use style="fill:#1f77b4;stroke:#1f77b4;stroke-linejoin:miter;" x="1057.365857" xlink:href="#m8295e02513" y="540.631725"/>
     <use style="fill:#1f77b4;stroke:#1f77b4;stroke-linejoin:miter;" x="1081.974055" xlink:href="#m8295e02513" y="527.861571"/>
     <use style="fill:#1f77b4;stroke:#1f77b4;stroke-linejoin:miter;" x="1088.944025" xlink:href="#m8295e02513" y="511.479737"/>
    </g>
   </g>
   <g id="patch_3">
    <path d="M 144 768.96 
L 144 103.68 
" style="fill:none;stroke:#000000;stroke-linecap:square;stroke-linejoin:miter;stroke-width:0.8;"/>
   </g>
   <g id="patch_4">
    <path d="M 1036.8 768.96 
L 1036.8 103.68 
" style="fill:none;stroke:#000000;stroke-linecap:square;stroke-linejoin:miter;stroke-width:0.8;"/>
   </g>
   <g id="patch_5">
    <path d="M 144 768.96 
L 1036.8 768.96 
" style="fill:none;stroke:#000000;stroke-linecap:square;stroke-linejoin:miter;stroke-width:0.8;"/>
   </g>
   <g id="patch_6">
    <path d="M 144 103.68 
L 1036.8 103.68 
" style="fill:none;stroke:#000000;stroke-linecap:square;stroke-linejoin:miter;stroke-width:0.8;"/>
   </g>
  </g>
 </g>
 <defs>
  <clipPath id="p0b824b69ff">
   <rect height="665.28" width="892.8" x="144" y="103.68"/>
  </clipPath>
 </defs>
</svg>
