<?xml version="1.0" encoding="utf-8" standalone="no"?>
<!DOCTYPE svg PUBLIC "-//W3C//DTD SVG 1.1//EN"
  "http://www.w3.org/Graphics/SVG/1.1/DTD/svg11.dtd">
<!-- Created with matplotlib (http://matplotlib.org/) -->
<svg height="864pt" version="1.1" viewBox="0 0 1152 864" width="1152pt" xmlns="http://www.w3.org/2000/svg" xmlns:xlink="http://www.w3.org/1999/xlink">
 <defs>
  <style type="text/css">
*{stroke-linecap:butt;stroke-linejoin:round;}
  </style>
 </defs>
 <g id="figure_1">
  <g id="patch_1">
   <path d="M 0 864 
L 1152 864 
L 1152 0 
L 0 0 
z
" style="fill:#ffffff;"/>
  </g>
  <g id="axes_1">
   <g id="patch_2">
    <path d="M 144 768.96 
L 1036.8 768.96 
L 1036.8 103.68 
L 144 103.68 
z
" style="fill:#ffffff;"/>
   </g>
   <g id="matplotlib.axis_1">
    <g id="xtick_1">
     <g id="line2d_1">
      <defs>
       <path d="M 0 0 
L 0 3.5 
" id="m5489c74b05" style="stroke:#000000;stroke-width:0.8;"/>
      </defs>
      <g>
       <use style="stroke:#000000;stroke-width:0.8;" x="144" xlink:href="#m5489c74b05" y="768.96"/>
      </g>
     </g>
     <g id="text_1">
      <!-- −4000 -->
      <defs>
       <path d="M 10.59375 35.5 
L 73.1875 35.5 
L 73.1875 27.203125 
L 10.59375 27.203125 
z
" id="DejaVuSans-2212"/>
       <path d="M 37.796875 64.3125 
L 12.890625 25.390625 
L 37.796875 25.390625 
z
M 35.203125 72.90625 
L 47.609375 72.90625 
L 47.609375 25.390625 
L 58.015625 25.390625 
L 58.015625 17.1875 
L 47.609375 17.1875 
L 47.609375 0 
L 37.796875 0 
L 37.796875 17.1875 
L 4.890625 17.1875 
L 4.890625 26.703125 
z
" id="DejaVuSans-34"/>
       <path d="M 31.78125 66.40625 
Q 24.171875 66.40625 20.328125 58.90625 
Q 16.5 51.421875 16.5 36.375 
Q 16.5 21.390625 20.328125 13.890625 
Q 24.171875 6.390625 31.78125 6.390625 
Q 39.453125 6.390625 43.28125 13.890625 
Q 47.125 21.390625 47.125 36.375 
Q 47.125 51.421875 43.28125 58.90625 
Q 39.453125 66.40625 31.78125 66.40625 
z
M 31.78125 74.21875 
Q 44.046875 74.21875 50.515625 64.515625 
Q 56.984375 54.828125 56.984375 36.375 
Q 56.984375 17.96875 50.515625 8.265625 
Q 44.046875 -1.421875 31.78125 -1.421875 
Q 19.53125 -1.421875 13.0625 8.265625 
Q 6.59375 17.96875 6.59375 36.375 
Q 6.59375 54.828125 13.0625 64.515625 
Q 19.53125 74.21875 31.78125 74.21875 
z
" id="DejaVuSans-30"/>
      </defs>
      <g transform="translate(127.085156 783.558437)scale(0.1 -0.1)">
       <use xlink:href="#DejaVuSans-2212"/>
       <use x="83.789062" xlink:href="#DejaVuSans-34"/>
       <use x="147.412109" xlink:href="#DejaVuSans-30"/>
       <use x="211.035156" xlink:href="#DejaVuSans-30"/>
       <use x="274.658203" xlink:href="#DejaVuSans-30"/>
      </g>
     </g>
    </g>
    <g id="xtick_2">
     <g id="line2d_2">
      <g>
       <use style="stroke:#000000;stroke-width:0.8;" x="255.6" xlink:href="#m5489c74b05" y="768.96"/>
      </g>
     </g>
     <g id="text_2">
      <!-- −3000 -->
      <defs>
       <path d="M 40.578125 39.3125 
Q 47.65625 37.796875 51.625 33 
Q 55.609375 28.21875 55.609375 21.1875 
Q 55.609375 10.40625 48.1875 4.484375 
Q 40.765625 -1.421875 27.09375 -1.421875 
Q 22.515625 -1.421875 17.65625 -0.515625 
Q 12.796875 0.390625 7.625 2.203125 
L 7.625 11.71875 
Q 11.71875 9.328125 16.59375 8.109375 
Q 21.484375 6.890625 26.8125 6.890625 
Q 36.078125 6.890625 40.9375 10.546875 
Q 45.796875 14.203125 45.796875 21.1875 
Q 45.796875 27.640625 41.28125 31.265625 
Q 36.765625 34.90625 28.71875 34.90625 
L 20.21875 34.90625 
L 20.21875 43.015625 
L 29.109375 43.015625 
Q 36.375 43.015625 40.234375 45.921875 
Q 44.09375 48.828125 44.09375 54.296875 
Q 44.09375 59.90625 40.109375 62.90625 
Q 36.140625 65.921875 28.71875 65.921875 
Q 24.65625 65.921875 20.015625 65.03125 
Q 15.375 64.15625 9.8125 62.3125 
L 9.8125 71.09375 
Q 15.4375 72.65625 20.34375 73.4375 
Q 25.25 74.21875 29.59375 74.21875 
Q 40.828125 74.21875 47.359375 69.109375 
Q 53.90625 64.015625 53.90625 55.328125 
Q 53.90625 49.265625 50.4375 45.09375 
Q 46.96875 40.921875 40.578125 39.3125 
z
" id="DejaVuSans-33"/>
      </defs>
      <g transform="translate(238.685156 783.558437)scale(0.1 -0.1)">
       <use xlink:href="#DejaVuSans-2212"/>
       <use x="83.789062" xlink:href="#DejaVuSans-33"/>
       <use x="147.412109" xlink:href="#DejaVuSans-30"/>
       <use x="211.035156" xlink:href="#DejaVuSans-30"/>
       <use x="274.658203" xlink:href="#DejaVuSans-30"/>
      </g>
     </g>
    </g>
    <g id="xtick_3">
     <g id="line2d_3">
      <g>
       <use style="stroke:#000000;stroke-width:0.8;" x="367.2" xlink:href="#m5489c74b05" y="768.96"/>
      </g>
     </g>
     <g id="text_3">
      <!-- −2000 -->
      <defs>
       <path d="M 19.1875 8.296875 
L 53.609375 8.296875 
L 53.609375 0 
L 7.328125 0 
L 7.328125 8.296875 
Q 12.9375 14.109375 22.625 23.890625 
Q 32.328125 33.6875 34.8125 36.53125 
Q 39.546875 41.84375 41.421875 45.53125 
Q 43.3125 49.21875 43.3125 52.78125 
Q 43.3125 58.59375 39.234375 62.25 
Q 35.15625 65.921875 28.609375 65.921875 
Q 23.96875 65.921875 18.8125 64.3125 
Q 13.671875 62.703125 7.8125 59.421875 
L 7.8125 69.390625 
Q 13.765625 71.78125 18.9375 73 
Q 24.125 74.21875 28.421875 74.21875 
Q 39.75 74.21875 46.484375 68.546875 
Q 53.21875 62.890625 53.21875 53.421875 
Q 53.21875 48.921875 51.53125 44.890625 
Q 49.859375 40.875 45.40625 35.40625 
Q 44.1875 33.984375 37.640625 27.21875 
Q 31.109375 20.453125 19.1875 8.296875 
z
" id="DejaVuSans-32"/>
      </defs>
      <g transform="translate(350.285156 783.558437)scale(0.1 -0.1)">
       <use xlink:href="#DejaVuSans-2212"/>
       <use x="83.789062" xlink:href="#DejaVuSans-32"/>
       <use x="147.412109" xlink:href="#DejaVuSans-30"/>
       <use x="211.035156" xlink:href="#DejaVuSans-30"/>
       <use x="274.658203" xlink:href="#DejaVuSans-30"/>
      </g>
     </g>
    </g>
    <g id="xtick_4">
     <g id="line2d_4">
      <g>
       <use style="stroke:#000000;stroke-width:0.8;" x="478.8" xlink:href="#m5489c74b05" y="768.96"/>
      </g>
     </g>
     <g id="text_4">
      <!-- −1000 -->
      <defs>
       <path d="M 12.40625 8.296875 
L 28.515625 8.296875 
L 28.515625 63.921875 
L 10.984375 60.40625 
L 10.984375 69.390625 
L 28.421875 72.90625 
L 38.28125 72.90625 
L 38.28125 8.296875 
L 54.390625 8.296875 
L 54.390625 0 
L 12.40625 0 
z
" id="DejaVuSans-31"/>
      </defs>
      <g transform="translate(461.885156 783.558437)scale(0.1 -0.1)">
       <use xlink:href="#DejaVuSans-2212"/>
       <use x="83.789062" xlink:href="#DejaVuSans-31"/>
       <use x="147.412109" xlink:href="#DejaVuSans-30"/>
       <use x="211.035156" xlink:href="#DejaVuSans-30"/>
       <use x="274.658203" xlink:href="#DejaVuSans-30"/>
      </g>
     </g>
    </g>
    <g id="xtick_5">
     <g id="line2d_5">
      <g>
       <use style="stroke:#000000;stroke-width:0.8;" x="590.4" xlink:href="#m5489c74b05" y="768.96"/>
      </g>
     </g>
     <g id="text_5">
      <!-- 0 -->
      <g transform="translate(587.21875 783.558437)scale(0.1 -0.1)">
       <use xlink:href="#DejaVuSans-30"/>
      </g>
     </g>
    </g>
    <g id="xtick_6">
     <g id="line2d_6">
      <g>
       <use style="stroke:#000000;stroke-width:0.8;" x="702" xlink:href="#m5489c74b05" y="768.96"/>
      </g>
     </g>
     <g id="text_6">
      <!-- 1000 -->
      <g transform="translate(689.275 783.558437)scale(0.1 -0.1)">
       <use xlink:href="#DejaVuSans-31"/>
       <use x="63.623047" xlink:href="#DejaVuSans-30"/>
       <use x="127.246094" xlink:href="#DejaVuSans-30"/>
       <use x="190.869141" xlink:href="#DejaVuSans-30"/>
      </g>
     </g>
    </g>
    <g id="xtick_7">
     <g id="line2d_7">
      <g>
       <use style="stroke:#000000;stroke-width:0.8;" x="813.6" xlink:href="#m5489c74b05" y="768.96"/>
      </g>
     </g>
     <g id="text_7">
      <!-- 2000 -->
      <g transform="translate(800.875 783.558437)scale(0.1 -0.1)">
       <use xlink:href="#DejaVuSans-32"/>
       <use x="63.623047" xlink:href="#DejaVuSans-30"/>
       <use x="127.246094" xlink:href="#DejaVuSans-30"/>
       <use x="190.869141" xlink:href="#DejaVuSans-30"/>
      </g>
     </g>
    </g>
    <g id="xtick_8">
     <g id="line2d_8">
      <g>
       <use style="stroke:#000000;stroke-width:0.8;" x="925.2" xlink:href="#m5489c74b05" y="768.96"/>
      </g>
     </g>
     <g id="text_8">
      <!-- 3000 -->
      <g transform="translate(912.475 783.558437)scale(0.1 -0.1)">
       <use xlink:href="#DejaVuSans-33"/>
       <use x="63.623047" xlink:href="#DejaVuSans-30"/>
       <use x="127.246094" xlink:href="#DejaVuSans-30"/>
       <use x="190.869141" xlink:href="#DejaVuSans-30"/>
      </g>
     </g>
    </g>
    <g id="xtick_9">
     <g id="line2d_9">
      <g>
       <use style="stroke:#000000;stroke-width:0.8;" x="1036.8" xlink:href="#m5489c74b05" y="768.96"/>
      </g>
     </g>
     <g id="text_9">
      <!-- 4000 -->
      <g transform="translate(1024.075 783.558437)scale(0.1 -0.1)">
       <use xlink:href="#DejaVuSans-34"/>
       <use x="63.623047" xlink:href="#DejaVuSans-30"/>
       <use x="127.246094" xlink:href="#DejaVuSans-30"/>
       <use x="190.869141" xlink:href="#DejaVuSans-30"/>
      </g>
     </g>
    </g>
   </g>
   <g id="matplotlib.axis_2">
    <g id="ytick_1">
     <g id="line2d_10">
      <defs>
       <path d="M 0 0 
L -3.5 0 
" id="mc177ceb187" style="stroke:#000000;stroke-width:0.8;"/>
      </defs>
      <g>
       <use style="stroke:#000000;stroke-width:0.8;" x="144" xlink:href="#mc177ceb187" y="768.96"/>
      </g>
     </g>
     <g id="text_10">
      <!-- −4000 -->
      <g transform="translate(103.170312 772.759219)scale(0.1 -0.1)">
       <use xlink:href="#DejaVuSans-2212"/>
       <use x="83.789062" xlink:href="#DejaVuSans-34"/>
       <use x="147.412109" xlink:href="#DejaVuSans-30"/>
       <use x="211.035156" xlink:href="#DejaVuSans-30"/>
       <use x="274.658203" xlink:href="#DejaVuSans-30"/>
      </g>
     </g>
    </g>
    <g id="ytick_2">
     <g id="line2d_11">
      <g>
       <use style="stroke:#000000;stroke-width:0.8;" x="144" xlink:href="#mc177ceb187" y="685.8"/>
      </g>
     </g>
     <g id="text_11">
      <!-- −3000 -->
      <g transform="translate(103.170312 689.599219)scale(0.1 -0.1)">
       <use xlink:href="#DejaVuSans-2212"/>
       <use x="83.789062" xlink:href="#DejaVuSans-33"/>
       <use x="147.412109" xlink:href="#DejaVuSans-30"/>
       <use x="211.035156" xlink:href="#DejaVuSans-30"/>
       <use x="274.658203" xlink:href="#DejaVuSans-30"/>
      </g>
     </g>
    </g>
    <g id="ytick_3">
     <g id="line2d_12">
      <g>
       <use style="stroke:#000000;stroke-width:0.8;" x="144" xlink:href="#mc177ceb187" y="602.64"/>
      </g>
     </g>
     <g id="text_12">
      <!-- −2000 -->
      <g transform="translate(103.170312 606.439219)scale(0.1 -0.1)">
       <use xlink:href="#DejaVuSans-2212"/>
       <use x="83.789062" xlink:href="#DejaVuSans-32"/>
       <use x="147.412109" xlink:href="#DejaVuSans-30"/>
       <use x="211.035156" xlink:href="#DejaVuSans-30"/>
       <use x="274.658203" xlink:href="#DejaVuSans-30"/>
      </g>
     </g>
    </g>
    <g id="ytick_4">
     <g id="line2d_13">
      <g>
       <use style="stroke:#000000;stroke-width:0.8;" x="144" xlink:href="#mc177ceb187" y="519.48"/>
      </g>
     </g>
     <g id="text_13">
      <!-- −1000 -->
      <g transform="translate(103.170312 523.279219)scale(0.1 -0.1)">
       <use xlink:href="#DejaVuSans-2212"/>
       <use x="83.789062" xlink:href="#DejaVuSans-31"/>
       <use x="147.412109" xlink:href="#DejaVuSans-30"/>
       <use x="211.035156" xlink:href="#DejaVuSans-30"/>
       <use x="274.658203" xlink:href="#DejaVuSans-30"/>
      </g>
     </g>
    </g>
    <g id="ytick_5">
     <g id="line2d_14">
      <g>
       <use style="stroke:#000000;stroke-width:0.8;" x="144" xlink:href="#mc177ceb187" y="436.32"/>
      </g>
     </g>
     <g id="text_14">
      <!-- 0 -->
      <g transform="translate(130.6375 440.119219)scale(0.1 -0.1)">
       <use xlink:href="#DejaVuSans-30"/>
      </g>
     </g>
    </g>
    <g id="ytick_6">
     <g id="line2d_15">
      <g>
       <use style="stroke:#000000;stroke-width:0.8;" x="144" xlink:href="#mc177ceb187" y="353.16"/>
      </g>
     </g>
     <g id="text_15">
      <!-- 1000 -->
      <g transform="translate(111.55 356.959219)scale(0.1 -0.1)">
       <use xlink:href="#DejaVuSans-31"/>
       <use x="63.623047" xlink:href="#DejaVuSans-30"/>
       <use x="127.246094" xlink:href="#DejaVuSans-30"/>
       <use x="190.869141" xlink:href="#DejaVuSans-30"/>
      </g>
     </g>
    </g>
    <g id="ytick_7">
     <g id="line2d_16">
      <g>
       <use style="stroke:#000000;stroke-width:0.8;" x="144" xlink:href="#mc177ceb187" y="270"/>
      </g>
     </g>
     <g id="text_16">
      <!-- 2000 -->
      <g transform="translate(111.55 273.799219)scale(0.1 -0.1)">
       <use xlink:href="#DejaVuSans-32"/>
       <use x="63.623047" xlink:href="#DejaVuSans-30"/>
       <use x="127.246094" xlink:href="#DejaVuSans-30"/>
       <use x="190.869141" xlink:href="#DejaVuSans-30"/>
      </g>
     </g>
    </g>
    <g id="ytick_8">
     <g id="line2d_17">
      <g>
       <use style="stroke:#000000;stroke-width:0.8;" x="144" xlink:href="#mc177ceb187" y="186.84"/>
      </g>
     </g>
     <g id="text_17">
      <!-- 3000 -->
      <g transform="translate(111.55 190.639219)scale(0.1 -0.1)">
       <use xlink:href="#DejaVuSans-33"/>
       <use x="63.623047" xlink:href="#DejaVuSans-30"/>
       <use x="127.246094" xlink:href="#DejaVuSans-30"/>
       <use x="190.869141" xlink:href="#DejaVuSans-30"/>
      </g>
     </g>
    </g>
    <g id="ytick_9">
     <g id="line2d_18">
      <g>
       <use style="stroke:#000000;stroke-width:0.8;" x="144" xlink:href="#mc177ceb187" y="103.68"/>
      </g>
     </g>
     <g id="text_18">
      <!-- 4000 -->
      <g transform="translate(111.55 107.479219)scale(0.1 -0.1)">
       <use xlink:href="#DejaVuSans-34"/>
       <use x="63.623047" xlink:href="#DejaVuSans-30"/>
       <use x="127.246094" xlink:href="#DejaVuSans-30"/>
       <use x="190.869141" xlink:href="#DejaVuSans-30"/>
      </g>
     </g>
    </g>
   </g>
   <g id="line2d_19">
    <path clip-path="url(#pf3d1ceb2b7)" d="M 590.4 768.96 
L 590.4 103.68 
" style="fill:none;stroke:#1f77b4;stroke-linecap:square;stroke-width:1.5;"/>
   </g>
   <g id="line2d_20">
    <path clip-path="url(#pf3d1ceb2b7)" d="M 144 436.32 
L 1036.8 436.32 
" style="fill:none;stroke:#1f77b4;stroke-linecap:square;stroke-width:1.5;"/>
   </g>
   <g id="line2d_21">
    <defs>
     <path d="M 0 3 
C 0.795609 3 1.55874 2.683901 2.12132 2.12132 
C 2.683901 1.55874 3 0.795609 3 0 
C 3 -0.795609 2.683901 -1.55874 2.12132 -2.12132 
C 1.55874 -2.683901 0.795609 -3 0 -3 
C -0.795609 -3 -1.55874 -2.683901 -2.12132 -2.12132 
C -2.683901 -1.55874 -3 -0.795609 -3 0 
C -3 0.795609 -2.683901 1.55874 -2.12132 2.12132 
C -1.55874 2.683901 -0.795609 3 0 3 
z
" id="m9009b31b06" style="stroke:#008000;"/>
    </defs>
    <g clip-path="url(#pf3d1ceb2b7)">
     <use style="fill:#008000;stroke:#008000;" x="1185.398277" xlink:href="#m9009b31b06" y="493.706959"/>
    </g>
   </g>
   <g id="line2d_22">
    <g clip-path="url(#pf3d1ceb2b7)">
     <use style="fill:#008000;stroke:#008000;" x="1077.490867" xlink:href="#m9009b31b06" y="439.190547"/>
    </g>
   </g>
   <g id="line2d_23">
    <g clip-path="url(#pf3d1ceb2b7)">
     <use style="fill:#008000;stroke:#008000;" x="1286.113891" xlink:href="#m9009b31b06" y="346.802598"/>
    </g>
   </g>
   <g id="line2d_24">
    <g clip-path="url(#pf3d1ceb2b7)">
     <use style="fill:#008000;stroke:#008000;" x="1407.527524" xlink:href="#m9009b31b06" y="293.645858"/>
    </g>
   </g>
   <g id="line2d_25">
    <g clip-path="url(#pf3d1ceb2b7)">
     <use style="fill:#008000;stroke:#008000;" x="1317.572286" xlink:href="#m9009b31b06" y="274.204911"/>
    </g>
   </g>
   <g id="line2d_26">
    <g clip-path="url(#pf3d1ceb2b7)">
     <use style="fill:#008000;stroke:#008000;" x="647.192579" xlink:href="#m9009b31b06" y="392.520649"/>
    </g>
   </g>
   <g id="line2d_27">
    <g clip-path="url(#pf3d1ceb2b7)">
     <use style="fill:#008000;stroke:#008000;" x="647.192579" xlink:href="#m9009b31b06" y="392.520649"/>
    </g>
   </g>
   <g id="line2d_28">
    <g clip-path="url(#pf3d1ceb2b7)">
     <use style="fill:#008000;stroke:#008000;" x="559.625995" xlink:href="#m9009b31b06" y="225.338238"/>
    </g>
   </g>
   <g id="line2d_29">
    <g clip-path="url(#pf3d1ceb2b7)">
     <use style="fill:#008000;stroke:#008000;" x="575.258576" xlink:href="#m9009b31b06" y="395.156419"/>
    </g>
   </g>
   <g id="line2d_30">
    <g clip-path="url(#pf3d1ceb2b7)">
     <use style="fill:#008000;stroke:#008000;" x="575.258576" xlink:href="#m9009b31b06" y="395.156419"/>
    </g>
   </g>
   <g id="line2d_31">
    <g clip-path="url(#pf3d1ceb2b7)">
     <use style="fill:#008000;stroke:#008000;" x="462.021732" xlink:href="#m9009b31b06" y="247.554791"/>
    </g>
   </g>
   <g id="line2d_32">
    <g clip-path="url(#pf3d1ceb2b7)">
     <use style="fill:#008000;stroke:#008000;" x="455.603571" xlink:href="#m9009b31b06" y="397.684154"/>
    </g>
   </g>
   <g id="line2d_33">
    <g clip-path="url(#pf3d1ceb2b7)">
     <use style="fill:#008000;stroke:#008000;" x="403.263584" xlink:href="#m9009b31b06" y="446.988644"/>
    </g>
   </g>
   <g id="line2d_34">
    <g clip-path="url(#pf3d1ceb2b7)">
     <use style="fill:#008000;stroke:#008000;" x="409.274742" xlink:href="#m9009b31b06" y="504.118606"/>
    </g>
   </g>
   <g id="line2d_35">
    <g clip-path="url(#pf3d1ceb2b7)">
     <use style="fill:#008000;stroke:#008000;" x="607.058672" xlink:href="#m9009b31b06" y="641.11024"/>
    </g>
   </g>
   <g id="line2d_36">
    <g clip-path="url(#pf3d1ceb2b7)">
     <use style="fill:#008000;stroke:#008000;" x="688.214502" xlink:href="#m9009b31b06" y="598.124429"/>
    </g>
   </g>
   <g id="line2d_37">
    <g clip-path="url(#pf3d1ceb2b7)">
     <use style="fill:#008000;stroke:#008000;" x="688.214502" xlink:href="#m9009b31b06" y="598.124429"/>
    </g>
   </g>
   <g id="line2d_38">
    <defs>
     <path d="M 0 1.333333 
C 0.353604 1.333333 0.692773 1.192845 0.942809 0.942809 
C 1.192845 0.692773 1.333333 0.353604 1.333333 0 
C 1.333333 -0.353604 1.192845 -0.692773 0.942809 -0.942809 
C 0.692773 -1.192845 0.353604 -1.333333 0 -1.333333 
C -0.353604 -1.333333 -0.692773 -1.192845 -0.942809 -0.942809 
C -1.192845 -0.692773 -1.333333 -0.353604 -1.333333 0 
C -1.333333 0.353604 -1.192845 0.692773 -0.942809 0.942809 
C -0.692773 1.192845 -0.353604 1.333333 0 1.333333 
z
" id="m494b95f866" style="stroke:#ff0000;"/>
    </defs>
    <g clip-path="url(#pf3d1ceb2b7)">
     <use style="fill:#ff0000;stroke:#ff0000;" x="1185.398277" xlink:href="#m494b95f866" y="493.706959"/>
     <use style="fill:#ff0000;stroke:#ff0000;" x="1077.490867" xlink:href="#m494b95f866" y="439.190547"/>
     <use style="fill:#ff0000;stroke:#ff0000;" x="1286.113891" xlink:href="#m494b95f866" y="346.802598"/>
     <use style="fill:#ff0000;stroke:#ff0000;" x="1407.527524" xlink:href="#m494b95f866" y="293.645858"/>
     <use style="fill:#ff0000;stroke:#ff0000;" x="1317.572286" xlink:href="#m494b95f866" y="274.204911"/>
     <use style="fill:#ff0000;stroke:#ff0000;" x="650.478756" xlink:href="#m494b95f866" y="399.864701"/>
     <use style="fill:#ff0000;stroke:#ff0000;" x="642.373204" xlink:href="#m494b95f866" y="385.27407"/>
     <use style="fill:#ff0000;stroke:#ff0000;" x="764.135371" xlink:href="#m494b95f866" y="196.637216"/>
     <use style="fill:#ff0000;stroke:#ff0000;" x="739.083169" xlink:href="#m494b95f866" y="198.21538"/>
     <use style="fill:#ff0000;stroke:#ff0000;" x="714.178276" xlink:href="#m494b95f866" y="202.16837"/>
     <use style="fill:#ff0000;stroke:#ff0000;" x="690.854477" xlink:href="#m494b95f866" y="206.36748"/>
     <use style="fill:#ff0000;stroke:#ff0000;" x="559.625995" xlink:href="#m494b95f866" y="225.338238"/>
     <use style="fill:#ff0000;stroke:#ff0000;" x="578.387818" xlink:href="#m494b95f866" y="393.694635"/>
     <use style="fill:#ff0000;stroke:#ff0000;" x="572.321568" xlink:href="#m494b95f866" y="396.7411"/>
     <use style="fill:#ff0000;stroke:#ff0000;" x="462.021732" xlink:href="#m494b95f866" y="247.554791"/>
     <use style="fill:#ff0000;stroke:#ff0000;" x="390.273464" xlink:href="#m494b95f866" y="282.81912"/>
     <use style="fill:#ff0000;stroke:#ff0000;" x="415.416936" xlink:href="#m494b95f866" y="317.816599"/>
     <use style="fill:#ff0000;stroke:#ff0000;" x="422.948708" xlink:href="#m494b95f866" y="348.186486"/>
     <use style="fill:#ff0000;stroke:#ff0000;" x="407.829714" xlink:href="#m494b95f866" y="362.981522"/>
     <use style="fill:#ff0000;stroke:#ff0000;" x="454.862228" xlink:href="#m494b95f866" y="390.226244"/>
     <use style="fill:#ff0000;stroke:#ff0000;" x="457.045025" xlink:href="#m494b95f866" y="404.899052"/>
     <use style="fill:#ff0000;stroke:#ff0000;" x="432.866891" xlink:href="#m494b95f866" y="406.473274"/>
     <use style="fill:#ff0000;stroke:#ff0000;" x="411.200314" xlink:href="#m494b95f866" y="442.588044"/>
     <use style="fill:#ff0000;stroke:#ff0000;" x="395.526403" xlink:href="#m494b95f866" y="451.742594"/>
     <use style="fill:#ff0000;stroke:#ff0000;" x="409.274742" xlink:href="#m494b95f866" y="504.118606"/>
     <use style="fill:#ff0000;stroke:#ff0000;" x="467.884051" xlink:href="#m494b95f866" y="489.995803"/>
     <use style="fill:#ff0000;stroke:#ff0000;" x="434.790547" xlink:href="#m494b95f866" y="513.615255"/>
     <use style="fill:#ff0000;stroke:#ff0000;" x="450.137024" xlink:href="#m494b95f866" y="515.393638"/>
     <use style="fill:#ff0000;stroke:#ff0000;" x="470.192081" xlink:href="#m494b95f866" y="513.332049"/>
     <use style="fill:#ff0000;stroke:#ff0000;" x="456.315133" xlink:href="#m494b95f866" y="532.806651"/>
     <use style="fill:#ff0000;stroke:#ff0000;" x="467.567379" xlink:href="#m494b95f866" y="535.934557"/>
     <use style="fill:#ff0000;stroke:#ff0000;" x="454.074802" xlink:href="#m494b95f866" y="560.445525"/>
     <use style="fill:#ff0000;stroke:#ff0000;" x="465.317941" xlink:href="#m494b95f866" y="582.624598"/>
     <use style="fill:#ff0000;stroke:#ff0000;" x="472.344257" xlink:href="#m494b95f866" y="594.31108"/>
     <use style="fill:#ff0000;stroke:#ff0000;" x="468.640485" xlink:href="#m494b95f866" y="624.554915"/>
     <use style="fill:#ff0000;stroke:#ff0000;" x="482.915656" xlink:href="#m494b95f866" y="631.637676"/>
     <use style="fill:#ff0000;stroke:#ff0000;" x="509.35167" xlink:href="#m494b95f866" y="613.283394"/>
     <use style="fill:#ff0000;stroke:#ff0000;" x="512.167159" xlink:href="#m494b95f866" y="646.751717"/>
     <use style="fill:#ff0000;stroke:#ff0000;" x="546.433766" xlink:href="#m494b95f866" y="652.31075"/>
     <use style="fill:#ff0000;stroke:#ff0000;" x="568.888694" xlink:href="#m494b95f866" y="616.147362"/>
     <use style="fill:#ff0000;stroke:#ff0000;" x="583.705804" xlink:href="#m494b95f866" y="612.153448"/>
     <use style="fill:#ff0000;stroke:#ff0000;" x="598.478938" xlink:href="#m494b95f866" y="642.572911"/>
     <use style="fill:#ff0000;stroke:#ff0000;" x="615.523348" xlink:href="#m494b95f866" y="639.450623"/>
     <use style="fill:#ff0000;stroke:#ff0000;" x="615.179606" xlink:href="#m494b95f866" y="550.680798"/>
     <use style="fill:#ff0000;stroke:#ff0000;" x="635.250683" xlink:href="#m494b95f866" y="530.128476"/>
     <use style="fill:#ff0000;stroke:#ff0000;" x="680.79177" xlink:href="#m494b95f866" y="598.682323"/>
     <use style="fill:#ff0000;stroke:#ff0000;" x="695.672822" xlink:href="#m494b95f866" y="597.379453"/>
     <use style="fill:#ff0000;stroke:#ff0000;" x="761.454555" xlink:href="#m494b95f866" y="590.602066"/>
     <use style="fill:#ff0000;stroke:#ff0000;" x="797.106038" xlink:href="#m494b95f866" y="583.128365"/>
     <use style="fill:#ff0000;stroke:#ff0000;" x="818.884338" xlink:href="#m494b95f866" y="580.135239"/>
     <use style="fill:#ff0000;stroke:#ff0000;" x="873.837766" xlink:href="#m494b95f866" y="574.87565"/>
     <use style="fill:#ff0000;stroke:#ff0000;" x="876.465268" xlink:href="#m494b95f866" y="558.539607"/>
     <use style="fill:#ff0000;stroke:#ff0000;" x="902.080066" xlink:href="#m494b95f866" y="551.563492"/>
     <use style="fill:#ff0000;stroke:#ff0000;" x="1063.392564" xlink:href="#m494b95f866" y="538.634482"/>
     <use style="fill:#ff0000;stroke:#ff0000;" x="1098.335987" xlink:href="#m494b95f866" y="522.073011"/>
     <use style="fill:#ff0000;stroke:#ff0000;" x="1125.252923" xlink:href="#m494b95f866" y="502.009505"/>
    </g>
   </g>
   <g id="line2d_39">
    <defs>
     <path d="M -0.5 0.5 
L 0.5 0.5 
L 0.5 -0.5 
L -0.5 -0.5 
z
" id="m6bd845c054" style="stroke:#1f77b4;stroke-linejoin:miter;"/>
    </defs>
    <g clip-path="url(#pf3d1ceb2b7)">
     <use style="fill:#1f77b4;stroke:#1f77b4;stroke-linejoin:miter;" x="1185.398277" xlink:href="#m6bd845c054" y="493.706959"/>
     <use style="fill:#1f77b4;stroke:#1f77b4;stroke-linejoin:miter;" x="1077.490867" xlink:href="#m6bd845c054" y="439.190547"/>
     <use style="fill:#1f77b4;stroke:#1f77b4;stroke-linejoin:miter;" x="1286.113891" xlink:href="#m6bd845c054" y="346.802598"/>
     <use style="fill:#1f77b4;stroke:#1f77b4;stroke-linejoin:miter;" x="1407.527524" xlink:href="#m6bd845c054" y="293.645858"/>
     <use style="fill:#1f77b4;stroke:#1f77b4;stroke-linejoin:miter;" x="1317.572286" xlink:href="#m6bd845c054" y="274.204911"/>
     <use style="fill:#1f77b4;stroke:#1f77b4;stroke-linejoin:miter;" x="650.478756" xlink:href="#m6bd845c054" y="399.864701"/>
     <use style="fill:#1f77b4;stroke:#1f77b4;stroke-linejoin:miter;" x="647.097259" xlink:href="#m6bd845c054" y="397.308505"/>
     <use style="fill:#1f77b4;stroke:#1f77b4;stroke-linejoin:miter;" x="645.224855" xlink:href="#m6bd845c054" y="394.038189"/>
     <use style="fill:#1f77b4;stroke:#1f77b4;stroke-linejoin:miter;" x="641.698322" xlink:href="#m6bd845c054" y="391.538939"/>
     <use style="fill:#1f77b4;stroke:#1f77b4;stroke-linejoin:miter;" x="642.373204" xlink:href="#m6bd845c054" y="385.27407"/>
     <use style="fill:#1f77b4;stroke:#1f77b4;stroke-linejoin:miter;" x="764.135371" xlink:href="#m6bd845c054" y="196.637216"/>
     <use style="fill:#1f77b4;stroke:#1f77b4;stroke-linejoin:miter;" x="739.083169" xlink:href="#m6bd845c054" y="198.21538"/>
     <use style="fill:#1f77b4;stroke:#1f77b4;stroke-linejoin:miter;" x="714.178276" xlink:href="#m6bd845c054" y="202.16837"/>
     <use style="fill:#1f77b4;stroke:#1f77b4;stroke-linejoin:miter;" x="690.854477" xlink:href="#m6bd845c054" y="206.36748"/>
     <use style="fill:#1f77b4;stroke:#1f77b4;stroke-linejoin:miter;" x="669.309392" xlink:href="#m6bd845c054" y="210.481473"/>
     <use style="fill:#1f77b4;stroke:#1f77b4;stroke-linejoin:miter;" x="649.546408" xlink:href="#m6bd845c054" y="212.192604"/>
     <use style="fill:#1f77b4;stroke:#1f77b4;stroke-linejoin:miter;" x="630.408997" xlink:href="#m6bd845c054" y="215.454254"/>
     <use style="fill:#1f77b4;stroke:#1f77b4;stroke-linejoin:miter;" x="611.536237" xlink:href="#m6bd845c054" y="218.760671"/>
     <use style="fill:#1f77b4;stroke:#1f77b4;stroke-linejoin:miter;" x="593.752408" xlink:href="#m6bd845c054" y="223.299517"/>
     <use style="fill:#1f77b4;stroke:#1f77b4;stroke-linejoin:miter;" x="576.637379" xlink:href="#m6bd845c054" y="225.217817"/>
     <use style="fill:#1f77b4;stroke:#1f77b4;stroke-linejoin:miter;" x="559.625995" xlink:href="#m6bd845c054" y="225.338238"/>
     <use style="fill:#1f77b4;stroke:#1f77b4;stroke-linejoin:miter;" x="578.387818" xlink:href="#m6bd845c054" y="393.694635"/>
     <use style="fill:#1f77b4;stroke:#1f77b4;stroke-linejoin:miter;" x="575.435368" xlink:href="#m6bd845c054" y="395.723908"/>
     <use style="fill:#1f77b4;stroke:#1f77b4;stroke-linejoin:miter;" x="572.321568" xlink:href="#m6bd845c054" y="396.7411"/>
     <use style="fill:#1f77b4;stroke:#1f77b4;stroke-linejoin:miter;" x="462.021732" xlink:href="#m6bd845c054" y="247.554791"/>
     <use style="fill:#1f77b4;stroke:#1f77b4;stroke-linejoin:miter;" x="444.150982" xlink:href="#m6bd845c054" y="250.03459"/>
     <use style="fill:#1f77b4;stroke:#1f77b4;stroke-linejoin:miter;" x="426.0131" xlink:href="#m6bd845c054" y="253.101828"/>
     <use style="fill:#1f77b4;stroke:#1f77b4;stroke-linejoin:miter;" x="416.400883" xlink:href="#m6bd845c054" y="265.715312"/>
     <use style="fill:#1f77b4;stroke:#1f77b4;stroke-linejoin:miter;" x="399.707921" xlink:href="#m6bd845c054" y="271.318089"/>
     <use style="fill:#1f77b4;stroke:#1f77b4;stroke-linejoin:miter;" x="390.273464" xlink:href="#m6bd845c054" y="282.81912"/>
     <use style="fill:#1f77b4;stroke:#1f77b4;stroke-linejoin:miter;" x="415.416936" xlink:href="#m6bd845c054" y="317.816599"/>
     <use style="fill:#1f77b4;stroke:#1f77b4;stroke-linejoin:miter;" x="422.948708" xlink:href="#m6bd845c054" y="348.186486"/>
     <use style="fill:#1f77b4;stroke:#1f77b4;stroke-linejoin:miter;" x="418.102737" xlink:href="#m6bd845c054" y="356.724986"/>
     <use style="fill:#1f77b4;stroke:#1f77b4;stroke-linejoin:miter;" x="407.829714" xlink:href="#m6bd845c054" y="362.981522"/>
     <use style="fill:#1f77b4;stroke:#1f77b4;stroke-linejoin:miter;" x="454.862228" xlink:href="#m6bd845c054" y="390.226244"/>
     <use style="fill:#1f77b4;stroke:#1f77b4;stroke-linejoin:miter;" x="454.833161" xlink:href="#m6bd845c054" y="397.35261"/>
     <use style="fill:#1f77b4;stroke:#1f77b4;stroke-linejoin:miter;" x="457.045025" xlink:href="#m6bd845c054" y="404.899052"/>
     <use style="fill:#1f77b4;stroke:#1f77b4;stroke-linejoin:miter;" x="432.866891" xlink:href="#m6bd845c054" y="406.473274"/>
     <use style="fill:#1f77b4;stroke:#1f77b4;stroke-linejoin:miter;" x="439.834859" xlink:href="#m6bd845c054" y="415.019054"/>
     <use style="fill:#1f77b4;stroke:#1f77b4;stroke-linejoin:miter;" x="426.228464" xlink:href="#m6bd845c054" y="420.384056"/>
     <use style="fill:#1f77b4;stroke:#1f77b4;stroke-linejoin:miter;" x="418.19991" xlink:href="#m6bd845c054" y="427.382376"/>
     <use style="fill:#1f77b4;stroke:#1f77b4;stroke-linejoin:miter;" x="420.415926" xlink:href="#m6bd845c054" y="434.903691"/>
     <use style="fill:#1f77b4;stroke:#1f77b4;stroke-linejoin:miter;" x="411.200314" xlink:href="#m6bd845c054" y="442.588044"/>
     <use style="fill:#1f77b4;stroke:#1f77b4;stroke-linejoin:miter;" x="395.526403" xlink:href="#m6bd845c054" y="451.742594"/>
     <use style="fill:#1f77b4;stroke:#1f77b4;stroke-linejoin:miter;" x="398.677753" xlink:href="#m6bd845c054" y="460.187185"/>
     <use style="fill:#1f77b4;stroke:#1f77b4;stroke-linejoin:miter;" x="401.867761" xlink:href="#m6bd845c054" y="468.552257"/>
     <use style="fill:#1f77b4;stroke:#1f77b4;stroke-linejoin:miter;" x="403.622651" xlink:href="#m6bd845c054" y="477.175472"/>
     <use style="fill:#1f77b4;stroke:#1f77b4;stroke-linejoin:miter;" x="405.633119" xlink:href="#m6bd845c054" y="485.667819"/>
     <use style="fill:#1f77b4;stroke:#1f77b4;stroke-linejoin:miter;" x="408.15318" xlink:href="#m6bd845c054" y="494.79735"/>
     <use style="fill:#1f77b4;stroke:#1f77b4;stroke-linejoin:miter;" x="409.274742" xlink:href="#m6bd845c054" y="504.118606"/>
     <use style="fill:#1f77b4;stroke:#1f77b4;stroke-linejoin:miter;" x="467.884051" xlink:href="#m6bd845c054" y="489.995803"/>
     <use style="fill:#1f77b4;stroke:#1f77b4;stroke-linejoin:miter;" x="434.790547" xlink:href="#m6bd845c054" y="513.615255"/>
     <use style="fill:#1f77b4;stroke:#1f77b4;stroke-linejoin:miter;" x="450.137024" xlink:href="#m6bd845c054" y="515.393638"/>
     <use style="fill:#1f77b4;stroke:#1f77b4;stroke-linejoin:miter;" x="470.192081" xlink:href="#m6bd845c054" y="513.332049"/>
     <use style="fill:#1f77b4;stroke:#1f77b4;stroke-linejoin:miter;" x="456.315133" xlink:href="#m6bd845c054" y="532.806651"/>
     <use style="fill:#1f77b4;stroke:#1f77b4;stroke-linejoin:miter;" x="467.567379" xlink:href="#m6bd845c054" y="535.934557"/>
     <use style="fill:#1f77b4;stroke:#1f77b4;stroke-linejoin:miter;" x="454.074802" xlink:href="#m6bd845c054" y="560.445525"/>
     <use style="fill:#1f77b4;stroke:#1f77b4;stroke-linejoin:miter;" x="465.317941" xlink:href="#m6bd845c054" y="582.624598"/>
     <use style="fill:#1f77b4;stroke:#1f77b4;stroke-linejoin:miter;" x="472.344257" xlink:href="#m6bd845c054" y="594.31108"/>
     <use style="fill:#1f77b4;stroke:#1f77b4;stroke-linejoin:miter;" x="468.640485" xlink:href="#m6bd845c054" y="624.554915"/>
     <use style="fill:#1f77b4;stroke:#1f77b4;stroke-linejoin:miter;" x="482.915656" xlink:href="#m6bd845c054" y="631.637676"/>
     <use style="fill:#1f77b4;stroke:#1f77b4;stroke-linejoin:miter;" x="509.35167" xlink:href="#m6bd845c054" y="613.283394"/>
     <use style="fill:#1f77b4;stroke:#1f77b4;stroke-linejoin:miter;" x="512.167159" xlink:href="#m6bd845c054" y="646.751717"/>
     <use style="fill:#1f77b4;stroke:#1f77b4;stroke-linejoin:miter;" x="527.379414" xlink:href="#m6bd845c054" y="655.77993"/>
     <use style="fill:#1f77b4;stroke:#1f77b4;stroke-linejoin:miter;" x="546.433766" xlink:href="#m6bd845c054" y="652.31075"/>
     <use style="fill:#1f77b4;stroke:#1f77b4;stroke-linejoin:miter;" x="568.888694" xlink:href="#m6bd845c054" y="616.147362"/>
     <use style="fill:#1f77b4;stroke:#1f77b4;stroke-linejoin:miter;" x="583.705804" xlink:href="#m6bd845c054" y="612.153448"/>
     <use style="fill:#1f77b4;stroke:#1f77b4;stroke-linejoin:miter;" x="598.478938" xlink:href="#m6bd845c054" y="642.572911"/>
     <use style="fill:#1f77b4;stroke:#1f77b4;stroke-linejoin:miter;" x="615.523348" xlink:href="#m6bd845c054" y="639.450623"/>
     <use style="fill:#1f77b4;stroke:#1f77b4;stroke-linejoin:miter;" x="615.179606" xlink:href="#m6bd845c054" y="550.680798"/>
     <use style="fill:#1f77b4;stroke:#1f77b4;stroke-linejoin:miter;" x="622.920928" xlink:href="#m6bd845c054" y="544.789293"/>
     <use style="fill:#1f77b4;stroke:#1f77b4;stroke-linejoin:miter;" x="627.923931" xlink:href="#m6bd845c054" y="532.937307"/>
     <use style="fill:#1f77b4;stroke:#1f77b4;stroke-linejoin:miter;" x="635.250683" xlink:href="#m6bd845c054" y="530.128476"/>
     <use style="fill:#1f77b4;stroke:#1f77b4;stroke-linejoin:miter;" x="680.79177" xlink:href="#m6bd845c054" y="598.682323"/>
     <use style="fill:#1f77b4;stroke:#1f77b4;stroke-linejoin:miter;" x="695.672822" xlink:href="#m6bd845c054" y="597.379453"/>
     <use style="fill:#1f77b4;stroke:#1f77b4;stroke-linejoin:miter;" x="761.454555" xlink:href="#m6bd845c054" y="590.602066"/>
     <use style="fill:#1f77b4;stroke:#1f77b4;stroke-linejoin:miter;" x="777.390447" xlink:href="#m6bd845c054" y="585.905245"/>
     <use style="fill:#1f77b4;stroke:#1f77b4;stroke-linejoin:miter;" x="797.106038" xlink:href="#m6bd845c054" y="583.128365"/>
     <use style="fill:#1f77b4;stroke:#1f77b4;stroke-linejoin:miter;" x="818.884338" xlink:href="#m6bd845c054" y="580.135239"/>
     <use style="fill:#1f77b4;stroke:#1f77b4;stroke-linejoin:miter;" x="873.837766" xlink:href="#m6bd845c054" y="574.87565"/>
     <use style="fill:#1f77b4;stroke:#1f77b4;stroke-linejoin:miter;" x="876.465268" xlink:href="#m6bd845c054" y="558.539607"/>
     <use style="fill:#1f77b4;stroke:#1f77b4;stroke-linejoin:miter;" x="902.080066" xlink:href="#m6bd845c054" y="551.563492"/>
     <use style="fill:#1f77b4;stroke:#1f77b4;stroke-linejoin:miter;" x="1063.392564" xlink:href="#m6bd845c054" y="538.634482"/>
     <use style="fill:#1f77b4;stroke:#1f77b4;stroke-linejoin:miter;" x="1098.335987" xlink:href="#m6bd845c054" y="522.073011"/>
     <use style="fill:#1f77b4;stroke:#1f77b4;stroke-linejoin:miter;" x="1125.252923" xlink:href="#m6bd845c054" y="502.009505"/>
    </g>
   </g>
   <g id="patch_3">
    <path d="M 144 768.96 
L 144 103.68 
" style="fill:none;stroke:#000000;stroke-linecap:square;stroke-linejoin:miter;stroke-width:0.8;"/>
   </g>
   <g id="patch_4">
    <path d="M 1036.8 768.96 
L 1036.8 103.68 
" style="fill:none;stroke:#000000;stroke-linecap:square;stroke-linejoin:miter;stroke-width:0.8;"/>
   </g>
   <g id="patch_5">
    <path d="M 144 768.96 
L 1036.8 768.96 
" style="fill:none;stroke:#000000;stroke-linecap:square;stroke-linejoin:miter;stroke-width:0.8;"/>
   </g>
   <g id="patch_6">
    <path d="M 144 103.68 
L 1036.8 103.68 
" style="fill:none;stroke:#000000;stroke-linecap:square;stroke-linejoin:miter;stroke-width:0.8;"/>
   </g>
  </g>
 </g>
 <defs>
  <clipPath id="pf3d1ceb2b7">
   <rect height="665.28" width="892.8" x="144" y="103.68"/>
  </clipPath>
 </defs>
</svg>
