<?xml version="1.0" encoding="utf-8" standalone="no"?>
<!DOCTYPE svg PUBLIC "-//W3C//DTD SVG 1.1//EN"
  "http://www.w3.org/Graphics/SVG/1.1/DTD/svg11.dtd">
<!-- Created with matplotlib (http://matplotlib.org/) -->
<svg height="864pt" version="1.1" viewBox="0 0 1152 864" width="1152pt" xmlns="http://www.w3.org/2000/svg" xmlns:xlink="http://www.w3.org/1999/xlink">
 <defs>
  <style type="text/css">
*{stroke-linecap:butt;stroke-linejoin:round;}
  </style>
 </defs>
 <g id="figure_1">
  <g id="patch_1">
   <path d="M 0 864 
L 1152 864 
L 1152 0 
L 0 0 
z
" style="fill:#ffffff;"/>
  </g>
  <g id="axes_1">
   <g id="patch_2">
    <path d="M 144 768.96 
L 1036.8 768.96 
L 1036.8 103.68 
L 144 103.68 
z
" style="fill:#ffffff;"/>
   </g>
   <g id="matplotlib.axis_1">
    <g id="xtick_1">
     <g id="line2d_1">
      <defs>
       <path d="M 0 0 
L 0 3.5 
" id="mad3c8c6ea1" style="stroke:#000000;stroke-width:0.8;"/>
      </defs>
      <g>
       <use style="stroke:#000000;stroke-width:0.8;" x="144" xlink:href="#mad3c8c6ea1" y="768.96"/>
      </g>
     </g>
     <g id="text_1">
      <!-- −4000 -->
      <defs>
       <path d="M 10.59375 35.5 
L 73.1875 35.5 
L 73.1875 27.203125 
L 10.59375 27.203125 
z
" id="DejaVuSans-2212"/>
       <path d="M 37.796875 64.3125 
L 12.890625 25.390625 
L 37.796875 25.390625 
z
M 35.203125 72.90625 
L 47.609375 72.90625 
L 47.609375 25.390625 
L 58.015625 25.390625 
L 58.015625 17.1875 
L 47.609375 17.1875 
L 47.609375 0 
L 37.796875 0 
L 37.796875 17.1875 
L 4.890625 17.1875 
L 4.890625 26.703125 
z
" id="DejaVuSans-34"/>
       <path d="M 31.78125 66.40625 
Q 24.171875 66.40625 20.328125 58.90625 
Q 16.5 51.421875 16.5 36.375 
Q 16.5 21.390625 20.328125 13.890625 
Q 24.171875 6.390625 31.78125 6.390625 
Q 39.453125 6.390625 43.28125 13.890625 
Q 47.125 21.390625 47.125 36.375 
Q 47.125 51.421875 43.28125 58.90625 
Q 39.453125 66.40625 31.78125 66.40625 
z
M 31.78125 74.21875 
Q 44.046875 74.21875 50.515625 64.515625 
Q 56.984375 54.828125 56.984375 36.375 
Q 56.984375 17.96875 50.515625 8.265625 
Q 44.046875 -1.421875 31.78125 -1.421875 
Q 19.53125 -1.421875 13.0625 8.265625 
Q 6.59375 17.96875 6.59375 36.375 
Q 6.59375 54.828125 13.0625 64.515625 
Q 19.53125 74.21875 31.78125 74.21875 
z
" id="DejaVuSans-30"/>
      </defs>
      <g transform="translate(127.085156 783.558437)scale(0.1 -0.1)">
       <use xlink:href="#DejaVuSans-2212"/>
       <use x="83.789062" xlink:href="#DejaVuSans-34"/>
       <use x="147.412109" xlink:href="#DejaVuSans-30"/>
       <use x="211.035156" xlink:href="#DejaVuSans-30"/>
       <use x="274.658203" xlink:href="#DejaVuSans-30"/>
      </g>
     </g>
    </g>
    <g id="xtick_2">
     <g id="line2d_2">
      <g>
       <use style="stroke:#000000;stroke-width:0.8;" x="255.6" xlink:href="#mad3c8c6ea1" y="768.96"/>
      </g>
     </g>
     <g id="text_2">
      <!-- −3000 -->
      <defs>
       <path d="M 40.578125 39.3125 
Q 47.65625 37.796875 51.625 33 
Q 55.609375 28.21875 55.609375 21.1875 
Q 55.609375 10.40625 48.1875 4.484375 
Q 40.765625 -1.421875 27.09375 -1.421875 
Q 22.515625 -1.421875 17.65625 -0.515625 
Q 12.796875 0.390625 7.625 2.203125 
L 7.625 11.71875 
Q 11.71875 9.328125 16.59375 8.109375 
Q 21.484375 6.890625 26.8125 6.890625 
Q 36.078125 6.890625 40.9375 10.546875 
Q 45.796875 14.203125 45.796875 21.1875 
Q 45.796875 27.640625 41.28125 31.265625 
Q 36.765625 34.90625 28.71875 34.90625 
L 20.21875 34.90625 
L 20.21875 43.015625 
L 29.109375 43.015625 
Q 36.375 43.015625 40.234375 45.921875 
Q 44.09375 48.828125 44.09375 54.296875 
Q 44.09375 59.90625 40.109375 62.90625 
Q 36.140625 65.921875 28.71875 65.921875 
Q 24.65625 65.921875 20.015625 65.03125 
Q 15.375 64.15625 9.8125 62.3125 
L 9.8125 71.09375 
Q 15.4375 72.65625 20.34375 73.4375 
Q 25.25 74.21875 29.59375 74.21875 
Q 40.828125 74.21875 47.359375 69.109375 
Q 53.90625 64.015625 53.90625 55.328125 
Q 53.90625 49.265625 50.4375 45.09375 
Q 46.96875 40.921875 40.578125 39.3125 
z
" id="DejaVuSans-33"/>
      </defs>
      <g transform="translate(238.685156 783.558437)scale(0.1 -0.1)">
       <use xlink:href="#DejaVuSans-2212"/>
       <use x="83.789062" xlink:href="#DejaVuSans-33"/>
       <use x="147.412109" xlink:href="#DejaVuSans-30"/>
       <use x="211.035156" xlink:href="#DejaVuSans-30"/>
       <use x="274.658203" xlink:href="#DejaVuSans-30"/>
      </g>
     </g>
    </g>
    <g id="xtick_3">
     <g id="line2d_3">
      <g>
       <use style="stroke:#000000;stroke-width:0.8;" x="367.2" xlink:href="#mad3c8c6ea1" y="768.96"/>
      </g>
     </g>
     <g id="text_3">
      <!-- −2000 -->
      <defs>
       <path d="M 19.1875 8.296875 
L 53.609375 8.296875 
L 53.609375 0 
L 7.328125 0 
L 7.328125 8.296875 
Q 12.9375 14.109375 22.625 23.890625 
Q 32.328125 33.6875 34.8125 36.53125 
Q 39.546875 41.84375 41.421875 45.53125 
Q 43.3125 49.21875 43.3125 52.78125 
Q 43.3125 58.59375 39.234375 62.25 
Q 35.15625 65.921875 28.609375 65.921875 
Q 23.96875 65.921875 18.8125 64.3125 
Q 13.671875 62.703125 7.8125 59.421875 
L 7.8125 69.390625 
Q 13.765625 71.78125 18.9375 73 
Q 24.125 74.21875 28.421875 74.21875 
Q 39.75 74.21875 46.484375 68.546875 
Q 53.21875 62.890625 53.21875 53.421875 
Q 53.21875 48.921875 51.53125 44.890625 
Q 49.859375 40.875 45.40625 35.40625 
Q 44.1875 33.984375 37.640625 27.21875 
Q 31.109375 20.453125 19.1875 8.296875 
z
" id="DejaVuSans-32"/>
      </defs>
      <g transform="translate(350.285156 783.558437)scale(0.1 -0.1)">
       <use xlink:href="#DejaVuSans-2212"/>
       <use x="83.789062" xlink:href="#DejaVuSans-32"/>
       <use x="147.412109" xlink:href="#DejaVuSans-30"/>
       <use x="211.035156" xlink:href="#DejaVuSans-30"/>
       <use x="274.658203" xlink:href="#DejaVuSans-30"/>
      </g>
     </g>
    </g>
    <g id="xtick_4">
     <g id="line2d_4">
      <g>
       <use style="stroke:#000000;stroke-width:0.8;" x="478.8" xlink:href="#mad3c8c6ea1" y="768.96"/>
      </g>
     </g>
     <g id="text_4">
      <!-- −1000 -->
      <defs>
       <path d="M 12.40625 8.296875 
L 28.515625 8.296875 
L 28.515625 63.921875 
L 10.984375 60.40625 
L 10.984375 69.390625 
L 28.421875 72.90625 
L 38.28125 72.90625 
L 38.28125 8.296875 
L 54.390625 8.296875 
L 54.390625 0 
L 12.40625 0 
z
" id="DejaVuSans-31"/>
      </defs>
      <g transform="translate(461.885156 783.558437)scale(0.1 -0.1)">
       <use xlink:href="#DejaVuSans-2212"/>
       <use x="83.789062" xlink:href="#DejaVuSans-31"/>
       <use x="147.412109" xlink:href="#DejaVuSans-30"/>
       <use x="211.035156" xlink:href="#DejaVuSans-30"/>
       <use x="274.658203" xlink:href="#DejaVuSans-30"/>
      </g>
     </g>
    </g>
    <g id="xtick_5">
     <g id="line2d_5">
      <g>
       <use style="stroke:#000000;stroke-width:0.8;" x="590.4" xlink:href="#mad3c8c6ea1" y="768.96"/>
      </g>
     </g>
     <g id="text_5">
      <!-- 0 -->
      <g transform="translate(587.21875 783.558437)scale(0.1 -0.1)">
       <use xlink:href="#DejaVuSans-30"/>
      </g>
     </g>
    </g>
    <g id="xtick_6">
     <g id="line2d_6">
      <g>
       <use style="stroke:#000000;stroke-width:0.8;" x="702" xlink:href="#mad3c8c6ea1" y="768.96"/>
      </g>
     </g>
     <g id="text_6">
      <!-- 1000 -->
      <g transform="translate(689.275 783.558437)scale(0.1 -0.1)">
       <use xlink:href="#DejaVuSans-31"/>
       <use x="63.623047" xlink:href="#DejaVuSans-30"/>
       <use x="127.246094" xlink:href="#DejaVuSans-30"/>
       <use x="190.869141" xlink:href="#DejaVuSans-30"/>
      </g>
     </g>
    </g>
    <g id="xtick_7">
     <g id="line2d_7">
      <g>
       <use style="stroke:#000000;stroke-width:0.8;" x="813.6" xlink:href="#mad3c8c6ea1" y="768.96"/>
      </g>
     </g>
     <g id="text_7">
      <!-- 2000 -->
      <g transform="translate(800.875 783.558437)scale(0.1 -0.1)">
       <use xlink:href="#DejaVuSans-32"/>
       <use x="63.623047" xlink:href="#DejaVuSans-30"/>
       <use x="127.246094" xlink:href="#DejaVuSans-30"/>
       <use x="190.869141" xlink:href="#DejaVuSans-30"/>
      </g>
     </g>
    </g>
    <g id="xtick_8">
     <g id="line2d_8">
      <g>
       <use style="stroke:#000000;stroke-width:0.8;" x="925.2" xlink:href="#mad3c8c6ea1" y="768.96"/>
      </g>
     </g>
     <g id="text_8">
      <!-- 3000 -->
      <g transform="translate(912.475 783.558437)scale(0.1 -0.1)">
       <use xlink:href="#DejaVuSans-33"/>
       <use x="63.623047" xlink:href="#DejaVuSans-30"/>
       <use x="127.246094" xlink:href="#DejaVuSans-30"/>
       <use x="190.869141" xlink:href="#DejaVuSans-30"/>
      </g>
     </g>
    </g>
    <g id="xtick_9">
     <g id="line2d_9">
      <g>
       <use style="stroke:#000000;stroke-width:0.8;" x="1036.8" xlink:href="#mad3c8c6ea1" y="768.96"/>
      </g>
     </g>
     <g id="text_9">
      <!-- 4000 -->
      <g transform="translate(1024.075 783.558437)scale(0.1 -0.1)">
       <use xlink:href="#DejaVuSans-34"/>
       <use x="63.623047" xlink:href="#DejaVuSans-30"/>
       <use x="127.246094" xlink:href="#DejaVuSans-30"/>
       <use x="190.869141" xlink:href="#DejaVuSans-30"/>
      </g>
     </g>
    </g>
   </g>
   <g id="matplotlib.axis_2">
    <g id="ytick_1">
     <g id="line2d_10">
      <defs>
       <path d="M 0 0 
L -3.5 0 
" id="m702e450402" style="stroke:#000000;stroke-width:0.8;"/>
      </defs>
      <g>
       <use style="stroke:#000000;stroke-width:0.8;" x="144" xlink:href="#m702e450402" y="768.96"/>
      </g>
     </g>
     <g id="text_10">
      <!-- −4000 -->
      <g transform="translate(103.170312 772.759219)scale(0.1 -0.1)">
       <use xlink:href="#DejaVuSans-2212"/>
       <use x="83.789062" xlink:href="#DejaVuSans-34"/>
       <use x="147.412109" xlink:href="#DejaVuSans-30"/>
       <use x="211.035156" xlink:href="#DejaVuSans-30"/>
       <use x="274.658203" xlink:href="#DejaVuSans-30"/>
      </g>
     </g>
    </g>
    <g id="ytick_2">
     <g id="line2d_11">
      <g>
       <use style="stroke:#000000;stroke-width:0.8;" x="144" xlink:href="#m702e450402" y="685.8"/>
      </g>
     </g>
     <g id="text_11">
      <!-- −3000 -->
      <g transform="translate(103.170312 689.599219)scale(0.1 -0.1)">
       <use xlink:href="#DejaVuSans-2212"/>
       <use x="83.789062" xlink:href="#DejaVuSans-33"/>
       <use x="147.412109" xlink:href="#DejaVuSans-30"/>
       <use x="211.035156" xlink:href="#DejaVuSans-30"/>
       <use x="274.658203" xlink:href="#DejaVuSans-30"/>
      </g>
     </g>
    </g>
    <g id="ytick_3">
     <g id="line2d_12">
      <g>
       <use style="stroke:#000000;stroke-width:0.8;" x="144" xlink:href="#m702e450402" y="602.64"/>
      </g>
     </g>
     <g id="text_12">
      <!-- −2000 -->
      <g transform="translate(103.170312 606.439219)scale(0.1 -0.1)">
       <use xlink:href="#DejaVuSans-2212"/>
       <use x="83.789062" xlink:href="#DejaVuSans-32"/>
       <use x="147.412109" xlink:href="#DejaVuSans-30"/>
       <use x="211.035156" xlink:href="#DejaVuSans-30"/>
       <use x="274.658203" xlink:href="#DejaVuSans-30"/>
      </g>
     </g>
    </g>
    <g id="ytick_4">
     <g id="line2d_13">
      <g>
       <use style="stroke:#000000;stroke-width:0.8;" x="144" xlink:href="#m702e450402" y="519.48"/>
      </g>
     </g>
     <g id="text_13">
      <!-- −1000 -->
      <g transform="translate(103.170312 523.279219)scale(0.1 -0.1)">
       <use xlink:href="#DejaVuSans-2212"/>
       <use x="83.789062" xlink:href="#DejaVuSans-31"/>
       <use x="147.412109" xlink:href="#DejaVuSans-30"/>
       <use x="211.035156" xlink:href="#DejaVuSans-30"/>
       <use x="274.658203" xlink:href="#DejaVuSans-30"/>
      </g>
     </g>
    </g>
    <g id="ytick_5">
     <g id="line2d_14">
      <g>
       <use style="stroke:#000000;stroke-width:0.8;" x="144" xlink:href="#m702e450402" y="436.32"/>
      </g>
     </g>
     <g id="text_14">
      <!-- 0 -->
      <g transform="translate(130.6375 440.119219)scale(0.1 -0.1)">
       <use xlink:href="#DejaVuSans-30"/>
      </g>
     </g>
    </g>
    <g id="ytick_6">
     <g id="line2d_15">
      <g>
       <use style="stroke:#000000;stroke-width:0.8;" x="144" xlink:href="#m702e450402" y="353.16"/>
      </g>
     </g>
     <g id="text_15">
      <!-- 1000 -->
      <g transform="translate(111.55 356.959219)scale(0.1 -0.1)">
       <use xlink:href="#DejaVuSans-31"/>
       <use x="63.623047" xlink:href="#DejaVuSans-30"/>
       <use x="127.246094" xlink:href="#DejaVuSans-30"/>
       <use x="190.869141" xlink:href="#DejaVuSans-30"/>
      </g>
     </g>
    </g>
    <g id="ytick_7">
     <g id="line2d_16">
      <g>
       <use style="stroke:#000000;stroke-width:0.8;" x="144" xlink:href="#m702e450402" y="270"/>
      </g>
     </g>
     <g id="text_16">
      <!-- 2000 -->
      <g transform="translate(111.55 273.799219)scale(0.1 -0.1)">
       <use xlink:href="#DejaVuSans-32"/>
       <use x="63.623047" xlink:href="#DejaVuSans-30"/>
       <use x="127.246094" xlink:href="#DejaVuSans-30"/>
       <use x="190.869141" xlink:href="#DejaVuSans-30"/>
      </g>
     </g>
    </g>
    <g id="ytick_8">
     <g id="line2d_17">
      <g>
       <use style="stroke:#000000;stroke-width:0.8;" x="144" xlink:href="#m702e450402" y="186.84"/>
      </g>
     </g>
     <g id="text_17">
      <!-- 3000 -->
      <g transform="translate(111.55 190.639219)scale(0.1 -0.1)">
       <use xlink:href="#DejaVuSans-33"/>
       <use x="63.623047" xlink:href="#DejaVuSans-30"/>
       <use x="127.246094" xlink:href="#DejaVuSans-30"/>
       <use x="190.869141" xlink:href="#DejaVuSans-30"/>
      </g>
     </g>
    </g>
    <g id="ytick_9">
     <g id="line2d_18">
      <g>
       <use style="stroke:#000000;stroke-width:0.8;" x="144" xlink:href="#m702e450402" y="103.68"/>
      </g>
     </g>
     <g id="text_18">
      <!-- 4000 -->
      <g transform="translate(111.55 107.479219)scale(0.1 -0.1)">
       <use xlink:href="#DejaVuSans-34"/>
       <use x="63.623047" xlink:href="#DejaVuSans-30"/>
       <use x="127.246094" xlink:href="#DejaVuSans-30"/>
       <use x="190.869141" xlink:href="#DejaVuSans-30"/>
      </g>
     </g>
    </g>
   </g>
   <g id="line2d_19">
    <path clip-path="url(#pc4a74ba2f6)" d="M 590.4 768.96 
L 590.4 103.68 
" style="fill:none;stroke:#1f77b4;stroke-linecap:square;stroke-width:1.5;"/>
   </g>
   <g id="line2d_20">
    <path clip-path="url(#pc4a74ba2f6)" d="M 144 436.32 
L 1036.8 436.32 
" style="fill:none;stroke:#1f77b4;stroke-linecap:square;stroke-width:1.5;"/>
   </g>
   <g id="line2d_21">
    <defs>
     <path d="M 0 3 
C 0.795609 3 1.55874 2.683901 2.12132 2.12132 
C 2.683901 1.55874 3 0.795609 3 0 
C 3 -0.795609 2.683901 -1.55874 2.12132 -2.12132 
C 1.55874 -2.683901 0.795609 -3 0 -3 
C -0.795609 -3 -1.55874 -2.683901 -2.12132 -2.12132 
C -2.683901 -1.55874 -3 -0.795609 -3 0 
C -3 0.795609 -2.683901 1.55874 -2.12132 2.12132 
C -1.55874 2.683901 -0.795609 3 0 3 
z
" id="m06d597997a" style="stroke:#008000;"/>
    </defs>
    <g clip-path="url(#pc4a74ba2f6)">
     <use style="fill:#008000;stroke:#008000;" x="1072.593907" xlink:href="#m06d597997a" y="435.340125"/>
    </g>
   </g>
   <g id="line2d_22">
    <g clip-path="url(#pc4a74ba2f6)">
     <use style="fill:#008000;stroke:#008000;" x="1279.514797" xlink:href="#m06d597997a" y="342.306393"/>
    </g>
   </g>
   <g id="line2d_23">
    <g clip-path="url(#pc4a74ba2f6)">
     <use style="fill:#008000;stroke:#008000;" x="1316.787193" xlink:href="#m06d597997a" y="268.573082"/>
    </g>
   </g>
   <g id="line2d_24">
    <g clip-path="url(#pc4a74ba2f6)">
     <use style="fill:#008000;stroke:#008000;" x="645.917218" xlink:href="#m06d597997a" y="395.085878"/>
    </g>
   </g>
   <g id="line2d_25">
    <g clip-path="url(#pc4a74ba2f6)">
     <use style="fill:#008000;stroke:#008000;" x="645.917218" xlink:href="#m06d597997a" y="395.085878"/>
    </g>
   </g>
   <g id="line2d_26">
    <g clip-path="url(#pc4a74ba2f6)">
     <use style="fill:#008000;stroke:#008000;" x="574.331217" xlink:href="#m06d597997a" y="225.454078"/>
    </g>
   </g>
   <g id="line2d_27">
    <g clip-path="url(#pc4a74ba2f6)">
     <use style="fill:#008000;stroke:#008000;" x="576.170599" xlink:href="#m06d597997a" y="394.35401"/>
    </g>
   </g>
   <g id="line2d_28">
    <g clip-path="url(#pc4a74ba2f6)">
     <use style="fill:#008000;stroke:#008000;" x="576.170599" xlink:href="#m06d597997a" y="394.35401"/>
    </g>
   </g>
   <g id="line2d_29">
    <g clip-path="url(#pc4a74ba2f6)">
     <use style="fill:#008000;stroke:#008000;" x="459.932711" xlink:href="#m06d597997a" y="248.187947"/>
    </g>
   </g>
   <g id="line2d_30">
    <defs>
     <path d="M 0 1.333333 
C 0.353604 1.333333 0.692773 1.192845 0.942809 0.942809 
C 1.192845 0.692773 1.333333 0.353604 1.333333 0 
C 1.333333 -0.353604 1.192845 -0.692773 0.942809 -0.942809 
C 0.692773 -1.192845 0.353604 -1.333333 0 -1.333333 
C -0.353604 -1.333333 -0.692773 -1.192845 -0.942809 -0.942809 
C -1.192845 -0.692773 -1.333333 -0.353604 -1.333333 0 
C -1.333333 0.353604 -1.192845 0.692773 -0.942809 0.942809 
C -0.692773 1.192845 -0.353604 1.333333 0 1.333333 
z
" id="m6a9b40fd7c" style="stroke:#ff0000;"/>
    </defs>
    <g clip-path="url(#pc4a74ba2f6)">
     <use style="fill:#ff0000;stroke:#ff0000;" x="1072.593907" xlink:href="#m6a9b40fd7c" y="435.340125"/>
     <use style="fill:#ff0000;stroke:#ff0000;" x="1279.514797" xlink:href="#m6a9b40fd7c" y="342.306393"/>
     <use style="fill:#ff0000;stroke:#ff0000;" x="1316.787193" xlink:href="#m6a9b40fd7c" y="268.573082"/>
     <use style="fill:#ff0000;stroke:#ff0000;" x="650.003522" xlink:href="#m6a9b40fd7c" y="399.401554"/>
     <use style="fill:#ff0000;stroke:#ff0000;" x="641.267012" xlink:href="#m6a9b40fd7c" y="391.022326"/>
     <use style="fill:#ff0000;stroke:#ff0000;" x="789.952984" xlink:href="#m6a9b40fd7c" y="192.322812"/>
     <use style="fill:#ff0000;stroke:#ff0000;" x="762.001038" xlink:href="#m6a9b40fd7c" y="195.196496"/>
     <use style="fill:#ff0000;stroke:#ff0000;" x="735.671642" xlink:href="#m6a9b40fd7c" y="198.441553"/>
     <use style="fill:#ff0000;stroke:#ff0000;" x="710.857699" xlink:href="#m6a9b40fd7c" y="203.056711"/>
     <use style="fill:#ff0000;stroke:#ff0000;" x="688.149098" xlink:href="#m6a9b40fd7c" y="206.833161"/>
     <use style="fill:#ff0000;stroke:#ff0000;" x="574.331217" xlink:href="#m6a9b40fd7c" y="225.454078"/>
     <use style="fill:#ff0000;stroke:#ff0000;" x="581.025034" xlink:href="#m6a9b40fd7c" y="391.581512"/>
     <use style="fill:#ff0000;stroke:#ff0000;" x="571.918207" xlink:href="#m6a9b40fd7c" y="397.395575"/>
     <use style="fill:#ff0000;stroke:#ff0000;" x="459.932711" xlink:href="#m6a9b40fd7c" y="248.187947"/>
     <use style="fill:#ff0000;stroke:#ff0000;" x="392.930229" xlink:href="#m6a9b40fd7c" y="286.990141"/>
     <use style="fill:#ff0000;stroke:#ff0000;" x="412.61641" xlink:href="#m6a9b40fd7c" y="317.428695"/>
     <use style="fill:#ff0000;stroke:#ff0000;" x="420.127239" xlink:href="#m6a9b40fd7c" y="347.889098"/>
     <use style="fill:#ff0000;stroke:#ff0000;" x="407.020788" xlink:href="#m6a9b40fd7c" y="363.711246"/>
     <use style="fill:#ff0000;stroke:#ff0000;" x="453.780934" xlink:href="#m6a9b40fd7c" y="390.594503"/>
     <use style="fill:#ff0000;stroke:#ff0000;" x="436.909916" xlink:href="#m6a9b40fd7c" y="415.250894"/>
     <use style="fill:#ff0000;stroke:#ff0000;" x="403.054828" xlink:href="#m6a9b40fd7c" y="443.598076"/>
     <use style="fill:#ff0000;stroke:#ff0000;" x="411.315163" xlink:href="#m6a9b40fd7c" y="504.223033"/>
     <use style="fill:#ff0000;stroke:#ff0000;" x="438.086916" xlink:href="#m6a9b40fd7c" y="503.258731"/>
     <use style="fill:#ff0000;stroke:#ff0000;" x="435.244633" xlink:href="#m6a9b40fd7c" y="514.120463"/>
     <use style="fill:#ff0000;stroke:#ff0000;" x="465.581684" xlink:href="#m6a9b40fd7c" y="516.860962"/>
     <use style="fill:#ff0000;stroke:#ff0000;" x="457.735058" xlink:href="#m6a9b40fd7c" y="532.464508"/>
     <use style="fill:#ff0000;stroke:#ff0000;" x="468.226992" xlink:href="#m6a9b40fd7c" y="536.271502"/>
     <use style="fill:#ff0000;stroke:#ff0000;" x="454.113786" xlink:href="#m6a9b40fd7c" y="561.381185"/>
     <use style="fill:#ff0000;stroke:#ff0000;" x="465.263818" xlink:href="#m6a9b40fd7c" y="583.928522"/>
     <use style="fill:#ff0000;stroke:#ff0000;" x="472.624121" xlink:href="#m6a9b40fd7c" y="595.567404"/>
     <use style="fill:#ff0000;stroke:#ff0000;" x="470.0178" xlink:href="#m6a9b40fd7c" y="624.124995"/>
     <use style="fill:#ff0000;stroke:#ff0000;" x="483.670902" xlink:href="#m6a9b40fd7c" y="631.934837"/>
     <use style="fill:#ff0000;stroke:#ff0000;" x="510.73335" xlink:href="#m6a9b40fd7c" y="612.622623"/>
     <use style="fill:#ff0000;stroke:#ff0000;" x="512.211537" xlink:href="#m6a9b40fd7c" y="649.111308"/>
     <use style="fill:#ff0000;stroke:#ff0000;" x="547.415308" xlink:href="#m6a9b40fd7c" y="652.252286"/>
     <use style="fill:#ff0000;stroke:#ff0000;" x="569.750133" xlink:href="#m6a9b40fd7c" y="615.57744"/>
     <use style="fill:#ff0000;stroke:#ff0000;" x="587.436071" xlink:href="#m6a9b40fd7c" y="550.373348"/>
     <use style="fill:#ff0000;stroke:#ff0000;" x="638.871309" xlink:href="#m6a9b40fd7c" y="561.893896"/>
     <use style="fill:#ff0000;stroke:#ff0000;" x="670.761382" xlink:href="#m6a9b40fd7c" y="608.248036"/>
     <use style="fill:#ff0000;stroke:#ff0000;" x="696.082758" xlink:href="#m6a9b40fd7c" y="597.114574"/>
     <use style="fill:#ff0000;stroke:#ff0000;" x="761.977118" xlink:href="#m6a9b40fd7c" y="590.387612"/>
     <use style="fill:#ff0000;stroke:#ff0000;" x="797.62945" xlink:href="#m6a9b40fd7c" y="582.778492"/>
     <use style="fill:#ff0000;stroke:#ff0000;" x="835.769321" xlink:href="#m6a9b40fd7c" y="572.155183"/>
     <use style="fill:#ff0000;stroke:#ff0000;" x="875.818869" xlink:href="#m6a9b40fd7c" y="575.429656"/>
     <use style="fill:#ff0000;stroke:#ff0000;" x="877.217788" xlink:href="#m6a9b40fd7c" y="558.396882"/>
     <use style="fill:#ff0000;stroke:#ff0000;" x="901.899424" xlink:href="#m6a9b40fd7c" y="550.945022"/>
     <use style="fill:#ff0000;stroke:#ff0000;" x="1059.082698" xlink:href="#m6a9b40fd7c" y="537.392473"/>
     <use style="fill:#ff0000;stroke:#ff0000;" x="1098.212243" xlink:href="#m6a9b40fd7c" y="521.72671"/>
     <use style="fill:#ff0000;stroke:#ff0000;" x="1126.088532" xlink:href="#m6a9b40fd7c" y="501.553183"/>
    </g>
   </g>
   <g id="line2d_31">
    <defs>
     <path d="M -0.5 0.5 
L 0.5 0.5 
L 0.5 -0.5 
L -0.5 -0.5 
z
" id="m26e48b08f3" style="stroke:#1f77b4;stroke-linejoin:miter;"/>
    </defs>
    <g clip-path="url(#pc4a74ba2f6)">
     <use style="fill:#1f77b4;stroke:#1f77b4;stroke-linejoin:miter;" x="1072.593907" xlink:href="#m26e48b08f3" y="435.340125"/>
     <use style="fill:#1f77b4;stroke:#1f77b4;stroke-linejoin:miter;" x="1279.514797" xlink:href="#m26e48b08f3" y="342.306393"/>
     <use style="fill:#1f77b4;stroke:#1f77b4;stroke-linejoin:miter;" x="1316.787193" xlink:href="#m26e48b08f3" y="268.573082"/>
     <use style="fill:#1f77b4;stroke:#1f77b4;stroke-linejoin:miter;" x="650.003522" xlink:href="#m26e48b08f3" y="399.401554"/>
     <use style="fill:#1f77b4;stroke:#1f77b4;stroke-linejoin:miter;" x="646.977506" xlink:href="#m26e48b08f3" y="396.876587"/>
     <use style="fill:#1f77b4;stroke:#1f77b4;stroke-linejoin:miter;" x="644.613171" xlink:href="#m26e48b08f3" y="393.516684"/>
     <use style="fill:#1f77b4;stroke:#1f77b4;stroke-linejoin:miter;" x="641.267012" xlink:href="#m26e48b08f3" y="391.022326"/>
     <use style="fill:#1f77b4;stroke:#1f77b4;stroke-linejoin:miter;" x="789.952984" xlink:href="#m26e48b08f3" y="192.322812"/>
     <use style="fill:#1f77b4;stroke:#1f77b4;stroke-linejoin:miter;" x="762.001038" xlink:href="#m26e48b08f3" y="195.196496"/>
     <use style="fill:#1f77b4;stroke:#1f77b4;stroke-linejoin:miter;" x="735.671642" xlink:href="#m26e48b08f3" y="198.441553"/>
     <use style="fill:#1f77b4;stroke:#1f77b4;stroke-linejoin:miter;" x="710.857699" xlink:href="#m26e48b08f3" y="203.056711"/>
     <use style="fill:#1f77b4;stroke:#1f77b4;stroke-linejoin:miter;" x="688.149098" xlink:href="#m26e48b08f3" y="206.833161"/>
     <use style="fill:#1f77b4;stroke:#1f77b4;stroke-linejoin:miter;" x="666.82914" xlink:href="#m26e48b08f3" y="210.522881"/>
     <use style="fill:#1f77b4;stroke:#1f77b4;stroke-linejoin:miter;" x="646.843101" xlink:href="#m26e48b08f3" y="213.794425"/>
     <use style="fill:#1f77b4;stroke:#1f77b4;stroke-linejoin:miter;" x="627.533063" xlink:href="#m26e48b08f3" y="215.447933"/>
     <use style="fill:#1f77b4;stroke:#1f77b4;stroke-linejoin:miter;" x="609.241398" xlink:href="#m26e48b08f3" y="219.393629"/>
     <use style="fill:#1f77b4;stroke:#1f77b4;stroke-linejoin:miter;" x="591.64451" xlink:href="#m26e48b08f3" y="223.785853"/>
     <use style="fill:#1f77b4;stroke:#1f77b4;stroke-linejoin:miter;" x="574.331217" xlink:href="#m26e48b08f3" y="225.454078"/>
     <use style="fill:#1f77b4;stroke:#1f77b4;stroke-linejoin:miter;" x="581.025034" xlink:href="#m26e48b08f3" y="391.581512"/>
     <use style="fill:#1f77b4;stroke:#1f77b4;stroke-linejoin:miter;" x="578.274798" xlink:href="#m26e48b08f3" y="395.669642"/>
     <use style="fill:#1f77b4;stroke:#1f77b4;stroke-linejoin:miter;" x="575.463178" xlink:href="#m26e48b08f3" y="397.423832"/>
     <use style="fill:#1f77b4;stroke:#1f77b4;stroke-linejoin:miter;" x="571.918207" xlink:href="#m26e48b08f3" y="397.395575"/>
     <use style="fill:#1f77b4;stroke:#1f77b4;stroke-linejoin:miter;" x="459.932711" xlink:href="#m26e48b08f3" y="248.187947"/>
     <use style="fill:#1f77b4;stroke:#1f77b4;stroke-linejoin:miter;" x="442.032286" xlink:href="#m26e48b08f3" y="250.604195"/>
     <use style="fill:#1f77b4;stroke:#1f77b4;stroke-linejoin:miter;" x="423.678389" xlink:href="#m26e48b08f3" y="253.321335"/>
     <use style="fill:#1f77b4;stroke:#1f77b4;stroke-linejoin:miter;" x="414.293712" xlink:href="#m26e48b08f3" y="266.263129"/>
     <use style="fill:#1f77b4;stroke:#1f77b4;stroke-linejoin:miter;" x="397.959136" xlink:href="#m26e48b08f3" y="272.173179"/>
     <use style="fill:#1f77b4;stroke:#1f77b4;stroke-linejoin:miter;" x="392.930229" xlink:href="#m26e48b08f3" y="286.990141"/>
     <use style="fill:#1f77b4;stroke:#1f77b4;stroke-linejoin:miter;" x="412.61641" xlink:href="#m26e48b08f3" y="317.428695"/>
     <use style="fill:#1f77b4;stroke:#1f77b4;stroke-linejoin:miter;" x="420.127239" xlink:href="#m26e48b08f3" y="347.889098"/>
     <use style="fill:#1f77b4;stroke:#1f77b4;stroke-linejoin:miter;" x="416.103098" xlink:href="#m26e48b08f3" y="356.924609"/>
     <use style="fill:#1f77b4;stroke:#1f77b4;stroke-linejoin:miter;" x="407.020788" xlink:href="#m26e48b08f3" y="363.711246"/>
     <use style="fill:#1f77b4;stroke:#1f77b4;stroke-linejoin:miter;" x="453.780934" xlink:href="#m26e48b08f3" y="390.594503"/>
     <use style="fill:#1f77b4;stroke:#1f77b4;stroke-linejoin:miter;" x="455.146196" xlink:href="#m26e48b08f3" y="398.198486"/>
     <use style="fill:#1f77b4;stroke:#1f77b4;stroke-linejoin:miter;" x="457.140919" xlink:href="#m26e48b08f3" y="405.575732"/>
     <use style="fill:#1f77b4;stroke:#1f77b4;stroke-linejoin:miter;" x="457.680276" xlink:href="#m26e48b08f3" y="412.148494"/>
     <use style="fill:#1f77b4;stroke:#1f77b4;stroke-linejoin:miter;" x="436.909916" xlink:href="#m26e48b08f3" y="415.250894"/>
     <use style="fill:#1f77b4;stroke:#1f77b4;stroke-linejoin:miter;" x="425.687802" xlink:href="#m26e48b08f3" y="421.079864"/>
     <use style="fill:#1f77b4;stroke:#1f77b4;stroke-linejoin:miter;" x="418.387638" xlink:href="#m26e48b08f3" y="428.094348"/>
     <use style="fill:#1f77b4;stroke:#1f77b4;stroke-linejoin:miter;" x="420.492639" xlink:href="#m26e48b08f3" y="435.491338"/>
     <use style="fill:#1f77b4;stroke:#1f77b4;stroke-linejoin:miter;" x="403.054828" xlink:href="#m26e48b08f3" y="443.598076"/>
     <use style="fill:#1f77b4;stroke:#1f77b4;stroke-linejoin:miter;" x="395.901749" xlink:href="#m26e48b08f3" y="452.392719"/>
     <use style="fill:#1f77b4;stroke:#1f77b4;stroke-linejoin:miter;" x="399.020257" xlink:href="#m26e48b08f3" y="460.944803"/>
     <use style="fill:#1f77b4;stroke:#1f77b4;stroke-linejoin:miter;" x="402.136686" xlink:href="#m26e48b08f3" y="469.231982"/>
     <use style="fill:#1f77b4;stroke:#1f77b4;stroke-linejoin:miter;" x="403.955444" xlink:href="#m26e48b08f3" y="477.720708"/>
     <use style="fill:#1f77b4;stroke:#1f77b4;stroke-linejoin:miter;" x="404.869937" xlink:href="#m26e48b08f3" y="486.724229"/>
     <use style="fill:#1f77b4;stroke:#1f77b4;stroke-linejoin:miter;" x="408.387168" xlink:href="#m26e48b08f3" y="495.513161"/>
     <use style="fill:#1f77b4;stroke:#1f77b4;stroke-linejoin:miter;" x="411.315163" xlink:href="#m26e48b08f3" y="504.223033"/>
     <use style="fill:#1f77b4;stroke:#1f77b4;stroke-linejoin:miter;" x="438.086916" xlink:href="#m26e48b08f3" y="503.258731"/>
     <use style="fill:#1f77b4;stroke:#1f77b4;stroke-linejoin:miter;" x="435.244633" xlink:href="#m26e48b08f3" y="514.120463"/>
     <use style="fill:#1f77b4;stroke:#1f77b4;stroke-linejoin:miter;" x="452.800704" xlink:href="#m26e48b08f3" y="514.774957"/>
     <use style="fill:#1f77b4;stroke:#1f77b4;stroke-linejoin:miter;" x="465.581684" xlink:href="#m26e48b08f3" y="516.860962"/>
     <use style="fill:#1f77b4;stroke:#1f77b4;stroke-linejoin:miter;" x="457.735058" xlink:href="#m26e48b08f3" y="532.464508"/>
     <use style="fill:#1f77b4;stroke:#1f77b4;stroke-linejoin:miter;" x="468.226992" xlink:href="#m26e48b08f3" y="536.271502"/>
     <use style="fill:#1f77b4;stroke:#1f77b4;stroke-linejoin:miter;" x="454.113786" xlink:href="#m26e48b08f3" y="561.381185"/>
     <use style="fill:#1f77b4;stroke:#1f77b4;stroke-linejoin:miter;" x="465.263818" xlink:href="#m26e48b08f3" y="583.928522"/>
     <use style="fill:#1f77b4;stroke:#1f77b4;stroke-linejoin:miter;" x="472.624121" xlink:href="#m26e48b08f3" y="595.567404"/>
     <use style="fill:#1f77b4;stroke:#1f77b4;stroke-linejoin:miter;" x="470.0178" xlink:href="#m26e48b08f3" y="624.124995"/>
     <use style="fill:#1f77b4;stroke:#1f77b4;stroke-linejoin:miter;" x="483.670902" xlink:href="#m26e48b08f3" y="631.934837"/>
     <use style="fill:#1f77b4;stroke:#1f77b4;stroke-linejoin:miter;" x="510.73335" xlink:href="#m26e48b08f3" y="612.622623"/>
     <use style="fill:#1f77b4;stroke:#1f77b4;stroke-linejoin:miter;" x="512.211537" xlink:href="#m26e48b08f3" y="649.111308"/>
     <use style="fill:#1f77b4;stroke:#1f77b4;stroke-linejoin:miter;" x="528.44114" xlink:href="#m26e48b08f3" y="655.884"/>
     <use style="fill:#1f77b4;stroke:#1f77b4;stroke-linejoin:miter;" x="547.415308" xlink:href="#m26e48b08f3" y="652.252286"/>
     <use style="fill:#1f77b4;stroke:#1f77b4;stroke-linejoin:miter;" x="569.750133" xlink:href="#m26e48b08f3" y="615.57744"/>
     <use style="fill:#1f77b4;stroke:#1f77b4;stroke-linejoin:miter;" x="587.436071" xlink:href="#m26e48b08f3" y="550.373348"/>
     <use style="fill:#1f77b4;stroke:#1f77b4;stroke-linejoin:miter;" x="596.669078" xlink:href="#m26e48b08f3" y="553.58654"/>
     <use style="fill:#1f77b4;stroke:#1f77b4;stroke-linejoin:miter;" x="606.569553" xlink:href="#m26e48b08f3" y="553.414701"/>
     <use style="fill:#1f77b4;stroke:#1f77b4;stroke-linejoin:miter;" x="616.217499" xlink:href="#m26e48b08f3" y="553.840881"/>
     <use style="fill:#1f77b4;stroke:#1f77b4;stroke-linejoin:miter;" x="625.988374" xlink:href="#m26e48b08f3" y="554.71685"/>
     <use style="fill:#1f77b4;stroke:#1f77b4;stroke-linejoin:miter;" x="638.871309" xlink:href="#m26e48b08f3" y="561.893896"/>
     <use style="fill:#1f77b4;stroke:#1f77b4;stroke-linejoin:miter;" x="670.761382" xlink:href="#m26e48b08f3" y="608.248036"/>
     <use style="fill:#1f77b4;stroke:#1f77b4;stroke-linejoin:miter;" x="681.35854" xlink:href="#m26e48b08f3" y="598.574067"/>
     <use style="fill:#1f77b4;stroke:#1f77b4;stroke-linejoin:miter;" x="696.082758" xlink:href="#m26e48b08f3" y="597.114574"/>
     <use style="fill:#1f77b4;stroke:#1f77b4;stroke-linejoin:miter;" x="761.977118" xlink:href="#m26e48b08f3" y="590.387612"/>
     <use style="fill:#1f77b4;stroke:#1f77b4;stroke-linejoin:miter;" x="777.732648" xlink:href="#m26e48b08f3" y="585.524993"/>
     <use style="fill:#1f77b4;stroke:#1f77b4;stroke-linejoin:miter;" x="797.62945" xlink:href="#m26e48b08f3" y="582.778492"/>
     <use style="fill:#1f77b4;stroke:#1f77b4;stroke-linejoin:miter;" x="820.437735" xlink:href="#m26e48b08f3" y="580.63306"/>
     <use style="fill:#1f77b4;stroke:#1f77b4;stroke-linejoin:miter;" x="835.769321" xlink:href="#m26e48b08f3" y="572.155183"/>
     <use style="fill:#1f77b4;stroke:#1f77b4;stroke-linejoin:miter;" x="875.818869" xlink:href="#m26e48b08f3" y="575.429656"/>
     <use style="fill:#1f77b4;stroke:#1f77b4;stroke-linejoin:miter;" x="877.217788" xlink:href="#m26e48b08f3" y="558.396882"/>
     <use style="fill:#1f77b4;stroke:#1f77b4;stroke-linejoin:miter;" x="901.899424" xlink:href="#m26e48b08f3" y="550.945022"/>
     <use style="fill:#1f77b4;stroke:#1f77b4;stroke-linejoin:miter;" x="1059.082698" xlink:href="#m26e48b08f3" y="537.392473"/>
     <use style="fill:#1f77b4;stroke:#1f77b4;stroke-linejoin:miter;" x="1098.212243" xlink:href="#m26e48b08f3" y="521.72671"/>
     <use style="fill:#1f77b4;stroke:#1f77b4;stroke-linejoin:miter;" x="1126.088532" xlink:href="#m26e48b08f3" y="501.553183"/>
    </g>
   </g>
   <g id="patch_3">
    <path d="M 144 768.96 
L 144 103.68 
" style="fill:none;stroke:#000000;stroke-linecap:square;stroke-linejoin:miter;stroke-width:0.8;"/>
   </g>
   <g id="patch_4">
    <path d="M 1036.8 768.96 
L 1036.8 103.68 
" style="fill:none;stroke:#000000;stroke-linecap:square;stroke-linejoin:miter;stroke-width:0.8;"/>
   </g>
   <g id="patch_5">
    <path d="M 144 768.96 
L 1036.8 768.96 
" style="fill:none;stroke:#000000;stroke-linecap:square;stroke-linejoin:miter;stroke-width:0.8;"/>
   </g>
   <g id="patch_6">
    <path d="M 144 103.68 
L 1036.8 103.68 
" style="fill:none;stroke:#000000;stroke-linecap:square;stroke-linejoin:miter;stroke-width:0.8;"/>
   </g>
  </g>
 </g>
 <defs>
  <clipPath id="pc4a74ba2f6">
   <rect height="665.28" width="892.8" x="144" y="103.68"/>
  </clipPath>
 </defs>
</svg>
