<?xml version="1.0" encoding="utf-8" standalone="no"?>
<!DOCTYPE svg PUBLIC "-//W3C//DTD SVG 1.1//EN"
  "http://www.w3.org/Graphics/SVG/1.1/DTD/svg11.dtd">
<!-- Created with matplotlib (http://matplotlib.org/) -->
<svg height="864pt" version="1.1" viewBox="0 0 1152 864" width="1152pt" xmlns="http://www.w3.org/2000/svg" xmlns:xlink="http://www.w3.org/1999/xlink">
 <defs>
  <style type="text/css">
*{stroke-linecap:butt;stroke-linejoin:round;}
  </style>
 </defs>
 <g id="figure_1">
  <g id="patch_1">
   <path d="M 0 864 
L 1152 864 
L 1152 0 
L 0 0 
z
" style="fill:#ffffff;"/>
  </g>
  <g id="axes_1">
   <g id="patch_2">
    <path d="M 144 768.96 
L 1036.8 768.96 
L 1036.8 103.68 
L 144 103.68 
z
" style="fill:#ffffff;"/>
   </g>
   <g id="matplotlib.axis_1">
    <g id="xtick_1">
     <g id="line2d_1">
      <defs>
       <path d="M 0 0 
L 0 3.5 
" id="m9c3d23a1d9" style="stroke:#000000;stroke-width:0.8;"/>
      </defs>
      <g>
       <use style="stroke:#000000;stroke-width:0.8;" x="144" xlink:href="#m9c3d23a1d9" y="768.96"/>
      </g>
     </g>
     <g id="text_1">
      <!-- −4000 -->
      <defs>
       <path d="M 10.59375 35.5 
L 73.1875 35.5 
L 73.1875 27.203125 
L 10.59375 27.203125 
z
" id="DejaVuSans-2212"/>
       <path d="M 37.796875 64.3125 
L 12.890625 25.390625 
L 37.796875 25.390625 
z
M 35.203125 72.90625 
L 47.609375 72.90625 
L 47.609375 25.390625 
L 58.015625 25.390625 
L 58.015625 17.1875 
L 47.609375 17.1875 
L 47.609375 0 
L 37.796875 0 
L 37.796875 17.1875 
L 4.890625 17.1875 
L 4.890625 26.703125 
z
" id="DejaVuSans-34"/>
       <path d="M 31.78125 66.40625 
Q 24.171875 66.40625 20.328125 58.90625 
Q 16.5 51.421875 16.5 36.375 
Q 16.5 21.390625 20.328125 13.890625 
Q 24.171875 6.390625 31.78125 6.390625 
Q 39.453125 6.390625 43.28125 13.890625 
Q 47.125 21.390625 47.125 36.375 
Q 47.125 51.421875 43.28125 58.90625 
Q 39.453125 66.40625 31.78125 66.40625 
z
M 31.78125 74.21875 
Q 44.046875 74.21875 50.515625 64.515625 
Q 56.984375 54.828125 56.984375 36.375 
Q 56.984375 17.96875 50.515625 8.265625 
Q 44.046875 -1.421875 31.78125 -1.421875 
Q 19.53125 -1.421875 13.0625 8.265625 
Q 6.59375 17.96875 6.59375 36.375 
Q 6.59375 54.828125 13.0625 64.515625 
Q 19.53125 74.21875 31.78125 74.21875 
z
" id="DejaVuSans-30"/>
      </defs>
      <g transform="translate(127.085156 783.558437)scale(0.1 -0.1)">
       <use xlink:href="#DejaVuSans-2212"/>
       <use x="83.789062" xlink:href="#DejaVuSans-34"/>
       <use x="147.412109" xlink:href="#DejaVuSans-30"/>
       <use x="211.035156" xlink:href="#DejaVuSans-30"/>
       <use x="274.658203" xlink:href="#DejaVuSans-30"/>
      </g>
     </g>
    </g>
    <g id="xtick_2">
     <g id="line2d_2">
      <g>
       <use style="stroke:#000000;stroke-width:0.8;" x="255.6" xlink:href="#m9c3d23a1d9" y="768.96"/>
      </g>
     </g>
     <g id="text_2">
      <!-- −3000 -->
      <defs>
       <path d="M 40.578125 39.3125 
Q 47.65625 37.796875 51.625 33 
Q 55.609375 28.21875 55.609375 21.1875 
Q 55.609375 10.40625 48.1875 4.484375 
Q 40.765625 -1.421875 27.09375 -1.421875 
Q 22.515625 -1.421875 17.65625 -0.515625 
Q 12.796875 0.390625 7.625 2.203125 
L 7.625 11.71875 
Q 11.71875 9.328125 16.59375 8.109375 
Q 21.484375 6.890625 26.8125 6.890625 
Q 36.078125 6.890625 40.9375 10.546875 
Q 45.796875 14.203125 45.796875 21.1875 
Q 45.796875 27.640625 41.28125 31.265625 
Q 36.765625 34.90625 28.71875 34.90625 
L 20.21875 34.90625 
L 20.21875 43.015625 
L 29.109375 43.015625 
Q 36.375 43.015625 40.234375 45.921875 
Q 44.09375 48.828125 44.09375 54.296875 
Q 44.09375 59.90625 40.109375 62.90625 
Q 36.140625 65.921875 28.71875 65.921875 
Q 24.65625 65.921875 20.015625 65.03125 
Q 15.375 64.15625 9.8125 62.3125 
L 9.8125 71.09375 
Q 15.4375 72.65625 20.34375 73.4375 
Q 25.25 74.21875 29.59375 74.21875 
Q 40.828125 74.21875 47.359375 69.109375 
Q 53.90625 64.015625 53.90625 55.328125 
Q 53.90625 49.265625 50.4375 45.09375 
Q 46.96875 40.921875 40.578125 39.3125 
z
" id="DejaVuSans-33"/>
      </defs>
      <g transform="translate(238.685156 783.558437)scale(0.1 -0.1)">
       <use xlink:href="#DejaVuSans-2212"/>
       <use x="83.789062" xlink:href="#DejaVuSans-33"/>
       <use x="147.412109" xlink:href="#DejaVuSans-30"/>
       <use x="211.035156" xlink:href="#DejaVuSans-30"/>
       <use x="274.658203" xlink:href="#DejaVuSans-30"/>
      </g>
     </g>
    </g>
    <g id="xtick_3">
     <g id="line2d_3">
      <g>
       <use style="stroke:#000000;stroke-width:0.8;" x="367.2" xlink:href="#m9c3d23a1d9" y="768.96"/>
      </g>
     </g>
     <g id="text_3">
      <!-- −2000 -->
      <defs>
       <path d="M 19.1875 8.296875 
L 53.609375 8.296875 
L 53.609375 0 
L 7.328125 0 
L 7.328125 8.296875 
Q 12.9375 14.109375 22.625 23.890625 
Q 32.328125 33.6875 34.8125 36.53125 
Q 39.546875 41.84375 41.421875 45.53125 
Q 43.3125 49.21875 43.3125 52.78125 
Q 43.3125 58.59375 39.234375 62.25 
Q 35.15625 65.921875 28.609375 65.921875 
Q 23.96875 65.921875 18.8125 64.3125 
Q 13.671875 62.703125 7.8125 59.421875 
L 7.8125 69.390625 
Q 13.765625 71.78125 18.9375 73 
Q 24.125 74.21875 28.421875 74.21875 
Q 39.75 74.21875 46.484375 68.546875 
Q 53.21875 62.890625 53.21875 53.421875 
Q 53.21875 48.921875 51.53125 44.890625 
Q 49.859375 40.875 45.40625 35.40625 
Q 44.1875 33.984375 37.640625 27.21875 
Q 31.109375 20.453125 19.1875 8.296875 
z
" id="DejaVuSans-32"/>
      </defs>
      <g transform="translate(350.285156 783.558437)scale(0.1 -0.1)">
       <use xlink:href="#DejaVuSans-2212"/>
       <use x="83.789062" xlink:href="#DejaVuSans-32"/>
       <use x="147.412109" xlink:href="#DejaVuSans-30"/>
       <use x="211.035156" xlink:href="#DejaVuSans-30"/>
       <use x="274.658203" xlink:href="#DejaVuSans-30"/>
      </g>
     </g>
    </g>
    <g id="xtick_4">
     <g id="line2d_4">
      <g>
       <use style="stroke:#000000;stroke-width:0.8;" x="478.8" xlink:href="#m9c3d23a1d9" y="768.96"/>
      </g>
     </g>
     <g id="text_4">
      <!-- −1000 -->
      <defs>
       <path d="M 12.40625 8.296875 
L 28.515625 8.296875 
L 28.515625 63.921875 
L 10.984375 60.40625 
L 10.984375 69.390625 
L 28.421875 72.90625 
L 38.28125 72.90625 
L 38.28125 8.296875 
L 54.390625 8.296875 
L 54.390625 0 
L 12.40625 0 
z
" id="DejaVuSans-31"/>
      </defs>
      <g transform="translate(461.885156 783.558437)scale(0.1 -0.1)">
       <use xlink:href="#DejaVuSans-2212"/>
       <use x="83.789062" xlink:href="#DejaVuSans-31"/>
       <use x="147.412109" xlink:href="#DejaVuSans-30"/>
       <use x="211.035156" xlink:href="#DejaVuSans-30"/>
       <use x="274.658203" xlink:href="#DejaVuSans-30"/>
      </g>
     </g>
    </g>
    <g id="xtick_5">
     <g id="line2d_5">
      <g>
       <use style="stroke:#000000;stroke-width:0.8;" x="590.4" xlink:href="#m9c3d23a1d9" y="768.96"/>
      </g>
     </g>
     <g id="text_5">
      <!-- 0 -->
      <g transform="translate(587.21875 783.558437)scale(0.1 -0.1)">
       <use xlink:href="#DejaVuSans-30"/>
      </g>
     </g>
    </g>
    <g id="xtick_6">
     <g id="line2d_6">
      <g>
       <use style="stroke:#000000;stroke-width:0.8;" x="702" xlink:href="#m9c3d23a1d9" y="768.96"/>
      </g>
     </g>
     <g id="text_6">
      <!-- 1000 -->
      <g transform="translate(689.275 783.558437)scale(0.1 -0.1)">
       <use xlink:href="#DejaVuSans-31"/>
       <use x="63.623047" xlink:href="#DejaVuSans-30"/>
       <use x="127.246094" xlink:href="#DejaVuSans-30"/>
       <use x="190.869141" xlink:href="#DejaVuSans-30"/>
      </g>
     </g>
    </g>
    <g id="xtick_7">
     <g id="line2d_7">
      <g>
       <use style="stroke:#000000;stroke-width:0.8;" x="813.6" xlink:href="#m9c3d23a1d9" y="768.96"/>
      </g>
     </g>
     <g id="text_7">
      <!-- 2000 -->
      <g transform="translate(800.875 783.558437)scale(0.1 -0.1)">
       <use xlink:href="#DejaVuSans-32"/>
       <use x="63.623047" xlink:href="#DejaVuSans-30"/>
       <use x="127.246094" xlink:href="#DejaVuSans-30"/>
       <use x="190.869141" xlink:href="#DejaVuSans-30"/>
      </g>
     </g>
    </g>
    <g id="xtick_8">
     <g id="line2d_8">
      <g>
       <use style="stroke:#000000;stroke-width:0.8;" x="925.2" xlink:href="#m9c3d23a1d9" y="768.96"/>
      </g>
     </g>
     <g id="text_8">
      <!-- 3000 -->
      <g transform="translate(912.475 783.558437)scale(0.1 -0.1)">
       <use xlink:href="#DejaVuSans-33"/>
       <use x="63.623047" xlink:href="#DejaVuSans-30"/>
       <use x="127.246094" xlink:href="#DejaVuSans-30"/>
       <use x="190.869141" xlink:href="#DejaVuSans-30"/>
      </g>
     </g>
    </g>
    <g id="xtick_9">
     <g id="line2d_9">
      <g>
       <use style="stroke:#000000;stroke-width:0.8;" x="1036.8" xlink:href="#m9c3d23a1d9" y="768.96"/>
      </g>
     </g>
     <g id="text_9">
      <!-- 4000 -->
      <g transform="translate(1024.075 783.558437)scale(0.1 -0.1)">
       <use xlink:href="#DejaVuSans-34"/>
       <use x="63.623047" xlink:href="#DejaVuSans-30"/>
       <use x="127.246094" xlink:href="#DejaVuSans-30"/>
       <use x="190.869141" xlink:href="#DejaVuSans-30"/>
      </g>
     </g>
    </g>
   </g>
   <g id="matplotlib.axis_2">
    <g id="ytick_1">
     <g id="line2d_10">
      <defs>
       <path d="M 0 0 
L -3.5 0 
" id="m7192d06bb2" style="stroke:#000000;stroke-width:0.8;"/>
      </defs>
      <g>
       <use style="stroke:#000000;stroke-width:0.8;" x="144" xlink:href="#m7192d06bb2" y="768.96"/>
      </g>
     </g>
     <g id="text_10">
      <!-- −4000 -->
      <g transform="translate(103.170312 772.759219)scale(0.1 -0.1)">
       <use xlink:href="#DejaVuSans-2212"/>
       <use x="83.789062" xlink:href="#DejaVuSans-34"/>
       <use x="147.412109" xlink:href="#DejaVuSans-30"/>
       <use x="211.035156" xlink:href="#DejaVuSans-30"/>
       <use x="274.658203" xlink:href="#DejaVuSans-30"/>
      </g>
     </g>
    </g>
    <g id="ytick_2">
     <g id="line2d_11">
      <g>
       <use style="stroke:#000000;stroke-width:0.8;" x="144" xlink:href="#m7192d06bb2" y="685.8"/>
      </g>
     </g>
     <g id="text_11">
      <!-- −3000 -->
      <g transform="translate(103.170312 689.599219)scale(0.1 -0.1)">
       <use xlink:href="#DejaVuSans-2212"/>
       <use x="83.789062" xlink:href="#DejaVuSans-33"/>
       <use x="147.412109" xlink:href="#DejaVuSans-30"/>
       <use x="211.035156" xlink:href="#DejaVuSans-30"/>
       <use x="274.658203" xlink:href="#DejaVuSans-30"/>
      </g>
     </g>
    </g>
    <g id="ytick_3">
     <g id="line2d_12">
      <g>
       <use style="stroke:#000000;stroke-width:0.8;" x="144" xlink:href="#m7192d06bb2" y="602.64"/>
      </g>
     </g>
     <g id="text_12">
      <!-- −2000 -->
      <g transform="translate(103.170312 606.439219)scale(0.1 -0.1)">
       <use xlink:href="#DejaVuSans-2212"/>
       <use x="83.789062" xlink:href="#DejaVuSans-32"/>
       <use x="147.412109" xlink:href="#DejaVuSans-30"/>
       <use x="211.035156" xlink:href="#DejaVuSans-30"/>
       <use x="274.658203" xlink:href="#DejaVuSans-30"/>
      </g>
     </g>
    </g>
    <g id="ytick_4">
     <g id="line2d_13">
      <g>
       <use style="stroke:#000000;stroke-width:0.8;" x="144" xlink:href="#m7192d06bb2" y="519.48"/>
      </g>
     </g>
     <g id="text_13">
      <!-- −1000 -->
      <g transform="translate(103.170312 523.279219)scale(0.1 -0.1)">
       <use xlink:href="#DejaVuSans-2212"/>
       <use x="83.789062" xlink:href="#DejaVuSans-31"/>
       <use x="147.412109" xlink:href="#DejaVuSans-30"/>
       <use x="211.035156" xlink:href="#DejaVuSans-30"/>
       <use x="274.658203" xlink:href="#DejaVuSans-30"/>
      </g>
     </g>
    </g>
    <g id="ytick_5">
     <g id="line2d_14">
      <g>
       <use style="stroke:#000000;stroke-width:0.8;" x="144" xlink:href="#m7192d06bb2" y="436.32"/>
      </g>
     </g>
     <g id="text_14">
      <!-- 0 -->
      <g transform="translate(130.6375 440.119219)scale(0.1 -0.1)">
       <use xlink:href="#DejaVuSans-30"/>
      </g>
     </g>
    </g>
    <g id="ytick_6">
     <g id="line2d_15">
      <g>
       <use style="stroke:#000000;stroke-width:0.8;" x="144" xlink:href="#m7192d06bb2" y="353.16"/>
      </g>
     </g>
     <g id="text_15">
      <!-- 1000 -->
      <g transform="translate(111.55 356.959219)scale(0.1 -0.1)">
       <use xlink:href="#DejaVuSans-31"/>
       <use x="63.623047" xlink:href="#DejaVuSans-30"/>
       <use x="127.246094" xlink:href="#DejaVuSans-30"/>
       <use x="190.869141" xlink:href="#DejaVuSans-30"/>
      </g>
     </g>
    </g>
    <g id="ytick_7">
     <g id="line2d_16">
      <g>
       <use style="stroke:#000000;stroke-width:0.8;" x="144" xlink:href="#m7192d06bb2" y="270"/>
      </g>
     </g>
     <g id="text_16">
      <!-- 2000 -->
      <g transform="translate(111.55 273.799219)scale(0.1 -0.1)">
       <use xlink:href="#DejaVuSans-32"/>
       <use x="63.623047" xlink:href="#DejaVuSans-30"/>
       <use x="127.246094" xlink:href="#DejaVuSans-30"/>
       <use x="190.869141" xlink:href="#DejaVuSans-30"/>
      </g>
     </g>
    </g>
    <g id="ytick_8">
     <g id="line2d_17">
      <g>
       <use style="stroke:#000000;stroke-width:0.8;" x="144" xlink:href="#m7192d06bb2" y="186.84"/>
      </g>
     </g>
     <g id="text_17">
      <!-- 3000 -->
      <g transform="translate(111.55 190.639219)scale(0.1 -0.1)">
       <use xlink:href="#DejaVuSans-33"/>
       <use x="63.623047" xlink:href="#DejaVuSans-30"/>
       <use x="127.246094" xlink:href="#DejaVuSans-30"/>
       <use x="190.869141" xlink:href="#DejaVuSans-30"/>
      </g>
     </g>
    </g>
    <g id="ytick_9">
     <g id="line2d_18">
      <g>
       <use style="stroke:#000000;stroke-width:0.8;" x="144" xlink:href="#m7192d06bb2" y="103.68"/>
      </g>
     </g>
     <g id="text_18">
      <!-- 4000 -->
      <g transform="translate(111.55 107.479219)scale(0.1 -0.1)">
       <use xlink:href="#DejaVuSans-34"/>
       <use x="63.623047" xlink:href="#DejaVuSans-30"/>
       <use x="127.246094" xlink:href="#DejaVuSans-30"/>
       <use x="190.869141" xlink:href="#DejaVuSans-30"/>
      </g>
     </g>
    </g>
   </g>
   <g id="line2d_19">
    <path clip-path="url(#pd4d06dc7e5)" d="M 590.4 768.96 
L 590.4 103.68 
" style="fill:none;stroke:#1f77b4;stroke-linecap:square;stroke-width:1.5;"/>
   </g>
   <g id="line2d_20">
    <path clip-path="url(#pd4d06dc7e5)" d="M 144 436.32 
L 1036.8 436.32 
" style="fill:none;stroke:#1f77b4;stroke-linecap:square;stroke-width:1.5;"/>
   </g>
   <g id="line2d_21">
    <defs>
     <path d="M 0 3 
C 0.795609 3 1.55874 2.683901 2.12132 2.12132 
C 2.683901 1.55874 3 0.795609 3 0 
C 3 -0.795609 2.683901 -1.55874 2.12132 -2.12132 
C 1.55874 -2.683901 0.795609 -3 0 -3 
C -0.795609 -3 -1.55874 -2.683901 -2.12132 -2.12132 
C -2.683901 -1.55874 -3 -0.795609 -3 0 
C -3 0.795609 -2.683901 1.55874 -2.12132 2.12132 
C -1.55874 2.683901 -0.795609 3 0 3 
z
" id="mddbb7baaff" style="stroke:#008000;"/>
    </defs>
    <g clip-path="url(#pd4d06dc7e5)">
     <use style="fill:#008000;stroke:#008000;" x="1144.281503" xlink:href="#mddbb7baaff" y="499.960611"/>
    </g>
   </g>
   <g id="line2d_22">
    <g clip-path="url(#pd4d06dc7e5)">
     <use style="fill:#008000;stroke:#008000;" x="1075.678921" xlink:href="#mddbb7baaff" y="441.053748"/>
    </g>
   </g>
   <g id="line2d_23">
    <g clip-path="url(#pd4d06dc7e5)">
     <use style="fill:#008000;stroke:#008000;" x="1392.940746" xlink:href="#mddbb7baaff" y="389.746879"/>
    </g>
   </g>
   <g id="line2d_24">
    <g clip-path="url(#pd4d06dc7e5)">
     <use style="fill:#008000;stroke:#008000;" x="645.774824" xlink:href="#mddbb7baaff" y="393.062683"/>
    </g>
   </g>
   <g id="line2d_25">
    <g clip-path="url(#pd4d06dc7e5)">
     <use style="fill:#008000;stroke:#008000;" x="645.774824" xlink:href="#mddbb7baaff" y="393.062683"/>
    </g>
   </g>
   <g id="line2d_26">
    <g clip-path="url(#pd4d06dc7e5)">
     <use style="fill:#008000;stroke:#008000;" x="741.910773" xlink:href="#mddbb7baaff" y="198.620151"/>
    </g>
   </g>
   <g id="line2d_27">
    <g clip-path="url(#pd4d06dc7e5)">
     <use style="fill:#008000;stroke:#008000;" x="521.700337" xlink:href="#mddbb7baaff" y="509.049646"/>
    </g>
   </g>
   <g id="line2d_28">
    <g clip-path="url(#pd4d06dc7e5)">
     <use style="fill:#008000;stroke:#008000;" x="581.997721" xlink:href="#mddbb7baaff" y="501.717371"/>
    </g>
   </g>
   <g id="line2d_29">
    <defs>
     <path d="M 0 1.333333 
C 0.353604 1.333333 0.692773 1.192845 0.942809 0.942809 
C 1.192845 0.692773 1.333333 0.353604 1.333333 0 
C 1.333333 -0.353604 1.192845 -0.692773 0.942809 -0.942809 
C 0.692773 -1.192845 0.353604 -1.333333 0 -1.333333 
C -0.353604 -1.333333 -0.692773 -1.192845 -0.942809 -0.942809 
C -1.192845 -0.692773 -1.333333 -0.353604 -1.333333 0 
C -1.333333 0.353604 -1.192845 0.692773 -0.942809 0.942809 
C -0.692773 1.192845 -0.353604 1.333333 0 1.333333 
z
" id="mef9bae22b6" style="stroke:#ff0000;"/>
    </defs>
    <g clip-path="url(#pd4d06dc7e5)">
     <use style="fill:#ff0000;stroke:#ff0000;" x="1144.281503" xlink:href="#mef9bae22b6" y="499.960611"/>
     <use style="fill:#ff0000;stroke:#ff0000;" x="1075.678921" xlink:href="#mef9bae22b6" y="441.053748"/>
     <use style="fill:#ff0000;stroke:#ff0000;" x="1392.940746" xlink:href="#mef9bae22b6" y="389.746879"/>
     <use style="fill:#ff0000;stroke:#ff0000;" x="1294.466117" xlink:href="#mef9bae22b6" y="345.580571"/>
     <use style="fill:#ff0000;stroke:#ff0000;" x="1288.826445" xlink:href="#mef9bae22b6" y="320.941152"/>
     <use style="fill:#ff0000;stroke:#ff0000;" x="1362.233669" xlink:href="#mef9bae22b6" y="280.865909"/>
     <use style="fill:#ff0000;stroke:#ff0000;" x="1323.845095" xlink:href="#mef9bae22b6" y="260.715307"/>
     <use style="fill:#ff0000;stroke:#ff0000;" x="648.699095" xlink:href="#mef9bae22b6" y="398.452127"/>
     <use style="fill:#ff0000;stroke:#ff0000;" x="641.997713" xlink:href="#mef9bae22b6" y="387.766411"/>
     <use style="fill:#ff0000;stroke:#ff0000;" x="796.49938" xlink:href="#mef9bae22b6" y="190.544976"/>
     <use style="fill:#ff0000;stroke:#ff0000;" x="772.622317" xlink:href="#mef9bae22b6" y="195.401868"/>
     <use style="fill:#ff0000;stroke:#ff0000;" x="752.382372" xlink:href="#mef9bae22b6" y="196.849649"/>
     <use style="fill:#ff0000;stroke:#ff0000;" x="731.641295" xlink:href="#mef9bae22b6" y="200.62242"/>
     <use style="fill:#ff0000;stroke:#ff0000;" x="392.756303" xlink:href="#mef9bae22b6" y="291.591853"/>
     <use style="fill:#ff0000;stroke:#ff0000;" x="409.744284" xlink:href="#mef9bae22b6" y="316.235097"/>
     <use style="fill:#ff0000;stroke:#ff0000;" x="420.201196" xlink:href="#mef9bae22b6" y="343.168013"/>
     <use style="fill:#ff0000;stroke:#ff0000;" x="407.570598" xlink:href="#mef9bae22b6" y="363.164881"/>
     <use style="fill:#ff0000;stroke:#ff0000;" x="454.583293" xlink:href="#mef9bae22b6" y="388.453433"/>
     <use style="fill:#ff0000;stroke:#ff0000;" x="445.978378" xlink:href="#mef9bae22b6" y="413.751779"/>
     <use style="fill:#ff0000;stroke:#ff0000;" x="420.637068" xlink:href="#mef9bae22b6" y="438.942203"/>
     <use style="fill:#ff0000;stroke:#ff0000;" x="394.933507" xlink:href="#mef9bae22b6" y="445.866672"/>
     <use style="fill:#ff0000;stroke:#ff0000;" x="401.213757" xlink:href="#mef9bae22b6" y="465.642689"/>
     <use style="fill:#ff0000;stroke:#ff0000;" x="437.424136" xlink:href="#mef9bae22b6" y="465.932956"/>
     <use style="fill:#ff0000;stroke:#ff0000;" x="404.171705" xlink:href="#mef9bae22b6" y="478.829058"/>
     <use style="fill:#ff0000;stroke:#ff0000;" x="411.040413" xlink:href="#mef9bae22b6" y="506.498074"/>
     <use style="fill:#ff0000;stroke:#ff0000;" x="439.672808" xlink:href="#mef9bae22b6" y="502.520484"/>
     <use style="fill:#ff0000;stroke:#ff0000;" x="441.956591" xlink:href="#mef9bae22b6" y="516.134227"/>
     <use style="fill:#ff0000;stroke:#ff0000;" x="460.349516" xlink:href="#mef9bae22b6" y="513.534102"/>
     <use style="fill:#ff0000;stroke:#ff0000;" x="457.9861" xlink:href="#mef9bae22b6" y="522.518354"/>
     <use style="fill:#ff0000;stroke:#ff0000;" x="471.831294" xlink:href="#mef9bae22b6" y="538.351003"/>
     <use style="fill:#ff0000;stroke:#ff0000;" x="457.061785" xlink:href="#mef9bae22b6" y="561.651111"/>
     <use style="fill:#ff0000;stroke:#ff0000;" x="521.700337" xlink:href="#mef9bae22b6" y="509.049646"/>
     <use style="fill:#ff0000;stroke:#ff0000;" x="581.997721" xlink:href="#mef9bae22b6" y="501.717371"/>
     <use style="fill:#ff0000;stroke:#ff0000;" x="596.730547" xlink:href="#mef9bae22b6" y="642.211707"/>
     <use style="fill:#ff0000;stroke:#ff0000;" x="607.775978" xlink:href="#mef9bae22b6" y="618.625668"/>
     <use style="fill:#ff0000;stroke:#ff0000;" x="622.666432" xlink:href="#mef9bae22b6" y="640.417799"/>
     <use style="fill:#ff0000;stroke:#ff0000;" x="669.788505" xlink:href="#mef9bae22b6" y="625.018848"/>
     <use style="fill:#ff0000;stroke:#ff0000;" x="667.801024" xlink:href="#mef9bae22b6" y="593.582156"/>
     <use style="fill:#ff0000;stroke:#ff0000;" x="693.589752" xlink:href="#mef9bae22b6" y="597.64275"/>
     <use style="fill:#ff0000;stroke:#ff0000;" x="757.548484" xlink:href="#mef9bae22b6" y="592.030548"/>
     <use style="fill:#ff0000;stroke:#ff0000;" x="781.682952" xlink:href="#mef9bae22b6" y="584.162887"/>
     <use style="fill:#ff0000;stroke:#ff0000;" x="801.801438" xlink:href="#mef9bae22b6" y="585.482406"/>
     <use style="fill:#ff0000;stroke:#ff0000;" x="841.732226" xlink:href="#mef9bae22b6" y="569.292183"/>
     <use style="fill:#ff0000;stroke:#ff0000;" x="874.27943" xlink:href="#mef9bae22b6" y="572.384503"/>
     <use style="fill:#ff0000;stroke:#ff0000;" x="893.834063" xlink:href="#mef9bae22b6" y="553.475968"/>
     <use style="fill:#ff0000;stroke:#ff0000;" x="932.416732" xlink:href="#mef9bae22b6" y="553.979564"/>
     <use style="fill:#ff0000;stroke:#ff0000;" x="960.663583" xlink:href="#mef9bae22b6" y="548.494106"/>
     <use style="fill:#ff0000;stroke:#ff0000;" x="1057.531249" xlink:href="#mef9bae22b6" y="541.807725"/>
     <use style="fill:#ff0000;stroke:#ff0000;" x="1085.906702" xlink:href="#mef9bae22b6" y="512.070556"/>
    </g>
   </g>
   <g id="line2d_30">
    <defs>
     <path d="M -0.5 0.5 
L 0.5 0.5 
L 0.5 -0.5 
L -0.5 -0.5 
z
" id="mc45bbd5c73" style="stroke:#1f77b4;stroke-linejoin:miter;"/>
    </defs>
    <g clip-path="url(#pd4d06dc7e5)">
     <use style="fill:#1f77b4;stroke:#1f77b4;stroke-linejoin:miter;" x="1144.281503" xlink:href="#mc45bbd5c73" y="499.960611"/>
     <use style="fill:#1f77b4;stroke:#1f77b4;stroke-linejoin:miter;" x="1075.678921" xlink:href="#mc45bbd5c73" y="441.053748"/>
     <use style="fill:#1f77b4;stroke:#1f77b4;stroke-linejoin:miter;" x="1392.940746" xlink:href="#mc45bbd5c73" y="389.746879"/>
     <use style="fill:#1f77b4;stroke:#1f77b4;stroke-linejoin:miter;" x="1294.466117" xlink:href="#mc45bbd5c73" y="345.580571"/>
     <use style="fill:#1f77b4;stroke:#1f77b4;stroke-linejoin:miter;" x="1288.826445" xlink:href="#mc45bbd5c73" y="320.941152"/>
     <use style="fill:#1f77b4;stroke:#1f77b4;stroke-linejoin:miter;" x="1362.233669" xlink:href="#mc45bbd5c73" y="280.865909"/>
     <use style="fill:#1f77b4;stroke:#1f77b4;stroke-linejoin:miter;" x="1323.845095" xlink:href="#mc45bbd5c73" y="260.715307"/>
     <use style="fill:#1f77b4;stroke:#1f77b4;stroke-linejoin:miter;" x="648.699095" xlink:href="#mc45bbd5c73" y="398.452127"/>
     <use style="fill:#1f77b4;stroke:#1f77b4;stroke-linejoin:miter;" x="646.385592" xlink:href="#mc45bbd5c73" y="396.47054"/>
     <use style="fill:#1f77b4;stroke:#1f77b4;stroke-linejoin:miter;" x="644.436284" xlink:href="#mc45bbd5c73" y="394.050651"/>
     <use style="fill:#1f77b4;stroke:#1f77b4;stroke-linejoin:miter;" x="642.538316" xlink:href="#mc45bbd5c73" y="391.749402"/>
     <use style="fill:#1f77b4;stroke:#1f77b4;stroke-linejoin:miter;" x="641.997713" xlink:href="#mc45bbd5c73" y="387.766411"/>
     <use style="fill:#1f77b4;stroke:#1f77b4;stroke-linejoin:miter;" x="796.49938" xlink:href="#mc45bbd5c73" y="190.544976"/>
     <use style="fill:#1f77b4;stroke:#1f77b4;stroke-linejoin:miter;" x="772.622317" xlink:href="#mc45bbd5c73" y="195.401868"/>
     <use style="fill:#1f77b4;stroke:#1f77b4;stroke-linejoin:miter;" x="752.382372" xlink:href="#mc45bbd5c73" y="196.849649"/>
     <use style="fill:#1f77b4;stroke:#1f77b4;stroke-linejoin:miter;" x="731.641295" xlink:href="#mc45bbd5c73" y="200.62242"/>
     <use style="fill:#1f77b4;stroke:#1f77b4;stroke-linejoin:miter;" x="712.780629" xlink:href="#mc45bbd5c73" y="203.3229"/>
     <use style="fill:#1f77b4;stroke:#1f77b4;stroke-linejoin:miter;" x="695.105155" xlink:href="#mc45bbd5c73" y="206.061406"/>
     <use style="fill:#1f77b4;stroke:#1f77b4;stroke-linejoin:miter;" x="678.201967" xlink:href="#mc45bbd5c73" y="209.086045"/>
     <use style="fill:#1f77b4;stroke:#1f77b4;stroke-linejoin:miter;" x="662.372706" xlink:href="#mc45bbd5c73" y="211.035969"/>
     <use style="fill:#1f77b4;stroke:#1f77b4;stroke-linejoin:miter;" x="646.666927" xlink:href="#mc45bbd5c73" y="214.488987"/>
     <use style="fill:#1f77b4;stroke:#1f77b4;stroke-linejoin:miter;" x="632.4641" xlink:href="#mc45bbd5c73" y="215.477389"/>
     <use style="fill:#1f77b4;stroke:#1f77b4;stroke-linejoin:miter;" x="617.173173" xlink:href="#mc45bbd5c73" y="217.89471"/>
     <use style="fill:#1f77b4;stroke:#1f77b4;stroke-linejoin:miter;" x="603.33963" xlink:href="#mc45bbd5c73" y="219.549108"/>
     <use style="fill:#1f77b4;stroke:#1f77b4;stroke-linejoin:miter;" x="589.856324" xlink:href="#mc45bbd5c73" y="224.096067"/>
     <use style="fill:#1f77b4;stroke:#1f77b4;stroke-linejoin:miter;" x="576.49245" xlink:href="#mc45bbd5c73" y="225.368796"/>
     <use style="fill:#1f77b4;stroke:#1f77b4;stroke-linejoin:miter;" x="563.420122" xlink:href="#mc45bbd5c73" y="226.929714"/>
     <use style="fill:#1f77b4;stroke:#1f77b4;stroke-linejoin:miter;" x="550.829506" xlink:href="#mc45bbd5c73" y="230.185615"/>
     <use style="fill:#1f77b4;stroke:#1f77b4;stroke-linejoin:miter;" x="538.089824" xlink:href="#mc45bbd5c73" y="232.826525"/>
     <use style="fill:#1f77b4;stroke:#1f77b4;stroke-linejoin:miter;" x="526.076371" xlink:href="#mc45bbd5c73" y="236.671024"/>
     <use style="fill:#1f77b4;stroke:#1f77b4;stroke-linejoin:miter;" x="513.58124" xlink:href="#mc45bbd5c73" y="238.727449"/>
     <use style="fill:#1f77b4;stroke:#1f77b4;stroke-linejoin:miter;" x="501.01554" xlink:href="#mc45bbd5c73" y="240.980992"/>
     <use style="fill:#1f77b4;stroke:#1f77b4;stroke-linejoin:miter;" x="487.961495" xlink:href="#mc45bbd5c73" y="242.381779"/>
     <use style="fill:#1f77b4;stroke:#1f77b4;stroke-linejoin:miter;" x="474.754837" xlink:href="#mc45bbd5c73" y="244.040821"/>
     <use style="fill:#1f77b4;stroke:#1f77b4;stroke-linejoin:miter;" x="462.335894" xlink:href="#mc45bbd5c73" y="247.506216"/>
     <use style="fill:#1f77b4;stroke:#1f77b4;stroke-linejoin:miter;" x="447.752039" xlink:href="#mc45bbd5c73" y="248.323315"/>
     <use style="fill:#1f77b4;stroke:#1f77b4;stroke-linejoin:miter;" x="434.811391" xlink:href="#mc45bbd5c73" y="251.677042"/>
     <use style="fill:#1f77b4;stroke:#1f77b4;stroke-linejoin:miter;" x="418.971498" xlink:href="#mc45bbd5c73" y="252.502124"/>
     <use style="fill:#1f77b4;stroke:#1f77b4;stroke-linejoin:miter;" x="416.059828" xlink:href="#mc45bbd5c73" y="266.824642"/>
     <use style="fill:#1f77b4;stroke:#1f77b4;stroke-linejoin:miter;" x="401.717976" xlink:href="#mc45bbd5c73" y="269.68617"/>
     <use style="fill:#1f77b4;stroke:#1f77b4;stroke-linejoin:miter;" x="390.097284" xlink:href="#mc45bbd5c73" y="275.206727"/>
     <use style="fill:#1f77b4;stroke:#1f77b4;stroke-linejoin:miter;" x="392.756303" xlink:href="#mc45bbd5c73" y="291.591853"/>
     <use style="fill:#1f77b4;stroke:#1f77b4;stroke-linejoin:miter;" x="409.744284" xlink:href="#mc45bbd5c73" y="316.235097"/>
     <use style="fill:#1f77b4;stroke:#1f77b4;stroke-linejoin:miter;" x="420.201196" xlink:href="#mc45bbd5c73" y="343.168013"/>
     <use style="fill:#1f77b4;stroke:#1f77b4;stroke-linejoin:miter;" x="421.792446" xlink:href="#mc45bbd5c73" y="352.864855"/>
     <use style="fill:#1f77b4;stroke:#1f77b4;stroke-linejoin:miter;" x="412.561271" xlink:href="#mc45bbd5c73" y="356.989657"/>
     <use style="fill:#1f77b4;stroke:#1f77b4;stroke-linejoin:miter;" x="407.570598" xlink:href="#mc45bbd5c73" y="363.164881"/>
     <use style="fill:#1f77b4;stroke:#1f77b4;stroke-linejoin:miter;" x="454.583293" xlink:href="#mc45bbd5c73" y="388.453433"/>
     <use style="fill:#1f77b4;stroke:#1f77b4;stroke-linejoin:miter;" x="455.017579" xlink:href="#mc45bbd5c73" y="394.436688"/>
     <use style="fill:#1f77b4;stroke:#1f77b4;stroke-linejoin:miter;" x="456.348854" xlink:href="#mc45bbd5c73" y="400.332867"/>
     <use style="fill:#1f77b4;stroke:#1f77b4;stroke-linejoin:miter;" x="457.569084" xlink:href="#mc45bbd5c73" y="405.881454"/>
     <use style="fill:#1f77b4;stroke:#1f77b4;stroke-linejoin:miter;" x="452.927719" xlink:href="#mc45bbd5c73" y="409.946651"/>
     <use style="fill:#1f77b4;stroke:#1f77b4;stroke-linejoin:miter;" x="445.978378" xlink:href="#mc45bbd5c73" y="413.751779"/>
     <use style="fill:#1f77b4;stroke:#1f77b4;stroke-linejoin:miter;" x="426.045086" xlink:href="#mc45bbd5c73" y="416.305769"/>
     <use style="fill:#1f77b4;stroke:#1f77b4;stroke-linejoin:miter;" x="425.354496" xlink:href="#mc45bbd5c73" y="422.103685"/>
     <use style="fill:#1f77b4;stroke:#1f77b4;stroke-linejoin:miter;" x="418.41931" xlink:href="#mc45bbd5c73" y="427.428881"/>
     <use style="fill:#1f77b4;stroke:#1f77b4;stroke-linejoin:miter;" x="420.249494" xlink:href="#mc45bbd5c73" y="433.588034"/>
     <use style="fill:#1f77b4;stroke:#1f77b4;stroke-linejoin:miter;" x="420.637068" xlink:href="#mc45bbd5c73" y="438.942203"/>
     <use style="fill:#1f77b4;stroke:#1f77b4;stroke-linejoin:miter;" x="394.933507" xlink:href="#mc45bbd5c73" y="445.866672"/>
     <use style="fill:#1f77b4;stroke:#1f77b4;stroke-linejoin:miter;" x="395.95312" xlink:href="#mc45bbd5c73" y="452.548492"/>
     <use style="fill:#1f77b4;stroke:#1f77b4;stroke-linejoin:miter;" x="398.466326" xlink:href="#mc45bbd5c73" y="459.092347"/>
     <use style="fill:#1f77b4;stroke:#1f77b4;stroke-linejoin:miter;" x="401.213757" xlink:href="#mc45bbd5c73" y="465.642689"/>
     <use style="fill:#1f77b4;stroke:#1f77b4;stroke-linejoin:miter;" x="437.424136" xlink:href="#mc45bbd5c73" y="465.932956"/>
     <use style="fill:#1f77b4;stroke:#1f77b4;stroke-linejoin:miter;" x="404.171705" xlink:href="#mc45bbd5c73" y="478.829058"/>
     <use style="fill:#1f77b4;stroke:#1f77b4;stroke-linejoin:miter;" x="405.71191" xlink:href="#mc45bbd5c73" y="485.646775"/>
     <use style="fill:#1f77b4;stroke:#1f77b4;stroke-linejoin:miter;" x="408.08048" xlink:href="#mc45bbd5c73" y="492.203739"/>
     <use style="fill:#1f77b4;stroke:#1f77b4;stroke-linejoin:miter;" x="411.040413" xlink:href="#mc45bbd5c73" y="506.498074"/>
     <use style="fill:#1f77b4;stroke:#1f77b4;stroke-linejoin:miter;" x="439.672808" xlink:href="#mc45bbd5c73" y="502.520484"/>
     <use style="fill:#1f77b4;stroke:#1f77b4;stroke-linejoin:miter;" x="441.956591" xlink:href="#mc45bbd5c73" y="516.134227"/>
     <use style="fill:#1f77b4;stroke:#1f77b4;stroke-linejoin:miter;" x="460.349516" xlink:href="#mc45bbd5c73" y="513.534102"/>
     <use style="fill:#1f77b4;stroke:#1f77b4;stroke-linejoin:miter;" x="457.9861" xlink:href="#mc45bbd5c73" y="522.518354"/>
     <use style="fill:#1f77b4;stroke:#1f77b4;stroke-linejoin:miter;" x="460.002497" xlink:href="#mc45bbd5c73" y="538.433619"/>
     <use style="fill:#1f77b4;stroke:#1f77b4;stroke-linejoin:miter;" x="471.831294" xlink:href="#mc45bbd5c73" y="538.351003"/>
     <use style="fill:#1f77b4;stroke:#1f77b4;stroke-linejoin:miter;" x="457.061785" xlink:href="#mc45bbd5c73" y="561.651111"/>
     <use style="fill:#1f77b4;stroke:#1f77b4;stroke-linejoin:miter;" x="521.700337" xlink:href="#mc45bbd5c73" y="509.049646"/>
     <use style="fill:#1f77b4;stroke:#1f77b4;stroke-linejoin:miter;" x="533.659221" xlink:href="#mc45bbd5c73" y="503.129348"/>
     <use style="fill:#1f77b4;stroke:#1f77b4;stroke-linejoin:miter;" x="540.659524" xlink:href="#mc45bbd5c73" y="501.748306"/>
     <use style="fill:#1f77b4;stroke:#1f77b4;stroke-linejoin:miter;" x="548.439375" xlink:href="#mc45bbd5c73" y="498.227388"/>
     <use style="fill:#1f77b4;stroke:#1f77b4;stroke-linejoin:miter;" x="553.451147" xlink:href="#mc45bbd5c73" y="498.114447"/>
     <use style="fill:#1f77b4;stroke:#1f77b4;stroke-linejoin:miter;" x="557.697374" xlink:href="#mc45bbd5c73" y="498.581627"/>
     <use style="fill:#1f77b4;stroke:#1f77b4;stroke-linejoin:miter;" x="560.554317" xlink:href="#mc45bbd5c73" y="501.485973"/>
     <use style="fill:#1f77b4;stroke:#1f77b4;stroke-linejoin:miter;" x="564.473834" xlink:href="#mc45bbd5c73" y="503.211771"/>
     <use style="fill:#1f77b4;stroke:#1f77b4;stroke-linejoin:miter;" x="567.983118" xlink:href="#mc45bbd5c73" y="505.731169"/>
     <use style="fill:#1f77b4;stroke:#1f77b4;stroke-linejoin:miter;" x="572.771506" xlink:href="#mc45bbd5c73" y="504.695311"/>
     <use style="fill:#1f77b4;stroke:#1f77b4;stroke-linejoin:miter;" x="578.004982" xlink:href="#mc45bbd5c73" y="501.90981"/>
     <use style="fill:#1f77b4;stroke:#1f77b4;stroke-linejoin:miter;" x="581.997721" xlink:href="#mc45bbd5c73" y="501.717371"/>
     <use style="fill:#1f77b4;stroke:#1f77b4;stroke-linejoin:miter;" x="596.730547" xlink:href="#mc45bbd5c73" y="642.211707"/>
     <use style="fill:#1f77b4;stroke:#1f77b4;stroke-linejoin:miter;" x="607.775978" xlink:href="#mc45bbd5c73" y="618.625668"/>
     <use style="fill:#1f77b4;stroke:#1f77b4;stroke-linejoin:miter;" x="622.666432" xlink:href="#mc45bbd5c73" y="640.417799"/>
     <use style="fill:#1f77b4;stroke:#1f77b4;stroke-linejoin:miter;" x="656.949527" xlink:href="#mc45bbd5c73" y="624.468103"/>
     <use style="fill:#1f77b4;stroke:#1f77b4;stroke-linejoin:miter;" x="669.788505" xlink:href="#mc45bbd5c73" y="625.018848"/>
     <use style="fill:#1f77b4;stroke:#1f77b4;stroke-linejoin:miter;" x="667.801024" xlink:href="#mc45bbd5c73" y="593.582156"/>
     <use style="fill:#1f77b4;stroke:#1f77b4;stroke-linejoin:miter;" x="682.049571" xlink:href="#mc45bbd5c73" y="598.80913"/>
     <use style="fill:#1f77b4;stroke:#1f77b4;stroke-linejoin:miter;" x="693.589752" xlink:href="#mc45bbd5c73" y="597.64275"/>
     <use style="fill:#1f77b4;stroke:#1f77b4;stroke-linejoin:miter;" x="757.548484" xlink:href="#mc45bbd5c73" y="592.030548"/>
     <use style="fill:#1f77b4;stroke:#1f77b4;stroke-linejoin:miter;" x="766.924504" xlink:href="#mc45bbd5c73" y="586.064431"/>
     <use style="fill:#1f77b4;stroke:#1f77b4;stroke-linejoin:miter;" x="781.682952" xlink:href="#mc45bbd5c73" y="584.162887"/>
     <use style="fill:#1f77b4;stroke:#1f77b4;stroke-linejoin:miter;" x="801.801438" xlink:href="#mc45bbd5c73" y="585.482406"/>
     <use style="fill:#1f77b4;stroke:#1f77b4;stroke-linejoin:miter;" x="818.034016" xlink:href="#mc45bbd5c73" y="582.638718"/>
     <use style="fill:#1f77b4;stroke:#1f77b4;stroke-linejoin:miter;" x="832.565986" xlink:href="#mc45bbd5c73" y="578.019732"/>
     <use style="fill:#1f77b4;stroke:#1f77b4;stroke-linejoin:miter;" x="841.732226" xlink:href="#mc45bbd5c73" y="569.292183"/>
     <use style="fill:#1f77b4;stroke:#1f77b4;stroke-linejoin:miter;" x="874.27943" xlink:href="#mc45bbd5c73" y="572.384503"/>
     <use style="fill:#1f77b4;stroke:#1f77b4;stroke-linejoin:miter;" x="874.950163" xlink:href="#mc45bbd5c73" y="559.124703"/>
     <use style="fill:#1f77b4;stroke:#1f77b4;stroke-linejoin:miter;" x="893.834063" xlink:href="#mc45bbd5c73" y="553.475968"/>
     <use style="fill:#1f77b4;stroke:#1f77b4;stroke-linejoin:miter;" x="932.416732" xlink:href="#mc45bbd5c73" y="553.979564"/>
     <use style="fill:#1f77b4;stroke:#1f77b4;stroke-linejoin:miter;" x="960.663583" xlink:href="#mc45bbd5c73" y="548.494106"/>
     <use style="fill:#1f77b4;stroke:#1f77b4;stroke-linejoin:miter;" x="1057.531249" xlink:href="#mc45bbd5c73" y="541.807725"/>
     <use style="fill:#1f77b4;stroke:#1f77b4;stroke-linejoin:miter;" x="1078.709281" xlink:href="#mc45bbd5c73" y="528.414173"/>
     <use style="fill:#1f77b4;stroke:#1f77b4;stroke-linejoin:miter;" x="1085.906702" xlink:href="#mc45bbd5c73" y="512.070556"/>
    </g>
   </g>
   <g id="patch_3">
    <path d="M 144 768.96 
L 144 103.68 
" style="fill:none;stroke:#000000;stroke-linecap:square;stroke-linejoin:miter;stroke-width:0.8;"/>
   </g>
   <g id="patch_4">
    <path d="M 1036.8 768.96 
L 1036.8 103.68 
" style="fill:none;stroke:#000000;stroke-linecap:square;stroke-linejoin:miter;stroke-width:0.8;"/>
   </g>
   <g id="patch_5">
    <path d="M 144 768.96 
L 1036.8 768.96 
" style="fill:none;stroke:#000000;stroke-linecap:square;stroke-linejoin:miter;stroke-width:0.8;"/>
   </g>
   <g id="patch_6">
    <path d="M 144 103.68 
L 1036.8 103.68 
" style="fill:none;stroke:#000000;stroke-linecap:square;stroke-linejoin:miter;stroke-width:0.8;"/>
   </g>
  </g>
 </g>
 <defs>
  <clipPath id="pd4d06dc7e5">
   <rect height="665.28" width="892.8" x="144" y="103.68"/>
  </clipPath>
 </defs>
</svg>
