<?xml version="1.0" encoding="utf-8" standalone="no"?>
<!DOCTYPE svg PUBLIC "-//W3C//DTD SVG 1.1//EN"
  "http://www.w3.org/Graphics/SVG/1.1/DTD/svg11.dtd">
<!-- Created with matplotlib (http://matplotlib.org/) -->
<svg height="864pt" version="1.1" viewBox="0 0 1152 864" width="1152pt" xmlns="http://www.w3.org/2000/svg" xmlns:xlink="http://www.w3.org/1999/xlink">
 <defs>
  <style type="text/css">
*{stroke-linecap:butt;stroke-linejoin:round;}
  </style>
 </defs>
 <g id="figure_1">
  <g id="patch_1">
   <path d="M 0 864 
L 1152 864 
L 1152 0 
L 0 0 
z
" style="fill:#ffffff;"/>
  </g>
  <g id="axes_1">
   <g id="patch_2">
    <path d="M 144 768.96 
L 1036.8 768.96 
L 1036.8 103.68 
L 144 103.68 
z
" style="fill:#ffffff;"/>
   </g>
   <g id="matplotlib.axis_1">
    <g id="xtick_1">
     <g id="line2d_1">
      <defs>
       <path d="M 0 0 
L 0 3.5 
" id="m71d44d05b1" style="stroke:#000000;stroke-width:0.8;"/>
      </defs>
      <g>
       <use style="stroke:#000000;stroke-width:0.8;" x="144" xlink:href="#m71d44d05b1" y="768.96"/>
      </g>
     </g>
     <g id="text_1">
      <!-- −4000 -->
      <defs>
       <path d="M 10.59375 35.5 
L 73.1875 35.5 
L 73.1875 27.203125 
L 10.59375 27.203125 
z
" id="DejaVuSans-2212"/>
       <path d="M 37.796875 64.3125 
L 12.890625 25.390625 
L 37.796875 25.390625 
z
M 35.203125 72.90625 
L 47.609375 72.90625 
L 47.609375 25.390625 
L 58.015625 25.390625 
L 58.015625 17.1875 
L 47.609375 17.1875 
L 47.609375 0 
L 37.796875 0 
L 37.796875 17.1875 
L 4.890625 17.1875 
L 4.890625 26.703125 
z
" id="DejaVuSans-34"/>
       <path d="M 31.78125 66.40625 
Q 24.171875 66.40625 20.328125 58.90625 
Q 16.5 51.421875 16.5 36.375 
Q 16.5 21.390625 20.328125 13.890625 
Q 24.171875 6.390625 31.78125 6.390625 
Q 39.453125 6.390625 43.28125 13.890625 
Q 47.125 21.390625 47.125 36.375 
Q 47.125 51.421875 43.28125 58.90625 
Q 39.453125 66.40625 31.78125 66.40625 
z
M 31.78125 74.21875 
Q 44.046875 74.21875 50.515625 64.515625 
Q 56.984375 54.828125 56.984375 36.375 
Q 56.984375 17.96875 50.515625 8.265625 
Q 44.046875 -1.421875 31.78125 -1.421875 
Q 19.53125 -1.421875 13.0625 8.265625 
Q 6.59375 17.96875 6.59375 36.375 
Q 6.59375 54.828125 13.0625 64.515625 
Q 19.53125 74.21875 31.78125 74.21875 
z
" id="DejaVuSans-30"/>
      </defs>
      <g transform="translate(127.085156 783.558437)scale(0.1 -0.1)">
       <use xlink:href="#DejaVuSans-2212"/>
       <use x="83.789062" xlink:href="#DejaVuSans-34"/>
       <use x="147.412109" xlink:href="#DejaVuSans-30"/>
       <use x="211.035156" xlink:href="#DejaVuSans-30"/>
       <use x="274.658203" xlink:href="#DejaVuSans-30"/>
      </g>
     </g>
    </g>
    <g id="xtick_2">
     <g id="line2d_2">
      <g>
       <use style="stroke:#000000;stroke-width:0.8;" x="255.6" xlink:href="#m71d44d05b1" y="768.96"/>
      </g>
     </g>
     <g id="text_2">
      <!-- −3000 -->
      <defs>
       <path d="M 40.578125 39.3125 
Q 47.65625 37.796875 51.625 33 
Q 55.609375 28.21875 55.609375 21.1875 
Q 55.609375 10.40625 48.1875 4.484375 
Q 40.765625 -1.421875 27.09375 -1.421875 
Q 22.515625 -1.421875 17.65625 -0.515625 
Q 12.796875 0.390625 7.625 2.203125 
L 7.625 11.71875 
Q 11.71875 9.328125 16.59375 8.109375 
Q 21.484375 6.890625 26.8125 6.890625 
Q 36.078125 6.890625 40.9375 10.546875 
Q 45.796875 14.203125 45.796875 21.1875 
Q 45.796875 27.640625 41.28125 31.265625 
Q 36.765625 34.90625 28.71875 34.90625 
L 20.21875 34.90625 
L 20.21875 43.015625 
L 29.109375 43.015625 
Q 36.375 43.015625 40.234375 45.921875 
Q 44.09375 48.828125 44.09375 54.296875 
Q 44.09375 59.90625 40.109375 62.90625 
Q 36.140625 65.921875 28.71875 65.921875 
Q 24.65625 65.921875 20.015625 65.03125 
Q 15.375 64.15625 9.8125 62.3125 
L 9.8125 71.09375 
Q 15.4375 72.65625 20.34375 73.4375 
Q 25.25 74.21875 29.59375 74.21875 
Q 40.828125 74.21875 47.359375 69.109375 
Q 53.90625 64.015625 53.90625 55.328125 
Q 53.90625 49.265625 50.4375 45.09375 
Q 46.96875 40.921875 40.578125 39.3125 
z
" id="DejaVuSans-33"/>
      </defs>
      <g transform="translate(238.685156 783.558437)scale(0.1 -0.1)">
       <use xlink:href="#DejaVuSans-2212"/>
       <use x="83.789062" xlink:href="#DejaVuSans-33"/>
       <use x="147.412109" xlink:href="#DejaVuSans-30"/>
       <use x="211.035156" xlink:href="#DejaVuSans-30"/>
       <use x="274.658203" xlink:href="#DejaVuSans-30"/>
      </g>
     </g>
    </g>
    <g id="xtick_3">
     <g id="line2d_3">
      <g>
       <use style="stroke:#000000;stroke-width:0.8;" x="367.2" xlink:href="#m71d44d05b1" y="768.96"/>
      </g>
     </g>
     <g id="text_3">
      <!-- −2000 -->
      <defs>
       <path d="M 19.1875 8.296875 
L 53.609375 8.296875 
L 53.609375 0 
L 7.328125 0 
L 7.328125 8.296875 
Q 12.9375 14.109375 22.625 23.890625 
Q 32.328125 33.6875 34.8125 36.53125 
Q 39.546875 41.84375 41.421875 45.53125 
Q 43.3125 49.21875 43.3125 52.78125 
Q 43.3125 58.59375 39.234375 62.25 
Q 35.15625 65.921875 28.609375 65.921875 
Q 23.96875 65.921875 18.8125 64.3125 
Q 13.671875 62.703125 7.8125 59.421875 
L 7.8125 69.390625 
Q 13.765625 71.78125 18.9375 73 
Q 24.125 74.21875 28.421875 74.21875 
Q 39.75 74.21875 46.484375 68.546875 
Q 53.21875 62.890625 53.21875 53.421875 
Q 53.21875 48.921875 51.53125 44.890625 
Q 49.859375 40.875 45.40625 35.40625 
Q 44.1875 33.984375 37.640625 27.21875 
Q 31.109375 20.453125 19.1875 8.296875 
z
" id="DejaVuSans-32"/>
      </defs>
      <g transform="translate(350.285156 783.558437)scale(0.1 -0.1)">
       <use xlink:href="#DejaVuSans-2212"/>
       <use x="83.789062" xlink:href="#DejaVuSans-32"/>
       <use x="147.412109" xlink:href="#DejaVuSans-30"/>
       <use x="211.035156" xlink:href="#DejaVuSans-30"/>
       <use x="274.658203" xlink:href="#DejaVuSans-30"/>
      </g>
     </g>
    </g>
    <g id="xtick_4">
     <g id="line2d_4">
      <g>
       <use style="stroke:#000000;stroke-width:0.8;" x="478.8" xlink:href="#m71d44d05b1" y="768.96"/>
      </g>
     </g>
     <g id="text_4">
      <!-- −1000 -->
      <defs>
       <path d="M 12.40625 8.296875 
L 28.515625 8.296875 
L 28.515625 63.921875 
L 10.984375 60.40625 
L 10.984375 69.390625 
L 28.421875 72.90625 
L 38.28125 72.90625 
L 38.28125 8.296875 
L 54.390625 8.296875 
L 54.390625 0 
L 12.40625 0 
z
" id="DejaVuSans-31"/>
      </defs>
      <g transform="translate(461.885156 783.558437)scale(0.1 -0.1)">
       <use xlink:href="#DejaVuSans-2212"/>
       <use x="83.789062" xlink:href="#DejaVuSans-31"/>
       <use x="147.412109" xlink:href="#DejaVuSans-30"/>
       <use x="211.035156" xlink:href="#DejaVuSans-30"/>
       <use x="274.658203" xlink:href="#DejaVuSans-30"/>
      </g>
     </g>
    </g>
    <g id="xtick_5">
     <g id="line2d_5">
      <g>
       <use style="stroke:#000000;stroke-width:0.8;" x="590.4" xlink:href="#m71d44d05b1" y="768.96"/>
      </g>
     </g>
     <g id="text_5">
      <!-- 0 -->
      <g transform="translate(587.21875 783.558437)scale(0.1 -0.1)">
       <use xlink:href="#DejaVuSans-30"/>
      </g>
     </g>
    </g>
    <g id="xtick_6">
     <g id="line2d_6">
      <g>
       <use style="stroke:#000000;stroke-width:0.8;" x="702" xlink:href="#m71d44d05b1" y="768.96"/>
      </g>
     </g>
     <g id="text_6">
      <!-- 1000 -->
      <g transform="translate(689.275 783.558437)scale(0.1 -0.1)">
       <use xlink:href="#DejaVuSans-31"/>
       <use x="63.623047" xlink:href="#DejaVuSans-30"/>
       <use x="127.246094" xlink:href="#DejaVuSans-30"/>
       <use x="190.869141" xlink:href="#DejaVuSans-30"/>
      </g>
     </g>
    </g>
    <g id="xtick_7">
     <g id="line2d_7">
      <g>
       <use style="stroke:#000000;stroke-width:0.8;" x="813.6" xlink:href="#m71d44d05b1" y="768.96"/>
      </g>
     </g>
     <g id="text_7">
      <!-- 2000 -->
      <g transform="translate(800.875 783.558437)scale(0.1 -0.1)">
       <use xlink:href="#DejaVuSans-32"/>
       <use x="63.623047" xlink:href="#DejaVuSans-30"/>
       <use x="127.246094" xlink:href="#DejaVuSans-30"/>
       <use x="190.869141" xlink:href="#DejaVuSans-30"/>
      </g>
     </g>
    </g>
    <g id="xtick_8">
     <g id="line2d_8">
      <g>
       <use style="stroke:#000000;stroke-width:0.8;" x="925.2" xlink:href="#m71d44d05b1" y="768.96"/>
      </g>
     </g>
     <g id="text_8">
      <!-- 3000 -->
      <g transform="translate(912.475 783.558437)scale(0.1 -0.1)">
       <use xlink:href="#DejaVuSans-33"/>
       <use x="63.623047" xlink:href="#DejaVuSans-30"/>
       <use x="127.246094" xlink:href="#DejaVuSans-30"/>
       <use x="190.869141" xlink:href="#DejaVuSans-30"/>
      </g>
     </g>
    </g>
    <g id="xtick_9">
     <g id="line2d_9">
      <g>
       <use style="stroke:#000000;stroke-width:0.8;" x="1036.8" xlink:href="#m71d44d05b1" y="768.96"/>
      </g>
     </g>
     <g id="text_9">
      <!-- 4000 -->
      <g transform="translate(1024.075 783.558437)scale(0.1 -0.1)">
       <use xlink:href="#DejaVuSans-34"/>
       <use x="63.623047" xlink:href="#DejaVuSans-30"/>
       <use x="127.246094" xlink:href="#DejaVuSans-30"/>
       <use x="190.869141" xlink:href="#DejaVuSans-30"/>
      </g>
     </g>
    </g>
   </g>
   <g id="matplotlib.axis_2">
    <g id="ytick_1">
     <g id="line2d_10">
      <defs>
       <path d="M 0 0 
L -3.5 0 
" id="m79c98cda23" style="stroke:#000000;stroke-width:0.8;"/>
      </defs>
      <g>
       <use style="stroke:#000000;stroke-width:0.8;" x="144" xlink:href="#m79c98cda23" y="768.96"/>
      </g>
     </g>
     <g id="text_10">
      <!-- −4000 -->
      <g transform="translate(103.170312 772.759219)scale(0.1 -0.1)">
       <use xlink:href="#DejaVuSans-2212"/>
       <use x="83.789062" xlink:href="#DejaVuSans-34"/>
       <use x="147.412109" xlink:href="#DejaVuSans-30"/>
       <use x="211.035156" xlink:href="#DejaVuSans-30"/>
       <use x="274.658203" xlink:href="#DejaVuSans-30"/>
      </g>
     </g>
    </g>
    <g id="ytick_2">
     <g id="line2d_11">
      <g>
       <use style="stroke:#000000;stroke-width:0.8;" x="144" xlink:href="#m79c98cda23" y="685.8"/>
      </g>
     </g>
     <g id="text_11">
      <!-- −3000 -->
      <g transform="translate(103.170312 689.599219)scale(0.1 -0.1)">
       <use xlink:href="#DejaVuSans-2212"/>
       <use x="83.789062" xlink:href="#DejaVuSans-33"/>
       <use x="147.412109" xlink:href="#DejaVuSans-30"/>
       <use x="211.035156" xlink:href="#DejaVuSans-30"/>
       <use x="274.658203" xlink:href="#DejaVuSans-30"/>
      </g>
     </g>
    </g>
    <g id="ytick_3">
     <g id="line2d_12">
      <g>
       <use style="stroke:#000000;stroke-width:0.8;" x="144" xlink:href="#m79c98cda23" y="602.64"/>
      </g>
     </g>
     <g id="text_12">
      <!-- −2000 -->
      <g transform="translate(103.170312 606.439219)scale(0.1 -0.1)">
       <use xlink:href="#DejaVuSans-2212"/>
       <use x="83.789062" xlink:href="#DejaVuSans-32"/>
       <use x="147.412109" xlink:href="#DejaVuSans-30"/>
       <use x="211.035156" xlink:href="#DejaVuSans-30"/>
       <use x="274.658203" xlink:href="#DejaVuSans-30"/>
      </g>
     </g>
    </g>
    <g id="ytick_4">
     <g id="line2d_13">
      <g>
       <use style="stroke:#000000;stroke-width:0.8;" x="144" xlink:href="#m79c98cda23" y="519.48"/>
      </g>
     </g>
     <g id="text_13">
      <!-- −1000 -->
      <g transform="translate(103.170312 523.279219)scale(0.1 -0.1)">
       <use xlink:href="#DejaVuSans-2212"/>
       <use x="83.789062" xlink:href="#DejaVuSans-31"/>
       <use x="147.412109" xlink:href="#DejaVuSans-30"/>
       <use x="211.035156" xlink:href="#DejaVuSans-30"/>
       <use x="274.658203" xlink:href="#DejaVuSans-30"/>
      </g>
     </g>
    </g>
    <g id="ytick_5">
     <g id="line2d_14">
      <g>
       <use style="stroke:#000000;stroke-width:0.8;" x="144" xlink:href="#m79c98cda23" y="436.32"/>
      </g>
     </g>
     <g id="text_14">
      <!-- 0 -->
      <g transform="translate(130.6375 440.119219)scale(0.1 -0.1)">
       <use xlink:href="#DejaVuSans-30"/>
      </g>
     </g>
    </g>
    <g id="ytick_6">
     <g id="line2d_15">
      <g>
       <use style="stroke:#000000;stroke-width:0.8;" x="144" xlink:href="#m79c98cda23" y="353.16"/>
      </g>
     </g>
     <g id="text_15">
      <!-- 1000 -->
      <g transform="translate(111.55 356.959219)scale(0.1 -0.1)">
       <use xlink:href="#DejaVuSans-31"/>
       <use x="63.623047" xlink:href="#DejaVuSans-30"/>
       <use x="127.246094" xlink:href="#DejaVuSans-30"/>
       <use x="190.869141" xlink:href="#DejaVuSans-30"/>
      </g>
     </g>
    </g>
    <g id="ytick_7">
     <g id="line2d_16">
      <g>
       <use style="stroke:#000000;stroke-width:0.8;" x="144" xlink:href="#m79c98cda23" y="270"/>
      </g>
     </g>
     <g id="text_16">
      <!-- 2000 -->
      <g transform="translate(111.55 273.799219)scale(0.1 -0.1)">
       <use xlink:href="#DejaVuSans-32"/>
       <use x="63.623047" xlink:href="#DejaVuSans-30"/>
       <use x="127.246094" xlink:href="#DejaVuSans-30"/>
       <use x="190.869141" xlink:href="#DejaVuSans-30"/>
      </g>
     </g>
    </g>
    <g id="ytick_8">
     <g id="line2d_17">
      <g>
       <use style="stroke:#000000;stroke-width:0.8;" x="144" xlink:href="#m79c98cda23" y="186.84"/>
      </g>
     </g>
     <g id="text_17">
      <!-- 3000 -->
      <g transform="translate(111.55 190.639219)scale(0.1 -0.1)">
       <use xlink:href="#DejaVuSans-33"/>
       <use x="63.623047" xlink:href="#DejaVuSans-30"/>
       <use x="127.246094" xlink:href="#DejaVuSans-30"/>
       <use x="190.869141" xlink:href="#DejaVuSans-30"/>
      </g>
     </g>
    </g>
    <g id="ytick_9">
     <g id="line2d_18">
      <g>
       <use style="stroke:#000000;stroke-width:0.8;" x="144" xlink:href="#m79c98cda23" y="103.68"/>
      </g>
     </g>
     <g id="text_18">
      <!-- 4000 -->
      <g transform="translate(111.55 107.479219)scale(0.1 -0.1)">
       <use xlink:href="#DejaVuSans-34"/>
       <use x="63.623047" xlink:href="#DejaVuSans-30"/>
       <use x="127.246094" xlink:href="#DejaVuSans-30"/>
       <use x="190.869141" xlink:href="#DejaVuSans-30"/>
      </g>
     </g>
    </g>
   </g>
   <g id="line2d_19">
    <path clip-path="url(#p2fdbc26bac)" d="M 590.4 768.96 
L 590.4 103.68 
" style="fill:none;stroke:#1f77b4;stroke-linecap:square;stroke-width:1.5;"/>
   </g>
   <g id="line2d_20">
    <path clip-path="url(#p2fdbc26bac)" d="M 144 436.32 
L 1036.8 436.32 
" style="fill:none;stroke:#1f77b4;stroke-linecap:square;stroke-width:1.5;"/>
   </g>
   <g id="line2d_21">
    <defs>
     <path d="M 0 3 
C 0.795609 3 1.55874 2.683901 2.12132 2.12132 
C 2.683901 1.55874 3 0.795609 3 0 
C 3 -0.795609 2.683901 -1.55874 2.12132 -2.12132 
C 1.55874 -2.683901 0.795609 -3 0 -3 
C -0.795609 -3 -1.55874 -2.683901 -2.12132 -2.12132 
C -2.683901 -1.55874 -3 -0.795609 -3 0 
C -3 0.795609 -2.683901 1.55874 -2.12132 2.12132 
C -1.55874 2.683901 -0.795609 3 0 3 
z
" id="m7f3abd64db" style="stroke:#008000;"/>
    </defs>
    <g clip-path="url(#p2fdbc26bac)">
     <use style="fill:#008000;stroke:#008000;" x="1076.482584" xlink:href="#m7f3abd64db" y="441.357974"/>
    </g>
   </g>
   <g id="line2d_22">
    <g clip-path="url(#p2fdbc26bac)">
     <use style="fill:#008000;stroke:#008000;" x="1258.681833" xlink:href="#m7f3abd64db" y="336.418736"/>
    </g>
   </g>
   <g id="line2d_23">
    <g clip-path="url(#p2fdbc26bac)">
     <use style="fill:#008000;stroke:#008000;" x="646.955273" xlink:href="#m7f3abd64db" y="391.862217"/>
    </g>
   </g>
   <g id="line2d_24">
    <g clip-path="url(#p2fdbc26bac)">
     <use style="fill:#008000;stroke:#008000;" x="646.955273" xlink:href="#m7f3abd64db" y="391.862217"/>
    </g>
   </g>
   <g id="line2d_25">
    <g clip-path="url(#p2fdbc26bac)">
     <use style="fill:#008000;stroke:#008000;" x="718.563589" xlink:href="#m7f3abd64db" y="201.786397"/>
    </g>
   </g>
   <g id="line2d_26">
    <g clip-path="url(#p2fdbc26bac)">
     <use style="fill:#008000;stroke:#008000;" x="527.643012" xlink:href="#m7f3abd64db" y="234.515912"/>
    </g>
   </g>
   <g id="line2d_27">
    <g clip-path="url(#p2fdbc26bac)">
     <use style="fill:#008000;stroke:#008000;" x="570.027814" xlink:href="#m7f3abd64db" y="397.889502"/>
    </g>
   </g>
   <g id="line2d_28">
    <g clip-path="url(#p2fdbc26bac)">
     <use style="fill:#008000;stroke:#008000;" x="570.027814" xlink:href="#m7f3abd64db" y="397.889502"/>
    </g>
   </g>
   <g id="line2d_29">
    <g clip-path="url(#p2fdbc26bac)">
     <use style="fill:#008000;stroke:#008000;" x="439.02693" xlink:href="#m7f3abd64db" y="251.00593"/>
    </g>
   </g>
   <g id="line2d_30">
    <g clip-path="url(#p2fdbc26bac)">
     <use style="fill:#008000;stroke:#008000;" x="378.63212" xlink:href="#m7f3abd64db" y="287.1437"/>
    </g>
   </g>
   <g id="line2d_31">
    <g clip-path="url(#p2fdbc26bac)">
     <use style="fill:#008000;stroke:#008000;" x="406.002505" xlink:href="#m7f3abd64db" y="488.485583"/>
    </g>
   </g>
   <g id="line2d_32">
    <g clip-path="url(#p2fdbc26bac)">
     <use style="fill:#008000;stroke:#008000;" x="467.634971" xlink:href="#m7f3abd64db" y="486.556203"/>
    </g>
   </g>
   <g id="line2d_33">
    <defs>
     <path d="M 0 1.333333 
C 0.353604 1.333333 0.692773 1.192845 0.942809 0.942809 
C 1.192845 0.692773 1.333333 0.353604 1.333333 0 
C 1.333333 -0.353604 1.192845 -0.692773 0.942809 -0.942809 
C 0.692773 -1.192845 0.353604 -1.333333 0 -1.333333 
C -0.353604 -1.333333 -0.692773 -1.192845 -0.942809 -0.942809 
C -1.192845 -0.692773 -1.333333 -0.353604 -1.333333 0 
C -1.333333 0.353604 -1.192845 0.692773 -0.942809 0.942809 
C -0.692773 1.192845 -0.353604 1.333333 0 1.333333 
z
" id="m60d7b1d95f" style="stroke:#ff0000;"/>
    </defs>
    <g clip-path="url(#p2fdbc26bac)">
     <use style="fill:#ff0000;stroke:#ff0000;" x="1076.482584" xlink:href="#m60d7b1d95f" y="441.357974"/>
     <use style="fill:#ff0000;stroke:#ff0000;" x="1258.681833" xlink:href="#m60d7b1d95f" y="336.418736"/>
     <use style="fill:#ff0000;stroke:#ff0000;" x="1354.113991" xlink:href="#m60d7b1d95f" y="290.632527"/>
     <use style="fill:#ff0000;stroke:#ff0000;" x="1316.978402" xlink:href="#m60d7b1d95f" y="266.584991"/>
     <use style="fill:#ff0000;stroke:#ff0000;" x="649.54833" xlink:href="#m60d7b1d95f" y="398.676355"/>
     <use style="fill:#ff0000;stroke:#ff0000;" x="643.061696" xlink:href="#m60d7b1d95f" y="385.063865"/>
     <use style="fill:#ff0000;stroke:#ff0000;" x="777.662394" xlink:href="#m60d7b1d95f" y="192.945322"/>
     <use style="fill:#ff0000;stroke:#ff0000;" x="752.771554" xlink:href="#m60d7b1d95f" y="196.437075"/>
     <use style="fill:#ff0000;stroke:#ff0000;" x="729.564856" xlink:href="#m60d7b1d95f" y="200.119209"/>
     <use style="fill:#ff0000;stroke:#ff0000;" x="707.78629" xlink:href="#m60d7b1d95f" y="203.720828"/>
     <use style="fill:#ff0000;stroke:#ff0000;" x="527.643012" xlink:href="#m60d7b1d95f" y="234.515912"/>
     <use style="fill:#ff0000;stroke:#ff0000;" x="572.466881" xlink:href="#m60d7b1d95f" y="396.090543"/>
     <use style="fill:#ff0000;stroke:#ff0000;" x="567.799723" xlink:href="#m60d7b1d95f" y="399.763152"/>
     <use style="fill:#ff0000;stroke:#ff0000;" x="439.02693" xlink:href="#m60d7b1d95f" y="251.00593"/>
     <use style="fill:#ff0000;stroke:#ff0000;" x="378.63212" xlink:href="#m60d7b1d95f" y="287.1437"/>
     <use style="fill:#ff0000;stroke:#ff0000;" x="422.935435" xlink:href="#m60d7b1d95f" y="341.964889"/>
     <use style="fill:#ff0000;stroke:#ff0000;" x="406.47281" xlink:href="#m60d7b1d95f" y="363.637999"/>
     <use style="fill:#ff0000;stroke:#ff0000;" x="454.34614" xlink:href="#m60d7b1d95f" y="390.117529"/>
     <use style="fill:#ff0000;stroke:#ff0000;" x="449.103567" xlink:href="#m60d7b1d95f" y="413.399457"/>
     <use style="fill:#ff0000;stroke:#ff0000;" x="427.278482" xlink:href="#m60d7b1d95f" y="416.353851"/>
     <use style="fill:#ff0000;stroke:#ff0000;" x="410.905865" xlink:href="#m60d7b1d95f" y="442.342477"/>
     <use style="fill:#ff0000;stroke:#ff0000;" x="395.436516" xlink:href="#m60d7b1d95f" y="450.468761"/>
     <use style="fill:#ff0000;stroke:#ff0000;" x="401.204271" xlink:href="#m60d7b1d95f" y="465.403581"/>
     <use style="fill:#ff0000;stroke:#ff0000;" x="437.58923" xlink:href="#m60d7b1d95f" y="466.564915"/>
     <use style="fill:#ff0000;stroke:#ff0000;" x="404.131382" xlink:href="#m60d7b1d95f" y="480.750283"/>
     <use style="fill:#ff0000;stroke:#ff0000;" x="408.454767" xlink:href="#m60d7b1d95f" y="496.196778"/>
     <use style="fill:#ff0000;stroke:#ff0000;" x="467.267535" xlink:href="#m60d7b1d95f" y="483.607845"/>
     <use style="fill:#ff0000;stroke:#ff0000;" x="468.126294" xlink:href="#m60d7b1d95f" y="489.522517"/>
     <use style="fill:#ff0000;stroke:#ff0000;" x="432.452433" xlink:href="#m60d7b1d95f" y="512.935605"/>
     <use style="fill:#ff0000;stroke:#ff0000;" x="444.043586" xlink:href="#m60d7b1d95f" y="516.011409"/>
     <use style="fill:#ff0000;stroke:#ff0000;" x="463.999059" xlink:href="#m60d7b1d95f" y="513.361417"/>
     <use style="fill:#ff0000;stroke:#ff0000;" x="457.099084" xlink:href="#m60d7b1d95f" y="526.496214"/>
     <use style="fill:#ff0000;stroke:#ff0000;" x="469.864705" xlink:href="#m60d7b1d95f" y="537.063382"/>
     <use style="fill:#ff0000;stroke:#ff0000;" x="454.289379" xlink:href="#m60d7b1d95f" y="562.128881"/>
     <use style="fill:#ff0000;stroke:#ff0000;" x="528.445114" xlink:href="#m60d7b1d95f" y="502.214174"/>
     <use style="fill:#ff0000;stroke:#ff0000;" x="567.419594" xlink:href="#m60d7b1d95f" y="506.549272"/>
     <use style="fill:#ff0000;stroke:#ff0000;" x="564.31117" xlink:href="#m60d7b1d95f" y="633.701555"/>
     <use style="fill:#ff0000;stroke:#ff0000;" x="580.094606" xlink:href="#m60d7b1d95f" y="612.20216"/>
     <use style="fill:#ff0000;stroke:#ff0000;" x="592.44792" xlink:href="#m60d7b1d95f" y="643.569892"/>
     <use style="fill:#ff0000;stroke:#ff0000;" x="635.400173" xlink:href="#m60d7b1d95f" y="632.75057"/>
     <use style="fill:#ff0000;stroke:#ff0000;" x="644.46317" xlink:href="#m60d7b1d95f" y="613.90751"/>
     <use style="fill:#ff0000;stroke:#ff0000;" x="663.607415" xlink:href="#m60d7b1d95f" y="629.341395"/>
     <use style="fill:#ff0000;stroke:#ff0000;" x="669.682432" xlink:href="#m60d7b1d95f" y="609.119297"/>
     <use style="fill:#ff0000;stroke:#ff0000;" x="691.732547" xlink:href="#m60d7b1d95f" y="598.134545"/>
     <use style="fill:#ff0000;stroke:#ff0000;" x="763.234671" xlink:href="#m60d7b1d95f" y="589.550829"/>
     <use style="fill:#ff0000;stroke:#ff0000;" x="794.88976" xlink:href="#m60d7b1d95f" y="583.228853"/>
     <use style="fill:#ff0000;stroke:#ff0000;" x="849.076918" xlink:href="#m60d7b1d95f" y="569.961764"/>
     <use style="fill:#ff0000;stroke:#ff0000;" x="887.8284" xlink:href="#m60d7b1d95f" y="557.675759"/>
     <use style="fill:#ff0000;stroke:#ff0000;" x="1063.331251" xlink:href="#m60d7b1d95f" y="541.440793"/>
     <use style="fill:#ff0000;stroke:#ff0000;" x="1087.50221" xlink:href="#m60d7b1d95f" y="525.99851"/>
     <use style="fill:#ff0000;stroke:#ff0000;" x="1102.165047" xlink:href="#m60d7b1d95f" y="507.428944"/>
    </g>
   </g>
   <g id="line2d_34">
    <defs>
     <path d="M -0.5 0.5 
L 0.5 0.5 
L 0.5 -0.5 
L -0.5 -0.5 
z
" id="md5094ee265" style="stroke:#1f77b4;stroke-linejoin:miter;"/>
    </defs>
    <g clip-path="url(#p2fdbc26bac)">
     <use style="fill:#1f77b4;stroke:#1f77b4;stroke-linejoin:miter;" x="1076.482584" xlink:href="#md5094ee265" y="441.357974"/>
     <use style="fill:#1f77b4;stroke:#1f77b4;stroke-linejoin:miter;" x="1258.681833" xlink:href="#md5094ee265" y="336.418736"/>
     <use style="fill:#1f77b4;stroke:#1f77b4;stroke-linejoin:miter;" x="1354.113991" xlink:href="#md5094ee265" y="290.632527"/>
     <use style="fill:#1f77b4;stroke:#1f77b4;stroke-linejoin:miter;" x="1316.978402" xlink:href="#md5094ee265" y="266.584991"/>
     <use style="fill:#1f77b4;stroke:#1f77b4;stroke-linejoin:miter;" x="649.54833" xlink:href="#md5094ee265" y="398.676355"/>
     <use style="fill:#1f77b4;stroke:#1f77b4;stroke-linejoin:miter;" x="646.365417" xlink:href="#md5094ee265" y="396.4849"/>
     <use style="fill:#1f77b4;stroke:#1f77b4;stroke-linejoin:miter;" x="644.672267" xlink:href="#md5094ee265" y="393.586908"/>
     <use style="fill:#1f77b4;stroke:#1f77b4;stroke-linejoin:miter;" x="641.824668" xlink:href="#md5094ee265" y="391.154972"/>
     <use style="fill:#1f77b4;stroke:#1f77b4;stroke-linejoin:miter;" x="643.061696" xlink:href="#md5094ee265" y="385.063865"/>
     <use style="fill:#1f77b4;stroke:#1f77b4;stroke-linejoin:miter;" x="777.662394" xlink:href="#md5094ee265" y="192.945322"/>
     <use style="fill:#1f77b4;stroke:#1f77b4;stroke-linejoin:miter;" x="752.771554" xlink:href="#md5094ee265" y="196.437075"/>
     <use style="fill:#1f77b4;stroke:#1f77b4;stroke-linejoin:miter;" x="729.564856" xlink:href="#md5094ee265" y="200.119209"/>
     <use style="fill:#1f77b4;stroke:#1f77b4;stroke-linejoin:miter;" x="707.78629" xlink:href="#md5094ee265" y="203.720828"/>
     <use style="fill:#1f77b4;stroke:#1f77b4;stroke-linejoin:miter;" x="687.904877" xlink:href="#md5094ee265" y="207.189838"/>
     <use style="fill:#1f77b4;stroke:#1f77b4;stroke-linejoin:miter;" x="668.852737" xlink:href="#md5094ee265" y="210.779715"/>
     <use style="fill:#1f77b4;stroke:#1f77b4;stroke-linejoin:miter;" x="651.448454" xlink:href="#md5094ee265" y="212.412332"/>
     <use style="fill:#1f77b4;stroke:#1f77b4;stroke-linejoin:miter;" x="634.420419" xlink:href="#md5094ee265" y="215.184774"/>
     <use style="fill:#1f77b4;stroke:#1f77b4;stroke-linejoin:miter;" x="617.318239" xlink:href="#md5094ee265" y="218.677089"/>
     <use style="fill:#1f77b4;stroke:#1f77b4;stroke-linejoin:miter;" x="601.668055" xlink:href="#md5094ee265" y="219.601316"/>
     <use style="fill:#1f77b4;stroke:#1f77b4;stroke-linejoin:miter;" x="586.28777" xlink:href="#md5094ee265" y="224.325725"/>
     <use style="fill:#1f77b4;stroke:#1f77b4;stroke-linejoin:miter;" x="571.172067" xlink:href="#md5094ee265" y="225.64262"/>
     <use style="fill:#1f77b4;stroke:#1f77b4;stroke-linejoin:miter;" x="556.402851" xlink:href="#md5094ee265" y="227.644429"/>
     <use style="fill:#1f77b4;stroke:#1f77b4;stroke-linejoin:miter;" x="542.076174" xlink:href="#md5094ee265" y="232.427721"/>
     <use style="fill:#1f77b4;stroke:#1f77b4;stroke-linejoin:miter;" x="527.643012" xlink:href="#md5094ee265" y="234.515912"/>
     <use style="fill:#1f77b4;stroke:#1f77b4;stroke-linejoin:miter;" x="572.466881" xlink:href="#md5094ee265" y="396.090543"/>
     <use style="fill:#1f77b4;stroke:#1f77b4;stroke-linejoin:miter;" x="570.151119" xlink:href="#md5094ee265" y="398.289144"/>
     <use style="fill:#1f77b4;stroke:#1f77b4;stroke-linejoin:miter;" x="567.799723" xlink:href="#md5094ee265" y="399.763152"/>
     <use style="fill:#1f77b4;stroke:#1f77b4;stroke-linejoin:miter;" x="439.02693" xlink:href="#md5094ee265" y="251.00593"/>
     <use style="fill:#1f77b4;stroke:#1f77b4;stroke-linejoin:miter;" x="421.872127" xlink:href="#md5094ee265" y="252.527571"/>
     <use style="fill:#1f77b4;stroke:#1f77b4;stroke-linejoin:miter;" x="415.49411" xlink:href="#md5094ee265" y="266.178566"/>
     <use style="fill:#1f77b4;stroke:#1f77b4;stroke-linejoin:miter;" x="400.760261" xlink:href="#md5094ee265" y="270.86468"/>
     <use style="fill:#1f77b4;stroke:#1f77b4;stroke-linejoin:miter;" x="387.496333" xlink:href="#md5094ee265" y="277.253535"/>
     <use style="fill:#1f77b4;stroke:#1f77b4;stroke-linejoin:miter;" x="378.63212" xlink:href="#md5094ee265" y="287.1437"/>
     <use style="fill:#1f77b4;stroke:#1f77b4;stroke-linejoin:miter;" x="422.935435" xlink:href="#md5094ee265" y="341.964889"/>
     <use style="fill:#1f77b4;stroke:#1f77b4;stroke-linejoin:miter;" x="414.246646" xlink:href="#md5094ee265" y="357.644189"/>
     <use style="fill:#1f77b4;stroke:#1f77b4;stroke-linejoin:miter;" x="406.47281" xlink:href="#md5094ee265" y="363.637999"/>
     <use style="fill:#1f77b4;stroke:#1f77b4;stroke-linejoin:miter;" x="454.34614" xlink:href="#md5094ee265" y="390.117529"/>
     <use style="fill:#1f77b4;stroke:#1f77b4;stroke-linejoin:miter;" x="455.033992" xlink:href="#md5094ee265" y="396.681741"/>
     <use style="fill:#1f77b4;stroke:#1f77b4;stroke-linejoin:miter;" x="456.943761" xlink:href="#md5094ee265" y="403.377076"/>
     <use style="fill:#1f77b4;stroke:#1f77b4;stroke-linejoin:miter;" x="458.834312" xlink:href="#md5094ee265" y="409.649304"/>
     <use style="fill:#1f77b4;stroke:#1f77b4;stroke-linejoin:miter;" x="449.103567" xlink:href="#md5094ee265" y="413.399457"/>
     <use style="fill:#1f77b4;stroke:#1f77b4;stroke-linejoin:miter;" x="427.278482" xlink:href="#md5094ee265" y="416.353851"/>
     <use style="fill:#1f77b4;stroke:#1f77b4;stroke-linejoin:miter;" x="418.564385" xlink:href="#md5094ee265" y="429.014032"/>
     <use style="fill:#1f77b4;stroke:#1f77b4;stroke-linejoin:miter;" x="420.492342" xlink:href="#md5094ee265" y="435.525865"/>
     <use style="fill:#1f77b4;stroke:#1f77b4;stroke-linejoin:miter;" x="410.905865" xlink:href="#md5094ee265" y="442.342477"/>
     <use style="fill:#1f77b4;stroke:#1f77b4;stroke-linejoin:miter;" x="395.436516" xlink:href="#md5094ee265" y="450.468761"/>
     <use style="fill:#1f77b4;stroke:#1f77b4;stroke-linejoin:miter;" x="398.037537" xlink:href="#md5094ee265" y="457.982304"/>
     <use style="fill:#1f77b4;stroke:#1f77b4;stroke-linejoin:miter;" x="401.204271" xlink:href="#md5094ee265" y="465.403581"/>
     <use style="fill:#1f77b4;stroke:#1f77b4;stroke-linejoin:miter;" x="437.58923" xlink:href="#md5094ee265" y="466.564915"/>
     <use style="fill:#1f77b4;stroke:#1f77b4;stroke-linejoin:miter;" x="404.131382" xlink:href="#md5094ee265" y="480.750283"/>
     <use style="fill:#1f77b4;stroke:#1f77b4;stroke-linejoin:miter;" x="406.425599" xlink:href="#md5094ee265" y="488.173497"/>
     <use style="fill:#1f77b4;stroke:#1f77b4;stroke-linejoin:miter;" x="408.454767" xlink:href="#md5094ee265" y="496.196778"/>
     <use style="fill:#1f77b4;stroke:#1f77b4;stroke-linejoin:miter;" x="467.267535" xlink:href="#md5094ee265" y="483.607845"/>
     <use style="fill:#1f77b4;stroke:#1f77b4;stroke-linejoin:miter;" x="468.126294" xlink:href="#md5094ee265" y="489.522517"/>
     <use style="fill:#1f77b4;stroke:#1f77b4;stroke-linejoin:miter;" x="432.452433" xlink:href="#md5094ee265" y="512.935605"/>
     <use style="fill:#1f77b4;stroke:#1f77b4;stroke-linejoin:miter;" x="444.043586" xlink:href="#md5094ee265" y="516.011409"/>
     <use style="fill:#1f77b4;stroke:#1f77b4;stroke-linejoin:miter;" x="463.999059" xlink:href="#md5094ee265" y="513.361417"/>
     <use style="fill:#1f77b4;stroke:#1f77b4;stroke-linejoin:miter;" x="457.099084" xlink:href="#md5094ee265" y="526.496214"/>
     <use style="fill:#1f77b4;stroke:#1f77b4;stroke-linejoin:miter;" x="456.901064" xlink:href="#md5094ee265" y="536.506092"/>
     <use style="fill:#1f77b4;stroke:#1f77b4;stroke-linejoin:miter;" x="469.864705" xlink:href="#md5094ee265" y="537.063382"/>
     <use style="fill:#1f77b4;stroke:#1f77b4;stroke-linejoin:miter;" x="454.289379" xlink:href="#md5094ee265" y="562.128881"/>
     <use style="fill:#1f77b4;stroke:#1f77b4;stroke-linejoin:miter;" x="528.445114" xlink:href="#md5094ee265" y="502.214174"/>
     <use style="fill:#1f77b4;stroke:#1f77b4;stroke-linejoin:miter;" x="537.131253" xlink:href="#md5094ee265" y="500.114034"/>
     <use style="fill:#1f77b4;stroke:#1f77b4;stroke-linejoin:miter;" x="547.363386" xlink:href="#md5094ee265" y="494.774468"/>
     <use style="fill:#1f77b4;stroke:#1f77b4;stroke-linejoin:miter;" x="551.868325" xlink:href="#md5094ee265" y="496.263999"/>
     <use style="fill:#1f77b4;stroke:#1f77b4;stroke-linejoin:miter;" x="559.255577" xlink:href="#md5094ee265" y="492.348148"/>
     <use style="fill:#1f77b4;stroke:#1f77b4;stroke-linejoin:miter;" x="564.42571" xlink:href="#md5094ee265" y="491.792908"/>
     <use style="fill:#1f77b4;stroke:#1f77b4;stroke-linejoin:miter;" x="568.05086" xlink:href="#md5094ee265" y="493.05295"/>
     <use style="fill:#1f77b4;stroke:#1f77b4;stroke-linejoin:miter;" x="567.419594" xlink:href="#md5094ee265" y="506.549272"/>
     <use style="fill:#1f77b4;stroke:#1f77b4;stroke-linejoin:miter;" x="564.31117" xlink:href="#md5094ee265" y="633.701555"/>
     <use style="fill:#1f77b4;stroke:#1f77b4;stroke-linejoin:miter;" x="580.094606" xlink:href="#md5094ee265" y="612.20216"/>
     <use style="fill:#1f77b4;stroke:#1f77b4;stroke-linejoin:miter;" x="592.44792" xlink:href="#md5094ee265" y="643.569892"/>
     <use style="fill:#1f77b4;stroke:#1f77b4;stroke-linejoin:miter;" x="606.989606" xlink:href="#md5094ee265" y="641.18625"/>
     <use style="fill:#1f77b4;stroke:#1f77b4;stroke-linejoin:miter;" x="622.23432" xlink:href="#md5094ee265" y="640.560123"/>
     <use style="fill:#1f77b4;stroke:#1f77b4;stroke-linejoin:miter;" x="635.400173" xlink:href="#md5094ee265" y="632.75057"/>
     <use style="fill:#1f77b4;stroke:#1f77b4;stroke-linejoin:miter;" x="644.46317" xlink:href="#md5094ee265" y="613.90751"/>
     <use style="fill:#1f77b4;stroke:#1f77b4;stroke-linejoin:miter;" x="663.607415" xlink:href="#md5094ee265" y="629.341395"/>
     <use style="fill:#1f77b4;stroke:#1f77b4;stroke-linejoin:miter;" x="669.682432" xlink:href="#md5094ee265" y="609.119297"/>
     <use style="fill:#1f77b4;stroke:#1f77b4;stroke-linejoin:miter;" x="677.851539" xlink:href="#md5094ee265" y="597.737001"/>
     <use style="fill:#1f77b4;stroke:#1f77b4;stroke-linejoin:miter;" x="691.732547" xlink:href="#md5094ee265" y="598.134545"/>
     <use style="fill:#1f77b4;stroke:#1f77b4;stroke-linejoin:miter;" x="763.234671" xlink:href="#md5094ee265" y="589.550829"/>
     <use style="fill:#1f77b4;stroke:#1f77b4;stroke-linejoin:miter;" x="777.966311" xlink:href="#md5094ee265" y="585.874515"/>
     <use style="fill:#1f77b4;stroke:#1f77b4;stroke-linejoin:miter;" x="794.88976" xlink:href="#md5094ee265" y="583.228853"/>
     <use style="fill:#1f77b4;stroke:#1f77b4;stroke-linejoin:miter;" x="814.799913" xlink:href="#md5094ee265" y="581.357091"/>
     <use style="fill:#1f77b4;stroke:#1f77b4;stroke-linejoin:miter;" x="831.93301" xlink:href="#md5094ee265" y="576.699631"/>
     <use style="fill:#1f77b4;stroke:#1f77b4;stroke-linejoin:miter;" x="849.076918" xlink:href="#md5094ee265" y="569.961764"/>
     <use style="fill:#1f77b4;stroke:#1f77b4;stroke-linejoin:miter;" x="887.8284" xlink:href="#md5094ee265" y="557.675759"/>
     <use style="fill:#1f77b4;stroke:#1f77b4;stroke-linejoin:miter;" x="1063.331251" xlink:href="#md5094ee265" y="541.440793"/>
     <use style="fill:#1f77b4;stroke:#1f77b4;stroke-linejoin:miter;" x="1087.50221" xlink:href="#md5094ee265" y="525.99851"/>
     <use style="fill:#1f77b4;stroke:#1f77b4;stroke-linejoin:miter;" x="1102.165047" xlink:href="#md5094ee265" y="507.428944"/>
    </g>
   </g>
   <g id="patch_3">
    <path d="M 144 768.96 
L 144 103.68 
" style="fill:none;stroke:#000000;stroke-linecap:square;stroke-linejoin:miter;stroke-width:0.8;"/>
   </g>
   <g id="patch_4">
    <path d="M 1036.8 768.96 
L 1036.8 103.68 
" style="fill:none;stroke:#000000;stroke-linecap:square;stroke-linejoin:miter;stroke-width:0.8;"/>
   </g>
   <g id="patch_5">
    <path d="M 144 768.96 
L 1036.8 768.96 
" style="fill:none;stroke:#000000;stroke-linecap:square;stroke-linejoin:miter;stroke-width:0.8;"/>
   </g>
   <g id="patch_6">
    <path d="M 144 103.68 
L 1036.8 103.68 
" style="fill:none;stroke:#000000;stroke-linecap:square;stroke-linejoin:miter;stroke-width:0.8;"/>
   </g>
  </g>
 </g>
 <defs>
  <clipPath id="p2fdbc26bac">
   <rect height="665.28" width="892.8" x="144" y="103.68"/>
  </clipPath>
 </defs>
</svg>
