<?xml version="1.0" encoding="utf-8" standalone="no"?>
<!DOCTYPE svg PUBLIC "-//W3C//DTD SVG 1.1//EN"
  "http://www.w3.org/Graphics/SVG/1.1/DTD/svg11.dtd">
<!-- Created with matplotlib (http://matplotlib.org/) -->
<svg height="864pt" version="1.1" viewBox="0 0 1152 864" width="1152pt" xmlns="http://www.w3.org/2000/svg" xmlns:xlink="http://www.w3.org/1999/xlink">
 <defs>
  <style type="text/css">
*{stroke-linecap:butt;stroke-linejoin:round;}
  </style>
 </defs>
 <g id="figure_1">
  <g id="patch_1">
   <path d="M 0 864 
L 1152 864 
L 1152 0 
L 0 0 
z
" style="fill:#ffffff;"/>
  </g>
  <g id="axes_1">
   <g id="patch_2">
    <path d="M 144 768.96 
L 1036.8 768.96 
L 1036.8 103.68 
L 144 103.68 
z
" style="fill:#ffffff;"/>
   </g>
   <g id="matplotlib.axis_1">
    <g id="xtick_1">
     <g id="line2d_1">
      <defs>
       <path d="M 0 0 
L 0 3.5 
" id="m6ff4fc1e69" style="stroke:#000000;stroke-width:0.8;"/>
      </defs>
      <g>
       <use style="stroke:#000000;stroke-width:0.8;" x="144" xlink:href="#m6ff4fc1e69" y="768.96"/>
      </g>
     </g>
     <g id="text_1">
      <!-- −4000 -->
      <defs>
       <path d="M 10.59375 35.5 
L 73.1875 35.5 
L 73.1875 27.203125 
L 10.59375 27.203125 
z
" id="DejaVuSans-2212"/>
       <path d="M 37.796875 64.3125 
L 12.890625 25.390625 
L 37.796875 25.390625 
z
M 35.203125 72.90625 
L 47.609375 72.90625 
L 47.609375 25.390625 
L 58.015625 25.390625 
L 58.015625 17.1875 
L 47.609375 17.1875 
L 47.609375 0 
L 37.796875 0 
L 37.796875 17.1875 
L 4.890625 17.1875 
L 4.890625 26.703125 
z
" id="DejaVuSans-34"/>
       <path d="M 31.78125 66.40625 
Q 24.171875 66.40625 20.328125 58.90625 
Q 16.5 51.421875 16.5 36.375 
Q 16.5 21.390625 20.328125 13.890625 
Q 24.171875 6.390625 31.78125 6.390625 
Q 39.453125 6.390625 43.28125 13.890625 
Q 47.125 21.390625 47.125 36.375 
Q 47.125 51.421875 43.28125 58.90625 
Q 39.453125 66.40625 31.78125 66.40625 
z
M 31.78125 74.21875 
Q 44.046875 74.21875 50.515625 64.515625 
Q 56.984375 54.828125 56.984375 36.375 
Q 56.984375 17.96875 50.515625 8.265625 
Q 44.046875 -1.421875 31.78125 -1.421875 
Q 19.53125 -1.421875 13.0625 8.265625 
Q 6.59375 17.96875 6.59375 36.375 
Q 6.59375 54.828125 13.0625 64.515625 
Q 19.53125 74.21875 31.78125 74.21875 
z
" id="DejaVuSans-30"/>
      </defs>
      <g transform="translate(127.085156 783.558437)scale(0.1 -0.1)">
       <use xlink:href="#DejaVuSans-2212"/>
       <use x="83.789062" xlink:href="#DejaVuSans-34"/>
       <use x="147.412109" xlink:href="#DejaVuSans-30"/>
       <use x="211.035156" xlink:href="#DejaVuSans-30"/>
       <use x="274.658203" xlink:href="#DejaVuSans-30"/>
      </g>
     </g>
    </g>
    <g id="xtick_2">
     <g id="line2d_2">
      <g>
       <use style="stroke:#000000;stroke-width:0.8;" x="255.6" xlink:href="#m6ff4fc1e69" y="768.96"/>
      </g>
     </g>
     <g id="text_2">
      <!-- −3000 -->
      <defs>
       <path d="M 40.578125 39.3125 
Q 47.65625 37.796875 51.625 33 
Q 55.609375 28.21875 55.609375 21.1875 
Q 55.609375 10.40625 48.1875 4.484375 
Q 40.765625 -1.421875 27.09375 -1.421875 
Q 22.515625 -1.421875 17.65625 -0.515625 
Q 12.796875 0.390625 7.625 2.203125 
L 7.625 11.71875 
Q 11.71875 9.328125 16.59375 8.109375 
Q 21.484375 6.890625 26.8125 6.890625 
Q 36.078125 6.890625 40.9375 10.546875 
Q 45.796875 14.203125 45.796875 21.1875 
Q 45.796875 27.640625 41.28125 31.265625 
Q 36.765625 34.90625 28.71875 34.90625 
L 20.21875 34.90625 
L 20.21875 43.015625 
L 29.109375 43.015625 
Q 36.375 43.015625 40.234375 45.921875 
Q 44.09375 48.828125 44.09375 54.296875 
Q 44.09375 59.90625 40.109375 62.90625 
Q 36.140625 65.921875 28.71875 65.921875 
Q 24.65625 65.921875 20.015625 65.03125 
Q 15.375 64.15625 9.8125 62.3125 
L 9.8125 71.09375 
Q 15.4375 72.65625 20.34375 73.4375 
Q 25.25 74.21875 29.59375 74.21875 
Q 40.828125 74.21875 47.359375 69.109375 
Q 53.90625 64.015625 53.90625 55.328125 
Q 53.90625 49.265625 50.4375 45.09375 
Q 46.96875 40.921875 40.578125 39.3125 
z
" id="DejaVuSans-33"/>
      </defs>
      <g transform="translate(238.685156 783.558437)scale(0.1 -0.1)">
       <use xlink:href="#DejaVuSans-2212"/>
       <use x="83.789062" xlink:href="#DejaVuSans-33"/>
       <use x="147.412109" xlink:href="#DejaVuSans-30"/>
       <use x="211.035156" xlink:href="#DejaVuSans-30"/>
       <use x="274.658203" xlink:href="#DejaVuSans-30"/>
      </g>
     </g>
    </g>
    <g id="xtick_3">
     <g id="line2d_3">
      <g>
       <use style="stroke:#000000;stroke-width:0.8;" x="367.2" xlink:href="#m6ff4fc1e69" y="768.96"/>
      </g>
     </g>
     <g id="text_3">
      <!-- −2000 -->
      <defs>
       <path d="M 19.1875 8.296875 
L 53.609375 8.296875 
L 53.609375 0 
L 7.328125 0 
L 7.328125 8.296875 
Q 12.9375 14.109375 22.625 23.890625 
Q 32.328125 33.6875 34.8125 36.53125 
Q 39.546875 41.84375 41.421875 45.53125 
Q 43.3125 49.21875 43.3125 52.78125 
Q 43.3125 58.59375 39.234375 62.25 
Q 35.15625 65.921875 28.609375 65.921875 
Q 23.96875 65.921875 18.8125 64.3125 
Q 13.671875 62.703125 7.8125 59.421875 
L 7.8125 69.390625 
Q 13.765625 71.78125 18.9375 73 
Q 24.125 74.21875 28.421875 74.21875 
Q 39.75 74.21875 46.484375 68.546875 
Q 53.21875 62.890625 53.21875 53.421875 
Q 53.21875 48.921875 51.53125 44.890625 
Q 49.859375 40.875 45.40625 35.40625 
Q 44.1875 33.984375 37.640625 27.21875 
Q 31.109375 20.453125 19.1875 8.296875 
z
" id="DejaVuSans-32"/>
      </defs>
      <g transform="translate(350.285156 783.558437)scale(0.1 -0.1)">
       <use xlink:href="#DejaVuSans-2212"/>
       <use x="83.789062" xlink:href="#DejaVuSans-32"/>
       <use x="147.412109" xlink:href="#DejaVuSans-30"/>
       <use x="211.035156" xlink:href="#DejaVuSans-30"/>
       <use x="274.658203" xlink:href="#DejaVuSans-30"/>
      </g>
     </g>
    </g>
    <g id="xtick_4">
     <g id="line2d_4">
      <g>
       <use style="stroke:#000000;stroke-width:0.8;" x="478.8" xlink:href="#m6ff4fc1e69" y="768.96"/>
      </g>
     </g>
     <g id="text_4">
      <!-- −1000 -->
      <defs>
       <path d="M 12.40625 8.296875 
L 28.515625 8.296875 
L 28.515625 63.921875 
L 10.984375 60.40625 
L 10.984375 69.390625 
L 28.421875 72.90625 
L 38.28125 72.90625 
L 38.28125 8.296875 
L 54.390625 8.296875 
L 54.390625 0 
L 12.40625 0 
z
" id="DejaVuSans-31"/>
      </defs>
      <g transform="translate(461.885156 783.558437)scale(0.1 -0.1)">
       <use xlink:href="#DejaVuSans-2212"/>
       <use x="83.789062" xlink:href="#DejaVuSans-31"/>
       <use x="147.412109" xlink:href="#DejaVuSans-30"/>
       <use x="211.035156" xlink:href="#DejaVuSans-30"/>
       <use x="274.658203" xlink:href="#DejaVuSans-30"/>
      </g>
     </g>
    </g>
    <g id="xtick_5">
     <g id="line2d_5">
      <g>
       <use style="stroke:#000000;stroke-width:0.8;" x="590.4" xlink:href="#m6ff4fc1e69" y="768.96"/>
      </g>
     </g>
     <g id="text_5">
      <!-- 0 -->
      <g transform="translate(587.21875 783.558437)scale(0.1 -0.1)">
       <use xlink:href="#DejaVuSans-30"/>
      </g>
     </g>
    </g>
    <g id="xtick_6">
     <g id="line2d_6">
      <g>
       <use style="stroke:#000000;stroke-width:0.8;" x="702" xlink:href="#m6ff4fc1e69" y="768.96"/>
      </g>
     </g>
     <g id="text_6">
      <!-- 1000 -->
      <g transform="translate(689.275 783.558437)scale(0.1 -0.1)">
       <use xlink:href="#DejaVuSans-31"/>
       <use x="63.623047" xlink:href="#DejaVuSans-30"/>
       <use x="127.246094" xlink:href="#DejaVuSans-30"/>
       <use x="190.869141" xlink:href="#DejaVuSans-30"/>
      </g>
     </g>
    </g>
    <g id="xtick_7">
     <g id="line2d_7">
      <g>
       <use style="stroke:#000000;stroke-width:0.8;" x="813.6" xlink:href="#m6ff4fc1e69" y="768.96"/>
      </g>
     </g>
     <g id="text_7">
      <!-- 2000 -->
      <g transform="translate(800.875 783.558437)scale(0.1 -0.1)">
       <use xlink:href="#DejaVuSans-32"/>
       <use x="63.623047" xlink:href="#DejaVuSans-30"/>
       <use x="127.246094" xlink:href="#DejaVuSans-30"/>
       <use x="190.869141" xlink:href="#DejaVuSans-30"/>
      </g>
     </g>
    </g>
    <g id="xtick_8">
     <g id="line2d_8">
      <g>
       <use style="stroke:#000000;stroke-width:0.8;" x="925.2" xlink:href="#m6ff4fc1e69" y="768.96"/>
      </g>
     </g>
     <g id="text_8">
      <!-- 3000 -->
      <g transform="translate(912.475 783.558437)scale(0.1 -0.1)">
       <use xlink:href="#DejaVuSans-33"/>
       <use x="63.623047" xlink:href="#DejaVuSans-30"/>
       <use x="127.246094" xlink:href="#DejaVuSans-30"/>
       <use x="190.869141" xlink:href="#DejaVuSans-30"/>
      </g>
     </g>
    </g>
    <g id="xtick_9">
     <g id="line2d_9">
      <g>
       <use style="stroke:#000000;stroke-width:0.8;" x="1036.8" xlink:href="#m6ff4fc1e69" y="768.96"/>
      </g>
     </g>
     <g id="text_9">
      <!-- 4000 -->
      <g transform="translate(1024.075 783.558437)scale(0.1 -0.1)">
       <use xlink:href="#DejaVuSans-34"/>
       <use x="63.623047" xlink:href="#DejaVuSans-30"/>
       <use x="127.246094" xlink:href="#DejaVuSans-30"/>
       <use x="190.869141" xlink:href="#DejaVuSans-30"/>
      </g>
     </g>
    </g>
   </g>
   <g id="matplotlib.axis_2">
    <g id="ytick_1">
     <g id="line2d_10">
      <defs>
       <path d="M 0 0 
L -3.5 0 
" id="mbd78fe34a3" style="stroke:#000000;stroke-width:0.8;"/>
      </defs>
      <g>
       <use style="stroke:#000000;stroke-width:0.8;" x="144" xlink:href="#mbd78fe34a3" y="768.96"/>
      </g>
     </g>
     <g id="text_10">
      <!-- −4000 -->
      <g transform="translate(103.170312 772.759219)scale(0.1 -0.1)">
       <use xlink:href="#DejaVuSans-2212"/>
       <use x="83.789062" xlink:href="#DejaVuSans-34"/>
       <use x="147.412109" xlink:href="#DejaVuSans-30"/>
       <use x="211.035156" xlink:href="#DejaVuSans-30"/>
       <use x="274.658203" xlink:href="#DejaVuSans-30"/>
      </g>
     </g>
    </g>
    <g id="ytick_2">
     <g id="line2d_11">
      <g>
       <use style="stroke:#000000;stroke-width:0.8;" x="144" xlink:href="#mbd78fe34a3" y="685.8"/>
      </g>
     </g>
     <g id="text_11">
      <!-- −3000 -->
      <g transform="translate(103.170312 689.599219)scale(0.1 -0.1)">
       <use xlink:href="#DejaVuSans-2212"/>
       <use x="83.789062" xlink:href="#DejaVuSans-33"/>
       <use x="147.412109" xlink:href="#DejaVuSans-30"/>
       <use x="211.035156" xlink:href="#DejaVuSans-30"/>
       <use x="274.658203" xlink:href="#DejaVuSans-30"/>
      </g>
     </g>
    </g>
    <g id="ytick_3">
     <g id="line2d_12">
      <g>
       <use style="stroke:#000000;stroke-width:0.8;" x="144" xlink:href="#mbd78fe34a3" y="602.64"/>
      </g>
     </g>
     <g id="text_12">
      <!-- −2000 -->
      <g transform="translate(103.170312 606.439219)scale(0.1 -0.1)">
       <use xlink:href="#DejaVuSans-2212"/>
       <use x="83.789062" xlink:href="#DejaVuSans-32"/>
       <use x="147.412109" xlink:href="#DejaVuSans-30"/>
       <use x="211.035156" xlink:href="#DejaVuSans-30"/>
       <use x="274.658203" xlink:href="#DejaVuSans-30"/>
      </g>
     </g>
    </g>
    <g id="ytick_4">
     <g id="line2d_13">
      <g>
       <use style="stroke:#000000;stroke-width:0.8;" x="144" xlink:href="#mbd78fe34a3" y="519.48"/>
      </g>
     </g>
     <g id="text_13">
      <!-- −1000 -->
      <g transform="translate(103.170312 523.279219)scale(0.1 -0.1)">
       <use xlink:href="#DejaVuSans-2212"/>
       <use x="83.789062" xlink:href="#DejaVuSans-31"/>
       <use x="147.412109" xlink:href="#DejaVuSans-30"/>
       <use x="211.035156" xlink:href="#DejaVuSans-30"/>
       <use x="274.658203" xlink:href="#DejaVuSans-30"/>
      </g>
     </g>
    </g>
    <g id="ytick_5">
     <g id="line2d_14">
      <g>
       <use style="stroke:#000000;stroke-width:0.8;" x="144" xlink:href="#mbd78fe34a3" y="436.32"/>
      </g>
     </g>
     <g id="text_14">
      <!-- 0 -->
      <g transform="translate(130.6375 440.119219)scale(0.1 -0.1)">
       <use xlink:href="#DejaVuSans-30"/>
      </g>
     </g>
    </g>
    <g id="ytick_6">
     <g id="line2d_15">
      <g>
       <use style="stroke:#000000;stroke-width:0.8;" x="144" xlink:href="#mbd78fe34a3" y="353.16"/>
      </g>
     </g>
     <g id="text_15">
      <!-- 1000 -->
      <g transform="translate(111.55 356.959219)scale(0.1 -0.1)">
       <use xlink:href="#DejaVuSans-31"/>
       <use x="63.623047" xlink:href="#DejaVuSans-30"/>
       <use x="127.246094" xlink:href="#DejaVuSans-30"/>
       <use x="190.869141" xlink:href="#DejaVuSans-30"/>
      </g>
     </g>
    </g>
    <g id="ytick_7">
     <g id="line2d_16">
      <g>
       <use style="stroke:#000000;stroke-width:0.8;" x="144" xlink:href="#mbd78fe34a3" y="270"/>
      </g>
     </g>
     <g id="text_16">
      <!-- 2000 -->
      <g transform="translate(111.55 273.799219)scale(0.1 -0.1)">
       <use xlink:href="#DejaVuSans-32"/>
       <use x="63.623047" xlink:href="#DejaVuSans-30"/>
       <use x="127.246094" xlink:href="#DejaVuSans-30"/>
       <use x="190.869141" xlink:href="#DejaVuSans-30"/>
      </g>
     </g>
    </g>
    <g id="ytick_8">
     <g id="line2d_17">
      <g>
       <use style="stroke:#000000;stroke-width:0.8;" x="144" xlink:href="#mbd78fe34a3" y="186.84"/>
      </g>
     </g>
     <g id="text_17">
      <!-- 3000 -->
      <g transform="translate(111.55 190.639219)scale(0.1 -0.1)">
       <use xlink:href="#DejaVuSans-33"/>
       <use x="63.623047" xlink:href="#DejaVuSans-30"/>
       <use x="127.246094" xlink:href="#DejaVuSans-30"/>
       <use x="190.869141" xlink:href="#DejaVuSans-30"/>
      </g>
     </g>
    </g>
    <g id="ytick_9">
     <g id="line2d_18">
      <g>
       <use style="stroke:#000000;stroke-width:0.8;" x="144" xlink:href="#mbd78fe34a3" y="103.68"/>
      </g>
     </g>
     <g id="text_18">
      <!-- 4000 -->
      <g transform="translate(111.55 107.479219)scale(0.1 -0.1)">
       <use xlink:href="#DejaVuSans-34"/>
       <use x="63.623047" xlink:href="#DejaVuSans-30"/>
       <use x="127.246094" xlink:href="#DejaVuSans-30"/>
       <use x="190.869141" xlink:href="#DejaVuSans-30"/>
      </g>
     </g>
    </g>
   </g>
   <g id="line2d_19">
    <path clip-path="url(#p63925992ab)" d="M 590.4 768.96 
L 590.4 103.68 
" style="fill:none;stroke:#1f77b4;stroke-linecap:square;stroke-width:1.5;"/>
   </g>
   <g id="line2d_20">
    <path clip-path="url(#p63925992ab)" d="M 144 436.32 
L 1036.8 436.32 
" style="fill:none;stroke:#1f77b4;stroke-linecap:square;stroke-width:1.5;"/>
   </g>
   <g id="line2d_21">
    <defs>
     <path d="M 0 3 
C 0.795609 3 1.55874 2.683901 2.12132 2.12132 
C 2.683901 1.55874 3 0.795609 3 0 
C 3 -0.795609 2.683901 -1.55874 2.12132 -2.12132 
C 1.55874 -2.683901 0.795609 -3 0 -3 
C -0.795609 -3 -1.55874 -2.683901 -2.12132 -2.12132 
C -2.683901 -1.55874 -3 -0.795609 -3 0 
C -3 0.795609 -2.683901 1.55874 -2.12132 2.12132 
C -1.55874 2.683901 -0.795609 3 0 3 
z
" id="ma3d8b13ae5" style="stroke:#008000;"/>
    </defs>
    <g clip-path="url(#p63925992ab)">
     <use style="fill:#008000;stroke:#008000;" x="1406.063122" xlink:href="#ma3d8b13ae5" y="495.179135"/>
    </g>
   </g>
   <g id="line2d_22">
    <g clip-path="url(#p63925992ab)">
     <use style="fill:#008000;stroke:#008000;" x="1363.087579" xlink:href="#ma3d8b13ae5" y="348.663652"/>
    </g>
   </g>
   <g id="line2d_23">
    <g clip-path="url(#p63925992ab)">
     <use style="fill:#008000;stroke:#008000;" x="1270.68598" xlink:href="#ma3d8b13ae5" y="340.364123"/>
    </g>
   </g>
   <g id="line2d_24">
    <g clip-path="url(#p63925992ab)">
     <use style="fill:#008000;stroke:#008000;" x="646.336044" xlink:href="#ma3d8b13ae5" y="391.841566"/>
    </g>
   </g>
   <g id="line2d_25">
    <g clip-path="url(#p63925992ab)">
     <use style="fill:#008000;stroke:#008000;" x="646.336044" xlink:href="#ma3d8b13ae5" y="391.841566"/>
    </g>
   </g>
   <g id="line2d_26">
    <g clip-path="url(#p63925992ab)">
     <use style="fill:#008000;stroke:#008000;" x="795.947824" xlink:href="#ma3d8b13ae5" y="196.186222"/>
    </g>
   </g>
   <g id="line2d_27">
    <g clip-path="url(#p63925992ab)">
     <use style="fill:#008000;stroke:#008000;" x="412.00551" xlink:href="#ma3d8b13ae5" y="506.21298"/>
    </g>
   </g>
   <g id="line2d_28">
    <g clip-path="url(#p63925992ab)">
     <use style="fill:#008000;stroke:#008000;" x="615.295804" xlink:href="#ma3d8b13ae5" y="640.969242"/>
    </g>
   </g>
   <g id="line2d_29">
    <defs>
     <path d="M 0 1.333333 
C 0.353604 1.333333 0.692773 1.192845 0.942809 0.942809 
C 1.192845 0.692773 1.333333 0.353604 1.333333 0 
C 1.333333 -0.353604 1.192845 -0.692773 0.942809 -0.942809 
C 0.692773 -1.192845 0.353604 -1.333333 0 -1.333333 
C -0.353604 -1.333333 -0.692773 -1.192845 -0.942809 -0.942809 
C -1.192845 -0.692773 -1.333333 -0.353604 -1.333333 0 
C -1.333333 0.353604 -1.192845 0.692773 -0.942809 0.942809 
C -0.692773 1.192845 -0.353604 1.333333 0 1.333333 
z
" id="m070c438385" style="stroke:#ff0000;"/>
    </defs>
    <g clip-path="url(#p63925992ab)">
     <use style="fill:#ff0000;stroke:#ff0000;" x="1196.336786" xlink:href="#m070c438385" y="495.513303"/>
     <use style="fill:#ff0000;stroke:#ff0000;" x="1406.063122" xlink:href="#m070c438385" y="495.179135"/>
     <use style="fill:#ff0000;stroke:#ff0000;" x="1363.087579" xlink:href="#m070c438385" y="348.663652"/>
     <use style="fill:#ff0000;stroke:#ff0000;" x="1270.68598" xlink:href="#m070c438385" y="340.364123"/>
     <use style="fill:#ff0000;stroke:#ff0000;" x="1409.167258" xlink:href="#m070c438385" y="298.964806"/>
     <use style="fill:#ff0000;stroke:#ff0000;" x="1363.180736" xlink:href="#m070c438385" y="285.048121"/>
     <use style="fill:#ff0000;stroke:#ff0000;" x="1318.150404" xlink:href="#m070c438385" y="273.108805"/>
     <use style="fill:#ff0000;stroke:#ff0000;" x="648.696355" xlink:href="#m070c438385" y="398.703369"/>
     <use style="fill:#ff0000;stroke:#ff0000;" x="642.657954" xlink:href="#m070c438385" y="384.965322"/>
     <use style="fill:#ff0000;stroke:#ff0000;" x="795.947824" xlink:href="#m070c438385" y="196.186222"/>
     <use style="fill:#ff0000;stroke:#ff0000;" x="420.441198" xlink:href="#m070c438385" y="265.06913"/>
     <use style="fill:#ff0000;stroke:#ff0000;" x="389.023355" xlink:href="#m070c438385" y="272.918547"/>
     <use style="fill:#ff0000;stroke:#ff0000;" x="394.020662" xlink:href="#m070c438385" y="288.057561"/>
     <use style="fill:#ff0000;stroke:#ff0000;" x="390.561393" xlink:href="#m070c438385" y="295.7776"/>
     <use style="fill:#ff0000;stroke:#ff0000;" x="405.032166" xlink:href="#m070c438385" y="315.184176"/>
     <use style="fill:#ff0000;stroke:#ff0000;" x="423.168018" xlink:href="#m070c438385" y="342.149335"/>
     <use style="fill:#ff0000;stroke:#ff0000;" x="400.868623" xlink:href="#m070c438385" y="364.552933"/>
     <use style="fill:#ff0000;stroke:#ff0000;" x="454.117749" xlink:href="#m070c438385" y="389.939595"/>
     <use style="fill:#ff0000;stroke:#ff0000;" x="448.558337" xlink:href="#m070c438385" y="413.311012"/>
     <use style="fill:#ff0000;stroke:#ff0000;" x="433.229134" xlink:href="#m070c438385" y="414.877709"/>
     <use style="fill:#ff0000;stroke:#ff0000;" x="416.031489" xlink:href="#m070c438385" y="439.793323"/>
     <use style="fill:#ff0000;stroke:#ff0000;" x="412.00551" xlink:href="#m070c438385" y="506.21298"/>
     <use style="fill:#ff0000;stroke:#ff0000;" x="467.130191" xlink:href="#m070c438385" y="489.486706"/>
     <use style="fill:#ff0000;stroke:#ff0000;" x="431.310771" xlink:href="#m070c438385" y="509.813387"/>
     <use style="fill:#ff0000;stroke:#ff0000;" x="457.858942" xlink:href="#m070c438385" y="513.396546"/>
     <use style="fill:#ff0000;stroke:#ff0000;" x="469.368786" xlink:href="#m070c438385" y="512.290383"/>
     <use style="fill:#ff0000;stroke:#ff0000;" x="456.406413" xlink:href="#m070c438385" y="526.173201"/>
     <use style="fill:#ff0000;stroke:#ff0000;" x="471.248003" xlink:href="#m070c438385" y="542.132769"/>
     <use style="fill:#ff0000;stroke:#ff0000;" x="537.286795" xlink:href="#m070c438385" y="488.990926"/>
     <use style="fill:#ff0000;stroke:#ff0000;" x="589.72968" xlink:href="#m070c438385" y="495.403069"/>
     <use style="fill:#ff0000;stroke:#ff0000;" x="610.177393" xlink:href="#m070c438385" y="641.445956"/>
     <use style="fill:#ff0000;stroke:#ff0000;" x="620.397222" xlink:href="#m070c438385" y="640.421675"/>
     <use style="fill:#ff0000;stroke:#ff0000;" x="626.525587" xlink:href="#m070c438385" y="620.916188"/>
     <use style="fill:#ff0000;stroke:#ff0000;" x="642.999556" xlink:href="#m070c438385" y="615.194423"/>
     <use style="fill:#ff0000;stroke:#ff0000;" x="657.010118" xlink:href="#m070c438385" y="630.427588"/>
     <use style="fill:#ff0000;stroke:#ff0000;" x="667.867588" xlink:href="#m070c438385" y="632.970287"/>
     <use style="fill:#ff0000;stroke:#ff0000;" x="667.893349" xlink:href="#m070c438385" y="609.372119"/>
     <use style="fill:#ff0000;stroke:#ff0000;" x="668.608109" xlink:href="#m070c438385" y="591.673845"/>
     <use style="fill:#ff0000;stroke:#ff0000;" x="699.107726" xlink:href="#m070c438385" y="598.458148"/>
     <use style="fill:#ff0000;stroke:#ff0000;" x="742.864778" xlink:href="#m070c438385" y="601.624813"/>
     <use style="fill:#ff0000;stroke:#ff0000;" x="845.67529" xlink:href="#m070c438385" y="570.755099"/>
     <use style="fill:#ff0000;stroke:#ff0000;" x="875.820664" xlink:href="#m070c438385" y="575.84497"/>
     <use style="fill:#ff0000;stroke:#ff0000;" x="899.253769" xlink:href="#m070c438385" y="554.535448"/>
     <use style="fill:#ff0000;stroke:#ff0000;" x="928.688115" xlink:href="#m070c438385" y="554.872305"/>
     <use style="fill:#ff0000;stroke:#ff0000;" x="1064.817671" xlink:href="#m070c438385" y="532.078823"/>
     <use style="fill:#ff0000;stroke:#ff0000;" x="1098.126823" xlink:href="#m070c438385" y="524.971388"/>
     <use style="fill:#ff0000;stroke:#ff0000;" x="1095.400589" xlink:href="#m070c438385" y="510.638828"/>
     <use style="fill:#ff0000;stroke:#ff0000;" x="1142.092061" xlink:href="#m070c438385" y="502.696526"/>
    </g>
   </g>
   <g id="line2d_30">
    <defs>
     <path d="M -0.5 0.5 
L 0.5 0.5 
L 0.5 -0.5 
L -0.5 -0.5 
z
" id="m39da453a02" style="stroke:#1f77b4;stroke-linejoin:miter;"/>
    </defs>
    <g clip-path="url(#p63925992ab)">
     <use style="fill:#1f77b4;stroke:#1f77b4;stroke-linejoin:miter;" x="1196.336786" xlink:href="#m39da453a02" y="495.513303"/>
     <use style="fill:#1f77b4;stroke:#1f77b4;stroke-linejoin:miter;" x="1406.063122" xlink:href="#m39da453a02" y="495.179135"/>
     <use style="fill:#1f77b4;stroke:#1f77b4;stroke-linejoin:miter;" x="1363.087579" xlink:href="#m39da453a02" y="348.663652"/>
     <use style="fill:#1f77b4;stroke:#1f77b4;stroke-linejoin:miter;" x="1270.68598" xlink:href="#m39da453a02" y="340.364123"/>
     <use style="fill:#1f77b4;stroke:#1f77b4;stroke-linejoin:miter;" x="1409.167258" xlink:href="#m39da453a02" y="298.964806"/>
     <use style="fill:#1f77b4;stroke:#1f77b4;stroke-linejoin:miter;" x="1363.180736" xlink:href="#m39da453a02" y="285.048121"/>
     <use style="fill:#1f77b4;stroke:#1f77b4;stroke-linejoin:miter;" x="1318.150404" xlink:href="#m39da453a02" y="273.108805"/>
     <use style="fill:#1f77b4;stroke:#1f77b4;stroke-linejoin:miter;" x="648.696355" xlink:href="#m39da453a02" y="398.703369"/>
     <use style="fill:#1f77b4;stroke:#1f77b4;stroke-linejoin:miter;" x="647.220078" xlink:href="#m39da453a02" y="397.009543"/>
     <use style="fill:#1f77b4;stroke:#1f77b4;stroke-linejoin:miter;" x="645.535842" xlink:href="#m39da453a02" y="395.257307"/>
     <use style="fill:#1f77b4;stroke:#1f77b4;stroke-linejoin:miter;" x="644.790925" xlink:href="#m39da453a02" y="392.928111"/>
     <use style="fill:#1f77b4;stroke:#1f77b4;stroke-linejoin:miter;" x="642.399799" xlink:href="#m39da453a02" y="391.769795"/>
     <use style="fill:#1f77b4;stroke:#1f77b4;stroke-linejoin:miter;" x="641.35124" xlink:href="#m39da453a02" y="389.565289"/>
     <use style="fill:#1f77b4;stroke:#1f77b4;stroke-linejoin:miter;" x="642.657954" xlink:href="#m39da453a02" y="384.965322"/>
     <use style="fill:#1f77b4;stroke:#1f77b4;stroke-linejoin:miter;" x="795.947824" xlink:href="#m39da453a02" y="196.186222"/>
     <use style="fill:#1f77b4;stroke:#1f77b4;stroke-linejoin:miter;" x="782.748267" xlink:href="#m39da453a02" y="193.901041"/>
     <use style="fill:#1f77b4;stroke:#1f77b4;stroke-linejoin:miter;" x="764.726157" xlink:href="#m39da453a02" y="197.537999"/>
     <use style="fill:#1f77b4;stroke:#1f77b4;stroke-linejoin:miter;" x="749.646478" xlink:href="#m39da453a02" y="198.478664"/>
     <use style="fill:#1f77b4;stroke:#1f77b4;stroke-linejoin:miter;" x="734.983972" xlink:href="#m39da453a02" y="199.738752"/>
     <use style="fill:#1f77b4;stroke:#1f77b4;stroke-linejoin:miter;" x="719.846482" xlink:href="#m39da453a02" y="203.088846"/>
     <use style="fill:#1f77b4;stroke:#1f77b4;stroke-linejoin:miter;" x="706.043767" xlink:href="#m39da453a02" y="204.87759"/>
     <use style="fill:#1f77b4;stroke:#1f77b4;stroke-linejoin:miter;" x="692.620834" xlink:href="#m39da453a02" y="207.216346"/>
     <use style="fill:#1f77b4;stroke:#1f77b4;stroke-linejoin:miter;" x="679.827992" xlink:href="#m39da453a02" y="209.308409"/>
     <use style="fill:#1f77b4;stroke:#1f77b4;stroke-linejoin:miter;" x="667.572073" xlink:href="#m39da453a02" y="211.17818"/>
     <use style="fill:#1f77b4;stroke:#1f77b4;stroke-linejoin:miter;" x="656.247883" xlink:href="#m39da453a02" y="211.806616"/>
     <use style="fill:#1f77b4;stroke:#1f77b4;stroke-linejoin:miter;" x="644.611067" xlink:href="#m39da453a02" y="214.310564"/>
     <use style="fill:#1f77b4;stroke:#1f77b4;stroke-linejoin:miter;" x="633.470317" xlink:href="#m39da453a02" y="215.816205"/>
     <use style="fill:#1f77b4;stroke:#1f77b4;stroke-linejoin:miter;" x="621.773696" xlink:href="#m39da453a02" y="217.90045"/>
     <use style="fill:#1f77b4;stroke:#1f77b4;stroke-linejoin:miter;" x="611.305017" xlink:href="#m39da453a02" y="219.498629"/>
     <use style="fill:#1f77b4;stroke:#1f77b4;stroke-linejoin:miter;" x="600.700897" xlink:href="#m39da453a02" y="221.550893"/>
     <use style="fill:#1f77b4;stroke:#1f77b4;stroke-linejoin:miter;" x="590.477744" xlink:href="#m39da453a02" y="223.887788"/>
     <use style="fill:#1f77b4;stroke:#1f77b4;stroke-linejoin:miter;" x="580.346806" xlink:href="#m39da453a02" y="225.101664"/>
     <use style="fill:#1f77b4;stroke:#1f77b4;stroke-linejoin:miter;" x="570.501746" xlink:href="#m39da453a02" y="225.927283"/>
     <use style="fill:#1f77b4;stroke:#1f77b4;stroke-linejoin:miter;" x="560.447909" xlink:href="#m39da453a02" y="227.258737"/>
     <use style="fill:#1f77b4;stroke:#1f77b4;stroke-linejoin:miter;" x="551.3858" xlink:href="#m39da453a02" y="231.890525"/>
     <use style="fill:#1f77b4;stroke:#1f77b4;stroke-linejoin:miter;" x="541.533374" xlink:href="#m39da453a02" y="232.731883"/>
     <use style="fill:#1f77b4;stroke:#1f77b4;stroke-linejoin:miter;" x="532.315454" xlink:href="#m39da453a02" y="235.654345"/>
     <use style="fill:#1f77b4;stroke:#1f77b4;stroke-linejoin:miter;" x="522.562876" xlink:href="#m39da453a02" y="236.824475"/>
     <use style="fill:#1f77b4;stroke:#1f77b4;stroke-linejoin:miter;" x="512.899949" xlink:href="#m39da453a02" y="237.987283"/>
     <use style="fill:#1f77b4;stroke:#1f77b4;stroke-linejoin:miter;" x="503.374779" xlink:href="#m39da453a02" y="239.842953"/>
     <use style="fill:#1f77b4;stroke:#1f77b4;stroke-linejoin:miter;" x="493.561157" xlink:href="#m39da453a02" y="241.211962"/>
     <use style="fill:#1f77b4;stroke:#1f77b4;stroke-linejoin:miter;" x="484.228248" xlink:href="#m39da453a02" y="243.387531"/>
     <use style="fill:#1f77b4;stroke:#1f77b4;stroke-linejoin:miter;" x="473.760269" xlink:href="#m39da453a02" y="244.214943"/>
     <use style="fill:#1f77b4;stroke:#1f77b4;stroke-linejoin:miter;" x="464.405728" xlink:href="#m39da453a02" y="246.850573"/>
     <use style="fill:#1f77b4;stroke:#1f77b4;stroke-linejoin:miter;" x="454.464327" xlink:href="#m39da453a02" y="248.907375"/>
     <use style="fill:#1f77b4;stroke:#1f77b4;stroke-linejoin:miter;" x="443.483165" xlink:href="#m39da453a02" y="249.651444"/>
     <use style="fill:#1f77b4;stroke:#1f77b4;stroke-linejoin:miter;" x="432.833702" xlink:href="#m39da453a02" y="251.575188"/>
     <use style="fill:#1f77b4;stroke:#1f77b4;stroke-linejoin:miter;" x="420.975429" xlink:href="#m39da453a02" y="252.304767"/>
     <use style="fill:#1f77b4;stroke:#1f77b4;stroke-linejoin:miter;" x="420.441198" xlink:href="#m39da453a02" y="265.06913"/>
     <use style="fill:#1f77b4;stroke:#1f77b4;stroke-linejoin:miter;" x="406.912001" xlink:href="#m39da453a02" y="264.525337"/>
     <use style="fill:#1f77b4;stroke:#1f77b4;stroke-linejoin:miter;" x="400.264707" xlink:href="#m39da453a02" y="270.5239"/>
     <use style="fill:#1f77b4;stroke:#1f77b4;stroke-linejoin:miter;" x="389.023355" xlink:href="#m39da453a02" y="272.918547"/>
     <use style="fill:#1f77b4;stroke:#1f77b4;stroke-linejoin:miter;" x="394.020662" xlink:href="#m39da453a02" y="288.057561"/>
     <use style="fill:#1f77b4;stroke:#1f77b4;stroke-linejoin:miter;" x="390.561393" xlink:href="#m39da453a02" y="295.7776"/>
     <use style="fill:#1f77b4;stroke:#1f77b4;stroke-linejoin:miter;" x="405.032166" xlink:href="#m39da453a02" y="315.184176"/>
     <use style="fill:#1f77b4;stroke:#1f77b4;stroke-linejoin:miter;" x="423.168018" xlink:href="#m39da453a02" y="342.149335"/>
     <use style="fill:#1f77b4;stroke:#1f77b4;stroke-linejoin:miter;" x="418.679542" xlink:href="#m39da453a02" y="346.565734"/>
     <use style="fill:#1f77b4;stroke:#1f77b4;stroke-linejoin:miter;" x="420.266534" xlink:href="#m39da453a02" y="353.990136"/>
     <use style="fill:#1f77b4;stroke:#1f77b4;stroke-linejoin:miter;" x="412.084709" xlink:href="#m39da453a02" y="356.530765"/>
     <use style="fill:#1f77b4;stroke:#1f77b4;stroke-linejoin:miter;" x="409.08799" xlink:href="#m39da453a02" y="361.52544"/>
     <use style="fill:#1f77b4;stroke:#1f77b4;stroke-linejoin:miter;" x="400.868623" xlink:href="#m39da453a02" y="364.552933"/>
     <use style="fill:#1f77b4;stroke:#1f77b4;stroke-linejoin:miter;" x="454.117749" xlink:href="#m39da453a02" y="389.939595"/>
     <use style="fill:#1f77b4;stroke:#1f77b4;stroke-linejoin:miter;" x="455.399317" xlink:href="#m39da453a02" y="394.619097"/>
     <use style="fill:#1f77b4;stroke:#1f77b4;stroke-linejoin:miter;" x="456.623263" xlink:href="#m39da453a02" y="399.111171"/>
     <use style="fill:#1f77b4;stroke:#1f77b4;stroke-linejoin:miter;" x="456.768154" xlink:href="#m39da453a02" y="403.243298"/>
     <use style="fill:#1f77b4;stroke:#1f77b4;stroke-linejoin:miter;" x="458.412091" xlink:href="#m39da453a02" y="407.623822"/>
     <use style="fill:#1f77b4;stroke:#1f77b4;stroke-linejoin:miter;" x="457.896982" xlink:href="#m39da453a02" y="411.158214"/>
     <use style="fill:#1f77b4;stroke:#1f77b4;stroke-linejoin:miter;" x="448.558337" xlink:href="#m39da453a02" y="413.311012"/>
     <use style="fill:#1f77b4;stroke:#1f77b4;stroke-linejoin:miter;" x="433.229134" xlink:href="#m39da453a02" y="414.877709"/>
     <use style="fill:#1f77b4;stroke:#1f77b4;stroke-linejoin:miter;" x="418.187959" xlink:href="#m39da453a02" y="426.642984"/>
     <use style="fill:#1f77b4;stroke:#1f77b4;stroke-linejoin:miter;" x="420.069827" xlink:href="#m39da453a02" y="431.194492"/>
     <use style="fill:#1f77b4;stroke:#1f77b4;stroke-linejoin:miter;" x="420.549752" xlink:href="#m39da453a02" y="435.353548"/>
     <use style="fill:#1f77b4;stroke:#1f77b4;stroke-linejoin:miter;" x="416.031489" xlink:href="#m39da453a02" y="439.793323"/>
     <use style="fill:#1f77b4;stroke:#1f77b4;stroke-linejoin:miter;" x="394.786201" xlink:href="#m39da453a02" y="445.115605"/>
     <use style="fill:#1f77b4;stroke:#1f77b4;stroke-linejoin:miter;" x="395.350163" xlink:href="#m39da453a02" y="450.234992"/>
     <use style="fill:#1f77b4;stroke:#1f77b4;stroke-linejoin:miter;" x="398.541143" xlink:href="#m39da453a02" y="455.141804"/>
     <use style="fill:#1f77b4;stroke:#1f77b4;stroke-linejoin:miter;" x="399.823412" xlink:href="#m39da453a02" y="460.124187"/>
     <use style="fill:#1f77b4;stroke:#1f77b4;stroke-linejoin:miter;" x="400.299466" xlink:href="#m39da453a02" y="465.220617"/>
     <use style="fill:#1f77b4;stroke:#1f77b4;stroke-linejoin:miter;" x="402.5974" xlink:href="#m39da453a02" y="469.957762"/>
     <use style="fill:#1f77b4;stroke:#1f77b4;stroke-linejoin:miter;" x="403.105868" xlink:href="#m39da453a02" y="475.147606"/>
     <use style="fill:#1f77b4;stroke:#1f77b4;stroke-linejoin:miter;" x="403.591463" xlink:href="#m39da453a02" y="480.377376"/>
     <use style="fill:#1f77b4;stroke:#1f77b4;stroke-linejoin:miter;" x="405.443684" xlink:href="#m39da453a02" y="485.210045"/>
     <use style="fill:#1f77b4;stroke:#1f77b4;stroke-linejoin:miter;" x="407.425708" xlink:href="#m39da453a02" y="490.328755"/>
     <use style="fill:#1f77b4;stroke:#1f77b4;stroke-linejoin:miter;" x="407.411318" xlink:href="#m39da453a02" y="496.185006"/>
     <use style="fill:#1f77b4;stroke:#1f77b4;stroke-linejoin:miter;" x="412.00551" xlink:href="#m39da453a02" y="506.21298"/>
     <use style="fill:#1f77b4;stroke:#1f77b4;stroke-linejoin:miter;" x="467.130191" xlink:href="#m39da453a02" y="489.486706"/>
     <use style="fill:#1f77b4;stroke:#1f77b4;stroke-linejoin:miter;" x="431.310771" xlink:href="#m39da453a02" y="509.813387"/>
     <use style="fill:#1f77b4;stroke:#1f77b4;stroke-linejoin:miter;" x="434.778056" xlink:href="#m39da453a02" y="514.12491"/>
     <use style="fill:#1f77b4;stroke:#1f77b4;stroke-linejoin:miter;" x="443.658936" xlink:href="#m39da453a02" y="515.582249"/>
     <use style="fill:#1f77b4;stroke:#1f77b4;stroke-linejoin:miter;" x="457.858942" xlink:href="#m39da453a02" y="513.396546"/>
     <use style="fill:#1f77b4;stroke:#1f77b4;stroke-linejoin:miter;" x="469.368786" xlink:href="#m39da453a02" y="512.290383"/>
     <use style="fill:#1f77b4;stroke:#1f77b4;stroke-linejoin:miter;" x="456.406413" xlink:href="#m39da453a02" y="526.173201"/>
     <use style="fill:#1f77b4;stroke:#1f77b4;stroke-linejoin:miter;" x="457.128057" xlink:href="#m39da453a02" y="532.117055"/>
     <use style="fill:#1f77b4;stroke:#1f77b4;stroke-linejoin:miter;" x="455.936483" xlink:href="#m39da453a02" y="539.963853"/>
     <use style="fill:#1f77b4;stroke:#1f77b4;stroke-linejoin:miter;" x="469.294605" xlink:href="#m39da453a02" y="536.655061"/>
     <use style="fill:#1f77b4;stroke:#1f77b4;stroke-linejoin:miter;" x="471.248003" xlink:href="#m39da453a02" y="542.132769"/>
     <use style="fill:#1f77b4;stroke:#1f77b4;stroke-linejoin:miter;" x="537.286795" xlink:href="#m39da453a02" y="488.990926"/>
     <use style="fill:#1f77b4;stroke:#1f77b4;stroke-linejoin:miter;" x="540.42902" xlink:href="#m39da453a02" y="489.406657"/>
     <use style="fill:#1f77b4;stroke:#1f77b4;stroke-linejoin:miter;" x="541.089588" xlink:href="#m39da453a02" y="492.799908"/>
     <use style="fill:#1f77b4;stroke:#1f77b4;stroke-linejoin:miter;" x="539.058739" xlink:href="#m39da453a02" y="499.677695"/>
     <use style="fill:#1f77b4;stroke:#1f77b4;stroke-linejoin:miter;" x="537.691963" xlink:href="#m39da453a02" y="506.587107"/>
     <use style="fill:#1f77b4;stroke:#1f77b4;stroke-linejoin:miter;" x="547.270055" xlink:href="#m39da453a02" y="499.183827"/>
     <use style="fill:#1f77b4;stroke:#1f77b4;stroke-linejoin:miter;" x="553.32478" xlink:href="#m39da453a02" y="495.947987"/>
     <use style="fill:#1f77b4;stroke:#1f77b4;stroke-linejoin:miter;" x="557.255468" xlink:href="#m39da453a02" y="495.218099"/>
     <use style="fill:#1f77b4;stroke:#1f77b4;stroke-linejoin:miter;" x="560.176564" xlink:href="#m39da453a02" y="495.862046"/>
     <use style="fill:#1f77b4;stroke:#1f77b4;stroke-linejoin:miter;" x="562.970514" xlink:href="#m39da453a02" y="496.586496"/>
     <use style="fill:#1f77b4;stroke:#1f77b4;stroke-linejoin:miter;" x="566.115136" xlink:href="#m39da453a02" y="496.745326"/>
     <use style="fill:#1f77b4;stroke:#1f77b4;stroke-linejoin:miter;" x="568.75902" xlink:href="#m39da453a02" y="497.300667"/>
     <use style="fill:#1f77b4;stroke:#1f77b4;stroke-linejoin:miter;" x="571.465187" xlink:href="#m39da453a02" y="498.992492"/>
     <use style="fill:#1f77b4;stroke:#1f77b4;stroke-linejoin:miter;" x="574.140533" xlink:href="#m39da453a02" y="499.852731"/>
     <use style="fill:#1f77b4;stroke:#1f77b4;stroke-linejoin:miter;" x="577.213263" xlink:href="#m39da453a02" y="499.931369"/>
     <use style="fill:#1f77b4;stroke:#1f77b4;stroke-linejoin:miter;" x="581.318496" xlink:href="#m39da453a02" y="494.723371"/>
     <use style="fill:#1f77b4;stroke:#1f77b4;stroke-linejoin:miter;" x="584.368368" xlink:href="#m39da453a02" y="494.441638"/>
     <use style="fill:#1f77b4;stroke:#1f77b4;stroke-linejoin:miter;" x="586.920962" xlink:href="#m39da453a02" y="495.327469"/>
     <use style="fill:#1f77b4;stroke:#1f77b4;stroke-linejoin:miter;" x="589.72968" xlink:href="#m39da453a02" y="495.403069"/>
     <use style="fill:#1f77b4;stroke:#1f77b4;stroke-linejoin:miter;" x="610.177393" xlink:href="#m39da453a02" y="641.445956"/>
     <use style="fill:#1f77b4;stroke:#1f77b4;stroke-linejoin:miter;" x="620.397222" xlink:href="#m39da453a02" y="640.421675"/>
     <use style="fill:#1f77b4;stroke:#1f77b4;stroke-linejoin:miter;" x="626.525587" xlink:href="#m39da453a02" y="620.916188"/>
     <use style="fill:#1f77b4;stroke:#1f77b4;stroke-linejoin:miter;" x="642.999556" xlink:href="#m39da453a02" y="615.194423"/>
     <use style="fill:#1f77b4;stroke:#1f77b4;stroke-linejoin:miter;" x="657.010118" xlink:href="#m39da453a02" y="630.427588"/>
     <use style="fill:#1f77b4;stroke:#1f77b4;stroke-linejoin:miter;" x="667.867588" xlink:href="#m39da453a02" y="632.970287"/>
     <use style="fill:#1f77b4;stroke:#1f77b4;stroke-linejoin:miter;" x="667.893349" xlink:href="#m39da453a02" y="609.372119"/>
     <use style="fill:#1f77b4;stroke:#1f77b4;stroke-linejoin:miter;" x="668.608109" xlink:href="#m39da453a02" y="591.673845"/>
     <use style="fill:#1f77b4;stroke:#1f77b4;stroke-linejoin:miter;" x="680.968864" xlink:href="#m39da453a02" y="598.875159"/>
     <use style="fill:#1f77b4;stroke:#1f77b4;stroke-linejoin:miter;" x="689.954043" xlink:href="#m39da453a02" y="598.632101"/>
     <use style="fill:#1f77b4;stroke:#1f77b4;stroke-linejoin:miter;" x="699.107726" xlink:href="#m39da453a02" y="598.458148"/>
     <use style="fill:#1f77b4;stroke:#1f77b4;stroke-linejoin:miter;" x="742.864778" xlink:href="#m39da453a02" y="601.624813"/>
     <use style="fill:#1f77b4;stroke:#1f77b4;stroke-linejoin:miter;" x="757.305754" xlink:href="#m39da453a02" y="592.414367"/>
     <use style="fill:#1f77b4;stroke:#1f77b4;stroke-linejoin:miter;" x="762.773584" xlink:href="#m39da453a02" y="586.462181"/>
     <use style="fill:#1f77b4;stroke:#1f77b4;stroke-linejoin:miter;" x="775.058346" xlink:href="#m39da453a02" y="586.237899"/>
     <use style="fill:#1f77b4;stroke:#1f77b4;stroke-linejoin:miter;" x="784.878554" xlink:href="#m39da453a02" y="583.468096"/>
     <use style="fill:#1f77b4;stroke:#1f77b4;stroke-linejoin:miter;" x="802.848961" xlink:href="#m39da453a02" y="586.139667"/>
     <use style="fill:#1f77b4;stroke:#1f77b4;stroke-linejoin:miter;" x="812.342069" xlink:href="#m39da453a02" y="582.156474"/>
     <use style="fill:#1f77b4;stroke:#1f77b4;stroke-linejoin:miter;" x="831.022971" xlink:href="#m39da453a02" y="583.633841"/>
     <use style="fill:#1f77b4;stroke:#1f77b4;stroke-linejoin:miter;" x="834.781848" xlink:href="#m39da453a02" y="574.795018"/>
     <use style="fill:#1f77b4;stroke:#1f77b4;stroke-linejoin:miter;" x="845.67529" xlink:href="#m39da453a02" y="570.755099"/>
     <use style="fill:#1f77b4;stroke:#1f77b4;stroke-linejoin:miter;" x="875.820664" xlink:href="#m39da453a02" y="575.84497"/>
     <use style="fill:#1f77b4;stroke:#1f77b4;stroke-linejoin:miter;" x="885.230652" xlink:href="#m39da453a02" y="559.198531"/>
     <use style="fill:#1f77b4;stroke:#1f77b4;stroke-linejoin:miter;" x="899.253769" xlink:href="#m39da453a02" y="554.535448"/>
     <use style="fill:#1f77b4;stroke:#1f77b4;stroke-linejoin:miter;" x="928.688115" xlink:href="#m39da453a02" y="554.872305"/>
     <use style="fill:#1f77b4;stroke:#1f77b4;stroke-linejoin:miter;" x="1064.817671" xlink:href="#m39da453a02" y="532.078823"/>
     <use style="fill:#1f77b4;stroke:#1f77b4;stroke-linejoin:miter;" x="1098.126823" xlink:href="#m39da453a02" y="524.971388"/>
     <use style="fill:#1f77b4;stroke:#1f77b4;stroke-linejoin:miter;" x="1095.400589" xlink:href="#m39da453a02" y="510.638828"/>
     <use style="fill:#1f77b4;stroke:#1f77b4;stroke-linejoin:miter;" x="1142.092061" xlink:href="#m39da453a02" y="502.696526"/>
    </g>
   </g>
   <g id="patch_3">
    <path d="M 144 768.96 
L 144 103.68 
" style="fill:none;stroke:#000000;stroke-linecap:square;stroke-linejoin:miter;stroke-width:0.8;"/>
   </g>
   <g id="patch_4">
    <path d="M 1036.8 768.96 
L 1036.8 103.68 
" style="fill:none;stroke:#000000;stroke-linecap:square;stroke-linejoin:miter;stroke-width:0.8;"/>
   </g>
   <g id="patch_5">
    <path d="M 144 768.96 
L 1036.8 768.96 
" style="fill:none;stroke:#000000;stroke-linecap:square;stroke-linejoin:miter;stroke-width:0.8;"/>
   </g>
   <g id="patch_6">
    <path d="M 144 103.68 
L 1036.8 103.68 
" style="fill:none;stroke:#000000;stroke-linecap:square;stroke-linejoin:miter;stroke-width:0.8;"/>
   </g>
  </g>
 </g>
 <defs>
  <clipPath id="p63925992ab">
   <rect height="665.28" width="892.8" x="144" y="103.68"/>
  </clipPath>
 </defs>
</svg>
