<?xml version="1.0" encoding="utf-8" standalone="no"?>
<!DOCTYPE svg PUBLIC "-//W3C//DTD SVG 1.1//EN"
  "http://www.w3.org/Graphics/SVG/1.1/DTD/svg11.dtd">
<!-- Created with matplotlib (http://matplotlib.org/) -->
<svg height="864pt" version="1.1" viewBox="0 0 1152 864" width="1152pt" xmlns="http://www.w3.org/2000/svg" xmlns:xlink="http://www.w3.org/1999/xlink">
 <defs>
  <style type="text/css">
*{stroke-linecap:butt;stroke-linejoin:round;}
  </style>
 </defs>
 <g id="figure_1">
  <g id="patch_1">
   <path d="M 0 864 
L 1152 864 
L 1152 0 
L 0 0 
z
" style="fill:#ffffff;"/>
  </g>
  <g id="axes_1">
   <g id="patch_2">
    <path d="M 144 768.96 
L 1036.8 768.96 
L 1036.8 103.68 
L 144 103.68 
z
" style="fill:#ffffff;"/>
   </g>
   <g id="matplotlib.axis_1">
    <g id="xtick_1">
     <g id="line2d_1">
      <defs>
       <path d="M 0 0 
L 0 3.5 
" id="m98b5e069af" style="stroke:#000000;stroke-width:0.8;"/>
      </defs>
      <g>
       <use style="stroke:#000000;stroke-width:0.8;" x="144" xlink:href="#m98b5e069af" y="768.96"/>
      </g>
     </g>
     <g id="text_1">
      <!-- −4000 -->
      <defs>
       <path d="M 10.59375 35.5 
L 73.1875 35.5 
L 73.1875 27.203125 
L 10.59375 27.203125 
z
" id="DejaVuSans-2212"/>
       <path d="M 37.796875 64.3125 
L 12.890625 25.390625 
L 37.796875 25.390625 
z
M 35.203125 72.90625 
L 47.609375 72.90625 
L 47.609375 25.390625 
L 58.015625 25.390625 
L 58.015625 17.1875 
L 47.609375 17.1875 
L 47.609375 0 
L 37.796875 0 
L 37.796875 17.1875 
L 4.890625 17.1875 
L 4.890625 26.703125 
z
" id="DejaVuSans-34"/>
       <path d="M 31.78125 66.40625 
Q 24.171875 66.40625 20.328125 58.90625 
Q 16.5 51.421875 16.5 36.375 
Q 16.5 21.390625 20.328125 13.890625 
Q 24.171875 6.390625 31.78125 6.390625 
Q 39.453125 6.390625 43.28125 13.890625 
Q 47.125 21.390625 47.125 36.375 
Q 47.125 51.421875 43.28125 58.90625 
Q 39.453125 66.40625 31.78125 66.40625 
z
M 31.78125 74.21875 
Q 44.046875 74.21875 50.515625 64.515625 
Q 56.984375 54.828125 56.984375 36.375 
Q 56.984375 17.96875 50.515625 8.265625 
Q 44.046875 -1.421875 31.78125 -1.421875 
Q 19.53125 -1.421875 13.0625 8.265625 
Q 6.59375 17.96875 6.59375 36.375 
Q 6.59375 54.828125 13.0625 64.515625 
Q 19.53125 74.21875 31.78125 74.21875 
z
" id="DejaVuSans-30"/>
      </defs>
      <g transform="translate(127.085156 783.558437)scale(0.1 -0.1)">
       <use xlink:href="#DejaVuSans-2212"/>
       <use x="83.789062" xlink:href="#DejaVuSans-34"/>
       <use x="147.412109" xlink:href="#DejaVuSans-30"/>
       <use x="211.035156" xlink:href="#DejaVuSans-30"/>
       <use x="274.658203" xlink:href="#DejaVuSans-30"/>
      </g>
     </g>
    </g>
    <g id="xtick_2">
     <g id="line2d_2">
      <g>
       <use style="stroke:#000000;stroke-width:0.8;" x="255.6" xlink:href="#m98b5e069af" y="768.96"/>
      </g>
     </g>
     <g id="text_2">
      <!-- −3000 -->
      <defs>
       <path d="M 40.578125 39.3125 
Q 47.65625 37.796875 51.625 33 
Q 55.609375 28.21875 55.609375 21.1875 
Q 55.609375 10.40625 48.1875 4.484375 
Q 40.765625 -1.421875 27.09375 -1.421875 
Q 22.515625 -1.421875 17.65625 -0.515625 
Q 12.796875 0.390625 7.625 2.203125 
L 7.625 11.71875 
Q 11.71875 9.328125 16.59375 8.109375 
Q 21.484375 6.890625 26.8125 6.890625 
Q 36.078125 6.890625 40.9375 10.546875 
Q 45.796875 14.203125 45.796875 21.1875 
Q 45.796875 27.640625 41.28125 31.265625 
Q 36.765625 34.90625 28.71875 34.90625 
L 20.21875 34.90625 
L 20.21875 43.015625 
L 29.109375 43.015625 
Q 36.375 43.015625 40.234375 45.921875 
Q 44.09375 48.828125 44.09375 54.296875 
Q 44.09375 59.90625 40.109375 62.90625 
Q 36.140625 65.921875 28.71875 65.921875 
Q 24.65625 65.921875 20.015625 65.03125 
Q 15.375 64.15625 9.8125 62.3125 
L 9.8125 71.09375 
Q 15.4375 72.65625 20.34375 73.4375 
Q 25.25 74.21875 29.59375 74.21875 
Q 40.828125 74.21875 47.359375 69.109375 
Q 53.90625 64.015625 53.90625 55.328125 
Q 53.90625 49.265625 50.4375 45.09375 
Q 46.96875 40.921875 40.578125 39.3125 
z
" id="DejaVuSans-33"/>
      </defs>
      <g transform="translate(238.685156 783.558437)scale(0.1 -0.1)">
       <use xlink:href="#DejaVuSans-2212"/>
       <use x="83.789062" xlink:href="#DejaVuSans-33"/>
       <use x="147.412109" xlink:href="#DejaVuSans-30"/>
       <use x="211.035156" xlink:href="#DejaVuSans-30"/>
       <use x="274.658203" xlink:href="#DejaVuSans-30"/>
      </g>
     </g>
    </g>
    <g id="xtick_3">
     <g id="line2d_3">
      <g>
       <use style="stroke:#000000;stroke-width:0.8;" x="367.2" xlink:href="#m98b5e069af" y="768.96"/>
      </g>
     </g>
     <g id="text_3">
      <!-- −2000 -->
      <defs>
       <path d="M 19.1875 8.296875 
L 53.609375 8.296875 
L 53.609375 0 
L 7.328125 0 
L 7.328125 8.296875 
Q 12.9375 14.109375 22.625 23.890625 
Q 32.328125 33.6875 34.8125 36.53125 
Q 39.546875 41.84375 41.421875 45.53125 
Q 43.3125 49.21875 43.3125 52.78125 
Q 43.3125 58.59375 39.234375 62.25 
Q 35.15625 65.921875 28.609375 65.921875 
Q 23.96875 65.921875 18.8125 64.3125 
Q 13.671875 62.703125 7.8125 59.421875 
L 7.8125 69.390625 
Q 13.765625 71.78125 18.9375 73 
Q 24.125 74.21875 28.421875 74.21875 
Q 39.75 74.21875 46.484375 68.546875 
Q 53.21875 62.890625 53.21875 53.421875 
Q 53.21875 48.921875 51.53125 44.890625 
Q 49.859375 40.875 45.40625 35.40625 
Q 44.1875 33.984375 37.640625 27.21875 
Q 31.109375 20.453125 19.1875 8.296875 
z
" id="DejaVuSans-32"/>
      </defs>
      <g transform="translate(350.285156 783.558437)scale(0.1 -0.1)">
       <use xlink:href="#DejaVuSans-2212"/>
       <use x="83.789062" xlink:href="#DejaVuSans-32"/>
       <use x="147.412109" xlink:href="#DejaVuSans-30"/>
       <use x="211.035156" xlink:href="#DejaVuSans-30"/>
       <use x="274.658203" xlink:href="#DejaVuSans-30"/>
      </g>
     </g>
    </g>
    <g id="xtick_4">
     <g id="line2d_4">
      <g>
       <use style="stroke:#000000;stroke-width:0.8;" x="478.8" xlink:href="#m98b5e069af" y="768.96"/>
      </g>
     </g>
     <g id="text_4">
      <!-- −1000 -->
      <defs>
       <path d="M 12.40625 8.296875 
L 28.515625 8.296875 
L 28.515625 63.921875 
L 10.984375 60.40625 
L 10.984375 69.390625 
L 28.421875 72.90625 
L 38.28125 72.90625 
L 38.28125 8.296875 
L 54.390625 8.296875 
L 54.390625 0 
L 12.40625 0 
z
" id="DejaVuSans-31"/>
      </defs>
      <g transform="translate(461.885156 783.558437)scale(0.1 -0.1)">
       <use xlink:href="#DejaVuSans-2212"/>
       <use x="83.789062" xlink:href="#DejaVuSans-31"/>
       <use x="147.412109" xlink:href="#DejaVuSans-30"/>
       <use x="211.035156" xlink:href="#DejaVuSans-30"/>
       <use x="274.658203" xlink:href="#DejaVuSans-30"/>
      </g>
     </g>
    </g>
    <g id="xtick_5">
     <g id="line2d_5">
      <g>
       <use style="stroke:#000000;stroke-width:0.8;" x="590.4" xlink:href="#m98b5e069af" y="768.96"/>
      </g>
     </g>
     <g id="text_5">
      <!-- 0 -->
      <g transform="translate(587.21875 783.558437)scale(0.1 -0.1)">
       <use xlink:href="#DejaVuSans-30"/>
      </g>
     </g>
    </g>
    <g id="xtick_6">
     <g id="line2d_6">
      <g>
       <use style="stroke:#000000;stroke-width:0.8;" x="702" xlink:href="#m98b5e069af" y="768.96"/>
      </g>
     </g>
     <g id="text_6">
      <!-- 1000 -->
      <g transform="translate(689.275 783.558437)scale(0.1 -0.1)">
       <use xlink:href="#DejaVuSans-31"/>
       <use x="63.623047" xlink:href="#DejaVuSans-30"/>
       <use x="127.246094" xlink:href="#DejaVuSans-30"/>
       <use x="190.869141" xlink:href="#DejaVuSans-30"/>
      </g>
     </g>
    </g>
    <g id="xtick_7">
     <g id="line2d_7">
      <g>
       <use style="stroke:#000000;stroke-width:0.8;" x="813.6" xlink:href="#m98b5e069af" y="768.96"/>
      </g>
     </g>
     <g id="text_7">
      <!-- 2000 -->
      <g transform="translate(800.875 783.558437)scale(0.1 -0.1)">
       <use xlink:href="#DejaVuSans-32"/>
       <use x="63.623047" xlink:href="#DejaVuSans-30"/>
       <use x="127.246094" xlink:href="#DejaVuSans-30"/>
       <use x="190.869141" xlink:href="#DejaVuSans-30"/>
      </g>
     </g>
    </g>
    <g id="xtick_8">
     <g id="line2d_8">
      <g>
       <use style="stroke:#000000;stroke-width:0.8;" x="925.2" xlink:href="#m98b5e069af" y="768.96"/>
      </g>
     </g>
     <g id="text_8">
      <!-- 3000 -->
      <g transform="translate(912.475 783.558437)scale(0.1 -0.1)">
       <use xlink:href="#DejaVuSans-33"/>
       <use x="63.623047" xlink:href="#DejaVuSans-30"/>
       <use x="127.246094" xlink:href="#DejaVuSans-30"/>
       <use x="190.869141" xlink:href="#DejaVuSans-30"/>
      </g>
     </g>
    </g>
    <g id="xtick_9">
     <g id="line2d_9">
      <g>
       <use style="stroke:#000000;stroke-width:0.8;" x="1036.8" xlink:href="#m98b5e069af" y="768.96"/>
      </g>
     </g>
     <g id="text_9">
      <!-- 4000 -->
      <g transform="translate(1024.075 783.558437)scale(0.1 -0.1)">
       <use xlink:href="#DejaVuSans-34"/>
       <use x="63.623047" xlink:href="#DejaVuSans-30"/>
       <use x="127.246094" xlink:href="#DejaVuSans-30"/>
       <use x="190.869141" xlink:href="#DejaVuSans-30"/>
      </g>
     </g>
    </g>
   </g>
   <g id="matplotlib.axis_2">
    <g id="ytick_1">
     <g id="line2d_10">
      <defs>
       <path d="M 0 0 
L -3.5 0 
" id="m47a90a6853" style="stroke:#000000;stroke-width:0.8;"/>
      </defs>
      <g>
       <use style="stroke:#000000;stroke-width:0.8;" x="144" xlink:href="#m47a90a6853" y="768.96"/>
      </g>
     </g>
     <g id="text_10">
      <!-- −4000 -->
      <g transform="translate(103.170312 772.759219)scale(0.1 -0.1)">
       <use xlink:href="#DejaVuSans-2212"/>
       <use x="83.789062" xlink:href="#DejaVuSans-34"/>
       <use x="147.412109" xlink:href="#DejaVuSans-30"/>
       <use x="211.035156" xlink:href="#DejaVuSans-30"/>
       <use x="274.658203" xlink:href="#DejaVuSans-30"/>
      </g>
     </g>
    </g>
    <g id="ytick_2">
     <g id="line2d_11">
      <g>
       <use style="stroke:#000000;stroke-width:0.8;" x="144" xlink:href="#m47a90a6853" y="685.8"/>
      </g>
     </g>
     <g id="text_11">
      <!-- −3000 -->
      <g transform="translate(103.170312 689.599219)scale(0.1 -0.1)">
       <use xlink:href="#DejaVuSans-2212"/>
       <use x="83.789062" xlink:href="#DejaVuSans-33"/>
       <use x="147.412109" xlink:href="#DejaVuSans-30"/>
       <use x="211.035156" xlink:href="#DejaVuSans-30"/>
       <use x="274.658203" xlink:href="#DejaVuSans-30"/>
      </g>
     </g>
    </g>
    <g id="ytick_3">
     <g id="line2d_12">
      <g>
       <use style="stroke:#000000;stroke-width:0.8;" x="144" xlink:href="#m47a90a6853" y="602.64"/>
      </g>
     </g>
     <g id="text_12">
      <!-- −2000 -->
      <g transform="translate(103.170312 606.439219)scale(0.1 -0.1)">
       <use xlink:href="#DejaVuSans-2212"/>
       <use x="83.789062" xlink:href="#DejaVuSans-32"/>
       <use x="147.412109" xlink:href="#DejaVuSans-30"/>
       <use x="211.035156" xlink:href="#DejaVuSans-30"/>
       <use x="274.658203" xlink:href="#DejaVuSans-30"/>
      </g>
     </g>
    </g>
    <g id="ytick_4">
     <g id="line2d_13">
      <g>
       <use style="stroke:#000000;stroke-width:0.8;" x="144" xlink:href="#m47a90a6853" y="519.48"/>
      </g>
     </g>
     <g id="text_13">
      <!-- −1000 -->
      <g transform="translate(103.170312 523.279219)scale(0.1 -0.1)">
       <use xlink:href="#DejaVuSans-2212"/>
       <use x="83.789062" xlink:href="#DejaVuSans-31"/>
       <use x="147.412109" xlink:href="#DejaVuSans-30"/>
       <use x="211.035156" xlink:href="#DejaVuSans-30"/>
       <use x="274.658203" xlink:href="#DejaVuSans-30"/>
      </g>
     </g>
    </g>
    <g id="ytick_5">
     <g id="line2d_14">
      <g>
       <use style="stroke:#000000;stroke-width:0.8;" x="144" xlink:href="#m47a90a6853" y="436.32"/>
      </g>
     </g>
     <g id="text_14">
      <!-- 0 -->
      <g transform="translate(130.6375 440.119219)scale(0.1 -0.1)">
       <use xlink:href="#DejaVuSans-30"/>
      </g>
     </g>
    </g>
    <g id="ytick_6">
     <g id="line2d_15">
      <g>
       <use style="stroke:#000000;stroke-width:0.8;" x="144" xlink:href="#m47a90a6853" y="353.16"/>
      </g>
     </g>
     <g id="text_15">
      <!-- 1000 -->
      <g transform="translate(111.55 356.959219)scale(0.1 -0.1)">
       <use xlink:href="#DejaVuSans-31"/>
       <use x="63.623047" xlink:href="#DejaVuSans-30"/>
       <use x="127.246094" xlink:href="#DejaVuSans-30"/>
       <use x="190.869141" xlink:href="#DejaVuSans-30"/>
      </g>
     </g>
    </g>
    <g id="ytick_7">
     <g id="line2d_16">
      <g>
       <use style="stroke:#000000;stroke-width:0.8;" x="144" xlink:href="#m47a90a6853" y="270"/>
      </g>
     </g>
     <g id="text_16">
      <!-- 2000 -->
      <g transform="translate(111.55 273.799219)scale(0.1 -0.1)">
       <use xlink:href="#DejaVuSans-32"/>
       <use x="63.623047" xlink:href="#DejaVuSans-30"/>
       <use x="127.246094" xlink:href="#DejaVuSans-30"/>
       <use x="190.869141" xlink:href="#DejaVuSans-30"/>
      </g>
     </g>
    </g>
    <g id="ytick_8">
     <g id="line2d_17">
      <g>
       <use style="stroke:#000000;stroke-width:0.8;" x="144" xlink:href="#m47a90a6853" y="186.84"/>
      </g>
     </g>
     <g id="text_17">
      <!-- 3000 -->
      <g transform="translate(111.55 190.639219)scale(0.1 -0.1)">
       <use xlink:href="#DejaVuSans-33"/>
       <use x="63.623047" xlink:href="#DejaVuSans-30"/>
       <use x="127.246094" xlink:href="#DejaVuSans-30"/>
       <use x="190.869141" xlink:href="#DejaVuSans-30"/>
      </g>
     </g>
    </g>
    <g id="ytick_9">
     <g id="line2d_18">
      <g>
       <use style="stroke:#000000;stroke-width:0.8;" x="144" xlink:href="#m47a90a6853" y="103.68"/>
      </g>
     </g>
     <g id="text_18">
      <!-- 4000 -->
      <g transform="translate(111.55 107.479219)scale(0.1 -0.1)">
       <use xlink:href="#DejaVuSans-34"/>
       <use x="63.623047" xlink:href="#DejaVuSans-30"/>
       <use x="127.246094" xlink:href="#DejaVuSans-30"/>
       <use x="190.869141" xlink:href="#DejaVuSans-30"/>
      </g>
     </g>
    </g>
   </g>
   <g id="line2d_19">
    <path clip-path="url(#p7c44a52012)" d="M 590.4 768.96 
L 590.4 103.68 
" style="fill:none;stroke:#1f77b4;stroke-linecap:square;stroke-width:1.5;"/>
   </g>
   <g id="line2d_20">
    <path clip-path="url(#p7c44a52012)" d="M 144 436.32 
L 1036.8 436.32 
" style="fill:none;stroke:#1f77b4;stroke-linecap:square;stroke-width:1.5;"/>
   </g>
   <g id="line2d_21">
    <defs>
     <path d="M 0 3 
C 0.795609 3 1.55874 2.683901 2.12132 2.12132 
C 2.683901 1.55874 3 0.795609 3 0 
C 3 -0.795609 2.683901 -1.55874 2.12132 -2.12132 
C 1.55874 -2.683901 0.795609 -3 0 -3 
C -0.795609 -3 -1.55874 -2.683901 -2.12132 -2.12132 
C -2.683901 -1.55874 -3 -0.795609 -3 0 
C -3 0.795609 -2.683901 1.55874 -2.12132 2.12132 
C -1.55874 2.683901 -0.795609 3 0 3 
z
" id="m1c0f38fbf3" style="stroke:#008000;"/>
    </defs>
    <g clip-path="url(#p7c44a52012)">
     <use style="fill:#008000;stroke:#008000;" x="1399.515509" xlink:href="#m1c0f38fbf3" y="505.347367"/>
    </g>
   </g>
   <g id="line2d_22">
    <g clip-path="url(#p7c44a52012)">
     <use style="fill:#008000;stroke:#008000;" x="1075.118378" xlink:href="#m1c0f38fbf3" y="433.364928"/>
    </g>
   </g>
   <g id="line2d_23">
    <g clip-path="url(#p7c44a52012)">
     <use style="fill:#008000;stroke:#008000;" x="1281.971905" xlink:href="#m1c0f38fbf3" y="338.62664"/>
    </g>
   </g>
   <g id="line2d_24">
    <g clip-path="url(#p7c44a52012)">
     <use style="fill:#008000;stroke:#008000;" x="1314.367449" xlink:href="#m1c0f38fbf3" y="265.254004"/>
    </g>
   </g>
   <g id="line2d_25">
    <g clip-path="url(#p7c44a52012)">
     <use style="fill:#008000;stroke:#008000;" x="646.163827" xlink:href="#m1c0f38fbf3" y="394.505502"/>
    </g>
   </g>
   <g id="line2d_26">
    <g clip-path="url(#p7c44a52012)">
     <use style="fill:#008000;stroke:#008000;" x="646.163827" xlink:href="#m1c0f38fbf3" y="394.505502"/>
    </g>
   </g>
   <g id="line2d_27">
    <g clip-path="url(#p7c44a52012)">
     <use style="fill:#008000;stroke:#008000;" x="572.251631" xlink:href="#m1c0f38fbf3" y="225.589453"/>
    </g>
   </g>
   <g id="line2d_28">
    <g clip-path="url(#p7c44a52012)">
     <use style="fill:#008000;stroke:#008000;" x="575.77426" xlink:href="#m1c0f38fbf3" y="394.343814"/>
    </g>
   </g>
   <g id="line2d_29">
    <g clip-path="url(#p7c44a52012)">
     <use style="fill:#008000;stroke:#008000;" x="575.77426" xlink:href="#m1c0f38fbf3" y="394.343814"/>
    </g>
   </g>
   <g id="line2d_30">
    <g clip-path="url(#p7c44a52012)">
     <use style="fill:#008000;stroke:#008000;" x="457.364149" xlink:href="#m1c0f38fbf3" y="248.272359"/>
    </g>
   </g>
   <g id="line2d_31">
    <g clip-path="url(#p7c44a52012)">
     <use style="fill:#008000;stroke:#008000;" x="410.636671" xlink:href="#m1c0f38fbf3" y="506.237171"/>
    </g>
   </g>
   <g id="line2d_32">
    <g clip-path="url(#p7c44a52012)">
     <use style="fill:#008000;stroke:#008000;" x="879.519958" xlink:href="#m1c0f38fbf3" y="564.493927"/>
    </g>
   </g>
   <g id="line2d_33">
    <g clip-path="url(#p7c44a52012)">
     <use style="fill:#008000;stroke:#008000;" x="1084.193601" xlink:href="#m1c0f38fbf3" y="514.321704"/>
    </g>
   </g>
   <g id="line2d_34">
    <defs>
     <path d="M 0 1.333333 
C 0.353604 1.333333 0.692773 1.192845 0.942809 0.942809 
C 1.192845 0.692773 1.333333 0.353604 1.333333 0 
C 1.333333 -0.353604 1.192845 -0.692773 0.942809 -0.942809 
C 0.692773 -1.192845 0.353604 -1.333333 0 -1.333333 
C -0.353604 -1.333333 -0.692773 -1.192845 -0.942809 -0.942809 
C -1.192845 -0.692773 -1.333333 -0.353604 -1.333333 0 
C -1.333333 0.353604 -1.192845 0.692773 -0.942809 0.942809 
C -0.692773 1.192845 -0.353604 1.333333 0 1.333333 
z
" id="m9523a66785" style="stroke:#ff0000;"/>
    </defs>
    <g clip-path="url(#p7c44a52012)">
     <use style="fill:#ff0000;stroke:#ff0000;" x="1399.515509" xlink:href="#m9523a66785" y="505.347367"/>
     <use style="fill:#ff0000;stroke:#ff0000;" x="1075.118378" xlink:href="#m9523a66785" y="433.364928"/>
     <use style="fill:#ff0000;stroke:#ff0000;" x="1281.971905" xlink:href="#m9523a66785" y="338.62664"/>
     <use style="fill:#ff0000;stroke:#ff0000;" x="1314.367449" xlink:href="#m9523a66785" y="265.254004"/>
     <use style="fill:#ff0000;stroke:#ff0000;" x="650.344172" xlink:href="#m9523a66785" y="398.797498"/>
     <use style="fill:#ff0000;stroke:#ff0000;" x="641.428752" xlink:href="#m9523a66785" y="390.473314"/>
     <use style="fill:#ff0000;stroke:#ff0000;" x="787.536604" xlink:href="#m9523a66785" y="191.234548"/>
     <use style="fill:#ff0000;stroke:#ff0000;" x="758.709378" xlink:href="#m9523a66785" y="195.715462"/>
     <use style="fill:#ff0000;stroke:#ff0000;" x="732.649546" xlink:href="#m9523a66785" y="199.113665"/>
     <use style="fill:#ff0000;stroke:#ff0000;" x="707.436196" xlink:href="#m9523a66785" y="204.222443"/>
     <use style="fill:#ff0000;stroke:#ff0000;" x="572.251631" xlink:href="#m9523a66785" y="225.589453"/>
     <use style="fill:#ff0000;stroke:#ff0000;" x="580.585871" xlink:href="#m9523a66785" y="391.949867"/>
     <use style="fill:#ff0000;stroke:#ff0000;" x="571.459396" xlink:href="#m9523a66785" y="397.009798"/>
     <use style="fill:#ff0000;stroke:#ff0000;" x="457.364149" xlink:href="#m9523a66785" y="248.272359"/>
     <use style="fill:#ff0000;stroke:#ff0000;" x="393.060122" xlink:href="#m9523a66785" y="289.590426"/>
     <use style="fill:#ff0000;stroke:#ff0000;" x="408.139878" xlink:href="#m9523a66785" y="316.360582"/>
     <use style="fill:#ff0000;stroke:#ff0000;" x="433.849662" xlink:href="#m9523a66785" y="345.741159"/>
     <use style="fill:#ff0000;stroke:#ff0000;" x="404.280152" xlink:href="#m9523a66785" y="363.930524"/>
     <use style="fill:#ff0000;stroke:#ff0000;" x="454.154133" xlink:href="#m9523a66785" y="391.813003"/>
     <use style="fill:#ff0000;stroke:#ff0000;" x="457.556698" xlink:href="#m9523a66785" y="413.068"/>
     <use style="fill:#ff0000;stroke:#ff0000;" x="433.061446" xlink:href="#m9523a66785" y="415.811762"/>
     <use style="fill:#ff0000;stroke:#ff0000;" x="420.545432" xlink:href="#m9523a66785" y="436.665164"/>
     <use style="fill:#ff0000;stroke:#ff0000;" x="394.646954" xlink:href="#m9523a66785" y="445.121866"/>
     <use style="fill:#ff0000;stroke:#ff0000;" x="410.636671" xlink:href="#m9523a66785" y="506.237171"/>
     <use style="fill:#ff0000;stroke:#ff0000;" x="469.379665" xlink:href="#m9523a66785" y="491.210748"/>
     <use style="fill:#ff0000;stroke:#ff0000;" x="433.607509" xlink:href="#m9523a66785" y="516.43144"/>
     <use style="fill:#ff0000;stroke:#ff0000;" x="456.653284" xlink:href="#m9523a66785" y="514.272747"/>
     <use style="fill:#ff0000;stroke:#ff0000;" x="469.828141" xlink:href="#m9523a66785" y="536.983358"/>
     <use style="fill:#ff0000;stroke:#ff0000;" x="455.246781" xlink:href="#m9523a66785" y="562.860165"/>
     <use style="fill:#ff0000;stroke:#ff0000;" x="452.406497" xlink:href="#m9523a66785" y="582.408323"/>
     <use style="fill:#ff0000;stroke:#ff0000;" x="471.779786" xlink:href="#m9523a66785" y="600.716465"/>
     <use style="fill:#ff0000;stroke:#ff0000;" x="474.151133" xlink:href="#m9523a66785" y="622.749358"/>
     <use style="fill:#ff0000;stroke:#ff0000;" x="477.007324" xlink:href="#m9523a66785" y="650.48255"/>
     <use style="fill:#ff0000;stroke:#ff0000;" x="531.641429" xlink:href="#m9523a66785" y="655.502797"/>
     <use style="fill:#ff0000;stroke:#ff0000;" x="552.766174" xlink:href="#m9523a66785" y="641.12394"/>
     <use style="fill:#ff0000;stroke:#ff0000;" x="571.543391" xlink:href="#m9523a66785" y="622.651472"/>
     <use style="fill:#ff0000;stroke:#ff0000;" x="602.287019" xlink:href="#m9523a66785" y="637.934045"/>
     <use style="fill:#ff0000;stroke:#ff0000;" x="608.46167" xlink:href="#m9523a66785" y="556.190377"/>
     <use style="fill:#ff0000;stroke:#ff0000;" x="614.75473" xlink:href="#m9523a66785" y="539.243568"/>
     <use style="fill:#ff0000;stroke:#ff0000;" x="636.18711" xlink:href="#m9523a66785" y="549.349137"/>
     <use style="fill:#ff0000;stroke:#ff0000;" x="667.915521" xlink:href="#m9523a66785" y="595.830196"/>
     <use style="fill:#ff0000;stroke:#ff0000;" x="699.054033" xlink:href="#m9523a66785" y="596.733438"/>
     <use style="fill:#ff0000;stroke:#ff0000;" x="765.218976" xlink:href="#m9523a66785" y="589.689584"/>
     <use style="fill:#ff0000;stroke:#ff0000;" x="803.276509" xlink:href="#m9523a66785" y="583.274817"/>
     <use style="fill:#ff0000;stroke:#ff0000;" x="833.55535" xlink:href="#m9523a66785" y="585.266994"/>
     <use style="fill:#ff0000;stroke:#ff0000;" x="838.130771" xlink:href="#m9523a66785" y="569.824952"/>
     <use style="fill:#ff0000;stroke:#ff0000;" x="875.242946" xlink:href="#m9523a66785" y="571.377976"/>
     <use style="fill:#ff0000;stroke:#ff0000;" x="883.500023" xlink:href="#m9523a66785" y="557.540632"/>
     <use style="fill:#ff0000;stroke:#ff0000;" x="1084.193601" xlink:href="#m9523a66785" y="514.321704"/>
    </g>
   </g>
   <g id="line2d_35">
    <defs>
     <path d="M -0.5 0.5 
L 0.5 0.5 
L 0.5 -0.5 
L -0.5 -0.5 
z
" id="mbce6ca6f0f" style="stroke:#1f77b4;stroke-linejoin:miter;"/>
    </defs>
    <g clip-path="url(#p7c44a52012)">
     <use style="fill:#1f77b4;stroke:#1f77b4;stroke-linejoin:miter;" x="1399.515509" xlink:href="#mbce6ca6f0f" y="505.347367"/>
     <use style="fill:#1f77b4;stroke:#1f77b4;stroke-linejoin:miter;" x="1075.118378" xlink:href="#mbce6ca6f0f" y="433.364928"/>
     <use style="fill:#1f77b4;stroke:#1f77b4;stroke-linejoin:miter;" x="1281.971905" xlink:href="#mbce6ca6f0f" y="338.62664"/>
     <use style="fill:#1f77b4;stroke:#1f77b4;stroke-linejoin:miter;" x="1314.367449" xlink:href="#mbce6ca6f0f" y="265.254004"/>
     <use style="fill:#1f77b4;stroke:#1f77b4;stroke-linejoin:miter;" x="650.344172" xlink:href="#mbce6ca6f0f" y="398.797498"/>
     <use style="fill:#1f77b4;stroke:#1f77b4;stroke-linejoin:miter;" x="646.629853" xlink:href="#mbce6ca6f0f" y="396.601501"/>
     <use style="fill:#1f77b4;stroke:#1f77b4;stroke-linejoin:miter;" x="644.625613" xlink:href="#mbce6ca6f0f" y="393.154481"/>
     <use style="fill:#1f77b4;stroke:#1f77b4;stroke-linejoin:miter;" x="641.428752" xlink:href="#mbce6ca6f0f" y="390.473314"/>
     <use style="fill:#1f77b4;stroke:#1f77b4;stroke-linejoin:miter;" x="787.536604" xlink:href="#mbce6ca6f0f" y="191.234548"/>
     <use style="fill:#1f77b4;stroke:#1f77b4;stroke-linejoin:miter;" x="758.709378" xlink:href="#mbce6ca6f0f" y="195.715462"/>
     <use style="fill:#1f77b4;stroke:#1f77b4;stroke-linejoin:miter;" x="732.649546" xlink:href="#mbce6ca6f0f" y="199.113665"/>
     <use style="fill:#1f77b4;stroke:#1f77b4;stroke-linejoin:miter;" x="707.436196" xlink:href="#mbce6ca6f0f" y="204.222443"/>
     <use style="fill:#1f77b4;stroke:#1f77b4;stroke-linejoin:miter;" x="685.109701" xlink:href="#mbce6ca6f0f" y="207.714435"/>
     <use style="fill:#1f77b4;stroke:#1f77b4;stroke-linejoin:miter;" x="664.192418" xlink:href="#mbce6ca6f0f" y="210.806677"/>
     <use style="fill:#1f77b4;stroke:#1f77b4;stroke-linejoin:miter;" x="644.543174" xlink:href="#mbce6ca6f0f" y="213.899897"/>
     <use style="fill:#1f77b4;stroke:#1f77b4;stroke-linejoin:miter;" x="624.938303" xlink:href="#mbce6ca6f0f" y="216.30271"/>
     <use style="fill:#1f77b4;stroke:#1f77b4;stroke-linejoin:miter;" x="606.866999" xlink:href="#mbce6ca6f0f" y="219.182242"/>
     <use style="fill:#1f77b4;stroke:#1f77b4;stroke-linejoin:miter;" x="589.234755" xlink:href="#mbce6ca6f0f" y="224.055876"/>
     <use style="fill:#1f77b4;stroke:#1f77b4;stroke-linejoin:miter;" x="572.251631" xlink:href="#mbce6ca6f0f" y="225.589453"/>
     <use style="fill:#1f77b4;stroke:#1f77b4;stroke-linejoin:miter;" x="580.585871" xlink:href="#mbce6ca6f0f" y="391.949867"/>
     <use style="fill:#1f77b4;stroke:#1f77b4;stroke-linejoin:miter;" x="577.936551" xlink:href="#mbce6ca6f0f" y="395.534564"/>
     <use style="fill:#1f77b4;stroke:#1f77b4;stroke-linejoin:miter;" x="574.829285" xlink:href="#mbce6ca6f0f" y="397.149961"/>
     <use style="fill:#1f77b4;stroke:#1f77b4;stroke-linejoin:miter;" x="571.459396" xlink:href="#mbce6ca6f0f" y="397.009798"/>
     <use style="fill:#1f77b4;stroke:#1f77b4;stroke-linejoin:miter;" x="457.364149" xlink:href="#mbce6ca6f0f" y="248.272359"/>
     <use style="fill:#1f77b4;stroke:#1f77b4;stroke-linejoin:miter;" x="439.877923" xlink:href="#mbce6ca6f0f" y="251.253209"/>
     <use style="fill:#1f77b4;stroke:#1f77b4;stroke-linejoin:miter;" x="420.247502" xlink:href="#mbce6ca6f0f" y="252.804422"/>
     <use style="fill:#1f77b4;stroke:#1f77b4;stroke-linejoin:miter;" x="408.901448" xlink:href="#mbce6ca6f0f" y="263.989681"/>
     <use style="fill:#1f77b4;stroke:#1f77b4;stroke-linejoin:miter;" x="395.782797" xlink:href="#mbce6ca6f0f" y="272.853022"/>
     <use style="fill:#1f77b4;stroke:#1f77b4;stroke-linejoin:miter;" x="393.060122" xlink:href="#mbce6ca6f0f" y="289.590426"/>
     <use style="fill:#1f77b4;stroke:#1f77b4;stroke-linejoin:miter;" x="408.139878" xlink:href="#mbce6ca6f0f" y="316.360582"/>
     <use style="fill:#1f77b4;stroke:#1f77b4;stroke-linejoin:miter;" x="433.849662" xlink:href="#mbce6ca6f0f" y="345.741159"/>
     <use style="fill:#1f77b4;stroke:#1f77b4;stroke-linejoin:miter;" x="416.952234" xlink:href="#mbce6ca6f0f" y="347.802323"/>
     <use style="fill:#1f77b4;stroke:#1f77b4;stroke-linejoin:miter;" x="415.371385" xlink:href="#mbce6ca6f0f" y="358.146534"/>
     <use style="fill:#1f77b4;stroke:#1f77b4;stroke-linejoin:miter;" x="404.280152" xlink:href="#mbce6ca6f0f" y="363.930524"/>
     <use style="fill:#1f77b4;stroke:#1f77b4;stroke-linejoin:miter;" x="454.154133" xlink:href="#mbce6ca6f0f" y="391.813003"/>
     <use style="fill:#1f77b4;stroke:#1f77b4;stroke-linejoin:miter;" x="455.765668" xlink:href="#mbce6ca6f0f" y="399.339494"/>
     <use style="fill:#1f77b4;stroke:#1f77b4;stroke-linejoin:miter;" x="457.337331" xlink:href="#mbce6ca6f0f" y="406.448797"/>
     <use style="fill:#1f77b4;stroke:#1f77b4;stroke-linejoin:miter;" x="457.556698" xlink:href="#mbce6ca6f0f" y="413.068"/>
     <use style="fill:#1f77b4;stroke:#1f77b4;stroke-linejoin:miter;" x="433.061446" xlink:href="#mbce6ca6f0f" y="415.811762"/>
     <use style="fill:#1f77b4;stroke:#1f77b4;stroke-linejoin:miter;" x="424.878122" xlink:href="#mbce6ca6f0f" y="422.096736"/>
     <use style="fill:#1f77b4;stroke:#1f77b4;stroke-linejoin:miter;" x="418.317971" xlink:href="#mbce6ca6f0f" y="429.319257"/>
     <use style="fill:#1f77b4;stroke:#1f77b4;stroke-linejoin:miter;" x="420.545432" xlink:href="#mbce6ca6f0f" y="436.665164"/>
     <use style="fill:#1f77b4;stroke:#1f77b4;stroke-linejoin:miter;" x="394.646954" xlink:href="#mbce6ca6f0f" y="445.121866"/>
     <use style="fill:#1f77b4;stroke:#1f77b4;stroke-linejoin:miter;" x="396.095177" xlink:href="#mbce6ca6f0f" y="453.817288"/>
     <use style="fill:#1f77b4;stroke:#1f77b4;stroke-linejoin:miter;" x="400.049533" xlink:href="#mbce6ca6f0f" y="462.288872"/>
     <use style="fill:#1f77b4;stroke:#1f77b4;stroke-linejoin:miter;" x="401.835112" xlink:href="#mbce6ca6f0f" y="470.702885"/>
     <use style="fill:#1f77b4;stroke:#1f77b4;stroke-linejoin:miter;" x="404.296605" xlink:href="#mbce6ca6f0f" y="479.131706"/>
     <use style="fill:#1f77b4;stroke:#1f77b4;stroke-linejoin:miter;" x="406.404807" xlink:href="#mbce6ca6f0f" y="487.837725"/>
     <use style="fill:#1f77b4;stroke:#1f77b4;stroke-linejoin:miter;" x="408.972115" xlink:href="#mbce6ca6f0f" y="496.909842"/>
     <use style="fill:#1f77b4;stroke:#1f77b4;stroke-linejoin:miter;" x="410.636671" xlink:href="#mbce6ca6f0f" y="506.237171"/>
     <use style="fill:#1f77b4;stroke:#1f77b4;stroke-linejoin:miter;" x="469.379665" xlink:href="#mbce6ca6f0f" y="491.210748"/>
     <use style="fill:#1f77b4;stroke:#1f77b4;stroke-linejoin:miter;" x="433.607509" xlink:href="#mbce6ca6f0f" y="516.43144"/>
     <use style="fill:#1f77b4;stroke:#1f77b4;stroke-linejoin:miter;" x="456.653284" xlink:href="#mbce6ca6f0f" y="514.272747"/>
     <use style="fill:#1f77b4;stroke:#1f77b4;stroke-linejoin:miter;" x="456.621146" xlink:href="#mbce6ca6f0f" y="524.321781"/>
     <use style="fill:#1f77b4;stroke:#1f77b4;stroke-linejoin:miter;" x="457.875273" xlink:href="#mbce6ca6f0f" y="534.321107"/>
     <use style="fill:#1f77b4;stroke:#1f77b4;stroke-linejoin:miter;" x="469.828141" xlink:href="#mbce6ca6f0f" y="536.983358"/>
     <use style="fill:#1f77b4;stroke:#1f77b4;stroke-linejoin:miter;" x="455.246781" xlink:href="#mbce6ca6f0f" y="562.860165"/>
     <use style="fill:#1f77b4;stroke:#1f77b4;stroke-linejoin:miter;" x="452.406497" xlink:href="#mbce6ca6f0f" y="582.408323"/>
     <use style="fill:#1f77b4;stroke:#1f77b4;stroke-linejoin:miter;" x="459.805978" xlink:href="#mbce6ca6f0f" y="593.864942"/>
     <use style="fill:#1f77b4;stroke:#1f77b4;stroke-linejoin:miter;" x="471.779786" xlink:href="#mbce6ca6f0f" y="600.716465"/>
     <use style="fill:#1f77b4;stroke:#1f77b4;stroke-linejoin:miter;" x="474.151133" xlink:href="#mbce6ca6f0f" y="622.749358"/>
     <use style="fill:#1f77b4;stroke:#1f77b4;stroke-linejoin:miter;" x="477.007324" xlink:href="#mbce6ca6f0f" y="650.48255"/>
     <use style="fill:#1f77b4;stroke:#1f77b4;stroke-linejoin:miter;" x="513.502025" xlink:href="#mbce6ca6f0f" y="654.449079"/>
     <use style="fill:#1f77b4;stroke:#1f77b4;stroke-linejoin:miter;" x="531.641429" xlink:href="#mbce6ca6f0f" y="655.502797"/>
     <use style="fill:#1f77b4;stroke:#1f77b4;stroke-linejoin:miter;" x="552.766174" xlink:href="#mbce6ca6f0f" y="641.12394"/>
     <use style="fill:#1f77b4;stroke:#1f77b4;stroke-linejoin:miter;" x="571.543391" xlink:href="#mbce6ca6f0f" y="622.651472"/>
     <use style="fill:#1f77b4;stroke:#1f77b4;stroke-linejoin:miter;" x="585.952531" xlink:href="#mbce6ca6f0f" y="635.523004"/>
     <use style="fill:#1f77b4;stroke:#1f77b4;stroke-linejoin:miter;" x="602.287019" xlink:href="#mbce6ca6f0f" y="637.934045"/>
     <use style="fill:#1f77b4;stroke:#1f77b4;stroke-linejoin:miter;" x="608.46167" xlink:href="#mbce6ca6f0f" y="556.190377"/>
     <use style="fill:#1f77b4;stroke:#1f77b4;stroke-linejoin:miter;" x="614.75473" xlink:href="#mbce6ca6f0f" y="539.243568"/>
     <use style="fill:#1f77b4;stroke:#1f77b4;stroke-linejoin:miter;" x="622.909118" xlink:href="#mbce6ca6f0f" y="537.343816"/>
     <use style="fill:#1f77b4;stroke:#1f77b4;stroke-linejoin:miter;" x="636.18711" xlink:href="#mbce6ca6f0f" y="549.349137"/>
     <use style="fill:#1f77b4;stroke:#1f77b4;stroke-linejoin:miter;" x="667.915521" xlink:href="#mbce6ca6f0f" y="595.830196"/>
     <use style="fill:#1f77b4;stroke:#1f77b4;stroke-linejoin:miter;" x="684.071411" xlink:href="#mbce6ca6f0f" y="598.05445"/>
     <use style="fill:#1f77b4;stroke:#1f77b4;stroke-linejoin:miter;" x="699.054033" xlink:href="#mbce6ca6f0f" y="596.733438"/>
     <use style="fill:#1f77b4;stroke:#1f77b4;stroke-linejoin:miter;" x="765.218976" xlink:href="#mbce6ca6f0f" y="589.689584"/>
     <use style="fill:#1f77b4;stroke:#1f77b4;stroke-linejoin:miter;" x="781.585302" xlink:href="#mbce6ca6f0f" y="584.896188"/>
     <use style="fill:#1f77b4;stroke:#1f77b4;stroke-linejoin:miter;" x="803.276509" xlink:href="#mbce6ca6f0f" y="583.274817"/>
     <use style="fill:#1f77b4;stroke:#1f77b4;stroke-linejoin:miter;" x="833.55535" xlink:href="#mbce6ca6f0f" y="585.266994"/>
     <use style="fill:#1f77b4;stroke:#1f77b4;stroke-linejoin:miter;" x="838.130771" xlink:href="#mbce6ca6f0f" y="569.824952"/>
     <use style="fill:#1f77b4;stroke:#1f77b4;stroke-linejoin:miter;" x="875.242946" xlink:href="#mbce6ca6f0f" y="571.377976"/>
     <use style="fill:#1f77b4;stroke:#1f77b4;stroke-linejoin:miter;" x="883.500023" xlink:href="#mbce6ca6f0f" y="557.540632"/>
     <use style="fill:#1f77b4;stroke:#1f77b4;stroke-linejoin:miter;" x="1084.193601" xlink:href="#mbce6ca6f0f" y="514.321704"/>
    </g>
   </g>
   <g id="patch_3">
    <path d="M 144 768.96 
L 144 103.68 
" style="fill:none;stroke:#000000;stroke-linecap:square;stroke-linejoin:miter;stroke-width:0.8;"/>
   </g>
   <g id="patch_4">
    <path d="M 1036.8 768.96 
L 1036.8 103.68 
" style="fill:none;stroke:#000000;stroke-linecap:square;stroke-linejoin:miter;stroke-width:0.8;"/>
   </g>
   <g id="patch_5">
    <path d="M 144 768.96 
L 1036.8 768.96 
" style="fill:none;stroke:#000000;stroke-linecap:square;stroke-linejoin:miter;stroke-width:0.8;"/>
   </g>
   <g id="patch_6">
    <path d="M 144 103.68 
L 1036.8 103.68 
" style="fill:none;stroke:#000000;stroke-linecap:square;stroke-linejoin:miter;stroke-width:0.8;"/>
   </g>
  </g>
 </g>
 <defs>
  <clipPath id="p7c44a52012">
   <rect height="665.28" width="892.8" x="144" y="103.68"/>
  </clipPath>
 </defs>
</svg>
