<?xml version="1.0" encoding="utf-8" standalone="no"?>
<!DOCTYPE svg PUBLIC "-//W3C//DTD SVG 1.1//EN"
  "http://www.w3.org/Graphics/SVG/1.1/DTD/svg11.dtd">
<!-- Created with matplotlib (http://matplotlib.org/) -->
<svg height="864pt" version="1.1" viewBox="0 0 1152 864" width="1152pt" xmlns="http://www.w3.org/2000/svg" xmlns:xlink="http://www.w3.org/1999/xlink">
 <defs>
  <style type="text/css">
*{stroke-linecap:butt;stroke-linejoin:round;}
  </style>
 </defs>
 <g id="figure_1">
  <g id="patch_1">
   <path d="M 0 864 
L 1152 864 
L 1152 0 
L 0 0 
z
" style="fill:#ffffff;"/>
  </g>
  <g id="axes_1">
   <g id="patch_2">
    <path d="M 144 768.96 
L 1036.8 768.96 
L 1036.8 103.68 
L 144 103.68 
z
" style="fill:#ffffff;"/>
   </g>
   <g id="matplotlib.axis_1">
    <g id="xtick_1">
     <g id="line2d_1">
      <defs>
       <path d="M 0 0 
L 0 3.5 
" id="m510f2a7b64" style="stroke:#000000;stroke-width:0.8;"/>
      </defs>
      <g>
       <use style="stroke:#000000;stroke-width:0.8;" x="144" xlink:href="#m510f2a7b64" y="768.96"/>
      </g>
     </g>
     <g id="text_1">
      <!-- −4000 -->
      <defs>
       <path d="M 10.59375 35.5 
L 73.1875 35.5 
L 73.1875 27.203125 
L 10.59375 27.203125 
z
" id="DejaVuSans-2212"/>
       <path d="M 37.796875 64.3125 
L 12.890625 25.390625 
L 37.796875 25.390625 
z
M 35.203125 72.90625 
L 47.609375 72.90625 
L 47.609375 25.390625 
L 58.015625 25.390625 
L 58.015625 17.1875 
L 47.609375 17.1875 
L 47.609375 0 
L 37.796875 0 
L 37.796875 17.1875 
L 4.890625 17.1875 
L 4.890625 26.703125 
z
" id="DejaVuSans-34"/>
       <path d="M 31.78125 66.40625 
Q 24.171875 66.40625 20.328125 58.90625 
Q 16.5 51.421875 16.5 36.375 
Q 16.5 21.390625 20.328125 13.890625 
Q 24.171875 6.390625 31.78125 6.390625 
Q 39.453125 6.390625 43.28125 13.890625 
Q 47.125 21.390625 47.125 36.375 
Q 47.125 51.421875 43.28125 58.90625 
Q 39.453125 66.40625 31.78125 66.40625 
z
M 31.78125 74.21875 
Q 44.046875 74.21875 50.515625 64.515625 
Q 56.984375 54.828125 56.984375 36.375 
Q 56.984375 17.96875 50.515625 8.265625 
Q 44.046875 -1.421875 31.78125 -1.421875 
Q 19.53125 -1.421875 13.0625 8.265625 
Q 6.59375 17.96875 6.59375 36.375 
Q 6.59375 54.828125 13.0625 64.515625 
Q 19.53125 74.21875 31.78125 74.21875 
z
" id="DejaVuSans-30"/>
      </defs>
      <g transform="translate(127.085156 783.558437)scale(0.1 -0.1)">
       <use xlink:href="#DejaVuSans-2212"/>
       <use x="83.789062" xlink:href="#DejaVuSans-34"/>
       <use x="147.412109" xlink:href="#DejaVuSans-30"/>
       <use x="211.035156" xlink:href="#DejaVuSans-30"/>
       <use x="274.658203" xlink:href="#DejaVuSans-30"/>
      </g>
     </g>
    </g>
    <g id="xtick_2">
     <g id="line2d_2">
      <g>
       <use style="stroke:#000000;stroke-width:0.8;" x="255.6" xlink:href="#m510f2a7b64" y="768.96"/>
      </g>
     </g>
     <g id="text_2">
      <!-- −3000 -->
      <defs>
       <path d="M 40.578125 39.3125 
Q 47.65625 37.796875 51.625 33 
Q 55.609375 28.21875 55.609375 21.1875 
Q 55.609375 10.40625 48.1875 4.484375 
Q 40.765625 -1.421875 27.09375 -1.421875 
Q 22.515625 -1.421875 17.65625 -0.515625 
Q 12.796875 0.390625 7.625 2.203125 
L 7.625 11.71875 
Q 11.71875 9.328125 16.59375 8.109375 
Q 21.484375 6.890625 26.8125 6.890625 
Q 36.078125 6.890625 40.9375 10.546875 
Q 45.796875 14.203125 45.796875 21.1875 
Q 45.796875 27.640625 41.28125 31.265625 
Q 36.765625 34.90625 28.71875 34.90625 
L 20.21875 34.90625 
L 20.21875 43.015625 
L 29.109375 43.015625 
Q 36.375 43.015625 40.234375 45.921875 
Q 44.09375 48.828125 44.09375 54.296875 
Q 44.09375 59.90625 40.109375 62.90625 
Q 36.140625 65.921875 28.71875 65.921875 
Q 24.65625 65.921875 20.015625 65.03125 
Q 15.375 64.15625 9.8125 62.3125 
L 9.8125 71.09375 
Q 15.4375 72.65625 20.34375 73.4375 
Q 25.25 74.21875 29.59375 74.21875 
Q 40.828125 74.21875 47.359375 69.109375 
Q 53.90625 64.015625 53.90625 55.328125 
Q 53.90625 49.265625 50.4375 45.09375 
Q 46.96875 40.921875 40.578125 39.3125 
z
" id="DejaVuSans-33"/>
      </defs>
      <g transform="translate(238.685156 783.558437)scale(0.1 -0.1)">
       <use xlink:href="#DejaVuSans-2212"/>
       <use x="83.789062" xlink:href="#DejaVuSans-33"/>
       <use x="147.412109" xlink:href="#DejaVuSans-30"/>
       <use x="211.035156" xlink:href="#DejaVuSans-30"/>
       <use x="274.658203" xlink:href="#DejaVuSans-30"/>
      </g>
     </g>
    </g>
    <g id="xtick_3">
     <g id="line2d_3">
      <g>
       <use style="stroke:#000000;stroke-width:0.8;" x="367.2" xlink:href="#m510f2a7b64" y="768.96"/>
      </g>
     </g>
     <g id="text_3">
      <!-- −2000 -->
      <defs>
       <path d="M 19.1875 8.296875 
L 53.609375 8.296875 
L 53.609375 0 
L 7.328125 0 
L 7.328125 8.296875 
Q 12.9375 14.109375 22.625 23.890625 
Q 32.328125 33.6875 34.8125 36.53125 
Q 39.546875 41.84375 41.421875 45.53125 
Q 43.3125 49.21875 43.3125 52.78125 
Q 43.3125 58.59375 39.234375 62.25 
Q 35.15625 65.921875 28.609375 65.921875 
Q 23.96875 65.921875 18.8125 64.3125 
Q 13.671875 62.703125 7.8125 59.421875 
L 7.8125 69.390625 
Q 13.765625 71.78125 18.9375 73 
Q 24.125 74.21875 28.421875 74.21875 
Q 39.75 74.21875 46.484375 68.546875 
Q 53.21875 62.890625 53.21875 53.421875 
Q 53.21875 48.921875 51.53125 44.890625 
Q 49.859375 40.875 45.40625 35.40625 
Q 44.1875 33.984375 37.640625 27.21875 
Q 31.109375 20.453125 19.1875 8.296875 
z
" id="DejaVuSans-32"/>
      </defs>
      <g transform="translate(350.285156 783.558437)scale(0.1 -0.1)">
       <use xlink:href="#DejaVuSans-2212"/>
       <use x="83.789062" xlink:href="#DejaVuSans-32"/>
       <use x="147.412109" xlink:href="#DejaVuSans-30"/>
       <use x="211.035156" xlink:href="#DejaVuSans-30"/>
       <use x="274.658203" xlink:href="#DejaVuSans-30"/>
      </g>
     </g>
    </g>
    <g id="xtick_4">
     <g id="line2d_4">
      <g>
       <use style="stroke:#000000;stroke-width:0.8;" x="478.8" xlink:href="#m510f2a7b64" y="768.96"/>
      </g>
     </g>
     <g id="text_4">
      <!-- −1000 -->
      <defs>
       <path d="M 12.40625 8.296875 
L 28.515625 8.296875 
L 28.515625 63.921875 
L 10.984375 60.40625 
L 10.984375 69.390625 
L 28.421875 72.90625 
L 38.28125 72.90625 
L 38.28125 8.296875 
L 54.390625 8.296875 
L 54.390625 0 
L 12.40625 0 
z
" id="DejaVuSans-31"/>
      </defs>
      <g transform="translate(461.885156 783.558437)scale(0.1 -0.1)">
       <use xlink:href="#DejaVuSans-2212"/>
       <use x="83.789062" xlink:href="#DejaVuSans-31"/>
       <use x="147.412109" xlink:href="#DejaVuSans-30"/>
       <use x="211.035156" xlink:href="#DejaVuSans-30"/>
       <use x="274.658203" xlink:href="#DejaVuSans-30"/>
      </g>
     </g>
    </g>
    <g id="xtick_5">
     <g id="line2d_5">
      <g>
       <use style="stroke:#000000;stroke-width:0.8;" x="590.4" xlink:href="#m510f2a7b64" y="768.96"/>
      </g>
     </g>
     <g id="text_5">
      <!-- 0 -->
      <g transform="translate(587.21875 783.558437)scale(0.1 -0.1)">
       <use xlink:href="#DejaVuSans-30"/>
      </g>
     </g>
    </g>
    <g id="xtick_6">
     <g id="line2d_6">
      <g>
       <use style="stroke:#000000;stroke-width:0.8;" x="702" xlink:href="#m510f2a7b64" y="768.96"/>
      </g>
     </g>
     <g id="text_6">
      <!-- 1000 -->
      <g transform="translate(689.275 783.558437)scale(0.1 -0.1)">
       <use xlink:href="#DejaVuSans-31"/>
       <use x="63.623047" xlink:href="#DejaVuSans-30"/>
       <use x="127.246094" xlink:href="#DejaVuSans-30"/>
       <use x="190.869141" xlink:href="#DejaVuSans-30"/>
      </g>
     </g>
    </g>
    <g id="xtick_7">
     <g id="line2d_7">
      <g>
       <use style="stroke:#000000;stroke-width:0.8;" x="813.6" xlink:href="#m510f2a7b64" y="768.96"/>
      </g>
     </g>
     <g id="text_7">
      <!-- 2000 -->
      <g transform="translate(800.875 783.558437)scale(0.1 -0.1)">
       <use xlink:href="#DejaVuSans-32"/>
       <use x="63.623047" xlink:href="#DejaVuSans-30"/>
       <use x="127.246094" xlink:href="#DejaVuSans-30"/>
       <use x="190.869141" xlink:href="#DejaVuSans-30"/>
      </g>
     </g>
    </g>
    <g id="xtick_8">
     <g id="line2d_8">
      <g>
       <use style="stroke:#000000;stroke-width:0.8;" x="925.2" xlink:href="#m510f2a7b64" y="768.96"/>
      </g>
     </g>
     <g id="text_8">
      <!-- 3000 -->
      <g transform="translate(912.475 783.558437)scale(0.1 -0.1)">
       <use xlink:href="#DejaVuSans-33"/>
       <use x="63.623047" xlink:href="#DejaVuSans-30"/>
       <use x="127.246094" xlink:href="#DejaVuSans-30"/>
       <use x="190.869141" xlink:href="#DejaVuSans-30"/>
      </g>
     </g>
    </g>
    <g id="xtick_9">
     <g id="line2d_9">
      <g>
       <use style="stroke:#000000;stroke-width:0.8;" x="1036.8" xlink:href="#m510f2a7b64" y="768.96"/>
      </g>
     </g>
     <g id="text_9">
      <!-- 4000 -->
      <g transform="translate(1024.075 783.558437)scale(0.1 -0.1)">
       <use xlink:href="#DejaVuSans-34"/>
       <use x="63.623047" xlink:href="#DejaVuSans-30"/>
       <use x="127.246094" xlink:href="#DejaVuSans-30"/>
       <use x="190.869141" xlink:href="#DejaVuSans-30"/>
      </g>
     </g>
    </g>
   </g>
   <g id="matplotlib.axis_2">
    <g id="ytick_1">
     <g id="line2d_10">
      <defs>
       <path d="M 0 0 
L -3.5 0 
" id="m0ed09cb7a0" style="stroke:#000000;stroke-width:0.8;"/>
      </defs>
      <g>
       <use style="stroke:#000000;stroke-width:0.8;" x="144" xlink:href="#m0ed09cb7a0" y="768.96"/>
      </g>
     </g>
     <g id="text_10">
      <!-- −4000 -->
      <g transform="translate(103.170312 772.759219)scale(0.1 -0.1)">
       <use xlink:href="#DejaVuSans-2212"/>
       <use x="83.789062" xlink:href="#DejaVuSans-34"/>
       <use x="147.412109" xlink:href="#DejaVuSans-30"/>
       <use x="211.035156" xlink:href="#DejaVuSans-30"/>
       <use x="274.658203" xlink:href="#DejaVuSans-30"/>
      </g>
     </g>
    </g>
    <g id="ytick_2">
     <g id="line2d_11">
      <g>
       <use style="stroke:#000000;stroke-width:0.8;" x="144" xlink:href="#m0ed09cb7a0" y="685.8"/>
      </g>
     </g>
     <g id="text_11">
      <!-- −3000 -->
      <g transform="translate(103.170312 689.599219)scale(0.1 -0.1)">
       <use xlink:href="#DejaVuSans-2212"/>
       <use x="83.789062" xlink:href="#DejaVuSans-33"/>
       <use x="147.412109" xlink:href="#DejaVuSans-30"/>
       <use x="211.035156" xlink:href="#DejaVuSans-30"/>
       <use x="274.658203" xlink:href="#DejaVuSans-30"/>
      </g>
     </g>
    </g>
    <g id="ytick_3">
     <g id="line2d_12">
      <g>
       <use style="stroke:#000000;stroke-width:0.8;" x="144" xlink:href="#m0ed09cb7a0" y="602.64"/>
      </g>
     </g>
     <g id="text_12">
      <!-- −2000 -->
      <g transform="translate(103.170312 606.439219)scale(0.1 -0.1)">
       <use xlink:href="#DejaVuSans-2212"/>
       <use x="83.789062" xlink:href="#DejaVuSans-32"/>
       <use x="147.412109" xlink:href="#DejaVuSans-30"/>
       <use x="211.035156" xlink:href="#DejaVuSans-30"/>
       <use x="274.658203" xlink:href="#DejaVuSans-30"/>
      </g>
     </g>
    </g>
    <g id="ytick_4">
     <g id="line2d_13">
      <g>
       <use style="stroke:#000000;stroke-width:0.8;" x="144" xlink:href="#m0ed09cb7a0" y="519.48"/>
      </g>
     </g>
     <g id="text_13">
      <!-- −1000 -->
      <g transform="translate(103.170312 523.279219)scale(0.1 -0.1)">
       <use xlink:href="#DejaVuSans-2212"/>
       <use x="83.789062" xlink:href="#DejaVuSans-31"/>
       <use x="147.412109" xlink:href="#DejaVuSans-30"/>
       <use x="211.035156" xlink:href="#DejaVuSans-30"/>
       <use x="274.658203" xlink:href="#DejaVuSans-30"/>
      </g>
     </g>
    </g>
    <g id="ytick_5">
     <g id="line2d_14">
      <g>
       <use style="stroke:#000000;stroke-width:0.8;" x="144" xlink:href="#m0ed09cb7a0" y="436.32"/>
      </g>
     </g>
     <g id="text_14">
      <!-- 0 -->
      <g transform="translate(130.6375 440.119219)scale(0.1 -0.1)">
       <use xlink:href="#DejaVuSans-30"/>
      </g>
     </g>
    </g>
    <g id="ytick_6">
     <g id="line2d_15">
      <g>
       <use style="stroke:#000000;stroke-width:0.8;" x="144" xlink:href="#m0ed09cb7a0" y="353.16"/>
      </g>
     </g>
     <g id="text_15">
      <!-- 1000 -->
      <g transform="translate(111.55 356.959219)scale(0.1 -0.1)">
       <use xlink:href="#DejaVuSans-31"/>
       <use x="63.623047" xlink:href="#DejaVuSans-30"/>
       <use x="127.246094" xlink:href="#DejaVuSans-30"/>
       <use x="190.869141" xlink:href="#DejaVuSans-30"/>
      </g>
     </g>
    </g>
    <g id="ytick_7">
     <g id="line2d_16">
      <g>
       <use style="stroke:#000000;stroke-width:0.8;" x="144" xlink:href="#m0ed09cb7a0" y="270"/>
      </g>
     </g>
     <g id="text_16">
      <!-- 2000 -->
      <g transform="translate(111.55 273.799219)scale(0.1 -0.1)">
       <use xlink:href="#DejaVuSans-32"/>
       <use x="63.623047" xlink:href="#DejaVuSans-30"/>
       <use x="127.246094" xlink:href="#DejaVuSans-30"/>
       <use x="190.869141" xlink:href="#DejaVuSans-30"/>
      </g>
     </g>
    </g>
    <g id="ytick_8">
     <g id="line2d_17">
      <g>
       <use style="stroke:#000000;stroke-width:0.8;" x="144" xlink:href="#m0ed09cb7a0" y="186.84"/>
      </g>
     </g>
     <g id="text_17">
      <!-- 3000 -->
      <g transform="translate(111.55 190.639219)scale(0.1 -0.1)">
       <use xlink:href="#DejaVuSans-33"/>
       <use x="63.623047" xlink:href="#DejaVuSans-30"/>
       <use x="127.246094" xlink:href="#DejaVuSans-30"/>
       <use x="190.869141" xlink:href="#DejaVuSans-30"/>
      </g>
     </g>
    </g>
    <g id="ytick_9">
     <g id="line2d_18">
      <g>
       <use style="stroke:#000000;stroke-width:0.8;" x="144" xlink:href="#m0ed09cb7a0" y="103.68"/>
      </g>
     </g>
     <g id="text_18">
      <!-- 4000 -->
      <g transform="translate(111.55 107.479219)scale(0.1 -0.1)">
       <use xlink:href="#DejaVuSans-34"/>
       <use x="63.623047" xlink:href="#DejaVuSans-30"/>
       <use x="127.246094" xlink:href="#DejaVuSans-30"/>
       <use x="190.869141" xlink:href="#DejaVuSans-30"/>
      </g>
     </g>
    </g>
   </g>
   <g id="line2d_19">
    <path clip-path="url(#p6aa3c105de)" d="M 590.4 768.96 
L 590.4 103.68 
" style="fill:none;stroke:#1f77b4;stroke-linecap:square;stroke-width:1.5;"/>
   </g>
   <g id="line2d_20">
    <path clip-path="url(#p6aa3c105de)" d="M 144 436.32 
L 1036.8 436.32 
" style="fill:none;stroke:#1f77b4;stroke-linecap:square;stroke-width:1.5;"/>
   </g>
   <g id="line2d_21">
    <defs>
     <path d="M 0 3 
C 0.795609 3 1.55874 2.683901 2.12132 2.12132 
C 2.683901 1.55874 3 0.795609 3 0 
C 3 -0.795609 2.683901 -1.55874 2.12132 -2.12132 
C 1.55874 -2.683901 0.795609 -3 0 -3 
C -0.795609 -3 -1.55874 -2.683901 -2.12132 -2.12132 
C -2.683901 -1.55874 -3 -0.795609 -3 0 
C -3 0.795609 -2.683901 1.55874 -2.12132 2.12132 
C -1.55874 2.683901 -0.795609 3 0 3 
z
" id="mbbd8514324" style="stroke:#008000;"/>
    </defs>
    <g clip-path="url(#p6aa3c105de)">
     <use style="fill:#008000;stroke:#008000;" x="1181.568996" xlink:href="#mbbd8514324" y="494.681747"/>
    </g>
   </g>
   <g id="line2d_22">
    <g clip-path="url(#p6aa3c105de)">
     <use style="fill:#008000;stroke:#008000;" x="1411.377108" xlink:href="#mbbd8514324" y="489.337806"/>
    </g>
   </g>
   <g id="line2d_23">
    <g clip-path="url(#p6aa3c105de)">
     <use style="fill:#008000;stroke:#008000;" x="1262.665532" xlink:href="#mbbd8514324" y="337.811241"/>
    </g>
   </g>
   <g id="line2d_24">
    <g clip-path="url(#p6aa3c105de)">
     <use style="fill:#008000;stroke:#008000;" x="1321.66228" xlink:href="#mbbd8514324" y="275.557144"/>
    </g>
   </g>
   <g id="line2d_25">
    <g clip-path="url(#p6aa3c105de)">
     <use style="fill:#008000;stroke:#008000;" x="647.940662" xlink:href="#mbbd8514324" y="391.70085"/>
    </g>
   </g>
   <g id="line2d_26">
    <g clip-path="url(#p6aa3c105de)">
     <use style="fill:#008000;stroke:#008000;" x="647.940662" xlink:href="#mbbd8514324" y="391.70085"/>
    </g>
   </g>
   <g id="line2d_27">
    <g clip-path="url(#p6aa3c105de)">
     <use style="fill:#008000;stroke:#008000;" x="732.047278" xlink:href="#mbbd8514324" y="200.290795"/>
    </g>
   </g>
   <g id="line2d_28">
    <g clip-path="url(#p6aa3c105de)">
     <use style="fill:#008000;stroke:#008000;" x="481.046983" xlink:href="#mbbd8514324" y="242.886924"/>
    </g>
   </g>
   <g id="line2d_29">
    <g clip-path="url(#p6aa3c105de)">
     <use style="fill:#008000;stroke:#008000;" x="559.786551" xlink:href="#mbbd8514324" y="399.253284"/>
    </g>
   </g>
   <g id="line2d_30">
    <g clip-path="url(#p6aa3c105de)">
     <use style="fill:#008000;stroke:#008000;" x="559.786551" xlink:href="#mbbd8514324" y="399.253284"/>
    </g>
   </g>
   <g id="line2d_31">
    <g clip-path="url(#p6aa3c105de)">
     <use style="fill:#008000;stroke:#008000;" x="391.136683" xlink:href="#mbbd8514324" y="276.218009"/>
    </g>
   </g>
   <g id="line2d_32">
    <g clip-path="url(#p6aa3c105de)">
     <use style="fill:#008000;stroke:#008000;" x="391.136683" xlink:href="#mbbd8514324" y="276.218009"/>
    </g>
   </g>
   <g id="line2d_33">
    <g clip-path="url(#p6aa3c105de)">
     <use style="fill:#008000;stroke:#008000;" x="947.783951" xlink:href="#mbbd8514324" y="551.85534"/>
    </g>
   </g>
   <g id="line2d_34">
    <g clip-path="url(#p6aa3c105de)">
     <use style="fill:#008000;stroke:#008000;" x="1055.408205" xlink:href="#mbbd8514324" y="550.266356"/>
    </g>
   </g>
   <g id="line2d_35">
    <defs>
     <path d="M 0 1.333333 
C 0.353604 1.333333 0.692773 1.192845 0.942809 0.942809 
C 1.192845 0.692773 1.333333 0.353604 1.333333 0 
C 1.333333 -0.353604 1.192845 -0.692773 0.942809 -0.942809 
C 0.692773 -1.192845 0.353604 -1.333333 0 -1.333333 
C -0.353604 -1.333333 -0.692773 -1.192845 -0.942809 -0.942809 
C -1.192845 -0.692773 -1.333333 -0.353604 -1.333333 0 
C -1.333333 0.353604 -1.192845 0.692773 -0.942809 0.942809 
C -0.692773 1.192845 -0.353604 1.333333 0 1.333333 
z
" id="mf3873d700b" style="stroke:#ff0000;"/>
    </defs>
    <g clip-path="url(#p6aa3c105de)">
     <use style="fill:#ff0000;stroke:#ff0000;" x="1181.568996" xlink:href="#mf3873d700b" y="494.681747"/>
     <use style="fill:#ff0000;stroke:#ff0000;" x="1411.377108" xlink:href="#mf3873d700b" y="489.337806"/>
     <use style="fill:#ff0000;stroke:#ff0000;" x="1262.665532" xlink:href="#mf3873d700b" y="337.811241"/>
     <use style="fill:#ff0000;stroke:#ff0000;" x="1321.66228" xlink:href="#mf3873d700b" y="275.557144"/>
     <use style="fill:#ff0000;stroke:#ff0000;" x="650.097991" xlink:href="#mf3873d700b" y="399.486406"/>
     <use style="fill:#ff0000;stroke:#ff0000;" x="644.133758" xlink:href="#mf3873d700b" y="383.842746"/>
     <use style="fill:#ff0000;stroke:#ff0000;" x="785.625181" xlink:href="#mf3873d700b" y="192.103006"/>
     <use style="fill:#ff0000;stroke:#ff0000;" x="762.970951" xlink:href="#mf3873d700b" y="195.581164"/>
     <use style="fill:#ff0000;stroke:#ff0000;" x="742.366352" xlink:href="#mf3873d700b" y="198.240563"/>
     <use style="fill:#ff0000;stroke:#ff0000;" x="721.942363" xlink:href="#mf3873d700b" y="202.56817"/>
     <use style="fill:#ff0000;stroke:#ff0000;" x="481.046983" xlink:href="#mf3873d700b" y="242.886924"/>
     <use style="fill:#ff0000;stroke:#ff0000;" x="560.983956" xlink:href="#mf3873d700b" y="398.851169"/>
     <use style="fill:#ff0000;stroke:#ff0000;" x="558.598609" xlink:href="#mf3873d700b" y="399.676614"/>
     <use style="fill:#ff0000;stroke:#ff0000;" x="396.077688" xlink:href="#mf3873d700b" y="272.741627"/>
     <use style="fill:#ff0000;stroke:#ff0000;" x="386.307483" xlink:href="#mf3873d700b" y="279.777136"/>
     <use style="fill:#ff0000;stroke:#ff0000;" x="418.979542" xlink:href="#mf3873d700b" y="317.204356"/>
     <use style="fill:#ff0000;stroke:#ff0000;" x="433.144749" xlink:href="#mf3873d700b" y="346.353438"/>
     <use style="fill:#ff0000;stroke:#ff0000;" x="401.38709" xlink:href="#mf3873d700b" y="364.894175"/>
     <use style="fill:#ff0000;stroke:#ff0000;" x="454.554448" xlink:href="#mf3873d700b" y="391.548277"/>
     <use style="fill:#ff0000;stroke:#ff0000;" x="435.020553" xlink:href="#mf3873d700b" y="414.860936"/>
     <use style="fill:#ff0000;stroke:#ff0000;" x="418.062315" xlink:href="#mf3873d700b" y="424.519917"/>
     <use style="fill:#ff0000;stroke:#ff0000;" x="410.845739" xlink:href="#mf3873d700b" y="442.271373"/>
     <use style="fill:#ff0000;stroke:#ff0000;" x="411.618019" xlink:href="#mf3873d700b" y="510.355923"/>
     <use style="fill:#ff0000;stroke:#ff0000;" x="454.067958" xlink:href="#mf3873d700b" y="499.800078"/>
     <use style="fill:#ff0000;stroke:#ff0000;" x="432.299302" xlink:href="#mf3873d700b" y="517.288927"/>
     <use style="fill:#ff0000;stroke:#ff0000;" x="451.571006" xlink:href="#mf3873d700b" y="514.807252"/>
     <use style="fill:#ff0000;stroke:#ff0000;" x="469.174386" xlink:href="#mf3873d700b" y="512.118081"/>
     <use style="fill:#ff0000;stroke:#ff0000;" x="457.435276" xlink:href="#mf3873d700b" y="527.110244"/>
     <use style="fill:#ff0000;stroke:#ff0000;" x="468.799279" xlink:href="#mf3873d700b" y="536.34991"/>
     <use style="fill:#ff0000;stroke:#ff0000;" x="451.606049" xlink:href="#mf3873d700b" y="560.949979"/>
     <use style="fill:#ff0000;stroke:#ff0000;" x="523.005536" xlink:href="#mf3873d700b" y="504.420852"/>
     <use style="fill:#ff0000;stroke:#ff0000;" x="575.912515" xlink:href="#mf3873d700b" y="501.376252"/>
     <use style="fill:#ff0000;stroke:#ff0000;" x="579.910184" xlink:href="#mf3873d700b" y="612.050432"/>
     <use style="fill:#ff0000;stroke:#ff0000;" x="590.474937" xlink:href="#mf3873d700b" y="641.080702"/>
     <use style="fill:#ff0000;stroke:#ff0000;" x="601.668249" xlink:href="#mf3873d700b" y="611.128676"/>
     <use style="fill:#ff0000;stroke:#ff0000;" x="615.822212" xlink:href="#mf3873d700b" y="634.188439"/>
     <use style="fill:#ff0000;stroke:#ff0000;" x="666.733176" xlink:href="#mf3873d700b" y="633.064971"/>
     <use style="fill:#ff0000;stroke:#ff0000;" x="669.591987" xlink:href="#mf3873d700b" y="609.230196"/>
     <use style="fill:#ff0000;stroke:#ff0000;" x="672.84053" xlink:href="#mf3873d700b" y="591.527699"/>
     <use style="fill:#ff0000;stroke:#ff0000;" x="700.67102" xlink:href="#mf3873d700b" y="598.57034"/>
     <use style="fill:#ff0000;stroke:#ff0000;" x="744.085063" xlink:href="#mf3873d700b" y="601.881698"/>
     <use style="fill:#ff0000;stroke:#ff0000;" x="807.514104" xlink:href="#mf3873d700b" y="582.471935"/>
     <use style="fill:#ff0000;stroke:#ff0000;" x="833.004054" xlink:href="#mf3873d700b" y="585.177304"/>
     <use style="fill:#ff0000;stroke:#ff0000;" x="855.278901" xlink:href="#mf3873d700b" y="569.687883"/>
     <use style="fill:#ff0000;stroke:#ff0000;" x="887.695062" xlink:href="#mf3873d700b" y="557.857041"/>
     <use style="fill:#ff0000;stroke:#ff0000;" x="947.783951" xlink:href="#mf3873d700b" y="551.85534"/>
     <use style="fill:#ff0000;stroke:#ff0000;" x="1055.408205" xlink:href="#mf3873d700b" y="550.266356"/>
     <use style="fill:#ff0000;stroke:#ff0000;" x="1100.282012" xlink:href="#mf3873d700b" y="523.38249"/>
     <use style="fill:#ff0000;stroke:#ff0000;" x="1110.85761" xlink:href="#mf3873d700b" y="506.340944"/>
    </g>
   </g>
   <g id="line2d_36">
    <defs>
     <path d="M -0.5 0.5 
L 0.5 0.5 
L 0.5 -0.5 
L -0.5 -0.5 
z
" id="m9e88a45085" style="stroke:#1f77b4;stroke-linejoin:miter;"/>
    </defs>
    <g clip-path="url(#p6aa3c105de)">
     <use style="fill:#1f77b4;stroke:#1f77b4;stroke-linejoin:miter;" x="1181.568996" xlink:href="#m9e88a45085" y="494.681747"/>
     <use style="fill:#1f77b4;stroke:#1f77b4;stroke-linejoin:miter;" x="1411.377108" xlink:href="#m9e88a45085" y="489.337806"/>
     <use style="fill:#1f77b4;stroke:#1f77b4;stroke-linejoin:miter;" x="1262.665532" xlink:href="#m9e88a45085" y="337.811241"/>
     <use style="fill:#1f77b4;stroke:#1f77b4;stroke-linejoin:miter;" x="1321.66228" xlink:href="#m9e88a45085" y="275.557144"/>
     <use style="fill:#1f77b4;stroke:#1f77b4;stroke-linejoin:miter;" x="650.097991" xlink:href="#m9e88a45085" y="399.486406"/>
     <use style="fill:#1f77b4;stroke:#1f77b4;stroke-linejoin:miter;" x="647.398653" xlink:href="#m9e88a45085" y="397.676605"/>
     <use style="fill:#1f77b4;stroke:#1f77b4;stroke-linejoin:miter;" x="645.946859" xlink:href="#m9e88a45085" y="395.063863"/>
     <use style="fill:#1f77b4;stroke:#1f77b4;stroke-linejoin:miter;" x="642.778648" xlink:href="#m9e88a45085" y="393.468272"/>
     <use style="fill:#1f77b4;stroke:#1f77b4;stroke-linejoin:miter;" x="641.796038" xlink:href="#m9e88a45085" y="390.322307"/>
     <use style="fill:#1f77b4;stroke:#1f77b4;stroke-linejoin:miter;" x="644.133758" xlink:href="#m9e88a45085" y="383.842746"/>
     <use style="fill:#1f77b4;stroke:#1f77b4;stroke-linejoin:miter;" x="785.625181" xlink:href="#m9e88a45085" y="192.103006"/>
     <use style="fill:#1f77b4;stroke:#1f77b4;stroke-linejoin:miter;" x="762.970951" xlink:href="#m9e88a45085" y="195.581164"/>
     <use style="fill:#1f77b4;stroke:#1f77b4;stroke-linejoin:miter;" x="742.366352" xlink:href="#m9e88a45085" y="198.240563"/>
     <use style="fill:#1f77b4;stroke:#1f77b4;stroke-linejoin:miter;" x="721.942363" xlink:href="#m9e88a45085" y="202.56817"/>
     <use style="fill:#1f77b4;stroke:#1f77b4;stroke-linejoin:miter;" x="704.167301" xlink:href="#m9e88a45085" y="204.583131"/>
     <use style="fill:#1f77b4;stroke:#1f77b4;stroke-linejoin:miter;" x="686.581071" xlink:href="#m9e88a45085" y="207.925056"/>
     <use style="fill:#1f77b4;stroke:#1f77b4;stroke-linejoin:miter;" x="670.071671" xlink:href="#m9e88a45085" y="210.823609"/>
     <use style="fill:#1f77b4;stroke:#1f77b4;stroke-linejoin:miter;" x="654.810016" xlink:href="#m9e88a45085" y="212.021583"/>
     <use style="fill:#1f77b4;stroke:#1f77b4;stroke-linejoin:miter;" x="639.798784" xlink:href="#m9e88a45085" y="214.868046"/>
     <use style="fill:#1f77b4;stroke:#1f77b4;stroke-linejoin:miter;" x="624.343271" xlink:href="#m9e88a45085" y="216.983753"/>
     <use style="fill:#1f77b4;stroke:#1f77b4;stroke-linejoin:miter;" x="610.367967" xlink:href="#m9e88a45085" y="219.282882"/>
     <use style="fill:#1f77b4;stroke:#1f77b4;stroke-linejoin:miter;" x="596.442095" xlink:href="#m9e88a45085" y="221.939213"/>
     <use style="fill:#1f77b4;stroke:#1f77b4;stroke-linejoin:miter;" x="583.201704" xlink:href="#m9e88a45085" y="224.870563"/>
     <use style="fill:#1f77b4;stroke:#1f77b4;stroke-linejoin:miter;" x="569.79056" xlink:href="#m9e88a45085" y="225.777694"/>
     <use style="fill:#1f77b4;stroke:#1f77b4;stroke-linejoin:miter;" x="556.877697" xlink:href="#m9e88a45085" y="227.70647"/>
     <use style="fill:#1f77b4;stroke:#1f77b4;stroke-linejoin:miter;" x="544.475008" xlink:href="#m9e88a45085" y="232.162258"/>
     <use style="fill:#1f77b4;stroke:#1f77b4;stroke-linejoin:miter;" x="532.189008" xlink:href="#m9e88a45085" y="235.483263"/>
     <use style="fill:#1f77b4;stroke:#1f77b4;stroke-linejoin:miter;" x="519.615583" xlink:href="#m9e88a45085" y="237.738022"/>
     <use style="fill:#1f77b4;stroke:#1f77b4;stroke-linejoin:miter;" x="507.053448" xlink:href="#m9e88a45085" y="239.155485"/>
     <use style="fill:#1f77b4;stroke:#1f77b4;stroke-linejoin:miter;" x="494.429262" xlink:href="#m9e88a45085" y="241.3282"/>
     <use style="fill:#1f77b4;stroke:#1f77b4;stroke-linejoin:miter;" x="481.046983" xlink:href="#m9e88a45085" y="242.886924"/>
     <use style="fill:#1f77b4;stroke:#1f77b4;stroke-linejoin:miter;" x="560.983956" xlink:href="#m9e88a45085" y="398.851169"/>
     <use style="fill:#1f77b4;stroke:#1f77b4;stroke-linejoin:miter;" x="558.598609" xlink:href="#m9e88a45085" y="399.676614"/>
     <use style="fill:#1f77b4;stroke:#1f77b4;stroke-linejoin:miter;" x="396.077688" xlink:href="#m9e88a45085" y="272.741627"/>
     <use style="fill:#1f77b4;stroke:#1f77b4;stroke-linejoin:miter;" x="386.307483" xlink:href="#m9e88a45085" y="279.777136"/>
     <use style="fill:#1f77b4;stroke:#1f77b4;stroke-linejoin:miter;" x="418.979542" xlink:href="#m9e88a45085" y="317.204356"/>
     <use style="fill:#1f77b4;stroke:#1f77b4;stroke-linejoin:miter;" x="433.144749" xlink:href="#m9e88a45085" y="346.353438"/>
     <use style="fill:#1f77b4;stroke:#1f77b4;stroke-linejoin:miter;" x="417.929876" xlink:href="#m9e88a45085" y="346.747901"/>
     <use style="fill:#1f77b4;stroke:#1f77b4;stroke-linejoin:miter;" x="419.720906" xlink:href="#m9e88a45085" y="356.363867"/>
     <use style="fill:#1f77b4;stroke:#1f77b4;stroke-linejoin:miter;" x="405.813905" xlink:href="#m9e88a45085" y="358.351364"/>
     <use style="fill:#1f77b4;stroke:#1f77b4;stroke-linejoin:miter;" x="401.38709" xlink:href="#m9e88a45085" y="364.894175"/>
     <use style="fill:#1f77b4;stroke:#1f77b4;stroke-linejoin:miter;" x="454.554448" xlink:href="#m9e88a45085" y="391.548277"/>
     <use style="fill:#1f77b4;stroke:#1f77b4;stroke-linejoin:miter;" x="455.500524" xlink:href="#m9e88a45085" y="397.449931"/>
     <use style="fill:#1f77b4;stroke:#1f77b4;stroke-linejoin:miter;" x="456.529857" xlink:href="#m9e88a45085" y="403.184314"/>
     <use style="fill:#1f77b4;stroke:#1f77b4;stroke-linejoin:miter;" x="458.513736" xlink:href="#m9e88a45085" y="408.718844"/>
     <use style="fill:#1f77b4;stroke:#1f77b4;stroke-linejoin:miter;" x="453.831542" xlink:href="#m9e88a45085" y="412.796343"/>
     <use style="fill:#1f77b4;stroke:#1f77b4;stroke-linejoin:miter;" x="435.020553" xlink:href="#m9e88a45085" y="414.860936"/>
     <use style="fill:#1f77b4;stroke:#1f77b4;stroke-linejoin:miter;" x="418.062315" xlink:href="#m9e88a45085" y="424.519917"/>
     <use style="fill:#1f77b4;stroke:#1f77b4;stroke-linejoin:miter;" x="419.40051" xlink:href="#m9e88a45085" y="430.686994"/>
     <use style="fill:#1f77b4;stroke:#1f77b4;stroke-linejoin:miter;" x="420.600657" xlink:href="#m9e88a45085" y="436.216485"/>
     <use style="fill:#1f77b4;stroke:#1f77b4;stroke-linejoin:miter;" x="410.845739" xlink:href="#m9e88a45085" y="442.271373"/>
     <use style="fill:#1f77b4;stroke:#1f77b4;stroke-linejoin:miter;" x="395.186062" xlink:href="#m9e88a45085" y="449.366463"/>
     <use style="fill:#1f77b4;stroke:#1f77b4;stroke-linejoin:miter;" x="398.583682" xlink:href="#m9e88a45085" y="455.69308"/>
     <use style="fill:#1f77b4;stroke:#1f77b4;stroke-linejoin:miter;" x="400.389483" xlink:href="#m9e88a45085" y="462.402152"/>
     <use style="fill:#1f77b4;stroke:#1f77b4;stroke-linejoin:miter;" x="402.17336" xlink:href="#m9e88a45085" y="468.983533"/>
     <use style="fill:#1f77b4;stroke:#1f77b4;stroke-linejoin:miter;" x="403.101879" xlink:href="#m9e88a45085" y="475.599888"/>
     <use style="fill:#1f77b4;stroke:#1f77b4;stroke-linejoin:miter;" x="404.465504" xlink:href="#m9e88a45085" y="482.384668"/>
     <use style="fill:#1f77b4;stroke:#1f77b4;stroke-linejoin:miter;" x="406.769398" xlink:href="#m9e88a45085" y="488.845811"/>
     <use style="fill:#1f77b4;stroke:#1f77b4;stroke-linejoin:miter;" x="408.494893" xlink:href="#m9e88a45085" y="496.006958"/>
     <use style="fill:#1f77b4;stroke:#1f77b4;stroke-linejoin:miter;" x="411.618019" xlink:href="#m9e88a45085" y="510.355923"/>
     <use style="fill:#1f77b4;stroke:#1f77b4;stroke-linejoin:miter;" x="454.067958" xlink:href="#m9e88a45085" y="499.800078"/>
     <use style="fill:#1f77b4;stroke:#1f77b4;stroke-linejoin:miter;" x="432.299302" xlink:href="#m9e88a45085" y="517.288927"/>
     <use style="fill:#1f77b4;stroke:#1f77b4;stroke-linejoin:miter;" x="451.571006" xlink:href="#m9e88a45085" y="514.807252"/>
     <use style="fill:#1f77b4;stroke:#1f77b4;stroke-linejoin:miter;" x="469.174386" xlink:href="#m9e88a45085" y="512.118081"/>
     <use style="fill:#1f77b4;stroke:#1f77b4;stroke-linejoin:miter;" x="457.435276" xlink:href="#m9e88a45085" y="527.110244"/>
     <use style="fill:#1f77b4;stroke:#1f77b4;stroke-linejoin:miter;" x="457.269048" xlink:href="#m9e88a45085" y="535.957839"/>
     <use style="fill:#1f77b4;stroke:#1f77b4;stroke-linejoin:miter;" x="468.799279" xlink:href="#m9e88a45085" y="536.34991"/>
     <use style="fill:#1f77b4;stroke:#1f77b4;stroke-linejoin:miter;" x="451.606049" xlink:href="#m9e88a45085" y="560.949979"/>
     <use style="fill:#1f77b4;stroke:#1f77b4;stroke-linejoin:miter;" x="523.005536" xlink:href="#m9e88a45085" y="504.420852"/>
     <use style="fill:#1f77b4;stroke:#1f77b4;stroke-linejoin:miter;" x="533.076559" xlink:href="#m9e88a45085" y="500.817419"/>
     <use style="fill:#1f77b4;stroke:#1f77b4;stroke-linejoin:miter;" x="541.174962" xlink:href="#m9e88a45085" y="497.859898"/>
     <use style="fill:#1f77b4;stroke:#1f77b4;stroke-linejoin:miter;" x="547.043668" xlink:href="#m9e88a45085" y="496.961757"/>
     <use style="fill:#1f77b4;stroke:#1f77b4;stroke-linejoin:miter;" x="551.49743" xlink:href="#m9e88a45085" y="497.698026"/>
     <use style="fill:#1f77b4;stroke:#1f77b4;stroke-linejoin:miter;" x="554.135389" xlink:href="#m9e88a45085" y="500.713256"/>
     <use style="fill:#1f77b4;stroke:#1f77b4;stroke-linejoin:miter;" x="558.083893" xlink:href="#m9e88a45085" y="502.313173"/>
     <use style="fill:#1f77b4;stroke:#1f77b4;stroke-linejoin:miter;" x="561.380286" xlink:href="#m9e88a45085" y="504.773524"/>
     <use style="fill:#1f77b4;stroke:#1f77b4;stroke-linejoin:miter;" x="566.43706" xlink:href="#m9e88a45085" y="503.918142"/>
     <use style="fill:#1f77b4;stroke:#1f77b4;stroke-linejoin:miter;" x="572.110572" xlink:href="#m9e88a45085" y="500.523488"/>
     <use style="fill:#1f77b4;stroke:#1f77b4;stroke-linejoin:miter;" x="575.912515" xlink:href="#m9e88a45085" y="501.376252"/>
     <use style="fill:#1f77b4;stroke:#1f77b4;stroke-linejoin:miter;" x="579.910184" xlink:href="#m9e88a45085" y="612.050432"/>
     <use style="fill:#1f77b4;stroke:#1f77b4;stroke-linejoin:miter;" x="590.474937" xlink:href="#m9e88a45085" y="641.080702"/>
     <use style="fill:#1f77b4;stroke:#1f77b4;stroke-linejoin:miter;" x="601.668249" xlink:href="#m9e88a45085" y="611.128676"/>
     <use style="fill:#1f77b4;stroke:#1f77b4;stroke-linejoin:miter;" x="615.822212" xlink:href="#m9e88a45085" y="634.188439"/>
     <use style="fill:#1f77b4;stroke:#1f77b4;stroke-linejoin:miter;" x="629.441586" xlink:href="#m9e88a45085" y="640.095567"/>
     <use style="fill:#1f77b4;stroke:#1f77b4;stroke-linejoin:miter;" x="666.733176" xlink:href="#m9e88a45085" y="633.064971"/>
     <use style="fill:#1f77b4;stroke:#1f77b4;stroke-linejoin:miter;" x="669.591987" xlink:href="#m9e88a45085" y="609.230196"/>
     <use style="fill:#1f77b4;stroke:#1f77b4;stroke-linejoin:miter;" x="672.84053" xlink:href="#m9e88a45085" y="591.527699"/>
     <use style="fill:#1f77b4;stroke:#1f77b4;stroke-linejoin:miter;" x="688.427966" xlink:href="#m9e88a45085" y="598.714004"/>
     <use style="fill:#1f77b4;stroke:#1f77b4;stroke-linejoin:miter;" x="700.67102" xlink:href="#m9e88a45085" y="598.57034"/>
     <use style="fill:#1f77b4;stroke:#1f77b4;stroke-linejoin:miter;" x="744.085063" xlink:href="#m9e88a45085" y="601.881698"/>
     <use style="fill:#1f77b4;stroke:#1f77b4;stroke-linejoin:miter;" x="756.178921" xlink:href="#m9e88a45085" y="598.497323"/>
     <use style="fill:#1f77b4;stroke:#1f77b4;stroke-linejoin:miter;" x="763.786255" xlink:href="#m9e88a45085" y="590.21018"/>
     <use style="fill:#1f77b4;stroke:#1f77b4;stroke-linejoin:miter;" x="775.385354" xlink:href="#m9e88a45085" y="585.929085"/>
     <use style="fill:#1f77b4;stroke:#1f77b4;stroke-linejoin:miter;" x="789.61454" xlink:href="#m9e88a45085" y="583.23654"/>
     <use style="fill:#1f77b4;stroke:#1f77b4;stroke-linejoin:miter;" x="807.514104" xlink:href="#m9e88a45085" y="582.471935"/>
     <use style="fill:#1f77b4;stroke:#1f77b4;stroke-linejoin:miter;" x="833.004054" xlink:href="#m9e88a45085" y="585.177304"/>
     <use style="fill:#1f77b4;stroke:#1f77b4;stroke-linejoin:miter;" x="836.48258" xlink:href="#m9e88a45085" y="572.938468"/>
     <use style="fill:#1f77b4;stroke:#1f77b4;stroke-linejoin:miter;" x="855.278901" xlink:href="#m9e88a45085" y="569.687883"/>
     <use style="fill:#1f77b4;stroke:#1f77b4;stroke-linejoin:miter;" x="887.695062" xlink:href="#m9e88a45085" y="557.857041"/>
     <use style="fill:#1f77b4;stroke:#1f77b4;stroke-linejoin:miter;" x="947.783951" xlink:href="#m9e88a45085" y="551.85534"/>
     <use style="fill:#1f77b4;stroke:#1f77b4;stroke-linejoin:miter;" x="1055.408205" xlink:href="#m9e88a45085" y="550.266356"/>
     <use style="fill:#1f77b4;stroke:#1f77b4;stroke-linejoin:miter;" x="1100.282012" xlink:href="#m9e88a45085" y="523.38249"/>
     <use style="fill:#1f77b4;stroke:#1f77b4;stroke-linejoin:miter;" x="1110.85761" xlink:href="#m9e88a45085" y="506.340944"/>
    </g>
   </g>
   <g id="patch_3">
    <path d="M 144 768.96 
L 144 103.68 
" style="fill:none;stroke:#000000;stroke-linecap:square;stroke-linejoin:miter;stroke-width:0.8;"/>
   </g>
   <g id="patch_4">
    <path d="M 1036.8 768.96 
L 1036.8 103.68 
" style="fill:none;stroke:#000000;stroke-linecap:square;stroke-linejoin:miter;stroke-width:0.8;"/>
   </g>
   <g id="patch_5">
    <path d="M 144 768.96 
L 1036.8 768.96 
" style="fill:none;stroke:#000000;stroke-linecap:square;stroke-linejoin:miter;stroke-width:0.8;"/>
   </g>
   <g id="patch_6">
    <path d="M 144 103.68 
L 1036.8 103.68 
" style="fill:none;stroke:#000000;stroke-linecap:square;stroke-linejoin:miter;stroke-width:0.8;"/>
   </g>
  </g>
 </g>
 <defs>
  <clipPath id="p6aa3c105de">
   <rect height="665.28" width="892.8" x="144" y="103.68"/>
  </clipPath>
 </defs>
</svg>
