<?xml version="1.0" encoding="utf-8" standalone="no"?>
<!DOCTYPE svg PUBLIC "-//W3C//DTD SVG 1.1//EN"
  "http://www.w3.org/Graphics/SVG/1.1/DTD/svg11.dtd">
<!-- Created with matplotlib (http://matplotlib.org/) -->
<svg height="864pt" version="1.1" viewBox="0 0 1152 864" width="1152pt" xmlns="http://www.w3.org/2000/svg" xmlns:xlink="http://www.w3.org/1999/xlink">
 <defs>
  <style type="text/css">
*{stroke-linecap:butt;stroke-linejoin:round;}
  </style>
 </defs>
 <g id="figure_1">
  <g id="patch_1">
   <path d="M 0 864 
L 1152 864 
L 1152 0 
L 0 0 
z
" style="fill:#ffffff;"/>
  </g>
  <g id="axes_1">
   <g id="patch_2">
    <path d="M 144 768.96 
L 1036.8 768.96 
L 1036.8 103.68 
L 144 103.68 
z
" style="fill:#ffffff;"/>
   </g>
   <g id="matplotlib.axis_1">
    <g id="xtick_1">
     <g id="line2d_1">
      <defs>
       <path d="M 0 0 
L 0 3.5 
" id="m4cd12c31d2" style="stroke:#000000;stroke-width:0.8;"/>
      </defs>
      <g>
       <use style="stroke:#000000;stroke-width:0.8;" x="144" xlink:href="#m4cd12c31d2" y="768.96"/>
      </g>
     </g>
     <g id="text_1">
      <!-- −4000 -->
      <defs>
       <path d="M 10.59375 35.5 
L 73.1875 35.5 
L 73.1875 27.203125 
L 10.59375 27.203125 
z
" id="DejaVuSans-2212"/>
       <path d="M 37.796875 64.3125 
L 12.890625 25.390625 
L 37.796875 25.390625 
z
M 35.203125 72.90625 
L 47.609375 72.90625 
L 47.609375 25.390625 
L 58.015625 25.390625 
L 58.015625 17.1875 
L 47.609375 17.1875 
L 47.609375 0 
L 37.796875 0 
L 37.796875 17.1875 
L 4.890625 17.1875 
L 4.890625 26.703125 
z
" id="DejaVuSans-34"/>
       <path d="M 31.78125 66.40625 
Q 24.171875 66.40625 20.328125 58.90625 
Q 16.5 51.421875 16.5 36.375 
Q 16.5 21.390625 20.328125 13.890625 
Q 24.171875 6.390625 31.78125 6.390625 
Q 39.453125 6.390625 43.28125 13.890625 
Q 47.125 21.390625 47.125 36.375 
Q 47.125 51.421875 43.28125 58.90625 
Q 39.453125 66.40625 31.78125 66.40625 
z
M 31.78125 74.21875 
Q 44.046875 74.21875 50.515625 64.515625 
Q 56.984375 54.828125 56.984375 36.375 
Q 56.984375 17.96875 50.515625 8.265625 
Q 44.046875 -1.421875 31.78125 -1.421875 
Q 19.53125 -1.421875 13.0625 8.265625 
Q 6.59375 17.96875 6.59375 36.375 
Q 6.59375 54.828125 13.0625 64.515625 
Q 19.53125 74.21875 31.78125 74.21875 
z
" id="DejaVuSans-30"/>
      </defs>
      <g transform="translate(127.085156 783.558437)scale(0.1 -0.1)">
       <use xlink:href="#DejaVuSans-2212"/>
       <use x="83.789062" xlink:href="#DejaVuSans-34"/>
       <use x="147.412109" xlink:href="#DejaVuSans-30"/>
       <use x="211.035156" xlink:href="#DejaVuSans-30"/>
       <use x="274.658203" xlink:href="#DejaVuSans-30"/>
      </g>
     </g>
    </g>
    <g id="xtick_2">
     <g id="line2d_2">
      <g>
       <use style="stroke:#000000;stroke-width:0.8;" x="255.6" xlink:href="#m4cd12c31d2" y="768.96"/>
      </g>
     </g>
     <g id="text_2">
      <!-- −3000 -->
      <defs>
       <path d="M 40.578125 39.3125 
Q 47.65625 37.796875 51.625 33 
Q 55.609375 28.21875 55.609375 21.1875 
Q 55.609375 10.40625 48.1875 4.484375 
Q 40.765625 -1.421875 27.09375 -1.421875 
Q 22.515625 -1.421875 17.65625 -0.515625 
Q 12.796875 0.390625 7.625 2.203125 
L 7.625 11.71875 
Q 11.71875 9.328125 16.59375 8.109375 
Q 21.484375 6.890625 26.8125 6.890625 
Q 36.078125 6.890625 40.9375 10.546875 
Q 45.796875 14.203125 45.796875 21.1875 
Q 45.796875 27.640625 41.28125 31.265625 
Q 36.765625 34.90625 28.71875 34.90625 
L 20.21875 34.90625 
L 20.21875 43.015625 
L 29.109375 43.015625 
Q 36.375 43.015625 40.234375 45.921875 
Q 44.09375 48.828125 44.09375 54.296875 
Q 44.09375 59.90625 40.109375 62.90625 
Q 36.140625 65.921875 28.71875 65.921875 
Q 24.65625 65.921875 20.015625 65.03125 
Q 15.375 64.15625 9.8125 62.3125 
L 9.8125 71.09375 
Q 15.4375 72.65625 20.34375 73.4375 
Q 25.25 74.21875 29.59375 74.21875 
Q 40.828125 74.21875 47.359375 69.109375 
Q 53.90625 64.015625 53.90625 55.328125 
Q 53.90625 49.265625 50.4375 45.09375 
Q 46.96875 40.921875 40.578125 39.3125 
z
" id="DejaVuSans-33"/>
      </defs>
      <g transform="translate(238.685156 783.558437)scale(0.1 -0.1)">
       <use xlink:href="#DejaVuSans-2212"/>
       <use x="83.789062" xlink:href="#DejaVuSans-33"/>
       <use x="147.412109" xlink:href="#DejaVuSans-30"/>
       <use x="211.035156" xlink:href="#DejaVuSans-30"/>
       <use x="274.658203" xlink:href="#DejaVuSans-30"/>
      </g>
     </g>
    </g>
    <g id="xtick_3">
     <g id="line2d_3">
      <g>
       <use style="stroke:#000000;stroke-width:0.8;" x="367.2" xlink:href="#m4cd12c31d2" y="768.96"/>
      </g>
     </g>
     <g id="text_3">
      <!-- −2000 -->
      <defs>
       <path d="M 19.1875 8.296875 
L 53.609375 8.296875 
L 53.609375 0 
L 7.328125 0 
L 7.328125 8.296875 
Q 12.9375 14.109375 22.625 23.890625 
Q 32.328125 33.6875 34.8125 36.53125 
Q 39.546875 41.84375 41.421875 45.53125 
Q 43.3125 49.21875 43.3125 52.78125 
Q 43.3125 58.59375 39.234375 62.25 
Q 35.15625 65.921875 28.609375 65.921875 
Q 23.96875 65.921875 18.8125 64.3125 
Q 13.671875 62.703125 7.8125 59.421875 
L 7.8125 69.390625 
Q 13.765625 71.78125 18.9375 73 
Q 24.125 74.21875 28.421875 74.21875 
Q 39.75 74.21875 46.484375 68.546875 
Q 53.21875 62.890625 53.21875 53.421875 
Q 53.21875 48.921875 51.53125 44.890625 
Q 49.859375 40.875 45.40625 35.40625 
Q 44.1875 33.984375 37.640625 27.21875 
Q 31.109375 20.453125 19.1875 8.296875 
z
" id="DejaVuSans-32"/>
      </defs>
      <g transform="translate(350.285156 783.558437)scale(0.1 -0.1)">
       <use xlink:href="#DejaVuSans-2212"/>
       <use x="83.789062" xlink:href="#DejaVuSans-32"/>
       <use x="147.412109" xlink:href="#DejaVuSans-30"/>
       <use x="211.035156" xlink:href="#DejaVuSans-30"/>
       <use x="274.658203" xlink:href="#DejaVuSans-30"/>
      </g>
     </g>
    </g>
    <g id="xtick_4">
     <g id="line2d_4">
      <g>
       <use style="stroke:#000000;stroke-width:0.8;" x="478.8" xlink:href="#m4cd12c31d2" y="768.96"/>
      </g>
     </g>
     <g id="text_4">
      <!-- −1000 -->
      <defs>
       <path d="M 12.40625 8.296875 
L 28.515625 8.296875 
L 28.515625 63.921875 
L 10.984375 60.40625 
L 10.984375 69.390625 
L 28.421875 72.90625 
L 38.28125 72.90625 
L 38.28125 8.296875 
L 54.390625 8.296875 
L 54.390625 0 
L 12.40625 0 
z
" id="DejaVuSans-31"/>
      </defs>
      <g transform="translate(461.885156 783.558437)scale(0.1 -0.1)">
       <use xlink:href="#DejaVuSans-2212"/>
       <use x="83.789062" xlink:href="#DejaVuSans-31"/>
       <use x="147.412109" xlink:href="#DejaVuSans-30"/>
       <use x="211.035156" xlink:href="#DejaVuSans-30"/>
       <use x="274.658203" xlink:href="#DejaVuSans-30"/>
      </g>
     </g>
    </g>
    <g id="xtick_5">
     <g id="line2d_5">
      <g>
       <use style="stroke:#000000;stroke-width:0.8;" x="590.4" xlink:href="#m4cd12c31d2" y="768.96"/>
      </g>
     </g>
     <g id="text_5">
      <!-- 0 -->
      <g transform="translate(587.21875 783.558437)scale(0.1 -0.1)">
       <use xlink:href="#DejaVuSans-30"/>
      </g>
     </g>
    </g>
    <g id="xtick_6">
     <g id="line2d_6">
      <g>
       <use style="stroke:#000000;stroke-width:0.8;" x="702" xlink:href="#m4cd12c31d2" y="768.96"/>
      </g>
     </g>
     <g id="text_6">
      <!-- 1000 -->
      <g transform="translate(689.275 783.558437)scale(0.1 -0.1)">
       <use xlink:href="#DejaVuSans-31"/>
       <use x="63.623047" xlink:href="#DejaVuSans-30"/>
       <use x="127.246094" xlink:href="#DejaVuSans-30"/>
       <use x="190.869141" xlink:href="#DejaVuSans-30"/>
      </g>
     </g>
    </g>
    <g id="xtick_7">
     <g id="line2d_7">
      <g>
       <use style="stroke:#000000;stroke-width:0.8;" x="813.6" xlink:href="#m4cd12c31d2" y="768.96"/>
      </g>
     </g>
     <g id="text_7">
      <!-- 2000 -->
      <g transform="translate(800.875 783.558437)scale(0.1 -0.1)">
       <use xlink:href="#DejaVuSans-32"/>
       <use x="63.623047" xlink:href="#DejaVuSans-30"/>
       <use x="127.246094" xlink:href="#DejaVuSans-30"/>
       <use x="190.869141" xlink:href="#DejaVuSans-30"/>
      </g>
     </g>
    </g>
    <g id="xtick_8">
     <g id="line2d_8">
      <g>
       <use style="stroke:#000000;stroke-width:0.8;" x="925.2" xlink:href="#m4cd12c31d2" y="768.96"/>
      </g>
     </g>
     <g id="text_8">
      <!-- 3000 -->
      <g transform="translate(912.475 783.558437)scale(0.1 -0.1)">
       <use xlink:href="#DejaVuSans-33"/>
       <use x="63.623047" xlink:href="#DejaVuSans-30"/>
       <use x="127.246094" xlink:href="#DejaVuSans-30"/>
       <use x="190.869141" xlink:href="#DejaVuSans-30"/>
      </g>
     </g>
    </g>
    <g id="xtick_9">
     <g id="line2d_9">
      <g>
       <use style="stroke:#000000;stroke-width:0.8;" x="1036.8" xlink:href="#m4cd12c31d2" y="768.96"/>
      </g>
     </g>
     <g id="text_9">
      <!-- 4000 -->
      <g transform="translate(1024.075 783.558437)scale(0.1 -0.1)">
       <use xlink:href="#DejaVuSans-34"/>
       <use x="63.623047" xlink:href="#DejaVuSans-30"/>
       <use x="127.246094" xlink:href="#DejaVuSans-30"/>
       <use x="190.869141" xlink:href="#DejaVuSans-30"/>
      </g>
     </g>
    </g>
   </g>
   <g id="matplotlib.axis_2">
    <g id="ytick_1">
     <g id="line2d_10">
      <defs>
       <path d="M 0 0 
L -3.5 0 
" id="m822677b055" style="stroke:#000000;stroke-width:0.8;"/>
      </defs>
      <g>
       <use style="stroke:#000000;stroke-width:0.8;" x="144" xlink:href="#m822677b055" y="768.96"/>
      </g>
     </g>
     <g id="text_10">
      <!-- −4000 -->
      <g transform="translate(103.170312 772.759219)scale(0.1 -0.1)">
       <use xlink:href="#DejaVuSans-2212"/>
       <use x="83.789062" xlink:href="#DejaVuSans-34"/>
       <use x="147.412109" xlink:href="#DejaVuSans-30"/>
       <use x="211.035156" xlink:href="#DejaVuSans-30"/>
       <use x="274.658203" xlink:href="#DejaVuSans-30"/>
      </g>
     </g>
    </g>
    <g id="ytick_2">
     <g id="line2d_11">
      <g>
       <use style="stroke:#000000;stroke-width:0.8;" x="144" xlink:href="#m822677b055" y="685.8"/>
      </g>
     </g>
     <g id="text_11">
      <!-- −3000 -->
      <g transform="translate(103.170312 689.599219)scale(0.1 -0.1)">
       <use xlink:href="#DejaVuSans-2212"/>
       <use x="83.789062" xlink:href="#DejaVuSans-33"/>
       <use x="147.412109" xlink:href="#DejaVuSans-30"/>
       <use x="211.035156" xlink:href="#DejaVuSans-30"/>
       <use x="274.658203" xlink:href="#DejaVuSans-30"/>
      </g>
     </g>
    </g>
    <g id="ytick_3">
     <g id="line2d_12">
      <g>
       <use style="stroke:#000000;stroke-width:0.8;" x="144" xlink:href="#m822677b055" y="602.64"/>
      </g>
     </g>
     <g id="text_12">
      <!-- −2000 -->
      <g transform="translate(103.170312 606.439219)scale(0.1 -0.1)">
       <use xlink:href="#DejaVuSans-2212"/>
       <use x="83.789062" xlink:href="#DejaVuSans-32"/>
       <use x="147.412109" xlink:href="#DejaVuSans-30"/>
       <use x="211.035156" xlink:href="#DejaVuSans-30"/>
       <use x="274.658203" xlink:href="#DejaVuSans-30"/>
      </g>
     </g>
    </g>
    <g id="ytick_4">
     <g id="line2d_13">
      <g>
       <use style="stroke:#000000;stroke-width:0.8;" x="144" xlink:href="#m822677b055" y="519.48"/>
      </g>
     </g>
     <g id="text_13">
      <!-- −1000 -->
      <g transform="translate(103.170312 523.279219)scale(0.1 -0.1)">
       <use xlink:href="#DejaVuSans-2212"/>
       <use x="83.789062" xlink:href="#DejaVuSans-31"/>
       <use x="147.412109" xlink:href="#DejaVuSans-30"/>
       <use x="211.035156" xlink:href="#DejaVuSans-30"/>
       <use x="274.658203" xlink:href="#DejaVuSans-30"/>
      </g>
     </g>
    </g>
    <g id="ytick_5">
     <g id="line2d_14">
      <g>
       <use style="stroke:#000000;stroke-width:0.8;" x="144" xlink:href="#m822677b055" y="436.32"/>
      </g>
     </g>
     <g id="text_14">
      <!-- 0 -->
      <g transform="translate(130.6375 440.119219)scale(0.1 -0.1)">
       <use xlink:href="#DejaVuSans-30"/>
      </g>
     </g>
    </g>
    <g id="ytick_6">
     <g id="line2d_15">
      <g>
       <use style="stroke:#000000;stroke-width:0.8;" x="144" xlink:href="#m822677b055" y="353.16"/>
      </g>
     </g>
     <g id="text_15">
      <!-- 1000 -->
      <g transform="translate(111.55 356.959219)scale(0.1 -0.1)">
       <use xlink:href="#DejaVuSans-31"/>
       <use x="63.623047" xlink:href="#DejaVuSans-30"/>
       <use x="127.246094" xlink:href="#DejaVuSans-30"/>
       <use x="190.869141" xlink:href="#DejaVuSans-30"/>
      </g>
     </g>
    </g>
    <g id="ytick_7">
     <g id="line2d_16">
      <g>
       <use style="stroke:#000000;stroke-width:0.8;" x="144" xlink:href="#m822677b055" y="270"/>
      </g>
     </g>
     <g id="text_16">
      <!-- 2000 -->
      <g transform="translate(111.55 273.799219)scale(0.1 -0.1)">
       <use xlink:href="#DejaVuSans-32"/>
       <use x="63.623047" xlink:href="#DejaVuSans-30"/>
       <use x="127.246094" xlink:href="#DejaVuSans-30"/>
       <use x="190.869141" xlink:href="#DejaVuSans-30"/>
      </g>
     </g>
    </g>
    <g id="ytick_8">
     <g id="line2d_17">
      <g>
       <use style="stroke:#000000;stroke-width:0.8;" x="144" xlink:href="#m822677b055" y="186.84"/>
      </g>
     </g>
     <g id="text_17">
      <!-- 3000 -->
      <g transform="translate(111.55 190.639219)scale(0.1 -0.1)">
       <use xlink:href="#DejaVuSans-33"/>
       <use x="63.623047" xlink:href="#DejaVuSans-30"/>
       <use x="127.246094" xlink:href="#DejaVuSans-30"/>
       <use x="190.869141" xlink:href="#DejaVuSans-30"/>
      </g>
     </g>
    </g>
    <g id="ytick_9">
     <g id="line2d_18">
      <g>
       <use style="stroke:#000000;stroke-width:0.8;" x="144" xlink:href="#m822677b055" y="103.68"/>
      </g>
     </g>
     <g id="text_18">
      <!-- 4000 -->
      <g transform="translate(111.55 107.479219)scale(0.1 -0.1)">
       <use xlink:href="#DejaVuSans-34"/>
       <use x="63.623047" xlink:href="#DejaVuSans-30"/>
       <use x="127.246094" xlink:href="#DejaVuSans-30"/>
       <use x="190.869141" xlink:href="#DejaVuSans-30"/>
      </g>
     </g>
    </g>
   </g>
   <g id="line2d_19">
    <path clip-path="url(#pbbb46ee09c)" d="M 590.4 768.96 
L 590.4 103.68 
" style="fill:none;stroke:#1f77b4;stroke-linecap:square;stroke-width:1.5;"/>
   </g>
   <g id="line2d_20">
    <path clip-path="url(#pbbb46ee09c)" d="M 144 436.32 
L 1036.8 436.32 
" style="fill:none;stroke:#1f77b4;stroke-linecap:square;stroke-width:1.5;"/>
   </g>
   <g id="line2d_21">
    <defs>
     <path d="M 0 3 
C 0.795609 3 1.55874 2.683901 2.12132 2.12132 
C 2.683901 1.55874 3 0.795609 3 0 
C 3 -0.795609 2.683901 -1.55874 2.12132 -2.12132 
C 1.55874 -2.683901 0.795609 -3 0 -3 
C -0.795609 -3 -1.55874 -2.683901 -2.12132 -2.12132 
C -2.683901 -1.55874 -3 -0.795609 -3 0 
C -3 0.795609 -2.683901 1.55874 -2.12132 2.12132 
C -1.55874 2.683901 -0.795609 3 0 3 
z
" id="mcf710709fa" style="stroke:#008000;"/>
    </defs>
    <g clip-path="url(#pbbb46ee09c)">
     <use style="fill:#008000;stroke:#008000;" x="1177.444942" xlink:href="#mcf710709fa" y="495.853402"/>
    </g>
   </g>
   <g id="line2d_22">
    <g clip-path="url(#pbbb46ee09c)">
     <use style="fill:#008000;stroke:#008000;" x="1410.515969" xlink:href="#mcf710709fa" y="491.633703"/>
    </g>
   </g>
   <g id="line2d_23">
    <g clip-path="url(#pbbb46ee09c)">
     <use style="fill:#008000;stroke:#008000;" x="1066.283912" xlink:href="#mcf710709fa" y="434.48259"/>
    </g>
   </g>
   <g id="line2d_24">
    <g clip-path="url(#pbbb46ee09c)">
     <use style="fill:#008000;stroke:#008000;" x="1266.805828" xlink:href="#mcf710709fa" y="339.629424"/>
    </g>
   </g>
   <g id="line2d_25">
    <g clip-path="url(#pbbb46ee09c)">
     <use style="fill:#008000;stroke:#008000;" x="1322.25692" xlink:href="#mcf710709fa" y="278.332227"/>
    </g>
   </g>
   <g id="line2d_26">
    <g clip-path="url(#pbbb46ee09c)">
     <use style="fill:#008000;stroke:#008000;" x="648.0169" xlink:href="#mcf710709fa" y="392.030172"/>
    </g>
   </g>
   <g id="line2d_27">
    <g clip-path="url(#pbbb46ee09c)">
     <use style="fill:#008000;stroke:#008000;" x="648.0169" xlink:href="#mcf710709fa" y="392.030172"/>
    </g>
   </g>
   <g id="line2d_28">
    <g clip-path="url(#pbbb46ee09c)">
     <use style="fill:#008000;stroke:#008000;" x="754.056579" xlink:href="#mcf710709fa" y="197.622623"/>
    </g>
   </g>
   <g id="line2d_29">
    <g clip-path="url(#pbbb46ee09c)">
     <use style="fill:#008000;stroke:#008000;" x="734.170373" xlink:href="#mcf710709fa" y="199.87438"/>
    </g>
   </g>
   <g id="line2d_30">
    <g clip-path="url(#pbbb46ee09c)">
     <use style="fill:#008000;stroke:#008000;" x="483.135203" xlink:href="#mcf710709fa" y="242.755996"/>
    </g>
   </g>
   <g id="line2d_31">
    <g clip-path="url(#pbbb46ee09c)">
     <use style="fill:#008000;stroke:#008000;" x="560.896323" xlink:href="#mcf710709fa" y="400.355743"/>
    </g>
   </g>
   <g id="line2d_32">
    <g clip-path="url(#pbbb46ee09c)">
     <use style="fill:#008000;stroke:#008000;" x="560.896323" xlink:href="#mcf710709fa" y="400.355743"/>
    </g>
   </g>
   <g id="line2d_33">
    <g clip-path="url(#pbbb46ee09c)">
     <use style="fill:#008000;stroke:#008000;" x="390.179916" xlink:href="#mcf710709fa" y="273.411687"/>
    </g>
   </g>
   <g id="line2d_34">
    <g clip-path="url(#pbbb46ee09c)">
     <use style="fill:#008000;stroke:#008000;" x="404.42688" xlink:href="#mcf710709fa" y="444.568337"/>
    </g>
   </g>
   <g id="line2d_35">
    <g clip-path="url(#pbbb46ee09c)">
     <use style="fill:#008000;stroke:#008000;" x="412.23805" xlink:href="#mcf710709fa" y="508.824929"/>
    </g>
   </g>
   <g id="line2d_36">
    <g clip-path="url(#pbbb46ee09c)">
     <use style="fill:#008000;stroke:#008000;" x="519.622642" xlink:href="#mcf710709fa" y="506.587757"/>
    </g>
   </g>
   <g id="line2d_37">
    <g clip-path="url(#pbbb46ee09c)">
     <use style="fill:#008000;stroke:#008000;" x="575.460539" xlink:href="#mcf710709fa" y="500.581102"/>
    </g>
   </g>
   <g id="line2d_38">
    <defs>
     <path d="M 0 1.333333 
C 0.353604 1.333333 0.692773 1.192845 0.942809 0.942809 
C 1.192845 0.692773 1.333333 0.353604 1.333333 0 
C 1.333333 -0.353604 1.192845 -0.692773 0.942809 -0.942809 
C 0.692773 -1.192845 0.353604 -1.333333 0 -1.333333 
C -0.353604 -1.333333 -0.692773 -1.192845 -0.942809 -0.942809 
C -1.192845 -0.692773 -1.333333 -0.353604 -1.333333 0 
C -1.333333 0.353604 -1.192845 0.692773 -0.942809 0.942809 
C -0.692773 1.192845 -0.353604 1.333333 0 1.333333 
z
" id="m4eee77fe04" style="stroke:#ff0000;"/>
    </defs>
    <g clip-path="url(#pbbb46ee09c)">
     <use style="fill:#ff0000;stroke:#ff0000;" x="1177.444942" xlink:href="#m4eee77fe04" y="495.853402"/>
     <use style="fill:#ff0000;stroke:#ff0000;" x="1410.515969" xlink:href="#m4eee77fe04" y="491.633703"/>
     <use style="fill:#ff0000;stroke:#ff0000;" x="1066.283912" xlink:href="#m4eee77fe04" y="434.48259"/>
     <use style="fill:#ff0000;stroke:#ff0000;" x="1266.805828" xlink:href="#m4eee77fe04" y="339.629424"/>
     <use style="fill:#ff0000;stroke:#ff0000;" x="1322.25692" xlink:href="#m4eee77fe04" y="278.332227"/>
     <use style="fill:#ff0000;stroke:#ff0000;" x="650.892846" xlink:href="#m4eee77fe04" y="399.387997"/>
     <use style="fill:#ff0000;stroke:#ff0000;" x="643.634975" xlink:href="#m4eee77fe04" y="384.710299"/>
     <use style="fill:#ff0000;stroke:#ff0000;" x="763.779876" xlink:href="#m4eee77fe04" y="197.439335"/>
     <use style="fill:#ff0000;stroke:#ff0000;" x="744.441367" xlink:href="#m4eee77fe04" y="198.012614"/>
     <use style="fill:#ff0000;stroke:#ff0000;" x="724.102787" xlink:href="#m4eee77fe04" y="201.961567"/>
     <use style="fill:#ff0000;stroke:#ff0000;" x="483.135203" xlink:href="#m4eee77fe04" y="242.755996"/>
     <use style="fill:#ff0000;stroke:#ff0000;" x="561.753398" xlink:href="#m4eee77fe04" y="399.647919"/>
     <use style="fill:#ff0000;stroke:#ff0000;" x="560.066787" xlink:href="#m4eee77fe04" y="401.073952"/>
     <use style="fill:#ff0000;stroke:#ff0000;" x="397.697095" xlink:href="#m4eee77fe04" y="272.040107"/>
     <use style="fill:#ff0000;stroke:#ff0000;" x="382.645845" xlink:href="#m4eee77fe04" y="274.95574"/>
     <use style="fill:#ff0000;stroke:#ff0000;" x="359.945749" xlink:href="#m4eee77fe04" y="272.912907"/>
     <use style="fill:#ff0000;stroke:#ff0000;" x="404.085604" xlink:href="#m4eee77fe04" y="316.692735"/>
     <use style="fill:#ff0000;stroke:#ff0000;" x="435.523364" xlink:href="#m4eee77fe04" y="346.40648"/>
     <use style="fill:#ff0000;stroke:#ff0000;" x="403.56057" xlink:href="#m4eee77fe04" y="364.421885"/>
     <use style="fill:#ff0000;stroke:#ff0000;" x="454.017978" xlink:href="#m4eee77fe04" y="390.607213"/>
     <use style="fill:#ff0000;stroke:#ff0000;" x="440.124652" xlink:href="#m4eee77fe04" y="414.775173"/>
     <use style="fill:#ff0000;stroke:#ff0000;" x="418.512097" xlink:href="#m4eee77fe04" y="423.634266"/>
     <use style="fill:#ff0000;stroke:#ff0000;" x="413.999885" xlink:href="#m4eee77fe04" y="441.233254"/>
     <use style="fill:#ff0000;stroke:#ff0000;" x="394.970282" xlink:href="#m4eee77fe04" y="448.220726"/>
     <use style="fill:#ff0000;stroke:#ff0000;" x="412.23805" xlink:href="#m4eee77fe04" y="508.824929"/>
     <use style="fill:#ff0000;stroke:#ff0000;" x="469.121534" xlink:href="#m4eee77fe04" y="491.971607"/>
     <use style="fill:#ff0000;stroke:#ff0000;" x="435.276947" xlink:href="#m4eee77fe04" y="514.379345"/>
     <use style="fill:#ff0000;stroke:#ff0000;" x="448.867758" xlink:href="#m4eee77fe04" y="515.208441"/>
     <use style="fill:#ff0000;stroke:#ff0000;" x="466.211881" xlink:href="#m4eee77fe04" y="512.519504"/>
     <use style="fill:#ff0000;stroke:#ff0000;" x="456.952397" xlink:href="#m4eee77fe04" y="526.003586"/>
     <use style="fill:#ff0000;stroke:#ff0000;" x="472.539235" xlink:href="#m4eee77fe04" y="540.986092"/>
     <use style="fill:#ff0000;stroke:#ff0000;" x="519.622642" xlink:href="#m4eee77fe04" y="506.587757"/>
     <use style="fill:#ff0000;stroke:#ff0000;" x="575.460539" xlink:href="#m4eee77fe04" y="500.581102"/>
     <use style="fill:#ff0000;stroke:#ff0000;" x="577.466369" xlink:href="#m4eee77fe04" y="616.457199"/>
     <use style="fill:#ff0000;stroke:#ff0000;" x="588.360382" xlink:href="#m4eee77fe04" y="635.357657"/>
     <use style="fill:#ff0000;stroke:#ff0000;" x="636.170243" xlink:href="#m4eee77fe04" y="623.761908"/>
     <use style="fill:#ff0000;stroke:#ff0000;" x="645.538131" xlink:href="#m4eee77fe04" y="614.065325"/>
     <use style="fill:#ff0000;stroke:#ff0000;" x="661.775448" xlink:href="#m4eee77fe04" y="626.291494"/>
     <use style="fill:#ff0000;stroke:#ff0000;" x="667.388419" xlink:href="#m4eee77fe04" y="609.343901"/>
     <use style="fill:#ff0000;stroke:#ff0000;" x="670.601542" xlink:href="#m4eee77fe04" y="591.375887"/>
     <use style="fill:#ff0000;stroke:#ff0000;" x="697.168718" xlink:href="#m4eee77fe04" y="596.878155"/>
     <use style="fill:#ff0000;stroke:#ff0000;" x="760.962403" xlink:href="#m4eee77fe04" y="590.500384"/>
     <use style="fill:#ff0000;stroke:#ff0000;" x="803.506203" xlink:href="#m4eee77fe04" y="582.230847"/>
     <use style="fill:#ff0000;stroke:#ff0000;" x="833.355627" xlink:href="#m4eee77fe04" y="588.14743"/>
     <use style="fill:#ff0000;stroke:#ff0000;" x="850.492582" xlink:href="#m4eee77fe04" y="569.678255"/>
     <use style="fill:#ff0000;stroke:#ff0000;" x="884.017046" xlink:href="#m4eee77fe04" y="558.771072"/>
     <use style="fill:#ff0000;stroke:#ff0000;" x="901.61473" xlink:href="#m4eee77fe04" y="552.259678"/>
     <use style="fill:#ff0000;stroke:#ff0000;" x="941.691882" xlink:href="#m4eee77fe04" y="552.525134"/>
     <use style="fill:#ff0000;stroke:#ff0000;" x="1056.642704" xlink:href="#m4eee77fe04" y="553.621613"/>
     <use style="fill:#ff0000;stroke:#ff0000;" x="1091.410397" xlink:href="#m4eee77fe04" y="525.088473"/>
     <use style="fill:#ff0000;stroke:#ff0000;" x="1101.192172" xlink:href="#m4eee77fe04" y="508.58345"/>
    </g>
   </g>
   <g id="line2d_39">
    <defs>
     <path d="M -0.5 0.5 
L 0.5 0.5 
L 0.5 -0.5 
L -0.5 -0.5 
z
" id="m806b457f4e" style="stroke:#1f77b4;stroke-linejoin:miter;"/>
    </defs>
    <g clip-path="url(#pbbb46ee09c)">
     <use style="fill:#1f77b4;stroke:#1f77b4;stroke-linejoin:miter;" x="1177.444942" xlink:href="#m806b457f4e" y="495.853402"/>
     <use style="fill:#1f77b4;stroke:#1f77b4;stroke-linejoin:miter;" x="1410.515969" xlink:href="#m806b457f4e" y="491.633703"/>
     <use style="fill:#1f77b4;stroke:#1f77b4;stroke-linejoin:miter;" x="1066.283912" xlink:href="#m806b457f4e" y="434.48259"/>
     <use style="fill:#1f77b4;stroke:#1f77b4;stroke-linejoin:miter;" x="1266.805828" xlink:href="#m806b457f4e" y="339.629424"/>
     <use style="fill:#1f77b4;stroke:#1f77b4;stroke-linejoin:miter;" x="1322.25692" xlink:href="#m806b457f4e" y="278.332227"/>
     <use style="fill:#1f77b4;stroke:#1f77b4;stroke-linejoin:miter;" x="650.892846" xlink:href="#m806b457f4e" y="399.387997"/>
     <use style="fill:#1f77b4;stroke:#1f77b4;stroke-linejoin:miter;" x="647.589598" xlink:href="#m806b457f4e" y="397.864598"/>
     <use style="fill:#1f77b4;stroke:#1f77b4;stroke-linejoin:miter;" x="646.043639" xlink:href="#m806b457f4e" y="395.283985"/>
     <use style="fill:#1f77b4;stroke:#1f77b4;stroke-linejoin:miter;" x="643.185073" xlink:href="#m806b457f4e" y="393.746089"/>
     <use style="fill:#1f77b4;stroke:#1f77b4;stroke-linejoin:miter;" x="641.902147" xlink:href="#m806b457f4e" y="390.659505"/>
     <use style="fill:#1f77b4;stroke:#1f77b4;stroke-linejoin:miter;" x="643.634975" xlink:href="#m806b457f4e" y="384.710299"/>
     <use style="fill:#1f77b4;stroke:#1f77b4;stroke-linejoin:miter;" x="763.779876" xlink:href="#m806b457f4e" y="197.439335"/>
     <use style="fill:#1f77b4;stroke:#1f77b4;stroke-linejoin:miter;" x="744.441367" xlink:href="#m806b457f4e" y="198.012614"/>
     <use style="fill:#1f77b4;stroke:#1f77b4;stroke-linejoin:miter;" x="724.102787" xlink:href="#m806b457f4e" y="201.961567"/>
     <use style="fill:#1f77b4;stroke:#1f77b4;stroke-linejoin:miter;" x="706.107649" xlink:href="#m806b457f4e" y="204.362929"/>
     <use style="fill:#1f77b4;stroke:#1f77b4;stroke-linejoin:miter;" x="688.608288" xlink:href="#m806b457f4e" y="207.487667"/>
     <use style="fill:#1f77b4;stroke:#1f77b4;stroke-linejoin:miter;" x="671.729817" xlink:href="#m806b457f4e" y="210.63586"/>
     <use style="fill:#1f77b4;stroke:#1f77b4;stroke-linejoin:miter;" x="656.477894" xlink:href="#m806b457f4e" y="211.610022"/>
     <use style="fill:#1f77b4;stroke:#1f77b4;stroke-linejoin:miter;" x="641.235877" xlink:href="#m806b457f4e" y="214.415961"/>
     <use style="fill:#1f77b4;stroke:#1f77b4;stroke-linejoin:miter;" x="625.958216" xlink:href="#m806b457f4e" y="217.063048"/>
     <use style="fill:#1f77b4;stroke:#1f77b4;stroke-linejoin:miter;" x="611.891218" xlink:href="#m806b457f4e" y="219.217756"/>
     <use style="fill:#1f77b4;stroke:#1f77b4;stroke-linejoin:miter;" x="598.022211" xlink:href="#m806b457f4e" y="221.655217"/>
     <use style="fill:#1f77b4;stroke:#1f77b4;stroke-linejoin:miter;" x="584.829625" xlink:href="#m806b457f4e" y="224.947242"/>
     <use style="fill:#1f77b4;stroke:#1f77b4;stroke-linejoin:miter;" x="571.634704" xlink:href="#m806b457f4e" y="225.619458"/>
     <use style="fill:#1f77b4;stroke:#1f77b4;stroke-linejoin:miter;" x="558.769019" xlink:href="#m806b457f4e" y="228.944378"/>
     <use style="fill:#1f77b4;stroke:#1f77b4;stroke-linejoin:miter;" x="546.163288" xlink:href="#m806b457f4e" y="231.807953"/>
     <use style="fill:#1f77b4;stroke:#1f77b4;stroke-linejoin:miter;" x="533.497491" xlink:href="#m806b457f4e" y="233.851792"/>
     <use style="fill:#1f77b4;stroke:#1f77b4;stroke-linejoin:miter;" x="521.361294" xlink:href="#m806b457f4e" y="237.397057"/>
     <use style="fill:#1f77b4;stroke:#1f77b4;stroke-linejoin:miter;" x="508.742922" xlink:href="#m806b457f4e" y="239.220207"/>
     <use style="fill:#1f77b4;stroke:#1f77b4;stroke-linejoin:miter;" x="496.686195" xlink:href="#m806b457f4e" y="242.155094"/>
     <use style="fill:#1f77b4;stroke:#1f77b4;stroke-linejoin:miter;" x="483.135203" xlink:href="#m806b457f4e" y="242.755996"/>
     <use style="fill:#1f77b4;stroke:#1f77b4;stroke-linejoin:miter;" x="561.753398" xlink:href="#m806b457f4e" y="399.647919"/>
     <use style="fill:#1f77b4;stroke:#1f77b4;stroke-linejoin:miter;" x="560.066787" xlink:href="#m806b457f4e" y="401.073952"/>
     <use style="fill:#1f77b4;stroke:#1f77b4;stroke-linejoin:miter;" x="397.697095" xlink:href="#m806b457f4e" y="272.040107"/>
     <use style="fill:#1f77b4;stroke:#1f77b4;stroke-linejoin:miter;" x="382.645845" xlink:href="#m806b457f4e" y="274.95574"/>
     <use style="fill:#1f77b4;stroke:#1f77b4;stroke-linejoin:miter;" x="359.945749" xlink:href="#m806b457f4e" y="272.912907"/>
     <use style="fill:#1f77b4;stroke:#1f77b4;stroke-linejoin:miter;" x="404.085604" xlink:href="#m806b457f4e" y="316.692735"/>
     <use style="fill:#1f77b4;stroke:#1f77b4;stroke-linejoin:miter;" x="435.523364" xlink:href="#m806b457f4e" y="346.40648"/>
     <use style="fill:#1f77b4;stroke:#1f77b4;stroke-linejoin:miter;" x="422.489303" xlink:href="#m806b457f4e" y="347.842363"/>
     <use style="fill:#1f77b4;stroke:#1f77b4;stroke-linejoin:miter;" x="420.56261" xlink:href="#m806b457f4e" y="355.451966"/>
     <use style="fill:#1f77b4;stroke:#1f77b4;stroke-linejoin:miter;" x="406.879364" xlink:href="#m806b457f4e" y="357.46534"/>
     <use style="fill:#1f77b4;stroke:#1f77b4;stroke-linejoin:miter;" x="403.56057" xlink:href="#m806b457f4e" y="364.421885"/>
     <use style="fill:#1f77b4;stroke:#1f77b4;stroke-linejoin:miter;" x="454.017978" xlink:href="#m806b457f4e" y="390.607213"/>
     <use style="fill:#1f77b4;stroke:#1f77b4;stroke-linejoin:miter;" x="455.009307" xlink:href="#m806b457f4e" y="396.388383"/>
     <use style="fill:#1f77b4;stroke:#1f77b4;stroke-linejoin:miter;" x="456.593738" xlink:href="#m806b457f4e" y="402.261544"/>
     <use style="fill:#1f77b4;stroke:#1f77b4;stroke-linejoin:miter;" x="458.323969" xlink:href="#m806b457f4e" y="407.924749"/>
     <use style="fill:#1f77b4;stroke:#1f77b4;stroke-linejoin:miter;" x="458.136882" xlink:href="#m806b457f4e" y="412.686897"/>
     <use style="fill:#1f77b4;stroke:#1f77b4;stroke-linejoin:miter;" x="440.124652" xlink:href="#m806b457f4e" y="414.775173"/>
     <use style="fill:#1f77b4;stroke:#1f77b4;stroke-linejoin:miter;" x="418.512097" xlink:href="#m806b457f4e" y="423.634266"/>
     <use style="fill:#1f77b4;stroke:#1f77b4;stroke-linejoin:miter;" x="419.94417" xlink:href="#m806b457f4e" y="429.628582"/>
     <use style="fill:#1f77b4;stroke:#1f77b4;stroke-linejoin:miter;" x="420.495072" xlink:href="#m806b457f4e" y="435.24965"/>
     <use style="fill:#1f77b4;stroke:#1f77b4;stroke-linejoin:miter;" x="413.999885" xlink:href="#m806b457f4e" y="441.233254"/>
     <use style="fill:#1f77b4;stroke:#1f77b4;stroke-linejoin:miter;" x="394.970282" xlink:href="#m806b457f4e" y="448.220726"/>
     <use style="fill:#1f77b4;stroke:#1f77b4;stroke-linejoin:miter;" x="397.414695" xlink:href="#m806b457f4e" y="454.813621"/>
     <use style="fill:#1f77b4;stroke:#1f77b4;stroke-linejoin:miter;" x="399.981226" xlink:href="#m806b457f4e" y="461.299615"/>
     <use style="fill:#1f77b4;stroke:#1f77b4;stroke-linejoin:miter;" x="401.85571" xlink:href="#m806b457f4e" y="467.949913"/>
     <use style="fill:#1f77b4;stroke:#1f77b4;stroke-linejoin:miter;" x="403.083752" xlink:href="#m806b457f4e" y="474.619572"/>
     <use style="fill:#1f77b4;stroke:#1f77b4;stroke-linejoin:miter;" x="404.015373" xlink:href="#m806b457f4e" y="481.363262"/>
     <use style="fill:#1f77b4;stroke:#1f77b4;stroke-linejoin:miter;" x="406.42812" xlink:href="#m806b457f4e" y="488.001922"/>
     <use style="fill:#1f77b4;stroke:#1f77b4;stroke-linejoin:miter;" x="407.935666" xlink:href="#m806b457f4e" y="494.999052"/>
     <use style="fill:#1f77b4;stroke:#1f77b4;stroke-linejoin:miter;" x="412.23805" xlink:href="#m806b457f4e" y="508.824929"/>
     <use style="fill:#1f77b4;stroke:#1f77b4;stroke-linejoin:miter;" x="469.121534" xlink:href="#m806b457f4e" y="491.971607"/>
     <use style="fill:#1f77b4;stroke:#1f77b4;stroke-linejoin:miter;" x="435.276947" xlink:href="#m806b457f4e" y="514.379345"/>
     <use style="fill:#1f77b4;stroke:#1f77b4;stroke-linejoin:miter;" x="448.867758" xlink:href="#m806b457f4e" y="515.208441"/>
     <use style="fill:#1f77b4;stroke:#1f77b4;stroke-linejoin:miter;" x="466.211881" xlink:href="#m806b457f4e" y="512.519504"/>
     <use style="fill:#1f77b4;stroke:#1f77b4;stroke-linejoin:miter;" x="456.952397" xlink:href="#m806b457f4e" y="526.003586"/>
     <use style="fill:#1f77b4;stroke:#1f77b4;stroke-linejoin:miter;" x="457.510066" xlink:href="#m806b457f4e" y="534.430504"/>
     <use style="fill:#1f77b4;stroke:#1f77b4;stroke-linejoin:miter;" x="467.607814" xlink:href="#m806b457f4e" y="535.792813"/>
     <use style="fill:#1f77b4;stroke:#1f77b4;stroke-linejoin:miter;" x="472.539235" xlink:href="#m806b457f4e" y="540.986092"/>
     <use style="fill:#1f77b4;stroke:#1f77b4;stroke-linejoin:miter;" x="519.622642" xlink:href="#m806b457f4e" y="506.587757"/>
     <use style="fill:#1f77b4;stroke:#1f77b4;stroke-linejoin:miter;" x="531.306539" xlink:href="#m806b457f4e" y="501.335265"/>
     <use style="fill:#1f77b4;stroke:#1f77b4;stroke-linejoin:miter;" x="538.311141" xlink:href="#m806b457f4e" y="500.166649"/>
     <use style="fill:#1f77b4;stroke:#1f77b4;stroke-linejoin:miter;" x="546.463448" xlink:href="#m806b457f4e" y="496.658478"/>
     <use style="fill:#1f77b4;stroke:#1f77b4;stroke-linejoin:miter;" x="550.650016" xlink:href="#m806b457f4e" y="497.303359"/>
     <use style="fill:#1f77b4;stroke:#1f77b4;stroke-linejoin:miter;" x="553.415726" xlink:href="#m806b457f4e" y="500.417689"/>
     <use style="fill:#1f77b4;stroke:#1f77b4;stroke-linejoin:miter;" x="557.520447" xlink:href="#m806b457f4e" y="501.470341"/>
     <use style="fill:#1f77b4;stroke:#1f77b4;stroke-linejoin:miter;" x="561.00094" xlink:href="#m806b457f4e" y="504.246828"/>
     <use style="fill:#1f77b4;stroke:#1f77b4;stroke-linejoin:miter;" x="566.256102" xlink:href="#m806b457f4e" y="502.310585"/>
     <use style="fill:#1f77b4;stroke:#1f77b4;stroke-linejoin:miter;" x="571.284621" xlink:href="#m806b457f4e" y="500.240661"/>
     <use style="fill:#1f77b4;stroke:#1f77b4;stroke-linejoin:miter;" x="575.460539" xlink:href="#m806b457f4e" y="500.581102"/>
     <use style="fill:#1f77b4;stroke:#1f77b4;stroke-linejoin:miter;" x="577.466369" xlink:href="#m806b457f4e" y="616.457199"/>
     <use style="fill:#1f77b4;stroke:#1f77b4;stroke-linejoin:miter;" x="588.360382" xlink:href="#m806b457f4e" y="635.357657"/>
     <use style="fill:#1f77b4;stroke:#1f77b4;stroke-linejoin:miter;" x="600.593425" xlink:href="#m806b457f4e" y="633.762107"/>
     <use style="fill:#1f77b4;stroke:#1f77b4;stroke-linejoin:miter;" x="614.395825" xlink:href="#m806b457f4e" y="641.341962"/>
     <use style="fill:#1f77b4;stroke:#1f77b4;stroke-linejoin:miter;" x="626.931001" xlink:href="#m806b457f4e" y="640.081234"/>
     <use style="fill:#1f77b4;stroke:#1f77b4;stroke-linejoin:miter;" x="636.170243" xlink:href="#m806b457f4e" y="623.761908"/>
     <use style="fill:#1f77b4;stroke:#1f77b4;stroke-linejoin:miter;" x="645.538131" xlink:href="#m806b457f4e" y="614.065325"/>
     <use style="fill:#1f77b4;stroke:#1f77b4;stroke-linejoin:miter;" x="661.775448" xlink:href="#m806b457f4e" y="626.291494"/>
     <use style="fill:#1f77b4;stroke:#1f77b4;stroke-linejoin:miter;" x="667.388419" xlink:href="#m806b457f4e" y="609.343901"/>
     <use style="fill:#1f77b4;stroke:#1f77b4;stroke-linejoin:miter;" x="670.601542" xlink:href="#m806b457f4e" y="591.375887"/>
     <use style="fill:#1f77b4;stroke:#1f77b4;stroke-linejoin:miter;" x="686.443889" xlink:href="#m806b457f4e" y="599.212028"/>
     <use style="fill:#1f77b4;stroke:#1f77b4;stroke-linejoin:miter;" x="697.168718" xlink:href="#m806b457f4e" y="596.878155"/>
     <use style="fill:#1f77b4;stroke:#1f77b4;stroke-linejoin:miter;" x="760.962403" xlink:href="#m806b457f4e" y="590.500384"/>
     <use style="fill:#1f77b4;stroke:#1f77b4;stroke-linejoin:miter;" x="772.877239" xlink:href="#m806b457f4e" y="586.509809"/>
     <use style="fill:#1f77b4;stroke:#1f77b4;stroke-linejoin:miter;" x="785.40058" xlink:href="#m806b457f4e" y="582.820562"/>
     <use style="fill:#1f77b4;stroke:#1f77b4;stroke-linejoin:miter;" x="803.506203" xlink:href="#m806b457f4e" y="582.230847"/>
     <use style="fill:#1f77b4;stroke:#1f77b4;stroke-linejoin:miter;" x="833.355627" xlink:href="#m806b457f4e" y="588.14743"/>
     <use style="fill:#1f77b4;stroke:#1f77b4;stroke-linejoin:miter;" x="834.857159" xlink:href="#m806b457f4e" y="574.446092"/>
     <use style="fill:#1f77b4;stroke:#1f77b4;stroke-linejoin:miter;" x="850.492582" xlink:href="#m806b457f4e" y="569.678255"/>
     <use style="fill:#1f77b4;stroke:#1f77b4;stroke-linejoin:miter;" x="884.017046" xlink:href="#m806b457f4e" y="558.771072"/>
     <use style="fill:#1f77b4;stroke:#1f77b4;stroke-linejoin:miter;" x="901.61473" xlink:href="#m806b457f4e" y="552.259678"/>
     <use style="fill:#1f77b4;stroke:#1f77b4;stroke-linejoin:miter;" x="941.691882" xlink:href="#m806b457f4e" y="552.525134"/>
     <use style="fill:#1f77b4;stroke:#1f77b4;stroke-linejoin:miter;" x="1056.642704" xlink:href="#m806b457f4e" y="553.621613"/>
     <use style="fill:#1f77b4;stroke:#1f77b4;stroke-linejoin:miter;" x="1091.410397" xlink:href="#m806b457f4e" y="525.088473"/>
     <use style="fill:#1f77b4;stroke:#1f77b4;stroke-linejoin:miter;" x="1101.192172" xlink:href="#m806b457f4e" y="508.58345"/>
    </g>
   </g>
   <g id="patch_3">
    <path d="M 144 768.96 
L 144 103.68 
" style="fill:none;stroke:#000000;stroke-linecap:square;stroke-linejoin:miter;stroke-width:0.8;"/>
   </g>
   <g id="patch_4">
    <path d="M 1036.8 768.96 
L 1036.8 103.68 
" style="fill:none;stroke:#000000;stroke-linecap:square;stroke-linejoin:miter;stroke-width:0.8;"/>
   </g>
   <g id="patch_5">
    <path d="M 144 768.96 
L 1036.8 768.96 
" style="fill:none;stroke:#000000;stroke-linecap:square;stroke-linejoin:miter;stroke-width:0.8;"/>
   </g>
   <g id="patch_6">
    <path d="M 144 103.68 
L 1036.8 103.68 
" style="fill:none;stroke:#000000;stroke-linecap:square;stroke-linejoin:miter;stroke-width:0.8;"/>
   </g>
  </g>
 </g>
 <defs>
  <clipPath id="pbbb46ee09c">
   <rect height="665.28" width="892.8" x="144" y="103.68"/>
  </clipPath>
 </defs>
</svg>
