<?xml version="1.0" encoding="utf-8" standalone="no"?>
<!DOCTYPE svg PUBLIC "-//W3C//DTD SVG 1.1//EN"
  "http://www.w3.org/Graphics/SVG/1.1/DTD/svg11.dtd">
<!-- Created with matplotlib (http://matplotlib.org/) -->
<svg height="864pt" version="1.1" viewBox="0 0 1152 864" width="1152pt" xmlns="http://www.w3.org/2000/svg" xmlns:xlink="http://www.w3.org/1999/xlink">
 <defs>
  <style type="text/css">
*{stroke-linecap:butt;stroke-linejoin:round;}
  </style>
 </defs>
 <g id="figure_1">
  <g id="patch_1">
   <path d="M 0 864 
L 1152 864 
L 1152 0 
L 0 0 
z
" style="fill:#ffffff;"/>
  </g>
  <g id="axes_1">
   <g id="patch_2">
    <path d="M 144 768.96 
L 1036.8 768.96 
L 1036.8 103.68 
L 144 103.68 
z
" style="fill:#ffffff;"/>
   </g>
   <g id="matplotlib.axis_1">
    <g id="xtick_1">
     <g id="line2d_1">
      <defs>
       <path d="M 0 0 
L 0 3.5 
" id="m7e6c9b7717" style="stroke:#000000;stroke-width:0.8;"/>
      </defs>
      <g>
       <use style="stroke:#000000;stroke-width:0.8;" x="144" xlink:href="#m7e6c9b7717" y="768.96"/>
      </g>
     </g>
     <g id="text_1">
      <!-- −4000 -->
      <defs>
       <path d="M 10.59375 35.5 
L 73.1875 35.5 
L 73.1875 27.203125 
L 10.59375 27.203125 
z
" id="DejaVuSans-2212"/>
       <path d="M 37.796875 64.3125 
L 12.890625 25.390625 
L 37.796875 25.390625 
z
M 35.203125 72.90625 
L 47.609375 72.90625 
L 47.609375 25.390625 
L 58.015625 25.390625 
L 58.015625 17.1875 
L 47.609375 17.1875 
L 47.609375 0 
L 37.796875 0 
L 37.796875 17.1875 
L 4.890625 17.1875 
L 4.890625 26.703125 
z
" id="DejaVuSans-34"/>
       <path d="M 31.78125 66.40625 
Q 24.171875 66.40625 20.328125 58.90625 
Q 16.5 51.421875 16.5 36.375 
Q 16.5 21.390625 20.328125 13.890625 
Q 24.171875 6.390625 31.78125 6.390625 
Q 39.453125 6.390625 43.28125 13.890625 
Q 47.125 21.390625 47.125 36.375 
Q 47.125 51.421875 43.28125 58.90625 
Q 39.453125 66.40625 31.78125 66.40625 
z
M 31.78125 74.21875 
Q 44.046875 74.21875 50.515625 64.515625 
Q 56.984375 54.828125 56.984375 36.375 
Q 56.984375 17.96875 50.515625 8.265625 
Q 44.046875 -1.421875 31.78125 -1.421875 
Q 19.53125 -1.421875 13.0625 8.265625 
Q 6.59375 17.96875 6.59375 36.375 
Q 6.59375 54.828125 13.0625 64.515625 
Q 19.53125 74.21875 31.78125 74.21875 
z
" id="DejaVuSans-30"/>
      </defs>
      <g transform="translate(127.085156 783.558437)scale(0.1 -0.1)">
       <use xlink:href="#DejaVuSans-2212"/>
       <use x="83.789062" xlink:href="#DejaVuSans-34"/>
       <use x="147.412109" xlink:href="#DejaVuSans-30"/>
       <use x="211.035156" xlink:href="#DejaVuSans-30"/>
       <use x="274.658203" xlink:href="#DejaVuSans-30"/>
      </g>
     </g>
    </g>
    <g id="xtick_2">
     <g id="line2d_2">
      <g>
       <use style="stroke:#000000;stroke-width:0.8;" x="255.6" xlink:href="#m7e6c9b7717" y="768.96"/>
      </g>
     </g>
     <g id="text_2">
      <!-- −3000 -->
      <defs>
       <path d="M 40.578125 39.3125 
Q 47.65625 37.796875 51.625 33 
Q 55.609375 28.21875 55.609375 21.1875 
Q 55.609375 10.40625 48.1875 4.484375 
Q 40.765625 -1.421875 27.09375 -1.421875 
Q 22.515625 -1.421875 17.65625 -0.515625 
Q 12.796875 0.390625 7.625 2.203125 
L 7.625 11.71875 
Q 11.71875 9.328125 16.59375 8.109375 
Q 21.484375 6.890625 26.8125 6.890625 
Q 36.078125 6.890625 40.9375 10.546875 
Q 45.796875 14.203125 45.796875 21.1875 
Q 45.796875 27.640625 41.28125 31.265625 
Q 36.765625 34.90625 28.71875 34.90625 
L 20.21875 34.90625 
L 20.21875 43.015625 
L 29.109375 43.015625 
Q 36.375 43.015625 40.234375 45.921875 
Q 44.09375 48.828125 44.09375 54.296875 
Q 44.09375 59.90625 40.109375 62.90625 
Q 36.140625 65.921875 28.71875 65.921875 
Q 24.65625 65.921875 20.015625 65.03125 
Q 15.375 64.15625 9.8125 62.3125 
L 9.8125 71.09375 
Q 15.4375 72.65625 20.34375 73.4375 
Q 25.25 74.21875 29.59375 74.21875 
Q 40.828125 74.21875 47.359375 69.109375 
Q 53.90625 64.015625 53.90625 55.328125 
Q 53.90625 49.265625 50.4375 45.09375 
Q 46.96875 40.921875 40.578125 39.3125 
z
" id="DejaVuSans-33"/>
      </defs>
      <g transform="translate(238.685156 783.558437)scale(0.1 -0.1)">
       <use xlink:href="#DejaVuSans-2212"/>
       <use x="83.789062" xlink:href="#DejaVuSans-33"/>
       <use x="147.412109" xlink:href="#DejaVuSans-30"/>
       <use x="211.035156" xlink:href="#DejaVuSans-30"/>
       <use x="274.658203" xlink:href="#DejaVuSans-30"/>
      </g>
     </g>
    </g>
    <g id="xtick_3">
     <g id="line2d_3">
      <g>
       <use style="stroke:#000000;stroke-width:0.8;" x="367.2" xlink:href="#m7e6c9b7717" y="768.96"/>
      </g>
     </g>
     <g id="text_3">
      <!-- −2000 -->
      <defs>
       <path d="M 19.1875 8.296875 
L 53.609375 8.296875 
L 53.609375 0 
L 7.328125 0 
L 7.328125 8.296875 
Q 12.9375 14.109375 22.625 23.890625 
Q 32.328125 33.6875 34.8125 36.53125 
Q 39.546875 41.84375 41.421875 45.53125 
Q 43.3125 49.21875 43.3125 52.78125 
Q 43.3125 58.59375 39.234375 62.25 
Q 35.15625 65.921875 28.609375 65.921875 
Q 23.96875 65.921875 18.8125 64.3125 
Q 13.671875 62.703125 7.8125 59.421875 
L 7.8125 69.390625 
Q 13.765625 71.78125 18.9375 73 
Q 24.125 74.21875 28.421875 74.21875 
Q 39.75 74.21875 46.484375 68.546875 
Q 53.21875 62.890625 53.21875 53.421875 
Q 53.21875 48.921875 51.53125 44.890625 
Q 49.859375 40.875 45.40625 35.40625 
Q 44.1875 33.984375 37.640625 27.21875 
Q 31.109375 20.453125 19.1875 8.296875 
z
" id="DejaVuSans-32"/>
      </defs>
      <g transform="translate(350.285156 783.558437)scale(0.1 -0.1)">
       <use xlink:href="#DejaVuSans-2212"/>
       <use x="83.789062" xlink:href="#DejaVuSans-32"/>
       <use x="147.412109" xlink:href="#DejaVuSans-30"/>
       <use x="211.035156" xlink:href="#DejaVuSans-30"/>
       <use x="274.658203" xlink:href="#DejaVuSans-30"/>
      </g>
     </g>
    </g>
    <g id="xtick_4">
     <g id="line2d_4">
      <g>
       <use style="stroke:#000000;stroke-width:0.8;" x="478.8" xlink:href="#m7e6c9b7717" y="768.96"/>
      </g>
     </g>
     <g id="text_4">
      <!-- −1000 -->
      <defs>
       <path d="M 12.40625 8.296875 
L 28.515625 8.296875 
L 28.515625 63.921875 
L 10.984375 60.40625 
L 10.984375 69.390625 
L 28.421875 72.90625 
L 38.28125 72.90625 
L 38.28125 8.296875 
L 54.390625 8.296875 
L 54.390625 0 
L 12.40625 0 
z
" id="DejaVuSans-31"/>
      </defs>
      <g transform="translate(461.885156 783.558437)scale(0.1 -0.1)">
       <use xlink:href="#DejaVuSans-2212"/>
       <use x="83.789062" xlink:href="#DejaVuSans-31"/>
       <use x="147.412109" xlink:href="#DejaVuSans-30"/>
       <use x="211.035156" xlink:href="#DejaVuSans-30"/>
       <use x="274.658203" xlink:href="#DejaVuSans-30"/>
      </g>
     </g>
    </g>
    <g id="xtick_5">
     <g id="line2d_5">
      <g>
       <use style="stroke:#000000;stroke-width:0.8;" x="590.4" xlink:href="#m7e6c9b7717" y="768.96"/>
      </g>
     </g>
     <g id="text_5">
      <!-- 0 -->
      <g transform="translate(587.21875 783.558437)scale(0.1 -0.1)">
       <use xlink:href="#DejaVuSans-30"/>
      </g>
     </g>
    </g>
    <g id="xtick_6">
     <g id="line2d_6">
      <g>
       <use style="stroke:#000000;stroke-width:0.8;" x="702" xlink:href="#m7e6c9b7717" y="768.96"/>
      </g>
     </g>
     <g id="text_6">
      <!-- 1000 -->
      <g transform="translate(689.275 783.558437)scale(0.1 -0.1)">
       <use xlink:href="#DejaVuSans-31"/>
       <use x="63.623047" xlink:href="#DejaVuSans-30"/>
       <use x="127.246094" xlink:href="#DejaVuSans-30"/>
       <use x="190.869141" xlink:href="#DejaVuSans-30"/>
      </g>
     </g>
    </g>
    <g id="xtick_7">
     <g id="line2d_7">
      <g>
       <use style="stroke:#000000;stroke-width:0.8;" x="813.6" xlink:href="#m7e6c9b7717" y="768.96"/>
      </g>
     </g>
     <g id="text_7">
      <!-- 2000 -->
      <g transform="translate(800.875 783.558437)scale(0.1 -0.1)">
       <use xlink:href="#DejaVuSans-32"/>
       <use x="63.623047" xlink:href="#DejaVuSans-30"/>
       <use x="127.246094" xlink:href="#DejaVuSans-30"/>
       <use x="190.869141" xlink:href="#DejaVuSans-30"/>
      </g>
     </g>
    </g>
    <g id="xtick_8">
     <g id="line2d_8">
      <g>
       <use style="stroke:#000000;stroke-width:0.8;" x="925.2" xlink:href="#m7e6c9b7717" y="768.96"/>
      </g>
     </g>
     <g id="text_8">
      <!-- 3000 -->
      <g transform="translate(912.475 783.558437)scale(0.1 -0.1)">
       <use xlink:href="#DejaVuSans-33"/>
       <use x="63.623047" xlink:href="#DejaVuSans-30"/>
       <use x="127.246094" xlink:href="#DejaVuSans-30"/>
       <use x="190.869141" xlink:href="#DejaVuSans-30"/>
      </g>
     </g>
    </g>
    <g id="xtick_9">
     <g id="line2d_9">
      <g>
       <use style="stroke:#000000;stroke-width:0.8;" x="1036.8" xlink:href="#m7e6c9b7717" y="768.96"/>
      </g>
     </g>
     <g id="text_9">
      <!-- 4000 -->
      <g transform="translate(1024.075 783.558437)scale(0.1 -0.1)">
       <use xlink:href="#DejaVuSans-34"/>
       <use x="63.623047" xlink:href="#DejaVuSans-30"/>
       <use x="127.246094" xlink:href="#DejaVuSans-30"/>
       <use x="190.869141" xlink:href="#DejaVuSans-30"/>
      </g>
     </g>
    </g>
   </g>
   <g id="matplotlib.axis_2">
    <g id="ytick_1">
     <g id="line2d_10">
      <defs>
       <path d="M 0 0 
L -3.5 0 
" id="m776d644818" style="stroke:#000000;stroke-width:0.8;"/>
      </defs>
      <g>
       <use style="stroke:#000000;stroke-width:0.8;" x="144" xlink:href="#m776d644818" y="768.96"/>
      </g>
     </g>
     <g id="text_10">
      <!-- −4000 -->
      <g transform="translate(103.170312 772.759219)scale(0.1 -0.1)">
       <use xlink:href="#DejaVuSans-2212"/>
       <use x="83.789062" xlink:href="#DejaVuSans-34"/>
       <use x="147.412109" xlink:href="#DejaVuSans-30"/>
       <use x="211.035156" xlink:href="#DejaVuSans-30"/>
       <use x="274.658203" xlink:href="#DejaVuSans-30"/>
      </g>
     </g>
    </g>
    <g id="ytick_2">
     <g id="line2d_11">
      <g>
       <use style="stroke:#000000;stroke-width:0.8;" x="144" xlink:href="#m776d644818" y="685.8"/>
      </g>
     </g>
     <g id="text_11">
      <!-- −3000 -->
      <g transform="translate(103.170312 689.599219)scale(0.1 -0.1)">
       <use xlink:href="#DejaVuSans-2212"/>
       <use x="83.789062" xlink:href="#DejaVuSans-33"/>
       <use x="147.412109" xlink:href="#DejaVuSans-30"/>
       <use x="211.035156" xlink:href="#DejaVuSans-30"/>
       <use x="274.658203" xlink:href="#DejaVuSans-30"/>
      </g>
     </g>
    </g>
    <g id="ytick_3">
     <g id="line2d_12">
      <g>
       <use style="stroke:#000000;stroke-width:0.8;" x="144" xlink:href="#m776d644818" y="602.64"/>
      </g>
     </g>
     <g id="text_12">
      <!-- −2000 -->
      <g transform="translate(103.170312 606.439219)scale(0.1 -0.1)">
       <use xlink:href="#DejaVuSans-2212"/>
       <use x="83.789062" xlink:href="#DejaVuSans-32"/>
       <use x="147.412109" xlink:href="#DejaVuSans-30"/>
       <use x="211.035156" xlink:href="#DejaVuSans-30"/>
       <use x="274.658203" xlink:href="#DejaVuSans-30"/>
      </g>
     </g>
    </g>
    <g id="ytick_4">
     <g id="line2d_13">
      <g>
       <use style="stroke:#000000;stroke-width:0.8;" x="144" xlink:href="#m776d644818" y="519.48"/>
      </g>
     </g>
     <g id="text_13">
      <!-- −1000 -->
      <g transform="translate(103.170312 523.279219)scale(0.1 -0.1)">
       <use xlink:href="#DejaVuSans-2212"/>
       <use x="83.789062" xlink:href="#DejaVuSans-31"/>
       <use x="147.412109" xlink:href="#DejaVuSans-30"/>
       <use x="211.035156" xlink:href="#DejaVuSans-30"/>
       <use x="274.658203" xlink:href="#DejaVuSans-30"/>
      </g>
     </g>
    </g>
    <g id="ytick_5">
     <g id="line2d_14">
      <g>
       <use style="stroke:#000000;stroke-width:0.8;" x="144" xlink:href="#m776d644818" y="436.32"/>
      </g>
     </g>
     <g id="text_14">
      <!-- 0 -->
      <g transform="translate(130.6375 440.119219)scale(0.1 -0.1)">
       <use xlink:href="#DejaVuSans-30"/>
      </g>
     </g>
    </g>
    <g id="ytick_6">
     <g id="line2d_15">
      <g>
       <use style="stroke:#000000;stroke-width:0.8;" x="144" xlink:href="#m776d644818" y="353.16"/>
      </g>
     </g>
     <g id="text_15">
      <!-- 1000 -->
      <g transform="translate(111.55 356.959219)scale(0.1 -0.1)">
       <use xlink:href="#DejaVuSans-31"/>
       <use x="63.623047" xlink:href="#DejaVuSans-30"/>
       <use x="127.246094" xlink:href="#DejaVuSans-30"/>
       <use x="190.869141" xlink:href="#DejaVuSans-30"/>
      </g>
     </g>
    </g>
    <g id="ytick_7">
     <g id="line2d_16">
      <g>
       <use style="stroke:#000000;stroke-width:0.8;" x="144" xlink:href="#m776d644818" y="270"/>
      </g>
     </g>
     <g id="text_16">
      <!-- 2000 -->
      <g transform="translate(111.55 273.799219)scale(0.1 -0.1)">
       <use xlink:href="#DejaVuSans-32"/>
       <use x="63.623047" xlink:href="#DejaVuSans-30"/>
       <use x="127.246094" xlink:href="#DejaVuSans-30"/>
       <use x="190.869141" xlink:href="#DejaVuSans-30"/>
      </g>
     </g>
    </g>
    <g id="ytick_8">
     <g id="line2d_17">
      <g>
       <use style="stroke:#000000;stroke-width:0.8;" x="144" xlink:href="#m776d644818" y="186.84"/>
      </g>
     </g>
     <g id="text_17">
      <!-- 3000 -->
      <g transform="translate(111.55 190.639219)scale(0.1 -0.1)">
       <use xlink:href="#DejaVuSans-33"/>
       <use x="63.623047" xlink:href="#DejaVuSans-30"/>
       <use x="127.246094" xlink:href="#DejaVuSans-30"/>
       <use x="190.869141" xlink:href="#DejaVuSans-30"/>
      </g>
     </g>
    </g>
    <g id="ytick_9">
     <g id="line2d_18">
      <g>
       <use style="stroke:#000000;stroke-width:0.8;" x="144" xlink:href="#m776d644818" y="103.68"/>
      </g>
     </g>
     <g id="text_18">
      <!-- 4000 -->
      <g transform="translate(111.55 107.479219)scale(0.1 -0.1)">
       <use xlink:href="#DejaVuSans-34"/>
       <use x="63.623047" xlink:href="#DejaVuSans-30"/>
       <use x="127.246094" xlink:href="#DejaVuSans-30"/>
       <use x="190.869141" xlink:href="#DejaVuSans-30"/>
      </g>
     </g>
    </g>
   </g>
   <g id="line2d_19">
    <path clip-path="url(#pcd228c35d2)" d="M 590.4 768.96 
L 590.4 103.68 
" style="fill:none;stroke:#1f77b4;stroke-linecap:square;stroke-width:1.5;"/>
   </g>
   <g id="line2d_20">
    <path clip-path="url(#pcd228c35d2)" d="M 144 436.32 
L 1036.8 436.32 
" style="fill:none;stroke:#1f77b4;stroke-linecap:square;stroke-width:1.5;"/>
   </g>
   <g id="line2d_21">
    <defs>
     <path d="M 0 3 
C 0.795609 3 1.55874 2.683901 2.12132 2.12132 
C 2.683901 1.55874 3 0.795609 3 0 
C 3 -0.795609 2.683901 -1.55874 2.12132 -2.12132 
C 1.55874 -2.683901 0.795609 -3 0 -3 
C -0.795609 -3 -1.55874 -2.683901 -2.12132 -2.12132 
C -2.683901 -1.55874 -3 -0.795609 -3 0 
C -3 0.795609 -2.683901 1.55874 -2.12132 2.12132 
C -1.55874 2.683901 -0.795609 3 0 3 
z
" id="m95dffd80a6" style="stroke:#008000;"/>
    </defs>
    <g clip-path="url(#pcd228c35d2)">
     <use style="fill:#008000;stroke:#008000;" x="1406.123089" xlink:href="#m95dffd80a6" y="506.750889"/>
    </g>
   </g>
   <g id="line2d_22">
    <g clip-path="url(#pcd228c35d2)">
     <use style="fill:#008000;stroke:#008000;" x="1076.91063" xlink:href="#m95dffd80a6" y="438.593911"/>
    </g>
   </g>
   <g id="line2d_23">
    <g clip-path="url(#pcd228c35d2)">
     <use style="fill:#008000;stroke:#008000;" x="1370.810593" xlink:href="#m95dffd80a6" y="347.787527"/>
    </g>
   </g>
   <g id="line2d_24">
    <g clip-path="url(#pcd228c35d2)">
     <use style="fill:#008000;stroke:#008000;" x="1256.567211" xlink:href="#m95dffd80a6" y="333.068232"/>
    </g>
   </g>
   <g id="line2d_25">
    <g clip-path="url(#pcd228c35d2)">
     <use style="fill:#008000;stroke:#008000;" x="645.599187" xlink:href="#m95dffd80a6" y="394.280402"/>
    </g>
   </g>
   <g id="line2d_26">
    <g clip-path="url(#pcd228c35d2)">
     <use style="fill:#008000;stroke:#008000;" x="645.599187" xlink:href="#m95dffd80a6" y="394.280402"/>
    </g>
   </g>
   <g id="line2d_27">
    <g clip-path="url(#pcd228c35d2)">
     <use style="fill:#008000;stroke:#008000;" x="715.310598" xlink:href="#m95dffd80a6" y="202.36824"/>
    </g>
   </g>
   <g id="line2d_28">
    <g clip-path="url(#pcd228c35d2)">
     <use style="fill:#008000;stroke:#008000;" x="539.700429" xlink:href="#m95dffd80a6" y="232.7906"/>
    </g>
   </g>
   <g id="line2d_29">
    <g clip-path="url(#pcd228c35d2)">
     <use style="fill:#008000;stroke:#008000;" x="572.627176" xlink:href="#m95dffd80a6" y="397.959712"/>
    </g>
   </g>
   <g id="line2d_30">
    <g clip-path="url(#pcd228c35d2)">
     <use style="fill:#008000;stroke:#008000;" x="572.627176" xlink:href="#m95dffd80a6" y="397.959712"/>
    </g>
   </g>
   <g id="line2d_31">
    <g clip-path="url(#pcd228c35d2)">
     <use style="fill:#008000;stroke:#008000;" x="451.540461" xlink:href="#m95dffd80a6" y="248.200989"/>
    </g>
   </g>
   <g id="line2d_32">
    <g clip-path="url(#pcd228c35d2)">
     <use style="fill:#008000;stroke:#008000;" x="388.151378" xlink:href="#m95dffd80a6" y="281.022055"/>
    </g>
   </g>
   <g id="line2d_33">
    <g clip-path="url(#pcd228c35d2)">
     <use style="fill:#008000;stroke:#008000;" x="418.306054" xlink:href="#m95dffd80a6" y="324.290864"/>
    </g>
   </g>
   <g id="line2d_34">
    <g clip-path="url(#pcd228c35d2)">
     <use style="fill:#008000;stroke:#008000;" x="576.575074" xlink:href="#m95dffd80a6" y="613.890265"/>
    </g>
   </g>
   <g id="line2d_35">
    <defs>
     <path d="M 0 1.333333 
C 0.353604 1.333333 0.692773 1.192845 0.942809 0.942809 
C 1.192845 0.692773 1.333333 0.353604 1.333333 0 
C 1.333333 -0.353604 1.192845 -0.692773 0.942809 -0.942809 
C 0.692773 -1.192845 0.353604 -1.333333 0 -1.333333 
C -0.353604 -1.333333 -0.692773 -1.192845 -0.942809 -0.942809 
C -1.192845 -0.692773 -1.333333 -0.353604 -1.333333 0 
C -1.333333 0.353604 -1.192845 0.692773 -0.942809 0.942809 
C -0.692773 1.192845 -0.353604 1.333333 0 1.333333 
z
" id="ma468538c39" style="stroke:#ff0000;"/>
    </defs>
    <g clip-path="url(#pcd228c35d2)">
     <use style="fill:#ff0000;stroke:#ff0000;" x="1406.123089" xlink:href="#ma468538c39" y="506.750889"/>
     <use style="fill:#ff0000;stroke:#ff0000;" x="1076.91063" xlink:href="#ma468538c39" y="438.593911"/>
     <use style="fill:#ff0000;stroke:#ff0000;" x="1370.810593" xlink:href="#ma468538c39" y="347.787527"/>
     <use style="fill:#ff0000;stroke:#ff0000;" x="1256.567211" xlink:href="#ma468538c39" y="333.068232"/>
     <use style="fill:#ff0000;stroke:#ff0000;" x="1363.014394" xlink:href="#ma468538c39" y="284.577059"/>
     <use style="fill:#ff0000;stroke:#ff0000;" x="1319.568525" xlink:href="#ma468538c39" y="261.739222"/>
     <use style="fill:#ff0000;stroke:#ff0000;" x="649.238947" xlink:href="#ma468538c39" y="398.059364"/>
     <use style="fill:#ff0000;stroke:#ff0000;" x="641.522534" xlink:href="#ma468538c39" y="390.693748"/>
     <use style="fill:#ff0000;stroke:#ff0000;" x="772.269532" xlink:href="#ma468538c39" y="195.253893"/>
     <use style="fill:#ff0000;stroke:#ff0000;" x="749.067158" xlink:href="#ma468538c39" y="196.73269"/>
     <use style="fill:#ff0000;stroke:#ff0000;" x="726.19823" xlink:href="#ma468538c39" y="200.435565"/>
     <use style="fill:#ff0000;stroke:#ff0000;" x="704.658587" xlink:href="#ma468538c39" y="204.562337"/>
     <use style="fill:#ff0000;stroke:#ff0000;" x="539.700429" xlink:href="#ma468538c39" y="232.7906"/>
     <use style="fill:#ff0000;stroke:#ff0000;" x="575.000172" xlink:href="#ma468538c39" y="396.052123"/>
     <use style="fill:#ff0000;stroke:#ff0000;" x="570.486729" xlink:href="#ma468538c39" y="399.936436"/>
     <use style="fill:#ff0000;stroke:#ff0000;" x="451.540461" xlink:href="#ma468538c39" y="248.200989"/>
     <use style="fill:#ff0000;stroke:#ff0000;" x="388.151378" xlink:href="#ma468538c39" y="281.022055"/>
     <use style="fill:#ff0000;stroke:#ff0000;" x="416.938669" xlink:href="#ma468538c39" y="317.162802"/>
     <use style="fill:#ff0000;stroke:#ff0000;" x="420.056807" xlink:href="#ma468538c39" y="331.276775"/>
     <use style="fill:#ff0000;stroke:#ff0000;" x="403.855125" xlink:href="#ma468538c39" y="364.631242"/>
     <use style="fill:#ff0000;stroke:#ff0000;" x="453.90751" xlink:href="#ma468538c39" y="391.301894"/>
     <use style="fill:#ff0000;stroke:#ff0000;" x="445.412719" xlink:href="#ma468538c39" y="413.940072"/>
     <use style="fill:#ff0000;stroke:#ff0000;" x="423.548567" xlink:href="#ma468538c39" y="417.287708"/>
     <use style="fill:#ff0000;stroke:#ff0000;" x="420.629409" xlink:href="#ma468538c39" y="436.733993"/>
     <use style="fill:#ff0000;stroke:#ff0000;" x="395.916839" xlink:href="#ma468538c39" y="444.192441"/>
     <use style="fill:#ff0000;stroke:#ff0000;" x="410.733965" xlink:href="#ma468538c39" y="506.106442"/>
     <use style="fill:#ff0000;stroke:#ff0000;" x="438.740901" xlink:href="#ma468538c39" y="503.429056"/>
     <use style="fill:#ff0000;stroke:#ff0000;" x="448.088189" xlink:href="#ma468538c39" y="515.507746"/>
     <use style="fill:#ff0000;stroke:#ff0000;" x="468.235715" xlink:href="#ma468538c39" y="512.578173"/>
     <use style="fill:#ff0000;stroke:#ff0000;" x="457.335923" xlink:href="#ma468538c39" y="528.379177"/>
     <use style="fill:#ff0000;stroke:#ff0000;" x="453.301878" xlink:href="#ma468538c39" y="541.41952"/>
     <use style="fill:#ff0000;stroke:#ff0000;" x="471.550534" xlink:href="#ma468538c39" y="538.086797"/>
     <use style="fill:#ff0000;stroke:#ff0000;" x="457.388519" xlink:href="#ma468538c39" y="562.187928"/>
     <use style="fill:#ff0000;stroke:#ff0000;" x="527.999422" xlink:href="#ma468538c39" y="504.134085"/>
     <use style="fill:#ff0000;stroke:#ff0000;" x="568.666346" xlink:href="#ma468538c39" y="506.555971"/>
     <use style="fill:#ff0000;stroke:#ff0000;" x="570.021981" xlink:href="#ma468538c39" y="615.511256"/>
     <use style="fill:#ff0000;stroke:#ff0000;" x="582.997985" xlink:href="#ma468538c39" y="612.137693"/>
     <use style="fill:#ff0000;stroke:#ff0000;" x="595.974205" xlink:href="#ma468538c39" y="642.119877"/>
     <use style="fill:#ff0000;stroke:#ff0000;" x="609.613016" xlink:href="#ma468538c39" y="632.596686"/>
     <use style="fill:#ff0000;stroke:#ff0000;" x="625.552705" xlink:href="#ma468538c39" y="640.0062"/>
     <use style="fill:#ff0000;stroke:#ff0000;" x="636.513193" xlink:href="#ma468538c39" y="623.715229"/>
     <use style="fill:#ff0000;stroke:#ff0000;" x="648.111651" xlink:href="#ma468538c39" y="615.877965"/>
     <use style="fill:#ff0000;stroke:#ff0000;" x="668.402863" xlink:href="#ma468538c39" y="632.939481"/>
     <use style="fill:#ff0000;stroke:#ff0000;" x="672.206969" xlink:href="#ma468538c39" y="607.869059"/>
     <use style="fill:#ff0000;stroke:#ff0000;" x="694.560756" xlink:href="#ma468538c39" y="597.572799"/>
     <use style="fill:#ff0000;stroke:#ff0000;" x="756.642942" xlink:href="#ma468538c39" y="596.581085"/>
     <use style="fill:#ff0000;stroke:#ff0000;" x="781.372896" xlink:href="#ma468538c39" y="584.73112"/>
     <use style="fill:#ff0000;stroke:#ff0000;" x="803.309969" xlink:href="#ma468538c39" y="585.32068"/>
     <use style="fill:#ff0000;stroke:#ff0000;" x="853.70692" xlink:href="#ma468538c39" y="568.896382"/>
     <use style="fill:#ff0000;stroke:#ff0000;" x="893.661441" xlink:href="#ma468538c39" y="556.316947"/>
     <use style="fill:#ff0000;stroke:#ff0000;" x="928.08884" xlink:href="#ma468538c39" y="553.324228"/>
     <use style="fill:#ff0000;stroke:#ff0000;" x="963.146975" xlink:href="#ma468538c39" y="548.188669"/>
     <use style="fill:#ff0000;stroke:#ff0000;" x="1096.814196" xlink:href="#ma468538c39" y="522.465483"/>
     <use style="fill:#ff0000;stroke:#ff0000;" x="1118.743312" xlink:href="#ma468538c39" y="504.633601"/>
    </g>
   </g>
   <g id="line2d_36">
    <defs>
     <path d="M -0.5 0.5 
L 0.5 0.5 
L 0.5 -0.5 
L -0.5 -0.5 
z
" id="m14324494e0" style="stroke:#1f77b4;stroke-linejoin:miter;"/>
    </defs>
    <g clip-path="url(#pcd228c35d2)">
     <use style="fill:#1f77b4;stroke:#1f77b4;stroke-linejoin:miter;" x="1406.123089" xlink:href="#m14324494e0" y="506.750889"/>
     <use style="fill:#1f77b4;stroke:#1f77b4;stroke-linejoin:miter;" x="1076.91063" xlink:href="#m14324494e0" y="438.593911"/>
     <use style="fill:#1f77b4;stroke:#1f77b4;stroke-linejoin:miter;" x="1370.810593" xlink:href="#m14324494e0" y="347.787527"/>
     <use style="fill:#1f77b4;stroke:#1f77b4;stroke-linejoin:miter;" x="1256.567211" xlink:href="#m14324494e0" y="333.068232"/>
     <use style="fill:#1f77b4;stroke:#1f77b4;stroke-linejoin:miter;" x="1363.014394" xlink:href="#m14324494e0" y="284.577059"/>
     <use style="fill:#1f77b4;stroke:#1f77b4;stroke-linejoin:miter;" x="1319.568525" xlink:href="#m14324494e0" y="261.739222"/>
     <use style="fill:#1f77b4;stroke:#1f77b4;stroke-linejoin:miter;" x="649.238947" xlink:href="#m14324494e0" y="398.059364"/>
     <use style="fill:#1f77b4;stroke:#1f77b4;stroke-linejoin:miter;" x="646.075755" xlink:href="#m14324494e0" y="396.080779"/>
     <use style="fill:#1f77b4;stroke:#1f77b4;stroke-linejoin:miter;" x="644.175728" xlink:href="#m14324494e0" y="393.324978"/>
     <use style="fill:#1f77b4;stroke:#1f77b4;stroke-linejoin:miter;" x="641.522534" xlink:href="#m14324494e0" y="390.693748"/>
     <use style="fill:#1f77b4;stroke:#1f77b4;stroke-linejoin:miter;" x="772.269532" xlink:href="#m14324494e0" y="195.253893"/>
     <use style="fill:#1f77b4;stroke:#1f77b4;stroke-linejoin:miter;" x="749.067158" xlink:href="#m14324494e0" y="196.73269"/>
     <use style="fill:#1f77b4;stroke:#1f77b4;stroke-linejoin:miter;" x="726.19823" xlink:href="#m14324494e0" y="200.435565"/>
     <use style="fill:#1f77b4;stroke:#1f77b4;stroke-linejoin:miter;" x="704.658587" xlink:href="#m14324494e0" y="204.562337"/>
     <use style="fill:#1f77b4;stroke:#1f77b4;stroke-linejoin:miter;" x="684.653478" xlink:href="#m14324494e0" y="208.153522"/>
     <use style="fill:#1f77b4;stroke:#1f77b4;stroke-linejoin:miter;" x="666.128662" xlink:href="#m14324494e0" y="210.777604"/>
     <use style="fill:#1f77b4;stroke:#1f77b4;stroke-linejoin:miter;" x="648.547524" xlink:href="#m14324494e0" y="213.085153"/>
     <use style="fill:#1f77b4;stroke:#1f77b4;stroke-linejoin:miter;" x="631.7019" xlink:href="#m14324494e0" y="215.58644"/>
     <use style="fill:#1f77b4;stroke:#1f77b4;stroke-linejoin:miter;" x="614.738279" xlink:href="#m14324494e0" y="218.779671"/>
     <use style="fill:#1f77b4;stroke:#1f77b4;stroke-linejoin:miter;" x="598.905199" xlink:href="#m14324494e0" y="223.171172"/>
     <use style="fill:#1f77b4;stroke:#1f77b4;stroke-linejoin:miter;" x="583.813036" xlink:href="#m14324494e0" y="224.609951"/>
     <use style="fill:#1f77b4;stroke:#1f77b4;stroke-linejoin:miter;" x="568.671388" xlink:href="#m14324494e0" y="226.194662"/>
     <use style="fill:#1f77b4;stroke:#1f77b4;stroke-linejoin:miter;" x="553.825889" xlink:href="#m14324494e0" y="227.99136"/>
     <use style="fill:#1f77b4;stroke:#1f77b4;stroke-linejoin:miter;" x="539.700429" xlink:href="#m14324494e0" y="232.7906"/>
     <use style="fill:#1f77b4;stroke:#1f77b4;stroke-linejoin:miter;" x="575.000172" xlink:href="#m14324494e0" y="396.052123"/>
     <use style="fill:#1f77b4;stroke:#1f77b4;stroke-linejoin:miter;" x="573.333937" xlink:href="#m14324494e0" y="399.999684"/>
     <use style="fill:#1f77b4;stroke:#1f77b4;stroke-linejoin:miter;" x="570.486729" xlink:href="#m14324494e0" y="399.936436"/>
     <use style="fill:#1f77b4;stroke:#1f77b4;stroke-linejoin:miter;" x="451.540461" xlink:href="#m14324494e0" y="248.200989"/>
     <use style="fill:#1f77b4;stroke:#1f77b4;stroke-linejoin:miter;" x="436.035451" xlink:href="#m14324494e0" y="251.229823"/>
     <use style="fill:#1f77b4;stroke:#1f77b4;stroke-linejoin:miter;" x="418.500906" xlink:href="#m14324494e0" y="252.746312"/>
     <use style="fill:#1f77b4;stroke:#1f77b4;stroke-linejoin:miter;" x="409.841771" xlink:href="#m14324494e0" y="263.916512"/>
     <use style="fill:#1f77b4;stroke:#1f77b4;stroke-linejoin:miter;" x="398.003102" xlink:href="#m14324494e0" y="271.758344"/>
     <use style="fill:#1f77b4;stroke:#1f77b4;stroke-linejoin:miter;" x="388.151378" xlink:href="#m14324494e0" y="281.022055"/>
     <use style="fill:#1f77b4;stroke:#1f77b4;stroke-linejoin:miter;" x="416.938669" xlink:href="#m14324494e0" y="317.162802"/>
     <use style="fill:#1f77b4;stroke:#1f77b4;stroke-linejoin:miter;" x="420.056807" xlink:href="#m14324494e0" y="331.276775"/>
     <use style="fill:#1f77b4;stroke:#1f77b4;stroke-linejoin:miter;" x="419.862078" xlink:href="#m14324494e0" y="342.179731"/>
     <use style="fill:#1f77b4;stroke:#1f77b4;stroke-linejoin:miter;" x="421.210099" xlink:href="#m14324494e0" y="353.219263"/>
     <use style="fill:#1f77b4;stroke:#1f77b4;stroke-linejoin:miter;" x="409.588828" xlink:href="#m14324494e0" y="357.301964"/>
     <use style="fill:#1f77b4;stroke:#1f77b4;stroke-linejoin:miter;" x="403.855125" xlink:href="#m14324494e0" y="364.631242"/>
     <use style="fill:#1f77b4;stroke:#1f77b4;stroke-linejoin:miter;" x="453.90751" xlink:href="#m14324494e0" y="391.301894"/>
     <use style="fill:#1f77b4;stroke:#1f77b4;stroke-linejoin:miter;" x="455.292445" xlink:href="#m14324494e0" y="398.145528"/>
     <use style="fill:#1f77b4;stroke:#1f77b4;stroke-linejoin:miter;" x="456.94129" xlink:href="#m14324494e0" y="404.456458"/>
     <use style="fill:#1f77b4;stroke:#1f77b4;stroke-linejoin:miter;" x="460.692127" xlink:href="#m14324494e0" y="411.23938"/>
     <use style="fill:#1f77b4;stroke:#1f77b4;stroke-linejoin:miter;" x="445.412719" xlink:href="#m14324494e0" y="413.940072"/>
     <use style="fill:#1f77b4;stroke:#1f77b4;stroke-linejoin:miter;" x="423.548567" xlink:href="#m14324494e0" y="417.287708"/>
     <use style="fill:#1f77b4;stroke:#1f77b4;stroke-linejoin:miter;" x="420.189258" xlink:href="#m14324494e0" y="430.574345"/>
     <use style="fill:#1f77b4;stroke:#1f77b4;stroke-linejoin:miter;" x="420.629409" xlink:href="#m14324494e0" y="436.733993"/>
     <use style="fill:#1f77b4;stroke:#1f77b4;stroke-linejoin:miter;" x="395.916839" xlink:href="#m14324494e0" y="444.192441"/>
     <use style="fill:#1f77b4;stroke:#1f77b4;stroke-linejoin:miter;" x="396.182245" xlink:href="#m14324494e0" y="452.010063"/>
     <use style="fill:#1f77b4;stroke:#1f77b4;stroke-linejoin:miter;" x="398.503785" xlink:href="#m14324494e0" y="459.527939"/>
     <use style="fill:#1f77b4;stroke:#1f77b4;stroke-linejoin:miter;" x="401.575544" xlink:href="#m14324494e0" y="466.910162"/>
     <use style="fill:#1f77b4;stroke:#1f77b4;stroke-linejoin:miter;" x="403.902057" xlink:href="#m14324494e0" y="474.248575"/>
     <use style="fill:#1f77b4;stroke:#1f77b4;stroke-linejoin:miter;" x="404.241867" xlink:href="#m14324494e0" y="482.146183"/>
     <use style="fill:#1f77b4;stroke:#1f77b4;stroke-linejoin:miter;" x="407.325537" xlink:href="#m14324494e0" y="489.627975"/>
     <use style="fill:#1f77b4;stroke:#1f77b4;stroke-linejoin:miter;" x="409.336253" xlink:href="#m14324494e0" y="497.762929"/>
     <use style="fill:#1f77b4;stroke:#1f77b4;stroke-linejoin:miter;" x="410.733965" xlink:href="#m14324494e0" y="506.106442"/>
     <use style="fill:#1f77b4;stroke:#1f77b4;stroke-linejoin:miter;" x="438.740901" xlink:href="#m14324494e0" y="503.429056"/>
     <use style="fill:#1f77b4;stroke:#1f77b4;stroke-linejoin:miter;" x="434.604828" xlink:href="#m14324494e0" y="513.707507"/>
     <use style="fill:#1f77b4;stroke:#1f77b4;stroke-linejoin:miter;" x="448.088189" xlink:href="#m14324494e0" y="515.507746"/>
     <use style="fill:#1f77b4;stroke:#1f77b4;stroke-linejoin:miter;" x="468.235715" xlink:href="#m14324494e0" y="512.578173"/>
     <use style="fill:#1f77b4;stroke:#1f77b4;stroke-linejoin:miter;" x="457.335923" xlink:href="#m14324494e0" y="528.379177"/>
     <use style="fill:#1f77b4;stroke:#1f77b4;stroke-linejoin:miter;" x="453.301878" xlink:href="#m14324494e0" y="541.41952"/>
     <use style="fill:#1f77b4;stroke:#1f77b4;stroke-linejoin:miter;" x="471.550534" xlink:href="#m14324494e0" y="538.086797"/>
     <use style="fill:#1f77b4;stroke:#1f77b4;stroke-linejoin:miter;" x="457.388519" xlink:href="#m14324494e0" y="562.187928"/>
     <use style="fill:#1f77b4;stroke:#1f77b4;stroke-linejoin:miter;" x="527.999422" xlink:href="#m14324494e0" y="504.134085"/>
     <use style="fill:#1f77b4;stroke:#1f77b4;stroke-linejoin:miter;" x="537.748364" xlink:href="#m14324494e0" y="501.055151"/>
     <use style="fill:#1f77b4;stroke:#1f77b4;stroke-linejoin:miter;" x="547.787006" xlink:href="#m14324494e0" y="495.961251"/>
     <use style="fill:#1f77b4;stroke:#1f77b4;stroke-linejoin:miter;" x="552.394794" xlink:href="#m14324494e0" y="497.139037"/>
     <use style="fill:#1f77b4;stroke:#1f77b4;stroke-linejoin:miter;" x="559.943436" xlink:href="#m14324494e0" y="493.386384"/>
     <use style="fill:#1f77b4;stroke:#1f77b4;stroke-linejoin:miter;" x="565.440057" xlink:href="#m14324494e0" y="491.656233"/>
     <use style="fill:#1f77b4;stroke:#1f77b4;stroke-linejoin:miter;" x="568.604248" xlink:href="#m14324494e0" y="494.209513"/>
     <use style="fill:#1f77b4;stroke:#1f77b4;stroke-linejoin:miter;" x="568.666346" xlink:href="#m14324494e0" y="506.555971"/>
     <use style="fill:#1f77b4;stroke:#1f77b4;stroke-linejoin:miter;" x="570.021981" xlink:href="#m14324494e0" y="615.511256"/>
     <use style="fill:#1f77b4;stroke:#1f77b4;stroke-linejoin:miter;" x="582.997985" xlink:href="#m14324494e0" y="612.137693"/>
     <use style="fill:#1f77b4;stroke:#1f77b4;stroke-linejoin:miter;" x="595.974205" xlink:href="#m14324494e0" y="642.119877"/>
     <use style="fill:#1f77b4;stroke:#1f77b4;stroke-linejoin:miter;" x="609.613016" xlink:href="#m14324494e0" y="632.596686"/>
     <use style="fill:#1f77b4;stroke:#1f77b4;stroke-linejoin:miter;" x="625.552705" xlink:href="#m14324494e0" y="640.0062"/>
     <use style="fill:#1f77b4;stroke:#1f77b4;stroke-linejoin:miter;" x="636.513193" xlink:href="#m14324494e0" y="623.715229"/>
     <use style="fill:#1f77b4;stroke:#1f77b4;stroke-linejoin:miter;" x="648.111651" xlink:href="#m14324494e0" y="615.877965"/>
     <use style="fill:#1f77b4;stroke:#1f77b4;stroke-linejoin:miter;" x="668.402863" xlink:href="#m14324494e0" y="632.939481"/>
     <use style="fill:#1f77b4;stroke:#1f77b4;stroke-linejoin:miter;" x="672.206969" xlink:href="#m14324494e0" y="607.869059"/>
     <use style="fill:#1f77b4;stroke:#1f77b4;stroke-linejoin:miter;" x="680.847777" xlink:href="#m14324494e0" y="597.786746"/>
     <use style="fill:#1f77b4;stroke:#1f77b4;stroke-linejoin:miter;" x="694.560756" xlink:href="#m14324494e0" y="597.572799"/>
     <use style="fill:#1f77b4;stroke:#1f77b4;stroke-linejoin:miter;" x="756.642942" xlink:href="#m14324494e0" y="596.581085"/>
     <use style="fill:#1f77b4;stroke:#1f77b4;stroke-linejoin:miter;" x="763.468791" xlink:href="#m14324494e0" y="585.825306"/>
     <use style="fill:#1f77b4;stroke:#1f77b4;stroke-linejoin:miter;" x="781.372896" xlink:href="#m14324494e0" y="584.73112"/>
     <use style="fill:#1f77b4;stroke:#1f77b4;stroke-linejoin:miter;" x="803.309969" xlink:href="#m14324494e0" y="585.32068"/>
     <use style="fill:#1f77b4;stroke:#1f77b4;stroke-linejoin:miter;" x="819.980615" xlink:href="#m14324494e0" y="580.585614"/>
     <use style="fill:#1f77b4;stroke:#1f77b4;stroke-linejoin:miter;" x="835.177737" xlink:href="#m14324494e0" y="573.923464"/>
     <use style="fill:#1f77b4;stroke:#1f77b4;stroke-linejoin:miter;" x="853.70692" xlink:href="#m14324494e0" y="568.896382"/>
     <use style="fill:#1f77b4;stroke:#1f77b4;stroke-linejoin:miter;" x="893.661441" xlink:href="#m14324494e0" y="556.316947"/>
     <use style="fill:#1f77b4;stroke:#1f77b4;stroke-linejoin:miter;" x="928.08884" xlink:href="#m14324494e0" y="553.324228"/>
     <use style="fill:#1f77b4;stroke:#1f77b4;stroke-linejoin:miter;" x="963.146975" xlink:href="#m14324494e0" y="548.188669"/>
     <use style="fill:#1f77b4;stroke:#1f77b4;stroke-linejoin:miter;" x="1096.814196" xlink:href="#m14324494e0" y="522.465483"/>
     <use style="fill:#1f77b4;stroke:#1f77b4;stroke-linejoin:miter;" x="1118.743312" xlink:href="#m14324494e0" y="504.633601"/>
    </g>
   </g>
   <g id="patch_3">
    <path d="M 144 768.96 
L 144 103.68 
" style="fill:none;stroke:#000000;stroke-linecap:square;stroke-linejoin:miter;stroke-width:0.8;"/>
   </g>
   <g id="patch_4">
    <path d="M 1036.8 768.96 
L 1036.8 103.68 
" style="fill:none;stroke:#000000;stroke-linecap:square;stroke-linejoin:miter;stroke-width:0.8;"/>
   </g>
   <g id="patch_5">
    <path d="M 144 768.96 
L 1036.8 768.96 
" style="fill:none;stroke:#000000;stroke-linecap:square;stroke-linejoin:miter;stroke-width:0.8;"/>
   </g>
   <g id="patch_6">
    <path d="M 144 103.68 
L 1036.8 103.68 
" style="fill:none;stroke:#000000;stroke-linecap:square;stroke-linejoin:miter;stroke-width:0.8;"/>
   </g>
  </g>
 </g>
 <defs>
  <clipPath id="pcd228c35d2">
   <rect height="665.28" width="892.8" x="144" y="103.68"/>
  </clipPath>
 </defs>
</svg>
