<?xml version="1.0" encoding="utf-8" standalone="no"?>
<!DOCTYPE svg PUBLIC "-//W3C//DTD SVG 1.1//EN"
  "http://www.w3.org/Graphics/SVG/1.1/DTD/svg11.dtd">
<!-- Created with matplotlib (http://matplotlib.org/) -->
<svg height="864pt" version="1.1" viewBox="0 0 1152 864" width="1152pt" xmlns="http://www.w3.org/2000/svg" xmlns:xlink="http://www.w3.org/1999/xlink">
 <defs>
  <style type="text/css">
*{stroke-linecap:butt;stroke-linejoin:round;}
  </style>
 </defs>
 <g id="figure_1">
  <g id="patch_1">
   <path d="M 0 864 
L 1152 864 
L 1152 0 
L 0 0 
z
" style="fill:#ffffff;"/>
  </g>
  <g id="axes_1">
   <g id="patch_2">
    <path d="M 144 768.96 
L 1036.8 768.96 
L 1036.8 103.68 
L 144 103.68 
z
" style="fill:#ffffff;"/>
   </g>
   <g id="matplotlib.axis_1">
    <g id="xtick_1">
     <g id="line2d_1">
      <defs>
       <path d="M 0 0 
L 0 3.5 
" id="ma3c91946c6" style="stroke:#000000;stroke-width:0.8;"/>
      </defs>
      <g>
       <use style="stroke:#000000;stroke-width:0.8;" x="144" xlink:href="#ma3c91946c6" y="768.96"/>
      </g>
     </g>
     <g id="text_1">
      <!-- −4000 -->
      <defs>
       <path d="M 10.59375 35.5 
L 73.1875 35.5 
L 73.1875 27.203125 
L 10.59375 27.203125 
z
" id="DejaVuSans-2212"/>
       <path d="M 37.796875 64.3125 
L 12.890625 25.390625 
L 37.796875 25.390625 
z
M 35.203125 72.90625 
L 47.609375 72.90625 
L 47.609375 25.390625 
L 58.015625 25.390625 
L 58.015625 17.1875 
L 47.609375 17.1875 
L 47.609375 0 
L 37.796875 0 
L 37.796875 17.1875 
L 4.890625 17.1875 
L 4.890625 26.703125 
z
" id="DejaVuSans-34"/>
       <path d="M 31.78125 66.40625 
Q 24.171875 66.40625 20.328125 58.90625 
Q 16.5 51.421875 16.5 36.375 
Q 16.5 21.390625 20.328125 13.890625 
Q 24.171875 6.390625 31.78125 6.390625 
Q 39.453125 6.390625 43.28125 13.890625 
Q 47.125 21.390625 47.125 36.375 
Q 47.125 51.421875 43.28125 58.90625 
Q 39.453125 66.40625 31.78125 66.40625 
z
M 31.78125 74.21875 
Q 44.046875 74.21875 50.515625 64.515625 
Q 56.984375 54.828125 56.984375 36.375 
Q 56.984375 17.96875 50.515625 8.265625 
Q 44.046875 -1.421875 31.78125 -1.421875 
Q 19.53125 -1.421875 13.0625 8.265625 
Q 6.59375 17.96875 6.59375 36.375 
Q 6.59375 54.828125 13.0625 64.515625 
Q 19.53125 74.21875 31.78125 74.21875 
z
" id="DejaVuSans-30"/>
      </defs>
      <g transform="translate(127.085156 783.558437)scale(0.1 -0.1)">
       <use xlink:href="#DejaVuSans-2212"/>
       <use x="83.789062" xlink:href="#DejaVuSans-34"/>
       <use x="147.412109" xlink:href="#DejaVuSans-30"/>
       <use x="211.035156" xlink:href="#DejaVuSans-30"/>
       <use x="274.658203" xlink:href="#DejaVuSans-30"/>
      </g>
     </g>
    </g>
    <g id="xtick_2">
     <g id="line2d_2">
      <g>
       <use style="stroke:#000000;stroke-width:0.8;" x="255.6" xlink:href="#ma3c91946c6" y="768.96"/>
      </g>
     </g>
     <g id="text_2">
      <!-- −3000 -->
      <defs>
       <path d="M 40.578125 39.3125 
Q 47.65625 37.796875 51.625 33 
Q 55.609375 28.21875 55.609375 21.1875 
Q 55.609375 10.40625 48.1875 4.484375 
Q 40.765625 -1.421875 27.09375 -1.421875 
Q 22.515625 -1.421875 17.65625 -0.515625 
Q 12.796875 0.390625 7.625 2.203125 
L 7.625 11.71875 
Q 11.71875 9.328125 16.59375 8.109375 
Q 21.484375 6.890625 26.8125 6.890625 
Q 36.078125 6.890625 40.9375 10.546875 
Q 45.796875 14.203125 45.796875 21.1875 
Q 45.796875 27.640625 41.28125 31.265625 
Q 36.765625 34.90625 28.71875 34.90625 
L 20.21875 34.90625 
L 20.21875 43.015625 
L 29.109375 43.015625 
Q 36.375 43.015625 40.234375 45.921875 
Q 44.09375 48.828125 44.09375 54.296875 
Q 44.09375 59.90625 40.109375 62.90625 
Q 36.140625 65.921875 28.71875 65.921875 
Q 24.65625 65.921875 20.015625 65.03125 
Q 15.375 64.15625 9.8125 62.3125 
L 9.8125 71.09375 
Q 15.4375 72.65625 20.34375 73.4375 
Q 25.25 74.21875 29.59375 74.21875 
Q 40.828125 74.21875 47.359375 69.109375 
Q 53.90625 64.015625 53.90625 55.328125 
Q 53.90625 49.265625 50.4375 45.09375 
Q 46.96875 40.921875 40.578125 39.3125 
z
" id="DejaVuSans-33"/>
      </defs>
      <g transform="translate(238.685156 783.558437)scale(0.1 -0.1)">
       <use xlink:href="#DejaVuSans-2212"/>
       <use x="83.789062" xlink:href="#DejaVuSans-33"/>
       <use x="147.412109" xlink:href="#DejaVuSans-30"/>
       <use x="211.035156" xlink:href="#DejaVuSans-30"/>
       <use x="274.658203" xlink:href="#DejaVuSans-30"/>
      </g>
     </g>
    </g>
    <g id="xtick_3">
     <g id="line2d_3">
      <g>
       <use style="stroke:#000000;stroke-width:0.8;" x="367.2" xlink:href="#ma3c91946c6" y="768.96"/>
      </g>
     </g>
     <g id="text_3">
      <!-- −2000 -->
      <defs>
       <path d="M 19.1875 8.296875 
L 53.609375 8.296875 
L 53.609375 0 
L 7.328125 0 
L 7.328125 8.296875 
Q 12.9375 14.109375 22.625 23.890625 
Q 32.328125 33.6875 34.8125 36.53125 
Q 39.546875 41.84375 41.421875 45.53125 
Q 43.3125 49.21875 43.3125 52.78125 
Q 43.3125 58.59375 39.234375 62.25 
Q 35.15625 65.921875 28.609375 65.921875 
Q 23.96875 65.921875 18.8125 64.3125 
Q 13.671875 62.703125 7.8125 59.421875 
L 7.8125 69.390625 
Q 13.765625 71.78125 18.9375 73 
Q 24.125 74.21875 28.421875 74.21875 
Q 39.75 74.21875 46.484375 68.546875 
Q 53.21875 62.890625 53.21875 53.421875 
Q 53.21875 48.921875 51.53125 44.890625 
Q 49.859375 40.875 45.40625 35.40625 
Q 44.1875 33.984375 37.640625 27.21875 
Q 31.109375 20.453125 19.1875 8.296875 
z
" id="DejaVuSans-32"/>
      </defs>
      <g transform="translate(350.285156 783.558437)scale(0.1 -0.1)">
       <use xlink:href="#DejaVuSans-2212"/>
       <use x="83.789062" xlink:href="#DejaVuSans-32"/>
       <use x="147.412109" xlink:href="#DejaVuSans-30"/>
       <use x="211.035156" xlink:href="#DejaVuSans-30"/>
       <use x="274.658203" xlink:href="#DejaVuSans-30"/>
      </g>
     </g>
    </g>
    <g id="xtick_4">
     <g id="line2d_4">
      <g>
       <use style="stroke:#000000;stroke-width:0.8;" x="478.8" xlink:href="#ma3c91946c6" y="768.96"/>
      </g>
     </g>
     <g id="text_4">
      <!-- −1000 -->
      <defs>
       <path d="M 12.40625 8.296875 
L 28.515625 8.296875 
L 28.515625 63.921875 
L 10.984375 60.40625 
L 10.984375 69.390625 
L 28.421875 72.90625 
L 38.28125 72.90625 
L 38.28125 8.296875 
L 54.390625 8.296875 
L 54.390625 0 
L 12.40625 0 
z
" id="DejaVuSans-31"/>
      </defs>
      <g transform="translate(461.885156 783.558437)scale(0.1 -0.1)">
       <use xlink:href="#DejaVuSans-2212"/>
       <use x="83.789062" xlink:href="#DejaVuSans-31"/>
       <use x="147.412109" xlink:href="#DejaVuSans-30"/>
       <use x="211.035156" xlink:href="#DejaVuSans-30"/>
       <use x="274.658203" xlink:href="#DejaVuSans-30"/>
      </g>
     </g>
    </g>
    <g id="xtick_5">
     <g id="line2d_5">
      <g>
       <use style="stroke:#000000;stroke-width:0.8;" x="590.4" xlink:href="#ma3c91946c6" y="768.96"/>
      </g>
     </g>
     <g id="text_5">
      <!-- 0 -->
      <g transform="translate(587.21875 783.558437)scale(0.1 -0.1)">
       <use xlink:href="#DejaVuSans-30"/>
      </g>
     </g>
    </g>
    <g id="xtick_6">
     <g id="line2d_6">
      <g>
       <use style="stroke:#000000;stroke-width:0.8;" x="702" xlink:href="#ma3c91946c6" y="768.96"/>
      </g>
     </g>
     <g id="text_6">
      <!-- 1000 -->
      <g transform="translate(689.275 783.558437)scale(0.1 -0.1)">
       <use xlink:href="#DejaVuSans-31"/>
       <use x="63.623047" xlink:href="#DejaVuSans-30"/>
       <use x="127.246094" xlink:href="#DejaVuSans-30"/>
       <use x="190.869141" xlink:href="#DejaVuSans-30"/>
      </g>
     </g>
    </g>
    <g id="xtick_7">
     <g id="line2d_7">
      <g>
       <use style="stroke:#000000;stroke-width:0.8;" x="813.6" xlink:href="#ma3c91946c6" y="768.96"/>
      </g>
     </g>
     <g id="text_7">
      <!-- 2000 -->
      <g transform="translate(800.875 783.558437)scale(0.1 -0.1)">
       <use xlink:href="#DejaVuSans-32"/>
       <use x="63.623047" xlink:href="#DejaVuSans-30"/>
       <use x="127.246094" xlink:href="#DejaVuSans-30"/>
       <use x="190.869141" xlink:href="#DejaVuSans-30"/>
      </g>
     </g>
    </g>
    <g id="xtick_8">
     <g id="line2d_8">
      <g>
       <use style="stroke:#000000;stroke-width:0.8;" x="925.2" xlink:href="#ma3c91946c6" y="768.96"/>
      </g>
     </g>
     <g id="text_8">
      <!-- 3000 -->
      <g transform="translate(912.475 783.558437)scale(0.1 -0.1)">
       <use xlink:href="#DejaVuSans-33"/>
       <use x="63.623047" xlink:href="#DejaVuSans-30"/>
       <use x="127.246094" xlink:href="#DejaVuSans-30"/>
       <use x="190.869141" xlink:href="#DejaVuSans-30"/>
      </g>
     </g>
    </g>
    <g id="xtick_9">
     <g id="line2d_9">
      <g>
       <use style="stroke:#000000;stroke-width:0.8;" x="1036.8" xlink:href="#ma3c91946c6" y="768.96"/>
      </g>
     </g>
     <g id="text_9">
      <!-- 4000 -->
      <g transform="translate(1024.075 783.558437)scale(0.1 -0.1)">
       <use xlink:href="#DejaVuSans-34"/>
       <use x="63.623047" xlink:href="#DejaVuSans-30"/>
       <use x="127.246094" xlink:href="#DejaVuSans-30"/>
       <use x="190.869141" xlink:href="#DejaVuSans-30"/>
      </g>
     </g>
    </g>
   </g>
   <g id="matplotlib.axis_2">
    <g id="ytick_1">
     <g id="line2d_10">
      <defs>
       <path d="M 0 0 
L -3.5 0 
" id="ma674b5c9dd" style="stroke:#000000;stroke-width:0.8;"/>
      </defs>
      <g>
       <use style="stroke:#000000;stroke-width:0.8;" x="144" xlink:href="#ma674b5c9dd" y="768.96"/>
      </g>
     </g>
     <g id="text_10">
      <!-- −4000 -->
      <g transform="translate(103.170312 772.759219)scale(0.1 -0.1)">
       <use xlink:href="#DejaVuSans-2212"/>
       <use x="83.789062" xlink:href="#DejaVuSans-34"/>
       <use x="147.412109" xlink:href="#DejaVuSans-30"/>
       <use x="211.035156" xlink:href="#DejaVuSans-30"/>
       <use x="274.658203" xlink:href="#DejaVuSans-30"/>
      </g>
     </g>
    </g>
    <g id="ytick_2">
     <g id="line2d_11">
      <g>
       <use style="stroke:#000000;stroke-width:0.8;" x="144" xlink:href="#ma674b5c9dd" y="685.8"/>
      </g>
     </g>
     <g id="text_11">
      <!-- −3000 -->
      <g transform="translate(103.170312 689.599219)scale(0.1 -0.1)">
       <use xlink:href="#DejaVuSans-2212"/>
       <use x="83.789062" xlink:href="#DejaVuSans-33"/>
       <use x="147.412109" xlink:href="#DejaVuSans-30"/>
       <use x="211.035156" xlink:href="#DejaVuSans-30"/>
       <use x="274.658203" xlink:href="#DejaVuSans-30"/>
      </g>
     </g>
    </g>
    <g id="ytick_3">
     <g id="line2d_12">
      <g>
       <use style="stroke:#000000;stroke-width:0.8;" x="144" xlink:href="#ma674b5c9dd" y="602.64"/>
      </g>
     </g>
     <g id="text_12">
      <!-- −2000 -->
      <g transform="translate(103.170312 606.439219)scale(0.1 -0.1)">
       <use xlink:href="#DejaVuSans-2212"/>
       <use x="83.789062" xlink:href="#DejaVuSans-32"/>
       <use x="147.412109" xlink:href="#DejaVuSans-30"/>
       <use x="211.035156" xlink:href="#DejaVuSans-30"/>
       <use x="274.658203" xlink:href="#DejaVuSans-30"/>
      </g>
     </g>
    </g>
    <g id="ytick_4">
     <g id="line2d_13">
      <g>
       <use style="stroke:#000000;stroke-width:0.8;" x="144" xlink:href="#ma674b5c9dd" y="519.48"/>
      </g>
     </g>
     <g id="text_13">
      <!-- −1000 -->
      <g transform="translate(103.170312 523.279219)scale(0.1 -0.1)">
       <use xlink:href="#DejaVuSans-2212"/>
       <use x="83.789062" xlink:href="#DejaVuSans-31"/>
       <use x="147.412109" xlink:href="#DejaVuSans-30"/>
       <use x="211.035156" xlink:href="#DejaVuSans-30"/>
       <use x="274.658203" xlink:href="#DejaVuSans-30"/>
      </g>
     </g>
    </g>
    <g id="ytick_5">
     <g id="line2d_14">
      <g>
       <use style="stroke:#000000;stroke-width:0.8;" x="144" xlink:href="#ma674b5c9dd" y="436.32"/>
      </g>
     </g>
     <g id="text_14">
      <!-- 0 -->
      <g transform="translate(130.6375 440.119219)scale(0.1 -0.1)">
       <use xlink:href="#DejaVuSans-30"/>
      </g>
     </g>
    </g>
    <g id="ytick_6">
     <g id="line2d_15">
      <g>
       <use style="stroke:#000000;stroke-width:0.8;" x="144" xlink:href="#ma674b5c9dd" y="353.16"/>
      </g>
     </g>
     <g id="text_15">
      <!-- 1000 -->
      <g transform="translate(111.55 356.959219)scale(0.1 -0.1)">
       <use xlink:href="#DejaVuSans-31"/>
       <use x="63.623047" xlink:href="#DejaVuSans-30"/>
       <use x="127.246094" xlink:href="#DejaVuSans-30"/>
       <use x="190.869141" xlink:href="#DejaVuSans-30"/>
      </g>
     </g>
    </g>
    <g id="ytick_7">
     <g id="line2d_16">
      <g>
       <use style="stroke:#000000;stroke-width:0.8;" x="144" xlink:href="#ma674b5c9dd" y="270"/>
      </g>
     </g>
     <g id="text_16">
      <!-- 2000 -->
      <g transform="translate(111.55 273.799219)scale(0.1 -0.1)">
       <use xlink:href="#DejaVuSans-32"/>
       <use x="63.623047" xlink:href="#DejaVuSans-30"/>
       <use x="127.246094" xlink:href="#DejaVuSans-30"/>
       <use x="190.869141" xlink:href="#DejaVuSans-30"/>
      </g>
     </g>
    </g>
    <g id="ytick_8">
     <g id="line2d_17">
      <g>
       <use style="stroke:#000000;stroke-width:0.8;" x="144" xlink:href="#ma674b5c9dd" y="186.84"/>
      </g>
     </g>
     <g id="text_17">
      <!-- 3000 -->
      <g transform="translate(111.55 190.639219)scale(0.1 -0.1)">
       <use xlink:href="#DejaVuSans-33"/>
       <use x="63.623047" xlink:href="#DejaVuSans-30"/>
       <use x="127.246094" xlink:href="#DejaVuSans-30"/>
       <use x="190.869141" xlink:href="#DejaVuSans-30"/>
      </g>
     </g>
    </g>
    <g id="ytick_9">
     <g id="line2d_18">
      <g>
       <use style="stroke:#000000;stroke-width:0.8;" x="144" xlink:href="#ma674b5c9dd" y="103.68"/>
      </g>
     </g>
     <g id="text_18">
      <!-- 4000 -->
      <g transform="translate(111.55 107.479219)scale(0.1 -0.1)">
       <use xlink:href="#DejaVuSans-34"/>
       <use x="63.623047" xlink:href="#DejaVuSans-30"/>
       <use x="127.246094" xlink:href="#DejaVuSans-30"/>
       <use x="190.869141" xlink:href="#DejaVuSans-30"/>
      </g>
     </g>
    </g>
   </g>
   <g id="line2d_19">
    <path clip-path="url(#p509e7440e2)" d="M 590.4 768.96 
L 590.4 103.68 
" style="fill:none;stroke:#1f77b4;stroke-linecap:square;stroke-width:1.5;"/>
   </g>
   <g id="line2d_20">
    <path clip-path="url(#p509e7440e2)" d="M 144 436.32 
L 1036.8 436.32 
" style="fill:none;stroke:#1f77b4;stroke-linecap:square;stroke-width:1.5;"/>
   </g>
   <g id="line2d_21">
    <defs>
     <path d="M 0 3 
C 0.795609 3 1.55874 2.683901 2.12132 2.12132 
C 2.683901 1.55874 3 0.795609 3 0 
C 3 -0.795609 2.683901 -1.55874 2.12132 -2.12132 
C 1.55874 -2.683901 0.795609 -3 0 -3 
C -0.795609 -3 -1.55874 -2.683901 -2.12132 -2.12132 
C -2.683901 -1.55874 -3 -0.795609 -3 0 
C -3 0.795609 -2.683901 1.55874 -2.12132 2.12132 
C -1.55874 2.683901 -0.795609 3 0 3 
z
" id="mdac9157b11" style="stroke:#008000;"/>
    </defs>
    <g clip-path="url(#p509e7440e2)">
     <use style="fill:#008000;stroke:#008000;" x="1138.86886" xlink:href="#mdac9157b11" y="500.594442"/>
    </g>
   </g>
   <g id="line2d_22">
    <g clip-path="url(#p509e7440e2)">
     <use style="fill:#008000;stroke:#008000;" x="1408.808722" xlink:href="#mdac9157b11" y="496.048809"/>
    </g>
   </g>
   <g id="line2d_23">
    <g clip-path="url(#p509e7440e2)">
     <use style="fill:#008000;stroke:#008000;" x="647.444319" xlink:href="#mdac9157b11" y="393.812781"/>
    </g>
   </g>
   <g id="line2d_24">
    <g clip-path="url(#p509e7440e2)">
     <use style="fill:#008000;stroke:#008000;" x="647.444319" xlink:href="#mdac9157b11" y="393.812781"/>
    </g>
   </g>
   <g id="line2d_25">
    <g clip-path="url(#p509e7440e2)">
     <use style="fill:#008000;stroke:#008000;" x="535.579421" xlink:href="#mdac9157b11" y="232.981723"/>
    </g>
   </g>
   <g id="line2d_26">
    <g clip-path="url(#p509e7440e2)">
     <use style="fill:#008000;stroke:#008000;" x="571.375209" xlink:href="#mdac9157b11" y="396.767255"/>
    </g>
   </g>
   <g id="line2d_27">
    <g clip-path="url(#p509e7440e2)">
     <use style="fill:#008000;stroke:#008000;" x="571.375209" xlink:href="#mdac9157b11" y="396.767255"/>
    </g>
   </g>
   <g id="line2d_28">
    <g clip-path="url(#p509e7440e2)">
     <use style="fill:#008000;stroke:#008000;" x="447.175793" xlink:href="#mdac9157b11" y="248.997323"/>
    </g>
   </g>
   <g id="line2d_29">
    <g clip-path="url(#p509e7440e2)">
     <use style="fill:#008000;stroke:#008000;" x="393.25551" xlink:href="#mdac9157b11" y="281.091665"/>
    </g>
   </g>
   <g id="line2d_30">
    <g clip-path="url(#p509e7440e2)">
     <use style="fill:#008000;stroke:#008000;" x="411.647805" xlink:href="#mdac9157b11" y="507.750147"/>
    </g>
   </g>
   <g id="line2d_31">
    <g clip-path="url(#p509e7440e2)">
     <use style="fill:#008000;stroke:#008000;" x="559.764203" xlink:href="#mdac9157b11" y="615.767535"/>
    </g>
   </g>
   <g id="line2d_32">
    <g clip-path="url(#p509e7440e2)">
     <use style="fill:#008000;stroke:#008000;" x="628.421866" xlink:href="#mdac9157b11" y="639.929734"/>
    </g>
   </g>
   <g id="line2d_33">
    <defs>
     <path d="M 0 1.333333 
C 0.353604 1.333333 0.692773 1.192845 0.942809 0.942809 
C 1.192845 0.692773 1.333333 0.353604 1.333333 0 
C 1.333333 -0.353604 1.192845 -0.692773 0.942809 -0.942809 
C 0.692773 -1.192845 0.353604 -1.333333 0 -1.333333 
C -0.353604 -1.333333 -0.692773 -1.192845 -0.942809 -0.942809 
C -1.192845 -0.692773 -1.333333 -0.353604 -1.333333 0 
C -1.333333 0.353604 -1.192845 0.692773 -0.942809 0.942809 
C -0.692773 1.192845 -0.353604 1.333333 0 1.333333 
z
" id="md66b2e3bec" style="stroke:#ff0000;"/>
    </defs>
    <g clip-path="url(#p509e7440e2)">
     <use style="fill:#ff0000;stroke:#ff0000;" x="1147.776402" xlink:href="#md66b2e3bec" y="498.739707"/>
     <use style="fill:#ff0000;stroke:#ff0000;" x="1408.808722" xlink:href="#md66b2e3bec" y="496.048809"/>
     <use style="fill:#ff0000;stroke:#ff0000;" x="1286.406642" xlink:href="#md66b2e3bec" y="348.075258"/>
     <use style="fill:#ff0000;stroke:#ff0000;" x="1310.553722" xlink:href="#md66b2e3bec" y="315.508068"/>
     <use style="fill:#ff0000;stroke:#ff0000;" x="1319.49911" xlink:href="#md66b2e3bec" y="283.094559"/>
     <use style="fill:#ff0000;stroke:#ff0000;" x="1341.85525" xlink:href="#md66b2e3bec" y="246.070451"/>
     <use style="fill:#ff0000;stroke:#ff0000;" x="651.731288" xlink:href="#md66b2e3bec" y="399.332123"/>
     <use style="fill:#ff0000;stroke:#ff0000;" x="642.26653" xlink:href="#md66b2e3bec" y="388.565924"/>
     <use style="fill:#ff0000;stroke:#ff0000;" x="789.644114" xlink:href="#md66b2e3bec" y="193.595093"/>
     <use style="fill:#ff0000;stroke:#ff0000;" x="764.432992" xlink:href="#md66b2e3bec" y="196.851705"/>
     <use style="fill:#ff0000;stroke:#ff0000;" x="742.017741" xlink:href="#md66b2e3bec" y="198.11718"/>
     <use style="fill:#ff0000;stroke:#ff0000;" x="719.831539" xlink:href="#md66b2e3bec" y="201.667529"/>
     <use style="fill:#ff0000;stroke:#ff0000;" x="535.579421" xlink:href="#md66b2e3bec" y="232.981723"/>
     <use style="fill:#ff0000;stroke:#ff0000;" x="573.870303" xlink:href="#md66b2e3bec" y="395.150144"/>
     <use style="fill:#ff0000;stroke:#ff0000;" x="569.063547" xlink:href="#md66b2e3bec" y="398.462864"/>
     <use style="fill:#ff0000;stroke:#ff0000;" x="447.175793" xlink:href="#md66b2e3bec" y="248.997323"/>
     <use style="fill:#ff0000;stroke:#ff0000;" x="393.717581" xlink:href="#md66b2e3bec" y="272.832618"/>
     <use style="fill:#ff0000;stroke:#ff0000;" x="393.244556" xlink:href="#md66b2e3bec" y="289.247051"/>
     <use style="fill:#ff0000;stroke:#ff0000;" x="411.472131" xlink:href="#md66b2e3bec" y="316.729097"/>
     <use style="fill:#ff0000;stroke:#ff0000;" x="417.406473" xlink:href="#md66b2e3bec" y="332.74468"/>
     <use style="fill:#ff0000;stroke:#ff0000;" x="400.216416" xlink:href="#md66b2e3bec" y="365.517466"/>
     <use style="fill:#ff0000;stroke:#ff0000;" x="454.914614" xlink:href="#md66b2e3bec" y="393.172933"/>
     <use style="fill:#ff0000;stroke:#ff0000;" x="440.962283" xlink:href="#md66b2e3bec" y="414.832274"/>
     <use style="fill:#ff0000;stroke:#ff0000;" x="418.185314" xlink:href="#md66b2e3bec" y="425.128042"/>
     <use style="fill:#ff0000;stroke:#ff0000;" x="420.541182" xlink:href="#md66b2e3bec" y="438.460271"/>
     <use style="fill:#ff0000;stroke:#ff0000;" x="395.919197" xlink:href="#md66b2e3bec" y="446.255212"/>
     <use style="fill:#ff0000;stroke:#ff0000;" x="411.647805" xlink:href="#md66b2e3bec" y="507.750147"/>
     <use style="fill:#ff0000;stroke:#ff0000;" x="469.48482" xlink:href="#md66b2e3bec" y="491.737149"/>
     <use style="fill:#ff0000;stroke:#ff0000;" x="433.461062" xlink:href="#md66b2e3bec" y="516.272056"/>
     <use style="fill:#ff0000;stroke:#ff0000;" x="453.422321" xlink:href="#md66b2e3bec" y="514.729908"/>
     <use style="fill:#ff0000;stroke:#ff0000;" x="470.121768" xlink:href="#md66b2e3bec" y="513.207219"/>
     <use style="fill:#ff0000;stroke:#ff0000;" x="454.117315" xlink:href="#md66b2e3bec" y="532.900555"/>
     <use style="fill:#ff0000;stroke:#ff0000;" x="472.687185" xlink:href="#md66b2e3bec" y="539.418989"/>
     <use style="fill:#ff0000;stroke:#ff0000;" x="458.978641" xlink:href="#md66b2e3bec" y="563.872965"/>
     <use style="fill:#ff0000;stroke:#ff0000;" x="533.413369" xlink:href="#md66b2e3bec" y="500.135594"/>
     <use style="fill:#ff0000;stroke:#ff0000;" x="569.040191" xlink:href="#md66b2e3bec" y="495.46306"/>
     <use style="fill:#ff0000;stroke:#ff0000;" x="559.764203" xlink:href="#md66b2e3bec" y="615.767535"/>
     <use style="fill:#ff0000;stroke:#ff0000;" x="628.421866" xlink:href="#md66b2e3bec" y="639.929734"/>
     <use style="fill:#ff0000;stroke:#ff0000;" x="668.348881" xlink:href="#md66b2e3bec" y="593.897219"/>
     <use style="fill:#ff0000;stroke:#ff0000;" x="696.936588" xlink:href="#md66b2e3bec" y="597.079694"/>
     <use style="fill:#ff0000;stroke:#ff0000;" x="747.41017" xlink:href="#md66b2e3bec" y="601.772451"/>
     <use style="fill:#ff0000;stroke:#ff0000;" x="784.259718" xlink:href="#md66b2e3bec" y="584.124382"/>
     <use style="fill:#ff0000;stroke:#ff0000;" x="803.772492" xlink:href="#md66b2e3bec" y="582.813508"/>
     <use style="fill:#ff0000;stroke:#ff0000;" x="833.346598" xlink:href="#md66b2e3bec" y="586.4676"/>
     <use style="fill:#ff0000;stroke:#ff0000;" x="836.515724" xlink:href="#md66b2e3bec" y="572.103249"/>
     <use style="fill:#ff0000;stroke:#ff0000;" x="875.094" xlink:href="#md66b2e3bec" y="576.817567"/>
     <use style="fill:#ff0000;stroke:#ff0000;" x="874.178108" xlink:href="#md66b2e3bec" y="560.646815"/>
     <use style="fill:#ff0000;stroke:#ff0000;" x="893.89025" xlink:href="#md66b2e3bec" y="553.575903"/>
     <use style="fill:#ff0000;stroke:#ff0000;" x="936.669505" xlink:href="#md66b2e3bec" y="553.400011"/>
     <use style="fill:#ff0000;stroke:#ff0000;" x="1056.557421" xlink:href="#md66b2e3bec" y="551.914198"/>
     <use style="fill:#ff0000;stroke:#ff0000;" x="1056.314957" xlink:href="#md66b2e3bec" y="531.685007"/>
     <use style="fill:#ff0000;stroke:#ff0000;" x="1087.536405" xlink:href="#md66b2e3bec" y="517.175131"/>
     <use style="fill:#ff0000;stroke:#ff0000;" x="1129.953674" xlink:href="#md66b2e3bec" y="502.361618"/>
    </g>
   </g>
   <g id="line2d_34">
    <defs>
     <path d="M -0.5 0.5 
L 0.5 0.5 
L 0.5 -0.5 
L -0.5 -0.5 
z
" id="m975064132f" style="stroke:#1f77b4;stroke-linejoin:miter;"/>
    </defs>
    <g clip-path="url(#p509e7440e2)">
     <use style="fill:#1f77b4;stroke:#1f77b4;stroke-linejoin:miter;" x="1147.776402" xlink:href="#m975064132f" y="498.739707"/>
     <use style="fill:#1f77b4;stroke:#1f77b4;stroke-linejoin:miter;" x="1408.808722" xlink:href="#m975064132f" y="496.048809"/>
     <use style="fill:#1f77b4;stroke:#1f77b4;stroke-linejoin:miter;" x="1286.406642" xlink:href="#m975064132f" y="348.075258"/>
     <use style="fill:#1f77b4;stroke:#1f77b4;stroke-linejoin:miter;" x="1310.553722" xlink:href="#m975064132f" y="315.508068"/>
     <use style="fill:#1f77b4;stroke:#1f77b4;stroke-linejoin:miter;" x="1319.49911" xlink:href="#m975064132f" y="283.094559"/>
     <use style="fill:#1f77b4;stroke:#1f77b4;stroke-linejoin:miter;" x="1341.85525" xlink:href="#m975064132f" y="246.070451"/>
     <use style="fill:#1f77b4;stroke:#1f77b4;stroke-linejoin:miter;" x="651.731288" xlink:href="#m975064132f" y="399.332123"/>
     <use style="fill:#1f77b4;stroke:#1f77b4;stroke-linejoin:miter;" x="647.847329" xlink:href="#m975064132f" y="397.860401"/>
     <use style="fill:#1f77b4;stroke:#1f77b4;stroke-linejoin:miter;" x="646.094401" xlink:href="#m975064132f" y="394.909131"/>
     <use style="fill:#1f77b4;stroke:#1f77b4;stroke-linejoin:miter;" x="642.982047" xlink:href="#m975064132f" y="392.708287"/>
     <use style="fill:#1f77b4;stroke:#1f77b4;stroke-linejoin:miter;" x="642.26653" xlink:href="#m975064132f" y="388.565924"/>
     <use style="fill:#1f77b4;stroke:#1f77b4;stroke-linejoin:miter;" x="789.644114" xlink:href="#m975064132f" y="193.595093"/>
     <use style="fill:#1f77b4;stroke:#1f77b4;stroke-linejoin:miter;" x="764.432992" xlink:href="#m975064132f" y="196.851705"/>
     <use style="fill:#1f77b4;stroke:#1f77b4;stroke-linejoin:miter;" x="742.017741" xlink:href="#m975064132f" y="198.11718"/>
     <use style="fill:#1f77b4;stroke:#1f77b4;stroke-linejoin:miter;" x="719.831539" xlink:href="#m975064132f" y="201.667529"/>
     <use style="fill:#1f77b4;stroke:#1f77b4;stroke-linejoin:miter;" x="698.916793" xlink:href="#m975064132f" y="205.170442"/>
     <use style="fill:#1f77b4;stroke:#1f77b4;stroke-linejoin:miter;" x="679.321577" xlink:href="#m975064132f" y="208.526697"/>
     <use style="fill:#1f77b4;stroke:#1f77b4;stroke-linejoin:miter;" x="661.300438" xlink:href="#m975064132f" y="210.847251"/>
     <use style="fill:#1f77b4;stroke:#1f77b4;stroke-linejoin:miter;" x="643.645599" xlink:href="#m975064132f" y="214.138625"/>
     <use style="fill:#1f77b4;stroke:#1f77b4;stroke-linejoin:miter;" x="626.333727" xlink:href="#m975064132f" y="216.259288"/>
     <use style="fill:#1f77b4;stroke:#1f77b4;stroke-linejoin:miter;" x="610.252646" xlink:href="#m975064132f" y="218.797731"/>
     <use style="fill:#1f77b4;stroke:#1f77b4;stroke-linejoin:miter;" x="594.448097" xlink:href="#m975064132f" y="223.618108"/>
     <use style="fill:#1f77b4;stroke:#1f77b4;stroke-linejoin:miter;" x="579.408461" xlink:href="#m975064132f" y="224.919566"/>
     <use style="fill:#1f77b4;stroke:#1f77b4;stroke-linejoin:miter;" x="564.467543" xlink:href="#m975064132f" y="226.647461"/>
     <use style="fill:#1f77b4;stroke:#1f77b4;stroke-linejoin:miter;" x="549.938116" xlink:href="#m975064132f" y="230.743984"/>
     <use style="fill:#1f77b4;stroke:#1f77b4;stroke-linejoin:miter;" x="535.579421" xlink:href="#m975064132f" y="232.981723"/>
     <use style="fill:#1f77b4;stroke:#1f77b4;stroke-linejoin:miter;" x="573.870303" xlink:href="#m975064132f" y="395.150144"/>
     <use style="fill:#1f77b4;stroke:#1f77b4;stroke-linejoin:miter;" x="571.386791" xlink:href="#m975064132f" y="397.228226"/>
     <use style="fill:#1f77b4;stroke:#1f77b4;stroke-linejoin:miter;" x="569.063547" xlink:href="#m975064132f" y="398.462864"/>
     <use style="fill:#1f77b4;stroke:#1f77b4;stroke-linejoin:miter;" x="447.175793" xlink:href="#m975064132f" y="248.997323"/>
     <use style="fill:#1f77b4;stroke:#1f77b4;stroke-linejoin:miter;" x="431.324232" xlink:href="#m975064132f" y="251.701633"/>
     <use style="fill:#1f77b4;stroke:#1f77b4;stroke-linejoin:miter;" x="417.662704" xlink:href="#m975064132f" y="257.623399"/>
     <use style="fill:#1f77b4;stroke:#1f77b4;stroke-linejoin:miter;" x="404.761696" xlink:href="#m975064132f" y="264.156242"/>
     <use style="fill:#1f77b4;stroke:#1f77b4;stroke-linejoin:miter;" x="393.717581" xlink:href="#m975064132f" y="272.832618"/>
     <use style="fill:#1f77b4;stroke:#1f77b4;stroke-linejoin:miter;" x="393.244556" xlink:href="#m975064132f" y="289.247051"/>
     <use style="fill:#1f77b4;stroke:#1f77b4;stroke-linejoin:miter;" x="411.472131" xlink:href="#m975064132f" y="316.729097"/>
     <use style="fill:#1f77b4;stroke:#1f77b4;stroke-linejoin:miter;" x="417.406473" xlink:href="#m975064132f" y="332.74468"/>
     <use style="fill:#1f77b4;stroke:#1f77b4;stroke-linejoin:miter;" x="422.960222" xlink:href="#m975064132f" y="346.705187"/>
     <use style="fill:#1f77b4;stroke:#1f77b4;stroke-linejoin:miter;" x="419.47023" xlink:href="#m975064132f" y="354.83396"/>
     <use style="fill:#1f77b4;stroke:#1f77b4;stroke-linejoin:miter;" x="405.661328" xlink:href="#m975064132f" y="358.088379"/>
     <use style="fill:#1f77b4;stroke:#1f77b4;stroke-linejoin:miter;" x="400.216416" xlink:href="#m975064132f" y="365.517466"/>
     <use style="fill:#1f77b4;stroke:#1f77b4;stroke-linejoin:miter;" x="454.914614" xlink:href="#m975064132f" y="393.172933"/>
     <use style="fill:#1f77b4;stroke:#1f77b4;stroke-linejoin:miter;" x="456.298784" xlink:href="#m975064132f" y="399.826041"/>
     <use style="fill:#1f77b4;stroke:#1f77b4;stroke-linejoin:miter;" x="457.90091" xlink:href="#m975064132f" y="406.281383"/>
     <use style="fill:#1f77b4;stroke:#1f77b4;stroke-linejoin:miter;" x="458.337996" xlink:href="#m975064132f" y="411.983695"/>
     <use style="fill:#1f77b4;stroke:#1f77b4;stroke-linejoin:miter;" x="440.962283" xlink:href="#m975064132f" y="414.832274"/>
     <use style="fill:#1f77b4;stroke:#1f77b4;stroke-linejoin:miter;" x="418.185314" xlink:href="#m975064132f" y="425.128042"/>
     <use style="fill:#1f77b4;stroke:#1f77b4;stroke-linejoin:miter;" x="420.273237" xlink:href="#m975064132f" y="432.169918"/>
     <use style="fill:#1f77b4;stroke:#1f77b4;stroke-linejoin:miter;" x="420.541182" xlink:href="#m975064132f" y="438.460271"/>
     <use style="fill:#1f77b4;stroke:#1f77b4;stroke-linejoin:miter;" x="395.919197" xlink:href="#m975064132f" y="446.255212"/>
     <use style="fill:#1f77b4;stroke:#1f77b4;stroke-linejoin:miter;" x="396.344464" xlink:href="#m975064132f" y="453.79484"/>
     <use style="fill:#1f77b4;stroke:#1f77b4;stroke-linejoin:miter;" x="399.853051" xlink:href="#m975064132f" y="461.236594"/>
     <use style="fill:#1f77b4;stroke:#1f77b4;stroke-linejoin:miter;" x="402.000141" xlink:href="#m975064132f" y="468.610235"/>
     <use style="fill:#1f77b4;stroke:#1f77b4;stroke-linejoin:miter;" x="404.313838" xlink:href="#m975064132f" y="476.0404"/>
     <use style="fill:#1f77b4;stroke:#1f77b4;stroke-linejoin:miter;" x="405.018999" xlink:href="#m975064132f" y="483.927127"/>
     <use style="fill:#1f77b4;stroke:#1f77b4;stroke-linejoin:miter;" x="407.714545" xlink:href="#m975064132f" y="491.53618"/>
     <use style="fill:#1f77b4;stroke:#1f77b4;stroke-linejoin:miter;" x="408.441055" xlink:href="#m975064132f" y="500.132262"/>
     <use style="fill:#1f77b4;stroke:#1f77b4;stroke-linejoin:miter;" x="411.647805" xlink:href="#m975064132f" y="507.750147"/>
     <use style="fill:#1f77b4;stroke:#1f77b4;stroke-linejoin:miter;" x="469.48482" xlink:href="#m975064132f" y="491.737149"/>
     <use style="fill:#1f77b4;stroke:#1f77b4;stroke-linejoin:miter;" x="433.461062" xlink:href="#m975064132f" y="516.272056"/>
     <use style="fill:#1f77b4;stroke:#1f77b4;stroke-linejoin:miter;" x="453.422321" xlink:href="#m975064132f" y="514.729908"/>
     <use style="fill:#1f77b4;stroke:#1f77b4;stroke-linejoin:miter;" x="470.121768" xlink:href="#m975064132f" y="513.207219"/>
     <use style="fill:#1f77b4;stroke:#1f77b4;stroke-linejoin:miter;" x="454.117315" xlink:href="#m975064132f" y="532.900555"/>
     <use style="fill:#1f77b4;stroke:#1f77b4;stroke-linejoin:miter;" x="458.920199" xlink:href="#m975064132f" y="539.732002"/>
     <use style="fill:#1f77b4;stroke:#1f77b4;stroke-linejoin:miter;" x="472.687185" xlink:href="#m975064132f" y="539.418989"/>
     <use style="fill:#1f77b4;stroke:#1f77b4;stroke-linejoin:miter;" x="458.978641" xlink:href="#m975064132f" y="563.872965"/>
     <use style="fill:#1f77b4;stroke:#1f77b4;stroke-linejoin:miter;" x="533.413369" xlink:href="#m975064132f" y="500.135594"/>
     <use style="fill:#1f77b4;stroke:#1f77b4;stroke-linejoin:miter;" x="544.407431" xlink:href="#m975064132f" y="494.574743"/>
     <use style="fill:#1f77b4;stroke:#1f77b4;stroke-linejoin:miter;" x="549.698766" xlink:href="#m975064132f" y="494.971401"/>
     <use style="fill:#1f77b4;stroke:#1f77b4;stroke-linejoin:miter;" x="556.398661" xlink:href="#m975064132f" y="492.605889"/>
     <use style="fill:#1f77b4;stroke:#1f77b4;stroke-linejoin:miter;" x="561.994053" xlink:href="#m975064132f" y="491.372185"/>
     <use style="fill:#1f77b4;stroke:#1f77b4;stroke-linejoin:miter;" x="566.406927" xlink:href="#m975064132f" y="491.652913"/>
     <use style="fill:#1f77b4;stroke:#1f77b4;stroke-linejoin:miter;" x="569.040191" xlink:href="#m975064132f" y="495.46306"/>
     <use style="fill:#1f77b4;stroke:#1f77b4;stroke-linejoin:miter;" x="559.764203" xlink:href="#m975064132f" y="615.767535"/>
     <use style="fill:#1f77b4;stroke:#1f77b4;stroke-linejoin:miter;" x="571.069248" xlink:href="#m975064132f" y="627.336709"/>
     <use style="fill:#1f77b4;stroke:#1f77b4;stroke-linejoin:miter;" x="584.477805" xlink:href="#m975064132f" y="633.630126"/>
     <use style="fill:#1f77b4;stroke:#1f77b4;stroke-linejoin:miter;" x="598.831529" xlink:href="#m975064132f" y="643.81305"/>
     <use style="fill:#1f77b4;stroke:#1f77b4;stroke-linejoin:miter;" x="613.865814" xlink:href="#m975064132f" y="641.334292"/>
     <use style="fill:#1f77b4;stroke:#1f77b4;stroke-linejoin:miter;" x="628.421866" xlink:href="#m975064132f" y="639.929734"/>
     <use style="fill:#1f77b4;stroke:#1f77b4;stroke-linejoin:miter;" x="668.348881" xlink:href="#m975064132f" y="593.897219"/>
     <use style="fill:#1f77b4;stroke:#1f77b4;stroke-linejoin:miter;" x="683.751659" xlink:href="#m975064132f" y="598.473831"/>
     <use style="fill:#1f77b4;stroke:#1f77b4;stroke-linejoin:miter;" x="696.936588" xlink:href="#m975064132f" y="597.079694"/>
     <use style="fill:#1f77b4;stroke:#1f77b4;stroke-linejoin:miter;" x="747.41017" xlink:href="#m975064132f" y="601.772451"/>
     <use style="fill:#1f77b4;stroke:#1f77b4;stroke-linejoin:miter;" x="756.326393" xlink:href="#m975064132f" y="592.807628"/>
     <use style="fill:#1f77b4;stroke:#1f77b4;stroke-linejoin:miter;" x="766.868788" xlink:href="#m975064132f" y="585.934859"/>
     <use style="fill:#1f77b4;stroke:#1f77b4;stroke-linejoin:miter;" x="784.259718" xlink:href="#m975064132f" y="584.124382"/>
     <use style="fill:#1f77b4;stroke:#1f77b4;stroke-linejoin:miter;" x="803.772492" xlink:href="#m975064132f" y="582.813508"/>
     <use style="fill:#1f77b4;stroke:#1f77b4;stroke-linejoin:miter;" x="833.346598" xlink:href="#m975064132f" y="586.4676"/>
     <use style="fill:#1f77b4;stroke:#1f77b4;stroke-linejoin:miter;" x="836.515724" xlink:href="#m975064132f" y="572.103249"/>
     <use style="fill:#1f77b4;stroke:#1f77b4;stroke-linejoin:miter;" x="875.094" xlink:href="#m975064132f" y="576.817567"/>
     <use style="fill:#1f77b4;stroke:#1f77b4;stroke-linejoin:miter;" x="874.178108" xlink:href="#m975064132f" y="560.646815"/>
     <use style="fill:#1f77b4;stroke:#1f77b4;stroke-linejoin:miter;" x="893.89025" xlink:href="#m975064132f" y="553.575903"/>
     <use style="fill:#1f77b4;stroke:#1f77b4;stroke-linejoin:miter;" x="936.669505" xlink:href="#m975064132f" y="553.400011"/>
     <use style="fill:#1f77b4;stroke:#1f77b4;stroke-linejoin:miter;" x="1056.557421" xlink:href="#m975064132f" y="551.914198"/>
     <use style="fill:#1f77b4;stroke:#1f77b4;stroke-linejoin:miter;" x="1056.314957" xlink:href="#m975064132f" y="531.685007"/>
     <use style="fill:#1f77b4;stroke:#1f77b4;stroke-linejoin:miter;" x="1087.536405" xlink:href="#m975064132f" y="517.175131"/>
     <use style="fill:#1f77b4;stroke:#1f77b4;stroke-linejoin:miter;" x="1129.953674" xlink:href="#m975064132f" y="502.361618"/>
    </g>
   </g>
   <g id="patch_3">
    <path d="M 144 768.96 
L 144 103.68 
" style="fill:none;stroke:#000000;stroke-linecap:square;stroke-linejoin:miter;stroke-width:0.8;"/>
   </g>
   <g id="patch_4">
    <path d="M 1036.8 768.96 
L 1036.8 103.68 
" style="fill:none;stroke:#000000;stroke-linecap:square;stroke-linejoin:miter;stroke-width:0.8;"/>
   </g>
   <g id="patch_5">
    <path d="M 144 768.96 
L 1036.8 768.96 
" style="fill:none;stroke:#000000;stroke-linecap:square;stroke-linejoin:miter;stroke-width:0.8;"/>
   </g>
   <g id="patch_6">
    <path d="M 144 103.68 
L 1036.8 103.68 
" style="fill:none;stroke:#000000;stroke-linecap:square;stroke-linejoin:miter;stroke-width:0.8;"/>
   </g>
  </g>
 </g>
 <defs>
  <clipPath id="p509e7440e2">
   <rect height="665.28" width="892.8" x="144" y="103.68"/>
  </clipPath>
 </defs>
</svg>
