<?xml version="1.0" encoding="utf-8" standalone="no"?>
<!DOCTYPE svg PUBLIC "-//W3C//DTD SVG 1.1//EN"
  "http://www.w3.org/Graphics/SVG/1.1/DTD/svg11.dtd">
<!-- Created with matplotlib (http://matplotlib.org/) -->
<svg height="864pt" version="1.1" viewBox="0 0 1152 864" width="1152pt" xmlns="http://www.w3.org/2000/svg" xmlns:xlink="http://www.w3.org/1999/xlink">
 <defs>
  <style type="text/css">
*{stroke-linecap:butt;stroke-linejoin:round;}
  </style>
 </defs>
 <g id="figure_1">
  <g id="patch_1">
   <path d="M 0 864 
L 1152 864 
L 1152 0 
L 0 0 
z
" style="fill:#ffffff;"/>
  </g>
  <g id="axes_1">
   <g id="patch_2">
    <path d="M 144 768.96 
L 1036.8 768.96 
L 1036.8 103.68 
L 144 103.68 
z
" style="fill:#ffffff;"/>
   </g>
   <g id="matplotlib.axis_1">
    <g id="xtick_1">
     <g id="line2d_1">
      <defs>
       <path d="M 0 0 
L 0 3.5 
" id="m9e3eb14964" style="stroke:#000000;stroke-width:0.8;"/>
      </defs>
      <g>
       <use style="stroke:#000000;stroke-width:0.8;" x="144" xlink:href="#m9e3eb14964" y="768.96"/>
      </g>
     </g>
     <g id="text_1">
      <!-- −4000 -->
      <defs>
       <path d="M 10.59375 35.5 
L 73.1875 35.5 
L 73.1875 27.203125 
L 10.59375 27.203125 
z
" id="DejaVuSans-2212"/>
       <path d="M 37.796875 64.3125 
L 12.890625 25.390625 
L 37.796875 25.390625 
z
M 35.203125 72.90625 
L 47.609375 72.90625 
L 47.609375 25.390625 
L 58.015625 25.390625 
L 58.015625 17.1875 
L 47.609375 17.1875 
L 47.609375 0 
L 37.796875 0 
L 37.796875 17.1875 
L 4.890625 17.1875 
L 4.890625 26.703125 
z
" id="DejaVuSans-34"/>
       <path d="M 31.78125 66.40625 
Q 24.171875 66.40625 20.328125 58.90625 
Q 16.5 51.421875 16.5 36.375 
Q 16.5 21.390625 20.328125 13.890625 
Q 24.171875 6.390625 31.78125 6.390625 
Q 39.453125 6.390625 43.28125 13.890625 
Q 47.125 21.390625 47.125 36.375 
Q 47.125 51.421875 43.28125 58.90625 
Q 39.453125 66.40625 31.78125 66.40625 
z
M 31.78125 74.21875 
Q 44.046875 74.21875 50.515625 64.515625 
Q 56.984375 54.828125 56.984375 36.375 
Q 56.984375 17.96875 50.515625 8.265625 
Q 44.046875 -1.421875 31.78125 -1.421875 
Q 19.53125 -1.421875 13.0625 8.265625 
Q 6.59375 17.96875 6.59375 36.375 
Q 6.59375 54.828125 13.0625 64.515625 
Q 19.53125 74.21875 31.78125 74.21875 
z
" id="DejaVuSans-30"/>
      </defs>
      <g transform="translate(127.085156 783.558437)scale(0.1 -0.1)">
       <use xlink:href="#DejaVuSans-2212"/>
       <use x="83.789062" xlink:href="#DejaVuSans-34"/>
       <use x="147.412109" xlink:href="#DejaVuSans-30"/>
       <use x="211.035156" xlink:href="#DejaVuSans-30"/>
       <use x="274.658203" xlink:href="#DejaVuSans-30"/>
      </g>
     </g>
    </g>
    <g id="xtick_2">
     <g id="line2d_2">
      <g>
       <use style="stroke:#000000;stroke-width:0.8;" x="255.6" xlink:href="#m9e3eb14964" y="768.96"/>
      </g>
     </g>
     <g id="text_2">
      <!-- −3000 -->
      <defs>
       <path d="M 40.578125 39.3125 
Q 47.65625 37.796875 51.625 33 
Q 55.609375 28.21875 55.609375 21.1875 
Q 55.609375 10.40625 48.1875 4.484375 
Q 40.765625 -1.421875 27.09375 -1.421875 
Q 22.515625 -1.421875 17.65625 -0.515625 
Q 12.796875 0.390625 7.625 2.203125 
L 7.625 11.71875 
Q 11.71875 9.328125 16.59375 8.109375 
Q 21.484375 6.890625 26.8125 6.890625 
Q 36.078125 6.890625 40.9375 10.546875 
Q 45.796875 14.203125 45.796875 21.1875 
Q 45.796875 27.640625 41.28125 31.265625 
Q 36.765625 34.90625 28.71875 34.90625 
L 20.21875 34.90625 
L 20.21875 43.015625 
L 29.109375 43.015625 
Q 36.375 43.015625 40.234375 45.921875 
Q 44.09375 48.828125 44.09375 54.296875 
Q 44.09375 59.90625 40.109375 62.90625 
Q 36.140625 65.921875 28.71875 65.921875 
Q 24.65625 65.921875 20.015625 65.03125 
Q 15.375 64.15625 9.8125 62.3125 
L 9.8125 71.09375 
Q 15.4375 72.65625 20.34375 73.4375 
Q 25.25 74.21875 29.59375 74.21875 
Q 40.828125 74.21875 47.359375 69.109375 
Q 53.90625 64.015625 53.90625 55.328125 
Q 53.90625 49.265625 50.4375 45.09375 
Q 46.96875 40.921875 40.578125 39.3125 
z
" id="DejaVuSans-33"/>
      </defs>
      <g transform="translate(238.685156 783.558437)scale(0.1 -0.1)">
       <use xlink:href="#DejaVuSans-2212"/>
       <use x="83.789062" xlink:href="#DejaVuSans-33"/>
       <use x="147.412109" xlink:href="#DejaVuSans-30"/>
       <use x="211.035156" xlink:href="#DejaVuSans-30"/>
       <use x="274.658203" xlink:href="#DejaVuSans-30"/>
      </g>
     </g>
    </g>
    <g id="xtick_3">
     <g id="line2d_3">
      <g>
       <use style="stroke:#000000;stroke-width:0.8;" x="367.2" xlink:href="#m9e3eb14964" y="768.96"/>
      </g>
     </g>
     <g id="text_3">
      <!-- −2000 -->
      <defs>
       <path d="M 19.1875 8.296875 
L 53.609375 8.296875 
L 53.609375 0 
L 7.328125 0 
L 7.328125 8.296875 
Q 12.9375 14.109375 22.625 23.890625 
Q 32.328125 33.6875 34.8125 36.53125 
Q 39.546875 41.84375 41.421875 45.53125 
Q 43.3125 49.21875 43.3125 52.78125 
Q 43.3125 58.59375 39.234375 62.25 
Q 35.15625 65.921875 28.609375 65.921875 
Q 23.96875 65.921875 18.8125 64.3125 
Q 13.671875 62.703125 7.8125 59.421875 
L 7.8125 69.390625 
Q 13.765625 71.78125 18.9375 73 
Q 24.125 74.21875 28.421875 74.21875 
Q 39.75 74.21875 46.484375 68.546875 
Q 53.21875 62.890625 53.21875 53.421875 
Q 53.21875 48.921875 51.53125 44.890625 
Q 49.859375 40.875 45.40625 35.40625 
Q 44.1875 33.984375 37.640625 27.21875 
Q 31.109375 20.453125 19.1875 8.296875 
z
" id="DejaVuSans-32"/>
      </defs>
      <g transform="translate(350.285156 783.558437)scale(0.1 -0.1)">
       <use xlink:href="#DejaVuSans-2212"/>
       <use x="83.789062" xlink:href="#DejaVuSans-32"/>
       <use x="147.412109" xlink:href="#DejaVuSans-30"/>
       <use x="211.035156" xlink:href="#DejaVuSans-30"/>
       <use x="274.658203" xlink:href="#DejaVuSans-30"/>
      </g>
     </g>
    </g>
    <g id="xtick_4">
     <g id="line2d_4">
      <g>
       <use style="stroke:#000000;stroke-width:0.8;" x="478.8" xlink:href="#m9e3eb14964" y="768.96"/>
      </g>
     </g>
     <g id="text_4">
      <!-- −1000 -->
      <defs>
       <path d="M 12.40625 8.296875 
L 28.515625 8.296875 
L 28.515625 63.921875 
L 10.984375 60.40625 
L 10.984375 69.390625 
L 28.421875 72.90625 
L 38.28125 72.90625 
L 38.28125 8.296875 
L 54.390625 8.296875 
L 54.390625 0 
L 12.40625 0 
z
" id="DejaVuSans-31"/>
      </defs>
      <g transform="translate(461.885156 783.558437)scale(0.1 -0.1)">
       <use xlink:href="#DejaVuSans-2212"/>
       <use x="83.789062" xlink:href="#DejaVuSans-31"/>
       <use x="147.412109" xlink:href="#DejaVuSans-30"/>
       <use x="211.035156" xlink:href="#DejaVuSans-30"/>
       <use x="274.658203" xlink:href="#DejaVuSans-30"/>
      </g>
     </g>
    </g>
    <g id="xtick_5">
     <g id="line2d_5">
      <g>
       <use style="stroke:#000000;stroke-width:0.8;" x="590.4" xlink:href="#m9e3eb14964" y="768.96"/>
      </g>
     </g>
     <g id="text_5">
      <!-- 0 -->
      <g transform="translate(587.21875 783.558437)scale(0.1 -0.1)">
       <use xlink:href="#DejaVuSans-30"/>
      </g>
     </g>
    </g>
    <g id="xtick_6">
     <g id="line2d_6">
      <g>
       <use style="stroke:#000000;stroke-width:0.8;" x="702" xlink:href="#m9e3eb14964" y="768.96"/>
      </g>
     </g>
     <g id="text_6">
      <!-- 1000 -->
      <g transform="translate(689.275 783.558437)scale(0.1 -0.1)">
       <use xlink:href="#DejaVuSans-31"/>
       <use x="63.623047" xlink:href="#DejaVuSans-30"/>
       <use x="127.246094" xlink:href="#DejaVuSans-30"/>
       <use x="190.869141" xlink:href="#DejaVuSans-30"/>
      </g>
     </g>
    </g>
    <g id="xtick_7">
     <g id="line2d_7">
      <g>
       <use style="stroke:#000000;stroke-width:0.8;" x="813.6" xlink:href="#m9e3eb14964" y="768.96"/>
      </g>
     </g>
     <g id="text_7">
      <!-- 2000 -->
      <g transform="translate(800.875 783.558437)scale(0.1 -0.1)">
       <use xlink:href="#DejaVuSans-32"/>
       <use x="63.623047" xlink:href="#DejaVuSans-30"/>
       <use x="127.246094" xlink:href="#DejaVuSans-30"/>
       <use x="190.869141" xlink:href="#DejaVuSans-30"/>
      </g>
     </g>
    </g>
    <g id="xtick_8">
     <g id="line2d_8">
      <g>
       <use style="stroke:#000000;stroke-width:0.8;" x="925.2" xlink:href="#m9e3eb14964" y="768.96"/>
      </g>
     </g>
     <g id="text_8">
      <!-- 3000 -->
      <g transform="translate(912.475 783.558437)scale(0.1 -0.1)">
       <use xlink:href="#DejaVuSans-33"/>
       <use x="63.623047" xlink:href="#DejaVuSans-30"/>
       <use x="127.246094" xlink:href="#DejaVuSans-30"/>
       <use x="190.869141" xlink:href="#DejaVuSans-30"/>
      </g>
     </g>
    </g>
    <g id="xtick_9">
     <g id="line2d_9">
      <g>
       <use style="stroke:#000000;stroke-width:0.8;" x="1036.8" xlink:href="#m9e3eb14964" y="768.96"/>
      </g>
     </g>
     <g id="text_9">
      <!-- 4000 -->
      <g transform="translate(1024.075 783.558437)scale(0.1 -0.1)">
       <use xlink:href="#DejaVuSans-34"/>
       <use x="63.623047" xlink:href="#DejaVuSans-30"/>
       <use x="127.246094" xlink:href="#DejaVuSans-30"/>
       <use x="190.869141" xlink:href="#DejaVuSans-30"/>
      </g>
     </g>
    </g>
   </g>
   <g id="matplotlib.axis_2">
    <g id="ytick_1">
     <g id="line2d_10">
      <defs>
       <path d="M 0 0 
L -3.5 0 
" id="mee25285ec6" style="stroke:#000000;stroke-width:0.8;"/>
      </defs>
      <g>
       <use style="stroke:#000000;stroke-width:0.8;" x="144" xlink:href="#mee25285ec6" y="768.96"/>
      </g>
     </g>
     <g id="text_10">
      <!-- −4000 -->
      <g transform="translate(103.170312 772.759219)scale(0.1 -0.1)">
       <use xlink:href="#DejaVuSans-2212"/>
       <use x="83.789062" xlink:href="#DejaVuSans-34"/>
       <use x="147.412109" xlink:href="#DejaVuSans-30"/>
       <use x="211.035156" xlink:href="#DejaVuSans-30"/>
       <use x="274.658203" xlink:href="#DejaVuSans-30"/>
      </g>
     </g>
    </g>
    <g id="ytick_2">
     <g id="line2d_11">
      <g>
       <use style="stroke:#000000;stroke-width:0.8;" x="144" xlink:href="#mee25285ec6" y="685.8"/>
      </g>
     </g>
     <g id="text_11">
      <!-- −3000 -->
      <g transform="translate(103.170312 689.599219)scale(0.1 -0.1)">
       <use xlink:href="#DejaVuSans-2212"/>
       <use x="83.789062" xlink:href="#DejaVuSans-33"/>
       <use x="147.412109" xlink:href="#DejaVuSans-30"/>
       <use x="211.035156" xlink:href="#DejaVuSans-30"/>
       <use x="274.658203" xlink:href="#DejaVuSans-30"/>
      </g>
     </g>
    </g>
    <g id="ytick_3">
     <g id="line2d_12">
      <g>
       <use style="stroke:#000000;stroke-width:0.8;" x="144" xlink:href="#mee25285ec6" y="602.64"/>
      </g>
     </g>
     <g id="text_12">
      <!-- −2000 -->
      <g transform="translate(103.170312 606.439219)scale(0.1 -0.1)">
       <use xlink:href="#DejaVuSans-2212"/>
       <use x="83.789062" xlink:href="#DejaVuSans-32"/>
       <use x="147.412109" xlink:href="#DejaVuSans-30"/>
       <use x="211.035156" xlink:href="#DejaVuSans-30"/>
       <use x="274.658203" xlink:href="#DejaVuSans-30"/>
      </g>
     </g>
    </g>
    <g id="ytick_4">
     <g id="line2d_13">
      <g>
       <use style="stroke:#000000;stroke-width:0.8;" x="144" xlink:href="#mee25285ec6" y="519.48"/>
      </g>
     </g>
     <g id="text_13">
      <!-- −1000 -->
      <g transform="translate(103.170312 523.279219)scale(0.1 -0.1)">
       <use xlink:href="#DejaVuSans-2212"/>
       <use x="83.789062" xlink:href="#DejaVuSans-31"/>
       <use x="147.412109" xlink:href="#DejaVuSans-30"/>
       <use x="211.035156" xlink:href="#DejaVuSans-30"/>
       <use x="274.658203" xlink:href="#DejaVuSans-30"/>
      </g>
     </g>
    </g>
    <g id="ytick_5">
     <g id="line2d_14">
      <g>
       <use style="stroke:#000000;stroke-width:0.8;" x="144" xlink:href="#mee25285ec6" y="436.32"/>
      </g>
     </g>
     <g id="text_14">
      <!-- 0 -->
      <g transform="translate(130.6375 440.119219)scale(0.1 -0.1)">
       <use xlink:href="#DejaVuSans-30"/>
      </g>
     </g>
    </g>
    <g id="ytick_6">
     <g id="line2d_15">
      <g>
       <use style="stroke:#000000;stroke-width:0.8;" x="144" xlink:href="#mee25285ec6" y="353.16"/>
      </g>
     </g>
     <g id="text_15">
      <!-- 1000 -->
      <g transform="translate(111.55 356.959219)scale(0.1 -0.1)">
       <use xlink:href="#DejaVuSans-31"/>
       <use x="63.623047" xlink:href="#DejaVuSans-30"/>
       <use x="127.246094" xlink:href="#DejaVuSans-30"/>
       <use x="190.869141" xlink:href="#DejaVuSans-30"/>
      </g>
     </g>
    </g>
    <g id="ytick_7">
     <g id="line2d_16">
      <g>
       <use style="stroke:#000000;stroke-width:0.8;" x="144" xlink:href="#mee25285ec6" y="270"/>
      </g>
     </g>
     <g id="text_16">
      <!-- 2000 -->
      <g transform="translate(111.55 273.799219)scale(0.1 -0.1)">
       <use xlink:href="#DejaVuSans-32"/>
       <use x="63.623047" xlink:href="#DejaVuSans-30"/>
       <use x="127.246094" xlink:href="#DejaVuSans-30"/>
       <use x="190.869141" xlink:href="#DejaVuSans-30"/>
      </g>
     </g>
    </g>
    <g id="ytick_8">
     <g id="line2d_17">
      <g>
       <use style="stroke:#000000;stroke-width:0.8;" x="144" xlink:href="#mee25285ec6" y="186.84"/>
      </g>
     </g>
     <g id="text_17">
      <!-- 3000 -->
      <g transform="translate(111.55 190.639219)scale(0.1 -0.1)">
       <use xlink:href="#DejaVuSans-33"/>
       <use x="63.623047" xlink:href="#DejaVuSans-30"/>
       <use x="127.246094" xlink:href="#DejaVuSans-30"/>
       <use x="190.869141" xlink:href="#DejaVuSans-30"/>
      </g>
     </g>
    </g>
    <g id="ytick_9">
     <g id="line2d_18">
      <g>
       <use style="stroke:#000000;stroke-width:0.8;" x="144" xlink:href="#mee25285ec6" y="103.68"/>
      </g>
     </g>
     <g id="text_18">
      <!-- 4000 -->
      <g transform="translate(111.55 107.479219)scale(0.1 -0.1)">
       <use xlink:href="#DejaVuSans-34"/>
       <use x="63.623047" xlink:href="#DejaVuSans-30"/>
       <use x="127.246094" xlink:href="#DejaVuSans-30"/>
       <use x="190.869141" xlink:href="#DejaVuSans-30"/>
      </g>
     </g>
    </g>
   </g>
   <g id="line2d_19">
    <path clip-path="url(#p86b3962ded)" d="M 590.4 768.96 
L 590.4 103.68 
" style="fill:none;stroke:#1f77b4;stroke-linecap:square;stroke-width:1.5;"/>
   </g>
   <g id="line2d_20">
    <path clip-path="url(#p86b3962ded)" d="M 144 436.32 
L 1036.8 436.32 
" style="fill:none;stroke:#1f77b4;stroke-linecap:square;stroke-width:1.5;"/>
   </g>
   <g id="line2d_21">
    <defs>
     <path d="M 0 3 
C 0.795609 3 1.55874 2.683901 2.12132 2.12132 
C 2.683901 1.55874 3 0.795609 3 0 
C 3 -0.795609 2.683901 -1.55874 2.12132 -2.12132 
C 1.55874 -2.683901 0.795609 -3 0 -3 
C -0.795609 -3 -1.55874 -2.683901 -2.12132 -2.12132 
C -2.683901 -1.55874 -3 -0.795609 -3 0 
C -3 0.795609 -2.683901 1.55874 -2.12132 2.12132 
C -1.55874 2.683901 -0.795609 3 0 3 
z
" id="meb822bf8c6" style="stroke:#008000;"/>
    </defs>
    <g clip-path="url(#p86b3962ded)">
     <use style="fill:#008000;stroke:#008000;" x="1071.256428" xlink:href="#meb822bf8c6" y="436.515431"/>
    </g>
   </g>
   <g id="line2d_22">
    <g clip-path="url(#p86b3962ded)">
     <use style="fill:#008000;stroke:#008000;" x="770.485756" xlink:href="#meb822bf8c6" y="196.701274"/>
    </g>
   </g>
   <g id="line2d_23">
    <g clip-path="url(#p86b3962ded)">
     <use style="fill:#008000;stroke:#008000;" x="405.706141" xlink:href="#meb822bf8c6" y="486.369528"/>
    </g>
   </g>
   <g id="line2d_24">
    <g clip-path="url(#p86b3962ded)">
     <use style="fill:#008000;stroke:#008000;" x="458.368848" xlink:href="#meb822bf8c6" y="583.302358"/>
    </g>
   </g>
   <g id="line2d_25">
    <g clip-path="url(#p86b3962ded)">
     <use style="fill:#008000;stroke:#008000;" x="754.404691" xlink:href="#meb822bf8c6" y="593.270266"/>
    </g>
   </g>
   <g id="line2d_26">
    <g clip-path="url(#p86b3962ded)">
     <use style="fill:#008000;stroke:#008000;" x="955.630229" xlink:href="#meb822bf8c6" y="550.924528"/>
    </g>
   </g>
   <g id="line2d_27">
    <g clip-path="url(#p86b3962ded)">
     <use style="fill:#008000;stroke:#008000;" x="1087.237116" xlink:href="#meb822bf8c6" y="520.517724"/>
    </g>
   </g>
   <g id="line2d_28">
    <defs>
     <path d="M 0 1.333333 
C 0.353604 1.333333 0.692773 1.192845 0.942809 0.942809 
C 1.192845 0.692773 1.333333 0.353604 1.333333 0 
C 1.333333 -0.353604 1.192845 -0.692773 0.942809 -0.942809 
C 0.692773 -1.192845 0.353604 -1.333333 0 -1.333333 
C -0.353604 -1.333333 -0.692773 -1.192845 -0.942809 -0.942809 
C -1.192845 -0.692773 -1.333333 -0.353604 -1.333333 0 
C -1.333333 0.353604 -1.192845 0.692773 -0.942809 0.942809 
C -0.692773 1.192845 -0.353604 1.333333 0 1.333333 
z
" id="md89d9f45b6" style="stroke:#ff0000;"/>
    </defs>
    <g clip-path="url(#p86b3962ded)">
     <use style="fill:#ff0000;stroke:#ff0000;" x="1172.196308" xlink:href="#md89d9f45b6" y="498.455054"/>
     <use style="fill:#ff0000;stroke:#ff0000;" x="1071.256428" xlink:href="#md89d9f45b6" y="436.515431"/>
     <use style="fill:#ff0000;stroke:#ff0000;" x="1284.892713" xlink:href="#md89d9f45b6" y="345.214695"/>
     <use style="fill:#ff0000;stroke:#ff0000;" x="1280.820967" xlink:href="#md89d9f45b6" y="326.378271"/>
     <use style="fill:#ff0000;stroke:#ff0000;" x="1362.909771" xlink:href="#md89d9f45b6" y="292.295411"/>
     <use style="fill:#ff0000;stroke:#ff0000;" x="1318.252321" xlink:href="#md89d9f45b6" y="279.837791"/>
     <use style="fill:#ff0000;stroke:#ff0000;" x="1349.317791" xlink:href="#md89d9f45b6" y="251.378404"/>
     <use style="fill:#ff0000;stroke:#ff0000;" x="654.836679" xlink:href="#md89d9f45b6" y="398.700461"/>
     <use style="fill:#ff0000;stroke:#ff0000;" x="647.663439" xlink:href="#md89d9f45b6" y="377.790731"/>
     <use style="fill:#ff0000;stroke:#ff0000;" x="770.485756" xlink:href="#md89d9f45b6" y="196.701274"/>
     <use style="fill:#ff0000;stroke:#ff0000;" x="390.105587" xlink:href="#md89d9f45b6" y="292.189364"/>
     <use style="fill:#ff0000;stroke:#ff0000;" x="410.22852" xlink:href="#md89d9f45b6" y="315.831814"/>
     <use style="fill:#ff0000;stroke:#ff0000;" x="421.474726" xlink:href="#md89d9f45b6" y="331.338867"/>
     <use style="fill:#ff0000;stroke:#ff0000;" x="434.457604" xlink:href="#md89d9f45b6" y="346.650355"/>
     <use style="fill:#ff0000;stroke:#ff0000;" x="404.131751" xlink:href="#md89d9f45b6" y="363.872805"/>
     <use style="fill:#ff0000;stroke:#ff0000;" x="454.068949" xlink:href="#md89d9f45b6" y="388.339945"/>
     <use style="fill:#ff0000;stroke:#ff0000;" x="441.154525" xlink:href="#md89d9f45b6" y="414.639631"/>
     <use style="fill:#ff0000;stroke:#ff0000;" x="420.480916" xlink:href="#md89d9f45b6" y="438.2538"/>
     <use style="fill:#ff0000;stroke:#ff0000;" x="395.580854" xlink:href="#md89d9f45b6" y="443.37246"/>
     <use style="fill:#ff0000;stroke:#ff0000;" x="400.892307" xlink:href="#md89d9f45b6" y="468.63796"/>
     <use style="fill:#ff0000;stroke:#ff0000;" x="436.12484" xlink:href="#md89d9f45b6" y="467.392374"/>
     <use style="fill:#ff0000;stroke:#ff0000;" x="404.234551" xlink:href="#md89d9f45b6" y="478.483887"/>
     <use style="fill:#ff0000;stroke:#ff0000;" x="407.78235" xlink:href="#md89d9f45b6" y="494.257632"/>
     <use style="fill:#ff0000;stroke:#ff0000;" x="468.595634" xlink:href="#md89d9f45b6" y="491.770096"/>
     <use style="fill:#ff0000;stroke:#ff0000;" x="434.129299" xlink:href="#md89d9f45b6" y="512.529772"/>
     <use style="fill:#ff0000;stroke:#ff0000;" x="453.28786" xlink:href="#md89d9f45b6" y="514.188416"/>
     <use style="fill:#ff0000;stroke:#ff0000;" x="466.676303" xlink:href="#md89d9f45b6" y="512.023836"/>
     <use style="fill:#ff0000;stroke:#ff0000;" x="458.02074" xlink:href="#md89d9f45b6" y="523.20983"/>
     <use style="fill:#ff0000;stroke:#ff0000;" x="454.919366" xlink:href="#md89d9f45b6" y="538.437906"/>
     <use style="fill:#ff0000;stroke:#ff0000;" x="472.267529" xlink:href="#md89d9f45b6" y="538.933084"/>
     <use style="fill:#ff0000;stroke:#ff0000;" x="455.083592" xlink:href="#md89d9f45b6" y="561.884589"/>
     <use style="fill:#ff0000;stroke:#ff0000;" x="452.362436" xlink:href="#md89d9f45b6" y="584.161595"/>
     <use style="fill:#ff0000;stroke:#ff0000;" x="464.288255" xlink:href="#md89d9f45b6" y="582.330778"/>
     <use style="fill:#ff0000;stroke:#ff0000;" x="545.785826" xlink:href="#md89d9f45b6" y="499.382627"/>
     <use style="fill:#ff0000;stroke:#ff0000;" x="586.239459" xlink:href="#md89d9f45b6" y="494.86577"/>
     <use style="fill:#ff0000;stroke:#ff0000;" x="597.617913" xlink:href="#md89d9f45b6" y="643.880055"/>
     <use style="fill:#ff0000;stroke:#ff0000;" x="605.530438" xlink:href="#md89d9f45b6" y="618.216053"/>
     <use style="fill:#ff0000;stroke:#ff0000;" x="617.140998" xlink:href="#md89d9f45b6" y="640.923495"/>
     <use style="fill:#ff0000;stroke:#ff0000;" x="633.202982" xlink:href="#md89d9f45b6" y="623.159594"/>
     <use style="fill:#ff0000;stroke:#ff0000;" x="664.757325" xlink:href="#md89d9f45b6" y="632.987937"/>
     <use style="fill:#ff0000;stroke:#ff0000;" x="665.321336" xlink:href="#md89d9f45b6" y="609.912545"/>
     <use style="fill:#ff0000;stroke:#ff0000;" x="667.032072" xlink:href="#md89d9f45b6" y="594.012249"/>
     <use style="fill:#ff0000;stroke:#ff0000;" x="695.495957" xlink:href="#md89d9f45b6" y="597.443577"/>
     <use style="fill:#ff0000;stroke:#ff0000;" x="754.404691" xlink:href="#md89d9f45b6" y="593.270266"/>
     <use style="fill:#ff0000;stroke:#ff0000;" x="809.095679" xlink:href="#md89d9f45b6" y="583.214065"/>
     <use style="fill:#ff0000;stroke:#ff0000;" x="833.747752" xlink:href="#md89d9f45b6" y="588.898553"/>
     <use style="fill:#ff0000;stroke:#ff0000;" x="837.245597" xlink:href="#md89d9f45b6" y="569.424335"/>
     <use style="fill:#ff0000;stroke:#ff0000;" x="878.840534" xlink:href="#md89d9f45b6" y="559.632321"/>
     <use style="fill:#ff0000;stroke:#ff0000;" x="892.063123" xlink:href="#md89d9f45b6" y="555.056546"/>
     <use style="fill:#ff0000;stroke:#ff0000;" x="944.872905" xlink:href="#md89d9f45b6" y="552.97431"/>
     <use style="fill:#ff0000;stroke:#ff0000;" x="966.396154" xlink:href="#md89d9f45b6" y="548.631356"/>
     <use style="fill:#ff0000;stroke:#ff0000;" x="1088.529137" xlink:href="#md89d9f45b6" y="527.685383"/>
     <use style="fill:#ff0000;stroke:#ff0000;" x="1085.761681" xlink:href="#md89d9f45b6" y="513.413083"/>
     <use style="fill:#ff0000;stroke:#ff0000;" x="1125.329321" xlink:href="#md89d9f45b6" y="504.925407"/>
    </g>
   </g>
   <g id="line2d_29">
    <defs>
     <path d="M -0.5 0.5 
L 0.5 0.5 
L 0.5 -0.5 
L -0.5 -0.5 
z
" id="mf577b682c5" style="stroke:#1f77b4;stroke-linejoin:miter;"/>
    </defs>
    <g clip-path="url(#p86b3962ded)">
     <use style="fill:#1f77b4;stroke:#1f77b4;stroke-linejoin:miter;" x="1172.196308" xlink:href="#mf577b682c5" y="498.455054"/>
     <use style="fill:#1f77b4;stroke:#1f77b4;stroke-linejoin:miter;" x="1071.256428" xlink:href="#mf577b682c5" y="436.515431"/>
     <use style="fill:#1f77b4;stroke:#1f77b4;stroke-linejoin:miter;" x="1284.892713" xlink:href="#mf577b682c5" y="345.214695"/>
     <use style="fill:#1f77b4;stroke:#1f77b4;stroke-linejoin:miter;" x="1280.820967" xlink:href="#mf577b682c5" y="326.378271"/>
     <use style="fill:#1f77b4;stroke:#1f77b4;stroke-linejoin:miter;" x="1362.909771" xlink:href="#mf577b682c5" y="292.295411"/>
     <use style="fill:#1f77b4;stroke:#1f77b4;stroke-linejoin:miter;" x="1318.252321" xlink:href="#mf577b682c5" y="279.837791"/>
     <use style="fill:#1f77b4;stroke:#1f77b4;stroke-linejoin:miter;" x="1349.317791" xlink:href="#mf577b682c5" y="251.378404"/>
     <use style="fill:#1f77b4;stroke:#1f77b4;stroke-linejoin:miter;" x="654.836679" xlink:href="#mf577b682c5" y="398.700461"/>
     <use style="fill:#1f77b4;stroke:#1f77b4;stroke-linejoin:miter;" x="649.483707" xlink:href="#mf577b682c5" y="399.069092"/>
     <use style="fill:#1f77b4;stroke:#1f77b4;stroke-linejoin:miter;" x="647.461713" xlink:href="#mf577b682c5" y="397.697388"/>
     <use style="fill:#1f77b4;stroke:#1f77b4;stroke-linejoin:miter;" x="646.102886" xlink:href="#mf577b682c5" y="395.862986"/>
     <use style="fill:#1f77b4;stroke:#1f77b4;stroke-linejoin:miter;" x="645.091717" xlink:href="#mf577b682c5" y="393.654586"/>
     <use style="fill:#1f77b4;stroke:#1f77b4;stroke-linejoin:miter;" x="643.387118" xlink:href="#mf577b682c5" y="392.057681"/>
     <use style="fill:#1f77b4;stroke:#1f77b4;stroke-linejoin:miter;" x="641.32399" xlink:href="#mf577b682c5" y="390.51662"/>
     <use style="fill:#1f77b4;stroke:#1f77b4;stroke-linejoin:miter;" x="642.250373" xlink:href="#mf577b682c5" y="386.671972"/>
     <use style="fill:#1f77b4;stroke:#1f77b4;stroke-linejoin:miter;" x="647.663439" xlink:href="#mf577b682c5" y="377.790731"/>
     <use style="fill:#1f77b4;stroke:#1f77b4;stroke-linejoin:miter;" x="770.485756" xlink:href="#mf577b682c5" y="196.701274"/>
     <use style="fill:#1f77b4;stroke:#1f77b4;stroke-linejoin:miter;" x="755.314206" xlink:href="#mf577b682c5" y="197.238507"/>
     <use style="fill:#1f77b4;stroke:#1f77b4;stroke-linejoin:miter;" x="740.068422" xlink:href="#mf577b682c5" y="199.17854"/>
     <use style="fill:#1f77b4;stroke:#1f77b4;stroke-linejoin:miter;" x="724.702922" xlink:href="#mf577b682c5" y="202.152184"/>
     <use style="fill:#1f77b4;stroke:#1f77b4;stroke-linejoin:miter;" x="710.389507" xlink:href="#mf577b682c5" y="204.905282"/>
     <use style="fill:#1f77b4;stroke:#1f77b4;stroke-linejoin:miter;" x="697.36262" xlink:href="#mf577b682c5" y="206.066186"/>
     <use style="fill:#1f77b4;stroke:#1f77b4;stroke-linejoin:miter;" x="684.018184" xlink:href="#mf577b682c5" y="209.03026"/>
     <use style="fill:#1f77b4;stroke:#1f77b4;stroke-linejoin:miter;" x="671.751524" xlink:href="#mf577b682c5" y="210.575624"/>
     <use style="fill:#1f77b4;stroke:#1f77b4;stroke-linejoin:miter;" x="660.078261" xlink:href="#mf577b682c5" y="211.702574"/>
     <use style="fill:#1f77b4;stroke:#1f77b4;stroke-linejoin:miter;" x="648.120763" xlink:href="#mf577b682c5" y="214.400007"/>
     <use style="fill:#1f77b4;stroke:#1f77b4;stroke-linejoin:miter;" x="637.209224" xlink:href="#mf577b682c5" y="215.313598"/>
     <use style="fill:#1f77b4;stroke:#1f77b4;stroke-linejoin:miter;" x="625.689355" xlink:href="#mf577b682c5" y="216.201394"/>
     <use style="fill:#1f77b4;stroke:#1f77b4;stroke-linejoin:miter;" x="614.874171" xlink:href="#mf577b682c5" y="218.996767"/>
     <use style="fill:#1f77b4;stroke:#1f77b4;stroke-linejoin:miter;" x="604.284887" xlink:href="#mf577b682c5" y="219.685654"/>
     <use style="fill:#1f77b4;stroke:#1f77b4;stroke-linejoin:miter;" x="593.899082" xlink:href="#mf577b682c5" y="223.862199"/>
     <use style="fill:#1f77b4;stroke:#1f77b4;stroke-linejoin:miter;" x="583.822736" xlink:href="#mf577b682c5" y="224.921717"/>
     <use style="fill:#1f77b4;stroke:#1f77b4;stroke-linejoin:miter;" x="573.8074" xlink:href="#mf577b682c5" y="225.684863"/>
     <use style="fill:#1f77b4;stroke:#1f77b4;stroke-linejoin:miter;" x="563.84849" xlink:href="#mf577b682c5" y="226.648722"/>
     <use style="fill:#1f77b4;stroke:#1f77b4;stroke-linejoin:miter;" x="554.097785" xlink:href="#mf577b682c5" y="228.216532"/>
     <use style="fill:#1f77b4;stroke:#1f77b4;stroke-linejoin:miter;" x="544.657863" xlink:href="#mf577b682c5" y="231.949768"/>
     <use style="fill:#1f77b4;stroke:#1f77b4;stroke-linejoin:miter;" x="535.416018" xlink:href="#mf577b682c5" y="234.936507"/>
     <use style="fill:#1f77b4;stroke:#1f77b4;stroke-linejoin:miter;" x="526.02164" xlink:href="#mf577b682c5" y="236.980177"/>
     <use style="fill:#1f77b4;stroke:#1f77b4;stroke-linejoin:miter;" x="516.259754" xlink:href="#mf577b682c5" y="237.318523"/>
     <use style="fill:#1f77b4;stroke:#1f77b4;stroke-linejoin:miter;" x="506.797565" xlink:href="#mf577b682c5" y="239.673574"/>
     <use style="fill:#1f77b4;stroke:#1f77b4;stroke-linejoin:miter;" x="497.133744" xlink:href="#mf577b682c5" y="240.909756"/>
     <use style="fill:#1f77b4;stroke:#1f77b4;stroke-linejoin:miter;" x="487.486407" xlink:href="#mf577b682c5" y="242.722733"/>
     <use style="fill:#1f77b4;stroke:#1f77b4;stroke-linejoin:miter;" x="477.025751" xlink:href="#mf577b682c5" y="243.177867"/>
     <use style="fill:#1f77b4;stroke:#1f77b4;stroke-linejoin:miter;" x="467.293857" xlink:href="#mf577b682c5" y="245.337908"/>
     <use style="fill:#1f77b4;stroke:#1f77b4;stroke-linejoin:miter;" x="456.977563" xlink:href="#mf577b682c5" y="246.850029"/>
     <use style="fill:#1f77b4;stroke:#1f77b4;stroke-linejoin:miter;" x="446.817511" xlink:href="#mf577b682c5" y="248.766628"/>
     <use style="fill:#1f77b4;stroke:#1f77b4;stroke-linejoin:miter;" x="436.363082" xlink:href="#mf577b682c5" y="250.833792"/>
     <use style="fill:#1f77b4;stroke:#1f77b4;stroke-linejoin:miter;" x="425.243137" xlink:href="#mf577b682c5" y="252.134972"/>
     <use style="fill:#1f77b4;stroke:#1f77b4;stroke-linejoin:miter;" x="410.263042" xlink:href="#mf577b682c5" y="263.250834"/>
     <use style="fill:#1f77b4;stroke:#1f77b4;stroke-linejoin:miter;" x="402.128171" xlink:href="#mf577b682c5" y="268.289636"/>
     <use style="fill:#1f77b4;stroke:#1f77b4;stroke-linejoin:miter;" x="393.29979" xlink:href="#mf577b682c5" y="272.665015"/>
     <use style="fill:#1f77b4;stroke:#1f77b4;stroke-linejoin:miter;" x="392.974081" xlink:href="#mf577b682c5" y="283.562548"/>
     <use style="fill:#1f77b4;stroke:#1f77b4;stroke-linejoin:miter;" x="390.105587" xlink:href="#mf577b682c5" y="292.189364"/>
     <use style="fill:#1f77b4;stroke:#1f77b4;stroke-linejoin:miter;" x="410.22852" xlink:href="#mf577b682c5" y="315.831814"/>
     <use style="fill:#1f77b4;stroke:#1f77b4;stroke-linejoin:miter;" x="421.474726" xlink:href="#mf577b682c5" y="331.338867"/>
     <use style="fill:#1f77b4;stroke:#1f77b4;stroke-linejoin:miter;" x="434.457604" xlink:href="#mf577b682c5" y="346.650355"/>
     <use style="fill:#1f77b4;stroke:#1f77b4;stroke-linejoin:miter;" x="424.931702" xlink:href="#mf577b682c5" y="347.760335"/>
     <use style="fill:#1f77b4;stroke:#1f77b4;stroke-linejoin:miter;" x="421.713122" xlink:href="#mf577b682c5" y="352.578351"/>
     <use style="fill:#1f77b4;stroke:#1f77b4;stroke-linejoin:miter;" x="416.21514" xlink:href="#mf577b682c5" y="356.390992"/>
     <use style="fill:#1f77b4;stroke:#1f77b4;stroke-linejoin:miter;" x="405.689966" xlink:href="#mf577b682c5" y="358.050841"/>
     <use style="fill:#1f77b4;stroke:#1f77b4;stroke-linejoin:miter;" x="404.131751" xlink:href="#mf577b682c5" y="363.872805"/>
     <use style="fill:#1f77b4;stroke:#1f77b4;stroke-linejoin:miter;" x="454.068949" xlink:href="#mf577b682c5" y="388.339945"/>
     <use style="fill:#1f77b4;stroke:#1f77b4;stroke-linejoin:miter;" x="455.084323" xlink:href="#mf577b682c5" y="393.194455"/>
     <use style="fill:#1f77b4;stroke:#1f77b4;stroke-linejoin:miter;" x="455.914565" xlink:href="#mf577b682c5" y="397.63205"/>
     <use style="fill:#1f77b4;stroke:#1f77b4;stroke-linejoin:miter;" x="456.808189" xlink:href="#mf577b682c5" y="401.860767"/>
     <use style="fill:#1f77b4;stroke:#1f77b4;stroke-linejoin:miter;" x="457.860332" xlink:href="#mf577b682c5" y="406.095536"/>
     <use style="fill:#1f77b4;stroke:#1f77b4;stroke-linejoin:miter;" x="462.775376" xlink:href="#mf577b682c5" y="410.976716"/>
     <use style="fill:#1f77b4;stroke:#1f77b4;stroke-linejoin:miter;" x="451.839503" xlink:href="#mf577b682c5" y="412.571835"/>
     <use style="fill:#1f77b4;stroke:#1f77b4;stroke-linejoin:miter;" x="441.154525" xlink:href="#mf577b682c5" y="414.639631"/>
     <use style="fill:#1f77b4;stroke:#1f77b4;stroke-linejoin:miter;" x="424.022362" xlink:href="#mf577b682c5" y="416.510459"/>
     <use style="fill:#1f77b4;stroke:#1f77b4;stroke-linejoin:miter;" x="425.438532" xlink:href="#mf577b682c5" y="421.226966"/>
     <use style="fill:#1f77b4;stroke:#1f77b4;stroke-linejoin:miter;" x="417.979466" xlink:href="#mf577b682c5" y="424.973434"/>
     <use style="fill:#1f77b4;stroke:#1f77b4;stroke-linejoin:miter;" x="419.277962" xlink:href="#mf577b682c5" y="429.567559"/>
     <use style="fill:#1f77b4;stroke:#1f77b4;stroke-linejoin:miter;" x="420.291712" xlink:href="#mf577b682c5" y="434.107429"/>
     <use style="fill:#1f77b4;stroke:#1f77b4;stroke-linejoin:miter;" x="420.480916" xlink:href="#mf577b682c5" y="438.2538"/>
     <use style="fill:#1f77b4;stroke:#1f77b4;stroke-linejoin:miter;" x="395.580854" xlink:href="#mf577b682c5" y="443.37246"/>
     <use style="fill:#1f77b4;stroke:#1f77b4;stroke-linejoin:miter;" x="395.223549" xlink:href="#mf577b682c5" y="448.484836"/>
     <use style="fill:#1f77b4;stroke:#1f77b4;stroke-linejoin:miter;" x="397.199164" xlink:href="#mf577b682c5" y="453.518736"/>
     <use style="fill:#1f77b4;stroke:#1f77b4;stroke-linejoin:miter;" x="398.406188" xlink:href="#mf577b682c5" y="458.539758"/>
     <use style="fill:#1f77b4;stroke:#1f77b4;stroke-linejoin:miter;" x="400.532828" xlink:href="#mf577b682c5" y="463.421052"/>
     <use style="fill:#1f77b4;stroke:#1f77b4;stroke-linejoin:miter;" x="400.892307" xlink:href="#mf577b682c5" y="468.63796"/>
     <use style="fill:#1f77b4;stroke:#1f77b4;stroke-linejoin:miter;" x="436.12484" xlink:href="#mf577b682c5" y="467.392374"/>
     <use style="fill:#1f77b4;stroke:#1f77b4;stroke-linejoin:miter;" x="404.234551" xlink:href="#mf577b682c5" y="478.483887"/>
     <use style="fill:#1f77b4;stroke:#1f77b4;stroke-linejoin:miter;" x="404.879277" xlink:href="#mf577b682c5" y="483.752219"/>
     <use style="fill:#1f77b4;stroke:#1f77b4;stroke-linejoin:miter;" x="406.510211" xlink:href="#mf577b682c5" y="488.748522"/>
     <use style="fill:#1f77b4;stroke:#1f77b4;stroke-linejoin:miter;" x="407.78235" xlink:href="#mf577b682c5" y="494.257632"/>
     <use style="fill:#1f77b4;stroke:#1f77b4;stroke-linejoin:miter;" x="468.595634" xlink:href="#mf577b682c5" y="491.770096"/>
     <use style="fill:#1f77b4;stroke:#1f77b4;stroke-linejoin:miter;" x="434.129299" xlink:href="#mf577b682c5" y="512.529772"/>
     <use style="fill:#1f77b4;stroke:#1f77b4;stroke-linejoin:miter;" x="438.223664" xlink:href="#mf577b682c5" y="516.460309"/>
     <use style="fill:#1f77b4;stroke:#1f77b4;stroke-linejoin:miter;" x="453.28786" xlink:href="#mf577b682c5" y="514.188416"/>
     <use style="fill:#1f77b4;stroke:#1f77b4;stroke-linejoin:miter;" x="466.676303" xlink:href="#mf577b682c5" y="512.023836"/>
     <use style="fill:#1f77b4;stroke:#1f77b4;stroke-linejoin:miter;" x="458.02074" xlink:href="#mf577b682c5" y="523.20983"/>
     <use style="fill:#1f77b4;stroke:#1f77b4;stroke-linejoin:miter;" x="454.919366" xlink:href="#mf577b682c5" y="538.437906"/>
     <use style="fill:#1f77b4;stroke:#1f77b4;stroke-linejoin:miter;" x="467.777808" xlink:href="#mf577b682c5" y="535.655103"/>
     <use style="fill:#1f77b4;stroke:#1f77b4;stroke-linejoin:miter;" x="472.267529" xlink:href="#mf577b682c5" y="538.933084"/>
     <use style="fill:#1f77b4;stroke:#1f77b4;stroke-linejoin:miter;" x="455.083592" xlink:href="#mf577b682c5" y="561.884589"/>
     <use style="fill:#1f77b4;stroke:#1f77b4;stroke-linejoin:miter;" x="452.362436" xlink:href="#mf577b682c5" y="584.161595"/>
     <use style="fill:#1f77b4;stroke:#1f77b4;stroke-linejoin:miter;" x="464.288255" xlink:href="#mf577b682c5" y="582.330778"/>
     <use style="fill:#1f77b4;stroke:#1f77b4;stroke-linejoin:miter;" x="545.785826" xlink:href="#mf577b682c5" y="499.382627"/>
     <use style="fill:#1f77b4;stroke:#1f77b4;stroke-linejoin:miter;" x="551.003955" xlink:href="#mf577b682c5" y="497.523002"/>
     <use style="fill:#1f77b4;stroke:#1f77b4;stroke-linejoin:miter;" x="556.463183" xlink:href="#mf577b682c5" y="494.740565"/>
     <use style="fill:#1f77b4;stroke:#1f77b4;stroke-linejoin:miter;" x="559.212578" xlink:href="#mf577b682c5" y="495.317313"/>
     <use style="fill:#1f77b4;stroke:#1f77b4;stroke-linejoin:miter;" x="562.19654" xlink:href="#mf577b682c5" y="495.770739"/>
     <use style="fill:#1f77b4;stroke:#1f77b4;stroke-linejoin:miter;" x="565.408371" xlink:href="#mf577b682c5" y="495.779501"/>
     <use style="fill:#1f77b4;stroke:#1f77b4;stroke-linejoin:miter;" x="568.274333" xlink:href="#mf577b682c5" y="496.406715"/>
     <use style="fill:#1f77b4;stroke:#1f77b4;stroke-linejoin:miter;" x="571.603444" xlink:href="#mf577b682c5" y="495.730707"/>
     <use style="fill:#1f77b4;stroke:#1f77b4;stroke-linejoin:miter;" x="576.02204" xlink:href="#mf577b682c5" y="491.039776"/>
     <use style="fill:#1f77b4;stroke:#1f77b4;stroke-linejoin:miter;" x="578.711811" xlink:href="#mf577b682c5" y="491.310161"/>
     <use style="fill:#1f77b4;stroke:#1f77b4;stroke-linejoin:miter;" x="581.453707" xlink:href="#mf577b682c5" y="490.736406"/>
     <use style="fill:#1f77b4;stroke:#1f77b4;stroke-linejoin:miter;" x="583.682052" xlink:href="#mf577b682c5" y="492.479812"/>
     <use style="fill:#1f77b4;stroke:#1f77b4;stroke-linejoin:miter;" x="586.239459" xlink:href="#mf577b682c5" y="494.86577"/>
     <use style="fill:#1f77b4;stroke:#1f77b4;stroke-linejoin:miter;" x="597.617913" xlink:href="#mf577b682c5" y="643.880055"/>
     <use style="fill:#1f77b4;stroke:#1f77b4;stroke-linejoin:miter;" x="605.530438" xlink:href="#mf577b682c5" y="618.216053"/>
     <use style="fill:#1f77b4;stroke:#1f77b4;stroke-linejoin:miter;" x="617.140998" xlink:href="#mf577b682c5" y="640.923495"/>
     <use style="fill:#1f77b4;stroke:#1f77b4;stroke-linejoin:miter;" x="626.886667" xlink:href="#mf577b682c5" y="639.833951"/>
     <use style="fill:#1f77b4;stroke:#1f77b4;stroke-linejoin:miter;" x="633.202982" xlink:href="#mf577b682c5" y="623.159594"/>
     <use style="fill:#1f77b4;stroke:#1f77b4;stroke-linejoin:miter;" x="664.757325" xlink:href="#mf577b682c5" y="632.987937"/>
     <use style="fill:#1f77b4;stroke:#1f77b4;stroke-linejoin:miter;" x="665.321336" xlink:href="#mf577b682c5" y="609.912545"/>
     <use style="fill:#1f77b4;stroke:#1f77b4;stroke-linejoin:miter;" x="667.032072" xlink:href="#mf577b682c5" y="594.012249"/>
     <use style="fill:#1f77b4;stroke:#1f77b4;stroke-linejoin:miter;" x="677.691408" xlink:href="#mf577b682c5" y="598.076462"/>
     <use style="fill:#1f77b4;stroke:#1f77b4;stroke-linejoin:miter;" x="687.274829" xlink:href="#mf577b682c5" y="599.052301"/>
     <use style="fill:#1f77b4;stroke:#1f77b4;stroke-linejoin:miter;" x="695.495957" xlink:href="#mf577b682c5" y="597.443577"/>
     <use style="fill:#1f77b4;stroke:#1f77b4;stroke-linejoin:miter;" x="754.404691" xlink:href="#mf577b682c5" y="593.270266"/>
     <use style="fill:#1f77b4;stroke:#1f77b4;stroke-linejoin:miter;" x="764.313358" xlink:href="#mf577b682c5" y="591.020378"/>
     <use style="fill:#1f77b4;stroke:#1f77b4;stroke-linejoin:miter;" x="772.459228" xlink:href="#mf577b682c5" y="587.154929"/>
     <use style="fill:#1f77b4;stroke:#1f77b4;stroke-linejoin:miter;" x="782.589332" xlink:href="#mf577b682c5" y="584.782381"/>
     <use style="fill:#1f77b4;stroke:#1f77b4;stroke-linejoin:miter;" x="795.603639" xlink:href="#mf577b682c5" y="584.144544"/>
     <use style="fill:#1f77b4;stroke:#1f77b4;stroke-linejoin:miter;" x="809.095679" xlink:href="#mf577b682c5" y="583.214065"/>
     <use style="fill:#1f77b4;stroke:#1f77b4;stroke-linejoin:miter;" x="833.747752" xlink:href="#mf577b682c5" y="588.898553"/>
     <use style="fill:#1f77b4;stroke:#1f77b4;stroke-linejoin:miter;" x="832.049505" xlink:href="#mf577b682c5" y="577.162657"/>
     <use style="fill:#1f77b4;stroke:#1f77b4;stroke-linejoin:miter;" x="837.245597" xlink:href="#mf577b682c5" y="569.424335"/>
     <use style="fill:#1f77b4;stroke:#1f77b4;stroke-linejoin:miter;" x="878.840534" xlink:href="#mf577b682c5" y="559.632321"/>
     <use style="fill:#1f77b4;stroke:#1f77b4;stroke-linejoin:miter;" x="892.063123" xlink:href="#mf577b682c5" y="555.056546"/>
     <use style="fill:#1f77b4;stroke:#1f77b4;stroke-linejoin:miter;" x="944.872905" xlink:href="#mf577b682c5" y="552.97431"/>
     <use style="fill:#1f77b4;stroke:#1f77b4;stroke-linejoin:miter;" x="966.396154" xlink:href="#mf577b682c5" y="548.631356"/>
     <use style="fill:#1f77b4;stroke:#1f77b4;stroke-linejoin:miter;" x="1088.529137" xlink:href="#mf577b682c5" y="527.685383"/>
     <use style="fill:#1f77b4;stroke:#1f77b4;stroke-linejoin:miter;" x="1085.761681" xlink:href="#mf577b682c5" y="513.413083"/>
     <use style="fill:#1f77b4;stroke:#1f77b4;stroke-linejoin:miter;" x="1125.329321" xlink:href="#mf577b682c5" y="504.925407"/>
    </g>
   </g>
   <g id="patch_3">
    <path d="M 144 768.96 
L 144 103.68 
" style="fill:none;stroke:#000000;stroke-linecap:square;stroke-linejoin:miter;stroke-width:0.8;"/>
   </g>
   <g id="patch_4">
    <path d="M 1036.8 768.96 
L 1036.8 103.68 
" style="fill:none;stroke:#000000;stroke-linecap:square;stroke-linejoin:miter;stroke-width:0.8;"/>
   </g>
   <g id="patch_5">
    <path d="M 144 768.96 
L 1036.8 768.96 
" style="fill:none;stroke:#000000;stroke-linecap:square;stroke-linejoin:miter;stroke-width:0.8;"/>
   </g>
   <g id="patch_6">
    <path d="M 144 103.68 
L 1036.8 103.68 
" style="fill:none;stroke:#000000;stroke-linecap:square;stroke-linejoin:miter;stroke-width:0.8;"/>
   </g>
  </g>
 </g>
 <defs>
  <clipPath id="p86b3962ded">
   <rect height="665.28" width="892.8" x="144" y="103.68"/>
  </clipPath>
 </defs>
</svg>
