<?xml version="1.0" encoding="utf-8" standalone="no"?>
<!DOCTYPE svg PUBLIC "-//W3C//DTD SVG 1.1//EN"
  "http://www.w3.org/Graphics/SVG/1.1/DTD/svg11.dtd">
<!-- Created with matplotlib (http://matplotlib.org/) -->
<svg height="864pt" version="1.1" viewBox="0 0 1152 864" width="1152pt" xmlns="http://www.w3.org/2000/svg" xmlns:xlink="http://www.w3.org/1999/xlink">
 <defs>
  <style type="text/css">
*{stroke-linecap:butt;stroke-linejoin:round;}
  </style>
 </defs>
 <g id="figure_1">
  <g id="patch_1">
   <path d="M 0 864 
L 1152 864 
L 1152 0 
L 0 0 
z
" style="fill:#ffffff;"/>
  </g>
  <g id="axes_1">
   <g id="patch_2">
    <path d="M 144 768.96 
L 1036.8 768.96 
L 1036.8 103.68 
L 144 103.68 
z
" style="fill:#ffffff;"/>
   </g>
   <g id="matplotlib.axis_1">
    <g id="xtick_1">
     <g id="line2d_1">
      <defs>
       <path d="M 0 0 
L 0 3.5 
" id="m4a3fe8923a" style="stroke:#000000;stroke-width:0.8;"/>
      </defs>
      <g>
       <use style="stroke:#000000;stroke-width:0.8;" x="144" xlink:href="#m4a3fe8923a" y="768.96"/>
      </g>
     </g>
     <g id="text_1">
      <!-- −4000 -->
      <defs>
       <path d="M 10.59375 35.5 
L 73.1875 35.5 
L 73.1875 27.203125 
L 10.59375 27.203125 
z
" id="DejaVuSans-2212"/>
       <path d="M 37.796875 64.3125 
L 12.890625 25.390625 
L 37.796875 25.390625 
z
M 35.203125 72.90625 
L 47.609375 72.90625 
L 47.609375 25.390625 
L 58.015625 25.390625 
L 58.015625 17.1875 
L 47.609375 17.1875 
L 47.609375 0 
L 37.796875 0 
L 37.796875 17.1875 
L 4.890625 17.1875 
L 4.890625 26.703125 
z
" id="DejaVuSans-34"/>
       <path d="M 31.78125 66.40625 
Q 24.171875 66.40625 20.328125 58.90625 
Q 16.5 51.421875 16.5 36.375 
Q 16.5 21.390625 20.328125 13.890625 
Q 24.171875 6.390625 31.78125 6.390625 
Q 39.453125 6.390625 43.28125 13.890625 
Q 47.125 21.390625 47.125 36.375 
Q 47.125 51.421875 43.28125 58.90625 
Q 39.453125 66.40625 31.78125 66.40625 
z
M 31.78125 74.21875 
Q 44.046875 74.21875 50.515625 64.515625 
Q 56.984375 54.828125 56.984375 36.375 
Q 56.984375 17.96875 50.515625 8.265625 
Q 44.046875 -1.421875 31.78125 -1.421875 
Q 19.53125 -1.421875 13.0625 8.265625 
Q 6.59375 17.96875 6.59375 36.375 
Q 6.59375 54.828125 13.0625 64.515625 
Q 19.53125 74.21875 31.78125 74.21875 
z
" id="DejaVuSans-30"/>
      </defs>
      <g transform="translate(127.085156 783.558437)scale(0.1 -0.1)">
       <use xlink:href="#DejaVuSans-2212"/>
       <use x="83.789062" xlink:href="#DejaVuSans-34"/>
       <use x="147.412109" xlink:href="#DejaVuSans-30"/>
       <use x="211.035156" xlink:href="#DejaVuSans-30"/>
       <use x="274.658203" xlink:href="#DejaVuSans-30"/>
      </g>
     </g>
    </g>
    <g id="xtick_2">
     <g id="line2d_2">
      <g>
       <use style="stroke:#000000;stroke-width:0.8;" x="255.6" xlink:href="#m4a3fe8923a" y="768.96"/>
      </g>
     </g>
     <g id="text_2">
      <!-- −3000 -->
      <defs>
       <path d="M 40.578125 39.3125 
Q 47.65625 37.796875 51.625 33 
Q 55.609375 28.21875 55.609375 21.1875 
Q 55.609375 10.40625 48.1875 4.484375 
Q 40.765625 -1.421875 27.09375 -1.421875 
Q 22.515625 -1.421875 17.65625 -0.515625 
Q 12.796875 0.390625 7.625 2.203125 
L 7.625 11.71875 
Q 11.71875 9.328125 16.59375 8.109375 
Q 21.484375 6.890625 26.8125 6.890625 
Q 36.078125 6.890625 40.9375 10.546875 
Q 45.796875 14.203125 45.796875 21.1875 
Q 45.796875 27.640625 41.28125 31.265625 
Q 36.765625 34.90625 28.71875 34.90625 
L 20.21875 34.90625 
L 20.21875 43.015625 
L 29.109375 43.015625 
Q 36.375 43.015625 40.234375 45.921875 
Q 44.09375 48.828125 44.09375 54.296875 
Q 44.09375 59.90625 40.109375 62.90625 
Q 36.140625 65.921875 28.71875 65.921875 
Q 24.65625 65.921875 20.015625 65.03125 
Q 15.375 64.15625 9.8125 62.3125 
L 9.8125 71.09375 
Q 15.4375 72.65625 20.34375 73.4375 
Q 25.25 74.21875 29.59375 74.21875 
Q 40.828125 74.21875 47.359375 69.109375 
Q 53.90625 64.015625 53.90625 55.328125 
Q 53.90625 49.265625 50.4375 45.09375 
Q 46.96875 40.921875 40.578125 39.3125 
z
" id="DejaVuSans-33"/>
      </defs>
      <g transform="translate(238.685156 783.558437)scale(0.1 -0.1)">
       <use xlink:href="#DejaVuSans-2212"/>
       <use x="83.789062" xlink:href="#DejaVuSans-33"/>
       <use x="147.412109" xlink:href="#DejaVuSans-30"/>
       <use x="211.035156" xlink:href="#DejaVuSans-30"/>
       <use x="274.658203" xlink:href="#DejaVuSans-30"/>
      </g>
     </g>
    </g>
    <g id="xtick_3">
     <g id="line2d_3">
      <g>
       <use style="stroke:#000000;stroke-width:0.8;" x="367.2" xlink:href="#m4a3fe8923a" y="768.96"/>
      </g>
     </g>
     <g id="text_3">
      <!-- −2000 -->
      <defs>
       <path d="M 19.1875 8.296875 
L 53.609375 8.296875 
L 53.609375 0 
L 7.328125 0 
L 7.328125 8.296875 
Q 12.9375 14.109375 22.625 23.890625 
Q 32.328125 33.6875 34.8125 36.53125 
Q 39.546875 41.84375 41.421875 45.53125 
Q 43.3125 49.21875 43.3125 52.78125 
Q 43.3125 58.59375 39.234375 62.25 
Q 35.15625 65.921875 28.609375 65.921875 
Q 23.96875 65.921875 18.8125 64.3125 
Q 13.671875 62.703125 7.8125 59.421875 
L 7.8125 69.390625 
Q 13.765625 71.78125 18.9375 73 
Q 24.125 74.21875 28.421875 74.21875 
Q 39.75 74.21875 46.484375 68.546875 
Q 53.21875 62.890625 53.21875 53.421875 
Q 53.21875 48.921875 51.53125 44.890625 
Q 49.859375 40.875 45.40625 35.40625 
Q 44.1875 33.984375 37.640625 27.21875 
Q 31.109375 20.453125 19.1875 8.296875 
z
" id="DejaVuSans-32"/>
      </defs>
      <g transform="translate(350.285156 783.558437)scale(0.1 -0.1)">
       <use xlink:href="#DejaVuSans-2212"/>
       <use x="83.789062" xlink:href="#DejaVuSans-32"/>
       <use x="147.412109" xlink:href="#DejaVuSans-30"/>
       <use x="211.035156" xlink:href="#DejaVuSans-30"/>
       <use x="274.658203" xlink:href="#DejaVuSans-30"/>
      </g>
     </g>
    </g>
    <g id="xtick_4">
     <g id="line2d_4">
      <g>
       <use style="stroke:#000000;stroke-width:0.8;" x="478.8" xlink:href="#m4a3fe8923a" y="768.96"/>
      </g>
     </g>
     <g id="text_4">
      <!-- −1000 -->
      <defs>
       <path d="M 12.40625 8.296875 
L 28.515625 8.296875 
L 28.515625 63.921875 
L 10.984375 60.40625 
L 10.984375 69.390625 
L 28.421875 72.90625 
L 38.28125 72.90625 
L 38.28125 8.296875 
L 54.390625 8.296875 
L 54.390625 0 
L 12.40625 0 
z
" id="DejaVuSans-31"/>
      </defs>
      <g transform="translate(461.885156 783.558437)scale(0.1 -0.1)">
       <use xlink:href="#DejaVuSans-2212"/>
       <use x="83.789062" xlink:href="#DejaVuSans-31"/>
       <use x="147.412109" xlink:href="#DejaVuSans-30"/>
       <use x="211.035156" xlink:href="#DejaVuSans-30"/>
       <use x="274.658203" xlink:href="#DejaVuSans-30"/>
      </g>
     </g>
    </g>
    <g id="xtick_5">
     <g id="line2d_5">
      <g>
       <use style="stroke:#000000;stroke-width:0.8;" x="590.4" xlink:href="#m4a3fe8923a" y="768.96"/>
      </g>
     </g>
     <g id="text_5">
      <!-- 0 -->
      <g transform="translate(587.21875 783.558437)scale(0.1 -0.1)">
       <use xlink:href="#DejaVuSans-30"/>
      </g>
     </g>
    </g>
    <g id="xtick_6">
     <g id="line2d_6">
      <g>
       <use style="stroke:#000000;stroke-width:0.8;" x="702" xlink:href="#m4a3fe8923a" y="768.96"/>
      </g>
     </g>
     <g id="text_6">
      <!-- 1000 -->
      <g transform="translate(689.275 783.558437)scale(0.1 -0.1)">
       <use xlink:href="#DejaVuSans-31"/>
       <use x="63.623047" xlink:href="#DejaVuSans-30"/>
       <use x="127.246094" xlink:href="#DejaVuSans-30"/>
       <use x="190.869141" xlink:href="#DejaVuSans-30"/>
      </g>
     </g>
    </g>
    <g id="xtick_7">
     <g id="line2d_7">
      <g>
       <use style="stroke:#000000;stroke-width:0.8;" x="813.6" xlink:href="#m4a3fe8923a" y="768.96"/>
      </g>
     </g>
     <g id="text_7">
      <!-- 2000 -->
      <g transform="translate(800.875 783.558437)scale(0.1 -0.1)">
       <use xlink:href="#DejaVuSans-32"/>
       <use x="63.623047" xlink:href="#DejaVuSans-30"/>
       <use x="127.246094" xlink:href="#DejaVuSans-30"/>
       <use x="190.869141" xlink:href="#DejaVuSans-30"/>
      </g>
     </g>
    </g>
    <g id="xtick_8">
     <g id="line2d_8">
      <g>
       <use style="stroke:#000000;stroke-width:0.8;" x="925.2" xlink:href="#m4a3fe8923a" y="768.96"/>
      </g>
     </g>
     <g id="text_8">
      <!-- 3000 -->
      <g transform="translate(912.475 783.558437)scale(0.1 -0.1)">
       <use xlink:href="#DejaVuSans-33"/>
       <use x="63.623047" xlink:href="#DejaVuSans-30"/>
       <use x="127.246094" xlink:href="#DejaVuSans-30"/>
       <use x="190.869141" xlink:href="#DejaVuSans-30"/>
      </g>
     </g>
    </g>
    <g id="xtick_9">
     <g id="line2d_9">
      <g>
       <use style="stroke:#000000;stroke-width:0.8;" x="1036.8" xlink:href="#m4a3fe8923a" y="768.96"/>
      </g>
     </g>
     <g id="text_9">
      <!-- 4000 -->
      <g transform="translate(1024.075 783.558437)scale(0.1 -0.1)">
       <use xlink:href="#DejaVuSans-34"/>
       <use x="63.623047" xlink:href="#DejaVuSans-30"/>
       <use x="127.246094" xlink:href="#DejaVuSans-30"/>
       <use x="190.869141" xlink:href="#DejaVuSans-30"/>
      </g>
     </g>
    </g>
   </g>
   <g id="matplotlib.axis_2">
    <g id="ytick_1">
     <g id="line2d_10">
      <defs>
       <path d="M 0 0 
L -3.5 0 
" id="md327223082" style="stroke:#000000;stroke-width:0.8;"/>
      </defs>
      <g>
       <use style="stroke:#000000;stroke-width:0.8;" x="144" xlink:href="#md327223082" y="768.96"/>
      </g>
     </g>
     <g id="text_10">
      <!-- −4000 -->
      <g transform="translate(103.170312 772.759219)scale(0.1 -0.1)">
       <use xlink:href="#DejaVuSans-2212"/>
       <use x="83.789062" xlink:href="#DejaVuSans-34"/>
       <use x="147.412109" xlink:href="#DejaVuSans-30"/>
       <use x="211.035156" xlink:href="#DejaVuSans-30"/>
       <use x="274.658203" xlink:href="#DejaVuSans-30"/>
      </g>
     </g>
    </g>
    <g id="ytick_2">
     <g id="line2d_11">
      <g>
       <use style="stroke:#000000;stroke-width:0.8;" x="144" xlink:href="#md327223082" y="685.8"/>
      </g>
     </g>
     <g id="text_11">
      <!-- −3000 -->
      <g transform="translate(103.170312 689.599219)scale(0.1 -0.1)">
       <use xlink:href="#DejaVuSans-2212"/>
       <use x="83.789062" xlink:href="#DejaVuSans-33"/>
       <use x="147.412109" xlink:href="#DejaVuSans-30"/>
       <use x="211.035156" xlink:href="#DejaVuSans-30"/>
       <use x="274.658203" xlink:href="#DejaVuSans-30"/>
      </g>
     </g>
    </g>
    <g id="ytick_3">
     <g id="line2d_12">
      <g>
       <use style="stroke:#000000;stroke-width:0.8;" x="144" xlink:href="#md327223082" y="602.64"/>
      </g>
     </g>
     <g id="text_12">
      <!-- −2000 -->
      <g transform="translate(103.170312 606.439219)scale(0.1 -0.1)">
       <use xlink:href="#DejaVuSans-2212"/>
       <use x="83.789062" xlink:href="#DejaVuSans-32"/>
       <use x="147.412109" xlink:href="#DejaVuSans-30"/>
       <use x="211.035156" xlink:href="#DejaVuSans-30"/>
       <use x="274.658203" xlink:href="#DejaVuSans-30"/>
      </g>
     </g>
    </g>
    <g id="ytick_4">
     <g id="line2d_13">
      <g>
       <use style="stroke:#000000;stroke-width:0.8;" x="144" xlink:href="#md327223082" y="519.48"/>
      </g>
     </g>
     <g id="text_13">
      <!-- −1000 -->
      <g transform="translate(103.170312 523.279219)scale(0.1 -0.1)">
       <use xlink:href="#DejaVuSans-2212"/>
       <use x="83.789062" xlink:href="#DejaVuSans-31"/>
       <use x="147.412109" xlink:href="#DejaVuSans-30"/>
       <use x="211.035156" xlink:href="#DejaVuSans-30"/>
       <use x="274.658203" xlink:href="#DejaVuSans-30"/>
      </g>
     </g>
    </g>
    <g id="ytick_5">
     <g id="line2d_14">
      <g>
       <use style="stroke:#000000;stroke-width:0.8;" x="144" xlink:href="#md327223082" y="436.32"/>
      </g>
     </g>
     <g id="text_14">
      <!-- 0 -->
      <g transform="translate(130.6375 440.119219)scale(0.1 -0.1)">
       <use xlink:href="#DejaVuSans-30"/>
      </g>
     </g>
    </g>
    <g id="ytick_6">
     <g id="line2d_15">
      <g>
       <use style="stroke:#000000;stroke-width:0.8;" x="144" xlink:href="#md327223082" y="353.16"/>
      </g>
     </g>
     <g id="text_15">
      <!-- 1000 -->
      <g transform="translate(111.55 356.959219)scale(0.1 -0.1)">
       <use xlink:href="#DejaVuSans-31"/>
       <use x="63.623047" xlink:href="#DejaVuSans-30"/>
       <use x="127.246094" xlink:href="#DejaVuSans-30"/>
       <use x="190.869141" xlink:href="#DejaVuSans-30"/>
      </g>
     </g>
    </g>
    <g id="ytick_7">
     <g id="line2d_16">
      <g>
       <use style="stroke:#000000;stroke-width:0.8;" x="144" xlink:href="#md327223082" y="270"/>
      </g>
     </g>
     <g id="text_16">
      <!-- 2000 -->
      <g transform="translate(111.55 273.799219)scale(0.1 -0.1)">
       <use xlink:href="#DejaVuSans-32"/>
       <use x="63.623047" xlink:href="#DejaVuSans-30"/>
       <use x="127.246094" xlink:href="#DejaVuSans-30"/>
       <use x="190.869141" xlink:href="#DejaVuSans-30"/>
      </g>
     </g>
    </g>
    <g id="ytick_8">
     <g id="line2d_17">
      <g>
       <use style="stroke:#000000;stroke-width:0.8;" x="144" xlink:href="#md327223082" y="186.84"/>
      </g>
     </g>
     <g id="text_17">
      <!-- 3000 -->
      <g transform="translate(111.55 190.639219)scale(0.1 -0.1)">
       <use xlink:href="#DejaVuSans-33"/>
       <use x="63.623047" xlink:href="#DejaVuSans-30"/>
       <use x="127.246094" xlink:href="#DejaVuSans-30"/>
       <use x="190.869141" xlink:href="#DejaVuSans-30"/>
      </g>
     </g>
    </g>
    <g id="ytick_9">
     <g id="line2d_18">
      <g>
       <use style="stroke:#000000;stroke-width:0.8;" x="144" xlink:href="#md327223082" y="103.68"/>
      </g>
     </g>
     <g id="text_18">
      <!-- 4000 -->
      <g transform="translate(111.55 107.479219)scale(0.1 -0.1)">
       <use xlink:href="#DejaVuSans-34"/>
       <use x="63.623047" xlink:href="#DejaVuSans-30"/>
       <use x="127.246094" xlink:href="#DejaVuSans-30"/>
       <use x="190.869141" xlink:href="#DejaVuSans-30"/>
      </g>
     </g>
    </g>
   </g>
   <g id="line2d_19">
    <path clip-path="url(#pf333744209)" d="M 590.4 768.96 
L 590.4 103.68 
" style="fill:none;stroke:#1f77b4;stroke-linecap:square;stroke-width:1.5;"/>
   </g>
   <g id="line2d_20">
    <path clip-path="url(#pf333744209)" d="M 144 436.32 
L 1036.8 436.32 
" style="fill:none;stroke:#1f77b4;stroke-linecap:square;stroke-width:1.5;"/>
   </g>
   <g id="line2d_21">
    <defs>
     <path d="M 0 3 
C 0.795609 3 1.55874 2.683901 2.12132 2.12132 
C 2.683901 1.55874 3 0.795609 3 0 
C 3 -0.795609 2.683901 -1.55874 2.12132 -2.12132 
C 1.55874 -2.683901 0.795609 -3 0 -3 
C -0.795609 -3 -1.55874 -2.683901 -2.12132 -2.12132 
C -2.683901 -1.55874 -3 -0.795609 -3 0 
C -3 0.795609 -2.683901 1.55874 -2.12132 2.12132 
C -1.55874 2.683901 -0.795609 3 0 3 
z
" id="mb9b7725c00" style="stroke:#008000;"/>
    </defs>
    <g clip-path="url(#pf333744209)">
     <use style="fill:#008000;stroke:#008000;" x="1354.221876" xlink:href="#mb9b7725c00" y="498.497233"/>
    </g>
   </g>
   <g id="line2d_22">
    <g clip-path="url(#pf333744209)">
     <use style="fill:#008000;stroke:#008000;" x="1262.533263" xlink:href="#mb9b7725c00" y="338.823318"/>
    </g>
   </g>
   <g id="line2d_23">
    <g clip-path="url(#pf333744209)">
     <use style="fill:#008000;stroke:#008000;" x="645.93244" xlink:href="#mb9b7725c00" y="394.291089"/>
    </g>
   </g>
   <g id="line2d_24">
    <g clip-path="url(#pf333744209)">
     <use style="fill:#008000;stroke:#008000;" x="645.93244" xlink:href="#mb9b7725c00" y="394.291089"/>
    </g>
   </g>
   <g id="line2d_25">
    <g clip-path="url(#pf333744209)">
     <use style="fill:#008000;stroke:#008000;" x="571.354442" xlink:href="#mb9b7725c00" y="225.945979"/>
    </g>
   </g>
   <g id="line2d_26">
    <g clip-path="url(#pf333744209)">
     <use style="fill:#008000;stroke:#008000;" x="575.247288" xlink:href="#mb9b7725c00" y="392.952967"/>
    </g>
   </g>
   <g id="line2d_27">
    <g clip-path="url(#pf333744209)">
     <use style="fill:#008000;stroke:#008000;" x="575.247288" xlink:href="#mb9b7725c00" y="392.952967"/>
    </g>
   </g>
   <g id="line2d_28">
    <g clip-path="url(#pf333744209)">
     <use style="fill:#008000;stroke:#008000;" x="456.7026" xlink:href="#mb9b7725c00" y="248.580131"/>
    </g>
   </g>
   <g id="line2d_29">
    <g clip-path="url(#pf333744209)">
     <use style="fill:#008000;stroke:#008000;" x="410.938712" xlink:href="#mb9b7725c00" y="506.398357"/>
    </g>
   </g>
   <g id="line2d_30">
    <g clip-path="url(#pf333744209)">
     <use style="fill:#008000;stroke:#008000;" x="579.004004" xlink:href="#mb9b7725c00" y="630.208778"/>
    </g>
   </g>
   <g id="line2d_31">
    <g clip-path="url(#pf333744209)">
     <use style="fill:#008000;stroke:#008000;" x="610.882956" xlink:href="#mb9b7725c00" y="519.431064"/>
    </g>
   </g>
   <g id="line2d_32">
    <g clip-path="url(#pf333744209)">
     <use style="fill:#008000;stroke:#008000;" x="610.882956" xlink:href="#mb9b7725c00" y="519.431064"/>
    </g>
   </g>
   <g id="line2d_33">
    <g clip-path="url(#pf333744209)">
     <use style="fill:#008000;stroke:#008000;" x="691.75019" xlink:href="#mb9b7725c00" y="597.416895"/>
    </g>
   </g>
   <g id="line2d_34">
    <g clip-path="url(#pf333744209)">
     <use style="fill:#008000;stroke:#008000;" x="691.75019" xlink:href="#mb9b7725c00" y="597.416895"/>
    </g>
   </g>
   <g id="line2d_35">
    <g clip-path="url(#pf333744209)">
     <use style="fill:#008000;stroke:#008000;" x="879.696569" xlink:href="#mb9b7725c00" y="564.333549"/>
    </g>
   </g>
   <g id="line2d_36">
    <g clip-path="url(#pf333744209)">
     <use style="fill:#008000;stroke:#008000;" x="1082.55713" xlink:href="#mb9b7725c00" y="513.9587"/>
    </g>
   </g>
   <g id="line2d_37">
    <defs>
     <path d="M 0 1.333333 
C 0.353604 1.333333 0.692773 1.192845 0.942809 0.942809 
C 1.192845 0.692773 1.333333 0.353604 1.333333 0 
C 1.333333 -0.353604 1.192845 -0.692773 0.942809 -0.942809 
C 0.692773 -1.192845 0.353604 -1.333333 0 -1.333333 
C -0.353604 -1.333333 -0.692773 -1.192845 -0.942809 -0.942809 
C -1.192845 -0.692773 -1.333333 -0.353604 -1.333333 0 
C -1.333333 0.353604 -1.192845 0.692773 -0.942809 0.942809 
C -0.692773 1.192845 -0.353604 1.333333 0 1.333333 
z
" id="mb5ed6d2bd8" style="stroke:#ff0000;"/>
    </defs>
    <g clip-path="url(#pf333744209)">
     <use style="fill:#ff0000;stroke:#ff0000;" x="1354.221876" xlink:href="#mb5ed6d2bd8" y="498.497233"/>
     <use style="fill:#ff0000;stroke:#ff0000;" x="1262.533263" xlink:href="#mb5ed6d2bd8" y="338.823318"/>
     <use style="fill:#ff0000;stroke:#ff0000;" x="1353.440352" xlink:href="#mb5ed6d2bd8" y="290.265266"/>
     <use style="fill:#ff0000;stroke:#ff0000;" x="1318.989149" xlink:href="#mb5ed6d2bd8" y="261.551197"/>
     <use style="fill:#ff0000;stroke:#ff0000;" x="650.047374" xlink:href="#mb5ed6d2bd8" y="398.56789"/>
     <use style="fill:#ff0000;stroke:#ff0000;" x="641.264397" xlink:href="#mb5ed6d2bd8" y="390.264263"/>
     <use style="fill:#ff0000;stroke:#ff0000;" x="756.964924" xlink:href="#mb5ed6d2bd8" y="195.814112"/>
     <use style="fill:#ff0000;stroke:#ff0000;" x="731.015604" xlink:href="#mb5ed6d2bd8" y="199.414193"/>
     <use style="fill:#ff0000;stroke:#ff0000;" x="706.204857" xlink:href="#mb5ed6d2bd8" y="204.168056"/>
     <use style="fill:#ff0000;stroke:#ff0000;" x="571.354442" xlink:href="#mb5ed6d2bd8" y="225.945979"/>
     <use style="fill:#ff0000;stroke:#ff0000;" x="580.275594" xlink:href="#mb5ed6d2bd8" y="390.154885"/>
     <use style="fill:#ff0000;stroke:#ff0000;" x="570.821631" xlink:href="#mb5ed6d2bd8" y="396.031947"/>
     <use style="fill:#ff0000;stroke:#ff0000;" x="456.7026" xlink:href="#mb5ed6d2bd8" y="248.580131"/>
     <use style="fill:#ff0000;stroke:#ff0000;" x="394.056078" xlink:href="#mb5ed6d2bd8" y="290.966572"/>
     <use style="fill:#ff0000;stroke:#ff0000;" x="406.902993" xlink:href="#mb5ed6d2bd8" y="316.274744"/>
     <use style="fill:#ff0000;stroke:#ff0000;" x="435.043392" xlink:href="#mb5ed6d2bd8" y="347.037552"/>
     <use style="fill:#ff0000;stroke:#ff0000;" x="403.542054" xlink:href="#mb5ed6d2bd8" y="364.222259"/>
     <use style="fill:#ff0000;stroke:#ff0000;" x="454.465719" xlink:href="#mb5ed6d2bd8" y="392.112239"/>
     <use style="fill:#ff0000;stroke:#ff0000;" x="455.493766" xlink:href="#mb5ed6d2bd8" y="412.793682"/>
     <use style="fill:#ff0000;stroke:#ff0000;" x="432.021977" xlink:href="#mb5ed6d2bd8" y="415.775765"/>
     <use style="fill:#ff0000;stroke:#ff0000;" x="420.603126" xlink:href="#mb5ed6d2bd8" y="437.010099"/>
     <use style="fill:#ff0000;stroke:#ff0000;" x="395.787014" xlink:href="#mb5ed6d2bd8" y="445.388179"/>
     <use style="fill:#ff0000;stroke:#ff0000;" x="410.938712" xlink:href="#mb5ed6d2bd8" y="506.398357"/>
     <use style="fill:#ff0000;stroke:#ff0000;" x="468.905144" xlink:href="#mb5ed6d2bd8" y="491.629194"/>
     <use style="fill:#ff0000;stroke:#ff0000;" x="433.1827" xlink:href="#mb5ed6d2bd8" y="517.071925"/>
     <use style="fill:#ff0000;stroke:#ff0000;" x="457.195583" xlink:href="#mb5ed6d2bd8" y="514.350089"/>
     <use style="fill:#ff0000;stroke:#ff0000;" x="470.123316" xlink:href="#mb5ed6d2bd8" y="537.123612"/>
     <use style="fill:#ff0000;stroke:#ff0000;" x="455.599867" xlink:href="#mb5ed6d2bd8" y="562.883379"/>
     <use style="fill:#ff0000;stroke:#ff0000;" x="452.930592" xlink:href="#mb5ed6d2bd8" y="582.530148"/>
     <use style="fill:#ff0000;stroke:#ff0000;" x="471.421778" xlink:href="#mb5ed6d2bd8" y="601.753059"/>
     <use style="fill:#ff0000;stroke:#ff0000;" x="474.724668" xlink:href="#mb5ed6d2bd8" y="622.626689"/>
     <use style="fill:#ff0000;stroke:#ff0000;" x="475.937983" xlink:href="#mb5ed6d2bd8" y="653.542623"/>
     <use style="fill:#ff0000;stroke:#ff0000;" x="551.753707" xlink:href="#mb5ed6d2bd8" y="649.225085"/>
     <use style="fill:#ff0000;stroke:#ff0000;" x="571.861269" xlink:href="#mb5ed6d2bd8" y="624.295214"/>
     <use style="fill:#ff0000;stroke:#ff0000;" x="586.600359" xlink:href="#mb5ed6d2bd8" y="635.967084"/>
     <use style="fill:#ff0000;stroke:#ff0000;" x="603.366761" xlink:href="#mb5ed6d2bd8" y="514.309937"/>
     <use style="fill:#ff0000;stroke:#ff0000;" x="619.240117" xlink:href="#mb5ed6d2bd8" y="524.144583"/>
     <use style="fill:#ff0000;stroke:#ff0000;" x="684.24895" xlink:href="#mb5ed6d2bd8" y="597.99729"/>
     <use style="fill:#ff0000;stroke:#ff0000;" x="699.288795" xlink:href="#mb5ed6d2bd8" y="596.645024"/>
     <use style="fill:#ff0000;stroke:#ff0000;" x="765.969815" xlink:href="#mb5ed6d2bd8" y="589.923324"/>
     <use style="fill:#ff0000;stroke:#ff0000;" x="803.704053" xlink:href="#mb5ed6d2bd8" y="583.328505"/>
     <use style="fill:#ff0000;stroke:#ff0000;" x="833.954769" xlink:href="#mb5ed6d2bd8" y="585.428741"/>
     <use style="fill:#ff0000;stroke:#ff0000;" x="838.846437" xlink:href="#mb5ed6d2bd8" y="569.903299"/>
     <use style="fill:#ff0000;stroke:#ff0000;" x="874.945828" xlink:href="#mb5ed6d2bd8" y="570.912386"/>
     <use style="fill:#ff0000;stroke:#ff0000;" x="884.174352" xlink:href="#mb5ed6d2bd8" y="557.663393"/>
     <use style="fill:#ff0000;stroke:#ff0000;" x="1082.55713" xlink:href="#mb5ed6d2bd8" y="513.9587"/>
    </g>
   </g>
   <g id="line2d_38">
    <defs>
     <path d="M -0.5 0.5 
L 0.5 0.5 
L 0.5 -0.5 
L -0.5 -0.5 
z
" id="m1b4ebdb042" style="stroke:#1f77b4;stroke-linejoin:miter;"/>
    </defs>
    <g clip-path="url(#pf333744209)">
     <use style="fill:#1f77b4;stroke:#1f77b4;stroke-linejoin:miter;" x="1354.221876" xlink:href="#m1b4ebdb042" y="498.497233"/>
     <use style="fill:#1f77b4;stroke:#1f77b4;stroke-linejoin:miter;" x="1262.533263" xlink:href="#m1b4ebdb042" y="338.823318"/>
     <use style="fill:#1f77b4;stroke:#1f77b4;stroke-linejoin:miter;" x="1353.440352" xlink:href="#m1b4ebdb042" y="290.265266"/>
     <use style="fill:#1f77b4;stroke:#1f77b4;stroke-linejoin:miter;" x="1318.989149" xlink:href="#m1b4ebdb042" y="261.551197"/>
     <use style="fill:#1f77b4;stroke:#1f77b4;stroke-linejoin:miter;" x="650.047374" xlink:href="#m1b4ebdb042" y="398.56789"/>
     <use style="fill:#1f77b4;stroke:#1f77b4;stroke-linejoin:miter;" x="646.303542" xlink:href="#m1b4ebdb042" y="396.376585"/>
     <use style="fill:#1f77b4;stroke:#1f77b4;stroke-linejoin:miter;" x="644.315407" xlink:href="#m1b4ebdb042" y="393.024303"/>
     <use style="fill:#1f77b4;stroke:#1f77b4;stroke-linejoin:miter;" x="641.264397" xlink:href="#m1b4ebdb042" y="390.264263"/>
     <use style="fill:#1f77b4;stroke:#1f77b4;stroke-linejoin:miter;" x="756.964924" xlink:href="#m1b4ebdb042" y="195.814112"/>
     <use style="fill:#1f77b4;stroke:#1f77b4;stroke-linejoin:miter;" x="731.015604" xlink:href="#m1b4ebdb042" y="199.414193"/>
     <use style="fill:#1f77b4;stroke:#1f77b4;stroke-linejoin:miter;" x="706.204857" xlink:href="#m1b4ebdb042" y="204.168056"/>
     <use style="fill:#1f77b4;stroke:#1f77b4;stroke-linejoin:miter;" x="683.866916" xlink:href="#m1b4ebdb042" y="207.843518"/>
     <use style="fill:#1f77b4;stroke:#1f77b4;stroke-linejoin:miter;" x="663.090799" xlink:href="#m1b4ebdb042" y="210.971582"/>
     <use style="fill:#1f77b4;stroke:#1f77b4;stroke-linejoin:miter;" x="643.321733" xlink:href="#m1b4ebdb042" y="213.736721"/>
     <use style="fill:#1f77b4;stroke:#1f77b4;stroke-linejoin:miter;" x="623.877355" xlink:href="#m1b4ebdb042" y="216.839376"/>
     <use style="fill:#1f77b4;stroke:#1f77b4;stroke-linejoin:miter;" x="606.000251" xlink:href="#m1b4ebdb042" y="219.042608"/>
     <use style="fill:#1f77b4;stroke:#1f77b4;stroke-linejoin:miter;" x="588.379659" xlink:href="#m1b4ebdb042" y="223.997067"/>
     <use style="fill:#1f77b4;stroke:#1f77b4;stroke-linejoin:miter;" x="571.354442" xlink:href="#m1b4ebdb042" y="225.945979"/>
     <use style="fill:#1f77b4;stroke:#1f77b4;stroke-linejoin:miter;" x="580.275594" xlink:href="#m1b4ebdb042" y="390.154885"/>
     <use style="fill:#1f77b4;stroke:#1f77b4;stroke-linejoin:miter;" x="577.404036" xlink:href="#m1b4ebdb042" y="394.111105"/>
     <use style="fill:#1f77b4;stroke:#1f77b4;stroke-linejoin:miter;" x="574.447784" xlink:href="#m1b4ebdb042" y="396.150024"/>
     <use style="fill:#1f77b4;stroke:#1f77b4;stroke-linejoin:miter;" x="570.821631" xlink:href="#m1b4ebdb042" y="396.031947"/>
     <use style="fill:#1f77b4;stroke:#1f77b4;stroke-linejoin:miter;" x="456.7026" xlink:href="#m1b4ebdb042" y="248.580131"/>
     <use style="fill:#1f77b4;stroke:#1f77b4;stroke-linejoin:miter;" x="438.663851" xlink:href="#m1b4ebdb042" y="251.243965"/>
     <use style="fill:#1f77b4;stroke:#1f77b4;stroke-linejoin:miter;" x="418.81756" xlink:href="#m1b4ebdb042" y="252.657882"/>
     <use style="fill:#1f77b4;stroke:#1f77b4;stroke-linejoin:miter;" x="408.059123" xlink:href="#m1b4ebdb042" y="264.35163"/>
     <use style="fill:#1f77b4;stroke:#1f77b4;stroke-linejoin:miter;" x="394.939826" xlink:href="#m1b4ebdb042" y="273.133684"/>
     <use style="fill:#1f77b4;stroke:#1f77b4;stroke-linejoin:miter;" x="394.056078" xlink:href="#m1b4ebdb042" y="290.966572"/>
     <use style="fill:#1f77b4;stroke:#1f77b4;stroke-linejoin:miter;" x="406.902993" xlink:href="#m1b4ebdb042" y="316.274744"/>
     <use style="fill:#1f77b4;stroke:#1f77b4;stroke-linejoin:miter;" x="435.043392" xlink:href="#m1b4ebdb042" y="347.037552"/>
     <use style="fill:#1f77b4;stroke:#1f77b4;stroke-linejoin:miter;" x="417.020982" xlink:href="#m1b4ebdb042" y="348.354029"/>
     <use style="fill:#1f77b4;stroke:#1f77b4;stroke-linejoin:miter;" x="412.847517" xlink:href="#m1b4ebdb042" y="357.3622"/>
     <use style="fill:#1f77b4;stroke:#1f77b4;stroke-linejoin:miter;" x="403.542054" xlink:href="#m1b4ebdb042" y="364.222259"/>
     <use style="fill:#1f77b4;stroke:#1f77b4;stroke-linejoin:miter;" x="454.465719" xlink:href="#m1b4ebdb042" y="392.112239"/>
     <use style="fill:#1f77b4;stroke:#1f77b4;stroke-linejoin:miter;" x="455.971488" xlink:href="#m1b4ebdb042" y="399.706007"/>
     <use style="fill:#1f77b4;stroke:#1f77b4;stroke-linejoin:miter;" x="457.463475" xlink:href="#m1b4ebdb042" y="406.859766"/>
     <use style="fill:#1f77b4;stroke:#1f77b4;stroke-linejoin:miter;" x="455.493766" xlink:href="#m1b4ebdb042" y="412.793682"/>
     <use style="fill:#1f77b4;stroke:#1f77b4;stroke-linejoin:miter;" x="432.021977" xlink:href="#m1b4ebdb042" y="415.775765"/>
     <use style="fill:#1f77b4;stroke:#1f77b4;stroke-linejoin:miter;" x="425.252722" xlink:href="#m1b4ebdb042" y="422.400906"/>
     <use style="fill:#1f77b4;stroke:#1f77b4;stroke-linejoin:miter;" x="419.18702" xlink:href="#m1b4ebdb042" y="429.668636"/>
     <use style="fill:#1f77b4;stroke:#1f77b4;stroke-linejoin:miter;" x="420.603126" xlink:href="#m1b4ebdb042" y="437.010099"/>
     <use style="fill:#1f77b4;stroke:#1f77b4;stroke-linejoin:miter;" x="395.787014" xlink:href="#m1b4ebdb042" y="445.388179"/>
     <use style="fill:#1f77b4;stroke:#1f77b4;stroke-linejoin:miter;" x="397.254512" xlink:href="#m1b4ebdb042" y="454.031554"/>
     <use style="fill:#1f77b4;stroke:#1f77b4;stroke-linejoin:miter;" x="398.212207" xlink:href="#m1b4ebdb042" y="462.660642"/>
     <use style="fill:#1f77b4;stroke:#1f77b4;stroke-linejoin:miter;" x="404.440665" xlink:href="#m1b4ebdb042" y="470.588472"/>
     <use style="fill:#1f77b4;stroke:#1f77b4;stroke-linejoin:miter;" x="403.559113" xlink:href="#m1b4ebdb042" y="479.675926"/>
     <use style="fill:#1f77b4;stroke:#1f77b4;stroke-linejoin:miter;" x="407.547712" xlink:href="#m1b4ebdb042" y="487.857227"/>
     <use style="fill:#1f77b4;stroke:#1f77b4;stroke-linejoin:miter;" x="408.975036" xlink:href="#m1b4ebdb042" y="497.219042"/>
     <use style="fill:#1f77b4;stroke:#1f77b4;stroke-linejoin:miter;" x="410.938712" xlink:href="#m1b4ebdb042" y="506.398357"/>
     <use style="fill:#1f77b4;stroke:#1f77b4;stroke-linejoin:miter;" x="468.905144" xlink:href="#m1b4ebdb042" y="491.629194"/>
     <use style="fill:#1f77b4;stroke:#1f77b4;stroke-linejoin:miter;" x="433.1827" xlink:href="#m1b4ebdb042" y="517.071925"/>
     <use style="fill:#1f77b4;stroke:#1f77b4;stroke-linejoin:miter;" x="457.195583" xlink:href="#m1b4ebdb042" y="514.350089"/>
     <use style="fill:#1f77b4;stroke:#1f77b4;stroke-linejoin:miter;" x="456.134685" xlink:href="#m1b4ebdb042" y="524.884809"/>
     <use style="fill:#1f77b4;stroke:#1f77b4;stroke-linejoin:miter;" x="458.024189" xlink:href="#m1b4ebdb042" y="534.639054"/>
     <use style="fill:#1f77b4;stroke:#1f77b4;stroke-linejoin:miter;" x="470.123316" xlink:href="#m1b4ebdb042" y="537.123612"/>
     <use style="fill:#1f77b4;stroke:#1f77b4;stroke-linejoin:miter;" x="455.599867" xlink:href="#m1b4ebdb042" y="562.883379"/>
     <use style="fill:#1f77b4;stroke:#1f77b4;stroke-linejoin:miter;" x="452.930592" xlink:href="#m1b4ebdb042" y="582.530148"/>
     <use style="fill:#1f77b4;stroke:#1f77b4;stroke-linejoin:miter;" x="460.065125" xlink:href="#m1b4ebdb042" y="594.032891"/>
     <use style="fill:#1f77b4;stroke:#1f77b4;stroke-linejoin:miter;" x="471.421778" xlink:href="#m1b4ebdb042" y="601.753059"/>
     <use style="fill:#1f77b4;stroke:#1f77b4;stroke-linejoin:miter;" x="474.724668" xlink:href="#m1b4ebdb042" y="622.626689"/>
     <use style="fill:#1f77b4;stroke:#1f77b4;stroke-linejoin:miter;" x="475.937983" xlink:href="#m1b4ebdb042" y="653.542623"/>
     <use style="fill:#1f77b4;stroke:#1f77b4;stroke-linejoin:miter;" x="513.747171" xlink:href="#m1b4ebdb042" y="655.70025"/>
     <use style="fill:#1f77b4;stroke:#1f77b4;stroke-linejoin:miter;" x="532.159732" xlink:href="#m1b4ebdb042" y="655.74914"/>
     <use style="fill:#1f77b4;stroke:#1f77b4;stroke-linejoin:miter;" x="551.753707" xlink:href="#m1b4ebdb042" y="649.225085"/>
     <use style="fill:#1f77b4;stroke:#1f77b4;stroke-linejoin:miter;" x="571.861269" xlink:href="#m1b4ebdb042" y="624.295214"/>
     <use style="fill:#1f77b4;stroke:#1f77b4;stroke-linejoin:miter;" x="586.600359" xlink:href="#m1b4ebdb042" y="635.967084"/>
     <use style="fill:#1f77b4;stroke:#1f77b4;stroke-linejoin:miter;" x="603.366761" xlink:href="#m1b4ebdb042" y="514.309937"/>
     <use style="fill:#1f77b4;stroke:#1f77b4;stroke-linejoin:miter;" x="609.765139" xlink:href="#m1b4ebdb042" y="514.415824"/>
     <use style="fill:#1f77b4;stroke:#1f77b4;stroke-linejoin:miter;" x="619.240117" xlink:href="#m1b4ebdb042" y="524.144583"/>
     <use style="fill:#1f77b4;stroke:#1f77b4;stroke-linejoin:miter;" x="684.24895" xlink:href="#m1b4ebdb042" y="597.99729"/>
     <use style="fill:#1f77b4;stroke:#1f77b4;stroke-linejoin:miter;" x="699.288795" xlink:href="#m1b4ebdb042" y="596.645024"/>
     <use style="fill:#1f77b4;stroke:#1f77b4;stroke-linejoin:miter;" x="765.969815" xlink:href="#m1b4ebdb042" y="589.923324"/>
     <use style="fill:#1f77b4;stroke:#1f77b4;stroke-linejoin:miter;" x="781.748362" xlink:href="#m1b4ebdb042" y="584.779585"/>
     <use style="fill:#1f77b4;stroke:#1f77b4;stroke-linejoin:miter;" x="803.704053" xlink:href="#m1b4ebdb042" y="583.328505"/>
     <use style="fill:#1f77b4;stroke:#1f77b4;stroke-linejoin:miter;" x="833.954769" xlink:href="#m1b4ebdb042" y="585.428741"/>
     <use style="fill:#1f77b4;stroke:#1f77b4;stroke-linejoin:miter;" x="838.846437" xlink:href="#m1b4ebdb042" y="569.903299"/>
     <use style="fill:#1f77b4;stroke:#1f77b4;stroke-linejoin:miter;" x="874.945828" xlink:href="#m1b4ebdb042" y="570.912386"/>
     <use style="fill:#1f77b4;stroke:#1f77b4;stroke-linejoin:miter;" x="884.174352" xlink:href="#m1b4ebdb042" y="557.663393"/>
     <use style="fill:#1f77b4;stroke:#1f77b4;stroke-linejoin:miter;" x="1082.55713" xlink:href="#m1b4ebdb042" y="513.9587"/>
    </g>
   </g>
   <g id="patch_3">
    <path d="M 144 768.96 
L 144 103.68 
" style="fill:none;stroke:#000000;stroke-linecap:square;stroke-linejoin:miter;stroke-width:0.8;"/>
   </g>
   <g id="patch_4">
    <path d="M 1036.8 768.96 
L 1036.8 103.68 
" style="fill:none;stroke:#000000;stroke-linecap:square;stroke-linejoin:miter;stroke-width:0.8;"/>
   </g>
   <g id="patch_5">
    <path d="M 144 768.96 
L 1036.8 768.96 
" style="fill:none;stroke:#000000;stroke-linecap:square;stroke-linejoin:miter;stroke-width:0.8;"/>
   </g>
   <g id="patch_6">
    <path d="M 144 103.68 
L 1036.8 103.68 
" style="fill:none;stroke:#000000;stroke-linecap:square;stroke-linejoin:miter;stroke-width:0.8;"/>
   </g>
  </g>
 </g>
 <defs>
  <clipPath id="pf333744209">
   <rect height="665.28" width="892.8" x="144" y="103.68"/>
  </clipPath>
 </defs>
</svg>
