<?xml version="1.0" encoding="utf-8" standalone="no"?>
<!DOCTYPE svg PUBLIC "-//W3C//DTD SVG 1.1//EN"
  "http://www.w3.org/Graphics/SVG/1.1/DTD/svg11.dtd">
<!-- Created with matplotlib (http://matplotlib.org/) -->
<svg height="864pt" version="1.1" viewBox="0 0 1152 864" width="1152pt" xmlns="http://www.w3.org/2000/svg" xmlns:xlink="http://www.w3.org/1999/xlink">
 <defs>
  <style type="text/css">
*{stroke-linecap:butt;stroke-linejoin:round;}
  </style>
 </defs>
 <g id="figure_1">
  <g id="patch_1">
   <path d="M 0 864 
L 1152 864 
L 1152 0 
L 0 0 
z
" style="fill:#ffffff;"/>
  </g>
  <g id="axes_1">
   <g id="patch_2">
    <path d="M 144 768.96 
L 1036.8 768.96 
L 1036.8 103.68 
L 144 103.68 
z
" style="fill:#ffffff;"/>
   </g>
   <g id="matplotlib.axis_1">
    <g id="xtick_1">
     <g id="line2d_1">
      <defs>
       <path d="M 0 0 
L 0 3.5 
" id="mdc21d66105" style="stroke:#000000;stroke-width:0.8;"/>
      </defs>
      <g>
       <use style="stroke:#000000;stroke-width:0.8;" x="144" xlink:href="#mdc21d66105" y="768.96"/>
      </g>
     </g>
     <g id="text_1">
      <!-- −4000 -->
      <defs>
       <path d="M 10.59375 35.5 
L 73.1875 35.5 
L 73.1875 27.203125 
L 10.59375 27.203125 
z
" id="DejaVuSans-2212"/>
       <path d="M 37.796875 64.3125 
L 12.890625 25.390625 
L 37.796875 25.390625 
z
M 35.203125 72.90625 
L 47.609375 72.90625 
L 47.609375 25.390625 
L 58.015625 25.390625 
L 58.015625 17.1875 
L 47.609375 17.1875 
L 47.609375 0 
L 37.796875 0 
L 37.796875 17.1875 
L 4.890625 17.1875 
L 4.890625 26.703125 
z
" id="DejaVuSans-34"/>
       <path d="M 31.78125 66.40625 
Q 24.171875 66.40625 20.328125 58.90625 
Q 16.5 51.421875 16.5 36.375 
Q 16.5 21.390625 20.328125 13.890625 
Q 24.171875 6.390625 31.78125 6.390625 
Q 39.453125 6.390625 43.28125 13.890625 
Q 47.125 21.390625 47.125 36.375 
Q 47.125 51.421875 43.28125 58.90625 
Q 39.453125 66.40625 31.78125 66.40625 
z
M 31.78125 74.21875 
Q 44.046875 74.21875 50.515625 64.515625 
Q 56.984375 54.828125 56.984375 36.375 
Q 56.984375 17.96875 50.515625 8.265625 
Q 44.046875 -1.421875 31.78125 -1.421875 
Q 19.53125 -1.421875 13.0625 8.265625 
Q 6.59375 17.96875 6.59375 36.375 
Q 6.59375 54.828125 13.0625 64.515625 
Q 19.53125 74.21875 31.78125 74.21875 
z
" id="DejaVuSans-30"/>
      </defs>
      <g transform="translate(127.085156 783.558437)scale(0.1 -0.1)">
       <use xlink:href="#DejaVuSans-2212"/>
       <use x="83.789062" xlink:href="#DejaVuSans-34"/>
       <use x="147.412109" xlink:href="#DejaVuSans-30"/>
       <use x="211.035156" xlink:href="#DejaVuSans-30"/>
       <use x="274.658203" xlink:href="#DejaVuSans-30"/>
      </g>
     </g>
    </g>
    <g id="xtick_2">
     <g id="line2d_2">
      <g>
       <use style="stroke:#000000;stroke-width:0.8;" x="255.6" xlink:href="#mdc21d66105" y="768.96"/>
      </g>
     </g>
     <g id="text_2">
      <!-- −3000 -->
      <defs>
       <path d="M 40.578125 39.3125 
Q 47.65625 37.796875 51.625 33 
Q 55.609375 28.21875 55.609375 21.1875 
Q 55.609375 10.40625 48.1875 4.484375 
Q 40.765625 -1.421875 27.09375 -1.421875 
Q 22.515625 -1.421875 17.65625 -0.515625 
Q 12.796875 0.390625 7.625 2.203125 
L 7.625 11.71875 
Q 11.71875 9.328125 16.59375 8.109375 
Q 21.484375 6.890625 26.8125 6.890625 
Q 36.078125 6.890625 40.9375 10.546875 
Q 45.796875 14.203125 45.796875 21.1875 
Q 45.796875 27.640625 41.28125 31.265625 
Q 36.765625 34.90625 28.71875 34.90625 
L 20.21875 34.90625 
L 20.21875 43.015625 
L 29.109375 43.015625 
Q 36.375 43.015625 40.234375 45.921875 
Q 44.09375 48.828125 44.09375 54.296875 
Q 44.09375 59.90625 40.109375 62.90625 
Q 36.140625 65.921875 28.71875 65.921875 
Q 24.65625 65.921875 20.015625 65.03125 
Q 15.375 64.15625 9.8125 62.3125 
L 9.8125 71.09375 
Q 15.4375 72.65625 20.34375 73.4375 
Q 25.25 74.21875 29.59375 74.21875 
Q 40.828125 74.21875 47.359375 69.109375 
Q 53.90625 64.015625 53.90625 55.328125 
Q 53.90625 49.265625 50.4375 45.09375 
Q 46.96875 40.921875 40.578125 39.3125 
z
" id="DejaVuSans-33"/>
      </defs>
      <g transform="translate(238.685156 783.558437)scale(0.1 -0.1)">
       <use xlink:href="#DejaVuSans-2212"/>
       <use x="83.789062" xlink:href="#DejaVuSans-33"/>
       <use x="147.412109" xlink:href="#DejaVuSans-30"/>
       <use x="211.035156" xlink:href="#DejaVuSans-30"/>
       <use x="274.658203" xlink:href="#DejaVuSans-30"/>
      </g>
     </g>
    </g>
    <g id="xtick_3">
     <g id="line2d_3">
      <g>
       <use style="stroke:#000000;stroke-width:0.8;" x="367.2" xlink:href="#mdc21d66105" y="768.96"/>
      </g>
     </g>
     <g id="text_3">
      <!-- −2000 -->
      <defs>
       <path d="M 19.1875 8.296875 
L 53.609375 8.296875 
L 53.609375 0 
L 7.328125 0 
L 7.328125 8.296875 
Q 12.9375 14.109375 22.625 23.890625 
Q 32.328125 33.6875 34.8125 36.53125 
Q 39.546875 41.84375 41.421875 45.53125 
Q 43.3125 49.21875 43.3125 52.78125 
Q 43.3125 58.59375 39.234375 62.25 
Q 35.15625 65.921875 28.609375 65.921875 
Q 23.96875 65.921875 18.8125 64.3125 
Q 13.671875 62.703125 7.8125 59.421875 
L 7.8125 69.390625 
Q 13.765625 71.78125 18.9375 73 
Q 24.125 74.21875 28.421875 74.21875 
Q 39.75 74.21875 46.484375 68.546875 
Q 53.21875 62.890625 53.21875 53.421875 
Q 53.21875 48.921875 51.53125 44.890625 
Q 49.859375 40.875 45.40625 35.40625 
Q 44.1875 33.984375 37.640625 27.21875 
Q 31.109375 20.453125 19.1875 8.296875 
z
" id="DejaVuSans-32"/>
      </defs>
      <g transform="translate(350.285156 783.558437)scale(0.1 -0.1)">
       <use xlink:href="#DejaVuSans-2212"/>
       <use x="83.789062" xlink:href="#DejaVuSans-32"/>
       <use x="147.412109" xlink:href="#DejaVuSans-30"/>
       <use x="211.035156" xlink:href="#DejaVuSans-30"/>
       <use x="274.658203" xlink:href="#DejaVuSans-30"/>
      </g>
     </g>
    </g>
    <g id="xtick_4">
     <g id="line2d_4">
      <g>
       <use style="stroke:#000000;stroke-width:0.8;" x="478.8" xlink:href="#mdc21d66105" y="768.96"/>
      </g>
     </g>
     <g id="text_4">
      <!-- −1000 -->
      <defs>
       <path d="M 12.40625 8.296875 
L 28.515625 8.296875 
L 28.515625 63.921875 
L 10.984375 60.40625 
L 10.984375 69.390625 
L 28.421875 72.90625 
L 38.28125 72.90625 
L 38.28125 8.296875 
L 54.390625 8.296875 
L 54.390625 0 
L 12.40625 0 
z
" id="DejaVuSans-31"/>
      </defs>
      <g transform="translate(461.885156 783.558437)scale(0.1 -0.1)">
       <use xlink:href="#DejaVuSans-2212"/>
       <use x="83.789062" xlink:href="#DejaVuSans-31"/>
       <use x="147.412109" xlink:href="#DejaVuSans-30"/>
       <use x="211.035156" xlink:href="#DejaVuSans-30"/>
       <use x="274.658203" xlink:href="#DejaVuSans-30"/>
      </g>
     </g>
    </g>
    <g id="xtick_5">
     <g id="line2d_5">
      <g>
       <use style="stroke:#000000;stroke-width:0.8;" x="590.4" xlink:href="#mdc21d66105" y="768.96"/>
      </g>
     </g>
     <g id="text_5">
      <!-- 0 -->
      <g transform="translate(587.21875 783.558437)scale(0.1 -0.1)">
       <use xlink:href="#DejaVuSans-30"/>
      </g>
     </g>
    </g>
    <g id="xtick_6">
     <g id="line2d_6">
      <g>
       <use style="stroke:#000000;stroke-width:0.8;" x="702" xlink:href="#mdc21d66105" y="768.96"/>
      </g>
     </g>
     <g id="text_6">
      <!-- 1000 -->
      <g transform="translate(689.275 783.558437)scale(0.1 -0.1)">
       <use xlink:href="#DejaVuSans-31"/>
       <use x="63.623047" xlink:href="#DejaVuSans-30"/>
       <use x="127.246094" xlink:href="#DejaVuSans-30"/>
       <use x="190.869141" xlink:href="#DejaVuSans-30"/>
      </g>
     </g>
    </g>
    <g id="xtick_7">
     <g id="line2d_7">
      <g>
       <use style="stroke:#000000;stroke-width:0.8;" x="813.6" xlink:href="#mdc21d66105" y="768.96"/>
      </g>
     </g>
     <g id="text_7">
      <!-- 2000 -->
      <g transform="translate(800.875 783.558437)scale(0.1 -0.1)">
       <use xlink:href="#DejaVuSans-32"/>
       <use x="63.623047" xlink:href="#DejaVuSans-30"/>
       <use x="127.246094" xlink:href="#DejaVuSans-30"/>
       <use x="190.869141" xlink:href="#DejaVuSans-30"/>
      </g>
     </g>
    </g>
    <g id="xtick_8">
     <g id="line2d_8">
      <g>
       <use style="stroke:#000000;stroke-width:0.8;" x="925.2" xlink:href="#mdc21d66105" y="768.96"/>
      </g>
     </g>
     <g id="text_8">
      <!-- 3000 -->
      <g transform="translate(912.475 783.558437)scale(0.1 -0.1)">
       <use xlink:href="#DejaVuSans-33"/>
       <use x="63.623047" xlink:href="#DejaVuSans-30"/>
       <use x="127.246094" xlink:href="#DejaVuSans-30"/>
       <use x="190.869141" xlink:href="#DejaVuSans-30"/>
      </g>
     </g>
    </g>
    <g id="xtick_9">
     <g id="line2d_9">
      <g>
       <use style="stroke:#000000;stroke-width:0.8;" x="1036.8" xlink:href="#mdc21d66105" y="768.96"/>
      </g>
     </g>
     <g id="text_9">
      <!-- 4000 -->
      <g transform="translate(1024.075 783.558437)scale(0.1 -0.1)">
       <use xlink:href="#DejaVuSans-34"/>
       <use x="63.623047" xlink:href="#DejaVuSans-30"/>
       <use x="127.246094" xlink:href="#DejaVuSans-30"/>
       <use x="190.869141" xlink:href="#DejaVuSans-30"/>
      </g>
     </g>
    </g>
   </g>
   <g id="matplotlib.axis_2">
    <g id="ytick_1">
     <g id="line2d_10">
      <defs>
       <path d="M 0 0 
L -3.5 0 
" id="mc0eb164506" style="stroke:#000000;stroke-width:0.8;"/>
      </defs>
      <g>
       <use style="stroke:#000000;stroke-width:0.8;" x="144" xlink:href="#mc0eb164506" y="768.96"/>
      </g>
     </g>
     <g id="text_10">
      <!-- −4000 -->
      <g transform="translate(103.170312 772.759219)scale(0.1 -0.1)">
       <use xlink:href="#DejaVuSans-2212"/>
       <use x="83.789062" xlink:href="#DejaVuSans-34"/>
       <use x="147.412109" xlink:href="#DejaVuSans-30"/>
       <use x="211.035156" xlink:href="#DejaVuSans-30"/>
       <use x="274.658203" xlink:href="#DejaVuSans-30"/>
      </g>
     </g>
    </g>
    <g id="ytick_2">
     <g id="line2d_11">
      <g>
       <use style="stroke:#000000;stroke-width:0.8;" x="144" xlink:href="#mc0eb164506" y="685.8"/>
      </g>
     </g>
     <g id="text_11">
      <!-- −3000 -->
      <g transform="translate(103.170312 689.599219)scale(0.1 -0.1)">
       <use xlink:href="#DejaVuSans-2212"/>
       <use x="83.789062" xlink:href="#DejaVuSans-33"/>
       <use x="147.412109" xlink:href="#DejaVuSans-30"/>
       <use x="211.035156" xlink:href="#DejaVuSans-30"/>
       <use x="274.658203" xlink:href="#DejaVuSans-30"/>
      </g>
     </g>
    </g>
    <g id="ytick_3">
     <g id="line2d_12">
      <g>
       <use style="stroke:#000000;stroke-width:0.8;" x="144" xlink:href="#mc0eb164506" y="602.64"/>
      </g>
     </g>
     <g id="text_12">
      <!-- −2000 -->
      <g transform="translate(103.170312 606.439219)scale(0.1 -0.1)">
       <use xlink:href="#DejaVuSans-2212"/>
       <use x="83.789062" xlink:href="#DejaVuSans-32"/>
       <use x="147.412109" xlink:href="#DejaVuSans-30"/>
       <use x="211.035156" xlink:href="#DejaVuSans-30"/>
       <use x="274.658203" xlink:href="#DejaVuSans-30"/>
      </g>
     </g>
    </g>
    <g id="ytick_4">
     <g id="line2d_13">
      <g>
       <use style="stroke:#000000;stroke-width:0.8;" x="144" xlink:href="#mc0eb164506" y="519.48"/>
      </g>
     </g>
     <g id="text_13">
      <!-- −1000 -->
      <g transform="translate(103.170312 523.279219)scale(0.1 -0.1)">
       <use xlink:href="#DejaVuSans-2212"/>
       <use x="83.789062" xlink:href="#DejaVuSans-31"/>
       <use x="147.412109" xlink:href="#DejaVuSans-30"/>
       <use x="211.035156" xlink:href="#DejaVuSans-30"/>
       <use x="274.658203" xlink:href="#DejaVuSans-30"/>
      </g>
     </g>
    </g>
    <g id="ytick_5">
     <g id="line2d_14">
      <g>
       <use style="stroke:#000000;stroke-width:0.8;" x="144" xlink:href="#mc0eb164506" y="436.32"/>
      </g>
     </g>
     <g id="text_14">
      <!-- 0 -->
      <g transform="translate(130.6375 440.119219)scale(0.1 -0.1)">
       <use xlink:href="#DejaVuSans-30"/>
      </g>
     </g>
    </g>
    <g id="ytick_6">
     <g id="line2d_15">
      <g>
       <use style="stroke:#000000;stroke-width:0.8;" x="144" xlink:href="#mc0eb164506" y="353.16"/>
      </g>
     </g>
     <g id="text_15">
      <!-- 1000 -->
      <g transform="translate(111.55 356.959219)scale(0.1 -0.1)">
       <use xlink:href="#DejaVuSans-31"/>
       <use x="63.623047" xlink:href="#DejaVuSans-30"/>
       <use x="127.246094" xlink:href="#DejaVuSans-30"/>
       <use x="190.869141" xlink:href="#DejaVuSans-30"/>
      </g>
     </g>
    </g>
    <g id="ytick_7">
     <g id="line2d_16">
      <g>
       <use style="stroke:#000000;stroke-width:0.8;" x="144" xlink:href="#mc0eb164506" y="270"/>
      </g>
     </g>
     <g id="text_16">
      <!-- 2000 -->
      <g transform="translate(111.55 273.799219)scale(0.1 -0.1)">
       <use xlink:href="#DejaVuSans-32"/>
       <use x="63.623047" xlink:href="#DejaVuSans-30"/>
       <use x="127.246094" xlink:href="#DejaVuSans-30"/>
       <use x="190.869141" xlink:href="#DejaVuSans-30"/>
      </g>
     </g>
    </g>
    <g id="ytick_8">
     <g id="line2d_17">
      <g>
       <use style="stroke:#000000;stroke-width:0.8;" x="144" xlink:href="#mc0eb164506" y="186.84"/>
      </g>
     </g>
     <g id="text_17">
      <!-- 3000 -->
      <g transform="translate(111.55 190.639219)scale(0.1 -0.1)">
       <use xlink:href="#DejaVuSans-33"/>
       <use x="63.623047" xlink:href="#DejaVuSans-30"/>
       <use x="127.246094" xlink:href="#DejaVuSans-30"/>
       <use x="190.869141" xlink:href="#DejaVuSans-30"/>
      </g>
     </g>
    </g>
    <g id="ytick_9">
     <g id="line2d_18">
      <g>
       <use style="stroke:#000000;stroke-width:0.8;" x="144" xlink:href="#mc0eb164506" y="103.68"/>
      </g>
     </g>
     <g id="text_18">
      <!-- 4000 -->
      <g transform="translate(111.55 107.479219)scale(0.1 -0.1)">
       <use xlink:href="#DejaVuSans-34"/>
       <use x="63.623047" xlink:href="#DejaVuSans-30"/>
       <use x="127.246094" xlink:href="#DejaVuSans-30"/>
       <use x="190.869141" xlink:href="#DejaVuSans-30"/>
      </g>
     </g>
    </g>
   </g>
   <g id="line2d_19">
    <path clip-path="url(#p2e4bd4c4fd)" d="M 590.4 768.96 
L 590.4 103.68 
" style="fill:none;stroke:#1f77b4;stroke-linecap:square;stroke-width:1.5;"/>
   </g>
   <g id="line2d_20">
    <path clip-path="url(#p2e4bd4c4fd)" d="M 144 436.32 
L 1036.8 436.32 
" style="fill:none;stroke:#1f77b4;stroke-linecap:square;stroke-width:1.5;"/>
   </g>
   <g id="line2d_21">
    <defs>
     <path d="M 0 3 
C 0.795609 3 1.55874 2.683901 2.12132 2.12132 
C 2.683901 1.55874 3 0.795609 3 0 
C 3 -0.795609 2.683901 -1.55874 2.12132 -2.12132 
C 1.55874 -2.683901 0.795609 -3 0 -3 
C -0.795609 -3 -1.55874 -2.683901 -2.12132 -2.12132 
C -2.683901 -1.55874 -3 -0.795609 -3 0 
C -3 0.795609 -2.683901 1.55874 -2.12132 2.12132 
C -1.55874 2.683901 -0.795609 3 0 3 
z
" id="m667bcee628" style="stroke:#008000;"/>
    </defs>
    <g clip-path="url(#p2e4bd4c4fd)">
     <use style="fill:#008000;stroke:#008000;" x="1075.478281" xlink:href="#m667bcee628" y="441.347565"/>
    </g>
   </g>
   <g id="line2d_22">
    <g clip-path="url(#p2e4bd4c4fd)">
     <use style="fill:#008000;stroke:#008000;" x="1259.174325" xlink:href="#m667bcee628" y="336.76916"/>
    </g>
   </g>
   <g id="line2d_23">
    <g clip-path="url(#p2e4bd4c4fd)">
     <use style="fill:#008000;stroke:#008000;" x="541.553931" xlink:href="#m667bcee628" y="232.496832"/>
    </g>
   </g>
   <g id="line2d_24">
    <g clip-path="url(#p2e4bd4c4fd)">
     <use style="fill:#008000;stroke:#008000;" x="573.309658" xlink:href="#m667bcee628" y="398.533079"/>
    </g>
   </g>
   <g id="line2d_25">
    <g clip-path="url(#p2e4bd4c4fd)">
     <use style="fill:#008000;stroke:#008000;" x="573.309658" xlink:href="#m667bcee628" y="398.533079"/>
    </g>
   </g>
   <g id="line2d_26">
    <g clip-path="url(#p2e4bd4c4fd)">
     <use style="fill:#008000;stroke:#008000;" x="453.835839" xlink:href="#m667bcee628" y="248.286138"/>
    </g>
   </g>
   <g id="line2d_27">
    <g clip-path="url(#p2e4bd4c4fd)">
     <use style="fill:#008000;stroke:#008000;" x="574.722069" xlink:href="#m667bcee628" y="614.190214"/>
    </g>
   </g>
   <g id="line2d_28">
    <defs>
     <path d="M 0 1.333333 
C 0.353604 1.333333 0.692773 1.192845 0.942809 0.942809 
C 1.192845 0.692773 1.333333 0.353604 1.333333 0 
C 1.333333 -0.353604 1.192845 -0.692773 0.942809 -0.942809 
C 0.692773 -1.192845 0.353604 -1.333333 0 -1.333333 
C -0.353604 -1.333333 -0.692773 -1.192845 -0.942809 -0.942809 
C -1.192845 -0.692773 -1.333333 -0.353604 -1.333333 0 
C -1.333333 0.353604 -1.192845 0.692773 -0.942809 0.942809 
C -0.692773 1.192845 -0.353604 1.333333 0 1.333333 
z
" id="m52f0caa0d4" style="stroke:#ff0000;"/>
    </defs>
    <g clip-path="url(#p2e4bd4c4fd)">
     <use style="fill:#ff0000;stroke:#ff0000;" x="1075.478281" xlink:href="#m52f0caa0d4" y="441.347565"/>
     <use style="fill:#ff0000;stroke:#ff0000;" x="1259.174325" xlink:href="#m52f0caa0d4" y="336.76916"/>
     <use style="fill:#ff0000;stroke:#ff0000;" x="1359.410155" xlink:href="#m52f0caa0d4" y="290.121655"/>
     <use style="fill:#ff0000;stroke:#ff0000;" x="1318.4516" xlink:href="#m52f0caa0d4" y="266.403314"/>
     <use style="fill:#ff0000;stroke:#ff0000;" x="652.555085" xlink:href="#m52f0caa0d4" y="400.680376"/>
     <use style="fill:#ff0000;stroke:#ff0000;" x="642.815486" xlink:href="#m52f0caa0d4" y="385.159129"/>
     <use style="fill:#ff0000;stroke:#ff0000;" x="777.181351" xlink:href="#m52f0caa0d4" y="192.955675"/>
     <use style="fill:#ff0000;stroke:#ff0000;" x="752.019101" xlink:href="#m52f0caa0d4" y="196.899561"/>
     <use style="fill:#ff0000;stroke:#ff0000;" x="729.39504" xlink:href="#m52f0caa0d4" y="199.882104"/>
     <use style="fill:#ff0000;stroke:#ff0000;" x="707.197701" xlink:href="#m52f0caa0d4" y="204.311169"/>
     <use style="fill:#ff0000;stroke:#ff0000;" x="541.553931" xlink:href="#m52f0caa0d4" y="232.496832"/>
     <use style="fill:#ff0000;stroke:#ff0000;" x="575.860896" xlink:href="#m52f0caa0d4" y="397.25394"/>
     <use style="fill:#ff0000;stroke:#ff0000;" x="570.90149" xlink:href="#m52f0caa0d4" y="399.901433"/>
     <use style="fill:#ff0000;stroke:#ff0000;" x="453.835839" xlink:href="#m52f0caa0d4" y="248.286138"/>
     <use style="fill:#ff0000;stroke:#ff0000;" x="385.276429" xlink:href="#m52f0caa0d4" y="276.388925"/>
     <use style="fill:#ff0000;stroke:#ff0000;" x="361.042861" xlink:href="#m52f0caa0d4" y="275.193978"/>
     <use style="fill:#ff0000;stroke:#ff0000;" x="422.679946" xlink:href="#m52f0caa0d4" y="342.355521"/>
     <use style="fill:#ff0000;stroke:#ff0000;" x="405.072032" xlink:href="#m52f0caa0d4" y="363.566283"/>
     <use style="fill:#ff0000;stroke:#ff0000;" x="454.491248" xlink:href="#m52f0caa0d4" y="390.533201"/>
     <use style="fill:#ff0000;stroke:#ff0000;" x="448.395196" xlink:href="#m52f0caa0d4" y="413.677165"/>
     <use style="fill:#ff0000;stroke:#ff0000;" x="425.808564" xlink:href="#m52f0caa0d4" y="416.482952"/>
     <use style="fill:#ff0000;stroke:#ff0000;" x="410.046294" xlink:href="#m52f0caa0d4" y="442.885547"/>
     <use style="fill:#ff0000;stroke:#ff0000;" x="395.749533" xlink:href="#m52f0caa0d4" y="450.925364"/>
     <use style="fill:#ff0000;stroke:#ff0000;" x="401.300057" xlink:href="#m52f0caa0d4" y="465.950177"/>
     <use style="fill:#ff0000;stroke:#ff0000;" x="437.502869" xlink:href="#m52f0caa0d4" y="467.048156"/>
     <use style="fill:#ff0000;stroke:#ff0000;" x="403.780158" xlink:href="#m52f0caa0d4" y="481.294403"/>
     <use style="fill:#ff0000;stroke:#ff0000;" x="410.198608" xlink:href="#m52f0caa0d4" y="505.108037"/>
     <use style="fill:#ff0000;stroke:#ff0000;" x="438.443544" xlink:href="#m52f0caa0d4" y="502.520622"/>
     <use style="fill:#ff0000;stroke:#ff0000;" x="445.769079" xlink:href="#m52f0caa0d4" y="515.795524"/>
     <use style="fill:#ff0000;stroke:#ff0000;" x="465.514182" xlink:href="#m52f0caa0d4" y="513.032808"/>
     <use style="fill:#ff0000;stroke:#ff0000;" x="457.451164" xlink:href="#m52f0caa0d4" y="527.000042"/>
     <use style="fill:#ff0000;stroke:#ff0000;" x="448.230767" xlink:href="#m52f0caa0d4" y="543.654904"/>
     <use style="fill:#ff0000;stroke:#ff0000;" x="470.455713" xlink:href="#m52f0caa0d4" y="537.398801"/>
     <use style="fill:#ff0000;stroke:#ff0000;" x="454.75467" xlink:href="#m52f0caa0d4" y="562.753817"/>
     <use style="fill:#ff0000;stroke:#ff0000;" x="444.965366" xlink:href="#m52f0caa0d4" y="587.292288"/>
     <use style="fill:#ff0000;stroke:#ff0000;" x="536.21333" xlink:href="#m52f0caa0d4" y="501.769083"/>
     <use style="fill:#ff0000;stroke:#ff0000;" x="571.463461" xlink:href="#m52f0caa0d4" y="496.987425"/>
     <use style="fill:#ff0000;stroke:#ff0000;" x="567.99207" xlink:href="#m52f0caa0d4" y="616.420624"/>
     <use style="fill:#ff0000;stroke:#ff0000;" x="581.274949" xlink:href="#m52f0caa0d4" y="611.822247"/>
     <use style="fill:#ff0000;stroke:#ff0000;" x="593.829492" xlink:href="#m52f0caa0d4" y="640.025181"/>
     <use style="fill:#ff0000;stroke:#ff0000;" x="607.581968" xlink:href="#m52f0caa0d4" y="629.242619"/>
     <use style="fill:#ff0000;stroke:#ff0000;" x="623.647336" xlink:href="#m52f0caa0d4" y="640.393192"/>
     <use style="fill:#ff0000;stroke:#ff0000;" x="634.478108" xlink:href="#m52f0caa0d4" y="622.002683"/>
     <use style="fill:#ff0000;stroke:#ff0000;" x="646.434597" xlink:href="#m52f0caa0d4" y="615.617714"/>
     <use style="fill:#ff0000;stroke:#ff0000;" x="666.555775" xlink:href="#m52f0caa0d4" y="633.211324"/>
     <use style="fill:#ff0000;stroke:#ff0000;" x="670.787564" xlink:href="#m52f0caa0d4" y="608.153174"/>
     <use style="fill:#ff0000;stroke:#ff0000;" x="692.963712" xlink:href="#m52f0caa0d4" y="597.910274"/>
     <use style="fill:#ff0000;stroke:#ff0000;" x="766.198725" xlink:href="#m52f0caa0d4" y="590.378748"/>
     <use style="fill:#ff0000;stroke:#ff0000;" x="797.415527" xlink:href="#m52f0caa0d4" y="583.187688"/>
     <use style="fill:#ff0000;stroke:#ff0000;" x="851.207324" xlink:href="#m52f0caa0d4" y="569.343084"/>
     <use style="fill:#ff0000;stroke:#ff0000;" x="891.093291" xlink:href="#m52f0caa0d4" y="557.029636"/>
     <use style="fill:#ff0000;stroke:#ff0000;" x="921.404358" xlink:href="#m52f0caa0d4" y="552.977535"/>
     <use style="fill:#ff0000;stroke:#ff0000;" x="1060.724679" xlink:href="#m52f0caa0d4" y="538.472032"/>
     <use style="fill:#ff0000;stroke:#ff0000;" x="1093.938497" xlink:href="#m52f0caa0d4" y="524.348037"/>
     <use style="fill:#ff0000;stroke:#ff0000;" x="1110.740112" xlink:href="#m52f0caa0d4" y="505.888479"/>
    </g>
   </g>
   <g id="line2d_29">
    <defs>
     <path d="M -0.5 0.5 
L 0.5 0.5 
L 0.5 -0.5 
L -0.5 -0.5 
z
" id="mc5bca01024" style="stroke:#1f77b4;stroke-linejoin:miter;"/>
    </defs>
    <g clip-path="url(#p2e4bd4c4fd)">
     <use style="fill:#1f77b4;stroke:#1f77b4;stroke-linejoin:miter;" x="1075.478281" xlink:href="#mc5bca01024" y="441.347565"/>
     <use style="fill:#1f77b4;stroke:#1f77b4;stroke-linejoin:miter;" x="1259.174325" xlink:href="#mc5bca01024" y="336.76916"/>
     <use style="fill:#1f77b4;stroke:#1f77b4;stroke-linejoin:miter;" x="1359.410155" xlink:href="#mc5bca01024" y="290.121655"/>
     <use style="fill:#1f77b4;stroke:#1f77b4;stroke-linejoin:miter;" x="1318.4516" xlink:href="#mc5bca01024" y="266.403314"/>
     <use style="fill:#1f77b4;stroke:#1f77b4;stroke-linejoin:miter;" x="652.555085" xlink:href="#mc5bca01024" y="400.680376"/>
     <use style="fill:#1f77b4;stroke:#1f77b4;stroke-linejoin:miter;" x="649.655384" xlink:href="#mc5bca01024" y="398.545704"/>
     <use style="fill:#1f77b4;stroke:#1f77b4;stroke-linejoin:miter;" x="646.383306" xlink:href="#mc5bca01024" y="396.559102"/>
     <use style="fill:#1f77b4;stroke:#1f77b4;stroke-linejoin:miter;" x="644.573041" xlink:href="#mc5bca01024" y="393.431363"/>
     <use style="fill:#1f77b4;stroke:#1f77b4;stroke-linejoin:miter;" x="641.806618" xlink:href="#mc5bca01024" y="391.170825"/>
     <use style="fill:#1f77b4;stroke:#1f77b4;stroke-linejoin:miter;" x="642.815486" xlink:href="#mc5bca01024" y="385.159129"/>
     <use style="fill:#1f77b4;stroke:#1f77b4;stroke-linejoin:miter;" x="777.181351" xlink:href="#mc5bca01024" y="192.955675"/>
     <use style="fill:#1f77b4;stroke:#1f77b4;stroke-linejoin:miter;" x="752.019101" xlink:href="#mc5bca01024" y="196.899561"/>
     <use style="fill:#1f77b4;stroke:#1f77b4;stroke-linejoin:miter;" x="729.39504" xlink:href="#mc5bca01024" y="199.882104"/>
     <use style="fill:#1f77b4;stroke:#1f77b4;stroke-linejoin:miter;" x="707.197701" xlink:href="#mc5bca01024" y="204.311169"/>
     <use style="fill:#1f77b4;stroke:#1f77b4;stroke-linejoin:miter;" x="687.569399" xlink:href="#mc5bca01024" y="207.110718"/>
     <use style="fill:#1f77b4;stroke:#1f77b4;stroke-linejoin:miter;" x="668.648001" xlink:href="#mc5bca01024" y="210.353728"/>
     <use style="fill:#1f77b4;stroke:#1f77b4;stroke-linejoin:miter;" x="651.137218" xlink:href="#mc5bca01024" y="212.301707"/>
     <use style="fill:#1f77b4;stroke:#1f77b4;stroke-linejoin:miter;" x="633.938666" xlink:href="#mc5bca01024" y="215.531066"/>
     <use style="fill:#1f77b4;stroke:#1f77b4;stroke-linejoin:miter;" x="617.047692" xlink:href="#mc5bca01024" y="218.261956"/>
     <use style="fill:#1f77b4;stroke:#1f77b4;stroke-linejoin:miter;" x="601.269397" xlink:href="#mc5bca01024" y="219.631619"/>
     <use style="fill:#1f77b4;stroke:#1f77b4;stroke-linejoin:miter;" x="585.746974" xlink:href="#mc5bca01024" y="224.435897"/>
     <use style="fill:#1f77b4;stroke:#1f77b4;stroke-linejoin:miter;" x="570.719175" xlink:href="#mc5bca01024" y="225.770045"/>
     <use style="fill:#1f77b4;stroke:#1f77b4;stroke-linejoin:miter;" x="555.892235" xlink:href="#mc5bca01024" y="227.837605"/>
     <use style="fill:#1f77b4;stroke:#1f77b4;stroke-linejoin:miter;" x="541.553931" xlink:href="#mc5bca01024" y="232.496832"/>
     <use style="fill:#1f77b4;stroke:#1f77b4;stroke-linejoin:miter;" x="575.860896" xlink:href="#mc5bca01024" y="397.25394"/>
     <use style="fill:#1f77b4;stroke:#1f77b4;stroke-linejoin:miter;" x="573.992039" xlink:href="#mc5bca01024" y="400.204619"/>
     <use style="fill:#1f77b4;stroke:#1f77b4;stroke-linejoin:miter;" x="570.90149" xlink:href="#mc5bca01024" y="399.901433"/>
     <use style="fill:#1f77b4;stroke:#1f77b4;stroke-linejoin:miter;" x="453.835839" xlink:href="#mc5bca01024" y="248.286138"/>
     <use style="fill:#1f77b4;stroke:#1f77b4;stroke-linejoin:miter;" x="438.41701" xlink:href="#mc5bca01024" y="251.283334"/>
     <use style="fill:#1f77b4;stroke:#1f77b4;stroke-linejoin:miter;" x="421.034247" xlink:href="#mc5bca01024" y="252.905261"/>
     <use style="fill:#1f77b4;stroke:#1f77b4;stroke-linejoin:miter;" x="415.687878" xlink:href="#mc5bca01024" y="267.037436"/>
     <use style="fill:#1f77b4;stroke:#1f77b4;stroke-linejoin:miter;" x="400.070492" xlink:href="#mc5bca01024" y="271.085805"/>
     <use style="fill:#1f77b4;stroke:#1f77b4;stroke-linejoin:miter;" x="385.276429" xlink:href="#mc5bca01024" y="276.388925"/>
     <use style="fill:#1f77b4;stroke:#1f77b4;stroke-linejoin:miter;" x="361.042861" xlink:href="#mc5bca01024" y="275.193978"/>
     <use style="fill:#1f77b4;stroke:#1f77b4;stroke-linejoin:miter;" x="422.679946" xlink:href="#mc5bca01024" y="342.355521"/>
     <use style="fill:#1f77b4;stroke:#1f77b4;stroke-linejoin:miter;" x="412.425312" xlink:href="#mc5bca01024" y="357.321515"/>
     <use style="fill:#1f77b4;stroke:#1f77b4;stroke-linejoin:miter;" x="405.072032" xlink:href="#mc5bca01024" y="363.566283"/>
     <use style="fill:#1f77b4;stroke:#1f77b4;stroke-linejoin:miter;" x="454.491248" xlink:href="#mc5bca01024" y="390.533201"/>
     <use style="fill:#1f77b4;stroke:#1f77b4;stroke-linejoin:miter;" x="455.143958" xlink:href="#mc5bca01024" y="397.157498"/>
     <use style="fill:#1f77b4;stroke:#1f77b4;stroke-linejoin:miter;" x="456.546635" xlink:href="#mc5bca01024" y="403.610758"/>
     <use style="fill:#1f77b4;stroke:#1f77b4;stroke-linejoin:miter;" x="458.59282" xlink:href="#mc5bca01024" y="409.916529"/>
     <use style="fill:#1f77b4;stroke:#1f77b4;stroke-linejoin:miter;" x="448.395196" xlink:href="#mc5bca01024" y="413.677165"/>
     <use style="fill:#1f77b4;stroke:#1f77b4;stroke-linejoin:miter;" x="425.808564" xlink:href="#mc5bca01024" y="416.482952"/>
     <use style="fill:#1f77b4;stroke:#1f77b4;stroke-linejoin:miter;" x="419.867993" xlink:href="#mc5bca01024" y="429.521337"/>
     <use style="fill:#1f77b4;stroke:#1f77b4;stroke-linejoin:miter;" x="420.433712" xlink:href="#mc5bca01024" y="436.009148"/>
     <use style="fill:#1f77b4;stroke:#1f77b4;stroke-linejoin:miter;" x="410.046294" xlink:href="#mc5bca01024" y="442.885547"/>
     <use style="fill:#1f77b4;stroke:#1f77b4;stroke-linejoin:miter;" x="395.749533" xlink:href="#mc5bca01024" y="450.925364"/>
     <use style="fill:#1f77b4;stroke:#1f77b4;stroke-linejoin:miter;" x="399.213808" xlink:href="#mc5bca01024" y="458.486081"/>
     <use style="fill:#1f77b4;stroke:#1f77b4;stroke-linejoin:miter;" x="401.300057" xlink:href="#mc5bca01024" y="465.950177"/>
     <use style="fill:#1f77b4;stroke:#1f77b4;stroke-linejoin:miter;" x="437.502869" xlink:href="#mc5bca01024" y="467.048156"/>
     <use style="fill:#1f77b4;stroke:#1f77b4;stroke-linejoin:miter;" x="403.780158" xlink:href="#mc5bca01024" y="481.294403"/>
     <use style="fill:#1f77b4;stroke:#1f77b4;stroke-linejoin:miter;" x="406.90648" xlink:href="#mc5bca01024" y="488.763822"/>
     <use style="fill:#1f77b4;stroke:#1f77b4;stroke-linejoin:miter;" x="408.788356" xlink:href="#mc5bca01024" y="496.705495"/>
     <use style="fill:#1f77b4;stroke:#1f77b4;stroke-linejoin:miter;" x="410.198608" xlink:href="#mc5bca01024" y="505.108037"/>
     <use style="fill:#1f77b4;stroke:#1f77b4;stroke-linejoin:miter;" x="438.443544" xlink:href="#mc5bca01024" y="502.520622"/>
     <use style="fill:#1f77b4;stroke:#1f77b4;stroke-linejoin:miter;" x="433.270778" xlink:href="#mc5bca01024" y="513.222388"/>
     <use style="fill:#1f77b4;stroke:#1f77b4;stroke-linejoin:miter;" x="445.769079" xlink:href="#mc5bca01024" y="515.795524"/>
     <use style="fill:#1f77b4;stroke:#1f77b4;stroke-linejoin:miter;" x="465.514182" xlink:href="#mc5bca01024" y="513.032808"/>
     <use style="fill:#1f77b4;stroke:#1f77b4;stroke-linejoin:miter;" x="457.451164" xlink:href="#mc5bca01024" y="527.000042"/>
     <use style="fill:#1f77b4;stroke:#1f77b4;stroke-linejoin:miter;" x="448.230767" xlink:href="#mc5bca01024" y="543.654904"/>
     <use style="fill:#1f77b4;stroke:#1f77b4;stroke-linejoin:miter;" x="470.455713" xlink:href="#mc5bca01024" y="537.398801"/>
     <use style="fill:#1f77b4;stroke:#1f77b4;stroke-linejoin:miter;" x="454.75467" xlink:href="#mc5bca01024" y="562.753817"/>
     <use style="fill:#1f77b4;stroke:#1f77b4;stroke-linejoin:miter;" x="444.965366" xlink:href="#mc5bca01024" y="587.292288"/>
     <use style="fill:#1f77b4;stroke:#1f77b4;stroke-linejoin:miter;" x="536.21333" xlink:href="#mc5bca01024" y="501.769083"/>
     <use style="fill:#1f77b4;stroke:#1f77b4;stroke-linejoin:miter;" x="546.923065" xlink:href="#mc5bca01024" y="496.300146"/>
     <use style="fill:#1f77b4;stroke:#1f77b4;stroke-linejoin:miter;" x="551.897246" xlink:href="#mc5bca01024" y="496.896015"/>
     <use style="fill:#1f77b4;stroke:#1f77b4;stroke-linejoin:miter;" x="558.580911" xlink:href="#mc5bca01024" y="494.4567"/>
     <use style="fill:#1f77b4;stroke:#1f77b4;stroke-linejoin:miter;" x="564.093303" xlink:href="#mc5bca01024" y="493.049366"/>
     <use style="fill:#1f77b4;stroke:#1f77b4;stroke-linejoin:miter;" x="568.275819" xlink:href="#mc5bca01024" y="493.578002"/>
     <use style="fill:#1f77b4;stroke:#1f77b4;stroke-linejoin:miter;" x="571.463461" xlink:href="#mc5bca01024" y="496.987425"/>
     <use style="fill:#1f77b4;stroke:#1f77b4;stroke-linejoin:miter;" x="567.99207" xlink:href="#mc5bca01024" y="616.420624"/>
     <use style="fill:#1f77b4;stroke:#1f77b4;stroke-linejoin:miter;" x="581.274949" xlink:href="#mc5bca01024" y="611.822247"/>
     <use style="fill:#1f77b4;stroke:#1f77b4;stroke-linejoin:miter;" x="593.829492" xlink:href="#mc5bca01024" y="640.025181"/>
     <use style="fill:#1f77b4;stroke:#1f77b4;stroke-linejoin:miter;" x="607.581968" xlink:href="#mc5bca01024" y="629.242619"/>
     <use style="fill:#1f77b4;stroke:#1f77b4;stroke-linejoin:miter;" x="623.647336" xlink:href="#mc5bca01024" y="640.393192"/>
     <use style="fill:#1f77b4;stroke:#1f77b4;stroke-linejoin:miter;" x="634.478108" xlink:href="#mc5bca01024" y="622.002683"/>
     <use style="fill:#1f77b4;stroke:#1f77b4;stroke-linejoin:miter;" x="646.434597" xlink:href="#mc5bca01024" y="615.617714"/>
     <use style="fill:#1f77b4;stroke:#1f77b4;stroke-linejoin:miter;" x="666.555775" xlink:href="#mc5bca01024" y="633.211324"/>
     <use style="fill:#1f77b4;stroke:#1f77b4;stroke-linejoin:miter;" x="670.787564" xlink:href="#mc5bca01024" y="608.153174"/>
     <use style="fill:#1f77b4;stroke:#1f77b4;stroke-linejoin:miter;" x="679.184334" xlink:href="#mc5bca01024" y="597.781938"/>
     <use style="fill:#1f77b4;stroke:#1f77b4;stroke-linejoin:miter;" x="692.963712" xlink:href="#mc5bca01024" y="597.910274"/>
     <use style="fill:#1f77b4;stroke:#1f77b4;stroke-linejoin:miter;" x="766.198725" xlink:href="#mc5bca01024" y="590.378748"/>
     <use style="fill:#1f77b4;stroke:#1f77b4;stroke-linejoin:miter;" x="779.610942" xlink:href="#mc5bca01024" y="585.464444"/>
     <use style="fill:#1f77b4;stroke:#1f77b4;stroke-linejoin:miter;" x="797.415527" xlink:href="#mc5bca01024" y="583.187688"/>
     <use style="fill:#1f77b4;stroke:#1f77b4;stroke-linejoin:miter;" x="818.548883" xlink:href="#mc5bca01024" y="581.841332"/>
     <use style="fill:#1f77b4;stroke:#1f77b4;stroke-linejoin:miter;" x="833.846612" xlink:href="#mc5bca01024" y="575.125895"/>
     <use style="fill:#1f77b4;stroke:#1f77b4;stroke-linejoin:miter;" x="851.207324" xlink:href="#mc5bca01024" y="569.343084"/>
     <use style="fill:#1f77b4;stroke:#1f77b4;stroke-linejoin:miter;" x="891.093291" xlink:href="#mc5bca01024" y="557.029636"/>
     <use style="fill:#1f77b4;stroke:#1f77b4;stroke-linejoin:miter;" x="921.404358" xlink:href="#mc5bca01024" y="552.977535"/>
     <use style="fill:#1f77b4;stroke:#1f77b4;stroke-linejoin:miter;" x="1060.724679" xlink:href="#mc5bca01024" y="538.472032"/>
     <use style="fill:#1f77b4;stroke:#1f77b4;stroke-linejoin:miter;" x="1093.938497" xlink:href="#mc5bca01024" y="524.348037"/>
     <use style="fill:#1f77b4;stroke:#1f77b4;stroke-linejoin:miter;" x="1110.740112" xlink:href="#mc5bca01024" y="505.888479"/>
    </g>
   </g>
   <g id="patch_3">
    <path d="M 144 768.96 
L 144 103.68 
" style="fill:none;stroke:#000000;stroke-linecap:square;stroke-linejoin:miter;stroke-width:0.8;"/>
   </g>
   <g id="patch_4">
    <path d="M 1036.8 768.96 
L 1036.8 103.68 
" style="fill:none;stroke:#000000;stroke-linecap:square;stroke-linejoin:miter;stroke-width:0.8;"/>
   </g>
   <g id="patch_5">
    <path d="M 144 768.96 
L 1036.8 768.96 
" style="fill:none;stroke:#000000;stroke-linecap:square;stroke-linejoin:miter;stroke-width:0.8;"/>
   </g>
   <g id="patch_6">
    <path d="M 144 103.68 
L 1036.8 103.68 
" style="fill:none;stroke:#000000;stroke-linecap:square;stroke-linejoin:miter;stroke-width:0.8;"/>
   </g>
  </g>
 </g>
 <defs>
  <clipPath id="p2e4bd4c4fd">
   <rect height="665.28" width="892.8" x="144" y="103.68"/>
  </clipPath>
 </defs>
</svg>
