<?xml version="1.0" encoding="utf-8" standalone="no"?>
<!DOCTYPE svg PUBLIC "-//W3C//DTD SVG 1.1//EN"
  "http://www.w3.org/Graphics/SVG/1.1/DTD/svg11.dtd">
<!-- Created with matplotlib (http://matplotlib.org/) -->
<svg height="864pt" version="1.1" viewBox="0 0 1152 864" width="1152pt" xmlns="http://www.w3.org/2000/svg" xmlns:xlink="http://www.w3.org/1999/xlink">
 <defs>
  <style type="text/css">
*{stroke-linecap:butt;stroke-linejoin:round;}
  </style>
 </defs>
 <g id="figure_1">
  <g id="patch_1">
   <path d="M 0 864 
L 1152 864 
L 1152 0 
L 0 0 
z
" style="fill:#ffffff;"/>
  </g>
  <g id="axes_1">
   <g id="patch_2">
    <path d="M 144 768.96 
L 1036.8 768.96 
L 1036.8 103.68 
L 144 103.68 
z
" style="fill:#ffffff;"/>
   </g>
   <g id="matplotlib.axis_1">
    <g id="xtick_1">
     <g id="line2d_1">
      <defs>
       <path d="M 0 0 
L 0 3.5 
" id="m1dacdc5d1e" style="stroke:#000000;stroke-width:0.8;"/>
      </defs>
      <g>
       <use style="stroke:#000000;stroke-width:0.8;" x="144" xlink:href="#m1dacdc5d1e" y="768.96"/>
      </g>
     </g>
     <g id="text_1">
      <!-- −4000 -->
      <defs>
       <path d="M 10.59375 35.5 
L 73.1875 35.5 
L 73.1875 27.203125 
L 10.59375 27.203125 
z
" id="DejaVuSans-2212"/>
       <path d="M 37.796875 64.3125 
L 12.890625 25.390625 
L 37.796875 25.390625 
z
M 35.203125 72.90625 
L 47.609375 72.90625 
L 47.609375 25.390625 
L 58.015625 25.390625 
L 58.015625 17.1875 
L 47.609375 17.1875 
L 47.609375 0 
L 37.796875 0 
L 37.796875 17.1875 
L 4.890625 17.1875 
L 4.890625 26.703125 
z
" id="DejaVuSans-34"/>
       <path d="M 31.78125 66.40625 
Q 24.171875 66.40625 20.328125 58.90625 
Q 16.5 51.421875 16.5 36.375 
Q 16.5 21.390625 20.328125 13.890625 
Q 24.171875 6.390625 31.78125 6.390625 
Q 39.453125 6.390625 43.28125 13.890625 
Q 47.125 21.390625 47.125 36.375 
Q 47.125 51.421875 43.28125 58.90625 
Q 39.453125 66.40625 31.78125 66.40625 
z
M 31.78125 74.21875 
Q 44.046875 74.21875 50.515625 64.515625 
Q 56.984375 54.828125 56.984375 36.375 
Q 56.984375 17.96875 50.515625 8.265625 
Q 44.046875 -1.421875 31.78125 -1.421875 
Q 19.53125 -1.421875 13.0625 8.265625 
Q 6.59375 17.96875 6.59375 36.375 
Q 6.59375 54.828125 13.0625 64.515625 
Q 19.53125 74.21875 31.78125 74.21875 
z
" id="DejaVuSans-30"/>
      </defs>
      <g transform="translate(127.085156 783.558437)scale(0.1 -0.1)">
       <use xlink:href="#DejaVuSans-2212"/>
       <use x="83.789062" xlink:href="#DejaVuSans-34"/>
       <use x="147.412109" xlink:href="#DejaVuSans-30"/>
       <use x="211.035156" xlink:href="#DejaVuSans-30"/>
       <use x="274.658203" xlink:href="#DejaVuSans-30"/>
      </g>
     </g>
    </g>
    <g id="xtick_2">
     <g id="line2d_2">
      <g>
       <use style="stroke:#000000;stroke-width:0.8;" x="255.6" xlink:href="#m1dacdc5d1e" y="768.96"/>
      </g>
     </g>
     <g id="text_2">
      <!-- −3000 -->
      <defs>
       <path d="M 40.578125 39.3125 
Q 47.65625 37.796875 51.625 33 
Q 55.609375 28.21875 55.609375 21.1875 
Q 55.609375 10.40625 48.1875 4.484375 
Q 40.765625 -1.421875 27.09375 -1.421875 
Q 22.515625 -1.421875 17.65625 -0.515625 
Q 12.796875 0.390625 7.625 2.203125 
L 7.625 11.71875 
Q 11.71875 9.328125 16.59375 8.109375 
Q 21.484375 6.890625 26.8125 6.890625 
Q 36.078125 6.890625 40.9375 10.546875 
Q 45.796875 14.203125 45.796875 21.1875 
Q 45.796875 27.640625 41.28125 31.265625 
Q 36.765625 34.90625 28.71875 34.90625 
L 20.21875 34.90625 
L 20.21875 43.015625 
L 29.109375 43.015625 
Q 36.375 43.015625 40.234375 45.921875 
Q 44.09375 48.828125 44.09375 54.296875 
Q 44.09375 59.90625 40.109375 62.90625 
Q 36.140625 65.921875 28.71875 65.921875 
Q 24.65625 65.921875 20.015625 65.03125 
Q 15.375 64.15625 9.8125 62.3125 
L 9.8125 71.09375 
Q 15.4375 72.65625 20.34375 73.4375 
Q 25.25 74.21875 29.59375 74.21875 
Q 40.828125 74.21875 47.359375 69.109375 
Q 53.90625 64.015625 53.90625 55.328125 
Q 53.90625 49.265625 50.4375 45.09375 
Q 46.96875 40.921875 40.578125 39.3125 
z
" id="DejaVuSans-33"/>
      </defs>
      <g transform="translate(238.685156 783.558437)scale(0.1 -0.1)">
       <use xlink:href="#DejaVuSans-2212"/>
       <use x="83.789062" xlink:href="#DejaVuSans-33"/>
       <use x="147.412109" xlink:href="#DejaVuSans-30"/>
       <use x="211.035156" xlink:href="#DejaVuSans-30"/>
       <use x="274.658203" xlink:href="#DejaVuSans-30"/>
      </g>
     </g>
    </g>
    <g id="xtick_3">
     <g id="line2d_3">
      <g>
       <use style="stroke:#000000;stroke-width:0.8;" x="367.2" xlink:href="#m1dacdc5d1e" y="768.96"/>
      </g>
     </g>
     <g id="text_3">
      <!-- −2000 -->
      <defs>
       <path d="M 19.1875 8.296875 
L 53.609375 8.296875 
L 53.609375 0 
L 7.328125 0 
L 7.328125 8.296875 
Q 12.9375 14.109375 22.625 23.890625 
Q 32.328125 33.6875 34.8125 36.53125 
Q 39.546875 41.84375 41.421875 45.53125 
Q 43.3125 49.21875 43.3125 52.78125 
Q 43.3125 58.59375 39.234375 62.25 
Q 35.15625 65.921875 28.609375 65.921875 
Q 23.96875 65.921875 18.8125 64.3125 
Q 13.671875 62.703125 7.8125 59.421875 
L 7.8125 69.390625 
Q 13.765625 71.78125 18.9375 73 
Q 24.125 74.21875 28.421875 74.21875 
Q 39.75 74.21875 46.484375 68.546875 
Q 53.21875 62.890625 53.21875 53.421875 
Q 53.21875 48.921875 51.53125 44.890625 
Q 49.859375 40.875 45.40625 35.40625 
Q 44.1875 33.984375 37.640625 27.21875 
Q 31.109375 20.453125 19.1875 8.296875 
z
" id="DejaVuSans-32"/>
      </defs>
      <g transform="translate(350.285156 783.558437)scale(0.1 -0.1)">
       <use xlink:href="#DejaVuSans-2212"/>
       <use x="83.789062" xlink:href="#DejaVuSans-32"/>
       <use x="147.412109" xlink:href="#DejaVuSans-30"/>
       <use x="211.035156" xlink:href="#DejaVuSans-30"/>
       <use x="274.658203" xlink:href="#DejaVuSans-30"/>
      </g>
     </g>
    </g>
    <g id="xtick_4">
     <g id="line2d_4">
      <g>
       <use style="stroke:#000000;stroke-width:0.8;" x="478.8" xlink:href="#m1dacdc5d1e" y="768.96"/>
      </g>
     </g>
     <g id="text_4">
      <!-- −1000 -->
      <defs>
       <path d="M 12.40625 8.296875 
L 28.515625 8.296875 
L 28.515625 63.921875 
L 10.984375 60.40625 
L 10.984375 69.390625 
L 28.421875 72.90625 
L 38.28125 72.90625 
L 38.28125 8.296875 
L 54.390625 8.296875 
L 54.390625 0 
L 12.40625 0 
z
" id="DejaVuSans-31"/>
      </defs>
      <g transform="translate(461.885156 783.558437)scale(0.1 -0.1)">
       <use xlink:href="#DejaVuSans-2212"/>
       <use x="83.789062" xlink:href="#DejaVuSans-31"/>
       <use x="147.412109" xlink:href="#DejaVuSans-30"/>
       <use x="211.035156" xlink:href="#DejaVuSans-30"/>
       <use x="274.658203" xlink:href="#DejaVuSans-30"/>
      </g>
     </g>
    </g>
    <g id="xtick_5">
     <g id="line2d_5">
      <g>
       <use style="stroke:#000000;stroke-width:0.8;" x="590.4" xlink:href="#m1dacdc5d1e" y="768.96"/>
      </g>
     </g>
     <g id="text_5">
      <!-- 0 -->
      <g transform="translate(587.21875 783.558437)scale(0.1 -0.1)">
       <use xlink:href="#DejaVuSans-30"/>
      </g>
     </g>
    </g>
    <g id="xtick_6">
     <g id="line2d_6">
      <g>
       <use style="stroke:#000000;stroke-width:0.8;" x="702" xlink:href="#m1dacdc5d1e" y="768.96"/>
      </g>
     </g>
     <g id="text_6">
      <!-- 1000 -->
      <g transform="translate(689.275 783.558437)scale(0.1 -0.1)">
       <use xlink:href="#DejaVuSans-31"/>
       <use x="63.623047" xlink:href="#DejaVuSans-30"/>
       <use x="127.246094" xlink:href="#DejaVuSans-30"/>
       <use x="190.869141" xlink:href="#DejaVuSans-30"/>
      </g>
     </g>
    </g>
    <g id="xtick_7">
     <g id="line2d_7">
      <g>
       <use style="stroke:#000000;stroke-width:0.8;" x="813.6" xlink:href="#m1dacdc5d1e" y="768.96"/>
      </g>
     </g>
     <g id="text_7">
      <!-- 2000 -->
      <g transform="translate(800.875 783.558437)scale(0.1 -0.1)">
       <use xlink:href="#DejaVuSans-32"/>
       <use x="63.623047" xlink:href="#DejaVuSans-30"/>
       <use x="127.246094" xlink:href="#DejaVuSans-30"/>
       <use x="190.869141" xlink:href="#DejaVuSans-30"/>
      </g>
     </g>
    </g>
    <g id="xtick_8">
     <g id="line2d_8">
      <g>
       <use style="stroke:#000000;stroke-width:0.8;" x="925.2" xlink:href="#m1dacdc5d1e" y="768.96"/>
      </g>
     </g>
     <g id="text_8">
      <!-- 3000 -->
      <g transform="translate(912.475 783.558437)scale(0.1 -0.1)">
       <use xlink:href="#DejaVuSans-33"/>
       <use x="63.623047" xlink:href="#DejaVuSans-30"/>
       <use x="127.246094" xlink:href="#DejaVuSans-30"/>
       <use x="190.869141" xlink:href="#DejaVuSans-30"/>
      </g>
     </g>
    </g>
    <g id="xtick_9">
     <g id="line2d_9">
      <g>
       <use style="stroke:#000000;stroke-width:0.8;" x="1036.8" xlink:href="#m1dacdc5d1e" y="768.96"/>
      </g>
     </g>
     <g id="text_9">
      <!-- 4000 -->
      <g transform="translate(1024.075 783.558437)scale(0.1 -0.1)">
       <use xlink:href="#DejaVuSans-34"/>
       <use x="63.623047" xlink:href="#DejaVuSans-30"/>
       <use x="127.246094" xlink:href="#DejaVuSans-30"/>
       <use x="190.869141" xlink:href="#DejaVuSans-30"/>
      </g>
     </g>
    </g>
   </g>
   <g id="matplotlib.axis_2">
    <g id="ytick_1">
     <g id="line2d_10">
      <defs>
       <path d="M 0 0 
L -3.5 0 
" id="m109fd38c38" style="stroke:#000000;stroke-width:0.8;"/>
      </defs>
      <g>
       <use style="stroke:#000000;stroke-width:0.8;" x="144" xlink:href="#m109fd38c38" y="768.96"/>
      </g>
     </g>
     <g id="text_10">
      <!-- −4000 -->
      <g transform="translate(103.170312 772.759219)scale(0.1 -0.1)">
       <use xlink:href="#DejaVuSans-2212"/>
       <use x="83.789062" xlink:href="#DejaVuSans-34"/>
       <use x="147.412109" xlink:href="#DejaVuSans-30"/>
       <use x="211.035156" xlink:href="#DejaVuSans-30"/>
       <use x="274.658203" xlink:href="#DejaVuSans-30"/>
      </g>
     </g>
    </g>
    <g id="ytick_2">
     <g id="line2d_11">
      <g>
       <use style="stroke:#000000;stroke-width:0.8;" x="144" xlink:href="#m109fd38c38" y="685.8"/>
      </g>
     </g>
     <g id="text_11">
      <!-- −3000 -->
      <g transform="translate(103.170312 689.599219)scale(0.1 -0.1)">
       <use xlink:href="#DejaVuSans-2212"/>
       <use x="83.789062" xlink:href="#DejaVuSans-33"/>
       <use x="147.412109" xlink:href="#DejaVuSans-30"/>
       <use x="211.035156" xlink:href="#DejaVuSans-30"/>
       <use x="274.658203" xlink:href="#DejaVuSans-30"/>
      </g>
     </g>
    </g>
    <g id="ytick_3">
     <g id="line2d_12">
      <g>
       <use style="stroke:#000000;stroke-width:0.8;" x="144" xlink:href="#m109fd38c38" y="602.64"/>
      </g>
     </g>
     <g id="text_12">
      <!-- −2000 -->
      <g transform="translate(103.170312 606.439219)scale(0.1 -0.1)">
       <use xlink:href="#DejaVuSans-2212"/>
       <use x="83.789062" xlink:href="#DejaVuSans-32"/>
       <use x="147.412109" xlink:href="#DejaVuSans-30"/>
       <use x="211.035156" xlink:href="#DejaVuSans-30"/>
       <use x="274.658203" xlink:href="#DejaVuSans-30"/>
      </g>
     </g>
    </g>
    <g id="ytick_4">
     <g id="line2d_13">
      <g>
       <use style="stroke:#000000;stroke-width:0.8;" x="144" xlink:href="#m109fd38c38" y="519.48"/>
      </g>
     </g>
     <g id="text_13">
      <!-- −1000 -->
      <g transform="translate(103.170312 523.279219)scale(0.1 -0.1)">
       <use xlink:href="#DejaVuSans-2212"/>
       <use x="83.789062" xlink:href="#DejaVuSans-31"/>
       <use x="147.412109" xlink:href="#DejaVuSans-30"/>
       <use x="211.035156" xlink:href="#DejaVuSans-30"/>
       <use x="274.658203" xlink:href="#DejaVuSans-30"/>
      </g>
     </g>
    </g>
    <g id="ytick_5">
     <g id="line2d_14">
      <g>
       <use style="stroke:#000000;stroke-width:0.8;" x="144" xlink:href="#m109fd38c38" y="436.32"/>
      </g>
     </g>
     <g id="text_14">
      <!-- 0 -->
      <g transform="translate(130.6375 440.119219)scale(0.1 -0.1)">
       <use xlink:href="#DejaVuSans-30"/>
      </g>
     </g>
    </g>
    <g id="ytick_6">
     <g id="line2d_15">
      <g>
       <use style="stroke:#000000;stroke-width:0.8;" x="144" xlink:href="#m109fd38c38" y="353.16"/>
      </g>
     </g>
     <g id="text_15">
      <!-- 1000 -->
      <g transform="translate(111.55 356.959219)scale(0.1 -0.1)">
       <use xlink:href="#DejaVuSans-31"/>
       <use x="63.623047" xlink:href="#DejaVuSans-30"/>
       <use x="127.246094" xlink:href="#DejaVuSans-30"/>
       <use x="190.869141" xlink:href="#DejaVuSans-30"/>
      </g>
     </g>
    </g>
    <g id="ytick_7">
     <g id="line2d_16">
      <g>
       <use style="stroke:#000000;stroke-width:0.8;" x="144" xlink:href="#m109fd38c38" y="270"/>
      </g>
     </g>
     <g id="text_16">
      <!-- 2000 -->
      <g transform="translate(111.55 273.799219)scale(0.1 -0.1)">
       <use xlink:href="#DejaVuSans-32"/>
       <use x="63.623047" xlink:href="#DejaVuSans-30"/>
       <use x="127.246094" xlink:href="#DejaVuSans-30"/>
       <use x="190.869141" xlink:href="#DejaVuSans-30"/>
      </g>
     </g>
    </g>
    <g id="ytick_8">
     <g id="line2d_17">
      <g>
       <use style="stroke:#000000;stroke-width:0.8;" x="144" xlink:href="#m109fd38c38" y="186.84"/>
      </g>
     </g>
     <g id="text_17">
      <!-- 3000 -->
      <g transform="translate(111.55 190.639219)scale(0.1 -0.1)">
       <use xlink:href="#DejaVuSans-33"/>
       <use x="63.623047" xlink:href="#DejaVuSans-30"/>
       <use x="127.246094" xlink:href="#DejaVuSans-30"/>
       <use x="190.869141" xlink:href="#DejaVuSans-30"/>
      </g>
     </g>
    </g>
    <g id="ytick_9">
     <g id="line2d_18">
      <g>
       <use style="stroke:#000000;stroke-width:0.8;" x="144" xlink:href="#m109fd38c38" y="103.68"/>
      </g>
     </g>
     <g id="text_18">
      <!-- 4000 -->
      <g transform="translate(111.55 107.479219)scale(0.1 -0.1)">
       <use xlink:href="#DejaVuSans-34"/>
       <use x="63.623047" xlink:href="#DejaVuSans-30"/>
       <use x="127.246094" xlink:href="#DejaVuSans-30"/>
       <use x="190.869141" xlink:href="#DejaVuSans-30"/>
      </g>
     </g>
    </g>
   </g>
   <g id="line2d_19">
    <path clip-path="url(#p11ac417617)" d="M 590.4 768.96 
L 590.4 103.68 
" style="fill:none;stroke:#1f77b4;stroke-linecap:square;stroke-width:1.5;"/>
   </g>
   <g id="line2d_20">
    <path clip-path="url(#p11ac417617)" d="M 144 436.32 
L 1036.8 436.32 
" style="fill:none;stroke:#1f77b4;stroke-linecap:square;stroke-width:1.5;"/>
   </g>
   <g id="line2d_21">
    <defs>
     <path d="M 0 3 
C 0.795609 3 1.55874 2.683901 2.12132 2.12132 
C 2.683901 1.55874 3 0.795609 3 0 
C 3 -0.795609 2.683901 -1.55874 2.12132 -2.12132 
C 1.55874 -2.683901 0.795609 -3 0 -3 
C -0.795609 -3 -1.55874 -2.683901 -2.12132 -2.12132 
C -2.683901 -1.55874 -3 -0.795609 -3 0 
C -3 0.795609 -2.683901 1.55874 -2.12132 2.12132 
C -1.55874 2.683901 -0.795609 3 0 3 
z
" id="m959e1ee73b" style="stroke:#008000;"/>
    </defs>
    <g clip-path="url(#p11ac417617)">
     <use style="fill:#008000;stroke:#008000;" x="1388.990399" xlink:href="#m959e1ee73b" y="504.942722"/>
    </g>
   </g>
   <g id="line2d_22">
    <g clip-path="url(#p11ac417617)">
     <use style="fill:#008000;stroke:#008000;" x="648.244483" xlink:href="#m959e1ee73b" y="394.387695"/>
    </g>
   </g>
   <g id="line2d_23">
    <g clip-path="url(#p11ac417617)">
     <use style="fill:#008000;stroke:#008000;" x="648.244483" xlink:href="#m959e1ee73b" y="394.387695"/>
    </g>
   </g>
   <g id="line2d_24">
    <g clip-path="url(#p11ac417617)">
     <use style="fill:#008000;stroke:#008000;" x="747.851104" xlink:href="#m959e1ee73b" y="197.503124"/>
    </g>
   </g>
   <g id="line2d_25">
    <g clip-path="url(#p11ac417617)">
     <use style="fill:#008000;stroke:#008000;" x="384.744494" xlink:href="#m959e1ee73b" y="279.69315"/>
    </g>
   </g>
   <g id="line2d_26">
    <g clip-path="url(#p11ac417617)">
     <use style="fill:#008000;stroke:#008000;" x="403.073443" xlink:href="#m959e1ee73b" y="445.430884"/>
    </g>
   </g>
   <g id="line2d_27">
    <g clip-path="url(#p11ac417617)">
     <use style="fill:#008000;stroke:#008000;" x="441.968453" xlink:href="#m959e1ee73b" y="515.487472"/>
    </g>
   </g>
   <g id="line2d_28">
    <g clip-path="url(#p11ac417617)">
     <use style="fill:#008000;stroke:#008000;" x="462.931673" xlink:href="#m959e1ee73b" y="587.637355"/>
    </g>
   </g>
   <g id="line2d_29">
    <g clip-path="url(#p11ac417617)">
     <use style="fill:#008000;stroke:#008000;" x="462.931673" xlink:href="#m959e1ee73b" y="587.637355"/>
    </g>
   </g>
   <g id="line2d_30">
    <g clip-path="url(#p11ac417617)">
     <use style="fill:#008000;stroke:#008000;" x="632.066517" xlink:href="#m959e1ee73b" y="635.157723"/>
    </g>
   </g>
   <g id="line2d_31">
    <defs>
     <path d="M 0 1.333333 
C 0.353604 1.333333 0.692773 1.192845 0.942809 0.942809 
C 1.192845 0.692773 1.333333 0.353604 1.333333 0 
C 1.333333 -0.353604 1.192845 -0.692773 0.942809 -0.942809 
C 0.692773 -1.192845 0.353604 -1.333333 0 -1.333333 
C -0.353604 -1.333333 -0.692773 -1.192845 -0.942809 -0.942809 
C -1.192845 -0.692773 -1.333333 -0.353604 -1.333333 0 
C -1.333333 0.353604 -1.192845 0.692773 -0.942809 0.942809 
C -0.692773 1.192845 -0.353604 1.333333 0 1.333333 
z
" id="m0d729a38d2" style="stroke:#ff0000;"/>
    </defs>
    <g clip-path="url(#p11ac417617)">
     <use style="fill:#ff0000;stroke:#ff0000;" x="1388.990399" xlink:href="#m0d729a38d2" y="504.942722"/>
     <use style="fill:#ff0000;stroke:#ff0000;" x="1287.073421" xlink:href="#m0d729a38d2" y="351.046853"/>
     <use style="fill:#ff0000;stroke:#ff0000;" x="1271.132536" xlink:href="#m0d729a38d2" y="328.210309"/>
     <use style="fill:#ff0000;stroke:#ff0000;" x="1361.433175" xlink:href="#m0d729a38d2" y="286.394746"/>
     <use style="fill:#ff0000;stroke:#ff0000;" x="1315.547225" xlink:href="#m0d729a38d2" y="268.051535"/>
     <use style="fill:#ff0000;stroke:#ff0000;" x="653.496999" xlink:href="#m0d729a38d2" y="400.160694"/>
     <use style="fill:#ff0000;stroke:#ff0000;" x="642.036046" xlink:href="#m0d729a38d2" y="389.042368"/>
     <use style="fill:#ff0000;stroke:#ff0000;" x="804.602218" xlink:href="#m0d729a38d2" y="188.021578"/>
     <use style="fill:#ff0000;stroke:#ff0000;" x="779.618512" xlink:href="#m0d729a38d2" y="193.786881"/>
     <use style="fill:#ff0000;stroke:#ff0000;" x="758.211174" xlink:href="#m0d729a38d2" y="196.108117"/>
     <use style="fill:#ff0000;stroke:#ff0000;" x="737.671076" xlink:href="#m0d729a38d2" y="199.125207"/>
     <use style="fill:#ff0000;stroke:#ff0000;" x="384.744494" xlink:href="#m0d729a38d2" y="279.69315"/>
     <use style="fill:#ff0000;stroke:#ff0000;" x="417.334472" xlink:href="#m0d729a38d2" y="316.782486"/>
     <use style="fill:#ff0000;stroke:#ff0000;" x="427.905875" xlink:href="#m0d729a38d2" y="343.723107"/>
     <use style="fill:#ff0000;stroke:#ff0000;" x="401.180697" xlink:href="#m0d729a38d2" y="365.105983"/>
     <use style="fill:#ff0000;stroke:#ff0000;" x="454.56065" xlink:href="#m0d729a38d2" y="391.847036"/>
     <use style="fill:#ff0000;stroke:#ff0000;" x="435.122442" xlink:href="#m0d729a38d2" y="414.907644"/>
     <use style="fill:#ff0000;stroke:#ff0000;" x="417.936424" xlink:href="#m0d729a38d2" y="424.405262"/>
     <use style="fill:#ff0000;stroke:#ff0000;" x="410.972283" xlink:href="#m0d729a38d2" y="442.047991"/>
     <use style="fill:#ff0000;stroke:#ff0000;" x="395.291961" xlink:href="#m0d729a38d2" y="449.079663"/>
     <use style="fill:#ff0000;stroke:#ff0000;" x="434.074869" xlink:href="#m0d729a38d2" y="515.540519"/>
     <use style="fill:#ff0000;stroke:#ff0000;" x="449.765543" xlink:href="#m0d729a38d2" y="515.199387"/>
     <use style="fill:#ff0000;stroke:#ff0000;" x="467.566968" xlink:href="#m0d729a38d2" y="512.40283"/>
     <use style="fill:#ff0000;stroke:#ff0000;" x="456.433744" xlink:href="#m0d729a38d2" y="526.847035"/>
     <use style="fill:#ff0000;stroke:#ff0000;" x="472.288688" xlink:href="#m0d729a38d2" y="541.616151"/>
     <use style="fill:#ff0000;stroke:#ff0000;" x="453.644855" xlink:href="#m0d729a38d2" y="583.12943"/>
     <use style="fill:#ff0000;stroke:#ff0000;" x="472.485338" xlink:href="#m0d729a38d2" y="591.81947"/>
     <use style="fill:#ff0000;stroke:#ff0000;" x="550.050559" xlink:href="#m0d729a38d2" y="498.611596"/>
     <use style="fill:#ff0000;stroke:#ff0000;" x="599.593671" xlink:href="#m0d729a38d2" y="499.672012"/>
     <use style="fill:#ff0000;stroke:#ff0000;" x="626.724304" xlink:href="#m0d729a38d2" y="640.626054"/>
     <use style="fill:#ff0000;stroke:#ff0000;" x="637.088604" xlink:href="#m0d729a38d2" y="629.617201"/>
     <use style="fill:#ff0000;stroke:#ff0000;" x="644.870807" xlink:href="#m0d729a38d2" y="613.454432"/>
     <use style="fill:#ff0000;stroke:#ff0000;" x="661.642369" xlink:href="#m0d729a38d2" y="627.139379"/>
     <use style="fill:#ff0000;stroke:#ff0000;" x="666.945026" xlink:href="#m0d729a38d2" y="609.4531"/>
     <use style="fill:#ff0000;stroke:#ff0000;" x="670.820856" xlink:href="#m0d729a38d2" y="593.072412"/>
     <use style="fill:#ff0000;stroke:#ff0000;" x="696.614907" xlink:href="#m0d729a38d2" y="597.035639"/>
     <use style="fill:#ff0000;stroke:#ff0000;" x="760.114594" xlink:href="#m0d729a38d2" y="591.018995"/>
     <use style="fill:#ff0000;stroke:#ff0000;" x="803.747248" xlink:href="#m0d729a38d2" y="583.599782"/>
     <use style="fill:#ff0000;stroke:#ff0000;" x="848.233463" xlink:href="#m0d729a38d2" y="569.992017"/>
     <use style="fill:#ff0000;stroke:#ff0000;" x="876.290713" xlink:href="#m0d729a38d2" y="570.572488"/>
     <use style="fill:#ff0000;stroke:#ff0000;" x="901.005856" xlink:href="#m0d729a38d2" y="553.853159"/>
     <use style="fill:#ff0000;stroke:#ff0000;" x="937.943155" xlink:href="#m0d729a38d2" y="553.32004"/>
     <use style="fill:#ff0000;stroke:#ff0000;" x="965.302129" xlink:href="#m0d729a38d2" y="547.42127"/>
     <use style="fill:#ff0000;stroke:#ff0000;" x="1059.122878" xlink:href="#m0d729a38d2" y="539.36542"/>
     <use style="fill:#ff0000;stroke:#ff0000;" x="1085.209061" xlink:href="#m0d729a38d2" y="526.863167"/>
     <use style="fill:#ff0000;stroke:#ff0000;" x="1093.976351" xlink:href="#m0d729a38d2" y="510.110309"/>
    </g>
   </g>
   <g id="line2d_32">
    <defs>
     <path d="M -0.5 0.5 
L 0.5 0.5 
L 0.5 -0.5 
L -0.5 -0.5 
z
" id="m1e0b9a244a" style="stroke:#1f77b4;stroke-linejoin:miter;"/>
    </defs>
    <g clip-path="url(#p11ac417617)">
     <use style="fill:#1f77b4;stroke:#1f77b4;stroke-linejoin:miter;" x="1388.990399" xlink:href="#m1e0b9a244a" y="504.942722"/>
     <use style="fill:#1f77b4;stroke:#1f77b4;stroke-linejoin:miter;" x="1287.073421" xlink:href="#m1e0b9a244a" y="351.046853"/>
     <use style="fill:#1f77b4;stroke:#1f77b4;stroke-linejoin:miter;" x="1271.132536" xlink:href="#m1e0b9a244a" y="328.210309"/>
     <use style="fill:#1f77b4;stroke:#1f77b4;stroke-linejoin:miter;" x="1361.433175" xlink:href="#m1e0b9a244a" y="286.394746"/>
     <use style="fill:#1f77b4;stroke:#1f77b4;stroke-linejoin:miter;" x="1315.547225" xlink:href="#m1e0b9a244a" y="268.051535"/>
     <use style="fill:#1f77b4;stroke:#1f77b4;stroke-linejoin:miter;" x="653.496999" xlink:href="#m1e0b9a244a" y="400.160694"/>
     <use style="fill:#1f77b4;stroke:#1f77b4;stroke-linejoin:miter;" x="649.657066" xlink:href="#m1e0b9a244a" y="398.835648"/>
     <use style="fill:#1f77b4;stroke:#1f77b4;stroke-linejoin:miter;" x="646.476384" xlink:href="#m1e0b9a244a" y="397.268665"/>
     <use style="fill:#1f77b4;stroke:#1f77b4;stroke-linejoin:miter;" x="644.965596" xlink:href="#m1e0b9a244a" y="394.603934"/>
     <use style="fill:#1f77b4;stroke:#1f77b4;stroke-linejoin:miter;" x="642.249066" xlink:href="#m1e0b9a244a" y="392.889274"/>
     <use style="fill:#1f77b4;stroke:#1f77b4;stroke-linejoin:miter;" x="642.036046" xlink:href="#m1e0b9a244a" y="389.042368"/>
     <use style="fill:#1f77b4;stroke:#1f77b4;stroke-linejoin:miter;" x="804.602218" xlink:href="#m1e0b9a244a" y="188.021578"/>
     <use style="fill:#1f77b4;stroke:#1f77b4;stroke-linejoin:miter;" x="779.618512" xlink:href="#m1e0b9a244a" y="193.786881"/>
     <use style="fill:#1f77b4;stroke:#1f77b4;stroke-linejoin:miter;" x="758.211174" xlink:href="#m1e0b9a244a" y="196.108117"/>
     <use style="fill:#1f77b4;stroke:#1f77b4;stroke-linejoin:miter;" x="737.671076" xlink:href="#m1e0b9a244a" y="199.125207"/>
     <use style="fill:#1f77b4;stroke:#1f77b4;stroke-linejoin:miter;" x="718.413883" xlink:href="#m1e0b9a244a" y="202.425662"/>
     <use style="fill:#1f77b4;stroke:#1f77b4;stroke-linejoin:miter;" x="700.184793" xlink:href="#m1e0b9a244a" y="205.503153"/>
     <use style="fill:#1f77b4;stroke:#1f77b4;stroke-linejoin:miter;" x="683.246277" xlink:href="#m1e0b9a244a" y="208.246132"/>
     <use style="fill:#1f77b4;stroke:#1f77b4;stroke-linejoin:miter;" x="666.871653" xlink:href="#m1e0b9a244a" y="211.174185"/>
     <use style="fill:#1f77b4;stroke:#1f77b4;stroke-linejoin:miter;" x="651.923236" xlink:href="#m1e0b9a244a" y="212.548167"/>
     <use style="fill:#1f77b4;stroke:#1f77b4;stroke-linejoin:miter;" x="636.954779" xlink:href="#m1e0b9a244a" y="214.947051"/>
     <use style="fill:#1f77b4;stroke:#1f77b4;stroke-linejoin:miter;" x="621.862775" xlink:href="#m1e0b9a244a" y="217.280292"/>
     <use style="fill:#1f77b4;stroke:#1f77b4;stroke-linejoin:miter;" x="607.807181" xlink:href="#m1e0b9a244a" y="219.389583"/>
     <use style="fill:#1f77b4;stroke:#1f77b4;stroke-linejoin:miter;" x="594.054588" xlink:href="#m1e0b9a244a" y="223.863653"/>
     <use style="fill:#1f77b4;stroke:#1f77b4;stroke-linejoin:miter;" x="581.03517" xlink:href="#m1e0b9a244a" y="224.917684"/>
     <use style="fill:#1f77b4;stroke:#1f77b4;stroke-linejoin:miter;" x="567.895813" xlink:href="#m1e0b9a244a" y="226.177426"/>
     <use style="fill:#1f77b4;stroke:#1f77b4;stroke-linejoin:miter;" x="555.077817" xlink:href="#m1e0b9a244a" y="229.42221"/>
     <use style="fill:#1f77b4;stroke:#1f77b4;stroke-linejoin:miter;" x="542.929781" xlink:href="#m1e0b9a244a" y="233.772475"/>
     <use style="fill:#1f77b4;stroke:#1f77b4;stroke-linejoin:miter;" x="530.554202" xlink:href="#m1e0b9a244a" y="235.941924"/>
     <use style="fill:#1f77b4;stroke:#1f77b4;stroke-linejoin:miter;" x="518.09057" xlink:href="#m1e0b9a244a" y="238.043344"/>
     <use style="fill:#1f77b4;stroke:#1f77b4;stroke-linejoin:miter;" x="505.288132" xlink:href="#m1e0b9a244a" y="239.116019"/>
     <use style="fill:#1f77b4;stroke:#1f77b4;stroke-linejoin:miter;" x="492.792702" xlink:href="#m1e0b9a244a" y="241.62443"/>
     <use style="fill:#1f77b4;stroke:#1f77b4;stroke-linejoin:miter;" x="479.55492" xlink:href="#m1e0b9a244a" y="242.906854"/>
     <use style="fill:#1f77b4;stroke:#1f77b4;stroke-linejoin:miter;" x="466.734998" xlink:href="#m1e0b9a244a" y="245.538494"/>
     <use style="fill:#1f77b4;stroke:#1f77b4;stroke-linejoin:miter;" x="453.895427" xlink:href="#m1e0b9a244a" y="248.734975"/>
     <use style="fill:#1f77b4;stroke:#1f77b4;stroke-linejoin:miter;" x="440.136074" xlink:href="#m1e0b9a244a" y="250.772432"/>
     <use style="fill:#1f77b4;stroke:#1f77b4;stroke-linejoin:miter;" x="425.460142" xlink:href="#m1e0b9a244a" y="252.376979"/>
     <use style="fill:#1f77b4;stroke:#1f77b4;stroke-linejoin:miter;" x="419.612161" xlink:href="#m1e0b9a244a" y="263.742066"/>
     <use style="fill:#1f77b4;stroke:#1f77b4;stroke-linejoin:miter;" x="403.042272" xlink:href="#m1e0b9a244a" y="264.201986"/>
     <use style="fill:#1f77b4;stroke:#1f77b4;stroke-linejoin:miter;" x="393.657937" xlink:href="#m1e0b9a244a" y="272.063457"/>
     <use style="fill:#1f77b4;stroke:#1f77b4;stroke-linejoin:miter;" x="384.744494" xlink:href="#m1e0b9a244a" y="279.69315"/>
     <use style="fill:#1f77b4;stroke:#1f77b4;stroke-linejoin:miter;" x="417.334472" xlink:href="#m1e0b9a244a" y="316.782486"/>
     <use style="fill:#1f77b4;stroke:#1f77b4;stroke-linejoin:miter;" x="427.905875" xlink:href="#m1e0b9a244a" y="343.723107"/>
     <use style="fill:#1f77b4;stroke:#1f77b4;stroke-linejoin:miter;" x="417.943127" xlink:href="#m1e0b9a244a" y="347.170699"/>
     <use style="fill:#1f77b4;stroke:#1f77b4;stroke-linejoin:miter;" x="419.687431" xlink:href="#m1e0b9a244a" y="356.638295"/>
     <use style="fill:#1f77b4;stroke:#1f77b4;stroke-linejoin:miter;" x="405.627017" xlink:href="#m1e0b9a244a" y="358.470753"/>
     <use style="fill:#1f77b4;stroke:#1f77b4;stroke-linejoin:miter;" x="401.180697" xlink:href="#m1e0b9a244a" y="365.105983"/>
     <use style="fill:#1f77b4;stroke:#1f77b4;stroke-linejoin:miter;" x="454.56065" xlink:href="#m1e0b9a244a" y="391.847036"/>
     <use style="fill:#1f77b4;stroke:#1f77b4;stroke-linejoin:miter;" x="456.300668" xlink:href="#m1e0b9a244a" y="397.868317"/>
     <use style="fill:#1f77b4;stroke:#1f77b4;stroke-linejoin:miter;" x="457.085884" xlink:href="#m1e0b9a244a" y="403.321943"/>
     <use style="fill:#1f77b4;stroke:#1f77b4;stroke-linejoin:miter;" x="458.439824" xlink:href="#m1e0b9a244a" y="408.761229"/>
     <use style="fill:#1f77b4;stroke:#1f77b4;stroke-linejoin:miter;" x="453.858725" xlink:href="#m1e0b9a244a" y="412.801025"/>
     <use style="fill:#1f77b4;stroke:#1f77b4;stroke-linejoin:miter;" x="435.122442" xlink:href="#m1e0b9a244a" y="414.907644"/>
     <use style="fill:#1f77b4;stroke:#1f77b4;stroke-linejoin:miter;" x="417.936424" xlink:href="#m1e0b9a244a" y="424.405262"/>
     <use style="fill:#1f77b4;stroke:#1f77b4;stroke-linejoin:miter;" x="419.438848" xlink:href="#m1e0b9a244a" y="430.514201"/>
     <use style="fill:#1f77b4;stroke:#1f77b4;stroke-linejoin:miter;" x="420.573009" xlink:href="#m1e0b9a244a" y="436.078424"/>
     <use style="fill:#1f77b4;stroke:#1f77b4;stroke-linejoin:miter;" x="410.972283" xlink:href="#m1e0b9a244a" y="442.047991"/>
     <use style="fill:#1f77b4;stroke:#1f77b4;stroke-linejoin:miter;" x="395.291961" xlink:href="#m1e0b9a244a" y="449.079663"/>
     <use style="fill:#1f77b4;stroke:#1f77b4;stroke-linejoin:miter;" x="397.587641" xlink:href="#m1e0b9a244a" y="455.634096"/>
     <use style="fill:#1f77b4;stroke:#1f77b4;stroke-linejoin:miter;" x="400.287043" xlink:href="#m1e0b9a244a" y="462.216543"/>
     <use style="fill:#1f77b4;stroke:#1f77b4;stroke-linejoin:miter;" x="401.961139" xlink:href="#m1e0b9a244a" y="468.576603"/>
     <use style="fill:#1f77b4;stroke:#1f77b4;stroke-linejoin:miter;" x="404.076433" xlink:href="#m1e0b9a244a" y="475.109624"/>
     <use style="fill:#1f77b4;stroke:#1f77b4;stroke-linejoin:miter;" x="404.278091" xlink:href="#m1e0b9a244a" y="482.095319"/>
     <use style="fill:#1f77b4;stroke:#1f77b4;stroke-linejoin:miter;" x="406.954944" xlink:href="#m1e0b9a244a" y="488.450855"/>
     <use style="fill:#1f77b4;stroke:#1f77b4;stroke-linejoin:miter;" x="408.255431" xlink:href="#m1e0b9a244a" y="495.600073"/>
     <use style="fill:#1f77b4;stroke:#1f77b4;stroke-linejoin:miter;" x="412.371169" xlink:href="#m1e0b9a244a" y="509.524043"/>
     <use style="fill:#1f77b4;stroke:#1f77b4;stroke-linejoin:miter;" x="434.074869" xlink:href="#m1e0b9a244a" y="515.540519"/>
     <use style="fill:#1f77b4;stroke:#1f77b4;stroke-linejoin:miter;" x="449.765543" xlink:href="#m1e0b9a244a" y="515.199387"/>
     <use style="fill:#1f77b4;stroke:#1f77b4;stroke-linejoin:miter;" x="467.566968" xlink:href="#m1e0b9a244a" y="512.40283"/>
     <use style="fill:#1f77b4;stroke:#1f77b4;stroke-linejoin:miter;" x="456.433744" xlink:href="#m1e0b9a244a" y="526.847035"/>
     <use style="fill:#1f77b4;stroke:#1f77b4;stroke-linejoin:miter;" x="456.930803" xlink:href="#m1e0b9a244a" y="535.235104"/>
     <use style="fill:#1f77b4;stroke:#1f77b4;stroke-linejoin:miter;" x="468.009976" xlink:href="#m1e0b9a244a" y="536.011291"/>
     <use style="fill:#1f77b4;stroke:#1f77b4;stroke-linejoin:miter;" x="472.288688" xlink:href="#m1e0b9a244a" y="541.616151"/>
     <use style="fill:#1f77b4;stroke:#1f77b4;stroke-linejoin:miter;" x="453.644855" xlink:href="#m1e0b9a244a" y="583.12943"/>
     <use style="fill:#1f77b4;stroke:#1f77b4;stroke-linejoin:miter;" x="460.03046" xlink:href="#m1e0b9a244a" y="591.128251"/>
     <use style="fill:#1f77b4;stroke:#1f77b4;stroke-linejoin:miter;" x="472.485338" xlink:href="#m1e0b9a244a" y="591.81947"/>
     <use style="fill:#1f77b4;stroke:#1f77b4;stroke-linejoin:miter;" x="550.050559" xlink:href="#m1e0b9a244a" y="498.611596"/>
     <use style="fill:#1f77b4;stroke:#1f77b4;stroke-linejoin:miter;" x="556.409995" xlink:href="#m1e0b9a244a" y="496.216053"/>
     <use style="fill:#1f77b4;stroke:#1f77b4;stroke-linejoin:miter;" x="562.513346" xlink:href="#m1e0b9a244a" y="493.027489"/>
     <use style="fill:#1f77b4;stroke:#1f77b4;stroke-linejoin:miter;" x="566.582488" xlink:href="#m1e0b9a244a" y="492.502244"/>
     <use style="fill:#1f77b4;stroke:#1f77b4;stroke-linejoin:miter;" x="570.293993" xlink:href="#m1e0b9a244a" y="492.850603"/>
     <use style="fill:#1f77b4;stroke:#1f77b4;stroke-linejoin:miter;" x="573.572083" xlink:href="#m1e0b9a244a" y="493.84647"/>
     <use style="fill:#1f77b4;stroke:#1f77b4;stroke-linejoin:miter;" x="576.695991" xlink:href="#m1e0b9a244a" y="496.435924"/>
     <use style="fill:#1f77b4;stroke:#1f77b4;stroke-linejoin:miter;" x="579.991262" xlink:href="#m1e0b9a244a" y="498.645832"/>
     <use style="fill:#1f77b4;stroke:#1f77b4;stroke-linejoin:miter;" x="583.733799" xlink:href="#m1e0b9a244a" y="500.556432"/>
     <use style="fill:#1f77b4;stroke:#1f77b4;stroke-linejoin:miter;" x="587.938021" xlink:href="#m1e0b9a244a" y="495.834291"/>
     <use style="fill:#1f77b4;stroke:#1f77b4;stroke-linejoin:miter;" x="591.750709" xlink:href="#m1e0b9a244a" y="494.897574"/>
     <use style="fill:#1f77b4;stroke:#1f77b4;stroke-linejoin:miter;" x="595.37189" xlink:href="#m1e0b9a244a" y="495.309742"/>
     <use style="fill:#1f77b4;stroke:#1f77b4;stroke-linejoin:miter;" x="599.593671" xlink:href="#m1e0b9a244a" y="499.672012"/>
     <use style="fill:#1f77b4;stroke:#1f77b4;stroke-linejoin:miter;" x="626.724304" xlink:href="#m1e0b9a244a" y="640.626054"/>
     <use style="fill:#1f77b4;stroke:#1f77b4;stroke-linejoin:miter;" x="637.088604" xlink:href="#m1e0b9a244a" y="629.617201"/>
     <use style="fill:#1f77b4;stroke:#1f77b4;stroke-linejoin:miter;" x="644.870807" xlink:href="#m1e0b9a244a" y="613.454432"/>
     <use style="fill:#1f77b4;stroke:#1f77b4;stroke-linejoin:miter;" x="661.642369" xlink:href="#m1e0b9a244a" y="627.139379"/>
     <use style="fill:#1f77b4;stroke:#1f77b4;stroke-linejoin:miter;" x="666.945026" xlink:href="#m1e0b9a244a" y="609.4531"/>
     <use style="fill:#1f77b4;stroke:#1f77b4;stroke-linejoin:miter;" x="670.820856" xlink:href="#m1e0b9a244a" y="593.072412"/>
     <use style="fill:#1f77b4;stroke:#1f77b4;stroke-linejoin:miter;" x="685.851276" xlink:href="#m1e0b9a244a" y="599.29192"/>
     <use style="fill:#1f77b4;stroke:#1f77b4;stroke-linejoin:miter;" x="696.614907" xlink:href="#m1e0b9a244a" y="597.035639"/>
     <use style="fill:#1f77b4;stroke:#1f77b4;stroke-linejoin:miter;" x="760.114594" xlink:href="#m1e0b9a244a" y="591.018995"/>
     <use style="fill:#1f77b4;stroke:#1f77b4;stroke-linejoin:miter;" x="772.219001" xlink:href="#m1e0b9a244a" y="587.203992"/>
     <use style="fill:#1f77b4;stroke:#1f77b4;stroke-linejoin:miter;" x="785.729566" xlink:href="#m1e0b9a244a" y="584.27332"/>
     <use style="fill:#1f77b4;stroke:#1f77b4;stroke-linejoin:miter;" x="803.747248" xlink:href="#m1e0b9a244a" y="583.599782"/>
     <use style="fill:#1f77b4;stroke:#1f77b4;stroke-linejoin:miter;" x="821.431386" xlink:href="#m1e0b9a244a" y="581.818896"/>
     <use style="fill:#1f77b4;stroke:#1f77b4;stroke-linejoin:miter;" x="833.908942" xlink:href="#m1e0b9a244a" y="575.475516"/>
     <use style="fill:#1f77b4;stroke:#1f77b4;stroke-linejoin:miter;" x="848.233463" xlink:href="#m1e0b9a244a" y="569.992017"/>
     <use style="fill:#1f77b4;stroke:#1f77b4;stroke-linejoin:miter;" x="876.290713" xlink:href="#m1e0b9a244a" y="570.572488"/>
     <use style="fill:#1f77b4;stroke:#1f77b4;stroke-linejoin:miter;" x="880.159" xlink:href="#m1e0b9a244a" y="558.791183"/>
     <use style="fill:#1f77b4;stroke:#1f77b4;stroke-linejoin:miter;" x="901.005856" xlink:href="#m1e0b9a244a" y="553.853159"/>
     <use style="fill:#1f77b4;stroke:#1f77b4;stroke-linejoin:miter;" x="937.943155" xlink:href="#m1e0b9a244a" y="553.32004"/>
     <use style="fill:#1f77b4;stroke:#1f77b4;stroke-linejoin:miter;" x="965.302129" xlink:href="#m1e0b9a244a" y="547.42127"/>
     <use style="fill:#1f77b4;stroke:#1f77b4;stroke-linejoin:miter;" x="1059.122878" xlink:href="#m1e0b9a244a" y="539.36542"/>
     <use style="fill:#1f77b4;stroke:#1f77b4;stroke-linejoin:miter;" x="1085.209061" xlink:href="#m1e0b9a244a" y="526.863167"/>
     <use style="fill:#1f77b4;stroke:#1f77b4;stroke-linejoin:miter;" x="1093.976351" xlink:href="#m1e0b9a244a" y="510.110309"/>
    </g>
   </g>
   <g id="patch_3">
    <path d="M 144 768.96 
L 144 103.68 
" style="fill:none;stroke:#000000;stroke-linecap:square;stroke-linejoin:miter;stroke-width:0.8;"/>
   </g>
   <g id="patch_4">
    <path d="M 1036.8 768.96 
L 1036.8 103.68 
" style="fill:none;stroke:#000000;stroke-linecap:square;stroke-linejoin:miter;stroke-width:0.8;"/>
   </g>
   <g id="patch_5">
    <path d="M 144 768.96 
L 1036.8 768.96 
" style="fill:none;stroke:#000000;stroke-linecap:square;stroke-linejoin:miter;stroke-width:0.8;"/>
   </g>
   <g id="patch_6">
    <path d="M 144 103.68 
L 1036.8 103.68 
" style="fill:none;stroke:#000000;stroke-linecap:square;stroke-linejoin:miter;stroke-width:0.8;"/>
   </g>
  </g>
 </g>
 <defs>
  <clipPath id="p11ac417617">
   <rect height="665.28" width="892.8" x="144" y="103.68"/>
  </clipPath>
 </defs>
</svg>
