<?xml version="1.0" encoding="utf-8" standalone="no"?>
<!DOCTYPE svg PUBLIC "-//W3C//DTD SVG 1.1//EN"
  "http://www.w3.org/Graphics/SVG/1.1/DTD/svg11.dtd">
<!-- Created with matplotlib (http://matplotlib.org/) -->
<svg height="864pt" version="1.1" viewBox="0 0 1152 864" width="1152pt" xmlns="http://www.w3.org/2000/svg" xmlns:xlink="http://www.w3.org/1999/xlink">
 <defs>
  <style type="text/css">
*{stroke-linecap:butt;stroke-linejoin:round;}
  </style>
 </defs>
 <g id="figure_1">
  <g id="patch_1">
   <path d="M 0 864 
L 1152 864 
L 1152 0 
L 0 0 
z
" style="fill:#ffffff;"/>
  </g>
  <g id="axes_1">
   <g id="patch_2">
    <path d="M 144 768.96 
L 1036.8 768.96 
L 1036.8 103.68 
L 144 103.68 
z
" style="fill:#ffffff;"/>
   </g>
   <g id="matplotlib.axis_1">
    <g id="xtick_1">
     <g id="line2d_1">
      <defs>
       <path d="M 0 0 
L 0 3.5 
" id="mc212e70c2a" style="stroke:#000000;stroke-width:0.8;"/>
      </defs>
      <g>
       <use style="stroke:#000000;stroke-width:0.8;" x="144" xlink:href="#mc212e70c2a" y="768.96"/>
      </g>
     </g>
     <g id="text_1">
      <!-- −4000 -->
      <defs>
       <path d="M 10.59375 35.5 
L 73.1875 35.5 
L 73.1875 27.203125 
L 10.59375 27.203125 
z
" id="DejaVuSans-2212"/>
       <path d="M 37.796875 64.3125 
L 12.890625 25.390625 
L 37.796875 25.390625 
z
M 35.203125 72.90625 
L 47.609375 72.90625 
L 47.609375 25.390625 
L 58.015625 25.390625 
L 58.015625 17.1875 
L 47.609375 17.1875 
L 47.609375 0 
L 37.796875 0 
L 37.796875 17.1875 
L 4.890625 17.1875 
L 4.890625 26.703125 
z
" id="DejaVuSans-34"/>
       <path d="M 31.78125 66.40625 
Q 24.171875 66.40625 20.328125 58.90625 
Q 16.5 51.421875 16.5 36.375 
Q 16.5 21.390625 20.328125 13.890625 
Q 24.171875 6.390625 31.78125 6.390625 
Q 39.453125 6.390625 43.28125 13.890625 
Q 47.125 21.390625 47.125 36.375 
Q 47.125 51.421875 43.28125 58.90625 
Q 39.453125 66.40625 31.78125 66.40625 
z
M 31.78125 74.21875 
Q 44.046875 74.21875 50.515625 64.515625 
Q 56.984375 54.828125 56.984375 36.375 
Q 56.984375 17.96875 50.515625 8.265625 
Q 44.046875 -1.421875 31.78125 -1.421875 
Q 19.53125 -1.421875 13.0625 8.265625 
Q 6.59375 17.96875 6.59375 36.375 
Q 6.59375 54.828125 13.0625 64.515625 
Q 19.53125 74.21875 31.78125 74.21875 
z
" id="DejaVuSans-30"/>
      </defs>
      <g transform="translate(127.085156 783.558437)scale(0.1 -0.1)">
       <use xlink:href="#DejaVuSans-2212"/>
       <use x="83.789062" xlink:href="#DejaVuSans-34"/>
       <use x="147.412109" xlink:href="#DejaVuSans-30"/>
       <use x="211.035156" xlink:href="#DejaVuSans-30"/>
       <use x="274.658203" xlink:href="#DejaVuSans-30"/>
      </g>
     </g>
    </g>
    <g id="xtick_2">
     <g id="line2d_2">
      <g>
       <use style="stroke:#000000;stroke-width:0.8;" x="255.6" xlink:href="#mc212e70c2a" y="768.96"/>
      </g>
     </g>
     <g id="text_2">
      <!-- −3000 -->
      <defs>
       <path d="M 40.578125 39.3125 
Q 47.65625 37.796875 51.625 33 
Q 55.609375 28.21875 55.609375 21.1875 
Q 55.609375 10.40625 48.1875 4.484375 
Q 40.765625 -1.421875 27.09375 -1.421875 
Q 22.515625 -1.421875 17.65625 -0.515625 
Q 12.796875 0.390625 7.625 2.203125 
L 7.625 11.71875 
Q 11.71875 9.328125 16.59375 8.109375 
Q 21.484375 6.890625 26.8125 6.890625 
Q 36.078125 6.890625 40.9375 10.546875 
Q 45.796875 14.203125 45.796875 21.1875 
Q 45.796875 27.640625 41.28125 31.265625 
Q 36.765625 34.90625 28.71875 34.90625 
L 20.21875 34.90625 
L 20.21875 43.015625 
L 29.109375 43.015625 
Q 36.375 43.015625 40.234375 45.921875 
Q 44.09375 48.828125 44.09375 54.296875 
Q 44.09375 59.90625 40.109375 62.90625 
Q 36.140625 65.921875 28.71875 65.921875 
Q 24.65625 65.921875 20.015625 65.03125 
Q 15.375 64.15625 9.8125 62.3125 
L 9.8125 71.09375 
Q 15.4375 72.65625 20.34375 73.4375 
Q 25.25 74.21875 29.59375 74.21875 
Q 40.828125 74.21875 47.359375 69.109375 
Q 53.90625 64.015625 53.90625 55.328125 
Q 53.90625 49.265625 50.4375 45.09375 
Q 46.96875 40.921875 40.578125 39.3125 
z
" id="DejaVuSans-33"/>
      </defs>
      <g transform="translate(238.685156 783.558437)scale(0.1 -0.1)">
       <use xlink:href="#DejaVuSans-2212"/>
       <use x="83.789062" xlink:href="#DejaVuSans-33"/>
       <use x="147.412109" xlink:href="#DejaVuSans-30"/>
       <use x="211.035156" xlink:href="#DejaVuSans-30"/>
       <use x="274.658203" xlink:href="#DejaVuSans-30"/>
      </g>
     </g>
    </g>
    <g id="xtick_3">
     <g id="line2d_3">
      <g>
       <use style="stroke:#000000;stroke-width:0.8;" x="367.2" xlink:href="#mc212e70c2a" y="768.96"/>
      </g>
     </g>
     <g id="text_3">
      <!-- −2000 -->
      <defs>
       <path d="M 19.1875 8.296875 
L 53.609375 8.296875 
L 53.609375 0 
L 7.328125 0 
L 7.328125 8.296875 
Q 12.9375 14.109375 22.625 23.890625 
Q 32.328125 33.6875 34.8125 36.53125 
Q 39.546875 41.84375 41.421875 45.53125 
Q 43.3125 49.21875 43.3125 52.78125 
Q 43.3125 58.59375 39.234375 62.25 
Q 35.15625 65.921875 28.609375 65.921875 
Q 23.96875 65.921875 18.8125 64.3125 
Q 13.671875 62.703125 7.8125 59.421875 
L 7.8125 69.390625 
Q 13.765625 71.78125 18.9375 73 
Q 24.125 74.21875 28.421875 74.21875 
Q 39.75 74.21875 46.484375 68.546875 
Q 53.21875 62.890625 53.21875 53.421875 
Q 53.21875 48.921875 51.53125 44.890625 
Q 49.859375 40.875 45.40625 35.40625 
Q 44.1875 33.984375 37.640625 27.21875 
Q 31.109375 20.453125 19.1875 8.296875 
z
" id="DejaVuSans-32"/>
      </defs>
      <g transform="translate(350.285156 783.558437)scale(0.1 -0.1)">
       <use xlink:href="#DejaVuSans-2212"/>
       <use x="83.789062" xlink:href="#DejaVuSans-32"/>
       <use x="147.412109" xlink:href="#DejaVuSans-30"/>
       <use x="211.035156" xlink:href="#DejaVuSans-30"/>
       <use x="274.658203" xlink:href="#DejaVuSans-30"/>
      </g>
     </g>
    </g>
    <g id="xtick_4">
     <g id="line2d_4">
      <g>
       <use style="stroke:#000000;stroke-width:0.8;" x="478.8" xlink:href="#mc212e70c2a" y="768.96"/>
      </g>
     </g>
     <g id="text_4">
      <!-- −1000 -->
      <defs>
       <path d="M 12.40625 8.296875 
L 28.515625 8.296875 
L 28.515625 63.921875 
L 10.984375 60.40625 
L 10.984375 69.390625 
L 28.421875 72.90625 
L 38.28125 72.90625 
L 38.28125 8.296875 
L 54.390625 8.296875 
L 54.390625 0 
L 12.40625 0 
z
" id="DejaVuSans-31"/>
      </defs>
      <g transform="translate(461.885156 783.558437)scale(0.1 -0.1)">
       <use xlink:href="#DejaVuSans-2212"/>
       <use x="83.789062" xlink:href="#DejaVuSans-31"/>
       <use x="147.412109" xlink:href="#DejaVuSans-30"/>
       <use x="211.035156" xlink:href="#DejaVuSans-30"/>
       <use x="274.658203" xlink:href="#DejaVuSans-30"/>
      </g>
     </g>
    </g>
    <g id="xtick_5">
     <g id="line2d_5">
      <g>
       <use style="stroke:#000000;stroke-width:0.8;" x="590.4" xlink:href="#mc212e70c2a" y="768.96"/>
      </g>
     </g>
     <g id="text_5">
      <!-- 0 -->
      <g transform="translate(587.21875 783.558437)scale(0.1 -0.1)">
       <use xlink:href="#DejaVuSans-30"/>
      </g>
     </g>
    </g>
    <g id="xtick_6">
     <g id="line2d_6">
      <g>
       <use style="stroke:#000000;stroke-width:0.8;" x="702" xlink:href="#mc212e70c2a" y="768.96"/>
      </g>
     </g>
     <g id="text_6">
      <!-- 1000 -->
      <g transform="translate(689.275 783.558437)scale(0.1 -0.1)">
       <use xlink:href="#DejaVuSans-31"/>
       <use x="63.623047" xlink:href="#DejaVuSans-30"/>
       <use x="127.246094" xlink:href="#DejaVuSans-30"/>
       <use x="190.869141" xlink:href="#DejaVuSans-30"/>
      </g>
     </g>
    </g>
    <g id="xtick_7">
     <g id="line2d_7">
      <g>
       <use style="stroke:#000000;stroke-width:0.8;" x="813.6" xlink:href="#mc212e70c2a" y="768.96"/>
      </g>
     </g>
     <g id="text_7">
      <!-- 2000 -->
      <g transform="translate(800.875 783.558437)scale(0.1 -0.1)">
       <use xlink:href="#DejaVuSans-32"/>
       <use x="63.623047" xlink:href="#DejaVuSans-30"/>
       <use x="127.246094" xlink:href="#DejaVuSans-30"/>
       <use x="190.869141" xlink:href="#DejaVuSans-30"/>
      </g>
     </g>
    </g>
    <g id="xtick_8">
     <g id="line2d_8">
      <g>
       <use style="stroke:#000000;stroke-width:0.8;" x="925.2" xlink:href="#mc212e70c2a" y="768.96"/>
      </g>
     </g>
     <g id="text_8">
      <!-- 3000 -->
      <g transform="translate(912.475 783.558437)scale(0.1 -0.1)">
       <use xlink:href="#DejaVuSans-33"/>
       <use x="63.623047" xlink:href="#DejaVuSans-30"/>
       <use x="127.246094" xlink:href="#DejaVuSans-30"/>
       <use x="190.869141" xlink:href="#DejaVuSans-30"/>
      </g>
     </g>
    </g>
    <g id="xtick_9">
     <g id="line2d_9">
      <g>
       <use style="stroke:#000000;stroke-width:0.8;" x="1036.8" xlink:href="#mc212e70c2a" y="768.96"/>
      </g>
     </g>
     <g id="text_9">
      <!-- 4000 -->
      <g transform="translate(1024.075 783.558437)scale(0.1 -0.1)">
       <use xlink:href="#DejaVuSans-34"/>
       <use x="63.623047" xlink:href="#DejaVuSans-30"/>
       <use x="127.246094" xlink:href="#DejaVuSans-30"/>
       <use x="190.869141" xlink:href="#DejaVuSans-30"/>
      </g>
     </g>
    </g>
   </g>
   <g id="matplotlib.axis_2">
    <g id="ytick_1">
     <g id="line2d_10">
      <defs>
       <path d="M 0 0 
L -3.5 0 
" id="m44bc6ab941" style="stroke:#000000;stroke-width:0.8;"/>
      </defs>
      <g>
       <use style="stroke:#000000;stroke-width:0.8;" x="144" xlink:href="#m44bc6ab941" y="768.96"/>
      </g>
     </g>
     <g id="text_10">
      <!-- −4000 -->
      <g transform="translate(103.170312 772.759219)scale(0.1 -0.1)">
       <use xlink:href="#DejaVuSans-2212"/>
       <use x="83.789062" xlink:href="#DejaVuSans-34"/>
       <use x="147.412109" xlink:href="#DejaVuSans-30"/>
       <use x="211.035156" xlink:href="#DejaVuSans-30"/>
       <use x="274.658203" xlink:href="#DejaVuSans-30"/>
      </g>
     </g>
    </g>
    <g id="ytick_2">
     <g id="line2d_11">
      <g>
       <use style="stroke:#000000;stroke-width:0.8;" x="144" xlink:href="#m44bc6ab941" y="685.8"/>
      </g>
     </g>
     <g id="text_11">
      <!-- −3000 -->
      <g transform="translate(103.170312 689.599219)scale(0.1 -0.1)">
       <use xlink:href="#DejaVuSans-2212"/>
       <use x="83.789062" xlink:href="#DejaVuSans-33"/>
       <use x="147.412109" xlink:href="#DejaVuSans-30"/>
       <use x="211.035156" xlink:href="#DejaVuSans-30"/>
       <use x="274.658203" xlink:href="#DejaVuSans-30"/>
      </g>
     </g>
    </g>
    <g id="ytick_3">
     <g id="line2d_12">
      <g>
       <use style="stroke:#000000;stroke-width:0.8;" x="144" xlink:href="#m44bc6ab941" y="602.64"/>
      </g>
     </g>
     <g id="text_12">
      <!-- −2000 -->
      <g transform="translate(103.170312 606.439219)scale(0.1 -0.1)">
       <use xlink:href="#DejaVuSans-2212"/>
       <use x="83.789062" xlink:href="#DejaVuSans-32"/>
       <use x="147.412109" xlink:href="#DejaVuSans-30"/>
       <use x="211.035156" xlink:href="#DejaVuSans-30"/>
       <use x="274.658203" xlink:href="#DejaVuSans-30"/>
      </g>
     </g>
    </g>
    <g id="ytick_4">
     <g id="line2d_13">
      <g>
       <use style="stroke:#000000;stroke-width:0.8;" x="144" xlink:href="#m44bc6ab941" y="519.48"/>
      </g>
     </g>
     <g id="text_13">
      <!-- −1000 -->
      <g transform="translate(103.170312 523.279219)scale(0.1 -0.1)">
       <use xlink:href="#DejaVuSans-2212"/>
       <use x="83.789062" xlink:href="#DejaVuSans-31"/>
       <use x="147.412109" xlink:href="#DejaVuSans-30"/>
       <use x="211.035156" xlink:href="#DejaVuSans-30"/>
       <use x="274.658203" xlink:href="#DejaVuSans-30"/>
      </g>
     </g>
    </g>
    <g id="ytick_5">
     <g id="line2d_14">
      <g>
       <use style="stroke:#000000;stroke-width:0.8;" x="144" xlink:href="#m44bc6ab941" y="436.32"/>
      </g>
     </g>
     <g id="text_14">
      <!-- 0 -->
      <g transform="translate(130.6375 440.119219)scale(0.1 -0.1)">
       <use xlink:href="#DejaVuSans-30"/>
      </g>
     </g>
    </g>
    <g id="ytick_6">
     <g id="line2d_15">
      <g>
       <use style="stroke:#000000;stroke-width:0.8;" x="144" xlink:href="#m44bc6ab941" y="353.16"/>
      </g>
     </g>
     <g id="text_15">
      <!-- 1000 -->
      <g transform="translate(111.55 356.959219)scale(0.1 -0.1)">
       <use xlink:href="#DejaVuSans-31"/>
       <use x="63.623047" xlink:href="#DejaVuSans-30"/>
       <use x="127.246094" xlink:href="#DejaVuSans-30"/>
       <use x="190.869141" xlink:href="#DejaVuSans-30"/>
      </g>
     </g>
    </g>
    <g id="ytick_7">
     <g id="line2d_16">
      <g>
       <use style="stroke:#000000;stroke-width:0.8;" x="144" xlink:href="#m44bc6ab941" y="270"/>
      </g>
     </g>
     <g id="text_16">
      <!-- 2000 -->
      <g transform="translate(111.55 273.799219)scale(0.1 -0.1)">
       <use xlink:href="#DejaVuSans-32"/>
       <use x="63.623047" xlink:href="#DejaVuSans-30"/>
       <use x="127.246094" xlink:href="#DejaVuSans-30"/>
       <use x="190.869141" xlink:href="#DejaVuSans-30"/>
      </g>
     </g>
    </g>
    <g id="ytick_8">
     <g id="line2d_17">
      <g>
       <use style="stroke:#000000;stroke-width:0.8;" x="144" xlink:href="#m44bc6ab941" y="186.84"/>
      </g>
     </g>
     <g id="text_17">
      <!-- 3000 -->
      <g transform="translate(111.55 190.639219)scale(0.1 -0.1)">
       <use xlink:href="#DejaVuSans-33"/>
       <use x="63.623047" xlink:href="#DejaVuSans-30"/>
       <use x="127.246094" xlink:href="#DejaVuSans-30"/>
       <use x="190.869141" xlink:href="#DejaVuSans-30"/>
      </g>
     </g>
    </g>
    <g id="ytick_9">
     <g id="line2d_18">
      <g>
       <use style="stroke:#000000;stroke-width:0.8;" x="144" xlink:href="#m44bc6ab941" y="103.68"/>
      </g>
     </g>
     <g id="text_18">
      <!-- 4000 -->
      <g transform="translate(111.55 107.479219)scale(0.1 -0.1)">
       <use xlink:href="#DejaVuSans-34"/>
       <use x="63.623047" xlink:href="#DejaVuSans-30"/>
       <use x="127.246094" xlink:href="#DejaVuSans-30"/>
       <use x="190.869141" xlink:href="#DejaVuSans-30"/>
      </g>
     </g>
    </g>
   </g>
   <g id="line2d_19">
    <path clip-path="url(#p435a3329b6)" d="M 590.4 768.96 
L 590.4 103.68 
" style="fill:none;stroke:#1f77b4;stroke-linecap:square;stroke-width:1.5;"/>
   </g>
   <g id="line2d_20">
    <path clip-path="url(#p435a3329b6)" d="M 144 436.32 
L 1036.8 436.32 
" style="fill:none;stroke:#1f77b4;stroke-linecap:square;stroke-width:1.5;"/>
   </g>
   <g id="line2d_21">
    <defs>
     <path d="M 0 3 
C 0.795609 3 1.55874 2.683901 2.12132 2.12132 
C 2.683901 1.55874 3 0.795609 3 0 
C 3 -0.795609 2.683901 -1.55874 2.12132 -2.12132 
C 1.55874 -2.683901 0.795609 -3 0 -3 
C -0.795609 -3 -1.55874 -2.683901 -2.12132 -2.12132 
C -2.683901 -1.55874 -3 -0.795609 -3 0 
C -3 0.795609 -2.683901 1.55874 -2.12132 2.12132 
C -1.55874 2.683901 -0.795609 3 0 3 
z
" id="mb4c682b7c7" style="stroke:#008000;"/>
    </defs>
    <g clip-path="url(#p435a3329b6)">
     <use style="fill:#008000;stroke:#008000;" x="1197.009772" xlink:href="#mb4c682b7c7" y="493.573964"/>
    </g>
   </g>
   <g id="line2d_22">
    <g clip-path="url(#p435a3329b6)">
     <use style="fill:#008000;stroke:#008000;" x="1078.626708" xlink:href="#mb4c682b7c7" y="442.868775"/>
    </g>
   </g>
   <g id="line2d_23">
    <g clip-path="url(#p435a3329b6)">
     <use style="fill:#008000;stroke:#008000;" x="1275.81523" xlink:href="#mb4c682b7c7" y="336.029045"/>
    </g>
   </g>
   <g id="line2d_24">
    <g clip-path="url(#p435a3329b6)">
     <use style="fill:#008000;stroke:#008000;" x="542.625315" xlink:href="#mb4c682b7c7" y="232.144836"/>
    </g>
   </g>
   <g id="line2d_25">
    <g clip-path="url(#p435a3329b6)">
     <use style="fill:#008000;stroke:#008000;" x="573.295197" xlink:href="#mb4c682b7c7" y="398.17486"/>
    </g>
   </g>
   <g id="line2d_26">
    <g clip-path="url(#p435a3329b6)">
     <use style="fill:#008000;stroke:#008000;" x="573.295197" xlink:href="#mb4c682b7c7" y="398.17486"/>
    </g>
   </g>
   <g id="line2d_27">
    <g clip-path="url(#p435a3329b6)">
     <use style="fill:#008000;stroke:#008000;" x="455.082025" xlink:href="#mb4c682b7c7" y="248.659327"/>
    </g>
   </g>
   <g id="line2d_28">
    <g clip-path="url(#p435a3329b6)">
     <use style="fill:#008000;stroke:#008000;" x="379.268207" xlink:href="#mb4c682b7c7" y="287.429203"/>
    </g>
   </g>
   <g id="line2d_29">
    <g clip-path="url(#p435a3329b6)">
     <use style="fill:#008000;stroke:#008000;" x="541.060023" xlink:href="#mb4c682b7c7" y="499.522439"/>
    </g>
   </g>
   <g id="line2d_30">
    <g clip-path="url(#p435a3329b6)">
     <use style="fill:#008000;stroke:#008000;" x="574.447148" xlink:href="#mb4c682b7c7" y="615.812264"/>
    </g>
   </g>
   <g id="line2d_31">
    <defs>
     <path d="M 0 1.333333 
C 0.353604 1.333333 0.692773 1.192845 0.942809 0.942809 
C 1.192845 0.692773 1.333333 0.353604 1.333333 0 
C 1.333333 -0.353604 1.192845 -0.692773 0.942809 -0.942809 
C 0.692773 -1.192845 0.353604 -1.333333 0 -1.333333 
C -0.353604 -1.333333 -0.692773 -1.192845 -0.942809 -0.942809 
C -1.192845 -0.692773 -1.333333 -0.353604 -1.333333 0 
C -1.333333 0.353604 -1.192845 0.692773 -0.942809 0.942809 
C -0.692773 1.192845 -0.353604 1.333333 0 1.333333 
z
" id="mce2c6a9973" style="stroke:#ff0000;"/>
    </defs>
    <g clip-path="url(#p435a3329b6)">
     <use style="fill:#ff0000;stroke:#ff0000;" x="1197.009772" xlink:href="#mce2c6a9973" y="493.573964"/>
     <use style="fill:#ff0000;stroke:#ff0000;" x="1078.626708" xlink:href="#mce2c6a9973" y="442.868775"/>
     <use style="fill:#ff0000;stroke:#ff0000;" x="1275.81523" xlink:href="#mce2c6a9973" y="336.029045"/>
     <use style="fill:#ff0000;stroke:#ff0000;" x="1359.58677" xlink:href="#mce2c6a9973" y="292.250392"/>
     <use style="fill:#ff0000;stroke:#ff0000;" x="1318.322531" xlink:href="#mce2c6a9973" y="268.542725"/>
     <use style="fill:#ff0000;stroke:#ff0000;" x="653.075039" xlink:href="#mce2c6a9973" y="400.604777"/>
     <use style="fill:#ff0000;stroke:#ff0000;" x="642.752406" xlink:href="#mce2c6a9973" y="385.594559"/>
     <use style="fill:#ff0000;stroke:#ff0000;" x="778.881547" xlink:href="#mce2c6a9973" y="192.748229"/>
     <use style="fill:#ff0000;stroke:#ff0000;" x="754.10408" xlink:href="#mce2c6a9973" y="195.937563"/>
     <use style="fill:#ff0000;stroke:#ff0000;" x="730.714608" xlink:href="#mce2c6a9973" y="199.746924"/>
     <use style="fill:#ff0000;stroke:#ff0000;" x="708.37002" xlink:href="#mce2c6a9973" y="204.4851"/>
     <use style="fill:#ff0000;stroke:#ff0000;" x="542.625315" xlink:href="#mce2c6a9973" y="232.144836"/>
     <use style="fill:#ff0000;stroke:#ff0000;" x="575.812255" xlink:href="#mce2c6a9973" y="396.746328"/>
     <use style="fill:#ff0000;stroke:#ff0000;" x="570.942433" xlink:href="#mce2c6a9973" y="399.687967"/>
     <use style="fill:#ff0000;stroke:#ff0000;" x="455.082025" xlink:href="#mce2c6a9973" y="248.659327"/>
     <use style="fill:#ff0000;stroke:#ff0000;" x="379.268207" xlink:href="#mce2c6a9973" y="287.429203"/>
     <use style="fill:#ff0000;stroke:#ff0000;" x="422.878651" xlink:href="#mce2c6a9973" y="341.986389"/>
     <use style="fill:#ff0000;stroke:#ff0000;" x="406.499416" xlink:href="#mce2c6a9973" y="363.600626"/>
     <use style="fill:#ff0000;stroke:#ff0000;" x="454.904674" xlink:href="#mce2c6a9973" y="390.307201"/>
     <use style="fill:#ff0000;stroke:#ff0000;" x="448.971613" xlink:href="#mce2c6a9973" y="413.558598"/>
     <use style="fill:#ff0000;stroke:#ff0000;" x="426.252486" xlink:href="#mce2c6a9973" y="416.262524"/>
     <use style="fill:#ff0000;stroke:#ff0000;" x="410.559319" xlink:href="#mce2c6a9973" y="442.610465"/>
     <use style="fill:#ff0000;stroke:#ff0000;" x="395.412317" xlink:href="#mce2c6a9973" y="450.710553"/>
     <use style="fill:#ff0000;stroke:#ff0000;" x="401.230349" xlink:href="#mce2c6a9973" y="465.600015"/>
     <use style="fill:#ff0000;stroke:#ff0000;" x="437.606639" xlink:href="#mce2c6a9973" y="466.694467"/>
     <use style="fill:#ff0000;stroke:#ff0000;" x="404.073965" xlink:href="#mce2c6a9973" y="480.889241"/>
     <use style="fill:#ff0000;stroke:#ff0000;" x="410.271272" xlink:href="#mce2c6a9973" y="504.757144"/>
     <use style="fill:#ff0000;stroke:#ff0000;" x="467.679029" xlink:href="#mce2c6a9973" y="489.817498"/>
     <use style="fill:#ff0000;stroke:#ff0000;" x="433.531817" xlink:href="#mce2c6a9973" y="512.684631"/>
     <use style="fill:#ff0000;stroke:#ff0000;" x="444.51795" xlink:href="#mce2c6a9973" y="516.071877"/>
     <use style="fill:#ff0000;stroke:#ff0000;" x="464.888673" xlink:href="#mce2c6a9973" y="512.989625"/>
     <use style="fill:#ff0000;stroke:#ff0000;" x="457.227233" xlink:href="#mce2c6a9973" y="526.755685"/>
     <use style="fill:#ff0000;stroke:#ff0000;" x="452.037043" xlink:href="#mce2c6a9973" y="540.553575"/>
     <use style="fill:#ff0000;stroke:#ff0000;" x="470.252355" xlink:href="#mce2c6a9973" y="537.292393"/>
     <use style="fill:#ff0000;stroke:#ff0000;" x="455.923866" xlink:href="#mce2c6a9973" y="561.453982"/>
     <use style="fill:#ff0000;stroke:#ff0000;" x="444.268925" xlink:href="#mce2c6a9973" y="587.405589"/>
     <use style="fill:#ff0000;stroke:#ff0000;" x="535.482174" xlink:href="#mce2c6a9973" y="502.409961"/>
     <use style="fill:#ff0000;stroke:#ff0000;" x="546.380412" xlink:href="#mce2c6a9973" y="496.459145"/>
     <use style="fill:#ff0000;stroke:#ff0000;" x="571.796458" xlink:href="#mce2c6a9973" y="495.700386"/>
     <use style="fill:#ff0000;stroke:#ff0000;" x="567.502514" xlink:href="#mce2c6a9973" y="619.810978"/>
     <use style="fill:#ff0000;stroke:#ff0000;" x="581.089986" xlink:href="#mce2c6a9973" y="611.671209"/>
     <use style="fill:#ff0000;stroke:#ff0000;" x="593.53065" xlink:href="#mce2c6a9973" y="639.98627"/>
     <use style="fill:#ff0000;stroke:#ff0000;" x="606.571373" xlink:href="#mce2c6a9973" y="617.89545"/>
     <use style="fill:#ff0000;stroke:#ff0000;" x="623.28053" xlink:href="#mce2c6a9973" y="640.468067"/>
     <use style="fill:#ff0000;stroke:#ff0000;" x="634.954194" xlink:href="#mce2c6a9973" y="626.119898"/>
     <use style="fill:#ff0000;stroke:#ff0000;" x="646.037255" xlink:href="#mce2c6a9973" y="615.451681"/>
     <use style="fill:#ff0000;stroke:#ff0000;" x="665.93126" xlink:href="#mce2c6a9973" y="632.80426"/>
     <use style="fill:#ff0000;stroke:#ff0000;" x="670.574676" xlink:href="#mce2c6a9973" y="608.604523"/>
     <use style="fill:#ff0000;stroke:#ff0000;" x="692.762805" xlink:href="#mce2c6a9973" y="598.049957"/>
     <use style="fill:#ff0000;stroke:#ff0000;" x="765.632293" xlink:href="#mce2c6a9973" y="590.137185"/>
     <use style="fill:#ff0000;stroke:#ff0000;" x="797.106038" xlink:href="#mce2c6a9973" y="583.128365"/>
     <use style="fill:#ff0000;stroke:#ff0000;" x="850.647003" xlink:href="#mce2c6a9973" y="569.290413"/>
     <use style="fill:#ff0000;stroke:#ff0000;" x="889.875354" xlink:href="#mce2c6a9973" y="556.697794"/>
     <use style="fill:#ff0000;stroke:#ff0000;" x="916.292825" xlink:href="#mce2c6a9973" y="551.257101"/>
     <use style="fill:#ff0000;stroke:#ff0000;" x="1062.803155" xlink:href="#mce2c6a9973" y="539.027628"/>
     <use style="fill:#ff0000;stroke:#ff0000;" x="1093.374846" xlink:href="#mce2c6a9973" y="524.680953"/>
     <use style="fill:#ff0000;stroke:#ff0000;" x="1109.263228" xlink:href="#mce2c6a9973" y="506.01757"/>
    </g>
   </g>
   <g id="line2d_32">
    <defs>
     <path d="M -0.5 0.5 
L 0.5 0.5 
L 0.5 -0.5 
L -0.5 -0.5 
z
" id="mb2953e32d5" style="stroke:#1f77b4;stroke-linejoin:miter;"/>
    </defs>
    <g clip-path="url(#p435a3329b6)">
     <use style="fill:#1f77b4;stroke:#1f77b4;stroke-linejoin:miter;" x="1197.009772" xlink:href="#mb2953e32d5" y="493.573964"/>
     <use style="fill:#1f77b4;stroke:#1f77b4;stroke-linejoin:miter;" x="1078.626708" xlink:href="#mb2953e32d5" y="442.868775"/>
     <use style="fill:#1f77b4;stroke:#1f77b4;stroke-linejoin:miter;" x="1275.81523" xlink:href="#mb2953e32d5" y="336.029045"/>
     <use style="fill:#1f77b4;stroke:#1f77b4;stroke-linejoin:miter;" x="1359.58677" xlink:href="#mb2953e32d5" y="292.250392"/>
     <use style="fill:#1f77b4;stroke:#1f77b4;stroke-linejoin:miter;" x="1318.322531" xlink:href="#mb2953e32d5" y="268.542725"/>
     <use style="fill:#1f77b4;stroke:#1f77b4;stroke-linejoin:miter;" x="653.075039" xlink:href="#mb2953e32d5" y="400.604777"/>
     <use style="fill:#1f77b4;stroke:#1f77b4;stroke-linejoin:miter;" x="649.34858" xlink:href="#mb2953e32d5" y="398.886273"/>
     <use style="fill:#1f77b4;stroke:#1f77b4;stroke-linejoin:miter;" x="646.612649" xlink:href="#mb2953e32d5" y="396.678665"/>
     <use style="fill:#1f77b4;stroke:#1f77b4;stroke-linejoin:miter;" x="644.820074" xlink:href="#mb2953e32d5" y="393.634041"/>
     <use style="fill:#1f77b4;stroke:#1f77b4;stroke-linejoin:miter;" x="642.12985" xlink:href="#mb2953e32d5" y="391.212081"/>
     <use style="fill:#1f77b4;stroke:#1f77b4;stroke-linejoin:miter;" x="642.752406" xlink:href="#mb2953e32d5" y="385.594559"/>
     <use style="fill:#1f77b4;stroke:#1f77b4;stroke-linejoin:miter;" x="778.881547" xlink:href="#mb2953e32d5" y="192.748229"/>
     <use style="fill:#1f77b4;stroke:#1f77b4;stroke-linejoin:miter;" x="754.10408" xlink:href="#mb2953e32d5" y="195.937563"/>
     <use style="fill:#1f77b4;stroke:#1f77b4;stroke-linejoin:miter;" x="730.714608" xlink:href="#mb2953e32d5" y="199.746924"/>
     <use style="fill:#1f77b4;stroke:#1f77b4;stroke-linejoin:miter;" x="708.37002" xlink:href="#mb2953e32d5" y="204.4851"/>
     <use style="fill:#1f77b4;stroke:#1f77b4;stroke-linejoin:miter;" x="688.879156" xlink:href="#mb2953e32d5" y="207.072026"/>
     <use style="fill:#1f77b4;stroke:#1f77b4;stroke-linejoin:miter;" x="669.701371" xlink:href="#mb2953e32d5" y="210.622195"/>
     <use style="fill:#1f77b4;stroke:#1f77b4;stroke-linejoin:miter;" x="652.053328" xlink:href="#mb2953e32d5" y="212.695392"/>
     <use style="fill:#1f77b4;stroke:#1f77b4;stroke-linejoin:miter;" x="635.252686" xlink:href="#mb2953e32d5" y="214.752013"/>
     <use style="fill:#1f77b4;stroke:#1f77b4;stroke-linejoin:miter;" x="617.993355" xlink:href="#mb2953e32d5" y="217.78434"/>
     <use style="fill:#1f77b4;stroke:#1f77b4;stroke-linejoin:miter;" x="602.149546" xlink:href="#mb2953e32d5" y="219.511479"/>
     <use style="fill:#1f77b4;stroke:#1f77b4;stroke-linejoin:miter;" x="586.831564" xlink:href="#mb2953e32d5" y="224.361839"/>
     <use style="fill:#1f77b4;stroke:#1f77b4;stroke-linejoin:miter;" x="571.656875" xlink:href="#mb2953e32d5" y="225.86839"/>
     <use style="fill:#1f77b4;stroke:#1f77b4;stroke-linejoin:miter;" x="556.801352" xlink:href="#mb2953e32d5" y="227.71329"/>
     <use style="fill:#1f77b4;stroke:#1f77b4;stroke-linejoin:miter;" x="542.625315" xlink:href="#mb2953e32d5" y="232.144836"/>
     <use style="fill:#1f77b4;stroke:#1f77b4;stroke-linejoin:miter;" x="575.812255" xlink:href="#mb2953e32d5" y="396.746328"/>
     <use style="fill:#1f77b4;stroke:#1f77b4;stroke-linejoin:miter;" x="574.146241" xlink:href="#mb2953e32d5" y="400.056311"/>
     <use style="fill:#1f77b4;stroke:#1f77b4;stroke-linejoin:miter;" x="570.942433" xlink:href="#mb2953e32d5" y="399.687967"/>
     <use style="fill:#1f77b4;stroke:#1f77b4;stroke-linejoin:miter;" x="455.082025" xlink:href="#mb2953e32d5" y="248.659327"/>
     <use style="fill:#1f77b4;stroke:#1f77b4;stroke-linejoin:miter;" x="439.515249" xlink:href="#mb2953e32d5" y="251.490269"/>
     <use style="fill:#1f77b4;stroke:#1f77b4;stroke-linejoin:miter;" x="422.092487" xlink:href="#mb2953e32d5" y="252.76789"/>
     <use style="fill:#1f77b4;stroke:#1f77b4;stroke-linejoin:miter;" x="415.533899" xlink:href="#mb2953e32d5" y="266.02495"/>
     <use style="fill:#1f77b4;stroke:#1f77b4;stroke-linejoin:miter;" x="400.881393" xlink:href="#mb2953e32d5" y="270.787631"/>
     <use style="fill:#1f77b4;stroke:#1f77b4;stroke-linejoin:miter;" x="387.670422" xlink:href="#mb2953e32d5" y="277.216324"/>
     <use style="fill:#1f77b4;stroke:#1f77b4;stroke-linejoin:miter;" x="379.268207" xlink:href="#mb2953e32d5" y="287.429203"/>
     <use style="fill:#1f77b4;stroke:#1f77b4;stroke-linejoin:miter;" x="422.878651" xlink:href="#mb2953e32d5" y="341.986389"/>
     <use style="fill:#1f77b4;stroke:#1f77b4;stroke-linejoin:miter;" x="424.233015" xlink:href="#mb2953e32d5" y="352.801543"/>
     <use style="fill:#1f77b4;stroke:#1f77b4;stroke-linejoin:miter;" x="414.155812" xlink:href="#mb2953e32d5" y="357.55493"/>
     <use style="fill:#1f77b4;stroke:#1f77b4;stroke-linejoin:miter;" x="406.499416" xlink:href="#mb2953e32d5" y="363.600626"/>
     <use style="fill:#1f77b4;stroke:#1f77b4;stroke-linejoin:miter;" x="454.904674" xlink:href="#mb2953e32d5" y="390.307201"/>
     <use style="fill:#1f77b4;stroke:#1f77b4;stroke-linejoin:miter;" x="454.716266" xlink:href="#mb2953e32d5" y="396.71597"/>
     <use style="fill:#1f77b4;stroke:#1f77b4;stroke-linejoin:miter;" x="456.524697" xlink:href="#mb2953e32d5" y="403.39435"/>
     <use style="fill:#1f77b4;stroke:#1f77b4;stroke-linejoin:miter;" x="458.638513" xlink:href="#mb2953e32d5" y="409.552089"/>
     <use style="fill:#1f77b4;stroke:#1f77b4;stroke-linejoin:miter;" x="448.971613" xlink:href="#mb2953e32d5" y="413.558598"/>
     <use style="fill:#1f77b4;stroke:#1f77b4;stroke-linejoin:miter;" x="426.252486" xlink:href="#mb2953e32d5" y="416.262524"/>
     <use style="fill:#1f77b4;stroke:#1f77b4;stroke-linejoin:miter;" x="418.381429" xlink:href="#mb2953e32d5" y="429.216653"/>
     <use style="fill:#1f77b4;stroke:#1f77b4;stroke-linejoin:miter;" x="420.434818" xlink:href="#mb2953e32d5" y="435.767375"/>
     <use style="fill:#1f77b4;stroke:#1f77b4;stroke-linejoin:miter;" x="410.559319" xlink:href="#mb2953e32d5" y="442.610465"/>
     <use style="fill:#1f77b4;stroke:#1f77b4;stroke-linejoin:miter;" x="395.412317" xlink:href="#mb2953e32d5" y="450.710553"/>
     <use style="fill:#1f77b4;stroke:#1f77b4;stroke-linejoin:miter;" x="398.25084" xlink:href="#mb2953e32d5" y="458.197975"/>
     <use style="fill:#1f77b4;stroke:#1f77b4;stroke-linejoin:miter;" x="401.230349" xlink:href="#mb2953e32d5" y="465.600015"/>
     <use style="fill:#1f77b4;stroke:#1f77b4;stroke-linejoin:miter;" x="437.606639" xlink:href="#mb2953e32d5" y="466.694467"/>
     <use style="fill:#1f77b4;stroke:#1f77b4;stroke-linejoin:miter;" x="404.073965" xlink:href="#mb2953e32d5" y="480.889241"/>
     <use style="fill:#1f77b4;stroke:#1f77b4;stroke-linejoin:miter;" x="406.525704" xlink:href="#mb2953e32d5" y="488.487253"/>
     <use style="fill:#1f77b4;stroke:#1f77b4;stroke-linejoin:miter;" x="408.611993" xlink:href="#mb2953e32d5" y="496.410108"/>
     <use style="fill:#1f77b4;stroke:#1f77b4;stroke-linejoin:miter;" x="410.271272" xlink:href="#mb2953e32d5" y="504.757144"/>
     <use style="fill:#1f77b4;stroke:#1f77b4;stroke-linejoin:miter;" x="467.679029" xlink:href="#mb2953e32d5" y="489.817498"/>
     <use style="fill:#1f77b4;stroke:#1f77b4;stroke-linejoin:miter;" x="433.531817" xlink:href="#mb2953e32d5" y="512.684631"/>
     <use style="fill:#1f77b4;stroke:#1f77b4;stroke-linejoin:miter;" x="444.51795" xlink:href="#mb2953e32d5" y="516.071877"/>
     <use style="fill:#1f77b4;stroke:#1f77b4;stroke-linejoin:miter;" x="464.888673" xlink:href="#mb2953e32d5" y="512.989625"/>
     <use style="fill:#1f77b4;stroke:#1f77b4;stroke-linejoin:miter;" x="457.227233" xlink:href="#mb2953e32d5" y="526.755685"/>
     <use style="fill:#1f77b4;stroke:#1f77b4;stroke-linejoin:miter;" x="452.037043" xlink:href="#mb2953e32d5" y="540.553575"/>
     <use style="fill:#1f77b4;stroke:#1f77b4;stroke-linejoin:miter;" x="470.252355" xlink:href="#mb2953e32d5" y="537.292393"/>
     <use style="fill:#1f77b4;stroke:#1f77b4;stroke-linejoin:miter;" x="455.923866" xlink:href="#mb2953e32d5" y="561.453982"/>
     <use style="fill:#1f77b4;stroke:#1f77b4;stroke-linejoin:miter;" x="444.268925" xlink:href="#mb2953e32d5" y="587.405589"/>
     <use style="fill:#1f77b4;stroke:#1f77b4;stroke-linejoin:miter;" x="535.482174" xlink:href="#mb2953e32d5" y="502.409961"/>
     <use style="fill:#1f77b4;stroke:#1f77b4;stroke-linejoin:miter;" x="546.380412" xlink:href="#mb2953e32d5" y="496.459145"/>
     <use style="fill:#1f77b4;stroke:#1f77b4;stroke-linejoin:miter;" x="551.45604" xlink:href="#mb2953e32d5" y="497.246209"/>
     <use style="fill:#1f77b4;stroke:#1f77b4;stroke-linejoin:miter;" x="555.397912" xlink:href="#mb2953e32d5" y="499.190993"/>
     <use style="fill:#1f77b4;stroke:#1f77b4;stroke-linejoin:miter;" x="563.718961" xlink:href="#mb2953e32d5" y="493.502765"/>
     <use style="fill:#1f77b4;stroke:#1f77b4;stroke-linejoin:miter;" x="568.669515" xlink:href="#mb2953e32d5" y="492.559105"/>
     <use style="fill:#1f77b4;stroke:#1f77b4;stroke-linejoin:miter;" x="571.796458" xlink:href="#mb2953e32d5" y="495.700386"/>
     <use style="fill:#1f77b4;stroke:#1f77b4;stroke-linejoin:miter;" x="567.502514" xlink:href="#mb2953e32d5" y="619.810978"/>
     <use style="fill:#1f77b4;stroke:#1f77b4;stroke-linejoin:miter;" x="581.089986" xlink:href="#mb2953e32d5" y="611.671209"/>
     <use style="fill:#1f77b4;stroke:#1f77b4;stroke-linejoin:miter;" x="593.53065" xlink:href="#mb2953e32d5" y="639.98627"/>
     <use style="fill:#1f77b4;stroke:#1f77b4;stroke-linejoin:miter;" x="606.571373" xlink:href="#mb2953e32d5" y="617.89545"/>
     <use style="fill:#1f77b4;stroke:#1f77b4;stroke-linejoin:miter;" x="623.28053" xlink:href="#mb2953e32d5" y="640.468067"/>
     <use style="fill:#1f77b4;stroke:#1f77b4;stroke-linejoin:miter;" x="634.954194" xlink:href="#mb2953e32d5" y="626.119898"/>
     <use style="fill:#1f77b4;stroke:#1f77b4;stroke-linejoin:miter;" x="646.037255" xlink:href="#mb2953e32d5" y="615.451681"/>
     <use style="fill:#1f77b4;stroke:#1f77b4;stroke-linejoin:miter;" x="665.93126" xlink:href="#mb2953e32d5" y="632.80426"/>
     <use style="fill:#1f77b4;stroke:#1f77b4;stroke-linejoin:miter;" x="670.574676" xlink:href="#mb2953e32d5" y="608.604523"/>
     <use style="fill:#1f77b4;stroke:#1f77b4;stroke-linejoin:miter;" x="678.850745" xlink:href="#mb2953e32d5" y="597.928474"/>
     <use style="fill:#1f77b4;stroke:#1f77b4;stroke-linejoin:miter;" x="692.762805" xlink:href="#mb2953e32d5" y="598.049957"/>
     <use style="fill:#1f77b4;stroke:#1f77b4;stroke-linejoin:miter;" x="765.632293" xlink:href="#mb2953e32d5" y="590.137185"/>
     <use style="fill:#1f77b4;stroke:#1f77b4;stroke-linejoin:miter;" x="779.44713" xlink:href="#mb2953e32d5" y="585.579743"/>
     <use style="fill:#1f77b4;stroke:#1f77b4;stroke-linejoin:miter;" x="797.106038" xlink:href="#mb2953e32d5" y="583.128365"/>
     <use style="fill:#1f77b4;stroke:#1f77b4;stroke-linejoin:miter;" x="818.505893" xlink:href="#mb2953e32d5" y="581.974619"/>
     <use style="fill:#1f77b4;stroke:#1f77b4;stroke-linejoin:miter;" x="834.550978" xlink:href="#mb2953e32d5" y="575.842414"/>
     <use style="fill:#1f77b4;stroke:#1f77b4;stroke-linejoin:miter;" x="850.647003" xlink:href="#mb2953e32d5" y="569.290413"/>
     <use style="fill:#1f77b4;stroke:#1f77b4;stroke-linejoin:miter;" x="889.875354" xlink:href="#mb2953e32d5" y="556.697794"/>
     <use style="fill:#1f77b4;stroke:#1f77b4;stroke-linejoin:miter;" x="916.292825" xlink:href="#mb2953e32d5" y="551.257101"/>
     <use style="fill:#1f77b4;stroke:#1f77b4;stroke-linejoin:miter;" x="1062.803155" xlink:href="#mb2953e32d5" y="539.027628"/>
     <use style="fill:#1f77b4;stroke:#1f77b4;stroke-linejoin:miter;" x="1093.374846" xlink:href="#mb2953e32d5" y="524.680953"/>
     <use style="fill:#1f77b4;stroke:#1f77b4;stroke-linejoin:miter;" x="1109.263228" xlink:href="#mb2953e32d5" y="506.01757"/>
    </g>
   </g>
   <g id="patch_3">
    <path d="M 144 768.96 
L 144 103.68 
" style="fill:none;stroke:#000000;stroke-linecap:square;stroke-linejoin:miter;stroke-width:0.8;"/>
   </g>
   <g id="patch_4">
    <path d="M 1036.8 768.96 
L 1036.8 103.68 
" style="fill:none;stroke:#000000;stroke-linecap:square;stroke-linejoin:miter;stroke-width:0.8;"/>
   </g>
   <g id="patch_5">
    <path d="M 144 768.96 
L 1036.8 768.96 
" style="fill:none;stroke:#000000;stroke-linecap:square;stroke-linejoin:miter;stroke-width:0.8;"/>
   </g>
   <g id="patch_6">
    <path d="M 144 103.68 
L 1036.8 103.68 
" style="fill:none;stroke:#000000;stroke-linecap:square;stroke-linejoin:miter;stroke-width:0.8;"/>
   </g>
  </g>
 </g>
 <defs>
  <clipPath id="p435a3329b6">
   <rect height="665.28" width="892.8" x="144" y="103.68"/>
  </clipPath>
 </defs>
</svg>
