<?xml version="1.0" encoding="utf-8" standalone="no"?>
<!DOCTYPE svg PUBLIC "-//W3C//DTD SVG 1.1//EN"
  "http://www.w3.org/Graphics/SVG/1.1/DTD/svg11.dtd">
<!-- Created with matplotlib (http://matplotlib.org/) -->
<svg height="864pt" version="1.1" viewBox="0 0 1152 864" width="1152pt" xmlns="http://www.w3.org/2000/svg" xmlns:xlink="http://www.w3.org/1999/xlink">
 <defs>
  <style type="text/css">
*{stroke-linecap:butt;stroke-linejoin:round;}
  </style>
 </defs>
 <g id="figure_1">
  <g id="patch_1">
   <path d="M 0 864 
L 1152 864 
L 1152 0 
L 0 0 
z
" style="fill:#ffffff;"/>
  </g>
  <g id="axes_1">
   <g id="patch_2">
    <path d="M 144 768.96 
L 1036.8 768.96 
L 1036.8 103.68 
L 144 103.68 
z
" style="fill:#ffffff;"/>
   </g>
   <g id="matplotlib.axis_1">
    <g id="xtick_1">
     <g id="line2d_1">
      <defs>
       <path d="M 0 0 
L 0 3.5 
" id="m5e906f9662" style="stroke:#000000;stroke-width:0.8;"/>
      </defs>
      <g>
       <use style="stroke:#000000;stroke-width:0.8;" x="144" xlink:href="#m5e906f9662" y="768.96"/>
      </g>
     </g>
     <g id="text_1">
      <!-- −4000 -->
      <defs>
       <path d="M 10.59375 35.5 
L 73.1875 35.5 
L 73.1875 27.203125 
L 10.59375 27.203125 
z
" id="DejaVuSans-2212"/>
       <path d="M 37.796875 64.3125 
L 12.890625 25.390625 
L 37.796875 25.390625 
z
M 35.203125 72.90625 
L 47.609375 72.90625 
L 47.609375 25.390625 
L 58.015625 25.390625 
L 58.015625 17.1875 
L 47.609375 17.1875 
L 47.609375 0 
L 37.796875 0 
L 37.796875 17.1875 
L 4.890625 17.1875 
L 4.890625 26.703125 
z
" id="DejaVuSans-34"/>
       <path d="M 31.78125 66.40625 
Q 24.171875 66.40625 20.328125 58.90625 
Q 16.5 51.421875 16.5 36.375 
Q 16.5 21.390625 20.328125 13.890625 
Q 24.171875 6.390625 31.78125 6.390625 
Q 39.453125 6.390625 43.28125 13.890625 
Q 47.125 21.390625 47.125 36.375 
Q 47.125 51.421875 43.28125 58.90625 
Q 39.453125 66.40625 31.78125 66.40625 
z
M 31.78125 74.21875 
Q 44.046875 74.21875 50.515625 64.515625 
Q 56.984375 54.828125 56.984375 36.375 
Q 56.984375 17.96875 50.515625 8.265625 
Q 44.046875 -1.421875 31.78125 -1.421875 
Q 19.53125 -1.421875 13.0625 8.265625 
Q 6.59375 17.96875 6.59375 36.375 
Q 6.59375 54.828125 13.0625 64.515625 
Q 19.53125 74.21875 31.78125 74.21875 
z
" id="DejaVuSans-30"/>
      </defs>
      <g transform="translate(127.085156 783.558437)scale(0.1 -0.1)">
       <use xlink:href="#DejaVuSans-2212"/>
       <use x="83.789062" xlink:href="#DejaVuSans-34"/>
       <use x="147.412109" xlink:href="#DejaVuSans-30"/>
       <use x="211.035156" xlink:href="#DejaVuSans-30"/>
       <use x="274.658203" xlink:href="#DejaVuSans-30"/>
      </g>
     </g>
    </g>
    <g id="xtick_2">
     <g id="line2d_2">
      <g>
       <use style="stroke:#000000;stroke-width:0.8;" x="255.6" xlink:href="#m5e906f9662" y="768.96"/>
      </g>
     </g>
     <g id="text_2">
      <!-- −3000 -->
      <defs>
       <path d="M 40.578125 39.3125 
Q 47.65625 37.796875 51.625 33 
Q 55.609375 28.21875 55.609375 21.1875 
Q 55.609375 10.40625 48.1875 4.484375 
Q 40.765625 -1.421875 27.09375 -1.421875 
Q 22.515625 -1.421875 17.65625 -0.515625 
Q 12.796875 0.390625 7.625 2.203125 
L 7.625 11.71875 
Q 11.71875 9.328125 16.59375 8.109375 
Q 21.484375 6.890625 26.8125 6.890625 
Q 36.078125 6.890625 40.9375 10.546875 
Q 45.796875 14.203125 45.796875 21.1875 
Q 45.796875 27.640625 41.28125 31.265625 
Q 36.765625 34.90625 28.71875 34.90625 
L 20.21875 34.90625 
L 20.21875 43.015625 
L 29.109375 43.015625 
Q 36.375 43.015625 40.234375 45.921875 
Q 44.09375 48.828125 44.09375 54.296875 
Q 44.09375 59.90625 40.109375 62.90625 
Q 36.140625 65.921875 28.71875 65.921875 
Q 24.65625 65.921875 20.015625 65.03125 
Q 15.375 64.15625 9.8125 62.3125 
L 9.8125 71.09375 
Q 15.4375 72.65625 20.34375 73.4375 
Q 25.25 74.21875 29.59375 74.21875 
Q 40.828125 74.21875 47.359375 69.109375 
Q 53.90625 64.015625 53.90625 55.328125 
Q 53.90625 49.265625 50.4375 45.09375 
Q 46.96875 40.921875 40.578125 39.3125 
z
" id="DejaVuSans-33"/>
      </defs>
      <g transform="translate(238.685156 783.558437)scale(0.1 -0.1)">
       <use xlink:href="#DejaVuSans-2212"/>
       <use x="83.789062" xlink:href="#DejaVuSans-33"/>
       <use x="147.412109" xlink:href="#DejaVuSans-30"/>
       <use x="211.035156" xlink:href="#DejaVuSans-30"/>
       <use x="274.658203" xlink:href="#DejaVuSans-30"/>
      </g>
     </g>
    </g>
    <g id="xtick_3">
     <g id="line2d_3">
      <g>
       <use style="stroke:#000000;stroke-width:0.8;" x="367.2" xlink:href="#m5e906f9662" y="768.96"/>
      </g>
     </g>
     <g id="text_3">
      <!-- −2000 -->
      <defs>
       <path d="M 19.1875 8.296875 
L 53.609375 8.296875 
L 53.609375 0 
L 7.328125 0 
L 7.328125 8.296875 
Q 12.9375 14.109375 22.625 23.890625 
Q 32.328125 33.6875 34.8125 36.53125 
Q 39.546875 41.84375 41.421875 45.53125 
Q 43.3125 49.21875 43.3125 52.78125 
Q 43.3125 58.59375 39.234375 62.25 
Q 35.15625 65.921875 28.609375 65.921875 
Q 23.96875 65.921875 18.8125 64.3125 
Q 13.671875 62.703125 7.8125 59.421875 
L 7.8125 69.390625 
Q 13.765625 71.78125 18.9375 73 
Q 24.125 74.21875 28.421875 74.21875 
Q 39.75 74.21875 46.484375 68.546875 
Q 53.21875 62.890625 53.21875 53.421875 
Q 53.21875 48.921875 51.53125 44.890625 
Q 49.859375 40.875 45.40625 35.40625 
Q 44.1875 33.984375 37.640625 27.21875 
Q 31.109375 20.453125 19.1875 8.296875 
z
" id="DejaVuSans-32"/>
      </defs>
      <g transform="translate(350.285156 783.558437)scale(0.1 -0.1)">
       <use xlink:href="#DejaVuSans-2212"/>
       <use x="83.789062" xlink:href="#DejaVuSans-32"/>
       <use x="147.412109" xlink:href="#DejaVuSans-30"/>
       <use x="211.035156" xlink:href="#DejaVuSans-30"/>
       <use x="274.658203" xlink:href="#DejaVuSans-30"/>
      </g>
     </g>
    </g>
    <g id="xtick_4">
     <g id="line2d_4">
      <g>
       <use style="stroke:#000000;stroke-width:0.8;" x="478.8" xlink:href="#m5e906f9662" y="768.96"/>
      </g>
     </g>
     <g id="text_4">
      <!-- −1000 -->
      <defs>
       <path d="M 12.40625 8.296875 
L 28.515625 8.296875 
L 28.515625 63.921875 
L 10.984375 60.40625 
L 10.984375 69.390625 
L 28.421875 72.90625 
L 38.28125 72.90625 
L 38.28125 8.296875 
L 54.390625 8.296875 
L 54.390625 0 
L 12.40625 0 
z
" id="DejaVuSans-31"/>
      </defs>
      <g transform="translate(461.885156 783.558437)scale(0.1 -0.1)">
       <use xlink:href="#DejaVuSans-2212"/>
       <use x="83.789062" xlink:href="#DejaVuSans-31"/>
       <use x="147.412109" xlink:href="#DejaVuSans-30"/>
       <use x="211.035156" xlink:href="#DejaVuSans-30"/>
       <use x="274.658203" xlink:href="#DejaVuSans-30"/>
      </g>
     </g>
    </g>
    <g id="xtick_5">
     <g id="line2d_5">
      <g>
       <use style="stroke:#000000;stroke-width:0.8;" x="590.4" xlink:href="#m5e906f9662" y="768.96"/>
      </g>
     </g>
     <g id="text_5">
      <!-- 0 -->
      <g transform="translate(587.21875 783.558437)scale(0.1 -0.1)">
       <use xlink:href="#DejaVuSans-30"/>
      </g>
     </g>
    </g>
    <g id="xtick_6">
     <g id="line2d_6">
      <g>
       <use style="stroke:#000000;stroke-width:0.8;" x="702" xlink:href="#m5e906f9662" y="768.96"/>
      </g>
     </g>
     <g id="text_6">
      <!-- 1000 -->
      <g transform="translate(689.275 783.558437)scale(0.1 -0.1)">
       <use xlink:href="#DejaVuSans-31"/>
       <use x="63.623047" xlink:href="#DejaVuSans-30"/>
       <use x="127.246094" xlink:href="#DejaVuSans-30"/>
       <use x="190.869141" xlink:href="#DejaVuSans-30"/>
      </g>
     </g>
    </g>
    <g id="xtick_7">
     <g id="line2d_7">
      <g>
       <use style="stroke:#000000;stroke-width:0.8;" x="813.6" xlink:href="#m5e906f9662" y="768.96"/>
      </g>
     </g>
     <g id="text_7">
      <!-- 2000 -->
      <g transform="translate(800.875 783.558437)scale(0.1 -0.1)">
       <use xlink:href="#DejaVuSans-32"/>
       <use x="63.623047" xlink:href="#DejaVuSans-30"/>
       <use x="127.246094" xlink:href="#DejaVuSans-30"/>
       <use x="190.869141" xlink:href="#DejaVuSans-30"/>
      </g>
     </g>
    </g>
    <g id="xtick_8">
     <g id="line2d_8">
      <g>
       <use style="stroke:#000000;stroke-width:0.8;" x="925.2" xlink:href="#m5e906f9662" y="768.96"/>
      </g>
     </g>
     <g id="text_8">
      <!-- 3000 -->
      <g transform="translate(912.475 783.558437)scale(0.1 -0.1)">
       <use xlink:href="#DejaVuSans-33"/>
       <use x="63.623047" xlink:href="#DejaVuSans-30"/>
       <use x="127.246094" xlink:href="#DejaVuSans-30"/>
       <use x="190.869141" xlink:href="#DejaVuSans-30"/>
      </g>
     </g>
    </g>
    <g id="xtick_9">
     <g id="line2d_9">
      <g>
       <use style="stroke:#000000;stroke-width:0.8;" x="1036.8" xlink:href="#m5e906f9662" y="768.96"/>
      </g>
     </g>
     <g id="text_9">
      <!-- 4000 -->
      <g transform="translate(1024.075 783.558437)scale(0.1 -0.1)">
       <use xlink:href="#DejaVuSans-34"/>
       <use x="63.623047" xlink:href="#DejaVuSans-30"/>
       <use x="127.246094" xlink:href="#DejaVuSans-30"/>
       <use x="190.869141" xlink:href="#DejaVuSans-30"/>
      </g>
     </g>
    </g>
   </g>
   <g id="matplotlib.axis_2">
    <g id="ytick_1">
     <g id="line2d_10">
      <defs>
       <path d="M 0 0 
L -3.5 0 
" id="me3b69daf56" style="stroke:#000000;stroke-width:0.8;"/>
      </defs>
      <g>
       <use style="stroke:#000000;stroke-width:0.8;" x="144" xlink:href="#me3b69daf56" y="768.96"/>
      </g>
     </g>
     <g id="text_10">
      <!-- −4000 -->
      <g transform="translate(103.170312 772.759219)scale(0.1 -0.1)">
       <use xlink:href="#DejaVuSans-2212"/>
       <use x="83.789062" xlink:href="#DejaVuSans-34"/>
       <use x="147.412109" xlink:href="#DejaVuSans-30"/>
       <use x="211.035156" xlink:href="#DejaVuSans-30"/>
       <use x="274.658203" xlink:href="#DejaVuSans-30"/>
      </g>
     </g>
    </g>
    <g id="ytick_2">
     <g id="line2d_11">
      <g>
       <use style="stroke:#000000;stroke-width:0.8;" x="144" xlink:href="#me3b69daf56" y="685.8"/>
      </g>
     </g>
     <g id="text_11">
      <!-- −3000 -->
      <g transform="translate(103.170312 689.599219)scale(0.1 -0.1)">
       <use xlink:href="#DejaVuSans-2212"/>
       <use x="83.789062" xlink:href="#DejaVuSans-33"/>
       <use x="147.412109" xlink:href="#DejaVuSans-30"/>
       <use x="211.035156" xlink:href="#DejaVuSans-30"/>
       <use x="274.658203" xlink:href="#DejaVuSans-30"/>
      </g>
     </g>
    </g>
    <g id="ytick_3">
     <g id="line2d_12">
      <g>
       <use style="stroke:#000000;stroke-width:0.8;" x="144" xlink:href="#me3b69daf56" y="602.64"/>
      </g>
     </g>
     <g id="text_12">
      <!-- −2000 -->
      <g transform="translate(103.170312 606.439219)scale(0.1 -0.1)">
       <use xlink:href="#DejaVuSans-2212"/>
       <use x="83.789062" xlink:href="#DejaVuSans-32"/>
       <use x="147.412109" xlink:href="#DejaVuSans-30"/>
       <use x="211.035156" xlink:href="#DejaVuSans-30"/>
       <use x="274.658203" xlink:href="#DejaVuSans-30"/>
      </g>
     </g>
    </g>
    <g id="ytick_4">
     <g id="line2d_13">
      <g>
       <use style="stroke:#000000;stroke-width:0.8;" x="144" xlink:href="#me3b69daf56" y="519.48"/>
      </g>
     </g>
     <g id="text_13">
      <!-- −1000 -->
      <g transform="translate(103.170312 523.279219)scale(0.1 -0.1)">
       <use xlink:href="#DejaVuSans-2212"/>
       <use x="83.789062" xlink:href="#DejaVuSans-31"/>
       <use x="147.412109" xlink:href="#DejaVuSans-30"/>
       <use x="211.035156" xlink:href="#DejaVuSans-30"/>
       <use x="274.658203" xlink:href="#DejaVuSans-30"/>
      </g>
     </g>
    </g>
    <g id="ytick_5">
     <g id="line2d_14">
      <g>
       <use style="stroke:#000000;stroke-width:0.8;" x="144" xlink:href="#me3b69daf56" y="436.32"/>
      </g>
     </g>
     <g id="text_14">
      <!-- 0 -->
      <g transform="translate(130.6375 440.119219)scale(0.1 -0.1)">
       <use xlink:href="#DejaVuSans-30"/>
      </g>
     </g>
    </g>
    <g id="ytick_6">
     <g id="line2d_15">
      <g>
       <use style="stroke:#000000;stroke-width:0.8;" x="144" xlink:href="#me3b69daf56" y="353.16"/>
      </g>
     </g>
     <g id="text_15">
      <!-- 1000 -->
      <g transform="translate(111.55 356.959219)scale(0.1 -0.1)">
       <use xlink:href="#DejaVuSans-31"/>
       <use x="63.623047" xlink:href="#DejaVuSans-30"/>
       <use x="127.246094" xlink:href="#DejaVuSans-30"/>
       <use x="190.869141" xlink:href="#DejaVuSans-30"/>
      </g>
     </g>
    </g>
    <g id="ytick_7">
     <g id="line2d_16">
      <g>
       <use style="stroke:#000000;stroke-width:0.8;" x="144" xlink:href="#me3b69daf56" y="270"/>
      </g>
     </g>
     <g id="text_16">
      <!-- 2000 -->
      <g transform="translate(111.55 273.799219)scale(0.1 -0.1)">
       <use xlink:href="#DejaVuSans-32"/>
       <use x="63.623047" xlink:href="#DejaVuSans-30"/>
       <use x="127.246094" xlink:href="#DejaVuSans-30"/>
       <use x="190.869141" xlink:href="#DejaVuSans-30"/>
      </g>
     </g>
    </g>
    <g id="ytick_8">
     <g id="line2d_17">
      <g>
       <use style="stroke:#000000;stroke-width:0.8;" x="144" xlink:href="#me3b69daf56" y="186.84"/>
      </g>
     </g>
     <g id="text_17">
      <!-- 3000 -->
      <g transform="translate(111.55 190.639219)scale(0.1 -0.1)">
       <use xlink:href="#DejaVuSans-33"/>
       <use x="63.623047" xlink:href="#DejaVuSans-30"/>
       <use x="127.246094" xlink:href="#DejaVuSans-30"/>
       <use x="190.869141" xlink:href="#DejaVuSans-30"/>
      </g>
     </g>
    </g>
    <g id="ytick_9">
     <g id="line2d_18">
      <g>
       <use style="stroke:#000000;stroke-width:0.8;" x="144" xlink:href="#me3b69daf56" y="103.68"/>
      </g>
     </g>
     <g id="text_18">
      <!-- 4000 -->
      <g transform="translate(111.55 107.479219)scale(0.1 -0.1)">
       <use xlink:href="#DejaVuSans-34"/>
       <use x="63.623047" xlink:href="#DejaVuSans-30"/>
       <use x="127.246094" xlink:href="#DejaVuSans-30"/>
       <use x="190.869141" xlink:href="#DejaVuSans-30"/>
      </g>
     </g>
    </g>
   </g>
   <g id="line2d_19">
    <path clip-path="url(#pf78e8875a1)" d="M 590.4 768.96 
L 590.4 103.68 
" style="fill:none;stroke:#1f77b4;stroke-linecap:square;stroke-width:1.5;"/>
   </g>
   <g id="line2d_20">
    <path clip-path="url(#pf78e8875a1)" d="M 144 436.32 
L 1036.8 436.32 
" style="fill:none;stroke:#1f77b4;stroke-linecap:square;stroke-width:1.5;"/>
   </g>
   <g id="line2d_21">
    <defs>
     <path d="M 0 3 
C 0.795609 3 1.55874 2.683901 2.12132 2.12132 
C 2.683901 1.55874 3 0.795609 3 0 
C 3 -0.795609 2.683901 -1.55874 2.12132 -2.12132 
C 1.55874 -2.683901 0.795609 -3 0 -3 
C -0.795609 -3 -1.55874 -2.683901 -2.12132 -2.12132 
C -2.683901 -1.55874 -3 -0.795609 -3 0 
C -3 0.795609 -2.683901 1.55874 -2.12132 2.12132 
C -1.55874 2.683901 -0.795609 3 0 3 
z
" id="me0dac025e7" style="stroke:#008000;"/>
    </defs>
    <g clip-path="url(#pf78e8875a1)">
     <use style="fill:#008000;stroke:#008000;" x="1075.675384" xlink:href="#me0dac025e7" y="441.250976"/>
    </g>
   </g>
   <g id="line2d_22">
    <g clip-path="url(#pf78e8875a1)">
     <use style="fill:#008000;stroke:#008000;" x="1260.669913" xlink:href="#me0dac025e7" y="336.404884"/>
    </g>
   </g>
   <g id="line2d_23">
    <g clip-path="url(#pf78e8875a1)">
     <use style="fill:#008000;stroke:#008000;" x="648.567155" xlink:href="#me0dac025e7" y="390.881389"/>
    </g>
   </g>
   <g id="line2d_24">
    <g clip-path="url(#pf78e8875a1)">
     <use style="fill:#008000;stroke:#008000;" x="648.567155" xlink:href="#me0dac025e7" y="390.881389"/>
    </g>
   </g>
   <g id="line2d_25">
    <g clip-path="url(#pf78e8875a1)">
     <use style="fill:#008000;stroke:#008000;" x="793.379551" xlink:href="#me0dac025e7" y="193.676823"/>
    </g>
   </g>
   <g id="line2d_26">
    <g clip-path="url(#pf78e8875a1)">
     <use style="fill:#008000;stroke:#008000;" x="441.383538" xlink:href="#me0dac025e7" y="515.753655"/>
    </g>
   </g>
   <g id="line2d_27">
    <defs>
     <path d="M 0 1.333333 
C 0.353604 1.333333 0.692773 1.192845 0.942809 0.942809 
C 1.192845 0.692773 1.333333 0.353604 1.333333 0 
C 1.333333 -0.353604 1.192845 -0.692773 0.942809 -0.942809 
C 0.692773 -1.192845 0.353604 -1.333333 0 -1.333333 
C -0.353604 -1.333333 -0.692773 -1.192845 -0.942809 -0.942809 
C -1.192845 -0.692773 -1.333333 -0.353604 -1.333333 0 
C -1.333333 0.353604 -1.192845 0.692773 -0.942809 0.942809 
C -0.692773 1.192845 -0.353604 1.333333 0 1.333333 
z
" id="m274fd0e1a4" style="stroke:#ff0000;"/>
    </defs>
    <g clip-path="url(#pf78e8875a1)">
     <use style="fill:#ff0000;stroke:#ff0000;" x="1403.797734" xlink:href="#m274fd0e1a4" y="510.57348"/>
     <use style="fill:#ff0000;stroke:#ff0000;" x="1411.357674" xlink:href="#m274fd0e1a4" y="489.504636"/>
     <use style="fill:#ff0000;stroke:#ff0000;" x="1075.675384" xlink:href="#m274fd0e1a4" y="441.250976"/>
     <use style="fill:#ff0000;stroke:#ff0000;" x="1260.669913" xlink:href="#m274fd0e1a4" y="336.404884"/>
     <use style="fill:#ff0000;stroke:#ff0000;" x="1321.935151" xlink:href="#m274fd0e1a4" y="286.906675"/>
     <use style="fill:#ff0000;stroke:#ff0000;" x="1317.643839" xlink:href="#m274fd0e1a4" y="266.91634"/>
     <use style="fill:#ff0000;stroke:#ff0000;" x="652.383534" xlink:href="#m274fd0e1a4" y="398.414709"/>
     <use style="fill:#ff0000;stroke:#ff0000;" x="643.170958" xlink:href="#m274fd0e1a4" y="383.510235"/>
     <use style="fill:#ff0000;stroke:#ff0000;" x="793.379551" xlink:href="#m274fd0e1a4" y="193.676823"/>
     <use style="fill:#ff0000;stroke:#ff0000;" x="417.724307" xlink:href="#m274fd0e1a4" y="266.532845"/>
     <use style="fill:#ff0000;stroke:#ff0000;" x="393.644409" xlink:href="#m274fd0e1a4" y="291.216883"/>
     <use style="fill:#ff0000;stroke:#ff0000;" x="416.433242" xlink:href="#m274fd0e1a4" y="317.142171"/>
     <use style="fill:#ff0000;stroke:#ff0000;" x="432.778865" xlink:href="#m274fd0e1a4" y="343.154731"/>
     <use style="fill:#ff0000;stroke:#ff0000;" x="407.376186" xlink:href="#m274fd0e1a4" y="363.039168"/>
     <use style="fill:#ff0000;stroke:#ff0000;" x="455.022924" xlink:href="#m274fd0e1a4" y="391.735565"/>
     <use style="fill:#ff0000;stroke:#ff0000;" x="442.609404" xlink:href="#m274fd0e1a4" y="413.569994"/>
     <use style="fill:#ff0000;stroke:#ff0000;" x="411.022214" xlink:href="#m274fd0e1a4" y="441.425702"/>
     <use style="fill:#ff0000;stroke:#ff0000;" x="394.854578" xlink:href="#m274fd0e1a4" y="446.828737"/>
     <use style="fill:#ff0000;stroke:#ff0000;" x="401.405682" xlink:href="#m274fd0e1a4" y="466.817039"/>
     <use style="fill:#ff0000;stroke:#ff0000;" x="437.408122" xlink:href="#m274fd0e1a4" y="465.637555"/>
     <use style="fill:#ff0000;stroke:#ff0000;" x="403.625469" xlink:href="#m274fd0e1a4" y="476.88644"/>
     <use style="fill:#ff0000;stroke:#ff0000;" x="433.714676" xlink:href="#m274fd0e1a4" y="516.65786"/>
     <use style="fill:#ff0000;stroke:#ff0000;" x="448.95386" xlink:href="#m274fd0e1a4" y="514.668466"/>
     <use style="fill:#ff0000;stroke:#ff0000;" x="471.379133" xlink:href="#m274fd0e1a4" y="537.340069"/>
     <use style="fill:#ff0000;stroke:#ff0000;" x="453.74931" xlink:href="#m274fd0e1a4" y="560.327344"/>
     <use style="fill:#ff0000;stroke:#ff0000;" x="451.623686" xlink:href="#m274fd0e1a4" y="581.715451"/>
     <use style="fill:#ff0000;stroke:#ff0000;" x="528.494773" xlink:href="#m274fd0e1a4" y="508.294722"/>
     <use style="fill:#ff0000;stroke:#ff0000;" x="578.862174" xlink:href="#m274fd0e1a4" y="497.737727"/>
     <use style="fill:#ff0000;stroke:#ff0000;" x="577.297254" xlink:href="#m274fd0e1a4" y="614.264219"/>
     <use style="fill:#ff0000;stroke:#ff0000;" x="584.841686" xlink:href="#m274fd0e1a4" y="636.131347"/>
     <use style="fill:#ff0000;stroke:#ff0000;" x="594.17296" xlink:href="#m274fd0e1a4" y="642.496052"/>
     <use style="fill:#ff0000;stroke:#ff0000;" x="602.990571" xlink:href="#m274fd0e1a4" y="620.134594"/>
     <use style="fill:#ff0000;stroke:#ff0000;" x="613.825412" xlink:href="#m274fd0e1a4" y="637.100897"/>
     <use style="fill:#ff0000;stroke:#ff0000;" x="623.773058" xlink:href="#m274fd0e1a4" y="640.235189"/>
     <use style="fill:#ff0000;stroke:#ff0000;" x="646.565824" xlink:href="#m274fd0e1a4" y="615.594914"/>
     <use style="fill:#ff0000;stroke:#ff0000;" x="661.519095" xlink:href="#m274fd0e1a4" y="633.0275"/>
     <use style="fill:#ff0000;stroke:#ff0000;" x="670.493676" xlink:href="#m274fd0e1a4" y="607.524971"/>
     <use style="fill:#ff0000;stroke:#ff0000;" x="671.575517" xlink:href="#m274fd0e1a4" y="591.741341"/>
     <use style="fill:#ff0000;stroke:#ff0000;" x="704.757864" xlink:href="#m274fd0e1a4" y="601.332802"/>
     <use style="fill:#ff0000;stroke:#ff0000;" x="746.882645" xlink:href="#m274fd0e1a4" y="601.31199"/>
     <use style="fill:#ff0000;stroke:#ff0000;" x="851.500855" xlink:href="#m274fd0e1a4" y="570.273425"/>
     <use style="fill:#ff0000;stroke:#ff0000;" x="875.91276" xlink:href="#m274fd0e1a4" y="572.103474"/>
     <use style="fill:#ff0000;stroke:#ff0000;" x="872.572337" xlink:href="#m274fd0e1a4" y="560.09768"/>
     <use style="fill:#ff0000;stroke:#ff0000;" x="901.161812" xlink:href="#m274fd0e1a4" y="551.538934"/>
     <use style="fill:#ff0000;stroke:#ff0000;" x="937.013547" xlink:href="#m274fd0e1a4" y="553.94129"/>
     <use style="fill:#ff0000;stroke:#ff0000;" x="1056.398602" xlink:href="#m274fd0e1a4" y="538.972417"/>
     <use style="fill:#ff0000;stroke:#ff0000;" x="1084.762181" xlink:href="#m274fd0e1a4" y="517.671648"/>
     <use style="fill:#ff0000;stroke:#ff0000;" x="1110.521207" xlink:href="#m274fd0e1a4" y="507.715418"/>
    </g>
   </g>
   <g id="line2d_28">
    <defs>
     <path d="M -0.5 0.5 
L 0.5 0.5 
L 0.5 -0.5 
L -0.5 -0.5 
z
" id="ma9e29ea524" style="stroke:#1f77b4;stroke-linejoin:miter;"/>
    </defs>
    <g clip-path="url(#pf78e8875a1)">
     <use style="fill:#1f77b4;stroke:#1f77b4;stroke-linejoin:miter;" x="1403.797734" xlink:href="#ma9e29ea524" y="510.57348"/>
     <use style="fill:#1f77b4;stroke:#1f77b4;stroke-linejoin:miter;" x="1411.357674" xlink:href="#ma9e29ea524" y="489.504636"/>
     <use style="fill:#1f77b4;stroke:#1f77b4;stroke-linejoin:miter;" x="1075.675384" xlink:href="#ma9e29ea524" y="441.250976"/>
     <use style="fill:#1f77b4;stroke:#1f77b4;stroke-linejoin:miter;" x="1260.669913" xlink:href="#ma9e29ea524" y="336.404884"/>
     <use style="fill:#1f77b4;stroke:#1f77b4;stroke-linejoin:miter;" x="1321.935151" xlink:href="#ma9e29ea524" y="286.906675"/>
     <use style="fill:#1f77b4;stroke:#1f77b4;stroke-linejoin:miter;" x="1317.643839" xlink:href="#ma9e29ea524" y="266.91634"/>
     <use style="fill:#1f77b4;stroke:#1f77b4;stroke-linejoin:miter;" x="652.383534" xlink:href="#ma9e29ea524" y="398.414709"/>
     <use style="fill:#1f77b4;stroke:#1f77b4;stroke-linejoin:miter;" x="647.696902" xlink:href="#ma9e29ea524" y="398.421548"/>
     <use style="fill:#1f77b4;stroke:#1f77b4;stroke-linejoin:miter;" x="646.594259" xlink:href="#ma9e29ea524" y="396.452841"/>
     <use style="fill:#1f77b4;stroke:#1f77b4;stroke-linejoin:miter;" x="645.3376" xlink:href="#ma9e29ea524" y="394.729943"/>
     <use style="fill:#1f77b4;stroke:#1f77b4;stroke-linejoin:miter;" x="644.337292" xlink:href="#ma9e29ea524" y="392.530127"/>
     <use style="fill:#1f77b4;stroke:#1f77b4;stroke-linejoin:miter;" x="641.681932" xlink:href="#ma9e29ea524" y="391.528516"/>
     <use style="fill:#1f77b4;stroke:#1f77b4;stroke-linejoin:miter;" x="640.924034" xlink:href="#ma9e29ea524" y="388.936256"/>
     <use style="fill:#1f77b4;stroke:#1f77b4;stroke-linejoin:miter;" x="643.170958" xlink:href="#ma9e29ea524" y="383.510235"/>
     <use style="fill:#1f77b4;stroke:#1f77b4;stroke-linejoin:miter;" x="793.379551" xlink:href="#ma9e29ea524" y="193.676823"/>
     <use style="fill:#1f77b4;stroke:#1f77b4;stroke-linejoin:miter;" x="777.827321" xlink:href="#ma9e29ea524" y="194.263154"/>
     <use style="fill:#1f77b4;stroke:#1f77b4;stroke-linejoin:miter;" x="761.412826" xlink:href="#ma9e29ea524" y="196.023016"/>
     <use style="fill:#1f77b4;stroke:#1f77b4;stroke-linejoin:miter;" x="745.206746" xlink:href="#ma9e29ea524" y="198.819643"/>
     <use style="fill:#1f77b4;stroke:#1f77b4;stroke-linejoin:miter;" x="729.656882" xlink:href="#ma9e29ea524" y="201.876186"/>
     <use style="fill:#1f77b4;stroke:#1f77b4;stroke-linejoin:miter;" x="715.625279" xlink:href="#ma9e29ea524" y="203.536437"/>
     <use style="fill:#1f77b4;stroke:#1f77b4;stroke-linejoin:miter;" x="702.222755" xlink:href="#ma9e29ea524" y="205.229148"/>
     <use style="fill:#1f77b4;stroke:#1f77b4;stroke-linejoin:miter;" x="688.806775" xlink:href="#ma9e29ea524" y="207.884354"/>
     <use style="fill:#1f77b4;stroke:#1f77b4;stroke-linejoin:miter;" x="676.211799" xlink:href="#ma9e29ea524" y="209.592986"/>
     <use style="fill:#1f77b4;stroke:#1f77b4;stroke-linejoin:miter;" x="664.367042" xlink:href="#ma9e29ea524" y="211.073875"/>
     <use style="fill:#1f77b4;stroke:#1f77b4;stroke-linejoin:miter;" x="652.499012" xlink:href="#ma9e29ea524" y="212.933726"/>
     <use style="fill:#1f77b4;stroke:#1f77b4;stroke-linejoin:miter;" x="641.160759" xlink:href="#ma9e29ea524" y="214.743858"/>
     <use style="fill:#1f77b4;stroke:#1f77b4;stroke-linejoin:miter;" x="630.016869" xlink:href="#ma9e29ea524" y="216.715515"/>
     <use style="fill:#1f77b4;stroke:#1f77b4;stroke-linejoin:miter;" x="618.598348" xlink:href="#ma9e29ea524" y="218.098744"/>
     <use style="fill:#1f77b4;stroke:#1f77b4;stroke-linejoin:miter;" x="607.974362" xlink:href="#ma9e29ea524" y="219.292929"/>
     <use style="fill:#1f77b4;stroke:#1f77b4;stroke-linejoin:miter;" x="597.620999" xlink:href="#ma9e29ea524" y="221.897073"/>
     <use style="fill:#1f77b4;stroke:#1f77b4;stroke-linejoin:miter;" x="587.373971" xlink:href="#ma9e29ea524" y="224.315571"/>
     <use style="fill:#1f77b4;stroke:#1f77b4;stroke-linejoin:miter;" x="577.348161" xlink:href="#ma9e29ea524" y="225.442497"/>
     <use style="fill:#1f77b4;stroke:#1f77b4;stroke-linejoin:miter;" x="567.380236" xlink:href="#ma9e29ea524" y="226.41703"/>
     <use style="fill:#1f77b4;stroke:#1f77b4;stroke-linejoin:miter;" x="557.630884" xlink:href="#ma9e29ea524" y="229.042529"/>
     <use style="fill:#1f77b4;stroke:#1f77b4;stroke-linejoin:miter;" x="548.164115" xlink:href="#ma9e29ea524" y="231.468041"/>
     <use style="fill:#1f77b4;stroke:#1f77b4;stroke-linejoin:miter;" x="538.47125" xlink:href="#ma9e29ea524" y="233.110894"/>
     <use style="fill:#1f77b4;stroke:#1f77b4;stroke-linejoin:miter;" x="529.25251" xlink:href="#ma9e29ea524" y="235.968368"/>
     <use style="fill:#1f77b4;stroke:#1f77b4;stroke-linejoin:miter;" x="519.783651" xlink:href="#ma9e29ea524" y="237.554252"/>
     <use style="fill:#1f77b4;stroke:#1f77b4;stroke-linejoin:miter;" x="509.913311" xlink:href="#ma9e29ea524" y="238.800983"/>
     <use style="fill:#1f77b4;stroke:#1f77b4;stroke-linejoin:miter;" x="500.6401" xlink:href="#ma9e29ea524" y="241.032656"/>
     <use style="fill:#1f77b4;stroke:#1f77b4;stroke-linejoin:miter;" x="490.732153" xlink:href="#ma9e29ea524" y="241.893347"/>
     <use style="fill:#1f77b4;stroke:#1f77b4;stroke-linejoin:miter;" x="480.926838" xlink:href="#ma9e29ea524" y="243.556605"/>
     <use style="fill:#1f77b4;stroke:#1f77b4;stroke-linejoin:miter;" x="471.216072" xlink:href="#ma9e29ea524" y="245.86366"/>
     <use style="fill:#1f77b4;stroke:#1f77b4;stroke-linejoin:miter;" x="461.107963" xlink:href="#ma9e29ea524" y="247.107846"/>
     <use style="fill:#1f77b4;stroke:#1f77b4;stroke-linejoin:miter;" x="450.267416" xlink:href="#ma9e29ea524" y="248.059945"/>
     <use style="fill:#1f77b4;stroke:#1f77b4;stroke-linejoin:miter;" x="440.436561" xlink:href="#ma9e29ea524" y="250.686024"/>
     <use style="fill:#1f77b4;stroke:#1f77b4;stroke-linejoin:miter;" x="429.142679" xlink:href="#ma9e29ea524" y="251.836847"/>
     <use style="fill:#1f77b4;stroke:#1f77b4;stroke-linejoin:miter;" x="418.048519" xlink:href="#ma9e29ea524" y="253.54071"/>
     <use style="fill:#1f77b4;stroke:#1f77b4;stroke-linejoin:miter;" x="417.724307" xlink:href="#ma9e29ea524" y="266.532845"/>
     <use style="fill:#1f77b4;stroke:#1f77b4;stroke-linejoin:miter;" x="400.769503" xlink:href="#ma9e29ea524" y="262.792215"/>
     <use style="fill:#1f77b4;stroke:#1f77b4;stroke-linejoin:miter;" x="397.272879" xlink:href="#ma9e29ea524" y="272.04046"/>
     <use style="fill:#1f77b4;stroke:#1f77b4;stroke-linejoin:miter;" x="388.722142" xlink:href="#ma9e29ea524" y="276.39027"/>
     <use style="fill:#1f77b4;stroke:#1f77b4;stroke-linejoin:miter;" x="393.644409" xlink:href="#ma9e29ea524" y="291.216883"/>
     <use style="fill:#1f77b4;stroke:#1f77b4;stroke-linejoin:miter;" x="416.433242" xlink:href="#ma9e29ea524" y="317.142171"/>
     <use style="fill:#1f77b4;stroke:#1f77b4;stroke-linejoin:miter;" x="432.778865" xlink:href="#ma9e29ea524" y="343.154731"/>
     <use style="fill:#1f77b4;stroke:#1f77b4;stroke-linejoin:miter;" x="420.260505" xlink:href="#ma9e29ea524" y="342.827367"/>
     <use style="fill:#1f77b4;stroke:#1f77b4;stroke-linejoin:miter;" x="424.962314" xlink:href="#ma9e29ea524" y="352.038283"/>
     <use style="fill:#1f77b4;stroke:#1f77b4;stroke-linejoin:miter;" x="419.100532" xlink:href="#ma9e29ea524" y="355.537992"/>
     <use style="fill:#1f77b4;stroke:#1f77b4;stroke-linejoin:miter;" x="408.221007" xlink:href="#ma9e29ea524" y="356.90309"/>
     <use style="fill:#1f77b4;stroke:#1f77b4;stroke-linejoin:miter;" x="407.376186" xlink:href="#ma9e29ea524" y="363.039168"/>
     <use style="fill:#1f77b4;stroke:#1f77b4;stroke-linejoin:miter;" x="455.022924" xlink:href="#ma9e29ea524" y="391.735565"/>
     <use style="fill:#1f77b4;stroke:#1f77b4;stroke-linejoin:miter;" x="455.514542" xlink:href="#ma9e29ea524" y="396.061057"/>
     <use style="fill:#1f77b4;stroke:#1f77b4;stroke-linejoin:miter;" x="456.768912" xlink:href="#ma9e29ea524" y="400.568306"/>
     <use style="fill:#1f77b4;stroke:#1f77b4;stroke-linejoin:miter;" x="457.506037" xlink:href="#ma9e29ea524" y="404.710362"/>
     <use style="fill:#1f77b4;stroke:#1f77b4;stroke-linejoin:miter;" x="458.903313" xlink:href="#ma9e29ea524" y="408.915657"/>
     <use style="fill:#1f77b4;stroke:#1f77b4;stroke-linejoin:miter;" x="458.215122" xlink:href="#ma9e29ea524" y="412.445072"/>
     <use style="fill:#1f77b4;stroke:#1f77b4;stroke-linejoin:miter;" x="442.609404" xlink:href="#ma9e29ea524" y="413.569994"/>
     <use style="fill:#1f77b4;stroke:#1f77b4;stroke-linejoin:miter;" x="428.587661" xlink:href="#ma9e29ea524" y="415.567349"/>
     <use style="fill:#1f77b4;stroke:#1f77b4;stroke-linejoin:miter;" x="425.456766" xlink:href="#ma9e29ea524" y="419.66105"/>
     <use style="fill:#1f77b4;stroke:#1f77b4;stroke-linejoin:miter;" x="417.896981" xlink:href="#ma9e29ea524" y="423.411853"/>
     <use style="fill:#1f77b4;stroke:#1f77b4;stroke-linejoin:miter;" x="419.225921" xlink:href="#ma9e29ea524" y="428.099507"/>
     <use style="fill:#1f77b4;stroke:#1f77b4;stroke-linejoin:miter;" x="419.415221" xlink:href="#ma9e29ea524" y="432.67067"/>
     <use style="fill:#1f77b4;stroke:#1f77b4;stroke-linejoin:miter;" x="420.741715" xlink:href="#ma9e29ea524" y="436.871627"/>
     <use style="fill:#1f77b4;stroke:#1f77b4;stroke-linejoin:miter;" x="411.022214" xlink:href="#ma9e29ea524" y="441.425702"/>
     <use style="fill:#1f77b4;stroke:#1f77b4;stroke-linejoin:miter;" x="394.854578" xlink:href="#ma9e29ea524" y="446.828737"/>
     <use style="fill:#1f77b4;stroke:#1f77b4;stroke-linejoin:miter;" x="395.788174" xlink:href="#ma9e29ea524" y="452.001888"/>
     <use style="fill:#1f77b4;stroke:#1f77b4;stroke-linejoin:miter;" x="397.954272" xlink:href="#ma9e29ea524" y="456.992687"/>
     <use style="fill:#1f77b4;stroke:#1f77b4;stroke-linejoin:miter;" x="399.05852" xlink:href="#ma9e29ea524" y="462.06256"/>
     <use style="fill:#1f77b4;stroke:#1f77b4;stroke-linejoin:miter;" x="401.405682" xlink:href="#ma9e29ea524" y="466.817039"/>
     <use style="fill:#1f77b4;stroke:#1f77b4;stroke-linejoin:miter;" x="437.408122" xlink:href="#ma9e29ea524" y="465.637555"/>
     <use style="fill:#1f77b4;stroke:#1f77b4;stroke-linejoin:miter;" x="403.625469" xlink:href="#ma9e29ea524" y="476.88644"/>
     <use style="fill:#1f77b4;stroke:#1f77b4;stroke-linejoin:miter;" x="404.338113" xlink:href="#ma9e29ea524" y="482.16443"/>
     <use style="fill:#1f77b4;stroke:#1f77b4;stroke-linejoin:miter;" x="405.899614" xlink:href="#ma9e29ea524" y="487.125197"/>
     <use style="fill:#1f77b4;stroke:#1f77b4;stroke-linejoin:miter;" x="406.837154" xlink:href="#ma9e29ea524" y="492.410462"/>
     <use style="fill:#1f77b4;stroke:#1f77b4;stroke-linejoin:miter;" x="407.67698" xlink:href="#ma9e29ea524" y="498.057202"/>
     <use style="fill:#1f77b4;stroke:#1f77b4;stroke-linejoin:miter;" x="433.714676" xlink:href="#ma9e29ea524" y="516.65786"/>
     <use style="fill:#1f77b4;stroke:#1f77b4;stroke-linejoin:miter;" x="448.95386" xlink:href="#ma9e29ea524" y="514.668466"/>
     <use style="fill:#1f77b4;stroke:#1f77b4;stroke-linejoin:miter;" x="462.00781" xlink:href="#ma9e29ea524" y="513.148519"/>
     <use style="fill:#1f77b4;stroke:#1f77b4;stroke-linejoin:miter;" x="457.931565" xlink:href="#ma9e29ea524" y="521.233663"/>
     <use style="fill:#1f77b4;stroke:#1f77b4;stroke-linejoin:miter;" x="456.760891" xlink:href="#ma9e29ea524" y="528.222319"/>
     <use style="fill:#1f77b4;stroke:#1f77b4;stroke-linejoin:miter;" x="456.473681" xlink:href="#ma9e29ea524" y="534.980161"/>
     <use style="fill:#1f77b4;stroke:#1f77b4;stroke-linejoin:miter;" x="464.995068" xlink:href="#ma9e29ea524" y="535.656981"/>
     <use style="fill:#1f77b4;stroke:#1f77b4;stroke-linejoin:miter;" x="471.379133" xlink:href="#ma9e29ea524" y="537.340069"/>
     <use style="fill:#1f77b4;stroke:#1f77b4;stroke-linejoin:miter;" x="453.74931" xlink:href="#ma9e29ea524" y="560.327344"/>
     <use style="fill:#1f77b4;stroke:#1f77b4;stroke-linejoin:miter;" x="451.623686" xlink:href="#ma9e29ea524" y="581.715451"/>
     <use style="fill:#1f77b4;stroke:#1f77b4;stroke-linejoin:miter;" x="528.494773" xlink:href="#ma9e29ea524" y="508.294722"/>
     <use style="fill:#1f77b4;stroke:#1f77b4;stroke-linejoin:miter;" x="537.168345" xlink:href="#ma9e29ea524" y="503.533987"/>
     <use style="fill:#1f77b4;stroke:#1f77b4;stroke-linejoin:miter;" x="545.891555" xlink:href="#ma9e29ea524" y="497.96421"/>
     <use style="fill:#1f77b4;stroke:#1f77b4;stroke-linejoin:miter;" x="551.061398" xlink:href="#ma9e29ea524" y="495.925931"/>
     <use style="fill:#1f77b4;stroke:#1f77b4;stroke-linejoin:miter;" x="554.158854" xlink:href="#ma9e29ea524" y="496.665058"/>
     <use style="fill:#1f77b4;stroke:#1f77b4;stroke-linejoin:miter;" x="556.4901" xlink:href="#ma9e29ea524" y="498.132156"/>
     <use style="fill:#1f77b4;stroke:#1f77b4;stroke-linejoin:miter;" x="559.824571" xlink:href="#ma9e29ea524" y="498.338007"/>
     <use style="fill:#1f77b4;stroke:#1f77b4;stroke-linejoin:miter;" x="564.966018" xlink:href="#ma9e29ea524" y="494.75798"/>
     <use style="fill:#1f77b4;stroke:#1f77b4;stroke-linejoin:miter;" x="568.384201" xlink:href="#ma9e29ea524" y="493.709315"/>
     <use style="fill:#1f77b4;stroke:#1f77b4;stroke-linejoin:miter;" x="571.259543" xlink:href="#ma9e29ea524" y="493.657885"/>
     <use style="fill:#1f77b4;stroke:#1f77b4;stroke-linejoin:miter;" x="574.50669" xlink:href="#ma9e29ea524" y="493.335781"/>
     <use style="fill:#1f77b4;stroke:#1f77b4;stroke-linejoin:miter;" x="576.639275" xlink:href="#ma9e29ea524" y="494.84635"/>
     <use style="fill:#1f77b4;stroke:#1f77b4;stroke-linejoin:miter;" x="578.862174" xlink:href="#ma9e29ea524" y="497.737727"/>
     <use style="fill:#1f77b4;stroke:#1f77b4;stroke-linejoin:miter;" x="577.297254" xlink:href="#ma9e29ea524" y="614.264219"/>
     <use style="fill:#1f77b4;stroke:#1f77b4;stroke-linejoin:miter;" x="584.841686" xlink:href="#ma9e29ea524" y="636.131347"/>
     <use style="fill:#1f77b4;stroke:#1f77b4;stroke-linejoin:miter;" x="594.17296" xlink:href="#ma9e29ea524" y="642.496052"/>
     <use style="fill:#1f77b4;stroke:#1f77b4;stroke-linejoin:miter;" x="602.990571" xlink:href="#ma9e29ea524" y="620.134594"/>
     <use style="fill:#1f77b4;stroke:#1f77b4;stroke-linejoin:miter;" x="613.825412" xlink:href="#ma9e29ea524" y="637.100897"/>
     <use style="fill:#1f77b4;stroke:#1f77b4;stroke-linejoin:miter;" x="623.773058" xlink:href="#ma9e29ea524" y="640.235189"/>
     <use style="fill:#1f77b4;stroke:#1f77b4;stroke-linejoin:miter;" x="646.565824" xlink:href="#ma9e29ea524" y="615.594914"/>
     <use style="fill:#1f77b4;stroke:#1f77b4;stroke-linejoin:miter;" x="661.519095" xlink:href="#ma9e29ea524" y="633.0275"/>
     <use style="fill:#1f77b4;stroke:#1f77b4;stroke-linejoin:miter;" x="670.493676" xlink:href="#ma9e29ea524" y="607.524971"/>
     <use style="fill:#1f77b4;stroke:#1f77b4;stroke-linejoin:miter;" x="671.575517" xlink:href="#ma9e29ea524" y="591.741341"/>
     <use style="fill:#1f77b4;stroke:#1f77b4;stroke-linejoin:miter;" x="684.169667" xlink:href="#ma9e29ea524" y="598.588875"/>
     <use style="fill:#1f77b4;stroke:#1f77b4;stroke-linejoin:miter;" x="692.988024" xlink:href="#ma9e29ea524" y="598.062684"/>
     <use style="fill:#1f77b4;stroke:#1f77b4;stroke-linejoin:miter;" x="704.757864" xlink:href="#ma9e29ea524" y="601.332802"/>
     <use style="fill:#1f77b4;stroke:#1f77b4;stroke-linejoin:miter;" x="746.882645" xlink:href="#ma9e29ea524" y="601.31199"/>
     <use style="fill:#1f77b4;stroke:#1f77b4;stroke-linejoin:miter;" x="755.882595" xlink:href="#ma9e29ea524" y="598.482491"/>
     <use style="fill:#1f77b4;stroke:#1f77b4;stroke-linejoin:miter;" x="760.012225" xlink:href="#ma9e29ea524" y="590.839669"/>
     <use style="fill:#1f77b4;stroke:#1f77b4;stroke-linejoin:miter;" x="769.170594" xlink:href="#ma9e29ea524" y="588.053206"/>
     <use style="fill:#1f77b4;stroke:#1f77b4;stroke-linejoin:miter;" x="781.672782" xlink:href="#ma9e29ea524" y="587.502083"/>
     <use style="fill:#1f77b4;stroke:#1f77b4;stroke-linejoin:miter;" x="789.628629" xlink:href="#ma9e29ea524" y="583.166811"/>
     <use style="fill:#1f77b4;stroke:#1f77b4;stroke-linejoin:miter;" x="803.132021" xlink:href="#ma9e29ea524" y="582.53372"/>
     <use style="fill:#1f77b4;stroke:#1f77b4;stroke-linejoin:miter;" x="817.03249" xlink:href="#ma9e29ea524" y="581.593814"/>
     <use style="fill:#1f77b4;stroke:#1f77b4;stroke-linejoin:miter;" x="830.317314" xlink:href="#ma9e29ea524" y="579.563471"/>
     <use style="fill:#1f77b4;stroke:#1f77b4;stroke-linejoin:miter;" x="836.595614" xlink:href="#ma9e29ea524" y="572.302296"/>
     <use style="fill:#1f77b4;stroke:#1f77b4;stroke-linejoin:miter;" x="851.500855" xlink:href="#ma9e29ea524" y="570.273425"/>
     <use style="fill:#1f77b4;stroke:#1f77b4;stroke-linejoin:miter;" x="875.91276" xlink:href="#ma9e29ea524" y="572.103474"/>
     <use style="fill:#1f77b4;stroke:#1f77b4;stroke-linejoin:miter;" x="872.572337" xlink:href="#ma9e29ea524" y="560.09768"/>
     <use style="fill:#1f77b4;stroke:#1f77b4;stroke-linejoin:miter;" x="890.380622" xlink:href="#ma9e29ea524" y="557.531217"/>
     <use style="fill:#1f77b4;stroke:#1f77b4;stroke-linejoin:miter;" x="901.161812" xlink:href="#ma9e29ea524" y="551.538934"/>
     <use style="fill:#1f77b4;stroke:#1f77b4;stroke-linejoin:miter;" x="937.013547" xlink:href="#ma9e29ea524" y="553.94129"/>
     <use style="fill:#1f77b4;stroke:#1f77b4;stroke-linejoin:miter;" x="1056.398602" xlink:href="#ma9e29ea524" y="538.972417"/>
     <use style="fill:#1f77b4;stroke:#1f77b4;stroke-linejoin:miter;" x="1075.740918" xlink:href="#ma9e29ea524" y="529.430154"/>
     <use style="fill:#1f77b4;stroke:#1f77b4;stroke-linejoin:miter;" x="1084.762181" xlink:href="#ma9e29ea524" y="517.671648"/>
     <use style="fill:#1f77b4;stroke:#1f77b4;stroke-linejoin:miter;" x="1110.521207" xlink:href="#ma9e29ea524" y="507.715418"/>
    </g>
   </g>
   <g id="patch_3">
    <path d="M 144 768.96 
L 144 103.68 
" style="fill:none;stroke:#000000;stroke-linecap:square;stroke-linejoin:miter;stroke-width:0.8;"/>
   </g>
   <g id="patch_4">
    <path d="M 1036.8 768.96 
L 1036.8 103.68 
" style="fill:none;stroke:#000000;stroke-linecap:square;stroke-linejoin:miter;stroke-width:0.8;"/>
   </g>
   <g id="patch_5">
    <path d="M 144 768.96 
L 1036.8 768.96 
" style="fill:none;stroke:#000000;stroke-linecap:square;stroke-linejoin:miter;stroke-width:0.8;"/>
   </g>
   <g id="patch_6">
    <path d="M 144 103.68 
L 1036.8 103.68 
" style="fill:none;stroke:#000000;stroke-linecap:square;stroke-linejoin:miter;stroke-width:0.8;"/>
   </g>
  </g>
 </g>
 <defs>
  <clipPath id="pf78e8875a1">
   <rect height="665.28" width="892.8" x="144" y="103.68"/>
  </clipPath>
 </defs>
</svg>
