<?xml version="1.0" encoding="utf-8" standalone="no"?>
<!DOCTYPE svg PUBLIC "-//W3C//DTD SVG 1.1//EN"
  "http://www.w3.org/Graphics/SVG/1.1/DTD/svg11.dtd">
<!-- Created with matplotlib (http://matplotlib.org/) -->
<svg height="864pt" version="1.1" viewBox="0 0 1152 864" width="1152pt" xmlns="http://www.w3.org/2000/svg" xmlns:xlink="http://www.w3.org/1999/xlink">
 <defs>
  <style type="text/css">
*{stroke-linecap:butt;stroke-linejoin:round;}
  </style>
 </defs>
 <g id="figure_1">
  <g id="patch_1">
   <path d="M 0 864 
L 1152 864 
L 1152 0 
L 0 0 
z
" style="fill:#ffffff;"/>
  </g>
  <g id="axes_1">
   <g id="patch_2">
    <path d="M 144 768.96 
L 1036.8 768.96 
L 1036.8 103.68 
L 144 103.68 
z
" style="fill:#ffffff;"/>
   </g>
   <g id="matplotlib.axis_1">
    <g id="xtick_1">
     <g id="line2d_1">
      <defs>
       <path d="M 0 0 
L 0 3.5 
" id="m64897ad4f3" style="stroke:#000000;stroke-width:0.8;"/>
      </defs>
      <g>
       <use style="stroke:#000000;stroke-width:0.8;" x="144" xlink:href="#m64897ad4f3" y="768.96"/>
      </g>
     </g>
     <g id="text_1">
      <!-- −4000 -->
      <defs>
       <path d="M 10.59375 35.5 
L 73.1875 35.5 
L 73.1875 27.203125 
L 10.59375 27.203125 
z
" id="DejaVuSans-2212"/>
       <path d="M 37.796875 64.3125 
L 12.890625 25.390625 
L 37.796875 25.390625 
z
M 35.203125 72.90625 
L 47.609375 72.90625 
L 47.609375 25.390625 
L 58.015625 25.390625 
L 58.015625 17.1875 
L 47.609375 17.1875 
L 47.609375 0 
L 37.796875 0 
L 37.796875 17.1875 
L 4.890625 17.1875 
L 4.890625 26.703125 
z
" id="DejaVuSans-34"/>
       <path d="M 31.78125 66.40625 
Q 24.171875 66.40625 20.328125 58.90625 
Q 16.5 51.421875 16.5 36.375 
Q 16.5 21.390625 20.328125 13.890625 
Q 24.171875 6.390625 31.78125 6.390625 
Q 39.453125 6.390625 43.28125 13.890625 
Q 47.125 21.390625 47.125 36.375 
Q 47.125 51.421875 43.28125 58.90625 
Q 39.453125 66.40625 31.78125 66.40625 
z
M 31.78125 74.21875 
Q 44.046875 74.21875 50.515625 64.515625 
Q 56.984375 54.828125 56.984375 36.375 
Q 56.984375 17.96875 50.515625 8.265625 
Q 44.046875 -1.421875 31.78125 -1.421875 
Q 19.53125 -1.421875 13.0625 8.265625 
Q 6.59375 17.96875 6.59375 36.375 
Q 6.59375 54.828125 13.0625 64.515625 
Q 19.53125 74.21875 31.78125 74.21875 
z
" id="DejaVuSans-30"/>
      </defs>
      <g transform="translate(127.085156 783.558437)scale(0.1 -0.1)">
       <use xlink:href="#DejaVuSans-2212"/>
       <use x="83.789062" xlink:href="#DejaVuSans-34"/>
       <use x="147.412109" xlink:href="#DejaVuSans-30"/>
       <use x="211.035156" xlink:href="#DejaVuSans-30"/>
       <use x="274.658203" xlink:href="#DejaVuSans-30"/>
      </g>
     </g>
    </g>
    <g id="xtick_2">
     <g id="line2d_2">
      <g>
       <use style="stroke:#000000;stroke-width:0.8;" x="255.6" xlink:href="#m64897ad4f3" y="768.96"/>
      </g>
     </g>
     <g id="text_2">
      <!-- −3000 -->
      <defs>
       <path d="M 40.578125 39.3125 
Q 47.65625 37.796875 51.625 33 
Q 55.609375 28.21875 55.609375 21.1875 
Q 55.609375 10.40625 48.1875 4.484375 
Q 40.765625 -1.421875 27.09375 -1.421875 
Q 22.515625 -1.421875 17.65625 -0.515625 
Q 12.796875 0.390625 7.625 2.203125 
L 7.625 11.71875 
Q 11.71875 9.328125 16.59375 8.109375 
Q 21.484375 6.890625 26.8125 6.890625 
Q 36.078125 6.890625 40.9375 10.546875 
Q 45.796875 14.203125 45.796875 21.1875 
Q 45.796875 27.640625 41.28125 31.265625 
Q 36.765625 34.90625 28.71875 34.90625 
L 20.21875 34.90625 
L 20.21875 43.015625 
L 29.109375 43.015625 
Q 36.375 43.015625 40.234375 45.921875 
Q 44.09375 48.828125 44.09375 54.296875 
Q 44.09375 59.90625 40.109375 62.90625 
Q 36.140625 65.921875 28.71875 65.921875 
Q 24.65625 65.921875 20.015625 65.03125 
Q 15.375 64.15625 9.8125 62.3125 
L 9.8125 71.09375 
Q 15.4375 72.65625 20.34375 73.4375 
Q 25.25 74.21875 29.59375 74.21875 
Q 40.828125 74.21875 47.359375 69.109375 
Q 53.90625 64.015625 53.90625 55.328125 
Q 53.90625 49.265625 50.4375 45.09375 
Q 46.96875 40.921875 40.578125 39.3125 
z
" id="DejaVuSans-33"/>
      </defs>
      <g transform="translate(238.685156 783.558437)scale(0.1 -0.1)">
       <use xlink:href="#DejaVuSans-2212"/>
       <use x="83.789062" xlink:href="#DejaVuSans-33"/>
       <use x="147.412109" xlink:href="#DejaVuSans-30"/>
       <use x="211.035156" xlink:href="#DejaVuSans-30"/>
       <use x="274.658203" xlink:href="#DejaVuSans-30"/>
      </g>
     </g>
    </g>
    <g id="xtick_3">
     <g id="line2d_3">
      <g>
       <use style="stroke:#000000;stroke-width:0.8;" x="367.2" xlink:href="#m64897ad4f3" y="768.96"/>
      </g>
     </g>
     <g id="text_3">
      <!-- −2000 -->
      <defs>
       <path d="M 19.1875 8.296875 
L 53.609375 8.296875 
L 53.609375 0 
L 7.328125 0 
L 7.328125 8.296875 
Q 12.9375 14.109375 22.625 23.890625 
Q 32.328125 33.6875 34.8125 36.53125 
Q 39.546875 41.84375 41.421875 45.53125 
Q 43.3125 49.21875 43.3125 52.78125 
Q 43.3125 58.59375 39.234375 62.25 
Q 35.15625 65.921875 28.609375 65.921875 
Q 23.96875 65.921875 18.8125 64.3125 
Q 13.671875 62.703125 7.8125 59.421875 
L 7.8125 69.390625 
Q 13.765625 71.78125 18.9375 73 
Q 24.125 74.21875 28.421875 74.21875 
Q 39.75 74.21875 46.484375 68.546875 
Q 53.21875 62.890625 53.21875 53.421875 
Q 53.21875 48.921875 51.53125 44.890625 
Q 49.859375 40.875 45.40625 35.40625 
Q 44.1875 33.984375 37.640625 27.21875 
Q 31.109375 20.453125 19.1875 8.296875 
z
" id="DejaVuSans-32"/>
      </defs>
      <g transform="translate(350.285156 783.558437)scale(0.1 -0.1)">
       <use xlink:href="#DejaVuSans-2212"/>
       <use x="83.789062" xlink:href="#DejaVuSans-32"/>
       <use x="147.412109" xlink:href="#DejaVuSans-30"/>
       <use x="211.035156" xlink:href="#DejaVuSans-30"/>
       <use x="274.658203" xlink:href="#DejaVuSans-30"/>
      </g>
     </g>
    </g>
    <g id="xtick_4">
     <g id="line2d_4">
      <g>
       <use style="stroke:#000000;stroke-width:0.8;" x="478.8" xlink:href="#m64897ad4f3" y="768.96"/>
      </g>
     </g>
     <g id="text_4">
      <!-- −1000 -->
      <defs>
       <path d="M 12.40625 8.296875 
L 28.515625 8.296875 
L 28.515625 63.921875 
L 10.984375 60.40625 
L 10.984375 69.390625 
L 28.421875 72.90625 
L 38.28125 72.90625 
L 38.28125 8.296875 
L 54.390625 8.296875 
L 54.390625 0 
L 12.40625 0 
z
" id="DejaVuSans-31"/>
      </defs>
      <g transform="translate(461.885156 783.558437)scale(0.1 -0.1)">
       <use xlink:href="#DejaVuSans-2212"/>
       <use x="83.789062" xlink:href="#DejaVuSans-31"/>
       <use x="147.412109" xlink:href="#DejaVuSans-30"/>
       <use x="211.035156" xlink:href="#DejaVuSans-30"/>
       <use x="274.658203" xlink:href="#DejaVuSans-30"/>
      </g>
     </g>
    </g>
    <g id="xtick_5">
     <g id="line2d_5">
      <g>
       <use style="stroke:#000000;stroke-width:0.8;" x="590.4" xlink:href="#m64897ad4f3" y="768.96"/>
      </g>
     </g>
     <g id="text_5">
      <!-- 0 -->
      <g transform="translate(587.21875 783.558437)scale(0.1 -0.1)">
       <use xlink:href="#DejaVuSans-30"/>
      </g>
     </g>
    </g>
    <g id="xtick_6">
     <g id="line2d_6">
      <g>
       <use style="stroke:#000000;stroke-width:0.8;" x="702" xlink:href="#m64897ad4f3" y="768.96"/>
      </g>
     </g>
     <g id="text_6">
      <!-- 1000 -->
      <g transform="translate(689.275 783.558437)scale(0.1 -0.1)">
       <use xlink:href="#DejaVuSans-31"/>
       <use x="63.623047" xlink:href="#DejaVuSans-30"/>
       <use x="127.246094" xlink:href="#DejaVuSans-30"/>
       <use x="190.869141" xlink:href="#DejaVuSans-30"/>
      </g>
     </g>
    </g>
    <g id="xtick_7">
     <g id="line2d_7">
      <g>
       <use style="stroke:#000000;stroke-width:0.8;" x="813.6" xlink:href="#m64897ad4f3" y="768.96"/>
      </g>
     </g>
     <g id="text_7">
      <!-- 2000 -->
      <g transform="translate(800.875 783.558437)scale(0.1 -0.1)">
       <use xlink:href="#DejaVuSans-32"/>
       <use x="63.623047" xlink:href="#DejaVuSans-30"/>
       <use x="127.246094" xlink:href="#DejaVuSans-30"/>
       <use x="190.869141" xlink:href="#DejaVuSans-30"/>
      </g>
     </g>
    </g>
    <g id="xtick_8">
     <g id="line2d_8">
      <g>
       <use style="stroke:#000000;stroke-width:0.8;" x="925.2" xlink:href="#m64897ad4f3" y="768.96"/>
      </g>
     </g>
     <g id="text_8">
      <!-- 3000 -->
      <g transform="translate(912.475 783.558437)scale(0.1 -0.1)">
       <use xlink:href="#DejaVuSans-33"/>
       <use x="63.623047" xlink:href="#DejaVuSans-30"/>
       <use x="127.246094" xlink:href="#DejaVuSans-30"/>
       <use x="190.869141" xlink:href="#DejaVuSans-30"/>
      </g>
     </g>
    </g>
    <g id="xtick_9">
     <g id="line2d_9">
      <g>
       <use style="stroke:#000000;stroke-width:0.8;" x="1036.8" xlink:href="#m64897ad4f3" y="768.96"/>
      </g>
     </g>
     <g id="text_9">
      <!-- 4000 -->
      <g transform="translate(1024.075 783.558437)scale(0.1 -0.1)">
       <use xlink:href="#DejaVuSans-34"/>
       <use x="63.623047" xlink:href="#DejaVuSans-30"/>
       <use x="127.246094" xlink:href="#DejaVuSans-30"/>
       <use x="190.869141" xlink:href="#DejaVuSans-30"/>
      </g>
     </g>
    </g>
   </g>
   <g id="matplotlib.axis_2">
    <g id="ytick_1">
     <g id="line2d_10">
      <defs>
       <path d="M 0 0 
L -3.5 0 
" id="mb8187cc751" style="stroke:#000000;stroke-width:0.8;"/>
      </defs>
      <g>
       <use style="stroke:#000000;stroke-width:0.8;" x="144" xlink:href="#mb8187cc751" y="768.96"/>
      </g>
     </g>
     <g id="text_10">
      <!-- −4000 -->
      <g transform="translate(103.170312 772.759219)scale(0.1 -0.1)">
       <use xlink:href="#DejaVuSans-2212"/>
       <use x="83.789062" xlink:href="#DejaVuSans-34"/>
       <use x="147.412109" xlink:href="#DejaVuSans-30"/>
       <use x="211.035156" xlink:href="#DejaVuSans-30"/>
       <use x="274.658203" xlink:href="#DejaVuSans-30"/>
      </g>
     </g>
    </g>
    <g id="ytick_2">
     <g id="line2d_11">
      <g>
       <use style="stroke:#000000;stroke-width:0.8;" x="144" xlink:href="#mb8187cc751" y="685.8"/>
      </g>
     </g>
     <g id="text_11">
      <!-- −3000 -->
      <g transform="translate(103.170312 689.599219)scale(0.1 -0.1)">
       <use xlink:href="#DejaVuSans-2212"/>
       <use x="83.789062" xlink:href="#DejaVuSans-33"/>
       <use x="147.412109" xlink:href="#DejaVuSans-30"/>
       <use x="211.035156" xlink:href="#DejaVuSans-30"/>
       <use x="274.658203" xlink:href="#DejaVuSans-30"/>
      </g>
     </g>
    </g>
    <g id="ytick_3">
     <g id="line2d_12">
      <g>
       <use style="stroke:#000000;stroke-width:0.8;" x="144" xlink:href="#mb8187cc751" y="602.64"/>
      </g>
     </g>
     <g id="text_12">
      <!-- −2000 -->
      <g transform="translate(103.170312 606.439219)scale(0.1 -0.1)">
       <use xlink:href="#DejaVuSans-2212"/>
       <use x="83.789062" xlink:href="#DejaVuSans-32"/>
       <use x="147.412109" xlink:href="#DejaVuSans-30"/>
       <use x="211.035156" xlink:href="#DejaVuSans-30"/>
       <use x="274.658203" xlink:href="#DejaVuSans-30"/>
      </g>
     </g>
    </g>
    <g id="ytick_4">
     <g id="line2d_13">
      <g>
       <use style="stroke:#000000;stroke-width:0.8;" x="144" xlink:href="#mb8187cc751" y="519.48"/>
      </g>
     </g>
     <g id="text_13">
      <!-- −1000 -->
      <g transform="translate(103.170312 523.279219)scale(0.1 -0.1)">
       <use xlink:href="#DejaVuSans-2212"/>
       <use x="83.789062" xlink:href="#DejaVuSans-31"/>
       <use x="147.412109" xlink:href="#DejaVuSans-30"/>
       <use x="211.035156" xlink:href="#DejaVuSans-30"/>
       <use x="274.658203" xlink:href="#DejaVuSans-30"/>
      </g>
     </g>
    </g>
    <g id="ytick_5">
     <g id="line2d_14">
      <g>
       <use style="stroke:#000000;stroke-width:0.8;" x="144" xlink:href="#mb8187cc751" y="436.32"/>
      </g>
     </g>
     <g id="text_14">
      <!-- 0 -->
      <g transform="translate(130.6375 440.119219)scale(0.1 -0.1)">
       <use xlink:href="#DejaVuSans-30"/>
      </g>
     </g>
    </g>
    <g id="ytick_6">
     <g id="line2d_15">
      <g>
       <use style="stroke:#000000;stroke-width:0.8;" x="144" xlink:href="#mb8187cc751" y="353.16"/>
      </g>
     </g>
     <g id="text_15">
      <!-- 1000 -->
      <g transform="translate(111.55 356.959219)scale(0.1 -0.1)">
       <use xlink:href="#DejaVuSans-31"/>
       <use x="63.623047" xlink:href="#DejaVuSans-30"/>
       <use x="127.246094" xlink:href="#DejaVuSans-30"/>
       <use x="190.869141" xlink:href="#DejaVuSans-30"/>
      </g>
     </g>
    </g>
    <g id="ytick_7">
     <g id="line2d_16">
      <g>
       <use style="stroke:#000000;stroke-width:0.8;" x="144" xlink:href="#mb8187cc751" y="270"/>
      </g>
     </g>
     <g id="text_16">
      <!-- 2000 -->
      <g transform="translate(111.55 273.799219)scale(0.1 -0.1)">
       <use xlink:href="#DejaVuSans-32"/>
       <use x="63.623047" xlink:href="#DejaVuSans-30"/>
       <use x="127.246094" xlink:href="#DejaVuSans-30"/>
       <use x="190.869141" xlink:href="#DejaVuSans-30"/>
      </g>
     </g>
    </g>
    <g id="ytick_8">
     <g id="line2d_17">
      <g>
       <use style="stroke:#000000;stroke-width:0.8;" x="144" xlink:href="#mb8187cc751" y="186.84"/>
      </g>
     </g>
     <g id="text_17">
      <!-- 3000 -->
      <g transform="translate(111.55 190.639219)scale(0.1 -0.1)">
       <use xlink:href="#DejaVuSans-33"/>
       <use x="63.623047" xlink:href="#DejaVuSans-30"/>
       <use x="127.246094" xlink:href="#DejaVuSans-30"/>
       <use x="190.869141" xlink:href="#DejaVuSans-30"/>
      </g>
     </g>
    </g>
    <g id="ytick_9">
     <g id="line2d_18">
      <g>
       <use style="stroke:#000000;stroke-width:0.8;" x="144" xlink:href="#mb8187cc751" y="103.68"/>
      </g>
     </g>
     <g id="text_18">
      <!-- 4000 -->
      <g transform="translate(111.55 107.479219)scale(0.1 -0.1)">
       <use xlink:href="#DejaVuSans-34"/>
       <use x="63.623047" xlink:href="#DejaVuSans-30"/>
       <use x="127.246094" xlink:href="#DejaVuSans-30"/>
       <use x="190.869141" xlink:href="#DejaVuSans-30"/>
      </g>
     </g>
    </g>
   </g>
   <g id="line2d_19">
    <path clip-path="url(#p04d67467e5)" d="M 590.4 768.96 
L 590.4 103.68 
" style="fill:none;stroke:#1f77b4;stroke-linecap:square;stroke-width:1.5;"/>
   </g>
   <g id="line2d_20">
    <path clip-path="url(#p04d67467e5)" d="M 144 436.32 
L 1036.8 436.32 
" style="fill:none;stroke:#1f77b4;stroke-linecap:square;stroke-width:1.5;"/>
   </g>
   <g id="line2d_21">
    <defs>
     <path d="M 0 3 
C 0.795609 3 1.55874 2.683901 2.12132 2.12132 
C 2.683901 1.55874 3 0.795609 3 0 
C 3 -0.795609 2.683901 -1.55874 2.12132 -2.12132 
C 1.55874 -2.683901 0.795609 -3 0 -3 
C -0.795609 -3 -1.55874 -2.683901 -2.12132 -2.12132 
C -2.683901 -1.55874 -3 -0.795609 -3 0 
C -3 0.795609 -2.683901 1.55874 -2.12132 2.12132 
C -1.55874 2.683901 -0.795609 3 0 3 
z
" id="mf0e0767a52" style="stroke:#008000;"/>
    </defs>
    <g clip-path="url(#p04d67467e5)">
     <use style="fill:#008000;stroke:#008000;" x="1166.442599" xlink:href="#mf0e0767a52" y="496.407678"/>
    </g>
   </g>
   <g id="line2d_22">
    <g clip-path="url(#p04d67467e5)">
     <use style="fill:#008000;stroke:#008000;" x="1413.513401" xlink:href="#mf0e0767a52" y="485.77016"/>
    </g>
   </g>
   <g id="line2d_23">
    <g clip-path="url(#p04d67467e5)">
     <use style="fill:#008000;stroke:#008000;" x="1078.233758" xlink:href="#mf0e0767a52" y="442.96267"/>
    </g>
   </g>
   <g id="line2d_24">
    <g clip-path="url(#p04d67467e5)">
     <use style="fill:#008000;stroke:#008000;" x="1348.473919" xlink:href="#mf0e0767a52" y="345.112755"/>
    </g>
   </g>
   <g id="line2d_25">
    <g clip-path="url(#p04d67467e5)">
     <use style="fill:#008000;stroke:#008000;" x="1273.9885" xlink:href="#mf0e0767a52" y="322.079976"/>
    </g>
   </g>
   <g id="line2d_26">
    <g clip-path="url(#p04d67467e5)">
     <use style="fill:#008000;stroke:#008000;" x="1322.062778" xlink:href="#mf0e0767a52" y="279.179621"/>
    </g>
   </g>
   <g id="line2d_27">
    <g clip-path="url(#p04d67467e5)">
     <use style="fill:#008000;stroke:#008000;" x="647.240222" xlink:href="#mf0e0767a52" y="393.383364"/>
    </g>
   </g>
   <g id="line2d_28">
    <g clip-path="url(#p04d67467e5)">
     <use style="fill:#008000;stroke:#008000;" x="647.240222" xlink:href="#mf0e0767a52" y="393.383364"/>
    </g>
   </g>
   <g id="line2d_29">
    <g clip-path="url(#p04d67467e5)">
     <use style="fill:#008000;stroke:#008000;" x="563.131075" xlink:href="#mf0e0767a52" y="226.490982"/>
    </g>
   </g>
   <g id="line2d_30">
    <g clip-path="url(#p04d67467e5)">
     <use style="fill:#008000;stroke:#008000;" x="576.234217" xlink:href="#mf0e0767a52" y="396.403189"/>
    </g>
   </g>
   <g id="line2d_31">
    <g clip-path="url(#p04d67467e5)">
     <use style="fill:#008000;stroke:#008000;" x="576.234217" xlink:href="#mf0e0767a52" y="396.403189"/>
    </g>
   </g>
   <g id="line2d_32">
    <g clip-path="url(#p04d67467e5)">
     <use style="fill:#008000;stroke:#008000;" x="464.906909" xlink:href="#mf0e0767a52" y="246.434202"/>
    </g>
   </g>
   <g id="line2d_33">
    <g clip-path="url(#p04d67467e5)">
     <use style="fill:#008000;stroke:#008000;" x="379.323679" xlink:href="#mf0e0767a52" y="289.327426"/>
    </g>
   </g>
   <g id="line2d_34">
    <g clip-path="url(#p04d67467e5)">
     <use style="fill:#008000;stroke:#008000;" x="455.597278" xlink:href="#mf0e0767a52" y="399.681698"/>
    </g>
   </g>
   <g id="line2d_35">
    <g clip-path="url(#p04d67467e5)">
     <use style="fill:#008000;stroke:#008000;" x="438.764121" xlink:href="#mf0e0767a52" y="514.387081"/>
    </g>
   </g>
   <g id="line2d_36">
    <g clip-path="url(#p04d67467e5)">
     <use style="fill:#008000;stroke:#008000;" x="683.809805" xlink:href="#mf0e0767a52" y="596.700319"/>
    </g>
   </g>
   <g id="line2d_37">
    <defs>
     <path d="M 0 1.333333 
C 0.353604 1.333333 0.692773 1.192845 0.942809 0.942809 
C 1.192845 0.692773 1.333333 0.353604 1.333333 0 
C 1.333333 -0.353604 1.192845 -0.692773 0.942809 -0.942809 
C 0.692773 -1.192845 0.353604 -1.333333 0 -1.333333 
C -0.353604 -1.333333 -0.692773 -1.192845 -0.942809 -0.942809 
C -1.192845 -0.692773 -1.333333 -0.353604 -1.333333 0 
C -1.333333 0.353604 -1.192845 0.692773 -0.942809 0.942809 
C -0.692773 1.192845 -0.353604 1.333333 0 1.333333 
z
" id="m515cb5db7c" style="stroke:#ff0000;"/>
    </defs>
    <g clip-path="url(#p04d67467e5)">
     <use style="fill:#ff0000;stroke:#ff0000;" x="1166.442599" xlink:href="#m515cb5db7c" y="496.407678"/>
     <use style="fill:#ff0000;stroke:#ff0000;" x="1413.513401" xlink:href="#m515cb5db7c" y="485.77016"/>
     <use style="fill:#ff0000;stroke:#ff0000;" x="1078.233758" xlink:href="#m515cb5db7c" y="442.96267"/>
     <use style="fill:#ff0000;stroke:#ff0000;" x="1348.473919" xlink:href="#m515cb5db7c" y="345.112755"/>
     <use style="fill:#ff0000;stroke:#ff0000;" x="1273.9885" xlink:href="#m515cb5db7c" y="322.079976"/>
     <use style="fill:#ff0000;stroke:#ff0000;" x="1322.062778" xlink:href="#m515cb5db7c" y="279.179621"/>
     <use style="fill:#ff0000;stroke:#ff0000;" x="651.750894" xlink:href="#m515cb5db7c" y="399.914875"/>
     <use style="fill:#ff0000;stroke:#ff0000;" x="641.488859" xlink:href="#m515cb5db7c" y="387.152637"/>
     <use style="fill:#ff0000;stroke:#ff0000;" x="769.182056" xlink:href="#m515cb5db7c" y="196.445141"/>
     <use style="fill:#ff0000;stroke:#ff0000;" x="744.02354" xlink:href="#m515cb5db7c" y="197.493965"/>
     <use style="fill:#ff0000;stroke:#ff0000;" x="718.071413" xlink:href="#m515cb5db7c" y="202.321746"/>
     <use style="fill:#ff0000;stroke:#ff0000;" x="695.022026" xlink:href="#m515cb5db7c" y="205.623431"/>
     <use style="fill:#ff0000;stroke:#ff0000;" x="563.131075" xlink:href="#m515cb5db7c" y="226.490982"/>
     <use style="fill:#ff0000;stroke:#ff0000;" x="579.264665" xlink:href="#m515cb5db7c" y="394.664417"/>
     <use style="fill:#ff0000;stroke:#ff0000;" x="573.448266" xlink:href="#m515cb5db7c" y="398.257396"/>
     <use style="fill:#ff0000;stroke:#ff0000;" x="464.906909" xlink:href="#m515cb5db7c" y="246.434202"/>
     <use style="fill:#ff0000;stroke:#ff0000;" x="379.323679" xlink:href="#m515cb5db7c" y="289.327426"/>
     <use style="fill:#ff0000;stroke:#ff0000;" x="418.392768" xlink:href="#m515cb5db7c" y="343.356888"/>
     <use style="fill:#ff0000;stroke:#ff0000;" x="406.322515" xlink:href="#m515cb5db7c" y="360.140093"/>
     <use style="fill:#ff0000;stroke:#ff0000;" x="454.774544" xlink:href="#m515cb5db7c" y="395.87217"/>
     <use style="fill:#ff0000;stroke:#ff0000;" x="456.604179" xlink:href="#m515cb5db7c" y="403.413899"/>
     <use style="fill:#ff0000;stroke:#ff0000;" x="473.235358" xlink:href="#m515cb5db7c" y="413.461354"/>
     <use style="fill:#ff0000;stroke:#ff0000;" x="445.329732" xlink:href="#m515cb5db7c" y="414.449428"/>
     <use style="fill:#ff0000;stroke:#ff0000;" x="417.83948" xlink:href="#m515cb5db7c" y="425.705989"/>
     <use style="fill:#ff0000;stroke:#ff0000;" x="416.047576" xlink:href="#m515cb5db7c" y="440.85693"/>
     <use style="fill:#ff0000;stroke:#ff0000;" x="395.378366" xlink:href="#m515cb5db7c" y="449.793173"/>
     <use style="fill:#ff0000;stroke:#ff0000;" x="432.125782" xlink:href="#m515cb5db7c" y="512.636942"/>
     <use style="fill:#ff0000;stroke:#ff0000;" x="445.396436" xlink:href="#m515cb5db7c" y="515.90935"/>
     <use style="fill:#ff0000;stroke:#ff0000;" x="467.931493" xlink:href="#m515cb5db7c" y="512.598825"/>
     <use style="fill:#ff0000;stroke:#ff0000;" x="457.192239" xlink:href="#m515cb5db7c" y="529.695676"/>
     <use style="fill:#ff0000;stroke:#ff0000;" x="472.769222" xlink:href="#m515cb5db7c" y="541.129656"/>
     <use style="fill:#ff0000;stroke:#ff0000;" x="463.508224" xlink:href="#m515cb5db7c" y="580.540098"/>
     <use style="fill:#ff0000;stroke:#ff0000;" x="472.456119" xlink:href="#m515cb5db7c" y="589.702124"/>
     <use style="fill:#ff0000;stroke:#ff0000;" x="474.305499" xlink:href="#m515cb5db7c" y="610.18654"/>
     <use style="fill:#ff0000;stroke:#ff0000;" x="503.657469" xlink:href="#m515cb5db7c" y="617.748335"/>
     <use style="fill:#ff0000;stroke:#ff0000;" x="523.115452" xlink:href="#m515cb5db7c" y="655.67308"/>
     <use style="fill:#ff0000;stroke:#ff0000;" x="560.584265" xlink:href="#m515cb5db7c" y="648.820534"/>
     <use style="fill:#ff0000;stroke:#ff0000;" x="580.430602" xlink:href="#m515cb5db7c" y="611.96321"/>
     <use style="fill:#ff0000;stroke:#ff0000;" x="594.909231" xlink:href="#m515cb5db7c" y="641.65613"/>
     <use style="fill:#ff0000;stroke:#ff0000;" x="602.772874" xlink:href="#m515cb5db7c" y="545.11913"/>
     <use style="fill:#ff0000;stroke:#ff0000;" x="641.95329" xlink:href="#m515cb5db7c" y="550.202223"/>
     <use style="fill:#ff0000;stroke:#ff0000;" x="675.503062" xlink:href="#m515cb5db7c" y="595.146366"/>
     <use style="fill:#ff0000;stroke:#ff0000;" x="692.312657" xlink:href="#m515cb5db7c" y="598.024003"/>
     <use style="fill:#ff0000;stroke:#ff0000;" x="747.027318" xlink:href="#m515cb5db7c" y="601.082906"/>
     <use style="fill:#ff0000;stroke:#ff0000;" x="790.454054" xlink:href="#m515cb5db7c" y="582.334473"/>
     <use style="fill:#ff0000;stroke:#ff0000;" x="814.25056" xlink:href="#m515cb5db7c" y="581.321176"/>
     <use style="fill:#ff0000;stroke:#ff0000;" x="872.643966" xlink:href="#m515cb5db7c" y="560.825188"/>
     <use style="fill:#ff0000;stroke:#ff0000;" x="896.189931" xlink:href="#m515cb5db7c" y="553.519861"/>
     <use style="fill:#ff0000;stroke:#ff0000;" x="943.494725" xlink:href="#m515cb5db7c" y="552.520761"/>
     <use style="fill:#ff0000;stroke:#ff0000;" x="1055.770665" xlink:href="#m515cb5db7c" y="542.546976"/>
     <use style="fill:#ff0000;stroke:#ff0000;" x="1086.69434" xlink:href="#m515cb5db7c" y="525.746011"/>
     <use style="fill:#ff0000;stroke:#ff0000;" x="1110.24781" xlink:href="#m515cb5db7c" y="505.931704"/>
    </g>
   </g>
   <g id="line2d_38">
    <defs>
     <path d="M -0.5 0.5 
L 0.5 0.5 
L 0.5 -0.5 
L -0.5 -0.5 
z
" id="m78a909184c" style="stroke:#1f77b4;stroke-linejoin:miter;"/>
    </defs>
    <g clip-path="url(#p04d67467e5)">
     <use style="fill:#1f77b4;stroke:#1f77b4;stroke-linejoin:miter;" x="1166.442599" xlink:href="#m78a909184c" y="496.407678"/>
     <use style="fill:#1f77b4;stroke:#1f77b4;stroke-linejoin:miter;" x="1413.513401" xlink:href="#m78a909184c" y="485.77016"/>
     <use style="fill:#1f77b4;stroke:#1f77b4;stroke-linejoin:miter;" x="1078.233758" xlink:href="#m78a909184c" y="442.96267"/>
     <use style="fill:#1f77b4;stroke:#1f77b4;stroke-linejoin:miter;" x="1348.473919" xlink:href="#m78a909184c" y="345.112755"/>
     <use style="fill:#1f77b4;stroke:#1f77b4;stroke-linejoin:miter;" x="1273.9885" xlink:href="#m78a909184c" y="322.079976"/>
     <use style="fill:#1f77b4;stroke:#1f77b4;stroke-linejoin:miter;" x="1322.062778" xlink:href="#m78a909184c" y="279.179621"/>
     <use style="fill:#1f77b4;stroke:#1f77b4;stroke-linejoin:miter;" x="651.750894" xlink:href="#m78a909184c" y="399.914875"/>
     <use style="fill:#1f77b4;stroke:#1f77b4;stroke-linejoin:miter;" x="648.176062" xlink:href="#m78a909184c" y="397.448942"/>
     <use style="fill:#1f77b4;stroke:#1f77b4;stroke-linejoin:miter;" x="645.877178" xlink:href="#m78a909184c" y="394.367254"/>
     <use style="fill:#1f77b4;stroke:#1f77b4;stroke-linejoin:miter;" x="642.134995" xlink:href="#m78a909184c" y="392.094181"/>
     <use style="fill:#1f77b4;stroke:#1f77b4;stroke-linejoin:miter;" x="641.488859" xlink:href="#m78a909184c" y="387.152637"/>
     <use style="fill:#1f77b4;stroke:#1f77b4;stroke-linejoin:miter;" x="769.182056" xlink:href="#m78a909184c" y="196.445141"/>
     <use style="fill:#1f77b4;stroke:#1f77b4;stroke-linejoin:miter;" x="744.02354" xlink:href="#m78a909184c" y="197.493965"/>
     <use style="fill:#1f77b4;stroke:#1f77b4;stroke-linejoin:miter;" x="718.071413" xlink:href="#m78a909184c" y="202.321746"/>
     <use style="fill:#1f77b4;stroke:#1f77b4;stroke-linejoin:miter;" x="695.022026" xlink:href="#m78a909184c" y="205.623431"/>
     <use style="fill:#1f77b4;stroke:#1f77b4;stroke-linejoin:miter;" x="673.289158" xlink:href="#m78a909184c" y="209.765698"/>
     <use style="fill:#1f77b4;stroke:#1f77b4;stroke-linejoin:miter;" x="653.251828" xlink:href="#m78a909184c" y="212.0736"/>
     <use style="fill:#1f77b4;stroke:#1f77b4;stroke-linejoin:miter;" x="634.084687" xlink:href="#m78a909184c" y="214.790577"/>
     <use style="fill:#1f77b4;stroke:#1f77b4;stroke-linejoin:miter;" x="614.984133" xlink:href="#m78a909184c" y="218.732431"/>
     <use style="fill:#1f77b4;stroke:#1f77b4;stroke-linejoin:miter;" x="597.166511" xlink:href="#m78a909184c" y="221.368949"/>
     <use style="fill:#1f77b4;stroke:#1f77b4;stroke-linejoin:miter;" x="579.950047" xlink:href="#m78a909184c" y="224.904316"/>
     <use style="fill:#1f77b4;stroke:#1f77b4;stroke-linejoin:miter;" x="563.131075" xlink:href="#m78a909184c" y="226.490982"/>
     <use style="fill:#1f77b4;stroke:#1f77b4;stroke-linejoin:miter;" x="579.264665" xlink:href="#m78a909184c" y="394.664417"/>
     <use style="fill:#1f77b4;stroke:#1f77b4;stroke-linejoin:miter;" x="576.676452" xlink:href="#m78a909184c" y="397.649333"/>
     <use style="fill:#1f77b4;stroke:#1f77b4;stroke-linejoin:miter;" x="573.448266" xlink:href="#m78a909184c" y="398.257396"/>
     <use style="fill:#1f77b4;stroke:#1f77b4;stroke-linejoin:miter;" x="464.906909" xlink:href="#m78a909184c" y="246.434202"/>
     <use style="fill:#1f77b4;stroke:#1f77b4;stroke-linejoin:miter;" x="447.382964" xlink:href="#m78a909184c" y="249.268281"/>
     <use style="fill:#1f77b4;stroke:#1f77b4;stroke-linejoin:miter;" x="430.202462" xlink:href="#m78a909184c" y="253.158511"/>
     <use style="fill:#1f77b4;stroke:#1f77b4;stroke-linejoin:miter;" x="399.521168" xlink:href="#m78a909184c" y="266.716402"/>
     <use style="fill:#1f77b4;stroke:#1f77b4;stroke-linejoin:miter;" x="388.152277" xlink:href="#m78a909184c" y="277.3342"/>
     <use style="fill:#1f77b4;stroke:#1f77b4;stroke-linejoin:miter;" x="379.323679" xlink:href="#m78a909184c" y="289.327426"/>
     <use style="fill:#1f77b4;stroke:#1f77b4;stroke-linejoin:miter;" x="418.392768" xlink:href="#m78a909184c" y="343.356888"/>
     <use style="fill:#1f77b4;stroke:#1f77b4;stroke-linejoin:miter;" x="419.320045" xlink:href="#m78a909184c" y="355.202624"/>
     <use style="fill:#1f77b4;stroke:#1f77b4;stroke-linejoin:miter;" x="406.322515" xlink:href="#m78a909184c" y="360.140093"/>
     <use style="fill:#1f77b4;stroke:#1f77b4;stroke-linejoin:miter;" x="454.774544" xlink:href="#m78a909184c" y="395.87217"/>
     <use style="fill:#1f77b4;stroke:#1f77b4;stroke-linejoin:miter;" x="456.604179" xlink:href="#m78a909184c" y="403.413899"/>
     <use style="fill:#1f77b4;stroke:#1f77b4;stroke-linejoin:miter;" x="473.235358" xlink:href="#m78a909184c" y="413.461354"/>
     <use style="fill:#1f77b4;stroke:#1f77b4;stroke-linejoin:miter;" x="445.329732" xlink:href="#m78a909184c" y="414.449428"/>
     <use style="fill:#1f77b4;stroke:#1f77b4;stroke-linejoin:miter;" x="417.83948" xlink:href="#m78a909184c" y="425.705989"/>
     <use style="fill:#1f77b4;stroke:#1f77b4;stroke-linejoin:miter;" x="420.13792" xlink:href="#m78a909184c" y="433.586243"/>
     <use style="fill:#1f77b4;stroke:#1f77b4;stroke-linejoin:miter;" x="416.047576" xlink:href="#m78a909184c" y="440.85693"/>
     <use style="fill:#1f77b4;stroke:#1f77b4;stroke-linejoin:miter;" x="395.378366" xlink:href="#m78a909184c" y="449.793173"/>
     <use style="fill:#1f77b4;stroke:#1f77b4;stroke-linejoin:miter;" x="397.334084" xlink:href="#m78a909184c" y="458.543311"/>
     <use style="fill:#1f77b4;stroke:#1f77b4;stroke-linejoin:miter;" x="401.415699" xlink:href="#m78a909184c" y="466.654642"/>
     <use style="fill:#1f77b4;stroke:#1f77b4;stroke-linejoin:miter;" x="403.202307" xlink:href="#m78a909184c" y="475.250597"/>
     <use style="fill:#1f77b4;stroke:#1f77b4;stroke-linejoin:miter;" x="405.001583" xlink:href="#m78a909184c" y="483.889453"/>
     <use style="fill:#1f77b4;stroke:#1f77b4;stroke-linejoin:miter;" x="408.19297" xlink:href="#m78a909184c" y="492.515903"/>
     <use style="fill:#1f77b4;stroke:#1f77b4;stroke-linejoin:miter;" x="413.499783" xlink:href="#m78a909184c" y="510.520539"/>
     <use style="fill:#1f77b4;stroke:#1f77b4;stroke-linejoin:miter;" x="432.125782" xlink:href="#m78a909184c" y="512.636942"/>
     <use style="fill:#1f77b4;stroke:#1f77b4;stroke-linejoin:miter;" x="445.396436" xlink:href="#m78a909184c" y="515.90935"/>
     <use style="fill:#1f77b4;stroke:#1f77b4;stroke-linejoin:miter;" x="467.931493" xlink:href="#m78a909184c" y="512.598825"/>
     <use style="fill:#1f77b4;stroke:#1f77b4;stroke-linejoin:miter;" x="457.192239" xlink:href="#m78a909184c" y="529.695676"/>
     <use style="fill:#1f77b4;stroke:#1f77b4;stroke-linejoin:miter;" x="460.279145" xlink:href="#m78a909184c" y="538.887021"/>
     <use style="fill:#1f77b4;stroke:#1f77b4;stroke-linejoin:miter;" x="472.769222" xlink:href="#m78a909184c" y="541.129656"/>
     <use style="fill:#1f77b4;stroke:#1f77b4;stroke-linejoin:miter;" x="463.508224" xlink:href="#m78a909184c" y="580.540098"/>
     <use style="fill:#1f77b4;stroke:#1f77b4;stroke-linejoin:miter;" x="472.456119" xlink:href="#m78a909184c" y="589.702124"/>
     <use style="fill:#1f77b4;stroke:#1f77b4;stroke-linejoin:miter;" x="474.305499" xlink:href="#m78a909184c" y="610.18654"/>
     <use style="fill:#1f77b4;stroke:#1f77b4;stroke-linejoin:miter;" x="503.657469" xlink:href="#m78a909184c" y="617.748335"/>
     <use style="fill:#1f77b4;stroke:#1f77b4;stroke-linejoin:miter;" x="523.115452" xlink:href="#m78a909184c" y="655.67308"/>
     <use style="fill:#1f77b4;stroke:#1f77b4;stroke-linejoin:miter;" x="541.988637" xlink:href="#m78a909184c" y="654.079604"/>
     <use style="fill:#1f77b4;stroke:#1f77b4;stroke-linejoin:miter;" x="560.584265" xlink:href="#m78a909184c" y="648.820534"/>
     <use style="fill:#1f77b4;stroke:#1f77b4;stroke-linejoin:miter;" x="580.430602" xlink:href="#m78a909184c" y="611.96321"/>
     <use style="fill:#1f77b4;stroke:#1f77b4;stroke-linejoin:miter;" x="594.909231" xlink:href="#m78a909184c" y="641.65613"/>
     <use style="fill:#1f77b4;stroke:#1f77b4;stroke-linejoin:miter;" x="602.772874" xlink:href="#m78a909184c" y="545.11913"/>
     <use style="fill:#1f77b4;stroke:#1f77b4;stroke-linejoin:miter;" x="611.357675" xlink:href="#m78a909184c" y="541.402791"/>
     <use style="fill:#1f77b4;stroke:#1f77b4;stroke-linejoin:miter;" x="621.268806" xlink:href="#m78a909184c" y="546.756463"/>
     <use style="fill:#1f77b4;stroke:#1f77b4;stroke-linejoin:miter;" x="630.956364" xlink:href="#m78a909184c" y="547.288706"/>
     <use style="fill:#1f77b4;stroke:#1f77b4;stroke-linejoin:miter;" x="641.95329" xlink:href="#m78a909184c" y="550.202223"/>
     <use style="fill:#1f77b4;stroke:#1f77b4;stroke-linejoin:miter;" x="675.503062" xlink:href="#m78a909184c" y="595.146366"/>
     <use style="fill:#1f77b4;stroke:#1f77b4;stroke-linejoin:miter;" x="692.312657" xlink:href="#m78a909184c" y="598.024003"/>
     <use style="fill:#1f77b4;stroke:#1f77b4;stroke-linejoin:miter;" x="747.027318" xlink:href="#m78a909184c" y="601.082906"/>
     <use style="fill:#1f77b4;stroke:#1f77b4;stroke-linejoin:miter;" x="757.57138" xlink:href="#m78a909184c" y="591.270693"/>
     <use style="fill:#1f77b4;stroke:#1f77b4;stroke-linejoin:miter;" x="773.248237" xlink:href="#m78a909184c" y="586.567921"/>
     <use style="fill:#1f77b4;stroke:#1f77b4;stroke-linejoin:miter;" x="790.454054" xlink:href="#m78a909184c" y="582.334473"/>
     <use style="fill:#1f77b4;stroke:#1f77b4;stroke-linejoin:miter;" x="814.25056" xlink:href="#m78a909184c" y="581.321176"/>
     <use style="fill:#1f77b4;stroke:#1f77b4;stroke-linejoin:miter;" x="833.994144" xlink:href="#m78a909184c" y="576.075311"/>
     <use style="fill:#1f77b4;stroke:#1f77b4;stroke-linejoin:miter;" x="854.143766" xlink:href="#m78a909184c" y="569.194417"/>
     <use style="fill:#1f77b4;stroke:#1f77b4;stroke-linejoin:miter;" x="872.643966" xlink:href="#m78a909184c" y="560.825188"/>
     <use style="fill:#1f77b4;stroke:#1f77b4;stroke-linejoin:miter;" x="896.189931" xlink:href="#m78a909184c" y="553.519861"/>
     <use style="fill:#1f77b4;stroke:#1f77b4;stroke-linejoin:miter;" x="943.494725" xlink:href="#m78a909184c" y="552.520761"/>
     <use style="fill:#1f77b4;stroke:#1f77b4;stroke-linejoin:miter;" x="1055.770665" xlink:href="#m78a909184c" y="542.546976"/>
     <use style="fill:#1f77b4;stroke:#1f77b4;stroke-linejoin:miter;" x="1086.69434" xlink:href="#m78a909184c" y="525.746011"/>
     <use style="fill:#1f77b4;stroke:#1f77b4;stroke-linejoin:miter;" x="1110.24781" xlink:href="#m78a909184c" y="505.931704"/>
    </g>
   </g>
   <g id="patch_3">
    <path d="M 144 768.96 
L 144 103.68 
" style="fill:none;stroke:#000000;stroke-linecap:square;stroke-linejoin:miter;stroke-width:0.8;"/>
   </g>
   <g id="patch_4">
    <path d="M 1036.8 768.96 
L 1036.8 103.68 
" style="fill:none;stroke:#000000;stroke-linecap:square;stroke-linejoin:miter;stroke-width:0.8;"/>
   </g>
   <g id="patch_5">
    <path d="M 144 768.96 
L 1036.8 768.96 
" style="fill:none;stroke:#000000;stroke-linecap:square;stroke-linejoin:miter;stroke-width:0.8;"/>
   </g>
   <g id="patch_6">
    <path d="M 144 103.68 
L 1036.8 103.68 
" style="fill:none;stroke:#000000;stroke-linecap:square;stroke-linejoin:miter;stroke-width:0.8;"/>
   </g>
  </g>
 </g>
 <defs>
  <clipPath id="p04d67467e5">
   <rect height="665.28" width="892.8" x="144" y="103.68"/>
  </clipPath>
 </defs>
</svg>
