<?xml version="1.0" encoding="utf-8" standalone="no"?>
<!DOCTYPE svg PUBLIC "-//W3C//DTD SVG 1.1//EN"
  "http://www.w3.org/Graphics/SVG/1.1/DTD/svg11.dtd">
<!-- Created with matplotlib (http://matplotlib.org/) -->
<svg height="864pt" version="1.1" viewBox="0 0 1152 864" width="1152pt" xmlns="http://www.w3.org/2000/svg" xmlns:xlink="http://www.w3.org/1999/xlink">
 <defs>
  <style type="text/css">
*{stroke-linecap:butt;stroke-linejoin:round;}
  </style>
 </defs>
 <g id="figure_1">
  <g id="patch_1">
   <path d="M 0 864 
L 1152 864 
L 1152 0 
L 0 0 
z
" style="fill:#ffffff;"/>
  </g>
  <g id="axes_1">
   <g id="patch_2">
    <path d="M 144 768.96 
L 1036.8 768.96 
L 1036.8 103.68 
L 144 103.68 
z
" style="fill:#ffffff;"/>
   </g>
   <g id="matplotlib.axis_1">
    <g id="xtick_1">
     <g id="line2d_1">
      <defs>
       <path d="M 0 0 
L 0 3.5 
" id="mfc52b5603c" style="stroke:#000000;stroke-width:0.8;"/>
      </defs>
      <g>
       <use style="stroke:#000000;stroke-width:0.8;" x="144" xlink:href="#mfc52b5603c" y="768.96"/>
      </g>
     </g>
     <g id="text_1">
      <!-- −4000 -->
      <defs>
       <path d="M 10.59375 35.5 
L 73.1875 35.5 
L 73.1875 27.203125 
L 10.59375 27.203125 
z
" id="DejaVuSans-2212"/>
       <path d="M 37.796875 64.3125 
L 12.890625 25.390625 
L 37.796875 25.390625 
z
M 35.203125 72.90625 
L 47.609375 72.90625 
L 47.609375 25.390625 
L 58.015625 25.390625 
L 58.015625 17.1875 
L 47.609375 17.1875 
L 47.609375 0 
L 37.796875 0 
L 37.796875 17.1875 
L 4.890625 17.1875 
L 4.890625 26.703125 
z
" id="DejaVuSans-34"/>
       <path d="M 31.78125 66.40625 
Q 24.171875 66.40625 20.328125 58.90625 
Q 16.5 51.421875 16.5 36.375 
Q 16.5 21.390625 20.328125 13.890625 
Q 24.171875 6.390625 31.78125 6.390625 
Q 39.453125 6.390625 43.28125 13.890625 
Q 47.125 21.390625 47.125 36.375 
Q 47.125 51.421875 43.28125 58.90625 
Q 39.453125 66.40625 31.78125 66.40625 
z
M 31.78125 74.21875 
Q 44.046875 74.21875 50.515625 64.515625 
Q 56.984375 54.828125 56.984375 36.375 
Q 56.984375 17.96875 50.515625 8.265625 
Q 44.046875 -1.421875 31.78125 -1.421875 
Q 19.53125 -1.421875 13.0625 8.265625 
Q 6.59375 17.96875 6.59375 36.375 
Q 6.59375 54.828125 13.0625 64.515625 
Q 19.53125 74.21875 31.78125 74.21875 
z
" id="DejaVuSans-30"/>
      </defs>
      <g transform="translate(127.085156 783.558437)scale(0.1 -0.1)">
       <use xlink:href="#DejaVuSans-2212"/>
       <use x="83.789062" xlink:href="#DejaVuSans-34"/>
       <use x="147.412109" xlink:href="#DejaVuSans-30"/>
       <use x="211.035156" xlink:href="#DejaVuSans-30"/>
       <use x="274.658203" xlink:href="#DejaVuSans-30"/>
      </g>
     </g>
    </g>
    <g id="xtick_2">
     <g id="line2d_2">
      <g>
       <use style="stroke:#000000;stroke-width:0.8;" x="255.6" xlink:href="#mfc52b5603c" y="768.96"/>
      </g>
     </g>
     <g id="text_2">
      <!-- −3000 -->
      <defs>
       <path d="M 40.578125 39.3125 
Q 47.65625 37.796875 51.625 33 
Q 55.609375 28.21875 55.609375 21.1875 
Q 55.609375 10.40625 48.1875 4.484375 
Q 40.765625 -1.421875 27.09375 -1.421875 
Q 22.515625 -1.421875 17.65625 -0.515625 
Q 12.796875 0.390625 7.625 2.203125 
L 7.625 11.71875 
Q 11.71875 9.328125 16.59375 8.109375 
Q 21.484375 6.890625 26.8125 6.890625 
Q 36.078125 6.890625 40.9375 10.546875 
Q 45.796875 14.203125 45.796875 21.1875 
Q 45.796875 27.640625 41.28125 31.265625 
Q 36.765625 34.90625 28.71875 34.90625 
L 20.21875 34.90625 
L 20.21875 43.015625 
L 29.109375 43.015625 
Q 36.375 43.015625 40.234375 45.921875 
Q 44.09375 48.828125 44.09375 54.296875 
Q 44.09375 59.90625 40.109375 62.90625 
Q 36.140625 65.921875 28.71875 65.921875 
Q 24.65625 65.921875 20.015625 65.03125 
Q 15.375 64.15625 9.8125 62.3125 
L 9.8125 71.09375 
Q 15.4375 72.65625 20.34375 73.4375 
Q 25.25 74.21875 29.59375 74.21875 
Q 40.828125 74.21875 47.359375 69.109375 
Q 53.90625 64.015625 53.90625 55.328125 
Q 53.90625 49.265625 50.4375 45.09375 
Q 46.96875 40.921875 40.578125 39.3125 
z
" id="DejaVuSans-33"/>
      </defs>
      <g transform="translate(238.685156 783.558437)scale(0.1 -0.1)">
       <use xlink:href="#DejaVuSans-2212"/>
       <use x="83.789062" xlink:href="#DejaVuSans-33"/>
       <use x="147.412109" xlink:href="#DejaVuSans-30"/>
       <use x="211.035156" xlink:href="#DejaVuSans-30"/>
       <use x="274.658203" xlink:href="#DejaVuSans-30"/>
      </g>
     </g>
    </g>
    <g id="xtick_3">
     <g id="line2d_3">
      <g>
       <use style="stroke:#000000;stroke-width:0.8;" x="367.2" xlink:href="#mfc52b5603c" y="768.96"/>
      </g>
     </g>
     <g id="text_3">
      <!-- −2000 -->
      <defs>
       <path d="M 19.1875 8.296875 
L 53.609375 8.296875 
L 53.609375 0 
L 7.328125 0 
L 7.328125 8.296875 
Q 12.9375 14.109375 22.625 23.890625 
Q 32.328125 33.6875 34.8125 36.53125 
Q 39.546875 41.84375 41.421875 45.53125 
Q 43.3125 49.21875 43.3125 52.78125 
Q 43.3125 58.59375 39.234375 62.25 
Q 35.15625 65.921875 28.609375 65.921875 
Q 23.96875 65.921875 18.8125 64.3125 
Q 13.671875 62.703125 7.8125 59.421875 
L 7.8125 69.390625 
Q 13.765625 71.78125 18.9375 73 
Q 24.125 74.21875 28.421875 74.21875 
Q 39.75 74.21875 46.484375 68.546875 
Q 53.21875 62.890625 53.21875 53.421875 
Q 53.21875 48.921875 51.53125 44.890625 
Q 49.859375 40.875 45.40625 35.40625 
Q 44.1875 33.984375 37.640625 27.21875 
Q 31.109375 20.453125 19.1875 8.296875 
z
" id="DejaVuSans-32"/>
      </defs>
      <g transform="translate(350.285156 783.558437)scale(0.1 -0.1)">
       <use xlink:href="#DejaVuSans-2212"/>
       <use x="83.789062" xlink:href="#DejaVuSans-32"/>
       <use x="147.412109" xlink:href="#DejaVuSans-30"/>
       <use x="211.035156" xlink:href="#DejaVuSans-30"/>
       <use x="274.658203" xlink:href="#DejaVuSans-30"/>
      </g>
     </g>
    </g>
    <g id="xtick_4">
     <g id="line2d_4">
      <g>
       <use style="stroke:#000000;stroke-width:0.8;" x="478.8" xlink:href="#mfc52b5603c" y="768.96"/>
      </g>
     </g>
     <g id="text_4">
      <!-- −1000 -->
      <defs>
       <path d="M 12.40625 8.296875 
L 28.515625 8.296875 
L 28.515625 63.921875 
L 10.984375 60.40625 
L 10.984375 69.390625 
L 28.421875 72.90625 
L 38.28125 72.90625 
L 38.28125 8.296875 
L 54.390625 8.296875 
L 54.390625 0 
L 12.40625 0 
z
" id="DejaVuSans-31"/>
      </defs>
      <g transform="translate(461.885156 783.558437)scale(0.1 -0.1)">
       <use xlink:href="#DejaVuSans-2212"/>
       <use x="83.789062" xlink:href="#DejaVuSans-31"/>
       <use x="147.412109" xlink:href="#DejaVuSans-30"/>
       <use x="211.035156" xlink:href="#DejaVuSans-30"/>
       <use x="274.658203" xlink:href="#DejaVuSans-30"/>
      </g>
     </g>
    </g>
    <g id="xtick_5">
     <g id="line2d_5">
      <g>
       <use style="stroke:#000000;stroke-width:0.8;" x="590.4" xlink:href="#mfc52b5603c" y="768.96"/>
      </g>
     </g>
     <g id="text_5">
      <!-- 0 -->
      <g transform="translate(587.21875 783.558437)scale(0.1 -0.1)">
       <use xlink:href="#DejaVuSans-30"/>
      </g>
     </g>
    </g>
    <g id="xtick_6">
     <g id="line2d_6">
      <g>
       <use style="stroke:#000000;stroke-width:0.8;" x="702" xlink:href="#mfc52b5603c" y="768.96"/>
      </g>
     </g>
     <g id="text_6">
      <!-- 1000 -->
      <g transform="translate(689.275 783.558437)scale(0.1 -0.1)">
       <use xlink:href="#DejaVuSans-31"/>
       <use x="63.623047" xlink:href="#DejaVuSans-30"/>
       <use x="127.246094" xlink:href="#DejaVuSans-30"/>
       <use x="190.869141" xlink:href="#DejaVuSans-30"/>
      </g>
     </g>
    </g>
    <g id="xtick_7">
     <g id="line2d_7">
      <g>
       <use style="stroke:#000000;stroke-width:0.8;" x="813.6" xlink:href="#mfc52b5603c" y="768.96"/>
      </g>
     </g>
     <g id="text_7">
      <!-- 2000 -->
      <g transform="translate(800.875 783.558437)scale(0.1 -0.1)">
       <use xlink:href="#DejaVuSans-32"/>
       <use x="63.623047" xlink:href="#DejaVuSans-30"/>
       <use x="127.246094" xlink:href="#DejaVuSans-30"/>
       <use x="190.869141" xlink:href="#DejaVuSans-30"/>
      </g>
     </g>
    </g>
    <g id="xtick_8">
     <g id="line2d_8">
      <g>
       <use style="stroke:#000000;stroke-width:0.8;" x="925.2" xlink:href="#mfc52b5603c" y="768.96"/>
      </g>
     </g>
     <g id="text_8">
      <!-- 3000 -->
      <g transform="translate(912.475 783.558437)scale(0.1 -0.1)">
       <use xlink:href="#DejaVuSans-33"/>
       <use x="63.623047" xlink:href="#DejaVuSans-30"/>
       <use x="127.246094" xlink:href="#DejaVuSans-30"/>
       <use x="190.869141" xlink:href="#DejaVuSans-30"/>
      </g>
     </g>
    </g>
    <g id="xtick_9">
     <g id="line2d_9">
      <g>
       <use style="stroke:#000000;stroke-width:0.8;" x="1036.8" xlink:href="#mfc52b5603c" y="768.96"/>
      </g>
     </g>
     <g id="text_9">
      <!-- 4000 -->
      <g transform="translate(1024.075 783.558437)scale(0.1 -0.1)">
       <use xlink:href="#DejaVuSans-34"/>
       <use x="63.623047" xlink:href="#DejaVuSans-30"/>
       <use x="127.246094" xlink:href="#DejaVuSans-30"/>
       <use x="190.869141" xlink:href="#DejaVuSans-30"/>
      </g>
     </g>
    </g>
   </g>
   <g id="matplotlib.axis_2">
    <g id="ytick_1">
     <g id="line2d_10">
      <defs>
       <path d="M 0 0 
L -3.5 0 
" id="m16b891a47a" style="stroke:#000000;stroke-width:0.8;"/>
      </defs>
      <g>
       <use style="stroke:#000000;stroke-width:0.8;" x="144" xlink:href="#m16b891a47a" y="768.96"/>
      </g>
     </g>
     <g id="text_10">
      <!-- −4000 -->
      <g transform="translate(103.170312 772.759219)scale(0.1 -0.1)">
       <use xlink:href="#DejaVuSans-2212"/>
       <use x="83.789062" xlink:href="#DejaVuSans-34"/>
       <use x="147.412109" xlink:href="#DejaVuSans-30"/>
       <use x="211.035156" xlink:href="#DejaVuSans-30"/>
       <use x="274.658203" xlink:href="#DejaVuSans-30"/>
      </g>
     </g>
    </g>
    <g id="ytick_2">
     <g id="line2d_11">
      <g>
       <use style="stroke:#000000;stroke-width:0.8;" x="144" xlink:href="#m16b891a47a" y="685.8"/>
      </g>
     </g>
     <g id="text_11">
      <!-- −3000 -->
      <g transform="translate(103.170312 689.599219)scale(0.1 -0.1)">
       <use xlink:href="#DejaVuSans-2212"/>
       <use x="83.789062" xlink:href="#DejaVuSans-33"/>
       <use x="147.412109" xlink:href="#DejaVuSans-30"/>
       <use x="211.035156" xlink:href="#DejaVuSans-30"/>
       <use x="274.658203" xlink:href="#DejaVuSans-30"/>
      </g>
     </g>
    </g>
    <g id="ytick_3">
     <g id="line2d_12">
      <g>
       <use style="stroke:#000000;stroke-width:0.8;" x="144" xlink:href="#m16b891a47a" y="602.64"/>
      </g>
     </g>
     <g id="text_12">
      <!-- −2000 -->
      <g transform="translate(103.170312 606.439219)scale(0.1 -0.1)">
       <use xlink:href="#DejaVuSans-2212"/>
       <use x="83.789062" xlink:href="#DejaVuSans-32"/>
       <use x="147.412109" xlink:href="#DejaVuSans-30"/>
       <use x="211.035156" xlink:href="#DejaVuSans-30"/>
       <use x="274.658203" xlink:href="#DejaVuSans-30"/>
      </g>
     </g>
    </g>
    <g id="ytick_4">
     <g id="line2d_13">
      <g>
       <use style="stroke:#000000;stroke-width:0.8;" x="144" xlink:href="#m16b891a47a" y="519.48"/>
      </g>
     </g>
     <g id="text_13">
      <!-- −1000 -->
      <g transform="translate(103.170312 523.279219)scale(0.1 -0.1)">
       <use xlink:href="#DejaVuSans-2212"/>
       <use x="83.789062" xlink:href="#DejaVuSans-31"/>
       <use x="147.412109" xlink:href="#DejaVuSans-30"/>
       <use x="211.035156" xlink:href="#DejaVuSans-30"/>
       <use x="274.658203" xlink:href="#DejaVuSans-30"/>
      </g>
     </g>
    </g>
    <g id="ytick_5">
     <g id="line2d_14">
      <g>
       <use style="stroke:#000000;stroke-width:0.8;" x="144" xlink:href="#m16b891a47a" y="436.32"/>
      </g>
     </g>
     <g id="text_14">
      <!-- 0 -->
      <g transform="translate(130.6375 440.119219)scale(0.1 -0.1)">
       <use xlink:href="#DejaVuSans-30"/>
      </g>
     </g>
    </g>
    <g id="ytick_6">
     <g id="line2d_15">
      <g>
       <use style="stroke:#000000;stroke-width:0.8;" x="144" xlink:href="#m16b891a47a" y="353.16"/>
      </g>
     </g>
     <g id="text_15">
      <!-- 1000 -->
      <g transform="translate(111.55 356.959219)scale(0.1 -0.1)">
       <use xlink:href="#DejaVuSans-31"/>
       <use x="63.623047" xlink:href="#DejaVuSans-30"/>
       <use x="127.246094" xlink:href="#DejaVuSans-30"/>
       <use x="190.869141" xlink:href="#DejaVuSans-30"/>
      </g>
     </g>
    </g>
    <g id="ytick_7">
     <g id="line2d_16">
      <g>
       <use style="stroke:#000000;stroke-width:0.8;" x="144" xlink:href="#m16b891a47a" y="270"/>
      </g>
     </g>
     <g id="text_16">
      <!-- 2000 -->
      <g transform="translate(111.55 273.799219)scale(0.1 -0.1)">
       <use xlink:href="#DejaVuSans-32"/>
       <use x="63.623047" xlink:href="#DejaVuSans-30"/>
       <use x="127.246094" xlink:href="#DejaVuSans-30"/>
       <use x="190.869141" xlink:href="#DejaVuSans-30"/>
      </g>
     </g>
    </g>
    <g id="ytick_8">
     <g id="line2d_17">
      <g>
       <use style="stroke:#000000;stroke-width:0.8;" x="144" xlink:href="#m16b891a47a" y="186.84"/>
      </g>
     </g>
     <g id="text_17">
      <!-- 3000 -->
      <g transform="translate(111.55 190.639219)scale(0.1 -0.1)">
       <use xlink:href="#DejaVuSans-33"/>
       <use x="63.623047" xlink:href="#DejaVuSans-30"/>
       <use x="127.246094" xlink:href="#DejaVuSans-30"/>
       <use x="190.869141" xlink:href="#DejaVuSans-30"/>
      </g>
     </g>
    </g>
    <g id="ytick_9">
     <g id="line2d_18">
      <g>
       <use style="stroke:#000000;stroke-width:0.8;" x="144" xlink:href="#m16b891a47a" y="103.68"/>
      </g>
     </g>
     <g id="text_18">
      <!-- 4000 -->
      <g transform="translate(111.55 107.479219)scale(0.1 -0.1)">
       <use xlink:href="#DejaVuSans-34"/>
       <use x="63.623047" xlink:href="#DejaVuSans-30"/>
       <use x="127.246094" xlink:href="#DejaVuSans-30"/>
       <use x="190.869141" xlink:href="#DejaVuSans-30"/>
      </g>
     </g>
    </g>
   </g>
   <g id="line2d_19">
    <path clip-path="url(#pb4b0f35e45)" d="M 590.4 768.96 
L 590.4 103.68 
" style="fill:none;stroke:#1f77b4;stroke-linecap:square;stroke-width:1.5;"/>
   </g>
   <g id="line2d_20">
    <path clip-path="url(#pb4b0f35e45)" d="M 144 436.32 
L 1036.8 436.32 
" style="fill:none;stroke:#1f77b4;stroke-linecap:square;stroke-width:1.5;"/>
   </g>
   <g id="line2d_21">
    <defs>
     <path d="M 0 3 
C 0.795609 3 1.55874 2.683901 2.12132 2.12132 
C 2.683901 1.55874 3 0.795609 3 0 
C 3 -0.795609 2.683901 -1.55874 2.12132 -2.12132 
C 1.55874 -2.683901 0.795609 -3 0 -3 
C -0.795609 -3 -1.55874 -2.683901 -2.12132 -2.12132 
C -2.683901 -1.55874 -3 -0.795609 -3 0 
C -3 0.795609 -2.683901 1.55874 -2.12132 2.12132 
C -1.55874 2.683901 -0.795609 3 0 3 
z
" id="m841f8eed36" style="stroke:#008000;"/>
    </defs>
    <g clip-path="url(#pb4b0f35e45)">
     <use style="fill:#008000;stroke:#008000;" x="1165.011481" xlink:href="#m841f8eed36" y="496.377457"/>
    </g>
   </g>
   <g id="line2d_22">
    <g clip-path="url(#pb4b0f35e45)">
     <use style="fill:#008000;stroke:#008000;" x="1410.612805" xlink:href="#m841f8eed36" y="485.931436"/>
    </g>
   </g>
   <g id="line2d_23">
    <g clip-path="url(#pb4b0f35e45)">
     <use style="fill:#008000;stroke:#008000;" x="1350.000487" xlink:href="#m841f8eed36" y="345.245826"/>
    </g>
   </g>
   <g id="line2d_24">
    <g clip-path="url(#pb4b0f35e45)">
     <use style="fill:#008000;stroke:#008000;" x="1260.526475" xlink:href="#m841f8eed36" y="324.472743"/>
    </g>
   </g>
   <g id="line2d_25">
    <g clip-path="url(#pb4b0f35e45)">
     <use style="fill:#008000;stroke:#008000;" x="1320.84068" xlink:href="#m841f8eed36" y="279.924272"/>
    </g>
   </g>
   <g id="line2d_26">
    <g clip-path="url(#pb4b0f35e45)">
     <use style="fill:#008000;stroke:#008000;" x="647.110874" xlink:href="#m841f8eed36" y="393.434313"/>
    </g>
   </g>
   <g id="line2d_27">
    <g clip-path="url(#pb4b0f35e45)">
     <use style="fill:#008000;stroke:#008000;" x="647.110874" xlink:href="#m841f8eed36" y="393.434313"/>
    </g>
   </g>
   <g id="line2d_28">
    <g clip-path="url(#pb4b0f35e45)">
     <use style="fill:#008000;stroke:#008000;" x="563.202504" xlink:href="#m841f8eed36" y="226.444061"/>
    </g>
   </g>
   <g id="line2d_29">
    <g clip-path="url(#pb4b0f35e45)">
     <use style="fill:#008000;stroke:#008000;" x="575.789676" xlink:href="#m841f8eed36" y="394.598617"/>
    </g>
   </g>
   <g id="line2d_30">
    <g clip-path="url(#pb4b0f35e45)">
     <use style="fill:#008000;stroke:#008000;" x="575.789676" xlink:href="#m841f8eed36" y="394.598617"/>
    </g>
   </g>
   <g id="line2d_31">
    <g clip-path="url(#pb4b0f35e45)">
     <use style="fill:#008000;stroke:#008000;" x="465.124239" xlink:href="#m841f8eed36" y="246.63255"/>
    </g>
   </g>
   <g id="line2d_32">
    <g clip-path="url(#pb4b0f35e45)">
     <use style="fill:#008000;stroke:#008000;" x="383.465275" xlink:href="#m841f8eed36" y="292.053976"/>
    </g>
   </g>
   <g id="line2d_33">
    <g clip-path="url(#pb4b0f35e45)">
     <use style="fill:#008000;stroke:#008000;" x="455.689629" xlink:href="#m841f8eed36" y="399.644753"/>
    </g>
   </g>
   <g id="line2d_34">
    <g clip-path="url(#pb4b0f35e45)">
     <use style="fill:#008000;stroke:#008000;" x="602.69428" xlink:href="#m841f8eed36" y="635.547948"/>
    </g>
   </g>
   <g id="line2d_35">
    <defs>
     <path d="M 0 1.333333 
C 0.353604 1.333333 0.692773 1.192845 0.942809 0.942809 
C 1.192845 0.692773 1.333333 0.353604 1.333333 0 
C 1.333333 -0.353604 1.192845 -0.692773 0.942809 -0.942809 
C 0.692773 -1.192845 0.353604 -1.333333 0 -1.333333 
C -0.353604 -1.333333 -0.692773 -1.192845 -0.942809 -0.942809 
C -1.192845 -0.692773 -1.333333 -0.353604 -1.333333 0 
C -1.333333 0.353604 -1.192845 0.692773 -0.942809 0.942809 
C -0.692773 1.192845 -0.353604 1.333333 0 1.333333 
z
" id="maa66e19605" style="stroke:#ff0000;"/>
    </defs>
    <g clip-path="url(#pb4b0f35e45)">
     <use style="fill:#ff0000;stroke:#ff0000;" x="1165.011481" xlink:href="#maa66e19605" y="496.377457"/>
     <use style="fill:#ff0000;stroke:#ff0000;" x="1410.612805" xlink:href="#maa66e19605" y="485.931436"/>
     <use style="fill:#ff0000;stroke:#ff0000;" x="1350.000487" xlink:href="#maa66e19605" y="345.245826"/>
     <use style="fill:#ff0000;stroke:#ff0000;" x="1260.526475" xlink:href="#maa66e19605" y="324.472743"/>
     <use style="fill:#ff0000;stroke:#ff0000;" x="1320.84068" xlink:href="#maa66e19605" y="279.924272"/>
     <use style="fill:#ff0000;stroke:#ff0000;" x="651.518295" xlink:href="#maa66e19605" y="399.930964"/>
     <use style="fill:#ff0000;stroke:#ff0000;" x="641.47356" xlink:href="#maa66e19605" y="387.222703"/>
     <use style="fill:#ff0000;stroke:#ff0000;" x="769.093651" xlink:href="#maa66e19605" y="196.717721"/>
     <use style="fill:#ff0000;stroke:#ff0000;" x="744.476004" xlink:href="#maa66e19605" y="197.125354"/>
     <use style="fill:#ff0000;stroke:#ff0000;" x="718.898545" xlink:href="#maa66e19605" y="201.540137"/>
     <use style="fill:#ff0000;stroke:#ff0000;" x="695.655389" xlink:href="#maa66e19605" y="205.05889"/>
     <use style="fill:#ff0000;stroke:#ff0000;" x="563.202504" xlink:href="#maa66e19605" y="226.444061"/>
     <use style="fill:#ff0000;stroke:#ff0000;" x="578.975617" xlink:href="#maa66e19605" y="392.524369"/>
     <use style="fill:#ff0000;stroke:#ff0000;" x="572.907985" xlink:href="#maa66e19605" y="396.792022"/>
     <use style="fill:#ff0000;stroke:#ff0000;" x="465.124239" xlink:href="#maa66e19605" y="246.63255"/>
     <use style="fill:#ff0000;stroke:#ff0000;" x="383.465275" xlink:href="#maa66e19605" y="292.053976"/>
     <use style="fill:#ff0000;stroke:#ff0000;" x="418.404216" xlink:href="#maa66e19605" y="343.309727"/>
     <use style="fill:#ff0000;stroke:#ff0000;" x="405.393451" xlink:href="#maa66e19605" y="359.460184"/>
     <use style="fill:#ff0000;stroke:#ff0000;" x="454.707936" xlink:href="#maa66e19605" y="395.884293"/>
     <use style="fill:#ff0000;stroke:#ff0000;" x="456.849893" xlink:href="#maa66e19605" y="403.323786"/>
     <use style="fill:#ff0000;stroke:#ff0000;" x="472.353114" xlink:href="#maa66e19605" y="413.263595"/>
     <use style="fill:#ff0000;stroke:#ff0000;" x="445.247694" xlink:href="#maa66e19605" y="414.43706"/>
     <use style="fill:#ff0000;stroke:#ff0000;" x="417.974632" xlink:href="#maa66e19605" y="425.749579"/>
     <use style="fill:#ff0000;stroke:#ff0000;" x="416.101688" xlink:href="#maa66e19605" y="440.82006"/>
     <use style="fill:#ff0000;stroke:#ff0000;" x="395.322804" xlink:href="#maa66e19605" y="449.797012"/>
     <use style="fill:#ff0000;stroke:#ff0000;" x="444.722524" xlink:href="#maa66e19605" y="516.279246"/>
     <use style="fill:#ff0000;stroke:#ff0000;" x="467.803052" xlink:href="#maa66e19605" y="512.678824"/>
     <use style="fill:#ff0000;stroke:#ff0000;" x="457.78123" xlink:href="#maa66e19605" y="529.13053"/>
     <use style="fill:#ff0000;stroke:#ff0000;" x="472.853719" xlink:href="#maa66e19605" y="540.938367"/>
     <use style="fill:#ff0000;stroke:#ff0000;" x="462.599418" xlink:href="#maa66e19605" y="581.314168"/>
     <use style="fill:#ff0000;stroke:#ff0000;" x="472.41329" xlink:href="#maa66e19605" y="589.564002"/>
     <use style="fill:#ff0000;stroke:#ff0000;" x="474.239137" xlink:href="#maa66e19605" y="609.92965"/>
     <use style="fill:#ff0000;stroke:#ff0000;" x="503.51611" xlink:href="#maa66e19605" y="617.88736"/>
     <use style="fill:#ff0000;stroke:#ff0000;" x="523.065718" xlink:href="#maa66e19605" y="655.835218"/>
     <use style="fill:#ff0000;stroke:#ff0000;" x="560.592969" xlink:href="#maa66e19605" y="648.758502"/>
     <use style="fill:#ff0000;stroke:#ff0000;" x="580.412917" xlink:href="#maa66e19605" y="612.274781"/>
     <use style="fill:#ff0000;stroke:#ff0000;" x="594.721869" xlink:href="#maa66e19605" y="639.91179"/>
     <use style="fill:#ff0000;stroke:#ff0000;" x="610.317957" xlink:href="#maa66e19605" y="631.014774"/>
     <use style="fill:#ff0000;stroke:#ff0000;" x="612.614286" xlink:href="#maa66e19605" y="550.048772"/>
     <use style="fill:#ff0000;stroke:#ff0000;" x="632.882179" xlink:href="#maa66e19605" y="529.575791"/>
     <use style="fill:#ff0000;stroke:#ff0000;" x="692.170591" xlink:href="#maa66e19605" y="598.027753"/>
     <use style="fill:#ff0000;stroke:#ff0000;" x="746.902738" xlink:href="#maa66e19605" y="601.428689"/>
     <use style="fill:#ff0000;stroke:#ff0000;" x="790.433086" xlink:href="#maa66e19605" y="582.558302"/>
     <use style="fill:#ff0000;stroke:#ff0000;" x="813.763651" xlink:href="#maa66e19605" y="581.484594"/>
     <use style="fill:#ff0000;stroke:#ff0000;" x="853.533367" xlink:href="#maa66e19605" y="569.198783"/>
     <use style="fill:#ff0000;stroke:#ff0000;" x="894.462808" xlink:href="#maa66e19605" y="553.248859"/>
     <use style="fill:#ff0000;stroke:#ff0000;" x="942.235898" xlink:href="#maa66e19605" y="552.277417"/>
     <use style="fill:#ff0000;stroke:#ff0000;" x="1056.439659" xlink:href="#maa66e19605" y="542.9069"/>
     <use style="fill:#ff0000;stroke:#ff0000;" x="1086.497311" xlink:href="#maa66e19605" y="526.351007"/>
     <use style="fill:#ff0000;stroke:#ff0000;" x="1106.494117" xlink:href="#maa66e19605" y="505.862192"/>
    </g>
   </g>
   <g id="line2d_36">
    <defs>
     <path d="M -0.5 0.5 
L 0.5 0.5 
L 0.5 -0.5 
L -0.5 -0.5 
z
" id="m44910a6829" style="stroke:#1f77b4;stroke-linejoin:miter;"/>
    </defs>
    <g clip-path="url(#pb4b0f35e45)">
     <use style="fill:#1f77b4;stroke:#1f77b4;stroke-linejoin:miter;" x="1165.011481" xlink:href="#m44910a6829" y="496.377457"/>
     <use style="fill:#1f77b4;stroke:#1f77b4;stroke-linejoin:miter;" x="1410.612805" xlink:href="#m44910a6829" y="485.931436"/>
     <use style="fill:#1f77b4;stroke:#1f77b4;stroke-linejoin:miter;" x="1350.000487" xlink:href="#m44910a6829" y="345.245826"/>
     <use style="fill:#1f77b4;stroke:#1f77b4;stroke-linejoin:miter;" x="1260.526475" xlink:href="#m44910a6829" y="324.472743"/>
     <use style="fill:#1f77b4;stroke:#1f77b4;stroke-linejoin:miter;" x="1320.84068" xlink:href="#m44910a6829" y="279.924272"/>
     <use style="fill:#1f77b4;stroke:#1f77b4;stroke-linejoin:miter;" x="651.518295" xlink:href="#m44910a6829" y="399.930964"/>
     <use style="fill:#1f77b4;stroke:#1f77b4;stroke-linejoin:miter;" x="647.893728" xlink:href="#m44910a6829" y="397.681287"/>
     <use style="fill:#1f77b4;stroke:#1f77b4;stroke-linejoin:miter;" x="645.76643" xlink:href="#m44910a6829" y="394.519462"/>
     <use style="fill:#1f77b4;stroke:#1f77b4;stroke-linejoin:miter;" x="642.116663" xlink:href="#m44910a6829" y="392.109853"/>
     <use style="fill:#1f77b4;stroke:#1f77b4;stroke-linejoin:miter;" x="641.47356" xlink:href="#m44910a6829" y="387.222703"/>
     <use style="fill:#1f77b4;stroke:#1f77b4;stroke-linejoin:miter;" x="769.093651" xlink:href="#m44910a6829" y="196.717721"/>
     <use style="fill:#1f77b4;stroke:#1f77b4;stroke-linejoin:miter;" x="744.476004" xlink:href="#m44910a6829" y="197.125354"/>
     <use style="fill:#1f77b4;stroke:#1f77b4;stroke-linejoin:miter;" x="718.898545" xlink:href="#m44910a6829" y="201.540137"/>
     <use style="fill:#1f77b4;stroke:#1f77b4;stroke-linejoin:miter;" x="695.655389" xlink:href="#m44910a6829" y="205.05889"/>
     <use style="fill:#1f77b4;stroke:#1f77b4;stroke-linejoin:miter;" x="673.631449" xlink:href="#m44910a6829" y="209.318101"/>
     <use style="fill:#1f77b4;stroke:#1f77b4;stroke-linejoin:miter;" x="653.547488" xlink:href="#m44910a6829" y="211.63116"/>
     <use style="fill:#1f77b4;stroke:#1f77b4;stroke-linejoin:miter;" x="634.466162" xlink:href="#m44910a6829" y="214.538297"/>
     <use style="fill:#1f77b4;stroke:#1f77b4;stroke-linejoin:miter;" x="615.087246" xlink:href="#m44910a6829" y="218.530273"/>
     <use style="fill:#1f77b4;stroke:#1f77b4;stroke-linejoin:miter;" x="597.320494" xlink:href="#m44910a6829" y="221.475651"/>
     <use style="fill:#1f77b4;stroke:#1f77b4;stroke-linejoin:miter;" x="580.104792" xlink:href="#m44910a6829" y="224.9001"/>
     <use style="fill:#1f77b4;stroke:#1f77b4;stroke-linejoin:miter;" x="563.202504" xlink:href="#m44910a6829" y="226.444061"/>
     <use style="fill:#1f77b4;stroke:#1f77b4;stroke-linejoin:miter;" x="578.975617" xlink:href="#m44910a6829" y="392.524369"/>
     <use style="fill:#1f77b4;stroke:#1f77b4;stroke-linejoin:miter;" x="576.250999" xlink:href="#m44910a6829" y="396.184893"/>
     <use style="fill:#1f77b4;stroke:#1f77b4;stroke-linejoin:miter;" x="572.907985" xlink:href="#m44910a6829" y="396.792022"/>
     <use style="fill:#1f77b4;stroke:#1f77b4;stroke-linejoin:miter;" x="465.124239" xlink:href="#m44910a6829" y="246.63255"/>
     <use style="fill:#1f77b4;stroke:#1f77b4;stroke-linejoin:miter;" x="447.836627" xlink:href="#m44910a6829" y="249.506458"/>
     <use style="fill:#1f77b4;stroke:#1f77b4;stroke-linejoin:miter;" x="429.84948" xlink:href="#m44910a6829" y="252.535876"/>
     <use style="fill:#1f77b4;stroke:#1f77b4;stroke-linejoin:miter;" x="420.489658" xlink:href="#m44910a6829" y="265.508019"/>
     <use style="fill:#1f77b4;stroke:#1f77b4;stroke-linejoin:miter;" x="399.107848" xlink:href="#m44910a6829" y="266.16074"/>
     <use style="fill:#1f77b4;stroke:#1f77b4;stroke-linejoin:miter;" x="388.824983" xlink:href="#m44910a6829" y="277.689814"/>
     <use style="fill:#1f77b4;stroke:#1f77b4;stroke-linejoin:miter;" x="383.465275" xlink:href="#m44910a6829" y="292.053976"/>
     <use style="fill:#1f77b4;stroke:#1f77b4;stroke-linejoin:miter;" x="418.404216" xlink:href="#m44910a6829" y="343.309727"/>
     <use style="fill:#1f77b4;stroke:#1f77b4;stroke-linejoin:miter;" x="419.304009" xlink:href="#m44910a6829" y="354.950579"/>
     <use style="fill:#1f77b4;stroke:#1f77b4;stroke-linejoin:miter;" x="405.393451" xlink:href="#m44910a6829" y="359.460184"/>
     <use style="fill:#1f77b4;stroke:#1f77b4;stroke-linejoin:miter;" x="454.707936" xlink:href="#m44910a6829" y="395.884293"/>
     <use style="fill:#1f77b4;stroke:#1f77b4;stroke-linejoin:miter;" x="456.849893" xlink:href="#m44910a6829" y="403.323786"/>
     <use style="fill:#1f77b4;stroke:#1f77b4;stroke-linejoin:miter;" x="472.353114" xlink:href="#m44910a6829" y="413.263595"/>
     <use style="fill:#1f77b4;stroke:#1f77b4;stroke-linejoin:miter;" x="445.247694" xlink:href="#m44910a6829" y="414.43706"/>
     <use style="fill:#1f77b4;stroke:#1f77b4;stroke-linejoin:miter;" x="417.974632" xlink:href="#m44910a6829" y="425.749579"/>
     <use style="fill:#1f77b4;stroke:#1f77b4;stroke-linejoin:miter;" x="419.38683" xlink:href="#m44910a6829" y="433.504647"/>
     <use style="fill:#1f77b4;stroke:#1f77b4;stroke-linejoin:miter;" x="416.101688" xlink:href="#m44910a6829" y="440.82006"/>
     <use style="fill:#1f77b4;stroke:#1f77b4;stroke-linejoin:miter;" x="395.322804" xlink:href="#m44910a6829" y="449.797012"/>
     <use style="fill:#1f77b4;stroke:#1f77b4;stroke-linejoin:miter;" x="398.219772" xlink:href="#m44910a6829" y="458.321422"/>
     <use style="fill:#1f77b4;stroke:#1f77b4;stroke-linejoin:miter;" x="401.333876" xlink:href="#m44910a6829" y="466.667775"/>
     <use style="fill:#1f77b4;stroke:#1f77b4;stroke-linejoin:miter;" x="403.349317" xlink:href="#m44910a6829" y="475.179055"/>
     <use style="fill:#1f77b4;stroke:#1f77b4;stroke-linejoin:miter;" x="405.010563" xlink:href="#m44910a6829" y="483.845013"/>
     <use style="fill:#1f77b4;stroke:#1f77b4;stroke-linejoin:miter;" x="408.033442" xlink:href="#m44910a6829" y="492.391553"/>
     <use style="fill:#1f77b4;stroke:#1f77b4;stroke-linejoin:miter;" x="413.326734" xlink:href="#m44910a6829" y="510.545746"/>
     <use style="fill:#1f77b4;stroke:#1f77b4;stroke-linejoin:miter;" x="432.22512" xlink:href="#m44910a6829" y="512.406766"/>
     <use style="fill:#1f77b4;stroke:#1f77b4;stroke-linejoin:miter;" x="444.722524" xlink:href="#m44910a6829" y="516.279246"/>
     <use style="fill:#1f77b4;stroke:#1f77b4;stroke-linejoin:miter;" x="467.803052" xlink:href="#m44910a6829" y="512.678824"/>
     <use style="fill:#1f77b4;stroke:#1f77b4;stroke-linejoin:miter;" x="457.78123" xlink:href="#m44910a6829" y="529.13053"/>
     <use style="fill:#1f77b4;stroke:#1f77b4;stroke-linejoin:miter;" x="459.473607" xlink:href="#m44910a6829" y="539.578374"/>
     <use style="fill:#1f77b4;stroke:#1f77b4;stroke-linejoin:miter;" x="472.853719" xlink:href="#m44910a6829" y="540.938367"/>
     <use style="fill:#1f77b4;stroke:#1f77b4;stroke-linejoin:miter;" x="462.599418" xlink:href="#m44910a6829" y="581.314168"/>
     <use style="fill:#1f77b4;stroke:#1f77b4;stroke-linejoin:miter;" x="472.41329" xlink:href="#m44910a6829" y="589.564002"/>
     <use style="fill:#1f77b4;stroke:#1f77b4;stroke-linejoin:miter;" x="474.239137" xlink:href="#m44910a6829" y="609.92965"/>
     <use style="fill:#1f77b4;stroke:#1f77b4;stroke-linejoin:miter;" x="503.51611" xlink:href="#m44910a6829" y="617.88736"/>
     <use style="fill:#1f77b4;stroke:#1f77b4;stroke-linejoin:miter;" x="523.065718" xlink:href="#m44910a6829" y="655.835218"/>
     <use style="fill:#1f77b4;stroke:#1f77b4;stroke-linejoin:miter;" x="542.172367" xlink:href="#m44910a6829" y="652.52175"/>
     <use style="fill:#1f77b4;stroke:#1f77b4;stroke-linejoin:miter;" x="560.592969" xlink:href="#m44910a6829" y="648.758502"/>
     <use style="fill:#1f77b4;stroke:#1f77b4;stroke-linejoin:miter;" x="580.412917" xlink:href="#m44910a6829" y="612.274781"/>
     <use style="fill:#1f77b4;stroke:#1f77b4;stroke-linejoin:miter;" x="594.721869" xlink:href="#m44910a6829" y="639.91179"/>
     <use style="fill:#1f77b4;stroke:#1f77b4;stroke-linejoin:miter;" x="610.317957" xlink:href="#m44910a6829" y="631.014774"/>
     <use style="fill:#1f77b4;stroke:#1f77b4;stroke-linejoin:miter;" x="612.614286" xlink:href="#m44910a6829" y="550.048772"/>
     <use style="fill:#1f77b4;stroke:#1f77b4;stroke-linejoin:miter;" x="620.619529" xlink:href="#m44910a6829" y="544.138988"/>
     <use style="fill:#1f77b4;stroke:#1f77b4;stroke-linejoin:miter;" x="628.465167" xlink:href="#m44910a6829" y="540.360475"/>
     <use style="fill:#1f77b4;stroke:#1f77b4;stroke-linejoin:miter;" x="632.882179" xlink:href="#m44910a6829" y="529.575791"/>
     <use style="fill:#1f77b4;stroke:#1f77b4;stroke-linejoin:miter;" x="692.170591" xlink:href="#m44910a6829" y="598.027753"/>
     <use style="fill:#1f77b4;stroke:#1f77b4;stroke-linejoin:miter;" x="746.902738" xlink:href="#m44910a6829" y="601.428689"/>
     <use style="fill:#1f77b4;stroke:#1f77b4;stroke-linejoin:miter;" x="757.365958" xlink:href="#m44910a6829" y="591.686716"/>
     <use style="fill:#1f77b4;stroke:#1f77b4;stroke-linejoin:miter;" x="773.178988" xlink:href="#m44910a6829" y="586.92318"/>
     <use style="fill:#1f77b4;stroke:#1f77b4;stroke-linejoin:miter;" x="790.433086" xlink:href="#m44910a6829" y="582.558302"/>
     <use style="fill:#1f77b4;stroke:#1f77b4;stroke-linejoin:miter;" x="813.763651" xlink:href="#m44910a6829" y="581.484594"/>
     <use style="fill:#1f77b4;stroke:#1f77b4;stroke-linejoin:miter;" x="834.297441" xlink:href="#m44910a6829" y="576.565357"/>
     <use style="fill:#1f77b4;stroke:#1f77b4;stroke-linejoin:miter;" x="853.533367" xlink:href="#m44910a6829" y="569.198783"/>
     <use style="fill:#1f77b4;stroke:#1f77b4;stroke-linejoin:miter;" x="894.462808" xlink:href="#m44910a6829" y="553.248859"/>
     <use style="fill:#1f77b4;stroke:#1f77b4;stroke-linejoin:miter;" x="942.235898" xlink:href="#m44910a6829" y="552.277417"/>
     <use style="fill:#1f77b4;stroke:#1f77b4;stroke-linejoin:miter;" x="1056.439659" xlink:href="#m44910a6829" y="542.9069"/>
     <use style="fill:#1f77b4;stroke:#1f77b4;stroke-linejoin:miter;" x="1086.497311" xlink:href="#m44910a6829" y="526.351007"/>
     <use style="fill:#1f77b4;stroke:#1f77b4;stroke-linejoin:miter;" x="1106.494117" xlink:href="#m44910a6829" y="505.862192"/>
    </g>
   </g>
   <g id="patch_3">
    <path d="M 144 768.96 
L 144 103.68 
" style="fill:none;stroke:#000000;stroke-linecap:square;stroke-linejoin:miter;stroke-width:0.8;"/>
   </g>
   <g id="patch_4">
    <path d="M 1036.8 768.96 
L 1036.8 103.68 
" style="fill:none;stroke:#000000;stroke-linecap:square;stroke-linejoin:miter;stroke-width:0.8;"/>
   </g>
   <g id="patch_5">
    <path d="M 144 768.96 
L 1036.8 768.96 
" style="fill:none;stroke:#000000;stroke-linecap:square;stroke-linejoin:miter;stroke-width:0.8;"/>
   </g>
   <g id="patch_6">
    <path d="M 144 103.68 
L 1036.8 103.68 
" style="fill:none;stroke:#000000;stroke-linecap:square;stroke-linejoin:miter;stroke-width:0.8;"/>
   </g>
  </g>
 </g>
 <defs>
  <clipPath id="pb4b0f35e45">
   <rect height="665.28" width="892.8" x="144" y="103.68"/>
  </clipPath>
 </defs>
</svg>
