<?xml version="1.0" encoding="utf-8" standalone="no"?>
<!DOCTYPE svg PUBLIC "-//W3C//DTD SVG 1.1//EN"
  "http://www.w3.org/Graphics/SVG/1.1/DTD/svg11.dtd">
<!-- Created with matplotlib (http://matplotlib.org/) -->
<svg height="864pt" version="1.1" viewBox="0 0 1152 864" width="1152pt" xmlns="http://www.w3.org/2000/svg" xmlns:xlink="http://www.w3.org/1999/xlink">
 <defs>
  <style type="text/css">
*{stroke-linecap:butt;stroke-linejoin:round;}
  </style>
 </defs>
 <g id="figure_1">
  <g id="patch_1">
   <path d="M 0 864 
L 1152 864 
L 1152 0 
L 0 0 
z
" style="fill:#ffffff;"/>
  </g>
  <g id="axes_1">
   <g id="patch_2">
    <path d="M 144 768.96 
L 1036.8 768.96 
L 1036.8 103.68 
L 144 103.68 
z
" style="fill:#ffffff;"/>
   </g>
   <g id="matplotlib.axis_1">
    <g id="xtick_1">
     <g id="line2d_1">
      <defs>
       <path d="M 0 0 
L 0 3.5 
" id="me7eeba625b" style="stroke:#000000;stroke-width:0.8;"/>
      </defs>
      <g>
       <use style="stroke:#000000;stroke-width:0.8;" x="144" xlink:href="#me7eeba625b" y="768.96"/>
      </g>
     </g>
     <g id="text_1">
      <!-- −4000 -->
      <defs>
       <path d="M 10.59375 35.5 
L 73.1875 35.5 
L 73.1875 27.203125 
L 10.59375 27.203125 
z
" id="DejaVuSans-2212"/>
       <path d="M 37.796875 64.3125 
L 12.890625 25.390625 
L 37.796875 25.390625 
z
M 35.203125 72.90625 
L 47.609375 72.90625 
L 47.609375 25.390625 
L 58.015625 25.390625 
L 58.015625 17.1875 
L 47.609375 17.1875 
L 47.609375 0 
L 37.796875 0 
L 37.796875 17.1875 
L 4.890625 17.1875 
L 4.890625 26.703125 
z
" id="DejaVuSans-34"/>
       <path d="M 31.78125 66.40625 
Q 24.171875 66.40625 20.328125 58.90625 
Q 16.5 51.421875 16.5 36.375 
Q 16.5 21.390625 20.328125 13.890625 
Q 24.171875 6.390625 31.78125 6.390625 
Q 39.453125 6.390625 43.28125 13.890625 
Q 47.125 21.390625 47.125 36.375 
Q 47.125 51.421875 43.28125 58.90625 
Q 39.453125 66.40625 31.78125 66.40625 
z
M 31.78125 74.21875 
Q 44.046875 74.21875 50.515625 64.515625 
Q 56.984375 54.828125 56.984375 36.375 
Q 56.984375 17.96875 50.515625 8.265625 
Q 44.046875 -1.421875 31.78125 -1.421875 
Q 19.53125 -1.421875 13.0625 8.265625 
Q 6.59375 17.96875 6.59375 36.375 
Q 6.59375 54.828125 13.0625 64.515625 
Q 19.53125 74.21875 31.78125 74.21875 
z
" id="DejaVuSans-30"/>
      </defs>
      <g transform="translate(127.085156 783.558437)scale(0.1 -0.1)">
       <use xlink:href="#DejaVuSans-2212"/>
       <use x="83.789062" xlink:href="#DejaVuSans-34"/>
       <use x="147.412109" xlink:href="#DejaVuSans-30"/>
       <use x="211.035156" xlink:href="#DejaVuSans-30"/>
       <use x="274.658203" xlink:href="#DejaVuSans-30"/>
      </g>
     </g>
    </g>
    <g id="xtick_2">
     <g id="line2d_2">
      <g>
       <use style="stroke:#000000;stroke-width:0.8;" x="255.6" xlink:href="#me7eeba625b" y="768.96"/>
      </g>
     </g>
     <g id="text_2">
      <!-- −3000 -->
      <defs>
       <path d="M 40.578125 39.3125 
Q 47.65625 37.796875 51.625 33 
Q 55.609375 28.21875 55.609375 21.1875 
Q 55.609375 10.40625 48.1875 4.484375 
Q 40.765625 -1.421875 27.09375 -1.421875 
Q 22.515625 -1.421875 17.65625 -0.515625 
Q 12.796875 0.390625 7.625 2.203125 
L 7.625 11.71875 
Q 11.71875 9.328125 16.59375 8.109375 
Q 21.484375 6.890625 26.8125 6.890625 
Q 36.078125 6.890625 40.9375 10.546875 
Q 45.796875 14.203125 45.796875 21.1875 
Q 45.796875 27.640625 41.28125 31.265625 
Q 36.765625 34.90625 28.71875 34.90625 
L 20.21875 34.90625 
L 20.21875 43.015625 
L 29.109375 43.015625 
Q 36.375 43.015625 40.234375 45.921875 
Q 44.09375 48.828125 44.09375 54.296875 
Q 44.09375 59.90625 40.109375 62.90625 
Q 36.140625 65.921875 28.71875 65.921875 
Q 24.65625 65.921875 20.015625 65.03125 
Q 15.375 64.15625 9.8125 62.3125 
L 9.8125 71.09375 
Q 15.4375 72.65625 20.34375 73.4375 
Q 25.25 74.21875 29.59375 74.21875 
Q 40.828125 74.21875 47.359375 69.109375 
Q 53.90625 64.015625 53.90625 55.328125 
Q 53.90625 49.265625 50.4375 45.09375 
Q 46.96875 40.921875 40.578125 39.3125 
z
" id="DejaVuSans-33"/>
      </defs>
      <g transform="translate(238.685156 783.558437)scale(0.1 -0.1)">
       <use xlink:href="#DejaVuSans-2212"/>
       <use x="83.789062" xlink:href="#DejaVuSans-33"/>
       <use x="147.412109" xlink:href="#DejaVuSans-30"/>
       <use x="211.035156" xlink:href="#DejaVuSans-30"/>
       <use x="274.658203" xlink:href="#DejaVuSans-30"/>
      </g>
     </g>
    </g>
    <g id="xtick_3">
     <g id="line2d_3">
      <g>
       <use style="stroke:#000000;stroke-width:0.8;" x="367.2" xlink:href="#me7eeba625b" y="768.96"/>
      </g>
     </g>
     <g id="text_3">
      <!-- −2000 -->
      <defs>
       <path d="M 19.1875 8.296875 
L 53.609375 8.296875 
L 53.609375 0 
L 7.328125 0 
L 7.328125 8.296875 
Q 12.9375 14.109375 22.625 23.890625 
Q 32.328125 33.6875 34.8125 36.53125 
Q 39.546875 41.84375 41.421875 45.53125 
Q 43.3125 49.21875 43.3125 52.78125 
Q 43.3125 58.59375 39.234375 62.25 
Q 35.15625 65.921875 28.609375 65.921875 
Q 23.96875 65.921875 18.8125 64.3125 
Q 13.671875 62.703125 7.8125 59.421875 
L 7.8125 69.390625 
Q 13.765625 71.78125 18.9375 73 
Q 24.125 74.21875 28.421875 74.21875 
Q 39.75 74.21875 46.484375 68.546875 
Q 53.21875 62.890625 53.21875 53.421875 
Q 53.21875 48.921875 51.53125 44.890625 
Q 49.859375 40.875 45.40625 35.40625 
Q 44.1875 33.984375 37.640625 27.21875 
Q 31.109375 20.453125 19.1875 8.296875 
z
" id="DejaVuSans-32"/>
      </defs>
      <g transform="translate(350.285156 783.558437)scale(0.1 -0.1)">
       <use xlink:href="#DejaVuSans-2212"/>
       <use x="83.789062" xlink:href="#DejaVuSans-32"/>
       <use x="147.412109" xlink:href="#DejaVuSans-30"/>
       <use x="211.035156" xlink:href="#DejaVuSans-30"/>
       <use x="274.658203" xlink:href="#DejaVuSans-30"/>
      </g>
     </g>
    </g>
    <g id="xtick_4">
     <g id="line2d_4">
      <g>
       <use style="stroke:#000000;stroke-width:0.8;" x="478.8" xlink:href="#me7eeba625b" y="768.96"/>
      </g>
     </g>
     <g id="text_4">
      <!-- −1000 -->
      <defs>
       <path d="M 12.40625 8.296875 
L 28.515625 8.296875 
L 28.515625 63.921875 
L 10.984375 60.40625 
L 10.984375 69.390625 
L 28.421875 72.90625 
L 38.28125 72.90625 
L 38.28125 8.296875 
L 54.390625 8.296875 
L 54.390625 0 
L 12.40625 0 
z
" id="DejaVuSans-31"/>
      </defs>
      <g transform="translate(461.885156 783.558437)scale(0.1 -0.1)">
       <use xlink:href="#DejaVuSans-2212"/>
       <use x="83.789062" xlink:href="#DejaVuSans-31"/>
       <use x="147.412109" xlink:href="#DejaVuSans-30"/>
       <use x="211.035156" xlink:href="#DejaVuSans-30"/>
       <use x="274.658203" xlink:href="#DejaVuSans-30"/>
      </g>
     </g>
    </g>
    <g id="xtick_5">
     <g id="line2d_5">
      <g>
       <use style="stroke:#000000;stroke-width:0.8;" x="590.4" xlink:href="#me7eeba625b" y="768.96"/>
      </g>
     </g>
     <g id="text_5">
      <!-- 0 -->
      <g transform="translate(587.21875 783.558437)scale(0.1 -0.1)">
       <use xlink:href="#DejaVuSans-30"/>
      </g>
     </g>
    </g>
    <g id="xtick_6">
     <g id="line2d_6">
      <g>
       <use style="stroke:#000000;stroke-width:0.8;" x="702" xlink:href="#me7eeba625b" y="768.96"/>
      </g>
     </g>
     <g id="text_6">
      <!-- 1000 -->
      <g transform="translate(689.275 783.558437)scale(0.1 -0.1)">
       <use xlink:href="#DejaVuSans-31"/>
       <use x="63.623047" xlink:href="#DejaVuSans-30"/>
       <use x="127.246094" xlink:href="#DejaVuSans-30"/>
       <use x="190.869141" xlink:href="#DejaVuSans-30"/>
      </g>
     </g>
    </g>
    <g id="xtick_7">
     <g id="line2d_7">
      <g>
       <use style="stroke:#000000;stroke-width:0.8;" x="813.6" xlink:href="#me7eeba625b" y="768.96"/>
      </g>
     </g>
     <g id="text_7">
      <!-- 2000 -->
      <g transform="translate(800.875 783.558437)scale(0.1 -0.1)">
       <use xlink:href="#DejaVuSans-32"/>
       <use x="63.623047" xlink:href="#DejaVuSans-30"/>
       <use x="127.246094" xlink:href="#DejaVuSans-30"/>
       <use x="190.869141" xlink:href="#DejaVuSans-30"/>
      </g>
     </g>
    </g>
    <g id="xtick_8">
     <g id="line2d_8">
      <g>
       <use style="stroke:#000000;stroke-width:0.8;" x="925.2" xlink:href="#me7eeba625b" y="768.96"/>
      </g>
     </g>
     <g id="text_8">
      <!-- 3000 -->
      <g transform="translate(912.475 783.558437)scale(0.1 -0.1)">
       <use xlink:href="#DejaVuSans-33"/>
       <use x="63.623047" xlink:href="#DejaVuSans-30"/>
       <use x="127.246094" xlink:href="#DejaVuSans-30"/>
       <use x="190.869141" xlink:href="#DejaVuSans-30"/>
      </g>
     </g>
    </g>
    <g id="xtick_9">
     <g id="line2d_9">
      <g>
       <use style="stroke:#000000;stroke-width:0.8;" x="1036.8" xlink:href="#me7eeba625b" y="768.96"/>
      </g>
     </g>
     <g id="text_9">
      <!-- 4000 -->
      <g transform="translate(1024.075 783.558437)scale(0.1 -0.1)">
       <use xlink:href="#DejaVuSans-34"/>
       <use x="63.623047" xlink:href="#DejaVuSans-30"/>
       <use x="127.246094" xlink:href="#DejaVuSans-30"/>
       <use x="190.869141" xlink:href="#DejaVuSans-30"/>
      </g>
     </g>
    </g>
   </g>
   <g id="matplotlib.axis_2">
    <g id="ytick_1">
     <g id="line2d_10">
      <defs>
       <path d="M 0 0 
L -3.5 0 
" id="m3d7b71198a" style="stroke:#000000;stroke-width:0.8;"/>
      </defs>
      <g>
       <use style="stroke:#000000;stroke-width:0.8;" x="144" xlink:href="#m3d7b71198a" y="768.96"/>
      </g>
     </g>
     <g id="text_10">
      <!-- −4000 -->
      <g transform="translate(103.170312 772.759219)scale(0.1 -0.1)">
       <use xlink:href="#DejaVuSans-2212"/>
       <use x="83.789062" xlink:href="#DejaVuSans-34"/>
       <use x="147.412109" xlink:href="#DejaVuSans-30"/>
       <use x="211.035156" xlink:href="#DejaVuSans-30"/>
       <use x="274.658203" xlink:href="#DejaVuSans-30"/>
      </g>
     </g>
    </g>
    <g id="ytick_2">
     <g id="line2d_11">
      <g>
       <use style="stroke:#000000;stroke-width:0.8;" x="144" xlink:href="#m3d7b71198a" y="685.8"/>
      </g>
     </g>
     <g id="text_11">
      <!-- −3000 -->
      <g transform="translate(103.170312 689.599219)scale(0.1 -0.1)">
       <use xlink:href="#DejaVuSans-2212"/>
       <use x="83.789062" xlink:href="#DejaVuSans-33"/>
       <use x="147.412109" xlink:href="#DejaVuSans-30"/>
       <use x="211.035156" xlink:href="#DejaVuSans-30"/>
       <use x="274.658203" xlink:href="#DejaVuSans-30"/>
      </g>
     </g>
    </g>
    <g id="ytick_3">
     <g id="line2d_12">
      <g>
       <use style="stroke:#000000;stroke-width:0.8;" x="144" xlink:href="#m3d7b71198a" y="602.64"/>
      </g>
     </g>
     <g id="text_12">
      <!-- −2000 -->
      <g transform="translate(103.170312 606.439219)scale(0.1 -0.1)">
       <use xlink:href="#DejaVuSans-2212"/>
       <use x="83.789062" xlink:href="#DejaVuSans-32"/>
       <use x="147.412109" xlink:href="#DejaVuSans-30"/>
       <use x="211.035156" xlink:href="#DejaVuSans-30"/>
       <use x="274.658203" xlink:href="#DejaVuSans-30"/>
      </g>
     </g>
    </g>
    <g id="ytick_4">
     <g id="line2d_13">
      <g>
       <use style="stroke:#000000;stroke-width:0.8;" x="144" xlink:href="#m3d7b71198a" y="519.48"/>
      </g>
     </g>
     <g id="text_13">
      <!-- −1000 -->
      <g transform="translate(103.170312 523.279219)scale(0.1 -0.1)">
       <use xlink:href="#DejaVuSans-2212"/>
       <use x="83.789062" xlink:href="#DejaVuSans-31"/>
       <use x="147.412109" xlink:href="#DejaVuSans-30"/>
       <use x="211.035156" xlink:href="#DejaVuSans-30"/>
       <use x="274.658203" xlink:href="#DejaVuSans-30"/>
      </g>
     </g>
    </g>
    <g id="ytick_5">
     <g id="line2d_14">
      <g>
       <use style="stroke:#000000;stroke-width:0.8;" x="144" xlink:href="#m3d7b71198a" y="436.32"/>
      </g>
     </g>
     <g id="text_14">
      <!-- 0 -->
      <g transform="translate(130.6375 440.119219)scale(0.1 -0.1)">
       <use xlink:href="#DejaVuSans-30"/>
      </g>
     </g>
    </g>
    <g id="ytick_6">
     <g id="line2d_15">
      <g>
       <use style="stroke:#000000;stroke-width:0.8;" x="144" xlink:href="#m3d7b71198a" y="353.16"/>
      </g>
     </g>
     <g id="text_15">
      <!-- 1000 -->
      <g transform="translate(111.55 356.959219)scale(0.1 -0.1)">
       <use xlink:href="#DejaVuSans-31"/>
       <use x="63.623047" xlink:href="#DejaVuSans-30"/>
       <use x="127.246094" xlink:href="#DejaVuSans-30"/>
       <use x="190.869141" xlink:href="#DejaVuSans-30"/>
      </g>
     </g>
    </g>
    <g id="ytick_7">
     <g id="line2d_16">
      <g>
       <use style="stroke:#000000;stroke-width:0.8;" x="144" xlink:href="#m3d7b71198a" y="270"/>
      </g>
     </g>
     <g id="text_16">
      <!-- 2000 -->
      <g transform="translate(111.55 273.799219)scale(0.1 -0.1)">
       <use xlink:href="#DejaVuSans-32"/>
       <use x="63.623047" xlink:href="#DejaVuSans-30"/>
       <use x="127.246094" xlink:href="#DejaVuSans-30"/>
       <use x="190.869141" xlink:href="#DejaVuSans-30"/>
      </g>
     </g>
    </g>
    <g id="ytick_8">
     <g id="line2d_17">
      <g>
       <use style="stroke:#000000;stroke-width:0.8;" x="144" xlink:href="#m3d7b71198a" y="186.84"/>
      </g>
     </g>
     <g id="text_17">
      <!-- 3000 -->
      <g transform="translate(111.55 190.639219)scale(0.1 -0.1)">
       <use xlink:href="#DejaVuSans-33"/>
       <use x="63.623047" xlink:href="#DejaVuSans-30"/>
       <use x="127.246094" xlink:href="#DejaVuSans-30"/>
       <use x="190.869141" xlink:href="#DejaVuSans-30"/>
      </g>
     </g>
    </g>
    <g id="ytick_9">
     <g id="line2d_18">
      <g>
       <use style="stroke:#000000;stroke-width:0.8;" x="144" xlink:href="#m3d7b71198a" y="103.68"/>
      </g>
     </g>
     <g id="text_18">
      <!-- 4000 -->
      <g transform="translate(111.55 107.479219)scale(0.1 -0.1)">
       <use xlink:href="#DejaVuSans-34"/>
       <use x="63.623047" xlink:href="#DejaVuSans-30"/>
       <use x="127.246094" xlink:href="#DejaVuSans-30"/>
       <use x="190.869141" xlink:href="#DejaVuSans-30"/>
      </g>
     </g>
    </g>
   </g>
   <g id="line2d_19">
    <path clip-path="url(#p7741746c2f)" d="M 590.4 768.96 
L 590.4 103.68 
" style="fill:none;stroke:#1f77b4;stroke-linecap:square;stroke-width:1.5;"/>
   </g>
   <g id="line2d_20">
    <path clip-path="url(#p7741746c2f)" d="M 144 436.32 
L 1036.8 436.32 
" style="fill:none;stroke:#1f77b4;stroke-linecap:square;stroke-width:1.5;"/>
   </g>
   <g id="line2d_21">
    <defs>
     <path d="M 0 3 
C 0.795609 3 1.55874 2.683901 2.12132 2.12132 
C 2.683901 1.55874 3 0.795609 3 0 
C 3 -0.795609 2.683901 -1.55874 2.12132 -2.12132 
C 1.55874 -2.683901 0.795609 -3 0 -3 
C -0.795609 -3 -1.55874 -2.683901 -2.12132 -2.12132 
C -2.683901 -1.55874 -3 -0.795609 -3 0 
C -3 0.795609 -2.683901 1.55874 -2.12132 2.12132 
C -1.55874 2.683901 -0.795609 3 0 3 
z
" id="m9ae868ad4b" style="stroke:#008000;"/>
    </defs>
    <g clip-path="url(#p7741746c2f)">
     <use style="fill:#008000;stroke:#008000;" x="1412.198032" xlink:href="#m9ae868ad4b" y="492.083902"/>
    </g>
   </g>
   <g id="line2d_22">
    <g clip-path="url(#p7741746c2f)">
     <use style="fill:#008000;stroke:#008000;" x="1257.025079" xlink:href="#m9ae868ad4b" y="330.450767"/>
    </g>
   </g>
   <g id="line2d_23">
    <g clip-path="url(#p7741746c2f)">
     <use style="fill:#008000;stroke:#008000;" x="1346.777067" xlink:href="#m9ae868ad4b" y="280.675435"/>
    </g>
   </g>
   <g id="line2d_24">
    <g clip-path="url(#p7741746c2f)">
     <use style="fill:#008000;stroke:#008000;" x="645.397177" xlink:href="#m9ae868ad4b" y="393.110635"/>
    </g>
   </g>
   <g id="line2d_25">
    <g clip-path="url(#p7741746c2f)">
     <use style="fill:#008000;stroke:#008000;" x="645.397177" xlink:href="#m9ae868ad4b" y="393.110635"/>
    </g>
   </g>
   <g id="line2d_26">
    <g clip-path="url(#p7741746c2f)">
     <use style="fill:#008000;stroke:#008000;" x="566.365145" xlink:href="#m9ae868ad4b" y="226.334158"/>
    </g>
   </g>
   <g id="line2d_27">
    <g clip-path="url(#p7741746c2f)">
     <use style="fill:#008000;stroke:#008000;" x="574.803002" xlink:href="#m9ae868ad4b" y="394.937771"/>
    </g>
   </g>
   <g id="line2d_28">
    <g clip-path="url(#p7741746c2f)">
     <use style="fill:#008000;stroke:#008000;" x="574.803002" xlink:href="#m9ae868ad4b" y="394.937771"/>
    </g>
   </g>
   <g id="line2d_29">
    <g clip-path="url(#p7741746c2f)">
     <use style="fill:#008000;stroke:#008000;" x="451.567912" xlink:href="#m9ae868ad4b" y="249.567024"/>
    </g>
   </g>
   <g id="line2d_30">
    <g clip-path="url(#p7741746c2f)">
     <use style="fill:#008000;stroke:#008000;" x="528.707288" xlink:href="#m9ae868ad4b" y="654.056097"/>
    </g>
   </g>
   <g id="line2d_31">
    <g clip-path="url(#p7741746c2f)">
     <use style="fill:#008000;stroke:#008000;" x="528.707288" xlink:href="#m9ae868ad4b" y="654.056097"/>
    </g>
   </g>
   <g id="line2d_32">
    <g clip-path="url(#p7741746c2f)">
     <use style="fill:#008000;stroke:#008000;" x="569.361294" xlink:href="#m9ae868ad4b" y="616.929672"/>
    </g>
   </g>
   <g id="line2d_33">
    <g clip-path="url(#p7741746c2f)">
     <use style="fill:#008000;stroke:#008000;" x="569.361294" xlink:href="#m9ae868ad4b" y="616.929672"/>
    </g>
   </g>
   <g id="line2d_34">
    <g clip-path="url(#p7741746c2f)">
     <use style="fill:#008000;stroke:#008000;" x="679.459163" xlink:href="#m9ae868ad4b" y="595.368807"/>
    </g>
   </g>
   <g id="line2d_35">
    <defs>
     <path d="M 0 1.333333 
C 0.353604 1.333333 0.692773 1.192845 0.942809 0.942809 
C 1.192845 0.692773 1.333333 0.353604 1.333333 0 
C 1.333333 -0.353604 1.192845 -0.692773 0.942809 -0.942809 
C 0.692773 -1.192845 0.353604 -1.333333 0 -1.333333 
C -0.353604 -1.333333 -0.692773 -1.192845 -0.942809 -0.942809 
C -1.192845 -0.692773 -1.333333 -0.353604 -1.333333 0 
C -1.333333 0.353604 -1.192845 0.692773 -0.942809 0.942809 
C -0.692773 1.192845 -0.353604 1.333333 0 1.333333 
z
" id="m9b1edf211f" style="stroke:#ff0000;"/>
    </defs>
    <g clip-path="url(#p7741746c2f)">
     <use style="fill:#ff0000;stroke:#ff0000;" x="1146.180963" xlink:href="#m9b1edf211f" y="498.676533"/>
     <use style="fill:#ff0000;stroke:#ff0000;" x="1412.198032" xlink:href="#m9b1edf211f" y="492.083902"/>
     <use style="fill:#ff0000;stroke:#ff0000;" x="1257.025079" xlink:href="#m9b1edf211f" y="330.450767"/>
     <use style="fill:#ff0000;stroke:#ff0000;" x="1346.777067" xlink:href="#m9b1edf211f" y="280.675435"/>
     <use style="fill:#ff0000;stroke:#ff0000;" x="648.39309" xlink:href="#m9b1edf211f" y="398.129298"/>
     <use style="fill:#ff0000;stroke:#ff0000;" x="641.652495" xlink:href="#m9b1edf211f" y="388.199209"/>
     <use style="fill:#ff0000;stroke:#ff0000;" x="776.769684" xlink:href="#m9b1edf211f" y="192.876228"/>
     <use style="fill:#ff0000;stroke:#ff0000;" x="748.471251" xlink:href="#m9b1edf211f" y="197.139618"/>
     <use style="fill:#ff0000;stroke:#ff0000;" x="722.966895" xlink:href="#m9b1edf211f" y="201.107381"/>
     <use style="fill:#ff0000;stroke:#ff0000;" x="699.47527" xlink:href="#m9b1edf211f" y="204.589273"/>
     <use style="fill:#ff0000;stroke:#ff0000;" x="566.365145" xlink:href="#m9b1edf211f" y="226.334158"/>
     <use style="fill:#ff0000;stroke:#ff0000;" x="579.849195" xlink:href="#m9b1edf211f" y="393.311322"/>
     <use style="fill:#ff0000;stroke:#ff0000;" x="570.068685" xlink:href="#m9b1edf211f" y="396.884764"/>
     <use style="fill:#ff0000;stroke:#ff0000;" x="451.567912" xlink:href="#m9b1edf211f" y="249.567024"/>
     <use style="fill:#ff0000;stroke:#ff0000;" x="388.339218" xlink:href="#m9b1edf211f" y="273.614716"/>
     <use style="fill:#ff0000;stroke:#ff0000;" x="388.779839" xlink:href="#m9b1edf211f" y="292.496929"/>
     <use style="fill:#ff0000;stroke:#ff0000;" x="420.811314" xlink:href="#m9b1edf211f" y="342.168896"/>
     <use style="fill:#ff0000;stroke:#ff0000;" x="400.005772" xlink:href="#m9b1edf211f" y="366.066455"/>
     <use style="fill:#ff0000;stroke:#ff0000;" x="454.780757" xlink:href="#m9b1edf211f" y="394.428027"/>
     <use style="fill:#ff0000;stroke:#ff0000;" x="449.156598" xlink:href="#m9b1edf211f" y="413.708506"/>
     <use style="fill:#ff0000;stroke:#ff0000;" x="424.245828" xlink:href="#m9b1edf211f" y="417.056125"/>
     <use style="fill:#ff0000;stroke:#ff0000;" x="420.422008" xlink:href="#m9b1edf211f" y="439.221988"/>
     <use style="fill:#ff0000;stroke:#ff0000;" x="395.305955" xlink:href="#m9b1edf211f" y="447.960857"/>
     <use style="fill:#ff0000;stroke:#ff0000;" x="400.882114" xlink:href="#m9b1edf211f" y="464.851341"/>
     <use style="fill:#ff0000;stroke:#ff0000;" x="437.592704" xlink:href="#m9b1edf211f" y="466.896898"/>
     <use style="fill:#ff0000;stroke:#ff0000;" x="404.400818" xlink:href="#m9b1edf211f" y="482.107054"/>
     <use style="fill:#ff0000;stroke:#ff0000;" x="439.765744" xlink:href="#m9b1edf211f" y="516.56976"/>
     <use style="fill:#ff0000;stroke:#ff0000;" x="463.332688" xlink:href="#m9b1edf211f" y="513.509334"/>
     <use style="fill:#ff0000;stroke:#ff0000;" x="457.558697" xlink:href="#m9b1edf211f" y="527.025971"/>
     <use style="fill:#ff0000;stroke:#ff0000;" x="453.08729" xlink:href="#m9b1edf211f" y="541.698958"/>
     <use style="fill:#ff0000;stroke:#ff0000;" x="472.283327" xlink:href="#m9b1edf211f" y="538.806198"/>
     <use style="fill:#ff0000;stroke:#ff0000;" x="459.466571" xlink:href="#m9b1edf211f" y="563.758763"/>
     <use style="fill:#ff0000;stroke:#ff0000;" x="470.188708" xlink:href="#m9b1edf211f" y="587.635374"/>
     <use style="fill:#ff0000;stroke:#ff0000;" x="471.723202" xlink:href="#m9b1edf211f" y="608.023971"/>
     <use style="fill:#ff0000;stroke:#ff0000;" x="477.412962" xlink:href="#m9b1edf211f" y="626.818278"/>
     <use style="fill:#ff0000;stroke:#ff0000;" x="491.730256" xlink:href="#m9b1edf211f" y="633.627066"/>
     <use style="fill:#ff0000;stroke:#ff0000;" x="517.75157" xlink:href="#m9b1edf211f" y="613.732972"/>
     <use style="fill:#ff0000;stroke:#ff0000;" x="519.062992" xlink:href="#m9b1edf211f" y="655.367409"/>
     <use style="fill:#ff0000;stroke:#ff0000;" x="538.181117" xlink:href="#m9b1edf211f" y="652.513312"/>
     <use style="fill:#ff0000;stroke:#ff0000;" x="563.149853" xlink:href="#m9b1edf211f" y="610.734295"/>
     <use style="fill:#ff0000;stroke:#ff0000;" x="576.037291" xlink:href="#m9b1edf211f" y="622.998717"/>
     <use style="fill:#ff0000;stroke:#ff0000;" x="591.871014" xlink:href="#m9b1edf211f" y="551.158729"/>
     <use style="fill:#ff0000;stroke:#ff0000;" x="630.989849" xlink:href="#m9b1edf211f" y="554.871655"/>
     <use style="fill:#ff0000;stroke:#ff0000;" x="670.299957" xlink:href="#m9b1edf211f" y="591.929863"/>
     <use style="fill:#ff0000;stroke:#ff0000;" x="688.962554" xlink:href="#m9b1edf211f" y="598.534232"/>
     <use style="fill:#ff0000;stroke:#ff0000;" x="705.584977" xlink:href="#m9b1edf211f" y="599.135233"/>
     <use style="fill:#ff0000;stroke:#ff0000;" x="756.999874" xlink:href="#m9b1edf211f" y="595.664159"/>
     <use style="fill:#ff0000;stroke:#ff0000;" x="785.784236" xlink:href="#m9b1edf211f" y="583.269012"/>
     <use style="fill:#ff0000;stroke:#ff0000;" x="808.471756" xlink:href="#m9b1edf211f" y="581.833971"/>
     <use style="fill:#ff0000;stroke:#ff0000;" x="847.047428" xlink:href="#m9b1edf211f" y="569.842051"/>
     <use style="fill:#ff0000;stroke:#ff0000;" x="893.210945" xlink:href="#m9b1edf211f" y="556.770509"/>
     <use style="fill:#ff0000;stroke:#ff0000;" x="931.914136" xlink:href="#m9b1edf211f" y="553.301897"/>
     <use style="fill:#ff0000;stroke:#ff0000;" x="1070.897793" xlink:href="#m9b1edf211f" y="528.605147"/>
     <use style="fill:#ff0000;stroke:#ff0000;" x="1092.770333" xlink:href="#m9b1edf211f" y="509.615534"/>
    </g>
   </g>
   <g id="line2d_36">
    <defs>
     <path d="M -0.5 0.5 
L 0.5 0.5 
L 0.5 -0.5 
L -0.5 -0.5 
z
" id="m364638258f" style="stroke:#1f77b4;stroke-linejoin:miter;"/>
    </defs>
    <g clip-path="url(#p7741746c2f)">
     <use style="fill:#1f77b4;stroke:#1f77b4;stroke-linejoin:miter;" x="1146.180963" xlink:href="#m364638258f" y="498.676533"/>
     <use style="fill:#1f77b4;stroke:#1f77b4;stroke-linejoin:miter;" x="1412.198032" xlink:href="#m364638258f" y="492.083902"/>
     <use style="fill:#1f77b4;stroke:#1f77b4;stroke-linejoin:miter;" x="1257.025079" xlink:href="#m364638258f" y="330.450767"/>
     <use style="fill:#1f77b4;stroke:#1f77b4;stroke-linejoin:miter;" x="1346.777067" xlink:href="#m364638258f" y="280.675435"/>
     <use style="fill:#1f77b4;stroke:#1f77b4;stroke-linejoin:miter;" x="648.39309" xlink:href="#m364638258f" y="398.129298"/>
     <use style="fill:#1f77b4;stroke:#1f77b4;stroke-linejoin:miter;" x="645.671446" xlink:href="#m364638258f" y="395.447153"/>
     <use style="fill:#1f77b4;stroke:#1f77b4;stroke-linejoin:miter;" x="642.981016" xlink:href="#m364638258f" y="392.372794"/>
     <use style="fill:#1f77b4;stroke:#1f77b4;stroke-linejoin:miter;" x="641.652495" xlink:href="#m364638258f" y="388.199209"/>
     <use style="fill:#1f77b4;stroke:#1f77b4;stroke-linejoin:miter;" x="776.769684" xlink:href="#m364638258f" y="192.876228"/>
     <use style="fill:#1f77b4;stroke:#1f77b4;stroke-linejoin:miter;" x="748.471251" xlink:href="#m364638258f" y="197.139618"/>
     <use style="fill:#1f77b4;stroke:#1f77b4;stroke-linejoin:miter;" x="722.966895" xlink:href="#m364638258f" y="201.107381"/>
     <use style="fill:#1f77b4;stroke:#1f77b4;stroke-linejoin:miter;" x="699.47527" xlink:href="#m364638258f" y="204.589273"/>
     <use style="fill:#1f77b4;stroke:#1f77b4;stroke-linejoin:miter;" x="677.172215" xlink:href="#m364638258f" y="209.190735"/>
     <use style="fill:#1f77b4;stroke:#1f77b4;stroke-linejoin:miter;" x="656.688619" xlink:href="#m364638258f" y="211.772208"/>
     <use style="fill:#1f77b4;stroke:#1f77b4;stroke-linejoin:miter;" x="637.435398" xlink:href="#m364638258f" y="214.245736"/>
     <use style="fill:#1f77b4;stroke:#1f77b4;stroke-linejoin:miter;" x="618.502433" xlink:href="#m364638258f" y="217.590627"/>
     <use style="fill:#1f77b4;stroke:#1f77b4;stroke-linejoin:miter;" x="600.627107" xlink:href="#m364638258f" y="219.780682"/>
     <use style="fill:#1f77b4;stroke:#1f77b4;stroke-linejoin:miter;" x="583.191798" xlink:href="#m364638258f" y="224.579596"/>
     <use style="fill:#1f77b4;stroke:#1f77b4;stroke-linejoin:miter;" x="566.365145" xlink:href="#m364638258f" y="226.334158"/>
     <use style="fill:#1f77b4;stroke:#1f77b4;stroke-linejoin:miter;" x="579.849195" xlink:href="#m364638258f" y="393.311322"/>
     <use style="fill:#1f77b4;stroke:#1f77b4;stroke-linejoin:miter;" x="577.161197" xlink:href="#m364638258f" y="396.890921"/>
     <use style="fill:#1f77b4;stroke:#1f77b4;stroke-linejoin:miter;" x="573.935524" xlink:href="#m364638258f" y="397.920504"/>
     <use style="fill:#1f77b4;stroke:#1f77b4;stroke-linejoin:miter;" x="570.068685" xlink:href="#m364638258f" y="396.884764"/>
     <use style="fill:#1f77b4;stroke:#1f77b4;stroke-linejoin:miter;" x="451.567912" xlink:href="#m364638258f" y="249.567024"/>
     <use style="fill:#1f77b4;stroke:#1f77b4;stroke-linejoin:miter;" x="433.357704" xlink:href="#m364638258f" y="251.967539"/>
     <use style="fill:#1f77b4;stroke:#1f77b4;stroke-linejoin:miter;" x="417.156162" xlink:href="#m364638258f" y="257.613696"/>
     <use style="fill:#1f77b4;stroke:#1f77b4;stroke-linejoin:miter;" x="401.983204" xlink:href="#m364638258f" y="264.764527"/>
     <use style="fill:#1f77b4;stroke:#1f77b4;stroke-linejoin:miter;" x="388.339218" xlink:href="#m364638258f" y="273.614716"/>
     <use style="fill:#1f77b4;stroke:#1f77b4;stroke-linejoin:miter;" x="388.779839" xlink:href="#m364638258f" y="292.496929"/>
     <use style="fill:#1f77b4;stroke:#1f77b4;stroke-linejoin:miter;" x="420.811314" xlink:href="#m364638258f" y="342.168896"/>
     <use style="fill:#1f77b4;stroke:#1f77b4;stroke-linejoin:miter;" x="420.572894" xlink:href="#m364638258f" y="353.449767"/>
     <use style="fill:#1f77b4;stroke:#1f77b4;stroke-linejoin:miter;" x="406.311605" xlink:href="#m364638258f" y="357.868079"/>
     <use style="fill:#1f77b4;stroke:#1f77b4;stroke-linejoin:miter;" x="400.005772" xlink:href="#m364638258f" y="366.066455"/>
     <use style="fill:#1f77b4;stroke:#1f77b4;stroke-linejoin:miter;" x="454.780757" xlink:href="#m364638258f" y="394.428027"/>
     <use style="fill:#1f77b4;stroke:#1f77b4;stroke-linejoin:miter;" x="456.388573" xlink:href="#m364638258f" y="401.874466"/>
     <use style="fill:#1f77b4;stroke:#1f77b4;stroke-linejoin:miter;" x="458.130829" xlink:href="#m364638258f" y="408.812622"/>
     <use style="fill:#1f77b4;stroke:#1f77b4;stroke-linejoin:miter;" x="449.156598" xlink:href="#m364638258f" y="413.708506"/>
     <use style="fill:#1f77b4;stroke:#1f77b4;stroke-linejoin:miter;" x="424.245828" xlink:href="#m364638258f" y="417.056125"/>
     <use style="fill:#1f77b4;stroke:#1f77b4;stroke-linejoin:miter;" x="418.467227" xlink:href="#m364638258f" y="424.195216"/>
     <use style="fill:#1f77b4;stroke:#1f77b4;stroke-linejoin:miter;" x="420.061112" xlink:href="#m364638258f" y="431.922165"/>
     <use style="fill:#1f77b4;stroke:#1f77b4;stroke-linejoin:miter;" x="420.422008" xlink:href="#m364638258f" y="439.221988"/>
     <use style="fill:#1f77b4;stroke:#1f77b4;stroke-linejoin:miter;" x="395.305955" xlink:href="#m364638258f" y="447.960857"/>
     <use style="fill:#1f77b4;stroke:#1f77b4;stroke-linejoin:miter;" x="397.84429" xlink:href="#m364638258f" y="456.565321"/>
     <use style="fill:#1f77b4;stroke:#1f77b4;stroke-linejoin:miter;" x="400.882114" xlink:href="#m364638258f" y="464.851341"/>
     <use style="fill:#1f77b4;stroke:#1f77b4;stroke-linejoin:miter;" x="437.592704" xlink:href="#m364638258f" y="466.896898"/>
     <use style="fill:#1f77b4;stroke:#1f77b4;stroke-linejoin:miter;" x="404.400818" xlink:href="#m364638258f" y="482.107054"/>
     <use style="fill:#1f77b4;stroke:#1f77b4;stroke-linejoin:miter;" x="407.453024" xlink:href="#m364638258f" y="490.492808"/>
     <use style="fill:#1f77b4;stroke:#1f77b4;stroke-linejoin:miter;" x="408.040868" xlink:href="#m364638258f" y="500.182098"/>
     <use style="fill:#1f77b4;stroke:#1f77b4;stroke-linejoin:miter;" x="412.093213" xlink:href="#m364638258f" y="508.93092"/>
     <use style="fill:#1f77b4;stroke:#1f77b4;stroke-linejoin:miter;" x="431.378419" xlink:href="#m364638258f" y="510.679878"/>
     <use style="fill:#1f77b4;stroke:#1f77b4;stroke-linejoin:miter;" x="439.765744" xlink:href="#m364638258f" y="516.56976"/>
     <use style="fill:#1f77b4;stroke:#1f77b4;stroke-linejoin:miter;" x="463.332688" xlink:href="#m364638258f" y="513.509334"/>
     <use style="fill:#1f77b4;stroke:#1f77b4;stroke-linejoin:miter;" x="457.558697" xlink:href="#m364638258f" y="527.025971"/>
     <use style="fill:#1f77b4;stroke:#1f77b4;stroke-linejoin:miter;" x="453.08729" xlink:href="#m364638258f" y="541.698958"/>
     <use style="fill:#1f77b4;stroke:#1f77b4;stroke-linejoin:miter;" x="472.283327" xlink:href="#m364638258f" y="538.806198"/>
     <use style="fill:#1f77b4;stroke:#1f77b4;stroke-linejoin:miter;" x="459.466571" xlink:href="#m364638258f" y="563.758763"/>
     <use style="fill:#1f77b4;stroke:#1f77b4;stroke-linejoin:miter;" x="458.03034" xlink:href="#m364638258f" y="582.469003"/>
     <use style="fill:#1f77b4;stroke:#1f77b4;stroke-linejoin:miter;" x="470.188708" xlink:href="#m364638258f" y="587.635374"/>
     <use style="fill:#1f77b4;stroke:#1f77b4;stroke-linejoin:miter;" x="471.723202" xlink:href="#m364638258f" y="608.023971"/>
     <use style="fill:#1f77b4;stroke:#1f77b4;stroke-linejoin:miter;" x="477.412962" xlink:href="#m364638258f" y="626.818278"/>
     <use style="fill:#1f77b4;stroke:#1f77b4;stroke-linejoin:miter;" x="491.730256" xlink:href="#m364638258f" y="633.627066"/>
     <use style="fill:#1f77b4;stroke:#1f77b4;stroke-linejoin:miter;" x="517.75157" xlink:href="#m364638258f" y="613.732972"/>
     <use style="fill:#1f77b4;stroke:#1f77b4;stroke-linejoin:miter;" x="519.062992" xlink:href="#m364638258f" y="655.367409"/>
     <use style="fill:#1f77b4;stroke:#1f77b4;stroke-linejoin:miter;" x="538.181117" xlink:href="#m364638258f" y="652.513312"/>
     <use style="fill:#1f77b4;stroke:#1f77b4;stroke-linejoin:miter;" x="563.149853" xlink:href="#m364638258f" y="610.734295"/>
     <use style="fill:#1f77b4;stroke:#1f77b4;stroke-linejoin:miter;" x="576.037291" xlink:href="#m364638258f" y="622.998717"/>
     <use style="fill:#1f77b4;stroke:#1f77b4;stroke-linejoin:miter;" x="591.871014" xlink:href="#m364638258f" y="551.158729"/>
     <use style="fill:#1f77b4;stroke:#1f77b4;stroke-linejoin:miter;" x="601.390011" xlink:href="#m364638258f" y="553.89365"/>
     <use style="fill:#1f77b4;stroke:#1f77b4;stroke-linejoin:miter;" x="611.072529" xlink:href="#m364638258f" y="552.349606"/>
     <use style="fill:#1f77b4;stroke:#1f77b4;stroke-linejoin:miter;" x="620.876386" xlink:href="#m364638258f" y="553.664378"/>
     <use style="fill:#1f77b4;stroke:#1f77b4;stroke-linejoin:miter;" x="630.989849" xlink:href="#m364638258f" y="554.871655"/>
     <use style="fill:#1f77b4;stroke:#1f77b4;stroke-linejoin:miter;" x="670.299957" xlink:href="#m364638258f" y="591.929863"/>
     <use style="fill:#1f77b4;stroke:#1f77b4;stroke-linejoin:miter;" x="688.962554" xlink:href="#m364638258f" y="598.534232"/>
     <use style="fill:#1f77b4;stroke:#1f77b4;stroke-linejoin:miter;" x="705.584977" xlink:href="#m364638258f" y="599.135233"/>
     <use style="fill:#1f77b4;stroke:#1f77b4;stroke-linejoin:miter;" x="756.999874" xlink:href="#m364638258f" y="595.664159"/>
     <use style="fill:#1f77b4;stroke:#1f77b4;stroke-linejoin:miter;" x="766.444503" xlink:href="#m364638258f" y="585.49308"/>
     <use style="fill:#1f77b4;stroke:#1f77b4;stroke-linejoin:miter;" x="785.784236" xlink:href="#m364638258f" y="583.269012"/>
     <use style="fill:#1f77b4;stroke:#1f77b4;stroke-linejoin:miter;" x="808.471756" xlink:href="#m364638258f" y="581.833971"/>
     <use style="fill:#1f77b4;stroke:#1f77b4;stroke-linejoin:miter;" x="829.449576" xlink:href="#m364638258f" y="577.773604"/>
     <use style="fill:#1f77b4;stroke:#1f77b4;stroke-linejoin:miter;" x="847.047428" xlink:href="#m364638258f" y="569.842051"/>
     <use style="fill:#1f77b4;stroke:#1f77b4;stroke-linejoin:miter;" x="893.210945" xlink:href="#m364638258f" y="556.770509"/>
     <use style="fill:#1f77b4;stroke:#1f77b4;stroke-linejoin:miter;" x="931.914136" xlink:href="#m364638258f" y="553.301897"/>
     <use style="fill:#1f77b4;stroke:#1f77b4;stroke-linejoin:miter;" x="1070.897793" xlink:href="#m364638258f" y="528.605147"/>
     <use style="fill:#1f77b4;stroke:#1f77b4;stroke-linejoin:miter;" x="1092.770333" xlink:href="#m364638258f" y="509.615534"/>
    </g>
   </g>
   <g id="patch_3">
    <path d="M 144 768.96 
L 144 103.68 
" style="fill:none;stroke:#000000;stroke-linecap:square;stroke-linejoin:miter;stroke-width:0.8;"/>
   </g>
   <g id="patch_4">
    <path d="M 1036.8 768.96 
L 1036.8 103.68 
" style="fill:none;stroke:#000000;stroke-linecap:square;stroke-linejoin:miter;stroke-width:0.8;"/>
   </g>
   <g id="patch_5">
    <path d="M 144 768.96 
L 1036.8 768.96 
" style="fill:none;stroke:#000000;stroke-linecap:square;stroke-linejoin:miter;stroke-width:0.8;"/>
   </g>
   <g id="patch_6">
    <path d="M 144 103.68 
L 1036.8 103.68 
" style="fill:none;stroke:#000000;stroke-linecap:square;stroke-linejoin:miter;stroke-width:0.8;"/>
   </g>
  </g>
 </g>
 <defs>
  <clipPath id="p7741746c2f">
   <rect height="665.28" width="892.8" x="144" y="103.68"/>
  </clipPath>
 </defs>
</svg>
