<?xml version="1.0" encoding="utf-8" standalone="no"?>
<!DOCTYPE svg PUBLIC "-//W3C//DTD SVG 1.1//EN"
  "http://www.w3.org/Graphics/SVG/1.1/DTD/svg11.dtd">
<!-- Created with matplotlib (http://matplotlib.org/) -->
<svg height="864pt" version="1.1" viewBox="0 0 1152 864" width="1152pt" xmlns="http://www.w3.org/2000/svg" xmlns:xlink="http://www.w3.org/1999/xlink">
 <defs>
  <style type="text/css">
*{stroke-linecap:butt;stroke-linejoin:round;}
  </style>
 </defs>
 <g id="figure_1">
  <g id="patch_1">
   <path d="M 0 864 
L 1152 864 
L 1152 0 
L 0 0 
z
" style="fill:#ffffff;"/>
  </g>
  <g id="axes_1">
   <g id="patch_2">
    <path d="M 144 768.96 
L 1036.8 768.96 
L 1036.8 103.68 
L 144 103.68 
z
" style="fill:#ffffff;"/>
   </g>
   <g id="matplotlib.axis_1">
    <g id="xtick_1">
     <g id="line2d_1">
      <defs>
       <path d="M 0 0 
L 0 3.5 
" id="mc04b510c9e" style="stroke:#000000;stroke-width:0.8;"/>
      </defs>
      <g>
       <use style="stroke:#000000;stroke-width:0.8;" x="144" xlink:href="#mc04b510c9e" y="768.96"/>
      </g>
     </g>
     <g id="text_1">
      <!-- −4000 -->
      <defs>
       <path d="M 10.59375 35.5 
L 73.1875 35.5 
L 73.1875 27.203125 
L 10.59375 27.203125 
z
" id="DejaVuSans-2212"/>
       <path d="M 37.796875 64.3125 
L 12.890625 25.390625 
L 37.796875 25.390625 
z
M 35.203125 72.90625 
L 47.609375 72.90625 
L 47.609375 25.390625 
L 58.015625 25.390625 
L 58.015625 17.1875 
L 47.609375 17.1875 
L 47.609375 0 
L 37.796875 0 
L 37.796875 17.1875 
L 4.890625 17.1875 
L 4.890625 26.703125 
z
" id="DejaVuSans-34"/>
       <path d="M 31.78125 66.40625 
Q 24.171875 66.40625 20.328125 58.90625 
Q 16.5 51.421875 16.5 36.375 
Q 16.5 21.390625 20.328125 13.890625 
Q 24.171875 6.390625 31.78125 6.390625 
Q 39.453125 6.390625 43.28125 13.890625 
Q 47.125 21.390625 47.125 36.375 
Q 47.125 51.421875 43.28125 58.90625 
Q 39.453125 66.40625 31.78125 66.40625 
z
M 31.78125 74.21875 
Q 44.046875 74.21875 50.515625 64.515625 
Q 56.984375 54.828125 56.984375 36.375 
Q 56.984375 17.96875 50.515625 8.265625 
Q 44.046875 -1.421875 31.78125 -1.421875 
Q 19.53125 -1.421875 13.0625 8.265625 
Q 6.59375 17.96875 6.59375 36.375 
Q 6.59375 54.828125 13.0625 64.515625 
Q 19.53125 74.21875 31.78125 74.21875 
z
" id="DejaVuSans-30"/>
      </defs>
      <g transform="translate(127.085156 783.558437)scale(0.1 -0.1)">
       <use xlink:href="#DejaVuSans-2212"/>
       <use x="83.789062" xlink:href="#DejaVuSans-34"/>
       <use x="147.412109" xlink:href="#DejaVuSans-30"/>
       <use x="211.035156" xlink:href="#DejaVuSans-30"/>
       <use x="274.658203" xlink:href="#DejaVuSans-30"/>
      </g>
     </g>
    </g>
    <g id="xtick_2">
     <g id="line2d_2">
      <g>
       <use style="stroke:#000000;stroke-width:0.8;" x="255.6" xlink:href="#mc04b510c9e" y="768.96"/>
      </g>
     </g>
     <g id="text_2">
      <!-- −3000 -->
      <defs>
       <path d="M 40.578125 39.3125 
Q 47.65625 37.796875 51.625 33 
Q 55.609375 28.21875 55.609375 21.1875 
Q 55.609375 10.40625 48.1875 4.484375 
Q 40.765625 -1.421875 27.09375 -1.421875 
Q 22.515625 -1.421875 17.65625 -0.515625 
Q 12.796875 0.390625 7.625 2.203125 
L 7.625 11.71875 
Q 11.71875 9.328125 16.59375 8.109375 
Q 21.484375 6.890625 26.8125 6.890625 
Q 36.078125 6.890625 40.9375 10.546875 
Q 45.796875 14.203125 45.796875 21.1875 
Q 45.796875 27.640625 41.28125 31.265625 
Q 36.765625 34.90625 28.71875 34.90625 
L 20.21875 34.90625 
L 20.21875 43.015625 
L 29.109375 43.015625 
Q 36.375 43.015625 40.234375 45.921875 
Q 44.09375 48.828125 44.09375 54.296875 
Q 44.09375 59.90625 40.109375 62.90625 
Q 36.140625 65.921875 28.71875 65.921875 
Q 24.65625 65.921875 20.015625 65.03125 
Q 15.375 64.15625 9.8125 62.3125 
L 9.8125 71.09375 
Q 15.4375 72.65625 20.34375 73.4375 
Q 25.25 74.21875 29.59375 74.21875 
Q 40.828125 74.21875 47.359375 69.109375 
Q 53.90625 64.015625 53.90625 55.328125 
Q 53.90625 49.265625 50.4375 45.09375 
Q 46.96875 40.921875 40.578125 39.3125 
z
" id="DejaVuSans-33"/>
      </defs>
      <g transform="translate(238.685156 783.558437)scale(0.1 -0.1)">
       <use xlink:href="#DejaVuSans-2212"/>
       <use x="83.789062" xlink:href="#DejaVuSans-33"/>
       <use x="147.412109" xlink:href="#DejaVuSans-30"/>
       <use x="211.035156" xlink:href="#DejaVuSans-30"/>
       <use x="274.658203" xlink:href="#DejaVuSans-30"/>
      </g>
     </g>
    </g>
    <g id="xtick_3">
     <g id="line2d_3">
      <g>
       <use style="stroke:#000000;stroke-width:0.8;" x="367.2" xlink:href="#mc04b510c9e" y="768.96"/>
      </g>
     </g>
     <g id="text_3">
      <!-- −2000 -->
      <defs>
       <path d="M 19.1875 8.296875 
L 53.609375 8.296875 
L 53.609375 0 
L 7.328125 0 
L 7.328125 8.296875 
Q 12.9375 14.109375 22.625 23.890625 
Q 32.328125 33.6875 34.8125 36.53125 
Q 39.546875 41.84375 41.421875 45.53125 
Q 43.3125 49.21875 43.3125 52.78125 
Q 43.3125 58.59375 39.234375 62.25 
Q 35.15625 65.921875 28.609375 65.921875 
Q 23.96875 65.921875 18.8125 64.3125 
Q 13.671875 62.703125 7.8125 59.421875 
L 7.8125 69.390625 
Q 13.765625 71.78125 18.9375 73 
Q 24.125 74.21875 28.421875 74.21875 
Q 39.75 74.21875 46.484375 68.546875 
Q 53.21875 62.890625 53.21875 53.421875 
Q 53.21875 48.921875 51.53125 44.890625 
Q 49.859375 40.875 45.40625 35.40625 
Q 44.1875 33.984375 37.640625 27.21875 
Q 31.109375 20.453125 19.1875 8.296875 
z
" id="DejaVuSans-32"/>
      </defs>
      <g transform="translate(350.285156 783.558437)scale(0.1 -0.1)">
       <use xlink:href="#DejaVuSans-2212"/>
       <use x="83.789062" xlink:href="#DejaVuSans-32"/>
       <use x="147.412109" xlink:href="#DejaVuSans-30"/>
       <use x="211.035156" xlink:href="#DejaVuSans-30"/>
       <use x="274.658203" xlink:href="#DejaVuSans-30"/>
      </g>
     </g>
    </g>
    <g id="xtick_4">
     <g id="line2d_4">
      <g>
       <use style="stroke:#000000;stroke-width:0.8;" x="478.8" xlink:href="#mc04b510c9e" y="768.96"/>
      </g>
     </g>
     <g id="text_4">
      <!-- −1000 -->
      <defs>
       <path d="M 12.40625 8.296875 
L 28.515625 8.296875 
L 28.515625 63.921875 
L 10.984375 60.40625 
L 10.984375 69.390625 
L 28.421875 72.90625 
L 38.28125 72.90625 
L 38.28125 8.296875 
L 54.390625 8.296875 
L 54.390625 0 
L 12.40625 0 
z
" id="DejaVuSans-31"/>
      </defs>
      <g transform="translate(461.885156 783.558437)scale(0.1 -0.1)">
       <use xlink:href="#DejaVuSans-2212"/>
       <use x="83.789062" xlink:href="#DejaVuSans-31"/>
       <use x="147.412109" xlink:href="#DejaVuSans-30"/>
       <use x="211.035156" xlink:href="#DejaVuSans-30"/>
       <use x="274.658203" xlink:href="#DejaVuSans-30"/>
      </g>
     </g>
    </g>
    <g id="xtick_5">
     <g id="line2d_5">
      <g>
       <use style="stroke:#000000;stroke-width:0.8;" x="590.4" xlink:href="#mc04b510c9e" y="768.96"/>
      </g>
     </g>
     <g id="text_5">
      <!-- 0 -->
      <g transform="translate(587.21875 783.558437)scale(0.1 -0.1)">
       <use xlink:href="#DejaVuSans-30"/>
      </g>
     </g>
    </g>
    <g id="xtick_6">
     <g id="line2d_6">
      <g>
       <use style="stroke:#000000;stroke-width:0.8;" x="702" xlink:href="#mc04b510c9e" y="768.96"/>
      </g>
     </g>
     <g id="text_6">
      <!-- 1000 -->
      <g transform="translate(689.275 783.558437)scale(0.1 -0.1)">
       <use xlink:href="#DejaVuSans-31"/>
       <use x="63.623047" xlink:href="#DejaVuSans-30"/>
       <use x="127.246094" xlink:href="#DejaVuSans-30"/>
       <use x="190.869141" xlink:href="#DejaVuSans-30"/>
      </g>
     </g>
    </g>
    <g id="xtick_7">
     <g id="line2d_7">
      <g>
       <use style="stroke:#000000;stroke-width:0.8;" x="813.6" xlink:href="#mc04b510c9e" y="768.96"/>
      </g>
     </g>
     <g id="text_7">
      <!-- 2000 -->
      <g transform="translate(800.875 783.558437)scale(0.1 -0.1)">
       <use xlink:href="#DejaVuSans-32"/>
       <use x="63.623047" xlink:href="#DejaVuSans-30"/>
       <use x="127.246094" xlink:href="#DejaVuSans-30"/>
       <use x="190.869141" xlink:href="#DejaVuSans-30"/>
      </g>
     </g>
    </g>
    <g id="xtick_8">
     <g id="line2d_8">
      <g>
       <use style="stroke:#000000;stroke-width:0.8;" x="925.2" xlink:href="#mc04b510c9e" y="768.96"/>
      </g>
     </g>
     <g id="text_8">
      <!-- 3000 -->
      <g transform="translate(912.475 783.558437)scale(0.1 -0.1)">
       <use xlink:href="#DejaVuSans-33"/>
       <use x="63.623047" xlink:href="#DejaVuSans-30"/>
       <use x="127.246094" xlink:href="#DejaVuSans-30"/>
       <use x="190.869141" xlink:href="#DejaVuSans-30"/>
      </g>
     </g>
    </g>
    <g id="xtick_9">
     <g id="line2d_9">
      <g>
       <use style="stroke:#000000;stroke-width:0.8;" x="1036.8" xlink:href="#mc04b510c9e" y="768.96"/>
      </g>
     </g>
     <g id="text_9">
      <!-- 4000 -->
      <g transform="translate(1024.075 783.558437)scale(0.1 -0.1)">
       <use xlink:href="#DejaVuSans-34"/>
       <use x="63.623047" xlink:href="#DejaVuSans-30"/>
       <use x="127.246094" xlink:href="#DejaVuSans-30"/>
       <use x="190.869141" xlink:href="#DejaVuSans-30"/>
      </g>
     </g>
    </g>
   </g>
   <g id="matplotlib.axis_2">
    <g id="ytick_1">
     <g id="line2d_10">
      <defs>
       <path d="M 0 0 
L -3.5 0 
" id="m238ddd9faa" style="stroke:#000000;stroke-width:0.8;"/>
      </defs>
      <g>
       <use style="stroke:#000000;stroke-width:0.8;" x="144" xlink:href="#m238ddd9faa" y="768.96"/>
      </g>
     </g>
     <g id="text_10">
      <!-- −4000 -->
      <g transform="translate(103.170312 772.759219)scale(0.1 -0.1)">
       <use xlink:href="#DejaVuSans-2212"/>
       <use x="83.789062" xlink:href="#DejaVuSans-34"/>
       <use x="147.412109" xlink:href="#DejaVuSans-30"/>
       <use x="211.035156" xlink:href="#DejaVuSans-30"/>
       <use x="274.658203" xlink:href="#DejaVuSans-30"/>
      </g>
     </g>
    </g>
    <g id="ytick_2">
     <g id="line2d_11">
      <g>
       <use style="stroke:#000000;stroke-width:0.8;" x="144" xlink:href="#m238ddd9faa" y="685.8"/>
      </g>
     </g>
     <g id="text_11">
      <!-- −3000 -->
      <g transform="translate(103.170312 689.599219)scale(0.1 -0.1)">
       <use xlink:href="#DejaVuSans-2212"/>
       <use x="83.789062" xlink:href="#DejaVuSans-33"/>
       <use x="147.412109" xlink:href="#DejaVuSans-30"/>
       <use x="211.035156" xlink:href="#DejaVuSans-30"/>
       <use x="274.658203" xlink:href="#DejaVuSans-30"/>
      </g>
     </g>
    </g>
    <g id="ytick_3">
     <g id="line2d_12">
      <g>
       <use style="stroke:#000000;stroke-width:0.8;" x="144" xlink:href="#m238ddd9faa" y="602.64"/>
      </g>
     </g>
     <g id="text_12">
      <!-- −2000 -->
      <g transform="translate(103.170312 606.439219)scale(0.1 -0.1)">
       <use xlink:href="#DejaVuSans-2212"/>
       <use x="83.789062" xlink:href="#DejaVuSans-32"/>
       <use x="147.412109" xlink:href="#DejaVuSans-30"/>
       <use x="211.035156" xlink:href="#DejaVuSans-30"/>
       <use x="274.658203" xlink:href="#DejaVuSans-30"/>
      </g>
     </g>
    </g>
    <g id="ytick_4">
     <g id="line2d_13">
      <g>
       <use style="stroke:#000000;stroke-width:0.8;" x="144" xlink:href="#m238ddd9faa" y="519.48"/>
      </g>
     </g>
     <g id="text_13">
      <!-- −1000 -->
      <g transform="translate(103.170312 523.279219)scale(0.1 -0.1)">
       <use xlink:href="#DejaVuSans-2212"/>
       <use x="83.789062" xlink:href="#DejaVuSans-31"/>
       <use x="147.412109" xlink:href="#DejaVuSans-30"/>
       <use x="211.035156" xlink:href="#DejaVuSans-30"/>
       <use x="274.658203" xlink:href="#DejaVuSans-30"/>
      </g>
     </g>
    </g>
    <g id="ytick_5">
     <g id="line2d_14">
      <g>
       <use style="stroke:#000000;stroke-width:0.8;" x="144" xlink:href="#m238ddd9faa" y="436.32"/>
      </g>
     </g>
     <g id="text_14">
      <!-- 0 -->
      <g transform="translate(130.6375 440.119219)scale(0.1 -0.1)">
       <use xlink:href="#DejaVuSans-30"/>
      </g>
     </g>
    </g>
    <g id="ytick_6">
     <g id="line2d_15">
      <g>
       <use style="stroke:#000000;stroke-width:0.8;" x="144" xlink:href="#m238ddd9faa" y="353.16"/>
      </g>
     </g>
     <g id="text_15">
      <!-- 1000 -->
      <g transform="translate(111.55 356.959219)scale(0.1 -0.1)">
       <use xlink:href="#DejaVuSans-31"/>
       <use x="63.623047" xlink:href="#DejaVuSans-30"/>
       <use x="127.246094" xlink:href="#DejaVuSans-30"/>
       <use x="190.869141" xlink:href="#DejaVuSans-30"/>
      </g>
     </g>
    </g>
    <g id="ytick_7">
     <g id="line2d_16">
      <g>
       <use style="stroke:#000000;stroke-width:0.8;" x="144" xlink:href="#m238ddd9faa" y="270"/>
      </g>
     </g>
     <g id="text_16">
      <!-- 2000 -->
      <g transform="translate(111.55 273.799219)scale(0.1 -0.1)">
       <use xlink:href="#DejaVuSans-32"/>
       <use x="63.623047" xlink:href="#DejaVuSans-30"/>
       <use x="127.246094" xlink:href="#DejaVuSans-30"/>
       <use x="190.869141" xlink:href="#DejaVuSans-30"/>
      </g>
     </g>
    </g>
    <g id="ytick_8">
     <g id="line2d_17">
      <g>
       <use style="stroke:#000000;stroke-width:0.8;" x="144" xlink:href="#m238ddd9faa" y="186.84"/>
      </g>
     </g>
     <g id="text_17">
      <!-- 3000 -->
      <g transform="translate(111.55 190.639219)scale(0.1 -0.1)">
       <use xlink:href="#DejaVuSans-33"/>
       <use x="63.623047" xlink:href="#DejaVuSans-30"/>
       <use x="127.246094" xlink:href="#DejaVuSans-30"/>
       <use x="190.869141" xlink:href="#DejaVuSans-30"/>
      </g>
     </g>
    </g>
    <g id="ytick_9">
     <g id="line2d_18">
      <g>
       <use style="stroke:#000000;stroke-width:0.8;" x="144" xlink:href="#m238ddd9faa" y="103.68"/>
      </g>
     </g>
     <g id="text_18">
      <!-- 4000 -->
      <g transform="translate(111.55 107.479219)scale(0.1 -0.1)">
       <use xlink:href="#DejaVuSans-34"/>
       <use x="63.623047" xlink:href="#DejaVuSans-30"/>
       <use x="127.246094" xlink:href="#DejaVuSans-30"/>
       <use x="190.869141" xlink:href="#DejaVuSans-30"/>
      </g>
     </g>
    </g>
   </g>
   <g id="line2d_19">
    <path clip-path="url(#p8de8fd63d2)" d="M 590.4 768.96 
L 590.4 103.68 
" style="fill:none;stroke:#1f77b4;stroke-linecap:square;stroke-width:1.5;"/>
   </g>
   <g id="line2d_20">
    <path clip-path="url(#p8de8fd63d2)" d="M 144 436.32 
L 1036.8 436.32 
" style="fill:none;stroke:#1f77b4;stroke-linecap:square;stroke-width:1.5;"/>
   </g>
   <g id="line2d_21">
    <defs>
     <path d="M 0 3 
C 0.795609 3 1.55874 2.683901 2.12132 2.12132 
C 2.683901 1.55874 3 0.795609 3 0 
C 3 -0.795609 2.683901 -1.55874 2.12132 -2.12132 
C 1.55874 -2.683901 0.795609 -3 0 -3 
C -0.795609 -3 -1.55874 -2.683901 -2.12132 -2.12132 
C -2.683901 -1.55874 -3 -0.795609 -3 0 
C -3 0.795609 -2.683901 1.55874 -2.12132 2.12132 
C -1.55874 2.683901 -0.795609 3 0 3 
z
" id="m1c57f34b44" style="stroke:#008000;"/>
    </defs>
    <g clip-path="url(#p8de8fd63d2)">
     <use style="fill:#008000;stroke:#008000;" x="1184.859099" xlink:href="#m1c57f34b44" y="493.409324"/>
    </g>
   </g>
   <g id="line2d_22">
    <g clip-path="url(#p8de8fd63d2)">
     <use style="fill:#008000;stroke:#008000;" x="1083.101615" xlink:href="#m1c57f34b44" y="438.923229"/>
    </g>
   </g>
   <g id="line2d_23">
    <g clip-path="url(#p8de8fd63d2)">
     <use style="fill:#008000;stroke:#008000;" x="1288.582862" xlink:href="#m1c57f34b44" y="346.3388"/>
    </g>
   </g>
   <g id="line2d_24">
    <g clip-path="url(#p8de8fd63d2)">
     <use style="fill:#008000;stroke:#008000;" x="1409.108784" xlink:href="#m1c57f34b44" y="292.843146"/>
    </g>
   </g>
   <g id="line2d_25">
    <g clip-path="url(#p8de8fd63d2)">
     <use style="fill:#008000;stroke:#008000;" x="1318.329352" xlink:href="#m1c57f34b44" y="273.55252"/>
    </g>
   </g>
   <g id="line2d_26">
    <g clip-path="url(#p8de8fd63d2)">
     <use style="fill:#008000;stroke:#008000;" x="647.125102" xlink:href="#m1c57f34b44" y="392.501004"/>
    </g>
   </g>
   <g id="line2d_27">
    <g clip-path="url(#p8de8fd63d2)">
     <use style="fill:#008000;stroke:#008000;" x="647.125102" xlink:href="#m1c57f34b44" y="392.501004"/>
    </g>
   </g>
   <g id="line2d_28">
    <g clip-path="url(#p8de8fd63d2)">
     <use style="fill:#008000;stroke:#008000;" x="559.893549" xlink:href="#m1c57f34b44" y="225.567589"/>
    </g>
   </g>
   <g id="line2d_29">
    <g clip-path="url(#p8de8fd63d2)">
     <use style="fill:#008000;stroke:#008000;" x="575.695464" xlink:href="#m1c57f34b44" y="396.662481"/>
    </g>
   </g>
   <g id="line2d_30">
    <g clip-path="url(#p8de8fd63d2)">
     <use style="fill:#008000;stroke:#008000;" x="575.695464" xlink:href="#m1c57f34b44" y="396.662481"/>
    </g>
   </g>
   <g id="line2d_31">
    <g clip-path="url(#p8de8fd63d2)">
     <use style="fill:#008000;stroke:#008000;" x="462.272969" xlink:href="#m1c57f34b44" y="247.413442"/>
    </g>
   </g>
   <g id="line2d_32">
    <g clip-path="url(#p8de8fd63d2)">
     <use style="fill:#008000;stroke:#008000;" x="385.233897" xlink:href="#m1c57f34b44" y="278.265201"/>
    </g>
   </g>
   <g id="line2d_33">
    <g clip-path="url(#p8de8fd63d2)">
     <use style="fill:#008000;stroke:#008000;" x="455.540773" xlink:href="#m1c57f34b44" y="397.430022"/>
    </g>
   </g>
   <g id="line2d_34">
    <g clip-path="url(#p8de8fd63d2)">
     <use style="fill:#008000;stroke:#008000;" x="403.392182" xlink:href="#m1c57f34b44" y="446.599146"/>
    </g>
   </g>
   <g id="line2d_35">
    <g clip-path="url(#p8de8fd63d2)">
     <use style="fill:#008000;stroke:#008000;" x="410.300522" xlink:href="#m1c57f34b44" y="503.276929"/>
    </g>
   </g>
   <g id="line2d_36">
    <defs>
     <path d="M 0 1.333333 
C 0.353604 1.333333 0.692773 1.192845 0.942809 0.942809 
C 1.192845 0.692773 1.333333 0.353604 1.333333 0 
C 1.333333 -0.353604 1.192845 -0.692773 0.942809 -0.942809 
C 0.692773 -1.192845 0.353604 -1.333333 0 -1.333333 
C -0.353604 -1.333333 -0.692773 -1.192845 -0.942809 -0.942809 
C -1.192845 -0.692773 -1.333333 -0.353604 -1.333333 0 
C -1.333333 0.353604 -1.192845 0.692773 -0.942809 0.942809 
C -0.692773 1.192845 -0.353604 1.333333 0 1.333333 
z
" id="ma826699cd0" style="stroke:#ff0000;"/>
    </defs>
    <g clip-path="url(#p8de8fd63d2)">
     <use style="fill:#ff0000;stroke:#ff0000;" x="1184.859099" xlink:href="#ma826699cd0" y="493.409324"/>
     <use style="fill:#ff0000;stroke:#ff0000;" x="1083.101615" xlink:href="#ma826699cd0" y="438.923229"/>
     <use style="fill:#ff0000;stroke:#ff0000;" x="1288.582862" xlink:href="#ma826699cd0" y="346.3388"/>
     <use style="fill:#ff0000;stroke:#ff0000;" x="1409.108784" xlink:href="#ma826699cd0" y="292.843146"/>
     <use style="fill:#ff0000;stroke:#ff0000;" x="1318.329352" xlink:href="#ma826699cd0" y="273.55252"/>
     <use style="fill:#ff0000;stroke:#ff0000;" x="650.345116" xlink:href="#ma826699cd0" y="399.74275"/>
     <use style="fill:#ff0000;stroke:#ff0000;" x="642.414123" xlink:href="#ma826699cd0" y="385.349445"/>
     <use style="fill:#ff0000;stroke:#ff0000;" x="764.204599" xlink:href="#ma826699cd0" y="196.854156"/>
     <use style="fill:#ff0000;stroke:#ff0000;" x="738.899426" xlink:href="#ma826699cd0" y="198.679082"/>
     <use style="fill:#ff0000;stroke:#ff0000;" x="713.994219" xlink:href="#ma826699cd0" y="202.516551"/>
     <use style="fill:#ff0000;stroke:#ff0000;" x="691.137425" xlink:href="#ma826699cd0" y="205.933257"/>
     <use style="fill:#ff0000;stroke:#ff0000;" x="559.893549" xlink:href="#ma826699cd0" y="225.567589"/>
     <use style="fill:#ff0000;stroke:#ff0000;" x="578.903855" xlink:href="#ma826699cd0" y="395.525796"/>
     <use style="fill:#ff0000;stroke:#ff0000;" x="572.632117" xlink:href="#ma826699cd0" y="397.936448"/>
     <use style="fill:#ff0000;stroke:#ff0000;" x="462.272969" xlink:href="#ma826699cd0" y="247.413442"/>
     <use style="fill:#ff0000;stroke:#ff0000;" x="385.233897" xlink:href="#ma826699cd0" y="278.265201"/>
     <use style="fill:#ff0000;stroke:#ff0000;" x="415.720836" xlink:href="#ma826699cd0" y="317.567906"/>
     <use style="fill:#ff0000;stroke:#ff0000;" x="423.745902" xlink:href="#ma826699cd0" y="347.995518"/>
     <use style="fill:#ff0000;stroke:#ff0000;" x="408.299861" xlink:href="#ma826699cd0" y="362.596262"/>
     <use style="fill:#ff0000;stroke:#ff0000;" x="454.777682" xlink:href="#ma826699cd0" y="389.964186"/>
     <use style="fill:#ff0000;stroke:#ff0000;" x="457.004419" xlink:href="#ma826699cd0" y="404.650778"/>
     <use style="fill:#ff0000;stroke:#ff0000;" x="433.414069" xlink:href="#ma826699cd0" y="406.305084"/>
     <use style="fill:#ff0000;stroke:#ff0000;" x="440.211064" xlink:href="#ma826699cd0" y="414.660936"/>
     <use style="fill:#ff0000;stroke:#ff0000;" x="411.317405" xlink:href="#ma826699cd0" y="442.219276"/>
     <use style="fill:#ff0000;stroke:#ff0000;" x="395.664949" xlink:href="#ma826699cd0" y="451.331557"/>
     <use style="fill:#ff0000;stroke:#ff0000;" x="410.300522" xlink:href="#ma826699cd0" y="503.276929"/>
     <use style="fill:#ff0000;stroke:#ff0000;" x="467.914051" xlink:href="#ma826699cd0" y="489.581495"/>
     <use style="fill:#ff0000;stroke:#ff0000;" x="433.571112" xlink:href="#ma826699cd0" y="513.486619"/>
     <use style="fill:#ff0000;stroke:#ff0000;" x="448.400831" xlink:href="#ma826699cd0" y="515.784161"/>
     <use style="fill:#ff0000;stroke:#ff0000;" x="469.862055" xlink:href="#ma826699cd0" y="512.949022"/>
     <use style="fill:#ff0000;stroke:#ff0000;" x="466.12908" xlink:href="#ma826699cd0" y="536.331874"/>
     <use style="fill:#ff0000;stroke:#ff0000;" x="451.740257" xlink:href="#ma826699cd0" y="561.383677"/>
     <use style="fill:#ff0000;stroke:#ff0000;" x="472.817834" xlink:href="#ma826699cd0" y="592.173896"/>
     <use style="fill:#ff0000;stroke:#ff0000;" x="467.796128" xlink:href="#ma826699cd0" y="623.764782"/>
     <use style="fill:#ff0000;stroke:#ff0000;" x="481.926449" xlink:href="#ma826699cd0" y="630.86109"/>
     <use style="fill:#ff0000;stroke:#ff0000;" x="508.327116" xlink:href="#ma826699cd0" y="613.306975"/>
     <use style="fill:#ff0000;stroke:#ff0000;" x="511.078423" xlink:href="#ma826699cd0" y="645.89892"/>
     <use style="fill:#ff0000;stroke:#ff0000;" x="545.182359" xlink:href="#ma826699cd0" y="652.10412"/>
     <use style="fill:#ff0000;stroke:#ff0000;" x="565.429663" xlink:href="#ma826699cd0" y="632.36184"/>
     <use style="fill:#ff0000;stroke:#ff0000;" x="586.034145" xlink:href="#ma826699cd0" y="554.403974"/>
     <use style="fill:#ff0000;stroke:#ff0000;" x="635.063458" xlink:href="#ma826699cd0" y="555.07064"/>
     <use style="fill:#ff0000;stroke:#ff0000;" x="669.320854" xlink:href="#ma826699cd0" y="609.255098"/>
     <use style="fill:#ff0000;stroke:#ff0000;" x="694.321846" xlink:href="#ma826699cd0" y="597.42773"/>
     <use style="fill:#ff0000;stroke:#ff0000;" x="760.37947" xlink:href="#ma826699cd0" y="591.260436"/>
     <use style="fill:#ff0000;stroke:#ff0000;" x="794.320541" xlink:href="#ma826699cd0" y="582.500426"/>
     <use style="fill:#ff0000;stroke:#ff0000;" x="818.89947" xlink:href="#ma826699cd0" y="581.823754"/>
     <use style="fill:#ff0000;stroke:#ff0000;" x="834.78273" xlink:href="#ma826699cd0" y="573.312182"/>
     <use style="fill:#ff0000;stroke:#ff0000;" x="875.12895" xlink:href="#ma826699cd0" y="559.433779"/>
     <use style="fill:#ff0000;stroke:#ff0000;" x="899.788848" xlink:href="#ma826699cd0" y="552.051365"/>
     <use style="fill:#ff0000;stroke:#ff0000;" x="948.163418" xlink:href="#ma826699cd0" y="551.201372"/>
     <use style="fill:#ff0000;stroke:#ff0000;" x="1060.53452" xlink:href="#ma826699cd0" y="539.987392"/>
     <use style="fill:#ff0000;stroke:#ff0000;" x="1094.629846" xlink:href="#ma826699cd0" y="523.6045"/>
     <use style="fill:#ff0000;stroke:#ff0000;" x="1119.70353" xlink:href="#ma826699cd0" y="503.539598"/>
    </g>
   </g>
   <g id="line2d_37">
    <defs>
     <path d="M -0.5 0.5 
L 0.5 0.5 
L 0.5 -0.5 
L -0.5 -0.5 
z
" id="m6c7f228c3d" style="stroke:#1f77b4;stroke-linejoin:miter;"/>
    </defs>
    <g clip-path="url(#p8de8fd63d2)">
     <use style="fill:#1f77b4;stroke:#1f77b4;stroke-linejoin:miter;" x="1184.859099" xlink:href="#m6c7f228c3d" y="493.409324"/>
     <use style="fill:#1f77b4;stroke:#1f77b4;stroke-linejoin:miter;" x="1083.101615" xlink:href="#m6c7f228c3d" y="438.923229"/>
     <use style="fill:#1f77b4;stroke:#1f77b4;stroke-linejoin:miter;" x="1288.582862" xlink:href="#m6c7f228c3d" y="346.3388"/>
     <use style="fill:#1f77b4;stroke:#1f77b4;stroke-linejoin:miter;" x="1409.108784" xlink:href="#m6c7f228c3d" y="292.843146"/>
     <use style="fill:#1f77b4;stroke:#1f77b4;stroke-linejoin:miter;" x="1318.329352" xlink:href="#m6c7f228c3d" y="273.55252"/>
     <use style="fill:#1f77b4;stroke:#1f77b4;stroke-linejoin:miter;" x="650.345116" xlink:href="#m6c7f228c3d" y="399.74275"/>
     <use style="fill:#1f77b4;stroke:#1f77b4;stroke-linejoin:miter;" x="647.272958" xlink:href="#m6c7f228c3d" y="397.358559"/>
     <use style="fill:#1f77b4;stroke:#1f77b4;stroke-linejoin:miter;" x="645.05058" xlink:href="#m6c7f228c3d" y="393.941926"/>
     <use style="fill:#1f77b4;stroke:#1f77b4;stroke-linejoin:miter;" x="641.667236" xlink:href="#m6c7f228c3d" y="391.491857"/>
     <use style="fill:#1f77b4;stroke:#1f77b4;stroke-linejoin:miter;" x="642.414123" xlink:href="#m6c7f228c3d" y="385.349445"/>
     <use style="fill:#1f77b4;stroke:#1f77b4;stroke-linejoin:miter;" x="764.204599" xlink:href="#m6c7f228c3d" y="196.854156"/>
     <use style="fill:#1f77b4;stroke:#1f77b4;stroke-linejoin:miter;" x="738.899426" xlink:href="#m6c7f228c3d" y="198.679082"/>
     <use style="fill:#1f77b4;stroke:#1f77b4;stroke-linejoin:miter;" x="713.994219" xlink:href="#m6c7f228c3d" y="202.516551"/>
     <use style="fill:#1f77b4;stroke:#1f77b4;stroke-linejoin:miter;" x="691.137425" xlink:href="#m6c7f228c3d" y="205.933257"/>
     <use style="fill:#1f77b4;stroke:#1f77b4;stroke-linejoin:miter;" x="669.499196" xlink:href="#m6c7f228c3d" y="209.938253"/>
     <use style="fill:#1f77b4;stroke:#1f77b4;stroke-linejoin:miter;" x="649.624884" xlink:href="#m6c7f228c3d" y="212.861014"/>
     <use style="fill:#1f77b4;stroke:#1f77b4;stroke-linejoin:miter;" x="630.581894" xlink:href="#m6c7f228c3d" y="215.408743"/>
     <use style="fill:#1f77b4;stroke:#1f77b4;stroke-linejoin:miter;" x="611.615856" xlink:href="#m6c7f228c3d" y="218.764974"/>
     <use style="fill:#1f77b4;stroke:#1f77b4;stroke-linejoin:miter;" x="593.906614" xlink:href="#m6c7f228c3d" y="223.404853"/>
     <use style="fill:#1f77b4;stroke:#1f77b4;stroke-linejoin:miter;" x="576.88779" xlink:href="#m6c7f228c3d" y="225.500226"/>
     <use style="fill:#1f77b4;stroke:#1f77b4;stroke-linejoin:miter;" x="559.893549" xlink:href="#m6c7f228c3d" y="225.567589"/>
     <use style="fill:#1f77b4;stroke:#1f77b4;stroke-linejoin:miter;" x="578.903855" xlink:href="#m6c7f228c3d" y="395.525796"/>
     <use style="fill:#1f77b4;stroke:#1f77b4;stroke-linejoin:miter;" x="575.862878" xlink:href="#m6c7f228c3d" y="397.382992"/>
     <use style="fill:#1f77b4;stroke:#1f77b4;stroke-linejoin:miter;" x="572.632117" xlink:href="#m6c7f228c3d" y="397.936448"/>
     <use style="fill:#1f77b4;stroke:#1f77b4;stroke-linejoin:miter;" x="462.272969" xlink:href="#m6c7f228c3d" y="247.413442"/>
     <use style="fill:#1f77b4;stroke:#1f77b4;stroke-linejoin:miter;" x="444.124718" xlink:href="#m6c7f228c3d" y="249.299701"/>
     <use style="fill:#1f77b4;stroke:#1f77b4;stroke-linejoin:miter;" x="426.168135" xlink:href="#m6c7f228c3d" y="252.62481"/>
     <use style="fill:#1f77b4;stroke:#1f77b4;stroke-linejoin:miter;" x="416.691508" xlink:href="#m6c7f228c3d" y="265.420525"/>
     <use style="fill:#1f77b4;stroke:#1f77b4;stroke-linejoin:miter;" x="400.125007" xlink:href="#m6c7f228c3d" y="271.133132"/>
     <use style="fill:#1f77b4;stroke:#1f77b4;stroke-linejoin:miter;" x="385.233897" xlink:href="#m6c7f228c3d" y="278.265201"/>
     <use style="fill:#1f77b4;stroke:#1f77b4;stroke-linejoin:miter;" x="415.720836" xlink:href="#m6c7f228c3d" y="317.567906"/>
     <use style="fill:#1f77b4;stroke:#1f77b4;stroke-linejoin:miter;" x="423.745902" xlink:href="#m6c7f228c3d" y="347.995518"/>
     <use style="fill:#1f77b4;stroke:#1f77b4;stroke-linejoin:miter;" x="419.212368" xlink:href="#m6c7f228c3d" y="356.851814"/>
     <use style="fill:#1f77b4;stroke:#1f77b4;stroke-linejoin:miter;" x="408.299861" xlink:href="#m6c7f228c3d" y="362.596262"/>
     <use style="fill:#1f77b4;stroke:#1f77b4;stroke-linejoin:miter;" x="454.777682" xlink:href="#m6c7f228c3d" y="389.964186"/>
     <use style="fill:#1f77b4;stroke:#1f77b4;stroke-linejoin:miter;" x="454.684782" xlink:href="#m6c7f228c3d" y="397.119744"/>
     <use style="fill:#1f77b4;stroke:#1f77b4;stroke-linejoin:miter;" x="457.004419" xlink:href="#m6c7f228c3d" y="404.650778"/>
     <use style="fill:#1f77b4;stroke:#1f77b4;stroke-linejoin:miter;" x="433.414069" xlink:href="#m6c7f228c3d" y="406.305084"/>
     <use style="fill:#1f77b4;stroke:#1f77b4;stroke-linejoin:miter;" x="440.211064" xlink:href="#m6c7f228c3d" y="414.660936"/>
     <use style="fill:#1f77b4;stroke:#1f77b4;stroke-linejoin:miter;" x="419.172648" xlink:href="#m6c7f228c3d" y="427.153107"/>
     <use style="fill:#1f77b4;stroke:#1f77b4;stroke-linejoin:miter;" x="420.312144" xlink:href="#m6c7f228c3d" y="434.453422"/>
     <use style="fill:#1f77b4;stroke:#1f77b4;stroke-linejoin:miter;" x="411.317405" xlink:href="#m6c7f228c3d" y="442.219276"/>
     <use style="fill:#1f77b4;stroke:#1f77b4;stroke-linejoin:miter;" x="395.664949" xlink:href="#m6c7f228c3d" y="451.331557"/>
     <use style="fill:#1f77b4;stroke:#1f77b4;stroke-linejoin:miter;" x="398.747728" xlink:href="#m6c7f228c3d" y="459.738331"/>
     <use style="fill:#1f77b4;stroke:#1f77b4;stroke-linejoin:miter;" x="401.797243" xlink:href="#m6c7f228c3d" y="468.040269"/>
     <use style="fill:#1f77b4;stroke:#1f77b4;stroke-linejoin:miter;" x="404.674297" xlink:href="#m6c7f228c3d" y="476.372164"/>
     <use style="fill:#1f77b4;stroke:#1f77b4;stroke-linejoin:miter;" x="405.612164" xlink:href="#m6c7f228c3d" y="485.376993"/>
     <use style="fill:#1f77b4;stroke:#1f77b4;stroke-linejoin:miter;" x="407.867272" xlink:href="#m6c7f228c3d" y="494.406037"/>
     <use style="fill:#1f77b4;stroke:#1f77b4;stroke-linejoin:miter;" x="410.300522" xlink:href="#m6c7f228c3d" y="503.276929"/>
     <use style="fill:#1f77b4;stroke:#1f77b4;stroke-linejoin:miter;" x="467.914051" xlink:href="#m6c7f228c3d" y="489.581495"/>
     <use style="fill:#1f77b4;stroke:#1f77b4;stroke-linejoin:miter;" x="433.571112" xlink:href="#m6c7f228c3d" y="513.486619"/>
     <use style="fill:#1f77b4;stroke:#1f77b4;stroke-linejoin:miter;" x="448.400831" xlink:href="#m6c7f228c3d" y="515.784161"/>
     <use style="fill:#1f77b4;stroke:#1f77b4;stroke-linejoin:miter;" x="469.862055" xlink:href="#m6c7f228c3d" y="512.949022"/>
     <use style="fill:#1f77b4;stroke:#1f77b4;stroke-linejoin:miter;" x="466.12908" xlink:href="#m6c7f228c3d" y="536.331874"/>
     <use style="fill:#1f77b4;stroke:#1f77b4;stroke-linejoin:miter;" x="451.740257" xlink:href="#m6c7f228c3d" y="561.383677"/>
     <use style="fill:#1f77b4;stroke:#1f77b4;stroke-linejoin:miter;" x="464.51584" xlink:href="#m6c7f228c3d" y="582.242104"/>
     <use style="fill:#1f77b4;stroke:#1f77b4;stroke-linejoin:miter;" x="472.817834" xlink:href="#m6c7f228c3d" y="592.173896"/>
     <use style="fill:#1f77b4;stroke:#1f77b4;stroke-linejoin:miter;" x="467.796128" xlink:href="#m6c7f228c3d" y="623.764782"/>
     <use style="fill:#1f77b4;stroke:#1f77b4;stroke-linejoin:miter;" x="481.926449" xlink:href="#m6c7f228c3d" y="630.86109"/>
     <use style="fill:#1f77b4;stroke:#1f77b4;stroke-linejoin:miter;" x="508.327116" xlink:href="#m6c7f228c3d" y="613.306975"/>
     <use style="fill:#1f77b4;stroke:#1f77b4;stroke-linejoin:miter;" x="511.078423" xlink:href="#m6c7f228c3d" y="645.89892"/>
     <use style="fill:#1f77b4;stroke:#1f77b4;stroke-linejoin:miter;" x="526.145457" xlink:href="#m6c7f228c3d" y="655.687556"/>
     <use style="fill:#1f77b4;stroke:#1f77b4;stroke-linejoin:miter;" x="545.182359" xlink:href="#m6c7f228c3d" y="652.10412"/>
     <use style="fill:#1f77b4;stroke:#1f77b4;stroke-linejoin:miter;" x="565.429663" xlink:href="#m6c7f228c3d" y="632.36184"/>
     <use style="fill:#1f77b4;stroke:#1f77b4;stroke-linejoin:miter;" x="586.034145" xlink:href="#m6c7f228c3d" y="554.403974"/>
     <use style="fill:#1f77b4;stroke:#1f77b4;stroke-linejoin:miter;" x="595.526665" xlink:href="#m6c7f228c3d" y="551.100405"/>
     <use style="fill:#1f77b4;stroke:#1f77b4;stroke-linejoin:miter;" x="605.188795" xlink:href="#m6c7f228c3d" y="552.764246"/>
     <use style="fill:#1f77b4;stroke:#1f77b4;stroke-linejoin:miter;" x="614.579104" xlink:href="#m6c7f228c3d" y="552.119952"/>
     <use style="fill:#1f77b4;stroke:#1f77b4;stroke-linejoin:miter;" x="624.208704" xlink:href="#m6c7f228c3d" y="552.199218"/>
     <use style="fill:#1f77b4;stroke:#1f77b4;stroke-linejoin:miter;" x="635.063458" xlink:href="#m6c7f228c3d" y="555.07064"/>
     <use style="fill:#1f77b4;stroke:#1f77b4;stroke-linejoin:miter;" x="669.320854" xlink:href="#m6c7f228c3d" y="609.255098"/>
     <use style="fill:#1f77b4;stroke:#1f77b4;stroke-linejoin:miter;" x="679.072384" xlink:href="#m6c7f228c3d" y="597.703774"/>
     <use style="fill:#1f77b4;stroke:#1f77b4;stroke-linejoin:miter;" x="694.321846" xlink:href="#m6c7f228c3d" y="597.42773"/>
     <use style="fill:#1f77b4;stroke:#1f77b4;stroke-linejoin:miter;" x="760.37947" xlink:href="#m6c7f228c3d" y="591.260436"/>
     <use style="fill:#1f77b4;stroke:#1f77b4;stroke-linejoin:miter;" x="775.208958" xlink:href="#m6c7f228c3d" y="585.541256"/>
     <use style="fill:#1f77b4;stroke:#1f77b4;stroke-linejoin:miter;" x="794.320541" xlink:href="#m6c7f228c3d" y="582.500426"/>
     <use style="fill:#1f77b4;stroke:#1f77b4;stroke-linejoin:miter;" x="818.89947" xlink:href="#m6c7f228c3d" y="581.823754"/>
     <use style="fill:#1f77b4;stroke:#1f77b4;stroke-linejoin:miter;" x="834.78273" xlink:href="#m6c7f228c3d" y="573.312182"/>
     <use style="fill:#1f77b4;stroke:#1f77b4;stroke-linejoin:miter;" x="875.12895" xlink:href="#m6c7f228c3d" y="559.433779"/>
     <use style="fill:#1f77b4;stroke:#1f77b4;stroke-linejoin:miter;" x="899.788848" xlink:href="#m6c7f228c3d" y="552.051365"/>
     <use style="fill:#1f77b4;stroke:#1f77b4;stroke-linejoin:miter;" x="948.163418" xlink:href="#m6c7f228c3d" y="551.201372"/>
     <use style="fill:#1f77b4;stroke:#1f77b4;stroke-linejoin:miter;" x="1060.53452" xlink:href="#m6c7f228c3d" y="539.987392"/>
     <use style="fill:#1f77b4;stroke:#1f77b4;stroke-linejoin:miter;" x="1094.629846" xlink:href="#m6c7f228c3d" y="523.6045"/>
     <use style="fill:#1f77b4;stroke:#1f77b4;stroke-linejoin:miter;" x="1119.70353" xlink:href="#m6c7f228c3d" y="503.539598"/>
    </g>
   </g>
   <g id="patch_3">
    <path d="M 144 768.96 
L 144 103.68 
" style="fill:none;stroke:#000000;stroke-linecap:square;stroke-linejoin:miter;stroke-width:0.8;"/>
   </g>
   <g id="patch_4">
    <path d="M 1036.8 768.96 
L 1036.8 103.68 
" style="fill:none;stroke:#000000;stroke-linecap:square;stroke-linejoin:miter;stroke-width:0.8;"/>
   </g>
   <g id="patch_5">
    <path d="M 144 768.96 
L 1036.8 768.96 
" style="fill:none;stroke:#000000;stroke-linecap:square;stroke-linejoin:miter;stroke-width:0.8;"/>
   </g>
   <g id="patch_6">
    <path d="M 144 103.68 
L 1036.8 103.68 
" style="fill:none;stroke:#000000;stroke-linecap:square;stroke-linejoin:miter;stroke-width:0.8;"/>
   </g>
  </g>
 </g>
 <defs>
  <clipPath id="p8de8fd63d2">
   <rect height="665.28" width="892.8" x="144" y="103.68"/>
  </clipPath>
 </defs>
</svg>
