<?xml version="1.0" encoding="utf-8" standalone="no"?>
<!DOCTYPE svg PUBLIC "-//W3C//DTD SVG 1.1//EN"
  "http://www.w3.org/Graphics/SVG/1.1/DTD/svg11.dtd">
<!-- Created with matplotlib (http://matplotlib.org/) -->
<svg height="864pt" version="1.1" viewBox="0 0 1152 864" width="1152pt" xmlns="http://www.w3.org/2000/svg" xmlns:xlink="http://www.w3.org/1999/xlink">
 <defs>
  <style type="text/css">
*{stroke-linecap:butt;stroke-linejoin:round;}
  </style>
 </defs>
 <g id="figure_1">
  <g id="patch_1">
   <path d="M 0 864 
L 1152 864 
L 1152 0 
L 0 0 
z
" style="fill:#ffffff;"/>
  </g>
  <g id="axes_1">
   <g id="patch_2">
    <path d="M 144 768.96 
L 1036.8 768.96 
L 1036.8 103.68 
L 144 103.68 
z
" style="fill:#ffffff;"/>
   </g>
   <g id="matplotlib.axis_1">
    <g id="xtick_1">
     <g id="line2d_1">
      <defs>
       <path d="M 0 0 
L 0 3.5 
" id="m6e9b1bd02a" style="stroke:#000000;stroke-width:0.8;"/>
      </defs>
      <g>
       <use style="stroke:#000000;stroke-width:0.8;" x="144" xlink:href="#m6e9b1bd02a" y="768.96"/>
      </g>
     </g>
     <g id="text_1">
      <!-- −4000 -->
      <defs>
       <path d="M 10.59375 35.5 
L 73.1875 35.5 
L 73.1875 27.203125 
L 10.59375 27.203125 
z
" id="DejaVuSans-2212"/>
       <path d="M 37.796875 64.3125 
L 12.890625 25.390625 
L 37.796875 25.390625 
z
M 35.203125 72.90625 
L 47.609375 72.90625 
L 47.609375 25.390625 
L 58.015625 25.390625 
L 58.015625 17.1875 
L 47.609375 17.1875 
L 47.609375 0 
L 37.796875 0 
L 37.796875 17.1875 
L 4.890625 17.1875 
L 4.890625 26.703125 
z
" id="DejaVuSans-34"/>
       <path d="M 31.78125 66.40625 
Q 24.171875 66.40625 20.328125 58.90625 
Q 16.5 51.421875 16.5 36.375 
Q 16.5 21.390625 20.328125 13.890625 
Q 24.171875 6.390625 31.78125 6.390625 
Q 39.453125 6.390625 43.28125 13.890625 
Q 47.125 21.390625 47.125 36.375 
Q 47.125 51.421875 43.28125 58.90625 
Q 39.453125 66.40625 31.78125 66.40625 
z
M 31.78125 74.21875 
Q 44.046875 74.21875 50.515625 64.515625 
Q 56.984375 54.828125 56.984375 36.375 
Q 56.984375 17.96875 50.515625 8.265625 
Q 44.046875 -1.421875 31.78125 -1.421875 
Q 19.53125 -1.421875 13.0625 8.265625 
Q 6.59375 17.96875 6.59375 36.375 
Q 6.59375 54.828125 13.0625 64.515625 
Q 19.53125 74.21875 31.78125 74.21875 
z
" id="DejaVuSans-30"/>
      </defs>
      <g transform="translate(127.085156 783.558437)scale(0.1 -0.1)">
       <use xlink:href="#DejaVuSans-2212"/>
       <use x="83.789062" xlink:href="#DejaVuSans-34"/>
       <use x="147.412109" xlink:href="#DejaVuSans-30"/>
       <use x="211.035156" xlink:href="#DejaVuSans-30"/>
       <use x="274.658203" xlink:href="#DejaVuSans-30"/>
      </g>
     </g>
    </g>
    <g id="xtick_2">
     <g id="line2d_2">
      <g>
       <use style="stroke:#000000;stroke-width:0.8;" x="255.6" xlink:href="#m6e9b1bd02a" y="768.96"/>
      </g>
     </g>
     <g id="text_2">
      <!-- −3000 -->
      <defs>
       <path d="M 40.578125 39.3125 
Q 47.65625 37.796875 51.625 33 
Q 55.609375 28.21875 55.609375 21.1875 
Q 55.609375 10.40625 48.1875 4.484375 
Q 40.765625 -1.421875 27.09375 -1.421875 
Q 22.515625 -1.421875 17.65625 -0.515625 
Q 12.796875 0.390625 7.625 2.203125 
L 7.625 11.71875 
Q 11.71875 9.328125 16.59375 8.109375 
Q 21.484375 6.890625 26.8125 6.890625 
Q 36.078125 6.890625 40.9375 10.546875 
Q 45.796875 14.203125 45.796875 21.1875 
Q 45.796875 27.640625 41.28125 31.265625 
Q 36.765625 34.90625 28.71875 34.90625 
L 20.21875 34.90625 
L 20.21875 43.015625 
L 29.109375 43.015625 
Q 36.375 43.015625 40.234375 45.921875 
Q 44.09375 48.828125 44.09375 54.296875 
Q 44.09375 59.90625 40.109375 62.90625 
Q 36.140625 65.921875 28.71875 65.921875 
Q 24.65625 65.921875 20.015625 65.03125 
Q 15.375 64.15625 9.8125 62.3125 
L 9.8125 71.09375 
Q 15.4375 72.65625 20.34375 73.4375 
Q 25.25 74.21875 29.59375 74.21875 
Q 40.828125 74.21875 47.359375 69.109375 
Q 53.90625 64.015625 53.90625 55.328125 
Q 53.90625 49.265625 50.4375 45.09375 
Q 46.96875 40.921875 40.578125 39.3125 
z
" id="DejaVuSans-33"/>
      </defs>
      <g transform="translate(238.685156 783.558437)scale(0.1 -0.1)">
       <use xlink:href="#DejaVuSans-2212"/>
       <use x="83.789062" xlink:href="#DejaVuSans-33"/>
       <use x="147.412109" xlink:href="#DejaVuSans-30"/>
       <use x="211.035156" xlink:href="#DejaVuSans-30"/>
       <use x="274.658203" xlink:href="#DejaVuSans-30"/>
      </g>
     </g>
    </g>
    <g id="xtick_3">
     <g id="line2d_3">
      <g>
       <use style="stroke:#000000;stroke-width:0.8;" x="367.2" xlink:href="#m6e9b1bd02a" y="768.96"/>
      </g>
     </g>
     <g id="text_3">
      <!-- −2000 -->
      <defs>
       <path d="M 19.1875 8.296875 
L 53.609375 8.296875 
L 53.609375 0 
L 7.328125 0 
L 7.328125 8.296875 
Q 12.9375 14.109375 22.625 23.890625 
Q 32.328125 33.6875 34.8125 36.53125 
Q 39.546875 41.84375 41.421875 45.53125 
Q 43.3125 49.21875 43.3125 52.78125 
Q 43.3125 58.59375 39.234375 62.25 
Q 35.15625 65.921875 28.609375 65.921875 
Q 23.96875 65.921875 18.8125 64.3125 
Q 13.671875 62.703125 7.8125 59.421875 
L 7.8125 69.390625 
Q 13.765625 71.78125 18.9375 73 
Q 24.125 74.21875 28.421875 74.21875 
Q 39.75 74.21875 46.484375 68.546875 
Q 53.21875 62.890625 53.21875 53.421875 
Q 53.21875 48.921875 51.53125 44.890625 
Q 49.859375 40.875 45.40625 35.40625 
Q 44.1875 33.984375 37.640625 27.21875 
Q 31.109375 20.453125 19.1875 8.296875 
z
" id="DejaVuSans-32"/>
      </defs>
      <g transform="translate(350.285156 783.558437)scale(0.1 -0.1)">
       <use xlink:href="#DejaVuSans-2212"/>
       <use x="83.789062" xlink:href="#DejaVuSans-32"/>
       <use x="147.412109" xlink:href="#DejaVuSans-30"/>
       <use x="211.035156" xlink:href="#DejaVuSans-30"/>
       <use x="274.658203" xlink:href="#DejaVuSans-30"/>
      </g>
     </g>
    </g>
    <g id="xtick_4">
     <g id="line2d_4">
      <g>
       <use style="stroke:#000000;stroke-width:0.8;" x="478.8" xlink:href="#m6e9b1bd02a" y="768.96"/>
      </g>
     </g>
     <g id="text_4">
      <!-- −1000 -->
      <defs>
       <path d="M 12.40625 8.296875 
L 28.515625 8.296875 
L 28.515625 63.921875 
L 10.984375 60.40625 
L 10.984375 69.390625 
L 28.421875 72.90625 
L 38.28125 72.90625 
L 38.28125 8.296875 
L 54.390625 8.296875 
L 54.390625 0 
L 12.40625 0 
z
" id="DejaVuSans-31"/>
      </defs>
      <g transform="translate(461.885156 783.558437)scale(0.1 -0.1)">
       <use xlink:href="#DejaVuSans-2212"/>
       <use x="83.789062" xlink:href="#DejaVuSans-31"/>
       <use x="147.412109" xlink:href="#DejaVuSans-30"/>
       <use x="211.035156" xlink:href="#DejaVuSans-30"/>
       <use x="274.658203" xlink:href="#DejaVuSans-30"/>
      </g>
     </g>
    </g>
    <g id="xtick_5">
     <g id="line2d_5">
      <g>
       <use style="stroke:#000000;stroke-width:0.8;" x="590.4" xlink:href="#m6e9b1bd02a" y="768.96"/>
      </g>
     </g>
     <g id="text_5">
      <!-- 0 -->
      <g transform="translate(587.21875 783.558437)scale(0.1 -0.1)">
       <use xlink:href="#DejaVuSans-30"/>
      </g>
     </g>
    </g>
    <g id="xtick_6">
     <g id="line2d_6">
      <g>
       <use style="stroke:#000000;stroke-width:0.8;" x="702" xlink:href="#m6e9b1bd02a" y="768.96"/>
      </g>
     </g>
     <g id="text_6">
      <!-- 1000 -->
      <g transform="translate(689.275 783.558437)scale(0.1 -0.1)">
       <use xlink:href="#DejaVuSans-31"/>
       <use x="63.623047" xlink:href="#DejaVuSans-30"/>
       <use x="127.246094" xlink:href="#DejaVuSans-30"/>
       <use x="190.869141" xlink:href="#DejaVuSans-30"/>
      </g>
     </g>
    </g>
    <g id="xtick_7">
     <g id="line2d_7">
      <g>
       <use style="stroke:#000000;stroke-width:0.8;" x="813.6" xlink:href="#m6e9b1bd02a" y="768.96"/>
      </g>
     </g>
     <g id="text_7">
      <!-- 2000 -->
      <g transform="translate(800.875 783.558437)scale(0.1 -0.1)">
       <use xlink:href="#DejaVuSans-32"/>
       <use x="63.623047" xlink:href="#DejaVuSans-30"/>
       <use x="127.246094" xlink:href="#DejaVuSans-30"/>
       <use x="190.869141" xlink:href="#DejaVuSans-30"/>
      </g>
     </g>
    </g>
    <g id="xtick_8">
     <g id="line2d_8">
      <g>
       <use style="stroke:#000000;stroke-width:0.8;" x="925.2" xlink:href="#m6e9b1bd02a" y="768.96"/>
      </g>
     </g>
     <g id="text_8">
      <!-- 3000 -->
      <g transform="translate(912.475 783.558437)scale(0.1 -0.1)">
       <use xlink:href="#DejaVuSans-33"/>
       <use x="63.623047" xlink:href="#DejaVuSans-30"/>
       <use x="127.246094" xlink:href="#DejaVuSans-30"/>
       <use x="190.869141" xlink:href="#DejaVuSans-30"/>
      </g>
     </g>
    </g>
    <g id="xtick_9">
     <g id="line2d_9">
      <g>
       <use style="stroke:#000000;stroke-width:0.8;" x="1036.8" xlink:href="#m6e9b1bd02a" y="768.96"/>
      </g>
     </g>
     <g id="text_9">
      <!-- 4000 -->
      <g transform="translate(1024.075 783.558437)scale(0.1 -0.1)">
       <use xlink:href="#DejaVuSans-34"/>
       <use x="63.623047" xlink:href="#DejaVuSans-30"/>
       <use x="127.246094" xlink:href="#DejaVuSans-30"/>
       <use x="190.869141" xlink:href="#DejaVuSans-30"/>
      </g>
     </g>
    </g>
   </g>
   <g id="matplotlib.axis_2">
    <g id="ytick_1">
     <g id="line2d_10">
      <defs>
       <path d="M 0 0 
L -3.5 0 
" id="m57b8cc6188" style="stroke:#000000;stroke-width:0.8;"/>
      </defs>
      <g>
       <use style="stroke:#000000;stroke-width:0.8;" x="144" xlink:href="#m57b8cc6188" y="768.96"/>
      </g>
     </g>
     <g id="text_10">
      <!-- −4000 -->
      <g transform="translate(103.170312 772.759219)scale(0.1 -0.1)">
       <use xlink:href="#DejaVuSans-2212"/>
       <use x="83.789062" xlink:href="#DejaVuSans-34"/>
       <use x="147.412109" xlink:href="#DejaVuSans-30"/>
       <use x="211.035156" xlink:href="#DejaVuSans-30"/>
       <use x="274.658203" xlink:href="#DejaVuSans-30"/>
      </g>
     </g>
    </g>
    <g id="ytick_2">
     <g id="line2d_11">
      <g>
       <use style="stroke:#000000;stroke-width:0.8;" x="144" xlink:href="#m57b8cc6188" y="685.8"/>
      </g>
     </g>
     <g id="text_11">
      <!-- −3000 -->
      <g transform="translate(103.170312 689.599219)scale(0.1 -0.1)">
       <use xlink:href="#DejaVuSans-2212"/>
       <use x="83.789062" xlink:href="#DejaVuSans-33"/>
       <use x="147.412109" xlink:href="#DejaVuSans-30"/>
       <use x="211.035156" xlink:href="#DejaVuSans-30"/>
       <use x="274.658203" xlink:href="#DejaVuSans-30"/>
      </g>
     </g>
    </g>
    <g id="ytick_3">
     <g id="line2d_12">
      <g>
       <use style="stroke:#000000;stroke-width:0.8;" x="144" xlink:href="#m57b8cc6188" y="602.64"/>
      </g>
     </g>
     <g id="text_12">
      <!-- −2000 -->
      <g transform="translate(103.170312 606.439219)scale(0.1 -0.1)">
       <use xlink:href="#DejaVuSans-2212"/>
       <use x="83.789062" xlink:href="#DejaVuSans-32"/>
       <use x="147.412109" xlink:href="#DejaVuSans-30"/>
       <use x="211.035156" xlink:href="#DejaVuSans-30"/>
       <use x="274.658203" xlink:href="#DejaVuSans-30"/>
      </g>
     </g>
    </g>
    <g id="ytick_4">
     <g id="line2d_13">
      <g>
       <use style="stroke:#000000;stroke-width:0.8;" x="144" xlink:href="#m57b8cc6188" y="519.48"/>
      </g>
     </g>
     <g id="text_13">
      <!-- −1000 -->
      <g transform="translate(103.170312 523.279219)scale(0.1 -0.1)">
       <use xlink:href="#DejaVuSans-2212"/>
       <use x="83.789062" xlink:href="#DejaVuSans-31"/>
       <use x="147.412109" xlink:href="#DejaVuSans-30"/>
       <use x="211.035156" xlink:href="#DejaVuSans-30"/>
       <use x="274.658203" xlink:href="#DejaVuSans-30"/>
      </g>
     </g>
    </g>
    <g id="ytick_5">
     <g id="line2d_14">
      <g>
       <use style="stroke:#000000;stroke-width:0.8;" x="144" xlink:href="#m57b8cc6188" y="436.32"/>
      </g>
     </g>
     <g id="text_14">
      <!-- 0 -->
      <g transform="translate(130.6375 440.119219)scale(0.1 -0.1)">
       <use xlink:href="#DejaVuSans-30"/>
      </g>
     </g>
    </g>
    <g id="ytick_6">
     <g id="line2d_15">
      <g>
       <use style="stroke:#000000;stroke-width:0.8;" x="144" xlink:href="#m57b8cc6188" y="353.16"/>
      </g>
     </g>
     <g id="text_15">
      <!-- 1000 -->
      <g transform="translate(111.55 356.959219)scale(0.1 -0.1)">
       <use xlink:href="#DejaVuSans-31"/>
       <use x="63.623047" xlink:href="#DejaVuSans-30"/>
       <use x="127.246094" xlink:href="#DejaVuSans-30"/>
       <use x="190.869141" xlink:href="#DejaVuSans-30"/>
      </g>
     </g>
    </g>
    <g id="ytick_7">
     <g id="line2d_16">
      <g>
       <use style="stroke:#000000;stroke-width:0.8;" x="144" xlink:href="#m57b8cc6188" y="270"/>
      </g>
     </g>
     <g id="text_16">
      <!-- 2000 -->
      <g transform="translate(111.55 273.799219)scale(0.1 -0.1)">
       <use xlink:href="#DejaVuSans-32"/>
       <use x="63.623047" xlink:href="#DejaVuSans-30"/>
       <use x="127.246094" xlink:href="#DejaVuSans-30"/>
       <use x="190.869141" xlink:href="#DejaVuSans-30"/>
      </g>
     </g>
    </g>
    <g id="ytick_8">
     <g id="line2d_17">
      <g>
       <use style="stroke:#000000;stroke-width:0.8;" x="144" xlink:href="#m57b8cc6188" y="186.84"/>
      </g>
     </g>
     <g id="text_17">
      <!-- 3000 -->
      <g transform="translate(111.55 190.639219)scale(0.1 -0.1)">
       <use xlink:href="#DejaVuSans-33"/>
       <use x="63.623047" xlink:href="#DejaVuSans-30"/>
       <use x="127.246094" xlink:href="#DejaVuSans-30"/>
       <use x="190.869141" xlink:href="#DejaVuSans-30"/>
      </g>
     </g>
    </g>
    <g id="ytick_9">
     <g id="line2d_18">
      <g>
       <use style="stroke:#000000;stroke-width:0.8;" x="144" xlink:href="#m57b8cc6188" y="103.68"/>
      </g>
     </g>
     <g id="text_18">
      <!-- 4000 -->
      <g transform="translate(111.55 107.479219)scale(0.1 -0.1)">
       <use xlink:href="#DejaVuSans-34"/>
       <use x="63.623047" xlink:href="#DejaVuSans-30"/>
       <use x="127.246094" xlink:href="#DejaVuSans-30"/>
       <use x="190.869141" xlink:href="#DejaVuSans-30"/>
      </g>
     </g>
    </g>
   </g>
   <g id="line2d_19">
    <path clip-path="url(#pb21eee9ad9)" d="M 590.4 768.96 
L 590.4 103.68 
" style="fill:none;stroke:#1f77b4;stroke-linecap:square;stroke-width:1.5;"/>
   </g>
   <g id="line2d_20">
    <path clip-path="url(#pb21eee9ad9)" d="M 144 436.32 
L 1036.8 436.32 
" style="fill:none;stroke:#1f77b4;stroke-linecap:square;stroke-width:1.5;"/>
   </g>
   <g id="line2d_21">
    <defs>
     <path d="M 0 3 
C 0.795609 3 1.55874 2.683901 2.12132 2.12132 
C 2.683901 1.55874 3 0.795609 3 0 
C 3 -0.795609 2.683901 -1.55874 2.12132 -2.12132 
C 1.55874 -2.683901 0.795609 -3 0 -3 
C -0.795609 -3 -1.55874 -2.683901 -2.12132 -2.12132 
C -2.683901 -1.55874 -3 -0.795609 -3 0 
C -3 0.795609 -2.683901 1.55874 -2.12132 2.12132 
C -1.55874 2.683901 -0.795609 3 0 3 
z
" id="ma1ef9d34fb" style="stroke:#008000;"/>
    </defs>
    <g clip-path="url(#pb21eee9ad9)">
     <use style="fill:#008000;stroke:#008000;" x="1076.693" xlink:href="#ma1ef9d34fb" y="440.47063"/>
    </g>
   </g>
   <g id="line2d_22">
    <g clip-path="url(#pb21eee9ad9)">
     <use style="fill:#008000;stroke:#008000;" x="1259.22726" xlink:href="#ma1ef9d34fb" y="335.488623"/>
    </g>
   </g>
   <g id="line2d_23">
    <g clip-path="url(#pb21eee9ad9)">
     <use style="fill:#008000;stroke:#008000;" x="645.682002" xlink:href="#ma1ef9d34fb" y="394.866798"/>
    </g>
   </g>
   <g id="line2d_24">
    <g clip-path="url(#pb21eee9ad9)">
     <use style="fill:#008000;stroke:#008000;" x="645.682002" xlink:href="#ma1ef9d34fb" y="394.866798"/>
    </g>
   </g>
   <g id="line2d_25">
    <g clip-path="url(#pb21eee9ad9)">
     <use style="fill:#008000;stroke:#008000;" x="527.32954" xlink:href="#ma1ef9d34fb" y="233.759095"/>
    </g>
   </g>
   <g id="line2d_26">
    <g clip-path="url(#pb21eee9ad9)">
     <use style="fill:#008000;stroke:#008000;" x="569.885894" xlink:href="#ma1ef9d34fb" y="397.528933"/>
    </g>
   </g>
   <g id="line2d_27">
    <g clip-path="url(#pb21eee9ad9)">
     <use style="fill:#008000;stroke:#008000;" x="569.885894" xlink:href="#ma1ef9d34fb" y="397.528933"/>
    </g>
   </g>
   <g id="line2d_28">
    <g clip-path="url(#pb21eee9ad9)">
     <use style="fill:#008000;stroke:#008000;" x="438.959116" xlink:href="#ma1ef9d34fb" y="251.036697"/>
    </g>
   </g>
   <g id="line2d_29">
    <g clip-path="url(#pb21eee9ad9)">
     <use style="fill:#008000;stroke:#008000;" x="379.632083" xlink:href="#ma1ef9d34fb" y="287.929193"/>
    </g>
   </g>
   <g id="line2d_30">
    <g clip-path="url(#pb21eee9ad9)">
     <use style="fill:#008000;stroke:#008000;" x="882.197823" xlink:href="#ma1ef9d34fb" y="563.443242"/>
    </g>
   </g>
   <g id="line2d_31">
    <defs>
     <path d="M 0 1.333333 
C 0.353604 1.333333 0.692773 1.192845 0.942809 0.942809 
C 1.192845 0.692773 1.333333 0.353604 1.333333 0 
C 1.333333 -0.353604 1.192845 -0.692773 0.942809 -0.942809 
C 0.692773 -1.192845 0.353604 -1.333333 0 -1.333333 
C -0.353604 -1.333333 -0.692773 -1.192845 -0.942809 -0.942809 
C -1.192845 -0.692773 -1.333333 -0.353604 -1.333333 0 
C -1.333333 0.353604 -1.192845 0.692773 -0.942809 0.942809 
C -0.692773 1.192845 -0.353604 1.333333 0 1.333333 
z
" id="me7e7d573cf" style="stroke:#ff0000;"/>
    </defs>
    <g clip-path="url(#pb21eee9ad9)">
     <use style="fill:#ff0000;stroke:#ff0000;" x="1076.693" xlink:href="#me7e7d573cf" y="440.47063"/>
     <use style="fill:#ff0000;stroke:#ff0000;" x="1259.22726" xlink:href="#me7e7d573cf" y="335.488623"/>
     <use style="fill:#ff0000;stroke:#ff0000;" x="1360.412114" xlink:href="#me7e7d573cf" y="288.263404"/>
     <use style="fill:#ff0000;stroke:#ff0000;" x="1317.473475" xlink:href="#me7e7d573cf" y="265.33276"/>
     <use style="fill:#ff0000;stroke:#ff0000;" x="649.170114" xlink:href="#me7e7d573cf" y="398.730781"/>
     <use style="fill:#ff0000;stroke:#ff0000;" x="641.737487" xlink:href="#me7e7d573cf" y="391.18166"/>
     <use style="fill:#ff0000;stroke:#ff0000;" x="777.395127" xlink:href="#me7e7d573cf" y="192.831242"/>
     <use style="fill:#ff0000;stroke:#ff0000;" x="752.156893" xlink:href="#me7e7d573cf" y="196.858132"/>
     <use style="fill:#ff0000;stroke:#ff0000;" x="729.568079" xlink:href="#me7e7d573cf" y="199.93863"/>
     <use style="fill:#ff0000;stroke:#ff0000;" x="707.436196" xlink:href="#me7e7d573cf" y="204.222443"/>
     <use style="fill:#ff0000;stroke:#ff0000;" x="527.32954" xlink:href="#me7e7d573cf" y="233.759095"/>
     <use style="fill:#ff0000;stroke:#ff0000;" x="572.372923" xlink:href="#me7e7d573cf" y="396.245407"/>
     <use style="fill:#ff0000;stroke:#ff0000;" x="567.528351" xlink:href="#me7e7d573cf" y="398.895359"/>
     <use style="fill:#ff0000;stroke:#ff0000;" x="438.959116" xlink:href="#me7e7d573cf" y="251.036697"/>
     <use style="fill:#ff0000;stroke:#ff0000;" x="379.632083" xlink:href="#me7e7d573cf" y="287.929193"/>
     <use style="fill:#ff0000;stroke:#ff0000;" x="422.791973" xlink:href="#me7e7d573cf" y="341.830514"/>
     <use style="fill:#ff0000;stroke:#ff0000;" x="406.345671" xlink:href="#me7e7d573cf" y="363.683572"/>
     <use style="fill:#ff0000;stroke:#ff0000;" x="454.371528" xlink:href="#me7e7d573cf" y="390.12615"/>
     <use style="fill:#ff0000;stroke:#ff0000;" x="449.256656" xlink:href="#me7e7d573cf" y="413.364201"/>
     <use style="fill:#ff0000;stroke:#ff0000;" x="427.375706" xlink:href="#me7e7d573cf" y="416.297701"/>
     <use style="fill:#ff0000;stroke:#ff0000;" x="410.901484" xlink:href="#me7e7d573cf" y="442.269525"/>
     <use style="fill:#ff0000;stroke:#ff0000;" x="395.443691" xlink:href="#me7e7d573cf" y="450.308285"/>
     <use style="fill:#ff0000;stroke:#ff0000;" x="401.155684" xlink:href="#me7e7d573cf" y="465.330872"/>
     <use style="fill:#ff0000;stroke:#ff0000;" x="437.636987" xlink:href="#me7e7d573cf" y="466.455784"/>
     <use style="fill:#ff0000;stroke:#ff0000;" x="403.880384" xlink:href="#me7e7d573cf" y="480.643065"/>
     <use style="fill:#ff0000;stroke:#ff0000;" x="409.772509" xlink:href="#me7e7d573cf" y="504.392591"/>
     <use style="fill:#ff0000;stroke:#ff0000;" x="468.130925" xlink:href="#me7e7d573cf" y="489.487189"/>
     <use style="fill:#ff0000;stroke:#ff0000;" x="432.490561" xlink:href="#me7e7d573cf" y="512.597701"/>
     <use style="fill:#ff0000;stroke:#ff0000;" x="443.8528" xlink:href="#me7e7d573cf" y="515.887114"/>
     <use style="fill:#ff0000;stroke:#ff0000;" x="463.70031" xlink:href="#me7e7d573cf" y="513.286015"/>
     <use style="fill:#ff0000;stroke:#ff0000;" x="456.967155" xlink:href="#me7e7d573cf" y="526.387807"/>
     <use style="fill:#ff0000;stroke:#ff0000;" x="469.73589" xlink:href="#me7e7d573cf" y="536.949843"/>
     <use style="fill:#ff0000;stroke:#ff0000;" x="454.617855" xlink:href="#me7e7d573cf" y="561.685266"/>
     <use style="fill:#ff0000;stroke:#ff0000;" x="528.372848" xlink:href="#me7e7d573cf" y="501.947688"/>
     <use style="fill:#ff0000;stroke:#ff0000;" x="567.338603" xlink:href="#me7e7d573cf" y="506.299067"/>
     <use style="fill:#ff0000;stroke:#ff0000;" x="563.480308" xlink:href="#me7e7d573cf" y="637.735012"/>
     <use style="fill:#ff0000;stroke:#ff0000;" x="579.684423" xlink:href="#me7e7d573cf" y="612.583965"/>
     <use style="fill:#ff0000;stroke:#ff0000;" x="592.136829" xlink:href="#me7e7d573cf" y="642.656691"/>
     <use style="fill:#ff0000;stroke:#ff0000;" x="634.542355" xlink:href="#me7e7d573cf" y="630.602793"/>
     <use style="fill:#ff0000;stroke:#ff0000;" x="644.130535" xlink:href="#me7e7d573cf" y="614.389762"/>
     <use style="fill:#ff0000;stroke:#ff0000;" x="662.987334" xlink:href="#me7e7d573cf" y="628.909991"/>
     <use style="fill:#ff0000;stroke:#ff0000;" x="669.24001" xlink:href="#me7e7d573cf" y="609.077951"/>
     <use style="fill:#ff0000;stroke:#ff0000;" x="691.10479" xlink:href="#me7e7d573cf" y="598.283271"/>
     <use style="fill:#ff0000;stroke:#ff0000;" x="762.678208" xlink:href="#me7e7d573cf" y="589.735774"/>
     <use style="fill:#ff0000;stroke:#ff0000;" x="793.938742" xlink:href="#me7e7d573cf" y="582.945186"/>
     <use style="fill:#ff0000;stroke:#ff0000;" x="814.427948" xlink:href="#me7e7d573cf" y="581.676031"/>
     <use style="fill:#ff0000;stroke:#ff0000;" x="847.841065" xlink:href="#me7e7d573cf" y="569.866234"/>
     <use style="fill:#ff0000;stroke:#ff0000;" x="877.534865" xlink:href="#me7e7d573cf" y="569.20822"/>
     <use style="fill:#ff0000;stroke:#ff0000;" x="886.652379" xlink:href="#me7e7d573cf" y="557.587472"/>
     <use style="fill:#ff0000;stroke:#ff0000;" x="1063.38433" xlink:href="#me7e7d573cf" y="542.395294"/>
     <use style="fill:#ff0000;stroke:#ff0000;" x="1084.566934" xlink:href="#me7e7d573cf" y="526.107068"/>
     <use style="fill:#ff0000;stroke:#ff0000;" x="1101.464295" xlink:href="#me7e7d573cf" y="508.406775"/>
    </g>
   </g>
   <g id="line2d_32">
    <defs>
     <path d="M -0.5 0.5 
L 0.5 0.5 
L 0.5 -0.5 
L -0.5 -0.5 
z
" id="mb49bbbb641" style="stroke:#1f77b4;stroke-linejoin:miter;"/>
    </defs>
    <g clip-path="url(#pb21eee9ad9)">
     <use style="fill:#1f77b4;stroke:#1f77b4;stroke-linejoin:miter;" x="1076.693" xlink:href="#mb49bbbb641" y="440.47063"/>
     <use style="fill:#1f77b4;stroke:#1f77b4;stroke-linejoin:miter;" x="1259.22726" xlink:href="#mb49bbbb641" y="335.488623"/>
     <use style="fill:#1f77b4;stroke:#1f77b4;stroke-linejoin:miter;" x="1360.412114" xlink:href="#mb49bbbb641" y="288.263404"/>
     <use style="fill:#1f77b4;stroke:#1f77b4;stroke-linejoin:miter;" x="1317.473475" xlink:href="#mb49bbbb641" y="265.33276"/>
     <use style="fill:#1f77b4;stroke:#1f77b4;stroke-linejoin:miter;" x="649.170114" xlink:href="#mb49bbbb641" y="398.730781"/>
     <use style="fill:#1f77b4;stroke:#1f77b4;stroke-linejoin:miter;" x="646.295923" xlink:href="#mb49bbbb641" y="396.490897"/>
     <use style="fill:#1f77b4;stroke:#1f77b4;stroke-linejoin:miter;" x="644.46176" xlink:href="#mb49bbbb641" y="393.49607"/>
     <use style="fill:#1f77b4;stroke:#1f77b4;stroke-linejoin:miter;" x="641.737487" xlink:href="#mb49bbbb641" y="391.18166"/>
     <use style="fill:#1f77b4;stroke:#1f77b4;stroke-linejoin:miter;" x="777.395127" xlink:href="#mb49bbbb641" y="192.831242"/>
     <use style="fill:#1f77b4;stroke:#1f77b4;stroke-linejoin:miter;" x="752.156893" xlink:href="#mb49bbbb641" y="196.858132"/>
     <use style="fill:#1f77b4;stroke:#1f77b4;stroke-linejoin:miter;" x="729.568079" xlink:href="#mb49bbbb641" y="199.93863"/>
     <use style="fill:#1f77b4;stroke:#1f77b4;stroke-linejoin:miter;" x="707.436196" xlink:href="#mb49bbbb641" y="204.222443"/>
     <use style="fill:#1f77b4;stroke:#1f77b4;stroke-linejoin:miter;" x="687.543931" xlink:href="#mb49bbbb641" y="207.388167"/>
     <use style="fill:#1f77b4;stroke:#1f77b4;stroke-linejoin:miter;" x="668.626022" xlink:href="#mb49bbbb641" y="210.671576"/>
     <use style="fill:#1f77b4;stroke:#1f77b4;stroke-linejoin:miter;" x="651.267937" xlink:href="#mb49bbbb641" y="212.448681"/>
     <use style="fill:#1f77b4;stroke:#1f77b4;stroke-linejoin:miter;" x="634.27079" xlink:href="#mb49bbbb641" y="215.105216"/>
     <use style="fill:#1f77b4;stroke:#1f77b4;stroke-linejoin:miter;" x="617.266669" xlink:href="#mb49bbbb641" y="218.443897"/>
     <use style="fill:#1f77b4;stroke:#1f77b4;stroke-linejoin:miter;" x="601.34024" xlink:href="#mb49bbbb641" y="221.360399"/>
     <use style="fill:#1f77b4;stroke:#1f77b4;stroke-linejoin:miter;" x="586.208954" xlink:href="#mb49bbbb641" y="224.264205"/>
     <use style="fill:#1f77b4;stroke:#1f77b4;stroke-linejoin:miter;" x="570.959927" xlink:href="#mb49bbbb641" y="225.861822"/>
     <use style="fill:#1f77b4;stroke:#1f77b4;stroke-linejoin:miter;" x="555.973434" xlink:href="#mb49bbbb641" y="227.390276"/>
     <use style="fill:#1f77b4;stroke:#1f77b4;stroke-linejoin:miter;" x="541.892873" xlink:href="#mb49bbbb641" y="232.304093"/>
     <use style="fill:#1f77b4;stroke:#1f77b4;stroke-linejoin:miter;" x="527.32954" xlink:href="#mb49bbbb641" y="233.759095"/>
     <use style="fill:#1f77b4;stroke:#1f77b4;stroke-linejoin:miter;" x="572.372923" xlink:href="#mb49bbbb641" y="396.245407"/>
     <use style="fill:#1f77b4;stroke:#1f77b4;stroke-linejoin:miter;" x="570.278598" xlink:href="#mb49bbbb641" y="398.072894"/>
     <use style="fill:#1f77b4;stroke:#1f77b4;stroke-linejoin:miter;" x="567.528351" xlink:href="#mb49bbbb641" y="398.895359"/>
     <use style="fill:#1f77b4;stroke:#1f77b4;stroke-linejoin:miter;" x="438.959116" xlink:href="#mb49bbbb641" y="251.036697"/>
     <use style="fill:#1f77b4;stroke:#1f77b4;stroke-linejoin:miter;" x="421.812225" xlink:href="#mb49bbbb641" y="252.784777"/>
     <use style="fill:#1f77b4;stroke:#1f77b4;stroke-linejoin:miter;" x="416.664787" xlink:href="#mb49bbbb641" y="267.317353"/>
     <use style="fill:#1f77b4;stroke:#1f77b4;stroke-linejoin:miter;" x="400.760261" xlink:href="#mb49bbbb641" y="270.86468"/>
     <use style="fill:#1f77b4;stroke:#1f77b4;stroke-linejoin:miter;" x="387.399672" xlink:href="#mb49bbbb641" y="277.264644"/>
     <use style="fill:#1f77b4;stroke:#1f77b4;stroke-linejoin:miter;" x="379.632083" xlink:href="#mb49bbbb641" y="287.929193"/>
     <use style="fill:#1f77b4;stroke:#1f77b4;stroke-linejoin:miter;" x="422.791973" xlink:href="#mb49bbbb641" y="341.830514"/>
     <use style="fill:#1f77b4;stroke:#1f77b4;stroke-linejoin:miter;" x="424.125631" xlink:href="#mb49bbbb641" y="352.845857"/>
     <use style="fill:#1f77b4;stroke:#1f77b4;stroke-linejoin:miter;" x="414.251519" xlink:href="#mb49bbbb641" y="357.597702"/>
     <use style="fill:#1f77b4;stroke:#1f77b4;stroke-linejoin:miter;" x="406.345671" xlink:href="#mb49bbbb641" y="363.683572"/>
     <use style="fill:#1f77b4;stroke:#1f77b4;stroke-linejoin:miter;" x="454.371528" xlink:href="#mb49bbbb641" y="390.12615"/>
     <use style="fill:#1f77b4;stroke:#1f77b4;stroke-linejoin:miter;" x="454.941581" xlink:href="#mb49bbbb641" y="396.686455"/>
     <use style="fill:#1f77b4;stroke:#1f77b4;stroke-linejoin:miter;" x="456.765912" xlink:href="#mb49bbbb641" y="403.182428"/>
     <use style="fill:#1f77b4;stroke:#1f77b4;stroke-linejoin:miter;" x="458.66543" xlink:href="#mb49bbbb641" y="409.557558"/>
     <use style="fill:#1f77b4;stroke:#1f77b4;stroke-linejoin:miter;" x="449.256656" xlink:href="#mb49bbbb641" y="413.364201"/>
     <use style="fill:#1f77b4;stroke:#1f77b4;stroke-linejoin:miter;" x="427.375706" xlink:href="#mb49bbbb641" y="416.297701"/>
     <use style="fill:#1f77b4;stroke:#1f77b4;stroke-linejoin:miter;" x="418.425112" xlink:href="#mb49bbbb641" y="429.00811"/>
     <use style="fill:#1f77b4;stroke:#1f77b4;stroke-linejoin:miter;" x="420.492949" xlink:href="#mb49bbbb641" y="435.456811"/>
     <use style="fill:#1f77b4;stroke:#1f77b4;stroke-linejoin:miter;" x="410.901484" xlink:href="#mb49bbbb641" y="442.269525"/>
     <use style="fill:#1f77b4;stroke:#1f77b4;stroke-linejoin:miter;" x="395.443691" xlink:href="#mb49bbbb641" y="450.308285"/>
     <use style="fill:#1f77b4;stroke:#1f77b4;stroke-linejoin:miter;" x="398.147884" xlink:href="#mb49bbbb641" y="457.969878"/>
     <use style="fill:#1f77b4;stroke:#1f77b4;stroke-linejoin:miter;" x="401.155684" xlink:href="#mb49bbbb641" y="465.330872"/>
     <use style="fill:#1f77b4;stroke:#1f77b4;stroke-linejoin:miter;" x="437.636987" xlink:href="#mb49bbbb641" y="466.455784"/>
     <use style="fill:#1f77b4;stroke:#1f77b4;stroke-linejoin:miter;" x="403.880384" xlink:href="#mb49bbbb641" y="480.643065"/>
     <use style="fill:#1f77b4;stroke:#1f77b4;stroke-linejoin:miter;" x="406.522861" xlink:href="#mb49bbbb641" y="488.188799"/>
     <use style="fill:#1f77b4;stroke:#1f77b4;stroke-linejoin:miter;" x="408.410968" xlink:href="#mb49bbbb641" y="496.122823"/>
     <use style="fill:#1f77b4;stroke:#1f77b4;stroke-linejoin:miter;" x="409.772509" xlink:href="#mb49bbbb641" y="504.392591"/>
     <use style="fill:#1f77b4;stroke:#1f77b4;stroke-linejoin:miter;" x="468.130925" xlink:href="#mb49bbbb641" y="489.487189"/>
     <use style="fill:#1f77b4;stroke:#1f77b4;stroke-linejoin:miter;" x="432.490561" xlink:href="#mb49bbbb641" y="512.597701"/>
     <use style="fill:#1f77b4;stroke:#1f77b4;stroke-linejoin:miter;" x="443.8528" xlink:href="#mb49bbbb641" y="515.887114"/>
     <use style="fill:#1f77b4;stroke:#1f77b4;stroke-linejoin:miter;" x="463.70031" xlink:href="#mb49bbbb641" y="513.286015"/>
     <use style="fill:#1f77b4;stroke:#1f77b4;stroke-linejoin:miter;" x="456.967155" xlink:href="#mb49bbbb641" y="526.387807"/>
     <use style="fill:#1f77b4;stroke:#1f77b4;stroke-linejoin:miter;" x="457.322322" xlink:href="#mb49bbbb641" y="536.026672"/>
     <use style="fill:#1f77b4;stroke:#1f77b4;stroke-linejoin:miter;" x="469.73589" xlink:href="#mb49bbbb641" y="536.949843"/>
     <use style="fill:#1f77b4;stroke:#1f77b4;stroke-linejoin:miter;" x="454.617855" xlink:href="#mb49bbbb641" y="561.685266"/>
     <use style="fill:#1f77b4;stroke:#1f77b4;stroke-linejoin:miter;" x="528.372848" xlink:href="#mb49bbbb641" y="501.947688"/>
     <use style="fill:#1f77b4;stroke:#1f77b4;stroke-linejoin:miter;" x="540.499014" xlink:href="#mb49bbbb641" y="496.117192"/>
     <use style="fill:#1f77b4;stroke:#1f77b4;stroke-linejoin:miter;" x="547.658617" xlink:href="#mb49bbbb641" y="494.37347"/>
     <use style="fill:#1f77b4;stroke:#1f77b4;stroke-linejoin:miter;" x="552.310387" xlink:href="#mb49bbbb641" y="495.245964"/>
     <use style="fill:#1f77b4;stroke:#1f77b4;stroke-linejoin:miter;" x="560.289298" xlink:href="#mb49bbbb641" y="490.866785"/>
     <use style="fill:#1f77b4;stroke:#1f77b4;stroke-linejoin:miter;" x="564.772035" xlink:href="#mb49bbbb641" y="490.671753"/>
     <use style="fill:#1f77b4;stroke:#1f77b4;stroke-linejoin:miter;" x="567.678675" xlink:href="#mb49bbbb641" y="493.881552"/>
     <use style="fill:#1f77b4;stroke:#1f77b4;stroke-linejoin:miter;" x="567.338603" xlink:href="#mb49bbbb641" y="506.299067"/>
     <use style="fill:#1f77b4;stroke:#1f77b4;stroke-linejoin:miter;" x="563.480308" xlink:href="#mb49bbbb641" y="637.735012"/>
     <use style="fill:#1f77b4;stroke:#1f77b4;stroke-linejoin:miter;" x="579.684423" xlink:href="#mb49bbbb641" y="612.583965"/>
     <use style="fill:#1f77b4;stroke:#1f77b4;stroke-linejoin:miter;" x="592.136829" xlink:href="#mb49bbbb641" y="642.656691"/>
     <use style="fill:#1f77b4;stroke:#1f77b4;stroke-linejoin:miter;" x="606.378434" xlink:href="#mb49bbbb641" y="636.360783"/>
     <use style="fill:#1f77b4;stroke:#1f77b4;stroke-linejoin:miter;" x="621.763587" xlink:href="#mb49bbbb641" y="640.454078"/>
     <use style="fill:#1f77b4;stroke:#1f77b4;stroke-linejoin:miter;" x="634.542355" xlink:href="#mb49bbbb641" y="630.602793"/>
     <use style="fill:#1f77b4;stroke:#1f77b4;stroke-linejoin:miter;" x="644.130535" xlink:href="#mb49bbbb641" y="614.389762"/>
     <use style="fill:#1f77b4;stroke:#1f77b4;stroke-linejoin:miter;" x="662.987334" xlink:href="#mb49bbbb641" y="628.909991"/>
     <use style="fill:#1f77b4;stroke:#1f77b4;stroke-linejoin:miter;" x="669.24001" xlink:href="#mb49bbbb641" y="609.077951"/>
     <use style="fill:#1f77b4;stroke:#1f77b4;stroke-linejoin:miter;" x="676.914754" xlink:href="#mb49bbbb641" y="597.143859"/>
     <use style="fill:#1f77b4;stroke:#1f77b4;stroke-linejoin:miter;" x="691.10479" xlink:href="#mb49bbbb641" y="598.283271"/>
     <use style="fill:#1f77b4;stroke:#1f77b4;stroke-linejoin:miter;" x="762.678208" xlink:href="#mb49bbbb641" y="589.735774"/>
     <use style="fill:#1f77b4;stroke:#1f77b4;stroke-linejoin:miter;" x="777.03152" xlink:href="#mb49bbbb641" y="585.699775"/>
     <use style="fill:#1f77b4;stroke:#1f77b4;stroke-linejoin:miter;" x="793.938742" xlink:href="#mb49bbbb641" y="582.945186"/>
     <use style="fill:#1f77b4;stroke:#1f77b4;stroke-linejoin:miter;" x="814.427948" xlink:href="#mb49bbbb641" y="581.676031"/>
     <use style="fill:#1f77b4;stroke:#1f77b4;stroke-linejoin:miter;" x="831.888732" xlink:href="#mb49bbbb641" y="576.910829"/>
     <use style="fill:#1f77b4;stroke:#1f77b4;stroke-linejoin:miter;" x="847.841065" xlink:href="#mb49bbbb641" y="569.866234"/>
     <use style="fill:#1f77b4;stroke:#1f77b4;stroke-linejoin:miter;" x="877.534865" xlink:href="#mb49bbbb641" y="569.20822"/>
     <use style="fill:#1f77b4;stroke:#1f77b4;stroke-linejoin:miter;" x="886.652379" xlink:href="#mb49bbbb641" y="557.587472"/>
     <use style="fill:#1f77b4;stroke:#1f77b4;stroke-linejoin:miter;" x="1063.38433" xlink:href="#mb49bbbb641" y="542.395294"/>
     <use style="fill:#1f77b4;stroke:#1f77b4;stroke-linejoin:miter;" x="1084.566934" xlink:href="#mb49bbbb641" y="526.107068"/>
     <use style="fill:#1f77b4;stroke:#1f77b4;stroke-linejoin:miter;" x="1101.464295" xlink:href="#mb49bbbb641" y="508.406775"/>
    </g>
   </g>
   <g id="patch_3">
    <path d="M 144 768.96 
L 144 103.68 
" style="fill:none;stroke:#000000;stroke-linecap:square;stroke-linejoin:miter;stroke-width:0.8;"/>
   </g>
   <g id="patch_4">
    <path d="M 1036.8 768.96 
L 1036.8 103.68 
" style="fill:none;stroke:#000000;stroke-linecap:square;stroke-linejoin:miter;stroke-width:0.8;"/>
   </g>
   <g id="patch_5">
    <path d="M 144 768.96 
L 1036.8 768.96 
" style="fill:none;stroke:#000000;stroke-linecap:square;stroke-linejoin:miter;stroke-width:0.8;"/>
   </g>
   <g id="patch_6">
    <path d="M 144 103.68 
L 1036.8 103.68 
" style="fill:none;stroke:#000000;stroke-linecap:square;stroke-linejoin:miter;stroke-width:0.8;"/>
   </g>
  </g>
 </g>
 <defs>
  <clipPath id="pb21eee9ad9">
   <rect height="665.28" width="892.8" x="144" y="103.68"/>
  </clipPath>
 </defs>
</svg>
