<?xml version="1.0" encoding="utf-8" standalone="no"?>
<!DOCTYPE svg PUBLIC "-//W3C//DTD SVG 1.1//EN"
  "http://www.w3.org/Graphics/SVG/1.1/DTD/svg11.dtd">
<!-- Created with matplotlib (http://matplotlib.org/) -->
<svg height="864pt" version="1.1" viewBox="0 0 1152 864" width="1152pt" xmlns="http://www.w3.org/2000/svg" xmlns:xlink="http://www.w3.org/1999/xlink">
 <defs>
  <style type="text/css">
*{stroke-linecap:butt;stroke-linejoin:round;}
  </style>
 </defs>
 <g id="figure_1">
  <g id="patch_1">
   <path d="M 0 864 
L 1152 864 
L 1152 0 
L 0 0 
z
" style="fill:#ffffff;"/>
  </g>
  <g id="axes_1">
   <g id="patch_2">
    <path d="M 144 768.96 
L 1036.8 768.96 
L 1036.8 103.68 
L 144 103.68 
z
" style="fill:#ffffff;"/>
   </g>
   <g id="matplotlib.axis_1">
    <g id="xtick_1">
     <g id="line2d_1">
      <defs>
       <path d="M 0 0 
L 0 3.5 
" id="m8b13619f32" style="stroke:#000000;stroke-width:0.8;"/>
      </defs>
      <g>
       <use style="stroke:#000000;stroke-width:0.8;" x="144" xlink:href="#m8b13619f32" y="768.96"/>
      </g>
     </g>
     <g id="text_1">
      <!-- −4000 -->
      <defs>
       <path d="M 10.59375 35.5 
L 73.1875 35.5 
L 73.1875 27.203125 
L 10.59375 27.203125 
z
" id="DejaVuSans-2212"/>
       <path d="M 37.796875 64.3125 
L 12.890625 25.390625 
L 37.796875 25.390625 
z
M 35.203125 72.90625 
L 47.609375 72.90625 
L 47.609375 25.390625 
L 58.015625 25.390625 
L 58.015625 17.1875 
L 47.609375 17.1875 
L 47.609375 0 
L 37.796875 0 
L 37.796875 17.1875 
L 4.890625 17.1875 
L 4.890625 26.703125 
z
" id="DejaVuSans-34"/>
       <path d="M 31.78125 66.40625 
Q 24.171875 66.40625 20.328125 58.90625 
Q 16.5 51.421875 16.5 36.375 
Q 16.5 21.390625 20.328125 13.890625 
Q 24.171875 6.390625 31.78125 6.390625 
Q 39.453125 6.390625 43.28125 13.890625 
Q 47.125 21.390625 47.125 36.375 
Q 47.125 51.421875 43.28125 58.90625 
Q 39.453125 66.40625 31.78125 66.40625 
z
M 31.78125 74.21875 
Q 44.046875 74.21875 50.515625 64.515625 
Q 56.984375 54.828125 56.984375 36.375 
Q 56.984375 17.96875 50.515625 8.265625 
Q 44.046875 -1.421875 31.78125 -1.421875 
Q 19.53125 -1.421875 13.0625 8.265625 
Q 6.59375 17.96875 6.59375 36.375 
Q 6.59375 54.828125 13.0625 64.515625 
Q 19.53125 74.21875 31.78125 74.21875 
z
" id="DejaVuSans-30"/>
      </defs>
      <g transform="translate(127.085156 783.558437)scale(0.1 -0.1)">
       <use xlink:href="#DejaVuSans-2212"/>
       <use x="83.789062" xlink:href="#DejaVuSans-34"/>
       <use x="147.412109" xlink:href="#DejaVuSans-30"/>
       <use x="211.035156" xlink:href="#DejaVuSans-30"/>
       <use x="274.658203" xlink:href="#DejaVuSans-30"/>
      </g>
     </g>
    </g>
    <g id="xtick_2">
     <g id="line2d_2">
      <g>
       <use style="stroke:#000000;stroke-width:0.8;" x="255.6" xlink:href="#m8b13619f32" y="768.96"/>
      </g>
     </g>
     <g id="text_2">
      <!-- −3000 -->
      <defs>
       <path d="M 40.578125 39.3125 
Q 47.65625 37.796875 51.625 33 
Q 55.609375 28.21875 55.609375 21.1875 
Q 55.609375 10.40625 48.1875 4.484375 
Q 40.765625 -1.421875 27.09375 -1.421875 
Q 22.515625 -1.421875 17.65625 -0.515625 
Q 12.796875 0.390625 7.625 2.203125 
L 7.625 11.71875 
Q 11.71875 9.328125 16.59375 8.109375 
Q 21.484375 6.890625 26.8125 6.890625 
Q 36.078125 6.890625 40.9375 10.546875 
Q 45.796875 14.203125 45.796875 21.1875 
Q 45.796875 27.640625 41.28125 31.265625 
Q 36.765625 34.90625 28.71875 34.90625 
L 20.21875 34.90625 
L 20.21875 43.015625 
L 29.109375 43.015625 
Q 36.375 43.015625 40.234375 45.921875 
Q 44.09375 48.828125 44.09375 54.296875 
Q 44.09375 59.90625 40.109375 62.90625 
Q 36.140625 65.921875 28.71875 65.921875 
Q 24.65625 65.921875 20.015625 65.03125 
Q 15.375 64.15625 9.8125 62.3125 
L 9.8125 71.09375 
Q 15.4375 72.65625 20.34375 73.4375 
Q 25.25 74.21875 29.59375 74.21875 
Q 40.828125 74.21875 47.359375 69.109375 
Q 53.90625 64.015625 53.90625 55.328125 
Q 53.90625 49.265625 50.4375 45.09375 
Q 46.96875 40.921875 40.578125 39.3125 
z
" id="DejaVuSans-33"/>
      </defs>
      <g transform="translate(238.685156 783.558437)scale(0.1 -0.1)">
       <use xlink:href="#DejaVuSans-2212"/>
       <use x="83.789062" xlink:href="#DejaVuSans-33"/>
       <use x="147.412109" xlink:href="#DejaVuSans-30"/>
       <use x="211.035156" xlink:href="#DejaVuSans-30"/>
       <use x="274.658203" xlink:href="#DejaVuSans-30"/>
      </g>
     </g>
    </g>
    <g id="xtick_3">
     <g id="line2d_3">
      <g>
       <use style="stroke:#000000;stroke-width:0.8;" x="367.2" xlink:href="#m8b13619f32" y="768.96"/>
      </g>
     </g>
     <g id="text_3">
      <!-- −2000 -->
      <defs>
       <path d="M 19.1875 8.296875 
L 53.609375 8.296875 
L 53.609375 0 
L 7.328125 0 
L 7.328125 8.296875 
Q 12.9375 14.109375 22.625 23.890625 
Q 32.328125 33.6875 34.8125 36.53125 
Q 39.546875 41.84375 41.421875 45.53125 
Q 43.3125 49.21875 43.3125 52.78125 
Q 43.3125 58.59375 39.234375 62.25 
Q 35.15625 65.921875 28.609375 65.921875 
Q 23.96875 65.921875 18.8125 64.3125 
Q 13.671875 62.703125 7.8125 59.421875 
L 7.8125 69.390625 
Q 13.765625 71.78125 18.9375 73 
Q 24.125 74.21875 28.421875 74.21875 
Q 39.75 74.21875 46.484375 68.546875 
Q 53.21875 62.890625 53.21875 53.421875 
Q 53.21875 48.921875 51.53125 44.890625 
Q 49.859375 40.875 45.40625 35.40625 
Q 44.1875 33.984375 37.640625 27.21875 
Q 31.109375 20.453125 19.1875 8.296875 
z
" id="DejaVuSans-32"/>
      </defs>
      <g transform="translate(350.285156 783.558437)scale(0.1 -0.1)">
       <use xlink:href="#DejaVuSans-2212"/>
       <use x="83.789062" xlink:href="#DejaVuSans-32"/>
       <use x="147.412109" xlink:href="#DejaVuSans-30"/>
       <use x="211.035156" xlink:href="#DejaVuSans-30"/>
       <use x="274.658203" xlink:href="#DejaVuSans-30"/>
      </g>
     </g>
    </g>
    <g id="xtick_4">
     <g id="line2d_4">
      <g>
       <use style="stroke:#000000;stroke-width:0.8;" x="478.8" xlink:href="#m8b13619f32" y="768.96"/>
      </g>
     </g>
     <g id="text_4">
      <!-- −1000 -->
      <defs>
       <path d="M 12.40625 8.296875 
L 28.515625 8.296875 
L 28.515625 63.921875 
L 10.984375 60.40625 
L 10.984375 69.390625 
L 28.421875 72.90625 
L 38.28125 72.90625 
L 38.28125 8.296875 
L 54.390625 8.296875 
L 54.390625 0 
L 12.40625 0 
z
" id="DejaVuSans-31"/>
      </defs>
      <g transform="translate(461.885156 783.558437)scale(0.1 -0.1)">
       <use xlink:href="#DejaVuSans-2212"/>
       <use x="83.789062" xlink:href="#DejaVuSans-31"/>
       <use x="147.412109" xlink:href="#DejaVuSans-30"/>
       <use x="211.035156" xlink:href="#DejaVuSans-30"/>
       <use x="274.658203" xlink:href="#DejaVuSans-30"/>
      </g>
     </g>
    </g>
    <g id="xtick_5">
     <g id="line2d_5">
      <g>
       <use style="stroke:#000000;stroke-width:0.8;" x="590.4" xlink:href="#m8b13619f32" y="768.96"/>
      </g>
     </g>
     <g id="text_5">
      <!-- 0 -->
      <g transform="translate(587.21875 783.558437)scale(0.1 -0.1)">
       <use xlink:href="#DejaVuSans-30"/>
      </g>
     </g>
    </g>
    <g id="xtick_6">
     <g id="line2d_6">
      <g>
       <use style="stroke:#000000;stroke-width:0.8;" x="702" xlink:href="#m8b13619f32" y="768.96"/>
      </g>
     </g>
     <g id="text_6">
      <!-- 1000 -->
      <g transform="translate(689.275 783.558437)scale(0.1 -0.1)">
       <use xlink:href="#DejaVuSans-31"/>
       <use x="63.623047" xlink:href="#DejaVuSans-30"/>
       <use x="127.246094" xlink:href="#DejaVuSans-30"/>
       <use x="190.869141" xlink:href="#DejaVuSans-30"/>
      </g>
     </g>
    </g>
    <g id="xtick_7">
     <g id="line2d_7">
      <g>
       <use style="stroke:#000000;stroke-width:0.8;" x="813.6" xlink:href="#m8b13619f32" y="768.96"/>
      </g>
     </g>
     <g id="text_7">
      <!-- 2000 -->
      <g transform="translate(800.875 783.558437)scale(0.1 -0.1)">
       <use xlink:href="#DejaVuSans-32"/>
       <use x="63.623047" xlink:href="#DejaVuSans-30"/>
       <use x="127.246094" xlink:href="#DejaVuSans-30"/>
       <use x="190.869141" xlink:href="#DejaVuSans-30"/>
      </g>
     </g>
    </g>
    <g id="xtick_8">
     <g id="line2d_8">
      <g>
       <use style="stroke:#000000;stroke-width:0.8;" x="925.2" xlink:href="#m8b13619f32" y="768.96"/>
      </g>
     </g>
     <g id="text_8">
      <!-- 3000 -->
      <g transform="translate(912.475 783.558437)scale(0.1 -0.1)">
       <use xlink:href="#DejaVuSans-33"/>
       <use x="63.623047" xlink:href="#DejaVuSans-30"/>
       <use x="127.246094" xlink:href="#DejaVuSans-30"/>
       <use x="190.869141" xlink:href="#DejaVuSans-30"/>
      </g>
     </g>
    </g>
    <g id="xtick_9">
     <g id="line2d_9">
      <g>
       <use style="stroke:#000000;stroke-width:0.8;" x="1036.8" xlink:href="#m8b13619f32" y="768.96"/>
      </g>
     </g>
     <g id="text_9">
      <!-- 4000 -->
      <g transform="translate(1024.075 783.558437)scale(0.1 -0.1)">
       <use xlink:href="#DejaVuSans-34"/>
       <use x="63.623047" xlink:href="#DejaVuSans-30"/>
       <use x="127.246094" xlink:href="#DejaVuSans-30"/>
       <use x="190.869141" xlink:href="#DejaVuSans-30"/>
      </g>
     </g>
    </g>
   </g>
   <g id="matplotlib.axis_2">
    <g id="ytick_1">
     <g id="line2d_10">
      <defs>
       <path d="M 0 0 
L -3.5 0 
" id="m72b4b2ba1f" style="stroke:#000000;stroke-width:0.8;"/>
      </defs>
      <g>
       <use style="stroke:#000000;stroke-width:0.8;" x="144" xlink:href="#m72b4b2ba1f" y="768.96"/>
      </g>
     </g>
     <g id="text_10">
      <!-- −4000 -->
      <g transform="translate(103.170312 772.759219)scale(0.1 -0.1)">
       <use xlink:href="#DejaVuSans-2212"/>
       <use x="83.789062" xlink:href="#DejaVuSans-34"/>
       <use x="147.412109" xlink:href="#DejaVuSans-30"/>
       <use x="211.035156" xlink:href="#DejaVuSans-30"/>
       <use x="274.658203" xlink:href="#DejaVuSans-30"/>
      </g>
     </g>
    </g>
    <g id="ytick_2">
     <g id="line2d_11">
      <g>
       <use style="stroke:#000000;stroke-width:0.8;" x="144" xlink:href="#m72b4b2ba1f" y="685.8"/>
      </g>
     </g>
     <g id="text_11">
      <!-- −3000 -->
      <g transform="translate(103.170312 689.599219)scale(0.1 -0.1)">
       <use xlink:href="#DejaVuSans-2212"/>
       <use x="83.789062" xlink:href="#DejaVuSans-33"/>
       <use x="147.412109" xlink:href="#DejaVuSans-30"/>
       <use x="211.035156" xlink:href="#DejaVuSans-30"/>
       <use x="274.658203" xlink:href="#DejaVuSans-30"/>
      </g>
     </g>
    </g>
    <g id="ytick_3">
     <g id="line2d_12">
      <g>
       <use style="stroke:#000000;stroke-width:0.8;" x="144" xlink:href="#m72b4b2ba1f" y="602.64"/>
      </g>
     </g>
     <g id="text_12">
      <!-- −2000 -->
      <g transform="translate(103.170312 606.439219)scale(0.1 -0.1)">
       <use xlink:href="#DejaVuSans-2212"/>
       <use x="83.789062" xlink:href="#DejaVuSans-32"/>
       <use x="147.412109" xlink:href="#DejaVuSans-30"/>
       <use x="211.035156" xlink:href="#DejaVuSans-30"/>
       <use x="274.658203" xlink:href="#DejaVuSans-30"/>
      </g>
     </g>
    </g>
    <g id="ytick_4">
     <g id="line2d_13">
      <g>
       <use style="stroke:#000000;stroke-width:0.8;" x="144" xlink:href="#m72b4b2ba1f" y="519.48"/>
      </g>
     </g>
     <g id="text_13">
      <!-- −1000 -->
      <g transform="translate(103.170312 523.279219)scale(0.1 -0.1)">
       <use xlink:href="#DejaVuSans-2212"/>
       <use x="83.789062" xlink:href="#DejaVuSans-31"/>
       <use x="147.412109" xlink:href="#DejaVuSans-30"/>
       <use x="211.035156" xlink:href="#DejaVuSans-30"/>
       <use x="274.658203" xlink:href="#DejaVuSans-30"/>
      </g>
     </g>
    </g>
    <g id="ytick_5">
     <g id="line2d_14">
      <g>
       <use style="stroke:#000000;stroke-width:0.8;" x="144" xlink:href="#m72b4b2ba1f" y="436.32"/>
      </g>
     </g>
     <g id="text_14">
      <!-- 0 -->
      <g transform="translate(130.6375 440.119219)scale(0.1 -0.1)">
       <use xlink:href="#DejaVuSans-30"/>
      </g>
     </g>
    </g>
    <g id="ytick_6">
     <g id="line2d_15">
      <g>
       <use style="stroke:#000000;stroke-width:0.8;" x="144" xlink:href="#m72b4b2ba1f" y="353.16"/>
      </g>
     </g>
     <g id="text_15">
      <!-- 1000 -->
      <g transform="translate(111.55 356.959219)scale(0.1 -0.1)">
       <use xlink:href="#DejaVuSans-31"/>
       <use x="63.623047" xlink:href="#DejaVuSans-30"/>
       <use x="127.246094" xlink:href="#DejaVuSans-30"/>
       <use x="190.869141" xlink:href="#DejaVuSans-30"/>
      </g>
     </g>
    </g>
    <g id="ytick_7">
     <g id="line2d_16">
      <g>
       <use style="stroke:#000000;stroke-width:0.8;" x="144" xlink:href="#m72b4b2ba1f" y="270"/>
      </g>
     </g>
     <g id="text_16">
      <!-- 2000 -->
      <g transform="translate(111.55 273.799219)scale(0.1 -0.1)">
       <use xlink:href="#DejaVuSans-32"/>
       <use x="63.623047" xlink:href="#DejaVuSans-30"/>
       <use x="127.246094" xlink:href="#DejaVuSans-30"/>
       <use x="190.869141" xlink:href="#DejaVuSans-30"/>
      </g>
     </g>
    </g>
    <g id="ytick_8">
     <g id="line2d_17">
      <g>
       <use style="stroke:#000000;stroke-width:0.8;" x="144" xlink:href="#m72b4b2ba1f" y="186.84"/>
      </g>
     </g>
     <g id="text_17">
      <!-- 3000 -->
      <g transform="translate(111.55 190.639219)scale(0.1 -0.1)">
       <use xlink:href="#DejaVuSans-33"/>
       <use x="63.623047" xlink:href="#DejaVuSans-30"/>
       <use x="127.246094" xlink:href="#DejaVuSans-30"/>
       <use x="190.869141" xlink:href="#DejaVuSans-30"/>
      </g>
     </g>
    </g>
    <g id="ytick_9">
     <g id="line2d_18">
      <g>
       <use style="stroke:#000000;stroke-width:0.8;" x="144" xlink:href="#m72b4b2ba1f" y="103.68"/>
      </g>
     </g>
     <g id="text_18">
      <!-- 4000 -->
      <g transform="translate(111.55 107.479219)scale(0.1 -0.1)">
       <use xlink:href="#DejaVuSans-34"/>
       <use x="63.623047" xlink:href="#DejaVuSans-30"/>
       <use x="127.246094" xlink:href="#DejaVuSans-30"/>
       <use x="190.869141" xlink:href="#DejaVuSans-30"/>
      </g>
     </g>
    </g>
   </g>
   <g id="line2d_19">
    <path clip-path="url(#pf200196e5e)" d="M 590.4 768.96 
L 590.4 103.68 
" style="fill:none;stroke:#1f77b4;stroke-linecap:square;stroke-width:1.5;"/>
   </g>
   <g id="line2d_20">
    <path clip-path="url(#pf200196e5e)" d="M 144 436.32 
L 1036.8 436.32 
" style="fill:none;stroke:#1f77b4;stroke-linecap:square;stroke-width:1.5;"/>
   </g>
   <g id="line2d_21">
    <defs>
     <path d="M 0 3 
C 0.795609 3 1.55874 2.683901 2.12132 2.12132 
C 2.683901 1.55874 3 0.795609 3 0 
C 3 -0.795609 2.683901 -1.55874 2.12132 -2.12132 
C 1.55874 -2.683901 0.795609 -3 0 -3 
C -0.795609 -3 -1.55874 -2.683901 -2.12132 -2.12132 
C -2.683901 -1.55874 -3 -0.795609 -3 0 
C -3 0.795609 -2.683901 1.55874 -2.12132 2.12132 
C -1.55874 2.683901 -0.795609 3 0 3 
z
" id="mcabbd070cf" style="stroke:#008000;"/>
    </defs>
    <g clip-path="url(#pf200196e5e)">
     <use style="fill:#008000;stroke:#008000;" x="1359.818279" xlink:href="#mcabbd070cf" y="501.802312"/>
    </g>
   </g>
   <g id="line2d_22">
    <g clip-path="url(#pf200196e5e)">
     <use style="fill:#008000;stroke:#008000;" x="1077.424793" xlink:href="#mcabbd070cf" y="442.951654"/>
    </g>
   </g>
   <g id="line2d_23">
    <g clip-path="url(#pf200196e5e)">
     <use style="fill:#008000;stroke:#008000;" x="646.23295" xlink:href="#mcabbd070cf" y="393.26073"/>
    </g>
   </g>
   <g id="line2d_24">
    <g clip-path="url(#pf200196e5e)">
     <use style="fill:#008000;stroke:#008000;" x="646.23295" xlink:href="#mcabbd070cf" y="393.26073"/>
    </g>
   </g>
   <g id="line2d_25">
    <g clip-path="url(#pf200196e5e)">
     <use style="fill:#008000;stroke:#008000;" x="743.950026" xlink:href="#mcabbd070cf" y="198.274803"/>
    </g>
   </g>
   <g id="line2d_26">
    <g clip-path="url(#pf200196e5e)">
     <use style="fill:#008000;stroke:#008000;" x="463.147526" xlink:href="#mcabbd070cf" y="247.038975"/>
    </g>
   </g>
   <g id="line2d_27">
    <g clip-path="url(#pf200196e5e)">
     <use style="fill:#008000;stroke:#008000;" x="557.877177" xlink:href="#mcabbd070cf" y="396.43144"/>
    </g>
   </g>
   <g id="line2d_28">
    <g clip-path="url(#pf200196e5e)">
     <use style="fill:#008000;stroke:#008000;" x="464.337649" xlink:href="#mcabbd070cf" y="539.255901"/>
    </g>
   </g>
   <g id="line2d_29">
    <g clip-path="url(#pf200196e5e)">
     <use style="fill:#008000;stroke:#008000;" x="513.729676" xlink:href="#mcabbd070cf" y="509.404224"/>
    </g>
   </g>
   <g id="line2d_30">
    <g clip-path="url(#pf200196e5e)">
     <use style="fill:#008000;stroke:#008000;" x="577.101349" xlink:href="#mcabbd070cf" y="504.144519"/>
    </g>
   </g>
   <g id="line2d_31">
    <g clip-path="url(#pf200196e5e)">
     <use style="fill:#008000;stroke:#008000;" x="589.739609" xlink:href="#mcabbd070cf" y="636.818156"/>
    </g>
   </g>
   <g id="line2d_32">
    <defs>
     <path d="M 0 1.333333 
C 0.353604 1.333333 0.692773 1.192845 0.942809 0.942809 
C 1.192845 0.692773 1.333333 0.353604 1.333333 0 
C 1.333333 -0.353604 1.192845 -0.692773 0.942809 -0.942809 
C 0.692773 -1.192845 0.353604 -1.333333 0 -1.333333 
C -0.353604 -1.333333 -0.692773 -1.192845 -0.942809 -0.942809 
C -1.192845 -0.692773 -1.333333 -0.353604 -1.333333 0 
C -1.333333 0.353604 -1.192845 0.692773 -0.942809 0.942809 
C -0.692773 1.192845 -0.353604 1.333333 0 1.333333 
z
" id="m2dbdd8f21b" style="stroke:#ff0000;"/>
    </defs>
    <g clip-path="url(#pf200196e5e)">
     <use style="fill:#ff0000;stroke:#ff0000;" x="1359.818279" xlink:href="#m2dbdd8f21b" y="501.802312"/>
     <use style="fill:#ff0000;stroke:#ff0000;" x="1077.424793" xlink:href="#m2dbdd8f21b" y="442.951654"/>
     <use style="fill:#ff0000;stroke:#ff0000;" x="1286.695201" xlink:href="#m2dbdd8f21b" y="349.34845"/>
     <use style="fill:#ff0000;stroke:#ff0000;" x="1260.440895" xlink:href="#m2dbdd8f21b" y="328.341492"/>
     <use style="fill:#ff0000;stroke:#ff0000;" x="1355.563606" xlink:href="#m2dbdd8f21b" y="285.37505"/>
     <use style="fill:#ff0000;stroke:#ff0000;" x="1315.611026" xlink:href="#m2dbdd8f21b" y="265.770756"/>
     <use style="fill:#ff0000;stroke:#ff0000;" x="649.649735" xlink:href="#m2dbdd8f21b" y="398.444923"/>
     <use style="fill:#ff0000;stroke:#ff0000;" x="642.020666" xlink:href="#m2dbdd8f21b" y="388.231725"/>
     <use style="fill:#ff0000;stroke:#ff0000;" x="794.673865" xlink:href="#m2dbdd8f21b" y="195.362006"/>
     <use style="fill:#ff0000;stroke:#ff0000;" x="754.123956" xlink:href="#m2dbdd8f21b" y="197.041374"/>
     <use style="fill:#ff0000;stroke:#ff0000;" x="733.945209" xlink:href="#m2dbdd8f21b" y="199.72998"/>
     <use style="fill:#ff0000;stroke:#ff0000;" x="463.147526" xlink:href="#m2dbdd8f21b" y="247.038975"/>
     <use style="fill:#ff0000;stroke:#ff0000;" x="557.877177" xlink:href="#m2dbdd8f21b" y="396.43144"/>
     <use style="fill:#ff0000;stroke:#ff0000;" x="415.781159" xlink:href="#m2dbdd8f21b" y="265.204564"/>
     <use style="fill:#ff0000;stroke:#ff0000;" x="391.780367" xlink:href="#m2dbdd8f21b" y="289.842192"/>
     <use style="fill:#ff0000;stroke:#ff0000;" x="410.84063" xlink:href="#m2dbdd8f21b" y="315.977393"/>
     <use style="fill:#ff0000;stroke:#ff0000;" x="419.59135" xlink:href="#m2dbdd8f21b" y="342.137759"/>
     <use style="fill:#ff0000;stroke:#ff0000;" x="408.147836" xlink:href="#m2dbdd8f21b" y="362.630622"/>
     <use style="fill:#ff0000;stroke:#ff0000;" x="455.053074" xlink:href="#m2dbdd8f21b" y="393.995523"/>
     <use style="fill:#ff0000;stroke:#ff0000;" x="446.907508" xlink:href="#m2dbdd8f21b" y="413.592379"/>
     <use style="fill:#ff0000;stroke:#ff0000;" x="420.625659" xlink:href="#m2dbdd8f21b" y="438.493717"/>
     <use style="fill:#ff0000;stroke:#ff0000;" x="394.886018" xlink:href="#m2dbdd8f21b" y="445.31051"/>
     <use style="fill:#ff0000;stroke:#ff0000;" x="401.102775" xlink:href="#m2dbdd8f21b" y="465.138563"/>
     <use style="fill:#ff0000;stroke:#ff0000;" x="436.841042" xlink:href="#m2dbdd8f21b" y="465.579939"/>
     <use style="fill:#ff0000;stroke:#ff0000;" x="405.092254" xlink:href="#m2dbdd8f21b" y="478.084037"/>
     <use style="fill:#ff0000;stroke:#ff0000;" x="410.783447" xlink:href="#m2dbdd8f21b" y="506.087222"/>
     <use style="fill:#ff0000;stroke:#ff0000;" x="438.058386" xlink:href="#m2dbdd8f21b" y="502.729963"/>
     <use style="fill:#ff0000;stroke:#ff0000;" x="440.890807" xlink:href="#m2dbdd8f21b" y="516.062246"/>
     <use style="fill:#ff0000;stroke:#ff0000;" x="459.507937" xlink:href="#m2dbdd8f21b" y="513.513305"/>
     <use style="fill:#ff0000;stroke:#ff0000;" x="458.576103" xlink:href="#m2dbdd8f21b" y="521.757135"/>
     <use style="fill:#ff0000;stroke:#ff0000;" x="457.005608" xlink:href="#m2dbdd8f21b" y="540.268386"/>
     <use style="fill:#ff0000;stroke:#ff0000;" x="471.531616" xlink:href="#m2dbdd8f21b" y="538.046962"/>
     <use style="fill:#ff0000;stroke:#ff0000;" x="513.729676" xlink:href="#m2dbdd8f21b" y="509.404224"/>
     <use style="fill:#ff0000;stroke:#ff0000;" x="577.101349" xlink:href="#m2dbdd8f21b" y="504.144519"/>
     <use style="fill:#ff0000;stroke:#ff0000;" x="583.848117" xlink:href="#m2dbdd8f21b" y="630.873942"/>
     <use style="fill:#ff0000;stroke:#ff0000;" x="595.988842" xlink:href="#m2dbdd8f21b" y="642.660307"/>
     <use style="fill:#ff0000;stroke:#ff0000;" x="607.131758" xlink:href="#m2dbdd8f21b" y="620.388689"/>
     <use style="fill:#ff0000;stroke:#ff0000;" x="622.062397" xlink:href="#m2dbdd8f21b" y="640.428463"/>
     <use style="fill:#ff0000;stroke:#ff0000;" x="631.779573" xlink:href="#m2dbdd8f21b" y="625.001953"/>
     <use style="fill:#ff0000;stroke:#ff0000;" x="669.780874" xlink:href="#m2dbdd8f21b" y="626.087949"/>
     <use style="fill:#ff0000;stroke:#ff0000;" x="666.718796" xlink:href="#m2dbdd8f21b" y="592.039793"/>
     <use style="fill:#ff0000;stroke:#ff0000;" x="693.295193" xlink:href="#m2dbdd8f21b" y="597.862259"/>
     <use style="fill:#ff0000;stroke:#ff0000;" x="757.248622" xlink:href="#m2dbdd8f21b" y="592.448279"/>
     <use style="fill:#ff0000;stroke:#ff0000;" x="781.748362" xlink:href="#m2dbdd8f21b" y="584.779585"/>
     <use style="fill:#ff0000;stroke:#ff0000;" x="840.712781" xlink:href="#m2dbdd8f21b" y="569.212411"/>
     <use style="fill:#ff0000;stroke:#ff0000;" x="874.258449" xlink:href="#m2dbdd8f21b" y="572.945991"/>
     <use style="fill:#ff0000;stroke:#ff0000;" x="873.615481" xlink:href="#m2dbdd8f21b" y="558.933281"/>
     <use style="fill:#ff0000;stroke:#ff0000;" x="893.76252" xlink:href="#m2dbdd8f21b" y="554.074631"/>
     <use style="fill:#ff0000;stroke:#ff0000;" x="930.10767" xlink:href="#m2dbdd8f21b" y="553.688062"/>
     <use style="fill:#ff0000;stroke:#ff0000;" x="1060.702569" xlink:href="#m2dbdd8f21b" y="543.254732"/>
     <use style="fill:#ff0000;stroke:#ff0000;" x="1085.767628" xlink:href="#m2dbdd8f21b" y="512.573948"/>
     <use style="fill:#ff0000;stroke:#ff0000;" x="1137.67608" xlink:href="#m2dbdd8f21b" y="501.0246"/>
    </g>
   </g>
   <g id="line2d_33">
    <defs>
     <path d="M -0.5 0.5 
L 0.5 0.5 
L 0.5 -0.5 
L -0.5 -0.5 
z
" id="mc7819c284b" style="stroke:#1f77b4;stroke-linejoin:miter;"/>
    </defs>
    <g clip-path="url(#pf200196e5e)">
     <use style="fill:#1f77b4;stroke:#1f77b4;stroke-linejoin:miter;" x="1359.818279" xlink:href="#mc7819c284b" y="501.802312"/>
     <use style="fill:#1f77b4;stroke:#1f77b4;stroke-linejoin:miter;" x="1077.424793" xlink:href="#mc7819c284b" y="442.951654"/>
     <use style="fill:#1f77b4;stroke:#1f77b4;stroke-linejoin:miter;" x="1286.695201" xlink:href="#mc7819c284b" y="349.34845"/>
     <use style="fill:#1f77b4;stroke:#1f77b4;stroke-linejoin:miter;" x="1260.440895" xlink:href="#mc7819c284b" y="328.341492"/>
     <use style="fill:#1f77b4;stroke:#1f77b4;stroke-linejoin:miter;" x="1355.563606" xlink:href="#mc7819c284b" y="285.37505"/>
     <use style="fill:#1f77b4;stroke:#1f77b4;stroke-linejoin:miter;" x="1315.611026" xlink:href="#mc7819c284b" y="265.770756"/>
     <use style="fill:#1f77b4;stroke:#1f77b4;stroke-linejoin:miter;" x="649.649735" xlink:href="#mc7819c284b" y="398.444923"/>
     <use style="fill:#1f77b4;stroke:#1f77b4;stroke-linejoin:miter;" x="646.21906" xlink:href="#mc7819c284b" y="396.913199"/>
     <use style="fill:#1f77b4;stroke:#1f77b4;stroke-linejoin:miter;" x="644.677961" xlink:href="#mc7819c284b" y="394.4828"/>
     <use style="fill:#1f77b4;stroke:#1f77b4;stroke-linejoin:miter;" x="642.628501" xlink:href="#mc7819c284b" y="392.1123"/>
     <use style="fill:#1f77b4;stroke:#1f77b4;stroke-linejoin:miter;" x="642.020666" xlink:href="#mc7819c284b" y="388.231725"/>
     <use style="fill:#1f77b4;stroke:#1f77b4;stroke-linejoin:miter;" x="794.673865" xlink:href="#mc7819c284b" y="195.362006"/>
     <use style="fill:#1f77b4;stroke:#1f77b4;stroke-linejoin:miter;" x="776.086409" xlink:href="#mc7819c284b" y="193.614992"/>
     <use style="fill:#1f77b4;stroke:#1f77b4;stroke-linejoin:miter;" x="754.123956" xlink:href="#mc7819c284b" y="197.041374"/>
     <use style="fill:#1f77b4;stroke:#1f77b4;stroke-linejoin:miter;" x="733.945209" xlink:href="#mc7819c284b" y="199.72998"/>
     <use style="fill:#1f77b4;stroke:#1f77b4;stroke-linejoin:miter;" x="714.571416" xlink:href="#mc7819c284b" y="203.290286"/>
     <use style="fill:#1f77b4;stroke:#1f77b4;stroke-linejoin:miter;" x="696.833339" xlink:href="#mc7819c284b" y="205.57827"/>
     <use style="fill:#1f77b4;stroke:#1f77b4;stroke-linejoin:miter;" x="679.667861" xlink:href="#mc7819c284b" y="208.79685"/>
     <use style="fill:#1f77b4;stroke:#1f77b4;stroke-linejoin:miter;" x="663.813057" xlink:href="#mc7819c284b" y="211.165811"/>
     <use style="fill:#1f77b4;stroke:#1f77b4;stroke-linejoin:miter;" x="648.258787" xlink:href="#mc7819c284b" y="213.869342"/>
     <use style="fill:#1f77b4;stroke:#1f77b4;stroke-linejoin:miter;" x="633.578817" xlink:href="#mc7819c284b" y="215.260728"/>
     <use style="fill:#1f77b4;stroke:#1f77b4;stroke-linejoin:miter;" x="618.475819" xlink:href="#mc7819c284b" y="218.424139"/>
     <use style="fill:#1f77b4;stroke:#1f77b4;stroke-linejoin:miter;" x="604.612898" xlink:href="#mc7819c284b" y="219.530947"/>
     <use style="fill:#1f77b4;stroke:#1f77b4;stroke-linejoin:miter;" x="590.943516" xlink:href="#mc7819c284b" y="224.158437"/>
     <use style="fill:#1f77b4;stroke:#1f77b4;stroke-linejoin:miter;" x="577.71908" xlink:href="#mc7819c284b" y="225.180201"/>
     <use style="fill:#1f77b4;stroke:#1f77b4;stroke-linejoin:miter;" x="564.692678" xlink:href="#mc7819c284b" y="226.590314"/>
     <use style="fill:#1f77b4;stroke:#1f77b4;stroke-linejoin:miter;" x="551.776002" xlink:href="#mc7819c284b" y="228.238865"/>
     <use style="fill:#1f77b4;stroke:#1f77b4;stroke-linejoin:miter;" x="539.328046" xlink:href="#mc7819c284b" y="232.842303"/>
     <use style="fill:#1f77b4;stroke:#1f77b4;stroke-linejoin:miter;" x="527.099759" xlink:href="#mc7819c284b" y="236.489482"/>
     <use style="fill:#1f77b4;stroke:#1f77b4;stroke-linejoin:miter;" x="514.368426" xlink:href="#mc7819c284b" y="238.125969"/>
     <use style="fill:#1f77b4;stroke:#1f77b4;stroke-linejoin:miter;" x="501.911314" xlink:href="#mc7819c284b" y="240.140443"/>
     <use style="fill:#1f77b4;stroke:#1f77b4;stroke-linejoin:miter;" x="489.026987" xlink:href="#mc7819c284b" y="242.071153"/>
     <use style="fill:#1f77b4;stroke:#1f77b4;stroke-linejoin:miter;" x="475.726956" xlink:href="#mc7819c284b" y="243.831534"/>
     <use style="fill:#1f77b4;stroke:#1f77b4;stroke-linejoin:miter;" x="463.147526" xlink:href="#mc7819c284b" y="247.038975"/>
     <use style="fill:#1f77b4;stroke:#1f77b4;stroke-linejoin:miter;" x="557.877177" xlink:href="#mc7819c284b" y="396.43144"/>
     <use style="fill:#1f77b4;stroke:#1f77b4;stroke-linejoin:miter;" x="415.781159" xlink:href="#mc7819c284b" y="265.204564"/>
     <use style="fill:#1f77b4;stroke:#1f77b4;stroke-linejoin:miter;" x="400.261266" xlink:href="#mc7819c284b" y="266.905366"/>
     <use style="fill:#1f77b4;stroke:#1f77b4;stroke-linejoin:miter;" x="389.718642" xlink:href="#mc7819c284b" y="273.571828"/>
     <use style="fill:#1f77b4;stroke:#1f77b4;stroke-linejoin:miter;" x="391.780367" xlink:href="#mc7819c284b" y="289.842192"/>
     <use style="fill:#1f77b4;stroke:#1f77b4;stroke-linejoin:miter;" x="410.84063" xlink:href="#mc7819c284b" y="315.977393"/>
     <use style="fill:#1f77b4;stroke:#1f77b4;stroke-linejoin:miter;" x="419.59135" xlink:href="#mc7819c284b" y="342.137759"/>
     <use style="fill:#1f77b4;stroke:#1f77b4;stroke-linejoin:miter;" x="415.457849" xlink:href="#mc7819c284b" y="357.555629"/>
     <use style="fill:#1f77b4;stroke:#1f77b4;stroke-linejoin:miter;" x="408.147836" xlink:href="#mc7819c284b" y="362.630622"/>
     <use style="fill:#1f77b4;stroke:#1f77b4;stroke-linejoin:miter;" x="455.053074" xlink:href="#mc7819c284b" y="393.995523"/>
     <use style="fill:#1f77b4;stroke:#1f77b4;stroke-linejoin:miter;" x="456.324517" xlink:href="#mc7819c284b" y="399.894791"/>
     <use style="fill:#1f77b4;stroke:#1f77b4;stroke-linejoin:miter;" x="457.512918" xlink:href="#mc7819c284b" y="405.454284"/>
     <use style="fill:#1f77b4;stroke:#1f77b4;stroke-linejoin:miter;" x="460.800706" xlink:href="#mc7819c284b" y="411.176029"/>
     <use style="fill:#1f77b4;stroke:#1f77b4;stroke-linejoin:miter;" x="446.907508" xlink:href="#mc7819c284b" y="413.592379"/>
     <use style="fill:#1f77b4;stroke:#1f77b4;stroke-linejoin:miter;" x="428.190481" xlink:href="#mc7819c284b" y="416.194565"/>
     <use style="fill:#1f77b4;stroke:#1f77b4;stroke-linejoin:miter;" x="425.977248" xlink:href="#mc7819c284b" y="421.716977"/>
     <use style="fill:#1f77b4;stroke:#1f77b4;stroke-linejoin:miter;" x="419.01581" xlink:href="#mc7819c284b" y="427.039684"/>
     <use style="fill:#1f77b4;stroke:#1f77b4;stroke-linejoin:miter;" x="420.184649" xlink:href="#mc7819c284b" y="432.998633"/>
     <use style="fill:#1f77b4;stroke:#1f77b4;stroke-linejoin:miter;" x="420.625659" xlink:href="#mc7819c284b" y="438.493717"/>
     <use style="fill:#1f77b4;stroke:#1f77b4;stroke-linejoin:miter;" x="394.886018" xlink:href="#mc7819c284b" y="445.31051"/>
     <use style="fill:#1f77b4;stroke:#1f77b4;stroke-linejoin:miter;" x="395.999607" xlink:href="#mc7819c284b" y="452.10476"/>
     <use style="fill:#1f77b4;stroke:#1f77b4;stroke-linejoin:miter;" x="398.292818" xlink:href="#mc7819c284b" y="458.672834"/>
     <use style="fill:#1f77b4;stroke:#1f77b4;stroke-linejoin:miter;" x="401.102775" xlink:href="#mc7819c284b" y="465.138563"/>
     <use style="fill:#1f77b4;stroke:#1f77b4;stroke-linejoin:miter;" x="436.841042" xlink:href="#mc7819c284b" y="465.579939"/>
     <use style="fill:#1f77b4;stroke:#1f77b4;stroke-linejoin:miter;" x="405.092254" xlink:href="#mc7819c284b" y="478.084037"/>
     <use style="fill:#1f77b4;stroke:#1f77b4;stroke-linejoin:miter;" x="405.478393" xlink:href="#mc7819c284b" y="485.158567"/>
     <use style="fill:#1f77b4;stroke:#1f77b4;stroke-linejoin:miter;" x="407.609034" xlink:href="#mc7819c284b" y="491.784472"/>
     <use style="fill:#1f77b4;stroke:#1f77b4;stroke-linejoin:miter;" x="408.12631" xlink:href="#mc7819c284b" y="499.385085"/>
     <use style="fill:#1f77b4;stroke:#1f77b4;stroke-linejoin:miter;" x="410.783447" xlink:href="#mc7819c284b" y="506.087222"/>
     <use style="fill:#1f77b4;stroke:#1f77b4;stroke-linejoin:miter;" x="438.058386" xlink:href="#mc7819c284b" y="502.729963"/>
     <use style="fill:#1f77b4;stroke:#1f77b4;stroke-linejoin:miter;" x="440.890807" xlink:href="#mc7819c284b" y="516.062246"/>
     <use style="fill:#1f77b4;stroke:#1f77b4;stroke-linejoin:miter;" x="459.507937" xlink:href="#mc7819c284b" y="513.513305"/>
     <use style="fill:#1f77b4;stroke:#1f77b4;stroke-linejoin:miter;" x="458.576103" xlink:href="#mc7819c284b" y="521.757135"/>
     <use style="fill:#1f77b4;stroke:#1f77b4;stroke-linejoin:miter;" x="457.005608" xlink:href="#mc7819c284b" y="540.268386"/>
     <use style="fill:#1f77b4;stroke:#1f77b4;stroke-linejoin:miter;" x="471.531616" xlink:href="#mc7819c284b" y="538.046962"/>
     <use style="fill:#1f77b4;stroke:#1f77b4;stroke-linejoin:miter;" x="513.729676" xlink:href="#mc7819c284b" y="509.404224"/>
     <use style="fill:#1f77b4;stroke:#1f77b4;stroke-linejoin:miter;" x="526.983691" xlink:href="#mc7819c284b" y="503.456365"/>
     <use style="fill:#1f77b4;stroke:#1f77b4;stroke-linejoin:miter;" x="534.871066" xlink:href="#mc7819c284b" y="501.387881"/>
     <use style="fill:#1f77b4;stroke:#1f77b4;stroke-linejoin:miter;" x="541.580973" xlink:href="#mc7819c284b" y="500.129852"/>
     <use style="fill:#1f77b4;stroke:#1f77b4;stroke-linejoin:miter;" x="548.351356" xlink:href="#mc7819c284b" y="498.147607"/>
     <use style="fill:#1f77b4;stroke:#1f77b4;stroke-linejoin:miter;" x="552.68814" xlink:href="#mc7819c284b" y="498.884994"/>
     <use style="fill:#1f77b4;stroke:#1f77b4;stroke-linejoin:miter;" x="555.516649" xlink:href="#mc7819c284b" y="501.941278"/>
     <use style="fill:#1f77b4;stroke:#1f77b4;stroke-linejoin:miter;" x="559.197403" xlink:href="#mc7819c284b" y="503.666674"/>
     <use style="fill:#1f77b4;stroke:#1f77b4;stroke-linejoin:miter;" x="562.878412" xlink:href="#mc7819c284b" y="506.395212"/>
     <use style="fill:#1f77b4;stroke:#1f77b4;stroke-linejoin:miter;" x="567.948035" xlink:href="#mc7819c284b" y="505.42544"/>
     <use style="fill:#1f77b4;stroke:#1f77b4;stroke-linejoin:miter;" x="572.761571" xlink:href="#mc7819c284b" y="503.74097"/>
     <use style="fill:#1f77b4;stroke:#1f77b4;stroke-linejoin:miter;" x="577.101349" xlink:href="#mc7819c284b" y="504.144519"/>
     <use style="fill:#1f77b4;stroke:#1f77b4;stroke-linejoin:miter;" x="583.848117" xlink:href="#mc7819c284b" y="630.873942"/>
     <use style="fill:#1f77b4;stroke:#1f77b4;stroke-linejoin:miter;" x="595.988842" xlink:href="#mc7819c284b" y="642.660307"/>
     <use style="fill:#1f77b4;stroke:#1f77b4;stroke-linejoin:miter;" x="607.131758" xlink:href="#mc7819c284b" y="620.388689"/>
     <use style="fill:#1f77b4;stroke:#1f77b4;stroke-linejoin:miter;" x="622.062397" xlink:href="#mc7819c284b" y="640.428463"/>
     <use style="fill:#1f77b4;stroke:#1f77b4;stroke-linejoin:miter;" x="631.779573" xlink:href="#mc7819c284b" y="625.001953"/>
     <use style="fill:#1f77b4;stroke:#1f77b4;stroke-linejoin:miter;" x="657.72443" xlink:href="#mc7819c284b" y="628.572293"/>
     <use style="fill:#1f77b4;stroke:#1f77b4;stroke-linejoin:miter;" x="669.780874" xlink:href="#mc7819c284b" y="626.087949"/>
     <use style="fill:#1f77b4;stroke:#1f77b4;stroke-linejoin:miter;" x="666.718796" xlink:href="#mc7819c284b" y="592.039793"/>
     <use style="fill:#1f77b4;stroke:#1f77b4;stroke-linejoin:miter;" x="681.590526" xlink:href="#mc7819c284b" y="598.614446"/>
     <use style="fill:#1f77b4;stroke:#1f77b4;stroke-linejoin:miter;" x="693.295193" xlink:href="#mc7819c284b" y="597.862259"/>
     <use style="fill:#1f77b4;stroke:#1f77b4;stroke-linejoin:miter;" x="757.248622" xlink:href="#mc7819c284b" y="592.448279"/>
     <use style="fill:#1f77b4;stroke:#1f77b4;stroke-linejoin:miter;" x="766.081887" xlink:href="#mc7819c284b" y="586.089416"/>
     <use style="fill:#1f77b4;stroke:#1f77b4;stroke-linejoin:miter;" x="781.748362" xlink:href="#mc7819c284b" y="584.779585"/>
     <use style="fill:#1f77b4;stroke:#1f77b4;stroke-linejoin:miter;" x="801.777032" xlink:href="#mc7819c284b" y="585.954748"/>
     <use style="fill:#1f77b4;stroke:#1f77b4;stroke-linejoin:miter;" x="815.707319" xlink:href="#mc7819c284b" y="581.783192"/>
     <use style="fill:#1f77b4;stroke:#1f77b4;stroke-linejoin:miter;" x="832.071076" xlink:href="#mc7819c284b" y="578.286724"/>
     <use style="fill:#1f77b4;stroke:#1f77b4;stroke-linejoin:miter;" x="840.712781" xlink:href="#mc7819c284b" y="569.212411"/>
     <use style="fill:#1f77b4;stroke:#1f77b4;stroke-linejoin:miter;" x="874.258449" xlink:href="#mc7819c284b" y="572.945991"/>
     <use style="fill:#1f77b4;stroke:#1f77b4;stroke-linejoin:miter;" x="873.615481" xlink:href="#mc7819c284b" y="558.933281"/>
     <use style="fill:#1f77b4;stroke:#1f77b4;stroke-linejoin:miter;" x="893.76252" xlink:href="#mc7819c284b" y="554.074631"/>
     <use style="fill:#1f77b4;stroke:#1f77b4;stroke-linejoin:miter;" x="930.10767" xlink:href="#mc7819c284b" y="553.688062"/>
     <use style="fill:#1f77b4;stroke:#1f77b4;stroke-linejoin:miter;" x="1060.702569" xlink:href="#mc7819c284b" y="543.254732"/>
     <use style="fill:#1f77b4;stroke:#1f77b4;stroke-linejoin:miter;" x="1078.540308" xlink:href="#mc7819c284b" y="528.910237"/>
     <use style="fill:#1f77b4;stroke:#1f77b4;stroke-linejoin:miter;" x="1085.767628" xlink:href="#mc7819c284b" y="512.573948"/>
     <use style="fill:#1f77b4;stroke:#1f77b4;stroke-linejoin:miter;" x="1137.67608" xlink:href="#mc7819c284b" y="501.0246"/>
    </g>
   </g>
   <g id="patch_3">
    <path d="M 144 768.96 
L 144 103.68 
" style="fill:none;stroke:#000000;stroke-linecap:square;stroke-linejoin:miter;stroke-width:0.8;"/>
   </g>
   <g id="patch_4">
    <path d="M 1036.8 768.96 
L 1036.8 103.68 
" style="fill:none;stroke:#000000;stroke-linecap:square;stroke-linejoin:miter;stroke-width:0.8;"/>
   </g>
   <g id="patch_5">
    <path d="M 144 768.96 
L 1036.8 768.96 
" style="fill:none;stroke:#000000;stroke-linecap:square;stroke-linejoin:miter;stroke-width:0.8;"/>
   </g>
   <g id="patch_6">
    <path d="M 144 103.68 
L 1036.8 103.68 
" style="fill:none;stroke:#000000;stroke-linecap:square;stroke-linejoin:miter;stroke-width:0.8;"/>
   </g>
  </g>
 </g>
 <defs>
  <clipPath id="pf200196e5e">
   <rect height="665.28" width="892.8" x="144" y="103.68"/>
  </clipPath>
 </defs>
</svg>
