<?xml version="1.0" encoding="utf-8" standalone="no"?>
<!DOCTYPE svg PUBLIC "-//W3C//DTD SVG 1.1//EN"
  "http://www.w3.org/Graphics/SVG/1.1/DTD/svg11.dtd">
<!-- Created with matplotlib (http://matplotlib.org/) -->
<svg height="864pt" version="1.1" viewBox="0 0 1152 864" width="1152pt" xmlns="http://www.w3.org/2000/svg" xmlns:xlink="http://www.w3.org/1999/xlink">
 <defs>
  <style type="text/css">
*{stroke-linecap:butt;stroke-linejoin:round;}
  </style>
 </defs>
 <g id="figure_1">
  <g id="patch_1">
   <path d="M 0 864 
L 1152 864 
L 1152 0 
L 0 0 
z
" style="fill:#ffffff;"/>
  </g>
  <g id="axes_1">
   <g id="patch_2">
    <path d="M 144 768.96 
L 1036.8 768.96 
L 1036.8 103.68 
L 144 103.68 
z
" style="fill:#ffffff;"/>
   </g>
   <g id="matplotlib.axis_1">
    <g id="xtick_1">
     <g id="line2d_1">
      <defs>
       <path d="M 0 0 
L 0 3.5 
" id="maae94e8455" style="stroke:#000000;stroke-width:0.8;"/>
      </defs>
      <g>
       <use style="stroke:#000000;stroke-width:0.8;" x="144" xlink:href="#maae94e8455" y="768.96"/>
      </g>
     </g>
     <g id="text_1">
      <!-- −4000 -->
      <defs>
       <path d="M 10.59375 35.5 
L 73.1875 35.5 
L 73.1875 27.203125 
L 10.59375 27.203125 
z
" id="DejaVuSans-2212"/>
       <path d="M 37.796875 64.3125 
L 12.890625 25.390625 
L 37.796875 25.390625 
z
M 35.203125 72.90625 
L 47.609375 72.90625 
L 47.609375 25.390625 
L 58.015625 25.390625 
L 58.015625 17.1875 
L 47.609375 17.1875 
L 47.609375 0 
L 37.796875 0 
L 37.796875 17.1875 
L 4.890625 17.1875 
L 4.890625 26.703125 
z
" id="DejaVuSans-34"/>
       <path d="M 31.78125 66.40625 
Q 24.171875 66.40625 20.328125 58.90625 
Q 16.5 51.421875 16.5 36.375 
Q 16.5 21.390625 20.328125 13.890625 
Q 24.171875 6.390625 31.78125 6.390625 
Q 39.453125 6.390625 43.28125 13.890625 
Q 47.125 21.390625 47.125 36.375 
Q 47.125 51.421875 43.28125 58.90625 
Q 39.453125 66.40625 31.78125 66.40625 
z
M 31.78125 74.21875 
Q 44.046875 74.21875 50.515625 64.515625 
Q 56.984375 54.828125 56.984375 36.375 
Q 56.984375 17.96875 50.515625 8.265625 
Q 44.046875 -1.421875 31.78125 -1.421875 
Q 19.53125 -1.421875 13.0625 8.265625 
Q 6.59375 17.96875 6.59375 36.375 
Q 6.59375 54.828125 13.0625 64.515625 
Q 19.53125 74.21875 31.78125 74.21875 
z
" id="DejaVuSans-30"/>
      </defs>
      <g transform="translate(127.085156 783.558437)scale(0.1 -0.1)">
       <use xlink:href="#DejaVuSans-2212"/>
       <use x="83.789062" xlink:href="#DejaVuSans-34"/>
       <use x="147.412109" xlink:href="#DejaVuSans-30"/>
       <use x="211.035156" xlink:href="#DejaVuSans-30"/>
       <use x="274.658203" xlink:href="#DejaVuSans-30"/>
      </g>
     </g>
    </g>
    <g id="xtick_2">
     <g id="line2d_2">
      <g>
       <use style="stroke:#000000;stroke-width:0.8;" x="255.6" xlink:href="#maae94e8455" y="768.96"/>
      </g>
     </g>
     <g id="text_2">
      <!-- −3000 -->
      <defs>
       <path d="M 40.578125 39.3125 
Q 47.65625 37.796875 51.625 33 
Q 55.609375 28.21875 55.609375 21.1875 
Q 55.609375 10.40625 48.1875 4.484375 
Q 40.765625 -1.421875 27.09375 -1.421875 
Q 22.515625 -1.421875 17.65625 -0.515625 
Q 12.796875 0.390625 7.625 2.203125 
L 7.625 11.71875 
Q 11.71875 9.328125 16.59375 8.109375 
Q 21.484375 6.890625 26.8125 6.890625 
Q 36.078125 6.890625 40.9375 10.546875 
Q 45.796875 14.203125 45.796875 21.1875 
Q 45.796875 27.640625 41.28125 31.265625 
Q 36.765625 34.90625 28.71875 34.90625 
L 20.21875 34.90625 
L 20.21875 43.015625 
L 29.109375 43.015625 
Q 36.375 43.015625 40.234375 45.921875 
Q 44.09375 48.828125 44.09375 54.296875 
Q 44.09375 59.90625 40.109375 62.90625 
Q 36.140625 65.921875 28.71875 65.921875 
Q 24.65625 65.921875 20.015625 65.03125 
Q 15.375 64.15625 9.8125 62.3125 
L 9.8125 71.09375 
Q 15.4375 72.65625 20.34375 73.4375 
Q 25.25 74.21875 29.59375 74.21875 
Q 40.828125 74.21875 47.359375 69.109375 
Q 53.90625 64.015625 53.90625 55.328125 
Q 53.90625 49.265625 50.4375 45.09375 
Q 46.96875 40.921875 40.578125 39.3125 
z
" id="DejaVuSans-33"/>
      </defs>
      <g transform="translate(238.685156 783.558437)scale(0.1 -0.1)">
       <use xlink:href="#DejaVuSans-2212"/>
       <use x="83.789062" xlink:href="#DejaVuSans-33"/>
       <use x="147.412109" xlink:href="#DejaVuSans-30"/>
       <use x="211.035156" xlink:href="#DejaVuSans-30"/>
       <use x="274.658203" xlink:href="#DejaVuSans-30"/>
      </g>
     </g>
    </g>
    <g id="xtick_3">
     <g id="line2d_3">
      <g>
       <use style="stroke:#000000;stroke-width:0.8;" x="367.2" xlink:href="#maae94e8455" y="768.96"/>
      </g>
     </g>
     <g id="text_3">
      <!-- −2000 -->
      <defs>
       <path d="M 19.1875 8.296875 
L 53.609375 8.296875 
L 53.609375 0 
L 7.328125 0 
L 7.328125 8.296875 
Q 12.9375 14.109375 22.625 23.890625 
Q 32.328125 33.6875 34.8125 36.53125 
Q 39.546875 41.84375 41.421875 45.53125 
Q 43.3125 49.21875 43.3125 52.78125 
Q 43.3125 58.59375 39.234375 62.25 
Q 35.15625 65.921875 28.609375 65.921875 
Q 23.96875 65.921875 18.8125 64.3125 
Q 13.671875 62.703125 7.8125 59.421875 
L 7.8125 69.390625 
Q 13.765625 71.78125 18.9375 73 
Q 24.125 74.21875 28.421875 74.21875 
Q 39.75 74.21875 46.484375 68.546875 
Q 53.21875 62.890625 53.21875 53.421875 
Q 53.21875 48.921875 51.53125 44.890625 
Q 49.859375 40.875 45.40625 35.40625 
Q 44.1875 33.984375 37.640625 27.21875 
Q 31.109375 20.453125 19.1875 8.296875 
z
" id="DejaVuSans-32"/>
      </defs>
      <g transform="translate(350.285156 783.558437)scale(0.1 -0.1)">
       <use xlink:href="#DejaVuSans-2212"/>
       <use x="83.789062" xlink:href="#DejaVuSans-32"/>
       <use x="147.412109" xlink:href="#DejaVuSans-30"/>
       <use x="211.035156" xlink:href="#DejaVuSans-30"/>
       <use x="274.658203" xlink:href="#DejaVuSans-30"/>
      </g>
     </g>
    </g>
    <g id="xtick_4">
     <g id="line2d_4">
      <g>
       <use style="stroke:#000000;stroke-width:0.8;" x="478.8" xlink:href="#maae94e8455" y="768.96"/>
      </g>
     </g>
     <g id="text_4">
      <!-- −1000 -->
      <defs>
       <path d="M 12.40625 8.296875 
L 28.515625 8.296875 
L 28.515625 63.921875 
L 10.984375 60.40625 
L 10.984375 69.390625 
L 28.421875 72.90625 
L 38.28125 72.90625 
L 38.28125 8.296875 
L 54.390625 8.296875 
L 54.390625 0 
L 12.40625 0 
z
" id="DejaVuSans-31"/>
      </defs>
      <g transform="translate(461.885156 783.558437)scale(0.1 -0.1)">
       <use xlink:href="#DejaVuSans-2212"/>
       <use x="83.789062" xlink:href="#DejaVuSans-31"/>
       <use x="147.412109" xlink:href="#DejaVuSans-30"/>
       <use x="211.035156" xlink:href="#DejaVuSans-30"/>
       <use x="274.658203" xlink:href="#DejaVuSans-30"/>
      </g>
     </g>
    </g>
    <g id="xtick_5">
     <g id="line2d_5">
      <g>
       <use style="stroke:#000000;stroke-width:0.8;" x="590.4" xlink:href="#maae94e8455" y="768.96"/>
      </g>
     </g>
     <g id="text_5">
      <!-- 0 -->
      <g transform="translate(587.21875 783.558437)scale(0.1 -0.1)">
       <use xlink:href="#DejaVuSans-30"/>
      </g>
     </g>
    </g>
    <g id="xtick_6">
     <g id="line2d_6">
      <g>
       <use style="stroke:#000000;stroke-width:0.8;" x="702" xlink:href="#maae94e8455" y="768.96"/>
      </g>
     </g>
     <g id="text_6">
      <!-- 1000 -->
      <g transform="translate(689.275 783.558437)scale(0.1 -0.1)">
       <use xlink:href="#DejaVuSans-31"/>
       <use x="63.623047" xlink:href="#DejaVuSans-30"/>
       <use x="127.246094" xlink:href="#DejaVuSans-30"/>
       <use x="190.869141" xlink:href="#DejaVuSans-30"/>
      </g>
     </g>
    </g>
    <g id="xtick_7">
     <g id="line2d_7">
      <g>
       <use style="stroke:#000000;stroke-width:0.8;" x="813.6" xlink:href="#maae94e8455" y="768.96"/>
      </g>
     </g>
     <g id="text_7">
      <!-- 2000 -->
      <g transform="translate(800.875 783.558437)scale(0.1 -0.1)">
       <use xlink:href="#DejaVuSans-32"/>
       <use x="63.623047" xlink:href="#DejaVuSans-30"/>
       <use x="127.246094" xlink:href="#DejaVuSans-30"/>
       <use x="190.869141" xlink:href="#DejaVuSans-30"/>
      </g>
     </g>
    </g>
    <g id="xtick_8">
     <g id="line2d_8">
      <g>
       <use style="stroke:#000000;stroke-width:0.8;" x="925.2" xlink:href="#maae94e8455" y="768.96"/>
      </g>
     </g>
     <g id="text_8">
      <!-- 3000 -->
      <g transform="translate(912.475 783.558437)scale(0.1 -0.1)">
       <use xlink:href="#DejaVuSans-33"/>
       <use x="63.623047" xlink:href="#DejaVuSans-30"/>
       <use x="127.246094" xlink:href="#DejaVuSans-30"/>
       <use x="190.869141" xlink:href="#DejaVuSans-30"/>
      </g>
     </g>
    </g>
    <g id="xtick_9">
     <g id="line2d_9">
      <g>
       <use style="stroke:#000000;stroke-width:0.8;" x="1036.8" xlink:href="#maae94e8455" y="768.96"/>
      </g>
     </g>
     <g id="text_9">
      <!-- 4000 -->
      <g transform="translate(1024.075 783.558437)scale(0.1 -0.1)">
       <use xlink:href="#DejaVuSans-34"/>
       <use x="63.623047" xlink:href="#DejaVuSans-30"/>
       <use x="127.246094" xlink:href="#DejaVuSans-30"/>
       <use x="190.869141" xlink:href="#DejaVuSans-30"/>
      </g>
     </g>
    </g>
   </g>
   <g id="matplotlib.axis_2">
    <g id="ytick_1">
     <g id="line2d_10">
      <defs>
       <path d="M 0 0 
L -3.5 0 
" id="mbe7f230960" style="stroke:#000000;stroke-width:0.8;"/>
      </defs>
      <g>
       <use style="stroke:#000000;stroke-width:0.8;" x="144" xlink:href="#mbe7f230960" y="768.96"/>
      </g>
     </g>
     <g id="text_10">
      <!-- −4000 -->
      <g transform="translate(103.170312 772.759219)scale(0.1 -0.1)">
       <use xlink:href="#DejaVuSans-2212"/>
       <use x="83.789062" xlink:href="#DejaVuSans-34"/>
       <use x="147.412109" xlink:href="#DejaVuSans-30"/>
       <use x="211.035156" xlink:href="#DejaVuSans-30"/>
       <use x="274.658203" xlink:href="#DejaVuSans-30"/>
      </g>
     </g>
    </g>
    <g id="ytick_2">
     <g id="line2d_11">
      <g>
       <use style="stroke:#000000;stroke-width:0.8;" x="144" xlink:href="#mbe7f230960" y="685.8"/>
      </g>
     </g>
     <g id="text_11">
      <!-- −3000 -->
      <g transform="translate(103.170312 689.599219)scale(0.1 -0.1)">
       <use xlink:href="#DejaVuSans-2212"/>
       <use x="83.789062" xlink:href="#DejaVuSans-33"/>
       <use x="147.412109" xlink:href="#DejaVuSans-30"/>
       <use x="211.035156" xlink:href="#DejaVuSans-30"/>
       <use x="274.658203" xlink:href="#DejaVuSans-30"/>
      </g>
     </g>
    </g>
    <g id="ytick_3">
     <g id="line2d_12">
      <g>
       <use style="stroke:#000000;stroke-width:0.8;" x="144" xlink:href="#mbe7f230960" y="602.64"/>
      </g>
     </g>
     <g id="text_12">
      <!-- −2000 -->
      <g transform="translate(103.170312 606.439219)scale(0.1 -0.1)">
       <use xlink:href="#DejaVuSans-2212"/>
       <use x="83.789062" xlink:href="#DejaVuSans-32"/>
       <use x="147.412109" xlink:href="#DejaVuSans-30"/>
       <use x="211.035156" xlink:href="#DejaVuSans-30"/>
       <use x="274.658203" xlink:href="#DejaVuSans-30"/>
      </g>
     </g>
    </g>
    <g id="ytick_4">
     <g id="line2d_13">
      <g>
       <use style="stroke:#000000;stroke-width:0.8;" x="144" xlink:href="#mbe7f230960" y="519.48"/>
      </g>
     </g>
     <g id="text_13">
      <!-- −1000 -->
      <g transform="translate(103.170312 523.279219)scale(0.1 -0.1)">
       <use xlink:href="#DejaVuSans-2212"/>
       <use x="83.789062" xlink:href="#DejaVuSans-31"/>
       <use x="147.412109" xlink:href="#DejaVuSans-30"/>
       <use x="211.035156" xlink:href="#DejaVuSans-30"/>
       <use x="274.658203" xlink:href="#DejaVuSans-30"/>
      </g>
     </g>
    </g>
    <g id="ytick_5">
     <g id="line2d_14">
      <g>
       <use style="stroke:#000000;stroke-width:0.8;" x="144" xlink:href="#mbe7f230960" y="436.32"/>
      </g>
     </g>
     <g id="text_14">
      <!-- 0 -->
      <g transform="translate(130.6375 440.119219)scale(0.1 -0.1)">
       <use xlink:href="#DejaVuSans-30"/>
      </g>
     </g>
    </g>
    <g id="ytick_6">
     <g id="line2d_15">
      <g>
       <use style="stroke:#000000;stroke-width:0.8;" x="144" xlink:href="#mbe7f230960" y="353.16"/>
      </g>
     </g>
     <g id="text_15">
      <!-- 1000 -->
      <g transform="translate(111.55 356.959219)scale(0.1 -0.1)">
       <use xlink:href="#DejaVuSans-31"/>
       <use x="63.623047" xlink:href="#DejaVuSans-30"/>
       <use x="127.246094" xlink:href="#DejaVuSans-30"/>
       <use x="190.869141" xlink:href="#DejaVuSans-30"/>
      </g>
     </g>
    </g>
    <g id="ytick_7">
     <g id="line2d_16">
      <g>
       <use style="stroke:#000000;stroke-width:0.8;" x="144" xlink:href="#mbe7f230960" y="270"/>
      </g>
     </g>
     <g id="text_16">
      <!-- 2000 -->
      <g transform="translate(111.55 273.799219)scale(0.1 -0.1)">
       <use xlink:href="#DejaVuSans-32"/>
       <use x="63.623047" xlink:href="#DejaVuSans-30"/>
       <use x="127.246094" xlink:href="#DejaVuSans-30"/>
       <use x="190.869141" xlink:href="#DejaVuSans-30"/>
      </g>
     </g>
    </g>
    <g id="ytick_8">
     <g id="line2d_17">
      <g>
       <use style="stroke:#000000;stroke-width:0.8;" x="144" xlink:href="#mbe7f230960" y="186.84"/>
      </g>
     </g>
     <g id="text_17">
      <!-- 3000 -->
      <g transform="translate(111.55 190.639219)scale(0.1 -0.1)">
       <use xlink:href="#DejaVuSans-33"/>
       <use x="63.623047" xlink:href="#DejaVuSans-30"/>
       <use x="127.246094" xlink:href="#DejaVuSans-30"/>
       <use x="190.869141" xlink:href="#DejaVuSans-30"/>
      </g>
     </g>
    </g>
    <g id="ytick_9">
     <g id="line2d_18">
      <g>
       <use style="stroke:#000000;stroke-width:0.8;" x="144" xlink:href="#mbe7f230960" y="103.68"/>
      </g>
     </g>
     <g id="text_18">
      <!-- 4000 -->
      <g transform="translate(111.55 107.479219)scale(0.1 -0.1)">
       <use xlink:href="#DejaVuSans-34"/>
       <use x="63.623047" xlink:href="#DejaVuSans-30"/>
       <use x="127.246094" xlink:href="#DejaVuSans-30"/>
       <use x="190.869141" xlink:href="#DejaVuSans-30"/>
      </g>
     </g>
    </g>
   </g>
   <g id="line2d_19">
    <path clip-path="url(#pc31a1478e4)" d="M 590.4 768.96 
L 590.4 103.68 
" style="fill:none;stroke:#1f77b4;stroke-linecap:square;stroke-width:1.5;"/>
   </g>
   <g id="line2d_20">
    <path clip-path="url(#pc31a1478e4)" d="M 144 436.32 
L 1036.8 436.32 
" style="fill:none;stroke:#1f77b4;stroke-linecap:square;stroke-width:1.5;"/>
   </g>
   <g id="line2d_21">
    <defs>
     <path d="M 0 3 
C 0.795609 3 1.55874 2.683901 2.12132 2.12132 
C 2.683901 1.55874 3 0.795609 3 0 
C 3 -0.795609 2.683901 -1.55874 2.12132 -2.12132 
C 1.55874 -2.683901 0.795609 -3 0 -3 
C -0.795609 -3 -1.55874 -2.683901 -2.12132 -2.12132 
C -2.683901 -1.55874 -3 -0.795609 -3 0 
C -3 0.795609 -2.683901 1.55874 -2.12132 2.12132 
C -1.55874 2.683901 -0.795609 3 0 3 
z
" id="m7a7590a5c9" style="stroke:#008000;"/>
    </defs>
    <g clip-path="url(#pc31a1478e4)">
     <use style="fill:#008000;stroke:#008000;" x="1187.654468" xlink:href="#m7a7590a5c9" y="493.18431"/>
    </g>
   </g>
   <g id="line2d_22">
    <g clip-path="url(#pc31a1478e4)">
     <use style="fill:#008000;stroke:#008000;" x="1082.493594" xlink:href="#m7a7590a5c9" y="438.219997"/>
    </g>
   </g>
   <g id="line2d_23">
    <g clip-path="url(#pc31a1478e4)">
     <use style="fill:#008000;stroke:#008000;" x="1285.883298" xlink:href="#m7a7590a5c9" y="345.813124"/>
    </g>
   </g>
   <g id="line2d_24">
    <g clip-path="url(#pc31a1478e4)">
     <use style="fill:#008000;stroke:#008000;" x="1410.530144" xlink:href="#m7a7590a5c9" y="291.538383"/>
    </g>
   </g>
   <g id="line2d_25">
    <g clip-path="url(#pc31a1478e4)">
     <use style="fill:#008000;stroke:#008000;" x="1319.900664" xlink:href="#m7a7590a5c9" y="272.392883"/>
    </g>
   </g>
   <g id="line2d_26">
    <g clip-path="url(#pc31a1478e4)">
     <use style="fill:#008000;stroke:#008000;" x="646.964526" xlink:href="#m7a7590a5c9" y="392.385895"/>
    </g>
   </g>
   <g id="line2d_27">
    <g clip-path="url(#pc31a1478e4)">
     <use style="fill:#008000;stroke:#008000;" x="646.964526" xlink:href="#m7a7590a5c9" y="392.385895"/>
    </g>
   </g>
   <g id="line2d_28">
    <g clip-path="url(#pc31a1478e4)">
     <use style="fill:#008000;stroke:#008000;" x="559.12237" xlink:href="#m7a7590a5c9" y="225.630365"/>
    </g>
   </g>
   <g id="line2d_29">
    <g clip-path="url(#pc31a1478e4)">
     <use style="fill:#008000;stroke:#008000;" x="574.755778" xlink:href="#m7a7590a5c9" y="394.461888"/>
    </g>
   </g>
   <g id="line2d_30">
    <g clip-path="url(#pc31a1478e4)">
     <use style="fill:#008000;stroke:#008000;" x="574.755778" xlink:href="#m7a7590a5c9" y="394.461888"/>
    </g>
   </g>
   <g id="line2d_31">
    <g clip-path="url(#pc31a1478e4)">
     <use style="fill:#008000;stroke:#008000;" x="461.432823" xlink:href="#m7a7590a5c9" y="247.964522"/>
    </g>
   </g>
   <g id="line2d_32">
    <g clip-path="url(#pc31a1478e4)">
     <use style="fill:#008000;stroke:#008000;" x="403.211823" xlink:href="#m7a7590a5c9" y="447.297738"/>
    </g>
   </g>
   <g id="line2d_33">
    <g clip-path="url(#pc31a1478e4)">
     <use style="fill:#008000;stroke:#008000;" x="576.699856" xlink:href="#m7a7590a5c9" y="616.102969"/>
    </g>
   </g>
   <g id="line2d_34">
    <g clip-path="url(#pc31a1478e4)">
     <use style="fill:#008000;stroke:#008000;" x="696.060702" xlink:href="#m7a7590a5c9" y="597.192064"/>
    </g>
   </g>
   <g id="line2d_35">
    <defs>
     <path d="M 0 1.333333 
C 0.353604 1.333333 0.692773 1.192845 0.942809 0.942809 
C 1.192845 0.692773 1.333333 0.353604 1.333333 0 
C 1.333333 -0.353604 1.192845 -0.692773 0.942809 -0.942809 
C 0.692773 -1.192845 0.353604 -1.333333 0 -1.333333 
C -0.353604 -1.333333 -0.692773 -1.192845 -0.942809 -0.942809 
C -1.192845 -0.692773 -1.333333 -0.353604 -1.333333 0 
C -1.333333 0.353604 -1.192845 0.692773 -0.942809 0.942809 
C -0.692773 1.192845 -0.353604 1.333333 0 1.333333 
z
" id="me1442cb5dc" style="stroke:#ff0000;"/>
    </defs>
    <g clip-path="url(#pc31a1478e4)">
     <use style="fill:#ff0000;stroke:#ff0000;" x="1187.654468" xlink:href="#me1442cb5dc" y="493.18431"/>
     <use style="fill:#ff0000;stroke:#ff0000;" x="1082.493594" xlink:href="#me1442cb5dc" y="438.219997"/>
     <use style="fill:#ff0000;stroke:#ff0000;" x="1285.883298" xlink:href="#me1442cb5dc" y="345.813124"/>
     <use style="fill:#ff0000;stroke:#ff0000;" x="1410.530144" xlink:href="#me1442cb5dc" y="291.538383"/>
     <use style="fill:#ff0000;stroke:#ff0000;" x="1319.900664" xlink:href="#me1442cb5dc" y="272.392883"/>
     <use style="fill:#ff0000;stroke:#ff0000;" x="650.208199" xlink:href="#me1442cb5dc" y="399.683951"/>
     <use style="fill:#ff0000;stroke:#ff0000;" x="642.204915" xlink:href="#me1442cb5dc" y="385.17917"/>
     <use style="fill:#ff0000;stroke:#ff0000;" x="763.815656" xlink:href="#me1442cb5dc" y="196.296163"/>
     <use style="fill:#ff0000;stroke:#ff0000;" x="738.161349" xlink:href="#me1442cb5dc" y="198.675778"/>
     <use style="fill:#ff0000;stroke:#ff0000;" x="713.222048" xlink:href="#me1442cb5dc" y="202.670251"/>
     <use style="fill:#ff0000;stroke:#ff0000;" x="690.351056" xlink:href="#me1442cb5dc" y="206.027193"/>
     <use style="fill:#ff0000;stroke:#ff0000;" x="559.12237" xlink:href="#me1442cb5dc" y="225.630365"/>
     <use style="fill:#ff0000;stroke:#ff0000;" x="578.080854" xlink:href="#me1442cb5dc" y="393.190506"/>
     <use style="fill:#ff0000;stroke:#ff0000;" x="571.593726" xlink:href="#me1442cb5dc" y="395.872233"/>
     <use style="fill:#ff0000;stroke:#ff0000;" x="461.432823" xlink:href="#me1442cb5dc" y="247.964522"/>
     <use style="fill:#ff0000;stroke:#ff0000;" x="391.695056" xlink:href="#me1442cb5dc" y="284.573313"/>
     <use style="fill:#ff0000;stroke:#ff0000;" x="415.00645" xlink:href="#me1442cb5dc" y="318.123038"/>
     <use style="fill:#ff0000;stroke:#ff0000;" x="417.452237" xlink:href="#me1442cb5dc" y="333.233942"/>
     <use style="fill:#ff0000;stroke:#ff0000;" x="407.66892" xlink:href="#me1442cb5dc" y="363.204222"/>
     <use style="fill:#ff0000;stroke:#ff0000;" x="454.185511" xlink:href="#me1442cb5dc" y="390.230023"/>
     <use style="fill:#ff0000;stroke:#ff0000;" x="438.899038" xlink:href="#me1442cb5dc" y="415.014219"/>
     <use style="fill:#ff0000;stroke:#ff0000;" x="410.85924" xlink:href="#me1442cb5dc" y="442.929098"/>
     <use style="fill:#ff0000;stroke:#ff0000;" x="395.760436" xlink:href="#me1442cb5dc" y="452.004123"/>
     <use style="fill:#ff0000;stroke:#ff0000;" x="410.942822" xlink:href="#me1442cb5dc" y="503.905749"/>
     <use style="fill:#ff0000;stroke:#ff0000;" x="438.516474" xlink:href="#me1442cb5dc" y="502.654612"/>
     <use style="fill:#ff0000;stroke:#ff0000;" x="434.75432" xlink:href="#me1442cb5dc" y="513.72465"/>
     <use style="fill:#ff0000;stroke:#ff0000;" x="450.753229" xlink:href="#me1442cb5dc" y="515.448582"/>
     <use style="fill:#ff0000;stroke:#ff0000;" x="469.784355" xlink:href="#me1442cb5dc" y="513.934927"/>
     <use style="fill:#ff0000;stroke:#ff0000;" x="457.208467" xlink:href="#me1442cb5dc" y="532.47815"/>
     <use style="fill:#ff0000;stroke:#ff0000;" x="468.009976" xlink:href="#me1442cb5dc" y="536.011291"/>
     <use style="fill:#ff0000;stroke:#ff0000;" x="454.390264" xlink:href="#me1442cb5dc" y="560.50339"/>
     <use style="fill:#ff0000;stroke:#ff0000;" x="465.62707" xlink:href="#me1442cb5dc" y="582.968062"/>
     <use style="fill:#ff0000;stroke:#ff0000;" x="472.26227" xlink:href="#me1442cb5dc" y="595.133324"/>
     <use style="fill:#ff0000;stroke:#ff0000;" x="469.550107" xlink:href="#me1442cb5dc" y="624.327032"/>
     <use style="fill:#ff0000;stroke:#ff0000;" x="483.416216" xlink:href="#me1442cb5dc" y="631.790214"/>
     <use style="fill:#ff0000;stroke:#ff0000;" x="510.262171" xlink:href="#me1442cb5dc" y="612.394247"/>
     <use style="fill:#ff0000;stroke:#ff0000;" x="512.240357" xlink:href="#me1442cb5dc" y="648.125513"/>
     <use style="fill:#ff0000;stroke:#ff0000;" x="547.040879" xlink:href="#me1442cb5dc" y="652.105607"/>
     <use style="fill:#ff0000;stroke:#ff0000;" x="569.562966" xlink:href="#me1442cb5dc" y="615.481942"/>
     <use style="fill:#ff0000;stroke:#ff0000;" x="583.867892" xlink:href="#me1442cb5dc" y="616.56596"/>
     <use style="fill:#ff0000;stroke:#ff0000;" x="595.432697" xlink:href="#me1442cb5dc" y="511.403043"/>
     <use style="fill:#ff0000;stroke:#ff0000;" x="623.870183" xlink:href="#me1442cb5dc" y="520.4341"/>
     <use style="fill:#ff0000;stroke:#ff0000;" x="696.060702" xlink:href="#me1442cb5dc" y="597.192064"/>
     <use style="fill:#ff0000;stroke:#ff0000;" x="761.849482" xlink:href="#me1442cb5dc" y="590.358463"/>
     <use style="fill:#ff0000;stroke:#ff0000;" x="797.528234" xlink:href="#me1442cb5dc" y="582.706958"/>
     <use style="fill:#ff0000;stroke:#ff0000;" x="836.01285" xlink:href="#me1442cb5dc" y="571.980415"/>
     <use style="fill:#ff0000;stroke:#ff0000;" x="875.912266" xlink:href="#me1442cb5dc" y="575.475176"/>
     <use style="fill:#ff0000;stroke:#ff0000;" x="878.114169" xlink:href="#me1442cb5dc" y="558.778405"/>
     <use style="fill:#ff0000;stroke:#ff0000;" x="901.491013" xlink:href="#me1442cb5dc" y="550.716113"/>
     <use style="fill:#ff0000;stroke:#ff0000;" x="1059.418038" xlink:href="#me1442cb5dc" y="537.051751"/>
     <use style="fill:#ff0000;stroke:#ff0000;" x="1100.541956" xlink:href="#me1442cb5dc" y="521.682851"/>
    </g>
   </g>
   <g id="line2d_36">
    <defs>
     <path d="M -0.5 0.5 
L 0.5 0.5 
L 0.5 -0.5 
L -0.5 -0.5 
z
" id="mf531ff1445" style="stroke:#1f77b4;stroke-linejoin:miter;"/>
    </defs>
    <g clip-path="url(#pc31a1478e4)">
     <use style="fill:#1f77b4;stroke:#1f77b4;stroke-linejoin:miter;" x="1187.654468" xlink:href="#mf531ff1445" y="493.18431"/>
     <use style="fill:#1f77b4;stroke:#1f77b4;stroke-linejoin:miter;" x="1082.493594" xlink:href="#mf531ff1445" y="438.219997"/>
     <use style="fill:#1f77b4;stroke:#1f77b4;stroke-linejoin:miter;" x="1285.883298" xlink:href="#mf531ff1445" y="345.813124"/>
     <use style="fill:#1f77b4;stroke:#1f77b4;stroke-linejoin:miter;" x="1410.530144" xlink:href="#mf531ff1445" y="291.538383"/>
     <use style="fill:#1f77b4;stroke:#1f77b4;stroke-linejoin:miter;" x="1319.900664" xlink:href="#mf531ff1445" y="272.392883"/>
     <use style="fill:#1f77b4;stroke:#1f77b4;stroke-linejoin:miter;" x="650.208199" xlink:href="#mf531ff1445" y="399.683951"/>
     <use style="fill:#1f77b4;stroke:#1f77b4;stroke-linejoin:miter;" x="647.210069" xlink:href="#mf531ff1445" y="397.123811"/>
     <use style="fill:#1f77b4;stroke:#1f77b4;stroke-linejoin:miter;" x="645.127417" xlink:href="#mf531ff1445" y="393.766357"/>
     <use style="fill:#1f77b4;stroke:#1f77b4;stroke-linejoin:miter;" x="641.654159" xlink:href="#mf531ff1445" y="391.428949"/>
     <use style="fill:#1f77b4;stroke:#1f77b4;stroke-linejoin:miter;" x="642.204915" xlink:href="#mf531ff1445" y="385.17917"/>
     <use style="fill:#1f77b4;stroke:#1f77b4;stroke-linejoin:miter;" x="763.815656" xlink:href="#mf531ff1445" y="196.296163"/>
     <use style="fill:#1f77b4;stroke:#1f77b4;stroke-linejoin:miter;" x="738.161349" xlink:href="#mf531ff1445" y="198.675778"/>
     <use style="fill:#1f77b4;stroke:#1f77b4;stroke-linejoin:miter;" x="713.222048" xlink:href="#mf531ff1445" y="202.670251"/>
     <use style="fill:#1f77b4;stroke:#1f77b4;stroke-linejoin:miter;" x="690.351056" xlink:href="#mf531ff1445" y="206.027193"/>
     <use style="fill:#1f77b4;stroke:#1f77b4;stroke-linejoin:miter;" x="668.627088" xlink:href="#mf531ff1445" y="210.41412"/>
     <use style="fill:#1f77b4;stroke:#1f77b4;stroke-linejoin:miter;" x="648.808613" xlink:href="#mf531ff1445" y="213.059458"/>
     <use style="fill:#1f77b4;stroke:#1f77b4;stroke-linejoin:miter;" x="629.721867" xlink:href="#mf531ff1445" y="215.616438"/>
     <use style="fill:#1f77b4;stroke:#1f77b4;stroke-linejoin:miter;" x="610.873824" xlink:href="#mf531ff1445" y="218.996435"/>
     <use style="fill:#1f77b4;stroke:#1f77b4;stroke-linejoin:miter;" x="593.276483" xlink:href="#mf531ff1445" y="223.898594"/>
     <use style="fill:#1f77b4;stroke:#1f77b4;stroke-linejoin:miter;" x="576.106452" xlink:href="#mf531ff1445" y="225.383123"/>
     <use style="fill:#1f77b4;stroke:#1f77b4;stroke-linejoin:miter;" x="559.12237" xlink:href="#mf531ff1445" y="225.630365"/>
     <use style="fill:#1f77b4;stroke:#1f77b4;stroke-linejoin:miter;" x="578.080854" xlink:href="#mf531ff1445" y="393.190506"/>
     <use style="fill:#1f77b4;stroke:#1f77b4;stroke-linejoin:miter;" x="575.048013" xlink:href="#mf531ff1445" y="395.545125"/>
     <use style="fill:#1f77b4;stroke:#1f77b4;stroke-linejoin:miter;" x="571.593726" xlink:href="#mf531ff1445" y="395.872233"/>
     <use style="fill:#1f77b4;stroke:#1f77b4;stroke-linejoin:miter;" x="461.432823" xlink:href="#mf531ff1445" y="247.964522"/>
     <use style="fill:#1f77b4;stroke:#1f77b4;stroke-linejoin:miter;" x="443.62273" xlink:href="#mf531ff1445" y="250.41014"/>
     <use style="fill:#1f77b4;stroke:#1f77b4;stroke-linejoin:miter;" x="425.419624" xlink:href="#mf531ff1445" y="253.19791"/>
     <use style="fill:#1f77b4;stroke:#1f77b4;stroke-linejoin:miter;" x="415.794905" xlink:href="#mf531ff1445" y="265.79785"/>
     <use style="fill:#1f77b4;stroke:#1f77b4;stroke-linejoin:miter;" x="399.406169" xlink:href="#mf531ff1445" y="271.511996"/>
     <use style="fill:#1f77b4;stroke:#1f77b4;stroke-linejoin:miter;" x="391.695056" xlink:href="#mf531ff1445" y="284.573313"/>
     <use style="fill:#1f77b4;stroke:#1f77b4;stroke-linejoin:miter;" x="415.00645" xlink:href="#mf531ff1445" y="318.123038"/>
     <use style="fill:#1f77b4;stroke:#1f77b4;stroke-linejoin:miter;" x="417.452237" xlink:href="#mf531ff1445" y="333.233942"/>
     <use style="fill:#1f77b4;stroke:#1f77b4;stroke-linejoin:miter;" x="422.344736" xlink:href="#mf531ff1445" y="348.175376"/>
     <use style="fill:#1f77b4;stroke:#1f77b4;stroke-linejoin:miter;" x="417.862319" xlink:href="#mf531ff1445" y="356.856402"/>
     <use style="fill:#1f77b4;stroke:#1f77b4;stroke-linejoin:miter;" x="407.66892" xlink:href="#mf531ff1445" y="363.204222"/>
     <use style="fill:#1f77b4;stroke:#1f77b4;stroke-linejoin:miter;" x="454.185511" xlink:href="#mf531ff1445" y="390.230023"/>
     <use style="fill:#1f77b4;stroke:#1f77b4;stroke-linejoin:miter;" x="455.3186" xlink:href="#mf531ff1445" y="397.744209"/>
     <use style="fill:#1f77b4;stroke:#1f77b4;stroke-linejoin:miter;" x="457.082671" xlink:href="#mf531ff1445" y="405.086631"/>
     <use style="fill:#1f77b4;stroke:#1f77b4;stroke-linejoin:miter;" x="458.003602" xlink:href="#mf531ff1445" y="411.779275"/>
     <use style="fill:#1f77b4;stroke:#1f77b4;stroke-linejoin:miter;" x="438.899038" xlink:href="#mf531ff1445" y="415.014219"/>
     <use style="fill:#1f77b4;stroke:#1f77b4;stroke-linejoin:miter;" x="425.684065" xlink:href="#mf531ff1445" y="420.603455"/>
     <use style="fill:#1f77b4;stroke:#1f77b4;stroke-linejoin:miter;" x="417.926801" xlink:href="#mf531ff1445" y="427.614698"/>
     <use style="fill:#1f77b4;stroke:#1f77b4;stroke-linejoin:miter;" x="420.302359" xlink:href="#mf531ff1445" y="435.041024"/>
     <use style="fill:#1f77b4;stroke:#1f77b4;stroke-linejoin:miter;" x="410.85924" xlink:href="#mf531ff1445" y="442.929098"/>
     <use style="fill:#1f77b4;stroke:#1f77b4;stroke-linejoin:miter;" x="395.760436" xlink:href="#mf531ff1445" y="452.004123"/>
     <use style="fill:#1f77b4;stroke:#1f77b4;stroke-linejoin:miter;" x="398.894479" xlink:href="#mf531ff1445" y="460.520373"/>
     <use style="fill:#1f77b4;stroke:#1f77b4;stroke-linejoin:miter;" x="401.935398" xlink:href="#mf531ff1445" y="468.863368"/>
     <use style="fill:#1f77b4;stroke:#1f77b4;stroke-linejoin:miter;" x="404.714452" xlink:href="#mf531ff1445" y="477.141658"/>
     <use style="fill:#1f77b4;stroke:#1f77b4;stroke-linejoin:miter;" x="405.761928" xlink:href="#mf531ff1445" y="486.057238"/>
     <use style="fill:#1f77b4;stroke:#1f77b4;stroke-linejoin:miter;" x="408.285965" xlink:href="#mf531ff1445" y="494.97422"/>
     <use style="fill:#1f77b4;stroke:#1f77b4;stroke-linejoin:miter;" x="410.942822" xlink:href="#mf531ff1445" y="503.905749"/>
     <use style="fill:#1f77b4;stroke:#1f77b4;stroke-linejoin:miter;" x="438.516474" xlink:href="#mf531ff1445" y="502.654612"/>
     <use style="fill:#1f77b4;stroke:#1f77b4;stroke-linejoin:miter;" x="434.75432" xlink:href="#mf531ff1445" y="513.72465"/>
     <use style="fill:#1f77b4;stroke:#1f77b4;stroke-linejoin:miter;" x="450.753229" xlink:href="#mf531ff1445" y="515.448582"/>
     <use style="fill:#1f77b4;stroke:#1f77b4;stroke-linejoin:miter;" x="469.784355" xlink:href="#mf531ff1445" y="513.934927"/>
     <use style="fill:#1f77b4;stroke:#1f77b4;stroke-linejoin:miter;" x="457.208467" xlink:href="#mf531ff1445" y="532.47815"/>
     <use style="fill:#1f77b4;stroke:#1f77b4;stroke-linejoin:miter;" x="468.009976" xlink:href="#mf531ff1445" y="536.011291"/>
     <use style="fill:#1f77b4;stroke:#1f77b4;stroke-linejoin:miter;" x="454.390264" xlink:href="#mf531ff1445" y="560.50339"/>
     <use style="fill:#1f77b4;stroke:#1f77b4;stroke-linejoin:miter;" x="465.62707" xlink:href="#mf531ff1445" y="582.968062"/>
     <use style="fill:#1f77b4;stroke:#1f77b4;stroke-linejoin:miter;" x="472.26227" xlink:href="#mf531ff1445" y="595.133324"/>
     <use style="fill:#1f77b4;stroke:#1f77b4;stroke-linejoin:miter;" x="469.550107" xlink:href="#mf531ff1445" y="624.327032"/>
     <use style="fill:#1f77b4;stroke:#1f77b4;stroke-linejoin:miter;" x="483.416216" xlink:href="#mf531ff1445" y="631.790214"/>
     <use style="fill:#1f77b4;stroke:#1f77b4;stroke-linejoin:miter;" x="510.262171" xlink:href="#mf531ff1445" y="612.394247"/>
     <use style="fill:#1f77b4;stroke:#1f77b4;stroke-linejoin:miter;" x="512.240357" xlink:href="#mf531ff1445" y="648.125513"/>
     <use style="fill:#1f77b4;stroke:#1f77b4;stroke-linejoin:miter;" x="528.005385" xlink:href="#mf531ff1445" y="655.645457"/>
     <use style="fill:#1f77b4;stroke:#1f77b4;stroke-linejoin:miter;" x="547.040879" xlink:href="#mf531ff1445" y="652.105607"/>
     <use style="fill:#1f77b4;stroke:#1f77b4;stroke-linejoin:miter;" x="569.562966" xlink:href="#mf531ff1445" y="615.481942"/>
     <use style="fill:#1f77b4;stroke:#1f77b4;stroke-linejoin:miter;" x="583.867892" xlink:href="#mf531ff1445" y="616.56596"/>
     <use style="fill:#1f77b4;stroke:#1f77b4;stroke-linejoin:miter;" x="595.432697" xlink:href="#mf531ff1445" y="511.403043"/>
     <use style="fill:#1f77b4;stroke:#1f77b4;stroke-linejoin:miter;" x="601.476081" xlink:href="#mf531ff1445" y="509.828928"/>
     <use style="fill:#1f77b4;stroke:#1f77b4;stroke-linejoin:miter;" x="607.811115" xlink:href="#mf531ff1445" y="511.21276"/>
     <use style="fill:#1f77b4;stroke:#1f77b4;stroke-linejoin:miter;" x="616.20653" xlink:href="#mf531ff1445" y="519.510889"/>
     <use style="fill:#1f77b4;stroke:#1f77b4;stroke-linejoin:miter;" x="623.870183" xlink:href="#mf531ff1445" y="520.4341"/>
     <use style="fill:#1f77b4;stroke:#1f77b4;stroke-linejoin:miter;" x="696.060702" xlink:href="#mf531ff1445" y="597.192064"/>
     <use style="fill:#1f77b4;stroke:#1f77b4;stroke-linejoin:miter;" x="761.849482" xlink:href="#mf531ff1445" y="590.358463"/>
     <use style="fill:#1f77b4;stroke:#1f77b4;stroke-linejoin:miter;" x="777.906703" xlink:href="#mf531ff1445" y="585.745281"/>
     <use style="fill:#1f77b4;stroke:#1f77b4;stroke-linejoin:miter;" x="797.528234" xlink:href="#mf531ff1445" y="582.706958"/>
     <use style="fill:#1f77b4;stroke:#1f77b4;stroke-linejoin:miter;" x="820.982386" xlink:href="#mf531ff1445" y="581.054831"/>
     <use style="fill:#1f77b4;stroke:#1f77b4;stroke-linejoin:miter;" x="836.01285" xlink:href="#mf531ff1445" y="571.980415"/>
     <use style="fill:#1f77b4;stroke:#1f77b4;stroke-linejoin:miter;" x="875.912266" xlink:href="#mf531ff1445" y="575.475176"/>
     <use style="fill:#1f77b4;stroke:#1f77b4;stroke-linejoin:miter;" x="878.114169" xlink:href="#mf531ff1445" y="558.778405"/>
     <use style="fill:#1f77b4;stroke:#1f77b4;stroke-linejoin:miter;" x="901.491013" xlink:href="#mf531ff1445" y="550.716113"/>
     <use style="fill:#1f77b4;stroke:#1f77b4;stroke-linejoin:miter;" x="1059.418038" xlink:href="#mf531ff1445" y="537.051751"/>
     <use style="fill:#1f77b4;stroke:#1f77b4;stroke-linejoin:miter;" x="1100.541956" xlink:href="#mf531ff1445" y="521.682851"/>
    </g>
   </g>
   <g id="patch_3">
    <path d="M 144 768.96 
L 144 103.68 
" style="fill:none;stroke:#000000;stroke-linecap:square;stroke-linejoin:miter;stroke-width:0.8;"/>
   </g>
   <g id="patch_4">
    <path d="M 1036.8 768.96 
L 1036.8 103.68 
" style="fill:none;stroke:#000000;stroke-linecap:square;stroke-linejoin:miter;stroke-width:0.8;"/>
   </g>
   <g id="patch_5">
    <path d="M 144 768.96 
L 1036.8 768.96 
" style="fill:none;stroke:#000000;stroke-linecap:square;stroke-linejoin:miter;stroke-width:0.8;"/>
   </g>
   <g id="patch_6">
    <path d="M 144 103.68 
L 1036.8 103.68 
" style="fill:none;stroke:#000000;stroke-linecap:square;stroke-linejoin:miter;stroke-width:0.8;"/>
   </g>
  </g>
 </g>
 <defs>
  <clipPath id="pc31a1478e4">
   <rect height="665.28" width="892.8" x="144" y="103.68"/>
  </clipPath>
 </defs>
</svg>
