<?xml version="1.0" encoding="utf-8" standalone="no"?>
<!DOCTYPE svg PUBLIC "-//W3C//DTD SVG 1.1//EN"
  "http://www.w3.org/Graphics/SVG/1.1/DTD/svg11.dtd">
<!-- Created with matplotlib (http://matplotlib.org/) -->
<svg height="864pt" version="1.1" viewBox="0 0 1152 864" width="1152pt" xmlns="http://www.w3.org/2000/svg" xmlns:xlink="http://www.w3.org/1999/xlink">
 <defs>
  <style type="text/css">
*{stroke-linecap:butt;stroke-linejoin:round;}
  </style>
 </defs>
 <g id="figure_1">
  <g id="patch_1">
   <path d="M 0 864 
L 1152 864 
L 1152 0 
L 0 0 
z
" style="fill:#ffffff;"/>
  </g>
  <g id="axes_1">
   <g id="patch_2">
    <path d="M 144 768.96 
L 1036.8 768.96 
L 1036.8 103.68 
L 144 103.68 
z
" style="fill:#ffffff;"/>
   </g>
   <g id="matplotlib.axis_1">
    <g id="xtick_1">
     <g id="line2d_1">
      <defs>
       <path d="M 0 0 
L 0 3.5 
" id="m6ca10fc45d" style="stroke:#000000;stroke-width:0.8;"/>
      </defs>
      <g>
       <use style="stroke:#000000;stroke-width:0.8;" x="144" xlink:href="#m6ca10fc45d" y="768.96"/>
      </g>
     </g>
     <g id="text_1">
      <!-- −4000 -->
      <defs>
       <path d="M 10.59375 35.5 
L 73.1875 35.5 
L 73.1875 27.203125 
L 10.59375 27.203125 
z
" id="DejaVuSans-2212"/>
       <path d="M 37.796875 64.3125 
L 12.890625 25.390625 
L 37.796875 25.390625 
z
M 35.203125 72.90625 
L 47.609375 72.90625 
L 47.609375 25.390625 
L 58.015625 25.390625 
L 58.015625 17.1875 
L 47.609375 17.1875 
L 47.609375 0 
L 37.796875 0 
L 37.796875 17.1875 
L 4.890625 17.1875 
L 4.890625 26.703125 
z
" id="DejaVuSans-34"/>
       <path d="M 31.78125 66.40625 
Q 24.171875 66.40625 20.328125 58.90625 
Q 16.5 51.421875 16.5 36.375 
Q 16.5 21.390625 20.328125 13.890625 
Q 24.171875 6.390625 31.78125 6.390625 
Q 39.453125 6.390625 43.28125 13.890625 
Q 47.125 21.390625 47.125 36.375 
Q 47.125 51.421875 43.28125 58.90625 
Q 39.453125 66.40625 31.78125 66.40625 
z
M 31.78125 74.21875 
Q 44.046875 74.21875 50.515625 64.515625 
Q 56.984375 54.828125 56.984375 36.375 
Q 56.984375 17.96875 50.515625 8.265625 
Q 44.046875 -1.421875 31.78125 -1.421875 
Q 19.53125 -1.421875 13.0625 8.265625 
Q 6.59375 17.96875 6.59375 36.375 
Q 6.59375 54.828125 13.0625 64.515625 
Q 19.53125 74.21875 31.78125 74.21875 
z
" id="DejaVuSans-30"/>
      </defs>
      <g transform="translate(127.085156 783.558437)scale(0.1 -0.1)">
       <use xlink:href="#DejaVuSans-2212"/>
       <use x="83.789062" xlink:href="#DejaVuSans-34"/>
       <use x="147.412109" xlink:href="#DejaVuSans-30"/>
       <use x="211.035156" xlink:href="#DejaVuSans-30"/>
       <use x="274.658203" xlink:href="#DejaVuSans-30"/>
      </g>
     </g>
    </g>
    <g id="xtick_2">
     <g id="line2d_2">
      <g>
       <use style="stroke:#000000;stroke-width:0.8;" x="255.6" xlink:href="#m6ca10fc45d" y="768.96"/>
      </g>
     </g>
     <g id="text_2">
      <!-- −3000 -->
      <defs>
       <path d="M 40.578125 39.3125 
Q 47.65625 37.796875 51.625 33 
Q 55.609375 28.21875 55.609375 21.1875 
Q 55.609375 10.40625 48.1875 4.484375 
Q 40.765625 -1.421875 27.09375 -1.421875 
Q 22.515625 -1.421875 17.65625 -0.515625 
Q 12.796875 0.390625 7.625 2.203125 
L 7.625 11.71875 
Q 11.71875 9.328125 16.59375 8.109375 
Q 21.484375 6.890625 26.8125 6.890625 
Q 36.078125 6.890625 40.9375 10.546875 
Q 45.796875 14.203125 45.796875 21.1875 
Q 45.796875 27.640625 41.28125 31.265625 
Q 36.765625 34.90625 28.71875 34.90625 
L 20.21875 34.90625 
L 20.21875 43.015625 
L 29.109375 43.015625 
Q 36.375 43.015625 40.234375 45.921875 
Q 44.09375 48.828125 44.09375 54.296875 
Q 44.09375 59.90625 40.109375 62.90625 
Q 36.140625 65.921875 28.71875 65.921875 
Q 24.65625 65.921875 20.015625 65.03125 
Q 15.375 64.15625 9.8125 62.3125 
L 9.8125 71.09375 
Q 15.4375 72.65625 20.34375 73.4375 
Q 25.25 74.21875 29.59375 74.21875 
Q 40.828125 74.21875 47.359375 69.109375 
Q 53.90625 64.015625 53.90625 55.328125 
Q 53.90625 49.265625 50.4375 45.09375 
Q 46.96875 40.921875 40.578125 39.3125 
z
" id="DejaVuSans-33"/>
      </defs>
      <g transform="translate(238.685156 783.558437)scale(0.1 -0.1)">
       <use xlink:href="#DejaVuSans-2212"/>
       <use x="83.789062" xlink:href="#DejaVuSans-33"/>
       <use x="147.412109" xlink:href="#DejaVuSans-30"/>
       <use x="211.035156" xlink:href="#DejaVuSans-30"/>
       <use x="274.658203" xlink:href="#DejaVuSans-30"/>
      </g>
     </g>
    </g>
    <g id="xtick_3">
     <g id="line2d_3">
      <g>
       <use style="stroke:#000000;stroke-width:0.8;" x="367.2" xlink:href="#m6ca10fc45d" y="768.96"/>
      </g>
     </g>
     <g id="text_3">
      <!-- −2000 -->
      <defs>
       <path d="M 19.1875 8.296875 
L 53.609375 8.296875 
L 53.609375 0 
L 7.328125 0 
L 7.328125 8.296875 
Q 12.9375 14.109375 22.625 23.890625 
Q 32.328125 33.6875 34.8125 36.53125 
Q 39.546875 41.84375 41.421875 45.53125 
Q 43.3125 49.21875 43.3125 52.78125 
Q 43.3125 58.59375 39.234375 62.25 
Q 35.15625 65.921875 28.609375 65.921875 
Q 23.96875 65.921875 18.8125 64.3125 
Q 13.671875 62.703125 7.8125 59.421875 
L 7.8125 69.390625 
Q 13.765625 71.78125 18.9375 73 
Q 24.125 74.21875 28.421875 74.21875 
Q 39.75 74.21875 46.484375 68.546875 
Q 53.21875 62.890625 53.21875 53.421875 
Q 53.21875 48.921875 51.53125 44.890625 
Q 49.859375 40.875 45.40625 35.40625 
Q 44.1875 33.984375 37.640625 27.21875 
Q 31.109375 20.453125 19.1875 8.296875 
z
" id="DejaVuSans-32"/>
      </defs>
      <g transform="translate(350.285156 783.558437)scale(0.1 -0.1)">
       <use xlink:href="#DejaVuSans-2212"/>
       <use x="83.789062" xlink:href="#DejaVuSans-32"/>
       <use x="147.412109" xlink:href="#DejaVuSans-30"/>
       <use x="211.035156" xlink:href="#DejaVuSans-30"/>
       <use x="274.658203" xlink:href="#DejaVuSans-30"/>
      </g>
     </g>
    </g>
    <g id="xtick_4">
     <g id="line2d_4">
      <g>
       <use style="stroke:#000000;stroke-width:0.8;" x="478.8" xlink:href="#m6ca10fc45d" y="768.96"/>
      </g>
     </g>
     <g id="text_4">
      <!-- −1000 -->
      <defs>
       <path d="M 12.40625 8.296875 
L 28.515625 8.296875 
L 28.515625 63.921875 
L 10.984375 60.40625 
L 10.984375 69.390625 
L 28.421875 72.90625 
L 38.28125 72.90625 
L 38.28125 8.296875 
L 54.390625 8.296875 
L 54.390625 0 
L 12.40625 0 
z
" id="DejaVuSans-31"/>
      </defs>
      <g transform="translate(461.885156 783.558437)scale(0.1 -0.1)">
       <use xlink:href="#DejaVuSans-2212"/>
       <use x="83.789062" xlink:href="#DejaVuSans-31"/>
       <use x="147.412109" xlink:href="#DejaVuSans-30"/>
       <use x="211.035156" xlink:href="#DejaVuSans-30"/>
       <use x="274.658203" xlink:href="#DejaVuSans-30"/>
      </g>
     </g>
    </g>
    <g id="xtick_5">
     <g id="line2d_5">
      <g>
       <use style="stroke:#000000;stroke-width:0.8;" x="590.4" xlink:href="#m6ca10fc45d" y="768.96"/>
      </g>
     </g>
     <g id="text_5">
      <!-- 0 -->
      <g transform="translate(587.21875 783.558437)scale(0.1 -0.1)">
       <use xlink:href="#DejaVuSans-30"/>
      </g>
     </g>
    </g>
    <g id="xtick_6">
     <g id="line2d_6">
      <g>
       <use style="stroke:#000000;stroke-width:0.8;" x="702" xlink:href="#m6ca10fc45d" y="768.96"/>
      </g>
     </g>
     <g id="text_6">
      <!-- 1000 -->
      <g transform="translate(689.275 783.558437)scale(0.1 -0.1)">
       <use xlink:href="#DejaVuSans-31"/>
       <use x="63.623047" xlink:href="#DejaVuSans-30"/>
       <use x="127.246094" xlink:href="#DejaVuSans-30"/>
       <use x="190.869141" xlink:href="#DejaVuSans-30"/>
      </g>
     </g>
    </g>
    <g id="xtick_7">
     <g id="line2d_7">
      <g>
       <use style="stroke:#000000;stroke-width:0.8;" x="813.6" xlink:href="#m6ca10fc45d" y="768.96"/>
      </g>
     </g>
     <g id="text_7">
      <!-- 2000 -->
      <g transform="translate(800.875 783.558437)scale(0.1 -0.1)">
       <use xlink:href="#DejaVuSans-32"/>
       <use x="63.623047" xlink:href="#DejaVuSans-30"/>
       <use x="127.246094" xlink:href="#DejaVuSans-30"/>
       <use x="190.869141" xlink:href="#DejaVuSans-30"/>
      </g>
     </g>
    </g>
    <g id="xtick_8">
     <g id="line2d_8">
      <g>
       <use style="stroke:#000000;stroke-width:0.8;" x="925.2" xlink:href="#m6ca10fc45d" y="768.96"/>
      </g>
     </g>
     <g id="text_8">
      <!-- 3000 -->
      <g transform="translate(912.475 783.558437)scale(0.1 -0.1)">
       <use xlink:href="#DejaVuSans-33"/>
       <use x="63.623047" xlink:href="#DejaVuSans-30"/>
       <use x="127.246094" xlink:href="#DejaVuSans-30"/>
       <use x="190.869141" xlink:href="#DejaVuSans-30"/>
      </g>
     </g>
    </g>
    <g id="xtick_9">
     <g id="line2d_9">
      <g>
       <use style="stroke:#000000;stroke-width:0.8;" x="1036.8" xlink:href="#m6ca10fc45d" y="768.96"/>
      </g>
     </g>
     <g id="text_9">
      <!-- 4000 -->
      <g transform="translate(1024.075 783.558437)scale(0.1 -0.1)">
       <use xlink:href="#DejaVuSans-34"/>
       <use x="63.623047" xlink:href="#DejaVuSans-30"/>
       <use x="127.246094" xlink:href="#DejaVuSans-30"/>
       <use x="190.869141" xlink:href="#DejaVuSans-30"/>
      </g>
     </g>
    </g>
   </g>
   <g id="matplotlib.axis_2">
    <g id="ytick_1">
     <g id="line2d_10">
      <defs>
       <path d="M 0 0 
L -3.5 0 
" id="mab46e80af6" style="stroke:#000000;stroke-width:0.8;"/>
      </defs>
      <g>
       <use style="stroke:#000000;stroke-width:0.8;" x="144" xlink:href="#mab46e80af6" y="768.96"/>
      </g>
     </g>
     <g id="text_10">
      <!-- −4000 -->
      <g transform="translate(103.170312 772.759219)scale(0.1 -0.1)">
       <use xlink:href="#DejaVuSans-2212"/>
       <use x="83.789062" xlink:href="#DejaVuSans-34"/>
       <use x="147.412109" xlink:href="#DejaVuSans-30"/>
       <use x="211.035156" xlink:href="#DejaVuSans-30"/>
       <use x="274.658203" xlink:href="#DejaVuSans-30"/>
      </g>
     </g>
    </g>
    <g id="ytick_2">
     <g id="line2d_11">
      <g>
       <use style="stroke:#000000;stroke-width:0.8;" x="144" xlink:href="#mab46e80af6" y="685.8"/>
      </g>
     </g>
     <g id="text_11">
      <!-- −3000 -->
      <g transform="translate(103.170312 689.599219)scale(0.1 -0.1)">
       <use xlink:href="#DejaVuSans-2212"/>
       <use x="83.789062" xlink:href="#DejaVuSans-33"/>
       <use x="147.412109" xlink:href="#DejaVuSans-30"/>
       <use x="211.035156" xlink:href="#DejaVuSans-30"/>
       <use x="274.658203" xlink:href="#DejaVuSans-30"/>
      </g>
     </g>
    </g>
    <g id="ytick_3">
     <g id="line2d_12">
      <g>
       <use style="stroke:#000000;stroke-width:0.8;" x="144" xlink:href="#mab46e80af6" y="602.64"/>
      </g>
     </g>
     <g id="text_12">
      <!-- −2000 -->
      <g transform="translate(103.170312 606.439219)scale(0.1 -0.1)">
       <use xlink:href="#DejaVuSans-2212"/>
       <use x="83.789062" xlink:href="#DejaVuSans-32"/>
       <use x="147.412109" xlink:href="#DejaVuSans-30"/>
       <use x="211.035156" xlink:href="#DejaVuSans-30"/>
       <use x="274.658203" xlink:href="#DejaVuSans-30"/>
      </g>
     </g>
    </g>
    <g id="ytick_4">
     <g id="line2d_13">
      <g>
       <use style="stroke:#000000;stroke-width:0.8;" x="144" xlink:href="#mab46e80af6" y="519.48"/>
      </g>
     </g>
     <g id="text_13">
      <!-- −1000 -->
      <g transform="translate(103.170312 523.279219)scale(0.1 -0.1)">
       <use xlink:href="#DejaVuSans-2212"/>
       <use x="83.789062" xlink:href="#DejaVuSans-31"/>
       <use x="147.412109" xlink:href="#DejaVuSans-30"/>
       <use x="211.035156" xlink:href="#DejaVuSans-30"/>
       <use x="274.658203" xlink:href="#DejaVuSans-30"/>
      </g>
     </g>
    </g>
    <g id="ytick_5">
     <g id="line2d_14">
      <g>
       <use style="stroke:#000000;stroke-width:0.8;" x="144" xlink:href="#mab46e80af6" y="436.32"/>
      </g>
     </g>
     <g id="text_14">
      <!-- 0 -->
      <g transform="translate(130.6375 440.119219)scale(0.1 -0.1)">
       <use xlink:href="#DejaVuSans-30"/>
      </g>
     </g>
    </g>
    <g id="ytick_6">
     <g id="line2d_15">
      <g>
       <use style="stroke:#000000;stroke-width:0.8;" x="144" xlink:href="#mab46e80af6" y="353.16"/>
      </g>
     </g>
     <g id="text_15">
      <!-- 1000 -->
      <g transform="translate(111.55 356.959219)scale(0.1 -0.1)">
       <use xlink:href="#DejaVuSans-31"/>
       <use x="63.623047" xlink:href="#DejaVuSans-30"/>
       <use x="127.246094" xlink:href="#DejaVuSans-30"/>
       <use x="190.869141" xlink:href="#DejaVuSans-30"/>
      </g>
     </g>
    </g>
    <g id="ytick_7">
     <g id="line2d_16">
      <g>
       <use style="stroke:#000000;stroke-width:0.8;" x="144" xlink:href="#mab46e80af6" y="270"/>
      </g>
     </g>
     <g id="text_16">
      <!-- 2000 -->
      <g transform="translate(111.55 273.799219)scale(0.1 -0.1)">
       <use xlink:href="#DejaVuSans-32"/>
       <use x="63.623047" xlink:href="#DejaVuSans-30"/>
       <use x="127.246094" xlink:href="#DejaVuSans-30"/>
       <use x="190.869141" xlink:href="#DejaVuSans-30"/>
      </g>
     </g>
    </g>
    <g id="ytick_8">
     <g id="line2d_17">
      <g>
       <use style="stroke:#000000;stroke-width:0.8;" x="144" xlink:href="#mab46e80af6" y="186.84"/>
      </g>
     </g>
     <g id="text_17">
      <!-- 3000 -->
      <g transform="translate(111.55 190.639219)scale(0.1 -0.1)">
       <use xlink:href="#DejaVuSans-33"/>
       <use x="63.623047" xlink:href="#DejaVuSans-30"/>
       <use x="127.246094" xlink:href="#DejaVuSans-30"/>
       <use x="190.869141" xlink:href="#DejaVuSans-30"/>
      </g>
     </g>
    </g>
    <g id="ytick_9">
     <g id="line2d_18">
      <g>
       <use style="stroke:#000000;stroke-width:0.8;" x="144" xlink:href="#mab46e80af6" y="103.68"/>
      </g>
     </g>
     <g id="text_18">
      <!-- 4000 -->
      <g transform="translate(111.55 107.479219)scale(0.1 -0.1)">
       <use xlink:href="#DejaVuSans-34"/>
       <use x="63.623047" xlink:href="#DejaVuSans-30"/>
       <use x="127.246094" xlink:href="#DejaVuSans-30"/>
       <use x="190.869141" xlink:href="#DejaVuSans-30"/>
      </g>
     </g>
    </g>
   </g>
   <g id="line2d_19">
    <path clip-path="url(#p59b6a2e9e1)" d="M 590.4 768.96 
L 590.4 103.68 
" style="fill:none;stroke:#1f77b4;stroke-linecap:square;stroke-width:1.5;"/>
   </g>
   <g id="line2d_20">
    <path clip-path="url(#p59b6a2e9e1)" d="M 144 436.32 
L 1036.8 436.32 
" style="fill:none;stroke:#1f77b4;stroke-linecap:square;stroke-width:1.5;"/>
   </g>
   <g id="line2d_21">
    <defs>
     <path d="M 0 3 
C 0.795609 3 1.55874 2.683901 2.12132 2.12132 
C 2.683901 1.55874 3 0.795609 3 0 
C 3 -0.795609 2.683901 -1.55874 2.12132 -2.12132 
C 1.55874 -2.683901 0.795609 -3 0 -3 
C -0.795609 -3 -1.55874 -2.683901 -2.12132 -2.12132 
C -2.683901 -1.55874 -3 -0.795609 -3 0 
C -3 0.795609 -2.683901 1.55874 -2.12132 2.12132 
C -1.55874 2.683901 -0.795609 3 0 3 
z
" id="m32d6733328" style="stroke:#008000;"/>
    </defs>
    <g clip-path="url(#p59b6a2e9e1)">
     <use style="fill:#008000;stroke:#008000;" x="1199.790823" xlink:href="#m32d6733328" y="494.088111"/>
    </g>
   </g>
   <g id="line2d_22">
    <g clip-path="url(#p59b6a2e9e1)">
     <use style="fill:#008000;stroke:#008000;" x="1410.57637" xlink:href="#m32d6733328" y="486.264781"/>
    </g>
   </g>
   <g id="line2d_23">
    <g clip-path="url(#p59b6a2e9e1)">
     <use style="fill:#008000;stroke:#008000;" x="1372.971698" xlink:href="#m32d6733328" y="347.867763"/>
    </g>
   </g>
   <g id="line2d_24">
    <g clip-path="url(#p59b6a2e9e1)">
     <use style="fill:#008000;stroke:#008000;" x="1262.985978" xlink:href="#m32d6733328" y="335.917481"/>
    </g>
   </g>
   <g id="line2d_25">
    <g clip-path="url(#p59b6a2e9e1)">
     <use style="fill:#008000;stroke:#008000;" x="1320.4384" xlink:href="#m32d6733328" y="273.72756"/>
    </g>
   </g>
   <g id="line2d_26">
    <g clip-path="url(#p59b6a2e9e1)">
     <use style="fill:#008000;stroke:#008000;" x="647.734978" xlink:href="#m32d6733328" y="391.726662"/>
    </g>
   </g>
   <g id="line2d_27">
    <g clip-path="url(#p59b6a2e9e1)">
     <use style="fill:#008000;stroke:#008000;" x="647.734978" xlink:href="#m32d6733328" y="391.726662"/>
    </g>
   </g>
   <g id="line2d_28">
    <g clip-path="url(#p59b6a2e9e1)">
     <use style="fill:#008000;stroke:#008000;" x="731.991661" xlink:href="#m32d6733328" y="200.124254"/>
    </g>
   </g>
   <g id="line2d_29">
    <g clip-path="url(#p59b6a2e9e1)">
     <use style="fill:#008000;stroke:#008000;" x="404.084823" xlink:href="#m32d6733328" y="444.659502"/>
    </g>
   </g>
   <g id="line2d_30">
    <g clip-path="url(#p59b6a2e9e1)">
     <use style="fill:#008000;stroke:#008000;" x="411.821784" xlink:href="#m32d6733328" y="508.994333"/>
    </g>
   </g>
   <g id="line2d_31">
    <g clip-path="url(#p59b6a2e9e1)">
     <use style="fill:#008000;stroke:#008000;" x="529.589576" xlink:href="#m32d6733328" y="509.814393"/>
    </g>
   </g>
   <g id="line2d_32">
    <g clip-path="url(#p59b6a2e9e1)">
     <use style="fill:#008000;stroke:#008000;" x="591.438402" xlink:href="#m32d6733328" y="497.999077"/>
    </g>
   </g>
   <g id="line2d_33">
    <g clip-path="url(#p59b6a2e9e1)">
     <use style="fill:#008000;stroke:#008000;" x="631.525864" xlink:href="#m32d6733328" y="635.788148"/>
    </g>
   </g>
   <g id="line2d_34">
    <defs>
     <path d="M 0 1.333333 
C 0.353604 1.333333 0.692773 1.192845 0.942809 0.942809 
C 1.192845 0.692773 1.333333 0.353604 1.333333 0 
C 1.333333 -0.353604 1.192845 -0.692773 0.942809 -0.942809 
C 0.692773 -1.192845 0.353604 -1.333333 0 -1.333333 
C -0.353604 -1.333333 -0.692773 -1.192845 -0.942809 -0.942809 
C -1.192845 -0.692773 -1.333333 -0.353604 -1.333333 0 
C -1.333333 0.353604 -1.192845 0.692773 -0.942809 0.942809 
C -0.692773 1.192845 -0.353604 1.333333 0 1.333333 
z
" id="maa376057fb" style="stroke:#ff0000;"/>
    </defs>
    <g clip-path="url(#p59b6a2e9e1)">
     <use style="fill:#ff0000;stroke:#ff0000;" x="1199.790823" xlink:href="#maa376057fb" y="494.088111"/>
     <use style="fill:#ff0000;stroke:#ff0000;" x="1410.57637" xlink:href="#maa376057fb" y="486.264781"/>
     <use style="fill:#ff0000;stroke:#ff0000;" x="1372.971698" xlink:href="#maa376057fb" y="347.867763"/>
     <use style="fill:#ff0000;stroke:#ff0000;" x="1262.985978" xlink:href="#maa376057fb" y="335.917481"/>
     <use style="fill:#ff0000;stroke:#ff0000;" x="1320.4384" xlink:href="#maa376057fb" y="273.72756"/>
     <use style="fill:#ff0000;stroke:#ff0000;" x="650.003522" xlink:href="#maa376057fb" y="399.401554"/>
     <use style="fill:#ff0000;stroke:#ff0000;" x="643.854107" xlink:href="#maa376057fb" y="383.997605"/>
     <use style="fill:#ff0000;stroke:#ff0000;" x="785.428279" xlink:href="#maa376057fb" y="191.894722"/>
     <use style="fill:#ff0000;stroke:#ff0000;" x="762.584609" xlink:href="#maa376057fb" y="195.804554"/>
     <use style="fill:#ff0000;stroke:#ff0000;" x="741.832968" xlink:href="#maa376057fb" y="198.742217"/>
     <use style="fill:#ff0000;stroke:#ff0000;" x="722.320447" xlink:href="#maa376057fb" y="201.716934"/>
     <use style="fill:#ff0000;stroke:#ff0000;" x="383.916218" xlink:href="#maa376057fb" y="276.641242"/>
     <use style="fill:#ff0000;stroke:#ff0000;" x="360.969712" xlink:href="#maa376057fb" y="274.525049"/>
     <use style="fill:#ff0000;stroke:#ff0000;" x="435.150771" xlink:href="#maa376057fb" y="346.696076"/>
     <use style="fill:#ff0000;stroke:#ff0000;" x="402.311281" xlink:href="#maa376057fb" y="364.231387"/>
     <use style="fill:#ff0000;stroke:#ff0000;" x="454.214516" xlink:href="#maa376057fb" y="390.839356"/>
     <use style="fill:#ff0000;stroke:#ff0000;" x="440.555156" xlink:href="#maa376057fb" y="414.86847"/>
     <use style="fill:#ff0000;stroke:#ff0000;" x="418.021587" xlink:href="#maa376057fb" y="423.739541"/>
     <use style="fill:#ff0000;stroke:#ff0000;" x="413.055589" xlink:href="#maa376057fb" y="441.331735"/>
     <use style="fill:#ff0000;stroke:#ff0000;" x="395.229276" xlink:href="#maa376057fb" y="448.28481"/>
     <use style="fill:#ff0000;stroke:#ff0000;" x="411.821784" xlink:href="#maa376057fb" y="508.994333"/>
     <use style="fill:#ff0000;stroke:#ff0000;" x="469.091039" xlink:href="#maa376057fb" y="492.053623"/>
     <use style="fill:#ff0000;stroke:#ff0000;" x="434.294629" xlink:href="#maa376057fb" y="514.781313"/>
     <use style="fill:#ff0000;stroke:#ff0000;" x="448.729999" xlink:href="#maa376057fb" y="515.105785"/>
     <use style="fill:#ff0000;stroke:#ff0000;" x="466.175173" xlink:href="#maa376057fb" y="512.584397"/>
     <use style="fill:#ff0000;stroke:#ff0000;" x="456.871388" xlink:href="#maa376057fb" y="525.812302"/>
     <use style="fill:#ff0000;stroke:#ff0000;" x="472.5477" xlink:href="#maa376057fb" y="540.747024"/>
     <use style="fill:#ff0000;stroke:#ff0000;" x="459.098259" xlink:href="#maa376057fb" y="563.469486"/>
     <use style="fill:#ff0000;stroke:#ff0000;" x="452.610412" xlink:href="#maa376057fb" y="582.870687"/>
     <use style="fill:#ff0000;stroke:#ff0000;" x="529.589576" xlink:href="#maa376057fb" y="509.814393"/>
     <use style="fill:#ff0000;stroke:#ff0000;" x="591.438402" xlink:href="#maa376057fb" y="497.999077"/>
     <use style="fill:#ff0000;stroke:#ff0000;" x="625.950564" xlink:href="#maa376057fb" y="640.114609"/>
     <use style="fill:#ff0000;stroke:#ff0000;" x="636.851522" xlink:href="#maa376057fb" y="631.380564"/>
     <use style="fill:#ff0000;stroke:#ff0000;" x="644.395275" xlink:href="#maa376057fb" y="613.684487"/>
     <use style="fill:#ff0000;stroke:#ff0000;" x="661.706436" xlink:href="#maa376057fb" y="629.34802"/>
     <use style="fill:#ff0000;stroke:#ff0000;" x="666.559361" xlink:href="#maa376057fb" y="609.853769"/>
     <use style="fill:#ff0000;stroke:#ff0000;" x="670.198779" xlink:href="#maa376057fb" y="592.626178"/>
     <use style="fill:#ff0000;stroke:#ff0000;" x="696.085232" xlink:href="#maa376057fb" y="597.229411"/>
     <use style="fill:#ff0000;stroke:#ff0000;" x="759.796102" xlink:href="#maa376057fb" y="591.159063"/>
     <use style="fill:#ff0000;stroke:#ff0000;" x="803.743282" xlink:href="#maa376057fb" y="584.000364"/>
     <use style="fill:#ff0000;stroke:#ff0000;" x="848.478988" xlink:href="#maa376057fb" y="570.275029"/>
     <use style="fill:#ff0000;stroke:#ff0000;" x="876.263192" xlink:href="#maa376057fb" y="570.721942"/>
     <use style="fill:#ff0000;stroke:#ff0000;" x="899.569949" xlink:href="#maa376057fb" y="553.388851"/>
     <use style="fill:#ff0000;stroke:#ff0000;" x="938.459619" xlink:href="#maa376057fb" y="553.579083"/>
     <use style="fill:#ff0000;stroke:#ff0000;" x="966.142812" xlink:href="#maa376057fb" y="547.758845"/>
     <use style="fill:#ff0000;stroke:#ff0000;" x="1058.93556" xlink:href="#maa376057fb" y="539.32424"/>
     <use style="fill:#ff0000;stroke:#ff0000;" x="1085.615486" xlink:href="#maa376057fb" y="526.937538"/>
     <use style="fill:#ff0000;stroke:#ff0000;" x="1094.797929" xlink:href="#maa376057fb" y="510.337166"/>
    </g>
   </g>
   <g id="line2d_35">
    <defs>
     <path d="M -0.5 0.5 
L 0.5 0.5 
L 0.5 -0.5 
L -0.5 -0.5 
z
" id="m8e83941e3f" style="stroke:#1f77b4;stroke-linejoin:miter;"/>
    </defs>
    <g clip-path="url(#p59b6a2e9e1)">
     <use style="fill:#1f77b4;stroke:#1f77b4;stroke-linejoin:miter;" x="1199.790823" xlink:href="#m8e83941e3f" y="494.088111"/>
     <use style="fill:#1f77b4;stroke:#1f77b4;stroke-linejoin:miter;" x="1410.57637" xlink:href="#m8e83941e3f" y="486.264781"/>
     <use style="fill:#1f77b4;stroke:#1f77b4;stroke-linejoin:miter;" x="1372.971698" xlink:href="#m8e83941e3f" y="347.867763"/>
     <use style="fill:#1f77b4;stroke:#1f77b4;stroke-linejoin:miter;" x="1262.985978" xlink:href="#m8e83941e3f" y="335.917481"/>
     <use style="fill:#1f77b4;stroke:#1f77b4;stroke-linejoin:miter;" x="1320.4384" xlink:href="#m8e83941e3f" y="273.72756"/>
     <use style="fill:#1f77b4;stroke:#1f77b4;stroke-linejoin:miter;" x="650.003522" xlink:href="#m8e83941e3f" y="399.401554"/>
     <use style="fill:#1f77b4;stroke:#1f77b4;stroke-linejoin:miter;" x="647.079421" xlink:href="#m8e83941e3f" y="397.724281"/>
     <use style="fill:#1f77b4;stroke:#1f77b4;stroke-linejoin:miter;" x="645.760823" xlink:href="#m8e83941e3f" y="394.954604"/>
     <use style="fill:#1f77b4;stroke:#1f77b4;stroke-linejoin:miter;" x="643.054385" xlink:href="#m8e83941e3f" y="393.289855"/>
     <use style="fill:#1f77b4;stroke:#1f77b4;stroke-linejoin:miter;" x="641.824086" xlink:href="#m8e83941e3f" y="390.015426"/>
     <use style="fill:#1f77b4;stroke:#1f77b4;stroke-linejoin:miter;" x="643.854107" xlink:href="#m8e83941e3f" y="383.997605"/>
     <use style="fill:#1f77b4;stroke:#1f77b4;stroke-linejoin:miter;" x="785.428279" xlink:href="#m8e83941e3f" y="191.894722"/>
     <use style="fill:#1f77b4;stroke:#1f77b4;stroke-linejoin:miter;" x="762.584609" xlink:href="#m8e83941e3f" y="195.804554"/>
     <use style="fill:#1f77b4;stroke:#1f77b4;stroke-linejoin:miter;" x="741.832968" xlink:href="#m8e83941e3f" y="198.742217"/>
     <use style="fill:#1f77b4;stroke:#1f77b4;stroke-linejoin:miter;" x="722.320447" xlink:href="#m8e83941e3f" y="201.716934"/>
     <use style="fill:#1f77b4;stroke:#1f77b4;stroke-linejoin:miter;" x="703.614828" xlink:href="#m8e83941e3f" y="205.318065"/>
     <use style="fill:#1f77b4;stroke:#1f77b4;stroke-linejoin:miter;" x="686.614485" xlink:href="#m8e83941e3f" y="207.845711"/>
     <use style="fill:#1f77b4;stroke:#1f77b4;stroke-linejoin:miter;" x="670.092981" xlink:href="#m8e83941e3f" y="210.763294"/>
     <use style="fill:#1f77b4;stroke:#1f77b4;stroke-linejoin:miter;" x="654.862873" xlink:href="#m8e83941e3f" y="212.136323"/>
     <use style="fill:#1f77b4;stroke:#1f77b4;stroke-linejoin:miter;" x="639.734737" xlink:href="#m8e83941e3f" y="215.155166"/>
     <use style="fill:#1f77b4;stroke:#1f77b4;stroke-linejoin:miter;" x="624.609823" xlink:href="#m8e83941e3f" y="216.83931"/>
     <use style="fill:#1f77b4;stroke:#1f77b4;stroke-linejoin:miter;" x="610.53644" xlink:href="#m8e83941e3f" y="219.187327"/>
     <use style="fill:#1f77b4;stroke:#1f77b4;stroke-linejoin:miter;" x="596.79133" xlink:href="#m8e83941e3f" y="223.379703"/>
     <use style="fill:#1f77b4;stroke:#1f77b4;stroke-linejoin:miter;" x="583.588632" xlink:href="#m8e83941e3f" y="224.863445"/>
     <use style="fill:#1f77b4;stroke:#1f77b4;stroke-linejoin:miter;" x="570.367519" xlink:href="#m8e83941e3f" y="226.142779"/>
     <use style="fill:#1f77b4;stroke:#1f77b4;stroke-linejoin:miter;" x="557.495062" xlink:href="#m8e83941e3f" y="227.693765"/>
     <use style="fill:#1f77b4;stroke:#1f77b4;stroke-linejoin:miter;" x="545.020902" xlink:href="#m8e83941e3f" y="232.199855"/>
     <use style="fill:#1f77b4;stroke:#1f77b4;stroke-linejoin:miter;" x="532.711924" xlink:href="#m8e83941e3f" y="235.697158"/>
     <use style="fill:#1f77b4;stroke:#1f77b4;stroke-linejoin:miter;" x="520.307155" xlink:href="#m8e83941e3f" y="237.49438"/>
     <use style="fill:#1f77b4;stroke:#1f77b4;stroke-linejoin:miter;" x="507.647547" xlink:href="#m8e83941e3f" y="239.060145"/>
     <use style="fill:#1f77b4;stroke:#1f77b4;stroke-linejoin:miter;" x="495.287931" xlink:href="#m8e83941e3f" y="242.090314"/>
     <use style="fill:#1f77b4;stroke:#1f77b4;stroke-linejoin:miter;" x="482.035089" xlink:href="#m8e83941e3f" y="243.16414"/>
     <use style="fill:#1f77b4;stroke:#1f77b4;stroke-linejoin:miter;" x="469.278745" xlink:href="#m8e83941e3f" y="245.761085"/>
     <use style="fill:#1f77b4;stroke:#1f77b4;stroke-linejoin:miter;" x="455.894003" xlink:href="#m8e83941e3f" y="247.817302"/>
     <use style="fill:#1f77b4;stroke:#1f77b4;stroke-linejoin:miter;" x="442.274901" xlink:href="#m8e83941e3f" y="249.868259"/>
     <use style="fill:#1f77b4;stroke:#1f77b4;stroke-linejoin:miter;" x="428.119104" xlink:href="#m8e83941e3f" y="251.9877"/>
     <use style="fill:#1f77b4;stroke:#1f77b4;stroke-linejoin:miter;" x="406.813572" xlink:href="#m8e83941e3f" y="265.009219"/>
     <use style="fill:#1f77b4;stroke:#1f77b4;stroke-linejoin:miter;" x="396.861973" xlink:href="#m8e83941e3f" y="272.143123"/>
     <use style="fill:#1f77b4;stroke:#1f77b4;stroke-linejoin:miter;" x="383.916218" xlink:href="#m8e83941e3f" y="276.641242"/>
     <use style="fill:#1f77b4;stroke:#1f77b4;stroke-linejoin:miter;" x="360.969712" xlink:href="#m8e83941e3f" y="274.525049"/>
     <use style="fill:#1f77b4;stroke:#1f77b4;stroke-linejoin:miter;" x="435.150771" xlink:href="#m8e83941e3f" y="346.696076"/>
     <use style="fill:#1f77b4;stroke:#1f77b4;stroke-linejoin:miter;" x="420.917121" xlink:href="#m8e83941e3f" y="347.375081"/>
     <use style="fill:#1f77b4;stroke:#1f77b4;stroke-linejoin:miter;" x="420.308675" xlink:href="#m8e83941e3f" y="355.671381"/>
     <use style="fill:#1f77b4;stroke:#1f77b4;stroke-linejoin:miter;" x="406.246801" xlink:href="#m8e83941e3f" y="357.492448"/>
     <use style="fill:#1f77b4;stroke:#1f77b4;stroke-linejoin:miter;" x="402.311281" xlink:href="#m8e83941e3f" y="364.231387"/>
     <use style="fill:#1f77b4;stroke:#1f77b4;stroke-linejoin:miter;" x="454.214516" xlink:href="#m8e83941e3f" y="390.839356"/>
     <use style="fill:#1f77b4;stroke:#1f77b4;stroke-linejoin:miter;" x="455.247834" xlink:href="#m8e83941e3f" y="396.617483"/>
     <use style="fill:#1f77b4;stroke:#1f77b4;stroke-linejoin:miter;" x="456.797344" xlink:href="#m8e83941e3f" y="402.525452"/>
     <use style="fill:#1f77b4;stroke:#1f77b4;stroke-linejoin:miter;" x="458.490881" xlink:href="#m8e83941e3f" y="408.018698"/>
     <use style="fill:#1f77b4;stroke:#1f77b4;stroke-linejoin:miter;" x="457.959425" xlink:href="#m8e83941e3f" y="412.882757"/>
     <use style="fill:#1f77b4;stroke:#1f77b4;stroke-linejoin:miter;" x="440.555156" xlink:href="#m8e83941e3f" y="414.86847"/>
     <use style="fill:#1f77b4;stroke:#1f77b4;stroke-linejoin:miter;" x="418.021587" xlink:href="#m8e83941e3f" y="423.739541"/>
     <use style="fill:#1f77b4;stroke:#1f77b4;stroke-linejoin:miter;" x="420.04116" xlink:href="#m8e83941e3f" y="429.840662"/>
     <use style="fill:#1f77b4;stroke:#1f77b4;stroke-linejoin:miter;" x="420.604868" xlink:href="#m8e83941e3f" y="435.422874"/>
     <use style="fill:#1f77b4;stroke:#1f77b4;stroke-linejoin:miter;" x="413.055589" xlink:href="#m8e83941e3f" y="441.331735"/>
     <use style="fill:#1f77b4;stroke:#1f77b4;stroke-linejoin:miter;" x="395.229276" xlink:href="#m8e83941e3f" y="448.28481"/>
     <use style="fill:#1f77b4;stroke:#1f77b4;stroke-linejoin:miter;" x="397.186041" xlink:href="#m8e83941e3f" y="454.955284"/>
     <use style="fill:#1f77b4;stroke:#1f77b4;stroke-linejoin:miter;" x="399.77974" xlink:href="#m8e83941e3f" y="461.405927"/>
     <use style="fill:#1f77b4;stroke:#1f77b4;stroke-linejoin:miter;" x="401.906105" xlink:href="#m8e83941e3f" y="468.02196"/>
     <use style="fill:#1f77b4;stroke:#1f77b4;stroke-linejoin:miter;" x="402.895413" xlink:href="#m8e83941e3f" y="474.658081"/>
     <use style="fill:#1f77b4;stroke:#1f77b4;stroke-linejoin:miter;" x="404.062063" xlink:href="#m8e83941e3f" y="481.268295"/>
     <use style="fill:#1f77b4;stroke:#1f77b4;stroke-linejoin:miter;" x="406.442543" xlink:href="#m8e83941e3f" y="487.912497"/>
     <use style="fill:#1f77b4;stroke:#1f77b4;stroke-linejoin:miter;" x="408.050679" xlink:href="#m8e83941e3f" y="494.830239"/>
     <use style="fill:#1f77b4;stroke:#1f77b4;stroke-linejoin:miter;" x="411.821784" xlink:href="#m8e83941e3f" y="508.994333"/>
     <use style="fill:#1f77b4;stroke:#1f77b4;stroke-linejoin:miter;" x="469.091039" xlink:href="#m8e83941e3f" y="492.053623"/>
     <use style="fill:#1f77b4;stroke:#1f77b4;stroke-linejoin:miter;" x="434.294629" xlink:href="#m8e83941e3f" y="514.781313"/>
     <use style="fill:#1f77b4;stroke:#1f77b4;stroke-linejoin:miter;" x="448.729999" xlink:href="#m8e83941e3f" y="515.105785"/>
     <use style="fill:#1f77b4;stroke:#1f77b4;stroke-linejoin:miter;" x="466.175173" xlink:href="#m8e83941e3f" y="512.584397"/>
     <use style="fill:#1f77b4;stroke:#1f77b4;stroke-linejoin:miter;" x="456.871388" xlink:href="#m8e83941e3f" y="525.812302"/>
     <use style="fill:#1f77b4;stroke:#1f77b4;stroke-linejoin:miter;" x="457.397968" xlink:href="#m8e83941e3f" y="534.139063"/>
     <use style="fill:#1f77b4;stroke:#1f77b4;stroke-linejoin:miter;" x="467.332788" xlink:href="#m8e83941e3f" y="535.688798"/>
     <use style="fill:#1f77b4;stroke:#1f77b4;stroke-linejoin:miter;" x="472.5477" xlink:href="#m8e83941e3f" y="540.747024"/>
     <use style="fill:#1f77b4;stroke:#1f77b4;stroke-linejoin:miter;" x="459.098259" xlink:href="#m8e83941e3f" y="563.469486"/>
     <use style="fill:#1f77b4;stroke:#1f77b4;stroke-linejoin:miter;" x="452.610412" xlink:href="#m8e83941e3f" y="582.870687"/>
     <use style="fill:#1f77b4;stroke:#1f77b4;stroke-linejoin:miter;" x="529.589576" xlink:href="#m8e83941e3f" y="509.814393"/>
     <use style="fill:#1f77b4;stroke:#1f77b4;stroke-linejoin:miter;" x="540.41204" xlink:href="#m8e83941e3f" y="504.216131"/>
     <use style="fill:#1f77b4;stroke:#1f77b4;stroke-linejoin:miter;" x="548.057819" xlink:href="#m8e83941e3f" y="501.010684"/>
     <use style="fill:#1f77b4;stroke:#1f77b4;stroke-linejoin:miter;" x="555.652856" xlink:href="#m8e83941e3f" y="496.540504"/>
     <use style="fill:#1f77b4;stroke:#1f77b4;stroke-linejoin:miter;" x="560.827954" xlink:href="#m8e83941e3f" y="495.355948"/>
     <use style="fill:#1f77b4;stroke:#1f77b4;stroke-linejoin:miter;" x="564.74728" xlink:href="#m8e83941e3f" y="495.535586"/>
     <use style="fill:#1f77b4;stroke:#1f77b4;stroke-linejoin:miter;" x="567.854932" xlink:href="#m8e83941e3f" y="497.808455"/>
     <use style="fill:#1f77b4;stroke:#1f77b4;stroke-linejoin:miter;" x="571.826402" xlink:href="#m8e83941e3f" y="498.669208"/>
     <use style="fill:#1f77b4;stroke:#1f77b4;stroke-linejoin:miter;" x="575.095919" xlink:href="#m8e83941e3f" y="500.892372"/>
     <use style="fill:#1f77b4;stroke:#1f77b4;stroke-linejoin:miter;" x="578.852912" xlink:href="#m8e83941e3f" y="502.373086"/>
     <use style="fill:#1f77b4;stroke:#1f77b4;stroke-linejoin:miter;" x="584.05642" xlink:href="#m8e83941e3f" y="496.592242"/>
     <use style="fill:#1f77b4;stroke:#1f77b4;stroke-linejoin:miter;" x="587.83933" xlink:href="#m8e83941e3f" y="496.102387"/>
     <use style="fill:#1f77b4;stroke:#1f77b4;stroke-linejoin:miter;" x="591.438402" xlink:href="#m8e83941e3f" y="497.999077"/>
     <use style="fill:#1f77b4;stroke:#1f77b4;stroke-linejoin:miter;" x="625.950564" xlink:href="#m8e83941e3f" y="640.114609"/>
     <use style="fill:#1f77b4;stroke:#1f77b4;stroke-linejoin:miter;" x="636.851522" xlink:href="#m8e83941e3f" y="631.380564"/>
     <use style="fill:#1f77b4;stroke:#1f77b4;stroke-linejoin:miter;" x="644.395275" xlink:href="#m8e83941e3f" y="613.684487"/>
     <use style="fill:#1f77b4;stroke:#1f77b4;stroke-linejoin:miter;" x="661.706436" xlink:href="#m8e83941e3f" y="629.34802"/>
     <use style="fill:#1f77b4;stroke:#1f77b4;stroke-linejoin:miter;" x="666.559361" xlink:href="#m8e83941e3f" y="609.853769"/>
     <use style="fill:#1f77b4;stroke:#1f77b4;stroke-linejoin:miter;" x="670.198779" xlink:href="#m8e83941e3f" y="592.626178"/>
     <use style="fill:#1f77b4;stroke:#1f77b4;stroke-linejoin:miter;" x="684.592885" xlink:href="#m8e83941e3f" y="598.226143"/>
     <use style="fill:#1f77b4;stroke:#1f77b4;stroke-linejoin:miter;" x="696.085232" xlink:href="#m8e83941e3f" y="597.229411"/>
     <use style="fill:#1f77b4;stroke:#1f77b4;stroke-linejoin:miter;" x="759.796102" xlink:href="#m8e83941e3f" y="591.159063"/>
     <use style="fill:#1f77b4;stroke:#1f77b4;stroke-linejoin:miter;" x="772.110245" xlink:href="#m8e83941e3f" y="587.527981"/>
     <use style="fill:#1f77b4;stroke:#1f77b4;stroke-linejoin:miter;" x="785.195612" xlink:href="#m8e83941e3f" y="584.110533"/>
     <use style="fill:#1f77b4;stroke:#1f77b4;stroke-linejoin:miter;" x="803.743282" xlink:href="#m8e83941e3f" y="584.000364"/>
     <use style="fill:#1f77b4;stroke:#1f77b4;stroke-linejoin:miter;" x="820.760527" xlink:href="#m8e83941e3f" y="581.798112"/>
     <use style="fill:#1f77b4;stroke:#1f77b4;stroke-linejoin:miter;" x="834.252418" xlink:href="#m8e83941e3f" y="576.302434"/>
     <use style="fill:#1f77b4;stroke:#1f77b4;stroke-linejoin:miter;" x="848.478988" xlink:href="#m8e83941e3f" y="570.275029"/>
     <use style="fill:#1f77b4;stroke:#1f77b4;stroke-linejoin:miter;" x="876.263192" xlink:href="#m8e83941e3f" y="570.721942"/>
     <use style="fill:#1f77b4;stroke:#1f77b4;stroke-linejoin:miter;" x="879.899492" xlink:href="#m8e83941e3f" y="558.837059"/>
     <use style="fill:#1f77b4;stroke:#1f77b4;stroke-linejoin:miter;" x="899.569949" xlink:href="#m8e83941e3f" y="553.388851"/>
     <use style="fill:#1f77b4;stroke:#1f77b4;stroke-linejoin:miter;" x="938.459619" xlink:href="#m8e83941e3f" y="553.579083"/>
     <use style="fill:#1f77b4;stroke:#1f77b4;stroke-linejoin:miter;" x="966.142812" xlink:href="#m8e83941e3f" y="547.758845"/>
     <use style="fill:#1f77b4;stroke:#1f77b4;stroke-linejoin:miter;" x="1058.93556" xlink:href="#m8e83941e3f" y="539.32424"/>
     <use style="fill:#1f77b4;stroke:#1f77b4;stroke-linejoin:miter;" x="1085.615486" xlink:href="#m8e83941e3f" y="526.937538"/>
     <use style="fill:#1f77b4;stroke:#1f77b4;stroke-linejoin:miter;" x="1094.797929" xlink:href="#m8e83941e3f" y="510.337166"/>
    </g>
   </g>
   <g id="patch_3">
    <path d="M 144 768.96 
L 144 103.68 
" style="fill:none;stroke:#000000;stroke-linecap:square;stroke-linejoin:miter;stroke-width:0.8;"/>
   </g>
   <g id="patch_4">
    <path d="M 1036.8 768.96 
L 1036.8 103.68 
" style="fill:none;stroke:#000000;stroke-linecap:square;stroke-linejoin:miter;stroke-width:0.8;"/>
   </g>
   <g id="patch_5">
    <path d="M 144 768.96 
L 1036.8 768.96 
" style="fill:none;stroke:#000000;stroke-linecap:square;stroke-linejoin:miter;stroke-width:0.8;"/>
   </g>
   <g id="patch_6">
    <path d="M 144 103.68 
L 1036.8 103.68 
" style="fill:none;stroke:#000000;stroke-linecap:square;stroke-linejoin:miter;stroke-width:0.8;"/>
   </g>
  </g>
 </g>
 <defs>
  <clipPath id="p59b6a2e9e1">
   <rect height="665.28" width="892.8" x="144" y="103.68"/>
  </clipPath>
 </defs>
</svg>
