<?xml version="1.0" encoding="utf-8" standalone="no"?>
<!DOCTYPE svg PUBLIC "-//W3C//DTD SVG 1.1//EN"
  "http://www.w3.org/Graphics/SVG/1.1/DTD/svg11.dtd">
<!-- Created with matplotlib (http://matplotlib.org/) -->
<svg height="864pt" version="1.1" viewBox="0 0 1152 864" width="1152pt" xmlns="http://www.w3.org/2000/svg" xmlns:xlink="http://www.w3.org/1999/xlink">
 <defs>
  <style type="text/css">
*{stroke-linecap:butt;stroke-linejoin:round;}
  </style>
 </defs>
 <g id="figure_1">
  <g id="patch_1">
   <path d="M 0 864 
L 1152 864 
L 1152 0 
L 0 0 
z
" style="fill:#ffffff;"/>
  </g>
  <g id="axes_1">
   <g id="patch_2">
    <path d="M 144 768.96 
L 1036.8 768.96 
L 1036.8 103.68 
L 144 103.68 
z
" style="fill:#ffffff;"/>
   </g>
   <g id="matplotlib.axis_1">
    <g id="xtick_1">
     <g id="line2d_1">
      <defs>
       <path d="M 0 0 
L 0 3.5 
" id="m0bddd3fee4" style="stroke:#000000;stroke-width:0.8;"/>
      </defs>
      <g>
       <use style="stroke:#000000;stroke-width:0.8;" x="144" xlink:href="#m0bddd3fee4" y="768.96"/>
      </g>
     </g>
     <g id="text_1">
      <!-- −4000 -->
      <defs>
       <path d="M 10.59375 35.5 
L 73.1875 35.5 
L 73.1875 27.203125 
L 10.59375 27.203125 
z
" id="DejaVuSans-2212"/>
       <path d="M 37.796875 64.3125 
L 12.890625 25.390625 
L 37.796875 25.390625 
z
M 35.203125 72.90625 
L 47.609375 72.90625 
L 47.609375 25.390625 
L 58.015625 25.390625 
L 58.015625 17.1875 
L 47.609375 17.1875 
L 47.609375 0 
L 37.796875 0 
L 37.796875 17.1875 
L 4.890625 17.1875 
L 4.890625 26.703125 
z
" id="DejaVuSans-34"/>
       <path d="M 31.78125 66.40625 
Q 24.171875 66.40625 20.328125 58.90625 
Q 16.5 51.421875 16.5 36.375 
Q 16.5 21.390625 20.328125 13.890625 
Q 24.171875 6.390625 31.78125 6.390625 
Q 39.453125 6.390625 43.28125 13.890625 
Q 47.125 21.390625 47.125 36.375 
Q 47.125 51.421875 43.28125 58.90625 
Q 39.453125 66.40625 31.78125 66.40625 
z
M 31.78125 74.21875 
Q 44.046875 74.21875 50.515625 64.515625 
Q 56.984375 54.828125 56.984375 36.375 
Q 56.984375 17.96875 50.515625 8.265625 
Q 44.046875 -1.421875 31.78125 -1.421875 
Q 19.53125 -1.421875 13.0625 8.265625 
Q 6.59375 17.96875 6.59375 36.375 
Q 6.59375 54.828125 13.0625 64.515625 
Q 19.53125 74.21875 31.78125 74.21875 
z
" id="DejaVuSans-30"/>
      </defs>
      <g transform="translate(127.085156 783.558437)scale(0.1 -0.1)">
       <use xlink:href="#DejaVuSans-2212"/>
       <use x="83.789062" xlink:href="#DejaVuSans-34"/>
       <use x="147.412109" xlink:href="#DejaVuSans-30"/>
       <use x="211.035156" xlink:href="#DejaVuSans-30"/>
       <use x="274.658203" xlink:href="#DejaVuSans-30"/>
      </g>
     </g>
    </g>
    <g id="xtick_2">
     <g id="line2d_2">
      <g>
       <use style="stroke:#000000;stroke-width:0.8;" x="255.6" xlink:href="#m0bddd3fee4" y="768.96"/>
      </g>
     </g>
     <g id="text_2">
      <!-- −3000 -->
      <defs>
       <path d="M 40.578125 39.3125 
Q 47.65625 37.796875 51.625 33 
Q 55.609375 28.21875 55.609375 21.1875 
Q 55.609375 10.40625 48.1875 4.484375 
Q 40.765625 -1.421875 27.09375 -1.421875 
Q 22.515625 -1.421875 17.65625 -0.515625 
Q 12.796875 0.390625 7.625 2.203125 
L 7.625 11.71875 
Q 11.71875 9.328125 16.59375 8.109375 
Q 21.484375 6.890625 26.8125 6.890625 
Q 36.078125 6.890625 40.9375 10.546875 
Q 45.796875 14.203125 45.796875 21.1875 
Q 45.796875 27.640625 41.28125 31.265625 
Q 36.765625 34.90625 28.71875 34.90625 
L 20.21875 34.90625 
L 20.21875 43.015625 
L 29.109375 43.015625 
Q 36.375 43.015625 40.234375 45.921875 
Q 44.09375 48.828125 44.09375 54.296875 
Q 44.09375 59.90625 40.109375 62.90625 
Q 36.140625 65.921875 28.71875 65.921875 
Q 24.65625 65.921875 20.015625 65.03125 
Q 15.375 64.15625 9.8125 62.3125 
L 9.8125 71.09375 
Q 15.4375 72.65625 20.34375 73.4375 
Q 25.25 74.21875 29.59375 74.21875 
Q 40.828125 74.21875 47.359375 69.109375 
Q 53.90625 64.015625 53.90625 55.328125 
Q 53.90625 49.265625 50.4375 45.09375 
Q 46.96875 40.921875 40.578125 39.3125 
z
" id="DejaVuSans-33"/>
      </defs>
      <g transform="translate(238.685156 783.558437)scale(0.1 -0.1)">
       <use xlink:href="#DejaVuSans-2212"/>
       <use x="83.789062" xlink:href="#DejaVuSans-33"/>
       <use x="147.412109" xlink:href="#DejaVuSans-30"/>
       <use x="211.035156" xlink:href="#DejaVuSans-30"/>
       <use x="274.658203" xlink:href="#DejaVuSans-30"/>
      </g>
     </g>
    </g>
    <g id="xtick_3">
     <g id="line2d_3">
      <g>
       <use style="stroke:#000000;stroke-width:0.8;" x="367.2" xlink:href="#m0bddd3fee4" y="768.96"/>
      </g>
     </g>
     <g id="text_3">
      <!-- −2000 -->
      <defs>
       <path d="M 19.1875 8.296875 
L 53.609375 8.296875 
L 53.609375 0 
L 7.328125 0 
L 7.328125 8.296875 
Q 12.9375 14.109375 22.625 23.890625 
Q 32.328125 33.6875 34.8125 36.53125 
Q 39.546875 41.84375 41.421875 45.53125 
Q 43.3125 49.21875 43.3125 52.78125 
Q 43.3125 58.59375 39.234375 62.25 
Q 35.15625 65.921875 28.609375 65.921875 
Q 23.96875 65.921875 18.8125 64.3125 
Q 13.671875 62.703125 7.8125 59.421875 
L 7.8125 69.390625 
Q 13.765625 71.78125 18.9375 73 
Q 24.125 74.21875 28.421875 74.21875 
Q 39.75 74.21875 46.484375 68.546875 
Q 53.21875 62.890625 53.21875 53.421875 
Q 53.21875 48.921875 51.53125 44.890625 
Q 49.859375 40.875 45.40625 35.40625 
Q 44.1875 33.984375 37.640625 27.21875 
Q 31.109375 20.453125 19.1875 8.296875 
z
" id="DejaVuSans-32"/>
      </defs>
      <g transform="translate(350.285156 783.558437)scale(0.1 -0.1)">
       <use xlink:href="#DejaVuSans-2212"/>
       <use x="83.789062" xlink:href="#DejaVuSans-32"/>
       <use x="147.412109" xlink:href="#DejaVuSans-30"/>
       <use x="211.035156" xlink:href="#DejaVuSans-30"/>
       <use x="274.658203" xlink:href="#DejaVuSans-30"/>
      </g>
     </g>
    </g>
    <g id="xtick_4">
     <g id="line2d_4">
      <g>
       <use style="stroke:#000000;stroke-width:0.8;" x="478.8" xlink:href="#m0bddd3fee4" y="768.96"/>
      </g>
     </g>
     <g id="text_4">
      <!-- −1000 -->
      <defs>
       <path d="M 12.40625 8.296875 
L 28.515625 8.296875 
L 28.515625 63.921875 
L 10.984375 60.40625 
L 10.984375 69.390625 
L 28.421875 72.90625 
L 38.28125 72.90625 
L 38.28125 8.296875 
L 54.390625 8.296875 
L 54.390625 0 
L 12.40625 0 
z
" id="DejaVuSans-31"/>
      </defs>
      <g transform="translate(461.885156 783.558437)scale(0.1 -0.1)">
       <use xlink:href="#DejaVuSans-2212"/>
       <use x="83.789062" xlink:href="#DejaVuSans-31"/>
       <use x="147.412109" xlink:href="#DejaVuSans-30"/>
       <use x="211.035156" xlink:href="#DejaVuSans-30"/>
       <use x="274.658203" xlink:href="#DejaVuSans-30"/>
      </g>
     </g>
    </g>
    <g id="xtick_5">
     <g id="line2d_5">
      <g>
       <use style="stroke:#000000;stroke-width:0.8;" x="590.4" xlink:href="#m0bddd3fee4" y="768.96"/>
      </g>
     </g>
     <g id="text_5">
      <!-- 0 -->
      <g transform="translate(587.21875 783.558437)scale(0.1 -0.1)">
       <use xlink:href="#DejaVuSans-30"/>
      </g>
     </g>
    </g>
    <g id="xtick_6">
     <g id="line2d_6">
      <g>
       <use style="stroke:#000000;stroke-width:0.8;" x="702" xlink:href="#m0bddd3fee4" y="768.96"/>
      </g>
     </g>
     <g id="text_6">
      <!-- 1000 -->
      <g transform="translate(689.275 783.558437)scale(0.1 -0.1)">
       <use xlink:href="#DejaVuSans-31"/>
       <use x="63.623047" xlink:href="#DejaVuSans-30"/>
       <use x="127.246094" xlink:href="#DejaVuSans-30"/>
       <use x="190.869141" xlink:href="#DejaVuSans-30"/>
      </g>
     </g>
    </g>
    <g id="xtick_7">
     <g id="line2d_7">
      <g>
       <use style="stroke:#000000;stroke-width:0.8;" x="813.6" xlink:href="#m0bddd3fee4" y="768.96"/>
      </g>
     </g>
     <g id="text_7">
      <!-- 2000 -->
      <g transform="translate(800.875 783.558437)scale(0.1 -0.1)">
       <use xlink:href="#DejaVuSans-32"/>
       <use x="63.623047" xlink:href="#DejaVuSans-30"/>
       <use x="127.246094" xlink:href="#DejaVuSans-30"/>
       <use x="190.869141" xlink:href="#DejaVuSans-30"/>
      </g>
     </g>
    </g>
    <g id="xtick_8">
     <g id="line2d_8">
      <g>
       <use style="stroke:#000000;stroke-width:0.8;" x="925.2" xlink:href="#m0bddd3fee4" y="768.96"/>
      </g>
     </g>
     <g id="text_8">
      <!-- 3000 -->
      <g transform="translate(912.475 783.558437)scale(0.1 -0.1)">
       <use xlink:href="#DejaVuSans-33"/>
       <use x="63.623047" xlink:href="#DejaVuSans-30"/>
       <use x="127.246094" xlink:href="#DejaVuSans-30"/>
       <use x="190.869141" xlink:href="#DejaVuSans-30"/>
      </g>
     </g>
    </g>
    <g id="xtick_9">
     <g id="line2d_9">
      <g>
       <use style="stroke:#000000;stroke-width:0.8;" x="1036.8" xlink:href="#m0bddd3fee4" y="768.96"/>
      </g>
     </g>
     <g id="text_9">
      <!-- 4000 -->
      <g transform="translate(1024.075 783.558437)scale(0.1 -0.1)">
       <use xlink:href="#DejaVuSans-34"/>
       <use x="63.623047" xlink:href="#DejaVuSans-30"/>
       <use x="127.246094" xlink:href="#DejaVuSans-30"/>
       <use x="190.869141" xlink:href="#DejaVuSans-30"/>
      </g>
     </g>
    </g>
   </g>
   <g id="matplotlib.axis_2">
    <g id="ytick_1">
     <g id="line2d_10">
      <defs>
       <path d="M 0 0 
L -3.5 0 
" id="mc2ea939149" style="stroke:#000000;stroke-width:0.8;"/>
      </defs>
      <g>
       <use style="stroke:#000000;stroke-width:0.8;" x="144" xlink:href="#mc2ea939149" y="768.96"/>
      </g>
     </g>
     <g id="text_10">
      <!-- −4000 -->
      <g transform="translate(103.170312 772.759219)scale(0.1 -0.1)">
       <use xlink:href="#DejaVuSans-2212"/>
       <use x="83.789062" xlink:href="#DejaVuSans-34"/>
       <use x="147.412109" xlink:href="#DejaVuSans-30"/>
       <use x="211.035156" xlink:href="#DejaVuSans-30"/>
       <use x="274.658203" xlink:href="#DejaVuSans-30"/>
      </g>
     </g>
    </g>
    <g id="ytick_2">
     <g id="line2d_11">
      <g>
       <use style="stroke:#000000;stroke-width:0.8;" x="144" xlink:href="#mc2ea939149" y="685.8"/>
      </g>
     </g>
     <g id="text_11">
      <!-- −3000 -->
      <g transform="translate(103.170312 689.599219)scale(0.1 -0.1)">
       <use xlink:href="#DejaVuSans-2212"/>
       <use x="83.789062" xlink:href="#DejaVuSans-33"/>
       <use x="147.412109" xlink:href="#DejaVuSans-30"/>
       <use x="211.035156" xlink:href="#DejaVuSans-30"/>
       <use x="274.658203" xlink:href="#DejaVuSans-30"/>
      </g>
     </g>
    </g>
    <g id="ytick_3">
     <g id="line2d_12">
      <g>
       <use style="stroke:#000000;stroke-width:0.8;" x="144" xlink:href="#mc2ea939149" y="602.64"/>
      </g>
     </g>
     <g id="text_12">
      <!-- −2000 -->
      <g transform="translate(103.170312 606.439219)scale(0.1 -0.1)">
       <use xlink:href="#DejaVuSans-2212"/>
       <use x="83.789062" xlink:href="#DejaVuSans-32"/>
       <use x="147.412109" xlink:href="#DejaVuSans-30"/>
       <use x="211.035156" xlink:href="#DejaVuSans-30"/>
       <use x="274.658203" xlink:href="#DejaVuSans-30"/>
      </g>
     </g>
    </g>
    <g id="ytick_4">
     <g id="line2d_13">
      <g>
       <use style="stroke:#000000;stroke-width:0.8;" x="144" xlink:href="#mc2ea939149" y="519.48"/>
      </g>
     </g>
     <g id="text_13">
      <!-- −1000 -->
      <g transform="translate(103.170312 523.279219)scale(0.1 -0.1)">
       <use xlink:href="#DejaVuSans-2212"/>
       <use x="83.789062" xlink:href="#DejaVuSans-31"/>
       <use x="147.412109" xlink:href="#DejaVuSans-30"/>
       <use x="211.035156" xlink:href="#DejaVuSans-30"/>
       <use x="274.658203" xlink:href="#DejaVuSans-30"/>
      </g>
     </g>
    </g>
    <g id="ytick_5">
     <g id="line2d_14">
      <g>
       <use style="stroke:#000000;stroke-width:0.8;" x="144" xlink:href="#mc2ea939149" y="436.32"/>
      </g>
     </g>
     <g id="text_14">
      <!-- 0 -->
      <g transform="translate(130.6375 440.119219)scale(0.1 -0.1)">
       <use xlink:href="#DejaVuSans-30"/>
      </g>
     </g>
    </g>
    <g id="ytick_6">
     <g id="line2d_15">
      <g>
       <use style="stroke:#000000;stroke-width:0.8;" x="144" xlink:href="#mc2ea939149" y="353.16"/>
      </g>
     </g>
     <g id="text_15">
      <!-- 1000 -->
      <g transform="translate(111.55 356.959219)scale(0.1 -0.1)">
       <use xlink:href="#DejaVuSans-31"/>
       <use x="63.623047" xlink:href="#DejaVuSans-30"/>
       <use x="127.246094" xlink:href="#DejaVuSans-30"/>
       <use x="190.869141" xlink:href="#DejaVuSans-30"/>
      </g>
     </g>
    </g>
    <g id="ytick_7">
     <g id="line2d_16">
      <g>
       <use style="stroke:#000000;stroke-width:0.8;" x="144" xlink:href="#mc2ea939149" y="270"/>
      </g>
     </g>
     <g id="text_16">
      <!-- 2000 -->
      <g transform="translate(111.55 273.799219)scale(0.1 -0.1)">
       <use xlink:href="#DejaVuSans-32"/>
       <use x="63.623047" xlink:href="#DejaVuSans-30"/>
       <use x="127.246094" xlink:href="#DejaVuSans-30"/>
       <use x="190.869141" xlink:href="#DejaVuSans-30"/>
      </g>
     </g>
    </g>
    <g id="ytick_8">
     <g id="line2d_17">
      <g>
       <use style="stroke:#000000;stroke-width:0.8;" x="144" xlink:href="#mc2ea939149" y="186.84"/>
      </g>
     </g>
     <g id="text_17">
      <!-- 3000 -->
      <g transform="translate(111.55 190.639219)scale(0.1 -0.1)">
       <use xlink:href="#DejaVuSans-33"/>
       <use x="63.623047" xlink:href="#DejaVuSans-30"/>
       <use x="127.246094" xlink:href="#DejaVuSans-30"/>
       <use x="190.869141" xlink:href="#DejaVuSans-30"/>
      </g>
     </g>
    </g>
    <g id="ytick_9">
     <g id="line2d_18">
      <g>
       <use style="stroke:#000000;stroke-width:0.8;" x="144" xlink:href="#mc2ea939149" y="103.68"/>
      </g>
     </g>
     <g id="text_18">
      <!-- 4000 -->
      <g transform="translate(111.55 107.479219)scale(0.1 -0.1)">
       <use xlink:href="#DejaVuSans-34"/>
       <use x="63.623047" xlink:href="#DejaVuSans-30"/>
       <use x="127.246094" xlink:href="#DejaVuSans-30"/>
       <use x="190.869141" xlink:href="#DejaVuSans-30"/>
      </g>
     </g>
    </g>
   </g>
   <g id="line2d_19">
    <path clip-path="url(#pf29f777a73)" d="M 590.4 768.96 
L 590.4 103.68 
" style="fill:none;stroke:#1f77b4;stroke-linecap:square;stroke-width:1.5;"/>
   </g>
   <g id="line2d_20">
    <path clip-path="url(#pf29f777a73)" d="M 144 436.32 
L 1036.8 436.32 
" style="fill:none;stroke:#1f77b4;stroke-linecap:square;stroke-width:1.5;"/>
   </g>
   <g id="line2d_21">
    <defs>
     <path d="M 0 3 
C 0.795609 3 1.55874 2.683901 2.12132 2.12132 
C 2.683901 1.55874 3 0.795609 3 0 
C 3 -0.795609 2.683901 -1.55874 2.12132 -2.12132 
C 1.55874 -2.683901 0.795609 -3 0 -3 
C -0.795609 -3 -1.55874 -2.683901 -2.12132 -2.12132 
C -2.683901 -1.55874 -3 -0.795609 -3 0 
C -3 0.795609 -2.683901 1.55874 -2.12132 2.12132 
C -1.55874 2.683901 -0.795609 3 0 3 
z
" id="mab44b35766" style="stroke:#008000;"/>
    </defs>
    <g clip-path="url(#pf29f777a73)">
     <use style="fill:#008000;stroke:#008000;" x="1184.605199" xlink:href="#mab44b35766" y="494.858625"/>
    </g>
   </g>
   <g id="line2d_22">
    <g clip-path="url(#pf29f777a73)">
     <use style="fill:#008000;stroke:#008000;" x="1409.69237" xlink:href="#mab44b35766" y="488.893544"/>
    </g>
   </g>
   <g id="line2d_23">
    <g clip-path="url(#pf29f777a73)">
     <use style="fill:#008000;stroke:#008000;" x="1263.67509" xlink:href="#mab44b35766" y="338.51568"/>
    </g>
   </g>
   <g id="line2d_24">
    <g clip-path="url(#pf29f777a73)">
     <use style="fill:#008000;stroke:#008000;" x="1322.072789" xlink:href="#mab44b35766" y="276.597641"/>
    </g>
   </g>
   <g id="line2d_25">
    <g clip-path="url(#pf29f777a73)">
     <use style="fill:#008000;stroke:#008000;" x="647.451005" xlink:href="#mab44b35766" y="392.345351"/>
    </g>
   </g>
   <g id="line2d_26">
    <g clip-path="url(#pf29f777a73)">
     <use style="fill:#008000;stroke:#008000;" x="647.451005" xlink:href="#mab44b35766" y="392.345351"/>
    </g>
   </g>
   <g id="line2d_27">
    <g clip-path="url(#pf29f777a73)">
     <use style="fill:#008000;stroke:#008000;" x="753.85845" xlink:href="#mab44b35766" y="197.348889"/>
    </g>
   </g>
   <g id="line2d_28">
    <g clip-path="url(#pf29f777a73)">
     <use style="fill:#008000;stroke:#008000;" x="733.94853" xlink:href="#mab44b35766" y="199.982099"/>
    </g>
   </g>
   <g id="line2d_29">
    <g clip-path="url(#pf29f777a73)">
     <use style="fill:#008000;stroke:#008000;" x="458.480394" xlink:href="#mab44b35766" y="582.444284"/>
    </g>
   </g>
   <g id="line2d_30">
    <g clip-path="url(#pf29f777a73)">
     <use style="fill:#008000;stroke:#008000;" x="540.614299" xlink:href="#mab44b35766" y="506.64614"/>
    </g>
   </g>
   <g id="line2d_31">
    <g clip-path="url(#pf29f777a73)">
     <use style="fill:#008000;stroke:#008000;" x="758.830951" xlink:href="#mab44b35766" y="591.742591"/>
    </g>
   </g>
   <g id="line2d_32">
    <defs>
     <path d="M 0 1.333333 
C 0.353604 1.333333 0.692773 1.192845 0.942809 0.942809 
C 1.192845 0.692773 1.333333 0.353604 1.333333 0 
C 1.333333 -0.353604 1.192845 -0.692773 0.942809 -0.942809 
C 0.692773 -1.192845 0.353604 -1.333333 0 -1.333333 
C -0.353604 -1.333333 -0.692773 -1.192845 -0.942809 -0.942809 
C -1.192845 -0.692773 -1.333333 -0.353604 -1.333333 0 
C -1.333333 0.353604 -1.192845 0.692773 -0.942809 0.942809 
C -0.692773 1.192845 -0.353604 1.333333 0 1.333333 
z
" id="ma3b0d08ad2" style="stroke:#ff0000;"/>
    </defs>
    <g clip-path="url(#pf29f777a73)">
     <use style="fill:#ff0000;stroke:#ff0000;" x="1184.605199" xlink:href="#ma3b0d08ad2" y="494.858625"/>
     <use style="fill:#ff0000;stroke:#ff0000;" x="1409.69237" xlink:href="#ma3b0d08ad2" y="488.893544"/>
     <use style="fill:#ff0000;stroke:#ff0000;" x="1263.67509" xlink:href="#ma3b0d08ad2" y="338.51568"/>
     <use style="fill:#ff0000;stroke:#ff0000;" x="1322.072789" xlink:href="#ma3b0d08ad2" y="276.597641"/>
     <use style="fill:#ff0000;stroke:#ff0000;" x="649.982267" xlink:href="#ma3b0d08ad2" y="399.741115"/>
     <use style="fill:#ff0000;stroke:#ff0000;" x="643.396939" xlink:href="#ma3b0d08ad2" y="384.941067"/>
     <use style="fill:#ff0000;stroke:#ff0000;" x="763.872162" xlink:href="#ma3b0d08ad2" y="196.531382"/>
     <use style="fill:#ff0000;stroke:#ff0000;" x="743.988764" xlink:href="#ma3b0d08ad2" y="198.380956"/>
     <use style="fill:#ff0000;stroke:#ff0000;" x="724.093372" xlink:href="#ma3b0d08ad2" y="201.800461"/>
     <use style="fill:#ff0000;stroke:#ff0000;" x="383.604456" xlink:href="#ma3b0d08ad2" y="274.732795"/>
     <use style="fill:#ff0000;stroke:#ff0000;" x="360.12217" xlink:href="#ma3b0d08ad2" y="272.323185"/>
     <use style="fill:#ff0000;stroke:#ff0000;" x="405.219946" xlink:href="#ma3b0d08ad2" y="316.763823"/>
     <use style="fill:#ff0000;stroke:#ff0000;" x="433.766601" xlink:href="#ma3b0d08ad2" y="344.874005"/>
     <use style="fill:#ff0000;stroke:#ff0000;" x="404.045528" xlink:href="#ma3b0d08ad2" y="364.176238"/>
     <use style="fill:#ff0000;stroke:#ff0000;" x="454.143075" xlink:href="#ma3b0d08ad2" y="390.148851"/>
     <use style="fill:#ff0000;stroke:#ff0000;" x="441.24909" xlink:href="#ma3b0d08ad2" y="414.496022"/>
     <use style="fill:#ff0000;stroke:#ff0000;" x="421.700029" xlink:href="#ma3b0d08ad2" y="417.357438"/>
     <use style="fill:#ff0000;stroke:#ff0000;" x="415.892192" xlink:href="#ma3b0d08ad2" y="440.505954"/>
     <use style="fill:#ff0000;stroke:#ff0000;" x="394.898342" xlink:href="#ma3b0d08ad2" y="447.545471"/>
     <use style="fill:#ff0000;stroke:#ff0000;" x="401.54993" xlink:href="#ma3b0d08ad2" y="467.115323"/>
     <use style="fill:#ff0000;stroke:#ff0000;" x="437.220515" xlink:href="#ma3b0d08ad2" y="467.305343"/>
     <use style="fill:#ff0000;stroke:#ff0000;" x="403.70467" xlink:href="#ma3b0d08ad2" y="480.643027"/>
     <use style="fill:#ff0000;stroke:#ff0000;" x="411.836228" xlink:href="#ma3b0d08ad2" y="508.142751"/>
     <use style="fill:#ff0000;stroke:#ff0000;" x="469.399757" xlink:href="#ma3b0d08ad2" y="491.235338"/>
     <use style="fill:#ff0000;stroke:#ff0000;" x="434.679577" xlink:href="#ma3b0d08ad2" y="513.716091"/>
     <use style="fill:#ff0000;stroke:#ff0000;" x="446.202274" xlink:href="#ma3b0d08ad2" y="515.602728"/>
     <use style="fill:#ff0000;stroke:#ff0000;" x="463.765184" xlink:href="#ma3b0d08ad2" y="513.246606"/>
     <use style="fill:#ff0000;stroke:#ff0000;" x="458.73555" xlink:href="#ma3b0d08ad2" y="523.935721"/>
     <use style="fill:#ff0000;stroke:#ff0000;" x="472.672328" xlink:href="#ma3b0d08ad2" y="539.546025"/>
     <use style="fill:#ff0000;stroke:#ff0000;" x="458.724569" xlink:href="#ma3b0d08ad2" y="562.544499"/>
     <use style="fill:#ff0000;stroke:#ff0000;" x="452.129114" xlink:href="#ma3b0d08ad2" y="582.109897"/>
     <use style="fill:#ff0000;stroke:#ff0000;" x="464.777975" xlink:href="#ma3b0d08ad2" y="582.639046"/>
     <use style="fill:#ff0000;stroke:#ff0000;" x="532.979092" xlink:href="#ma3b0d08ad2" y="512.674333"/>
     <use style="fill:#ff0000;stroke:#ff0000;" x="547.799046" xlink:href="#ma3b0d08ad2" y="500.383058"/>
     <use style="fill:#ff0000;stroke:#ff0000;" x="595.012142" xlink:href="#ma3b0d08ad2" y="498.033047"/>
     <use style="fill:#ff0000;stroke:#ff0000;" x="637.356672" xlink:href="#ma3b0d08ad2" y="638.301022"/>
     <use style="fill:#ff0000;stroke:#ff0000;" x="643.422788" xlink:href="#ma3b0d08ad2" y="614.081599"/>
     <use style="fill:#ff0000;stroke:#ff0000;" x="667.138997" xlink:href="#ma3b0d08ad2" y="613.626234"/>
     <use style="fill:#ff0000;stroke:#ff0000;" x="669.485735" xlink:href="#ma3b0d08ad2" y="593.027197"/>
     <use style="fill:#ff0000;stroke:#ff0000;" x="695.260028" xlink:href="#ma3b0d08ad2" y="597.528907"/>
     <use style="fill:#ff0000;stroke:#ff0000;" x="758.830951" xlink:href="#ma3b0d08ad2" y="591.742591"/>
     <use style="fill:#ff0000;stroke:#ff0000;" x="847.125116" xlink:href="#ma3b0d08ad2" y="570.737856"/>
     <use style="fill:#ff0000;stroke:#ff0000;" x="875.902032" xlink:href="#ma3b0d08ad2" y="571.690481"/>
     <use style="fill:#ff0000;stroke:#ff0000;" x="897.198599" xlink:href="#ma3b0d08ad2" y="553.512538"/>
     <use style="fill:#ff0000;stroke:#ff0000;" x="938.127992" xlink:href="#ma3b0d08ad2" y="554.575515"/>
     <use style="fill:#ff0000;stroke:#ff0000;" x="964.382871" xlink:href="#ma3b0d08ad2" y="548.294697"/>
     <use style="fill:#ff0000;stroke:#ff0000;" x="1057.881199" xlink:href="#ma3b0d08ad2" y="540.436316"/>
     <use style="fill:#ff0000;stroke:#ff0000;" x="1089.464033" xlink:href="#ma3b0d08ad2" y="511.135959"/>
    </g>
   </g>
   <g id="line2d_33">
    <defs>
     <path d="M -0.5 0.5 
L 0.5 0.5 
L 0.5 -0.5 
L -0.5 -0.5 
z
" id="m52991a2c96" style="stroke:#1f77b4;stroke-linejoin:miter;"/>
    </defs>
    <g clip-path="url(#pf29f777a73)">
     <use style="fill:#1f77b4;stroke:#1f77b4;stroke-linejoin:miter;" x="1184.605199" xlink:href="#m52991a2c96" y="494.858625"/>
     <use style="fill:#1f77b4;stroke:#1f77b4;stroke-linejoin:miter;" x="1409.69237" xlink:href="#m52991a2c96" y="488.893544"/>
     <use style="fill:#1f77b4;stroke:#1f77b4;stroke-linejoin:miter;" x="1263.67509" xlink:href="#m52991a2c96" y="338.51568"/>
     <use style="fill:#1f77b4;stroke:#1f77b4;stroke-linejoin:miter;" x="1322.072789" xlink:href="#m52991a2c96" y="276.597641"/>
     <use style="fill:#1f77b4;stroke:#1f77b4;stroke-linejoin:miter;" x="649.982267" xlink:href="#m52991a2c96" y="399.741115"/>
     <use style="fill:#1f77b4;stroke:#1f77b4;stroke-linejoin:miter;" x="647.339618" xlink:href="#m52991a2c96" y="397.906546"/>
     <use style="fill:#1f77b4;stroke:#1f77b4;stroke-linejoin:miter;" x="645.944488" xlink:href="#m52991a2c96" y="395.357106"/>
     <use style="fill:#1f77b4;stroke:#1f77b4;stroke-linejoin:miter;" x="643.01592" xlink:href="#m52991a2c96" y="393.742961"/>
     <use style="fill:#1f77b4;stroke:#1f77b4;stroke-linejoin:miter;" x="641.589295" xlink:href="#m52991a2c96" y="390.73533"/>
     <use style="fill:#1f77b4;stroke:#1f77b4;stroke-linejoin:miter;" x="643.396939" xlink:href="#m52991a2c96" y="384.941067"/>
     <use style="fill:#1f77b4;stroke:#1f77b4;stroke-linejoin:miter;" x="763.872162" xlink:href="#m52991a2c96" y="196.531382"/>
     <use style="fill:#1f77b4;stroke:#1f77b4;stroke-linejoin:miter;" x="743.988764" xlink:href="#m52991a2c96" y="198.380956"/>
     <use style="fill:#1f77b4;stroke:#1f77b4;stroke-linejoin:miter;" x="724.093372" xlink:href="#m52991a2c96" y="201.800461"/>
     <use style="fill:#1f77b4;stroke:#1f77b4;stroke-linejoin:miter;" x="705.899026" xlink:href="#m52991a2c96" y="204.393903"/>
     <use style="fill:#1f77b4;stroke:#1f77b4;stroke-linejoin:miter;" x="688.660398" xlink:href="#m52991a2c96" y="207.150859"/>
     <use style="fill:#1f77b4;stroke:#1f77b4;stroke-linejoin:miter;" x="671.773232" xlink:href="#m52991a2c96" y="210.515388"/>
     <use style="fill:#1f77b4;stroke:#1f77b4;stroke-linejoin:miter;" x="656.576506" xlink:href="#m52991a2c96" y="211.860274"/>
     <use style="fill:#1f77b4;stroke:#1f77b4;stroke-linejoin:miter;" x="641.346482" xlink:href="#m52991a2c96" y="214.662063"/>
     <use style="fill:#1f77b4;stroke:#1f77b4;stroke-linejoin:miter;" x="626.289918" xlink:href="#m52991a2c96" y="216.527579"/>
     <use style="fill:#1f77b4;stroke:#1f77b4;stroke-linejoin:miter;" x="612.050121" xlink:href="#m52991a2c96" y="219.226523"/>
     <use style="fill:#1f77b4;stroke:#1f77b4;stroke-linejoin:miter;" x="598.480247" xlink:href="#m52991a2c96" y="222.018088"/>
     <use style="fill:#1f77b4;stroke:#1f77b4;stroke-linejoin:miter;" x="584.976883" xlink:href="#m52991a2c96" y="224.654003"/>
     <use style="fill:#1f77b4;stroke:#1f77b4;stroke-linejoin:miter;" x="571.825575" xlink:href="#m52991a2c96" y="226.026765"/>
     <use style="fill:#1f77b4;stroke:#1f77b4;stroke-linejoin:miter;" x="558.985303" xlink:href="#m52991a2c96" y="227.315206"/>
     <use style="fill:#1f77b4;stroke:#1f77b4;stroke-linejoin:miter;" x="546.453877" xlink:href="#m52991a2c96" y="231.73106"/>
     <use style="fill:#1f77b4;stroke:#1f77b4;stroke-linejoin:miter;" x="533.913782" xlink:href="#m52991a2c96" y="233.680906"/>
     <use style="fill:#1f77b4;stroke:#1f77b4;stroke-linejoin:miter;" x="521.787812" xlink:href="#m52991a2c96" y="237.057561"/>
     <use style="fill:#1f77b4;stroke:#1f77b4;stroke-linejoin:miter;" x="509.265878" xlink:href="#m52991a2c96" y="239.339534"/>
     <use style="fill:#1f77b4;stroke:#1f77b4;stroke-linejoin:miter;" x="496.927665" xlink:href="#m52991a2c96" y="242.156734"/>
     <use style="fill:#1f77b4;stroke:#1f77b4;stroke-linejoin:miter;" x="483.800964" xlink:href="#m52991a2c96" y="243.361013"/>
     <use style="fill:#1f77b4;stroke:#1f77b4;stroke-linejoin:miter;" x="470.910416" xlink:href="#m52991a2c96" y="245.511092"/>
     <use style="fill:#1f77b4;stroke:#1f77b4;stroke-linejoin:miter;" x="457.686454" xlink:href="#m52991a2c96" y="247.981557"/>
     <use style="fill:#1f77b4;stroke:#1f77b4;stroke-linejoin:miter;" x="443.643809" xlink:href="#m52991a2c96" y="249.388576"/>
     <use style="fill:#1f77b4;stroke:#1f77b4;stroke-linejoin:miter;" x="429.677947" xlink:href="#m52991a2c96" y="251.899839"/>
     <use style="fill:#1f77b4;stroke:#1f77b4;stroke-linejoin:miter;" x="417.600371" xlink:href="#m52991a2c96" y="256.837451"/>
     <use style="fill:#1f77b4;stroke:#1f77b4;stroke-linejoin:miter;" x="407.955343" xlink:href="#m52991a2c96" y="264.253754"/>
     <use style="fill:#1f77b4;stroke:#1f77b4;stroke-linejoin:miter;" x="398.293699" xlink:href="#m52991a2c96" y="271.735228"/>
     <use style="fill:#1f77b4;stroke:#1f77b4;stroke-linejoin:miter;" x="383.604456" xlink:href="#m52991a2c96" y="274.732795"/>
     <use style="fill:#1f77b4;stroke:#1f77b4;stroke-linejoin:miter;" x="360.12217" xlink:href="#m52991a2c96" y="272.323185"/>
     <use style="fill:#1f77b4;stroke:#1f77b4;stroke-linejoin:miter;" x="405.219946" xlink:href="#m52991a2c96" y="316.763823"/>
     <use style="fill:#1f77b4;stroke:#1f77b4;stroke-linejoin:miter;" x="433.766601" xlink:href="#m52991a2c96" y="344.874005"/>
     <use style="fill:#1f77b4;stroke:#1f77b4;stroke-linejoin:miter;" x="423.966171" xlink:href="#m52991a2c96" y="347.908379"/>
     <use style="fill:#1f77b4;stroke:#1f77b4;stroke-linejoin:miter;" x="419.852456" xlink:href="#m52991a2c96" y="354.428841"/>
     <use style="fill:#1f77b4;stroke:#1f77b4;stroke-linejoin:miter;" x="408.316964" xlink:href="#m52991a2c96" y="357.440776"/>
     <use style="fill:#1f77b4;stroke:#1f77b4;stroke-linejoin:miter;" x="404.045528" xlink:href="#m52991a2c96" y="364.176238"/>
     <use style="fill:#1f77b4;stroke:#1f77b4;stroke-linejoin:miter;" x="454.143075" xlink:href="#m52991a2c96" y="390.148851"/>
     <use style="fill:#1f77b4;stroke:#1f77b4;stroke-linejoin:miter;" x="454.941084" xlink:href="#m52991a2c96" y="395.95377"/>
     <use style="fill:#1f77b4;stroke:#1f77b4;stroke-linejoin:miter;" x="456.888466" xlink:href="#m52991a2c96" y="401.942226"/>
     <use style="fill:#1f77b4;stroke:#1f77b4;stroke-linejoin:miter;" x="458.202649" xlink:href="#m52991a2c96" y="407.490813"/>
     <use style="fill:#1f77b4;stroke:#1f77b4;stroke-linejoin:miter;" x="458.638414" xlink:href="#m52991a2c96" y="412.379737"/>
     <use style="fill:#1f77b4;stroke:#1f77b4;stroke-linejoin:miter;" x="441.24909" xlink:href="#m52991a2c96" y="414.496022"/>
     <use style="fill:#1f77b4;stroke:#1f77b4;stroke-linejoin:miter;" x="421.700029" xlink:href="#m52991a2c96" y="417.357438"/>
     <use style="fill:#1f77b4;stroke:#1f77b4;stroke-linejoin:miter;" x="419.227597" xlink:href="#m52991a2c96" y="429.112022"/>
     <use style="fill:#1f77b4;stroke:#1f77b4;stroke-linejoin:miter;" x="420.502956" xlink:href="#m52991a2c96" y="434.697237"/>
     <use style="fill:#1f77b4;stroke:#1f77b4;stroke-linejoin:miter;" x="415.892192" xlink:href="#m52991a2c96" y="440.505954"/>
     <use style="fill:#1f77b4;stroke:#1f77b4;stroke-linejoin:miter;" x="394.898342" xlink:href="#m52991a2c96" y="447.545471"/>
     <use style="fill:#1f77b4;stroke:#1f77b4;stroke-linejoin:miter;" x="397.080204" xlink:href="#m52991a2c96" y="454.167189"/>
     <use style="fill:#1f77b4;stroke:#1f77b4;stroke-linejoin:miter;" x="399.781774" xlink:href="#m52991a2c96" y="460.687286"/>
     <use style="fill:#1f77b4;stroke:#1f77b4;stroke-linejoin:miter;" x="401.54993" xlink:href="#m52991a2c96" y="467.115323"/>
     <use style="fill:#1f77b4;stroke:#1f77b4;stroke-linejoin:miter;" x="437.220515" xlink:href="#m52991a2c96" y="467.305343"/>
     <use style="fill:#1f77b4;stroke:#1f77b4;stroke-linejoin:miter;" x="403.70467" xlink:href="#m52991a2c96" y="480.643027"/>
     <use style="fill:#1f77b4;stroke:#1f77b4;stroke-linejoin:miter;" x="407.095758" xlink:href="#m52991a2c96" y="486.83816"/>
     <use style="fill:#1f77b4;stroke:#1f77b4;stroke-linejoin:miter;" x="407.996731" xlink:href="#m52991a2c96" y="494.102066"/>
     <use style="fill:#1f77b4;stroke:#1f77b4;stroke-linejoin:miter;" x="411.836228" xlink:href="#m52991a2c96" y="508.142751"/>
     <use style="fill:#1f77b4;stroke:#1f77b4;stroke-linejoin:miter;" x="469.399757" xlink:href="#m52991a2c96" y="491.235338"/>
     <use style="fill:#1f77b4;stroke:#1f77b4;stroke-linejoin:miter;" x="434.679577" xlink:href="#m52991a2c96" y="513.716091"/>
     <use style="fill:#1f77b4;stroke:#1f77b4;stroke-linejoin:miter;" x="446.202274" xlink:href="#m52991a2c96" y="515.602728"/>
     <use style="fill:#1f77b4;stroke:#1f77b4;stroke-linejoin:miter;" x="463.765184" xlink:href="#m52991a2c96" y="513.246606"/>
     <use style="fill:#1f77b4;stroke:#1f77b4;stroke-linejoin:miter;" x="458.73555" xlink:href="#m52991a2c96" y="523.935721"/>
     <use style="fill:#1f77b4;stroke:#1f77b4;stroke-linejoin:miter;" x="457.156864" xlink:href="#m52991a2c96" y="533.570847"/>
     <use style="fill:#1f77b4;stroke:#1f77b4;stroke-linejoin:miter;" x="465.863348" xlink:href="#m52991a2c96" y="535.8357"/>
     <use style="fill:#1f77b4;stroke:#1f77b4;stroke-linejoin:miter;" x="472.672328" xlink:href="#m52991a2c96" y="539.546025"/>
     <use style="fill:#1f77b4;stroke:#1f77b4;stroke-linejoin:miter;" x="458.724569" xlink:href="#m52991a2c96" y="562.544499"/>
     <use style="fill:#1f77b4;stroke:#1f77b4;stroke-linejoin:miter;" x="452.129114" xlink:href="#m52991a2c96" y="582.109897"/>
     <use style="fill:#1f77b4;stroke:#1f77b4;stroke-linejoin:miter;" x="464.777975" xlink:href="#m52991a2c96" y="582.639046"/>
     <use style="fill:#1f77b4;stroke:#1f77b4;stroke-linejoin:miter;" x="532.979092" xlink:href="#m52991a2c96" y="512.674333"/>
     <use style="fill:#1f77b4;stroke:#1f77b4;stroke-linejoin:miter;" x="547.799046" xlink:href="#m52991a2c96" y="500.383058"/>
     <use style="fill:#1f77b4;stroke:#1f77b4;stroke-linejoin:miter;" x="553.986979" xlink:href="#m52991a2c96" y="498.676439"/>
     <use style="fill:#1f77b4;stroke:#1f77b4;stroke-linejoin:miter;" x="560.620825" xlink:href="#m52991a2c96" y="494.697978"/>
     <use style="fill:#1f77b4;stroke:#1f77b4;stroke-linejoin:miter;" x="565.293976" xlink:href="#m52991a2c96" y="493.897418"/>
     <use style="fill:#1f77b4;stroke:#1f77b4;stroke-linejoin:miter;" x="568.983948" xlink:href="#m52991a2c96" y="494.417519"/>
     <use style="fill:#1f77b4;stroke:#1f77b4;stroke-linejoin:miter;" x="571.78065" xlink:href="#m52991a2c96" y="497.020589"/>
     <use style="fill:#1f77b4;stroke:#1f77b4;stroke-linejoin:miter;" x="575.461444" xlink:href="#m52991a2c96" y="497.878742"/>
     <use style="fill:#1f77b4;stroke:#1f77b4;stroke-linejoin:miter;" x="578.848428" xlink:href="#m52991a2c96" y="500.485266"/>
     <use style="fill:#1f77b4;stroke:#1f77b4;stroke-linejoin:miter;" x="583.24455" xlink:href="#m52991a2c96" y="499.650972"/>
     <use style="fill:#1f77b4;stroke:#1f77b4;stroke-linejoin:miter;" x="587.448628" xlink:href="#m52991a2c96" y="496.029972"/>
     <use style="fill:#1f77b4;stroke:#1f77b4;stroke-linejoin:miter;" x="591.179802" xlink:href="#m52991a2c96" y="495.506278"/>
     <use style="fill:#1f77b4;stroke:#1f77b4;stroke-linejoin:miter;" x="595.012142" xlink:href="#m52991a2c96" y="498.033047"/>
     <use style="fill:#1f77b4;stroke:#1f77b4;stroke-linejoin:miter;" x="637.356672" xlink:href="#m52991a2c96" y="638.301022"/>
     <use style="fill:#1f77b4;stroke:#1f77b4;stroke-linejoin:miter;" x="643.422788" xlink:href="#m52991a2c96" y="614.081599"/>
     <use style="fill:#1f77b4;stroke:#1f77b4;stroke-linejoin:miter;" x="657.485716" xlink:href="#m52991a2c96" y="621.069054"/>
     <use style="fill:#1f77b4;stroke:#1f77b4;stroke-linejoin:miter;" x="667.138997" xlink:href="#m52991a2c96" y="613.626234"/>
     <use style="fill:#1f77b4;stroke:#1f77b4;stroke-linejoin:miter;" x="669.485735" xlink:href="#m52991a2c96" y="593.027197"/>
     <use style="fill:#1f77b4;stroke:#1f77b4;stroke-linejoin:miter;" x="683.949647" xlink:href="#m52991a2c96" y="598.817742"/>
     <use style="fill:#1f77b4;stroke:#1f77b4;stroke-linejoin:miter;" x="695.260028" xlink:href="#m52991a2c96" y="597.528907"/>
     <use style="fill:#1f77b4;stroke:#1f77b4;stroke-linejoin:miter;" x="758.830951" xlink:href="#m52991a2c96" y="591.742591"/>
     <use style="fill:#1f77b4;stroke:#1f77b4;stroke-linejoin:miter;" x="771.260156" xlink:href="#m52991a2c96" y="588.148445"/>
     <use style="fill:#1f77b4;stroke:#1f77b4;stroke-linejoin:miter;" x="783.8765" xlink:href="#m52991a2c96" y="584.315875"/>
     <use style="fill:#1f77b4;stroke:#1f77b4;stroke-linejoin:miter;" x="802.930798" xlink:href="#m52991a2c96" y="584.649433"/>
     <use style="fill:#1f77b4;stroke:#1f77b4;stroke-linejoin:miter;" x="818.061668" xlink:href="#m52991a2c96" y="581.210229"/>
     <use style="fill:#1f77b4;stroke:#1f77b4;stroke-linejoin:miter;" x="832.93844" xlink:href="#m52991a2c96" y="576.88806"/>
     <use style="fill:#1f77b4;stroke:#1f77b4;stroke-linejoin:miter;" x="847.125116" xlink:href="#m52991a2c96" y="570.737856"/>
     <use style="fill:#1f77b4;stroke:#1f77b4;stroke-linejoin:miter;" x="875.902032" xlink:href="#m52991a2c96" y="571.690481"/>
     <use style="fill:#1f77b4;stroke:#1f77b4;stroke-linejoin:miter;" x="878.367067" xlink:href="#m52991a2c96" y="559.118983"/>
     <use style="fill:#1f77b4;stroke:#1f77b4;stroke-linejoin:miter;" x="897.198599" xlink:href="#m52991a2c96" y="553.512538"/>
     <use style="fill:#1f77b4;stroke:#1f77b4;stroke-linejoin:miter;" x="938.127992" xlink:href="#m52991a2c96" y="554.575515"/>
     <use style="fill:#1f77b4;stroke:#1f77b4;stroke-linejoin:miter;" x="964.382871" xlink:href="#m52991a2c96" y="548.294697"/>
     <use style="fill:#1f77b4;stroke:#1f77b4;stroke-linejoin:miter;" x="1057.881199" xlink:href="#m52991a2c96" y="540.436316"/>
     <use style="fill:#1f77b4;stroke:#1f77b4;stroke-linejoin:miter;" x="1081.268446" xlink:href="#m52991a2c96" y="527.306368"/>
     <use style="fill:#1f77b4;stroke:#1f77b4;stroke-linejoin:miter;" x="1089.464033" xlink:href="#m52991a2c96" y="511.135959"/>
    </g>
   </g>
   <g id="patch_3">
    <path d="M 144 768.96 
L 144 103.68 
" style="fill:none;stroke:#000000;stroke-linecap:square;stroke-linejoin:miter;stroke-width:0.8;"/>
   </g>
   <g id="patch_4">
    <path d="M 1036.8 768.96 
L 1036.8 103.68 
" style="fill:none;stroke:#000000;stroke-linecap:square;stroke-linejoin:miter;stroke-width:0.8;"/>
   </g>
   <g id="patch_5">
    <path d="M 144 768.96 
L 1036.8 768.96 
" style="fill:none;stroke:#000000;stroke-linecap:square;stroke-linejoin:miter;stroke-width:0.8;"/>
   </g>
   <g id="patch_6">
    <path d="M 144 103.68 
L 1036.8 103.68 
" style="fill:none;stroke:#000000;stroke-linecap:square;stroke-linejoin:miter;stroke-width:0.8;"/>
   </g>
  </g>
 </g>
 <defs>
  <clipPath id="pf29f777a73">
   <rect height="665.28" width="892.8" x="144" y="103.68"/>
  </clipPath>
 </defs>
</svg>
