<?xml version="1.0" encoding="utf-8" standalone="no"?>
<!DOCTYPE svg PUBLIC "-//W3C//DTD SVG 1.1//EN"
  "http://www.w3.org/Graphics/SVG/1.1/DTD/svg11.dtd">
<!-- Created with matplotlib (http://matplotlib.org/) -->
<svg height="864pt" version="1.1" viewBox="0 0 1152 864" width="1152pt" xmlns="http://www.w3.org/2000/svg" xmlns:xlink="http://www.w3.org/1999/xlink">
 <defs>
  <style type="text/css">
*{stroke-linecap:butt;stroke-linejoin:round;}
  </style>
 </defs>
 <g id="figure_1">
  <g id="patch_1">
   <path d="M 0 864 
L 1152 864 
L 1152 0 
L 0 0 
z
" style="fill:#ffffff;"/>
  </g>
  <g id="axes_1">
   <g id="patch_2">
    <path d="M 144 768.96 
L 1036.8 768.96 
L 1036.8 103.68 
L 144 103.68 
z
" style="fill:#ffffff;"/>
   </g>
   <g id="matplotlib.axis_1">
    <g id="xtick_1">
     <g id="line2d_1">
      <defs>
       <path d="M 0 0 
L 0 3.5 
" id="mc696ed93a2" style="stroke:#000000;stroke-width:0.8;"/>
      </defs>
      <g>
       <use style="stroke:#000000;stroke-width:0.8;" x="144" xlink:href="#mc696ed93a2" y="768.96"/>
      </g>
     </g>
     <g id="text_1">
      <!-- −4000 -->
      <defs>
       <path d="M 10.59375 35.5 
L 73.1875 35.5 
L 73.1875 27.203125 
L 10.59375 27.203125 
z
" id="DejaVuSans-2212"/>
       <path d="M 37.796875 64.3125 
L 12.890625 25.390625 
L 37.796875 25.390625 
z
M 35.203125 72.90625 
L 47.609375 72.90625 
L 47.609375 25.390625 
L 58.015625 25.390625 
L 58.015625 17.1875 
L 47.609375 17.1875 
L 47.609375 0 
L 37.796875 0 
L 37.796875 17.1875 
L 4.890625 17.1875 
L 4.890625 26.703125 
z
" id="DejaVuSans-34"/>
       <path d="M 31.78125 66.40625 
Q 24.171875 66.40625 20.328125 58.90625 
Q 16.5 51.421875 16.5 36.375 
Q 16.5 21.390625 20.328125 13.890625 
Q 24.171875 6.390625 31.78125 6.390625 
Q 39.453125 6.390625 43.28125 13.890625 
Q 47.125 21.390625 47.125 36.375 
Q 47.125 51.421875 43.28125 58.90625 
Q 39.453125 66.40625 31.78125 66.40625 
z
M 31.78125 74.21875 
Q 44.046875 74.21875 50.515625 64.515625 
Q 56.984375 54.828125 56.984375 36.375 
Q 56.984375 17.96875 50.515625 8.265625 
Q 44.046875 -1.421875 31.78125 -1.421875 
Q 19.53125 -1.421875 13.0625 8.265625 
Q 6.59375 17.96875 6.59375 36.375 
Q 6.59375 54.828125 13.0625 64.515625 
Q 19.53125 74.21875 31.78125 74.21875 
z
" id="DejaVuSans-30"/>
      </defs>
      <g transform="translate(127.085156 783.558437)scale(0.1 -0.1)">
       <use xlink:href="#DejaVuSans-2212"/>
       <use x="83.789062" xlink:href="#DejaVuSans-34"/>
       <use x="147.412109" xlink:href="#DejaVuSans-30"/>
       <use x="211.035156" xlink:href="#DejaVuSans-30"/>
       <use x="274.658203" xlink:href="#DejaVuSans-30"/>
      </g>
     </g>
    </g>
    <g id="xtick_2">
     <g id="line2d_2">
      <g>
       <use style="stroke:#000000;stroke-width:0.8;" x="255.6" xlink:href="#mc696ed93a2" y="768.96"/>
      </g>
     </g>
     <g id="text_2">
      <!-- −3000 -->
      <defs>
       <path d="M 40.578125 39.3125 
Q 47.65625 37.796875 51.625 33 
Q 55.609375 28.21875 55.609375 21.1875 
Q 55.609375 10.40625 48.1875 4.484375 
Q 40.765625 -1.421875 27.09375 -1.421875 
Q 22.515625 -1.421875 17.65625 -0.515625 
Q 12.796875 0.390625 7.625 2.203125 
L 7.625 11.71875 
Q 11.71875 9.328125 16.59375 8.109375 
Q 21.484375 6.890625 26.8125 6.890625 
Q 36.078125 6.890625 40.9375 10.546875 
Q 45.796875 14.203125 45.796875 21.1875 
Q 45.796875 27.640625 41.28125 31.265625 
Q 36.765625 34.90625 28.71875 34.90625 
L 20.21875 34.90625 
L 20.21875 43.015625 
L 29.109375 43.015625 
Q 36.375 43.015625 40.234375 45.921875 
Q 44.09375 48.828125 44.09375 54.296875 
Q 44.09375 59.90625 40.109375 62.90625 
Q 36.140625 65.921875 28.71875 65.921875 
Q 24.65625 65.921875 20.015625 65.03125 
Q 15.375 64.15625 9.8125 62.3125 
L 9.8125 71.09375 
Q 15.4375 72.65625 20.34375 73.4375 
Q 25.25 74.21875 29.59375 74.21875 
Q 40.828125 74.21875 47.359375 69.109375 
Q 53.90625 64.015625 53.90625 55.328125 
Q 53.90625 49.265625 50.4375 45.09375 
Q 46.96875 40.921875 40.578125 39.3125 
z
" id="DejaVuSans-33"/>
      </defs>
      <g transform="translate(238.685156 783.558437)scale(0.1 -0.1)">
       <use xlink:href="#DejaVuSans-2212"/>
       <use x="83.789062" xlink:href="#DejaVuSans-33"/>
       <use x="147.412109" xlink:href="#DejaVuSans-30"/>
       <use x="211.035156" xlink:href="#DejaVuSans-30"/>
       <use x="274.658203" xlink:href="#DejaVuSans-30"/>
      </g>
     </g>
    </g>
    <g id="xtick_3">
     <g id="line2d_3">
      <g>
       <use style="stroke:#000000;stroke-width:0.8;" x="367.2" xlink:href="#mc696ed93a2" y="768.96"/>
      </g>
     </g>
     <g id="text_3">
      <!-- −2000 -->
      <defs>
       <path d="M 19.1875 8.296875 
L 53.609375 8.296875 
L 53.609375 0 
L 7.328125 0 
L 7.328125 8.296875 
Q 12.9375 14.109375 22.625 23.890625 
Q 32.328125 33.6875 34.8125 36.53125 
Q 39.546875 41.84375 41.421875 45.53125 
Q 43.3125 49.21875 43.3125 52.78125 
Q 43.3125 58.59375 39.234375 62.25 
Q 35.15625 65.921875 28.609375 65.921875 
Q 23.96875 65.921875 18.8125 64.3125 
Q 13.671875 62.703125 7.8125 59.421875 
L 7.8125 69.390625 
Q 13.765625 71.78125 18.9375 73 
Q 24.125 74.21875 28.421875 74.21875 
Q 39.75 74.21875 46.484375 68.546875 
Q 53.21875 62.890625 53.21875 53.421875 
Q 53.21875 48.921875 51.53125 44.890625 
Q 49.859375 40.875 45.40625 35.40625 
Q 44.1875 33.984375 37.640625 27.21875 
Q 31.109375 20.453125 19.1875 8.296875 
z
" id="DejaVuSans-32"/>
      </defs>
      <g transform="translate(350.285156 783.558437)scale(0.1 -0.1)">
       <use xlink:href="#DejaVuSans-2212"/>
       <use x="83.789062" xlink:href="#DejaVuSans-32"/>
       <use x="147.412109" xlink:href="#DejaVuSans-30"/>
       <use x="211.035156" xlink:href="#DejaVuSans-30"/>
       <use x="274.658203" xlink:href="#DejaVuSans-30"/>
      </g>
     </g>
    </g>
    <g id="xtick_4">
     <g id="line2d_4">
      <g>
       <use style="stroke:#000000;stroke-width:0.8;" x="478.8" xlink:href="#mc696ed93a2" y="768.96"/>
      </g>
     </g>
     <g id="text_4">
      <!-- −1000 -->
      <defs>
       <path d="M 12.40625 8.296875 
L 28.515625 8.296875 
L 28.515625 63.921875 
L 10.984375 60.40625 
L 10.984375 69.390625 
L 28.421875 72.90625 
L 38.28125 72.90625 
L 38.28125 8.296875 
L 54.390625 8.296875 
L 54.390625 0 
L 12.40625 0 
z
" id="DejaVuSans-31"/>
      </defs>
      <g transform="translate(461.885156 783.558437)scale(0.1 -0.1)">
       <use xlink:href="#DejaVuSans-2212"/>
       <use x="83.789062" xlink:href="#DejaVuSans-31"/>
       <use x="147.412109" xlink:href="#DejaVuSans-30"/>
       <use x="211.035156" xlink:href="#DejaVuSans-30"/>
       <use x="274.658203" xlink:href="#DejaVuSans-30"/>
      </g>
     </g>
    </g>
    <g id="xtick_5">
     <g id="line2d_5">
      <g>
       <use style="stroke:#000000;stroke-width:0.8;" x="590.4" xlink:href="#mc696ed93a2" y="768.96"/>
      </g>
     </g>
     <g id="text_5">
      <!-- 0 -->
      <g transform="translate(587.21875 783.558437)scale(0.1 -0.1)">
       <use xlink:href="#DejaVuSans-30"/>
      </g>
     </g>
    </g>
    <g id="xtick_6">
     <g id="line2d_6">
      <g>
       <use style="stroke:#000000;stroke-width:0.8;" x="702" xlink:href="#mc696ed93a2" y="768.96"/>
      </g>
     </g>
     <g id="text_6">
      <!-- 1000 -->
      <g transform="translate(689.275 783.558437)scale(0.1 -0.1)">
       <use xlink:href="#DejaVuSans-31"/>
       <use x="63.623047" xlink:href="#DejaVuSans-30"/>
       <use x="127.246094" xlink:href="#DejaVuSans-30"/>
       <use x="190.869141" xlink:href="#DejaVuSans-30"/>
      </g>
     </g>
    </g>
    <g id="xtick_7">
     <g id="line2d_7">
      <g>
       <use style="stroke:#000000;stroke-width:0.8;" x="813.6" xlink:href="#mc696ed93a2" y="768.96"/>
      </g>
     </g>
     <g id="text_7">
      <!-- 2000 -->
      <g transform="translate(800.875 783.558437)scale(0.1 -0.1)">
       <use xlink:href="#DejaVuSans-32"/>
       <use x="63.623047" xlink:href="#DejaVuSans-30"/>
       <use x="127.246094" xlink:href="#DejaVuSans-30"/>
       <use x="190.869141" xlink:href="#DejaVuSans-30"/>
      </g>
     </g>
    </g>
    <g id="xtick_8">
     <g id="line2d_8">
      <g>
       <use style="stroke:#000000;stroke-width:0.8;" x="925.2" xlink:href="#mc696ed93a2" y="768.96"/>
      </g>
     </g>
     <g id="text_8">
      <!-- 3000 -->
      <g transform="translate(912.475 783.558437)scale(0.1 -0.1)">
       <use xlink:href="#DejaVuSans-33"/>
       <use x="63.623047" xlink:href="#DejaVuSans-30"/>
       <use x="127.246094" xlink:href="#DejaVuSans-30"/>
       <use x="190.869141" xlink:href="#DejaVuSans-30"/>
      </g>
     </g>
    </g>
    <g id="xtick_9">
     <g id="line2d_9">
      <g>
       <use style="stroke:#000000;stroke-width:0.8;" x="1036.8" xlink:href="#mc696ed93a2" y="768.96"/>
      </g>
     </g>
     <g id="text_9">
      <!-- 4000 -->
      <g transform="translate(1024.075 783.558437)scale(0.1 -0.1)">
       <use xlink:href="#DejaVuSans-34"/>
       <use x="63.623047" xlink:href="#DejaVuSans-30"/>
       <use x="127.246094" xlink:href="#DejaVuSans-30"/>
       <use x="190.869141" xlink:href="#DejaVuSans-30"/>
      </g>
     </g>
    </g>
   </g>
   <g id="matplotlib.axis_2">
    <g id="ytick_1">
     <g id="line2d_10">
      <defs>
       <path d="M 0 0 
L -3.5 0 
" id="ma9c56f51c7" style="stroke:#000000;stroke-width:0.8;"/>
      </defs>
      <g>
       <use style="stroke:#000000;stroke-width:0.8;" x="144" xlink:href="#ma9c56f51c7" y="768.96"/>
      </g>
     </g>
     <g id="text_10">
      <!-- −4000 -->
      <g transform="translate(103.170312 772.759219)scale(0.1 -0.1)">
       <use xlink:href="#DejaVuSans-2212"/>
       <use x="83.789062" xlink:href="#DejaVuSans-34"/>
       <use x="147.412109" xlink:href="#DejaVuSans-30"/>
       <use x="211.035156" xlink:href="#DejaVuSans-30"/>
       <use x="274.658203" xlink:href="#DejaVuSans-30"/>
      </g>
     </g>
    </g>
    <g id="ytick_2">
     <g id="line2d_11">
      <g>
       <use style="stroke:#000000;stroke-width:0.8;" x="144" xlink:href="#ma9c56f51c7" y="685.8"/>
      </g>
     </g>
     <g id="text_11">
      <!-- −3000 -->
      <g transform="translate(103.170312 689.599219)scale(0.1 -0.1)">
       <use xlink:href="#DejaVuSans-2212"/>
       <use x="83.789062" xlink:href="#DejaVuSans-33"/>
       <use x="147.412109" xlink:href="#DejaVuSans-30"/>
       <use x="211.035156" xlink:href="#DejaVuSans-30"/>
       <use x="274.658203" xlink:href="#DejaVuSans-30"/>
      </g>
     </g>
    </g>
    <g id="ytick_3">
     <g id="line2d_12">
      <g>
       <use style="stroke:#000000;stroke-width:0.8;" x="144" xlink:href="#ma9c56f51c7" y="602.64"/>
      </g>
     </g>
     <g id="text_12">
      <!-- −2000 -->
      <g transform="translate(103.170312 606.439219)scale(0.1 -0.1)">
       <use xlink:href="#DejaVuSans-2212"/>
       <use x="83.789062" xlink:href="#DejaVuSans-32"/>
       <use x="147.412109" xlink:href="#DejaVuSans-30"/>
       <use x="211.035156" xlink:href="#DejaVuSans-30"/>
       <use x="274.658203" xlink:href="#DejaVuSans-30"/>
      </g>
     </g>
    </g>
    <g id="ytick_4">
     <g id="line2d_13">
      <g>
       <use style="stroke:#000000;stroke-width:0.8;" x="144" xlink:href="#ma9c56f51c7" y="519.48"/>
      </g>
     </g>
     <g id="text_13">
      <!-- −1000 -->
      <g transform="translate(103.170312 523.279219)scale(0.1 -0.1)">
       <use xlink:href="#DejaVuSans-2212"/>
       <use x="83.789062" xlink:href="#DejaVuSans-31"/>
       <use x="147.412109" xlink:href="#DejaVuSans-30"/>
       <use x="211.035156" xlink:href="#DejaVuSans-30"/>
       <use x="274.658203" xlink:href="#DejaVuSans-30"/>
      </g>
     </g>
    </g>
    <g id="ytick_5">
     <g id="line2d_14">
      <g>
       <use style="stroke:#000000;stroke-width:0.8;" x="144" xlink:href="#ma9c56f51c7" y="436.32"/>
      </g>
     </g>
     <g id="text_14">
      <!-- 0 -->
      <g transform="translate(130.6375 440.119219)scale(0.1 -0.1)">
       <use xlink:href="#DejaVuSans-30"/>
      </g>
     </g>
    </g>
    <g id="ytick_6">
     <g id="line2d_15">
      <g>
       <use style="stroke:#000000;stroke-width:0.8;" x="144" xlink:href="#ma9c56f51c7" y="353.16"/>
      </g>
     </g>
     <g id="text_15">
      <!-- 1000 -->
      <g transform="translate(111.55 356.959219)scale(0.1 -0.1)">
       <use xlink:href="#DejaVuSans-31"/>
       <use x="63.623047" xlink:href="#DejaVuSans-30"/>
       <use x="127.246094" xlink:href="#DejaVuSans-30"/>
       <use x="190.869141" xlink:href="#DejaVuSans-30"/>
      </g>
     </g>
    </g>
    <g id="ytick_7">
     <g id="line2d_16">
      <g>
       <use style="stroke:#000000;stroke-width:0.8;" x="144" xlink:href="#ma9c56f51c7" y="270"/>
      </g>
     </g>
     <g id="text_16">
      <!-- 2000 -->
      <g transform="translate(111.55 273.799219)scale(0.1 -0.1)">
       <use xlink:href="#DejaVuSans-32"/>
       <use x="63.623047" xlink:href="#DejaVuSans-30"/>
       <use x="127.246094" xlink:href="#DejaVuSans-30"/>
       <use x="190.869141" xlink:href="#DejaVuSans-30"/>
      </g>
     </g>
    </g>
    <g id="ytick_8">
     <g id="line2d_17">
      <g>
       <use style="stroke:#000000;stroke-width:0.8;" x="144" xlink:href="#ma9c56f51c7" y="186.84"/>
      </g>
     </g>
     <g id="text_17">
      <!-- 3000 -->
      <g transform="translate(111.55 190.639219)scale(0.1 -0.1)">
       <use xlink:href="#DejaVuSans-33"/>
       <use x="63.623047" xlink:href="#DejaVuSans-30"/>
       <use x="127.246094" xlink:href="#DejaVuSans-30"/>
       <use x="190.869141" xlink:href="#DejaVuSans-30"/>
      </g>
     </g>
    </g>
    <g id="ytick_9">
     <g id="line2d_18">
      <g>
       <use style="stroke:#000000;stroke-width:0.8;" x="144" xlink:href="#ma9c56f51c7" y="103.68"/>
      </g>
     </g>
     <g id="text_18">
      <!-- 4000 -->
      <g transform="translate(111.55 107.479219)scale(0.1 -0.1)">
       <use xlink:href="#DejaVuSans-34"/>
       <use x="63.623047" xlink:href="#DejaVuSans-30"/>
       <use x="127.246094" xlink:href="#DejaVuSans-30"/>
       <use x="190.869141" xlink:href="#DejaVuSans-30"/>
      </g>
     </g>
    </g>
   </g>
   <g id="line2d_19">
    <path clip-path="url(#pdfb9de89e1)" d="M 590.4 768.96 
L 590.4 103.68 
" style="fill:none;stroke:#1f77b4;stroke-linecap:square;stroke-width:1.5;"/>
   </g>
   <g id="line2d_20">
    <path clip-path="url(#pdfb9de89e1)" d="M 144 436.32 
L 1036.8 436.32 
" style="fill:none;stroke:#1f77b4;stroke-linecap:square;stroke-width:1.5;"/>
   </g>
   <g id="line2d_21">
    <defs>
     <path d="M 0 3 
C 0.795609 3 1.55874 2.683901 2.12132 2.12132 
C 2.683901 1.55874 3 0.795609 3 0 
C 3 -0.795609 2.683901 -1.55874 2.12132 -2.12132 
C 1.55874 -2.683901 0.795609 -3 0 -3 
C -0.795609 -3 -1.55874 -2.683901 -2.12132 -2.12132 
C -2.683901 -1.55874 -3 -0.795609 -3 0 
C -3 0.795609 -2.683901 1.55874 -2.12132 2.12132 
C -1.55874 2.683901 -0.795609 3 0 3 
z
" id="mb0024fc475" style="stroke:#008000;"/>
    </defs>
    <g clip-path="url(#pdfb9de89e1)">
     <use style="fill:#008000;stroke:#008000;" x="1141.174143" xlink:href="#mb0024fc475" y="500.979292"/>
    </g>
   </g>
   <g id="line2d_22">
    <g clip-path="url(#pdfb9de89e1)">
     <use style="fill:#008000;stroke:#008000;" x="1075.671703" xlink:href="#mb0024fc475" y="441.448202"/>
    </g>
   </g>
   <g id="line2d_23">
    <g clip-path="url(#pdfb9de89e1)">
     <use style="fill:#008000;stroke:#008000;" x="1392.513371" xlink:href="#mb0024fc475" y="390.755478"/>
    </g>
   </g>
   <g id="line2d_24">
    <g clip-path="url(#pdfb9de89e1)">
     <use style="fill:#008000;stroke:#008000;" x="646.155987" xlink:href="#mb0024fc475" y="393.061147"/>
    </g>
   </g>
   <g id="line2d_25">
    <g clip-path="url(#pdfb9de89e1)">
     <use style="fill:#008000;stroke:#008000;" x="646.155987" xlink:href="#mb0024fc475" y="393.061147"/>
    </g>
   </g>
   <g id="line2d_26">
    <g clip-path="url(#pdfb9de89e1)">
     <use style="fill:#008000;stroke:#008000;" x="742.86488" xlink:href="#mb0024fc475" y="198.463689"/>
    </g>
   </g>
   <g id="line2d_27">
    <g clip-path="url(#pdfb9de89e1)">
     <use style="fill:#008000;stroke:#008000;" x="463.014307" xlink:href="#mb0024fc475" y="247.484225"/>
    </g>
   </g>
   <g id="line2d_28">
    <g clip-path="url(#pdfb9de89e1)">
     <use style="fill:#008000;stroke:#008000;" x="557.775934" xlink:href="#mb0024fc475" y="396.282667"/>
    </g>
   </g>
   <g id="line2d_29">
    <g clip-path="url(#pdfb9de89e1)">
     <use style="fill:#008000;stroke:#008000;" x="434.25254" xlink:href="#mb0024fc475" y="249.999962"/>
    </g>
   </g>
   <g id="line2d_30">
    <g clip-path="url(#pdfb9de89e1)">
     <use style="fill:#008000;stroke:#008000;" x="464.196483" xlink:href="#mb0024fc475" y="539.286546"/>
    </g>
   </g>
   <g id="line2d_31">
    <g clip-path="url(#pdfb9de89e1)">
     <use style="fill:#008000;stroke:#008000;" x="514.136077" xlink:href="#mb0024fc475" y="509.139536"/>
    </g>
   </g>
   <g id="line2d_32">
    <g clip-path="url(#pdfb9de89e1)">
     <use style="fill:#008000;stroke:#008000;" x="576.993537" xlink:href="#mb0024fc475" y="504.048674"/>
    </g>
   </g>
   <g id="line2d_33">
    <defs>
     <path d="M 0 1.333333 
C 0.353604 1.333333 0.692773 1.192845 0.942809 0.942809 
C 1.192845 0.692773 1.333333 0.353604 1.333333 0 
C 1.333333 -0.353604 1.192845 -0.692773 0.942809 -0.942809 
C 0.692773 -1.192845 0.353604 -1.333333 0 -1.333333 
C -0.353604 -1.333333 -0.692773 -1.192845 -0.942809 -0.942809 
C -1.192845 -0.692773 -1.333333 -0.353604 -1.333333 0 
C -1.333333 0.353604 -1.192845 0.692773 -0.942809 0.942809 
C -0.692773 1.192845 -0.353604 1.333333 0 1.333333 
z
" id="m77a226449d" style="stroke:#ff0000;"/>
    </defs>
    <g clip-path="url(#pdfb9de89e1)">
     <use style="fill:#ff0000;stroke:#ff0000;" x="1145.511345" xlink:href="#m77a226449d" y="500.563945"/>
     <use style="fill:#ff0000;stroke:#ff0000;" x="1075.671703" xlink:href="#m77a226449d" y="441.448202"/>
     <use style="fill:#ff0000;stroke:#ff0000;" x="1392.513371" xlink:href="#m77a226449d" y="390.755478"/>
     <use style="fill:#ff0000;stroke:#ff0000;" x="1289.15934" xlink:href="#m77a226449d" y="346.995549"/>
     <use style="fill:#ff0000;stroke:#ff0000;" x="1278.587253" xlink:href="#m77a226449d" y="323.21939"/>
     <use style="fill:#ff0000;stroke:#ff0000;" x="1357.743559" xlink:href="#m77a226449d" y="282.27212"/>
     <use style="fill:#ff0000;stroke:#ff0000;" x="1321.386028" xlink:href="#m77a226449d" y="262.286831"/>
     <use style="fill:#ff0000;stroke:#ff0000;" x="649.236944" xlink:href="#m77a226449d" y="398.438154"/>
     <use style="fill:#ff0000;stroke:#ff0000;" x="642.226977" xlink:href="#m77a226449d" y="387.795856"/>
     <use style="fill:#ff0000;stroke:#ff0000;" x="796.372306" xlink:href="#m77a226449d" y="191.736699"/>
     <use style="fill:#ff0000;stroke:#ff0000;" x="773.50601" xlink:href="#m77a226449d" y="195.46352"/>
     <use style="fill:#ff0000;stroke:#ff0000;" x="752.982204" xlink:href="#m77a226449d" y="197.261909"/>
     <use style="fill:#ff0000;stroke:#ff0000;" x="732.914023" xlink:href="#m77a226449d" y="199.885389"/>
     <use style="fill:#ff0000;stroke:#ff0000;" x="463.014307" xlink:href="#m77a226449d" y="247.484225"/>
     <use style="fill:#ff0000;stroke:#ff0000;" x="557.775934" xlink:href="#m77a226449d" y="396.282667"/>
     <use style="fill:#ff0000;stroke:#ff0000;" x="434.25254" xlink:href="#m77a226449d" y="249.999962"/>
     <use style="fill:#ff0000;stroke:#ff0000;" x="392.452109" xlink:href="#m77a226449d" y="290.814567"/>
     <use style="fill:#ff0000;stroke:#ff0000;" x="410.431198" xlink:href="#m77a226449d" y="316.099342"/>
     <use style="fill:#ff0000;stroke:#ff0000;" x="419.419168" xlink:href="#m77a226449d" y="342.311397"/>
     <use style="fill:#ff0000;stroke:#ff0000;" x="407.968858" xlink:href="#m77a226449d" y="362.702153"/>
     <use style="fill:#ff0000;stroke:#ff0000;" x="455.099376" xlink:href="#m77a226449d" y="394.236178"/>
     <use style="fill:#ff0000;stroke:#ff0000;" x="446.710543" xlink:href="#m77a226449d" y="413.683228"/>
     <use style="fill:#ff0000;stroke:#ff0000;" x="420.63066" xlink:href="#m77a226449d" y="438.700714"/>
     <use style="fill:#ff0000;stroke:#ff0000;" x="394.843605" xlink:href="#m77a226449d" y="445.472033"/>
     <use style="fill:#ff0000;stroke:#ff0000;" x="400.156645" xlink:href="#m77a226449d" y="465.322877"/>
     <use style="fill:#ff0000;stroke:#ff0000;" x="436.797699" xlink:href="#m77a226449d" y="465.621455"/>
     <use style="fill:#ff0000;stroke:#ff0000;" x="404.16162" xlink:href="#m77a226449d" y="478.376409"/>
     <use style="fill:#ff0000;stroke:#ff0000;" x="410.635827" xlink:href="#m77a226449d" y="506.191024"/>
     <use style="fill:#ff0000;stroke:#ff0000;" x="439.238395" xlink:href="#m77a226449d" y="502.215564"/>
     <use style="fill:#ff0000;stroke:#ff0000;" x="455.274825" xlink:href="#m77a226449d" y="501.943368"/>
     <use style="fill:#ff0000;stroke:#ff0000;" x="441.120977" xlink:href="#m77a226449d" y="516.123131"/>
     <use style="fill:#ff0000;stroke:#ff0000;" x="459.702048" xlink:href="#m77a226449d" y="513.528498"/>
     <use style="fill:#ff0000;stroke:#ff0000;" x="458.239789" xlink:href="#m77a226449d" y="521.880804"/>
     <use style="fill:#ff0000;stroke:#ff0000;" x="456.273213" xlink:href="#m77a226449d" y="540.782062"/>
     <use style="fill:#ff0000;stroke:#ff0000;" x="471.95216" xlink:href="#m77a226449d" y="537.575498"/>
     <use style="fill:#ff0000;stroke:#ff0000;" x="514.136077" xlink:href="#m77a226449d" y="509.139536"/>
     <use style="fill:#ff0000;stroke:#ff0000;" x="576.993537" xlink:href="#m77a226449d" y="504.048674"/>
     <use style="fill:#ff0000;stroke:#ff0000;" x="583.59174" xlink:href="#m77a226449d" y="628.061436"/>
     <use style="fill:#ff0000;stroke:#ff0000;" x="595.833978" xlink:href="#m77a226449d" y="642.517046"/>
     <use style="fill:#ff0000;stroke:#ff0000;" x="606.888681" xlink:href="#m77a226449d" y="619.942468"/>
     <use style="fill:#ff0000;stroke:#ff0000;" x="621.854198" xlink:href="#m77a226449d" y="640.550969"/>
     <use style="fill:#ff0000;stroke:#ff0000;" x="631.332017" xlink:href="#m77a226449d" y="623.602886"/>
     <use style="fill:#ff0000;stroke:#ff0000;" x="669.663587" xlink:href="#m77a226449d" y="626.354664"/>
     <use style="fill:#ff0000;stroke:#ff0000;" x="667.130431" xlink:href="#m77a226449d" y="593.012285"/>
     <use style="fill:#ff0000;stroke:#ff0000;" x="692.963167" xlink:href="#m77a226449d" y="597.795468"/>
     <use style="fill:#ff0000;stroke:#ff0000;" x="756.759625" xlink:href="#m77a226449d" y="592.339646"/>
     <use style="fill:#ff0000;stroke:#ff0000;" x="781.39933" xlink:href="#m77a226449d" y="584.913812"/>
     <use style="fill:#ff0000;stroke:#ff0000;" x="839.629453" xlink:href="#m77a226449d" y="569.019413"/>
     <use style="fill:#ff0000;stroke:#ff0000;" x="875.041899" xlink:href="#m77a226449d" y="573.651211"/>
     <use style="fill:#ff0000;stroke:#ff0000;" x="872.202805" xlink:href="#m77a226449d" y="558.551583"/>
     <use style="fill:#ff0000;stroke:#ff0000;" x="892.958911" xlink:href="#m77a226449d" y="553.919077"/>
     <use style="fill:#ff0000;stroke:#ff0000;" x="929.563744" xlink:href="#m77a226449d" y="553.919095"/>
     <use style="fill:#ff0000;stroke:#ff0000;" x="1057.477957" xlink:href="#m77a226449d" y="542.936688"/>
     <use style="fill:#ff0000;stroke:#ff0000;" x="1084.836199" xlink:href="#m77a226449d" y="512.849715"/>
     <use style="fill:#ff0000;stroke:#ff0000;" x="1136.83717" xlink:href="#m77a226449d" y="501.380844"/>
    </g>
   </g>
   <g id="line2d_34">
    <defs>
     <path d="M -0.5 0.5 
L 0.5 0.5 
L 0.5 -0.5 
L -0.5 -0.5 
z
" id="mc743bcbf6c" style="stroke:#1f77b4;stroke-linejoin:miter;"/>
    </defs>
    <g clip-path="url(#pdfb9de89e1)">
     <use style="fill:#1f77b4;stroke:#1f77b4;stroke-linejoin:miter;" x="1145.511345" xlink:href="#mc743bcbf6c" y="500.563945"/>
     <use style="fill:#1f77b4;stroke:#1f77b4;stroke-linejoin:miter;" x="1075.671703" xlink:href="#mc743bcbf6c" y="441.448202"/>
     <use style="fill:#1f77b4;stroke:#1f77b4;stroke-linejoin:miter;" x="1392.513371" xlink:href="#mc743bcbf6c" y="390.755478"/>
     <use style="fill:#1f77b4;stroke:#1f77b4;stroke-linejoin:miter;" x="1289.15934" xlink:href="#mc743bcbf6c" y="346.995549"/>
     <use style="fill:#1f77b4;stroke:#1f77b4;stroke-linejoin:miter;" x="1278.587253" xlink:href="#mc743bcbf6c" y="323.21939"/>
     <use style="fill:#1f77b4;stroke:#1f77b4;stroke-linejoin:miter;" x="1357.743559" xlink:href="#mc743bcbf6c" y="282.27212"/>
     <use style="fill:#1f77b4;stroke:#1f77b4;stroke-linejoin:miter;" x="1321.386028" xlink:href="#mc743bcbf6c" y="262.286831"/>
     <use style="fill:#1f77b4;stroke:#1f77b4;stroke-linejoin:miter;" x="649.236944" xlink:href="#mc743bcbf6c" y="398.438154"/>
     <use style="fill:#1f77b4;stroke:#1f77b4;stroke-linejoin:miter;" x="646.400174" xlink:href="#mc743bcbf6c" y="396.481918"/>
     <use style="fill:#1f77b4;stroke:#1f77b4;stroke-linejoin:miter;" x="644.698682" xlink:href="#mc743bcbf6c" y="394.237778"/>
     <use style="fill:#1f77b4;stroke:#1f77b4;stroke-linejoin:miter;" x="642.556272" xlink:href="#mc743bcbf6c" y="391.954359"/>
     <use style="fill:#1f77b4;stroke:#1f77b4;stroke-linejoin:miter;" x="642.226977" xlink:href="#mc743bcbf6c" y="387.795856"/>
     <use style="fill:#1f77b4;stroke:#1f77b4;stroke-linejoin:miter;" x="796.372306" xlink:href="#mc743bcbf6c" y="191.736699"/>
     <use style="fill:#1f77b4;stroke:#1f77b4;stroke-linejoin:miter;" x="773.50601" xlink:href="#mc743bcbf6c" y="195.46352"/>
     <use style="fill:#1f77b4;stroke:#1f77b4;stroke-linejoin:miter;" x="752.982204" xlink:href="#mc743bcbf6c" y="197.261909"/>
     <use style="fill:#1f77b4;stroke:#1f77b4;stroke-linejoin:miter;" x="732.914023" xlink:href="#mc743bcbf6c" y="199.885389"/>
     <use style="fill:#1f77b4;stroke:#1f77b4;stroke-linejoin:miter;" x="713.762574" xlink:href="#mc743bcbf6c" y="203.141256"/>
     <use style="fill:#1f77b4;stroke:#1f77b4;stroke-linejoin:miter;" x="695.836196" xlink:href="#mc743bcbf6c" y="206.312616"/>
     <use style="fill:#1f77b4;stroke:#1f77b4;stroke-linejoin:miter;" x="678.783934" xlink:href="#mc743bcbf6c" y="209.211355"/>
     <use style="fill:#1f77b4;stroke:#1f77b4;stroke-linejoin:miter;" x="663.192851" xlink:href="#mc743bcbf6c" y="210.925723"/>
     <use style="fill:#1f77b4;stroke:#1f77b4;stroke-linejoin:miter;" x="647.486642" xlink:href="#mc743bcbf6c" y="214.245443"/>
     <use style="fill:#1f77b4;stroke:#1f77b4;stroke-linejoin:miter;" x="633.037724" xlink:href="#mc743bcbf6c" y="215.49647"/>
     <use style="fill:#1f77b4;stroke:#1f77b4;stroke-linejoin:miter;" x="617.812608" xlink:href="#mc743bcbf6c" y="217.938755"/>
     <use style="fill:#1f77b4;stroke:#1f77b4;stroke-linejoin:miter;" x="603.978156" xlink:href="#mc743bcbf6c" y="219.508357"/>
     <use style="fill:#1f77b4;stroke:#1f77b4;stroke-linejoin:miter;" x="590.322317" xlink:href="#mc743bcbf6c" y="224.054108"/>
     <use style="fill:#1f77b4;stroke:#1f77b4;stroke-linejoin:miter;" x="577.110099" xlink:href="#mc743bcbf6c" y="225.346689"/>
     <use style="fill:#1f77b4;stroke:#1f77b4;stroke-linejoin:miter;" x="564.065708" xlink:href="#mc743bcbf6c" y="226.529107"/>
     <use style="fill:#1f77b4;stroke:#1f77b4;stroke-linejoin:miter;" x="551.266572" xlink:href="#mc743bcbf6c" y="230.055303"/>
     <use style="fill:#1f77b4;stroke:#1f77b4;stroke-linejoin:miter;" x="538.647604" xlink:href="#mc743bcbf6c" y="232.895469"/>
     <use style="fill:#1f77b4;stroke:#1f77b4;stroke-linejoin:miter;" x="526.456633" xlink:href="#mc743bcbf6c" y="236.410853"/>
     <use style="fill:#1f77b4;stroke:#1f77b4;stroke-linejoin:miter;" x="513.806795" xlink:href="#mc743bcbf6c" y="238.094635"/>
     <use style="fill:#1f77b4;stroke:#1f77b4;stroke-linejoin:miter;" x="501.516175" xlink:href="#mc743bcbf6c" y="240.503001"/>
     <use style="fill:#1f77b4;stroke:#1f77b4;stroke-linejoin:miter;" x="489.342476" xlink:href="#mc743bcbf6c" y="243.76467"/>
     <use style="fill:#1f77b4;stroke:#1f77b4;stroke-linejoin:miter;" x="475.43161" xlink:href="#mc743bcbf6c" y="244.043179"/>
     <use style="fill:#1f77b4;stroke:#1f77b4;stroke-linejoin:miter;" x="463.014307" xlink:href="#mc743bcbf6c" y="247.484225"/>
     <use style="fill:#1f77b4;stroke:#1f77b4;stroke-linejoin:miter;" x="557.775934" xlink:href="#mc743bcbf6c" y="396.282667"/>
     <use style="fill:#1f77b4;stroke:#1f77b4;stroke-linejoin:miter;" x="434.25254" xlink:href="#mc743bcbf6c" y="249.999962"/>
     <use style="fill:#1f77b4;stroke:#1f77b4;stroke-linejoin:miter;" x="419.597278" xlink:href="#mc743bcbf6c" y="252.103132"/>
     <use style="fill:#1f77b4;stroke:#1f77b4;stroke-linejoin:miter;" x="416.691878" xlink:href="#mc743bcbf6c" y="266.673848"/>
     <use style="fill:#1f77b4;stroke:#1f77b4;stroke-linejoin:miter;" x="401.780089" xlink:href="#mc743bcbf6c" y="268.723545"/>
     <use style="fill:#1f77b4;stroke:#1f77b4;stroke-linejoin:miter;" x="389.415577" xlink:href="#mc743bcbf6c" y="273.949281"/>
     <use style="fill:#1f77b4;stroke:#1f77b4;stroke-linejoin:miter;" x="392.452109" xlink:href="#mc743bcbf6c" y="290.814567"/>
     <use style="fill:#1f77b4;stroke:#1f77b4;stroke-linejoin:miter;" x="410.431198" xlink:href="#mc743bcbf6c" y="316.099342"/>
     <use style="fill:#1f77b4;stroke:#1f77b4;stroke-linejoin:miter;" x="419.419168" xlink:href="#mc743bcbf6c" y="342.311397"/>
     <use style="fill:#1f77b4;stroke:#1f77b4;stroke-linejoin:miter;" x="413.484009" xlink:href="#mc743bcbf6c" y="356.8141"/>
     <use style="fill:#1f77b4;stroke:#1f77b4;stroke-linejoin:miter;" x="407.968858" xlink:href="#mc743bcbf6c" y="362.702153"/>
     <use style="fill:#1f77b4;stroke:#1f77b4;stroke-linejoin:miter;" x="455.099376" xlink:href="#mc743bcbf6c" y="394.236178"/>
     <use style="fill:#1f77b4;stroke:#1f77b4;stroke-linejoin:miter;" x="456.336369" xlink:href="#mc743bcbf6c" y="400.113912"/>
     <use style="fill:#1f77b4;stroke:#1f77b4;stroke-linejoin:miter;" x="457.745503" xlink:href="#mc743bcbf6c" y="405.597012"/>
     <use style="fill:#1f77b4;stroke:#1f77b4;stroke-linejoin:miter;" x="457.011262" xlink:href="#mc743bcbf6c" y="410.469768"/>
     <use style="fill:#1f77b4;stroke:#1f77b4;stroke-linejoin:miter;" x="446.710543" xlink:href="#mc743bcbf6c" y="413.683228"/>
     <use style="fill:#1f77b4;stroke:#1f77b4;stroke-linejoin:miter;" x="427.397743" xlink:href="#mc743bcbf6c" y="416.198322"/>
     <use style="fill:#1f77b4;stroke:#1f77b4;stroke-linejoin:miter;" x="425.585181" xlink:href="#mc743bcbf6c" y="421.885924"/>
     <use style="fill:#1f77b4;stroke:#1f77b4;stroke-linejoin:miter;" x="419.089163" xlink:href="#mc743bcbf6c" y="427.148638"/>
     <use style="fill:#1f77b4;stroke:#1f77b4;stroke-linejoin:miter;" x="420.150838" xlink:href="#mc743bcbf6c" y="433.171068"/>
     <use style="fill:#1f77b4;stroke:#1f77b4;stroke-linejoin:miter;" x="420.63066" xlink:href="#mc743bcbf6c" y="438.700714"/>
     <use style="fill:#1f77b4;stroke:#1f77b4;stroke-linejoin:miter;" x="394.843605" xlink:href="#mc743bcbf6c" y="445.472033"/>
     <use style="fill:#1f77b4;stroke:#1f77b4;stroke-linejoin:miter;" x="395.866716" xlink:href="#mc743bcbf6c" y="452.155552"/>
     <use style="fill:#1f77b4;stroke:#1f77b4;stroke-linejoin:miter;" x="398.3837" xlink:href="#mc743bcbf6c" y="458.702232"/>
     <use style="fill:#1f77b4;stroke:#1f77b4;stroke-linejoin:miter;" x="400.156645" xlink:href="#mc743bcbf6c" y="465.322877"/>
     <use style="fill:#1f77b4;stroke:#1f77b4;stroke-linejoin:miter;" x="436.797699" xlink:href="#mc743bcbf6c" y="465.621455"/>
     <use style="fill:#1f77b4;stroke:#1f77b4;stroke-linejoin:miter;" x="404.16162" xlink:href="#mc743bcbf6c" y="478.376409"/>
     <use style="fill:#1f77b4;stroke:#1f77b4;stroke-linejoin:miter;" x="405.50469" xlink:href="#mc743bcbf6c" y="485.151622"/>
     <use style="fill:#1f77b4;stroke:#1f77b4;stroke-linejoin:miter;" x="407.867432" xlink:href="#mc743bcbf6c" y="491.706066"/>
     <use style="fill:#1f77b4;stroke:#1f77b4;stroke-linejoin:miter;" x="410.635827" xlink:href="#mc743bcbf6c" y="506.191024"/>
     <use style="fill:#1f77b4;stroke:#1f77b4;stroke-linejoin:miter;" x="439.238395" xlink:href="#mc743bcbf6c" y="502.215564"/>
     <use style="fill:#1f77b4;stroke:#1f77b4;stroke-linejoin:miter;" x="455.274825" xlink:href="#mc743bcbf6c" y="501.943368"/>
     <use style="fill:#1f77b4;stroke:#1f77b4;stroke-linejoin:miter;" x="441.120977" xlink:href="#mc743bcbf6c" y="516.123131"/>
     <use style="fill:#1f77b4;stroke:#1f77b4;stroke-linejoin:miter;" x="459.702048" xlink:href="#mc743bcbf6c" y="513.528498"/>
     <use style="fill:#1f77b4;stroke:#1f77b4;stroke-linejoin:miter;" x="458.239789" xlink:href="#mc743bcbf6c" y="521.880804"/>
     <use style="fill:#1f77b4;stroke:#1f77b4;stroke-linejoin:miter;" x="456.273213" xlink:href="#mc743bcbf6c" y="540.782062"/>
     <use style="fill:#1f77b4;stroke:#1f77b4;stroke-linejoin:miter;" x="471.95216" xlink:href="#mc743bcbf6c" y="537.575498"/>
     <use style="fill:#1f77b4;stroke:#1f77b4;stroke-linejoin:miter;" x="514.136077" xlink:href="#mc743bcbf6c" y="509.139536"/>
     <use style="fill:#1f77b4;stroke:#1f77b4;stroke-linejoin:miter;" x="526.380782" xlink:href="#mc743bcbf6c" y="504.055389"/>
     <use style="fill:#1f77b4;stroke:#1f77b4;stroke-linejoin:miter;" x="534.601761" xlink:href="#mc743bcbf6c" y="501.900761"/>
     <use style="fill:#1f77b4;stroke:#1f77b4;stroke-linejoin:miter;" x="540.870376" xlink:href="#mc743bcbf6c" y="500.976664"/>
     <use style="fill:#1f77b4;stroke:#1f77b4;stroke-linejoin:miter;" x="548.025858" xlink:href="#mc743bcbf6c" y="498.374193"/>
     <use style="fill:#1f77b4;stroke:#1f77b4;stroke-linejoin:miter;" x="552.642492" xlink:href="#mc743bcbf6c" y="499.006458"/>
     <use style="fill:#1f77b4;stroke:#1f77b4;stroke-linejoin:miter;" x="555.63374" xlink:href="#mc743bcbf6c" y="501.461452"/>
     <use style="fill:#1f77b4;stroke:#1f77b4;stroke-linejoin:miter;" x="559.580932" xlink:href="#mc743bcbf6c" y="503.193394"/>
     <use style="fill:#1f77b4;stroke:#1f77b4;stroke-linejoin:miter;" x="562.803378" xlink:href="#mc743bcbf6c" y="506.162127"/>
     <use style="fill:#1f77b4;stroke:#1f77b4;stroke-linejoin:miter;" x="566.672721" xlink:href="#mc743bcbf6c" y="508.574853"/>
     <use style="fill:#1f77b4;stroke:#1f77b4;stroke-linejoin:miter;" x="572.720859" xlink:href="#mc743bcbf6c" y="503.798597"/>
     <use style="fill:#1f77b4;stroke:#1f77b4;stroke-linejoin:miter;" x="576.993537" xlink:href="#mc743bcbf6c" y="504.048674"/>
     <use style="fill:#1f77b4;stroke:#1f77b4;stroke-linejoin:miter;" x="583.59174" xlink:href="#mc743bcbf6c" y="628.061436"/>
     <use style="fill:#1f77b4;stroke:#1f77b4;stroke-linejoin:miter;" x="595.833978" xlink:href="#mc743bcbf6c" y="642.517046"/>
     <use style="fill:#1f77b4;stroke:#1f77b4;stroke-linejoin:miter;" x="606.888681" xlink:href="#mc743bcbf6c" y="619.942468"/>
     <use style="fill:#1f77b4;stroke:#1f77b4;stroke-linejoin:miter;" x="621.854198" xlink:href="#mc743bcbf6c" y="640.550969"/>
     <use style="fill:#1f77b4;stroke:#1f77b4;stroke-linejoin:miter;" x="631.332017" xlink:href="#mc743bcbf6c" y="623.602886"/>
     <use style="fill:#1f77b4;stroke:#1f77b4;stroke-linejoin:miter;" x="657.808655" xlink:href="#mc743bcbf6c" y="629.243442"/>
     <use style="fill:#1f77b4;stroke:#1f77b4;stroke-linejoin:miter;" x="669.663587" xlink:href="#mc743bcbf6c" y="626.354664"/>
     <use style="fill:#1f77b4;stroke:#1f77b4;stroke-linejoin:miter;" x="667.130431" xlink:href="#mc743bcbf6c" y="593.012285"/>
     <use style="fill:#1f77b4;stroke:#1f77b4;stroke-linejoin:miter;" x="681.724955" xlink:href="#mc743bcbf6c" y="598.978195"/>
     <use style="fill:#1f77b4;stroke:#1f77b4;stroke-linejoin:miter;" x="692.963167" xlink:href="#mc743bcbf6c" y="597.795468"/>
     <use style="fill:#1f77b4;stroke:#1f77b4;stroke-linejoin:miter;" x="756.759625" xlink:href="#mc743bcbf6c" y="592.339646"/>
     <use style="fill:#1f77b4;stroke:#1f77b4;stroke-linejoin:miter;" x="765.917394" xlink:href="#mc743bcbf6c" y="586.196467"/>
     <use style="fill:#1f77b4;stroke:#1f77b4;stroke-linejoin:miter;" x="781.39933" xlink:href="#mc743bcbf6c" y="584.913812"/>
     <use style="fill:#1f77b4;stroke:#1f77b4;stroke-linejoin:miter;" x="799.995736" xlink:href="#mc743bcbf6c" y="584.937045"/>
     <use style="fill:#1f77b4;stroke:#1f77b4;stroke-linejoin:miter;" x="814.746825" xlink:href="#mc743bcbf6c" y="581.402687"/>
     <use style="fill:#1f77b4;stroke:#1f77b4;stroke-linejoin:miter;" x="831.477204" xlink:href="#mc743bcbf6c" y="578.176321"/>
     <use style="fill:#1f77b4;stroke:#1f77b4;stroke-linejoin:miter;" x="839.629453" xlink:href="#mc743bcbf6c" y="569.019413"/>
     <use style="fill:#1f77b4;stroke:#1f77b4;stroke-linejoin:miter;" x="875.041899" xlink:href="#mc743bcbf6c" y="573.651211"/>
     <use style="fill:#1f77b4;stroke:#1f77b4;stroke-linejoin:miter;" x="872.202805" xlink:href="#mc743bcbf6c" y="558.551583"/>
     <use style="fill:#1f77b4;stroke:#1f77b4;stroke-linejoin:miter;" x="892.958911" xlink:href="#mc743bcbf6c" y="553.919077"/>
     <use style="fill:#1f77b4;stroke:#1f77b4;stroke-linejoin:miter;" x="929.563744" xlink:href="#mc743bcbf6c" y="553.919095"/>
     <use style="fill:#1f77b4;stroke:#1f77b4;stroke-linejoin:miter;" x="1057.477957" xlink:href="#mc743bcbf6c" y="542.936688"/>
     <use style="fill:#1f77b4;stroke:#1f77b4;stroke-linejoin:miter;" x="1078.957952" xlink:href="#mc743bcbf6c" y="529.624"/>
     <use style="fill:#1f77b4;stroke:#1f77b4;stroke-linejoin:miter;" x="1084.836199" xlink:href="#mc743bcbf6c" y="512.849715"/>
     <use style="fill:#1f77b4;stroke:#1f77b4;stroke-linejoin:miter;" x="1136.83717" xlink:href="#mc743bcbf6c" y="501.380844"/>
    </g>
   </g>
   <g id="patch_3">
    <path d="M 144 768.96 
L 144 103.68 
" style="fill:none;stroke:#000000;stroke-linecap:square;stroke-linejoin:miter;stroke-width:0.8;"/>
   </g>
   <g id="patch_4">
    <path d="M 1036.8 768.96 
L 1036.8 103.68 
" style="fill:none;stroke:#000000;stroke-linecap:square;stroke-linejoin:miter;stroke-width:0.8;"/>
   </g>
   <g id="patch_5">
    <path d="M 144 768.96 
L 1036.8 768.96 
" style="fill:none;stroke:#000000;stroke-linecap:square;stroke-linejoin:miter;stroke-width:0.8;"/>
   </g>
   <g id="patch_6">
    <path d="M 144 103.68 
L 1036.8 103.68 
" style="fill:none;stroke:#000000;stroke-linecap:square;stroke-linejoin:miter;stroke-width:0.8;"/>
   </g>
  </g>
 </g>
 <defs>
  <clipPath id="pdfb9de89e1">
   <rect height="665.28" width="892.8" x="144" y="103.68"/>
  </clipPath>
 </defs>
</svg>
