<?xml version="1.0" encoding="utf-8" standalone="no"?>
<!DOCTYPE svg PUBLIC "-//W3C//DTD SVG 1.1//EN"
  "http://www.w3.org/Graphics/SVG/1.1/DTD/svg11.dtd">
<!-- Created with matplotlib (http://matplotlib.org/) -->
<svg height="864pt" version="1.1" viewBox="0 0 1152 864" width="1152pt" xmlns="http://www.w3.org/2000/svg" xmlns:xlink="http://www.w3.org/1999/xlink">
 <defs>
  <style type="text/css">
*{stroke-linecap:butt;stroke-linejoin:round;}
  </style>
 </defs>
 <g id="figure_1">
  <g id="patch_1">
   <path d="M 0 864 
L 1152 864 
L 1152 0 
L 0 0 
z
" style="fill:#ffffff;"/>
  </g>
  <g id="axes_1">
   <g id="patch_2">
    <path d="M 144 768.96 
L 1036.8 768.96 
L 1036.8 103.68 
L 144 103.68 
z
" style="fill:#ffffff;"/>
   </g>
   <g id="matplotlib.axis_1">
    <g id="xtick_1">
     <g id="line2d_1">
      <defs>
       <path d="M 0 0 
L 0 3.5 
" id="m61594a1ddb" style="stroke:#000000;stroke-width:0.8;"/>
      </defs>
      <g>
       <use style="stroke:#000000;stroke-width:0.8;" x="144" xlink:href="#m61594a1ddb" y="768.96"/>
      </g>
     </g>
     <g id="text_1">
      <!-- −4000 -->
      <defs>
       <path d="M 10.59375 35.5 
L 73.1875 35.5 
L 73.1875 27.203125 
L 10.59375 27.203125 
z
" id="DejaVuSans-2212"/>
       <path d="M 37.796875 64.3125 
L 12.890625 25.390625 
L 37.796875 25.390625 
z
M 35.203125 72.90625 
L 47.609375 72.90625 
L 47.609375 25.390625 
L 58.015625 25.390625 
L 58.015625 17.1875 
L 47.609375 17.1875 
L 47.609375 0 
L 37.796875 0 
L 37.796875 17.1875 
L 4.890625 17.1875 
L 4.890625 26.703125 
z
" id="DejaVuSans-34"/>
       <path d="M 31.78125 66.40625 
Q 24.171875 66.40625 20.328125 58.90625 
Q 16.5 51.421875 16.5 36.375 
Q 16.5 21.390625 20.328125 13.890625 
Q 24.171875 6.390625 31.78125 6.390625 
Q 39.453125 6.390625 43.28125 13.890625 
Q 47.125 21.390625 47.125 36.375 
Q 47.125 51.421875 43.28125 58.90625 
Q 39.453125 66.40625 31.78125 66.40625 
z
M 31.78125 74.21875 
Q 44.046875 74.21875 50.515625 64.515625 
Q 56.984375 54.828125 56.984375 36.375 
Q 56.984375 17.96875 50.515625 8.265625 
Q 44.046875 -1.421875 31.78125 -1.421875 
Q 19.53125 -1.421875 13.0625 8.265625 
Q 6.59375 17.96875 6.59375 36.375 
Q 6.59375 54.828125 13.0625 64.515625 
Q 19.53125 74.21875 31.78125 74.21875 
z
" id="DejaVuSans-30"/>
      </defs>
      <g transform="translate(127.085156 783.558437)scale(0.1 -0.1)">
       <use xlink:href="#DejaVuSans-2212"/>
       <use x="83.789062" xlink:href="#DejaVuSans-34"/>
       <use x="147.412109" xlink:href="#DejaVuSans-30"/>
       <use x="211.035156" xlink:href="#DejaVuSans-30"/>
       <use x="274.658203" xlink:href="#DejaVuSans-30"/>
      </g>
     </g>
    </g>
    <g id="xtick_2">
     <g id="line2d_2">
      <g>
       <use style="stroke:#000000;stroke-width:0.8;" x="255.6" xlink:href="#m61594a1ddb" y="768.96"/>
      </g>
     </g>
     <g id="text_2">
      <!-- −3000 -->
      <defs>
       <path d="M 40.578125 39.3125 
Q 47.65625 37.796875 51.625 33 
Q 55.609375 28.21875 55.609375 21.1875 
Q 55.609375 10.40625 48.1875 4.484375 
Q 40.765625 -1.421875 27.09375 -1.421875 
Q 22.515625 -1.421875 17.65625 -0.515625 
Q 12.796875 0.390625 7.625 2.203125 
L 7.625 11.71875 
Q 11.71875 9.328125 16.59375 8.109375 
Q 21.484375 6.890625 26.8125 6.890625 
Q 36.078125 6.890625 40.9375 10.546875 
Q 45.796875 14.203125 45.796875 21.1875 
Q 45.796875 27.640625 41.28125 31.265625 
Q 36.765625 34.90625 28.71875 34.90625 
L 20.21875 34.90625 
L 20.21875 43.015625 
L 29.109375 43.015625 
Q 36.375 43.015625 40.234375 45.921875 
Q 44.09375 48.828125 44.09375 54.296875 
Q 44.09375 59.90625 40.109375 62.90625 
Q 36.140625 65.921875 28.71875 65.921875 
Q 24.65625 65.921875 20.015625 65.03125 
Q 15.375 64.15625 9.8125 62.3125 
L 9.8125 71.09375 
Q 15.4375 72.65625 20.34375 73.4375 
Q 25.25 74.21875 29.59375 74.21875 
Q 40.828125 74.21875 47.359375 69.109375 
Q 53.90625 64.015625 53.90625 55.328125 
Q 53.90625 49.265625 50.4375 45.09375 
Q 46.96875 40.921875 40.578125 39.3125 
z
" id="DejaVuSans-33"/>
      </defs>
      <g transform="translate(238.685156 783.558437)scale(0.1 -0.1)">
       <use xlink:href="#DejaVuSans-2212"/>
       <use x="83.789062" xlink:href="#DejaVuSans-33"/>
       <use x="147.412109" xlink:href="#DejaVuSans-30"/>
       <use x="211.035156" xlink:href="#DejaVuSans-30"/>
       <use x="274.658203" xlink:href="#DejaVuSans-30"/>
      </g>
     </g>
    </g>
    <g id="xtick_3">
     <g id="line2d_3">
      <g>
       <use style="stroke:#000000;stroke-width:0.8;" x="367.2" xlink:href="#m61594a1ddb" y="768.96"/>
      </g>
     </g>
     <g id="text_3">
      <!-- −2000 -->
      <defs>
       <path d="M 19.1875 8.296875 
L 53.609375 8.296875 
L 53.609375 0 
L 7.328125 0 
L 7.328125 8.296875 
Q 12.9375 14.109375 22.625 23.890625 
Q 32.328125 33.6875 34.8125 36.53125 
Q 39.546875 41.84375 41.421875 45.53125 
Q 43.3125 49.21875 43.3125 52.78125 
Q 43.3125 58.59375 39.234375 62.25 
Q 35.15625 65.921875 28.609375 65.921875 
Q 23.96875 65.921875 18.8125 64.3125 
Q 13.671875 62.703125 7.8125 59.421875 
L 7.8125 69.390625 
Q 13.765625 71.78125 18.9375 73 
Q 24.125 74.21875 28.421875 74.21875 
Q 39.75 74.21875 46.484375 68.546875 
Q 53.21875 62.890625 53.21875 53.421875 
Q 53.21875 48.921875 51.53125 44.890625 
Q 49.859375 40.875 45.40625 35.40625 
Q 44.1875 33.984375 37.640625 27.21875 
Q 31.109375 20.453125 19.1875 8.296875 
z
" id="DejaVuSans-32"/>
      </defs>
      <g transform="translate(350.285156 783.558437)scale(0.1 -0.1)">
       <use xlink:href="#DejaVuSans-2212"/>
       <use x="83.789062" xlink:href="#DejaVuSans-32"/>
       <use x="147.412109" xlink:href="#DejaVuSans-30"/>
       <use x="211.035156" xlink:href="#DejaVuSans-30"/>
       <use x="274.658203" xlink:href="#DejaVuSans-30"/>
      </g>
     </g>
    </g>
    <g id="xtick_4">
     <g id="line2d_4">
      <g>
       <use style="stroke:#000000;stroke-width:0.8;" x="478.8" xlink:href="#m61594a1ddb" y="768.96"/>
      </g>
     </g>
     <g id="text_4">
      <!-- −1000 -->
      <defs>
       <path d="M 12.40625 8.296875 
L 28.515625 8.296875 
L 28.515625 63.921875 
L 10.984375 60.40625 
L 10.984375 69.390625 
L 28.421875 72.90625 
L 38.28125 72.90625 
L 38.28125 8.296875 
L 54.390625 8.296875 
L 54.390625 0 
L 12.40625 0 
z
" id="DejaVuSans-31"/>
      </defs>
      <g transform="translate(461.885156 783.558437)scale(0.1 -0.1)">
       <use xlink:href="#DejaVuSans-2212"/>
       <use x="83.789062" xlink:href="#DejaVuSans-31"/>
       <use x="147.412109" xlink:href="#DejaVuSans-30"/>
       <use x="211.035156" xlink:href="#DejaVuSans-30"/>
       <use x="274.658203" xlink:href="#DejaVuSans-30"/>
      </g>
     </g>
    </g>
    <g id="xtick_5">
     <g id="line2d_5">
      <g>
       <use style="stroke:#000000;stroke-width:0.8;" x="590.4" xlink:href="#m61594a1ddb" y="768.96"/>
      </g>
     </g>
     <g id="text_5">
      <!-- 0 -->
      <g transform="translate(587.21875 783.558437)scale(0.1 -0.1)">
       <use xlink:href="#DejaVuSans-30"/>
      </g>
     </g>
    </g>
    <g id="xtick_6">
     <g id="line2d_6">
      <g>
       <use style="stroke:#000000;stroke-width:0.8;" x="702" xlink:href="#m61594a1ddb" y="768.96"/>
      </g>
     </g>
     <g id="text_6">
      <!-- 1000 -->
      <g transform="translate(689.275 783.558437)scale(0.1 -0.1)">
       <use xlink:href="#DejaVuSans-31"/>
       <use x="63.623047" xlink:href="#DejaVuSans-30"/>
       <use x="127.246094" xlink:href="#DejaVuSans-30"/>
       <use x="190.869141" xlink:href="#DejaVuSans-30"/>
      </g>
     </g>
    </g>
    <g id="xtick_7">
     <g id="line2d_7">
      <g>
       <use style="stroke:#000000;stroke-width:0.8;" x="813.6" xlink:href="#m61594a1ddb" y="768.96"/>
      </g>
     </g>
     <g id="text_7">
      <!-- 2000 -->
      <g transform="translate(800.875 783.558437)scale(0.1 -0.1)">
       <use xlink:href="#DejaVuSans-32"/>
       <use x="63.623047" xlink:href="#DejaVuSans-30"/>
       <use x="127.246094" xlink:href="#DejaVuSans-30"/>
       <use x="190.869141" xlink:href="#DejaVuSans-30"/>
      </g>
     </g>
    </g>
    <g id="xtick_8">
     <g id="line2d_8">
      <g>
       <use style="stroke:#000000;stroke-width:0.8;" x="925.2" xlink:href="#m61594a1ddb" y="768.96"/>
      </g>
     </g>
     <g id="text_8">
      <!-- 3000 -->
      <g transform="translate(912.475 783.558437)scale(0.1 -0.1)">
       <use xlink:href="#DejaVuSans-33"/>
       <use x="63.623047" xlink:href="#DejaVuSans-30"/>
       <use x="127.246094" xlink:href="#DejaVuSans-30"/>
       <use x="190.869141" xlink:href="#DejaVuSans-30"/>
      </g>
     </g>
    </g>
    <g id="xtick_9">
     <g id="line2d_9">
      <g>
       <use style="stroke:#000000;stroke-width:0.8;" x="1036.8" xlink:href="#m61594a1ddb" y="768.96"/>
      </g>
     </g>
     <g id="text_9">
      <!-- 4000 -->
      <g transform="translate(1024.075 783.558437)scale(0.1 -0.1)">
       <use xlink:href="#DejaVuSans-34"/>
       <use x="63.623047" xlink:href="#DejaVuSans-30"/>
       <use x="127.246094" xlink:href="#DejaVuSans-30"/>
       <use x="190.869141" xlink:href="#DejaVuSans-30"/>
      </g>
     </g>
    </g>
   </g>
   <g id="matplotlib.axis_2">
    <g id="ytick_1">
     <g id="line2d_10">
      <defs>
       <path d="M 0 0 
L -3.5 0 
" id="mc83f744485" style="stroke:#000000;stroke-width:0.8;"/>
      </defs>
      <g>
       <use style="stroke:#000000;stroke-width:0.8;" x="144" xlink:href="#mc83f744485" y="768.96"/>
      </g>
     </g>
     <g id="text_10">
      <!-- −4000 -->
      <g transform="translate(103.170312 772.759219)scale(0.1 -0.1)">
       <use xlink:href="#DejaVuSans-2212"/>
       <use x="83.789062" xlink:href="#DejaVuSans-34"/>
       <use x="147.412109" xlink:href="#DejaVuSans-30"/>
       <use x="211.035156" xlink:href="#DejaVuSans-30"/>
       <use x="274.658203" xlink:href="#DejaVuSans-30"/>
      </g>
     </g>
    </g>
    <g id="ytick_2">
     <g id="line2d_11">
      <g>
       <use style="stroke:#000000;stroke-width:0.8;" x="144" xlink:href="#mc83f744485" y="685.8"/>
      </g>
     </g>
     <g id="text_11">
      <!-- −3000 -->
      <g transform="translate(103.170312 689.599219)scale(0.1 -0.1)">
       <use xlink:href="#DejaVuSans-2212"/>
       <use x="83.789062" xlink:href="#DejaVuSans-33"/>
       <use x="147.412109" xlink:href="#DejaVuSans-30"/>
       <use x="211.035156" xlink:href="#DejaVuSans-30"/>
       <use x="274.658203" xlink:href="#DejaVuSans-30"/>
      </g>
     </g>
    </g>
    <g id="ytick_3">
     <g id="line2d_12">
      <g>
       <use style="stroke:#000000;stroke-width:0.8;" x="144" xlink:href="#mc83f744485" y="602.64"/>
      </g>
     </g>
     <g id="text_12">
      <!-- −2000 -->
      <g transform="translate(103.170312 606.439219)scale(0.1 -0.1)">
       <use xlink:href="#DejaVuSans-2212"/>
       <use x="83.789062" xlink:href="#DejaVuSans-32"/>
       <use x="147.412109" xlink:href="#DejaVuSans-30"/>
       <use x="211.035156" xlink:href="#DejaVuSans-30"/>
       <use x="274.658203" xlink:href="#DejaVuSans-30"/>
      </g>
     </g>
    </g>
    <g id="ytick_4">
     <g id="line2d_13">
      <g>
       <use style="stroke:#000000;stroke-width:0.8;" x="144" xlink:href="#mc83f744485" y="519.48"/>
      </g>
     </g>
     <g id="text_13">
      <!-- −1000 -->
      <g transform="translate(103.170312 523.279219)scale(0.1 -0.1)">
       <use xlink:href="#DejaVuSans-2212"/>
       <use x="83.789062" xlink:href="#DejaVuSans-31"/>
       <use x="147.412109" xlink:href="#DejaVuSans-30"/>
       <use x="211.035156" xlink:href="#DejaVuSans-30"/>
       <use x="274.658203" xlink:href="#DejaVuSans-30"/>
      </g>
     </g>
    </g>
    <g id="ytick_5">
     <g id="line2d_14">
      <g>
       <use style="stroke:#000000;stroke-width:0.8;" x="144" xlink:href="#mc83f744485" y="436.32"/>
      </g>
     </g>
     <g id="text_14">
      <!-- 0 -->
      <g transform="translate(130.6375 440.119219)scale(0.1 -0.1)">
       <use xlink:href="#DejaVuSans-30"/>
      </g>
     </g>
    </g>
    <g id="ytick_6">
     <g id="line2d_15">
      <g>
       <use style="stroke:#000000;stroke-width:0.8;" x="144" xlink:href="#mc83f744485" y="353.16"/>
      </g>
     </g>
     <g id="text_15">
      <!-- 1000 -->
      <g transform="translate(111.55 356.959219)scale(0.1 -0.1)">
       <use xlink:href="#DejaVuSans-31"/>
       <use x="63.623047" xlink:href="#DejaVuSans-30"/>
       <use x="127.246094" xlink:href="#DejaVuSans-30"/>
       <use x="190.869141" xlink:href="#DejaVuSans-30"/>
      </g>
     </g>
    </g>
    <g id="ytick_7">
     <g id="line2d_16">
      <g>
       <use style="stroke:#000000;stroke-width:0.8;" x="144" xlink:href="#mc83f744485" y="270"/>
      </g>
     </g>
     <g id="text_16">
      <!-- 2000 -->
      <g transform="translate(111.55 273.799219)scale(0.1 -0.1)">
       <use xlink:href="#DejaVuSans-32"/>
       <use x="63.623047" xlink:href="#DejaVuSans-30"/>
       <use x="127.246094" xlink:href="#DejaVuSans-30"/>
       <use x="190.869141" xlink:href="#DejaVuSans-30"/>
      </g>
     </g>
    </g>
    <g id="ytick_8">
     <g id="line2d_17">
      <g>
       <use style="stroke:#000000;stroke-width:0.8;" x="144" xlink:href="#mc83f744485" y="186.84"/>
      </g>
     </g>
     <g id="text_17">
      <!-- 3000 -->
      <g transform="translate(111.55 190.639219)scale(0.1 -0.1)">
       <use xlink:href="#DejaVuSans-33"/>
       <use x="63.623047" xlink:href="#DejaVuSans-30"/>
       <use x="127.246094" xlink:href="#DejaVuSans-30"/>
       <use x="190.869141" xlink:href="#DejaVuSans-30"/>
      </g>
     </g>
    </g>
    <g id="ytick_9">
     <g id="line2d_18">
      <g>
       <use style="stroke:#000000;stroke-width:0.8;" x="144" xlink:href="#mc83f744485" y="103.68"/>
      </g>
     </g>
     <g id="text_18">
      <!-- 4000 -->
      <g transform="translate(111.55 107.479219)scale(0.1 -0.1)">
       <use xlink:href="#DejaVuSans-34"/>
       <use x="63.623047" xlink:href="#DejaVuSans-30"/>
       <use x="127.246094" xlink:href="#DejaVuSans-30"/>
       <use x="190.869141" xlink:href="#DejaVuSans-30"/>
      </g>
     </g>
    </g>
   </g>
   <g id="line2d_19">
    <path clip-path="url(#pf0afae8eb4)" d="M 590.4 768.96 
L 590.4 103.68 
" style="fill:none;stroke:#1f77b4;stroke-linecap:square;stroke-width:1.5;"/>
   </g>
   <g id="line2d_20">
    <path clip-path="url(#pf0afae8eb4)" d="M 144 436.32 
L 1036.8 436.32 
" style="fill:none;stroke:#1f77b4;stroke-linecap:square;stroke-width:1.5;"/>
   </g>
   <g id="line2d_21">
    <defs>
     <path d="M 0 3 
C 0.795609 3 1.55874 2.683901 2.12132 2.12132 
C 2.683901 1.55874 3 0.795609 3 0 
C 3 -0.795609 2.683901 -1.55874 2.12132 -2.12132 
C 1.55874 -2.683901 0.795609 -3 0 -3 
C -0.795609 -3 -1.55874 -2.683901 -2.12132 -2.12132 
C -2.683901 -1.55874 -3 -0.795609 -3 0 
C -3 0.795609 -2.683901 1.55874 -2.12132 2.12132 
C -1.55874 2.683901 -0.795609 3 0 3 
z
" id="m192e9a2b92" style="stroke:#008000;"/>
    </defs>
    <g clip-path="url(#pf0afae8eb4)">
     <use style="fill:#008000;stroke:#008000;" x="1158.381975" xlink:href="#m192e9a2b92" y="496.861915"/>
    </g>
   </g>
   <g id="line2d_22">
    <g clip-path="url(#pf0afae8eb4)">
     <use style="fill:#008000;stroke:#008000;" x="1415.66384" xlink:href="#m192e9a2b92" y="492.149988"/>
    </g>
   </g>
   <g id="line2d_23">
    <g clip-path="url(#pf0afae8eb4)">
     <use style="fill:#008000;stroke:#008000;" x="1290.515267" xlink:href="#m192e9a2b92" y="343.596776"/>
    </g>
   </g>
   <g id="line2d_24">
    <g clip-path="url(#pf0afae8eb4)">
     <use style="fill:#008000;stroke:#008000;" x="1408.929099" xlink:href="#m192e9a2b92" y="294.278191"/>
    </g>
   </g>
   <g id="line2d_25">
    <g clip-path="url(#pf0afae8eb4)">
     <use style="fill:#008000;stroke:#008000;" x="1323.677221" xlink:href="#m192e9a2b92" y="278.025623"/>
    </g>
   </g>
   <g id="line2d_26">
    <g clip-path="url(#pf0afae8eb4)">
     <use style="fill:#008000;stroke:#008000;" x="646.983532" xlink:href="#m192e9a2b92" y="393.588922"/>
    </g>
   </g>
   <g id="line2d_27">
    <g clip-path="url(#pf0afae8eb4)">
     <use style="fill:#008000;stroke:#008000;" x="646.983532" xlink:href="#m192e9a2b92" y="393.588922"/>
    </g>
   </g>
   <g id="line2d_28">
    <g clip-path="url(#pf0afae8eb4)">
     <use style="fill:#008000;stroke:#008000;" x="533.740253" xlink:href="#m192e9a2b92" y="235.5345"/>
    </g>
   </g>
   <g id="line2d_29">
    <g clip-path="url(#pf0afae8eb4)">
     <use style="fill:#008000;stroke:#008000;" x="570.300755" xlink:href="#m192e9a2b92" y="399.308313"/>
    </g>
   </g>
   <g id="line2d_30">
    <g clip-path="url(#pf0afae8eb4)">
     <use style="fill:#008000;stroke:#008000;" x="570.300755" xlink:href="#m192e9a2b92" y="399.308313"/>
    </g>
   </g>
   <g id="line2d_31">
    <g clip-path="url(#pf0afae8eb4)">
     <use style="fill:#008000;stroke:#008000;" x="445.26406" xlink:href="#m192e9a2b92" y="250.056516"/>
    </g>
   </g>
   <g id="line2d_32">
    <g clip-path="url(#pf0afae8eb4)">
     <use style="fill:#008000;stroke:#008000;" x="539.861059" xlink:href="#m192e9a2b92" y="497.88799"/>
    </g>
   </g>
   <g id="line2d_33">
    <g clip-path="url(#pf0afae8eb4)">
     <use style="fill:#008000;stroke:#008000;" x="568.491871" xlink:href="#m192e9a2b92" y="617.508938"/>
    </g>
   </g>
   <g id="line2d_34">
    <defs>
     <path d="M 0 1.333333 
C 0.353604 1.333333 0.692773 1.192845 0.942809 0.942809 
C 1.192845 0.692773 1.333333 0.353604 1.333333 0 
C 1.333333 -0.353604 1.192845 -0.692773 0.942809 -0.942809 
C 0.692773 -1.192845 0.353604 -1.333333 0 -1.333333 
C -0.353604 -1.333333 -0.692773 -1.192845 -0.942809 -0.942809 
C -1.192845 -0.692773 -1.333333 -0.353604 -1.333333 0 
C -1.333333 0.353604 -1.192845 0.692773 -0.942809 0.942809 
C -0.692773 1.192845 -0.353604 1.333333 0 1.333333 
z
" id="mc99a1e5702" style="stroke:#ff0000;"/>
    </defs>
    <g clip-path="url(#pf0afae8eb4)">
     <use style="fill:#ff0000;stroke:#ff0000;" x="1158.381975" xlink:href="#mc99a1e5702" y="496.861915"/>
     <use style="fill:#ff0000;stroke:#ff0000;" x="1415.66384" xlink:href="#mc99a1e5702" y="492.149988"/>
     <use style="fill:#ff0000;stroke:#ff0000;" x="1290.515267" xlink:href="#mc99a1e5702" y="343.596776"/>
     <use style="fill:#ff0000;stroke:#ff0000;" x="1408.929099" xlink:href="#mc99a1e5702" y="294.278191"/>
     <use style="fill:#ff0000;stroke:#ff0000;" x="1323.677221" xlink:href="#mc99a1e5702" y="278.025623"/>
     <use style="fill:#ff0000;stroke:#ff0000;" x="650.660776" xlink:href="#mc99a1e5702" y="399.570594"/>
     <use style="fill:#ff0000;stroke:#ff0000;" x="642.262113" xlink:href="#mc99a1e5702" y="387.790127"/>
     <use style="fill:#ff0000;stroke:#ff0000;" x="787.789987" xlink:href="#mc99a1e5702" y="191.978523"/>
     <use style="fill:#ff0000;stroke:#ff0000;" x="762.213347" xlink:href="#mc99a1e5702" y="195.374627"/>
     <use style="fill:#ff0000;stroke:#ff0000;" x="738.457461" xlink:href="#mc99a1e5702" y="198.709368"/>
     <use style="fill:#ff0000;stroke:#ff0000;" x="716.377768" xlink:href="#mc99a1e5702" y="202.506953"/>
     <use style="fill:#ff0000;stroke:#ff0000;" x="533.740253" xlink:href="#mc99a1e5702" y="235.5345"/>
     <use style="fill:#ff0000;stroke:#ff0000;" x="571.403204" xlink:href="#mc99a1e5702" y="398.553144"/>
     <use style="fill:#ff0000;stroke:#ff0000;" x="569.237923" xlink:href="#mc99a1e5702" y="400.080443"/>
     <use style="fill:#ff0000;stroke:#ff0000;" x="445.26406" xlink:href="#mc99a1e5702" y="250.056516"/>
     <use style="fill:#ff0000;stroke:#ff0000;" x="390.757453" xlink:href="#mc99a1e5702" y="273.257724"/>
     <use style="fill:#ff0000;stroke:#ff0000;" x="392.59713" xlink:href="#mc99a1e5702" y="291.238067"/>
     <use style="fill:#ff0000;stroke:#ff0000;" x="407.673416" xlink:href="#mc99a1e5702" y="316.251728"/>
     <use style="fill:#ff0000;stroke:#ff0000;" x="430.28863" xlink:href="#mc99a1e5702" y="342.317276"/>
     <use style="fill:#ff0000;stroke:#ff0000;" x="408.990466" xlink:href="#mc99a1e5702" y="361.099445"/>
     <use style="fill:#ff0000;stroke:#ff0000;" x="454.764878" xlink:href="#mc99a1e5702" y="394.293868"/>
     <use style="fill:#ff0000;stroke:#ff0000;" x="458.439494" xlink:href="#mc99a1e5702" y="412.996039"/>
     <use style="fill:#ff0000;stroke:#ff0000;" x="435.079356" xlink:href="#mc99a1e5702" y="414.966983"/>
     <use style="fill:#ff0000;stroke:#ff0000;" x="420.270775" xlink:href="#mc99a1e5702" y="439.708879"/>
     <use style="fill:#ff0000;stroke:#ff0000;" x="396.15422" xlink:href="#mc99a1e5702" y="447.513068"/>
     <use style="fill:#ff0000;stroke:#ff0000;" x="457.16271" xlink:href="#mc99a1e5702" y="514.150541"/>
     <use style="fill:#ff0000;stroke:#ff0000;" x="472.943248" xlink:href="#mc99a1e5702" y="541.265044"/>
     <use style="fill:#ff0000;stroke:#ff0000;" x="534.341262" xlink:href="#mc99a1e5702" y="500.491116"/>
     <use style="fill:#ff0000;stroke:#ff0000;" x="545.137977" xlink:href="#mc99a1e5702" y="495.107414"/>
     <use style="fill:#ff0000;stroke:#ff0000;" x="569.882632" xlink:href="#mc99a1e5702" y="495.370767"/>
     <use style="fill:#ff0000;stroke:#ff0000;" x="563.149853" xlink:href="#mc99a1e5702" y="610.734295"/>
     <use style="fill:#ff0000;stroke:#ff0000;" x="574.289422" xlink:href="#mc99a1e5702" y="624.190279"/>
     <use style="fill:#ff0000;stroke:#ff0000;" x="587.410018" xlink:href="#mc99a1e5702" y="635.579694"/>
     <use style="fill:#ff0000;stroke:#ff0000;" x="616.265164" xlink:href="#mc99a1e5702" y="634.783204"/>
     <use style="fill:#ff0000;stroke:#ff0000;" x="627.933749" xlink:href="#mc99a1e5702" y="621.390927"/>
     <use style="fill:#ff0000;stroke:#ff0000;" x="656.769495" xlink:href="#mc99a1e5702" y="625.212691"/>
     <use style="fill:#ff0000;stroke:#ff0000;" x="670.422454" xlink:href="#mc99a1e5702" y="592.807423"/>
     <use style="fill:#ff0000;stroke:#ff0000;" x="700.937499" xlink:href="#mc99a1e5702" y="598.632836"/>
     <use style="fill:#ff0000;stroke:#ff0000;" x="759.093878" xlink:href="#mc99a1e5702" y="591.985211"/>
     <use style="fill:#ff0000;stroke:#ff0000;" x="807.72221" xlink:href="#mc99a1e5702" y="582.051573"/>
     <use style="fill:#ff0000;stroke:#ff0000;" x="831.647965" xlink:href="#mc99a1e5702" y="581.812624"/>
     <use style="fill:#ff0000;stroke:#ff0000;" x="837.873557" xlink:href="#mc99a1e5702" y="569.380207"/>
     <use style="fill:#ff0000;stroke:#ff0000;" x="874.871006" xlink:href="#mc99a1e5702" y="573.158913"/>
     <use style="fill:#ff0000;stroke:#ff0000;" x="877.927618" xlink:href="#mc99a1e5702" y="558.854035"/>
     <use style="fill:#ff0000;stroke:#ff0000;" x="900.78716" xlink:href="#mc99a1e5702" y="552.978109"/>
     <use style="fill:#ff0000;stroke:#ff0000;" x="942.975198" xlink:href="#mc99a1e5702" y="552.007467"/>
     <use style="fill:#ff0000;stroke:#ff0000;" x="1069.2069" xlink:href="#mc99a1e5702" y="529.734508"/>
     <use style="fill:#ff0000;stroke:#ff0000;" x="1082.24295" xlink:href="#mc99a1e5702" y="512.03138"/>
    </g>
   </g>
   <g id="line2d_35">
    <defs>
     <path d="M -0.5 0.5 
L 0.5 0.5 
L 0.5 -0.5 
L -0.5 -0.5 
z
" id="mcf9bae8116" style="stroke:#1f77b4;stroke-linejoin:miter;"/>
    </defs>
    <g clip-path="url(#pf0afae8eb4)">
     <use style="fill:#1f77b4;stroke:#1f77b4;stroke-linejoin:miter;" x="1158.381975" xlink:href="#mcf9bae8116" y="496.861915"/>
     <use style="fill:#1f77b4;stroke:#1f77b4;stroke-linejoin:miter;" x="1415.66384" xlink:href="#mcf9bae8116" y="492.149988"/>
     <use style="fill:#1f77b4;stroke:#1f77b4;stroke-linejoin:miter;" x="1290.515267" xlink:href="#mcf9bae8116" y="343.596776"/>
     <use style="fill:#1f77b4;stroke:#1f77b4;stroke-linejoin:miter;" x="1408.929099" xlink:href="#mcf9bae8116" y="294.278191"/>
     <use style="fill:#1f77b4;stroke:#1f77b4;stroke-linejoin:miter;" x="1323.677221" xlink:href="#mcf9bae8116" y="278.025623"/>
     <use style="fill:#1f77b4;stroke:#1f77b4;stroke-linejoin:miter;" x="650.660776" xlink:href="#mcf9bae8116" y="399.570594"/>
     <use style="fill:#1f77b4;stroke:#1f77b4;stroke-linejoin:miter;" x="647.516692" xlink:href="#mcf9bae8116" y="397.341241"/>
     <use style="fill:#1f77b4;stroke:#1f77b4;stroke-linejoin:miter;" x="645.620123" xlink:href="#mcf9bae8116" y="394.47043"/>
     <use style="fill:#1f77b4;stroke:#1f77b4;stroke-linejoin:miter;" x="642.425142" xlink:href="#mcf9bae8116" y="392.477654"/>
     <use style="fill:#1f77b4;stroke:#1f77b4;stroke-linejoin:miter;" x="642.262113" xlink:href="#mcf9bae8116" y="387.790127"/>
     <use style="fill:#1f77b4;stroke:#1f77b4;stroke-linejoin:miter;" x="787.789987" xlink:href="#mcf9bae8116" y="191.978523"/>
     <use style="fill:#1f77b4;stroke:#1f77b4;stroke-linejoin:miter;" x="762.213347" xlink:href="#mcf9bae8116" y="195.374627"/>
     <use style="fill:#1f77b4;stroke:#1f77b4;stroke-linejoin:miter;" x="738.457461" xlink:href="#mcf9bae8116" y="198.709368"/>
     <use style="fill:#1f77b4;stroke:#1f77b4;stroke-linejoin:miter;" x="716.377768" xlink:href="#mcf9bae8116" y="202.506953"/>
     <use style="fill:#1f77b4;stroke:#1f77b4;stroke-linejoin:miter;" x="695.580337" xlink:href="#mcf9bae8116" y="206.049919"/>
     <use style="fill:#1f77b4;stroke:#1f77b4;stroke-linejoin:miter;" x="676.151518" xlink:href="#mcf9bae8116" y="209.515523"/>
     <use style="fill:#1f77b4;stroke:#1f77b4;stroke-linejoin:miter;" x="658.377945" xlink:href="#mcf9bae8116" y="211.605259"/>
     <use style="fill:#1f77b4;stroke:#1f77b4;stroke-linejoin:miter;" x="641.087488" xlink:href="#mcf9bae8116" y="214.333847"/>
     <use style="fill:#1f77b4;stroke:#1f77b4;stroke-linejoin:miter;" x="623.877355" xlink:href="#mcf9bae8116" y="216.839376"/>
     <use style="fill:#1f77b4;stroke:#1f77b4;stroke-linejoin:miter;" x="607.89159" xlink:href="#mcf9bae8116" y="219.330871"/>
     <use style="fill:#1f77b4;stroke:#1f77b4;stroke-linejoin:miter;" x="592.187578" xlink:href="#mcf9bae8116" y="223.954327"/>
     <use style="fill:#1f77b4;stroke:#1f77b4;stroke-linejoin:miter;" x="577.189911" xlink:href="#mcf9bae8116" y="225.385531"/>
     <use style="fill:#1f77b4;stroke:#1f77b4;stroke-linejoin:miter;" x="561.987843" xlink:href="#mcf9bae8116" y="226.637912"/>
     <use style="fill:#1f77b4;stroke:#1f77b4;stroke-linejoin:miter;" x="547.780756" xlink:href="#mcf9bae8116" y="231.470056"/>
     <use style="fill:#1f77b4;stroke:#1f77b4;stroke-linejoin:miter;" x="533.740253" xlink:href="#mcf9bae8116" y="235.5345"/>
     <use style="fill:#1f77b4;stroke:#1f77b4;stroke-linejoin:miter;" x="571.403204" xlink:href="#mcf9bae8116" y="398.553144"/>
     <use style="fill:#1f77b4;stroke:#1f77b4;stroke-linejoin:miter;" x="569.237923" xlink:href="#mcf9bae8116" y="400.080443"/>
     <use style="fill:#1f77b4;stroke:#1f77b4;stroke-linejoin:miter;" x="445.26406" xlink:href="#mcf9bae8116" y="250.056516"/>
     <use style="fill:#1f77b4;stroke:#1f77b4;stroke-linejoin:miter;" x="429.113249" xlink:href="#mcf9bae8116" y="252.571133"/>
     <use style="fill:#1f77b4;stroke:#1f77b4;stroke-linejoin:miter;" x="420.016065" xlink:href="#mcf9bae8116" y="263.262606"/>
     <use style="fill:#1f77b4;stroke:#1f77b4;stroke-linejoin:miter;" x="400.329583" xlink:href="#mcf9bae8116" y="263.355148"/>
     <use style="fill:#1f77b4;stroke:#1f77b4;stroke-linejoin:miter;" x="390.757453" xlink:href="#mcf9bae8116" y="273.257724"/>
     <use style="fill:#1f77b4;stroke:#1f77b4;stroke-linejoin:miter;" x="392.59713" xlink:href="#mcf9bae8116" y="291.238067"/>
     <use style="fill:#1f77b4;stroke:#1f77b4;stroke-linejoin:miter;" x="407.673416" xlink:href="#mcf9bae8116" y="316.251728"/>
     <use style="fill:#1f77b4;stroke:#1f77b4;stroke-linejoin:miter;" x="430.28863" xlink:href="#mcf9bae8116" y="342.317276"/>
     <use style="fill:#1f77b4;stroke:#1f77b4;stroke-linejoin:miter;" x="422.259152" xlink:href="#mcf9bae8116" y="347.977111"/>
     <use style="fill:#1f77b4;stroke:#1f77b4;stroke-linejoin:miter;" x="419.627597" xlink:href="#mcf9bae8116" y="356.513696"/>
     <use style="fill:#1f77b4;stroke:#1f77b4;stroke-linejoin:miter;" x="408.990466" xlink:href="#mcf9bae8116" y="361.099445"/>
     <use style="fill:#1f77b4;stroke:#1f77b4;stroke-linejoin:miter;" x="454.764878" xlink:href="#mcf9bae8116" y="394.293868"/>
     <use style="fill:#1f77b4;stroke:#1f77b4;stroke-linejoin:miter;" x="456.166343" xlink:href="#mcf9bae8116" y="400.899033"/>
     <use style="fill:#1f77b4;stroke:#1f77b4;stroke-linejoin:miter;" x="458.068162" xlink:href="#mcf9bae8116" y="407.315453"/>
     <use style="fill:#1f77b4;stroke:#1f77b4;stroke-linejoin:miter;" x="458.439494" xlink:href="#mcf9bae8116" y="412.996039"/>
     <use style="fill:#1f77b4;stroke:#1f77b4;stroke-linejoin:miter;" x="435.079356" xlink:href="#mcf9bae8116" y="414.966983"/>
     <use style="fill:#1f77b4;stroke:#1f77b4;stroke-linejoin:miter;" x="426.25189" xlink:href="#mcf9bae8116" y="420.250619"/>
     <use style="fill:#1f77b4;stroke:#1f77b4;stroke-linejoin:miter;" x="419.134641" xlink:href="#mcf9bae8116" y="426.416126"/>
     <use style="fill:#1f77b4;stroke:#1f77b4;stroke-linejoin:miter;" x="420.173126" xlink:href="#mcf9bae8116" y="433.344542"/>
     <use style="fill:#1f77b4;stroke:#1f77b4;stroke-linejoin:miter;" x="420.270775" xlink:href="#mcf9bae8116" y="439.708879"/>
     <use style="fill:#1f77b4;stroke:#1f77b4;stroke-linejoin:miter;" x="396.15422" xlink:href="#mcf9bae8116" y="447.513068"/>
     <use style="fill:#1f77b4;stroke:#1f77b4;stroke-linejoin:miter;" x="397.344782" xlink:href="#mcf9bae8116" y="455.21926"/>
     <use style="fill:#1f77b4;stroke:#1f77b4;stroke-linejoin:miter;" x="399.248167" xlink:href="#mcf9bae8116" y="462.719498"/>
     <use style="fill:#1f77b4;stroke:#1f77b4;stroke-linejoin:miter;" x="403.667615" xlink:href="#mcf9bae8116" y="469.806215"/>
     <use style="fill:#1f77b4;stroke:#1f77b4;stroke-linejoin:miter;" x="404.792623" xlink:href="#mcf9bae8116" y="477.411639"/>
     <use style="fill:#1f77b4;stroke:#1f77b4;stroke-linejoin:miter;" x="405.453207" xlink:href="#mcf9bae8116" y="485.292169"/>
     <use style="fill:#1f77b4;stroke:#1f77b4;stroke-linejoin:miter;" x="407.24056" xlink:href="#mcf9bae8116" y="493.246098"/>
     <use style="fill:#1f77b4;stroke:#1f77b4;stroke-linejoin:miter;" x="412.477399" xlink:href="#mcf9bae8116" y="509.150551"/>
     <use style="fill:#1f77b4;stroke:#1f77b4;stroke-linejoin:miter;" x="431.736183" xlink:href="#mcf9bae8116" y="509.929672"/>
     <use style="fill:#1f77b4;stroke:#1f77b4;stroke-linejoin:miter;" x="435.541787" xlink:href="#mcf9bae8116" y="516.979378"/>
     <use style="fill:#1f77b4;stroke:#1f77b4;stroke-linejoin:miter;" x="457.16271" xlink:href="#mcf9bae8116" y="514.150541"/>
     <use style="fill:#1f77b4;stroke:#1f77b4;stroke-linejoin:miter;" x="457.407899" xlink:href="#mcf9bae8116" y="522.751899"/>
     <use style="fill:#1f77b4;stroke:#1f77b4;stroke-linejoin:miter;" x="457.323529" xlink:href="#mcf9bae8116" y="532.237924"/>
     <use style="fill:#1f77b4;stroke:#1f77b4;stroke-linejoin:miter;" x="466.515684" xlink:href="#mcf9bae8116" y="535.748442"/>
     <use style="fill:#1f77b4;stroke:#1f77b4;stroke-linejoin:miter;" x="472.943248" xlink:href="#mcf9bae8116" y="541.265044"/>
     <use style="fill:#1f77b4;stroke:#1f77b4;stroke-linejoin:miter;" x="534.341262" xlink:href="#mcf9bae8116" y="500.491116"/>
     <use style="fill:#1f77b4;stroke:#1f77b4;stroke-linejoin:miter;" x="545.137977" xlink:href="#mcf9bae8116" y="495.107414"/>
     <use style="fill:#1f77b4;stroke:#1f77b4;stroke-linejoin:miter;" x="550.338672" xlink:href="#mcf9bae8116" y="495.425225"/>
     <use style="fill:#1f77b4;stroke:#1f77b4;stroke-linejoin:miter;" x="554.903019" xlink:href="#mcf9bae8116" y="496.478914"/>
     <use style="fill:#1f77b4;stroke:#1f77b4;stroke-linejoin:miter;" x="562.24483" xlink:href="#mcf9bae8116" y="492.621088"/>
     <use style="fill:#1f77b4;stroke:#1f77b4;stroke-linejoin:miter;" x="566.898181" xlink:href="#mcf9bae8116" y="492.075013"/>
     <use style="fill:#1f77b4;stroke:#1f77b4;stroke-linejoin:miter;" x="569.882632" xlink:href="#mcf9bae8116" y="495.370767"/>
     <use style="fill:#1f77b4;stroke:#1f77b4;stroke-linejoin:miter;" x="563.149853" xlink:href="#mcf9bae8116" y="610.734295"/>
     <use style="fill:#1f77b4;stroke:#1f77b4;stroke-linejoin:miter;" x="574.289422" xlink:href="#mcf9bae8116" y="624.190279"/>
     <use style="fill:#1f77b4;stroke:#1f77b4;stroke-linejoin:miter;" x="587.410018" xlink:href="#mcf9bae8116" y="635.579694"/>
     <use style="fill:#1f77b4;stroke:#1f77b4;stroke-linejoin:miter;" x="601.677965" xlink:href="#mcf9bae8116" y="636.309625"/>
     <use style="fill:#1f77b4;stroke:#1f77b4;stroke-linejoin:miter;" x="616.265164" xlink:href="#mcf9bae8116" y="634.783204"/>
     <use style="fill:#1f77b4;stroke:#1f77b4;stroke-linejoin:miter;" x="627.933749" xlink:href="#mcf9bae8116" y="621.390927"/>
     <use style="fill:#1f77b4;stroke:#1f77b4;stroke-linejoin:miter;" x="656.769495" xlink:href="#mcf9bae8116" y="625.212691"/>
     <use style="fill:#1f77b4;stroke:#1f77b4;stroke-linejoin:miter;" x="670.422454" xlink:href="#mcf9bae8116" y="592.807423"/>
     <use style="fill:#1f77b4;stroke:#1f77b4;stroke-linejoin:miter;" x="687.096131" xlink:href="#mcf9bae8116" y="599.111305"/>
     <use style="fill:#1f77b4;stroke:#1f77b4;stroke-linejoin:miter;" x="700.937499" xlink:href="#mcf9bae8116" y="598.632836"/>
     <use style="fill:#1f77b4;stroke:#1f77b4;stroke-linejoin:miter;" x="759.093878" xlink:href="#mcf9bae8116" y="591.985211"/>
     <use style="fill:#1f77b4;stroke:#1f77b4;stroke-linejoin:miter;" x="772.421913" xlink:href="#mcf9bae8116" y="587.124014"/>
     <use style="fill:#1f77b4;stroke:#1f77b4;stroke-linejoin:miter;" x="787.386868" xlink:href="#mcf9bae8116" y="583.106989"/>
     <use style="fill:#1f77b4;stroke:#1f77b4;stroke-linejoin:miter;" x="807.72221" xlink:href="#mcf9bae8116" y="582.051573"/>
     <use style="fill:#1f77b4;stroke:#1f77b4;stroke-linejoin:miter;" x="831.647965" xlink:href="#mcf9bae8116" y="581.812624"/>
     <use style="fill:#1f77b4;stroke:#1f77b4;stroke-linejoin:miter;" x="837.873557" xlink:href="#mcf9bae8116" y="569.380207"/>
     <use style="fill:#1f77b4;stroke:#1f77b4;stroke-linejoin:miter;" x="874.871006" xlink:href="#mcf9bae8116" y="573.158913"/>
     <use style="fill:#1f77b4;stroke:#1f77b4;stroke-linejoin:miter;" x="877.927618" xlink:href="#mcf9bae8116" y="558.854035"/>
     <use style="fill:#1f77b4;stroke:#1f77b4;stroke-linejoin:miter;" x="900.78716" xlink:href="#mcf9bae8116" y="552.978109"/>
     <use style="fill:#1f77b4;stroke:#1f77b4;stroke-linejoin:miter;" x="942.975198" xlink:href="#mcf9bae8116" y="552.007467"/>
     <use style="fill:#1f77b4;stroke:#1f77b4;stroke-linejoin:miter;" x="1069.2069" xlink:href="#mcf9bae8116" y="529.734508"/>
     <use style="fill:#1f77b4;stroke:#1f77b4;stroke-linejoin:miter;" x="1082.24295" xlink:href="#mcf9bae8116" y="512.03138"/>
    </g>
   </g>
   <g id="patch_3">
    <path d="M 144 768.96 
L 144 103.68 
" style="fill:none;stroke:#000000;stroke-linecap:square;stroke-linejoin:miter;stroke-width:0.8;"/>
   </g>
   <g id="patch_4">
    <path d="M 1036.8 768.96 
L 1036.8 103.68 
" style="fill:none;stroke:#000000;stroke-linecap:square;stroke-linejoin:miter;stroke-width:0.8;"/>
   </g>
   <g id="patch_5">
    <path d="M 144 768.96 
L 1036.8 768.96 
" style="fill:none;stroke:#000000;stroke-linecap:square;stroke-linejoin:miter;stroke-width:0.8;"/>
   </g>
   <g id="patch_6">
    <path d="M 144 103.68 
L 1036.8 103.68 
" style="fill:none;stroke:#000000;stroke-linecap:square;stroke-linejoin:miter;stroke-width:0.8;"/>
   </g>
  </g>
 </g>
 <defs>
  <clipPath id="pf0afae8eb4">
   <rect height="665.28" width="892.8" x="144" y="103.68"/>
  </clipPath>
 </defs>
</svg>
