<?xml version="1.0" encoding="utf-8" standalone="no"?>
<!DOCTYPE svg PUBLIC "-//W3C//DTD SVG 1.1//EN"
  "http://www.w3.org/Graphics/SVG/1.1/DTD/svg11.dtd">
<!-- Created with matplotlib (http://matplotlib.org/) -->
<svg height="864pt" version="1.1" viewBox="0 0 1152 864" width="1152pt" xmlns="http://www.w3.org/2000/svg" xmlns:xlink="http://www.w3.org/1999/xlink">
 <defs>
  <style type="text/css">
*{stroke-linecap:butt;stroke-linejoin:round;}
  </style>
 </defs>
 <g id="figure_1">
  <g id="patch_1">
   <path d="M 0 864 
L 1152 864 
L 1152 0 
L 0 0 
z
" style="fill:#ffffff;"/>
  </g>
  <g id="axes_1">
   <g id="patch_2">
    <path d="M 144 768.96 
L 1036.8 768.96 
L 1036.8 103.68 
L 144 103.68 
z
" style="fill:#ffffff;"/>
   </g>
   <g id="matplotlib.axis_1">
    <g id="xtick_1">
     <g id="line2d_1">
      <defs>
       <path d="M 0 0 
L 0 3.5 
" id="mbd3b26ecf8" style="stroke:#000000;stroke-width:0.8;"/>
      </defs>
      <g>
       <use style="stroke:#000000;stroke-width:0.8;" x="144" xlink:href="#mbd3b26ecf8" y="768.96"/>
      </g>
     </g>
     <g id="text_1">
      <!-- −4000 -->
      <defs>
       <path d="M 10.59375 35.5 
L 73.1875 35.5 
L 73.1875 27.203125 
L 10.59375 27.203125 
z
" id="DejaVuSans-2212"/>
       <path d="M 37.796875 64.3125 
L 12.890625 25.390625 
L 37.796875 25.390625 
z
M 35.203125 72.90625 
L 47.609375 72.90625 
L 47.609375 25.390625 
L 58.015625 25.390625 
L 58.015625 17.1875 
L 47.609375 17.1875 
L 47.609375 0 
L 37.796875 0 
L 37.796875 17.1875 
L 4.890625 17.1875 
L 4.890625 26.703125 
z
" id="DejaVuSans-34"/>
       <path d="M 31.78125 66.40625 
Q 24.171875 66.40625 20.328125 58.90625 
Q 16.5 51.421875 16.5 36.375 
Q 16.5 21.390625 20.328125 13.890625 
Q 24.171875 6.390625 31.78125 6.390625 
Q 39.453125 6.390625 43.28125 13.890625 
Q 47.125 21.390625 47.125 36.375 
Q 47.125 51.421875 43.28125 58.90625 
Q 39.453125 66.40625 31.78125 66.40625 
z
M 31.78125 74.21875 
Q 44.046875 74.21875 50.515625 64.515625 
Q 56.984375 54.828125 56.984375 36.375 
Q 56.984375 17.96875 50.515625 8.265625 
Q 44.046875 -1.421875 31.78125 -1.421875 
Q 19.53125 -1.421875 13.0625 8.265625 
Q 6.59375 17.96875 6.59375 36.375 
Q 6.59375 54.828125 13.0625 64.515625 
Q 19.53125 74.21875 31.78125 74.21875 
z
" id="DejaVuSans-30"/>
      </defs>
      <g transform="translate(127.085156 783.558437)scale(0.1 -0.1)">
       <use xlink:href="#DejaVuSans-2212"/>
       <use x="83.789062" xlink:href="#DejaVuSans-34"/>
       <use x="147.412109" xlink:href="#DejaVuSans-30"/>
       <use x="211.035156" xlink:href="#DejaVuSans-30"/>
       <use x="274.658203" xlink:href="#DejaVuSans-30"/>
      </g>
     </g>
    </g>
    <g id="xtick_2">
     <g id="line2d_2">
      <g>
       <use style="stroke:#000000;stroke-width:0.8;" x="255.6" xlink:href="#mbd3b26ecf8" y="768.96"/>
      </g>
     </g>
     <g id="text_2">
      <!-- −3000 -->
      <defs>
       <path d="M 40.578125 39.3125 
Q 47.65625 37.796875 51.625 33 
Q 55.609375 28.21875 55.609375 21.1875 
Q 55.609375 10.40625 48.1875 4.484375 
Q 40.765625 -1.421875 27.09375 -1.421875 
Q 22.515625 -1.421875 17.65625 -0.515625 
Q 12.796875 0.390625 7.625 2.203125 
L 7.625 11.71875 
Q 11.71875 9.328125 16.59375 8.109375 
Q 21.484375 6.890625 26.8125 6.890625 
Q 36.078125 6.890625 40.9375 10.546875 
Q 45.796875 14.203125 45.796875 21.1875 
Q 45.796875 27.640625 41.28125 31.265625 
Q 36.765625 34.90625 28.71875 34.90625 
L 20.21875 34.90625 
L 20.21875 43.015625 
L 29.109375 43.015625 
Q 36.375 43.015625 40.234375 45.921875 
Q 44.09375 48.828125 44.09375 54.296875 
Q 44.09375 59.90625 40.109375 62.90625 
Q 36.140625 65.921875 28.71875 65.921875 
Q 24.65625 65.921875 20.015625 65.03125 
Q 15.375 64.15625 9.8125 62.3125 
L 9.8125 71.09375 
Q 15.4375 72.65625 20.34375 73.4375 
Q 25.25 74.21875 29.59375 74.21875 
Q 40.828125 74.21875 47.359375 69.109375 
Q 53.90625 64.015625 53.90625 55.328125 
Q 53.90625 49.265625 50.4375 45.09375 
Q 46.96875 40.921875 40.578125 39.3125 
z
" id="DejaVuSans-33"/>
      </defs>
      <g transform="translate(238.685156 783.558437)scale(0.1 -0.1)">
       <use xlink:href="#DejaVuSans-2212"/>
       <use x="83.789062" xlink:href="#DejaVuSans-33"/>
       <use x="147.412109" xlink:href="#DejaVuSans-30"/>
       <use x="211.035156" xlink:href="#DejaVuSans-30"/>
       <use x="274.658203" xlink:href="#DejaVuSans-30"/>
      </g>
     </g>
    </g>
    <g id="xtick_3">
     <g id="line2d_3">
      <g>
       <use style="stroke:#000000;stroke-width:0.8;" x="367.2" xlink:href="#mbd3b26ecf8" y="768.96"/>
      </g>
     </g>
     <g id="text_3">
      <!-- −2000 -->
      <defs>
       <path d="M 19.1875 8.296875 
L 53.609375 8.296875 
L 53.609375 0 
L 7.328125 0 
L 7.328125 8.296875 
Q 12.9375 14.109375 22.625 23.890625 
Q 32.328125 33.6875 34.8125 36.53125 
Q 39.546875 41.84375 41.421875 45.53125 
Q 43.3125 49.21875 43.3125 52.78125 
Q 43.3125 58.59375 39.234375 62.25 
Q 35.15625 65.921875 28.609375 65.921875 
Q 23.96875 65.921875 18.8125 64.3125 
Q 13.671875 62.703125 7.8125 59.421875 
L 7.8125 69.390625 
Q 13.765625 71.78125 18.9375 73 
Q 24.125 74.21875 28.421875 74.21875 
Q 39.75 74.21875 46.484375 68.546875 
Q 53.21875 62.890625 53.21875 53.421875 
Q 53.21875 48.921875 51.53125 44.890625 
Q 49.859375 40.875 45.40625 35.40625 
Q 44.1875 33.984375 37.640625 27.21875 
Q 31.109375 20.453125 19.1875 8.296875 
z
" id="DejaVuSans-32"/>
      </defs>
      <g transform="translate(350.285156 783.558437)scale(0.1 -0.1)">
       <use xlink:href="#DejaVuSans-2212"/>
       <use x="83.789062" xlink:href="#DejaVuSans-32"/>
       <use x="147.412109" xlink:href="#DejaVuSans-30"/>
       <use x="211.035156" xlink:href="#DejaVuSans-30"/>
       <use x="274.658203" xlink:href="#DejaVuSans-30"/>
      </g>
     </g>
    </g>
    <g id="xtick_4">
     <g id="line2d_4">
      <g>
       <use style="stroke:#000000;stroke-width:0.8;" x="478.8" xlink:href="#mbd3b26ecf8" y="768.96"/>
      </g>
     </g>
     <g id="text_4">
      <!-- −1000 -->
      <defs>
       <path d="M 12.40625 8.296875 
L 28.515625 8.296875 
L 28.515625 63.921875 
L 10.984375 60.40625 
L 10.984375 69.390625 
L 28.421875 72.90625 
L 38.28125 72.90625 
L 38.28125 8.296875 
L 54.390625 8.296875 
L 54.390625 0 
L 12.40625 0 
z
" id="DejaVuSans-31"/>
      </defs>
      <g transform="translate(461.885156 783.558437)scale(0.1 -0.1)">
       <use xlink:href="#DejaVuSans-2212"/>
       <use x="83.789062" xlink:href="#DejaVuSans-31"/>
       <use x="147.412109" xlink:href="#DejaVuSans-30"/>
       <use x="211.035156" xlink:href="#DejaVuSans-30"/>
       <use x="274.658203" xlink:href="#DejaVuSans-30"/>
      </g>
     </g>
    </g>
    <g id="xtick_5">
     <g id="line2d_5">
      <g>
       <use style="stroke:#000000;stroke-width:0.8;" x="590.4" xlink:href="#mbd3b26ecf8" y="768.96"/>
      </g>
     </g>
     <g id="text_5">
      <!-- 0 -->
      <g transform="translate(587.21875 783.558437)scale(0.1 -0.1)">
       <use xlink:href="#DejaVuSans-30"/>
      </g>
     </g>
    </g>
    <g id="xtick_6">
     <g id="line2d_6">
      <g>
       <use style="stroke:#000000;stroke-width:0.8;" x="702" xlink:href="#mbd3b26ecf8" y="768.96"/>
      </g>
     </g>
     <g id="text_6">
      <!-- 1000 -->
      <g transform="translate(689.275 783.558437)scale(0.1 -0.1)">
       <use xlink:href="#DejaVuSans-31"/>
       <use x="63.623047" xlink:href="#DejaVuSans-30"/>
       <use x="127.246094" xlink:href="#DejaVuSans-30"/>
       <use x="190.869141" xlink:href="#DejaVuSans-30"/>
      </g>
     </g>
    </g>
    <g id="xtick_7">
     <g id="line2d_7">
      <g>
       <use style="stroke:#000000;stroke-width:0.8;" x="813.6" xlink:href="#mbd3b26ecf8" y="768.96"/>
      </g>
     </g>
     <g id="text_7">
      <!-- 2000 -->
      <g transform="translate(800.875 783.558437)scale(0.1 -0.1)">
       <use xlink:href="#DejaVuSans-32"/>
       <use x="63.623047" xlink:href="#DejaVuSans-30"/>
       <use x="127.246094" xlink:href="#DejaVuSans-30"/>
       <use x="190.869141" xlink:href="#DejaVuSans-30"/>
      </g>
     </g>
    </g>
    <g id="xtick_8">
     <g id="line2d_8">
      <g>
       <use style="stroke:#000000;stroke-width:0.8;" x="925.2" xlink:href="#mbd3b26ecf8" y="768.96"/>
      </g>
     </g>
     <g id="text_8">
      <!-- 3000 -->
      <g transform="translate(912.475 783.558437)scale(0.1 -0.1)">
       <use xlink:href="#DejaVuSans-33"/>
       <use x="63.623047" xlink:href="#DejaVuSans-30"/>
       <use x="127.246094" xlink:href="#DejaVuSans-30"/>
       <use x="190.869141" xlink:href="#DejaVuSans-30"/>
      </g>
     </g>
    </g>
    <g id="xtick_9">
     <g id="line2d_9">
      <g>
       <use style="stroke:#000000;stroke-width:0.8;" x="1036.8" xlink:href="#mbd3b26ecf8" y="768.96"/>
      </g>
     </g>
     <g id="text_9">
      <!-- 4000 -->
      <g transform="translate(1024.075 783.558437)scale(0.1 -0.1)">
       <use xlink:href="#DejaVuSans-34"/>
       <use x="63.623047" xlink:href="#DejaVuSans-30"/>
       <use x="127.246094" xlink:href="#DejaVuSans-30"/>
       <use x="190.869141" xlink:href="#DejaVuSans-30"/>
      </g>
     </g>
    </g>
   </g>
   <g id="matplotlib.axis_2">
    <g id="ytick_1">
     <g id="line2d_10">
      <defs>
       <path d="M 0 0 
L -3.5 0 
" id="mbfc506f8f3" style="stroke:#000000;stroke-width:0.8;"/>
      </defs>
      <g>
       <use style="stroke:#000000;stroke-width:0.8;" x="144" xlink:href="#mbfc506f8f3" y="768.96"/>
      </g>
     </g>
     <g id="text_10">
      <!-- −4000 -->
      <g transform="translate(103.170312 772.759219)scale(0.1 -0.1)">
       <use xlink:href="#DejaVuSans-2212"/>
       <use x="83.789062" xlink:href="#DejaVuSans-34"/>
       <use x="147.412109" xlink:href="#DejaVuSans-30"/>
       <use x="211.035156" xlink:href="#DejaVuSans-30"/>
       <use x="274.658203" xlink:href="#DejaVuSans-30"/>
      </g>
     </g>
    </g>
    <g id="ytick_2">
     <g id="line2d_11">
      <g>
       <use style="stroke:#000000;stroke-width:0.8;" x="144" xlink:href="#mbfc506f8f3" y="685.8"/>
      </g>
     </g>
     <g id="text_11">
      <!-- −3000 -->
      <g transform="translate(103.170312 689.599219)scale(0.1 -0.1)">
       <use xlink:href="#DejaVuSans-2212"/>
       <use x="83.789062" xlink:href="#DejaVuSans-33"/>
       <use x="147.412109" xlink:href="#DejaVuSans-30"/>
       <use x="211.035156" xlink:href="#DejaVuSans-30"/>
       <use x="274.658203" xlink:href="#DejaVuSans-30"/>
      </g>
     </g>
    </g>
    <g id="ytick_3">
     <g id="line2d_12">
      <g>
       <use style="stroke:#000000;stroke-width:0.8;" x="144" xlink:href="#mbfc506f8f3" y="602.64"/>
      </g>
     </g>
     <g id="text_12">
      <!-- −2000 -->
      <g transform="translate(103.170312 606.439219)scale(0.1 -0.1)">
       <use xlink:href="#DejaVuSans-2212"/>
       <use x="83.789062" xlink:href="#DejaVuSans-32"/>
       <use x="147.412109" xlink:href="#DejaVuSans-30"/>
       <use x="211.035156" xlink:href="#DejaVuSans-30"/>
       <use x="274.658203" xlink:href="#DejaVuSans-30"/>
      </g>
     </g>
    </g>
    <g id="ytick_4">
     <g id="line2d_13">
      <g>
       <use style="stroke:#000000;stroke-width:0.8;" x="144" xlink:href="#mbfc506f8f3" y="519.48"/>
      </g>
     </g>
     <g id="text_13">
      <!-- −1000 -->
      <g transform="translate(103.170312 523.279219)scale(0.1 -0.1)">
       <use xlink:href="#DejaVuSans-2212"/>
       <use x="83.789062" xlink:href="#DejaVuSans-31"/>
       <use x="147.412109" xlink:href="#DejaVuSans-30"/>
       <use x="211.035156" xlink:href="#DejaVuSans-30"/>
       <use x="274.658203" xlink:href="#DejaVuSans-30"/>
      </g>
     </g>
    </g>
    <g id="ytick_5">
     <g id="line2d_14">
      <g>
       <use style="stroke:#000000;stroke-width:0.8;" x="144" xlink:href="#mbfc506f8f3" y="436.32"/>
      </g>
     </g>
     <g id="text_14">
      <!-- 0 -->
      <g transform="translate(130.6375 440.119219)scale(0.1 -0.1)">
       <use xlink:href="#DejaVuSans-30"/>
      </g>
     </g>
    </g>
    <g id="ytick_6">
     <g id="line2d_15">
      <g>
       <use style="stroke:#000000;stroke-width:0.8;" x="144" xlink:href="#mbfc506f8f3" y="353.16"/>
      </g>
     </g>
     <g id="text_15">
      <!-- 1000 -->
      <g transform="translate(111.55 356.959219)scale(0.1 -0.1)">
       <use xlink:href="#DejaVuSans-31"/>
       <use x="63.623047" xlink:href="#DejaVuSans-30"/>
       <use x="127.246094" xlink:href="#DejaVuSans-30"/>
       <use x="190.869141" xlink:href="#DejaVuSans-30"/>
      </g>
     </g>
    </g>
    <g id="ytick_7">
     <g id="line2d_16">
      <g>
       <use style="stroke:#000000;stroke-width:0.8;" x="144" xlink:href="#mbfc506f8f3" y="270"/>
      </g>
     </g>
     <g id="text_16">
      <!-- 2000 -->
      <g transform="translate(111.55 273.799219)scale(0.1 -0.1)">
       <use xlink:href="#DejaVuSans-32"/>
       <use x="63.623047" xlink:href="#DejaVuSans-30"/>
       <use x="127.246094" xlink:href="#DejaVuSans-30"/>
       <use x="190.869141" xlink:href="#DejaVuSans-30"/>
      </g>
     </g>
    </g>
    <g id="ytick_8">
     <g id="line2d_17">
      <g>
       <use style="stroke:#000000;stroke-width:0.8;" x="144" xlink:href="#mbfc506f8f3" y="186.84"/>
      </g>
     </g>
     <g id="text_17">
      <!-- 3000 -->
      <g transform="translate(111.55 190.639219)scale(0.1 -0.1)">
       <use xlink:href="#DejaVuSans-33"/>
       <use x="63.623047" xlink:href="#DejaVuSans-30"/>
       <use x="127.246094" xlink:href="#DejaVuSans-30"/>
       <use x="190.869141" xlink:href="#DejaVuSans-30"/>
      </g>
     </g>
    </g>
    <g id="ytick_9">
     <g id="line2d_18">
      <g>
       <use style="stroke:#000000;stroke-width:0.8;" x="144" xlink:href="#mbfc506f8f3" y="103.68"/>
      </g>
     </g>
     <g id="text_18">
      <!-- 4000 -->
      <g transform="translate(111.55 107.479219)scale(0.1 -0.1)">
       <use xlink:href="#DejaVuSans-34"/>
       <use x="63.623047" xlink:href="#DejaVuSans-30"/>
       <use x="127.246094" xlink:href="#DejaVuSans-30"/>
       <use x="190.869141" xlink:href="#DejaVuSans-30"/>
      </g>
     </g>
    </g>
   </g>
   <g id="line2d_19">
    <path clip-path="url(#p04b6419b7f)" d="M 590.4 768.96 
L 590.4 103.68 
" style="fill:none;stroke:#1f77b4;stroke-linecap:square;stroke-width:1.5;"/>
   </g>
   <g id="line2d_20">
    <path clip-path="url(#p04b6419b7f)" d="M 144 436.32 
L 1036.8 436.32 
" style="fill:none;stroke:#1f77b4;stroke-linecap:square;stroke-width:1.5;"/>
   </g>
   <g id="line2d_21">
    <defs>
     <path d="M 0 3 
C 0.795609 3 1.55874 2.683901 2.12132 2.12132 
C 2.683901 1.55874 3 0.795609 3 0 
C 3 -0.795609 2.683901 -1.55874 2.12132 -2.12132 
C 1.55874 -2.683901 0.795609 -3 0 -3 
C -0.795609 -3 -1.55874 -2.683901 -2.12132 -2.12132 
C -2.683901 -1.55874 -3 -0.795609 -3 0 
C -3 0.795609 -2.683901 1.55874 -2.12132 2.12132 
C -1.55874 2.683901 -0.795609 3 0 3 
z
" id="mb199d7df24" style="stroke:#008000;"/>
    </defs>
    <g clip-path="url(#p04b6419b7f)">
     <use style="fill:#008000;stroke:#008000;" x="1412.819788" xlink:href="#mb199d7df24" y="486.737892"/>
    </g>
   </g>
   <g id="line2d_22">
    <g clip-path="url(#p04b6419b7f)">
     <use style="fill:#008000;stroke:#008000;" x="1068.54876" xlink:href="#mb199d7df24" y="435.445512"/>
    </g>
   </g>
   <g id="line2d_23">
    <g clip-path="url(#p04b6419b7f)">
     <use style="fill:#008000;stroke:#008000;" x="1192.815175" xlink:href="#mb199d7df24" y="144.629149"/>
    </g>
   </g>
   <g id="line2d_24">
    <g clip-path="url(#p04b6419b7f)">
     <use style="fill:#008000;stroke:#008000;" x="647.517339" xlink:href="#mb199d7df24" y="391.45715"/>
    </g>
   </g>
   <g id="line2d_25">
    <g clip-path="url(#p04b6419b7f)">
     <use style="fill:#008000;stroke:#008000;" x="647.517339" xlink:href="#mb199d7df24" y="391.45715"/>
    </g>
   </g>
   <g id="line2d_26">
    <g clip-path="url(#p04b6419b7f)">
     <use style="fill:#008000;stroke:#008000;" x="765.551624" xlink:href="#mb199d7df24" y="197.494513"/>
    </g>
   </g>
   <g id="line2d_27">
    <g clip-path="url(#p04b6419b7f)">
     <use style="fill:#008000;stroke:#008000;" x="568.188128" xlink:href="#mb199d7df24" y="226.014177"/>
    </g>
   </g>
   <g id="line2d_28">
    <g clip-path="url(#p04b6419b7f)">
     <use style="fill:#008000;stroke:#008000;" x="573.738135" xlink:href="#mb199d7df24" y="393.110002"/>
    </g>
   </g>
   <g id="line2d_29">
    <g clip-path="url(#p04b6419b7f)">
     <use style="fill:#008000;stroke:#008000;" x="573.738135" xlink:href="#mb199d7df24" y="393.110002"/>
    </g>
   </g>
   <g id="line2d_30">
    <g clip-path="url(#p04b6419b7f)">
     <use style="fill:#008000;stroke:#008000;" x="455.549195" xlink:href="#mb199d7df24" y="247.954143"/>
    </g>
   </g>
   <g id="line2d_31">
    <g clip-path="url(#p04b6419b7f)">
     <use style="fill:#008000;stroke:#008000;" x="404.436188" xlink:href="#mb199d7df24" y="443.771787"/>
    </g>
   </g>
   <g id="line2d_32">
    <g clip-path="url(#p04b6419b7f)">
     <use style="fill:#008000;stroke:#008000;" x="539.591058" xlink:href="#mb199d7df24" y="499.467496"/>
    </g>
   </g>
   <g id="line2d_33">
    <g clip-path="url(#p04b6419b7f)">
     <use style="fill:#008000;stroke:#008000;" x="570.587437" xlink:href="#mb199d7df24" y="483.775009"/>
    </g>
   </g>
   <g id="line2d_34">
    <g clip-path="url(#p04b6419b7f)">
     <use style="fill:#008000;stroke:#008000;" x="578.580549" xlink:href="#mb199d7df24" y="627.853384"/>
    </g>
   </g>
   <g id="line2d_35">
    <g clip-path="url(#p04b6419b7f)">
     <use style="fill:#008000;stroke:#008000;" x="874.983747" xlink:href="#mb199d7df24" y="566.350581"/>
    </g>
   </g>
   <g id="line2d_36">
    <g clip-path="url(#p04b6419b7f)">
     <use style="fill:#008000;stroke:#008000;" x="948.437906" xlink:href="#mb199d7df24" y="551.46209"/>
    </g>
   </g>
   <g id="line2d_37">
    <g clip-path="url(#p04b6419b7f)">
     <use style="fill:#008000;stroke:#008000;" x="1055.307175" xlink:href="#mb199d7df24" y="545.653097"/>
    </g>
   </g>
   <g id="line2d_38">
    <defs>
     <path d="M 0 1.333333 
C 0.353604 1.333333 0.692773 1.192845 0.942809 0.942809 
C 1.192845 0.692773 1.333333 0.353604 1.333333 0 
C 1.333333 -0.353604 1.192845 -0.692773 0.942809 -0.942809 
C 0.692773 -1.192845 0.353604 -1.333333 0 -1.333333 
C -0.353604 -1.333333 -0.692773 -1.192845 -0.942809 -0.942809 
C -1.192845 -0.692773 -1.333333 -0.353604 -1.333333 0 
C -1.333333 0.353604 -1.192845 0.692773 -0.942809 0.942809 
C -0.692773 1.192845 -0.353604 1.333333 0 1.333333 
z
" id="m824ca2fa68" style="stroke:#ff0000;"/>
    </defs>
    <g clip-path="url(#p04b6419b7f)">
     <use style="fill:#ff0000;stroke:#ff0000;" x="1412.819788" xlink:href="#m824ca2fa68" y="486.737892"/>
     <use style="fill:#ff0000;stroke:#ff0000;" x="1068.54876" xlink:href="#m824ca2fa68" y="435.445512"/>
     <use style="fill:#ff0000;stroke:#ff0000;" x="1286.853699" xlink:href="#m824ca2fa68" y="350.056006"/>
     <use style="fill:#ff0000;stroke:#ff0000;" x="1280.123154" xlink:href="#m824ca2fa68" y="328.539568"/>
     <use style="fill:#ff0000;stroke:#ff0000;" x="1362.539402" xlink:href="#m824ca2fa68" y="291.196795"/>
     <use style="fill:#ff0000;stroke:#ff0000;" x="1318.558792" xlink:href="#m824ca2fa68" y="275.434852"/>
     <use style="fill:#ff0000;stroke:#ff0000;" x="1192.815175" xlink:href="#m824ca2fa68" y="144.629149"/>
     <use style="fill:#ff0000;stroke:#ff0000;" x="650.904689" xlink:href="#m824ca2fa68" y="399.071499"/>
     <use style="fill:#ff0000;stroke:#ff0000;" x="642.501186" xlink:href="#m824ca2fa68" y="383.942336"/>
     <use style="fill:#ff0000;stroke:#ff0000;" x="765.551624" xlink:href="#m824ca2fa68" y="197.494513"/>
     <use style="fill:#ff0000;stroke:#ff0000;" x="568.188128" xlink:href="#m824ca2fa68" y="226.014177"/>
     <use style="fill:#ff0000;stroke:#ff0000;" x="578.288545" xlink:href="#m824ca2fa68" y="391.460035"/>
     <use style="fill:#ff0000;stroke:#ff0000;" x="569.465316" xlink:href="#m824ca2fa68" y="395.009296"/>
     <use style="fill:#ff0000;stroke:#ff0000;" x="455.549195" xlink:href="#m824ca2fa68" y="247.954143"/>
     <use style="fill:#ff0000;stroke:#ff0000;" x="393.373904" xlink:href="#m824ca2fa68" y="287.569271"/>
     <use style="fill:#ff0000;stroke:#ff0000;" x="418.105138" xlink:href="#m824ca2fa68" y="316.988907"/>
     <use style="fill:#ff0000;stroke:#ff0000;" x="436.380086" xlink:href="#m824ca2fa68" y="346.399814"/>
     <use style="fill:#ff0000;stroke:#ff0000;" x="408.518754" xlink:href="#m824ca2fa68" y="362.253472"/>
     <use style="fill:#ff0000;stroke:#ff0000;" x="454.686444" xlink:href="#m824ca2fa68" y="392.151186"/>
     <use style="fill:#ff0000;stroke:#ff0000;" x="445.260126" xlink:href="#m824ca2fa68" y="413.670329"/>
     <use style="fill:#ff0000;stroke:#ff0000;" x="414.199071" xlink:href="#m824ca2fa68" y="440.725791"/>
     <use style="fill:#ff0000;stroke:#ff0000;" x="394.77056" xlink:href="#m824ca2fa68" y="447.113017"/>
     <use style="fill:#ff0000;stroke:#ff0000;" x="410.993028" xlink:href="#m824ca2fa68" y="506.60966"/>
     <use style="fill:#ff0000;stroke:#ff0000;" x="438.129621" xlink:href="#m824ca2fa68" y="502.408503"/>
     <use style="fill:#ff0000;stroke:#ff0000;" x="453.078706" xlink:href="#m824ca2fa68" y="514.395464"/>
     <use style="fill:#ff0000;stroke:#ff0000;" x="467.830774" xlink:href="#m824ca2fa68" y="512.281555"/>
     <use style="fill:#ff0000;stroke:#ff0000;" x="456.584438" xlink:href="#m824ca2fa68" y="526.103048"/>
     <use style="fill:#ff0000;stroke:#ff0000;" x="471.458957" xlink:href="#m824ca2fa68" y="538.165211"/>
     <use style="fill:#ff0000;stroke:#ff0000;" x="454.289379" xlink:href="#m824ca2fa68" y="562.128881"/>
     <use style="fill:#ff0000;stroke:#ff0000;" x="530.996201" xlink:href="#m824ca2fa68" y="503.356509"/>
     <use style="fill:#ff0000;stroke:#ff0000;" x="547.61091" xlink:href="#m824ca2fa68" y="495.159192"/>
     <use style="fill:#ff0000;stroke:#ff0000;" x="564.120882" xlink:href="#m824ca2fa68" y="477.723044"/>
     <use style="fill:#ff0000;stroke:#ff0000;" x="578.838398" xlink:href="#m824ca2fa68" y="489.219669"/>
     <use style="fill:#ff0000;stroke:#ff0000;" x="573.897654" xlink:href="#m824ca2fa68" y="622.379594"/>
     <use style="fill:#ff0000;stroke:#ff0000;" x="583.551402" xlink:href="#m824ca2fa68" y="633.25993"/>
     <use style="fill:#ff0000;stroke:#ff0000;" x="617.421355" xlink:href="#m824ca2fa68" y="640.756808"/>
     <use style="fill:#ff0000;stroke:#ff0000;" x="645.068056" xlink:href="#m824ca2fa68" y="615.894447"/>
     <use style="fill:#ff0000;stroke:#ff0000;" x="661.179542" xlink:href="#m824ca2fa68" y="632.514291"/>
     <use style="fill:#ff0000;stroke:#ff0000;" x="666.44279" xlink:href="#m824ca2fa68" y="592.93303"/>
     <use style="fill:#ff0000;stroke:#ff0000;" x="701.164761" xlink:href="#m824ca2fa68" y="598.966546"/>
     <use style="fill:#ff0000;stroke:#ff0000;" x="757.03511" xlink:href="#m824ca2fa68" y="592.335776"/>
     <use style="fill:#ff0000;stroke:#ff0000;" x="807.246465" xlink:href="#m824ca2fa68" y="582.6924"/>
     <use style="fill:#ff0000;stroke:#ff0000;" x="833.319438" xlink:href="#m824ca2fa68" y="587.36963"/>
     <use style="fill:#ff0000;stroke:#ff0000;" x="847.165193" xlink:href="#m824ca2fa68" y="570.369521"/>
     <use style="fill:#ff0000;stroke:#ff0000;" x="876.142568" xlink:href="#m824ca2fa68" y="573.031372"/>
     <use style="fill:#ff0000;stroke:#ff0000;" x="873.57816" xlink:href="#m824ca2fa68" y="559.765267"/>
     <use style="fill:#ff0000;stroke:#ff0000;" x="948.437906" xlink:href="#m824ca2fa68" y="551.46209"/>
     <use style="fill:#ff0000;stroke:#ff0000;" x="1054.426054" xlink:href="#m824ca2fa68" y="553.379148"/>
     <use style="fill:#ff0000;stroke:#ff0000;" x="1055.958841" xlink:href="#m824ca2fa68" y="537.950343"/>
     <use style="fill:#ff0000;stroke:#ff0000;" x="1081.634916" xlink:href="#m824ca2fa68" y="527.586327"/>
     <use style="fill:#ff0000;stroke:#ff0000;" x="1084.729351" xlink:href="#m824ca2fa68" y="512.414122"/>
     <use style="fill:#ff0000;stroke:#ff0000;" x="1131.639556" xlink:href="#m824ca2fa68" y="502.793898"/>
    </g>
   </g>
   <g id="line2d_39">
    <defs>
     <path d="M -0.5 0.5 
L 0.5 0.5 
L 0.5 -0.5 
L -0.5 -0.5 
z
" id="mee0ff8d2fc" style="stroke:#1f77b4;stroke-linejoin:miter;"/>
    </defs>
    <g clip-path="url(#p04b6419b7f)">
     <use style="fill:#1f77b4;stroke:#1f77b4;stroke-linejoin:miter;" x="1412.819788" xlink:href="#mee0ff8d2fc" y="486.737892"/>
     <use style="fill:#1f77b4;stroke:#1f77b4;stroke-linejoin:miter;" x="1068.54876" xlink:href="#mee0ff8d2fc" y="435.445512"/>
     <use style="fill:#1f77b4;stroke:#1f77b4;stroke-linejoin:miter;" x="1286.853699" xlink:href="#mee0ff8d2fc" y="350.056006"/>
     <use style="fill:#1f77b4;stroke:#1f77b4;stroke-linejoin:miter;" x="1280.123154" xlink:href="#mee0ff8d2fc" y="328.539568"/>
     <use style="fill:#1f77b4;stroke:#1f77b4;stroke-linejoin:miter;" x="1362.539402" xlink:href="#mee0ff8d2fc" y="291.196795"/>
     <use style="fill:#1f77b4;stroke:#1f77b4;stroke-linejoin:miter;" x="1318.558792" xlink:href="#mee0ff8d2fc" y="275.434852"/>
     <use style="fill:#1f77b4;stroke:#1f77b4;stroke-linejoin:miter;" x="1192.815175" xlink:href="#mee0ff8d2fc" y="144.629149"/>
     <use style="fill:#1f77b4;stroke:#1f77b4;stroke-linejoin:miter;" x="650.904689" xlink:href="#mee0ff8d2fc" y="399.071499"/>
     <use style="fill:#1f77b4;stroke:#1f77b4;stroke-linejoin:miter;" x="647.037966" xlink:href="#mee0ff8d2fc" y="398.526865"/>
     <use style="fill:#1f77b4;stroke:#1f77b4;stroke-linejoin:miter;" x="645.798922" xlink:href="#mee0ff8d2fc" y="396.017844"/>
     <use style="fill:#1f77b4;stroke:#1f77b4;stroke-linejoin:miter;" x="644.396521" xlink:href="#mee0ff8d2fc" y="393.850447"/>
     <use style="fill:#1f77b4;stroke:#1f77b4;stroke-linejoin:miter;" x="642.281657" xlink:href="#mee0ff8d2fc" y="391.968807"/>
     <use style="fill:#1f77b4;stroke:#1f77b4;stroke-linejoin:miter;" x="640.623086" xlink:href="#mee0ff8d2fc" y="389.768359"/>
     <use style="fill:#1f77b4;stroke:#1f77b4;stroke-linejoin:miter;" x="642.501186" xlink:href="#mee0ff8d2fc" y="383.942336"/>
     <use style="fill:#1f77b4;stroke:#1f77b4;stroke-linejoin:miter;" x="765.551624" xlink:href="#mee0ff8d2fc" y="197.494513"/>
     <use style="fill:#1f77b4;stroke:#1f77b4;stroke-linejoin:miter;" x="748.426717" xlink:href="#mee0ff8d2fc" y="198.027349"/>
     <use style="fill:#1f77b4;stroke:#1f77b4;stroke-linejoin:miter;" x="730.867321" xlink:href="#mee0ff8d2fc" y="200.70693"/>
     <use style="fill:#1f77b4;stroke:#1f77b4;stroke-linejoin:miter;" x="714.086464" xlink:href="#mee0ff8d2fc" y="203.460125"/>
     <use style="fill:#1f77b4;stroke:#1f77b4;stroke-linejoin:miter;" x="698.332092" xlink:href="#mee0ff8d2fc" y="205.811026"/>
     <use style="fill:#1f77b4;stroke:#1f77b4;stroke-linejoin:miter;" x="683.351563" xlink:href="#mee0ff8d2fc" y="207.9875"/>
     <use style="fill:#1f77b4;stroke:#1f77b4;stroke-linejoin:miter;" x="668.561902" xlink:href="#mee0ff8d2fc" y="211.110164"/>
     <use style="fill:#1f77b4;stroke:#1f77b4;stroke-linejoin:miter;" x="655.138325" xlink:href="#mee0ff8d2fc" y="212.074072"/>
     <use style="fill:#1f77b4;stroke:#1f77b4;stroke-linejoin:miter;" x="641.809362" xlink:href="#mee0ff8d2fc" y="214.826906"/>
     <use style="fill:#1f77b4;stroke:#1f77b4;stroke-linejoin:miter;" x="628.289335" xlink:href="#mee0ff8d2fc" y="216.776877"/>
     <use style="fill:#1f77b4;stroke:#1f77b4;stroke-linejoin:miter;" x="615.633127" xlink:href="#mee0ff8d2fc" y="218.669351"/>
     <use style="fill:#1f77b4;stroke:#1f77b4;stroke-linejoin:miter;" x="603.436797" xlink:href="#mee0ff8d2fc" y="220.572078"/>
     <use style="fill:#1f77b4;stroke:#1f77b4;stroke-linejoin:miter;" x="591.487882" xlink:href="#mee0ff8d2fc" y="223.993277"/>
     <use style="fill:#1f77b4;stroke:#1f77b4;stroke-linejoin:miter;" x="579.81302" xlink:href="#mee0ff8d2fc" y="225.261778"/>
     <use style="fill:#1f77b4;stroke:#1f77b4;stroke-linejoin:miter;" x="568.188128" xlink:href="#mee0ff8d2fc" y="226.014177"/>
     <use style="fill:#1f77b4;stroke:#1f77b4;stroke-linejoin:miter;" x="578.288545" xlink:href="#mee0ff8d2fc" y="391.460035"/>
     <use style="fill:#1f77b4;stroke:#1f77b4;stroke-linejoin:miter;" x="576.589229" xlink:href="#mee0ff8d2fc" y="393.912648"/>
     <use style="fill:#1f77b4;stroke:#1f77b4;stroke-linejoin:miter;" x="574.368596" xlink:href="#mee0ff8d2fc" y="395.084162"/>
     <use style="fill:#1f77b4;stroke:#1f77b4;stroke-linejoin:miter;" x="571.931737" xlink:href="#mee0ff8d2fc" y="395.412776"/>
     <use style="fill:#1f77b4;stroke:#1f77b4;stroke-linejoin:miter;" x="569.465316" xlink:href="#mee0ff8d2fc" y="395.009296"/>
     <use style="fill:#1f77b4;stroke:#1f77b4;stroke-linejoin:miter;" x="455.549195" xlink:href="#mee0ff8d2fc" y="247.954143"/>
     <use style="fill:#1f77b4;stroke:#1f77b4;stroke-linejoin:miter;" x="443.782" xlink:href="#mee0ff8d2fc" y="250.147499"/>
     <use style="fill:#1f77b4;stroke:#1f77b4;stroke-linejoin:miter;" x="431.220162" xlink:href="#mee0ff8d2fc" y="252.02335"/>
     <use style="fill:#1f77b4;stroke:#1f77b4;stroke-linejoin:miter;" x="417.275592" xlink:href="#mee0ff8d2fc" y="252.827416"/>
     <use style="fill:#1f77b4;stroke:#1f77b4;stroke-linejoin:miter;" x="414.503704" xlink:href="#mee0ff8d2fc" y="265.408316"/>
     <use style="fill:#1f77b4;stroke:#1f77b4;stroke-linejoin:miter;" x="400.972937" xlink:href="#mee0ff8d2fc" y="266.977187"/>
     <use style="fill:#1f77b4;stroke:#1f77b4;stroke-linejoin:miter;" x="391.295139" xlink:href="#mee0ff8d2fc" y="272.893089"/>
     <use style="fill:#1f77b4;stroke:#1f77b4;stroke-linejoin:miter;" x="393.373904" xlink:href="#mee0ff8d2fc" y="287.569271"/>
     <use style="fill:#1f77b4;stroke:#1f77b4;stroke-linejoin:miter;" x="418.105138" xlink:href="#mee0ff8d2fc" y="316.988907"/>
     <use style="fill:#1f77b4;stroke:#1f77b4;stroke-linejoin:miter;" x="436.380086" xlink:href="#mee0ff8d2fc" y="346.399814"/>
     <use style="fill:#1f77b4;stroke:#1f77b4;stroke-linejoin:miter;" x="423.431151" xlink:href="#mee0ff8d2fc" y="346.751336"/>
     <use style="fill:#1f77b4;stroke:#1f77b4;stroke-linejoin:miter;" x="419.859003" xlink:href="#mee0ff8d2fc" y="352.555648"/>
     <use style="fill:#1f77b4;stroke:#1f77b4;stroke-linejoin:miter;" x="413.022685" xlink:href="#mee0ff8d2fc" y="356.901422"/>
     <use style="fill:#1f77b4;stroke:#1f77b4;stroke-linejoin:miter;" x="408.518754" xlink:href="#mee0ff8d2fc" y="362.253472"/>
     <use style="fill:#1f77b4;stroke:#1f77b4;stroke-linejoin:miter;" x="454.686444" xlink:href="#mee0ff8d2fc" y="392.151186"/>
     <use style="fill:#1f77b4;stroke:#1f77b4;stroke-linejoin:miter;" x="455.898125" xlink:href="#mee0ff8d2fc" y="397.375862"/>
     <use style="fill:#1f77b4;stroke:#1f77b4;stroke-linejoin:miter;" x="456.950944" xlink:href="#mee0ff8d2fc" y="402.382745"/>
     <use style="fill:#1f77b4;stroke:#1f77b4;stroke-linejoin:miter;" x="458.142707" xlink:href="#mee0ff8d2fc" y="407.127267"/>
     <use style="fill:#1f77b4;stroke:#1f77b4;stroke-linejoin:miter;" x="458.238127" xlink:href="#mee0ff8d2fc" y="411.594474"/>
     <use style="fill:#1f77b4;stroke:#1f77b4;stroke-linejoin:miter;" x="445.260126" xlink:href="#mee0ff8d2fc" y="413.670329"/>
     <use style="fill:#1f77b4;stroke:#1f77b4;stroke-linejoin:miter;" x="427.47948" xlink:href="#mee0ff8d2fc" y="415.834051"/>
     <use style="fill:#1f77b4;stroke:#1f77b4;stroke-linejoin:miter;" x="425.279387" xlink:href="#mee0ff8d2fc" y="420.667146"/>
     <use style="fill:#1f77b4;stroke:#1f77b4;stroke-linejoin:miter;" x="418.073559" xlink:href="#mee0ff8d2fc" y="425.367734"/>
     <use style="fill:#1f77b4;stroke:#1f77b4;stroke-linejoin:miter;" x="420.292439" xlink:href="#mee0ff8d2fc" y="430.716376"/>
     <use style="fill:#1f77b4;stroke:#1f77b4;stroke-linejoin:miter;" x="420.547585" xlink:href="#mee0ff8d2fc" y="435.595158"/>
     <use style="fill:#1f77b4;stroke:#1f77b4;stroke-linejoin:miter;" x="414.199071" xlink:href="#mee0ff8d2fc" y="440.725791"/>
     <use style="fill:#1f77b4;stroke:#1f77b4;stroke-linejoin:miter;" x="394.77056" xlink:href="#mee0ff8d2fc" y="447.113017"/>
     <use style="fill:#1f77b4;stroke:#1f77b4;stroke-linejoin:miter;" x="396.185628" xlink:href="#mee0ff8d2fc" y="452.968814"/>
     <use style="fill:#1f77b4;stroke:#1f77b4;stroke-linejoin:miter;" x="398.419462" xlink:href="#mee0ff8d2fc" y="458.738033"/>
     <use style="fill:#1f77b4;stroke:#1f77b4;stroke-linejoin:miter;" x="400.740744" xlink:href="#mee0ff8d2fc" y="464.431636"/>
     <use style="fill:#1f77b4;stroke:#1f77b4;stroke-linejoin:miter;" x="404.271396" xlink:href="#mee0ff8d2fc" y="469.898076"/>
     <use style="fill:#1f77b4;stroke:#1f77b4;stroke-linejoin:miter;" x="404.458084" xlink:href="#mee0ff8d2fc" y="475.886981"/>
     <use style="fill:#1f77b4;stroke:#1f77b4;stroke-linejoin:miter;" x="404.188883" xlink:href="#mee0ff8d2fc" y="482.159226"/>
     <use style="fill:#1f77b4;stroke:#1f77b4;stroke-linejoin:miter;" x="406.42812" xlink:href="#mee0ff8d2fc" y="488.001922"/>
     <use style="fill:#1f77b4;stroke:#1f77b4;stroke-linejoin:miter;" x="407.675224" xlink:href="#mee0ff8d2fc" y="494.335486"/>
     <use style="fill:#1f77b4;stroke:#1f77b4;stroke-linejoin:miter;" x="407.788126" xlink:href="#mee0ff8d2fc" y="500.951494"/>
     <use style="fill:#1f77b4;stroke:#1f77b4;stroke-linejoin:miter;" x="410.993028" xlink:href="#mee0ff8d2fc" y="506.60966"/>
     <use style="fill:#1f77b4;stroke:#1f77b4;stroke-linejoin:miter;" x="438.129621" xlink:href="#mee0ff8d2fc" y="502.408503"/>
     <use style="fill:#1f77b4;stroke:#1f77b4;stroke-linejoin:miter;" x="432.760434" xlink:href="#mee0ff8d2fc" y="511.334937"/>
     <use style="fill:#1f77b4;stroke:#1f77b4;stroke-linejoin:miter;" x="435.773609" xlink:href="#mee0ff8d2fc" y="516.718389"/>
     <use style="fill:#1f77b4;stroke:#1f77b4;stroke-linejoin:miter;" x="453.078706" xlink:href="#mee0ff8d2fc" y="514.395464"/>
     <use style="fill:#1f77b4;stroke:#1f77b4;stroke-linejoin:miter;" x="467.830774" xlink:href="#mee0ff8d2fc" y="512.281555"/>
     <use style="fill:#1f77b4;stroke:#1f77b4;stroke-linejoin:miter;" x="456.584438" xlink:href="#mee0ff8d2fc" y="526.103048"/>
     <use style="fill:#1f77b4;stroke:#1f77b4;stroke-linejoin:miter;" x="457.702113" xlink:href="#mee0ff8d2fc" y="532.856372"/>
     <use style="fill:#1f77b4;stroke:#1f77b4;stroke-linejoin:miter;" x="464.407716" xlink:href="#mee0ff8d2fc" y="535.958776"/>
     <use style="fill:#1f77b4;stroke:#1f77b4;stroke-linejoin:miter;" x="471.458957" xlink:href="#mee0ff8d2fc" y="538.165211"/>
     <use style="fill:#1f77b4;stroke:#1f77b4;stroke-linejoin:miter;" x="454.289379" xlink:href="#mee0ff8d2fc" y="562.128881"/>
     <use style="fill:#1f77b4;stroke:#1f77b4;stroke-linejoin:miter;" x="530.996201" xlink:href="#mee0ff8d2fc" y="503.356509"/>
     <use style="fill:#1f77b4;stroke:#1f77b4;stroke-linejoin:miter;" x="538.62422" xlink:href="#mee0ff8d2fc" y="500.768711"/>
     <use style="fill:#1f77b4;stroke:#1f77b4;stroke-linejoin:miter;" x="547.61091" xlink:href="#mee0ff8d2fc" y="495.159192"/>
     <use style="fill:#1f77b4;stroke:#1f77b4;stroke-linejoin:miter;" x="564.120882" xlink:href="#mee0ff8d2fc" y="477.723044"/>
     <use style="fill:#1f77b4;stroke:#1f77b4;stroke-linejoin:miter;" x="568.033334" xlink:href="#mee0ff8d2fc" y="476.402479"/>
     <use style="fill:#1f77b4;stroke:#1f77b4;stroke-linejoin:miter;" x="569.615469" xlink:href="#mee0ff8d2fc" y="477.916898"/>
     <use style="fill:#1f77b4;stroke:#1f77b4;stroke-linejoin:miter;" x="571.202633" xlink:href="#mee0ff8d2fc" y="479.741497"/>
     <use style="fill:#1f77b4;stroke:#1f77b4;stroke-linejoin:miter;" x="573.046551" xlink:href="#mee0ff8d2fc" y="481.555814"/>
     <use style="fill:#1f77b4;stroke:#1f77b4;stroke-linejoin:miter;" x="574.798757" xlink:href="#mee0ff8d2fc" y="483.773205"/>
     <use style="fill:#1f77b4;stroke:#1f77b4;stroke-linejoin:miter;" x="576.993769" xlink:href="#mee0ff8d2fc" y="485.90578"/>
     <use style="fill:#1f77b4;stroke:#1f77b4;stroke-linejoin:miter;" x="578.838398" xlink:href="#mee0ff8d2fc" y="489.219669"/>
     <use style="fill:#1f77b4;stroke:#1f77b4;stroke-linejoin:miter;" x="573.897654" xlink:href="#mee0ff8d2fc" y="622.379594"/>
     <use style="fill:#1f77b4;stroke:#1f77b4;stroke-linejoin:miter;" x="583.551402" xlink:href="#mee0ff8d2fc" y="633.25993"/>
     <use style="fill:#1f77b4;stroke:#1f77b4;stroke-linejoin:miter;" x="594.460397" xlink:href="#mee0ff8d2fc" y="641.765291"/>
     <use style="fill:#1f77b4;stroke:#1f77b4;stroke-linejoin:miter;" x="605.415445" xlink:href="#mee0ff8d2fc" y="637.235096"/>
     <use style="fill:#1f77b4;stroke:#1f77b4;stroke-linejoin:miter;" x="617.421355" xlink:href="#mee0ff8d2fc" y="640.756808"/>
     <use style="fill:#1f77b4;stroke:#1f77b4;stroke-linejoin:miter;" x="645.068056" xlink:href="#mee0ff8d2fc" y="615.894447"/>
     <use style="fill:#1f77b4;stroke:#1f77b4;stroke-linejoin:miter;" x="661.179542" xlink:href="#mee0ff8d2fc" y="632.514291"/>
     <use style="fill:#1f77b4;stroke:#1f77b4;stroke-linejoin:miter;" x="666.44279" xlink:href="#mee0ff8d2fc" y="592.93303"/>
     <use style="fill:#1f77b4;stroke:#1f77b4;stroke-linejoin:miter;" x="679.032321" xlink:href="#mee0ff8d2fc" y="598.00798"/>
     <use style="fill:#1f77b4;stroke:#1f77b4;stroke-linejoin:miter;" x="689.932209" xlink:href="#mee0ff8d2fc" y="598.47952"/>
     <use style="fill:#1f77b4;stroke:#1f77b4;stroke-linejoin:miter;" x="701.164761" xlink:href="#mee0ff8d2fc" y="598.966546"/>
     <use style="fill:#1f77b4;stroke:#1f77b4;stroke-linejoin:miter;" x="757.03511" xlink:href="#mee0ff8d2fc" y="592.335776"/>
     <use style="fill:#1f77b4;stroke:#1f77b4;stroke-linejoin:miter;" x="764.070657" xlink:href="#mee0ff8d2fc" y="586.097298"/>
     <use style="fill:#1f77b4;stroke:#1f77b4;stroke-linejoin:miter;" x="779.055386" xlink:href="#mee0ff8d2fc" y="586.168437"/>
     <use style="fill:#1f77b4;stroke:#1f77b4;stroke-linejoin:miter;" x="790.98885" xlink:href="#mee0ff8d2fc" y="583.204788"/>
     <use style="fill:#1f77b4;stroke:#1f77b4;stroke-linejoin:miter;" x="807.246465" xlink:href="#mee0ff8d2fc" y="582.6924"/>
     <use style="fill:#1f77b4;stroke:#1f77b4;stroke-linejoin:miter;" x="833.319438" xlink:href="#mee0ff8d2fc" y="587.36963"/>
     <use style="fill:#1f77b4;stroke:#1f77b4;stroke-linejoin:miter;" x="847.165193" xlink:href="#mee0ff8d2fc" y="570.369521"/>
     <use style="fill:#1f77b4;stroke:#1f77b4;stroke-linejoin:miter;" x="876.142568" xlink:href="#mee0ff8d2fc" y="573.031372"/>
     <use style="fill:#1f77b4;stroke:#1f77b4;stroke-linejoin:miter;" x="873.57816" xlink:href="#mee0ff8d2fc" y="559.765267"/>
     <use style="fill:#1f77b4;stroke:#1f77b4;stroke-linejoin:miter;" x="948.437906" xlink:href="#mee0ff8d2fc" y="551.46209"/>
     <use style="fill:#1f77b4;stroke:#1f77b4;stroke-linejoin:miter;" x="1054.426054" xlink:href="#mee0ff8d2fc" y="553.379148"/>
     <use style="fill:#1f77b4;stroke:#1f77b4;stroke-linejoin:miter;" x="1055.958841" xlink:href="#mee0ff8d2fc" y="537.950343"/>
     <use style="fill:#1f77b4;stroke:#1f77b4;stroke-linejoin:miter;" x="1081.634916" xlink:href="#mee0ff8d2fc" y="527.586327"/>
     <use style="fill:#1f77b4;stroke:#1f77b4;stroke-linejoin:miter;" x="1084.729351" xlink:href="#mee0ff8d2fc" y="512.414122"/>
     <use style="fill:#1f77b4;stroke:#1f77b4;stroke-linejoin:miter;" x="1131.639556" xlink:href="#mee0ff8d2fc" y="502.793898"/>
    </g>
   </g>
   <g id="patch_3">
    <path d="M 144 768.96 
L 144 103.68 
" style="fill:none;stroke:#000000;stroke-linecap:square;stroke-linejoin:miter;stroke-width:0.8;"/>
   </g>
   <g id="patch_4">
    <path d="M 1036.8 768.96 
L 1036.8 103.68 
" style="fill:none;stroke:#000000;stroke-linecap:square;stroke-linejoin:miter;stroke-width:0.8;"/>
   </g>
   <g id="patch_5">
    <path d="M 144 768.96 
L 1036.8 768.96 
" style="fill:none;stroke:#000000;stroke-linecap:square;stroke-linejoin:miter;stroke-width:0.8;"/>
   </g>
   <g id="patch_6">
    <path d="M 144 103.68 
L 1036.8 103.68 
" style="fill:none;stroke:#000000;stroke-linecap:square;stroke-linejoin:miter;stroke-width:0.8;"/>
   </g>
  </g>
 </g>
 <defs>
  <clipPath id="p04b6419b7f">
   <rect height="665.28" width="892.8" x="144" y="103.68"/>
  </clipPath>
 </defs>
</svg>
