<?xml version="1.0" encoding="utf-8" standalone="no"?>
<!DOCTYPE svg PUBLIC "-//W3C//DTD SVG 1.1//EN"
  "http://www.w3.org/Graphics/SVG/1.1/DTD/svg11.dtd">
<!-- Created with matplotlib (http://matplotlib.org/) -->
<svg height="864pt" version="1.1" viewBox="0 0 1152 864" width="1152pt" xmlns="http://www.w3.org/2000/svg" xmlns:xlink="http://www.w3.org/1999/xlink">
 <defs>
  <style type="text/css">
*{stroke-linecap:butt;stroke-linejoin:round;}
  </style>
 </defs>
 <g id="figure_1">
  <g id="patch_1">
   <path d="M 0 864 
L 1152 864 
L 1152 0 
L 0 0 
z
" style="fill:#ffffff;"/>
  </g>
  <g id="axes_1">
   <g id="patch_2">
    <path d="M 144 768.96 
L 1036.8 768.96 
L 1036.8 103.68 
L 144 103.68 
z
" style="fill:#ffffff;"/>
   </g>
   <g id="matplotlib.axis_1">
    <g id="xtick_1">
     <g id="line2d_1">
      <defs>
       <path d="M 0 0 
L 0 3.5 
" id="m928e914ce2" style="stroke:#000000;stroke-width:0.8;"/>
      </defs>
      <g>
       <use style="stroke:#000000;stroke-width:0.8;" x="144" xlink:href="#m928e914ce2" y="768.96"/>
      </g>
     </g>
     <g id="text_1">
      <!-- −4000 -->
      <defs>
       <path d="M 10.59375 35.5 
L 73.1875 35.5 
L 73.1875 27.203125 
L 10.59375 27.203125 
z
" id="DejaVuSans-2212"/>
       <path d="M 37.796875 64.3125 
L 12.890625 25.390625 
L 37.796875 25.390625 
z
M 35.203125 72.90625 
L 47.609375 72.90625 
L 47.609375 25.390625 
L 58.015625 25.390625 
L 58.015625 17.1875 
L 47.609375 17.1875 
L 47.609375 0 
L 37.796875 0 
L 37.796875 17.1875 
L 4.890625 17.1875 
L 4.890625 26.703125 
z
" id="DejaVuSans-34"/>
       <path d="M 31.78125 66.40625 
Q 24.171875 66.40625 20.328125 58.90625 
Q 16.5 51.421875 16.5 36.375 
Q 16.5 21.390625 20.328125 13.890625 
Q 24.171875 6.390625 31.78125 6.390625 
Q 39.453125 6.390625 43.28125 13.890625 
Q 47.125 21.390625 47.125 36.375 
Q 47.125 51.421875 43.28125 58.90625 
Q 39.453125 66.40625 31.78125 66.40625 
z
M 31.78125 74.21875 
Q 44.046875 74.21875 50.515625 64.515625 
Q 56.984375 54.828125 56.984375 36.375 
Q 56.984375 17.96875 50.515625 8.265625 
Q 44.046875 -1.421875 31.78125 -1.421875 
Q 19.53125 -1.421875 13.0625 8.265625 
Q 6.59375 17.96875 6.59375 36.375 
Q 6.59375 54.828125 13.0625 64.515625 
Q 19.53125 74.21875 31.78125 74.21875 
z
" id="DejaVuSans-30"/>
      </defs>
      <g transform="translate(127.085156 783.558437)scale(0.1 -0.1)">
       <use xlink:href="#DejaVuSans-2212"/>
       <use x="83.789062" xlink:href="#DejaVuSans-34"/>
       <use x="147.412109" xlink:href="#DejaVuSans-30"/>
       <use x="211.035156" xlink:href="#DejaVuSans-30"/>
       <use x="274.658203" xlink:href="#DejaVuSans-30"/>
      </g>
     </g>
    </g>
    <g id="xtick_2">
     <g id="line2d_2">
      <g>
       <use style="stroke:#000000;stroke-width:0.8;" x="255.6" xlink:href="#m928e914ce2" y="768.96"/>
      </g>
     </g>
     <g id="text_2">
      <!-- −3000 -->
      <defs>
       <path d="M 40.578125 39.3125 
Q 47.65625 37.796875 51.625 33 
Q 55.609375 28.21875 55.609375 21.1875 
Q 55.609375 10.40625 48.1875 4.484375 
Q 40.765625 -1.421875 27.09375 -1.421875 
Q 22.515625 -1.421875 17.65625 -0.515625 
Q 12.796875 0.390625 7.625 2.203125 
L 7.625 11.71875 
Q 11.71875 9.328125 16.59375 8.109375 
Q 21.484375 6.890625 26.8125 6.890625 
Q 36.078125 6.890625 40.9375 10.546875 
Q 45.796875 14.203125 45.796875 21.1875 
Q 45.796875 27.640625 41.28125 31.265625 
Q 36.765625 34.90625 28.71875 34.90625 
L 20.21875 34.90625 
L 20.21875 43.015625 
L 29.109375 43.015625 
Q 36.375 43.015625 40.234375 45.921875 
Q 44.09375 48.828125 44.09375 54.296875 
Q 44.09375 59.90625 40.109375 62.90625 
Q 36.140625 65.921875 28.71875 65.921875 
Q 24.65625 65.921875 20.015625 65.03125 
Q 15.375 64.15625 9.8125 62.3125 
L 9.8125 71.09375 
Q 15.4375 72.65625 20.34375 73.4375 
Q 25.25 74.21875 29.59375 74.21875 
Q 40.828125 74.21875 47.359375 69.109375 
Q 53.90625 64.015625 53.90625 55.328125 
Q 53.90625 49.265625 50.4375 45.09375 
Q 46.96875 40.921875 40.578125 39.3125 
z
" id="DejaVuSans-33"/>
      </defs>
      <g transform="translate(238.685156 783.558437)scale(0.1 -0.1)">
       <use xlink:href="#DejaVuSans-2212"/>
       <use x="83.789062" xlink:href="#DejaVuSans-33"/>
       <use x="147.412109" xlink:href="#DejaVuSans-30"/>
       <use x="211.035156" xlink:href="#DejaVuSans-30"/>
       <use x="274.658203" xlink:href="#DejaVuSans-30"/>
      </g>
     </g>
    </g>
    <g id="xtick_3">
     <g id="line2d_3">
      <g>
       <use style="stroke:#000000;stroke-width:0.8;" x="367.2" xlink:href="#m928e914ce2" y="768.96"/>
      </g>
     </g>
     <g id="text_3">
      <!-- −2000 -->
      <defs>
       <path d="M 19.1875 8.296875 
L 53.609375 8.296875 
L 53.609375 0 
L 7.328125 0 
L 7.328125 8.296875 
Q 12.9375 14.109375 22.625 23.890625 
Q 32.328125 33.6875 34.8125 36.53125 
Q 39.546875 41.84375 41.421875 45.53125 
Q 43.3125 49.21875 43.3125 52.78125 
Q 43.3125 58.59375 39.234375 62.25 
Q 35.15625 65.921875 28.609375 65.921875 
Q 23.96875 65.921875 18.8125 64.3125 
Q 13.671875 62.703125 7.8125 59.421875 
L 7.8125 69.390625 
Q 13.765625 71.78125 18.9375 73 
Q 24.125 74.21875 28.421875 74.21875 
Q 39.75 74.21875 46.484375 68.546875 
Q 53.21875 62.890625 53.21875 53.421875 
Q 53.21875 48.921875 51.53125 44.890625 
Q 49.859375 40.875 45.40625 35.40625 
Q 44.1875 33.984375 37.640625 27.21875 
Q 31.109375 20.453125 19.1875 8.296875 
z
" id="DejaVuSans-32"/>
      </defs>
      <g transform="translate(350.285156 783.558437)scale(0.1 -0.1)">
       <use xlink:href="#DejaVuSans-2212"/>
       <use x="83.789062" xlink:href="#DejaVuSans-32"/>
       <use x="147.412109" xlink:href="#DejaVuSans-30"/>
       <use x="211.035156" xlink:href="#DejaVuSans-30"/>
       <use x="274.658203" xlink:href="#DejaVuSans-30"/>
      </g>
     </g>
    </g>
    <g id="xtick_4">
     <g id="line2d_4">
      <g>
       <use style="stroke:#000000;stroke-width:0.8;" x="478.8" xlink:href="#m928e914ce2" y="768.96"/>
      </g>
     </g>
     <g id="text_4">
      <!-- −1000 -->
      <defs>
       <path d="M 12.40625 8.296875 
L 28.515625 8.296875 
L 28.515625 63.921875 
L 10.984375 60.40625 
L 10.984375 69.390625 
L 28.421875 72.90625 
L 38.28125 72.90625 
L 38.28125 8.296875 
L 54.390625 8.296875 
L 54.390625 0 
L 12.40625 0 
z
" id="DejaVuSans-31"/>
      </defs>
      <g transform="translate(461.885156 783.558437)scale(0.1 -0.1)">
       <use xlink:href="#DejaVuSans-2212"/>
       <use x="83.789062" xlink:href="#DejaVuSans-31"/>
       <use x="147.412109" xlink:href="#DejaVuSans-30"/>
       <use x="211.035156" xlink:href="#DejaVuSans-30"/>
       <use x="274.658203" xlink:href="#DejaVuSans-30"/>
      </g>
     </g>
    </g>
    <g id="xtick_5">
     <g id="line2d_5">
      <g>
       <use style="stroke:#000000;stroke-width:0.8;" x="590.4" xlink:href="#m928e914ce2" y="768.96"/>
      </g>
     </g>
     <g id="text_5">
      <!-- 0 -->
      <g transform="translate(587.21875 783.558437)scale(0.1 -0.1)">
       <use xlink:href="#DejaVuSans-30"/>
      </g>
     </g>
    </g>
    <g id="xtick_6">
     <g id="line2d_6">
      <g>
       <use style="stroke:#000000;stroke-width:0.8;" x="702" xlink:href="#m928e914ce2" y="768.96"/>
      </g>
     </g>
     <g id="text_6">
      <!-- 1000 -->
      <g transform="translate(689.275 783.558437)scale(0.1 -0.1)">
       <use xlink:href="#DejaVuSans-31"/>
       <use x="63.623047" xlink:href="#DejaVuSans-30"/>
       <use x="127.246094" xlink:href="#DejaVuSans-30"/>
       <use x="190.869141" xlink:href="#DejaVuSans-30"/>
      </g>
     </g>
    </g>
    <g id="xtick_7">
     <g id="line2d_7">
      <g>
       <use style="stroke:#000000;stroke-width:0.8;" x="813.6" xlink:href="#m928e914ce2" y="768.96"/>
      </g>
     </g>
     <g id="text_7">
      <!-- 2000 -->
      <g transform="translate(800.875 783.558437)scale(0.1 -0.1)">
       <use xlink:href="#DejaVuSans-32"/>
       <use x="63.623047" xlink:href="#DejaVuSans-30"/>
       <use x="127.246094" xlink:href="#DejaVuSans-30"/>
       <use x="190.869141" xlink:href="#DejaVuSans-30"/>
      </g>
     </g>
    </g>
    <g id="xtick_8">
     <g id="line2d_8">
      <g>
       <use style="stroke:#000000;stroke-width:0.8;" x="925.2" xlink:href="#m928e914ce2" y="768.96"/>
      </g>
     </g>
     <g id="text_8">
      <!-- 3000 -->
      <g transform="translate(912.475 783.558437)scale(0.1 -0.1)">
       <use xlink:href="#DejaVuSans-33"/>
       <use x="63.623047" xlink:href="#DejaVuSans-30"/>
       <use x="127.246094" xlink:href="#DejaVuSans-30"/>
       <use x="190.869141" xlink:href="#DejaVuSans-30"/>
      </g>
     </g>
    </g>
    <g id="xtick_9">
     <g id="line2d_9">
      <g>
       <use style="stroke:#000000;stroke-width:0.8;" x="1036.8" xlink:href="#m928e914ce2" y="768.96"/>
      </g>
     </g>
     <g id="text_9">
      <!-- 4000 -->
      <g transform="translate(1024.075 783.558437)scale(0.1 -0.1)">
       <use xlink:href="#DejaVuSans-34"/>
       <use x="63.623047" xlink:href="#DejaVuSans-30"/>
       <use x="127.246094" xlink:href="#DejaVuSans-30"/>
       <use x="190.869141" xlink:href="#DejaVuSans-30"/>
      </g>
     </g>
    </g>
   </g>
   <g id="matplotlib.axis_2">
    <g id="ytick_1">
     <g id="line2d_10">
      <defs>
       <path d="M 0 0 
L -3.5 0 
" id="md5392e4382" style="stroke:#000000;stroke-width:0.8;"/>
      </defs>
      <g>
       <use style="stroke:#000000;stroke-width:0.8;" x="144" xlink:href="#md5392e4382" y="768.96"/>
      </g>
     </g>
     <g id="text_10">
      <!-- −4000 -->
      <g transform="translate(103.170312 772.759219)scale(0.1 -0.1)">
       <use xlink:href="#DejaVuSans-2212"/>
       <use x="83.789062" xlink:href="#DejaVuSans-34"/>
       <use x="147.412109" xlink:href="#DejaVuSans-30"/>
       <use x="211.035156" xlink:href="#DejaVuSans-30"/>
       <use x="274.658203" xlink:href="#DejaVuSans-30"/>
      </g>
     </g>
    </g>
    <g id="ytick_2">
     <g id="line2d_11">
      <g>
       <use style="stroke:#000000;stroke-width:0.8;" x="144" xlink:href="#md5392e4382" y="685.8"/>
      </g>
     </g>
     <g id="text_11">
      <!-- −3000 -->
      <g transform="translate(103.170312 689.599219)scale(0.1 -0.1)">
       <use xlink:href="#DejaVuSans-2212"/>
       <use x="83.789062" xlink:href="#DejaVuSans-33"/>
       <use x="147.412109" xlink:href="#DejaVuSans-30"/>
       <use x="211.035156" xlink:href="#DejaVuSans-30"/>
       <use x="274.658203" xlink:href="#DejaVuSans-30"/>
      </g>
     </g>
    </g>
    <g id="ytick_3">
     <g id="line2d_12">
      <g>
       <use style="stroke:#000000;stroke-width:0.8;" x="144" xlink:href="#md5392e4382" y="602.64"/>
      </g>
     </g>
     <g id="text_12">
      <!-- −2000 -->
      <g transform="translate(103.170312 606.439219)scale(0.1 -0.1)">
       <use xlink:href="#DejaVuSans-2212"/>
       <use x="83.789062" xlink:href="#DejaVuSans-32"/>
       <use x="147.412109" xlink:href="#DejaVuSans-30"/>
       <use x="211.035156" xlink:href="#DejaVuSans-30"/>
       <use x="274.658203" xlink:href="#DejaVuSans-30"/>
      </g>
     </g>
    </g>
    <g id="ytick_4">
     <g id="line2d_13">
      <g>
       <use style="stroke:#000000;stroke-width:0.8;" x="144" xlink:href="#md5392e4382" y="519.48"/>
      </g>
     </g>
     <g id="text_13">
      <!-- −1000 -->
      <g transform="translate(103.170312 523.279219)scale(0.1 -0.1)">
       <use xlink:href="#DejaVuSans-2212"/>
       <use x="83.789062" xlink:href="#DejaVuSans-31"/>
       <use x="147.412109" xlink:href="#DejaVuSans-30"/>
       <use x="211.035156" xlink:href="#DejaVuSans-30"/>
       <use x="274.658203" xlink:href="#DejaVuSans-30"/>
      </g>
     </g>
    </g>
    <g id="ytick_5">
     <g id="line2d_14">
      <g>
       <use style="stroke:#000000;stroke-width:0.8;" x="144" xlink:href="#md5392e4382" y="436.32"/>
      </g>
     </g>
     <g id="text_14">
      <!-- 0 -->
      <g transform="translate(130.6375 440.119219)scale(0.1 -0.1)">
       <use xlink:href="#DejaVuSans-30"/>
      </g>
     </g>
    </g>
    <g id="ytick_6">
     <g id="line2d_15">
      <g>
       <use style="stroke:#000000;stroke-width:0.8;" x="144" xlink:href="#md5392e4382" y="353.16"/>
      </g>
     </g>
     <g id="text_15">
      <!-- 1000 -->
      <g transform="translate(111.55 356.959219)scale(0.1 -0.1)">
       <use xlink:href="#DejaVuSans-31"/>
       <use x="63.623047" xlink:href="#DejaVuSans-30"/>
       <use x="127.246094" xlink:href="#DejaVuSans-30"/>
       <use x="190.869141" xlink:href="#DejaVuSans-30"/>
      </g>
     </g>
    </g>
    <g id="ytick_7">
     <g id="line2d_16">
      <g>
       <use style="stroke:#000000;stroke-width:0.8;" x="144" xlink:href="#md5392e4382" y="270"/>
      </g>
     </g>
     <g id="text_16">
      <!-- 2000 -->
      <g transform="translate(111.55 273.799219)scale(0.1 -0.1)">
       <use xlink:href="#DejaVuSans-32"/>
       <use x="63.623047" xlink:href="#DejaVuSans-30"/>
       <use x="127.246094" xlink:href="#DejaVuSans-30"/>
       <use x="190.869141" xlink:href="#DejaVuSans-30"/>
      </g>
     </g>
    </g>
    <g id="ytick_8">
     <g id="line2d_17">
      <g>
       <use style="stroke:#000000;stroke-width:0.8;" x="144" xlink:href="#md5392e4382" y="186.84"/>
      </g>
     </g>
     <g id="text_17">
      <!-- 3000 -->
      <g transform="translate(111.55 190.639219)scale(0.1 -0.1)">
       <use xlink:href="#DejaVuSans-33"/>
       <use x="63.623047" xlink:href="#DejaVuSans-30"/>
       <use x="127.246094" xlink:href="#DejaVuSans-30"/>
       <use x="190.869141" xlink:href="#DejaVuSans-30"/>
      </g>
     </g>
    </g>
    <g id="ytick_9">
     <g id="line2d_18">
      <g>
       <use style="stroke:#000000;stroke-width:0.8;" x="144" xlink:href="#md5392e4382" y="103.68"/>
      </g>
     </g>
     <g id="text_18">
      <!-- 4000 -->
      <g transform="translate(111.55 107.479219)scale(0.1 -0.1)">
       <use xlink:href="#DejaVuSans-34"/>
       <use x="63.623047" xlink:href="#DejaVuSans-30"/>
       <use x="127.246094" xlink:href="#DejaVuSans-30"/>
       <use x="190.869141" xlink:href="#DejaVuSans-30"/>
      </g>
     </g>
    </g>
   </g>
   <g id="line2d_19">
    <path clip-path="url(#p28070b54d0)" d="M 590.4 768.96 
L 590.4 103.68 
" style="fill:none;stroke:#1f77b4;stroke-linecap:square;stroke-width:1.5;"/>
   </g>
   <g id="line2d_20">
    <path clip-path="url(#p28070b54d0)" d="M 144 436.32 
L 1036.8 436.32 
" style="fill:none;stroke:#1f77b4;stroke-linecap:square;stroke-width:1.5;"/>
   </g>
   <g id="line2d_21">
    <defs>
     <path d="M 0 3 
C 0.795609 3 1.55874 2.683901 2.12132 2.12132 
C 2.683901 1.55874 3 0.795609 3 0 
C 3 -0.795609 2.683901 -1.55874 2.12132 -2.12132 
C 1.55874 -2.683901 0.795609 -3 0 -3 
C -0.795609 -3 -1.55874 -2.683901 -2.12132 -2.12132 
C -2.683901 -1.55874 -3 -0.795609 -3 0 
C -3 0.795609 -2.683901 1.55874 -2.12132 2.12132 
C -1.55874 2.683901 -0.795609 3 0 3 
z
" id="m3879970fa2" style="stroke:#008000;"/>
    </defs>
    <g clip-path="url(#p28070b54d0)">
     <use style="fill:#008000;stroke:#008000;" x="1203.546213" xlink:href="#m3879970fa2" y="494.823992"/>
    </g>
   </g>
   <g id="line2d_22">
    <g clip-path="url(#p28070b54d0)">
     <use style="fill:#008000;stroke:#008000;" x="1407.316312" xlink:href="#m3879970fa2" y="489.57736"/>
    </g>
   </g>
   <g id="line2d_23">
    <g clip-path="url(#p28070b54d0)">
     <use style="fill:#008000;stroke:#008000;" x="1390.804993" xlink:href="#m3879970fa2" y="390.198083"/>
    </g>
   </g>
   <g id="line2d_24">
    <g clip-path="url(#p28070b54d0)">
     <use style="fill:#008000;stroke:#008000;" x="1323.503182" xlink:href="#m3879970fa2" y="277.578646"/>
    </g>
   </g>
   <g id="line2d_25">
    <g clip-path="url(#p28070b54d0)">
     <use style="fill:#008000;stroke:#008000;" x="1359.858963" xlink:href="#m3879970fa2" y="243.950988"/>
    </g>
   </g>
   <g id="line2d_26">
    <g clip-path="url(#p28070b54d0)">
     <use style="fill:#008000;stroke:#008000;" x="778.144289" xlink:href="#m3879970fa2" y="194.615756"/>
    </g>
   </g>
   <g id="line2d_27">
    <g clip-path="url(#p28070b54d0)">
     <use style="fill:#008000;stroke:#008000;" x="778.144289" xlink:href="#m3879970fa2" y="194.615756"/>
    </g>
   </g>
   <g id="line2d_28">
    <g clip-path="url(#p28070b54d0)">
     <use style="fill:#008000;stroke:#008000;" x="569.08666" xlink:href="#m3879970fa2" y="225.712365"/>
    </g>
   </g>
   <g id="line2d_29">
    <g clip-path="url(#p28070b54d0)">
     <use style="fill:#008000;stroke:#008000;" x="575.332555" xlink:href="#m3879970fa2" y="393.839023"/>
    </g>
   </g>
   <g id="line2d_30">
    <g clip-path="url(#p28070b54d0)">
     <use style="fill:#008000;stroke:#008000;" x="575.332555" xlink:href="#m3879970fa2" y="393.839023"/>
    </g>
   </g>
   <g id="line2d_31">
    <g clip-path="url(#p28070b54d0)">
     <use style="fill:#008000;stroke:#008000;" x="479.814677" xlink:href="#m3879970fa2" y="243.796346"/>
    </g>
   </g>
   <g id="line2d_32">
    <g clip-path="url(#p28070b54d0)">
     <use style="fill:#008000;stroke:#008000;" x="393.720133" xlink:href="#m3879970fa2" y="293.042099"/>
    </g>
   </g>
   <g id="line2d_33">
    <g clip-path="url(#p28070b54d0)">
     <use style="fill:#008000;stroke:#008000;" x="404.783076" xlink:href="#m3879970fa2" y="443.738973"/>
    </g>
   </g>
   <g id="line2d_34">
    <g clip-path="url(#p28070b54d0)">
     <use style="fill:#008000;stroke:#008000;" x="589.400376" xlink:href="#m3879970fa2" y="638.646909"/>
    </g>
   </g>
   <g id="line2d_35">
    <g clip-path="url(#p28070b54d0)">
     <use style="fill:#008000;stroke:#008000;" x="691.237391" xlink:href="#m3879970fa2" y="599.428499"/>
    </g>
   </g>
   <g id="line2d_36">
    <g clip-path="url(#p28070b54d0)">
     <use style="fill:#008000;stroke:#008000;" x="1088.186369" xlink:href="#m3879970fa2" y="519.509121"/>
    </g>
   </g>
   <g id="line2d_37">
    <defs>
     <path d="M 0 1.333333 
C 0.353604 1.333333 0.692773 1.192845 0.942809 0.942809 
C 1.192845 0.692773 1.333333 0.353604 1.333333 0 
C 1.333333 -0.353604 1.192845 -0.692773 0.942809 -0.942809 
C 0.692773 -1.192845 0.353604 -1.333333 0 -1.333333 
C -0.353604 -1.333333 -0.692773 -1.192845 -0.942809 -0.942809 
C -1.192845 -0.692773 -1.333333 -0.353604 -1.333333 0 
C -1.333333 0.353604 -1.192845 0.692773 -0.942809 0.942809 
C -0.692773 1.192845 -0.353604 1.333333 0 1.333333 
z
" id="md2da4b8d7b" style="stroke:#ff0000;"/>
    </defs>
    <g clip-path="url(#p28070b54d0)">
     <use style="fill:#ff0000;stroke:#ff0000;" x="1203.546213" xlink:href="#md2da4b8d7b" y="494.823992"/>
     <use style="fill:#ff0000;stroke:#ff0000;" x="1407.316312" xlink:href="#md2da4b8d7b" y="489.57736"/>
     <use style="fill:#ff0000;stroke:#ff0000;" x="1390.804993" xlink:href="#md2da4b8d7b" y="390.198083"/>
     <use style="fill:#ff0000;stroke:#ff0000;" x="1289.479407" xlink:href="#md2da4b8d7b" y="352.356405"/>
     <use style="fill:#ff0000;stroke:#ff0000;" x="1260.983156" xlink:href="#md2da4b8d7b" y="334.514471"/>
     <use style="fill:#ff0000;stroke:#ff0000;" x="1323.503182" xlink:href="#md2da4b8d7b" y="277.578646"/>
     <use style="fill:#ff0000;stroke:#ff0000;" x="1359.858963" xlink:href="#md2da4b8d7b" y="243.950988"/>
     <use style="fill:#ff0000;stroke:#ff0000;" x="663.03753" xlink:href="#md2da4b8d7b" y="396.085328"/>
     <use style="fill:#ff0000;stroke:#ff0000;" x="640.493227" xlink:href="#md2da4b8d7b" y="386.275459"/>
     <use style="fill:#ff0000;stroke:#ff0000;" x="788.700436" xlink:href="#md2da4b8d7b" y="192.509749"/>
     <use style="fill:#ff0000;stroke:#ff0000;" x="767.784552" xlink:href="#md2da4b8d7b" y="196.937881"/>
     <use style="fill:#ff0000;stroke:#ff0000;" x="569.08666" xlink:href="#md2da4b8d7b" y="225.712365"/>
     <use style="fill:#ff0000;stroke:#ff0000;" x="581.118751" xlink:href="#md2da4b8d7b" y="391.949364"/>
     <use style="fill:#ff0000;stroke:#ff0000;" x="569.968284" xlink:href="#md2da4b8d7b" y="396.1345"/>
     <use style="fill:#ff0000;stroke:#ff0000;" x="479.814677" xlink:href="#md2da4b8d7b" y="243.796346"/>
     <use style="fill:#ff0000;stroke:#ff0000;" x="415.867946" xlink:href="#md2da4b8d7b" y="265.965537"/>
     <use style="fill:#ff0000;stroke:#ff0000;" x="393.684487" xlink:href="#md2da4b8d7b" y="286.991409"/>
     <use style="fill:#ff0000;stroke:#ff0000;" x="394.00499" xlink:href="#md2da4b8d7b" y="299.027121"/>
     <use style="fill:#ff0000;stroke:#ff0000;" x="433.488228" xlink:href="#md2da4b8d7b" y="344.195786"/>
     <use style="fill:#ff0000;stroke:#ff0000;" x="399.514528" xlink:href="#md2da4b8d7b" y="365.40152"/>
     <use style="fill:#ff0000;stroke:#ff0000;" x="454.493287" xlink:href="#md2da4b8d7b" y="391.857927"/>
     <use style="fill:#ff0000;stroke:#ff0000;" x="446.110017" xlink:href="#md2da4b8d7b" y="413.588621"/>
     <use style="fill:#ff0000;stroke:#ff0000;" x="414.728873" xlink:href="#md2da4b8d7b" y="440.712544"/>
     <use style="fill:#ff0000;stroke:#ff0000;" x="394.933564" xlink:href="#md2da4b8d7b" y="447.064086"/>
     <use style="fill:#ff0000;stroke:#ff0000;" x="411.068141" xlink:href="#md2da4b8d7b" y="506.626754"/>
     <use style="fill:#ff0000;stroke:#ff0000;" x="438.370708" xlink:href="#md2da4b8d7b" y="502.303867"/>
     <use style="fill:#ff0000;stroke:#ff0000;" x="452.853498" xlink:href="#md2da4b8d7b" y="514.346762"/>
     <use style="fill:#ff0000;stroke:#ff0000;" x="467.826998" xlink:href="#md2da4b8d7b" y="512.115498"/>
     <use style="fill:#ff0000;stroke:#ff0000;" x="456.415022" xlink:href="#md2da4b8d7b" y="526.118163"/>
     <use style="fill:#ff0000;stroke:#ff0000;" x="471.460303" xlink:href="#md2da4b8d7b" y="538.276298"/>
     <use style="fill:#ff0000;stroke:#ff0000;" x="454.6485" xlink:href="#md2da4b8d7b" y="562.077447"/>
     <use style="fill:#ff0000;stroke:#ff0000;" x="460.489091" xlink:href="#md2da4b8d7b" y="578.914129"/>
     <use style="fill:#ff0000;stroke:#ff0000;" x="560.952175" xlink:href="#md2da4b8d7b" y="474.615925"/>
     <use style="fill:#ff0000;stroke:#ff0000;" x="581.472896" xlink:href="#md2da4b8d7b" y="491.492091"/>
     <use style="fill:#ff0000;stroke:#ff0000;" x="584.081681" xlink:href="#md2da4b8d7b" y="634.725485"/>
     <use style="fill:#ff0000;stroke:#ff0000;" x="594.927491" xlink:href="#md2da4b8d7b" y="642.487618"/>
     <use style="fill:#ff0000;stroke:#ff0000;" x="605.795928" xlink:href="#md2da4b8d7b" y="632.679332"/>
     <use style="fill:#ff0000;stroke:#ff0000;" x="629.91013" xlink:href="#md2da4b8d7b" y="642.943825"/>
     <use style="fill:#ff0000;stroke:#ff0000;" x="645.824249" xlink:href="#md2da4b8d7b" y="616.554943"/>
     <use style="fill:#ff0000;stroke:#ff0000;" x="661.38139" xlink:href="#md2da4b8d7b" y="631.375425"/>
     <use style="fill:#ff0000;stroke:#ff0000;" x="680.267347" xlink:href="#md2da4b8d7b" y="598.866374"/>
     <use style="fill:#ff0000;stroke:#ff0000;" x="702.415936" xlink:href="#md2da4b8d7b" y="599.588243"/>
     <use style="fill:#ff0000;stroke:#ff0000;" x="757.762365" xlink:href="#md2da4b8d7b" y="592.142659"/>
     <use style="fill:#ff0000;stroke:#ff0000;" x="809.144634" xlink:href="#md2da4b8d7b" y="582.92499"/>
     <use style="fill:#ff0000;stroke:#ff0000;" x="849.120007" xlink:href="#md2da4b8d7b" y="570.607748"/>
     <use style="fill:#ff0000;stroke:#ff0000;" x="875.259254" xlink:href="#md2da4b8d7b" y="571.629807"/>
     <use style="fill:#ff0000;stroke:#ff0000;" x="874.842606" xlink:href="#md2da4b8d7b" y="559.387243"/>
     <use style="fill:#ff0000;stroke:#ff0000;" x="894.88913" xlink:href="#md2da4b8d7b" y="556.010647"/>
     <use style="fill:#ff0000;stroke:#ff0000;" x="922.109685" xlink:href="#md2da4b8d7b" y="554.052042"/>
     <use style="fill:#ff0000;stroke:#ff0000;" x="1086.855684" xlink:href="#md2da4b8d7b" y="527.271453"/>
     <use style="fill:#ff0000;stroke:#ff0000;" x="1089.299082" xlink:href="#md2da4b8d7b" y="511.744351"/>
     <use style="fill:#ff0000;stroke:#ff0000;" x="1136.71761" xlink:href="#md2da4b8d7b" y="501.935995"/>
    </g>
   </g>
   <g id="line2d_38">
    <defs>
     <path d="M -0.5 0.5 
L 0.5 0.5 
L 0.5 -0.5 
L -0.5 -0.5 
z
" id="m78c161516e" style="stroke:#1f77b4;stroke-linejoin:miter;"/>
    </defs>
    <g clip-path="url(#p28070b54d0)">
     <use style="fill:#1f77b4;stroke:#1f77b4;stroke-linejoin:miter;" x="1203.546213" xlink:href="#m78c161516e" y="494.823992"/>
     <use style="fill:#1f77b4;stroke:#1f77b4;stroke-linejoin:miter;" x="1407.316312" xlink:href="#m78c161516e" y="489.57736"/>
     <use style="fill:#1f77b4;stroke:#1f77b4;stroke-linejoin:miter;" x="1390.804993" xlink:href="#m78c161516e" y="390.198083"/>
     <use style="fill:#1f77b4;stroke:#1f77b4;stroke-linejoin:miter;" x="1289.479407" xlink:href="#m78c161516e" y="352.356405"/>
     <use style="fill:#1f77b4;stroke:#1f77b4;stroke-linejoin:miter;" x="1260.983156" xlink:href="#m78c161516e" y="334.514471"/>
     <use style="fill:#1f77b4;stroke:#1f77b4;stroke-linejoin:miter;" x="1323.503182" xlink:href="#m78c161516e" y="277.578646"/>
     <use style="fill:#1f77b4;stroke:#1f77b4;stroke-linejoin:miter;" x="1359.858963" xlink:href="#m78c161516e" y="243.950988"/>
     <use style="fill:#1f77b4;stroke:#1f77b4;stroke-linejoin:miter;" x="663.03753" xlink:href="#m78c161516e" y="396.085328"/>
     <use style="fill:#1f77b4;stroke:#1f77b4;stroke-linejoin:miter;" x="648.876966" xlink:href="#m78c161516e" y="397.470708"/>
     <use style="fill:#1f77b4;stroke:#1f77b4;stroke-linejoin:miter;" x="645.015009" xlink:href="#m78c161516e" y="396.997919"/>
     <use style="fill:#1f77b4;stroke:#1f77b4;stroke-linejoin:miter;" x="643.584469" xlink:href="#m78c161516e" y="394.853048"/>
     <use style="fill:#1f77b4;stroke:#1f77b4;stroke-linejoin:miter;" x="642.755327" xlink:href="#m78c161516e" y="392.02931"/>
     <use style="fill:#1f77b4;stroke:#1f77b4;stroke-linejoin:miter;" x="640.455044" xlink:href="#m78c161516e" y="390.362066"/>
     <use style="fill:#1f77b4;stroke:#1f77b4;stroke-linejoin:miter;" x="640.493227" xlink:href="#m78c161516e" y="386.275459"/>
     <use style="fill:#1f77b4;stroke:#1f77b4;stroke-linejoin:miter;" x="788.700436" xlink:href="#m78c161516e" y="192.509749"/>
     <use style="fill:#1f77b4;stroke:#1f77b4;stroke-linejoin:miter;" x="767.784552" xlink:href="#m78c161516e" y="196.937881"/>
     <use style="fill:#1f77b4;stroke:#1f77b4;stroke-linejoin:miter;" x="750.219554" xlink:href="#m78c161516e" y="197.785609"/>
     <use style="fill:#1f77b4;stroke:#1f77b4;stroke-linejoin:miter;" x="732.576153" xlink:href="#m78c161516e" y="200.273715"/>
     <use style="fill:#1f77b4;stroke:#1f77b4;stroke-linejoin:miter;" x="715.745147" xlink:href="#m78c161516e" y="202.945135"/>
     <use style="fill:#1f77b4;stroke:#1f77b4;stroke-linejoin:miter;" x="699.818963" xlink:href="#m78c161516e" y="205.472862"/>
     <use style="fill:#1f77b4;stroke:#1f77b4;stroke-linejoin:miter;" x="684.53562" xlink:href="#m78c161516e" y="207.99601"/>
     <use style="fill:#1f77b4;stroke:#1f77b4;stroke-linejoin:miter;" x="669.693948" xlink:href="#m78c161516e" y="211.394495"/>
     <use style="fill:#1f77b4;stroke:#1f77b4;stroke-linejoin:miter;" x="656.286796" xlink:href="#m78c161516e" y="212.259884"/>
     <use style="fill:#1f77b4;stroke:#1f77b4;stroke-linejoin:miter;" x="642.888392" xlink:href="#m78c161516e" y="214.503024"/>
     <use style="fill:#1f77b4;stroke:#1f77b4;stroke-linejoin:miter;" x="630.117231" xlink:href="#m78c161516e" y="216.159189"/>
     <use style="fill:#1f77b4;stroke:#1f77b4;stroke-linejoin:miter;" x="616.748096" xlink:href="#m78c161516e" y="218.742724"/>
     <use style="fill:#1f77b4;stroke:#1f77b4;stroke-linejoin:miter;" x="604.696343" xlink:href="#m78c161516e" y="219.471548"/>
     <use style="fill:#1f77b4;stroke:#1f77b4;stroke-linejoin:miter;" x="592.498456" xlink:href="#m78c161516e" y="223.955907"/>
     <use style="fill:#1f77b4;stroke:#1f77b4;stroke-linejoin:miter;" x="580.733314" xlink:href="#m78c161516e" y="225.091646"/>
     <use style="fill:#1f77b4;stroke:#1f77b4;stroke-linejoin:miter;" x="569.08666" xlink:href="#m78c161516e" y="225.712365"/>
     <use style="fill:#1f77b4;stroke:#1f77b4;stroke-linejoin:miter;" x="581.118751" xlink:href="#m78c161516e" y="391.949364"/>
     <use style="fill:#1f77b4;stroke:#1f77b4;stroke-linejoin:miter;" x="579.091269" xlink:href="#m78c161516e" y="393.65149"/>
     <use style="fill:#1f77b4;stroke:#1f77b4;stroke-linejoin:miter;" x="577.074058" xlink:href="#m78c161516e" y="395.643456"/>
     <use style="fill:#1f77b4;stroke:#1f77b4;stroke-linejoin:miter;" x="575.14721" xlink:href="#m78c161516e" y="396.8858"/>
     <use style="fill:#1f77b4;stroke:#1f77b4;stroke-linejoin:miter;" x="572.813901" xlink:href="#m78c161516e" y="397.012394"/>
     <use style="fill:#1f77b4;stroke:#1f77b4;stroke-linejoin:miter;" x="569.968284" xlink:href="#m78c161516e" y="396.1345"/>
     <use style="fill:#1f77b4;stroke:#1f77b4;stroke-linejoin:miter;" x="479.814677" xlink:href="#m78c161516e" y="243.796346"/>
     <use style="fill:#1f77b4;stroke:#1f77b4;stroke-linejoin:miter;" x="468.336804" xlink:href="#m78c161516e" y="246.025981"/>
     <use style="fill:#1f77b4;stroke:#1f77b4;stroke-linejoin:miter;" x="456.334218" xlink:href="#m78c161516e" y="247.690301"/>
     <use style="fill:#1f77b4;stroke:#1f77b4;stroke-linejoin:miter;" x="444.421717" xlink:href="#m78c161516e" y="249.79637"/>
     <use style="fill:#1f77b4;stroke:#1f77b4;stroke-linejoin:miter;" x="431.827666" xlink:href="#m78c161516e" y="251.732782"/>
     <use style="fill:#1f77b4;stroke:#1f77b4;stroke-linejoin:miter;" x="417.647563" xlink:href="#m78c161516e" y="252.049261"/>
     <use style="fill:#1f77b4;stroke:#1f77b4;stroke-linejoin:miter;" x="415.867946" xlink:href="#m78c161516e" y="265.965537"/>
     <use style="fill:#1f77b4;stroke:#1f77b4;stroke-linejoin:miter;" x="400.016926" xlink:href="#m78c161516e" y="265.460423"/>
     <use style="fill:#1f77b4;stroke:#1f77b4;stroke-linejoin:miter;" x="392.338996" xlink:href="#m78c161516e" y="272.945973"/>
     <use style="fill:#1f77b4;stroke:#1f77b4;stroke-linejoin:miter;" x="393.684487" xlink:href="#m78c161516e" y="286.991409"/>
     <use style="fill:#1f77b4;stroke:#1f77b4;stroke-linejoin:miter;" x="394.00499" xlink:href="#m78c161516e" y="299.027121"/>
     <use style="fill:#1f77b4;stroke:#1f77b4;stroke-linejoin:miter;" x="433.488228" xlink:href="#m78c161516e" y="344.195786"/>
     <use style="fill:#1f77b4;stroke:#1f77b4;stroke-linejoin:miter;" x="420.630081" xlink:href="#m78c161516e" y="344.776491"/>
     <use style="fill:#1f77b4;stroke:#1f77b4;stroke-linejoin:miter;" x="421.266414" xlink:href="#m78c161516e" y="352.70352"/>
     <use style="fill:#1f77b4;stroke:#1f77b4;stroke-linejoin:miter;" x="414.651032" xlink:href="#m78c161516e" y="357.143615"/>
     <use style="fill:#1f77b4;stroke:#1f77b4;stroke-linejoin:miter;" x="408.738808" xlink:href="#m78c161516e" y="361.911037"/>
     <use style="fill:#1f77b4;stroke:#1f77b4;stroke-linejoin:miter;" x="399.514528" xlink:href="#m78c161516e" y="365.40152"/>
     <use style="fill:#1f77b4;stroke:#1f77b4;stroke-linejoin:miter;" x="454.493287" xlink:href="#m78c161516e" y="391.857927"/>
     <use style="fill:#1f77b4;stroke:#1f77b4;stroke-linejoin:miter;" x="455.533165" xlink:href="#m78c161516e" y="396.986019"/>
     <use style="fill:#1f77b4;stroke:#1f77b4;stroke-linejoin:miter;" x="456.799302" xlink:href="#m78c161516e" y="402.07115"/>
     <use style="fill:#1f77b4;stroke:#1f77b4;stroke-linejoin:miter;" x="458.169508" xlink:href="#m78c161516e" y="406.986981"/>
     <use style="fill:#1f77b4;stroke:#1f77b4;stroke-linejoin:miter;" x="457.390815" xlink:href="#m78c161516e" y="411.292241"/>
     <use style="fill:#1f77b4;stroke:#1f77b4;stroke-linejoin:miter;" x="446.110017" xlink:href="#m78c161516e" y="413.588621"/>
     <use style="fill:#1f77b4;stroke:#1f77b4;stroke-linejoin:miter;" x="428.569812" xlink:href="#m78c161516e" y="415.768162"/>
     <use style="fill:#1f77b4;stroke:#1f77b4;stroke-linejoin:miter;" x="426.010419" xlink:href="#m78c161516e" y="420.668547"/>
     <use style="fill:#1f77b4;stroke:#1f77b4;stroke-linejoin:miter;" x="417.907369" xlink:href="#m78c161516e" y="425.109979"/>
     <use style="fill:#1f77b4;stroke:#1f77b4;stroke-linejoin:miter;" x="419.271621" xlink:href="#m78c161516e" y="430.508522"/>
     <use style="fill:#1f77b4;stroke:#1f77b4;stroke-linejoin:miter;" x="420.352845" xlink:href="#m78c161516e" y="435.525213"/>
     <use style="fill:#1f77b4;stroke:#1f77b4;stroke-linejoin:miter;" x="414.728873" xlink:href="#m78c161516e" y="440.712544"/>
     <use style="fill:#1f77b4;stroke:#1f77b4;stroke-linejoin:miter;" x="394.933564" xlink:href="#m78c161516e" y="447.064086"/>
     <use style="fill:#1f77b4;stroke:#1f77b4;stroke-linejoin:miter;" x="397.011084" xlink:href="#m78c161516e" y="452.858235"/>
     <use style="fill:#1f77b4;stroke:#1f77b4;stroke-linejoin:miter;" x="398.281644" xlink:href="#m78c161516e" y="458.754126"/>
     <use style="fill:#1f77b4;stroke:#1f77b4;stroke-linejoin:miter;" x="400.976752" xlink:href="#m78c161516e" y="464.35664"/>
     <use style="fill:#1f77b4;stroke:#1f77b4;stroke-linejoin:miter;" x="404.044739" xlink:href="#m78c161516e" y="469.818722"/>
     <use style="fill:#1f77b4;stroke:#1f77b4;stroke-linejoin:miter;" x="404.41678" xlink:href="#m78c161516e" y="475.854898"/>
     <use style="fill:#1f77b4;stroke:#1f77b4;stroke-linejoin:miter;" x="404.172114" xlink:href="#m78c161516e" y="482.121384"/>
     <use style="fill:#1f77b4;stroke:#1f77b4;stroke-linejoin:miter;" x="406.442543" xlink:href="#m78c161516e" y="487.912497"/>
     <use style="fill:#1f77b4;stroke:#1f77b4;stroke-linejoin:miter;" x="407.78235" xlink:href="#m78c161516e" y="494.257632"/>
     <use style="fill:#1f77b4;stroke:#1f77b4;stroke-linejoin:miter;" x="407.61325" xlink:href="#m78c161516e" y="500.96787"/>
     <use style="fill:#1f77b4;stroke:#1f77b4;stroke-linejoin:miter;" x="411.068141" xlink:href="#m78c161516e" y="506.626754"/>
     <use style="fill:#1f77b4;stroke:#1f77b4;stroke-linejoin:miter;" x="438.370708" xlink:href="#m78c161516e" y="502.303867"/>
     <use style="fill:#1f77b4;stroke:#1f77b4;stroke-linejoin:miter;" x="431.897735" xlink:href="#m78c161516e" y="511.564211"/>
     <use style="fill:#1f77b4;stroke:#1f77b4;stroke-linejoin:miter;" x="435.541517" xlink:href="#m78c161516e" y="516.652045"/>
     <use style="fill:#1f77b4;stroke:#1f77b4;stroke-linejoin:miter;" x="452.853498" xlink:href="#m78c161516e" y="514.346762"/>
     <use style="fill:#1f77b4;stroke:#1f77b4;stroke-linejoin:miter;" x="467.826998" xlink:href="#m78c161516e" y="512.115498"/>
     <use style="fill:#1f77b4;stroke:#1f77b4;stroke-linejoin:miter;" x="456.415022" xlink:href="#m78c161516e" y="526.118163"/>
     <use style="fill:#1f77b4;stroke:#1f77b4;stroke-linejoin:miter;" x="457.072196" xlink:href="#m78c161516e" y="533.208852"/>
     <use style="fill:#1f77b4;stroke:#1f77b4;stroke-linejoin:miter;" x="464.131596" xlink:href="#m78c161516e" y="535.850348"/>
     <use style="fill:#1f77b4;stroke:#1f77b4;stroke-linejoin:miter;" x="471.460303" xlink:href="#m78c161516e" y="538.276298"/>
     <use style="fill:#1f77b4;stroke:#1f77b4;stroke-linejoin:miter;" x="454.6485" xlink:href="#m78c161516e" y="562.077447"/>
     <use style="fill:#1f77b4;stroke:#1f77b4;stroke-linejoin:miter;" x="460.489091" xlink:href="#m78c161516e" y="578.914129"/>
     <use style="fill:#1f77b4;stroke:#1f77b4;stroke-linejoin:miter;" x="560.952175" xlink:href="#m78c161516e" y="474.615925"/>
     <use style="fill:#1f77b4;stroke:#1f77b4;stroke-linejoin:miter;" x="563.212902" xlink:href="#m78c161516e" y="475.392703"/>
     <use style="fill:#1f77b4;stroke:#1f77b4;stroke-linejoin:miter;" x="565.509095" xlink:href="#m78c161516e" y="476.095755"/>
     <use style="fill:#1f77b4;stroke:#1f77b4;stroke-linejoin:miter;" x="567.756351" xlink:href="#m78c161516e" y="476.496485"/>
     <use style="fill:#1f77b4;stroke:#1f77b4;stroke-linejoin:miter;" x="569.704244" xlink:href="#m78c161516e" y="477.808415"/>
     <use style="fill:#1f77b4;stroke:#1f77b4;stroke-linejoin:miter;" x="571.596852" xlink:href="#m78c161516e" y="479.006458"/>
     <use style="fill:#1f77b4;stroke:#1f77b4;stroke-linejoin:miter;" x="573.27866" xlink:href="#m78c161516e" y="481.043057"/>
     <use style="fill:#1f77b4;stroke:#1f77b4;stroke-linejoin:miter;" x="575.404299" xlink:href="#m78c161516e" y="482.919939"/>
     <use style="fill:#1f77b4;stroke:#1f77b4;stroke-linejoin:miter;" x="577.436196" xlink:href="#m78c161516e" y="484.954041"/>
     <use style="fill:#1f77b4;stroke:#1f77b4;stroke-linejoin:miter;" x="579.464262" xlink:href="#m78c161516e" y="487.589062"/>
     <use style="fill:#1f77b4;stroke:#1f77b4;stroke-linejoin:miter;" x="581.472896" xlink:href="#m78c161516e" y="491.492091"/>
     <use style="fill:#1f77b4;stroke:#1f77b4;stroke-linejoin:miter;" x="584.081681" xlink:href="#m78c161516e" y="634.725485"/>
     <use style="fill:#1f77b4;stroke:#1f77b4;stroke-linejoin:miter;" x="594.927491" xlink:href="#m78c161516e" y="642.487618"/>
     <use style="fill:#1f77b4;stroke:#1f77b4;stroke-linejoin:miter;" x="605.795928" xlink:href="#m78c161516e" y="632.679332"/>
     <use style="fill:#1f77b4;stroke:#1f77b4;stroke-linejoin:miter;" x="618.019835" xlink:href="#m78c161516e" y="640.712393"/>
     <use style="fill:#1f77b4;stroke:#1f77b4;stroke-linejoin:miter;" x="629.91013" xlink:href="#m78c161516e" y="642.943825"/>
     <use style="fill:#1f77b4;stroke:#1f77b4;stroke-linejoin:miter;" x="645.824249" xlink:href="#m78c161516e" y="616.554943"/>
     <use style="fill:#1f77b4;stroke:#1f77b4;stroke-linejoin:miter;" x="661.38139" xlink:href="#m78c161516e" y="631.375425"/>
     <use style="fill:#1f77b4;stroke:#1f77b4;stroke-linejoin:miter;" x="680.267347" xlink:href="#m78c161516e" y="598.866374"/>
     <use style="fill:#1f77b4;stroke:#1f77b4;stroke-linejoin:miter;" x="690.511677" xlink:href="#m78c161516e" y="598.487312"/>
     <use style="fill:#1f77b4;stroke:#1f77b4;stroke-linejoin:miter;" x="702.415936" xlink:href="#m78c161516e" y="599.588243"/>
     <use style="fill:#1f77b4;stroke:#1f77b4;stroke-linejoin:miter;" x="757.762365" xlink:href="#m78c161516e" y="592.142659"/>
     <use style="fill:#1f77b4;stroke:#1f77b4;stroke-linejoin:miter;" x="765.203406" xlink:href="#m78c161516e" y="585.998272"/>
     <use style="fill:#1f77b4;stroke:#1f77b4;stroke-linejoin:miter;" x="780.957556" xlink:href="#m78c161516e" y="586.690107"/>
     <use style="fill:#1f77b4;stroke:#1f77b4;stroke-linejoin:miter;" x="792.7847" xlink:href="#m78c161516e" y="583.47252"/>
     <use style="fill:#1f77b4;stroke:#1f77b4;stroke-linejoin:miter;" x="809.144634" xlink:href="#m78c161516e" y="582.92499"/>
     <use style="fill:#1f77b4;stroke:#1f77b4;stroke-linejoin:miter;" x="833.153323" xlink:href="#m78c161516e" y="586.348151"/>
     <use style="fill:#1f77b4;stroke:#1f77b4;stroke-linejoin:miter;" x="849.120007" xlink:href="#m78c161516e" y="570.607748"/>
     <use style="fill:#1f77b4;stroke:#1f77b4;stroke-linejoin:miter;" x="875.259254" xlink:href="#m78c161516e" y="571.629807"/>
     <use style="fill:#1f77b4;stroke:#1f77b4;stroke-linejoin:miter;" x="874.842606" xlink:href="#m78c161516e" y="559.387243"/>
     <use style="fill:#1f77b4;stroke:#1f77b4;stroke-linejoin:miter;" x="894.88913" xlink:href="#m78c161516e" y="556.010647"/>
     <use style="fill:#1f77b4;stroke:#1f77b4;stroke-linejoin:miter;" x="922.109685" xlink:href="#m78c161516e" y="554.052042"/>
     <use style="fill:#1f77b4;stroke:#1f77b4;stroke-linejoin:miter;" x="1086.855684" xlink:href="#m78c161516e" y="527.271453"/>
     <use style="fill:#1f77b4;stroke:#1f77b4;stroke-linejoin:miter;" x="1089.299082" xlink:href="#m78c161516e" y="511.744351"/>
     <use style="fill:#1f77b4;stroke:#1f77b4;stroke-linejoin:miter;" x="1136.71761" xlink:href="#m78c161516e" y="501.935995"/>
    </g>
   </g>
   <g id="patch_3">
    <path d="M 144 768.96 
L 144 103.68 
" style="fill:none;stroke:#000000;stroke-linecap:square;stroke-linejoin:miter;stroke-width:0.8;"/>
   </g>
   <g id="patch_4">
    <path d="M 1036.8 768.96 
L 1036.8 103.68 
" style="fill:none;stroke:#000000;stroke-linecap:square;stroke-linejoin:miter;stroke-width:0.8;"/>
   </g>
   <g id="patch_5">
    <path d="M 144 768.96 
L 1036.8 768.96 
" style="fill:none;stroke:#000000;stroke-linecap:square;stroke-linejoin:miter;stroke-width:0.8;"/>
   </g>
   <g id="patch_6">
    <path d="M 144 103.68 
L 1036.8 103.68 
" style="fill:none;stroke:#000000;stroke-linecap:square;stroke-linejoin:miter;stroke-width:0.8;"/>
   </g>
  </g>
 </g>
 <defs>
  <clipPath id="p28070b54d0">
   <rect height="665.28" width="892.8" x="144" y="103.68"/>
  </clipPath>
 </defs>
</svg>
