<?xml version="1.0" encoding="utf-8" standalone="no"?>
<!DOCTYPE svg PUBLIC "-//W3C//DTD SVG 1.1//EN"
  "http://www.w3.org/Graphics/SVG/1.1/DTD/svg11.dtd">
<!-- Created with matplotlib (http://matplotlib.org/) -->
<svg height="864pt" version="1.1" viewBox="0 0 1152 864" width="1152pt" xmlns="http://www.w3.org/2000/svg" xmlns:xlink="http://www.w3.org/1999/xlink">
 <defs>
  <style type="text/css">
*{stroke-linecap:butt;stroke-linejoin:round;}
  </style>
 </defs>
 <g id="figure_1">
  <g id="patch_1">
   <path d="M 0 864 
L 1152 864 
L 1152 0 
L 0 0 
z
" style="fill:#ffffff;"/>
  </g>
  <g id="axes_1">
   <g id="patch_2">
    <path d="M 144 768.96 
L 1036.8 768.96 
L 1036.8 103.68 
L 144 103.68 
z
" style="fill:#ffffff;"/>
   </g>
   <g id="matplotlib.axis_1">
    <g id="xtick_1">
     <g id="line2d_1">
      <defs>
       <path d="M 0 0 
L 0 3.5 
" id="m65207b5d55" style="stroke:#000000;stroke-width:0.8;"/>
      </defs>
      <g>
       <use style="stroke:#000000;stroke-width:0.8;" x="144" xlink:href="#m65207b5d55" y="768.96"/>
      </g>
     </g>
     <g id="text_1">
      <!-- −4000 -->
      <defs>
       <path d="M 10.59375 35.5 
L 73.1875 35.5 
L 73.1875 27.203125 
L 10.59375 27.203125 
z
" id="DejaVuSans-2212"/>
       <path d="M 37.796875 64.3125 
L 12.890625 25.390625 
L 37.796875 25.390625 
z
M 35.203125 72.90625 
L 47.609375 72.90625 
L 47.609375 25.390625 
L 58.015625 25.390625 
L 58.015625 17.1875 
L 47.609375 17.1875 
L 47.609375 0 
L 37.796875 0 
L 37.796875 17.1875 
L 4.890625 17.1875 
L 4.890625 26.703125 
z
" id="DejaVuSans-34"/>
       <path d="M 31.78125 66.40625 
Q 24.171875 66.40625 20.328125 58.90625 
Q 16.5 51.421875 16.5 36.375 
Q 16.5 21.390625 20.328125 13.890625 
Q 24.171875 6.390625 31.78125 6.390625 
Q 39.453125 6.390625 43.28125 13.890625 
Q 47.125 21.390625 47.125 36.375 
Q 47.125 51.421875 43.28125 58.90625 
Q 39.453125 66.40625 31.78125 66.40625 
z
M 31.78125 74.21875 
Q 44.046875 74.21875 50.515625 64.515625 
Q 56.984375 54.828125 56.984375 36.375 
Q 56.984375 17.96875 50.515625 8.265625 
Q 44.046875 -1.421875 31.78125 -1.421875 
Q 19.53125 -1.421875 13.0625 8.265625 
Q 6.59375 17.96875 6.59375 36.375 
Q 6.59375 54.828125 13.0625 64.515625 
Q 19.53125 74.21875 31.78125 74.21875 
z
" id="DejaVuSans-30"/>
      </defs>
      <g transform="translate(127.085156 783.558437)scale(0.1 -0.1)">
       <use xlink:href="#DejaVuSans-2212"/>
       <use x="83.789062" xlink:href="#DejaVuSans-34"/>
       <use x="147.412109" xlink:href="#DejaVuSans-30"/>
       <use x="211.035156" xlink:href="#DejaVuSans-30"/>
       <use x="274.658203" xlink:href="#DejaVuSans-30"/>
      </g>
     </g>
    </g>
    <g id="xtick_2">
     <g id="line2d_2">
      <g>
       <use style="stroke:#000000;stroke-width:0.8;" x="255.6" xlink:href="#m65207b5d55" y="768.96"/>
      </g>
     </g>
     <g id="text_2">
      <!-- −3000 -->
      <defs>
       <path d="M 40.578125 39.3125 
Q 47.65625 37.796875 51.625 33 
Q 55.609375 28.21875 55.609375 21.1875 
Q 55.609375 10.40625 48.1875 4.484375 
Q 40.765625 -1.421875 27.09375 -1.421875 
Q 22.515625 -1.421875 17.65625 -0.515625 
Q 12.796875 0.390625 7.625 2.203125 
L 7.625 11.71875 
Q 11.71875 9.328125 16.59375 8.109375 
Q 21.484375 6.890625 26.8125 6.890625 
Q 36.078125 6.890625 40.9375 10.546875 
Q 45.796875 14.203125 45.796875 21.1875 
Q 45.796875 27.640625 41.28125 31.265625 
Q 36.765625 34.90625 28.71875 34.90625 
L 20.21875 34.90625 
L 20.21875 43.015625 
L 29.109375 43.015625 
Q 36.375 43.015625 40.234375 45.921875 
Q 44.09375 48.828125 44.09375 54.296875 
Q 44.09375 59.90625 40.109375 62.90625 
Q 36.140625 65.921875 28.71875 65.921875 
Q 24.65625 65.921875 20.015625 65.03125 
Q 15.375 64.15625 9.8125 62.3125 
L 9.8125 71.09375 
Q 15.4375 72.65625 20.34375 73.4375 
Q 25.25 74.21875 29.59375 74.21875 
Q 40.828125 74.21875 47.359375 69.109375 
Q 53.90625 64.015625 53.90625 55.328125 
Q 53.90625 49.265625 50.4375 45.09375 
Q 46.96875 40.921875 40.578125 39.3125 
z
" id="DejaVuSans-33"/>
      </defs>
      <g transform="translate(238.685156 783.558437)scale(0.1 -0.1)">
       <use xlink:href="#DejaVuSans-2212"/>
       <use x="83.789062" xlink:href="#DejaVuSans-33"/>
       <use x="147.412109" xlink:href="#DejaVuSans-30"/>
       <use x="211.035156" xlink:href="#DejaVuSans-30"/>
       <use x="274.658203" xlink:href="#DejaVuSans-30"/>
      </g>
     </g>
    </g>
    <g id="xtick_3">
     <g id="line2d_3">
      <g>
       <use style="stroke:#000000;stroke-width:0.8;" x="367.2" xlink:href="#m65207b5d55" y="768.96"/>
      </g>
     </g>
     <g id="text_3">
      <!-- −2000 -->
      <defs>
       <path d="M 19.1875 8.296875 
L 53.609375 8.296875 
L 53.609375 0 
L 7.328125 0 
L 7.328125 8.296875 
Q 12.9375 14.109375 22.625 23.890625 
Q 32.328125 33.6875 34.8125 36.53125 
Q 39.546875 41.84375 41.421875 45.53125 
Q 43.3125 49.21875 43.3125 52.78125 
Q 43.3125 58.59375 39.234375 62.25 
Q 35.15625 65.921875 28.609375 65.921875 
Q 23.96875 65.921875 18.8125 64.3125 
Q 13.671875 62.703125 7.8125 59.421875 
L 7.8125 69.390625 
Q 13.765625 71.78125 18.9375 73 
Q 24.125 74.21875 28.421875 74.21875 
Q 39.75 74.21875 46.484375 68.546875 
Q 53.21875 62.890625 53.21875 53.421875 
Q 53.21875 48.921875 51.53125 44.890625 
Q 49.859375 40.875 45.40625 35.40625 
Q 44.1875 33.984375 37.640625 27.21875 
Q 31.109375 20.453125 19.1875 8.296875 
z
" id="DejaVuSans-32"/>
      </defs>
      <g transform="translate(350.285156 783.558437)scale(0.1 -0.1)">
       <use xlink:href="#DejaVuSans-2212"/>
       <use x="83.789062" xlink:href="#DejaVuSans-32"/>
       <use x="147.412109" xlink:href="#DejaVuSans-30"/>
       <use x="211.035156" xlink:href="#DejaVuSans-30"/>
       <use x="274.658203" xlink:href="#DejaVuSans-30"/>
      </g>
     </g>
    </g>
    <g id="xtick_4">
     <g id="line2d_4">
      <g>
       <use style="stroke:#000000;stroke-width:0.8;" x="478.8" xlink:href="#m65207b5d55" y="768.96"/>
      </g>
     </g>
     <g id="text_4">
      <!-- −1000 -->
      <defs>
       <path d="M 12.40625 8.296875 
L 28.515625 8.296875 
L 28.515625 63.921875 
L 10.984375 60.40625 
L 10.984375 69.390625 
L 28.421875 72.90625 
L 38.28125 72.90625 
L 38.28125 8.296875 
L 54.390625 8.296875 
L 54.390625 0 
L 12.40625 0 
z
" id="DejaVuSans-31"/>
      </defs>
      <g transform="translate(461.885156 783.558437)scale(0.1 -0.1)">
       <use xlink:href="#DejaVuSans-2212"/>
       <use x="83.789062" xlink:href="#DejaVuSans-31"/>
       <use x="147.412109" xlink:href="#DejaVuSans-30"/>
       <use x="211.035156" xlink:href="#DejaVuSans-30"/>
       <use x="274.658203" xlink:href="#DejaVuSans-30"/>
      </g>
     </g>
    </g>
    <g id="xtick_5">
     <g id="line2d_5">
      <g>
       <use style="stroke:#000000;stroke-width:0.8;" x="590.4" xlink:href="#m65207b5d55" y="768.96"/>
      </g>
     </g>
     <g id="text_5">
      <!-- 0 -->
      <g transform="translate(587.21875 783.558437)scale(0.1 -0.1)">
       <use xlink:href="#DejaVuSans-30"/>
      </g>
     </g>
    </g>
    <g id="xtick_6">
     <g id="line2d_6">
      <g>
       <use style="stroke:#000000;stroke-width:0.8;" x="702" xlink:href="#m65207b5d55" y="768.96"/>
      </g>
     </g>
     <g id="text_6">
      <!-- 1000 -->
      <g transform="translate(689.275 783.558437)scale(0.1 -0.1)">
       <use xlink:href="#DejaVuSans-31"/>
       <use x="63.623047" xlink:href="#DejaVuSans-30"/>
       <use x="127.246094" xlink:href="#DejaVuSans-30"/>
       <use x="190.869141" xlink:href="#DejaVuSans-30"/>
      </g>
     </g>
    </g>
    <g id="xtick_7">
     <g id="line2d_7">
      <g>
       <use style="stroke:#000000;stroke-width:0.8;" x="813.6" xlink:href="#m65207b5d55" y="768.96"/>
      </g>
     </g>
     <g id="text_7">
      <!-- 2000 -->
      <g transform="translate(800.875 783.558437)scale(0.1 -0.1)">
       <use xlink:href="#DejaVuSans-32"/>
       <use x="63.623047" xlink:href="#DejaVuSans-30"/>
       <use x="127.246094" xlink:href="#DejaVuSans-30"/>
       <use x="190.869141" xlink:href="#DejaVuSans-30"/>
      </g>
     </g>
    </g>
    <g id="xtick_8">
     <g id="line2d_8">
      <g>
       <use style="stroke:#000000;stroke-width:0.8;" x="925.2" xlink:href="#m65207b5d55" y="768.96"/>
      </g>
     </g>
     <g id="text_8">
      <!-- 3000 -->
      <g transform="translate(912.475 783.558437)scale(0.1 -0.1)">
       <use xlink:href="#DejaVuSans-33"/>
       <use x="63.623047" xlink:href="#DejaVuSans-30"/>
       <use x="127.246094" xlink:href="#DejaVuSans-30"/>
       <use x="190.869141" xlink:href="#DejaVuSans-30"/>
      </g>
     </g>
    </g>
    <g id="xtick_9">
     <g id="line2d_9">
      <g>
       <use style="stroke:#000000;stroke-width:0.8;" x="1036.8" xlink:href="#m65207b5d55" y="768.96"/>
      </g>
     </g>
     <g id="text_9">
      <!-- 4000 -->
      <g transform="translate(1024.075 783.558437)scale(0.1 -0.1)">
       <use xlink:href="#DejaVuSans-34"/>
       <use x="63.623047" xlink:href="#DejaVuSans-30"/>
       <use x="127.246094" xlink:href="#DejaVuSans-30"/>
       <use x="190.869141" xlink:href="#DejaVuSans-30"/>
      </g>
     </g>
    </g>
   </g>
   <g id="matplotlib.axis_2">
    <g id="ytick_1">
     <g id="line2d_10">
      <defs>
       <path d="M 0 0 
L -3.5 0 
" id="m4000450e28" style="stroke:#000000;stroke-width:0.8;"/>
      </defs>
      <g>
       <use style="stroke:#000000;stroke-width:0.8;" x="144" xlink:href="#m4000450e28" y="768.96"/>
      </g>
     </g>
     <g id="text_10">
      <!-- −4000 -->
      <g transform="translate(103.170312 772.759219)scale(0.1 -0.1)">
       <use xlink:href="#DejaVuSans-2212"/>
       <use x="83.789062" xlink:href="#DejaVuSans-34"/>
       <use x="147.412109" xlink:href="#DejaVuSans-30"/>
       <use x="211.035156" xlink:href="#DejaVuSans-30"/>
       <use x="274.658203" xlink:href="#DejaVuSans-30"/>
      </g>
     </g>
    </g>
    <g id="ytick_2">
     <g id="line2d_11">
      <g>
       <use style="stroke:#000000;stroke-width:0.8;" x="144" xlink:href="#m4000450e28" y="685.8"/>
      </g>
     </g>
     <g id="text_11">
      <!-- −3000 -->
      <g transform="translate(103.170312 689.599219)scale(0.1 -0.1)">
       <use xlink:href="#DejaVuSans-2212"/>
       <use x="83.789062" xlink:href="#DejaVuSans-33"/>
       <use x="147.412109" xlink:href="#DejaVuSans-30"/>
       <use x="211.035156" xlink:href="#DejaVuSans-30"/>
       <use x="274.658203" xlink:href="#DejaVuSans-30"/>
      </g>
     </g>
    </g>
    <g id="ytick_3">
     <g id="line2d_12">
      <g>
       <use style="stroke:#000000;stroke-width:0.8;" x="144" xlink:href="#m4000450e28" y="602.64"/>
      </g>
     </g>
     <g id="text_12">
      <!-- −2000 -->
      <g transform="translate(103.170312 606.439219)scale(0.1 -0.1)">
       <use xlink:href="#DejaVuSans-2212"/>
       <use x="83.789062" xlink:href="#DejaVuSans-32"/>
       <use x="147.412109" xlink:href="#DejaVuSans-30"/>
       <use x="211.035156" xlink:href="#DejaVuSans-30"/>
       <use x="274.658203" xlink:href="#DejaVuSans-30"/>
      </g>
     </g>
    </g>
    <g id="ytick_4">
     <g id="line2d_13">
      <g>
       <use style="stroke:#000000;stroke-width:0.8;" x="144" xlink:href="#m4000450e28" y="519.48"/>
      </g>
     </g>
     <g id="text_13">
      <!-- −1000 -->
      <g transform="translate(103.170312 523.279219)scale(0.1 -0.1)">
       <use xlink:href="#DejaVuSans-2212"/>
       <use x="83.789062" xlink:href="#DejaVuSans-31"/>
       <use x="147.412109" xlink:href="#DejaVuSans-30"/>
       <use x="211.035156" xlink:href="#DejaVuSans-30"/>
       <use x="274.658203" xlink:href="#DejaVuSans-30"/>
      </g>
     </g>
    </g>
    <g id="ytick_5">
     <g id="line2d_14">
      <g>
       <use style="stroke:#000000;stroke-width:0.8;" x="144" xlink:href="#m4000450e28" y="436.32"/>
      </g>
     </g>
     <g id="text_14">
      <!-- 0 -->
      <g transform="translate(130.6375 440.119219)scale(0.1 -0.1)">
       <use xlink:href="#DejaVuSans-30"/>
      </g>
     </g>
    </g>
    <g id="ytick_6">
     <g id="line2d_15">
      <g>
       <use style="stroke:#000000;stroke-width:0.8;" x="144" xlink:href="#m4000450e28" y="353.16"/>
      </g>
     </g>
     <g id="text_15">
      <!-- 1000 -->
      <g transform="translate(111.55 356.959219)scale(0.1 -0.1)">
       <use xlink:href="#DejaVuSans-31"/>
       <use x="63.623047" xlink:href="#DejaVuSans-30"/>
       <use x="127.246094" xlink:href="#DejaVuSans-30"/>
       <use x="190.869141" xlink:href="#DejaVuSans-30"/>
      </g>
     </g>
    </g>
    <g id="ytick_7">
     <g id="line2d_16">
      <g>
       <use style="stroke:#000000;stroke-width:0.8;" x="144" xlink:href="#m4000450e28" y="270"/>
      </g>
     </g>
     <g id="text_16">
      <!-- 2000 -->
      <g transform="translate(111.55 273.799219)scale(0.1 -0.1)">
       <use xlink:href="#DejaVuSans-32"/>
       <use x="63.623047" xlink:href="#DejaVuSans-30"/>
       <use x="127.246094" xlink:href="#DejaVuSans-30"/>
       <use x="190.869141" xlink:href="#DejaVuSans-30"/>
      </g>
     </g>
    </g>
    <g id="ytick_8">
     <g id="line2d_17">
      <g>
       <use style="stroke:#000000;stroke-width:0.8;" x="144" xlink:href="#m4000450e28" y="186.84"/>
      </g>
     </g>
     <g id="text_17">
      <!-- 3000 -->
      <g transform="translate(111.55 190.639219)scale(0.1 -0.1)">
       <use xlink:href="#DejaVuSans-33"/>
       <use x="63.623047" xlink:href="#DejaVuSans-30"/>
       <use x="127.246094" xlink:href="#DejaVuSans-30"/>
       <use x="190.869141" xlink:href="#DejaVuSans-30"/>
      </g>
     </g>
    </g>
    <g id="ytick_9">
     <g id="line2d_18">
      <g>
       <use style="stroke:#000000;stroke-width:0.8;" x="144" xlink:href="#m4000450e28" y="103.68"/>
      </g>
     </g>
     <g id="text_18">
      <!-- 4000 -->
      <g transform="translate(111.55 107.479219)scale(0.1 -0.1)">
       <use xlink:href="#DejaVuSans-34"/>
       <use x="63.623047" xlink:href="#DejaVuSans-30"/>
       <use x="127.246094" xlink:href="#DejaVuSans-30"/>
       <use x="190.869141" xlink:href="#DejaVuSans-30"/>
      </g>
     </g>
    </g>
   </g>
   <g id="line2d_19">
    <path clip-path="url(#pa39cecf825)" d="M 590.4 768.96 
L 590.4 103.68 
" style="fill:none;stroke:#1f77b4;stroke-linecap:square;stroke-width:1.5;"/>
   </g>
   <g id="line2d_20">
    <path clip-path="url(#pa39cecf825)" d="M 144 436.32 
L 1036.8 436.32 
" style="fill:none;stroke:#1f77b4;stroke-linecap:square;stroke-width:1.5;"/>
   </g>
   <g id="line2d_21">
    <defs>
     <path d="M 0 3 
C 0.795609 3 1.55874 2.683901 2.12132 2.12132 
C 2.683901 1.55874 3 0.795609 3 0 
C 3 -0.795609 2.683901 -1.55874 2.12132 -2.12132 
C 1.55874 -2.683901 0.795609 -3 0 -3 
C -0.795609 -3 -1.55874 -2.683901 -2.12132 -2.12132 
C -2.683901 -1.55874 -3 -0.795609 -3 0 
C -3 0.795609 -2.683901 1.55874 -2.12132 2.12132 
C -1.55874 2.683901 -0.795609 3 0 3 
z
" id="m3f7e61cbc4" style="stroke:#008000;"/>
    </defs>
    <g clip-path="url(#pa39cecf825)">
     <use style="fill:#008000;stroke:#008000;" x="1257.915894" xlink:href="#m3f7e61cbc4" y="336.533236"/>
    </g>
   </g>
   <g id="line2d_22">
    <g clip-path="url(#pa39cecf825)">
     <use style="fill:#008000;stroke:#008000;" x="874.453036" xlink:href="#m3f7e61cbc4" y="304.778071"/>
    </g>
   </g>
   <g id="line2d_23">
    <g clip-path="url(#pa39cecf825)">
     <use style="fill:#008000;stroke:#008000;" x="648.636525" xlink:href="#m3f7e61cbc4" y="390.715275"/>
    </g>
   </g>
   <g id="line2d_24">
    <g clip-path="url(#pa39cecf825)">
     <use style="fill:#008000;stroke:#008000;" x="648.636525" xlink:href="#m3f7e61cbc4" y="390.715275"/>
    </g>
   </g>
   <g id="line2d_25">
    <g clip-path="url(#pa39cecf825)">
     <use style="fill:#008000;stroke:#008000;" x="791.462521" xlink:href="#m3f7e61cbc4" y="195.383397"/>
    </g>
   </g>
   <g id="line2d_26">
    <g clip-path="url(#pa39cecf825)">
     <use style="fill:#008000;stroke:#008000;" x="455.98544" xlink:href="#m3f7e61cbc4" y="513.938122"/>
    </g>
   </g>
   <g id="line2d_27">
    <g clip-path="url(#pa39cecf825)">
     <use style="fill:#008000;stroke:#008000;" x="457.115843" xlink:href="#m3f7e61cbc4" y="581.591418"/>
    </g>
   </g>
   <g id="line2d_28">
    <g clip-path="url(#pa39cecf825)">
     <use style="fill:#008000;stroke:#008000;" x="573.138766" xlink:href="#m3f7e61cbc4" y="615.349008"/>
    </g>
   </g>
   <g id="line2d_29">
    <g clip-path="url(#pa39cecf825)">
     <use style="fill:#008000;stroke:#008000;" x="1080.964765" xlink:href="#m3f7e61cbc4" y="522.500792"/>
    </g>
   </g>
   <g id="line2d_30">
    <defs>
     <path d="M 0 1.333333 
C 0.353604 1.333333 0.692773 1.192845 0.942809 0.942809 
C 1.192845 0.692773 1.333333 0.353604 1.333333 0 
C 1.333333 -0.353604 1.192845 -0.692773 0.942809 -0.942809 
C 0.692773 -1.192845 0.353604 -1.333333 0 -1.333333 
C -0.353604 -1.333333 -0.692773 -1.192845 -0.942809 -0.942809 
C -1.192845 -0.692773 -1.333333 -0.353604 -1.333333 0 
C -1.333333 0.353604 -1.192845 0.692773 -0.942809 0.942809 
C -0.692773 1.192845 -0.353604 1.333333 0 1.333333 
z
" id="m27eb9c5d84" style="stroke:#ff0000;"/>
    </defs>
    <g clip-path="url(#pa39cecf825)">
     <use style="fill:#ff0000;stroke:#ff0000;" x="1399.973025" xlink:href="#m27eb9c5d84" y="509.556485"/>
     <use style="fill:#ff0000;stroke:#ff0000;" x="1410.851289" xlink:href="#m27eb9c5d84" y="488.799954"/>
     <use style="fill:#ff0000;stroke:#ff0000;" x="1257.915894" xlink:href="#m27eb9c5d84" y="336.533236"/>
     <use style="fill:#ff0000;stroke:#ff0000;" x="1322.712416" xlink:href="#m27eb9c5d84" y="286.26783"/>
     <use style="fill:#ff0000;stroke:#ff0000;" x="1318.4516" xlink:href="#m27eb9c5d84" y="266.403314"/>
     <use style="fill:#ff0000;stroke:#ff0000;" x="874.453036" xlink:href="#m27eb9c5d84" y="304.778071"/>
     <use style="fill:#ff0000;stroke:#ff0000;" x="652.592911" xlink:href="#m27eb9c5d84" y="398.244348"/>
     <use style="fill:#ff0000;stroke:#ff0000;" x="643.102054" xlink:href="#m27eb9c5d84" y="383.368471"/>
     <use style="fill:#ff0000;stroke:#ff0000;" x="791.462521" xlink:href="#m27eb9c5d84" y="195.383397"/>
     <use style="fill:#ff0000;stroke:#ff0000;" x="416.291943" xlink:href="#m27eb9c5d84" y="265.124442"/>
     <use style="fill:#ff0000;stroke:#ff0000;" x="392.936738" xlink:href="#m27eb9c5d84" y="290.7744"/>
     <use style="fill:#ff0000;stroke:#ff0000;" x="415.991606" xlink:href="#m27eb9c5d84" y="317.100949"/>
     <use style="fill:#ff0000;stroke:#ff0000;" x="433.342651" xlink:href="#m27eb9c5d84" y="343.695776"/>
     <use style="fill:#ff0000;stroke:#ff0000;" x="419.495722" xlink:href="#m27eb9c5d84" y="342.514303"/>
     <use style="fill:#ff0000;stroke:#ff0000;" x="407.074503" xlink:href="#m27eb9c5d84" y="363.062342"/>
     <use style="fill:#ff0000;stroke:#ff0000;" x="454.742218" xlink:href="#m27eb9c5d84" y="391.643118"/>
     <use style="fill:#ff0000;stroke:#ff0000;" x="442.338527" xlink:href="#m27eb9c5d84" y="413.622396"/>
     <use style="fill:#ff0000;stroke:#ff0000;" x="410.96833" xlink:href="#m27eb9c5d84" y="441.463752"/>
     <use style="fill:#ff0000;stroke:#ff0000;" x="395.001432" xlink:href="#m27eb9c5d84" y="446.900676"/>
     <use style="fill:#ff0000;stroke:#ff0000;" x="401.548281" xlink:href="#m27eb9c5d84" y="466.914579"/>
     <use style="fill:#ff0000;stroke:#ff0000;" x="437.370091" xlink:href="#m27eb9c5d84" y="465.777496"/>
     <use style="fill:#ff0000;stroke:#ff0000;" x="402.676125" xlink:href="#m27eb9c5d84" y="477.134024"/>
     <use style="fill:#ff0000;stroke:#ff0000;" x="449.065392" xlink:href="#m27eb9c5d84" y="514.919266"/>
     <use style="fill:#ff0000;stroke:#ff0000;" x="462.809615" xlink:href="#m27eb9c5d84" y="512.796754"/>
     <use style="fill:#ff0000;stroke:#ff0000;" x="471.049496" xlink:href="#m27eb9c5d84" y="537.898882"/>
     <use style="fill:#ff0000;stroke:#ff0000;" x="453.789469" xlink:href="#m27eb9c5d84" y="560.566999"/>
     <use style="fill:#ff0000;stroke:#ff0000;" x="451.61702" xlink:href="#m27eb9c5d84" y="581.890471"/>
     <use style="fill:#ff0000;stroke:#ff0000;" x="462.554626" xlink:href="#m27eb9c5d84" y="581.192722"/>
     <use style="fill:#ff0000;stroke:#ff0000;" x="543.343079" xlink:href="#m27eb9c5d84" y="501.239041"/>
     <use style="fill:#ff0000;stroke:#ff0000;" x="569.014898" xlink:href="#m27eb9c5d84" y="486.621212"/>
     <use style="fill:#ff0000;stroke:#ff0000;" x="576.205832" xlink:href="#m27eb9c5d84" y="488.162594"/>
     <use style="fill:#ff0000;stroke:#ff0000;" x="579.915673" xlink:href="#m27eb9c5d84" y="508.936219"/>
     <use style="fill:#ff0000;stroke:#ff0000;" x="568.699752" xlink:href="#m27eb9c5d84" y="616.614851"/>
     <use style="fill:#ff0000;stroke:#ff0000;" x="577.510695" xlink:href="#m27eb9c5d84" y="614.023031"/>
     <use style="fill:#ff0000;stroke:#ff0000;" x="585.211099" xlink:href="#m27eb9c5d84" y="635.991306"/>
     <use style="fill:#ff0000;stroke:#ff0000;" x="624.309108" xlink:href="#m27eb9c5d84" y="640.269874"/>
     <use style="fill:#ff0000;stroke:#ff0000;" x="631.01098" xlink:href="#m27eb9c5d84" y="625.052545"/>
     <use style="fill:#ff0000;stroke:#ff0000;" x="646.88106" xlink:href="#m27eb9c5d84" y="615.497201"/>
     <use style="fill:#ff0000;stroke:#ff0000;" x="662.045859" xlink:href="#m27eb9c5d84" y="633.201373"/>
     <use style="fill:#ff0000;stroke:#ff0000;" x="670.781103" xlink:href="#m27eb9c5d84" y="607.53826"/>
     <use style="fill:#ff0000;stroke:#ff0000;" x="671.677059" xlink:href="#m27eb9c5d84" y="591.310164"/>
     <use style="fill:#ff0000;stroke:#ff0000;" x="704.417932" xlink:href="#m27eb9c5d84" y="600.293492"/>
     <use style="fill:#ff0000;stroke:#ff0000;" x="755.654378" xlink:href="#m27eb9c5d84" y="597.618857"/>
     <use style="fill:#ff0000;stroke:#ff0000;" x="853.881137" xlink:href="#m27eb9c5d84" y="570.628233"/>
     <use style="fill:#ff0000;stroke:#ff0000;" x="876.858672" xlink:href="#m27eb9c5d84" y="571.653898"/>
     <use style="fill:#ff0000;stroke:#ff0000;" x="874.059796" xlink:href="#m27eb9c5d84" y="559.975226"/>
     <use style="fill:#ff0000;stroke:#ff0000;" x="892.502762" xlink:href="#m27eb9c5d84" y="557.753913"/>
     <use style="fill:#ff0000;stroke:#ff0000;" x="938.044858" xlink:href="#m27eb9c5d84" y="553.354278"/>
     <use style="fill:#ff0000;stroke:#ff0000;" x="960.788436" xlink:href="#m27eb9c5d84" y="549.585839"/>
     <use style="fill:#ff0000;stroke:#ff0000;" x="1078.391674" xlink:href="#m27eb9c5d84" y="528.670892"/>
     <use style="fill:#ff0000;stroke:#ff0000;" x="1083.397239" xlink:href="#m27eb9c5d84" y="516.292044"/>
     <use style="fill:#ff0000;stroke:#ff0000;" x="1114.019898" xlink:href="#m27eb9c5d84" y="507.09606"/>
    </g>
   </g>
   <g id="line2d_31">
    <defs>
     <path d="M -0.5 0.5 
L 0.5 0.5 
L 0.5 -0.5 
L -0.5 -0.5 
z
" id="m241c6f9dea" style="stroke:#1f77b4;stroke-linejoin:miter;"/>
    </defs>
    <g clip-path="url(#pa39cecf825)">
     <use style="fill:#1f77b4;stroke:#1f77b4;stroke-linejoin:miter;" x="1399.973025" xlink:href="#m241c6f9dea" y="509.556485"/>
     <use style="fill:#1f77b4;stroke:#1f77b4;stroke-linejoin:miter;" x="1410.851289" xlink:href="#m241c6f9dea" y="488.799954"/>
     <use style="fill:#1f77b4;stroke:#1f77b4;stroke-linejoin:miter;" x="1257.915894" xlink:href="#m241c6f9dea" y="336.533236"/>
     <use style="fill:#1f77b4;stroke:#1f77b4;stroke-linejoin:miter;" x="1322.712416" xlink:href="#m241c6f9dea" y="286.26783"/>
     <use style="fill:#1f77b4;stroke:#1f77b4;stroke-linejoin:miter;" x="1318.4516" xlink:href="#m241c6f9dea" y="266.403314"/>
     <use style="fill:#1f77b4;stroke:#1f77b4;stroke-linejoin:miter;" x="874.453036" xlink:href="#m241c6f9dea" y="304.778071"/>
     <use style="fill:#1f77b4;stroke:#1f77b4;stroke-linejoin:miter;" x="652.592911" xlink:href="#m241c6f9dea" y="398.244348"/>
     <use style="fill:#1f77b4;stroke:#1f77b4;stroke-linejoin:miter;" x="648.051704" xlink:href="#m241c6f9dea" y="398.249662"/>
     <use style="fill:#1f77b4;stroke:#1f77b4;stroke-linejoin:miter;" x="646.895316" xlink:href="#m241c6f9dea" y="396.326713"/>
     <use style="fill:#1f77b4;stroke:#1f77b4;stroke-linejoin:miter;" x="645.382975" xlink:href="#m241c6f9dea" y="394.559133"/>
     <use style="fill:#1f77b4;stroke:#1f77b4;stroke-linejoin:miter;" x="644.259897" xlink:href="#m241c6f9dea" y="392.449082"/>
     <use style="fill:#1f77b4;stroke:#1f77b4;stroke-linejoin:miter;" x="641.856171" xlink:href="#m241c6f9dea" y="391.20218"/>
     <use style="fill:#1f77b4;stroke:#1f77b4;stroke-linejoin:miter;" x="641.600462" xlink:href="#m241c6f9dea" y="388.248063"/>
     <use style="fill:#1f77b4;stroke:#1f77b4;stroke-linejoin:miter;" x="643.102054" xlink:href="#m241c6f9dea" y="383.368471"/>
     <use style="fill:#1f77b4;stroke:#1f77b4;stroke-linejoin:miter;" x="791.462521" xlink:href="#m241c6f9dea" y="195.383397"/>
     <use style="fill:#1f77b4;stroke:#1f77b4;stroke-linejoin:miter;" x="777.709456" xlink:href="#m241c6f9dea" y="193.804629"/>
     <use style="fill:#1f77b4;stroke:#1f77b4;stroke-linejoin:miter;" x="761.080221" xlink:href="#m241c6f9dea" y="196.174018"/>
     <use style="fill:#1f77b4;stroke:#1f77b4;stroke-linejoin:miter;" x="744.714729" xlink:href="#m241c6f9dea" y="199.080804"/>
     <use style="fill:#1f77b4;stroke:#1f77b4;stroke-linejoin:miter;" x="729.557237" xlink:href="#m241c6f9dea" y="201.525119"/>
     <use style="fill:#1f77b4;stroke:#1f77b4;stroke-linejoin:miter;" x="715.351208" xlink:href="#m241c6f9dea" y="203.678593"/>
     <use style="fill:#1f77b4;stroke:#1f77b4;stroke-linejoin:miter;" x="701.535302" xlink:href="#m241c6f9dea" y="205.862301"/>
     <use style="fill:#1f77b4;stroke:#1f77b4;stroke-linejoin:miter;" x="688.574294" xlink:href="#m241c6f9dea" y="207.566876"/>
     <use style="fill:#1f77b4;stroke:#1f77b4;stroke-linejoin:miter;" x="675.969938" xlink:href="#m241c6f9dea" y="209.995787"/>
     <use style="fill:#1f77b4;stroke:#1f77b4;stroke-linejoin:miter;" x="663.859013" xlink:href="#m241c6f9dea" y="211.559274"/>
     <use style="fill:#1f77b4;stroke:#1f77b4;stroke-linejoin:miter;" x="652.087521" xlink:href="#m241c6f9dea" y="213.188818"/>
     <use style="fill:#1f77b4;stroke:#1f77b4;stroke-linejoin:miter;" x="641.050049" xlink:href="#m241c6f9dea" y="214.497811"/>
     <use style="fill:#1f77b4;stroke:#1f77b4;stroke-linejoin:miter;" x="629.926464" xlink:href="#m241c6f9dea" y="216.30793"/>
     <use style="fill:#1f77b4;stroke:#1f77b4;stroke-linejoin:miter;" x="618.268603" xlink:href="#m241c6f9dea" y="218.785287"/>
     <use style="fill:#1f77b4;stroke:#1f77b4;stroke-linejoin:miter;" x="607.741052" xlink:href="#m241c6f9dea" y="219.220028"/>
     <use style="fill:#1f77b4;stroke:#1f77b4;stroke-linejoin:miter;" x="597.252206" xlink:href="#m241c6f9dea" y="223.595621"/>
     <use style="fill:#1f77b4;stroke:#1f77b4;stroke-linejoin:miter;" x="587.217861" xlink:href="#m241c6f9dea" y="224.254466"/>
     <use style="fill:#1f77b4;stroke:#1f77b4;stroke-linejoin:miter;" x="577.103558" xlink:href="#m241c6f9dea" y="225.242853"/>
     <use style="fill:#1f77b4;stroke:#1f77b4;stroke-linejoin:miter;" x="567.056856" xlink:href="#m241c6f9dea" y="226.290833"/>
     <use style="fill:#1f77b4;stroke:#1f77b4;stroke-linejoin:miter;" x="557.327473" xlink:href="#m241c6f9dea" y="229.069289"/>
     <use style="fill:#1f77b4;stroke:#1f77b4;stroke-linejoin:miter;" x="547.825859" xlink:href="#m241c6f9dea" y="231.317585"/>
     <use style="fill:#1f77b4;stroke:#1f77b4;stroke-linejoin:miter;" x="538.573127" xlink:href="#m241c6f9dea" y="234.40865"/>
     <use style="fill:#1f77b4;stroke:#1f77b4;stroke-linejoin:miter;" x="529.04498" xlink:href="#m241c6f9dea" y="236.046249"/>
     <use style="fill:#1f77b4;stroke:#1f77b4;stroke-linejoin:miter;" x="519.420004" xlink:href="#m241c6f9dea" y="237.626187"/>
     <use style="fill:#1f77b4;stroke:#1f77b4;stroke-linejoin:miter;" x="509.924064" xlink:href="#m241c6f9dea" y="239.406986"/>
     <use style="fill:#1f77b4;stroke:#1f77b4;stroke-linejoin:miter;" x="500.612979" xlink:href="#m241c6f9dea" y="240.973651"/>
     <use style="fill:#1f77b4;stroke:#1f77b4;stroke-linejoin:miter;" x="489.718743" xlink:href="#m241c6f9dea" y="240.557314"/>
     <use style="fill:#1f77b4;stroke:#1f77b4;stroke-linejoin:miter;" x="480.393817" xlink:href="#m241c6f9dea" y="242.912024"/>
     <use style="fill:#1f77b4;stroke:#1f77b4;stroke-linejoin:miter;" x="471.098161" xlink:href="#m241c6f9dea" y="245.675239"/>
     <use style="fill:#1f77b4;stroke:#1f77b4;stroke-linejoin:miter;" x="460.932548" xlink:href="#m241c6f9dea" y="247.361183"/>
     <use style="fill:#1f77b4;stroke:#1f77b4;stroke-linejoin:miter;" x="450.305741" xlink:href="#m241c6f9dea" y="248.353203"/>
     <use style="fill:#1f77b4;stroke:#1f77b4;stroke-linejoin:miter;" x="439.735222" xlink:href="#m241c6f9dea" y="249.932918"/>
     <use style="fill:#1f77b4;stroke:#1f77b4;stroke-linejoin:miter;" x="429.173133" xlink:href="#m241c6f9dea" y="251.871688"/>
     <use style="fill:#1f77b4;stroke:#1f77b4;stroke-linejoin:miter;" x="418.481603" xlink:href="#m241c6f9dea" y="253.999998"/>
     <use style="fill:#1f77b4;stroke:#1f77b4;stroke-linejoin:miter;" x="416.291943" xlink:href="#m241c6f9dea" y="265.124442"/>
     <use style="fill:#1f77b4;stroke:#1f77b4;stroke-linejoin:miter;" x="400.846988" xlink:href="#m241c6f9dea" y="262.959697"/>
     <use style="fill:#1f77b4;stroke:#1f77b4;stroke-linejoin:miter;" x="397.157595" xlink:href="#m241c6f9dea" y="272.032808"/>
     <use style="fill:#1f77b4;stroke:#1f77b4;stroke-linejoin:miter;" x="388.449888" xlink:href="#m241c6f9dea" y="276.524028"/>
     <use style="fill:#1f77b4;stroke:#1f77b4;stroke-linejoin:miter;" x="392.936738" xlink:href="#m241c6f9dea" y="290.7744"/>
     <use style="fill:#1f77b4;stroke:#1f77b4;stroke-linejoin:miter;" x="415.991606" xlink:href="#m241c6f9dea" y="317.100949"/>
     <use style="fill:#1f77b4;stroke:#1f77b4;stroke-linejoin:miter;" x="433.342651" xlink:href="#m241c6f9dea" y="343.695776"/>
     <use style="fill:#1f77b4;stroke:#1f77b4;stroke-linejoin:miter;" x="419.495722" xlink:href="#m241c6f9dea" y="342.514303"/>
     <use style="fill:#1f77b4;stroke:#1f77b4;stroke-linejoin:miter;" x="419.90823" xlink:href="#m241c6f9dea" y="356.064379"/>
     <use style="fill:#1f77b4;stroke:#1f77b4;stroke-linejoin:miter;" x="407.386981" xlink:href="#m241c6f9dea" y="356.689198"/>
     <use style="fill:#1f77b4;stroke:#1f77b4;stroke-linejoin:miter;" x="407.074503" xlink:href="#m241c6f9dea" y="363.062342"/>
     <use style="fill:#1f77b4;stroke:#1f77b4;stroke-linejoin:miter;" x="454.742218" xlink:href="#m241c6f9dea" y="391.643118"/>
     <use style="fill:#1f77b4;stroke:#1f77b4;stroke-linejoin:miter;" x="455.50751" xlink:href="#m241c6f9dea" y="396.18614"/>
     <use style="fill:#1f77b4;stroke:#1f77b4;stroke-linejoin:miter;" x="456.860878" xlink:href="#m241c6f9dea" y="400.623543"/>
     <use style="fill:#1f77b4;stroke:#1f77b4;stroke-linejoin:miter;" x="457.775338" xlink:href="#m241c6f9dea" y="404.8338"/>
     <use style="fill:#1f77b4;stroke:#1f77b4;stroke-linejoin:miter;" x="458.98077" xlink:href="#m241c6f9dea" y="409.018164"/>
     <use style="fill:#1f77b4;stroke:#1f77b4;stroke-linejoin:miter;" x="458.462453" xlink:href="#m241c6f9dea" y="412.745071"/>
     <use style="fill:#1f77b4;stroke:#1f77b4;stroke-linejoin:miter;" x="442.338527" xlink:href="#m241c6f9dea" y="413.622396"/>
     <use style="fill:#1f77b4;stroke:#1f77b4;stroke-linejoin:miter;" x="428.494833" xlink:href="#m241c6f9dea" y="415.724782"/>
     <use style="fill:#1f77b4;stroke:#1f77b4;stroke-linejoin:miter;" x="426.007134" xlink:href="#m241c6f9dea" y="419.886705"/>
     <use style="fill:#1f77b4;stroke:#1f77b4;stroke-linejoin:miter;" x="417.952162" xlink:href="#m241c6f9dea" y="423.628327"/>
     <use style="fill:#1f77b4;stroke:#1f77b4;stroke-linejoin:miter;" x="419.31948" xlink:href="#m241c6f9dea" y="428.313437"/>
     <use style="fill:#1f77b4;stroke:#1f77b4;stroke-linejoin:miter;" x="420.244132" xlink:href="#m241c6f9dea" y="432.895987"/>
     <use style="fill:#1f77b4;stroke:#1f77b4;stroke-linejoin:miter;" x="420.685916" xlink:href="#m241c6f9dea" y="436.871808"/>
     <use style="fill:#1f77b4;stroke:#1f77b4;stroke-linejoin:miter;" x="410.96833" xlink:href="#m241c6f9dea" y="441.463752"/>
     <use style="fill:#1f77b4;stroke:#1f77b4;stroke-linejoin:miter;" x="395.001432" xlink:href="#m241c6f9dea" y="446.900676"/>
     <use style="fill:#1f77b4;stroke:#1f77b4;stroke-linejoin:miter;" x="395.887684" xlink:href="#m241c6f9dea" y="451.913895"/>
     <use style="fill:#1f77b4;stroke:#1f77b4;stroke-linejoin:miter;" x="398.029561" xlink:href="#m241c6f9dea" y="456.944697"/>
     <use style="fill:#1f77b4;stroke:#1f77b4;stroke-linejoin:miter;" x="400.04694" xlink:href="#m241c6f9dea" y="461.92958"/>
     <use style="fill:#1f77b4;stroke:#1f77b4;stroke-linejoin:miter;" x="401.548281" xlink:href="#m241c6f9dea" y="466.914579"/>
     <use style="fill:#1f77b4;stroke:#1f77b4;stroke-linejoin:miter;" x="437.370091" xlink:href="#m241c6f9dea" y="465.777496"/>
     <use style="fill:#1f77b4;stroke:#1f77b4;stroke-linejoin:miter;" x="402.676125" xlink:href="#m241c6f9dea" y="477.134024"/>
     <use style="fill:#1f77b4;stroke:#1f77b4;stroke-linejoin:miter;" x="404.579305" xlink:href="#m241c6f9dea" y="481.979368"/>
     <use style="fill:#1f77b4;stroke:#1f77b4;stroke-linejoin:miter;" x="407.035758" xlink:href="#m241c6f9dea" y="486.897058"/>
     <use style="fill:#1f77b4;stroke:#1f77b4;stroke-linejoin:miter;" x="407.838508" xlink:href="#m241c6f9dea" y="492.147824"/>
     <use style="fill:#1f77b4;stroke:#1f77b4;stroke-linejoin:miter;" x="408.961142" xlink:href="#m241c6f9dea" y="497.801209"/>
     <use style="fill:#1f77b4;stroke:#1f77b4;stroke-linejoin:miter;" x="408.629269" xlink:href="#m241c6f9dea" y="503.667757"/>
     <use style="fill:#1f77b4;stroke:#1f77b4;stroke-linejoin:miter;" x="411.675289" xlink:href="#m241c6f9dea" y="508.489139"/>
     <use style="fill:#1f77b4;stroke:#1f77b4;stroke-linejoin:miter;" x="432.576302" xlink:href="#m241c6f9dea" y="511.467718"/>
     <use style="fill:#1f77b4;stroke:#1f77b4;stroke-linejoin:miter;" x="434.678261" xlink:href="#m241c6f9dea" y="516.490614"/>
     <use style="fill:#1f77b4;stroke:#1f77b4;stroke-linejoin:miter;" x="449.065392" xlink:href="#m241c6f9dea" y="514.919266"/>
     <use style="fill:#1f77b4;stroke:#1f77b4;stroke-linejoin:miter;" x="462.809615" xlink:href="#m241c6f9dea" y="512.796754"/>
     <use style="fill:#1f77b4;stroke:#1f77b4;stroke-linejoin:miter;" x="457.728932" xlink:href="#m241c6f9dea" y="521.504384"/>
     <use style="fill:#1f77b4;stroke:#1f77b4;stroke-linejoin:miter;" x="456.390621" xlink:href="#m241c6f9dea" y="528.628342"/>
     <use style="fill:#1f77b4;stroke:#1f77b4;stroke-linejoin:miter;" x="457.347835" xlink:href="#m241c6f9dea" y="534.60387"/>
     <use style="fill:#1f77b4;stroke:#1f77b4;stroke-linejoin:miter;" x="465.197844" xlink:href="#m241c6f9dea" y="535.713382"/>
     <use style="fill:#1f77b4;stroke:#1f77b4;stroke-linejoin:miter;" x="471.049496" xlink:href="#m241c6f9dea" y="537.898882"/>
     <use style="fill:#1f77b4;stroke:#1f77b4;stroke-linejoin:miter;" x="453.789469" xlink:href="#m241c6f9dea" y="560.566999"/>
     <use style="fill:#1f77b4;stroke:#1f77b4;stroke-linejoin:miter;" x="451.61702" xlink:href="#m241c6f9dea" y="581.890471"/>
     <use style="fill:#1f77b4;stroke:#1f77b4;stroke-linejoin:miter;" x="462.554626" xlink:href="#m241c6f9dea" y="581.192722"/>
     <use style="fill:#1f77b4;stroke:#1f77b4;stroke-linejoin:miter;" x="543.343079" xlink:href="#m241c6f9dea" y="501.239041"/>
     <use style="fill:#1f77b4;stroke:#1f77b4;stroke-linejoin:miter;" x="549.937617" xlink:href="#m241c6f9dea" y="497.460183"/>
     <use style="fill:#1f77b4;stroke:#1f77b4;stroke-linejoin:miter;" x="554.568187" xlink:href="#m241c6f9dea" y="496.027143"/>
     <use style="fill:#1f77b4;stroke:#1f77b4;stroke-linejoin:miter;" x="558.122414" xlink:href="#m241c6f9dea" y="495.664348"/>
     <use style="fill:#1f77b4;stroke:#1f77b4;stroke-linejoin:miter;" x="562.282691" xlink:href="#m241c6f9dea" y="493.982791"/>
     <use style="fill:#1f77b4;stroke:#1f77b4;stroke-linejoin:miter;" x="569.014898" xlink:href="#m241c6f9dea" y="486.621212"/>
     <use style="fill:#1f77b4;stroke:#1f77b4;stroke-linejoin:miter;" x="571.722372" xlink:href="#m241c6f9dea" y="486.61263"/>
     <use style="fill:#1f77b4;stroke:#1f77b4;stroke-linejoin:miter;" x="574.154439" xlink:href="#m241c6f9dea" y="486.502087"/>
     <use style="fill:#1f77b4;stroke:#1f77b4;stroke-linejoin:miter;" x="576.205832" xlink:href="#m241c6f9dea" y="488.162594"/>
     <use style="fill:#1f77b4;stroke:#1f77b4;stroke-linejoin:miter;" x="579.915673" xlink:href="#m241c6f9dea" y="508.936219"/>
     <use style="fill:#1f77b4;stroke:#1f77b4;stroke-linejoin:miter;" x="568.699752" xlink:href="#m241c6f9dea" y="616.614851"/>
     <use style="fill:#1f77b4;stroke:#1f77b4;stroke-linejoin:miter;" x="577.510695" xlink:href="#m241c6f9dea" y="614.023031"/>
     <use style="fill:#1f77b4;stroke:#1f77b4;stroke-linejoin:miter;" x="585.211099" xlink:href="#m241c6f9dea" y="635.991306"/>
     <use style="fill:#1f77b4;stroke:#1f77b4;stroke-linejoin:miter;" x="594.639316" xlink:href="#m241c6f9dea" y="643.156378"/>
     <use style="fill:#1f77b4;stroke:#1f77b4;stroke-linejoin:miter;" x="604.082917" xlink:href="#m241c6f9dea" y="638.245497"/>
     <use style="fill:#1f77b4;stroke:#1f77b4;stroke-linejoin:miter;" x="614.038574" xlink:href="#m241c6f9dea" y="636.398309"/>
     <use style="fill:#1f77b4;stroke:#1f77b4;stroke-linejoin:miter;" x="624.309108" xlink:href="#m241c6f9dea" y="640.269874"/>
     <use style="fill:#1f77b4;stroke:#1f77b4;stroke-linejoin:miter;" x="631.01098" xlink:href="#m241c6f9dea" y="625.052545"/>
     <use style="fill:#1f77b4;stroke:#1f77b4;stroke-linejoin:miter;" x="646.88106" xlink:href="#m241c6f9dea" y="615.497201"/>
     <use style="fill:#1f77b4;stroke:#1f77b4;stroke-linejoin:miter;" x="662.045859" xlink:href="#m241c6f9dea" y="633.201373"/>
     <use style="fill:#1f77b4;stroke:#1f77b4;stroke-linejoin:miter;" x="670.781103" xlink:href="#m241c6f9dea" y="607.53826"/>
     <use style="fill:#1f77b4;stroke:#1f77b4;stroke-linejoin:miter;" x="671.677059" xlink:href="#m241c6f9dea" y="591.310164"/>
     <use style="fill:#1f77b4;stroke:#1f77b4;stroke-linejoin:miter;" x="684.955834" xlink:href="#m241c6f9dea" y="599.581507"/>
     <use style="fill:#1f77b4;stroke:#1f77b4;stroke-linejoin:miter;" x="693.259982" xlink:href="#m241c6f9dea" y="597.92073"/>
     <use style="fill:#1f77b4;stroke:#1f77b4;stroke-linejoin:miter;" x="704.417932" xlink:href="#m241c6f9dea" y="600.293492"/>
     <use style="fill:#1f77b4;stroke:#1f77b4;stroke-linejoin:miter;" x="755.654378" xlink:href="#m241c6f9dea" y="597.618857"/>
     <use style="fill:#1f77b4;stroke:#1f77b4;stroke-linejoin:miter;" x="760.669889" xlink:href="#m241c6f9dea" y="590.921936"/>
     <use style="fill:#1f77b4;stroke:#1f77b4;stroke-linejoin:miter;" x="770.482003" xlink:href="#m241c6f9dea" y="588.411736"/>
     <use style="fill:#1f77b4;stroke:#1f77b4;stroke-linejoin:miter;" x="779.944291" xlink:href="#m241c6f9dea" y="585.401109"/>
     <use style="fill:#1f77b4;stroke:#1f77b4;stroke-linejoin:miter;" x="789.91894" xlink:href="#m241c6f9dea" y="582.740462"/>
     <use style="fill:#1f77b4;stroke:#1f77b4;stroke-linejoin:miter;" x="803.3541" xlink:href="#m241c6f9dea" y="582.046913"/>
     <use style="fill:#1f77b4;stroke:#1f77b4;stroke-linejoin:miter;" x="817.966116" xlink:href="#m241c6f9dea" y="581.389516"/>
     <use style="fill:#1f77b4;stroke:#1f77b4;stroke-linejoin:miter;" x="830.338779" xlink:href="#m241c6f9dea" y="578.777426"/>
     <use style="fill:#1f77b4;stroke:#1f77b4;stroke-linejoin:miter;" x="836.795761" xlink:href="#m241c6f9dea" y="571.71589"/>
     <use style="fill:#1f77b4;stroke:#1f77b4;stroke-linejoin:miter;" x="853.881137" xlink:href="#m241c6f9dea" y="570.628233"/>
     <use style="fill:#1f77b4;stroke:#1f77b4;stroke-linejoin:miter;" x="876.858672" xlink:href="#m241c6f9dea" y="571.653898"/>
     <use style="fill:#1f77b4;stroke:#1f77b4;stroke-linejoin:miter;" x="874.059796" xlink:href="#m241c6f9dea" y="559.975226"/>
     <use style="fill:#1f77b4;stroke:#1f77b4;stroke-linejoin:miter;" x="892.502762" xlink:href="#m241c6f9dea" y="557.753913"/>
     <use style="fill:#1f77b4;stroke:#1f77b4;stroke-linejoin:miter;" x="938.044858" xlink:href="#m241c6f9dea" y="553.354278"/>
     <use style="fill:#1f77b4;stroke:#1f77b4;stroke-linejoin:miter;" x="960.788436" xlink:href="#m241c6f9dea" y="549.585839"/>
     <use style="fill:#1f77b4;stroke:#1f77b4;stroke-linejoin:miter;" x="1078.391674" xlink:href="#m241c6f9dea" y="528.670892"/>
     <use style="fill:#1f77b4;stroke:#1f77b4;stroke-linejoin:miter;" x="1083.397239" xlink:href="#m241c6f9dea" y="516.292044"/>
     <use style="fill:#1f77b4;stroke:#1f77b4;stroke-linejoin:miter;" x="1114.019898" xlink:href="#m241c6f9dea" y="507.09606"/>
    </g>
   </g>
   <g id="patch_3">
    <path d="M 144 768.96 
L 144 103.68 
" style="fill:none;stroke:#000000;stroke-linecap:square;stroke-linejoin:miter;stroke-width:0.8;"/>
   </g>
   <g id="patch_4">
    <path d="M 1036.8 768.96 
L 1036.8 103.68 
" style="fill:none;stroke:#000000;stroke-linecap:square;stroke-linejoin:miter;stroke-width:0.8;"/>
   </g>
   <g id="patch_5">
    <path d="M 144 768.96 
L 1036.8 768.96 
" style="fill:none;stroke:#000000;stroke-linecap:square;stroke-linejoin:miter;stroke-width:0.8;"/>
   </g>
   <g id="patch_6">
    <path d="M 144 103.68 
L 1036.8 103.68 
" style="fill:none;stroke:#000000;stroke-linecap:square;stroke-linejoin:miter;stroke-width:0.8;"/>
   </g>
  </g>
 </g>
 <defs>
  <clipPath id="pa39cecf825">
   <rect height="665.28" width="892.8" x="144" y="103.68"/>
  </clipPath>
 </defs>
</svg>
