<?xml version="1.0" encoding="utf-8" standalone="no"?>
<!DOCTYPE svg PUBLIC "-//W3C//DTD SVG 1.1//EN"
  "http://www.w3.org/Graphics/SVG/1.1/DTD/svg11.dtd">
<!-- Created with matplotlib (http://matplotlib.org/) -->
<svg height="864pt" version="1.1" viewBox="0 0 1152 864" width="1152pt" xmlns="http://www.w3.org/2000/svg" xmlns:xlink="http://www.w3.org/1999/xlink">
 <defs>
  <style type="text/css">
*{stroke-linecap:butt;stroke-linejoin:round;}
  </style>
 </defs>
 <g id="figure_1">
  <g id="patch_1">
   <path d="M 0 864 
L 1152 864 
L 1152 0 
L 0 0 
z
" style="fill:#ffffff;"/>
  </g>
  <g id="axes_1">
   <g id="patch_2">
    <path d="M 144 768.96 
L 1036.8 768.96 
L 1036.8 103.68 
L 144 103.68 
z
" style="fill:#ffffff;"/>
   </g>
   <g id="matplotlib.axis_1">
    <g id="xtick_1">
     <g id="line2d_1">
      <defs>
       <path d="M 0 0 
L 0 3.5 
" id="mcce34bd065" style="stroke:#000000;stroke-width:0.8;"/>
      </defs>
      <g>
       <use style="stroke:#000000;stroke-width:0.8;" x="144" xlink:href="#mcce34bd065" y="768.96"/>
      </g>
     </g>
     <g id="text_1">
      <!-- −4000 -->
      <defs>
       <path d="M 10.59375 35.5 
L 73.1875 35.5 
L 73.1875 27.203125 
L 10.59375 27.203125 
z
" id="DejaVuSans-2212"/>
       <path d="M 37.796875 64.3125 
L 12.890625 25.390625 
L 37.796875 25.390625 
z
M 35.203125 72.90625 
L 47.609375 72.90625 
L 47.609375 25.390625 
L 58.015625 25.390625 
L 58.015625 17.1875 
L 47.609375 17.1875 
L 47.609375 0 
L 37.796875 0 
L 37.796875 17.1875 
L 4.890625 17.1875 
L 4.890625 26.703125 
z
" id="DejaVuSans-34"/>
       <path d="M 31.78125 66.40625 
Q 24.171875 66.40625 20.328125 58.90625 
Q 16.5 51.421875 16.5 36.375 
Q 16.5 21.390625 20.328125 13.890625 
Q 24.171875 6.390625 31.78125 6.390625 
Q 39.453125 6.390625 43.28125 13.890625 
Q 47.125 21.390625 47.125 36.375 
Q 47.125 51.421875 43.28125 58.90625 
Q 39.453125 66.40625 31.78125 66.40625 
z
M 31.78125 74.21875 
Q 44.046875 74.21875 50.515625 64.515625 
Q 56.984375 54.828125 56.984375 36.375 
Q 56.984375 17.96875 50.515625 8.265625 
Q 44.046875 -1.421875 31.78125 -1.421875 
Q 19.53125 -1.421875 13.0625 8.265625 
Q 6.59375 17.96875 6.59375 36.375 
Q 6.59375 54.828125 13.0625 64.515625 
Q 19.53125 74.21875 31.78125 74.21875 
z
" id="DejaVuSans-30"/>
      </defs>
      <g transform="translate(127.085156 783.558437)scale(0.1 -0.1)">
       <use xlink:href="#DejaVuSans-2212"/>
       <use x="83.789062" xlink:href="#DejaVuSans-34"/>
       <use x="147.412109" xlink:href="#DejaVuSans-30"/>
       <use x="211.035156" xlink:href="#DejaVuSans-30"/>
       <use x="274.658203" xlink:href="#DejaVuSans-30"/>
      </g>
     </g>
    </g>
    <g id="xtick_2">
     <g id="line2d_2">
      <g>
       <use style="stroke:#000000;stroke-width:0.8;" x="255.6" xlink:href="#mcce34bd065" y="768.96"/>
      </g>
     </g>
     <g id="text_2">
      <!-- −3000 -->
      <defs>
       <path d="M 40.578125 39.3125 
Q 47.65625 37.796875 51.625 33 
Q 55.609375 28.21875 55.609375 21.1875 
Q 55.609375 10.40625 48.1875 4.484375 
Q 40.765625 -1.421875 27.09375 -1.421875 
Q 22.515625 -1.421875 17.65625 -0.515625 
Q 12.796875 0.390625 7.625 2.203125 
L 7.625 11.71875 
Q 11.71875 9.328125 16.59375 8.109375 
Q 21.484375 6.890625 26.8125 6.890625 
Q 36.078125 6.890625 40.9375 10.546875 
Q 45.796875 14.203125 45.796875 21.1875 
Q 45.796875 27.640625 41.28125 31.265625 
Q 36.765625 34.90625 28.71875 34.90625 
L 20.21875 34.90625 
L 20.21875 43.015625 
L 29.109375 43.015625 
Q 36.375 43.015625 40.234375 45.921875 
Q 44.09375 48.828125 44.09375 54.296875 
Q 44.09375 59.90625 40.109375 62.90625 
Q 36.140625 65.921875 28.71875 65.921875 
Q 24.65625 65.921875 20.015625 65.03125 
Q 15.375 64.15625 9.8125 62.3125 
L 9.8125 71.09375 
Q 15.4375 72.65625 20.34375 73.4375 
Q 25.25 74.21875 29.59375 74.21875 
Q 40.828125 74.21875 47.359375 69.109375 
Q 53.90625 64.015625 53.90625 55.328125 
Q 53.90625 49.265625 50.4375 45.09375 
Q 46.96875 40.921875 40.578125 39.3125 
z
" id="DejaVuSans-33"/>
      </defs>
      <g transform="translate(238.685156 783.558437)scale(0.1 -0.1)">
       <use xlink:href="#DejaVuSans-2212"/>
       <use x="83.789062" xlink:href="#DejaVuSans-33"/>
       <use x="147.412109" xlink:href="#DejaVuSans-30"/>
       <use x="211.035156" xlink:href="#DejaVuSans-30"/>
       <use x="274.658203" xlink:href="#DejaVuSans-30"/>
      </g>
     </g>
    </g>
    <g id="xtick_3">
     <g id="line2d_3">
      <g>
       <use style="stroke:#000000;stroke-width:0.8;" x="367.2" xlink:href="#mcce34bd065" y="768.96"/>
      </g>
     </g>
     <g id="text_3">
      <!-- −2000 -->
      <defs>
       <path d="M 19.1875 8.296875 
L 53.609375 8.296875 
L 53.609375 0 
L 7.328125 0 
L 7.328125 8.296875 
Q 12.9375 14.109375 22.625 23.890625 
Q 32.328125 33.6875 34.8125 36.53125 
Q 39.546875 41.84375 41.421875 45.53125 
Q 43.3125 49.21875 43.3125 52.78125 
Q 43.3125 58.59375 39.234375 62.25 
Q 35.15625 65.921875 28.609375 65.921875 
Q 23.96875 65.921875 18.8125 64.3125 
Q 13.671875 62.703125 7.8125 59.421875 
L 7.8125 69.390625 
Q 13.765625 71.78125 18.9375 73 
Q 24.125 74.21875 28.421875 74.21875 
Q 39.75 74.21875 46.484375 68.546875 
Q 53.21875 62.890625 53.21875 53.421875 
Q 53.21875 48.921875 51.53125 44.890625 
Q 49.859375 40.875 45.40625 35.40625 
Q 44.1875 33.984375 37.640625 27.21875 
Q 31.109375 20.453125 19.1875 8.296875 
z
" id="DejaVuSans-32"/>
      </defs>
      <g transform="translate(350.285156 783.558437)scale(0.1 -0.1)">
       <use xlink:href="#DejaVuSans-2212"/>
       <use x="83.789062" xlink:href="#DejaVuSans-32"/>
       <use x="147.412109" xlink:href="#DejaVuSans-30"/>
       <use x="211.035156" xlink:href="#DejaVuSans-30"/>
       <use x="274.658203" xlink:href="#DejaVuSans-30"/>
      </g>
     </g>
    </g>
    <g id="xtick_4">
     <g id="line2d_4">
      <g>
       <use style="stroke:#000000;stroke-width:0.8;" x="478.8" xlink:href="#mcce34bd065" y="768.96"/>
      </g>
     </g>
     <g id="text_4">
      <!-- −1000 -->
      <defs>
       <path d="M 12.40625 8.296875 
L 28.515625 8.296875 
L 28.515625 63.921875 
L 10.984375 60.40625 
L 10.984375 69.390625 
L 28.421875 72.90625 
L 38.28125 72.90625 
L 38.28125 8.296875 
L 54.390625 8.296875 
L 54.390625 0 
L 12.40625 0 
z
" id="DejaVuSans-31"/>
      </defs>
      <g transform="translate(461.885156 783.558437)scale(0.1 -0.1)">
       <use xlink:href="#DejaVuSans-2212"/>
       <use x="83.789062" xlink:href="#DejaVuSans-31"/>
       <use x="147.412109" xlink:href="#DejaVuSans-30"/>
       <use x="211.035156" xlink:href="#DejaVuSans-30"/>
       <use x="274.658203" xlink:href="#DejaVuSans-30"/>
      </g>
     </g>
    </g>
    <g id="xtick_5">
     <g id="line2d_5">
      <g>
       <use style="stroke:#000000;stroke-width:0.8;" x="590.4" xlink:href="#mcce34bd065" y="768.96"/>
      </g>
     </g>
     <g id="text_5">
      <!-- 0 -->
      <g transform="translate(587.21875 783.558437)scale(0.1 -0.1)">
       <use xlink:href="#DejaVuSans-30"/>
      </g>
     </g>
    </g>
    <g id="xtick_6">
     <g id="line2d_6">
      <g>
       <use style="stroke:#000000;stroke-width:0.8;" x="702" xlink:href="#mcce34bd065" y="768.96"/>
      </g>
     </g>
     <g id="text_6">
      <!-- 1000 -->
      <g transform="translate(689.275 783.558437)scale(0.1 -0.1)">
       <use xlink:href="#DejaVuSans-31"/>
       <use x="63.623047" xlink:href="#DejaVuSans-30"/>
       <use x="127.246094" xlink:href="#DejaVuSans-30"/>
       <use x="190.869141" xlink:href="#DejaVuSans-30"/>
      </g>
     </g>
    </g>
    <g id="xtick_7">
     <g id="line2d_7">
      <g>
       <use style="stroke:#000000;stroke-width:0.8;" x="813.6" xlink:href="#mcce34bd065" y="768.96"/>
      </g>
     </g>
     <g id="text_7">
      <!-- 2000 -->
      <g transform="translate(800.875 783.558437)scale(0.1 -0.1)">
       <use xlink:href="#DejaVuSans-32"/>
       <use x="63.623047" xlink:href="#DejaVuSans-30"/>
       <use x="127.246094" xlink:href="#DejaVuSans-30"/>
       <use x="190.869141" xlink:href="#DejaVuSans-30"/>
      </g>
     </g>
    </g>
    <g id="xtick_8">
     <g id="line2d_8">
      <g>
       <use style="stroke:#000000;stroke-width:0.8;" x="925.2" xlink:href="#mcce34bd065" y="768.96"/>
      </g>
     </g>
     <g id="text_8">
      <!-- 3000 -->
      <g transform="translate(912.475 783.558437)scale(0.1 -0.1)">
       <use xlink:href="#DejaVuSans-33"/>
       <use x="63.623047" xlink:href="#DejaVuSans-30"/>
       <use x="127.246094" xlink:href="#DejaVuSans-30"/>
       <use x="190.869141" xlink:href="#DejaVuSans-30"/>
      </g>
     </g>
    </g>
    <g id="xtick_9">
     <g id="line2d_9">
      <g>
       <use style="stroke:#000000;stroke-width:0.8;" x="1036.8" xlink:href="#mcce34bd065" y="768.96"/>
      </g>
     </g>
     <g id="text_9">
      <!-- 4000 -->
      <g transform="translate(1024.075 783.558437)scale(0.1 -0.1)">
       <use xlink:href="#DejaVuSans-34"/>
       <use x="63.623047" xlink:href="#DejaVuSans-30"/>
       <use x="127.246094" xlink:href="#DejaVuSans-30"/>
       <use x="190.869141" xlink:href="#DejaVuSans-30"/>
      </g>
     </g>
    </g>
   </g>
   <g id="matplotlib.axis_2">
    <g id="ytick_1">
     <g id="line2d_10">
      <defs>
       <path d="M 0 0 
L -3.5 0 
" id="m3b009a1d9c" style="stroke:#000000;stroke-width:0.8;"/>
      </defs>
      <g>
       <use style="stroke:#000000;stroke-width:0.8;" x="144" xlink:href="#m3b009a1d9c" y="768.96"/>
      </g>
     </g>
     <g id="text_10">
      <!-- −4000 -->
      <g transform="translate(103.170312 772.759219)scale(0.1 -0.1)">
       <use xlink:href="#DejaVuSans-2212"/>
       <use x="83.789062" xlink:href="#DejaVuSans-34"/>
       <use x="147.412109" xlink:href="#DejaVuSans-30"/>
       <use x="211.035156" xlink:href="#DejaVuSans-30"/>
       <use x="274.658203" xlink:href="#DejaVuSans-30"/>
      </g>
     </g>
    </g>
    <g id="ytick_2">
     <g id="line2d_11">
      <g>
       <use style="stroke:#000000;stroke-width:0.8;" x="144" xlink:href="#m3b009a1d9c" y="685.8"/>
      </g>
     </g>
     <g id="text_11">
      <!-- −3000 -->
      <g transform="translate(103.170312 689.599219)scale(0.1 -0.1)">
       <use xlink:href="#DejaVuSans-2212"/>
       <use x="83.789062" xlink:href="#DejaVuSans-33"/>
       <use x="147.412109" xlink:href="#DejaVuSans-30"/>
       <use x="211.035156" xlink:href="#DejaVuSans-30"/>
       <use x="274.658203" xlink:href="#DejaVuSans-30"/>
      </g>
     </g>
    </g>
    <g id="ytick_3">
     <g id="line2d_12">
      <g>
       <use style="stroke:#000000;stroke-width:0.8;" x="144" xlink:href="#m3b009a1d9c" y="602.64"/>
      </g>
     </g>
     <g id="text_12">
      <!-- −2000 -->
      <g transform="translate(103.170312 606.439219)scale(0.1 -0.1)">
       <use xlink:href="#DejaVuSans-2212"/>
       <use x="83.789062" xlink:href="#DejaVuSans-32"/>
       <use x="147.412109" xlink:href="#DejaVuSans-30"/>
       <use x="211.035156" xlink:href="#DejaVuSans-30"/>
       <use x="274.658203" xlink:href="#DejaVuSans-30"/>
      </g>
     </g>
    </g>
    <g id="ytick_4">
     <g id="line2d_13">
      <g>
       <use style="stroke:#000000;stroke-width:0.8;" x="144" xlink:href="#m3b009a1d9c" y="519.48"/>
      </g>
     </g>
     <g id="text_13">
      <!-- −1000 -->
      <g transform="translate(103.170312 523.279219)scale(0.1 -0.1)">
       <use xlink:href="#DejaVuSans-2212"/>
       <use x="83.789062" xlink:href="#DejaVuSans-31"/>
       <use x="147.412109" xlink:href="#DejaVuSans-30"/>
       <use x="211.035156" xlink:href="#DejaVuSans-30"/>
       <use x="274.658203" xlink:href="#DejaVuSans-30"/>
      </g>
     </g>
    </g>
    <g id="ytick_5">
     <g id="line2d_14">
      <g>
       <use style="stroke:#000000;stroke-width:0.8;" x="144" xlink:href="#m3b009a1d9c" y="436.32"/>
      </g>
     </g>
     <g id="text_14">
      <!-- 0 -->
      <g transform="translate(130.6375 440.119219)scale(0.1 -0.1)">
       <use xlink:href="#DejaVuSans-30"/>
      </g>
     </g>
    </g>
    <g id="ytick_6">
     <g id="line2d_15">
      <g>
       <use style="stroke:#000000;stroke-width:0.8;" x="144" xlink:href="#m3b009a1d9c" y="353.16"/>
      </g>
     </g>
     <g id="text_15">
      <!-- 1000 -->
      <g transform="translate(111.55 356.959219)scale(0.1 -0.1)">
       <use xlink:href="#DejaVuSans-31"/>
       <use x="63.623047" xlink:href="#DejaVuSans-30"/>
       <use x="127.246094" xlink:href="#DejaVuSans-30"/>
       <use x="190.869141" xlink:href="#DejaVuSans-30"/>
      </g>
     </g>
    </g>
    <g id="ytick_7">
     <g id="line2d_16">
      <g>
       <use style="stroke:#000000;stroke-width:0.8;" x="144" xlink:href="#m3b009a1d9c" y="270"/>
      </g>
     </g>
     <g id="text_16">
      <!-- 2000 -->
      <g transform="translate(111.55 273.799219)scale(0.1 -0.1)">
       <use xlink:href="#DejaVuSans-32"/>
       <use x="63.623047" xlink:href="#DejaVuSans-30"/>
       <use x="127.246094" xlink:href="#DejaVuSans-30"/>
       <use x="190.869141" xlink:href="#DejaVuSans-30"/>
      </g>
     </g>
    </g>
    <g id="ytick_8">
     <g id="line2d_17">
      <g>
       <use style="stroke:#000000;stroke-width:0.8;" x="144" xlink:href="#m3b009a1d9c" y="186.84"/>
      </g>
     </g>
     <g id="text_17">
      <!-- 3000 -->
      <g transform="translate(111.55 190.639219)scale(0.1 -0.1)">
       <use xlink:href="#DejaVuSans-33"/>
       <use x="63.623047" xlink:href="#DejaVuSans-30"/>
       <use x="127.246094" xlink:href="#DejaVuSans-30"/>
       <use x="190.869141" xlink:href="#DejaVuSans-30"/>
      </g>
     </g>
    </g>
    <g id="ytick_9">
     <g id="line2d_18">
      <g>
       <use style="stroke:#000000;stroke-width:0.8;" x="144" xlink:href="#m3b009a1d9c" y="103.68"/>
      </g>
     </g>
     <g id="text_18">
      <!-- 4000 -->
      <g transform="translate(111.55 107.479219)scale(0.1 -0.1)">
       <use xlink:href="#DejaVuSans-34"/>
       <use x="63.623047" xlink:href="#DejaVuSans-30"/>
       <use x="127.246094" xlink:href="#DejaVuSans-30"/>
       <use x="190.869141" xlink:href="#DejaVuSans-30"/>
      </g>
     </g>
    </g>
   </g>
   <g id="line2d_19">
    <path clip-path="url(#p162e71543d)" d="M 590.4 768.96 
L 590.4 103.68 
" style="fill:none;stroke:#1f77b4;stroke-linecap:square;stroke-width:1.5;"/>
   </g>
   <g id="line2d_20">
    <path clip-path="url(#p162e71543d)" d="M 144 436.32 
L 1036.8 436.32 
" style="fill:none;stroke:#1f77b4;stroke-linecap:square;stroke-width:1.5;"/>
   </g>
   <g id="line2d_21">
    <defs>
     <path d="M 0 3 
C 0.795609 3 1.55874 2.683901 2.12132 2.12132 
C 2.683901 1.55874 3 0.795609 3 0 
C 3 -0.795609 2.683901 -1.55874 2.12132 -2.12132 
C 1.55874 -2.683901 0.795609 -3 0 -3 
C -0.795609 -3 -1.55874 -2.683901 -2.12132 -2.12132 
C -2.683901 -1.55874 -3 -0.795609 -3 0 
C -3 0.795609 -2.683901 1.55874 -2.12132 2.12132 
C -1.55874 2.683901 -0.795609 3 0 3 
z
" id="md8be49a9bf" style="stroke:#008000;"/>
    </defs>
    <g clip-path="url(#p162e71543d)">
     <use style="fill:#008000;stroke:#008000;" x="1393.7691" xlink:href="#md8be49a9bf" y="506.180609"/>
    </g>
   </g>
   <g id="line2d_22">
    <g clip-path="url(#p162e71543d)">
     <use style="fill:#008000;stroke:#008000;" x="646.46101" xlink:href="#md8be49a9bf" y="393.425581"/>
    </g>
   </g>
   <g id="line2d_23">
    <g clip-path="url(#p162e71543d)">
     <use style="fill:#008000;stroke:#008000;" x="646.46101" xlink:href="#md8be49a9bf" y="393.425581"/>
    </g>
   </g>
   <g id="line2d_24">
    <g clip-path="url(#p162e71543d)">
     <use style="fill:#008000;stroke:#008000;" x="773.762153" xlink:href="#md8be49a9bf" y="194.12655"/>
    </g>
   </g>
   <g id="line2d_25">
    <g clip-path="url(#p162e71543d)">
     <use style="fill:#008000;stroke:#008000;" x="754.601781" xlink:href="#md8be49a9bf" y="196.908013"/>
    </g>
   </g>
   <g id="line2d_26">
    <g clip-path="url(#p162e71543d)">
     <use style="fill:#008000;stroke:#008000;" x="543.273881" xlink:href="#md8be49a9bf" y="229.93088"/>
    </g>
   </g>
   <g id="line2d_27">
    <g clip-path="url(#p162e71543d)">
     <use style="fill:#008000;stroke:#008000;" x="574.245642" xlink:href="#md8be49a9bf" y="399.254873"/>
    </g>
   </g>
   <g id="line2d_28">
    <g clip-path="url(#p162e71543d)">
     <use style="fill:#008000;stroke:#008000;" x="574.245642" xlink:href="#md8be49a9bf" y="399.254873"/>
    </g>
   </g>
   <g id="line2d_29">
    <g clip-path="url(#p162e71543d)">
     <use style="fill:#008000;stroke:#008000;" x="454.148114" xlink:href="#md8be49a9bf" y="249.08222"/>
    </g>
   </g>
   <g id="line2d_30">
    <g clip-path="url(#p162e71543d)">
     <use style="fill:#008000;stroke:#008000;" x="462.738893" xlink:href="#md8be49a9bf" y="513.095847"/>
    </g>
   </g>
   <g id="line2d_31">
    <g clip-path="url(#p162e71543d)">
     <use style="fill:#008000;stroke:#008000;" x="1091.125011" xlink:href="#md8be49a9bf" y="518.665351"/>
    </g>
   </g>
   <g id="line2d_32">
    <defs>
     <path d="M 0 1.333333 
C 0.353604 1.333333 0.692773 1.192845 0.942809 0.942809 
C 1.192845 0.692773 1.333333 0.353604 1.333333 0 
C 1.333333 -0.353604 1.192845 -0.692773 0.942809 -0.942809 
C 0.692773 -1.192845 0.353604 -1.333333 0 -1.333333 
C -0.353604 -1.333333 -0.692773 -1.192845 -0.942809 -0.942809 
C -1.192845 -0.692773 -1.333333 -0.353604 -1.333333 0 
C -1.333333 0.353604 -1.192845 0.692773 -0.942809 0.942809 
C -0.692773 1.192845 -0.353604 1.333333 0 1.333333 
z
" id="m9bc78f4380" style="stroke:#ff0000;"/>
    </defs>
    <g clip-path="url(#p162e71543d)">
     <use style="fill:#ff0000;stroke:#ff0000;" x="1393.7691" xlink:href="#m9bc78f4380" y="506.180609"/>
     <use style="fill:#ff0000;stroke:#ff0000;" x="1292.689492" xlink:href="#m9bc78f4380" y="345.368532"/>
     <use style="fill:#ff0000;stroke:#ff0000;" x="1276.707601" xlink:href="#m9bc78f4380" y="325.574081"/>
     <use style="fill:#ff0000;stroke:#ff0000;" x="1356.60292" xlink:href="#m9bc78f4380" y="288.33137"/>
     <use style="fill:#ff0000;stroke:#ff0000;" x="1317.550392" xlink:href="#m9bc78f4380" y="271.630543"/>
     <use style="fill:#ff0000;stroke:#ff0000;" x="651.002752" xlink:href="#m9bc78f4380" y="398.573915"/>
     <use style="fill:#ff0000;stroke:#ff0000;" x="641.131689" xlink:href="#m9bc78f4380" y="388.581342"/>
     <use style="fill:#ff0000;stroke:#ff0000;" x="783.486648" xlink:href="#m9bc78f4380" y="192.97045"/>
     <use style="fill:#ff0000;stroke:#ff0000;" x="764.181652" xlink:href="#m9bc78f4380" y="195.474967"/>
     <use style="fill:#ff0000;stroke:#ff0000;" x="745.178996" xlink:href="#m9bc78f4380" y="198.532292"/>
     <use style="fill:#ff0000;stroke:#ff0000;" x="543.273881" xlink:href="#m9bc78f4380" y="229.93088"/>
     <use style="fill:#ff0000;stroke:#ff0000;" x="576.964894" xlink:href="#m9bc78f4380" y="397.035072"/>
     <use style="fill:#ff0000;stroke:#ff0000;" x="571.851808" xlink:href="#m9bc78f4380" y="401.566301"/>
     <use style="fill:#ff0000;stroke:#ff0000;" x="454.148114" xlink:href="#m9bc78f4380" y="249.08222"/>
     <use style="fill:#ff0000;stroke:#ff0000;" x="389.540025" xlink:href="#m9bc78f4380" y="273.694225"/>
     <use style="fill:#ff0000;stroke:#ff0000;" x="394.865106" xlink:href="#m9bc78f4380" y="290.773819"/>
     <use style="fill:#ff0000;stroke:#ff0000;" x="416.050806" xlink:href="#m9bc78f4380" y="317.206644"/>
     <use style="fill:#ff0000;stroke:#ff0000;" x="434.88793" xlink:href="#m9bc78f4380" y="346.847369"/>
     <use style="fill:#ff0000;stroke:#ff0000;" x="407.505836" xlink:href="#m9bc78f4380" y="362.947325"/>
     <use style="fill:#ff0000;stroke:#ff0000;" x="454.983902" xlink:href="#m9bc78f4380" y="392.999596"/>
     <use style="fill:#ff0000;stroke:#ff0000;" x="441.126698" xlink:href="#m9bc78f4380" y="413.784207"/>
     <use style="fill:#ff0000;stroke:#ff0000;" x="424.514086" xlink:href="#m9bc78f4380" y="416.326938"/>
     <use style="fill:#ff0000;stroke:#ff0000;" x="410.854553" xlink:href="#m9bc78f4380" y="441.942096"/>
     <use style="fill:#ff0000;stroke:#ff0000;" x="395.053704" xlink:href="#m9bc78f4380" y="448.215646"/>
     <use style="fill:#ff0000;stroke:#ff0000;" x="401.181626" xlink:href="#m9bc78f4380" y="465.527345"/>
     <use style="fill:#ff0000;stroke:#ff0000;" x="435.733716" xlink:href="#m9bc78f4380" y="465.456317"/>
     <use style="fill:#ff0000;stroke:#ff0000;" x="403.839945" xlink:href="#m9bc78f4380" y="477.21031"/>
     <use style="fill:#ff0000;stroke:#ff0000;" x="456.028068" xlink:href="#m9bc78f4380" y="513.673414"/>
     <use style="fill:#ff0000;stroke:#ff0000;" x="469.353927" xlink:href="#m9bc78f4380" y="512.341772"/>
     <use style="fill:#ff0000;stroke:#ff0000;" x="457.16978" xlink:href="#m9bc78f4380" y="526.893869"/>
     <use style="fill:#ff0000;stroke:#ff0000;" x="556.554833" xlink:href="#m9bc78f4380" y="463.543324"/>
     <use style="fill:#ff0000;stroke:#ff0000;" x="578.181681" xlink:href="#m9bc78f4380" y="494.110258"/>
     <use style="fill:#ff0000;stroke:#ff0000;" x="576.022765" xlink:href="#m9bc78f4380" y="619.686948"/>
     <use style="fill:#ff0000;stroke:#ff0000;" x="585.426701" xlink:href="#m9bc78f4380" y="636.139908"/>
     <use style="fill:#ff0000;stroke:#ff0000;" x="596.629129" xlink:href="#m9bc78f4380" y="643.856249"/>
     <use style="fill:#ff0000;stroke:#ff0000;" x="606.2605" xlink:href="#m9bc78f4380" y="619.702361"/>
     <use style="fill:#ff0000;stroke:#ff0000;" x="619.461264" xlink:href="#m9bc78f4380" y="640.747729"/>
     <use style="fill:#ff0000;stroke:#ff0000;" x="627.389588" xlink:href="#m9bc78f4380" y="621.094419"/>
     <use style="fill:#ff0000;stroke:#ff0000;" x="646.810881" xlink:href="#m9bc78f4380" y="615.274571"/>
     <use style="fill:#ff0000;stroke:#ff0000;" x="661.98034" xlink:href="#m9bc78f4380" y="628.450377"/>
     <use style="fill:#ff0000;stroke:#ff0000;" x="665.703975" xlink:href="#m9bc78f4380" y="610.148312"/>
     <use style="fill:#ff0000;stroke:#ff0000;" x="668.182709" xlink:href="#m9bc78f4380" y="593.034301"/>
     <use style="fill:#ff0000;stroke:#ff0000;" x="703.379588" xlink:href="#m9bc78f4380" y="599.453123"/>
     <use style="fill:#ff0000;stroke:#ff0000;" x="758.901065" xlink:href="#m9bc78f4380" y="591.80729"/>
     <use style="fill:#ff0000;stroke:#ff0000;" x="811.217624" xlink:href="#m9bc78f4380" y="583.101201"/>
     <use style="fill:#ff0000;stroke:#ff0000;" x="849.668431" xlink:href="#m9bc78f4380" y="569.799818"/>
     <use style="fill:#ff0000;stroke:#ff0000;" x="875.830478" xlink:href="#m9bc78f4380" y="570.843094"/>
     <use style="fill:#ff0000;stroke:#ff0000;" x="892.984363" xlink:href="#m9bc78f4380" y="554.24202"/>
     <use style="fill:#ff0000;stroke:#ff0000;" x="925.493602" xlink:href="#m9bc78f4380" y="554.168843"/>
     <use style="fill:#ff0000;stroke:#ff0000;" x="1088.960688" xlink:href="#m9bc78f4380" y="526.368881"/>
     <use style="fill:#ff0000;stroke:#ff0000;" x="1093.07509" xlink:href="#m9bc78f4380" y="510.933602"/>
     <use style="fill:#ff0000;stroke:#ff0000;" x="1142.428126" xlink:href="#m9bc78f4380" y="501.126506"/>
    </g>
   </g>
   <g id="line2d_33">
    <defs>
     <path d="M -0.5 0.5 
L 0.5 0.5 
L 0.5 -0.5 
L -0.5 -0.5 
z
" id="ma1cbe8d8d3" style="stroke:#1f77b4;stroke-linejoin:miter;"/>
    </defs>
    <g clip-path="url(#p162e71543d)">
     <use style="fill:#1f77b4;stroke:#1f77b4;stroke-linejoin:miter;" x="1393.7691" xlink:href="#ma1cbe8d8d3" y="506.180609"/>
     <use style="fill:#1f77b4;stroke:#1f77b4;stroke-linejoin:miter;" x="1292.689492" xlink:href="#ma1cbe8d8d3" y="345.368532"/>
     <use style="fill:#1f77b4;stroke:#1f77b4;stroke-linejoin:miter;" x="1276.707601" xlink:href="#ma1cbe8d8d3" y="325.574081"/>
     <use style="fill:#1f77b4;stroke:#1f77b4;stroke-linejoin:miter;" x="1356.60292" xlink:href="#ma1cbe8d8d3" y="288.33137"/>
     <use style="fill:#1f77b4;stroke:#1f77b4;stroke-linejoin:miter;" x="1317.550392" xlink:href="#ma1cbe8d8d3" y="271.630543"/>
     <use style="fill:#1f77b4;stroke:#1f77b4;stroke-linejoin:miter;" x="651.002752" xlink:href="#ma1cbe8d8d3" y="398.573915"/>
     <use style="fill:#1f77b4;stroke:#1f77b4;stroke-linejoin:miter;" x="646.880997" xlink:href="#ma1cbe8d8d3" y="397.901501"/>
     <use style="fill:#1f77b4;stroke:#1f77b4;stroke-linejoin:miter;" x="645.156556" xlink:href="#ma1cbe8d8d3" y="395.827911"/>
     <use style="fill:#1f77b4;stroke:#1f77b4;stroke-linejoin:miter;" x="644.049195" xlink:href="#ma1cbe8d8d3" y="393.379211"/>
     <use style="fill:#1f77b4;stroke:#1f77b4;stroke-linejoin:miter;" x="641.527104" xlink:href="#ma1cbe8d8d3" y="392.031946"/>
     <use style="fill:#1f77b4;stroke:#1f77b4;stroke-linejoin:miter;" x="641.131689" xlink:href="#ma1cbe8d8d3" y="388.581342"/>
     <use style="fill:#1f77b4;stroke:#1f77b4;stroke-linejoin:miter;" x="783.486648" xlink:href="#ma1cbe8d8d3" y="192.97045"/>
     <use style="fill:#1f77b4;stroke:#1f77b4;stroke-linejoin:miter;" x="764.181652" xlink:href="#ma1cbe8d8d3" y="195.474967"/>
     <use style="fill:#1f77b4;stroke:#1f77b4;stroke-linejoin:miter;" x="745.178996" xlink:href="#ma1cbe8d8d3" y="198.532292"/>
     <use style="fill:#1f77b4;stroke:#1f77b4;stroke-linejoin:miter;" x="727.427845" xlink:href="#ma1cbe8d8d3" y="201.488032"/>
     <use style="fill:#1f77b4;stroke:#1f77b4;stroke-linejoin:miter;" x="710.830746" xlink:href="#ma1cbe8d8d3" y="204.430587"/>
     <use style="fill:#1f77b4;stroke:#1f77b4;stroke-linejoin:miter;" x="695.235566" xlink:href="#ma1cbe8d8d3" y="206.599362"/>
     <use style="fill:#1f77b4;stroke:#1f77b4;stroke-linejoin:miter;" x="680.124885" xlink:href="#ma1cbe8d8d3" y="209.698588"/>
     <use style="fill:#1f77b4;stroke:#1f77b4;stroke-linejoin:miter;" x="666.089176" xlink:href="#ma1cbe8d8d3" y="211.156006"/>
     <use style="fill:#1f77b4;stroke:#1f77b4;stroke-linejoin:miter;" x="652.694097" xlink:href="#ma1cbe8d8d3" y="212.53922"/>
     <use style="fill:#1f77b4;stroke:#1f77b4;stroke-linejoin:miter;" x="639.555632" xlink:href="#ma1cbe8d8d3" y="214.838005"/>
     <use style="fill:#1f77b4;stroke:#1f77b4;stroke-linejoin:miter;" x="625.91137" xlink:href="#ma1cbe8d8d3" y="216.849426"/>
     <use style="fill:#1f77b4;stroke:#1f77b4;stroke-linejoin:miter;" x="613.515221" xlink:href="#ma1cbe8d8d3" y="218.97673"/>
     <use style="fill:#1f77b4;stroke:#1f77b4;stroke-linejoin:miter;" x="601.188111" xlink:href="#ma1cbe8d8d3" y="221.252108"/>
     <use style="fill:#1f77b4;stroke:#1f77b4;stroke-linejoin:miter;" x="589.31297" xlink:href="#ma1cbe8d8d3" y="224.159596"/>
     <use style="fill:#1f77b4;stroke:#1f77b4;stroke-linejoin:miter;" x="577.801311" xlink:href="#ma1cbe8d8d3" y="225.26071"/>
     <use style="fill:#1f77b4;stroke:#1f77b4;stroke-linejoin:miter;" x="566.204293" xlink:href="#ma1cbe8d8d3" y="226.281816"/>
     <use style="fill:#1f77b4;stroke:#1f77b4;stroke-linejoin:miter;" x="554.850673" xlink:href="#ma1cbe8d8d3" y="229.443813"/>
     <use style="fill:#1f77b4;stroke:#1f77b4;stroke-linejoin:miter;" x="543.273881" xlink:href="#ma1cbe8d8d3" y="229.93088"/>
     <use style="fill:#1f77b4;stroke:#1f77b4;stroke-linejoin:miter;" x="576.964894" xlink:href="#ma1cbe8d8d3" y="397.035072"/>
     <use style="fill:#1f77b4;stroke:#1f77b4;stroke-linejoin:miter;" x="575.29" xlink:href="#ma1cbe8d8d3" y="399.239181"/>
     <use style="fill:#1f77b4;stroke:#1f77b4;stroke-linejoin:miter;" x="573.938551" xlink:href="#ma1cbe8d8d3" y="401.560202"/>
     <use style="fill:#1f77b4;stroke:#1f77b4;stroke-linejoin:miter;" x="571.851808" xlink:href="#ma1cbe8d8d3" y="401.566301"/>
     <use style="fill:#1f77b4;stroke:#1f77b4;stroke-linejoin:miter;" x="454.148114" xlink:href="#ma1cbe8d8d3" y="249.08222"/>
     <use style="fill:#1f77b4;stroke:#1f77b4;stroke-linejoin:miter;" x="441.363592" xlink:href="#ma1cbe8d8d3" y="250.344575"/>
     <use style="fill:#1f77b4;stroke:#1f77b4;stroke-linejoin:miter;" x="428.423771" xlink:href="#ma1cbe8d8d3" y="251.565739"/>
     <use style="fill:#1f77b4;stroke:#1f77b4;stroke-linejoin:miter;" x="418.368668" xlink:href="#ma1cbe8d8d3" y="256.91337"/>
     <use style="fill:#1f77b4;stroke:#1f77b4;stroke-linejoin:miter;" x="409.78572" xlink:href="#ma1cbe8d8d3" y="263.474583"/>
     <use style="fill:#1f77b4;stroke:#1f77b4;stroke-linejoin:miter;" x="401.958646" xlink:href="#ma1cbe8d8d3" y="270.541835"/>
     <use style="fill:#1f77b4;stroke:#1f77b4;stroke-linejoin:miter;" x="389.540025" xlink:href="#ma1cbe8d8d3" y="273.694225"/>
     <use style="fill:#1f77b4;stroke:#1f77b4;stroke-linejoin:miter;" x="394.865106" xlink:href="#ma1cbe8d8d3" y="290.773819"/>
     <use style="fill:#1f77b4;stroke:#1f77b4;stroke-linejoin:miter;" x="416.050806" xlink:href="#ma1cbe8d8d3" y="317.206644"/>
     <use style="fill:#1f77b4;stroke:#1f77b4;stroke-linejoin:miter;" x="434.88793" xlink:href="#ma1cbe8d8d3" y="346.847369"/>
     <use style="fill:#1f77b4;stroke:#1f77b4;stroke-linejoin:miter;" x="422.472667" xlink:href="#ma1cbe8d8d3" y="347.679942"/>
     <use style="fill:#1f77b4;stroke:#1f77b4;stroke-linejoin:miter;" x="421.00871" xlink:href="#ma1cbe8d8d3" y="354.398216"/>
     <use style="fill:#1f77b4;stroke:#1f77b4;stroke-linejoin:miter;" x="410.053241" xlink:href="#ma1cbe8d8d3" y="356.714833"/>
     <use style="fill:#1f77b4;stroke:#1f77b4;stroke-linejoin:miter;" x="407.505836" xlink:href="#ma1cbe8d8d3" y="362.947325"/>
     <use style="fill:#1f77b4;stroke:#1f77b4;stroke-linejoin:miter;" x="454.983902" xlink:href="#ma1cbe8d8d3" y="392.999596"/>
     <use style="fill:#1f77b4;stroke:#1f77b4;stroke-linejoin:miter;" x="455.998543" xlink:href="#ma1cbe8d8d3" y="398.282544"/>
     <use style="fill:#1f77b4;stroke:#1f77b4;stroke-linejoin:miter;" x="456.700839" xlink:href="#ma1cbe8d8d3" y="403.196466"/>
     <use style="fill:#1f77b4;stroke:#1f77b4;stroke-linejoin:miter;" x="458.662095" xlink:href="#ma1cbe8d8d3" y="408.026441"/>
     <use style="fill:#1f77b4;stroke:#1f77b4;stroke-linejoin:miter;" x="458.49412" xlink:href="#ma1cbe8d8d3" y="412.381916"/>
     <use style="fill:#1f77b4;stroke:#1f77b4;stroke-linejoin:miter;" x="441.126698" xlink:href="#ma1cbe8d8d3" y="413.784207"/>
     <use style="fill:#1f77b4;stroke:#1f77b4;stroke-linejoin:miter;" x="424.514086" xlink:href="#ma1cbe8d8d3" y="416.326938"/>
     <use style="fill:#1f77b4;stroke:#1f77b4;stroke-linejoin:miter;" x="425.173834" xlink:href="#ma1cbe8d8d3" y="421.645622"/>
     <use style="fill:#1f77b4;stroke:#1f77b4;stroke-linejoin:miter;" x="422.396292" xlink:href="#ma1cbe8d8d3" y="426.536045"/>
     <use style="fill:#1f77b4;stroke:#1f77b4;stroke-linejoin:miter;" x="420.24168" xlink:href="#ma1cbe8d8d3" y="431.649849"/>
     <use style="fill:#1f77b4;stroke:#1f77b4;stroke-linejoin:miter;" x="420.572927" xlink:href="#ma1cbe8d8d3" y="436.527065"/>
     <use style="fill:#1f77b4;stroke:#1f77b4;stroke-linejoin:miter;" x="410.854553" xlink:href="#ma1cbe8d8d3" y="441.942096"/>
     <use style="fill:#1f77b4;stroke:#1f77b4;stroke-linejoin:miter;" x="395.053704" xlink:href="#ma1cbe8d8d3" y="448.215646"/>
     <use style="fill:#1f77b4;stroke:#1f77b4;stroke-linejoin:miter;" x="395.940008" xlink:href="#ma1cbe8d8d3" y="454.07187"/>
     <use style="fill:#1f77b4;stroke:#1f77b4;stroke-linejoin:miter;" x="398.838899" xlink:href="#ma1cbe8d8d3" y="459.767167"/>
     <use style="fill:#1f77b4;stroke:#1f77b4;stroke-linejoin:miter;" x="401.181626" xlink:href="#ma1cbe8d8d3" y="465.527345"/>
     <use style="fill:#1f77b4;stroke:#1f77b4;stroke-linejoin:miter;" x="435.733716" xlink:href="#ma1cbe8d8d3" y="465.456317"/>
     <use style="fill:#1f77b4;stroke:#1f77b4;stroke-linejoin:miter;" x="403.839945" xlink:href="#ma1cbe8d8d3" y="477.21031"/>
     <use style="fill:#1f77b4;stroke:#1f77b4;stroke-linejoin:miter;" x="404.656161" xlink:href="#ma1cbe8d8d3" y="483.135249"/>
     <use style="fill:#1f77b4;stroke:#1f77b4;stroke-linejoin:miter;" x="406.450054" xlink:href="#ma1cbe8d8d3" y="488.98005"/>
     <use style="fill:#1f77b4;stroke:#1f77b4;stroke-linejoin:miter;" x="408.111917" xlink:href="#ma1cbe8d8d3" y="495.250222"/>
     <use style="fill:#1f77b4;stroke:#1f77b4;stroke-linejoin:miter;" x="411.272724" xlink:href="#ma1cbe8d8d3" y="507.712665"/>
     <use style="fill:#1f77b4;stroke:#1f77b4;stroke-linejoin:miter;" x="432.383443" xlink:href="#ma1cbe8d8d3" y="512.512703"/>
     <use style="fill:#1f77b4;stroke:#1f77b4;stroke-linejoin:miter;" x="438.396223" xlink:href="#ma1cbe8d8d3" y="516.462105"/>
     <use style="fill:#1f77b4;stroke:#1f77b4;stroke-linejoin:miter;" x="456.028068" xlink:href="#ma1cbe8d8d3" y="513.673414"/>
     <use style="fill:#1f77b4;stroke:#1f77b4;stroke-linejoin:miter;" x="469.353927" xlink:href="#ma1cbe8d8d3" y="512.341772"/>
     <use style="fill:#1f77b4;stroke:#1f77b4;stroke-linejoin:miter;" x="457.16978" xlink:href="#ma1cbe8d8d3" y="526.893869"/>
     <use style="fill:#1f77b4;stroke:#1f77b4;stroke-linejoin:miter;" x="556.554833" xlink:href="#ma1cbe8d8d3" y="463.543324"/>
     <use style="fill:#1f77b4;stroke:#1f77b4;stroke-linejoin:miter;" x="558.779987" xlink:href="#ma1cbe8d8d3" y="466.191508"/>
     <use style="fill:#1f77b4;stroke:#1f77b4;stroke-linejoin:miter;" x="559.10103" xlink:href="#ma1cbe8d8d3" y="468.4579"/>
     <use style="fill:#1f77b4;stroke:#1f77b4;stroke-linejoin:miter;" x="558.818683" xlink:href="#ma1cbe8d8d3" y="471.353441"/>
     <use style="fill:#1f77b4;stroke:#1f77b4;stroke-linejoin:miter;" x="559.810651" xlink:href="#ma1cbe8d8d3" y="473.31232"/>
     <use style="fill:#1f77b4;stroke:#1f77b4;stroke-linejoin:miter;" x="561.233243" xlink:href="#ma1cbe8d8d3" y="474.75906"/>
     <use style="fill:#1f77b4;stroke:#1f77b4;stroke-linejoin:miter;" x="562.863282" xlink:href="#ma1cbe8d8d3" y="476.240877"/>
     <use style="fill:#1f77b4;stroke:#1f77b4;stroke-linejoin:miter;" x="564.785742" xlink:href="#ma1cbe8d8d3" y="477.427148"/>
     <use style="fill:#1f77b4;stroke:#1f77b4;stroke-linejoin:miter;" x="566.782769" xlink:href="#ma1cbe8d8d3" y="478.806892"/>
     <use style="fill:#1f77b4;stroke:#1f77b4;stroke-linejoin:miter;" x="568.643532" xlink:href="#ma1cbe8d8d3" y="480.26476"/>
     <use style="fill:#1f77b4;stroke:#1f77b4;stroke-linejoin:miter;" x="570.608647" xlink:href="#ma1cbe8d8d3" y="482.133645"/>
     <use style="fill:#1f77b4;stroke:#1f77b4;stroke-linejoin:miter;" x="572.395141" xlink:href="#ma1cbe8d8d3" y="484.140901"/>
     <use style="fill:#1f77b4;stroke:#1f77b4;stroke-linejoin:miter;" x="574.468642" xlink:href="#ma1cbe8d8d3" y="486.429806"/>
     <use style="fill:#1f77b4;stroke:#1f77b4;stroke-linejoin:miter;" x="576.410011" xlink:href="#ma1cbe8d8d3" y="489.486338"/>
     <use style="fill:#1f77b4;stroke:#1f77b4;stroke-linejoin:miter;" x="578.181681" xlink:href="#ma1cbe8d8d3" y="494.110258"/>
     <use style="fill:#1f77b4;stroke:#1f77b4;stroke-linejoin:miter;" x="576.022765" xlink:href="#ma1cbe8d8d3" y="619.686948"/>
     <use style="fill:#1f77b4;stroke:#1f77b4;stroke-linejoin:miter;" x="585.426701" xlink:href="#ma1cbe8d8d3" y="636.139908"/>
     <use style="fill:#1f77b4;stroke:#1f77b4;stroke-linejoin:miter;" x="596.629129" xlink:href="#ma1cbe8d8d3" y="643.856249"/>
     <use style="fill:#1f77b4;stroke:#1f77b4;stroke-linejoin:miter;" x="606.2605" xlink:href="#ma1cbe8d8d3" y="619.702361"/>
     <use style="fill:#1f77b4;stroke:#1f77b4;stroke-linejoin:miter;" x="619.461264" xlink:href="#ma1cbe8d8d3" y="640.747729"/>
     <use style="fill:#1f77b4;stroke:#1f77b4;stroke-linejoin:miter;" x="627.389588" xlink:href="#ma1cbe8d8d3" y="621.094419"/>
     <use style="fill:#1f77b4;stroke:#1f77b4;stroke-linejoin:miter;" x="646.810881" xlink:href="#ma1cbe8d8d3" y="615.274571"/>
     <use style="fill:#1f77b4;stroke:#1f77b4;stroke-linejoin:miter;" x="661.98034" xlink:href="#ma1cbe8d8d3" y="628.450377"/>
     <use style="fill:#1f77b4;stroke:#1f77b4;stroke-linejoin:miter;" x="665.703975" xlink:href="#ma1cbe8d8d3" y="610.148312"/>
     <use style="fill:#1f77b4;stroke:#1f77b4;stroke-linejoin:miter;" x="668.182709" xlink:href="#ma1cbe8d8d3" y="593.034301"/>
     <use style="fill:#1f77b4;stroke:#1f77b4;stroke-linejoin:miter;" x="681.400867" xlink:href="#ma1cbe8d8d3" y="598.898829"/>
     <use style="fill:#1f77b4;stroke:#1f77b4;stroke-linejoin:miter;" x="691.720151" xlink:href="#ma1cbe8d8d3" y="598.345306"/>
     <use style="fill:#1f77b4;stroke:#1f77b4;stroke-linejoin:miter;" x="703.379588" xlink:href="#ma1cbe8d8d3" y="599.453123"/>
     <use style="fill:#1f77b4;stroke:#1f77b4;stroke-linejoin:miter;" x="758.901065" xlink:href="#ma1cbe8d8d3" y="591.80729"/>
     <use style="fill:#1f77b4;stroke:#1f77b4;stroke-linejoin:miter;" x="767.606243" xlink:href="#ma1cbe8d8d3" y="586.891011"/>
     <use style="fill:#1f77b4;stroke:#1f77b4;stroke-linejoin:miter;" x="780.758591" xlink:href="#ma1cbe8d8d3" y="585.226125"/>
     <use style="fill:#1f77b4;stroke:#1f77b4;stroke-linejoin:miter;" x="795.146665" xlink:href="#ma1cbe8d8d3" y="584.137658"/>
     <use style="fill:#1f77b4;stroke:#1f77b4;stroke-linejoin:miter;" x="811.217624" xlink:href="#ma1cbe8d8d3" y="583.101201"/>
     <use style="fill:#1f77b4;stroke:#1f77b4;stroke-linejoin:miter;" x="831.615625" xlink:href="#ma1cbe8d8d3" y="584.078798"/>
     <use style="fill:#1f77b4;stroke:#1f77b4;stroke-linejoin:miter;" x="835.379027" xlink:href="#ma1cbe8d8d3" y="573.724416"/>
     <use style="fill:#1f77b4;stroke:#1f77b4;stroke-linejoin:miter;" x="849.668431" xlink:href="#ma1cbe8d8d3" y="569.799818"/>
     <use style="fill:#1f77b4;stroke:#1f77b4;stroke-linejoin:miter;" x="875.830478" xlink:href="#ma1cbe8d8d3" y="570.843094"/>
     <use style="fill:#1f77b4;stroke:#1f77b4;stroke-linejoin:miter;" x="877.844056" xlink:href="#ma1cbe8d8d3" y="559.672581"/>
     <use style="fill:#1f77b4;stroke:#1f77b4;stroke-linejoin:miter;" x="892.984363" xlink:href="#ma1cbe8d8d3" y="554.24202"/>
     <use style="fill:#1f77b4;stroke:#1f77b4;stroke-linejoin:miter;" x="925.493602" xlink:href="#ma1cbe8d8d3" y="554.168843"/>
     <use style="fill:#1f77b4;stroke:#1f77b4;stroke-linejoin:miter;" x="1088.960688" xlink:href="#ma1cbe8d8d3" y="526.368881"/>
     <use style="fill:#1f77b4;stroke:#1f77b4;stroke-linejoin:miter;" x="1093.07509" xlink:href="#ma1cbe8d8d3" y="510.933602"/>
     <use style="fill:#1f77b4;stroke:#1f77b4;stroke-linejoin:miter;" x="1142.428126" xlink:href="#ma1cbe8d8d3" y="501.126506"/>
    </g>
   </g>
   <g id="patch_3">
    <path d="M 144 768.96 
L 144 103.68 
" style="fill:none;stroke:#000000;stroke-linecap:square;stroke-linejoin:miter;stroke-width:0.8;"/>
   </g>
   <g id="patch_4">
    <path d="M 1036.8 768.96 
L 1036.8 103.68 
" style="fill:none;stroke:#000000;stroke-linecap:square;stroke-linejoin:miter;stroke-width:0.8;"/>
   </g>
   <g id="patch_5">
    <path d="M 144 768.96 
L 1036.8 768.96 
" style="fill:none;stroke:#000000;stroke-linecap:square;stroke-linejoin:miter;stroke-width:0.8;"/>
   </g>
   <g id="patch_6">
    <path d="M 144 103.68 
L 1036.8 103.68 
" style="fill:none;stroke:#000000;stroke-linecap:square;stroke-linejoin:miter;stroke-width:0.8;"/>
   </g>
  </g>
 </g>
 <defs>
  <clipPath id="p162e71543d">
   <rect height="665.28" width="892.8" x="144" y="103.68"/>
  </clipPath>
 </defs>
</svg>
