<?xml version="1.0" encoding="utf-8" standalone="no"?>
<!DOCTYPE svg PUBLIC "-//W3C//DTD SVG 1.1//EN"
  "http://www.w3.org/Graphics/SVG/1.1/DTD/svg11.dtd">
<!-- Created with matplotlib (http://matplotlib.org/) -->
<svg height="864pt" version="1.1" viewBox="0 0 1152 864" width="1152pt" xmlns="http://www.w3.org/2000/svg" xmlns:xlink="http://www.w3.org/1999/xlink">
 <defs>
  <style type="text/css">
*{stroke-linecap:butt;stroke-linejoin:round;}
  </style>
 </defs>
 <g id="figure_1">
  <g id="patch_1">
   <path d="M 0 864 
L 1152 864 
L 1152 0 
L 0 0 
z
" style="fill:#ffffff;"/>
  </g>
  <g id="axes_1">
   <g id="patch_2">
    <path d="M 144 768.96 
L 1036.8 768.96 
L 1036.8 103.68 
L 144 103.68 
z
" style="fill:#ffffff;"/>
   </g>
   <g id="matplotlib.axis_1">
    <g id="xtick_1">
     <g id="line2d_1">
      <defs>
       <path d="M 0 0 
L 0 3.5 
" id="m4a0d4376fa" style="stroke:#000000;stroke-width:0.8;"/>
      </defs>
      <g>
       <use style="stroke:#000000;stroke-width:0.8;" x="144" xlink:href="#m4a0d4376fa" y="768.96"/>
      </g>
     </g>
     <g id="text_1">
      <!-- −4000 -->
      <defs>
       <path d="M 10.59375 35.5 
L 73.1875 35.5 
L 73.1875 27.203125 
L 10.59375 27.203125 
z
" id="DejaVuSans-2212"/>
       <path d="M 37.796875 64.3125 
L 12.890625 25.390625 
L 37.796875 25.390625 
z
M 35.203125 72.90625 
L 47.609375 72.90625 
L 47.609375 25.390625 
L 58.015625 25.390625 
L 58.015625 17.1875 
L 47.609375 17.1875 
L 47.609375 0 
L 37.796875 0 
L 37.796875 17.1875 
L 4.890625 17.1875 
L 4.890625 26.703125 
z
" id="DejaVuSans-34"/>
       <path d="M 31.78125 66.40625 
Q 24.171875 66.40625 20.328125 58.90625 
Q 16.5 51.421875 16.5 36.375 
Q 16.5 21.390625 20.328125 13.890625 
Q 24.171875 6.390625 31.78125 6.390625 
Q 39.453125 6.390625 43.28125 13.890625 
Q 47.125 21.390625 47.125 36.375 
Q 47.125 51.421875 43.28125 58.90625 
Q 39.453125 66.40625 31.78125 66.40625 
z
M 31.78125 74.21875 
Q 44.046875 74.21875 50.515625 64.515625 
Q 56.984375 54.828125 56.984375 36.375 
Q 56.984375 17.96875 50.515625 8.265625 
Q 44.046875 -1.421875 31.78125 -1.421875 
Q 19.53125 -1.421875 13.0625 8.265625 
Q 6.59375 17.96875 6.59375 36.375 
Q 6.59375 54.828125 13.0625 64.515625 
Q 19.53125 74.21875 31.78125 74.21875 
z
" id="DejaVuSans-30"/>
      </defs>
      <g transform="translate(127.085156 783.558437)scale(0.1 -0.1)">
       <use xlink:href="#DejaVuSans-2212"/>
       <use x="83.789062" xlink:href="#DejaVuSans-34"/>
       <use x="147.412109" xlink:href="#DejaVuSans-30"/>
       <use x="211.035156" xlink:href="#DejaVuSans-30"/>
       <use x="274.658203" xlink:href="#DejaVuSans-30"/>
      </g>
     </g>
    </g>
    <g id="xtick_2">
     <g id="line2d_2">
      <g>
       <use style="stroke:#000000;stroke-width:0.8;" x="255.6" xlink:href="#m4a0d4376fa" y="768.96"/>
      </g>
     </g>
     <g id="text_2">
      <!-- −3000 -->
      <defs>
       <path d="M 40.578125 39.3125 
Q 47.65625 37.796875 51.625 33 
Q 55.609375 28.21875 55.609375 21.1875 
Q 55.609375 10.40625 48.1875 4.484375 
Q 40.765625 -1.421875 27.09375 -1.421875 
Q 22.515625 -1.421875 17.65625 -0.515625 
Q 12.796875 0.390625 7.625 2.203125 
L 7.625 11.71875 
Q 11.71875 9.328125 16.59375 8.109375 
Q 21.484375 6.890625 26.8125 6.890625 
Q 36.078125 6.890625 40.9375 10.546875 
Q 45.796875 14.203125 45.796875 21.1875 
Q 45.796875 27.640625 41.28125 31.265625 
Q 36.765625 34.90625 28.71875 34.90625 
L 20.21875 34.90625 
L 20.21875 43.015625 
L 29.109375 43.015625 
Q 36.375 43.015625 40.234375 45.921875 
Q 44.09375 48.828125 44.09375 54.296875 
Q 44.09375 59.90625 40.109375 62.90625 
Q 36.140625 65.921875 28.71875 65.921875 
Q 24.65625 65.921875 20.015625 65.03125 
Q 15.375 64.15625 9.8125 62.3125 
L 9.8125 71.09375 
Q 15.4375 72.65625 20.34375 73.4375 
Q 25.25 74.21875 29.59375 74.21875 
Q 40.828125 74.21875 47.359375 69.109375 
Q 53.90625 64.015625 53.90625 55.328125 
Q 53.90625 49.265625 50.4375 45.09375 
Q 46.96875 40.921875 40.578125 39.3125 
z
" id="DejaVuSans-33"/>
      </defs>
      <g transform="translate(238.685156 783.558437)scale(0.1 -0.1)">
       <use xlink:href="#DejaVuSans-2212"/>
       <use x="83.789062" xlink:href="#DejaVuSans-33"/>
       <use x="147.412109" xlink:href="#DejaVuSans-30"/>
       <use x="211.035156" xlink:href="#DejaVuSans-30"/>
       <use x="274.658203" xlink:href="#DejaVuSans-30"/>
      </g>
     </g>
    </g>
    <g id="xtick_3">
     <g id="line2d_3">
      <g>
       <use style="stroke:#000000;stroke-width:0.8;" x="367.2" xlink:href="#m4a0d4376fa" y="768.96"/>
      </g>
     </g>
     <g id="text_3">
      <!-- −2000 -->
      <defs>
       <path d="M 19.1875 8.296875 
L 53.609375 8.296875 
L 53.609375 0 
L 7.328125 0 
L 7.328125 8.296875 
Q 12.9375 14.109375 22.625 23.890625 
Q 32.328125 33.6875 34.8125 36.53125 
Q 39.546875 41.84375 41.421875 45.53125 
Q 43.3125 49.21875 43.3125 52.78125 
Q 43.3125 58.59375 39.234375 62.25 
Q 35.15625 65.921875 28.609375 65.921875 
Q 23.96875 65.921875 18.8125 64.3125 
Q 13.671875 62.703125 7.8125 59.421875 
L 7.8125 69.390625 
Q 13.765625 71.78125 18.9375 73 
Q 24.125 74.21875 28.421875 74.21875 
Q 39.75 74.21875 46.484375 68.546875 
Q 53.21875 62.890625 53.21875 53.421875 
Q 53.21875 48.921875 51.53125 44.890625 
Q 49.859375 40.875 45.40625 35.40625 
Q 44.1875 33.984375 37.640625 27.21875 
Q 31.109375 20.453125 19.1875 8.296875 
z
" id="DejaVuSans-32"/>
      </defs>
      <g transform="translate(350.285156 783.558437)scale(0.1 -0.1)">
       <use xlink:href="#DejaVuSans-2212"/>
       <use x="83.789062" xlink:href="#DejaVuSans-32"/>
       <use x="147.412109" xlink:href="#DejaVuSans-30"/>
       <use x="211.035156" xlink:href="#DejaVuSans-30"/>
       <use x="274.658203" xlink:href="#DejaVuSans-30"/>
      </g>
     </g>
    </g>
    <g id="xtick_4">
     <g id="line2d_4">
      <g>
       <use style="stroke:#000000;stroke-width:0.8;" x="478.8" xlink:href="#m4a0d4376fa" y="768.96"/>
      </g>
     </g>
     <g id="text_4">
      <!-- −1000 -->
      <defs>
       <path d="M 12.40625 8.296875 
L 28.515625 8.296875 
L 28.515625 63.921875 
L 10.984375 60.40625 
L 10.984375 69.390625 
L 28.421875 72.90625 
L 38.28125 72.90625 
L 38.28125 8.296875 
L 54.390625 8.296875 
L 54.390625 0 
L 12.40625 0 
z
" id="DejaVuSans-31"/>
      </defs>
      <g transform="translate(461.885156 783.558437)scale(0.1 -0.1)">
       <use xlink:href="#DejaVuSans-2212"/>
       <use x="83.789062" xlink:href="#DejaVuSans-31"/>
       <use x="147.412109" xlink:href="#DejaVuSans-30"/>
       <use x="211.035156" xlink:href="#DejaVuSans-30"/>
       <use x="274.658203" xlink:href="#DejaVuSans-30"/>
      </g>
     </g>
    </g>
    <g id="xtick_5">
     <g id="line2d_5">
      <g>
       <use style="stroke:#000000;stroke-width:0.8;" x="590.4" xlink:href="#m4a0d4376fa" y="768.96"/>
      </g>
     </g>
     <g id="text_5">
      <!-- 0 -->
      <g transform="translate(587.21875 783.558437)scale(0.1 -0.1)">
       <use xlink:href="#DejaVuSans-30"/>
      </g>
     </g>
    </g>
    <g id="xtick_6">
     <g id="line2d_6">
      <g>
       <use style="stroke:#000000;stroke-width:0.8;" x="702" xlink:href="#m4a0d4376fa" y="768.96"/>
      </g>
     </g>
     <g id="text_6">
      <!-- 1000 -->
      <g transform="translate(689.275 783.558437)scale(0.1 -0.1)">
       <use xlink:href="#DejaVuSans-31"/>
       <use x="63.623047" xlink:href="#DejaVuSans-30"/>
       <use x="127.246094" xlink:href="#DejaVuSans-30"/>
       <use x="190.869141" xlink:href="#DejaVuSans-30"/>
      </g>
     </g>
    </g>
    <g id="xtick_7">
     <g id="line2d_7">
      <g>
       <use style="stroke:#000000;stroke-width:0.8;" x="813.6" xlink:href="#m4a0d4376fa" y="768.96"/>
      </g>
     </g>
     <g id="text_7">
      <!-- 2000 -->
      <g transform="translate(800.875 783.558437)scale(0.1 -0.1)">
       <use xlink:href="#DejaVuSans-32"/>
       <use x="63.623047" xlink:href="#DejaVuSans-30"/>
       <use x="127.246094" xlink:href="#DejaVuSans-30"/>
       <use x="190.869141" xlink:href="#DejaVuSans-30"/>
      </g>
     </g>
    </g>
    <g id="xtick_8">
     <g id="line2d_8">
      <g>
       <use style="stroke:#000000;stroke-width:0.8;" x="925.2" xlink:href="#m4a0d4376fa" y="768.96"/>
      </g>
     </g>
     <g id="text_8">
      <!-- 3000 -->
      <g transform="translate(912.475 783.558437)scale(0.1 -0.1)">
       <use xlink:href="#DejaVuSans-33"/>
       <use x="63.623047" xlink:href="#DejaVuSans-30"/>
       <use x="127.246094" xlink:href="#DejaVuSans-30"/>
       <use x="190.869141" xlink:href="#DejaVuSans-30"/>
      </g>
     </g>
    </g>
    <g id="xtick_9">
     <g id="line2d_9">
      <g>
       <use style="stroke:#000000;stroke-width:0.8;" x="1036.8" xlink:href="#m4a0d4376fa" y="768.96"/>
      </g>
     </g>
     <g id="text_9">
      <!-- 4000 -->
      <g transform="translate(1024.075 783.558437)scale(0.1 -0.1)">
       <use xlink:href="#DejaVuSans-34"/>
       <use x="63.623047" xlink:href="#DejaVuSans-30"/>
       <use x="127.246094" xlink:href="#DejaVuSans-30"/>
       <use x="190.869141" xlink:href="#DejaVuSans-30"/>
      </g>
     </g>
    </g>
   </g>
   <g id="matplotlib.axis_2">
    <g id="ytick_1">
     <g id="line2d_10">
      <defs>
       <path d="M 0 0 
L -3.5 0 
" id="m525d7f2aa4" style="stroke:#000000;stroke-width:0.8;"/>
      </defs>
      <g>
       <use style="stroke:#000000;stroke-width:0.8;" x="144" xlink:href="#m525d7f2aa4" y="768.96"/>
      </g>
     </g>
     <g id="text_10">
      <!-- −4000 -->
      <g transform="translate(103.170312 772.759219)scale(0.1 -0.1)">
       <use xlink:href="#DejaVuSans-2212"/>
       <use x="83.789062" xlink:href="#DejaVuSans-34"/>
       <use x="147.412109" xlink:href="#DejaVuSans-30"/>
       <use x="211.035156" xlink:href="#DejaVuSans-30"/>
       <use x="274.658203" xlink:href="#DejaVuSans-30"/>
      </g>
     </g>
    </g>
    <g id="ytick_2">
     <g id="line2d_11">
      <g>
       <use style="stroke:#000000;stroke-width:0.8;" x="144" xlink:href="#m525d7f2aa4" y="685.8"/>
      </g>
     </g>
     <g id="text_11">
      <!-- −3000 -->
      <g transform="translate(103.170312 689.599219)scale(0.1 -0.1)">
       <use xlink:href="#DejaVuSans-2212"/>
       <use x="83.789062" xlink:href="#DejaVuSans-33"/>
       <use x="147.412109" xlink:href="#DejaVuSans-30"/>
       <use x="211.035156" xlink:href="#DejaVuSans-30"/>
       <use x="274.658203" xlink:href="#DejaVuSans-30"/>
      </g>
     </g>
    </g>
    <g id="ytick_3">
     <g id="line2d_12">
      <g>
       <use style="stroke:#000000;stroke-width:0.8;" x="144" xlink:href="#m525d7f2aa4" y="602.64"/>
      </g>
     </g>
     <g id="text_12">
      <!-- −2000 -->
      <g transform="translate(103.170312 606.439219)scale(0.1 -0.1)">
       <use xlink:href="#DejaVuSans-2212"/>
       <use x="83.789062" xlink:href="#DejaVuSans-32"/>
       <use x="147.412109" xlink:href="#DejaVuSans-30"/>
       <use x="211.035156" xlink:href="#DejaVuSans-30"/>
       <use x="274.658203" xlink:href="#DejaVuSans-30"/>
      </g>
     </g>
    </g>
    <g id="ytick_4">
     <g id="line2d_13">
      <g>
       <use style="stroke:#000000;stroke-width:0.8;" x="144" xlink:href="#m525d7f2aa4" y="519.48"/>
      </g>
     </g>
     <g id="text_13">
      <!-- −1000 -->
      <g transform="translate(103.170312 523.279219)scale(0.1 -0.1)">
       <use xlink:href="#DejaVuSans-2212"/>
       <use x="83.789062" xlink:href="#DejaVuSans-31"/>
       <use x="147.412109" xlink:href="#DejaVuSans-30"/>
       <use x="211.035156" xlink:href="#DejaVuSans-30"/>
       <use x="274.658203" xlink:href="#DejaVuSans-30"/>
      </g>
     </g>
    </g>
    <g id="ytick_5">
     <g id="line2d_14">
      <g>
       <use style="stroke:#000000;stroke-width:0.8;" x="144" xlink:href="#m525d7f2aa4" y="436.32"/>
      </g>
     </g>
     <g id="text_14">
      <!-- 0 -->
      <g transform="translate(130.6375 440.119219)scale(0.1 -0.1)">
       <use xlink:href="#DejaVuSans-30"/>
      </g>
     </g>
    </g>
    <g id="ytick_6">
     <g id="line2d_15">
      <g>
       <use style="stroke:#000000;stroke-width:0.8;" x="144" xlink:href="#m525d7f2aa4" y="353.16"/>
      </g>
     </g>
     <g id="text_15">
      <!-- 1000 -->
      <g transform="translate(111.55 356.959219)scale(0.1 -0.1)">
       <use xlink:href="#DejaVuSans-31"/>
       <use x="63.623047" xlink:href="#DejaVuSans-30"/>
       <use x="127.246094" xlink:href="#DejaVuSans-30"/>
       <use x="190.869141" xlink:href="#DejaVuSans-30"/>
      </g>
     </g>
    </g>
    <g id="ytick_7">
     <g id="line2d_16">
      <g>
       <use style="stroke:#000000;stroke-width:0.8;" x="144" xlink:href="#m525d7f2aa4" y="270"/>
      </g>
     </g>
     <g id="text_16">
      <!-- 2000 -->
      <g transform="translate(111.55 273.799219)scale(0.1 -0.1)">
       <use xlink:href="#DejaVuSans-32"/>
       <use x="63.623047" xlink:href="#DejaVuSans-30"/>
       <use x="127.246094" xlink:href="#DejaVuSans-30"/>
       <use x="190.869141" xlink:href="#DejaVuSans-30"/>
      </g>
     </g>
    </g>
    <g id="ytick_8">
     <g id="line2d_17">
      <g>
       <use style="stroke:#000000;stroke-width:0.8;" x="144" xlink:href="#m525d7f2aa4" y="186.84"/>
      </g>
     </g>
     <g id="text_17">
      <!-- 3000 -->
      <g transform="translate(111.55 190.639219)scale(0.1 -0.1)">
       <use xlink:href="#DejaVuSans-33"/>
       <use x="63.623047" xlink:href="#DejaVuSans-30"/>
       <use x="127.246094" xlink:href="#DejaVuSans-30"/>
       <use x="190.869141" xlink:href="#DejaVuSans-30"/>
      </g>
     </g>
    </g>
    <g id="ytick_9">
     <g id="line2d_18">
      <g>
       <use style="stroke:#000000;stroke-width:0.8;" x="144" xlink:href="#m525d7f2aa4" y="103.68"/>
      </g>
     </g>
     <g id="text_18">
      <!-- 4000 -->
      <g transform="translate(111.55 107.479219)scale(0.1 -0.1)">
       <use xlink:href="#DejaVuSans-34"/>
       <use x="63.623047" xlink:href="#DejaVuSans-30"/>
       <use x="127.246094" xlink:href="#DejaVuSans-30"/>
       <use x="190.869141" xlink:href="#DejaVuSans-30"/>
      </g>
     </g>
    </g>
   </g>
   <g id="line2d_19">
    <path clip-path="url(#pcb211b282e)" d="M 590.4 768.96 
L 590.4 103.68 
" style="fill:none;stroke:#1f77b4;stroke-linecap:square;stroke-width:1.5;"/>
   </g>
   <g id="line2d_20">
    <path clip-path="url(#pcb211b282e)" d="M 144 436.32 
L 1036.8 436.32 
" style="fill:none;stroke:#1f77b4;stroke-linecap:square;stroke-width:1.5;"/>
   </g>
   <g id="line2d_21">
    <defs>
     <path d="M 0 3 
C 0.795609 3 1.55874 2.683901 2.12132 2.12132 
C 2.683901 1.55874 3 0.795609 3 0 
C 3 -0.795609 2.683901 -1.55874 2.12132 -2.12132 
C 1.55874 -2.683901 0.795609 -3 0 -3 
C -0.795609 -3 -1.55874 -2.683901 -2.12132 -2.12132 
C -2.683901 -1.55874 -3 -0.795609 -3 0 
C -3 0.795609 -2.683901 1.55874 -2.12132 2.12132 
C -1.55874 2.683901 -0.795609 3 0 3 
z
" id="m8e285efe8e" style="stroke:#008000;"/>
    </defs>
    <g clip-path="url(#pcb211b282e)">
     <use style="fill:#008000;stroke:#008000;" x="1418.019521" xlink:href="#m8e285efe8e" y="487.056658"/>
    </g>
   </g>
   <g id="line2d_22">
    <g clip-path="url(#pcb211b282e)">
     <use style="fill:#008000;stroke:#008000;" x="1071.84095" xlink:href="#m8e285efe8e" y="435.43949"/>
    </g>
   </g>
   <g id="line2d_23">
    <g clip-path="url(#pcb211b282e)">
     <use style="fill:#008000;stroke:#008000;" x="775.193677" xlink:href="#m8e285efe8e" y="194.934873"/>
    </g>
   </g>
   <g id="line2d_24">
    <g clip-path="url(#pcb211b282e)">
     <use style="fill:#008000;stroke:#008000;" x="775.193677" xlink:href="#m8e285efe8e" y="194.934873"/>
    </g>
   </g>
   <g id="line2d_25">
    <g clip-path="url(#pcb211b282e)">
     <use style="fill:#008000;stroke:#008000;" x="533.446883" xlink:href="#m8e285efe8e" y="232.564114"/>
    </g>
   </g>
   <g id="line2d_26">
    <g clip-path="url(#pcb211b282e)">
     <use style="fill:#008000;stroke:#008000;" x="572.717733" xlink:href="#m8e285efe8e" y="397.694772"/>
    </g>
   </g>
   <g id="line2d_27">
    <g clip-path="url(#pcb211b282e)">
     <use style="fill:#008000;stroke:#008000;" x="572.717733" xlink:href="#m8e285efe8e" y="397.694772"/>
    </g>
   </g>
   <g id="line2d_28">
    <g clip-path="url(#pcb211b282e)">
     <use style="fill:#008000;stroke:#008000;" x="454.452812" xlink:href="#m8e285efe8e" y="248.156103"/>
    </g>
   </g>
   <g id="line2d_29">
    <g clip-path="url(#pcb211b282e)">
     <use style="fill:#008000;stroke:#008000;" x="462.844926" xlink:href="#m8e285efe8e" y="513.160577"/>
    </g>
   </g>
   <g id="line2d_30">
    <g clip-path="url(#pcb211b282e)">
     <use style="fill:#008000;stroke:#008000;" x="1096.865534" xlink:href="#m8e285efe8e" y="517.291822"/>
    </g>
   </g>
   <g id="line2d_31">
    <g clip-path="url(#pcb211b282e)">
     <use style="fill:#008000;stroke:#008000;" x="1096.865534" xlink:href="#m8e285efe8e" y="517.291822"/>
    </g>
   </g>
   <g id="line2d_32">
    <defs>
     <path d="M 0 1.333333 
C 0.353604 1.333333 0.692773 1.192845 0.942809 0.942809 
C 1.192845 0.692773 1.333333 0.353604 1.333333 0 
C 1.333333 -0.353604 1.192845 -0.692773 0.942809 -0.942809 
C 0.692773 -1.192845 0.353604 -1.333333 0 -1.333333 
C -0.353604 -1.333333 -0.692773 -1.192845 -0.942809 -0.942809 
C -1.192845 -0.692773 -1.333333 -0.353604 -1.333333 0 
C -1.333333 0.353604 -1.192845 0.692773 -0.942809 0.942809 
C -0.692773 1.192845 -0.353604 1.333333 0 1.333333 
z
" id="mdc14bffe65" style="stroke:#ff0000;"/>
    </defs>
    <g clip-path="url(#pcb211b282e)">
     <use style="fill:#ff0000;stroke:#ff0000;" x="1418.019521" xlink:href="#mdc14bffe65" y="487.056658"/>
     <use style="fill:#ff0000;stroke:#ff0000;" x="1071.84095" xlink:href="#mdc14bffe65" y="435.43949"/>
     <use style="fill:#ff0000;stroke:#ff0000;" x="1286.758756" xlink:href="#mdc14bffe65" y="349.631453"/>
     <use style="fill:#ff0000;stroke:#ff0000;" x="1257.448275" xlink:href="#mdc14bffe65" y="331.941364"/>
     <use style="fill:#ff0000;stroke:#ff0000;" x="1362.486262" xlink:href="#mdc14bffe65" y="291.039893"/>
     <use style="fill:#ff0000;stroke:#ff0000;" x="1317.986267" xlink:href="#mdc14bffe65" y="275.239592"/>
     <use style="fill:#ff0000;stroke:#ff0000;" x="651.383835" xlink:href="#mdc14bffe65" y="398.818206"/>
     <use style="fill:#ff0000;stroke:#ff0000;" x="643.010311" xlink:href="#mdc14bffe65" y="383.188599"/>
     <use style="fill:#ff0000;stroke:#ff0000;" x="785.935335" xlink:href="#mdc14bffe65" y="192.773654"/>
     <use style="fill:#ff0000;stroke:#ff0000;" x="764.657912" xlink:href="#mdc14bffe65" y="197.321041"/>
     <use style="fill:#ff0000;stroke:#ff0000;" x="533.446883" xlink:href="#mdc14bffe65" y="232.564114"/>
     <use style="fill:#ff0000;stroke:#ff0000;" x="574.865346" xlink:href="#mdc14bffe65" y="396.925274"/>
     <use style="fill:#ff0000;stroke:#ff0000;" x="570.629948" xlink:href="#mdc14bffe65" y="398.528598"/>
     <use style="fill:#ff0000;stroke:#ff0000;" x="454.452812" xlink:href="#mdc14bffe65" y="248.156103"/>
     <use style="fill:#ff0000;stroke:#ff0000;" x="389.894294" xlink:href="#mdc14bffe65" y="273.000539"/>
     <use style="fill:#ff0000;stroke:#ff0000;" x="394.301485" xlink:href="#mdc14bffe65" y="289.636018"/>
     <use style="fill:#ff0000;stroke:#ff0000;" x="417.346476" xlink:href="#mdc14bffe65" y="317.507975"/>
     <use style="fill:#ff0000;stroke:#ff0000;" x="436.197919" xlink:href="#mdc14bffe65" y="347.250431"/>
     <use style="fill:#ff0000;stroke:#ff0000;" x="407.917386" xlink:href="#mdc14bffe65" y="362.729333"/>
     <use style="fill:#ff0000;stroke:#ff0000;" x="455.05983" xlink:href="#mdc14bffe65" y="392.763069"/>
     <use style="fill:#ff0000;stroke:#ff0000;" x="441.561588" xlink:href="#mdc14bffe65" y="413.755386"/>
     <use style="fill:#ff0000;stroke:#ff0000;" x="410.975967" xlink:href="#mdc14bffe65" y="441.609599"/>
     <use style="fill:#ff0000;stroke:#ff0000;" x="394.940151" xlink:href="#mdc14bffe65" y="447.94271"/>
     <use style="fill:#ff0000;stroke:#ff0000;" x="401.384918" xlink:href="#mdc14bffe65" y="465.335769"/>
     <use style="fill:#ff0000;stroke:#ff0000;" x="435.658308" xlink:href="#mdc14bffe65" y="465.403622"/>
     <use style="fill:#ff0000;stroke:#ff0000;" x="404.744087" xlink:href="#mdc14bffe65" y="476.848226"/>
     <use style="fill:#ff0000;stroke:#ff0000;" x="456.084707" xlink:href="#mdc14bffe65" y="513.728014"/>
     <use style="fill:#ff0000;stroke:#ff0000;" x="469.507914" xlink:href="#mdc14bffe65" y="512.413287"/>
     <use style="fill:#ff0000;stroke:#ff0000;" x="457.182326" xlink:href="#mdc14bffe65" y="526.934955"/>
     <use style="fill:#ff0000;stroke:#ff0000;" x="471.726883" xlink:href="#mdc14bffe65" y="539.573522"/>
     <use style="fill:#ff0000;stroke:#ff0000;" x="457.228026" xlink:href="#mdc14bffe65" y="561.775726"/>
     <use style="fill:#ff0000;stroke:#ff0000;" x="528.04375" xlink:href="#mdc14bffe65" y="502.029084"/>
     <use style="fill:#ff0000;stroke:#ff0000;" x="573.864803" xlink:href="#mdc14bffe65" y="497.651683"/>
     <use style="fill:#ff0000;stroke:#ff0000;" x="536.903112" xlink:href="#mdc14bffe65" y="654.728248"/>
     <use style="fill:#ff0000;stroke:#ff0000;" x="552.436955" xlink:href="#mdc14bffe65" y="638.403471"/>
     <use style="fill:#ff0000;stroke:#ff0000;" x="565.995594" xlink:href="#mdc14bffe65" y="623.04552"/>
     <use style="fill:#ff0000;stroke:#ff0000;" x="576.975587" xlink:href="#mdc14bffe65" y="616.832878"/>
     <use style="fill:#ff0000;stroke:#ff0000;" x="586.235037" xlink:href="#mdc14bffe65" y="635.963038"/>
     <use style="fill:#ff0000;stroke:#ff0000;" x="597.325834" xlink:href="#mdc14bffe65" y="644.23912"/>
     <use style="fill:#ff0000;stroke:#ff0000;" x="607.886709" xlink:href="#mdc14bffe65" y="633.478031"/>
     <use style="fill:#ff0000;stroke:#ff0000;" x="620.290139" xlink:href="#mdc14bffe65" y="640.723184"/>
     <use style="fill:#ff0000;stroke:#ff0000;" x="628.031548" xlink:href="#mdc14bffe65" y="621.190651"/>
     <use style="fill:#ff0000;stroke:#ff0000;" x="663.168387" xlink:href="#mdc14bffe65" y="629.390365"/>
     <use style="fill:#ff0000;stroke:#ff0000;" x="666.233205" xlink:href="#mdc14bffe65" y="609.430131"/>
     <use style="fill:#ff0000;stroke:#ff0000;" x="669.052135" xlink:href="#mdc14bffe65" y="592.815366"/>
     <use style="fill:#ff0000;stroke:#ff0000;" x="705.241392" xlink:href="#mdc14bffe65" y="600.490057"/>
     <use style="fill:#ff0000;stroke:#ff0000;" x="759.559423" xlink:href="#mdc14bffe65" y="591.115038"/>
     <use style="fill:#ff0000;stroke:#ff0000;" x="811.847303" xlink:href="#mdc14bffe65" y="582.071519"/>
     <use style="fill:#ff0000;stroke:#ff0000;" x="852.850633" xlink:href="#mdc14bffe65" y="569.946416"/>
     <use style="fill:#ff0000;stroke:#ff0000;" x="880.464602" xlink:href="#mdc14bffe65" y="559.232178"/>
     <use style="fill:#ff0000;stroke:#ff0000;" x="895.646233" xlink:href="#mdc14bffe65" y="553.625412"/>
     <use style="fill:#ff0000;stroke:#ff0000;" x="930.196135" xlink:href="#mdc14bffe65" y="554.138365"/>
     <use style="fill:#ff0000;stroke:#ff0000;" x="1095.297562" xlink:href="#mdc14bffe65" y="525.12704"/>
     <use style="fill:#ff0000;stroke:#ff0000;" x="1098.214942" xlink:href="#mdc14bffe65" y="509.446013"/>
    </g>
   </g>
   <g id="line2d_33">
    <defs>
     <path d="M -0.5 0.5 
L 0.5 0.5 
L 0.5 -0.5 
L -0.5 -0.5 
z
" id="m18981c1dd6" style="stroke:#1f77b4;stroke-linejoin:miter;"/>
    </defs>
    <g clip-path="url(#pcb211b282e)">
     <use style="fill:#1f77b4;stroke:#1f77b4;stroke-linejoin:miter;" x="1418.019521" xlink:href="#m18981c1dd6" y="487.056658"/>
     <use style="fill:#1f77b4;stroke:#1f77b4;stroke-linejoin:miter;" x="1071.84095" xlink:href="#m18981c1dd6" y="435.43949"/>
     <use style="fill:#1f77b4;stroke:#1f77b4;stroke-linejoin:miter;" x="1286.758756" xlink:href="#m18981c1dd6" y="349.631453"/>
     <use style="fill:#1f77b4;stroke:#1f77b4;stroke-linejoin:miter;" x="1257.448275" xlink:href="#m18981c1dd6" y="331.941364"/>
     <use style="fill:#1f77b4;stroke:#1f77b4;stroke-linejoin:miter;" x="1362.486262" xlink:href="#m18981c1dd6" y="291.039893"/>
     <use style="fill:#1f77b4;stroke:#1f77b4;stroke-linejoin:miter;" x="1317.986267" xlink:href="#m18981c1dd6" y="275.239592"/>
     <use style="fill:#1f77b4;stroke:#1f77b4;stroke-linejoin:miter;" x="651.383835" xlink:href="#m18981c1dd6" y="398.818206"/>
     <use style="fill:#1f77b4;stroke:#1f77b4;stroke-linejoin:miter;" x="647.328476" xlink:href="#m18981c1dd6" y="398.20776"/>
     <use style="fill:#1f77b4;stroke:#1f77b4;stroke-linejoin:miter;" x="645.539396" xlink:href="#m18981c1dd6" y="396.206647"/>
     <use style="fill:#1f77b4;stroke:#1f77b4;stroke-linejoin:miter;" x="644.420064" xlink:href="#m18981c1dd6" y="393.552474"/>
     <use style="fill:#1f77b4;stroke:#1f77b4;stroke-linejoin:miter;" x="641.865376" xlink:href="#m18981c1dd6" y="392.0573"/>
     <use style="fill:#1f77b4;stroke:#1f77b4;stroke-linejoin:miter;" x="640.903762" xlink:href="#m18981c1dd6" y="389.429695"/>
     <use style="fill:#1f77b4;stroke:#1f77b4;stroke-linejoin:miter;" x="643.010311" xlink:href="#m18981c1dd6" y="383.188599"/>
     <use style="fill:#1f77b4;stroke:#1f77b4;stroke-linejoin:miter;" x="785.935335" xlink:href="#m18981c1dd6" y="192.773654"/>
     <use style="fill:#1f77b4;stroke:#1f77b4;stroke-linejoin:miter;" x="764.657912" xlink:href="#m18981c1dd6" y="197.321041"/>
     <use style="fill:#1f77b4;stroke:#1f77b4;stroke-linejoin:miter;" x="747.211835" xlink:href="#m18981c1dd6" y="198.554672"/>
     <use style="fill:#1f77b4;stroke:#1f77b4;stroke-linejoin:miter;" x="729.678055" xlink:href="#m18981c1dd6" y="200.974013"/>
     <use style="fill:#1f77b4;stroke:#1f77b4;stroke-linejoin:miter;" x="712.815725" xlink:href="#m18981c1dd6" y="204.003065"/>
     <use style="fill:#1f77b4;stroke:#1f77b4;stroke-linejoin:miter;" x="696.984493" xlink:href="#m18981c1dd6" y="206.474697"/>
     <use style="fill:#1f77b4;stroke:#1f77b4;stroke-linejoin:miter;" x="682.090203" xlink:href="#m18981c1dd6" y="208.854753"/>
     <use style="fill:#1f77b4;stroke:#1f77b4;stroke-linejoin:miter;" x="667.716673" xlink:href="#m18981c1dd6" y="211.012594"/>
     <use style="fill:#1f77b4;stroke:#1f77b4;stroke-linejoin:miter;" x="654.184163" xlink:href="#m18981c1dd6" y="212.411098"/>
     <use style="fill:#1f77b4;stroke:#1f77b4;stroke-linejoin:miter;" x="640.713343" xlink:href="#m18981c1dd6" y="214.876973"/>
     <use style="fill:#1f77b4;stroke:#1f77b4;stroke-linejoin:miter;" x="627.481819" xlink:href="#m18981c1dd6" y="216.239353"/>
     <use style="fill:#1f77b4;stroke:#1f77b4;stroke-linejoin:miter;" x="614.923166" xlink:href="#m18981c1dd6" y="218.561706"/>
     <use style="fill:#1f77b4;stroke:#1f77b4;stroke-linejoin:miter;" x="602.625604" xlink:href="#m18981c1dd6" y="219.526095"/>
     <use style="fill:#1f77b4;stroke:#1f77b4;stroke-linejoin:miter;" x="590.477851" xlink:href="#m18981c1dd6" y="223.596728"/>
     <use style="fill:#1f77b4;stroke:#1f77b4;stroke-linejoin:miter;" x="578.952158" xlink:href="#m18981c1dd6" y="225.078662"/>
     <use style="fill:#1f77b4;stroke:#1f77b4;stroke-linejoin:miter;" x="567.357511" xlink:href="#m18981c1dd6" y="226.209821"/>
     <use style="fill:#1f77b4;stroke:#1f77b4;stroke-linejoin:miter;" x="555.809092" xlink:href="#m18981c1dd6" y="227.803359"/>
     <use style="fill:#1f77b4;stroke:#1f77b4;stroke-linejoin:miter;" x="544.998103" xlink:href="#m18981c1dd6" y="232.097303"/>
     <use style="fill:#1f77b4;stroke:#1f77b4;stroke-linejoin:miter;" x="533.446883" xlink:href="#m18981c1dd6" y="232.564114"/>
     <use style="fill:#1f77b4;stroke:#1f77b4;stroke-linejoin:miter;" x="574.865346" xlink:href="#m18981c1dd6" y="396.925274"/>
     <use style="fill:#1f77b4;stroke:#1f77b4;stroke-linejoin:miter;" x="573.054659" xlink:href="#m18981c1dd6" y="398.31207"/>
     <use style="fill:#1f77b4;stroke:#1f77b4;stroke-linejoin:miter;" x="570.629948" xlink:href="#m18981c1dd6" y="398.528598"/>
     <use style="fill:#1f77b4;stroke:#1f77b4;stroke-linejoin:miter;" x="454.452812" xlink:href="#m18981c1dd6" y="248.156103"/>
     <use style="fill:#1f77b4;stroke:#1f77b4;stroke-linejoin:miter;" x="442.761223" xlink:href="#m18981c1dd6" y="250.595972"/>
     <use style="fill:#1f77b4;stroke:#1f77b4;stroke-linejoin:miter;" x="429.677947" xlink:href="#m18981c1dd6" y="251.899839"/>
     <use style="fill:#1f77b4;stroke:#1f77b4;stroke-linejoin:miter;" x="418.885792" xlink:href="#m18981c1dd6" y="256.001217"/>
     <use style="fill:#1f77b4;stroke:#1f77b4;stroke-linejoin:miter;" x="411.04076" xlink:href="#m18981c1dd6" y="263.511991"/>
     <use style="fill:#1f77b4;stroke:#1f77b4;stroke-linejoin:miter;" x="403.107681" xlink:href="#m18981c1dd6" y="270.363294"/>
     <use style="fill:#1f77b4;stroke:#1f77b4;stroke-linejoin:miter;" x="389.894294" xlink:href="#m18981c1dd6" y="273.000539"/>
     <use style="fill:#1f77b4;stroke:#1f77b4;stroke-linejoin:miter;" x="394.301485" xlink:href="#m18981c1dd6" y="289.636018"/>
     <use style="fill:#1f77b4;stroke:#1f77b4;stroke-linejoin:miter;" x="417.346476" xlink:href="#m18981c1dd6" y="317.507975"/>
     <use style="fill:#1f77b4;stroke:#1f77b4;stroke-linejoin:miter;" x="436.197919" xlink:href="#m18981c1dd6" y="347.250431"/>
     <use style="fill:#1f77b4;stroke:#1f77b4;stroke-linejoin:miter;" x="423.138528" xlink:href="#m18981c1dd6" y="347.519978"/>
     <use style="fill:#1f77b4;stroke:#1f77b4;stroke-linejoin:miter;" x="420.444773" xlink:href="#m18981c1dd6" y="353.633764"/>
     <use style="fill:#1f77b4;stroke:#1f77b4;stroke-linejoin:miter;" x="411.173757" xlink:href="#m18981c1dd6" y="356.815317"/>
     <use style="fill:#1f77b4;stroke:#1f77b4;stroke-linejoin:miter;" x="407.917386" xlink:href="#m18981c1dd6" y="362.729333"/>
     <use style="fill:#1f77b4;stroke:#1f77b4;stroke-linejoin:miter;" x="455.05983" xlink:href="#m18981c1dd6" y="392.763069"/>
     <use style="fill:#1f77b4;stroke:#1f77b4;stroke-linejoin:miter;" x="456.020003" xlink:href="#m18981c1dd6" y="398.007135"/>
     <use style="fill:#1f77b4;stroke:#1f77b4;stroke-linejoin:miter;" x="456.745224" xlink:href="#m18981c1dd6" y="402.965988"/>
     <use style="fill:#1f77b4;stroke:#1f77b4;stroke-linejoin:miter;" x="458.58" xlink:href="#m18981c1dd6" y="407.863689"/>
     <use style="fill:#1f77b4;stroke:#1f77b4;stroke-linejoin:miter;" x="459.017049" xlink:href="#m18981c1dd6" y="412.363658"/>
     <use style="fill:#1f77b4;stroke:#1f77b4;stroke-linejoin:miter;" x="441.561588" xlink:href="#m18981c1dd6" y="413.755386"/>
     <use style="fill:#1f77b4;stroke:#1f77b4;stroke-linejoin:miter;" x="425.549461" xlink:href="#m18981c1dd6" y="416.245414"/>
     <use style="fill:#1f77b4;stroke:#1f77b4;stroke-linejoin:miter;" x="425.544099" xlink:href="#m18981c1dd6" y="421.440617"/>
     <use style="fill:#1f77b4;stroke:#1f77b4;stroke-linejoin:miter;" x="422.38654" xlink:href="#m18981c1dd6" y="426.363705"/>
     <use style="fill:#1f77b4;stroke:#1f77b4;stroke-linejoin:miter;" x="420.220738" xlink:href="#m18981c1dd6" y="431.510752"/>
     <use style="fill:#1f77b4;stroke:#1f77b4;stroke-linejoin:miter;" x="420.572706" xlink:href="#m18981c1dd6" y="436.354511"/>
     <use style="fill:#1f77b4;stroke:#1f77b4;stroke-linejoin:miter;" x="410.975967" xlink:href="#m18981c1dd6" y="441.609599"/>
     <use style="fill:#1f77b4;stroke:#1f77b4;stroke-linejoin:miter;" x="394.940151" xlink:href="#m18981c1dd6" y="447.94271"/>
     <use style="fill:#1f77b4;stroke:#1f77b4;stroke-linejoin:miter;" x="396.156983" xlink:href="#m18981c1dd6" y="453.851773"/>
     <use style="fill:#1f77b4;stroke:#1f77b4;stroke-linejoin:miter;" x="398.851246" xlink:href="#m18981c1dd6" y="459.565825"/>
     <use style="fill:#1f77b4;stroke:#1f77b4;stroke-linejoin:miter;" x="401.384918" xlink:href="#m18981c1dd6" y="465.335769"/>
     <use style="fill:#1f77b4;stroke:#1f77b4;stroke-linejoin:miter;" x="435.658308" xlink:href="#m18981c1dd6" y="465.403622"/>
     <use style="fill:#1f77b4;stroke:#1f77b4;stroke-linejoin:miter;" x="404.744087" xlink:href="#m18981c1dd6" y="476.848226"/>
     <use style="fill:#1f77b4;stroke:#1f77b4;stroke-linejoin:miter;" x="404.604824" xlink:href="#m18981c1dd6" y="483.021997"/>
     <use style="fill:#1f77b4;stroke:#1f77b4;stroke-linejoin:miter;" x="406.593884" xlink:href="#m18981c1dd6" y="488.853164"/>
     <use style="fill:#1f77b4;stroke:#1f77b4;stroke-linejoin:miter;" x="408.060727" xlink:href="#m18981c1dd6" y="495.266771"/>
     <use style="fill:#1f77b4;stroke:#1f77b4;stroke-linejoin:miter;" x="411.371132" xlink:href="#m18981c1dd6" y="507.673444"/>
     <use style="fill:#1f77b4;stroke:#1f77b4;stroke-linejoin:miter;" x="432.251912" xlink:href="#m18981c1dd6" y="512.667345"/>
     <use style="fill:#1f77b4;stroke:#1f77b4;stroke-linejoin:miter;" x="439.131463" xlink:href="#m18981c1dd6" y="516.120596"/>
     <use style="fill:#1f77b4;stroke:#1f77b4;stroke-linejoin:miter;" x="456.084707" xlink:href="#m18981c1dd6" y="513.728014"/>
     <use style="fill:#1f77b4;stroke:#1f77b4;stroke-linejoin:miter;" x="469.507914" xlink:href="#m18981c1dd6" y="512.413287"/>
     <use style="fill:#1f77b4;stroke:#1f77b4;stroke-linejoin:miter;" x="457.182326" xlink:href="#m18981c1dd6" y="526.934955"/>
     <use style="fill:#1f77b4;stroke:#1f77b4;stroke-linejoin:miter;" x="456.605405" xlink:href="#m18981c1dd6" y="534.990704"/>
     <use style="fill:#1f77b4;stroke:#1f77b4;stroke-linejoin:miter;" x="466.689853" xlink:href="#m18981c1dd6" y="535.500114"/>
     <use style="fill:#1f77b4;stroke:#1f77b4;stroke-linejoin:miter;" x="471.726883" xlink:href="#m18981c1dd6" y="539.573522"/>
     <use style="fill:#1f77b4;stroke:#1f77b4;stroke-linejoin:miter;" x="457.228026" xlink:href="#m18981c1dd6" y="561.775726"/>
     <use style="fill:#1f77b4;stroke:#1f77b4;stroke-linejoin:miter;" x="528.04375" xlink:href="#m18981c1dd6" y="502.029084"/>
     <use style="fill:#1f77b4;stroke:#1f77b4;stroke-linejoin:miter;" x="535.638877" xlink:href="#m18981c1dd6" y="499.532259"/>
     <use style="fill:#1f77b4;stroke:#1f77b4;stroke-linejoin:miter;" x="544.986918" xlink:href="#m18981c1dd6" y="494.201348"/>
     <use style="fill:#1f77b4;stroke:#1f77b4;stroke-linejoin:miter;" x="549.576897" xlink:href="#m18981c1dd6" y="493.98578"/>
     <use style="fill:#1f77b4;stroke:#1f77b4;stroke-linejoin:miter;" x="552.860604" xlink:href="#m18981c1dd6" y="494.843148"/>
     <use style="fill:#1f77b4;stroke:#1f77b4;stroke-linejoin:miter;" x="555.071004" xlink:href="#m18981c1dd6" y="497.779722"/>
     <use style="fill:#1f77b4;stroke:#1f77b4;stroke-linejoin:miter;" x="561.789258" xlink:href="#m18981c1dd6" y="492.871287"/>
     <use style="fill:#1f77b4;stroke:#1f77b4;stroke-linejoin:miter;" x="565.787365" xlink:href="#m18981c1dd6" y="491.786342"/>
     <use style="fill:#1f77b4;stroke:#1f77b4;stroke-linejoin:miter;" x="569.08731" xlink:href="#m18981c1dd6" y="492.280514"/>
     <use style="fill:#1f77b4;stroke:#1f77b4;stroke-linejoin:miter;" x="571.863644" xlink:href="#m18981c1dd6" y="493.853514"/>
     <use style="fill:#1f77b4;stroke:#1f77b4;stroke-linejoin:miter;" x="573.864803" xlink:href="#m18981c1dd6" y="497.651683"/>
     <use style="fill:#1f77b4;stroke:#1f77b4;stroke-linejoin:miter;" x="536.903112" xlink:href="#m18981c1dd6" y="654.728248"/>
     <use style="fill:#1f77b4;stroke:#1f77b4;stroke-linejoin:miter;" x="552.436955" xlink:href="#m18981c1dd6" y="638.403471"/>
     <use style="fill:#1f77b4;stroke:#1f77b4;stroke-linejoin:miter;" x="565.995594" xlink:href="#m18981c1dd6" y="623.04552"/>
     <use style="fill:#1f77b4;stroke:#1f77b4;stroke-linejoin:miter;" x="576.975587" xlink:href="#m18981c1dd6" y="616.832878"/>
     <use style="fill:#1f77b4;stroke:#1f77b4;stroke-linejoin:miter;" x="586.235037" xlink:href="#m18981c1dd6" y="635.963038"/>
     <use style="fill:#1f77b4;stroke:#1f77b4;stroke-linejoin:miter;" x="597.325834" xlink:href="#m18981c1dd6" y="644.23912"/>
     <use style="fill:#1f77b4;stroke:#1f77b4;stroke-linejoin:miter;" x="607.886709" xlink:href="#m18981c1dd6" y="633.478031"/>
     <use style="fill:#1f77b4;stroke:#1f77b4;stroke-linejoin:miter;" x="620.290139" xlink:href="#m18981c1dd6" y="640.723184"/>
     <use style="fill:#1f77b4;stroke:#1f77b4;stroke-linejoin:miter;" x="628.031548" xlink:href="#m18981c1dd6" y="621.190651"/>
     <use style="fill:#1f77b4;stroke:#1f77b4;stroke-linejoin:miter;" x="663.168387" xlink:href="#m18981c1dd6" y="629.390365"/>
     <use style="fill:#1f77b4;stroke:#1f77b4;stroke-linejoin:miter;" x="666.233205" xlink:href="#m18981c1dd6" y="609.430131"/>
     <use style="fill:#1f77b4;stroke:#1f77b4;stroke-linejoin:miter;" x="669.052135" xlink:href="#m18981c1dd6" y="592.815366"/>
     <use style="fill:#1f77b4;stroke:#1f77b4;stroke-linejoin:miter;" x="682.282096" xlink:href="#m18981c1dd6" y="598.849"/>
     <use style="fill:#1f77b4;stroke:#1f77b4;stroke-linejoin:miter;" x="692.5612" xlink:href="#m18981c1dd6" y="597.959876"/>
     <use style="fill:#1f77b4;stroke:#1f77b4;stroke-linejoin:miter;" x="705.241392" xlink:href="#m18981c1dd6" y="600.490057"/>
     <use style="fill:#1f77b4;stroke:#1f77b4;stroke-linejoin:miter;" x="759.559423" xlink:href="#m18981c1dd6" y="591.115038"/>
     <use style="fill:#1f77b4;stroke:#1f77b4;stroke-linejoin:miter;" x="771.055935" xlink:href="#m18981c1dd6" y="588.477754"/>
     <use style="fill:#1f77b4;stroke:#1f77b4;stroke-linejoin:miter;" x="781.358059" xlink:href="#m18981c1dd6" y="584.395914"/>
     <use style="fill:#1f77b4;stroke:#1f77b4;stroke-linejoin:miter;" x="796.507563" xlink:href="#m18981c1dd6" y="583.504714"/>
     <use style="fill:#1f77b4;stroke:#1f77b4;stroke-linejoin:miter;" x="811.847303" xlink:href="#m18981c1dd6" y="582.071519"/>
     <use style="fill:#1f77b4;stroke:#1f77b4;stroke-linejoin:miter;" x="830.660184" xlink:href="#m18981c1dd6" y="582.026739"/>
     <use style="fill:#1f77b4;stroke:#1f77b4;stroke-linejoin:miter;" x="836.862924" xlink:href="#m18981c1dd6" y="573.149625"/>
     <use style="fill:#1f77b4;stroke:#1f77b4;stroke-linejoin:miter;" x="852.850633" xlink:href="#m18981c1dd6" y="569.946416"/>
     <use style="fill:#1f77b4;stroke:#1f77b4;stroke-linejoin:miter;" x="880.464602" xlink:href="#m18981c1dd6" y="559.232178"/>
     <use style="fill:#1f77b4;stroke:#1f77b4;stroke-linejoin:miter;" x="895.646233" xlink:href="#m18981c1dd6" y="553.625412"/>
     <use style="fill:#1f77b4;stroke:#1f77b4;stroke-linejoin:miter;" x="930.196135" xlink:href="#m18981c1dd6" y="554.138365"/>
     <use style="fill:#1f77b4;stroke:#1f77b4;stroke-linejoin:miter;" x="1095.297562" xlink:href="#m18981c1dd6" y="525.12704"/>
     <use style="fill:#1f77b4;stroke:#1f77b4;stroke-linejoin:miter;" x="1098.214942" xlink:href="#m18981c1dd6" y="509.446013"/>
    </g>
   </g>
   <g id="patch_3">
    <path d="M 144 768.96 
L 144 103.68 
" style="fill:none;stroke:#000000;stroke-linecap:square;stroke-linejoin:miter;stroke-width:0.8;"/>
   </g>
   <g id="patch_4">
    <path d="M 1036.8 768.96 
L 1036.8 103.68 
" style="fill:none;stroke:#000000;stroke-linecap:square;stroke-linejoin:miter;stroke-width:0.8;"/>
   </g>
   <g id="patch_5">
    <path d="M 144 768.96 
L 1036.8 768.96 
" style="fill:none;stroke:#000000;stroke-linecap:square;stroke-linejoin:miter;stroke-width:0.8;"/>
   </g>
   <g id="patch_6">
    <path d="M 144 103.68 
L 1036.8 103.68 
" style="fill:none;stroke:#000000;stroke-linecap:square;stroke-linejoin:miter;stroke-width:0.8;"/>
   </g>
  </g>
 </g>
 <defs>
  <clipPath id="pcb211b282e">
   <rect height="665.28" width="892.8" x="144" y="103.68"/>
  </clipPath>
 </defs>
</svg>
