<?xml version="1.0" encoding="utf-8" standalone="no"?>
<!DOCTYPE svg PUBLIC "-//W3C//DTD SVG 1.1//EN"
  "http://www.w3.org/Graphics/SVG/1.1/DTD/svg11.dtd">
<!-- Created with matplotlib (http://matplotlib.org/) -->
<svg height="864pt" version="1.1" viewBox="0 0 1152 864" width="1152pt" xmlns="http://www.w3.org/2000/svg" xmlns:xlink="http://www.w3.org/1999/xlink">
 <defs>
  <style type="text/css">
*{stroke-linecap:butt;stroke-linejoin:round;}
  </style>
 </defs>
 <g id="figure_1">
  <g id="patch_1">
   <path d="M 0 864 
L 1152 864 
L 1152 0 
L 0 0 
z
" style="fill:#ffffff;"/>
  </g>
  <g id="axes_1">
   <g id="patch_2">
    <path d="M 144 768.96 
L 1036.8 768.96 
L 1036.8 103.68 
L 144 103.68 
z
" style="fill:#ffffff;"/>
   </g>
   <g id="matplotlib.axis_1">
    <g id="xtick_1">
     <g id="line2d_1">
      <defs>
       <path d="M 0 0 
L 0 3.5 
" id="m3fd3d35491" style="stroke:#000000;stroke-width:0.8;"/>
      </defs>
      <g>
       <use style="stroke:#000000;stroke-width:0.8;" x="207.771429" xlink:href="#m3fd3d35491" y="768.96"/>
      </g>
     </g>
     <g id="text_1">
      <!-- −6000 -->
      <defs>
       <path d="M 10.59375 35.5 
L 73.1875 35.5 
L 73.1875 27.203125 
L 10.59375 27.203125 
z
" id="DejaVuSans-2212"/>
       <path d="M 33.015625 40.375 
Q 26.375 40.375 22.484375 35.828125 
Q 18.609375 31.296875 18.609375 23.390625 
Q 18.609375 15.53125 22.484375 10.953125 
Q 26.375 6.390625 33.015625 6.390625 
Q 39.65625 6.390625 43.53125 10.953125 
Q 47.40625 15.53125 47.40625 23.390625 
Q 47.40625 31.296875 43.53125 35.828125 
Q 39.65625 40.375 33.015625 40.375 
z
M 52.59375 71.296875 
L 52.59375 62.3125 
Q 48.875 64.0625 45.09375 64.984375 
Q 41.3125 65.921875 37.59375 65.921875 
Q 27.828125 65.921875 22.671875 59.328125 
Q 17.53125 52.734375 16.796875 39.40625 
Q 19.671875 43.65625 24.015625 45.921875 
Q 28.375 48.1875 33.59375 48.1875 
Q 44.578125 48.1875 50.953125 41.515625 
Q 57.328125 34.859375 57.328125 23.390625 
Q 57.328125 12.15625 50.6875 5.359375 
Q 44.046875 -1.421875 33.015625 -1.421875 
Q 20.359375 -1.421875 13.671875 8.265625 
Q 6.984375 17.96875 6.984375 36.375 
Q 6.984375 53.65625 15.1875 63.9375 
Q 23.390625 74.21875 37.203125 74.21875 
Q 40.921875 74.21875 44.703125 73.484375 
Q 48.484375 72.75 52.59375 71.296875 
z
" id="DejaVuSans-36"/>
       <path d="M 31.78125 66.40625 
Q 24.171875 66.40625 20.328125 58.90625 
Q 16.5 51.421875 16.5 36.375 
Q 16.5 21.390625 20.328125 13.890625 
Q 24.171875 6.390625 31.78125 6.390625 
Q 39.453125 6.390625 43.28125 13.890625 
Q 47.125 21.390625 47.125 36.375 
Q 47.125 51.421875 43.28125 58.90625 
Q 39.453125 66.40625 31.78125 66.40625 
z
M 31.78125 74.21875 
Q 44.046875 74.21875 50.515625 64.515625 
Q 56.984375 54.828125 56.984375 36.375 
Q 56.984375 17.96875 50.515625 8.265625 
Q 44.046875 -1.421875 31.78125 -1.421875 
Q 19.53125 -1.421875 13.0625 8.265625 
Q 6.59375 17.96875 6.59375 36.375 
Q 6.59375 54.828125 13.0625 64.515625 
Q 19.53125 74.21875 31.78125 74.21875 
z
" id="DejaVuSans-30"/>
      </defs>
      <g transform="translate(190.856585 783.558437)scale(0.1 -0.1)">
       <use xlink:href="#DejaVuSans-2212"/>
       <use x="83.789062" xlink:href="#DejaVuSans-36"/>
       <use x="147.412109" xlink:href="#DejaVuSans-30"/>
       <use x="211.035156" xlink:href="#DejaVuSans-30"/>
       <use x="274.658203" xlink:href="#DejaVuSans-30"/>
      </g>
     </g>
    </g>
    <g id="xtick_2">
     <g id="line2d_2">
      <g>
       <use style="stroke:#000000;stroke-width:0.8;" x="335.314286" xlink:href="#m3fd3d35491" y="768.96"/>
      </g>
     </g>
     <g id="text_2">
      <!-- −4000 -->
      <defs>
       <path d="M 37.796875 64.3125 
L 12.890625 25.390625 
L 37.796875 25.390625 
z
M 35.203125 72.90625 
L 47.609375 72.90625 
L 47.609375 25.390625 
L 58.015625 25.390625 
L 58.015625 17.1875 
L 47.609375 17.1875 
L 47.609375 0 
L 37.796875 0 
L 37.796875 17.1875 
L 4.890625 17.1875 
L 4.890625 26.703125 
z
" id="DejaVuSans-34"/>
      </defs>
      <g transform="translate(318.399442 783.558437)scale(0.1 -0.1)">
       <use xlink:href="#DejaVuSans-2212"/>
       <use x="83.789062" xlink:href="#DejaVuSans-34"/>
       <use x="147.412109" xlink:href="#DejaVuSans-30"/>
       <use x="211.035156" xlink:href="#DejaVuSans-30"/>
       <use x="274.658203" xlink:href="#DejaVuSans-30"/>
      </g>
     </g>
    </g>
    <g id="xtick_3">
     <g id="line2d_3">
      <g>
       <use style="stroke:#000000;stroke-width:0.8;" x="462.857143" xlink:href="#m3fd3d35491" y="768.96"/>
      </g>
     </g>
     <g id="text_3">
      <!-- −2000 -->
      <defs>
       <path d="M 19.1875 8.296875 
L 53.609375 8.296875 
L 53.609375 0 
L 7.328125 0 
L 7.328125 8.296875 
Q 12.9375 14.109375 22.625 23.890625 
Q 32.328125 33.6875 34.8125 36.53125 
Q 39.546875 41.84375 41.421875 45.53125 
Q 43.3125 49.21875 43.3125 52.78125 
Q 43.3125 58.59375 39.234375 62.25 
Q 35.15625 65.921875 28.609375 65.921875 
Q 23.96875 65.921875 18.8125 64.3125 
Q 13.671875 62.703125 7.8125 59.421875 
L 7.8125 69.390625 
Q 13.765625 71.78125 18.9375 73 
Q 24.125 74.21875 28.421875 74.21875 
Q 39.75 74.21875 46.484375 68.546875 
Q 53.21875 62.890625 53.21875 53.421875 
Q 53.21875 48.921875 51.53125 44.890625 
Q 49.859375 40.875 45.40625 35.40625 
Q 44.1875 33.984375 37.640625 27.21875 
Q 31.109375 20.453125 19.1875 8.296875 
z
" id="DejaVuSans-32"/>
      </defs>
      <g transform="translate(445.942299 783.558437)scale(0.1 -0.1)">
       <use xlink:href="#DejaVuSans-2212"/>
       <use x="83.789062" xlink:href="#DejaVuSans-32"/>
       <use x="147.412109" xlink:href="#DejaVuSans-30"/>
       <use x="211.035156" xlink:href="#DejaVuSans-30"/>
       <use x="274.658203" xlink:href="#DejaVuSans-30"/>
      </g>
     </g>
    </g>
    <g id="xtick_4">
     <g id="line2d_4">
      <g>
       <use style="stroke:#000000;stroke-width:0.8;" x="590.4" xlink:href="#m3fd3d35491" y="768.96"/>
      </g>
     </g>
     <g id="text_4">
      <!-- 0 -->
      <g transform="translate(587.21875 783.558437)scale(0.1 -0.1)">
       <use xlink:href="#DejaVuSans-30"/>
      </g>
     </g>
    </g>
    <g id="xtick_5">
     <g id="line2d_5">
      <g>
       <use style="stroke:#000000;stroke-width:0.8;" x="717.942857" xlink:href="#m3fd3d35491" y="768.96"/>
      </g>
     </g>
     <g id="text_5">
      <!-- 2000 -->
      <g transform="translate(705.217857 783.558437)scale(0.1 -0.1)">
       <use xlink:href="#DejaVuSans-32"/>
       <use x="63.623047" xlink:href="#DejaVuSans-30"/>
       <use x="127.246094" xlink:href="#DejaVuSans-30"/>
       <use x="190.869141" xlink:href="#DejaVuSans-30"/>
      </g>
     </g>
    </g>
    <g id="xtick_6">
     <g id="line2d_6">
      <g>
       <use style="stroke:#000000;stroke-width:0.8;" x="845.485714" xlink:href="#m3fd3d35491" y="768.96"/>
      </g>
     </g>
     <g id="text_6">
      <!-- 4000 -->
      <g transform="translate(832.760714 783.558437)scale(0.1 -0.1)">
       <use xlink:href="#DejaVuSans-34"/>
       <use x="63.623047" xlink:href="#DejaVuSans-30"/>
       <use x="127.246094" xlink:href="#DejaVuSans-30"/>
       <use x="190.869141" xlink:href="#DejaVuSans-30"/>
      </g>
     </g>
    </g>
    <g id="xtick_7">
     <g id="line2d_7">
      <g>
       <use style="stroke:#000000;stroke-width:0.8;" x="973.028571" xlink:href="#m3fd3d35491" y="768.96"/>
      </g>
     </g>
     <g id="text_7">
      <!-- 6000 -->
      <g transform="translate(960.303571 783.558437)scale(0.1 -0.1)">
       <use xlink:href="#DejaVuSans-36"/>
       <use x="63.623047" xlink:href="#DejaVuSans-30"/>
       <use x="127.246094" xlink:href="#DejaVuSans-30"/>
       <use x="190.869141" xlink:href="#DejaVuSans-30"/>
      </g>
     </g>
    </g>
   </g>
   <g id="matplotlib.axis_2">
    <g id="ytick_1">
     <g id="line2d_8">
      <defs>
       <path d="M 0 0 
L -3.5 0 
" id="ma296b414d6" style="stroke:#000000;stroke-width:0.8;"/>
      </defs>
      <g>
       <use style="stroke:#000000;stroke-width:0.8;" x="144" xlink:href="#ma296b414d6" y="721.44"/>
      </g>
     </g>
     <g id="text_8">
      <!-- −6000 -->
      <g transform="translate(103.170312 725.239219)scale(0.1 -0.1)">
       <use xlink:href="#DejaVuSans-2212"/>
       <use x="83.789062" xlink:href="#DejaVuSans-36"/>
       <use x="147.412109" xlink:href="#DejaVuSans-30"/>
       <use x="211.035156" xlink:href="#DejaVuSans-30"/>
       <use x="274.658203" xlink:href="#DejaVuSans-30"/>
      </g>
     </g>
    </g>
    <g id="ytick_2">
     <g id="line2d_9">
      <g>
       <use style="stroke:#000000;stroke-width:0.8;" x="144" xlink:href="#ma296b414d6" y="626.4"/>
      </g>
     </g>
     <g id="text_9">
      <!-- −4000 -->
      <g transform="translate(103.170312 630.199219)scale(0.1 -0.1)">
       <use xlink:href="#DejaVuSans-2212"/>
       <use x="83.789062" xlink:href="#DejaVuSans-34"/>
       <use x="147.412109" xlink:href="#DejaVuSans-30"/>
       <use x="211.035156" xlink:href="#DejaVuSans-30"/>
       <use x="274.658203" xlink:href="#DejaVuSans-30"/>
      </g>
     </g>
    </g>
    <g id="ytick_3">
     <g id="line2d_10">
      <g>
       <use style="stroke:#000000;stroke-width:0.8;" x="144" xlink:href="#ma296b414d6" y="531.36"/>
      </g>
     </g>
     <g id="text_10">
      <!-- −2000 -->
      <g transform="translate(103.170312 535.159219)scale(0.1 -0.1)">
       <use xlink:href="#DejaVuSans-2212"/>
       <use x="83.789062" xlink:href="#DejaVuSans-32"/>
       <use x="147.412109" xlink:href="#DejaVuSans-30"/>
       <use x="211.035156" xlink:href="#DejaVuSans-30"/>
       <use x="274.658203" xlink:href="#DejaVuSans-30"/>
      </g>
     </g>
    </g>
    <g id="ytick_4">
     <g id="line2d_11">
      <g>
       <use style="stroke:#000000;stroke-width:0.8;" x="144" xlink:href="#ma296b414d6" y="436.32"/>
      </g>
     </g>
     <g id="text_11">
      <!-- 0 -->
      <g transform="translate(130.6375 440.119219)scale(0.1 -0.1)">
       <use xlink:href="#DejaVuSans-30"/>
      </g>
     </g>
    </g>
    <g id="ytick_5">
     <g id="line2d_12">
      <g>
       <use style="stroke:#000000;stroke-width:0.8;" x="144" xlink:href="#ma296b414d6" y="341.28"/>
      </g>
     </g>
     <g id="text_12">
      <!-- 2000 -->
      <g transform="translate(111.55 345.079219)scale(0.1 -0.1)">
       <use xlink:href="#DejaVuSans-32"/>
       <use x="63.623047" xlink:href="#DejaVuSans-30"/>
       <use x="127.246094" xlink:href="#DejaVuSans-30"/>
       <use x="190.869141" xlink:href="#DejaVuSans-30"/>
      </g>
     </g>
    </g>
    <g id="ytick_6">
     <g id="line2d_13">
      <g>
       <use style="stroke:#000000;stroke-width:0.8;" x="144" xlink:href="#ma296b414d6" y="246.24"/>
      </g>
     </g>
     <g id="text_13">
      <!-- 4000 -->
      <g transform="translate(111.55 250.039219)scale(0.1 -0.1)">
       <use xlink:href="#DejaVuSans-34"/>
       <use x="63.623047" xlink:href="#DejaVuSans-30"/>
       <use x="127.246094" xlink:href="#DejaVuSans-30"/>
       <use x="190.869141" xlink:href="#DejaVuSans-30"/>
      </g>
     </g>
    </g>
    <g id="ytick_7">
     <g id="line2d_14">
      <g>
       <use style="stroke:#000000;stroke-width:0.8;" x="144" xlink:href="#ma296b414d6" y="151.2"/>
      </g>
     </g>
     <g id="text_14">
      <!-- 6000 -->
      <g transform="translate(111.55 154.999219)scale(0.1 -0.1)">
       <use xlink:href="#DejaVuSans-36"/>
       <use x="63.623047" xlink:href="#DejaVuSans-30"/>
       <use x="127.246094" xlink:href="#DejaVuSans-30"/>
       <use x="190.869141" xlink:href="#DejaVuSans-30"/>
      </g>
     </g>
    </g>
   </g>
   <g id="line2d_15">
    <path clip-path="url(#pbf20eabf5a)" d="M 590.4 768.96 
L 590.4 103.68 
" style="fill:none;stroke:#1f77b4;stroke-linecap:square;stroke-width:1.5;"/>
   </g>
   <g id="line2d_16">
    <path clip-path="url(#pbf20eabf5a)" d="M 144 436.32 
L 1036.8 436.32 
" style="fill:none;stroke:#1f77b4;stroke-linecap:square;stroke-width:1.5;"/>
   </g>
   <g id="line2d_17">
    <defs>
     <path d="M 0 1.333333 
C 0.353604 1.333333 0.692773 1.192845 0.942809 0.942809 
C 1.192845 0.692773 1.333333 0.353604 1.333333 0 
C 1.333333 -0.353604 1.192845 -0.692773 0.942809 -0.942809 
C 0.692773 -1.192845 0.353604 -1.333333 0 -1.333333 
C -0.353604 -1.333333 -0.692773 -1.192845 -0.942809 -0.942809 
C -1.192845 -0.692773 -1.333333 -0.353604 -1.333333 0 
C -1.333333 0.353604 -1.192845 0.692773 -0.942809 0.942809 
C -0.692773 1.192845 -0.353604 1.333333 0 1.333333 
z
" id="mc3e9a89611" style="stroke:#ff0000;"/>
    </defs>
    <g clip-path="url(#pbf20eabf5a)">
     <use style="fill:#ff0000;stroke:#ff0000;" x="895.092051" xlink:href="#mc3e9a89611" y="449.150418"/>
     <use style="fill:#ff0000;stroke:#ff0000;" x="897.314052" xlink:href="#mc3e9a89611" y="440.436758"/>
     <use style="fill:#ff0000;stroke:#ff0000;" x="937.590938" xlink:href="#mc3e9a89611" y="421.275267"/>
     <use style="fill:#ff0000;stroke:#ff0000;" x="919.777838" xlink:href="#mc3e9a89611" y="412.619298"/>
     <use style="fill:#ff0000;stroke:#ff0000;" x="874.392478" xlink:href="#mc3e9a89611" y="316.362394"/>
     <use style="fill:#ff0000;stroke:#ff0000;" x="849.865134" xlink:href="#mc3e9a89611" y="316.602561"/>
     <use style="fill:#ff0000;stroke:#ff0000;" x="829.111578" xlink:href="#mc3e9a89611" y="316.480456"/>
     <use style="fill:#ff0000;stroke:#ff0000;" x="802.076841" xlink:href="#mc3e9a89611" y="311.414078"/>
     <use style="fill:#ff0000;stroke:#ff0000;" x="785.513783" xlink:href="#mc3e9a89611" y="311.732146"/>
     <use style="fill:#ff0000;stroke:#ff0000;" x="772.519776" xlink:href="#mc3e9a89611" y="310.6662"/>
     <use style="fill:#ff0000;stroke:#ff0000;" x="680.310029" xlink:href="#mc3e9a89611" y="307.7047"/>
     <use style="fill:#ff0000;stroke:#ff0000;" x="634.960167" xlink:href="#mc3e9a89611" y="306.762306"/>
     <use style="fill:#ff0000;stroke:#ff0000;" x="616.343713" xlink:href="#mc3e9a89611" y="325.622497"/>
     <use style="fill:#ff0000;stroke:#ff0000;" x="614.366401" xlink:href="#mc3e9a89611" y="306.15853"/>
     <use style="fill:#ff0000;stroke:#ff0000;" x="448.437972" xlink:href="#mc3e9a89611" y="302.132865"/>
     <use style="fill:#ff0000;stroke:#ff0000;" x="436.052815" xlink:href="#mc3e9a89611" y="301.358604"/>
     <use style="fill:#ff0000;stroke:#ff0000;" x="406.057752" xlink:href="#mc3e9a89611" y="308.155285"/>
     <use style="fill:#ff0000;stroke:#ff0000;" x="387.502743" xlink:href="#mc3e9a89611" y="305.613677"/>
     <use style="fill:#ff0000;stroke:#ff0000;" x="392.696577" xlink:href="#mc3e9a89611" y="318.609959"/>
     <use style="fill:#ff0000;stroke:#ff0000;" x="397.666122" xlink:href="#mc3e9a89611" y="346.468669"/>
     <use style="fill:#ff0000;stroke:#ff0000;" x="389.227673" xlink:href="#mc3e9a89611" y="350.424685"/>
     <use style="fill:#ff0000;stroke:#ff0000;" x="374.456181" xlink:href="#mc3e9a89611" y="351.995475"/>
     <use style="fill:#ff0000;stroke:#ff0000;" x="373.592245" xlink:href="#mc3e9a89611" y="359.531615"/>
     <use style="fill:#ff0000;stroke:#ff0000;" x="391.056235" xlink:href="#mc3e9a89611" y="392.054975"/>
     <use style="fill:#ff0000;stroke:#ff0000;" x="373.924905" xlink:href="#mc3e9a89611" y="394.884167"/>
     <use style="fill:#ff0000;stroke:#ff0000;" x="368.678998" xlink:href="#mc3e9a89611" y="413.697142"/>
     <use style="fill:#ff0000;stroke:#ff0000;" x="382.162307" xlink:href="#mc3e9a89611" y="421.122472"/>
     <use style="fill:#ff0000;stroke:#ff0000;" x="368.409577" xlink:href="#mc3e9a89611" y="426.42894"/>
     <use style="fill:#ff0000;stroke:#ff0000;" x="537.406014" xlink:href="#mc3e9a89611" y="436.255386"/>
     <use style="fill:#ff0000;stroke:#ff0000;" x="537.426078" xlink:href="#mc3e9a89611" y="451.894144"/>
     <use style="fill:#ff0000;stroke:#ff0000;" x="397.519614" xlink:href="#mc3e9a89611" y="516.708041"/>
     <use style="fill:#ff0000;stroke:#ff0000;" x="395.690352" xlink:href="#mc3e9a89611" y="524.850788"/>
     <use style="fill:#ff0000;stroke:#ff0000;" x="432.667118" xlink:href="#mc3e9a89611" y="514.577459"/>
     <use style="fill:#ff0000;stroke:#ff0000;" x="451.942264" xlink:href="#mc3e9a89611" y="517.063871"/>
     <use style="fill:#ff0000;stroke:#ff0000;" x="448.349528" xlink:href="#mc3e9a89611" y="525.929074"/>
     <use style="fill:#ff0000;stroke:#ff0000;" x="444.685336" xlink:href="#mc3e9a89611" y="535.381165"/>
     <use style="fill:#ff0000;stroke:#ff0000;" x="453.409812" xlink:href="#mc3e9a89611" y="536.852644"/>
     <use style="fill:#ff0000;stroke:#ff0000;" x="497.091444" xlink:href="#mc3e9a89611" y="516.525643"/>
     <use style="fill:#ff0000;stroke:#ff0000;" x="508.825412" xlink:href="#mc3e9a89611" y="525.231212"/>
     <use style="fill:#ff0000;stroke:#ff0000;" x="503.914382" xlink:href="#mc3e9a89611" y="538.460308"/>
     <use style="fill:#ff0000;stroke:#ff0000;" x="545.058146" xlink:href="#mc3e9a89611" y="523.48447"/>
     <use style="fill:#ff0000;stroke:#ff0000;" x="569.230168" xlink:href="#mc3e9a89611" y="523.420898"/>
     <use style="fill:#ff0000;stroke:#ff0000;" x="571.507419" xlink:href="#mc3e9a89611" y="534.165899"/>
     <use style="fill:#ff0000;stroke:#ff0000;" x="580.96194" xlink:href="#mc3e9a89611" y="540.996287"/>
     <use style="fill:#ff0000;stroke:#ff0000;" x="587.128297" xlink:href="#mc3e9a89611" y="525.695636"/>
     <use style="fill:#ff0000;stroke:#ff0000;" x="591.692037" xlink:href="#mc3e9a89611" y="526.84048"/>
     <use style="fill:#ff0000;stroke:#ff0000;" x="596.934522" xlink:href="#mc3e9a89611" y="538.859532"/>
     <use style="fill:#ff0000;stroke:#ff0000;" x="607.424433" xlink:href="#mc3e9a89611" y="536.476024"/>
     <use style="fill:#ff0000;stroke:#ff0000;" x="609.140694" xlink:href="#mc3e9a89611" y="519.491897"/>
     <use style="fill:#ff0000;stroke:#ff0000;" x="622.282396" xlink:href="#mc3e9a89611" y="518.663595"/>
     <use style="fill:#ff0000;stroke:#ff0000;" x="617.813327" xlink:href="#mc3e9a89611" y="497.370915"/>
     <use style="fill:#ff0000;stroke:#ff0000;" x="627.868728" xlink:href="#mc3e9a89611" y="485.700283"/>
     <use style="fill:#ff0000;stroke:#ff0000;" x="640.070949" xlink:href="#mc3e9a89611" y="479.824394"/>
     <use style="fill:#ff0000;stroke:#ff0000;" x="717.070483" xlink:href="#mc3e9a89611" y="526.678711"/>
     <use style="fill:#ff0000;stroke:#ff0000;" x="744.536095" xlink:href="#mc3e9a89611" y="516.463458"/>
     <use style="fill:#ff0000;stroke:#ff0000;" x="758.090098" xlink:href="#mc3e9a89611" y="516.646343"/>
     <use style="fill:#ff0000;stroke:#ff0000;" x="773.884163" xlink:href="#mc3e9a89611" y="517.158985"/>
     <use style="fill:#ff0000;stroke:#ff0000;" x="792.011057" xlink:href="#mc3e9a89611" y="517.624689"/>
     <use style="fill:#ff0000;stroke:#ff0000;" x="913.802395" xlink:href="#mc3e9a89611" y="555.815926"/>
     <use style="fill:#ff0000;stroke:#ff0000;" x="935.094913" xlink:href="#mc3e9a89611" y="486.538057"/>
    </g>
   </g>
   <g id="line2d_18">
    <defs>
     <path d="M -0.5 0.5 
L 0.5 0.5 
L 0.5 -0.5 
L -0.5 -0.5 
z
" id="m6f722fbe33" style="stroke:#1f77b4;stroke-linejoin:miter;"/>
    </defs>
    <g clip-path="url(#pbf20eabf5a)">
     <use style="fill:#1f77b4;stroke:#1f77b4;stroke-linejoin:miter;" x="895.092051" xlink:href="#m6f722fbe33" y="449.150418"/>
     <use style="fill:#1f77b4;stroke:#1f77b4;stroke-linejoin:miter;" x="897.314052" xlink:href="#m6f722fbe33" y="440.436758"/>
     <use style="fill:#1f77b4;stroke:#1f77b4;stroke-linejoin:miter;" x="937.590938" xlink:href="#m6f722fbe33" y="421.275267"/>
     <use style="fill:#1f77b4;stroke:#1f77b4;stroke-linejoin:miter;" x="919.777838" xlink:href="#m6f722fbe33" y="412.619298"/>
     <use style="fill:#1f77b4;stroke:#1f77b4;stroke-linejoin:miter;" x="918.497564" xlink:href="#m6f722fbe33" y="403.250671"/>
     <use style="fill:#1f77b4;stroke:#1f77b4;stroke-linejoin:miter;" x="874.392478" xlink:href="#m6f722fbe33" y="316.362394"/>
     <use style="fill:#1f77b4;stroke:#1f77b4;stroke-linejoin:miter;" x="849.865134" xlink:href="#m6f722fbe33" y="316.602561"/>
     <use style="fill:#1f77b4;stroke:#1f77b4;stroke-linejoin:miter;" x="829.111578" xlink:href="#m6f722fbe33" y="316.480456"/>
     <use style="fill:#1f77b4;stroke:#1f77b4;stroke-linejoin:miter;" x="802.076841" xlink:href="#m6f722fbe33" y="311.414078"/>
     <use style="fill:#1f77b4;stroke:#1f77b4;stroke-linejoin:miter;" x="785.513783" xlink:href="#m6f722fbe33" y="311.732146"/>
     <use style="fill:#1f77b4;stroke:#1f77b4;stroke-linejoin:miter;" x="772.519776" xlink:href="#m6f722fbe33" y="310.6662"/>
     <use style="fill:#1f77b4;stroke:#1f77b4;stroke-linejoin:miter;" x="680.310029" xlink:href="#m6f722fbe33" y="307.7047"/>
     <use style="fill:#1f77b4;stroke:#1f77b4;stroke-linejoin:miter;" x="671.856575" xlink:href="#m6f722fbe33" y="307.984256"/>
     <use style="fill:#1f77b4;stroke:#1f77b4;stroke-linejoin:miter;" x="664.321765" xlink:href="#m6f722fbe33" y="307.334201"/>
     <use style="fill:#1f77b4;stroke:#1f77b4;stroke-linejoin:miter;" x="656.561233" xlink:href="#m6f722fbe33" y="307.467111"/>
     <use style="fill:#1f77b4;stroke:#1f77b4;stroke-linejoin:miter;" x="648.845915" xlink:href="#m6f722fbe33" y="307.905984"/>
     <use style="fill:#1f77b4;stroke:#1f77b4;stroke-linejoin:miter;" x="642.023113" xlink:href="#m6f722fbe33" y="306.974032"/>
     <use style="fill:#1f77b4;stroke:#1f77b4;stroke-linejoin:miter;" x="634.960167" xlink:href="#m6f722fbe33" y="306.762306"/>
     <use style="fill:#1f77b4;stroke:#1f77b4;stroke-linejoin:miter;" x="616.343713" xlink:href="#m6f722fbe33" y="325.622497"/>
     <use style="fill:#1f77b4;stroke:#1f77b4;stroke-linejoin:miter;" x="614.366401" xlink:href="#m6f722fbe33" y="306.15853"/>
     <use style="fill:#1f77b4;stroke:#1f77b4;stroke-linejoin:miter;" x="607.375165" xlink:href="#m6f722fbe33" y="304.952666"/>
     <use style="fill:#1f77b4;stroke:#1f77b4;stroke-linejoin:miter;" x="600.494705" xlink:href="#m6f722fbe33" y="305.737678"/>
     <use style="fill:#1f77b4;stroke:#1f77b4;stroke-linejoin:miter;" x="593.937022" xlink:href="#m6f722fbe33" y="303.943636"/>
     <use style="fill:#1f77b4;stroke:#1f77b4;stroke-linejoin:miter;" x="587.108758" xlink:href="#m6f722fbe33" y="304.0827"/>
     <use style="fill:#1f77b4;stroke:#1f77b4;stroke-linejoin:miter;" x="580.321224" xlink:href="#m6f722fbe33" y="304.059182"/>
     <use style="fill:#1f77b4;stroke:#1f77b4;stroke-linejoin:miter;" x="573.431347" xlink:href="#m6f722fbe33" y="304.248057"/>
     <use style="fill:#1f77b4;stroke:#1f77b4;stroke-linejoin:miter;" x="566.500098" xlink:href="#m6f722fbe33" y="303.837912"/>
     <use style="fill:#1f77b4;stroke:#1f77b4;stroke-linejoin:miter;" x="559.605349" xlink:href="#m6f722fbe33" y="303.858844"/>
     <use style="fill:#1f77b4;stroke:#1f77b4;stroke-linejoin:miter;" x="552.464299" xlink:href="#m6f722fbe33" y="303.506606"/>
     <use style="fill:#1f77b4;stroke:#1f77b4;stroke-linejoin:miter;" x="545.111943" xlink:href="#m6f722fbe33" y="303.136807"/>
     <use style="fill:#1f77b4;stroke:#1f77b4;stroke-linejoin:miter;" x="537.656386" xlink:href="#m6f722fbe33" y="302.835325"/>
     <use style="fill:#1f77b4;stroke:#1f77b4;stroke-linejoin:miter;" x="530.025039" xlink:href="#m6f722fbe33" y="302.347648"/>
     <use style="fill:#1f77b4;stroke:#1f77b4;stroke-linejoin:miter;" x="522.244325" xlink:href="#m6f722fbe33" y="302.490444"/>
     <use style="fill:#1f77b4;stroke:#1f77b4;stroke-linejoin:miter;" x="514.20001" xlink:href="#m6f722fbe33" y="302.246816"/>
     <use style="fill:#1f77b4;stroke:#1f77b4;stroke-linejoin:miter;" x="505.408121" xlink:href="#m6f722fbe33" y="301.464061"/>
     <use style="fill:#1f77b4;stroke:#1f77b4;stroke-linejoin:miter;" x="496.835866" xlink:href="#m6f722fbe33" y="301.221177"/>
     <use style="fill:#1f77b4;stroke:#1f77b4;stroke-linejoin:miter;" x="488.824836" xlink:href="#m6f722fbe33" y="302.708676"/>
     <use style="fill:#1f77b4;stroke:#1f77b4;stroke-linejoin:miter;" x="479.061313" xlink:href="#m6f722fbe33" y="302.00415"/>
     <use style="fill:#1f77b4;stroke:#1f77b4;stroke-linejoin:miter;" x="469.924404" xlink:href="#m6f722fbe33" y="302.517729"/>
     <use style="fill:#1f77b4;stroke:#1f77b4;stroke-linejoin:miter;" x="459.537103" xlink:href="#m6f722fbe33" y="302.334194"/>
     <use style="fill:#1f77b4;stroke:#1f77b4;stroke-linejoin:miter;" x="448.437972" xlink:href="#m6f722fbe33" y="302.132865"/>
     <use style="fill:#1f77b4;stroke:#1f77b4;stroke-linejoin:miter;" x="436.052815" xlink:href="#m6f722fbe33" y="301.358604"/>
     <use style="fill:#1f77b4;stroke:#1f77b4;stroke-linejoin:miter;" x="423.564144" xlink:href="#m6f722fbe33" y="301.093824"/>
     <use style="fill:#1f77b4;stroke:#1f77b4;stroke-linejoin:miter;" x="406.057752" xlink:href="#m6f722fbe33" y="308.155285"/>
     <use style="fill:#1f77b4;stroke:#1f77b4;stroke-linejoin:miter;" x="387.502743" xlink:href="#m6f722fbe33" y="305.613677"/>
     <use style="fill:#1f77b4;stroke:#1f77b4;stroke-linejoin:miter;" x="392.696577" xlink:href="#m6f722fbe33" y="318.609959"/>
     <use style="fill:#1f77b4;stroke:#1f77b4;stroke-linejoin:miter;" x="397.666122" xlink:href="#m6f722fbe33" y="346.468669"/>
     <use style="fill:#1f77b4;stroke:#1f77b4;stroke-linejoin:miter;" x="389.227673" xlink:href="#m6f722fbe33" y="350.424685"/>
     <use style="fill:#1f77b4;stroke:#1f77b4;stroke-linejoin:miter;" x="374.456181" xlink:href="#m6f722fbe33" y="351.995475"/>
     <use style="fill:#1f77b4;stroke:#1f77b4;stroke-linejoin:miter;" x="373.592245" xlink:href="#m6f722fbe33" y="359.531615"/>
     <use style="fill:#1f77b4;stroke:#1f77b4;stroke-linejoin:miter;" x="391.056235" xlink:href="#m6f722fbe33" y="392.054975"/>
     <use style="fill:#1f77b4;stroke:#1f77b4;stroke-linejoin:miter;" x="373.924905" xlink:href="#m6f722fbe33" y="394.884167"/>
     <use style="fill:#1f77b4;stroke:#1f77b4;stroke-linejoin:miter;" x="371.012318" xlink:href="#m6f722fbe33" y="400.965211"/>
     <use style="fill:#1f77b4;stroke:#1f77b4;stroke-linejoin:miter;" x="369.643794" xlink:href="#m6f722fbe33" y="407.268135"/>
     <use style="fill:#1f77b4;stroke:#1f77b4;stroke-linejoin:miter;" x="368.678998" xlink:href="#m6f722fbe33" y="413.697142"/>
     <use style="fill:#1f77b4;stroke:#1f77b4;stroke-linejoin:miter;" x="382.162307" xlink:href="#m6f722fbe33" y="421.122472"/>
     <use style="fill:#1f77b4;stroke:#1f77b4;stroke-linejoin:miter;" x="368.409577" xlink:href="#m6f722fbe33" y="426.42894"/>
     <use style="fill:#1f77b4;stroke:#1f77b4;stroke-linejoin:miter;" x="537.406014" xlink:href="#m6f722fbe33" y="436.255386"/>
     <use style="fill:#1f77b4;stroke:#1f77b4;stroke-linejoin:miter;" x="537.312295" xlink:href="#m6f722fbe33" y="437.733832"/>
     <use style="fill:#1f77b4;stroke:#1f77b4;stroke-linejoin:miter;" x="537.295138" xlink:href="#m6f722fbe33" y="439.238983"/>
     <use style="fill:#1f77b4;stroke:#1f77b4;stroke-linejoin:miter;" x="537.328183" xlink:href="#m6f722fbe33" y="440.782125"/>
     <use style="fill:#1f77b4;stroke:#1f77b4;stroke-linejoin:miter;" x="537.332299" xlink:href="#m6f722fbe33" y="442.262968"/>
     <use style="fill:#1f77b4;stroke:#1f77b4;stroke-linejoin:miter;" x="537.357452" xlink:href="#m6f722fbe33" y="443.857611"/>
     <use style="fill:#1f77b4;stroke:#1f77b4;stroke-linejoin:miter;" x="537.626857" xlink:href="#m6f722fbe33" y="445.387482"/>
     <use style="fill:#1f77b4;stroke:#1f77b4;stroke-linejoin:miter;" x="537.641097" xlink:href="#m6f722fbe33" y="446.946107"/>
     <use style="fill:#1f77b4;stroke:#1f77b4;stroke-linejoin:miter;" x="537.351771" xlink:href="#m6f722fbe33" y="448.629699"/>
     <use style="fill:#1f77b4;stroke:#1f77b4;stroke-linejoin:miter;" x="537.384329" xlink:href="#m6f722fbe33" y="450.248942"/>
     <use style="fill:#1f77b4;stroke:#1f77b4;stroke-linejoin:miter;" x="537.426078" xlink:href="#m6f722fbe33" y="451.894144"/>
     <use style="fill:#1f77b4;stroke:#1f77b4;stroke-linejoin:miter;" x="397.519614" xlink:href="#m6f722fbe33" y="516.708041"/>
     <use style="fill:#1f77b4;stroke:#1f77b4;stroke-linejoin:miter;" x="395.690352" xlink:href="#m6f722fbe33" y="524.850788"/>
     <use style="fill:#1f77b4;stroke:#1f77b4;stroke-linejoin:miter;" x="432.667118" xlink:href="#m6f722fbe33" y="514.577459"/>
     <use style="fill:#1f77b4;stroke:#1f77b4;stroke-linejoin:miter;" x="443.191009" xlink:href="#m6f722fbe33" y="515.60706"/>
     <use style="fill:#1f77b4;stroke:#1f77b4;stroke-linejoin:miter;" x="451.942264" xlink:href="#m6f722fbe33" y="517.063871"/>
     <use style="fill:#1f77b4;stroke:#1f77b4;stroke-linejoin:miter;" x="448.349528" xlink:href="#m6f722fbe33" y="525.929074"/>
     <use style="fill:#1f77b4;stroke:#1f77b4;stroke-linejoin:miter;" x="444.685336" xlink:href="#m6f722fbe33" y="535.381165"/>
     <use style="fill:#1f77b4;stroke:#1f77b4;stroke-linejoin:miter;" x="453.409812" xlink:href="#m6f722fbe33" y="536.852644"/>
     <use style="fill:#1f77b4;stroke:#1f77b4;stroke-linejoin:miter;" x="497.091444" xlink:href="#m6f722fbe33" y="516.525643"/>
     <use style="fill:#1f77b4;stroke:#1f77b4;stroke-linejoin:miter;" x="503.542299" xlink:href="#m6f722fbe33" y="517.008249"/>
     <use style="fill:#1f77b4;stroke:#1f77b4;stroke-linejoin:miter;" x="506.884304" xlink:href="#m6f722fbe33" y="520.278876"/>
     <use style="fill:#1f77b4;stroke:#1f77b4;stroke-linejoin:miter;" x="508.825412" xlink:href="#m6f722fbe33" y="525.231212"/>
     <use style="fill:#1f77b4;stroke:#1f77b4;stroke-linejoin:miter;" x="503.914382" xlink:href="#m6f722fbe33" y="538.460308"/>
     <use style="fill:#1f77b4;stroke:#1f77b4;stroke-linejoin:miter;" x="545.058146" xlink:href="#m6f722fbe33" y="523.48447"/>
     <use style="fill:#1f77b4;stroke:#1f77b4;stroke-linejoin:miter;" x="547.382897" xlink:href="#m6f722fbe33" y="529.002818"/>
     <use style="fill:#1f77b4;stroke:#1f77b4;stroke-linejoin:miter;" x="557.168279" xlink:href="#m6f722fbe33" y="530.585221"/>
     <use style="fill:#1f77b4;stroke:#1f77b4;stroke-linejoin:miter;" x="569.230168" xlink:href="#m6f722fbe33" y="523.420898"/>
     <use style="fill:#1f77b4;stroke:#1f77b4;stroke-linejoin:miter;" x="571.507419" xlink:href="#m6f722fbe33" y="534.165899"/>
     <use style="fill:#1f77b4;stroke:#1f77b4;stroke-linejoin:miter;" x="575.667232" xlink:href="#m6f722fbe33" y="540.22625"/>
     <use style="fill:#1f77b4;stroke:#1f77b4;stroke-linejoin:miter;" x="580.96194" xlink:href="#m6f722fbe33" y="540.996287"/>
     <use style="fill:#1f77b4;stroke:#1f77b4;stroke-linejoin:miter;" x="587.128297" xlink:href="#m6f722fbe33" y="525.695636"/>
     <use style="fill:#1f77b4;stroke:#1f77b4;stroke-linejoin:miter;" x="591.692037" xlink:href="#m6f722fbe33" y="526.84048"/>
     <use style="fill:#1f77b4;stroke:#1f77b4;stroke-linejoin:miter;" x="596.934522" xlink:href="#m6f722fbe33" y="538.859532"/>
     <use style="fill:#1f77b4;stroke:#1f77b4;stroke-linejoin:miter;" x="602.103902" xlink:href="#m6f722fbe33" y="535.074246"/>
     <use style="fill:#1f77b4;stroke:#1f77b4;stroke-linejoin:miter;" x="607.424433" xlink:href="#m6f722fbe33" y="536.476024"/>
     <use style="fill:#1f77b4;stroke:#1f77b4;stroke-linejoin:miter;" x="609.140694" xlink:href="#m6f722fbe33" y="519.491897"/>
     <use style="fill:#1f77b4;stroke:#1f77b4;stroke-linejoin:miter;" x="613.25267" xlink:href="#m6f722fbe33" y="518.640007"/>
     <use style="fill:#1f77b4;stroke:#1f77b4;stroke-linejoin:miter;" x="618.198257" xlink:href="#m6f722fbe33" y="520.179031"/>
     <use style="fill:#1f77b4;stroke:#1f77b4;stroke-linejoin:miter;" x="622.282396" xlink:href="#m6f722fbe33" y="518.663595"/>
     <use style="fill:#1f77b4;stroke:#1f77b4;stroke-linejoin:miter;" x="617.813327" xlink:href="#m6f722fbe33" y="497.370915"/>
     <use style="fill:#1f77b4;stroke:#1f77b4;stroke-linejoin:miter;" x="619.756241" xlink:href="#m6f722fbe33" y="494.10599"/>
     <use style="fill:#1f77b4;stroke:#1f77b4;stroke-linejoin:miter;" x="621.455724" xlink:href="#m6f722fbe33" y="490.962261"/>
     <use style="fill:#1f77b4;stroke:#1f77b4;stroke-linejoin:miter;" x="620.106088" xlink:href="#m6f722fbe33" y="483.122274"/>
     <use style="fill:#1f77b4;stroke:#1f77b4;stroke-linejoin:miter;" x="622.104372" xlink:href="#m6f722fbe33" y="481.492206"/>
     <use style="fill:#1f77b4;stroke:#1f77b4;stroke-linejoin:miter;" x="627.868728" xlink:href="#m6f722fbe33" y="485.700283"/>
     <use style="fill:#1f77b4;stroke:#1f77b4;stroke-linejoin:miter;" x="629.946754" xlink:href="#m6f722fbe33" y="483.96994"/>
     <use style="fill:#1f77b4;stroke:#1f77b4;stroke-linejoin:miter;" x="632.341718" xlink:href="#m6f722fbe33" y="482.818926"/>
     <use style="fill:#1f77b4;stroke:#1f77b4;stroke-linejoin:miter;" x="635.084205" xlink:href="#m6f722fbe33" y="482.070548"/>
     <use style="fill:#1f77b4;stroke:#1f77b4;stroke-linejoin:miter;" x="637.46765" xlink:href="#m6f722fbe33" y="480.859821"/>
     <use style="fill:#1f77b4;stroke:#1f77b4;stroke-linejoin:miter;" x="640.070949" xlink:href="#m6f722fbe33" y="479.824394"/>
     <use style="fill:#1f77b4;stroke:#1f77b4;stroke-linejoin:miter;" x="717.070483" xlink:href="#m6f722fbe33" y="526.678711"/>
     <use style="fill:#1f77b4;stroke:#1f77b4;stroke-linejoin:miter;" x="722.755619" xlink:href="#m6f722fbe33" y="523.817199"/>
     <use style="fill:#1f77b4;stroke:#1f77b4;stroke-linejoin:miter;" x="734.415315" xlink:href="#m6f722fbe33" y="524.488844"/>
     <use style="fill:#1f77b4;stroke:#1f77b4;stroke-linejoin:miter;" x="743.567464" xlink:href="#m6f722fbe33" y="522.570738"/>
     <use style="fill:#1f77b4;stroke:#1f77b4;stroke-linejoin:miter;" x="744.536095" xlink:href="#m6f722fbe33" y="516.463458"/>
     <use style="fill:#1f77b4;stroke:#1f77b4;stroke-linejoin:miter;" x="758.090098" xlink:href="#m6f722fbe33" y="516.646343"/>
     <use style="fill:#1f77b4;stroke:#1f77b4;stroke-linejoin:miter;" x="773.884163" xlink:href="#m6f722fbe33" y="517.158985"/>
     <use style="fill:#1f77b4;stroke:#1f77b4;stroke-linejoin:miter;" x="792.011057" xlink:href="#m6f722fbe33" y="517.624689"/>
     <use style="fill:#1f77b4;stroke:#1f77b4;stroke-linejoin:miter;" x="913.802395" xlink:href="#m6f722fbe33" y="555.815926"/>
     <use style="fill:#1f77b4;stroke:#1f77b4;stroke-linejoin:miter;" x="923.425336" xlink:href="#m6f722fbe33" y="547.781374"/>
     <use style="fill:#1f77b4;stroke:#1f77b4;stroke-linejoin:miter;" x="927.110998" xlink:href="#m6f722fbe33" y="537.612213"/>
     <use style="fill:#1f77b4;stroke:#1f77b4;stroke-linejoin:miter;" x="935.094913" xlink:href="#m6f722fbe33" y="486.538057"/>
    </g>
   </g>
   <g id="patch_3">
    <path d="M 144 768.96 
L 144 103.68 
" style="fill:none;stroke:#000000;stroke-linecap:square;stroke-linejoin:miter;stroke-width:0.8;"/>
   </g>
   <g id="patch_4">
    <path d="M 1036.8 768.96 
L 1036.8 103.68 
" style="fill:none;stroke:#000000;stroke-linecap:square;stroke-linejoin:miter;stroke-width:0.8;"/>
   </g>
   <g id="patch_5">
    <path d="M 144 768.96 
L 1036.8 768.96 
" style="fill:none;stroke:#000000;stroke-linecap:square;stroke-linejoin:miter;stroke-width:0.8;"/>
   </g>
   <g id="patch_6">
    <path d="M 144 103.68 
L 1036.8 103.68 
" style="fill:none;stroke:#000000;stroke-linecap:square;stroke-linejoin:miter;stroke-width:0.8;"/>
   </g>
  </g>
 </g>
 <defs>
  <clipPath id="pbf20eabf5a">
   <rect height="665.28" width="892.8" x="144" y="103.68"/>
  </clipPath>
 </defs>
</svg>
