<?xml version="1.0" encoding="utf-8" standalone="no"?>
<!DOCTYPE svg PUBLIC "-//W3C//DTD SVG 1.1//EN"
  "http://www.w3.org/Graphics/SVG/1.1/DTD/svg11.dtd">
<!-- Created with matplotlib (http://matplotlib.org/) -->
<svg height="864pt" version="1.1" viewBox="0 0 1152 864" width="1152pt" xmlns="http://www.w3.org/2000/svg" xmlns:xlink="http://www.w3.org/1999/xlink">
 <defs>
  <style type="text/css">
*{stroke-linecap:butt;stroke-linejoin:round;}
  </style>
 </defs>
 <g id="figure_1">
  <g id="patch_1">
   <path d="M 0 864 
L 1152 864 
L 1152 0 
L 0 0 
z
" style="fill:#ffffff;"/>
  </g>
  <g id="axes_1">
   <g id="patch_2">
    <path d="M 144 768.96 
L 1036.8 768.96 
L 1036.8 103.68 
L 144 103.68 
z
" style="fill:#ffffff;"/>
   </g>
   <g id="matplotlib.axis_1">
    <g id="xtick_1">
     <g id="line2d_1">
      <defs>
       <path d="M 0 0 
L 0 3.5 
" id="m2075b13a27" style="stroke:#000000;stroke-width:0.8;"/>
      </defs>
      <g>
       <use style="stroke:#000000;stroke-width:0.8;" x="207.771429" xlink:href="#m2075b13a27" y="768.96"/>
      </g>
     </g>
     <g id="text_1">
      <!-- −6000 -->
      <defs>
       <path d="M 10.59375 35.5 
L 73.1875 35.5 
L 73.1875 27.203125 
L 10.59375 27.203125 
z
" id="DejaVuSans-2212"/>
       <path d="M 33.015625 40.375 
Q 26.375 40.375 22.484375 35.828125 
Q 18.609375 31.296875 18.609375 23.390625 
Q 18.609375 15.53125 22.484375 10.953125 
Q 26.375 6.390625 33.015625 6.390625 
Q 39.65625 6.390625 43.53125 10.953125 
Q 47.40625 15.53125 47.40625 23.390625 
Q 47.40625 31.296875 43.53125 35.828125 
Q 39.65625 40.375 33.015625 40.375 
z
M 52.59375 71.296875 
L 52.59375 62.3125 
Q 48.875 64.0625 45.09375 64.984375 
Q 41.3125 65.921875 37.59375 65.921875 
Q 27.828125 65.921875 22.671875 59.328125 
Q 17.53125 52.734375 16.796875 39.40625 
Q 19.671875 43.65625 24.015625 45.921875 
Q 28.375 48.1875 33.59375 48.1875 
Q 44.578125 48.1875 50.953125 41.515625 
Q 57.328125 34.859375 57.328125 23.390625 
Q 57.328125 12.15625 50.6875 5.359375 
Q 44.046875 -1.421875 33.015625 -1.421875 
Q 20.359375 -1.421875 13.671875 8.265625 
Q 6.984375 17.96875 6.984375 36.375 
Q 6.984375 53.65625 15.1875 63.9375 
Q 23.390625 74.21875 37.203125 74.21875 
Q 40.921875 74.21875 44.703125 73.484375 
Q 48.484375 72.75 52.59375 71.296875 
z
" id="DejaVuSans-36"/>
       <path d="M 31.78125 66.40625 
Q 24.171875 66.40625 20.328125 58.90625 
Q 16.5 51.421875 16.5 36.375 
Q 16.5 21.390625 20.328125 13.890625 
Q 24.171875 6.390625 31.78125 6.390625 
Q 39.453125 6.390625 43.28125 13.890625 
Q 47.125 21.390625 47.125 36.375 
Q 47.125 51.421875 43.28125 58.90625 
Q 39.453125 66.40625 31.78125 66.40625 
z
M 31.78125 74.21875 
Q 44.046875 74.21875 50.515625 64.515625 
Q 56.984375 54.828125 56.984375 36.375 
Q 56.984375 17.96875 50.515625 8.265625 
Q 44.046875 -1.421875 31.78125 -1.421875 
Q 19.53125 -1.421875 13.0625 8.265625 
Q 6.59375 17.96875 6.59375 36.375 
Q 6.59375 54.828125 13.0625 64.515625 
Q 19.53125 74.21875 31.78125 74.21875 
z
" id="DejaVuSans-30"/>
      </defs>
      <g transform="translate(190.856585 783.558437)scale(0.1 -0.1)">
       <use xlink:href="#DejaVuSans-2212"/>
       <use x="83.789062" xlink:href="#DejaVuSans-36"/>
       <use x="147.412109" xlink:href="#DejaVuSans-30"/>
       <use x="211.035156" xlink:href="#DejaVuSans-30"/>
       <use x="274.658203" xlink:href="#DejaVuSans-30"/>
      </g>
     </g>
    </g>
    <g id="xtick_2">
     <g id="line2d_2">
      <g>
       <use style="stroke:#000000;stroke-width:0.8;" x="335.314286" xlink:href="#m2075b13a27" y="768.96"/>
      </g>
     </g>
     <g id="text_2">
      <!-- −4000 -->
      <defs>
       <path d="M 37.796875 64.3125 
L 12.890625 25.390625 
L 37.796875 25.390625 
z
M 35.203125 72.90625 
L 47.609375 72.90625 
L 47.609375 25.390625 
L 58.015625 25.390625 
L 58.015625 17.1875 
L 47.609375 17.1875 
L 47.609375 0 
L 37.796875 0 
L 37.796875 17.1875 
L 4.890625 17.1875 
L 4.890625 26.703125 
z
" id="DejaVuSans-34"/>
      </defs>
      <g transform="translate(318.399442 783.558437)scale(0.1 -0.1)">
       <use xlink:href="#DejaVuSans-2212"/>
       <use x="83.789062" xlink:href="#DejaVuSans-34"/>
       <use x="147.412109" xlink:href="#DejaVuSans-30"/>
       <use x="211.035156" xlink:href="#DejaVuSans-30"/>
       <use x="274.658203" xlink:href="#DejaVuSans-30"/>
      </g>
     </g>
    </g>
    <g id="xtick_3">
     <g id="line2d_3">
      <g>
       <use style="stroke:#000000;stroke-width:0.8;" x="462.857143" xlink:href="#m2075b13a27" y="768.96"/>
      </g>
     </g>
     <g id="text_3">
      <!-- −2000 -->
      <defs>
       <path d="M 19.1875 8.296875 
L 53.609375 8.296875 
L 53.609375 0 
L 7.328125 0 
L 7.328125 8.296875 
Q 12.9375 14.109375 22.625 23.890625 
Q 32.328125 33.6875 34.8125 36.53125 
Q 39.546875 41.84375 41.421875 45.53125 
Q 43.3125 49.21875 43.3125 52.78125 
Q 43.3125 58.59375 39.234375 62.25 
Q 35.15625 65.921875 28.609375 65.921875 
Q 23.96875 65.921875 18.8125 64.3125 
Q 13.671875 62.703125 7.8125 59.421875 
L 7.8125 69.390625 
Q 13.765625 71.78125 18.9375 73 
Q 24.125 74.21875 28.421875 74.21875 
Q 39.75 74.21875 46.484375 68.546875 
Q 53.21875 62.890625 53.21875 53.421875 
Q 53.21875 48.921875 51.53125 44.890625 
Q 49.859375 40.875 45.40625 35.40625 
Q 44.1875 33.984375 37.640625 27.21875 
Q 31.109375 20.453125 19.1875 8.296875 
z
" id="DejaVuSans-32"/>
      </defs>
      <g transform="translate(445.942299 783.558437)scale(0.1 -0.1)">
       <use xlink:href="#DejaVuSans-2212"/>
       <use x="83.789062" xlink:href="#DejaVuSans-32"/>
       <use x="147.412109" xlink:href="#DejaVuSans-30"/>
       <use x="211.035156" xlink:href="#DejaVuSans-30"/>
       <use x="274.658203" xlink:href="#DejaVuSans-30"/>
      </g>
     </g>
    </g>
    <g id="xtick_4">
     <g id="line2d_4">
      <g>
       <use style="stroke:#000000;stroke-width:0.8;" x="590.4" xlink:href="#m2075b13a27" y="768.96"/>
      </g>
     </g>
     <g id="text_4">
      <!-- 0 -->
      <g transform="translate(587.21875 783.558437)scale(0.1 -0.1)">
       <use xlink:href="#DejaVuSans-30"/>
      </g>
     </g>
    </g>
    <g id="xtick_5">
     <g id="line2d_5">
      <g>
       <use style="stroke:#000000;stroke-width:0.8;" x="717.942857" xlink:href="#m2075b13a27" y="768.96"/>
      </g>
     </g>
     <g id="text_5">
      <!-- 2000 -->
      <g transform="translate(705.217857 783.558437)scale(0.1 -0.1)">
       <use xlink:href="#DejaVuSans-32"/>
       <use x="63.623047" xlink:href="#DejaVuSans-30"/>
       <use x="127.246094" xlink:href="#DejaVuSans-30"/>
       <use x="190.869141" xlink:href="#DejaVuSans-30"/>
      </g>
     </g>
    </g>
    <g id="xtick_6">
     <g id="line2d_6">
      <g>
       <use style="stroke:#000000;stroke-width:0.8;" x="845.485714" xlink:href="#m2075b13a27" y="768.96"/>
      </g>
     </g>
     <g id="text_6">
      <!-- 4000 -->
      <g transform="translate(832.760714 783.558437)scale(0.1 -0.1)">
       <use xlink:href="#DejaVuSans-34"/>
       <use x="63.623047" xlink:href="#DejaVuSans-30"/>
       <use x="127.246094" xlink:href="#DejaVuSans-30"/>
       <use x="190.869141" xlink:href="#DejaVuSans-30"/>
      </g>
     </g>
    </g>
    <g id="xtick_7">
     <g id="line2d_7">
      <g>
       <use style="stroke:#000000;stroke-width:0.8;" x="973.028571" xlink:href="#m2075b13a27" y="768.96"/>
      </g>
     </g>
     <g id="text_7">
      <!-- 6000 -->
      <g transform="translate(960.303571 783.558437)scale(0.1 -0.1)">
       <use xlink:href="#DejaVuSans-36"/>
       <use x="63.623047" xlink:href="#DejaVuSans-30"/>
       <use x="127.246094" xlink:href="#DejaVuSans-30"/>
       <use x="190.869141" xlink:href="#DejaVuSans-30"/>
      </g>
     </g>
    </g>
   </g>
   <g id="matplotlib.axis_2">
    <g id="ytick_1">
     <g id="line2d_8">
      <defs>
       <path d="M 0 0 
L -3.5 0 
" id="m1d8a1af40b" style="stroke:#000000;stroke-width:0.8;"/>
      </defs>
      <g>
       <use style="stroke:#000000;stroke-width:0.8;" x="144" xlink:href="#m1d8a1af40b" y="721.44"/>
      </g>
     </g>
     <g id="text_8">
      <!-- −6000 -->
      <g transform="translate(103.170312 725.239219)scale(0.1 -0.1)">
       <use xlink:href="#DejaVuSans-2212"/>
       <use x="83.789062" xlink:href="#DejaVuSans-36"/>
       <use x="147.412109" xlink:href="#DejaVuSans-30"/>
       <use x="211.035156" xlink:href="#DejaVuSans-30"/>
       <use x="274.658203" xlink:href="#DejaVuSans-30"/>
      </g>
     </g>
    </g>
    <g id="ytick_2">
     <g id="line2d_9">
      <g>
       <use style="stroke:#000000;stroke-width:0.8;" x="144" xlink:href="#m1d8a1af40b" y="626.4"/>
      </g>
     </g>
     <g id="text_9">
      <!-- −4000 -->
      <g transform="translate(103.170312 630.199219)scale(0.1 -0.1)">
       <use xlink:href="#DejaVuSans-2212"/>
       <use x="83.789062" xlink:href="#DejaVuSans-34"/>
       <use x="147.412109" xlink:href="#DejaVuSans-30"/>
       <use x="211.035156" xlink:href="#DejaVuSans-30"/>
       <use x="274.658203" xlink:href="#DejaVuSans-30"/>
      </g>
     </g>
    </g>
    <g id="ytick_3">
     <g id="line2d_10">
      <g>
       <use style="stroke:#000000;stroke-width:0.8;" x="144" xlink:href="#m1d8a1af40b" y="531.36"/>
      </g>
     </g>
     <g id="text_10">
      <!-- −2000 -->
      <g transform="translate(103.170312 535.159219)scale(0.1 -0.1)">
       <use xlink:href="#DejaVuSans-2212"/>
       <use x="83.789062" xlink:href="#DejaVuSans-32"/>
       <use x="147.412109" xlink:href="#DejaVuSans-30"/>
       <use x="211.035156" xlink:href="#DejaVuSans-30"/>
       <use x="274.658203" xlink:href="#DejaVuSans-30"/>
      </g>
     </g>
    </g>
    <g id="ytick_4">
     <g id="line2d_11">
      <g>
       <use style="stroke:#000000;stroke-width:0.8;" x="144" xlink:href="#m1d8a1af40b" y="436.32"/>
      </g>
     </g>
     <g id="text_11">
      <!-- 0 -->
      <g transform="translate(130.6375 440.119219)scale(0.1 -0.1)">
       <use xlink:href="#DejaVuSans-30"/>
      </g>
     </g>
    </g>
    <g id="ytick_5">
     <g id="line2d_12">
      <g>
       <use style="stroke:#000000;stroke-width:0.8;" x="144" xlink:href="#m1d8a1af40b" y="341.28"/>
      </g>
     </g>
     <g id="text_12">
      <!-- 2000 -->
      <g transform="translate(111.55 345.079219)scale(0.1 -0.1)">
       <use xlink:href="#DejaVuSans-32"/>
       <use x="63.623047" xlink:href="#DejaVuSans-30"/>
       <use x="127.246094" xlink:href="#DejaVuSans-30"/>
       <use x="190.869141" xlink:href="#DejaVuSans-30"/>
      </g>
     </g>
    </g>
    <g id="ytick_6">
     <g id="line2d_13">
      <g>
       <use style="stroke:#000000;stroke-width:0.8;" x="144" xlink:href="#m1d8a1af40b" y="246.24"/>
      </g>
     </g>
     <g id="text_13">
      <!-- 4000 -->
      <g transform="translate(111.55 250.039219)scale(0.1 -0.1)">
       <use xlink:href="#DejaVuSans-34"/>
       <use x="63.623047" xlink:href="#DejaVuSans-30"/>
       <use x="127.246094" xlink:href="#DejaVuSans-30"/>
       <use x="190.869141" xlink:href="#DejaVuSans-30"/>
      </g>
     </g>
    </g>
    <g id="ytick_7">
     <g id="line2d_14">
      <g>
       <use style="stroke:#000000;stroke-width:0.8;" x="144" xlink:href="#m1d8a1af40b" y="151.2"/>
      </g>
     </g>
     <g id="text_14">
      <!-- 6000 -->
      <g transform="translate(111.55 154.999219)scale(0.1 -0.1)">
       <use xlink:href="#DejaVuSans-36"/>
       <use x="63.623047" xlink:href="#DejaVuSans-30"/>
       <use x="127.246094" xlink:href="#DejaVuSans-30"/>
       <use x="190.869141" xlink:href="#DejaVuSans-30"/>
      </g>
     </g>
    </g>
   </g>
   <g id="line2d_15">
    <path clip-path="url(#p4fb5893794)" d="M 590.4 768.96 
L 590.4 103.68 
" style="fill:none;stroke:#1f77b4;stroke-linecap:square;stroke-width:1.5;"/>
   </g>
   <g id="line2d_16">
    <path clip-path="url(#p4fb5893794)" d="M 144 436.32 
L 1036.8 436.32 
" style="fill:none;stroke:#1f77b4;stroke-linecap:square;stroke-width:1.5;"/>
   </g>
   <g id="line2d_17">
    <defs>
     <path d="M 0 1.333333 
C 0.353604 1.333333 0.692773 1.192845 0.942809 0.942809 
C 1.192845 0.692773 1.333333 0.353604 1.333333 0 
C 1.333333 -0.353604 1.192845 -0.692773 0.942809 -0.942809 
C 0.692773 -1.192845 0.353604 -1.333333 0 -1.333333 
C -0.353604 -1.333333 -0.692773 -1.192845 -0.942809 -0.942809 
C -1.192845 -0.692773 -1.333333 -0.353604 -1.333333 0 
C -1.333333 0.353604 -1.192845 0.692773 -0.942809 0.942809 
C -0.692773 1.192845 -0.353604 1.333333 0 1.333333 
z
" id="m0c09822898" style="stroke:#ff0000;"/>
    </defs>
    <g clip-path="url(#p4fb5893794)">
     <use style="fill:#ff0000;stroke:#ff0000;" x="696.293839" xlink:href="#m0c09822898" y="439.355649"/>
     <use style="fill:#ff0000;stroke:#ff0000;" x="692.395578" xlink:href="#m0c09822898" y="414.414247"/>
     <use style="fill:#ff0000;stroke:#ff0000;" x="919.787097" xlink:href="#m0c09822898" y="314.61275"/>
     <use style="fill:#ff0000;stroke:#ff0000;" x="872.518316" xlink:href="#m0c09822898" y="314.641369"/>
     <use style="fill:#ff0000;stroke:#ff0000;" x="829.5742" xlink:href="#m0c09822898" y="317.164646"/>
     <use style="fill:#ff0000;stroke:#ff0000;" x="811.330091" xlink:href="#m0c09822898" y="310.565752"/>
     <use style="fill:#ff0000;stroke:#ff0000;" x="783.6487" xlink:href="#m0c09822898" y="310.796313"/>
     <use style="fill:#ff0000;stroke:#ff0000;" x="762.355363" xlink:href="#m0c09822898" y="309.437342"/>
     <use style="fill:#ff0000;stroke:#ff0000;" x="678.387618" xlink:href="#m0c09822898" y="307.728212"/>
     <use style="fill:#ff0000;stroke:#ff0000;" x="628.720554" xlink:href="#m0c09822898" y="306.68046"/>
     <use style="fill:#ff0000;stroke:#ff0000;" x="613.486609" xlink:href="#m0c09822898" y="324.141808"/>
     <use style="fill:#ff0000;stroke:#ff0000;" x="605.747798" xlink:href="#m0c09822898" y="305.18737"/>
     <use style="fill:#ff0000;stroke:#ff0000;" x="465.012676" xlink:href="#m0c09822898" y="303.577346"/>
     <use style="fill:#ff0000;stroke:#ff0000;" x="446.293138" xlink:href="#m0c09822898" y="302.523736"/>
     <use style="fill:#ff0000;stroke:#ff0000;" x="426.084881" xlink:href="#m0c09822898" y="302.112148"/>
     <use style="fill:#ff0000;stroke:#ff0000;" x="409.001679" xlink:href="#m0c09822898" y="305.929277"/>
     <use style="fill:#ff0000;stroke:#ff0000;" x="387.840619" xlink:href="#m0c09822898" y="308.186639"/>
     <use style="fill:#ff0000;stroke:#ff0000;" x="387.495912" xlink:href="#m0c09822898" y="351.374992"/>
     <use style="fill:#ff0000;stroke:#ff0000;" x="373.096787" xlink:href="#m0c09822898" y="358.705508"/>
     <use style="fill:#ff0000;stroke:#ff0000;" x="410.627916" xlink:href="#m0c09822898" y="392.308839"/>
     <use style="fill:#ff0000;stroke:#ff0000;" x="372.349118" xlink:href="#m0c09822898" y="394.10987"/>
     <use style="fill:#ff0000;stroke:#ff0000;" x="369.106564" xlink:href="#m0c09822898" y="425.918327"/>
     <use style="fill:#ff0000;stroke:#ff0000;" x="537.147275" xlink:href="#m0c09822898" y="437.175035"/>
     <use style="fill:#ff0000;stroke:#ff0000;" x="537.629571" xlink:href="#m0c09822898" y="450.088129"/>
     <use style="fill:#ff0000;stroke:#ff0000;" x="395.838558" xlink:href="#m0c09822898" y="529.239031"/>
     <use style="fill:#ff0000;stroke:#ff0000;" x="443.768029" xlink:href="#m0c09822898" y="516.941123"/>
     <use style="fill:#ff0000;stroke:#ff0000;" x="448.762379" xlink:href="#m0c09822898" y="537.189974"/>
     <use style="fill:#ff0000;stroke:#ff0000;" x="502.396257" xlink:href="#m0c09822898" y="517.663045"/>
     <use style="fill:#ff0000;stroke:#ff0000;" x="508.54485" xlink:href="#m0c09822898" y="522.626338"/>
     <use style="fill:#ff0000;stroke:#ff0000;" x="505.40256" xlink:href="#m0c09822898" y="538.858513"/>
     <use style="fill:#ff0000;stroke:#ff0000;" x="546.89316" xlink:href="#m0c09822898" y="522.671071"/>
     <use style="fill:#ff0000;stroke:#ff0000;" x="567.974071" xlink:href="#m0c09822898" y="533.413257"/>
     <use style="fill:#ff0000;stroke:#ff0000;" x="584.10106" xlink:href="#m0c09822898" y="541.198581"/>
     <use style="fill:#ff0000;stroke:#ff0000;" x="592.916361" xlink:href="#m0c09822898" y="526.778648"/>
     <use style="fill:#ff0000;stroke:#ff0000;" x="601.789504" xlink:href="#m0c09822898" y="535.190045"/>
     <use style="fill:#ff0000;stroke:#ff0000;" x="611.743198" xlink:href="#m0c09822898" y="543.335821"/>
     <use style="fill:#ff0000;stroke:#ff0000;" x="614.596072" xlink:href="#m0c09822898" y="519.034613"/>
     <use style="fill:#ff0000;stroke:#ff0000;" x="668.911765" xlink:href="#m0c09822898" y="523.362518"/>
     <use style="fill:#ff0000;stroke:#ff0000;" x="701.442837" xlink:href="#m0c09822898" y="544.643661"/>
     <use style="fill:#ff0000;stroke:#ff0000;" x="721.078713" xlink:href="#m0c09822898" y="523.04139"/>
     <use style="fill:#ff0000;stroke:#ff0000;" x="740.457331" xlink:href="#m0c09822898" y="523.926743"/>
     <use style="fill:#ff0000;stroke:#ff0000;" x="746.896124" xlink:href="#m0c09822898" y="515.85994"/>
     <use style="fill:#ff0000;stroke:#ff0000;" x="771.144407" xlink:href="#m0c09822898" y="516.199955"/>
     <use style="fill:#ff0000;stroke:#ff0000;" x="801.52575" xlink:href="#m0c09822898" y="516.804458"/>
     <use style="fill:#ff0000;stroke:#ff0000;" x="926.078625" xlink:href="#m0c09822898" y="545.487463"/>
    </g>
   </g>
   <g id="line2d_18">
    <defs>
     <path d="M -0.5 0.5 
L 0.5 0.5 
L 0.5 -0.5 
L -0.5 -0.5 
z
" id="m3efe9ddf1f" style="stroke:#1f77b4;stroke-linejoin:miter;"/>
    </defs>
    <g clip-path="url(#p4fb5893794)">
     <use style="fill:#1f77b4;stroke:#1f77b4;stroke-linejoin:miter;" x="696.293839" xlink:href="#m3efe9ddf1f" y="439.355649"/>
     <use style="fill:#1f77b4;stroke:#1f77b4;stroke-linejoin:miter;" x="691.268483" xlink:href="#m3efe9ddf1f" y="434.372292"/>
     <use style="fill:#1f77b4;stroke:#1f77b4;stroke-linejoin:miter;" x="688.480515" xlink:href="#m3efe9ddf1f" y="429.724936"/>
     <use style="fill:#1f77b4;stroke:#1f77b4;stroke-linejoin:miter;" x="688.906395" xlink:href="#m3efe9ddf1f" y="424.981187"/>
     <use style="fill:#1f77b4;stroke:#1f77b4;stroke-linejoin:miter;" x="688.866118" xlink:href="#m3efe9ddf1f" y="420.116534"/>
     <use style="fill:#1f77b4;stroke:#1f77b4;stroke-linejoin:miter;" x="692.395578" xlink:href="#m3efe9ddf1f" y="414.414247"/>
     <use style="fill:#1f77b4;stroke:#1f77b4;stroke-linejoin:miter;" x="919.787097" xlink:href="#m3efe9ddf1f" y="314.61275"/>
     <use style="fill:#1f77b4;stroke:#1f77b4;stroke-linejoin:miter;" x="872.518316" xlink:href="#m3efe9ddf1f" y="314.641369"/>
     <use style="fill:#1f77b4;stroke:#1f77b4;stroke-linejoin:miter;" x="829.5742" xlink:href="#m3efe9ddf1f" y="317.164646"/>
     <use style="fill:#1f77b4;stroke:#1f77b4;stroke-linejoin:miter;" x="811.330091" xlink:href="#m3efe9ddf1f" y="310.565752"/>
     <use style="fill:#1f77b4;stroke:#1f77b4;stroke-linejoin:miter;" x="783.6487" xlink:href="#m3efe9ddf1f" y="310.796313"/>
     <use style="fill:#1f77b4;stroke:#1f77b4;stroke-linejoin:miter;" x="762.355363" xlink:href="#m3efe9ddf1f" y="309.437342"/>
     <use style="fill:#1f77b4;stroke:#1f77b4;stroke-linejoin:miter;" x="678.387618" xlink:href="#m3efe9ddf1f" y="307.728212"/>
     <use style="fill:#1f77b4;stroke:#1f77b4;stroke-linejoin:miter;" x="665.335866" xlink:href="#m3efe9ddf1f" y="306.934622"/>
     <use style="fill:#1f77b4;stroke:#1f77b4;stroke-linejoin:miter;" x="652.625169" xlink:href="#m3efe9ddf1f" y="307.064194"/>
     <use style="fill:#1f77b4;stroke:#1f77b4;stroke-linejoin:miter;" x="640.585786" xlink:href="#m3efe9ddf1f" y="306.437777"/>
     <use style="fill:#1f77b4;stroke:#1f77b4;stroke-linejoin:miter;" x="628.720554" xlink:href="#m3efe9ddf1f" y="306.68046"/>
     <use style="fill:#1f77b4;stroke:#1f77b4;stroke-linejoin:miter;" x="613.486609" xlink:href="#m3efe9ddf1f" y="324.141808"/>
     <use style="fill:#1f77b4;stroke:#1f77b4;stroke-linejoin:miter;" x="605.747798" xlink:href="#m3efe9ddf1f" y="305.18737"/>
     <use style="fill:#1f77b4;stroke:#1f77b4;stroke-linejoin:miter;" x="594.529409" xlink:href="#m3efe9ddf1f" y="305.141485"/>
     <use style="fill:#1f77b4;stroke:#1f77b4;stroke-linejoin:miter;" x="583.193766" xlink:href="#m3efe9ddf1f" y="304.240352"/>
     <use style="fill:#1f77b4;stroke:#1f77b4;stroke-linejoin:miter;" x="571.768727" xlink:href="#m3efe9ddf1f" y="304.229193"/>
     <use style="fill:#1f77b4;stroke:#1f77b4;stroke-linejoin:miter;" x="560.32417" xlink:href="#m3efe9ddf1f" y="303.9479"/>
     <use style="fill:#1f77b4;stroke:#1f77b4;stroke-linejoin:miter;" x="548.482729" xlink:href="#m3efe9ddf1f" y="303.831116"/>
     <use style="fill:#1f77b4;stroke:#1f77b4;stroke-linejoin:miter;" x="536.118484" xlink:href="#m3efe9ddf1f" y="303.500954"/>
     <use style="fill:#1f77b4;stroke:#1f77b4;stroke-linejoin:miter;" x="523.104097" xlink:href="#m3efe9ddf1f" y="302.642336"/>
     <use style="fill:#1f77b4;stroke:#1f77b4;stroke-linejoin:miter;" x="509.678702" xlink:href="#m3efe9ddf1f" y="302.498841"/>
     <use style="fill:#1f77b4;stroke:#1f77b4;stroke-linejoin:miter;" x="495.58199" xlink:href="#m3efe9ddf1f" y="302.64737"/>
     <use style="fill:#1f77b4;stroke:#1f77b4;stroke-linejoin:miter;" x="481.090855" xlink:href="#m3efe9ddf1f" y="303.319476"/>
     <use style="fill:#1f77b4;stroke:#1f77b4;stroke-linejoin:miter;" x="465.012676" xlink:href="#m3efe9ddf1f" y="303.577346"/>
     <use style="fill:#1f77b4;stroke:#1f77b4;stroke-linejoin:miter;" x="446.293138" xlink:href="#m3efe9ddf1f" y="302.523736"/>
     <use style="fill:#1f77b4;stroke:#1f77b4;stroke-linejoin:miter;" x="426.084881" xlink:href="#m3efe9ddf1f" y="302.112148"/>
     <use style="fill:#1f77b4;stroke:#1f77b4;stroke-linejoin:miter;" x="409.001679" xlink:href="#m3efe9ddf1f" y="305.929277"/>
     <use style="fill:#1f77b4;stroke:#1f77b4;stroke-linejoin:miter;" x="387.840619" xlink:href="#m3efe9ddf1f" y="308.186639"/>
     <use style="fill:#1f77b4;stroke:#1f77b4;stroke-linejoin:miter;" x="387.495912" xlink:href="#m3efe9ddf1f" y="351.374992"/>
     <use style="fill:#1f77b4;stroke:#1f77b4;stroke-linejoin:miter;" x="373.096787" xlink:href="#m3efe9ddf1f" y="358.705508"/>
     <use style="fill:#1f77b4;stroke:#1f77b4;stroke-linejoin:miter;" x="410.627916" xlink:href="#m3efe9ddf1f" y="392.308839"/>
     <use style="fill:#1f77b4;stroke:#1f77b4;stroke-linejoin:miter;" x="372.349118" xlink:href="#m3efe9ddf1f" y="394.10987"/>
     <use style="fill:#1f77b4;stroke:#1f77b4;stroke-linejoin:miter;" x="370.518783" xlink:href="#m3efe9ddf1f" y="404.656818"/>
     <use style="fill:#1f77b4;stroke:#1f77b4;stroke-linejoin:miter;" x="369.134519" xlink:href="#m3efe9ddf1f" y="415.299116"/>
     <use style="fill:#1f77b4;stroke:#1f77b4;stroke-linejoin:miter;" x="369.106564" xlink:href="#m3efe9ddf1f" y="425.918327"/>
     <use style="fill:#1f77b4;stroke:#1f77b4;stroke-linejoin:miter;" x="537.147275" xlink:href="#m3efe9ddf1f" y="437.175035"/>
     <use style="fill:#1f77b4;stroke:#1f77b4;stroke-linejoin:miter;" x="537.360608" xlink:href="#m3efe9ddf1f" y="439.701794"/>
     <use style="fill:#1f77b4;stroke:#1f77b4;stroke-linejoin:miter;" x="537.408958" xlink:href="#m3efe9ddf1f" y="442.243372"/>
     <use style="fill:#1f77b4;stroke:#1f77b4;stroke-linejoin:miter;" x="537.565944" xlink:href="#m3efe9ddf1f" y="444.688329"/>
     <use style="fill:#1f77b4;stroke:#1f77b4;stroke-linejoin:miter;" x="537.903161" xlink:href="#m3efe9ddf1f" y="447.341074"/>
     <use style="fill:#1f77b4;stroke:#1f77b4;stroke-linejoin:miter;" x="537.629571" xlink:href="#m3efe9ddf1f" y="450.088129"/>
     <use style="fill:#1f77b4;stroke:#1f77b4;stroke-linejoin:miter;" x="395.838558" xlink:href="#m3efe9ddf1f" y="529.239031"/>
     <use style="fill:#1f77b4;stroke:#1f77b4;stroke-linejoin:miter;" x="443.768029" xlink:href="#m3efe9ddf1f" y="516.941123"/>
     <use style="fill:#1f77b4;stroke:#1f77b4;stroke-linejoin:miter;" x="443.619302" xlink:href="#m3efe9ddf1f" y="528.402161"/>
     <use style="fill:#1f77b4;stroke:#1f77b4;stroke-linejoin:miter;" x="448.762379" xlink:href="#m3efe9ddf1f" y="537.189974"/>
     <use style="fill:#1f77b4;stroke:#1f77b4;stroke-linejoin:miter;" x="502.396257" xlink:href="#m3efe9ddf1f" y="517.663045"/>
     <use style="fill:#1f77b4;stroke:#1f77b4;stroke-linejoin:miter;" x="508.54485" xlink:href="#m3efe9ddf1f" y="522.626338"/>
     <use style="fill:#1f77b4;stroke:#1f77b4;stroke-linejoin:miter;" x="505.40256" xlink:href="#m3efe9ddf1f" y="538.858513"/>
     <use style="fill:#1f77b4;stroke:#1f77b4;stroke-linejoin:miter;" x="546.89316" xlink:href="#m3efe9ddf1f" y="522.671071"/>
     <use style="fill:#1f77b4;stroke:#1f77b4;stroke-linejoin:miter;" x="567.974071" xlink:href="#m3efe9ddf1f" y="533.413257"/>
     <use style="fill:#1f77b4;stroke:#1f77b4;stroke-linejoin:miter;" x="575.271555" xlink:href="#m3efe9ddf1f" y="540.302222"/>
     <use style="fill:#1f77b4;stroke:#1f77b4;stroke-linejoin:miter;" x="584.10106" xlink:href="#m3efe9ddf1f" y="541.198581"/>
     <use style="fill:#1f77b4;stroke:#1f77b4;stroke-linejoin:miter;" x="592.916361" xlink:href="#m3efe9ddf1f" y="526.778648"/>
     <use style="fill:#1f77b4;stroke:#1f77b4;stroke-linejoin:miter;" x="601.789504" xlink:href="#m3efe9ddf1f" y="535.190045"/>
     <use style="fill:#1f77b4;stroke:#1f77b4;stroke-linejoin:miter;" x="611.743198" xlink:href="#m3efe9ddf1f" y="543.335821"/>
     <use style="fill:#1f77b4;stroke:#1f77b4;stroke-linejoin:miter;" x="614.596072" xlink:href="#m3efe9ddf1f" y="519.034613"/>
     <use style="fill:#1f77b4;stroke:#1f77b4;stroke-linejoin:miter;" x="622.248381" xlink:href="#m3efe9ddf1f" y="519.684236"/>
     <use style="fill:#1f77b4;stroke:#1f77b4;stroke-linejoin:miter;" x="630.833615" xlink:href="#m3efe9ddf1f" y="521.256014"/>
     <use style="fill:#1f77b4;stroke:#1f77b4;stroke-linejoin:miter;" x="639.295059" xlink:href="#m3efe9ddf1f" y="521.636797"/>
     <use style="fill:#1f77b4;stroke:#1f77b4;stroke-linejoin:miter;" x="648.392569" xlink:href="#m3efe9ddf1f" y="522.112845"/>
     <use style="fill:#1f77b4;stroke:#1f77b4;stroke-linejoin:miter;" x="657.888302" xlink:href="#m3efe9ddf1f" y="522.445145"/>
     <use style="fill:#1f77b4;stroke:#1f77b4;stroke-linejoin:miter;" x="668.911765" xlink:href="#m3efe9ddf1f" y="523.362518"/>
     <use style="fill:#1f77b4;stroke:#1f77b4;stroke-linejoin:miter;" x="701.442837" xlink:href="#m3efe9ddf1f" y="544.643661"/>
     <use style="fill:#1f77b4;stroke:#1f77b4;stroke-linejoin:miter;" x="707.326292" xlink:href="#m3efe9ddf1f" y="536.329846"/>
     <use style="fill:#1f77b4;stroke:#1f77b4;stroke-linejoin:miter;" x="713.358625" xlink:href="#m3efe9ddf1f" y="528.847969"/>
     <use style="fill:#1f77b4;stroke:#1f77b4;stroke-linejoin:miter;" x="721.078713" xlink:href="#m3efe9ddf1f" y="523.04139"/>
     <use style="fill:#1f77b4;stroke:#1f77b4;stroke-linejoin:miter;" x="740.457331" xlink:href="#m3efe9ddf1f" y="523.926743"/>
     <use style="fill:#1f77b4;stroke:#1f77b4;stroke-linejoin:miter;" x="746.896124" xlink:href="#m3efe9ddf1f" y="515.85994"/>
     <use style="fill:#1f77b4;stroke:#1f77b4;stroke-linejoin:miter;" x="771.144407" xlink:href="#m3efe9ddf1f" y="516.199955"/>
     <use style="fill:#1f77b4;stroke:#1f77b4;stroke-linejoin:miter;" x="801.52575" xlink:href="#m3efe9ddf1f" y="516.804458"/>
     <use style="fill:#1f77b4;stroke:#1f77b4;stroke-linejoin:miter;" x="926.078625" xlink:href="#m3efe9ddf1f" y="545.487463"/>
    </g>
   </g>
   <g id="patch_3">
    <path d="M 144 768.96 
L 144 103.68 
" style="fill:none;stroke:#000000;stroke-linecap:square;stroke-linejoin:miter;stroke-width:0.8;"/>
   </g>
   <g id="patch_4">
    <path d="M 1036.8 768.96 
L 1036.8 103.68 
" style="fill:none;stroke:#000000;stroke-linecap:square;stroke-linejoin:miter;stroke-width:0.8;"/>
   </g>
   <g id="patch_5">
    <path d="M 144 768.96 
L 1036.8 768.96 
" style="fill:none;stroke:#000000;stroke-linecap:square;stroke-linejoin:miter;stroke-width:0.8;"/>
   </g>
   <g id="patch_6">
    <path d="M 144 103.68 
L 1036.8 103.68 
" style="fill:none;stroke:#000000;stroke-linecap:square;stroke-linejoin:miter;stroke-width:0.8;"/>
   </g>
  </g>
 </g>
 <defs>
  <clipPath id="p4fb5893794">
   <rect height="665.28" width="892.8" x="144" y="103.68"/>
  </clipPath>
 </defs>
</svg>
