<?xml version="1.0" encoding="utf-8" standalone="no"?>
<!DOCTYPE svg PUBLIC "-//W3C//DTD SVG 1.1//EN"
  "http://www.w3.org/Graphics/SVG/1.1/DTD/svg11.dtd">
<!-- Created with matplotlib (http://matplotlib.org/) -->
<svg height="864pt" version="1.1" viewBox="0 0 1152 864" width="1152pt" xmlns="http://www.w3.org/2000/svg" xmlns:xlink="http://www.w3.org/1999/xlink">
 <defs>
  <style type="text/css">
*{stroke-linecap:butt;stroke-linejoin:round;}
  </style>
 </defs>
 <g id="figure_1">
  <g id="patch_1">
   <path d="M 0 864 
L 1152 864 
L 1152 0 
L 0 0 
z
" style="fill:#ffffff;"/>
  </g>
  <g id="axes_1">
   <g id="patch_2">
    <path d="M 144 768.96 
L 1036.8 768.96 
L 1036.8 103.68 
L 144 103.68 
z
" style="fill:#ffffff;"/>
   </g>
   <g id="matplotlib.axis_1">
    <g id="xtick_1">
     <g id="line2d_1">
      <defs>
       <path d="M 0 0 
L 0 3.5 
" id="m89291bcb69" style="stroke:#000000;stroke-width:0.8;"/>
      </defs>
      <g>
       <use style="stroke:#000000;stroke-width:0.8;" x="207.771429" xlink:href="#m89291bcb69" y="768.96"/>
      </g>
     </g>
     <g id="text_1">
      <!-- −6000 -->
      <defs>
       <path d="M 10.59375 35.5 
L 73.1875 35.5 
L 73.1875 27.203125 
L 10.59375 27.203125 
z
" id="DejaVuSans-2212"/>
       <path d="M 33.015625 40.375 
Q 26.375 40.375 22.484375 35.828125 
Q 18.609375 31.296875 18.609375 23.390625 
Q 18.609375 15.53125 22.484375 10.953125 
Q 26.375 6.390625 33.015625 6.390625 
Q 39.65625 6.390625 43.53125 10.953125 
Q 47.40625 15.53125 47.40625 23.390625 
Q 47.40625 31.296875 43.53125 35.828125 
Q 39.65625 40.375 33.015625 40.375 
z
M 52.59375 71.296875 
L 52.59375 62.3125 
Q 48.875 64.0625 45.09375 64.984375 
Q 41.3125 65.921875 37.59375 65.921875 
Q 27.828125 65.921875 22.671875 59.328125 
Q 17.53125 52.734375 16.796875 39.40625 
Q 19.671875 43.65625 24.015625 45.921875 
Q 28.375 48.1875 33.59375 48.1875 
Q 44.578125 48.1875 50.953125 41.515625 
Q 57.328125 34.859375 57.328125 23.390625 
Q 57.328125 12.15625 50.6875 5.359375 
Q 44.046875 -1.421875 33.015625 -1.421875 
Q 20.359375 -1.421875 13.671875 8.265625 
Q 6.984375 17.96875 6.984375 36.375 
Q 6.984375 53.65625 15.1875 63.9375 
Q 23.390625 74.21875 37.203125 74.21875 
Q 40.921875 74.21875 44.703125 73.484375 
Q 48.484375 72.75 52.59375 71.296875 
z
" id="DejaVuSans-36"/>
       <path d="M 31.78125 66.40625 
Q 24.171875 66.40625 20.328125 58.90625 
Q 16.5 51.421875 16.5 36.375 
Q 16.5 21.390625 20.328125 13.890625 
Q 24.171875 6.390625 31.78125 6.390625 
Q 39.453125 6.390625 43.28125 13.890625 
Q 47.125 21.390625 47.125 36.375 
Q 47.125 51.421875 43.28125 58.90625 
Q 39.453125 66.40625 31.78125 66.40625 
z
M 31.78125 74.21875 
Q 44.046875 74.21875 50.515625 64.515625 
Q 56.984375 54.828125 56.984375 36.375 
Q 56.984375 17.96875 50.515625 8.265625 
Q 44.046875 -1.421875 31.78125 -1.421875 
Q 19.53125 -1.421875 13.0625 8.265625 
Q 6.59375 17.96875 6.59375 36.375 
Q 6.59375 54.828125 13.0625 64.515625 
Q 19.53125 74.21875 31.78125 74.21875 
z
" id="DejaVuSans-30"/>
      </defs>
      <g transform="translate(190.856585 783.558437)scale(0.1 -0.1)">
       <use xlink:href="#DejaVuSans-2212"/>
       <use x="83.789062" xlink:href="#DejaVuSans-36"/>
       <use x="147.412109" xlink:href="#DejaVuSans-30"/>
       <use x="211.035156" xlink:href="#DejaVuSans-30"/>
       <use x="274.658203" xlink:href="#DejaVuSans-30"/>
      </g>
     </g>
    </g>
    <g id="xtick_2">
     <g id="line2d_2">
      <g>
       <use style="stroke:#000000;stroke-width:0.8;" x="335.314286" xlink:href="#m89291bcb69" y="768.96"/>
      </g>
     </g>
     <g id="text_2">
      <!-- −4000 -->
      <defs>
       <path d="M 37.796875 64.3125 
L 12.890625 25.390625 
L 37.796875 25.390625 
z
M 35.203125 72.90625 
L 47.609375 72.90625 
L 47.609375 25.390625 
L 58.015625 25.390625 
L 58.015625 17.1875 
L 47.609375 17.1875 
L 47.609375 0 
L 37.796875 0 
L 37.796875 17.1875 
L 4.890625 17.1875 
L 4.890625 26.703125 
z
" id="DejaVuSans-34"/>
      </defs>
      <g transform="translate(318.399442 783.558437)scale(0.1 -0.1)">
       <use xlink:href="#DejaVuSans-2212"/>
       <use x="83.789062" xlink:href="#DejaVuSans-34"/>
       <use x="147.412109" xlink:href="#DejaVuSans-30"/>
       <use x="211.035156" xlink:href="#DejaVuSans-30"/>
       <use x="274.658203" xlink:href="#DejaVuSans-30"/>
      </g>
     </g>
    </g>
    <g id="xtick_3">
     <g id="line2d_3">
      <g>
       <use style="stroke:#000000;stroke-width:0.8;" x="462.857143" xlink:href="#m89291bcb69" y="768.96"/>
      </g>
     </g>
     <g id="text_3">
      <!-- −2000 -->
      <defs>
       <path d="M 19.1875 8.296875 
L 53.609375 8.296875 
L 53.609375 0 
L 7.328125 0 
L 7.328125 8.296875 
Q 12.9375 14.109375 22.625 23.890625 
Q 32.328125 33.6875 34.8125 36.53125 
Q 39.546875 41.84375 41.421875 45.53125 
Q 43.3125 49.21875 43.3125 52.78125 
Q 43.3125 58.59375 39.234375 62.25 
Q 35.15625 65.921875 28.609375 65.921875 
Q 23.96875 65.921875 18.8125 64.3125 
Q 13.671875 62.703125 7.8125 59.421875 
L 7.8125 69.390625 
Q 13.765625 71.78125 18.9375 73 
Q 24.125 74.21875 28.421875 74.21875 
Q 39.75 74.21875 46.484375 68.546875 
Q 53.21875 62.890625 53.21875 53.421875 
Q 53.21875 48.921875 51.53125 44.890625 
Q 49.859375 40.875 45.40625 35.40625 
Q 44.1875 33.984375 37.640625 27.21875 
Q 31.109375 20.453125 19.1875 8.296875 
z
" id="DejaVuSans-32"/>
      </defs>
      <g transform="translate(445.942299 783.558437)scale(0.1 -0.1)">
       <use xlink:href="#DejaVuSans-2212"/>
       <use x="83.789062" xlink:href="#DejaVuSans-32"/>
       <use x="147.412109" xlink:href="#DejaVuSans-30"/>
       <use x="211.035156" xlink:href="#DejaVuSans-30"/>
       <use x="274.658203" xlink:href="#DejaVuSans-30"/>
      </g>
     </g>
    </g>
    <g id="xtick_4">
     <g id="line2d_4">
      <g>
       <use style="stroke:#000000;stroke-width:0.8;" x="590.4" xlink:href="#m89291bcb69" y="768.96"/>
      </g>
     </g>
     <g id="text_4">
      <!-- 0 -->
      <g transform="translate(587.21875 783.558437)scale(0.1 -0.1)">
       <use xlink:href="#DejaVuSans-30"/>
      </g>
     </g>
    </g>
    <g id="xtick_5">
     <g id="line2d_5">
      <g>
       <use style="stroke:#000000;stroke-width:0.8;" x="717.942857" xlink:href="#m89291bcb69" y="768.96"/>
      </g>
     </g>
     <g id="text_5">
      <!-- 2000 -->
      <g transform="translate(705.217857 783.558437)scale(0.1 -0.1)">
       <use xlink:href="#DejaVuSans-32"/>
       <use x="63.623047" xlink:href="#DejaVuSans-30"/>
       <use x="127.246094" xlink:href="#DejaVuSans-30"/>
       <use x="190.869141" xlink:href="#DejaVuSans-30"/>
      </g>
     </g>
    </g>
    <g id="xtick_6">
     <g id="line2d_6">
      <g>
       <use style="stroke:#000000;stroke-width:0.8;" x="845.485714" xlink:href="#m89291bcb69" y="768.96"/>
      </g>
     </g>
     <g id="text_6">
      <!-- 4000 -->
      <g transform="translate(832.760714 783.558437)scale(0.1 -0.1)">
       <use xlink:href="#DejaVuSans-34"/>
       <use x="63.623047" xlink:href="#DejaVuSans-30"/>
       <use x="127.246094" xlink:href="#DejaVuSans-30"/>
       <use x="190.869141" xlink:href="#DejaVuSans-30"/>
      </g>
     </g>
    </g>
    <g id="xtick_7">
     <g id="line2d_7">
      <g>
       <use style="stroke:#000000;stroke-width:0.8;" x="973.028571" xlink:href="#m89291bcb69" y="768.96"/>
      </g>
     </g>
     <g id="text_7">
      <!-- 6000 -->
      <g transform="translate(960.303571 783.558437)scale(0.1 -0.1)">
       <use xlink:href="#DejaVuSans-36"/>
       <use x="63.623047" xlink:href="#DejaVuSans-30"/>
       <use x="127.246094" xlink:href="#DejaVuSans-30"/>
       <use x="190.869141" xlink:href="#DejaVuSans-30"/>
      </g>
     </g>
    </g>
   </g>
   <g id="matplotlib.axis_2">
    <g id="ytick_1">
     <g id="line2d_8">
      <defs>
       <path d="M 0 0 
L -3.5 0 
" id="mb73af0d9b5" style="stroke:#000000;stroke-width:0.8;"/>
      </defs>
      <g>
       <use style="stroke:#000000;stroke-width:0.8;" x="144" xlink:href="#mb73af0d9b5" y="721.44"/>
      </g>
     </g>
     <g id="text_8">
      <!-- −6000 -->
      <g transform="translate(103.170312 725.239219)scale(0.1 -0.1)">
       <use xlink:href="#DejaVuSans-2212"/>
       <use x="83.789062" xlink:href="#DejaVuSans-36"/>
       <use x="147.412109" xlink:href="#DejaVuSans-30"/>
       <use x="211.035156" xlink:href="#DejaVuSans-30"/>
       <use x="274.658203" xlink:href="#DejaVuSans-30"/>
      </g>
     </g>
    </g>
    <g id="ytick_2">
     <g id="line2d_9">
      <g>
       <use style="stroke:#000000;stroke-width:0.8;" x="144" xlink:href="#mb73af0d9b5" y="626.4"/>
      </g>
     </g>
     <g id="text_9">
      <!-- −4000 -->
      <g transform="translate(103.170312 630.199219)scale(0.1 -0.1)">
       <use xlink:href="#DejaVuSans-2212"/>
       <use x="83.789062" xlink:href="#DejaVuSans-34"/>
       <use x="147.412109" xlink:href="#DejaVuSans-30"/>
       <use x="211.035156" xlink:href="#DejaVuSans-30"/>
       <use x="274.658203" xlink:href="#DejaVuSans-30"/>
      </g>
     </g>
    </g>
    <g id="ytick_3">
     <g id="line2d_10">
      <g>
       <use style="stroke:#000000;stroke-width:0.8;" x="144" xlink:href="#mb73af0d9b5" y="531.36"/>
      </g>
     </g>
     <g id="text_10">
      <!-- −2000 -->
      <g transform="translate(103.170312 535.159219)scale(0.1 -0.1)">
       <use xlink:href="#DejaVuSans-2212"/>
       <use x="83.789062" xlink:href="#DejaVuSans-32"/>
       <use x="147.412109" xlink:href="#DejaVuSans-30"/>
       <use x="211.035156" xlink:href="#DejaVuSans-30"/>
       <use x="274.658203" xlink:href="#DejaVuSans-30"/>
      </g>
     </g>
    </g>
    <g id="ytick_4">
     <g id="line2d_11">
      <g>
       <use style="stroke:#000000;stroke-width:0.8;" x="144" xlink:href="#mb73af0d9b5" y="436.32"/>
      </g>
     </g>
     <g id="text_11">
      <!-- 0 -->
      <g transform="translate(130.6375 440.119219)scale(0.1 -0.1)">
       <use xlink:href="#DejaVuSans-30"/>
      </g>
     </g>
    </g>
    <g id="ytick_5">
     <g id="line2d_12">
      <g>
       <use style="stroke:#000000;stroke-width:0.8;" x="144" xlink:href="#mb73af0d9b5" y="341.28"/>
      </g>
     </g>
     <g id="text_12">
      <!-- 2000 -->
      <g transform="translate(111.55 345.079219)scale(0.1 -0.1)">
       <use xlink:href="#DejaVuSans-32"/>
       <use x="63.623047" xlink:href="#DejaVuSans-30"/>
       <use x="127.246094" xlink:href="#DejaVuSans-30"/>
       <use x="190.869141" xlink:href="#DejaVuSans-30"/>
      </g>
     </g>
    </g>
    <g id="ytick_6">
     <g id="line2d_13">
      <g>
       <use style="stroke:#000000;stroke-width:0.8;" x="144" xlink:href="#mb73af0d9b5" y="246.24"/>
      </g>
     </g>
     <g id="text_13">
      <!-- 4000 -->
      <g transform="translate(111.55 250.039219)scale(0.1 -0.1)">
       <use xlink:href="#DejaVuSans-34"/>
       <use x="63.623047" xlink:href="#DejaVuSans-30"/>
       <use x="127.246094" xlink:href="#DejaVuSans-30"/>
       <use x="190.869141" xlink:href="#DejaVuSans-30"/>
      </g>
     </g>
    </g>
    <g id="ytick_7">
     <g id="line2d_14">
      <g>
       <use style="stroke:#000000;stroke-width:0.8;" x="144" xlink:href="#mb73af0d9b5" y="151.2"/>
      </g>
     </g>
     <g id="text_14">
      <!-- 6000 -->
      <g transform="translate(111.55 154.999219)scale(0.1 -0.1)">
       <use xlink:href="#DejaVuSans-36"/>
       <use x="63.623047" xlink:href="#DejaVuSans-30"/>
       <use x="127.246094" xlink:href="#DejaVuSans-30"/>
       <use x="190.869141" xlink:href="#DejaVuSans-30"/>
      </g>
     </g>
    </g>
   </g>
   <g id="line2d_15">
    <path clip-path="url(#pcea58aa267)" d="M 590.4 768.96 
L 590.4 103.68 
" style="fill:none;stroke:#1f77b4;stroke-linecap:square;stroke-width:1.5;"/>
   </g>
   <g id="line2d_16">
    <path clip-path="url(#pcea58aa267)" d="M 144 436.32 
L 1036.8 436.32 
" style="fill:none;stroke:#1f77b4;stroke-linecap:square;stroke-width:1.5;"/>
   </g>
   <g id="line2d_17">
    <defs>
     <path d="M 0 1.333333 
C 0.353604 1.333333 0.692773 1.192845 0.942809 0.942809 
C 1.192845 0.692773 1.333333 0.353604 1.333333 0 
C 1.333333 -0.353604 1.192845 -0.692773 0.942809 -0.942809 
C 0.692773 -1.192845 0.353604 -1.333333 0 -1.333333 
C -0.353604 -1.333333 -0.692773 -1.192845 -0.942809 -0.942809 
C -1.192845 -0.692773 -1.333333 -0.353604 -1.333333 0 
C -1.333333 0.353604 -1.192845 0.692773 -0.942809 0.942809 
C -0.692773 1.192845 -0.353604 1.333333 0 1.333333 
z
" id="m7e702575e8" style="stroke:#ff0000;"/>
    </defs>
    <g clip-path="url(#pcea58aa267)">
     <use style="fill:#ff0000;stroke:#ff0000;" x="895.614281" xlink:href="#m7e702575e8" y="451.164515"/>
     <use style="fill:#ff0000;stroke:#ff0000;" x="954.935841" xlink:href="#m7e702575e8" y="443.877882"/>
     <use style="fill:#ff0000;stroke:#ff0000;" x="941.377931" xlink:href="#m7e702575e8" y="423.543095"/>
     <use style="fill:#ff0000;stroke:#ff0000;" x="919.884035" xlink:href="#m7e702575e8" y="414.772424"/>
     <use style="fill:#ff0000;stroke:#ff0000;" x="918.540186" xlink:href="#m7e702575e8" y="405.416724"/>
     <use style="fill:#ff0000;stroke:#ff0000;" x="940.287239" xlink:href="#m7e702575e8" y="316.556104"/>
     <use style="fill:#ff0000;stroke:#ff0000;" x="878.52461" xlink:href="#m7e702575e8" y="316.773882"/>
     <use style="fill:#ff0000;stroke:#ff0000;" x="828.525224" xlink:href="#m7e702575e8" y="318.734673"/>
     <use style="fill:#ff0000;stroke:#ff0000;" x="788.819209" xlink:href="#m7e702575e8" y="311.842669"/>
     <use style="fill:#ff0000;stroke:#ff0000;" x="775.011651" xlink:href="#m7e702575e8" y="311.090194"/>
     <use style="fill:#ff0000;stroke:#ff0000;" x="762.889732" xlink:href="#m7e702575e8" y="309.942376"/>
     <use style="fill:#ff0000;stroke:#ff0000;" x="681.6368" xlink:href="#m7e702575e8" y="308.37252"/>
     <use style="fill:#ff0000;stroke:#ff0000;" x="629.321695" xlink:href="#m7e702575e8" y="306.999082"/>
     <use style="fill:#ff0000;stroke:#ff0000;" x="617.856794" xlink:href="#m7e702575e8" y="324.569042"/>
     <use style="fill:#ff0000;stroke:#ff0000;" x="615.622422" xlink:href="#m7e702575e8" y="307.190701"/>
     <use style="fill:#ff0000;stroke:#ff0000;" x="408.294077" xlink:href="#m7e702575e8" y="307.476787"/>
     <use style="fill:#ff0000;stroke:#ff0000;" x="392.859852" xlink:href="#m7e702575e8" y="306.874201"/>
     <use style="fill:#ff0000;stroke:#ff0000;" x="396.865401" xlink:href="#m7e702575e8" y="319.015541"/>
     <use style="fill:#ff0000;stroke:#ff0000;" x="399.27127" xlink:href="#m7e702575e8" y="345.641944"/>
     <use style="fill:#ff0000;stroke:#ff0000;" x="391.076565" xlink:href="#m7e702575e8" y="349.538048"/>
     <use style="fill:#ff0000;stroke:#ff0000;" x="375.009579" xlink:href="#m7e702575e8" y="350.53064"/>
     <use style="fill:#ff0000;stroke:#ff0000;" x="373.324085" xlink:href="#m7e702575e8" y="357.644357"/>
     <use style="fill:#ff0000;stroke:#ff0000;" x="398.923323" xlink:href="#m7e702575e8" y="392.655487"/>
     <use style="fill:#ff0000;stroke:#ff0000;" x="372.075787" xlink:href="#m7e702575e8" y="393.108405"/>
     <use style="fill:#ff0000;stroke:#ff0000;" x="380.559293" xlink:href="#m7e702575e8" y="401.251816"/>
     <use style="fill:#ff0000;stroke:#ff0000;" x="368.521493" xlink:href="#m7e702575e8" y="425.121046"/>
     <use style="fill:#ff0000;stroke:#ff0000;" x="537.518976" xlink:href="#m7e702575e8" y="436.029852"/>
     <use style="fill:#ff0000;stroke:#ff0000;" x="537.084825" xlink:href="#m7e702575e8" y="453.427186"/>
     <use style="fill:#ff0000;stroke:#ff0000;" x="395.240034" xlink:href="#m7e702575e8" y="523.538696"/>
     <use style="fill:#ff0000;stroke:#ff0000;" x="419.848896" xlink:href="#m7e702575e8" y="519.49401"/>
     <use style="fill:#ff0000;stroke:#ff0000;" x="404.919593" xlink:href="#m7e702575e8" y="534.282024"/>
     <use style="fill:#ff0000;stroke:#ff0000;" x="435.089676" xlink:href="#m7e702575e8" y="525.374685"/>
     <use style="fill:#ff0000;stroke:#ff0000;" x="460.832332" xlink:href="#m7e702575e8" y="537.562401"/>
     <use style="fill:#ff0000;stroke:#ff0000;" x="493.715713" xlink:href="#m7e702575e8" y="518.066412"/>
     <use style="fill:#ff0000;stroke:#ff0000;" x="507.159987" xlink:href="#m7e702575e8" y="525.472083"/>
     <use style="fill:#ff0000;stroke:#ff0000;" x="502.72389" xlink:href="#m7e702575e8" y="538.135215"/>
     <use style="fill:#ff0000;stroke:#ff0000;" x="544.581322" xlink:href="#m7e702575e8" y="522.375301"/>
     <use style="fill:#ff0000;stroke:#ff0000;" x="568.575127" xlink:href="#m7e702575e8" y="522.36404"/>
     <use style="fill:#ff0000;stroke:#ff0000;" x="570.779762" xlink:href="#m7e702575e8" y="532.884976"/>
     <use style="fill:#ff0000;stroke:#ff0000;" x="574.532521" xlink:href="#m7e702575e8" y="540.348652"/>
     <use style="fill:#ff0000;stroke:#ff0000;" x="585.16673" xlink:href="#m7e702575e8" y="540.648585"/>
     <use style="fill:#ff0000;stroke:#ff0000;" x="590.795" xlink:href="#m7e702575e8" y="526.262998"/>
     <use style="fill:#ff0000;stroke:#ff0000;" x="606.107382" xlink:href="#m7e702575e8" y="534.980586"/>
     <use style="fill:#ff0000;stroke:#ff0000;" x="608.277524" xlink:href="#m7e702575e8" y="519.693585"/>
     <use style="fill:#ff0000;stroke:#ff0000;" x="621.698286" xlink:href="#m7e702575e8" y="519.886182"/>
     <use style="fill:#ff0000;stroke:#ff0000;" x="619.550919" xlink:href="#m7e702575e8" y="503.235948"/>
     <use style="fill:#ff0000;stroke:#ff0000;" x="641.945523" xlink:href="#m7e702575e8" y="482.298272"/>
     <use style="fill:#ff0000;stroke:#ff0000;" x="718.381554" xlink:href="#m7e702575e8" y="529.019785"/>
     <use style="fill:#ff0000;stroke:#ff0000;" x="731.896362" xlink:href="#m7e702575e8" y="524.352577"/>
     <use style="fill:#ff0000;stroke:#ff0000;" x="744.220252" xlink:href="#m7e702575e8" y="524.869159"/>
     <use style="fill:#ff0000;stroke:#ff0000;" x="741.320699" xlink:href="#m7e702575e8" y="516.029212"/>
     <use style="fill:#ff0000;stroke:#ff0000;" x="755.687423" xlink:href="#m7e702575e8" y="516.831114"/>
     <use style="fill:#ff0000;stroke:#ff0000;" x="770.527537" xlink:href="#m7e702575e8" y="516.969956"/>
     <use style="fill:#ff0000;stroke:#ff0000;" x="788.564652" xlink:href="#m7e702575e8" y="517.593733"/>
     <use style="fill:#ff0000;stroke:#ff0000;" x="922.273471" xlink:href="#m7e702575e8" y="549.672992"/>
     <use style="fill:#ff0000;stroke:#ff0000;" x="936.86435" xlink:href="#m7e702575e8" y="531.484634"/>
    </g>
   </g>
   <g id="line2d_18">
    <defs>
     <path d="M -0.5 0.5 
L 0.5 0.5 
L 0.5 -0.5 
L -0.5 -0.5 
z
" id="m83506dd71f" style="stroke:#1f77b4;stroke-linejoin:miter;"/>
    </defs>
    <g clip-path="url(#pcea58aa267)">
     <use style="fill:#1f77b4;stroke:#1f77b4;stroke-linejoin:miter;" x="895.614281" xlink:href="#m83506dd71f" y="451.164515"/>
     <use style="fill:#1f77b4;stroke:#1f77b4;stroke-linejoin:miter;" x="954.935841" xlink:href="#m83506dd71f" y="443.877882"/>
     <use style="fill:#1f77b4;stroke:#1f77b4;stroke-linejoin:miter;" x="941.377931" xlink:href="#m83506dd71f" y="423.543095"/>
     <use style="fill:#1f77b4;stroke:#1f77b4;stroke-linejoin:miter;" x="919.884035" xlink:href="#m83506dd71f" y="414.772424"/>
     <use style="fill:#1f77b4;stroke:#1f77b4;stroke-linejoin:miter;" x="918.540186" xlink:href="#m83506dd71f" y="405.416724"/>
     <use style="fill:#1f77b4;stroke:#1f77b4;stroke-linejoin:miter;" x="940.287239" xlink:href="#m83506dd71f" y="316.556104"/>
     <use style="fill:#1f77b4;stroke:#1f77b4;stroke-linejoin:miter;" x="878.52461" xlink:href="#m83506dd71f" y="316.773882"/>
     <use style="fill:#1f77b4;stroke:#1f77b4;stroke-linejoin:miter;" x="828.525224" xlink:href="#m83506dd71f" y="318.734673"/>
     <use style="fill:#1f77b4;stroke:#1f77b4;stroke-linejoin:miter;" x="788.819209" xlink:href="#m83506dd71f" y="311.842669"/>
     <use style="fill:#1f77b4;stroke:#1f77b4;stroke-linejoin:miter;" x="775.011651" xlink:href="#m83506dd71f" y="311.090194"/>
     <use style="fill:#1f77b4;stroke:#1f77b4;stroke-linejoin:miter;" x="762.889732" xlink:href="#m83506dd71f" y="309.942376"/>
     <use style="fill:#1f77b4;stroke:#1f77b4;stroke-linejoin:miter;" x="681.6368" xlink:href="#m83506dd71f" y="308.37252"/>
     <use style="fill:#1f77b4;stroke:#1f77b4;stroke-linejoin:miter;" x="673.809169" xlink:href="#m83506dd71f" y="307.731859"/>
     <use style="fill:#1f77b4;stroke:#1f77b4;stroke-linejoin:miter;" x="665.662879" xlink:href="#m83506dd71f" y="307.817413"/>
     <use style="fill:#1f77b4;stroke:#1f77b4;stroke-linejoin:miter;" x="658.568049" xlink:href="#m83506dd71f" y="306.848923"/>
     <use style="fill:#1f77b4;stroke:#1f77b4;stroke-linejoin:miter;" x="650.531746" xlink:href="#m83506dd71f" y="307.671977"/>
     <use style="fill:#1f77b4;stroke:#1f77b4;stroke-linejoin:miter;" x="643.268703" xlink:href="#m83506dd71f" y="307.713352"/>
     <use style="fill:#1f77b4;stroke:#1f77b4;stroke-linejoin:miter;" x="636.358258" xlink:href="#m83506dd71f" y="306.960047"/>
     <use style="fill:#1f77b4;stroke:#1f77b4;stroke-linejoin:miter;" x="629.321695" xlink:href="#m83506dd71f" y="306.999082"/>
     <use style="fill:#1f77b4;stroke:#1f77b4;stroke-linejoin:miter;" x="617.856794" xlink:href="#m83506dd71f" y="324.569042"/>
     <use style="fill:#1f77b4;stroke:#1f77b4;stroke-linejoin:miter;" x="615.622422" xlink:href="#m83506dd71f" y="307.190701"/>
     <use style="fill:#1f77b4;stroke:#1f77b4;stroke-linejoin:miter;" x="608.904809" xlink:href="#m83506dd71f" y="304.780729"/>
     <use style="fill:#1f77b4;stroke:#1f77b4;stroke-linejoin:miter;" x="602.033624" xlink:href="#m83506dd71f" y="305.153958"/>
     <use style="fill:#1f77b4;stroke:#1f77b4;stroke-linejoin:miter;" x="595.297489" xlink:href="#m83506dd71f" y="305.15616"/>
     <use style="fill:#1f77b4;stroke:#1f77b4;stroke-linejoin:miter;" x="588.607657" xlink:href="#m83506dd71f" y="303.959778"/>
     <use style="fill:#1f77b4;stroke:#1f77b4;stroke-linejoin:miter;" x="581.789901" xlink:href="#m83506dd71f" y="304.251351"/>
     <use style="fill:#1f77b4;stroke:#1f77b4;stroke-linejoin:miter;" x="574.881935" xlink:href="#m83506dd71f" y="304.149032"/>
     <use style="fill:#1f77b4;stroke:#1f77b4;stroke-linejoin:miter;" x="568.063671" xlink:href="#m83506dd71f" y="304.045701"/>
     <use style="fill:#1f77b4;stroke:#1f77b4;stroke-linejoin:miter;" x="561.036426" xlink:href="#m83506dd71f" y="304.01567"/>
     <use style="fill:#1f77b4;stroke:#1f77b4;stroke-linejoin:miter;" x="554.090339" xlink:href="#m83506dd71f" y="303.703065"/>
     <use style="fill:#1f77b4;stroke:#1f77b4;stroke-linejoin:miter;" x="546.780306" xlink:href="#m83506dd71f" y="303.488311"/>
     <use style="fill:#1f77b4;stroke:#1f77b4;stroke-linejoin:miter;" x="539.312605" xlink:href="#m83506dd71f" y="302.873414"/>
     <use style="fill:#1f77b4;stroke:#1f77b4;stroke-linejoin:miter;" x="531.765939" xlink:href="#m83506dd71f" y="302.718702"/>
     <use style="fill:#1f77b4;stroke:#1f77b4;stroke-linejoin:miter;" x="524.07945" xlink:href="#m83506dd71f" y="302.587232"/>
     <use style="fill:#1f77b4;stroke:#1f77b4;stroke-linejoin:miter;" x="516.174674" xlink:href="#m83506dd71f" y="302.583972"/>
     <use style="fill:#1f77b4;stroke:#1f77b4;stroke-linejoin:miter;" x="507.582579" xlink:href="#m83506dd71f" y="301.877442"/>
     <use style="fill:#1f77b4;stroke:#1f77b4;stroke-linejoin:miter;" x="498.962627" xlink:href="#m83506dd71f" y="301.59882"/>
     <use style="fill:#1f77b4;stroke:#1f77b4;stroke-linejoin:miter;" x="490.77508" xlink:href="#m83506dd71f" y="302.479659"/>
     <use style="fill:#1f77b4;stroke:#1f77b4;stroke-linejoin:miter;" x="481.711665" xlink:href="#m83506dd71f" y="302.523186"/>
     <use style="fill:#1f77b4;stroke:#1f77b4;stroke-linejoin:miter;" x="472.507914" xlink:href="#m83506dd71f" y="302.963999"/>
     <use style="fill:#1f77b4;stroke:#1f77b4;stroke-linejoin:miter;" x="461.91756" xlink:href="#m83506dd71f" y="302.329283"/>
     <use style="fill:#1f77b4;stroke:#1f77b4;stroke-linejoin:miter;" x="450.757483" xlink:href="#m83506dd71f" y="301.778031"/>
     <use style="fill:#1f77b4;stroke:#1f77b4;stroke-linejoin:miter;" x="439.099061" xlink:href="#m83506dd71f" y="301.510049"/>
     <use style="fill:#1f77b4;stroke:#1f77b4;stroke-linejoin:miter;" x="427.092667" xlink:href="#m83506dd71f" y="301.686965"/>
     <use style="fill:#1f77b4;stroke:#1f77b4;stroke-linejoin:miter;" x="408.294077" xlink:href="#m83506dd71f" y="307.476787"/>
     <use style="fill:#1f77b4;stroke:#1f77b4;stroke-linejoin:miter;" x="392.859852" xlink:href="#m83506dd71f" y="306.874201"/>
     <use style="fill:#1f77b4;stroke:#1f77b4;stroke-linejoin:miter;" x="396.865401" xlink:href="#m83506dd71f" y="319.015541"/>
     <use style="fill:#1f77b4;stroke:#1f77b4;stroke-linejoin:miter;" x="399.27127" xlink:href="#m83506dd71f" y="345.641944"/>
     <use style="fill:#1f77b4;stroke:#1f77b4;stroke-linejoin:miter;" x="391.076565" xlink:href="#m83506dd71f" y="349.538048"/>
     <use style="fill:#1f77b4;stroke:#1f77b4;stroke-linejoin:miter;" x="375.009579" xlink:href="#m83506dd71f" y="350.53064"/>
     <use style="fill:#1f77b4;stroke:#1f77b4;stroke-linejoin:miter;" x="373.324085" xlink:href="#m83506dd71f" y="357.644357"/>
     <use style="fill:#1f77b4;stroke:#1f77b4;stroke-linejoin:miter;" x="398.923323" xlink:href="#m83506dd71f" y="392.655487"/>
     <use style="fill:#1f77b4;stroke:#1f77b4;stroke-linejoin:miter;" x="372.075787" xlink:href="#m83506dd71f" y="393.108405"/>
     <use style="fill:#1f77b4;stroke:#1f77b4;stroke-linejoin:miter;" x="380.559293" xlink:href="#m83506dd71f" y="401.251816"/>
     <use style="fill:#1f77b4;stroke:#1f77b4;stroke-linejoin:miter;" x="369.233339" xlink:href="#m83506dd71f" y="405.821714"/>
     <use style="fill:#1f77b4;stroke:#1f77b4;stroke-linejoin:miter;" x="368.864694" xlink:href="#m83506dd71f" y="412.29267"/>
     <use style="fill:#1f77b4;stroke:#1f77b4;stroke-linejoin:miter;" x="375.233676" xlink:href="#m83506dd71f" y="419.291409"/>
     <use style="fill:#1f77b4;stroke:#1f77b4;stroke-linejoin:miter;" x="368.521493" xlink:href="#m83506dd71f" y="425.121046"/>
     <use style="fill:#1f77b4;stroke:#1f77b4;stroke-linejoin:miter;" x="537.518976" xlink:href="#m83506dd71f" y="436.029852"/>
     <use style="fill:#1f77b4;stroke:#1f77b4;stroke-linejoin:miter;" x="537.269142" xlink:href="#m83506dd71f" y="437.475584"/>
     <use style="fill:#1f77b4;stroke:#1f77b4;stroke-linejoin:miter;" x="537.33524" xlink:href="#m83506dd71f" y="438.987524"/>
     <use style="fill:#1f77b4;stroke:#1f77b4;stroke-linejoin:miter;" x="537.231886" xlink:href="#m83506dd71f" y="440.451337"/>
     <use style="fill:#1f77b4;stroke:#1f77b4;stroke-linejoin:miter;" x="537.275014" xlink:href="#m83506dd71f" y="441.971643"/>
     <use style="fill:#1f77b4;stroke:#1f77b4;stroke-linejoin:miter;" x="537.347004" xlink:href="#m83506dd71f" y="443.491007"/>
     <use style="fill:#1f77b4;stroke:#1f77b4;stroke-linejoin:miter;" x="537.547436" xlink:href="#m83506dd71f" y="445.017355"/>
     <use style="fill:#1f77b4;stroke:#1f77b4;stroke-linejoin:miter;" x="537.491579" xlink:href="#m83506dd71f" y="446.61938"/>
     <use style="fill:#1f77b4;stroke:#1f77b4;stroke-linejoin:miter;" x="537.22052" xlink:href="#m83506dd71f" y="448.270036"/>
     <use style="fill:#1f77b4;stroke:#1f77b4;stroke-linejoin:miter;" x="537.313417" xlink:href="#m83506dd71f" y="449.953003"/>
     <use style="fill:#1f77b4;stroke:#1f77b4;stroke-linejoin:miter;" x="537.255078" xlink:href="#m83506dd71f" y="451.633231"/>
     <use style="fill:#1f77b4;stroke:#1f77b4;stroke-linejoin:miter;" x="537.084825" xlink:href="#m83506dd71f" y="453.427186"/>
     <use style="fill:#1f77b4;stroke:#1f77b4;stroke-linejoin:miter;" x="395.240034" xlink:href="#m83506dd71f" y="523.538696"/>
     <use style="fill:#1f77b4;stroke:#1f77b4;stroke-linejoin:miter;" x="419.848896" xlink:href="#m83506dd71f" y="519.49401"/>
     <use style="fill:#1f77b4;stroke:#1f77b4;stroke-linejoin:miter;" x="404.919593" xlink:href="#m83506dd71f" y="534.282024"/>
     <use style="fill:#1f77b4;stroke:#1f77b4;stroke-linejoin:miter;" x="435.089676" xlink:href="#m83506dd71f" y="525.374685"/>
     <use style="fill:#1f77b4;stroke:#1f77b4;stroke-linejoin:miter;" x="442.607656" xlink:href="#m83506dd71f" y="527.964253"/>
     <use style="fill:#1f77b4;stroke:#1f77b4;stroke-linejoin:miter;" x="445.666708" xlink:href="#m83506dd71f" y="533.321798"/>
     <use style="fill:#1f77b4;stroke:#1f77b4;stroke-linejoin:miter;" x="451.267108" xlink:href="#m83506dd71f" y="536.987022"/>
     <use style="fill:#1f77b4;stroke:#1f77b4;stroke-linejoin:miter;" x="460.832332" xlink:href="#m83506dd71f" y="537.562401"/>
     <use style="fill:#1f77b4;stroke:#1f77b4;stroke-linejoin:miter;" x="493.715713" xlink:href="#m83506dd71f" y="518.066412"/>
     <use style="fill:#1f77b4;stroke:#1f77b4;stroke-linejoin:miter;" x="502.465489" xlink:href="#m83506dd71f" y="516.787442"/>
     <use style="fill:#1f77b4;stroke:#1f77b4;stroke-linejoin:miter;" x="507.58266" xlink:href="#m83506dd71f" y="518.354508"/>
     <use style="fill:#1f77b4;stroke:#1f77b4;stroke-linejoin:miter;" x="507.159987" xlink:href="#m83506dd71f" y="525.472083"/>
     <use style="fill:#1f77b4;stroke:#1f77b4;stroke-linejoin:miter;" x="502.72389" xlink:href="#m83506dd71f" y="538.135215"/>
     <use style="fill:#1f77b4;stroke:#1f77b4;stroke-linejoin:miter;" x="544.581322" xlink:href="#m83506dd71f" y="522.375301"/>
     <use style="fill:#1f77b4;stroke:#1f77b4;stroke-linejoin:miter;" x="547.630531" xlink:href="#m83506dd71f" y="526.474774"/>
     <use style="fill:#1f77b4;stroke:#1f77b4;stroke-linejoin:miter;" x="568.575127" xlink:href="#m83506dd71f" y="522.36404"/>
     <use style="fill:#1f77b4;stroke:#1f77b4;stroke-linejoin:miter;" x="570.779762" xlink:href="#m83506dd71f" y="532.884976"/>
     <use style="fill:#1f77b4;stroke:#1f77b4;stroke-linejoin:miter;" x="574.532521" xlink:href="#m83506dd71f" y="540.348652"/>
     <use style="fill:#1f77b4;stroke:#1f77b4;stroke-linejoin:miter;" x="579.842984" xlink:href="#m83506dd71f" y="540.639088"/>
     <use style="fill:#1f77b4;stroke:#1f77b4;stroke-linejoin:miter;" x="585.16673" xlink:href="#m83506dd71f" y="540.648585"/>
     <use style="fill:#1f77b4;stroke:#1f77b4;stroke-linejoin:miter;" x="590.795" xlink:href="#m83506dd71f" y="526.262998"/>
     <use style="fill:#1f77b4;stroke:#1f77b4;stroke-linejoin:miter;" x="595.520595" xlink:href="#m83506dd71f" y="530.807788"/>
     <use style="fill:#1f77b4;stroke:#1f77b4;stroke-linejoin:miter;" x="600.758402" xlink:href="#m83506dd71f" y="535.431734"/>
     <use style="fill:#1f77b4;stroke:#1f77b4;stroke-linejoin:miter;" x="606.107382" xlink:href="#m83506dd71f" y="534.980586"/>
     <use style="fill:#1f77b4;stroke:#1f77b4;stroke-linejoin:miter;" x="608.277524" xlink:href="#m83506dd71f" y="519.693585"/>
     <use style="fill:#1f77b4;stroke:#1f77b4;stroke-linejoin:miter;" x="612.441835" xlink:href="#m83506dd71f" y="519.24717"/>
     <use style="fill:#1f77b4;stroke:#1f77b4;stroke-linejoin:miter;" x="617.296285" xlink:href="#m83506dd71f" y="520.305559"/>
     <use style="fill:#1f77b4;stroke:#1f77b4;stroke-linejoin:miter;" x="621.698286" xlink:href="#m83506dd71f" y="519.886182"/>
     <use style="fill:#1f77b4;stroke:#1f77b4;stroke-linejoin:miter;" x="619.550919" xlink:href="#m83506dd71f" y="503.235948"/>
     <use style="fill:#1f77b4;stroke:#1f77b4;stroke-linejoin:miter;" x="621.43288" xlink:href="#m83506dd71f" y="499.054382"/>
     <use style="fill:#1f77b4;stroke:#1f77b4;stroke-linejoin:miter;" x="622.6048" xlink:href="#m83506dd71f" y="494.390071"/>
     <use style="fill:#1f77b4;stroke:#1f77b4;stroke-linejoin:miter;" x="624.827018" xlink:href="#m83506dd71f" y="492.047058"/>
     <use style="fill:#1f77b4;stroke:#1f77b4;stroke-linejoin:miter;" x="626.886524" xlink:href="#m83506dd71f" y="489.932896"/>
     <use style="fill:#1f77b4;stroke:#1f77b4;stroke-linejoin:miter;" x="629.555972" xlink:href="#m83506dd71f" y="488.822481"/>
     <use style="fill:#1f77b4;stroke:#1f77b4;stroke-linejoin:miter;" x="631.887842" xlink:href="#m83506dd71f" y="487.360671"/>
     <use style="fill:#1f77b4;stroke:#1f77b4;stroke-linejoin:miter;" x="633.918861" xlink:href="#m83506dd71f" y="485.547234"/>
     <use style="fill:#1f77b4;stroke:#1f77b4;stroke-linejoin:miter;" x="636.355104" xlink:href="#m83506dd71f" y="484.272924"/>
     <use style="fill:#1f77b4;stroke:#1f77b4;stroke-linejoin:miter;" x="639.480195" xlink:href="#m83506dd71f" y="483.607504"/>
     <use style="fill:#1f77b4;stroke:#1f77b4;stroke-linejoin:miter;" x="641.945523" xlink:href="#m83506dd71f" y="482.298272"/>
     <use style="fill:#1f77b4;stroke:#1f77b4;stroke-linejoin:miter;" x="718.381554" xlink:href="#m83506dd71f" y="529.019785"/>
     <use style="fill:#1f77b4;stroke:#1f77b4;stroke-linejoin:miter;" x="720.335391" xlink:href="#m83506dd71f" y="523.499662"/>
     <use style="fill:#1f77b4;stroke:#1f77b4;stroke-linejoin:miter;" x="731.896362" xlink:href="#m83506dd71f" y="524.352577"/>
     <use style="fill:#1f77b4;stroke:#1f77b4;stroke-linejoin:miter;" x="744.220252" xlink:href="#m83506dd71f" y="524.869159"/>
     <use style="fill:#1f77b4;stroke:#1f77b4;stroke-linejoin:miter;" x="741.320699" xlink:href="#m83506dd71f" y="516.029212"/>
     <use style="fill:#1f77b4;stroke:#1f77b4;stroke-linejoin:miter;" x="755.687423" xlink:href="#m83506dd71f" y="516.831114"/>
     <use style="fill:#1f77b4;stroke:#1f77b4;stroke-linejoin:miter;" x="770.527537" xlink:href="#m83506dd71f" y="516.969956"/>
     <use style="fill:#1f77b4;stroke:#1f77b4;stroke-linejoin:miter;" x="788.564652" xlink:href="#m83506dd71f" y="517.593733"/>
     <use style="fill:#1f77b4;stroke:#1f77b4;stroke-linejoin:miter;" x="922.273471" xlink:href="#m83506dd71f" y="549.672992"/>
     <use style="fill:#1f77b4;stroke:#1f77b4;stroke-linejoin:miter;" x="928.383196" xlink:href="#m83506dd71f" y="540.318793"/>
     <use style="fill:#1f77b4;stroke:#1f77b4;stroke-linejoin:miter;" x="936.86435" xlink:href="#m83506dd71f" y="531.484634"/>
    </g>
   </g>
   <g id="patch_3">
    <path d="M 144 768.96 
L 144 103.68 
" style="fill:none;stroke:#000000;stroke-linecap:square;stroke-linejoin:miter;stroke-width:0.8;"/>
   </g>
   <g id="patch_4">
    <path d="M 1036.8 768.96 
L 1036.8 103.68 
" style="fill:none;stroke:#000000;stroke-linecap:square;stroke-linejoin:miter;stroke-width:0.8;"/>
   </g>
   <g id="patch_5">
    <path d="M 144 768.96 
L 1036.8 768.96 
" style="fill:none;stroke:#000000;stroke-linecap:square;stroke-linejoin:miter;stroke-width:0.8;"/>
   </g>
   <g id="patch_6">
    <path d="M 144 103.68 
L 1036.8 103.68 
" style="fill:none;stroke:#000000;stroke-linecap:square;stroke-linejoin:miter;stroke-width:0.8;"/>
   </g>
  </g>
 </g>
 <defs>
  <clipPath id="pcea58aa267">
   <rect height="665.28" width="892.8" x="144" y="103.68"/>
  </clipPath>
 </defs>
</svg>
