<?xml version="1.0" encoding="utf-8" standalone="no"?>
<!DOCTYPE svg PUBLIC "-//W3C//DTD SVG 1.1//EN"
  "http://www.w3.org/Graphics/SVG/1.1/DTD/svg11.dtd">
<!-- Created with matplotlib (http://matplotlib.org/) -->
<svg height="864pt" version="1.1" viewBox="0 0 1152 864" width="1152pt" xmlns="http://www.w3.org/2000/svg" xmlns:xlink="http://www.w3.org/1999/xlink">
 <defs>
  <style type="text/css">
*{stroke-linecap:butt;stroke-linejoin:round;}
  </style>
 </defs>
 <g id="figure_1">
  <g id="patch_1">
   <path d="M 0 864 
L 1152 864 
L 1152 0 
L 0 0 
z
" style="fill:#ffffff;"/>
  </g>
  <g id="axes_1">
   <g id="patch_2">
    <path d="M 144 768.96 
L 1036.8 768.96 
L 1036.8 103.68 
L 144 103.68 
z
" style="fill:#ffffff;"/>
   </g>
   <g id="matplotlib.axis_1">
    <g id="xtick_1">
     <g id="line2d_1">
      <defs>
       <path d="M 0 0 
L 0 3.5 
" id="mc0e8db63e4" style="stroke:#000000;stroke-width:0.8;"/>
      </defs>
      <g>
       <use style="stroke:#000000;stroke-width:0.8;" x="207.771429" xlink:href="#mc0e8db63e4" y="768.96"/>
      </g>
     </g>
     <g id="text_1">
      <!-- −6000 -->
      <defs>
       <path d="M 10.59375 35.5 
L 73.1875 35.5 
L 73.1875 27.203125 
L 10.59375 27.203125 
z
" id="DejaVuSans-2212"/>
       <path d="M 33.015625 40.375 
Q 26.375 40.375 22.484375 35.828125 
Q 18.609375 31.296875 18.609375 23.390625 
Q 18.609375 15.53125 22.484375 10.953125 
Q 26.375 6.390625 33.015625 6.390625 
Q 39.65625 6.390625 43.53125 10.953125 
Q 47.40625 15.53125 47.40625 23.390625 
Q 47.40625 31.296875 43.53125 35.828125 
Q 39.65625 40.375 33.015625 40.375 
z
M 52.59375 71.296875 
L 52.59375 62.3125 
Q 48.875 64.0625 45.09375 64.984375 
Q 41.3125 65.921875 37.59375 65.921875 
Q 27.828125 65.921875 22.671875 59.328125 
Q 17.53125 52.734375 16.796875 39.40625 
Q 19.671875 43.65625 24.015625 45.921875 
Q 28.375 48.1875 33.59375 48.1875 
Q 44.578125 48.1875 50.953125 41.515625 
Q 57.328125 34.859375 57.328125 23.390625 
Q 57.328125 12.15625 50.6875 5.359375 
Q 44.046875 -1.421875 33.015625 -1.421875 
Q 20.359375 -1.421875 13.671875 8.265625 
Q 6.984375 17.96875 6.984375 36.375 
Q 6.984375 53.65625 15.1875 63.9375 
Q 23.390625 74.21875 37.203125 74.21875 
Q 40.921875 74.21875 44.703125 73.484375 
Q 48.484375 72.75 52.59375 71.296875 
z
" id="DejaVuSans-36"/>
       <path d="M 31.78125 66.40625 
Q 24.171875 66.40625 20.328125 58.90625 
Q 16.5 51.421875 16.5 36.375 
Q 16.5 21.390625 20.328125 13.890625 
Q 24.171875 6.390625 31.78125 6.390625 
Q 39.453125 6.390625 43.28125 13.890625 
Q 47.125 21.390625 47.125 36.375 
Q 47.125 51.421875 43.28125 58.90625 
Q 39.453125 66.40625 31.78125 66.40625 
z
M 31.78125 74.21875 
Q 44.046875 74.21875 50.515625 64.515625 
Q 56.984375 54.828125 56.984375 36.375 
Q 56.984375 17.96875 50.515625 8.265625 
Q 44.046875 -1.421875 31.78125 -1.421875 
Q 19.53125 -1.421875 13.0625 8.265625 
Q 6.59375 17.96875 6.59375 36.375 
Q 6.59375 54.828125 13.0625 64.515625 
Q 19.53125 74.21875 31.78125 74.21875 
z
" id="DejaVuSans-30"/>
      </defs>
      <g transform="translate(190.856585 783.558437)scale(0.1 -0.1)">
       <use xlink:href="#DejaVuSans-2212"/>
       <use x="83.789062" xlink:href="#DejaVuSans-36"/>
       <use x="147.412109" xlink:href="#DejaVuSans-30"/>
       <use x="211.035156" xlink:href="#DejaVuSans-30"/>
       <use x="274.658203" xlink:href="#DejaVuSans-30"/>
      </g>
     </g>
    </g>
    <g id="xtick_2">
     <g id="line2d_2">
      <g>
       <use style="stroke:#000000;stroke-width:0.8;" x="335.314286" xlink:href="#mc0e8db63e4" y="768.96"/>
      </g>
     </g>
     <g id="text_2">
      <!-- −4000 -->
      <defs>
       <path d="M 37.796875 64.3125 
L 12.890625 25.390625 
L 37.796875 25.390625 
z
M 35.203125 72.90625 
L 47.609375 72.90625 
L 47.609375 25.390625 
L 58.015625 25.390625 
L 58.015625 17.1875 
L 47.609375 17.1875 
L 47.609375 0 
L 37.796875 0 
L 37.796875 17.1875 
L 4.890625 17.1875 
L 4.890625 26.703125 
z
" id="DejaVuSans-34"/>
      </defs>
      <g transform="translate(318.399442 783.558437)scale(0.1 -0.1)">
       <use xlink:href="#DejaVuSans-2212"/>
       <use x="83.789062" xlink:href="#DejaVuSans-34"/>
       <use x="147.412109" xlink:href="#DejaVuSans-30"/>
       <use x="211.035156" xlink:href="#DejaVuSans-30"/>
       <use x="274.658203" xlink:href="#DejaVuSans-30"/>
      </g>
     </g>
    </g>
    <g id="xtick_3">
     <g id="line2d_3">
      <g>
       <use style="stroke:#000000;stroke-width:0.8;" x="462.857143" xlink:href="#mc0e8db63e4" y="768.96"/>
      </g>
     </g>
     <g id="text_3">
      <!-- −2000 -->
      <defs>
       <path d="M 19.1875 8.296875 
L 53.609375 8.296875 
L 53.609375 0 
L 7.328125 0 
L 7.328125 8.296875 
Q 12.9375 14.109375 22.625 23.890625 
Q 32.328125 33.6875 34.8125 36.53125 
Q 39.546875 41.84375 41.421875 45.53125 
Q 43.3125 49.21875 43.3125 52.78125 
Q 43.3125 58.59375 39.234375 62.25 
Q 35.15625 65.921875 28.609375 65.921875 
Q 23.96875 65.921875 18.8125 64.3125 
Q 13.671875 62.703125 7.8125 59.421875 
L 7.8125 69.390625 
Q 13.765625 71.78125 18.9375 73 
Q 24.125 74.21875 28.421875 74.21875 
Q 39.75 74.21875 46.484375 68.546875 
Q 53.21875 62.890625 53.21875 53.421875 
Q 53.21875 48.921875 51.53125 44.890625 
Q 49.859375 40.875 45.40625 35.40625 
Q 44.1875 33.984375 37.640625 27.21875 
Q 31.109375 20.453125 19.1875 8.296875 
z
" id="DejaVuSans-32"/>
      </defs>
      <g transform="translate(445.942299 783.558437)scale(0.1 -0.1)">
       <use xlink:href="#DejaVuSans-2212"/>
       <use x="83.789062" xlink:href="#DejaVuSans-32"/>
       <use x="147.412109" xlink:href="#DejaVuSans-30"/>
       <use x="211.035156" xlink:href="#DejaVuSans-30"/>
       <use x="274.658203" xlink:href="#DejaVuSans-30"/>
      </g>
     </g>
    </g>
    <g id="xtick_4">
     <g id="line2d_4">
      <g>
       <use style="stroke:#000000;stroke-width:0.8;" x="590.4" xlink:href="#mc0e8db63e4" y="768.96"/>
      </g>
     </g>
     <g id="text_4">
      <!-- 0 -->
      <g transform="translate(587.21875 783.558437)scale(0.1 -0.1)">
       <use xlink:href="#DejaVuSans-30"/>
      </g>
     </g>
    </g>
    <g id="xtick_5">
     <g id="line2d_5">
      <g>
       <use style="stroke:#000000;stroke-width:0.8;" x="717.942857" xlink:href="#mc0e8db63e4" y="768.96"/>
      </g>
     </g>
     <g id="text_5">
      <!-- 2000 -->
      <g transform="translate(705.217857 783.558437)scale(0.1 -0.1)">
       <use xlink:href="#DejaVuSans-32"/>
       <use x="63.623047" xlink:href="#DejaVuSans-30"/>
       <use x="127.246094" xlink:href="#DejaVuSans-30"/>
       <use x="190.869141" xlink:href="#DejaVuSans-30"/>
      </g>
     </g>
    </g>
    <g id="xtick_6">
     <g id="line2d_6">
      <g>
       <use style="stroke:#000000;stroke-width:0.8;" x="845.485714" xlink:href="#mc0e8db63e4" y="768.96"/>
      </g>
     </g>
     <g id="text_6">
      <!-- 4000 -->
      <g transform="translate(832.760714 783.558437)scale(0.1 -0.1)">
       <use xlink:href="#DejaVuSans-34"/>
       <use x="63.623047" xlink:href="#DejaVuSans-30"/>
       <use x="127.246094" xlink:href="#DejaVuSans-30"/>
       <use x="190.869141" xlink:href="#DejaVuSans-30"/>
      </g>
     </g>
    </g>
    <g id="xtick_7">
     <g id="line2d_7">
      <g>
       <use style="stroke:#000000;stroke-width:0.8;" x="973.028571" xlink:href="#mc0e8db63e4" y="768.96"/>
      </g>
     </g>
     <g id="text_7">
      <!-- 6000 -->
      <g transform="translate(960.303571 783.558437)scale(0.1 -0.1)">
       <use xlink:href="#DejaVuSans-36"/>
       <use x="63.623047" xlink:href="#DejaVuSans-30"/>
       <use x="127.246094" xlink:href="#DejaVuSans-30"/>
       <use x="190.869141" xlink:href="#DejaVuSans-30"/>
      </g>
     </g>
    </g>
   </g>
   <g id="matplotlib.axis_2">
    <g id="ytick_1">
     <g id="line2d_8">
      <defs>
       <path d="M 0 0 
L -3.5 0 
" id="m0f421a4e26" style="stroke:#000000;stroke-width:0.8;"/>
      </defs>
      <g>
       <use style="stroke:#000000;stroke-width:0.8;" x="144" xlink:href="#m0f421a4e26" y="721.44"/>
      </g>
     </g>
     <g id="text_8">
      <!-- −6000 -->
      <g transform="translate(103.170312 725.239219)scale(0.1 -0.1)">
       <use xlink:href="#DejaVuSans-2212"/>
       <use x="83.789062" xlink:href="#DejaVuSans-36"/>
       <use x="147.412109" xlink:href="#DejaVuSans-30"/>
       <use x="211.035156" xlink:href="#DejaVuSans-30"/>
       <use x="274.658203" xlink:href="#DejaVuSans-30"/>
      </g>
     </g>
    </g>
    <g id="ytick_2">
     <g id="line2d_9">
      <g>
       <use style="stroke:#000000;stroke-width:0.8;" x="144" xlink:href="#m0f421a4e26" y="626.4"/>
      </g>
     </g>
     <g id="text_9">
      <!-- −4000 -->
      <g transform="translate(103.170312 630.199219)scale(0.1 -0.1)">
       <use xlink:href="#DejaVuSans-2212"/>
       <use x="83.789062" xlink:href="#DejaVuSans-34"/>
       <use x="147.412109" xlink:href="#DejaVuSans-30"/>
       <use x="211.035156" xlink:href="#DejaVuSans-30"/>
       <use x="274.658203" xlink:href="#DejaVuSans-30"/>
      </g>
     </g>
    </g>
    <g id="ytick_3">
     <g id="line2d_10">
      <g>
       <use style="stroke:#000000;stroke-width:0.8;" x="144" xlink:href="#m0f421a4e26" y="531.36"/>
      </g>
     </g>
     <g id="text_10">
      <!-- −2000 -->
      <g transform="translate(103.170312 535.159219)scale(0.1 -0.1)">
       <use xlink:href="#DejaVuSans-2212"/>
       <use x="83.789062" xlink:href="#DejaVuSans-32"/>
       <use x="147.412109" xlink:href="#DejaVuSans-30"/>
       <use x="211.035156" xlink:href="#DejaVuSans-30"/>
       <use x="274.658203" xlink:href="#DejaVuSans-30"/>
      </g>
     </g>
    </g>
    <g id="ytick_4">
     <g id="line2d_11">
      <g>
       <use style="stroke:#000000;stroke-width:0.8;" x="144" xlink:href="#m0f421a4e26" y="436.32"/>
      </g>
     </g>
     <g id="text_11">
      <!-- 0 -->
      <g transform="translate(130.6375 440.119219)scale(0.1 -0.1)">
       <use xlink:href="#DejaVuSans-30"/>
      </g>
     </g>
    </g>
    <g id="ytick_5">
     <g id="line2d_12">
      <g>
       <use style="stroke:#000000;stroke-width:0.8;" x="144" xlink:href="#m0f421a4e26" y="341.28"/>
      </g>
     </g>
     <g id="text_12">
      <!-- 2000 -->
      <g transform="translate(111.55 345.079219)scale(0.1 -0.1)">
       <use xlink:href="#DejaVuSans-32"/>
       <use x="63.623047" xlink:href="#DejaVuSans-30"/>
       <use x="127.246094" xlink:href="#DejaVuSans-30"/>
       <use x="190.869141" xlink:href="#DejaVuSans-30"/>
      </g>
     </g>
    </g>
    <g id="ytick_6">
     <g id="line2d_13">
      <g>
       <use style="stroke:#000000;stroke-width:0.8;" x="144" xlink:href="#m0f421a4e26" y="246.24"/>
      </g>
     </g>
     <g id="text_13">
      <!-- 4000 -->
      <g transform="translate(111.55 250.039219)scale(0.1 -0.1)">
       <use xlink:href="#DejaVuSans-34"/>
       <use x="63.623047" xlink:href="#DejaVuSans-30"/>
       <use x="127.246094" xlink:href="#DejaVuSans-30"/>
       <use x="190.869141" xlink:href="#DejaVuSans-30"/>
      </g>
     </g>
    </g>
    <g id="ytick_7">
     <g id="line2d_14">
      <g>
       <use style="stroke:#000000;stroke-width:0.8;" x="144" xlink:href="#m0f421a4e26" y="151.2"/>
      </g>
     </g>
     <g id="text_14">
      <!-- 6000 -->
      <g transform="translate(111.55 154.999219)scale(0.1 -0.1)">
       <use xlink:href="#DejaVuSans-36"/>
       <use x="63.623047" xlink:href="#DejaVuSans-30"/>
       <use x="127.246094" xlink:href="#DejaVuSans-30"/>
       <use x="190.869141" xlink:href="#DejaVuSans-30"/>
      </g>
     </g>
    </g>
   </g>
   <g id="line2d_15">
    <path clip-path="url(#p0da8a1f945)" d="M 590.4 768.96 
L 590.4 103.68 
" style="fill:none;stroke:#1f77b4;stroke-linecap:square;stroke-width:1.5;"/>
   </g>
   <g id="line2d_16">
    <path clip-path="url(#p0da8a1f945)" d="M 144 436.32 
L 1036.8 436.32 
" style="fill:none;stroke:#1f77b4;stroke-linecap:square;stroke-width:1.5;"/>
   </g>
   <g id="line2d_17">
    <defs>
     <path d="M 0 1.333333 
C 0.353604 1.333333 0.692773 1.192845 0.942809 0.942809 
C 1.192845 0.692773 1.333333 0.353604 1.333333 0 
C 1.333333 -0.353604 1.192845 -0.692773 0.942809 -0.942809 
C 0.692773 -1.192845 0.353604 -1.333333 0 -1.333333 
C -0.353604 -1.333333 -0.692773 -1.192845 -0.942809 -0.942809 
C -1.192845 -0.692773 -1.333333 -0.353604 -1.333333 0 
C -1.333333 0.353604 -1.192845 0.692773 -0.942809 0.942809 
C -0.692773 1.192845 -0.353604 1.333333 0 1.333333 
z
" id="mf8c1259e80" style="stroke:#ff0000;"/>
    </defs>
    <g clip-path="url(#p0da8a1f945)">
     <use style="fill:#ff0000;stroke:#ff0000;" x="897.328873" xlink:href="#mf8c1259e80" y="451.999715"/>
     <use style="fill:#ff0000;stroke:#ff0000;" x="902.792801" xlink:href="#mf8c1259e80" y="440.700756"/>
     <use style="fill:#ff0000;stroke:#ff0000;" x="918.443516" xlink:href="#mf8c1259e80" y="403.934687"/>
     <use style="fill:#ff0000;stroke:#ff0000;" x="673.423276" xlink:href="#mf8c1259e80" y="424.049215"/>
     <use style="fill:#ff0000;stroke:#ff0000;" x="665.246275" xlink:href="#mf8c1259e80" y="398.590193"/>
     <use style="fill:#ff0000;stroke:#ff0000;" x="796.273042" xlink:href="#mf8c1259e80" y="311.397918"/>
     <use style="fill:#ff0000;stroke:#ff0000;" x="777.280512" xlink:href="#mf8c1259e80" y="310.726777"/>
     <use style="fill:#ff0000;stroke:#ff0000;" x="681.209831" xlink:href="#mf8c1259e80" y="308.298024"/>
     <use style="fill:#ff0000;stroke:#ff0000;" x="632.296882" xlink:href="#mf8c1259e80" y="306.123206"/>
     <use style="fill:#ff0000;stroke:#ff0000;" x="618.382416" xlink:href="#mf8c1259e80" y="324.327258"/>
     <use style="fill:#ff0000;stroke:#ff0000;" x="614.193327" xlink:href="#mf8c1259e80" y="306.308758"/>
     <use style="fill:#ff0000;stroke:#ff0000;" x="463.463582" xlink:href="#mf8c1259e80" y="303.098539"/>
     <use style="fill:#ff0000;stroke:#ff0000;" x="449.334696" xlink:href="#mf8c1259e80" y="302.755869"/>
     <use style="fill:#ff0000;stroke:#ff0000;" x="433.069579" xlink:href="#mf8c1259e80" y="301.973613"/>
     <use style="fill:#ff0000;stroke:#ff0000;" x="407.446348" xlink:href="#mf8c1259e80" y="308.353587"/>
     <use style="fill:#ff0000;stroke:#ff0000;" x="390.162042" xlink:href="#mf8c1259e80" y="309.655106"/>
     <use style="fill:#ff0000;stroke:#ff0000;" x="396.10753" xlink:href="#mf8c1259e80" y="347.055174"/>
     <use style="fill:#ff0000;stroke:#ff0000;" x="373.567687" xlink:href="#mf8c1259e80" y="357.841591"/>
     <use style="fill:#ff0000;stroke:#ff0000;" x="402.450146" xlink:href="#mf8c1259e80" y="393.041693"/>
     <use style="fill:#ff0000;stroke:#ff0000;" x="373.200513" xlink:href="#mf8c1259e80" y="394.980677"/>
     <use style="fill:#ff0000;stroke:#ff0000;" x="369.246354" xlink:href="#mf8c1259e80" y="411.507393"/>
     <use style="fill:#ff0000;stroke:#ff0000;" x="382.840767" xlink:href="#mf8c1259e80" y="420.959044"/>
     <use style="fill:#ff0000;stroke:#ff0000;" x="368.567586" xlink:href="#mf8c1259e80" y="428.199286"/>
     <use style="fill:#ff0000;stroke:#ff0000;" x="537.290727" xlink:href="#mf8c1259e80" y="437.172732"/>
     <use style="fill:#ff0000;stroke:#ff0000;" x="537.573086" xlink:href="#mf8c1259e80" y="451.455282"/>
     <use style="fill:#ff0000;stroke:#ff0000;" x="395.722759" xlink:href="#mf8c1259e80" y="524.890352"/>
     <use style="fill:#ff0000;stroke:#ff0000;" x="432.138376" xlink:href="#mf8c1259e80" y="516.945894"/>
     <use style="fill:#ff0000;stroke:#ff0000;" x="445.695718" xlink:href="#mf8c1259e80" y="536.706462"/>
     <use style="fill:#ff0000;stroke:#ff0000;" x="458.174929" xlink:href="#mf8c1259e80" y="537.849898"/>
     <use style="fill:#ff0000;stroke:#ff0000;" x="494.159249" xlink:href="#mf8c1259e80" y="518.230236"/>
     <use style="fill:#ff0000;stroke:#ff0000;" x="508.223511" xlink:href="#mf8c1259e80" y="522.267054"/>
     <use style="fill:#ff0000;stroke:#ff0000;" x="503.277538" xlink:href="#mf8c1259e80" y="537.55301"/>
     <use style="fill:#ff0000;stroke:#ff0000;" x="545.106161" xlink:href="#mf8c1259e80" y="523.816736"/>
     <use style="fill:#ff0000;stroke:#ff0000;" x="547.421109" xlink:href="#mf8c1259e80" y="533.17602"/>
     <use style="fill:#ff0000;stroke:#ff0000;" x="580.443762" xlink:href="#mf8c1259e80" y="540.779071"/>
     <use style="fill:#ff0000;stroke:#ff0000;" x="588.109663" xlink:href="#mf8c1259e80" y="525.71259"/>
     <use style="fill:#ff0000;stroke:#ff0000;" x="600.993264" xlink:href="#mf8c1259e80" y="535.239184"/>
     <use style="fill:#ff0000;stroke:#ff0000;" x="608.678672" xlink:href="#mf8c1259e80" y="539.996887"/>
     <use style="fill:#ff0000;stroke:#ff0000;" x="610.971558" xlink:href="#mf8c1259e80" y="519.154639"/>
     <use style="fill:#ff0000;stroke:#ff0000;" x="667.163894" xlink:href="#mf8c1259e80" y="523.670626"/>
     <use style="fill:#ff0000;stroke:#ff0000;" x="699.007967" xlink:href="#mf8c1259e80" y="548.095364"/>
     <use style="fill:#ff0000;stroke:#ff0000;" x="749.141657" xlink:href="#mf8c1259e80" y="516.059431"/>
     <use style="fill:#ff0000;stroke:#ff0000;" x="769.428979" xlink:href="#mf8c1259e80" y="516.924387"/>
     <use style="fill:#ff0000;stroke:#ff0000;" x="790.971185" xlink:href="#mf8c1259e80" y="516.784264"/>
     <use style="fill:#ff0000;stroke:#ff0000;" x="919.467232" xlink:href="#mf8c1259e80" y="553.77118"/>
     <use style="fill:#ff0000;stroke:#ff0000;" x="935.763809" xlink:href="#mf8c1259e80" y="487.510444"/>
    </g>
   </g>
   <g id="line2d_18">
    <defs>
     <path d="M -0.5 0.5 
L 0.5 0.5 
L 0.5 -0.5 
L -0.5 -0.5 
z
" id="mf66f873097" style="stroke:#1f77b4;stroke-linejoin:miter;"/>
    </defs>
    <g clip-path="url(#p0da8a1f945)">
     <use style="fill:#1f77b4;stroke:#1f77b4;stroke-linejoin:miter;" x="897.328873" xlink:href="#mf66f873097" y="451.999715"/>
     <use style="fill:#1f77b4;stroke:#1f77b4;stroke-linejoin:miter;" x="902.792801" xlink:href="#mf66f873097" y="440.700756"/>
     <use style="fill:#1f77b4;stroke:#1f77b4;stroke-linejoin:miter;" x="918.443516" xlink:href="#mf66f873097" y="403.934687"/>
     <use style="fill:#1f77b4;stroke:#1f77b4;stroke-linejoin:miter;" x="673.423276" xlink:href="#mf66f873097" y="424.049215"/>
     <use style="fill:#1f77b4;stroke:#1f77b4;stroke-linejoin:miter;" x="669.297393" xlink:href="#mf66f873097" y="421.57651"/>
     <use style="fill:#1f77b4;stroke:#1f77b4;stroke-linejoin:miter;" x="673.238209" xlink:href="#mf66f873097" y="417.503117"/>
     <use style="fill:#1f77b4;stroke:#1f77b4;stroke-linejoin:miter;" x="670.578326" xlink:href="#mf66f873097" y="414.813875"/>
     <use style="fill:#1f77b4;stroke:#1f77b4;stroke-linejoin:miter;" x="669.085432" xlink:href="#mf66f873097" y="411.789386"/>
     <use style="fill:#1f77b4;stroke:#1f77b4;stroke-linejoin:miter;" x="666.601825" xlink:href="#mf66f873097" y="409.140963"/>
     <use style="fill:#1f77b4;stroke:#1f77b4;stroke-linejoin:miter;" x="664.470988" xlink:href="#mf66f873097" y="406.468484"/>
     <use style="fill:#1f77b4;stroke:#1f77b4;stroke-linejoin:miter;" x="665.18762" xlink:href="#mf66f873097" y="402.482113"/>
     <use style="fill:#1f77b4;stroke:#1f77b4;stroke-linejoin:miter;" x="665.246275" xlink:href="#mf66f873097" y="398.590193"/>
     <use style="fill:#1f77b4;stroke:#1f77b4;stroke-linejoin:miter;" x="796.273042" xlink:href="#mf66f873097" y="311.397918"/>
     <use style="fill:#1f77b4;stroke:#1f77b4;stroke-linejoin:miter;" x="777.280512" xlink:href="#mf66f873097" y="310.726777"/>
     <use style="fill:#1f77b4;stroke:#1f77b4;stroke-linejoin:miter;" x="681.209831" xlink:href="#mf66f873097" y="308.298024"/>
     <use style="fill:#1f77b4;stroke:#1f77b4;stroke-linejoin:miter;" x="670.66032" xlink:href="#mf66f873097" y="307.880876"/>
     <use style="fill:#1f77b4;stroke:#1f77b4;stroke-linejoin:miter;" x="660.983959" xlink:href="#mf66f873097" y="306.85138"/>
     <use style="fill:#1f77b4;stroke:#1f77b4;stroke-linejoin:miter;" x="650.925193" xlink:href="#mf66f873097" y="306.943819"/>
     <use style="fill:#1f77b4;stroke:#1f77b4;stroke-linejoin:miter;" x="641.594129" xlink:href="#mf66f873097" y="306.495499"/>
     <use style="fill:#1f77b4;stroke:#1f77b4;stroke-linejoin:miter;" x="632.296882" xlink:href="#mf66f873097" y="306.123206"/>
     <use style="fill:#1f77b4;stroke:#1f77b4;stroke-linejoin:miter;" x="618.382416" xlink:href="#mf66f873097" y="324.327258"/>
     <use style="fill:#1f77b4;stroke:#1f77b4;stroke-linejoin:miter;" x="614.193327" xlink:href="#mf66f873097" y="306.308758"/>
     <use style="fill:#1f77b4;stroke:#1f77b4;stroke-linejoin:miter;" x="605.239894" xlink:href="#mf66f873097" y="304.976081"/>
     <use style="fill:#1f77b4;stroke:#1f77b4;stroke-linejoin:miter;" x="596.322559" xlink:href="#mf66f873097" y="304.799264"/>
     <use style="fill:#1f77b4;stroke:#1f77b4;stroke-linejoin:miter;" x="587.414228" xlink:href="#mf66f873097" y="304.744049"/>
     <use style="fill:#1f77b4;stroke:#1f77b4;stroke-linejoin:miter;" x="578.425502" xlink:href="#mf66f873097" y="304.051713"/>
     <use style="fill:#1f77b4;stroke:#1f77b4;stroke-linejoin:miter;" x="569.570688" xlink:href="#mf66f873097" y="303.945118"/>
     <use style="fill:#1f77b4;stroke:#1f77b4;stroke-linejoin:miter;" x="560.405949" xlink:href="#mf66f873097" y="303.64845"/>
     <use style="fill:#1f77b4;stroke:#1f77b4;stroke-linejoin:miter;" x="551.046535" xlink:href="#mf66f873097" y="303.35871"/>
     <use style="fill:#1f77b4;stroke:#1f77b4;stroke-linejoin:miter;" x="541.574413" xlink:href="#mf66f873097" y="303.155179"/>
     <use style="fill:#1f77b4;stroke:#1f77b4;stroke-linejoin:miter;" x="531.571285" xlink:href="#mf66f873097" y="302.891266"/>
     <use style="fill:#1f77b4;stroke:#1f77b4;stroke-linejoin:miter;" x="521.381231" xlink:href="#mf66f873097" y="302.558076"/>
     <use style="fill:#1f77b4;stroke:#1f77b4;stroke-linejoin:miter;" x="510.726594" xlink:href="#mf66f873097" y="302.384468"/>
     <use style="fill:#1f77b4;stroke:#1f77b4;stroke-linejoin:miter;" x="499.123123" xlink:href="#mf66f873097" y="301.378737"/>
     <use style="fill:#1f77b4;stroke:#1f77b4;stroke-linejoin:miter;" x="488.604072" xlink:href="#mf66f873097" y="302.842992"/>
     <use style="fill:#1f77b4;stroke:#1f77b4;stroke-linejoin:miter;" x="476.245767" xlink:href="#mf66f873097" y="302.716952"/>
     <use style="fill:#1f77b4;stroke:#1f77b4;stroke-linejoin:miter;" x="463.463582" xlink:href="#mf66f873097" y="303.098539"/>
     <use style="fill:#1f77b4;stroke:#1f77b4;stroke-linejoin:miter;" x="449.334696" xlink:href="#mf66f873097" y="302.755869"/>
     <use style="fill:#1f77b4;stroke:#1f77b4;stroke-linejoin:miter;" x="433.069579" xlink:href="#mf66f873097" y="301.973613"/>
     <use style="fill:#1f77b4;stroke:#1f77b4;stroke-linejoin:miter;" x="419.135823" xlink:href="#mf66f873097" y="304.021879"/>
     <use style="fill:#1f77b4;stroke:#1f77b4;stroke-linejoin:miter;" x="407.446348" xlink:href="#mf66f873097" y="308.353587"/>
     <use style="fill:#1f77b4;stroke:#1f77b4;stroke-linejoin:miter;" x="390.162042" xlink:href="#mf66f873097" y="309.655106"/>
     <use style="fill:#1f77b4;stroke:#1f77b4;stroke-linejoin:miter;" x="396.10753" xlink:href="#mf66f873097" y="347.055174"/>
     <use style="fill:#1f77b4;stroke:#1f77b4;stroke-linejoin:miter;" x="379.709905" xlink:href="#mf66f873097" y="350.076456"/>
     <use style="fill:#1f77b4;stroke:#1f77b4;stroke-linejoin:miter;" x="373.567687" xlink:href="#mf66f873097" y="357.841591"/>
     <use style="fill:#1f77b4;stroke:#1f77b4;stroke-linejoin:miter;" x="402.450146" xlink:href="#mf66f873097" y="393.041693"/>
     <use style="fill:#1f77b4;stroke:#1f77b4;stroke-linejoin:miter;" x="373.200513" xlink:href="#mf66f873097" y="394.980677"/>
     <use style="fill:#1f77b4;stroke:#1f77b4;stroke-linejoin:miter;" x="370.484728" xlink:href="#mf66f873097" y="403.072862"/>
     <use style="fill:#1f77b4;stroke:#1f77b4;stroke-linejoin:miter;" x="369.246354" xlink:href="#mf66f873097" y="411.507393"/>
     <use style="fill:#1f77b4;stroke:#1f77b4;stroke-linejoin:miter;" x="382.840767" xlink:href="#mf66f873097" y="420.959044"/>
     <use style="fill:#1f77b4;stroke:#1f77b4;stroke-linejoin:miter;" x="368.567586" xlink:href="#mf66f873097" y="428.199286"/>
     <use style="fill:#1f77b4;stroke:#1f77b4;stroke-linejoin:miter;" x="537.290727" xlink:href="#mf66f873097" y="437.172732"/>
     <use style="fill:#1f77b4;stroke:#1f77b4;stroke-linejoin:miter;" x="537.35908" xlink:href="#mf66f873097" y="439.072959"/>
     <use style="fill:#1f77b4;stroke:#1f77b4;stroke-linejoin:miter;" x="537.393027" xlink:href="#mf66f873097" y="441.093316"/>
     <use style="fill:#1f77b4;stroke:#1f77b4;stroke-linejoin:miter;" x="537.417182" xlink:href="#mf66f873097" y="443.104033"/>
     <use style="fill:#1f77b4;stroke:#1f77b4;stroke-linejoin:miter;" x="537.436208" xlink:href="#mf66f873097" y="445.137303"/>
     <use style="fill:#1f77b4;stroke:#1f77b4;stroke-linejoin:miter;" x="537.738516" xlink:href="#mf66f873097" y="447.121947"/>
     <use style="fill:#1f77b4;stroke:#1f77b4;stroke-linejoin:miter;" x="537.43231" xlink:href="#mf66f873097" y="449.323147"/>
     <use style="fill:#1f77b4;stroke:#1f77b4;stroke-linejoin:miter;" x="537.573086" xlink:href="#mf66f873097" y="451.455282"/>
     <use style="fill:#1f77b4;stroke:#1f77b4;stroke-linejoin:miter;" x="395.722759" xlink:href="#mf66f873097" y="524.890352"/>
     <use style="fill:#1f77b4;stroke:#1f77b4;stroke-linejoin:miter;" x="432.138376" xlink:href="#mf66f873097" y="516.945894"/>
     <use style="fill:#1f77b4;stroke:#1f77b4;stroke-linejoin:miter;" x="440.963222" xlink:href="#mf66f873097" y="520.948014"/>
     <use style="fill:#1f77b4;stroke:#1f77b4;stroke-linejoin:miter;" x="446.567218" xlink:href="#mf66f873097" y="526.602756"/>
     <use style="fill:#1f77b4;stroke:#1f77b4;stroke-linejoin:miter;" x="445.695718" xlink:href="#mf66f873097" y="536.706462"/>
     <use style="fill:#1f77b4;stroke:#1f77b4;stroke-linejoin:miter;" x="458.174929" xlink:href="#mf66f873097" y="537.849898"/>
     <use style="fill:#1f77b4;stroke:#1f77b4;stroke-linejoin:miter;" x="494.159249" xlink:href="#mf66f873097" y="518.230236"/>
     <use style="fill:#1f77b4;stroke:#1f77b4;stroke-linejoin:miter;" x="504.549499" xlink:href="#mf66f873097" y="517.332281"/>
     <use style="fill:#1f77b4;stroke:#1f77b4;stroke-linejoin:miter;" x="508.223511" xlink:href="#mf66f873097" y="522.267054"/>
     <use style="fill:#1f77b4;stroke:#1f77b4;stroke-linejoin:miter;" x="503.277538" xlink:href="#mf66f873097" y="537.55301"/>
     <use style="fill:#1f77b4;stroke:#1f77b4;stroke-linejoin:miter;" x="545.106161" xlink:href="#mf66f873097" y="523.816736"/>
     <use style="fill:#1f77b4;stroke:#1f77b4;stroke-linejoin:miter;" x="547.421109" xlink:href="#mf66f873097" y="533.17602"/>
     <use style="fill:#1f77b4;stroke:#1f77b4;stroke-linejoin:miter;" x="562.419202" xlink:href="#mf66f873097" y="530.006419"/>
     <use style="fill:#1f77b4;stroke:#1f77b4;stroke-linejoin:miter;" x="568.158728" xlink:href="#mf66f873097" y="533.087321"/>
     <use style="fill:#1f77b4;stroke:#1f77b4;stroke-linejoin:miter;" x="573.540004" xlink:href="#mf66f873097" y="539.807186"/>
     <use style="fill:#1f77b4;stroke:#1f77b4;stroke-linejoin:miter;" x="580.443762" xlink:href="#mf66f873097" y="540.779071"/>
     <use style="fill:#1f77b4;stroke:#1f77b4;stroke-linejoin:miter;" x="588.109663" xlink:href="#mf66f873097" y="525.71259"/>
     <use style="fill:#1f77b4;stroke:#1f77b4;stroke-linejoin:miter;" x="600.993264" xlink:href="#mf66f873097" y="535.239184"/>
     <use style="fill:#1f77b4;stroke:#1f77b4;stroke-linejoin:miter;" x="608.678672" xlink:href="#mf66f873097" y="539.996887"/>
     <use style="fill:#1f77b4;stroke:#1f77b4;stroke-linejoin:miter;" x="610.971558" xlink:href="#mf66f873097" y="519.154639"/>
     <use style="fill:#1f77b4;stroke:#1f77b4;stroke-linejoin:miter;" x="617.153617" xlink:href="#mf66f873097" y="520.367487"/>
     <use style="fill:#1f77b4;stroke:#1f77b4;stroke-linejoin:miter;" x="622.613741" xlink:href="#mf66f873097" y="518.591957"/>
     <use style="fill:#1f77b4;stroke:#1f77b4;stroke-linejoin:miter;" x="630.13406" xlink:href="#mf66f873097" y="522.00495"/>
     <use style="fill:#1f77b4;stroke:#1f77b4;stroke-linejoin:miter;" x="636.922362" xlink:href="#mf66f873097" y="522.664879"/>
     <use style="fill:#1f77b4;stroke:#1f77b4;stroke-linejoin:miter;" x="643.531996" xlink:href="#mf66f873097" y="522.263122"/>
     <use style="fill:#1f77b4;stroke:#1f77b4;stroke-linejoin:miter;" x="650.923746" xlink:href="#mf66f873097" y="522.439474"/>
     <use style="fill:#1f77b4;stroke:#1f77b4;stroke-linejoin:miter;" x="658.827058" xlink:href="#mf66f873097" y="523.315927"/>
     <use style="fill:#1f77b4;stroke:#1f77b4;stroke-linejoin:miter;" x="667.163894" xlink:href="#mf66f873097" y="523.670626"/>
     <use style="fill:#1f77b4;stroke:#1f77b4;stroke-linejoin:miter;" x="699.007967" xlink:href="#mf66f873097" y="548.095364"/>
     <use style="fill:#1f77b4;stroke:#1f77b4;stroke-linejoin:miter;" x="703.241037" xlink:href="#mf66f873097" y="541.028946"/>
     <use style="fill:#1f77b4;stroke:#1f77b4;stroke-linejoin:miter;" x="708.113097" xlink:href="#mf66f873097" y="534.975076"/>
     <use style="fill:#1f77b4;stroke:#1f77b4;stroke-linejoin:miter;" x="712.983715" xlink:href="#mf66f873097" y="529.3237"/>
     <use style="fill:#1f77b4;stroke:#1f77b4;stroke-linejoin:miter;" x="731.326943" xlink:href="#mf66f873097" y="523.804082"/>
     <use style="fill:#1f77b4;stroke:#1f77b4;stroke-linejoin:miter;" x="742.087588" xlink:href="#mf66f873097" y="521.013217"/>
     <use style="fill:#1f77b4;stroke:#1f77b4;stroke-linejoin:miter;" x="749.141657" xlink:href="#mf66f873097" y="516.059431"/>
     <use style="fill:#1f77b4;stroke:#1f77b4;stroke-linejoin:miter;" x="769.428979" xlink:href="#mf66f873097" y="516.924387"/>
     <use style="fill:#1f77b4;stroke:#1f77b4;stroke-linejoin:miter;" x="790.971185" xlink:href="#mf66f873097" y="516.784264"/>
     <use style="fill:#1f77b4;stroke:#1f77b4;stroke-linejoin:miter;" x="919.467232" xlink:href="#mf66f873097" y="553.77118"/>
     <use style="fill:#1f77b4;stroke:#1f77b4;stroke-linejoin:miter;" x="928.199566" xlink:href="#mf66f873097" y="541.792221"/>
     <use style="fill:#1f77b4;stroke:#1f77b4;stroke-linejoin:miter;" x="932.285925" xlink:href="#mf66f873097" y="500.281786"/>
     <use style="fill:#1f77b4;stroke:#1f77b4;stroke-linejoin:miter;" x="935.763809" xlink:href="#mf66f873097" y="487.510444"/>
    </g>
   </g>
   <g id="patch_3">
    <path d="M 144 768.96 
L 144 103.68 
" style="fill:none;stroke:#000000;stroke-linecap:square;stroke-linejoin:miter;stroke-width:0.8;"/>
   </g>
   <g id="patch_4">
    <path d="M 1036.8 768.96 
L 1036.8 103.68 
" style="fill:none;stroke:#000000;stroke-linecap:square;stroke-linejoin:miter;stroke-width:0.8;"/>
   </g>
   <g id="patch_5">
    <path d="M 144 768.96 
L 1036.8 768.96 
" style="fill:none;stroke:#000000;stroke-linecap:square;stroke-linejoin:miter;stroke-width:0.8;"/>
   </g>
   <g id="patch_6">
    <path d="M 144 103.68 
L 1036.8 103.68 
" style="fill:none;stroke:#000000;stroke-linecap:square;stroke-linejoin:miter;stroke-width:0.8;"/>
   </g>
  </g>
 </g>
 <defs>
  <clipPath id="p0da8a1f945">
   <rect height="665.28" width="892.8" x="144" y="103.68"/>
  </clipPath>
 </defs>
</svg>
