<?xml version="1.0" encoding="utf-8" standalone="no"?>
<!DOCTYPE svg PUBLIC "-//W3C//DTD SVG 1.1//EN"
  "http://www.w3.org/Graphics/SVG/1.1/DTD/svg11.dtd">
<!-- Created with matplotlib (http://matplotlib.org/) -->
<svg height="864pt" version="1.1" viewBox="0 0 1152 864" width="1152pt" xmlns="http://www.w3.org/2000/svg" xmlns:xlink="http://www.w3.org/1999/xlink">
 <defs>
  <style type="text/css">
*{stroke-linecap:butt;stroke-linejoin:round;}
  </style>
 </defs>
 <g id="figure_1">
  <g id="patch_1">
   <path d="M 0 864 
L 1152 864 
L 1152 0 
L 0 0 
z
" style="fill:#ffffff;"/>
  </g>
  <g id="axes_1">
   <g id="patch_2">
    <path d="M 144 768.96 
L 1036.8 768.96 
L 1036.8 103.68 
L 144 103.68 
z
" style="fill:#ffffff;"/>
   </g>
   <g id="matplotlib.axis_1">
    <g id="xtick_1">
     <g id="line2d_1">
      <defs>
       <path d="M 0 0 
L 0 3.5 
" id="m3347fbb383" style="stroke:#000000;stroke-width:0.8;"/>
      </defs>
      <g>
       <use style="stroke:#000000;stroke-width:0.8;" x="207.771429" xlink:href="#m3347fbb383" y="768.96"/>
      </g>
     </g>
     <g id="text_1">
      <!-- −6000 -->
      <defs>
       <path d="M 10.59375 35.5 
L 73.1875 35.5 
L 73.1875 27.203125 
L 10.59375 27.203125 
z
" id="DejaVuSans-2212"/>
       <path d="M 33.015625 40.375 
Q 26.375 40.375 22.484375 35.828125 
Q 18.609375 31.296875 18.609375 23.390625 
Q 18.609375 15.53125 22.484375 10.953125 
Q 26.375 6.390625 33.015625 6.390625 
Q 39.65625 6.390625 43.53125 10.953125 
Q 47.40625 15.53125 47.40625 23.390625 
Q 47.40625 31.296875 43.53125 35.828125 
Q 39.65625 40.375 33.015625 40.375 
z
M 52.59375 71.296875 
L 52.59375 62.3125 
Q 48.875 64.0625 45.09375 64.984375 
Q 41.3125 65.921875 37.59375 65.921875 
Q 27.828125 65.921875 22.671875 59.328125 
Q 17.53125 52.734375 16.796875 39.40625 
Q 19.671875 43.65625 24.015625 45.921875 
Q 28.375 48.1875 33.59375 48.1875 
Q 44.578125 48.1875 50.953125 41.515625 
Q 57.328125 34.859375 57.328125 23.390625 
Q 57.328125 12.15625 50.6875 5.359375 
Q 44.046875 -1.421875 33.015625 -1.421875 
Q 20.359375 -1.421875 13.671875 8.265625 
Q 6.984375 17.96875 6.984375 36.375 
Q 6.984375 53.65625 15.1875 63.9375 
Q 23.390625 74.21875 37.203125 74.21875 
Q 40.921875 74.21875 44.703125 73.484375 
Q 48.484375 72.75 52.59375 71.296875 
z
" id="DejaVuSans-36"/>
       <path d="M 31.78125 66.40625 
Q 24.171875 66.40625 20.328125 58.90625 
Q 16.5 51.421875 16.5 36.375 
Q 16.5 21.390625 20.328125 13.890625 
Q 24.171875 6.390625 31.78125 6.390625 
Q 39.453125 6.390625 43.28125 13.890625 
Q 47.125 21.390625 47.125 36.375 
Q 47.125 51.421875 43.28125 58.90625 
Q 39.453125 66.40625 31.78125 66.40625 
z
M 31.78125 74.21875 
Q 44.046875 74.21875 50.515625 64.515625 
Q 56.984375 54.828125 56.984375 36.375 
Q 56.984375 17.96875 50.515625 8.265625 
Q 44.046875 -1.421875 31.78125 -1.421875 
Q 19.53125 -1.421875 13.0625 8.265625 
Q 6.59375 17.96875 6.59375 36.375 
Q 6.59375 54.828125 13.0625 64.515625 
Q 19.53125 74.21875 31.78125 74.21875 
z
" id="DejaVuSans-30"/>
      </defs>
      <g transform="translate(190.856585 783.558437)scale(0.1 -0.1)">
       <use xlink:href="#DejaVuSans-2212"/>
       <use x="83.789062" xlink:href="#DejaVuSans-36"/>
       <use x="147.412109" xlink:href="#DejaVuSans-30"/>
       <use x="211.035156" xlink:href="#DejaVuSans-30"/>
       <use x="274.658203" xlink:href="#DejaVuSans-30"/>
      </g>
     </g>
    </g>
    <g id="xtick_2">
     <g id="line2d_2">
      <g>
       <use style="stroke:#000000;stroke-width:0.8;" x="335.314286" xlink:href="#m3347fbb383" y="768.96"/>
      </g>
     </g>
     <g id="text_2">
      <!-- −4000 -->
      <defs>
       <path d="M 37.796875 64.3125 
L 12.890625 25.390625 
L 37.796875 25.390625 
z
M 35.203125 72.90625 
L 47.609375 72.90625 
L 47.609375 25.390625 
L 58.015625 25.390625 
L 58.015625 17.1875 
L 47.609375 17.1875 
L 47.609375 0 
L 37.796875 0 
L 37.796875 17.1875 
L 4.890625 17.1875 
L 4.890625 26.703125 
z
" id="DejaVuSans-34"/>
      </defs>
      <g transform="translate(318.399442 783.558437)scale(0.1 -0.1)">
       <use xlink:href="#DejaVuSans-2212"/>
       <use x="83.789062" xlink:href="#DejaVuSans-34"/>
       <use x="147.412109" xlink:href="#DejaVuSans-30"/>
       <use x="211.035156" xlink:href="#DejaVuSans-30"/>
       <use x="274.658203" xlink:href="#DejaVuSans-30"/>
      </g>
     </g>
    </g>
    <g id="xtick_3">
     <g id="line2d_3">
      <g>
       <use style="stroke:#000000;stroke-width:0.8;" x="462.857143" xlink:href="#m3347fbb383" y="768.96"/>
      </g>
     </g>
     <g id="text_3">
      <!-- −2000 -->
      <defs>
       <path d="M 19.1875 8.296875 
L 53.609375 8.296875 
L 53.609375 0 
L 7.328125 0 
L 7.328125 8.296875 
Q 12.9375 14.109375 22.625 23.890625 
Q 32.328125 33.6875 34.8125 36.53125 
Q 39.546875 41.84375 41.421875 45.53125 
Q 43.3125 49.21875 43.3125 52.78125 
Q 43.3125 58.59375 39.234375 62.25 
Q 35.15625 65.921875 28.609375 65.921875 
Q 23.96875 65.921875 18.8125 64.3125 
Q 13.671875 62.703125 7.8125 59.421875 
L 7.8125 69.390625 
Q 13.765625 71.78125 18.9375 73 
Q 24.125 74.21875 28.421875 74.21875 
Q 39.75 74.21875 46.484375 68.546875 
Q 53.21875 62.890625 53.21875 53.421875 
Q 53.21875 48.921875 51.53125 44.890625 
Q 49.859375 40.875 45.40625 35.40625 
Q 44.1875 33.984375 37.640625 27.21875 
Q 31.109375 20.453125 19.1875 8.296875 
z
" id="DejaVuSans-32"/>
      </defs>
      <g transform="translate(445.942299 783.558437)scale(0.1 -0.1)">
       <use xlink:href="#DejaVuSans-2212"/>
       <use x="83.789062" xlink:href="#DejaVuSans-32"/>
       <use x="147.412109" xlink:href="#DejaVuSans-30"/>
       <use x="211.035156" xlink:href="#DejaVuSans-30"/>
       <use x="274.658203" xlink:href="#DejaVuSans-30"/>
      </g>
     </g>
    </g>
    <g id="xtick_4">
     <g id="line2d_4">
      <g>
       <use style="stroke:#000000;stroke-width:0.8;" x="590.4" xlink:href="#m3347fbb383" y="768.96"/>
      </g>
     </g>
     <g id="text_4">
      <!-- 0 -->
      <g transform="translate(587.21875 783.558437)scale(0.1 -0.1)">
       <use xlink:href="#DejaVuSans-30"/>
      </g>
     </g>
    </g>
    <g id="xtick_5">
     <g id="line2d_5">
      <g>
       <use style="stroke:#000000;stroke-width:0.8;" x="717.942857" xlink:href="#m3347fbb383" y="768.96"/>
      </g>
     </g>
     <g id="text_5">
      <!-- 2000 -->
      <g transform="translate(705.217857 783.558437)scale(0.1 -0.1)">
       <use xlink:href="#DejaVuSans-32"/>
       <use x="63.623047" xlink:href="#DejaVuSans-30"/>
       <use x="127.246094" xlink:href="#DejaVuSans-30"/>
       <use x="190.869141" xlink:href="#DejaVuSans-30"/>
      </g>
     </g>
    </g>
    <g id="xtick_6">
     <g id="line2d_6">
      <g>
       <use style="stroke:#000000;stroke-width:0.8;" x="845.485714" xlink:href="#m3347fbb383" y="768.96"/>
      </g>
     </g>
     <g id="text_6">
      <!-- 4000 -->
      <g transform="translate(832.760714 783.558437)scale(0.1 -0.1)">
       <use xlink:href="#DejaVuSans-34"/>
       <use x="63.623047" xlink:href="#DejaVuSans-30"/>
       <use x="127.246094" xlink:href="#DejaVuSans-30"/>
       <use x="190.869141" xlink:href="#DejaVuSans-30"/>
      </g>
     </g>
    </g>
    <g id="xtick_7">
     <g id="line2d_7">
      <g>
       <use style="stroke:#000000;stroke-width:0.8;" x="973.028571" xlink:href="#m3347fbb383" y="768.96"/>
      </g>
     </g>
     <g id="text_7">
      <!-- 6000 -->
      <g transform="translate(960.303571 783.558437)scale(0.1 -0.1)">
       <use xlink:href="#DejaVuSans-36"/>
       <use x="63.623047" xlink:href="#DejaVuSans-30"/>
       <use x="127.246094" xlink:href="#DejaVuSans-30"/>
       <use x="190.869141" xlink:href="#DejaVuSans-30"/>
      </g>
     </g>
    </g>
   </g>
   <g id="matplotlib.axis_2">
    <g id="ytick_1">
     <g id="line2d_8">
      <defs>
       <path d="M 0 0 
L -3.5 0 
" id="m7a8dfa8d81" style="stroke:#000000;stroke-width:0.8;"/>
      </defs>
      <g>
       <use style="stroke:#000000;stroke-width:0.8;" x="144" xlink:href="#m7a8dfa8d81" y="721.44"/>
      </g>
     </g>
     <g id="text_8">
      <!-- −6000 -->
      <g transform="translate(103.170312 725.239219)scale(0.1 -0.1)">
       <use xlink:href="#DejaVuSans-2212"/>
       <use x="83.789062" xlink:href="#DejaVuSans-36"/>
       <use x="147.412109" xlink:href="#DejaVuSans-30"/>
       <use x="211.035156" xlink:href="#DejaVuSans-30"/>
       <use x="274.658203" xlink:href="#DejaVuSans-30"/>
      </g>
     </g>
    </g>
    <g id="ytick_2">
     <g id="line2d_9">
      <g>
       <use style="stroke:#000000;stroke-width:0.8;" x="144" xlink:href="#m7a8dfa8d81" y="626.4"/>
      </g>
     </g>
     <g id="text_9">
      <!-- −4000 -->
      <g transform="translate(103.170312 630.199219)scale(0.1 -0.1)">
       <use xlink:href="#DejaVuSans-2212"/>
       <use x="83.789062" xlink:href="#DejaVuSans-34"/>
       <use x="147.412109" xlink:href="#DejaVuSans-30"/>
       <use x="211.035156" xlink:href="#DejaVuSans-30"/>
       <use x="274.658203" xlink:href="#DejaVuSans-30"/>
      </g>
     </g>
    </g>
    <g id="ytick_3">
     <g id="line2d_10">
      <g>
       <use style="stroke:#000000;stroke-width:0.8;" x="144" xlink:href="#m7a8dfa8d81" y="531.36"/>
      </g>
     </g>
     <g id="text_10">
      <!-- −2000 -->
      <g transform="translate(103.170312 535.159219)scale(0.1 -0.1)">
       <use xlink:href="#DejaVuSans-2212"/>
       <use x="83.789062" xlink:href="#DejaVuSans-32"/>
       <use x="147.412109" xlink:href="#DejaVuSans-30"/>
       <use x="211.035156" xlink:href="#DejaVuSans-30"/>
       <use x="274.658203" xlink:href="#DejaVuSans-30"/>
      </g>
     </g>
    </g>
    <g id="ytick_4">
     <g id="line2d_11">
      <g>
       <use style="stroke:#000000;stroke-width:0.8;" x="144" xlink:href="#m7a8dfa8d81" y="436.32"/>
      </g>
     </g>
     <g id="text_11">
      <!-- 0 -->
      <g transform="translate(130.6375 440.119219)scale(0.1 -0.1)">
       <use xlink:href="#DejaVuSans-30"/>
      </g>
     </g>
    </g>
    <g id="ytick_5">
     <g id="line2d_12">
      <g>
       <use style="stroke:#000000;stroke-width:0.8;" x="144" xlink:href="#m7a8dfa8d81" y="341.28"/>
      </g>
     </g>
     <g id="text_12">
      <!-- 2000 -->
      <g transform="translate(111.55 345.079219)scale(0.1 -0.1)">
       <use xlink:href="#DejaVuSans-32"/>
       <use x="63.623047" xlink:href="#DejaVuSans-30"/>
       <use x="127.246094" xlink:href="#DejaVuSans-30"/>
       <use x="190.869141" xlink:href="#DejaVuSans-30"/>
      </g>
     </g>
    </g>
    <g id="ytick_6">
     <g id="line2d_13">
      <g>
       <use style="stroke:#000000;stroke-width:0.8;" x="144" xlink:href="#m7a8dfa8d81" y="246.24"/>
      </g>
     </g>
     <g id="text_13">
      <!-- 4000 -->
      <g transform="translate(111.55 250.039219)scale(0.1 -0.1)">
       <use xlink:href="#DejaVuSans-34"/>
       <use x="63.623047" xlink:href="#DejaVuSans-30"/>
       <use x="127.246094" xlink:href="#DejaVuSans-30"/>
       <use x="190.869141" xlink:href="#DejaVuSans-30"/>
      </g>
     </g>
    </g>
    <g id="ytick_7">
     <g id="line2d_14">
      <g>
       <use style="stroke:#000000;stroke-width:0.8;" x="144" xlink:href="#m7a8dfa8d81" y="151.2"/>
      </g>
     </g>
     <g id="text_14">
      <!-- 6000 -->
      <g transform="translate(111.55 154.999219)scale(0.1 -0.1)">
       <use xlink:href="#DejaVuSans-36"/>
       <use x="63.623047" xlink:href="#DejaVuSans-30"/>
       <use x="127.246094" xlink:href="#DejaVuSans-30"/>
       <use x="190.869141" xlink:href="#DejaVuSans-30"/>
      </g>
     </g>
    </g>
   </g>
   <g id="line2d_15">
    <path clip-path="url(#p8059d113eb)" d="M 590.4 768.96 
L 590.4 103.68 
" style="fill:none;stroke:#1f77b4;stroke-linecap:square;stroke-width:1.5;"/>
   </g>
   <g id="line2d_16">
    <path clip-path="url(#p8059d113eb)" d="M 144 436.32 
L 1036.8 436.32 
" style="fill:none;stroke:#1f77b4;stroke-linecap:square;stroke-width:1.5;"/>
   </g>
   <g id="line2d_17">
    <defs>
     <path d="M 0 1.333333 
C 0.353604 1.333333 0.692773 1.192845 0.942809 0.942809 
C 1.192845 0.692773 1.333333 0.353604 1.333333 0 
C 1.333333 -0.353604 1.192845 -0.692773 0.942809 -0.942809 
C 0.692773 -1.192845 0.353604 -1.333333 0 -1.333333 
C -0.353604 -1.333333 -0.692773 -1.192845 -0.942809 -0.942809 
C -1.192845 -0.692773 -1.333333 -0.353604 -1.333333 0 
C -1.333333 0.353604 -1.192845 0.692773 -0.942809 0.942809 
C -0.692773 1.192845 -0.353604 1.333333 0 1.333333 
z
" id="m722a6019ff" style="stroke:#ff0000;"/>
    </defs>
    <g clip-path="url(#p8059d113eb)">
     <use style="fill:#ff0000;stroke:#ff0000;" x="897.190855" xlink:href="#m722a6019ff" y="453.433939"/>
     <use style="fill:#ff0000;stroke:#ff0000;" x="691.793615" xlink:href="#m722a6019ff" y="436.896932"/>
     <use style="fill:#ff0000;stroke:#ff0000;" x="692.499359" xlink:href="#m722a6019ff" y="410.053744"/>
     <use style="fill:#ff0000;stroke:#ff0000;" x="939.217574" xlink:href="#m722a6019ff" y="315.201103"/>
     <use style="fill:#ff0000;stroke:#ff0000;" x="892.311803" xlink:href="#m722a6019ff" y="315.279477"/>
     <use style="fill:#ff0000;stroke:#ff0000;" x="829.859673" xlink:href="#m722a6019ff" y="312.101521"/>
     <use style="fill:#ff0000;stroke:#ff0000;" x="806.000308" xlink:href="#m722a6019ff" y="310.306363"/>
     <use style="fill:#ff0000;stroke:#ff0000;" x="781.590808" xlink:href="#m722a6019ff" y="310.758996"/>
     <use style="fill:#ff0000;stroke:#ff0000;" x="762.188494" xlink:href="#m722a6019ff" y="309.767724"/>
     <use style="fill:#ff0000;stroke:#ff0000;" x="686.514945" xlink:href="#m722a6019ff" y="307.278085"/>
     <use style="fill:#ff0000;stroke:#ff0000;" x="629.963234" xlink:href="#m722a6019ff" y="305.535789"/>
     <use style="fill:#ff0000;stroke:#ff0000;" x="614.894403" xlink:href="#m722a6019ff" y="325.391151"/>
     <use style="fill:#ff0000;stroke:#ff0000;" x="608.99323" xlink:href="#m722a6019ff" y="305.528311"/>
     <use style="fill:#ff0000;stroke:#ff0000;" x="473.603591" xlink:href="#m722a6019ff" y="302.302221"/>
     <use style="fill:#ff0000;stroke:#ff0000;" x="458.934754" xlink:href="#m722a6019ff" y="302.868281"/>
     <use style="fill:#ff0000;stroke:#ff0000;" x="441.918486" xlink:href="#m722a6019ff" y="302.174252"/>
     <use style="fill:#ff0000;stroke:#ff0000;" x="423.533439" xlink:href="#m722a6019ff" y="302.101061"/>
     <use style="fill:#ff0000;stroke:#ff0000;" x="409.239199" xlink:href="#m722a6019ff" y="306.242074"/>
     <use style="fill:#ff0000;stroke:#ff0000;" x="388.476874" xlink:href="#m722a6019ff" y="307.027876"/>
     <use style="fill:#ff0000;stroke:#ff0000;" x="392.922683" xlink:href="#m722a6019ff" y="348.447172"/>
     <use style="fill:#ff0000;stroke:#ff0000;" x="374.940433" xlink:href="#m722a6019ff" y="352.407674"/>
     <use style="fill:#ff0000;stroke:#ff0000;" x="372.022056" xlink:href="#m722a6019ff" y="362.963537"/>
     <use style="fill:#ff0000;stroke:#ff0000;" x="409.995538" xlink:href="#m722a6019ff" y="393.651947"/>
     <use style="fill:#ff0000;stroke:#ff0000;" x="371.685769" xlink:href="#m722a6019ff" y="394.40819"/>
     <use style="fill:#ff0000;stroke:#ff0000;" x="367.773978" xlink:href="#m722a6019ff" y="422.990836"/>
     <use style="fill:#ff0000;stroke:#ff0000;" x="537.135041" xlink:href="#m722a6019ff" y="436.233408"/>
     <use style="fill:#ff0000;stroke:#ff0000;" x="537.550828" xlink:href="#m722a6019ff" y="452.506529"/>
     <use style="fill:#ff0000;stroke:#ff0000;" x="396.301453" xlink:href="#m722a6019ff" y="523.332711"/>
     <use style="fill:#ff0000;stroke:#ff0000;" x="432.391585" xlink:href="#m722a6019ff" y="516.864024"/>
     <use style="fill:#ff0000;stroke:#ff0000;" x="450.455004" xlink:href="#m722a6019ff" y="537.574605"/>
     <use style="fill:#ff0000;stroke:#ff0000;" x="501.77255" xlink:href="#m722a6019ff" y="517.286163"/>
     <use style="fill:#ff0000;stroke:#ff0000;" x="508.362521" xlink:href="#m722a6019ff" y="520.556393"/>
     <use style="fill:#ff0000;stroke:#ff0000;" x="503.75426" xlink:href="#m722a6019ff" y="536.637476"/>
     <use style="fill:#ff0000;stroke:#ff0000;" x="520.512787" xlink:href="#m722a6019ff" y="528.542182"/>
     <use style="fill:#ff0000;stroke:#ff0000;" x="541.528411" xlink:href="#m722a6019ff" y="522.702443"/>
     <use style="fill:#ff0000;stroke:#ff0000;" x="581.816572" xlink:href="#m722a6019ff" y="540.894303"/>
     <use style="fill:#ff0000;stroke:#ff0000;" x="590.10508" xlink:href="#m722a6019ff" y="525.85929"/>
     <use style="fill:#ff0000;stroke:#ff0000;" x="597.629665" xlink:href="#m722a6019ff" y="537.013429"/>
     <use style="fill:#ff0000;stroke:#ff0000;" x="605.235162" xlink:href="#m722a6019ff" y="535.01966"/>
     <use style="fill:#ff0000;stroke:#ff0000;" x="609.763744" xlink:href="#m722a6019ff" y="519.882825"/>
     <use style="fill:#ff0000;stroke:#ff0000;" x="630.925026" xlink:href="#m722a6019ff" y="521.52177"/>
     <use style="fill:#ff0000;stroke:#ff0000;" x="607.532651" xlink:href="#m722a6019ff" y="464.785058"/>
     <use style="fill:#ff0000;stroke:#ff0000;" x="609.86514" xlink:href="#m722a6019ff" y="464.127641"/>
     <use style="fill:#ff0000;stroke:#ff0000;" x="697.277978" xlink:href="#m722a6019ff" y="548.231049"/>
     <use style="fill:#ff0000;stroke:#ff0000;" x="739.212079" xlink:href="#m722a6019ff" y="523.934144"/>
     <use style="fill:#ff0000;stroke:#ff0000;" x="742.885821" xlink:href="#m722a6019ff" y="515.651477"/>
     <use style="fill:#ff0000;stroke:#ff0000;" x="764.476925" xlink:href="#m722a6019ff" y="516.492508"/>
     <use style="fill:#ff0000;stroke:#ff0000;" x="789.917579" xlink:href="#m722a6019ff" y="516.937769"/>
     <use style="fill:#ff0000;stroke:#ff0000;" x="921.464238" xlink:href="#m722a6019ff" y="553.410531"/>
     <use style="fill:#ff0000;stroke:#ff0000;" x="928.984904" xlink:href="#m722a6019ff" y="538.816647"/>
    </g>
   </g>
   <g id="line2d_18">
    <defs>
     <path d="M -0.5 0.5 
L 0.5 0.5 
L 0.5 -0.5 
L -0.5 -0.5 
z
" id="m550f1ba620" style="stroke:#1f77b4;stroke-linejoin:miter;"/>
    </defs>
    <g clip-path="url(#p8059d113eb)">
     <use style="fill:#1f77b4;stroke:#1f77b4;stroke-linejoin:miter;" x="897.190855" xlink:href="#m550f1ba620" y="453.433939"/>
     <use style="fill:#1f77b4;stroke:#1f77b4;stroke-linejoin:miter;" x="691.793615" xlink:href="#m550f1ba620" y="436.896932"/>
     <use style="fill:#1f77b4;stroke:#1f77b4;stroke-linejoin:miter;" x="688.022628" xlink:href="#m550f1ba620" y="432.666739"/>
     <use style="fill:#1f77b4;stroke:#1f77b4;stroke-linejoin:miter;" x="684.348385" xlink:href="#m550f1ba620" y="428.768921"/>
     <use style="fill:#1f77b4;stroke:#1f77b4;stroke-linejoin:miter;" x="684.586479" xlink:href="#m550f1ba620" y="424.712893"/>
     <use style="fill:#1f77b4;stroke:#1f77b4;stroke-linejoin:miter;" x="684.924858" xlink:href="#m550f1ba620" y="420.482829"/>
     <use style="fill:#1f77b4;stroke:#1f77b4;stroke-linejoin:miter;" x="688.067193" xlink:href="#m550f1ba620" y="415.665921"/>
     <use style="fill:#1f77b4;stroke:#1f77b4;stroke-linejoin:miter;" x="692.499359" xlink:href="#m550f1ba620" y="410.053744"/>
     <use style="fill:#1f77b4;stroke:#1f77b4;stroke-linejoin:miter;" x="939.217574" xlink:href="#m550f1ba620" y="315.201103"/>
     <use style="fill:#1f77b4;stroke:#1f77b4;stroke-linejoin:miter;" x="892.311803" xlink:href="#m550f1ba620" y="315.279477"/>
     <use style="fill:#1f77b4;stroke:#1f77b4;stroke-linejoin:miter;" x="829.859673" xlink:href="#m550f1ba620" y="312.101521"/>
     <use style="fill:#1f77b4;stroke:#1f77b4;stroke-linejoin:miter;" x="806.000308" xlink:href="#m550f1ba620" y="310.306363"/>
     <use style="fill:#1f77b4;stroke:#1f77b4;stroke-linejoin:miter;" x="781.590808" xlink:href="#m550f1ba620" y="310.758996"/>
     <use style="fill:#1f77b4;stroke:#1f77b4;stroke-linejoin:miter;" x="762.188494" xlink:href="#m550f1ba620" y="309.767724"/>
     <use style="fill:#1f77b4;stroke:#1f77b4;stroke-linejoin:miter;" x="686.514945" xlink:href="#m550f1ba620" y="307.278085"/>
     <use style="fill:#1f77b4;stroke:#1f77b4;stroke-linejoin:miter;" x="673.806489" xlink:href="#m550f1ba620" y="307.467047"/>
     <use style="fill:#1f77b4;stroke:#1f77b4;stroke-linejoin:miter;" x="662.431834" xlink:href="#m550f1ba620" y="306.536112"/>
     <use style="fill:#1f77b4;stroke:#1f77b4;stroke-linejoin:miter;" x="650.547337" xlink:href="#m550f1ba620" y="307.751509"/>
     <use style="fill:#1f77b4;stroke:#1f77b4;stroke-linejoin:miter;" x="640.30052" xlink:href="#m550f1ba620" y="306.376761"/>
     <use style="fill:#1f77b4;stroke:#1f77b4;stroke-linejoin:miter;" x="629.963234" xlink:href="#m550f1ba620" y="305.535789"/>
     <use style="fill:#1f77b4;stroke:#1f77b4;stroke-linejoin:miter;" x="614.894403" xlink:href="#m550f1ba620" y="325.391151"/>
     <use style="fill:#1f77b4;stroke:#1f77b4;stroke-linejoin:miter;" x="608.99323" xlink:href="#m550f1ba620" y="305.528311"/>
     <use style="fill:#1f77b4;stroke:#1f77b4;stroke-linejoin:miter;" x="599.026972" xlink:href="#m550f1ba620" y="305.46517"/>
     <use style="fill:#1f77b4;stroke:#1f77b4;stroke-linejoin:miter;" x="588.946349" xlink:href="#m550f1ba620" y="303.921831"/>
     <use style="fill:#1f77b4;stroke:#1f77b4;stroke-linejoin:miter;" x="578.785223" xlink:href="#m550f1ba620" y="304.272012"/>
     <use style="fill:#1f77b4;stroke:#1f77b4;stroke-linejoin:miter;" x="568.631238" xlink:href="#m550f1ba620" y="304.208613"/>
     <use style="fill:#1f77b4;stroke:#1f77b4;stroke-linejoin:miter;" x="558.265951" xlink:href="#m550f1ba620" y="304.108062"/>
     <use style="fill:#1f77b4;stroke:#1f77b4;stroke-linejoin:miter;" x="547.543392" xlink:href="#m550f1ba620" y="303.460422"/>
     <use style="fill:#1f77b4;stroke:#1f77b4;stroke-linejoin:miter;" x="536.401416" xlink:href="#m550f1ba620" y="303.151465"/>
     <use style="fill:#1f77b4;stroke:#1f77b4;stroke-linejoin:miter;" x="525.249983" xlink:href="#m550f1ba620" y="302.824208"/>
     <use style="fill:#1f77b4;stroke:#1f77b4;stroke-linejoin:miter;" x="513.19462" xlink:href="#m550f1ba620" y="302.514847"/>
     <use style="fill:#1f77b4;stroke:#1f77b4;stroke-linejoin:miter;" x="500.277472" xlink:href="#m550f1ba620" y="301.718201"/>
     <use style="fill:#1f77b4;stroke:#1f77b4;stroke-linejoin:miter;" x="487.98009" xlink:href="#m550f1ba620" y="302.957718"/>
     <use style="fill:#1f77b4;stroke:#1f77b4;stroke-linejoin:miter;" x="473.603591" xlink:href="#m550f1ba620" y="302.302221"/>
     <use style="fill:#1f77b4;stroke:#1f77b4;stroke-linejoin:miter;" x="458.934754" xlink:href="#m550f1ba620" y="302.868281"/>
     <use style="fill:#1f77b4;stroke:#1f77b4;stroke-linejoin:miter;" x="441.918486" xlink:href="#m550f1ba620" y="302.174252"/>
     <use style="fill:#1f77b4;stroke:#1f77b4;stroke-linejoin:miter;" x="423.533439" xlink:href="#m550f1ba620" y="302.101061"/>
     <use style="fill:#1f77b4;stroke:#1f77b4;stroke-linejoin:miter;" x="409.239199" xlink:href="#m550f1ba620" y="306.242074"/>
     <use style="fill:#1f77b4;stroke:#1f77b4;stroke-linejoin:miter;" x="388.476874" xlink:href="#m550f1ba620" y="307.027876"/>
     <use style="fill:#1f77b4;stroke:#1f77b4;stroke-linejoin:miter;" x="392.922683" xlink:href="#m550f1ba620" y="348.447172"/>
     <use style="fill:#1f77b4;stroke:#1f77b4;stroke-linejoin:miter;" x="374.940433" xlink:href="#m550f1ba620" y="352.407674"/>
     <use style="fill:#1f77b4;stroke:#1f77b4;stroke-linejoin:miter;" x="372.022056" xlink:href="#m550f1ba620" y="362.963537"/>
     <use style="fill:#1f77b4;stroke:#1f77b4;stroke-linejoin:miter;" x="409.995538" xlink:href="#m550f1ba620" y="393.651947"/>
     <use style="fill:#1f77b4;stroke:#1f77b4;stroke-linejoin:miter;" x="371.685769" xlink:href="#m550f1ba620" y="394.40819"/>
     <use style="fill:#1f77b4;stroke:#1f77b4;stroke-linejoin:miter;" x="370.596441" xlink:href="#m550f1ba620" y="404.111632"/>
     <use style="fill:#1f77b4;stroke:#1f77b4;stroke-linejoin:miter;" x="368.783771" xlink:href="#m550f1ba620" y="413.478393"/>
     <use style="fill:#1f77b4;stroke:#1f77b4;stroke-linejoin:miter;" x="367.773978" xlink:href="#m550f1ba620" y="422.990836"/>
     <use style="fill:#1f77b4;stroke:#1f77b4;stroke-linejoin:miter;" x="537.135041" xlink:href="#m550f1ba620" y="436.233408"/>
     <use style="fill:#1f77b4;stroke:#1f77b4;stroke-linejoin:miter;" x="537.302681" xlink:href="#m550f1ba620" y="438.38275"/>
     <use style="fill:#1f77b4;stroke:#1f77b4;stroke-linejoin:miter;" x="537.364386" xlink:href="#m550f1ba620" y="440.702695"/>
     <use style="fill:#1f77b4;stroke:#1f77b4;stroke-linejoin:miter;" x="537.486871" xlink:href="#m550f1ba620" y="442.984461"/>
     <use style="fill:#1f77b4;stroke:#1f77b4;stroke-linejoin:miter;" x="537.435133" xlink:href="#m550f1ba620" y="445.295822"/>
     <use style="fill:#1f77b4;stroke:#1f77b4;stroke-linejoin:miter;" x="537.770106" xlink:href="#m550f1ba620" y="447.600243"/>
     <use style="fill:#1f77b4;stroke:#1f77b4;stroke-linejoin:miter;" x="537.499035" xlink:href="#m550f1ba620" y="450.025717"/>
     <use style="fill:#1f77b4;stroke:#1f77b4;stroke-linejoin:miter;" x="537.550828" xlink:href="#m550f1ba620" y="452.506529"/>
     <use style="fill:#1f77b4;stroke:#1f77b4;stroke-linejoin:miter;" x="396.301453" xlink:href="#m550f1ba620" y="523.332711"/>
     <use style="fill:#1f77b4;stroke:#1f77b4;stroke-linejoin:miter;" x="432.391585" xlink:href="#m550f1ba620" y="516.864024"/>
     <use style="fill:#1f77b4;stroke:#1f77b4;stroke-linejoin:miter;" x="437.012808" xlink:href="#m550f1ba620" y="524.470637"/>
     <use style="fill:#1f77b4;stroke:#1f77b4;stroke-linejoin:miter;" x="446.583643" xlink:href="#m550f1ba620" y="529.068617"/>
     <use style="fill:#1f77b4;stroke:#1f77b4;stroke-linejoin:miter;" x="450.455004" xlink:href="#m550f1ba620" y="537.574605"/>
     <use style="fill:#1f77b4;stroke:#1f77b4;stroke-linejoin:miter;" x="501.77255" xlink:href="#m550f1ba620" y="517.286163"/>
     <use style="fill:#1f77b4;stroke:#1f77b4;stroke-linejoin:miter;" x="508.362521" xlink:href="#m550f1ba620" y="520.556393"/>
     <use style="fill:#1f77b4;stroke:#1f77b4;stroke-linejoin:miter;" x="503.75426" xlink:href="#m550f1ba620" y="536.637476"/>
     <use style="fill:#1f77b4;stroke:#1f77b4;stroke-linejoin:miter;" x="520.512787" xlink:href="#m550f1ba620" y="528.542182"/>
     <use style="fill:#1f77b4;stroke:#1f77b4;stroke-linejoin:miter;" x="541.528411" xlink:href="#m550f1ba620" y="522.702443"/>
     <use style="fill:#1f77b4;stroke:#1f77b4;stroke-linejoin:miter;" x="548.184261" xlink:href="#m550f1ba620" y="524.541192"/>
     <use style="fill:#1f77b4;stroke:#1f77b4;stroke-linejoin:miter;" x="553.36009" xlink:href="#m550f1ba620" y="529.967139"/>
     <use style="fill:#1f77b4;stroke:#1f77b4;stroke-linejoin:miter;" x="560.836882" xlink:href="#m550f1ba620" y="530.566007"/>
     <use style="fill:#1f77b4;stroke:#1f77b4;stroke-linejoin:miter;" x="567.720462" xlink:href="#m550f1ba620" y="532.934338"/>
     <use style="fill:#1f77b4;stroke:#1f77b4;stroke-linejoin:miter;" x="573.982101" xlink:href="#m550f1ba620" y="540.169632"/>
     <use style="fill:#1f77b4;stroke:#1f77b4;stroke-linejoin:miter;" x="581.816572" xlink:href="#m550f1ba620" y="540.894303"/>
     <use style="fill:#1f77b4;stroke:#1f77b4;stroke-linejoin:miter;" x="590.10508" xlink:href="#m550f1ba620" y="525.85929"/>
     <use style="fill:#1f77b4;stroke:#1f77b4;stroke-linejoin:miter;" x="597.629665" xlink:href="#m550f1ba620" y="537.013429"/>
     <use style="fill:#1f77b4;stroke:#1f77b4;stroke-linejoin:miter;" x="605.235162" xlink:href="#m550f1ba620" y="535.01966"/>
     <use style="fill:#1f77b4;stroke:#1f77b4;stroke-linejoin:miter;" x="609.763744" xlink:href="#m550f1ba620" y="519.882825"/>
     <use style="fill:#1f77b4;stroke:#1f77b4;stroke-linejoin:miter;" x="616.384743" xlink:href="#m550f1ba620" y="520.294079"/>
     <use style="fill:#1f77b4;stroke:#1f77b4;stroke-linejoin:miter;" x="622.734159" xlink:href="#m550f1ba620" y="518.565723"/>
     <use style="fill:#1f77b4;stroke:#1f77b4;stroke-linejoin:miter;" x="630.925026" xlink:href="#m550f1ba620" y="521.52177"/>
     <use style="fill:#1f77b4;stroke:#1f77b4;stroke-linejoin:miter;" x="607.532651" xlink:href="#m550f1ba620" y="464.785058"/>
     <use style="fill:#1f77b4;stroke:#1f77b4;stroke-linejoin:miter;" x="609.86514" xlink:href="#m550f1ba620" y="464.127641"/>
     <use style="fill:#1f77b4;stroke:#1f77b4;stroke-linejoin:miter;" x="697.277978" xlink:href="#m550f1ba620" y="548.231049"/>
     <use style="fill:#1f77b4;stroke:#1f77b4;stroke-linejoin:miter;" x="702.997968" xlink:href="#m550f1ba620" y="541.037166"/>
     <use style="fill:#1f77b4;stroke:#1f77b4;stroke-linejoin:miter;" x="708.96927" xlink:href="#m550f1ba620" y="534.500034"/>
     <use style="fill:#1f77b4;stroke:#1f77b4;stroke-linejoin:miter;" x="714.607276" xlink:href="#m550f1ba620" y="528.17041"/>
     <use style="fill:#1f77b4;stroke:#1f77b4;stroke-linejoin:miter;" x="721.908795" xlink:href="#m550f1ba620" y="523.114216"/>
     <use style="fill:#1f77b4;stroke:#1f77b4;stroke-linejoin:miter;" x="739.212079" xlink:href="#m550f1ba620" y="523.934144"/>
     <use style="fill:#1f77b4;stroke:#1f77b4;stroke-linejoin:miter;" x="742.885821" xlink:href="#m550f1ba620" y="515.651477"/>
     <use style="fill:#1f77b4;stroke:#1f77b4;stroke-linejoin:miter;" x="764.476925" xlink:href="#m550f1ba620" y="516.492508"/>
     <use style="fill:#1f77b4;stroke:#1f77b4;stroke-linejoin:miter;" x="789.917579" xlink:href="#m550f1ba620" y="516.937769"/>
     <use style="fill:#1f77b4;stroke:#1f77b4;stroke-linejoin:miter;" x="921.464238" xlink:href="#m550f1ba620" y="553.410531"/>
     <use style="fill:#1f77b4;stroke:#1f77b4;stroke-linejoin:miter;" x="928.984904" xlink:href="#m550f1ba620" y="538.816647"/>
    </g>
   </g>
   <g id="patch_3">
    <path d="M 144 768.96 
L 144 103.68 
" style="fill:none;stroke:#000000;stroke-linecap:square;stroke-linejoin:miter;stroke-width:0.8;"/>
   </g>
   <g id="patch_4">
    <path d="M 1036.8 768.96 
L 1036.8 103.68 
" style="fill:none;stroke:#000000;stroke-linecap:square;stroke-linejoin:miter;stroke-width:0.8;"/>
   </g>
   <g id="patch_5">
    <path d="M 144 768.96 
L 1036.8 768.96 
" style="fill:none;stroke:#000000;stroke-linecap:square;stroke-linejoin:miter;stroke-width:0.8;"/>
   </g>
   <g id="patch_6">
    <path d="M 144 103.68 
L 1036.8 103.68 
" style="fill:none;stroke:#000000;stroke-linecap:square;stroke-linejoin:miter;stroke-width:0.8;"/>
   </g>
  </g>
 </g>
 <defs>
  <clipPath id="p8059d113eb">
   <rect height="665.28" width="892.8" x="144" y="103.68"/>
  </clipPath>
 </defs>
</svg>
