<?xml version="1.0" encoding="utf-8" standalone="no"?>
<!DOCTYPE svg PUBLIC "-//W3C//DTD SVG 1.1//EN"
  "http://www.w3.org/Graphics/SVG/1.1/DTD/svg11.dtd">
<!-- Created with matplotlib (http://matplotlib.org/) -->
<svg height="864pt" version="1.1" viewBox="0 0 1152 864" width="1152pt" xmlns="http://www.w3.org/2000/svg" xmlns:xlink="http://www.w3.org/1999/xlink">
 <defs>
  <style type="text/css">
*{stroke-linecap:butt;stroke-linejoin:round;}
  </style>
 </defs>
 <g id="figure_1">
  <g id="patch_1">
   <path d="M 0 864 
L 1152 864 
L 1152 0 
L 0 0 
z
" style="fill:#ffffff;"/>
  </g>
  <g id="axes_1">
   <g id="patch_2">
    <path d="M 144 768.96 
L 1036.8 768.96 
L 1036.8 103.68 
L 144 103.68 
z
" style="fill:#ffffff;"/>
   </g>
   <g id="matplotlib.axis_1">
    <g id="xtick_1">
     <g id="line2d_1">
      <defs>
       <path d="M 0 0 
L 0 3.5 
" id="m5af78d2ec6" style="stroke:#000000;stroke-width:0.8;"/>
      </defs>
      <g>
       <use style="stroke:#000000;stroke-width:0.8;" x="207.771429" xlink:href="#m5af78d2ec6" y="768.96"/>
      </g>
     </g>
     <g id="text_1">
      <!-- −6000 -->
      <defs>
       <path d="M 10.59375 35.5 
L 73.1875 35.5 
L 73.1875 27.203125 
L 10.59375 27.203125 
z
" id="DejaVuSans-2212"/>
       <path d="M 33.015625 40.375 
Q 26.375 40.375 22.484375 35.828125 
Q 18.609375 31.296875 18.609375 23.390625 
Q 18.609375 15.53125 22.484375 10.953125 
Q 26.375 6.390625 33.015625 6.390625 
Q 39.65625 6.390625 43.53125 10.953125 
Q 47.40625 15.53125 47.40625 23.390625 
Q 47.40625 31.296875 43.53125 35.828125 
Q 39.65625 40.375 33.015625 40.375 
z
M 52.59375 71.296875 
L 52.59375 62.3125 
Q 48.875 64.0625 45.09375 64.984375 
Q 41.3125 65.921875 37.59375 65.921875 
Q 27.828125 65.921875 22.671875 59.328125 
Q 17.53125 52.734375 16.796875 39.40625 
Q 19.671875 43.65625 24.015625 45.921875 
Q 28.375 48.1875 33.59375 48.1875 
Q 44.578125 48.1875 50.953125 41.515625 
Q 57.328125 34.859375 57.328125 23.390625 
Q 57.328125 12.15625 50.6875 5.359375 
Q 44.046875 -1.421875 33.015625 -1.421875 
Q 20.359375 -1.421875 13.671875 8.265625 
Q 6.984375 17.96875 6.984375 36.375 
Q 6.984375 53.65625 15.1875 63.9375 
Q 23.390625 74.21875 37.203125 74.21875 
Q 40.921875 74.21875 44.703125 73.484375 
Q 48.484375 72.75 52.59375 71.296875 
z
" id="DejaVuSans-36"/>
       <path d="M 31.78125 66.40625 
Q 24.171875 66.40625 20.328125 58.90625 
Q 16.5 51.421875 16.5 36.375 
Q 16.5 21.390625 20.328125 13.890625 
Q 24.171875 6.390625 31.78125 6.390625 
Q 39.453125 6.390625 43.28125 13.890625 
Q 47.125 21.390625 47.125 36.375 
Q 47.125 51.421875 43.28125 58.90625 
Q 39.453125 66.40625 31.78125 66.40625 
z
M 31.78125 74.21875 
Q 44.046875 74.21875 50.515625 64.515625 
Q 56.984375 54.828125 56.984375 36.375 
Q 56.984375 17.96875 50.515625 8.265625 
Q 44.046875 -1.421875 31.78125 -1.421875 
Q 19.53125 -1.421875 13.0625 8.265625 
Q 6.59375 17.96875 6.59375 36.375 
Q 6.59375 54.828125 13.0625 64.515625 
Q 19.53125 74.21875 31.78125 74.21875 
z
" id="DejaVuSans-30"/>
      </defs>
      <g transform="translate(190.856585 783.558437)scale(0.1 -0.1)">
       <use xlink:href="#DejaVuSans-2212"/>
       <use x="83.789062" xlink:href="#DejaVuSans-36"/>
       <use x="147.412109" xlink:href="#DejaVuSans-30"/>
       <use x="211.035156" xlink:href="#DejaVuSans-30"/>
       <use x="274.658203" xlink:href="#DejaVuSans-30"/>
      </g>
     </g>
    </g>
    <g id="xtick_2">
     <g id="line2d_2">
      <g>
       <use style="stroke:#000000;stroke-width:0.8;" x="335.314286" xlink:href="#m5af78d2ec6" y="768.96"/>
      </g>
     </g>
     <g id="text_2">
      <!-- −4000 -->
      <defs>
       <path d="M 37.796875 64.3125 
L 12.890625 25.390625 
L 37.796875 25.390625 
z
M 35.203125 72.90625 
L 47.609375 72.90625 
L 47.609375 25.390625 
L 58.015625 25.390625 
L 58.015625 17.1875 
L 47.609375 17.1875 
L 47.609375 0 
L 37.796875 0 
L 37.796875 17.1875 
L 4.890625 17.1875 
L 4.890625 26.703125 
z
" id="DejaVuSans-34"/>
      </defs>
      <g transform="translate(318.399442 783.558437)scale(0.1 -0.1)">
       <use xlink:href="#DejaVuSans-2212"/>
       <use x="83.789062" xlink:href="#DejaVuSans-34"/>
       <use x="147.412109" xlink:href="#DejaVuSans-30"/>
       <use x="211.035156" xlink:href="#DejaVuSans-30"/>
       <use x="274.658203" xlink:href="#DejaVuSans-30"/>
      </g>
     </g>
    </g>
    <g id="xtick_3">
     <g id="line2d_3">
      <g>
       <use style="stroke:#000000;stroke-width:0.8;" x="462.857143" xlink:href="#m5af78d2ec6" y="768.96"/>
      </g>
     </g>
     <g id="text_3">
      <!-- −2000 -->
      <defs>
       <path d="M 19.1875 8.296875 
L 53.609375 8.296875 
L 53.609375 0 
L 7.328125 0 
L 7.328125 8.296875 
Q 12.9375 14.109375 22.625 23.890625 
Q 32.328125 33.6875 34.8125 36.53125 
Q 39.546875 41.84375 41.421875 45.53125 
Q 43.3125 49.21875 43.3125 52.78125 
Q 43.3125 58.59375 39.234375 62.25 
Q 35.15625 65.921875 28.609375 65.921875 
Q 23.96875 65.921875 18.8125 64.3125 
Q 13.671875 62.703125 7.8125 59.421875 
L 7.8125 69.390625 
Q 13.765625 71.78125 18.9375 73 
Q 24.125 74.21875 28.421875 74.21875 
Q 39.75 74.21875 46.484375 68.546875 
Q 53.21875 62.890625 53.21875 53.421875 
Q 53.21875 48.921875 51.53125 44.890625 
Q 49.859375 40.875 45.40625 35.40625 
Q 44.1875 33.984375 37.640625 27.21875 
Q 31.109375 20.453125 19.1875 8.296875 
z
" id="DejaVuSans-32"/>
      </defs>
      <g transform="translate(445.942299 783.558437)scale(0.1 -0.1)">
       <use xlink:href="#DejaVuSans-2212"/>
       <use x="83.789062" xlink:href="#DejaVuSans-32"/>
       <use x="147.412109" xlink:href="#DejaVuSans-30"/>
       <use x="211.035156" xlink:href="#DejaVuSans-30"/>
       <use x="274.658203" xlink:href="#DejaVuSans-30"/>
      </g>
     </g>
    </g>
    <g id="xtick_4">
     <g id="line2d_4">
      <g>
       <use style="stroke:#000000;stroke-width:0.8;" x="590.4" xlink:href="#m5af78d2ec6" y="768.96"/>
      </g>
     </g>
     <g id="text_4">
      <!-- 0 -->
      <g transform="translate(587.21875 783.558437)scale(0.1 -0.1)">
       <use xlink:href="#DejaVuSans-30"/>
      </g>
     </g>
    </g>
    <g id="xtick_5">
     <g id="line2d_5">
      <g>
       <use style="stroke:#000000;stroke-width:0.8;" x="717.942857" xlink:href="#m5af78d2ec6" y="768.96"/>
      </g>
     </g>
     <g id="text_5">
      <!-- 2000 -->
      <g transform="translate(705.217857 783.558437)scale(0.1 -0.1)">
       <use xlink:href="#DejaVuSans-32"/>
       <use x="63.623047" xlink:href="#DejaVuSans-30"/>
       <use x="127.246094" xlink:href="#DejaVuSans-30"/>
       <use x="190.869141" xlink:href="#DejaVuSans-30"/>
      </g>
     </g>
    </g>
    <g id="xtick_6">
     <g id="line2d_6">
      <g>
       <use style="stroke:#000000;stroke-width:0.8;" x="845.485714" xlink:href="#m5af78d2ec6" y="768.96"/>
      </g>
     </g>
     <g id="text_6">
      <!-- 4000 -->
      <g transform="translate(832.760714 783.558437)scale(0.1 -0.1)">
       <use xlink:href="#DejaVuSans-34"/>
       <use x="63.623047" xlink:href="#DejaVuSans-30"/>
       <use x="127.246094" xlink:href="#DejaVuSans-30"/>
       <use x="190.869141" xlink:href="#DejaVuSans-30"/>
      </g>
     </g>
    </g>
    <g id="xtick_7">
     <g id="line2d_7">
      <g>
       <use style="stroke:#000000;stroke-width:0.8;" x="973.028571" xlink:href="#m5af78d2ec6" y="768.96"/>
      </g>
     </g>
     <g id="text_7">
      <!-- 6000 -->
      <g transform="translate(960.303571 783.558437)scale(0.1 -0.1)">
       <use xlink:href="#DejaVuSans-36"/>
       <use x="63.623047" xlink:href="#DejaVuSans-30"/>
       <use x="127.246094" xlink:href="#DejaVuSans-30"/>
       <use x="190.869141" xlink:href="#DejaVuSans-30"/>
      </g>
     </g>
    </g>
   </g>
   <g id="matplotlib.axis_2">
    <g id="ytick_1">
     <g id="line2d_8">
      <defs>
       <path d="M 0 0 
L -3.5 0 
" id="m0a004c3f04" style="stroke:#000000;stroke-width:0.8;"/>
      </defs>
      <g>
       <use style="stroke:#000000;stroke-width:0.8;" x="144" xlink:href="#m0a004c3f04" y="721.44"/>
      </g>
     </g>
     <g id="text_8">
      <!-- −6000 -->
      <g transform="translate(103.170312 725.239219)scale(0.1 -0.1)">
       <use xlink:href="#DejaVuSans-2212"/>
       <use x="83.789062" xlink:href="#DejaVuSans-36"/>
       <use x="147.412109" xlink:href="#DejaVuSans-30"/>
       <use x="211.035156" xlink:href="#DejaVuSans-30"/>
       <use x="274.658203" xlink:href="#DejaVuSans-30"/>
      </g>
     </g>
    </g>
    <g id="ytick_2">
     <g id="line2d_9">
      <g>
       <use style="stroke:#000000;stroke-width:0.8;" x="144" xlink:href="#m0a004c3f04" y="626.4"/>
      </g>
     </g>
     <g id="text_9">
      <!-- −4000 -->
      <g transform="translate(103.170312 630.199219)scale(0.1 -0.1)">
       <use xlink:href="#DejaVuSans-2212"/>
       <use x="83.789062" xlink:href="#DejaVuSans-34"/>
       <use x="147.412109" xlink:href="#DejaVuSans-30"/>
       <use x="211.035156" xlink:href="#DejaVuSans-30"/>
       <use x="274.658203" xlink:href="#DejaVuSans-30"/>
      </g>
     </g>
    </g>
    <g id="ytick_3">
     <g id="line2d_10">
      <g>
       <use style="stroke:#000000;stroke-width:0.8;" x="144" xlink:href="#m0a004c3f04" y="531.36"/>
      </g>
     </g>
     <g id="text_10">
      <!-- −2000 -->
      <g transform="translate(103.170312 535.159219)scale(0.1 -0.1)">
       <use xlink:href="#DejaVuSans-2212"/>
       <use x="83.789062" xlink:href="#DejaVuSans-32"/>
       <use x="147.412109" xlink:href="#DejaVuSans-30"/>
       <use x="211.035156" xlink:href="#DejaVuSans-30"/>
       <use x="274.658203" xlink:href="#DejaVuSans-30"/>
      </g>
     </g>
    </g>
    <g id="ytick_4">
     <g id="line2d_11">
      <g>
       <use style="stroke:#000000;stroke-width:0.8;" x="144" xlink:href="#m0a004c3f04" y="436.32"/>
      </g>
     </g>
     <g id="text_11">
      <!-- 0 -->
      <g transform="translate(130.6375 440.119219)scale(0.1 -0.1)">
       <use xlink:href="#DejaVuSans-30"/>
      </g>
     </g>
    </g>
    <g id="ytick_5">
     <g id="line2d_12">
      <g>
       <use style="stroke:#000000;stroke-width:0.8;" x="144" xlink:href="#m0a004c3f04" y="341.28"/>
      </g>
     </g>
     <g id="text_12">
      <!-- 2000 -->
      <g transform="translate(111.55 345.079219)scale(0.1 -0.1)">
       <use xlink:href="#DejaVuSans-32"/>
       <use x="63.623047" xlink:href="#DejaVuSans-30"/>
       <use x="127.246094" xlink:href="#DejaVuSans-30"/>
       <use x="190.869141" xlink:href="#DejaVuSans-30"/>
      </g>
     </g>
    </g>
    <g id="ytick_6">
     <g id="line2d_13">
      <g>
       <use style="stroke:#000000;stroke-width:0.8;" x="144" xlink:href="#m0a004c3f04" y="246.24"/>
      </g>
     </g>
     <g id="text_13">
      <!-- 4000 -->
      <g transform="translate(111.55 250.039219)scale(0.1 -0.1)">
       <use xlink:href="#DejaVuSans-34"/>
       <use x="63.623047" xlink:href="#DejaVuSans-30"/>
       <use x="127.246094" xlink:href="#DejaVuSans-30"/>
       <use x="190.869141" xlink:href="#DejaVuSans-30"/>
      </g>
     </g>
    </g>
    <g id="ytick_7">
     <g id="line2d_14">
      <g>
       <use style="stroke:#000000;stroke-width:0.8;" x="144" xlink:href="#m0a004c3f04" y="151.2"/>
      </g>
     </g>
     <g id="text_14">
      <!-- 6000 -->
      <g transform="translate(111.55 154.999219)scale(0.1 -0.1)">
       <use xlink:href="#DejaVuSans-36"/>
       <use x="63.623047" xlink:href="#DejaVuSans-30"/>
       <use x="127.246094" xlink:href="#DejaVuSans-30"/>
       <use x="190.869141" xlink:href="#DejaVuSans-30"/>
      </g>
     </g>
    </g>
   </g>
   <g id="line2d_15">
    <path clip-path="url(#pc071d24878)" d="M 590.4 768.96 
L 590.4 103.68 
" style="fill:none;stroke:#1f77b4;stroke-linecap:square;stroke-width:1.5;"/>
   </g>
   <g id="line2d_16">
    <path clip-path="url(#pc071d24878)" d="M 144 436.32 
L 1036.8 436.32 
" style="fill:none;stroke:#1f77b4;stroke-linecap:square;stroke-width:1.5;"/>
   </g>
   <g id="line2d_17">
    <defs>
     <path d="M 0 1.333333 
C 0.353604 1.333333 0.692773 1.192845 0.942809 0.942809 
C 1.192845 0.692773 1.333333 0.353604 1.333333 0 
C 1.333333 -0.353604 1.192845 -0.692773 0.942809 -0.942809 
C 0.692773 -1.192845 0.353604 -1.333333 0 -1.333333 
C -0.353604 -1.333333 -0.692773 -1.192845 -0.942809 -0.942809 
C -1.192845 -0.692773 -1.333333 -0.353604 -1.333333 0 
C -1.333333 0.353604 -1.192845 0.692773 -0.942809 0.942809 
C -0.692773 1.192845 -0.353604 1.333333 0 1.333333 
z
" id="m838f8b71c8" style="stroke:#ff0000;"/>
    </defs>
    <g clip-path="url(#pc071d24878)">
     <use style="fill:#ff0000;stroke:#ff0000;" x="692.477502" xlink:href="#m838f8b71c8" y="439.412453"/>
     <use style="fill:#ff0000;stroke:#ff0000;" x="690.402703" xlink:href="#m838f8b71c8" y="413.181501"/>
     <use style="fill:#ff0000;stroke:#ff0000;" x="919.742543" xlink:href="#m838f8b71c8" y="314.545819"/>
     <use style="fill:#ff0000;stroke:#ff0000;" x="874.675173" xlink:href="#m838f8b71c8" y="315.555056"/>
     <use style="fill:#ff0000;stroke:#ff0000;" x="832.104043" xlink:href="#m838f8b71c8" y="319.356175"/>
     <use style="fill:#ff0000;stroke:#ff0000;" x="690.575473" xlink:href="#m838f8b71c8" y="380.736906"/>
     <use style="fill:#ff0000;stroke:#ff0000;" x="794.264767" xlink:href="#m838f8b71c8" y="310.884424"/>
     <use style="fill:#ff0000;stroke:#ff0000;" x="772.859028" xlink:href="#m838f8b71c8" y="310.432133"/>
     <use style="fill:#ff0000;stroke:#ff0000;" x="680.288913" xlink:href="#m838f8b71c8" y="307.991253"/>
     <use style="fill:#ff0000;stroke:#ff0000;" x="481.597872" xlink:href="#m838f8b71c8" y="302.630123"/>
     <use style="fill:#ff0000;stroke:#ff0000;" x="467.608242" xlink:href="#m838f8b71c8" y="303.187161"/>
     <use style="fill:#ff0000;stroke:#ff0000;" x="451.869328" xlink:href="#m838f8b71c8" y="302.999585"/>
     <use style="fill:#ff0000;stroke:#ff0000;" x="433.744667" xlink:href="#m838f8b71c8" y="302.181311"/>
     <use style="fill:#ff0000;stroke:#ff0000;" x="397.7103" xlink:href="#m838f8b71c8" y="319.201967"/>
     <use style="fill:#ff0000;stroke:#ff0000;" x="397.529408" xlink:href="#m838f8b71c8" y="344.429506"/>
     <use style="fill:#ff0000;stroke:#ff0000;" x="373.26884" xlink:href="#m838f8b71c8" y="357.132691"/>
     <use style="fill:#ff0000;stroke:#ff0000;" x="387.990585" xlink:href="#m838f8b71c8" y="392.580789"/>
     <use style="fill:#ff0000;stroke:#ff0000;" x="369.530101" xlink:href="#m838f8b71c8" y="408.45505"/>
     <use style="fill:#ff0000;stroke:#ff0000;" x="368.111058" xlink:href="#m838f8b71c8" y="427.412622"/>
     <use style="fill:#ff0000;stroke:#ff0000;" x="537.227285" xlink:href="#m838f8b71c8" y="437.184561"/>
     <use style="fill:#ff0000;stroke:#ff0000;" x="537.558014" xlink:href="#m838f8b71c8" y="451.225879"/>
     <use style="fill:#ff0000;stroke:#ff0000;" x="395.701968" xlink:href="#m838f8b71c8" y="528.969714"/>
     <use style="fill:#ff0000;stroke:#ff0000;" x="441.173231" xlink:href="#m838f8b71c8" y="516.832423"/>
     <use style="fill:#ff0000;stroke:#ff0000;" x="451.235299" xlink:href="#m838f8b71c8" y="520.952301"/>
     <use style="fill:#ff0000;stroke:#ff0000;" x="445.653281" xlink:href="#m838f8b71c8" y="534.884938"/>
     <use style="fill:#ff0000;stroke:#ff0000;" x="457.425291" xlink:href="#m838f8b71c8" y="537.869922"/>
     <use style="fill:#ff0000;stroke:#ff0000;" x="495.80386" xlink:href="#m838f8b71c8" y="517.722078"/>
     <use style="fill:#ff0000;stroke:#ff0000;" x="508.129994" xlink:href="#m838f8b71c8" y="525.884287"/>
     <use style="fill:#ff0000;stroke:#ff0000;" x="545.119099" xlink:href="#m838f8b71c8" y="522.7373"/>
     <use style="fill:#ff0000;stroke:#ff0000;" x="547.706241" xlink:href="#m838f8b71c8" y="533.421051"/>
     <use style="fill:#ff0000;stroke:#ff0000;" x="585.687938" xlink:href="#m838f8b71c8" y="540.959546"/>
     <use style="fill:#ff0000;stroke:#ff0000;" x="593.44482" xlink:href="#m838f8b71c8" y="526.733976"/>
     <use style="fill:#ff0000;stroke:#ff0000;" x="601.398013" xlink:href="#m838f8b71c8" y="535.274257"/>
     <use style="fill:#ff0000;stroke:#ff0000;" x="610.307885" xlink:href="#m838f8b71c8" y="543.1415"/>
     <use style="fill:#ff0000;stroke:#ff0000;" x="612.595746" xlink:href="#m838f8b71c8" y="518.763987"/>
     <use style="fill:#ff0000;stroke:#ff0000;" x="659.47011" xlink:href="#m838f8b71c8" y="522.99185"/>
     <use style="fill:#ff0000;stroke:#ff0000;" x="700.489025" xlink:href="#m838f8b71c8" y="545.182901"/>
     <use style="fill:#ff0000;stroke:#ff0000;" x="752.587351" xlink:href="#m838f8b71c8" y="515.934036"/>
     <use style="fill:#ff0000;stroke:#ff0000;" x="775.260291" xlink:href="#m838f8b71c8" y="516.301852"/>
     <use style="fill:#ff0000;stroke:#ff0000;" x="803.371892" xlink:href="#m838f8b71c8" y="516.799651"/>
     <use style="fill:#ff0000;stroke:#ff0000;" x="925.706486" xlink:href="#m838f8b71c8" y="546.503972"/>
     <use style="fill:#ff0000;stroke:#ff0000;" x="932.44916" xlink:href="#m838f8b71c8" y="499.795344"/>
     <use style="fill:#ff0000;stroke:#ff0000;" x="934.222094" xlink:href="#m838f8b71c8" y="484.88926"/>
    </g>
   </g>
   <g id="line2d_18">
    <defs>
     <path d="M -0.5 0.5 
L 0.5 0.5 
L 0.5 -0.5 
L -0.5 -0.5 
z
" id="m6cacbfcc80" style="stroke:#1f77b4;stroke-linejoin:miter;"/>
    </defs>
    <g clip-path="url(#pc071d24878)">
     <use style="fill:#1f77b4;stroke:#1f77b4;stroke-linejoin:miter;" x="692.477502" xlink:href="#m6cacbfcc80" y="439.412453"/>
     <use style="fill:#1f77b4;stroke:#1f77b4;stroke-linejoin:miter;" x="691.224158" xlink:href="#m6cacbfcc80" y="435.049586"/>
     <use style="fill:#1f77b4;stroke:#1f77b4;stroke-linejoin:miter;" x="686.330767" xlink:href="#m6cacbfcc80" y="430.968624"/>
     <use style="fill:#1f77b4;stroke:#1f77b4;stroke-linejoin:miter;" x="684.792809" xlink:href="#m6cacbfcc80" y="427.040329"/>
     <use style="fill:#1f77b4;stroke:#1f77b4;stroke-linejoin:miter;" x="686.144098" xlink:href="#m6cacbfcc80" y="422.69412"/>
     <use style="fill:#1f77b4;stroke:#1f77b4;stroke-linejoin:miter;" x="685.735638" xlink:href="#m6cacbfcc80" y="418.504709"/>
     <use style="fill:#1f77b4;stroke:#1f77b4;stroke-linejoin:miter;" x="690.402703" xlink:href="#m6cacbfcc80" y="413.181501"/>
     <use style="fill:#1f77b4;stroke:#1f77b4;stroke-linejoin:miter;" x="919.742543" xlink:href="#m6cacbfcc80" y="314.545819"/>
     <use style="fill:#1f77b4;stroke:#1f77b4;stroke-linejoin:miter;" x="874.675173" xlink:href="#m6cacbfcc80" y="315.555056"/>
     <use style="fill:#1f77b4;stroke:#1f77b4;stroke-linejoin:miter;" x="832.104043" xlink:href="#m6cacbfcc80" y="319.356175"/>
     <use style="fill:#1f77b4;stroke:#1f77b4;stroke-linejoin:miter;" x="690.575473" xlink:href="#m6cacbfcc80" y="380.736906"/>
     <use style="fill:#1f77b4;stroke:#1f77b4;stroke-linejoin:miter;" x="794.264767" xlink:href="#m6cacbfcc80" y="310.884424"/>
     <use style="fill:#1f77b4;stroke:#1f77b4;stroke-linejoin:miter;" x="772.859028" xlink:href="#m6cacbfcc80" y="310.432133"/>
     <use style="fill:#1f77b4;stroke:#1f77b4;stroke-linejoin:miter;" x="680.288913" xlink:href="#m6cacbfcc80" y="307.991253"/>
     <use style="fill:#1f77b4;stroke:#1f77b4;stroke-linejoin:miter;" x="668.465423" xlink:href="#m6cacbfcc80" y="307.65322"/>
     <use style="fill:#1f77b4;stroke:#1f77b4;stroke-linejoin:miter;" x="657.118716" xlink:href="#m6cacbfcc80" y="307.015698"/>
     <use style="fill:#1f77b4;stroke:#1f77b4;stroke-linejoin:miter;" x="645.938551" xlink:href="#m6cacbfcc80" y="307.154067"/>
     <use style="fill:#1f77b4;stroke:#1f77b4;stroke-linejoin:miter;" x="635.422726" xlink:href="#m6cacbfcc80" y="306.740685"/>
     <use style="fill:#1f77b4;stroke:#1f77b4;stroke-linejoin:miter;" x="625.197454" xlink:href="#m6cacbfcc80" y="306.517604"/>
     <use style="fill:#1f77b4;stroke:#1f77b4;stroke-linejoin:miter;" x="615.032194" xlink:href="#m6cacbfcc80" y="305.975619"/>
     <use style="fill:#1f77b4;stroke:#1f77b4;stroke-linejoin:miter;" x="604.644384" xlink:href="#m6cacbfcc80" y="304.665347"/>
     <use style="fill:#1f77b4;stroke:#1f77b4;stroke-linejoin:miter;" x="594.532774" xlink:href="#m6cacbfcc80" y="305.034594"/>
     <use style="fill:#1f77b4;stroke:#1f77b4;stroke-linejoin:miter;" x="584.445896" xlink:href="#m6cacbfcc80" y="304.098738"/>
     <use style="fill:#1f77b4;stroke:#1f77b4;stroke-linejoin:miter;" x="574.253214" xlink:href="#m6cacbfcc80" y="304.190857"/>
     <use style="fill:#1f77b4;stroke:#1f77b4;stroke-linejoin:miter;" x="564.058865" xlink:href="#m6cacbfcc80" y="304.491539"/>
     <use style="fill:#1f77b4;stroke:#1f77b4;stroke-linejoin:miter;" x="553.546927" xlink:href="#m6cacbfcc80" y="303.749927"/>
     <use style="fill:#1f77b4;stroke:#1f77b4;stroke-linejoin:miter;" x="542.588387" xlink:href="#m6cacbfcc80" y="303.356871"/>
     <use style="fill:#1f77b4;stroke:#1f77b4;stroke-linejoin:miter;" x="531.502534" xlink:href="#m6cacbfcc80" y="302.858084"/>
     <use style="fill:#1f77b4;stroke:#1f77b4;stroke-linejoin:miter;" x="519.685812" xlink:href="#m6cacbfcc80" y="302.335562"/>
     <use style="fill:#1f77b4;stroke:#1f77b4;stroke-linejoin:miter;" x="507.652489" xlink:href="#m6cacbfcc80" y="302.376498"/>
     <use style="fill:#1f77b4;stroke:#1f77b4;stroke-linejoin:miter;" x="495.853041" xlink:href="#m6cacbfcc80" y="303.817679"/>
     <use style="fill:#1f77b4;stroke:#1f77b4;stroke-linejoin:miter;" x="481.597872" xlink:href="#m6cacbfcc80" y="302.630123"/>
     <use style="fill:#1f77b4;stroke:#1f77b4;stroke-linejoin:miter;" x="467.608242" xlink:href="#m6cacbfcc80" y="303.187161"/>
     <use style="fill:#1f77b4;stroke:#1f77b4;stroke-linejoin:miter;" x="451.869328" xlink:href="#m6cacbfcc80" y="302.999585"/>
     <use style="fill:#1f77b4;stroke:#1f77b4;stroke-linejoin:miter;" x="433.744667" xlink:href="#m6cacbfcc80" y="302.181311"/>
     <use style="fill:#1f77b4;stroke:#1f77b4;stroke-linejoin:miter;" x="417.357465" xlink:href="#m6cacbfcc80" y="304.099024"/>
     <use style="fill:#1f77b4;stroke:#1f77b4;stroke-linejoin:miter;" x="403.272364" xlink:href="#m6cacbfcc80" y="308.756243"/>
     <use style="fill:#1f77b4;stroke:#1f77b4;stroke-linejoin:miter;" x="397.7103" xlink:href="#m6cacbfcc80" y="319.201967"/>
     <use style="fill:#1f77b4;stroke:#1f77b4;stroke-linejoin:miter;" x="397.529408" xlink:href="#m6cacbfcc80" y="344.429506"/>
     <use style="fill:#1f77b4;stroke:#1f77b4;stroke-linejoin:miter;" x="387.092829" xlink:href="#m6cacbfcc80" y="351.206242"/>
     <use style="fill:#1f77b4;stroke:#1f77b4;stroke-linejoin:miter;" x="373.26884" xlink:href="#m6cacbfcc80" y="357.132691"/>
     <use style="fill:#1f77b4;stroke:#1f77b4;stroke-linejoin:miter;" x="387.990585" xlink:href="#m6cacbfcc80" y="392.580789"/>
     <use style="fill:#1f77b4;stroke:#1f77b4;stroke-linejoin:miter;" x="381.017772" xlink:href="#m6cacbfcc80" y="400.657483"/>
     <use style="fill:#1f77b4;stroke:#1f77b4;stroke-linejoin:miter;" x="369.530101" xlink:href="#m6cacbfcc80" y="408.45505"/>
     <use style="fill:#1f77b4;stroke:#1f77b4;stroke-linejoin:miter;" x="367.901182" xlink:href="#m6cacbfcc80" y="417.887631"/>
     <use style="fill:#1f77b4;stroke:#1f77b4;stroke-linejoin:miter;" x="368.111058" xlink:href="#m6cacbfcc80" y="427.412622"/>
     <use style="fill:#1f77b4;stroke:#1f77b4;stroke-linejoin:miter;" x="537.227285" xlink:href="#m6cacbfcc80" y="437.184561"/>
     <use style="fill:#1f77b4;stroke:#1f77b4;stroke-linejoin:miter;" x="537.370752" xlink:href="#m6cacbfcc80" y="439.505837"/>
     <use style="fill:#1f77b4;stroke:#1f77b4;stroke-linejoin:miter;" x="537.433844" xlink:href="#m6cacbfcc80" y="441.702367"/>
     <use style="fill:#1f77b4;stroke:#1f77b4;stroke-linejoin:miter;" x="537.497596" xlink:href="#m6cacbfcc80" y="443.960321"/>
     <use style="fill:#1f77b4;stroke:#1f77b4;stroke-linejoin:miter;" x="537.568552" xlink:href="#m6cacbfcc80" y="446.318186"/>
     <use style="fill:#1f77b4;stroke:#1f77b4;stroke-linejoin:miter;" x="537.419789" xlink:href="#m6cacbfcc80" y="448.791296"/>
     <use style="fill:#1f77b4;stroke:#1f77b4;stroke-linejoin:miter;" x="537.558014" xlink:href="#m6cacbfcc80" y="451.225879"/>
     <use style="fill:#1f77b4;stroke:#1f77b4;stroke-linejoin:miter;" x="395.701968" xlink:href="#m6cacbfcc80" y="528.969714"/>
     <use style="fill:#1f77b4;stroke:#1f77b4;stroke-linejoin:miter;" x="441.173231" xlink:href="#m6cacbfcc80" y="516.832423"/>
     <use style="fill:#1f77b4;stroke:#1f77b4;stroke-linejoin:miter;" x="451.235299" xlink:href="#m6cacbfcc80" y="520.952301"/>
     <use style="fill:#1f77b4;stroke:#1f77b4;stroke-linejoin:miter;" x="445.653281" xlink:href="#m6cacbfcc80" y="534.884938"/>
     <use style="fill:#1f77b4;stroke:#1f77b4;stroke-linejoin:miter;" x="457.425291" xlink:href="#m6cacbfcc80" y="537.869922"/>
     <use style="fill:#1f77b4;stroke:#1f77b4;stroke-linejoin:miter;" x="495.80386" xlink:href="#m6cacbfcc80" y="517.722078"/>
     <use style="fill:#1f77b4;stroke:#1f77b4;stroke-linejoin:miter;" x="506.365557" xlink:href="#m6cacbfcc80" y="517.559355"/>
     <use style="fill:#1f77b4;stroke:#1f77b4;stroke-linejoin:miter;" x="508.129994" xlink:href="#m6cacbfcc80" y="525.884287"/>
     <use style="fill:#1f77b4;stroke:#1f77b4;stroke-linejoin:miter;" x="545.119099" xlink:href="#m6cacbfcc80" y="522.7373"/>
     <use style="fill:#1f77b4;stroke:#1f77b4;stroke-linejoin:miter;" x="547.706241" xlink:href="#m6cacbfcc80" y="533.421051"/>
     <use style="fill:#1f77b4;stroke:#1f77b4;stroke-linejoin:miter;" x="556.924145" xlink:href="#m6cacbfcc80" y="530.131639"/>
     <use style="fill:#1f77b4;stroke:#1f77b4;stroke-linejoin:miter;" x="564.712286" xlink:href="#m6cacbfcc80" y="529.363939"/>
     <use style="fill:#1f77b4;stroke:#1f77b4;stroke-linejoin:miter;" x="571.185699" xlink:href="#m6cacbfcc80" y="533.206505"/>
     <use style="fill:#1f77b4;stroke:#1f77b4;stroke-linejoin:miter;" x="577.696251" xlink:href="#m6cacbfcc80" y="540.589611"/>
     <use style="fill:#1f77b4;stroke:#1f77b4;stroke-linejoin:miter;" x="585.687938" xlink:href="#m6cacbfcc80" y="540.959546"/>
     <use style="fill:#1f77b4;stroke:#1f77b4;stroke-linejoin:miter;" x="593.44482" xlink:href="#m6cacbfcc80" y="526.733976"/>
     <use style="fill:#1f77b4;stroke:#1f77b4;stroke-linejoin:miter;" x="601.398013" xlink:href="#m6cacbfcc80" y="535.274257"/>
     <use style="fill:#1f77b4;stroke:#1f77b4;stroke-linejoin:miter;" x="610.307885" xlink:href="#m6cacbfcc80" y="543.1415"/>
     <use style="fill:#1f77b4;stroke:#1f77b4;stroke-linejoin:miter;" x="612.595746" xlink:href="#m6cacbfcc80" y="518.763987"/>
     <use style="fill:#1f77b4;stroke:#1f77b4;stroke-linejoin:miter;" x="619.617307" xlink:href="#m6cacbfcc80" y="520.033497"/>
     <use style="fill:#1f77b4;stroke:#1f77b4;stroke-linejoin:miter;" x="626.08846" xlink:href="#m6cacbfcc80" y="518.77855"/>
     <use style="fill:#1f77b4;stroke:#1f77b4;stroke-linejoin:miter;" x="634.30293" xlink:href="#m6cacbfcc80" y="521.198764"/>
     <use style="fill:#1f77b4;stroke:#1f77b4;stroke-linejoin:miter;" x="642.323854" xlink:href="#m6cacbfcc80" y="521.838328"/>
     <use style="fill:#1f77b4;stroke:#1f77b4;stroke-linejoin:miter;" x="650.260857" xlink:href="#m6cacbfcc80" y="521.893329"/>
     <use style="fill:#1f77b4;stroke:#1f77b4;stroke-linejoin:miter;" x="659.47011" xlink:href="#m6cacbfcc80" y="522.99185"/>
     <use style="fill:#1f77b4;stroke:#1f77b4;stroke-linejoin:miter;" x="700.489025" xlink:href="#m6cacbfcc80" y="545.182901"/>
     <use style="fill:#1f77b4;stroke:#1f77b4;stroke-linejoin:miter;" x="706.333064" xlink:href="#m6cacbfcc80" y="538.141173"/>
     <use style="fill:#1f77b4;stroke:#1f77b4;stroke-linejoin:miter;" x="711.397499" xlink:href="#m6cacbfcc80" y="531.17607"/>
     <use style="fill:#1f77b4;stroke:#1f77b4;stroke-linejoin:miter;" x="730.289889" xlink:href="#m6cacbfcc80" y="523.69135"/>
     <use style="fill:#1f77b4;stroke:#1f77b4;stroke-linejoin:miter;" x="739.850943" xlink:href="#m6cacbfcc80" y="519.055267"/>
     <use style="fill:#1f77b4;stroke:#1f77b4;stroke-linejoin:miter;" x="752.587351" xlink:href="#m6cacbfcc80" y="515.934036"/>
     <use style="fill:#1f77b4;stroke:#1f77b4;stroke-linejoin:miter;" x="775.260291" xlink:href="#m6cacbfcc80" y="516.301852"/>
     <use style="fill:#1f77b4;stroke:#1f77b4;stroke-linejoin:miter;" x="803.371892" xlink:href="#m6cacbfcc80" y="516.799651"/>
     <use style="fill:#1f77b4;stroke:#1f77b4;stroke-linejoin:miter;" x="925.706486" xlink:href="#m6cacbfcc80" y="546.503972"/>
     <use style="fill:#1f77b4;stroke:#1f77b4;stroke-linejoin:miter;" x="932.44916" xlink:href="#m6cacbfcc80" y="499.795344"/>
     <use style="fill:#1f77b4;stroke:#1f77b4;stroke-linejoin:miter;" x="934.222094" xlink:href="#m6cacbfcc80" y="484.88926"/>
    </g>
   </g>
   <g id="patch_3">
    <path d="M 144 768.96 
L 144 103.68 
" style="fill:none;stroke:#000000;stroke-linecap:square;stroke-linejoin:miter;stroke-width:0.8;"/>
   </g>
   <g id="patch_4">
    <path d="M 1036.8 768.96 
L 1036.8 103.68 
" style="fill:none;stroke:#000000;stroke-linecap:square;stroke-linejoin:miter;stroke-width:0.8;"/>
   </g>
   <g id="patch_5">
    <path d="M 144 768.96 
L 1036.8 768.96 
" style="fill:none;stroke:#000000;stroke-linecap:square;stroke-linejoin:miter;stroke-width:0.8;"/>
   </g>
   <g id="patch_6">
    <path d="M 144 103.68 
L 1036.8 103.68 
" style="fill:none;stroke:#000000;stroke-linecap:square;stroke-linejoin:miter;stroke-width:0.8;"/>
   </g>
  </g>
 </g>
 <defs>
  <clipPath id="pc071d24878">
   <rect height="665.28" width="892.8" x="144" y="103.68"/>
  </clipPath>
 </defs>
</svg>
