<?xml version="1.0" encoding="utf-8" standalone="no"?>
<!DOCTYPE svg PUBLIC "-//W3C//DTD SVG 1.1//EN"
  "http://www.w3.org/Graphics/SVG/1.1/DTD/svg11.dtd">
<!-- Created with matplotlib (http://matplotlib.org/) -->
<svg height="864pt" version="1.1" viewBox="0 0 1152 864" width="1152pt" xmlns="http://www.w3.org/2000/svg" xmlns:xlink="http://www.w3.org/1999/xlink">
 <defs>
  <style type="text/css">
*{stroke-linecap:butt;stroke-linejoin:round;}
  </style>
 </defs>
 <g id="figure_1">
  <g id="patch_1">
   <path d="M 0 864 
L 1152 864 
L 1152 0 
L 0 0 
z
" style="fill:#ffffff;"/>
  </g>
  <g id="axes_1">
   <g id="patch_2">
    <path d="M 144 768.96 
L 1036.8 768.96 
L 1036.8 103.68 
L 144 103.68 
z
" style="fill:#ffffff;"/>
   </g>
   <g id="matplotlib.axis_1">
    <g id="xtick_1">
     <g id="line2d_1">
      <defs>
       <path d="M 0 0 
L 0 3.5 
" id="m2fec963995" style="stroke:#000000;stroke-width:0.8;"/>
      </defs>
      <g>
       <use style="stroke:#000000;stroke-width:0.8;" x="207.771429" xlink:href="#m2fec963995" y="768.96"/>
      </g>
     </g>
     <g id="text_1">
      <!-- −6000 -->
      <defs>
       <path d="M 10.59375 35.5 
L 73.1875 35.5 
L 73.1875 27.203125 
L 10.59375 27.203125 
z
" id="DejaVuSans-2212"/>
       <path d="M 33.015625 40.375 
Q 26.375 40.375 22.484375 35.828125 
Q 18.609375 31.296875 18.609375 23.390625 
Q 18.609375 15.53125 22.484375 10.953125 
Q 26.375 6.390625 33.015625 6.390625 
Q 39.65625 6.390625 43.53125 10.953125 
Q 47.40625 15.53125 47.40625 23.390625 
Q 47.40625 31.296875 43.53125 35.828125 
Q 39.65625 40.375 33.015625 40.375 
z
M 52.59375 71.296875 
L 52.59375 62.3125 
Q 48.875 64.0625 45.09375 64.984375 
Q 41.3125 65.921875 37.59375 65.921875 
Q 27.828125 65.921875 22.671875 59.328125 
Q 17.53125 52.734375 16.796875 39.40625 
Q 19.671875 43.65625 24.015625 45.921875 
Q 28.375 48.1875 33.59375 48.1875 
Q 44.578125 48.1875 50.953125 41.515625 
Q 57.328125 34.859375 57.328125 23.390625 
Q 57.328125 12.15625 50.6875 5.359375 
Q 44.046875 -1.421875 33.015625 -1.421875 
Q 20.359375 -1.421875 13.671875 8.265625 
Q 6.984375 17.96875 6.984375 36.375 
Q 6.984375 53.65625 15.1875 63.9375 
Q 23.390625 74.21875 37.203125 74.21875 
Q 40.921875 74.21875 44.703125 73.484375 
Q 48.484375 72.75 52.59375 71.296875 
z
" id="DejaVuSans-36"/>
       <path d="M 31.78125 66.40625 
Q 24.171875 66.40625 20.328125 58.90625 
Q 16.5 51.421875 16.5 36.375 
Q 16.5 21.390625 20.328125 13.890625 
Q 24.171875 6.390625 31.78125 6.390625 
Q 39.453125 6.390625 43.28125 13.890625 
Q 47.125 21.390625 47.125 36.375 
Q 47.125 51.421875 43.28125 58.90625 
Q 39.453125 66.40625 31.78125 66.40625 
z
M 31.78125 74.21875 
Q 44.046875 74.21875 50.515625 64.515625 
Q 56.984375 54.828125 56.984375 36.375 
Q 56.984375 17.96875 50.515625 8.265625 
Q 44.046875 -1.421875 31.78125 -1.421875 
Q 19.53125 -1.421875 13.0625 8.265625 
Q 6.59375 17.96875 6.59375 36.375 
Q 6.59375 54.828125 13.0625 64.515625 
Q 19.53125 74.21875 31.78125 74.21875 
z
" id="DejaVuSans-30"/>
      </defs>
      <g transform="translate(190.856585 783.558437)scale(0.1 -0.1)">
       <use xlink:href="#DejaVuSans-2212"/>
       <use x="83.789062" xlink:href="#DejaVuSans-36"/>
       <use x="147.412109" xlink:href="#DejaVuSans-30"/>
       <use x="211.035156" xlink:href="#DejaVuSans-30"/>
       <use x="274.658203" xlink:href="#DejaVuSans-30"/>
      </g>
     </g>
    </g>
    <g id="xtick_2">
     <g id="line2d_2">
      <g>
       <use style="stroke:#000000;stroke-width:0.8;" x="335.314286" xlink:href="#m2fec963995" y="768.96"/>
      </g>
     </g>
     <g id="text_2">
      <!-- −4000 -->
      <defs>
       <path d="M 37.796875 64.3125 
L 12.890625 25.390625 
L 37.796875 25.390625 
z
M 35.203125 72.90625 
L 47.609375 72.90625 
L 47.609375 25.390625 
L 58.015625 25.390625 
L 58.015625 17.1875 
L 47.609375 17.1875 
L 47.609375 0 
L 37.796875 0 
L 37.796875 17.1875 
L 4.890625 17.1875 
L 4.890625 26.703125 
z
" id="DejaVuSans-34"/>
      </defs>
      <g transform="translate(318.399442 783.558437)scale(0.1 -0.1)">
       <use xlink:href="#DejaVuSans-2212"/>
       <use x="83.789062" xlink:href="#DejaVuSans-34"/>
       <use x="147.412109" xlink:href="#DejaVuSans-30"/>
       <use x="211.035156" xlink:href="#DejaVuSans-30"/>
       <use x="274.658203" xlink:href="#DejaVuSans-30"/>
      </g>
     </g>
    </g>
    <g id="xtick_3">
     <g id="line2d_3">
      <g>
       <use style="stroke:#000000;stroke-width:0.8;" x="462.857143" xlink:href="#m2fec963995" y="768.96"/>
      </g>
     </g>
     <g id="text_3">
      <!-- −2000 -->
      <defs>
       <path d="M 19.1875 8.296875 
L 53.609375 8.296875 
L 53.609375 0 
L 7.328125 0 
L 7.328125 8.296875 
Q 12.9375 14.109375 22.625 23.890625 
Q 32.328125 33.6875 34.8125 36.53125 
Q 39.546875 41.84375 41.421875 45.53125 
Q 43.3125 49.21875 43.3125 52.78125 
Q 43.3125 58.59375 39.234375 62.25 
Q 35.15625 65.921875 28.609375 65.921875 
Q 23.96875 65.921875 18.8125 64.3125 
Q 13.671875 62.703125 7.8125 59.421875 
L 7.8125 69.390625 
Q 13.765625 71.78125 18.9375 73 
Q 24.125 74.21875 28.421875 74.21875 
Q 39.75 74.21875 46.484375 68.546875 
Q 53.21875 62.890625 53.21875 53.421875 
Q 53.21875 48.921875 51.53125 44.890625 
Q 49.859375 40.875 45.40625 35.40625 
Q 44.1875 33.984375 37.640625 27.21875 
Q 31.109375 20.453125 19.1875 8.296875 
z
" id="DejaVuSans-32"/>
      </defs>
      <g transform="translate(445.942299 783.558437)scale(0.1 -0.1)">
       <use xlink:href="#DejaVuSans-2212"/>
       <use x="83.789062" xlink:href="#DejaVuSans-32"/>
       <use x="147.412109" xlink:href="#DejaVuSans-30"/>
       <use x="211.035156" xlink:href="#DejaVuSans-30"/>
       <use x="274.658203" xlink:href="#DejaVuSans-30"/>
      </g>
     </g>
    </g>
    <g id="xtick_4">
     <g id="line2d_4">
      <g>
       <use style="stroke:#000000;stroke-width:0.8;" x="590.4" xlink:href="#m2fec963995" y="768.96"/>
      </g>
     </g>
     <g id="text_4">
      <!-- 0 -->
      <g transform="translate(587.21875 783.558437)scale(0.1 -0.1)">
       <use xlink:href="#DejaVuSans-30"/>
      </g>
     </g>
    </g>
    <g id="xtick_5">
     <g id="line2d_5">
      <g>
       <use style="stroke:#000000;stroke-width:0.8;" x="717.942857" xlink:href="#m2fec963995" y="768.96"/>
      </g>
     </g>
     <g id="text_5">
      <!-- 2000 -->
      <g transform="translate(705.217857 783.558437)scale(0.1 -0.1)">
       <use xlink:href="#DejaVuSans-32"/>
       <use x="63.623047" xlink:href="#DejaVuSans-30"/>
       <use x="127.246094" xlink:href="#DejaVuSans-30"/>
       <use x="190.869141" xlink:href="#DejaVuSans-30"/>
      </g>
     </g>
    </g>
    <g id="xtick_6">
     <g id="line2d_6">
      <g>
       <use style="stroke:#000000;stroke-width:0.8;" x="845.485714" xlink:href="#m2fec963995" y="768.96"/>
      </g>
     </g>
     <g id="text_6">
      <!-- 4000 -->
      <g transform="translate(832.760714 783.558437)scale(0.1 -0.1)">
       <use xlink:href="#DejaVuSans-34"/>
       <use x="63.623047" xlink:href="#DejaVuSans-30"/>
       <use x="127.246094" xlink:href="#DejaVuSans-30"/>
       <use x="190.869141" xlink:href="#DejaVuSans-30"/>
      </g>
     </g>
    </g>
    <g id="xtick_7">
     <g id="line2d_7">
      <g>
       <use style="stroke:#000000;stroke-width:0.8;" x="973.028571" xlink:href="#m2fec963995" y="768.96"/>
      </g>
     </g>
     <g id="text_7">
      <!-- 6000 -->
      <g transform="translate(960.303571 783.558437)scale(0.1 -0.1)">
       <use xlink:href="#DejaVuSans-36"/>
       <use x="63.623047" xlink:href="#DejaVuSans-30"/>
       <use x="127.246094" xlink:href="#DejaVuSans-30"/>
       <use x="190.869141" xlink:href="#DejaVuSans-30"/>
      </g>
     </g>
    </g>
   </g>
   <g id="matplotlib.axis_2">
    <g id="ytick_1">
     <g id="line2d_8">
      <defs>
       <path d="M 0 0 
L -3.5 0 
" id="m9fba5e8a16" style="stroke:#000000;stroke-width:0.8;"/>
      </defs>
      <g>
       <use style="stroke:#000000;stroke-width:0.8;" x="144" xlink:href="#m9fba5e8a16" y="721.44"/>
      </g>
     </g>
     <g id="text_8">
      <!-- −6000 -->
      <g transform="translate(103.170312 725.239219)scale(0.1 -0.1)">
       <use xlink:href="#DejaVuSans-2212"/>
       <use x="83.789062" xlink:href="#DejaVuSans-36"/>
       <use x="147.412109" xlink:href="#DejaVuSans-30"/>
       <use x="211.035156" xlink:href="#DejaVuSans-30"/>
       <use x="274.658203" xlink:href="#DejaVuSans-30"/>
      </g>
     </g>
    </g>
    <g id="ytick_2">
     <g id="line2d_9">
      <g>
       <use style="stroke:#000000;stroke-width:0.8;" x="144" xlink:href="#m9fba5e8a16" y="626.4"/>
      </g>
     </g>
     <g id="text_9">
      <!-- −4000 -->
      <g transform="translate(103.170312 630.199219)scale(0.1 -0.1)">
       <use xlink:href="#DejaVuSans-2212"/>
       <use x="83.789062" xlink:href="#DejaVuSans-34"/>
       <use x="147.412109" xlink:href="#DejaVuSans-30"/>
       <use x="211.035156" xlink:href="#DejaVuSans-30"/>
       <use x="274.658203" xlink:href="#DejaVuSans-30"/>
      </g>
     </g>
    </g>
    <g id="ytick_3">
     <g id="line2d_10">
      <g>
       <use style="stroke:#000000;stroke-width:0.8;" x="144" xlink:href="#m9fba5e8a16" y="531.36"/>
      </g>
     </g>
     <g id="text_10">
      <!-- −2000 -->
      <g transform="translate(103.170312 535.159219)scale(0.1 -0.1)">
       <use xlink:href="#DejaVuSans-2212"/>
       <use x="83.789062" xlink:href="#DejaVuSans-32"/>
       <use x="147.412109" xlink:href="#DejaVuSans-30"/>
       <use x="211.035156" xlink:href="#DejaVuSans-30"/>
       <use x="274.658203" xlink:href="#DejaVuSans-30"/>
      </g>
     </g>
    </g>
    <g id="ytick_4">
     <g id="line2d_11">
      <g>
       <use style="stroke:#000000;stroke-width:0.8;" x="144" xlink:href="#m9fba5e8a16" y="436.32"/>
      </g>
     </g>
     <g id="text_11">
      <!-- 0 -->
      <g transform="translate(130.6375 440.119219)scale(0.1 -0.1)">
       <use xlink:href="#DejaVuSans-30"/>
      </g>
     </g>
    </g>
    <g id="ytick_5">
     <g id="line2d_12">
      <g>
       <use style="stroke:#000000;stroke-width:0.8;" x="144" xlink:href="#m9fba5e8a16" y="341.28"/>
      </g>
     </g>
     <g id="text_12">
      <!-- 2000 -->
      <g transform="translate(111.55 345.079219)scale(0.1 -0.1)">
       <use xlink:href="#DejaVuSans-32"/>
       <use x="63.623047" xlink:href="#DejaVuSans-30"/>
       <use x="127.246094" xlink:href="#DejaVuSans-30"/>
       <use x="190.869141" xlink:href="#DejaVuSans-30"/>
      </g>
     </g>
    </g>
    <g id="ytick_6">
     <g id="line2d_13">
      <g>
       <use style="stroke:#000000;stroke-width:0.8;" x="144" xlink:href="#m9fba5e8a16" y="246.24"/>
      </g>
     </g>
     <g id="text_13">
      <!-- 4000 -->
      <g transform="translate(111.55 250.039219)scale(0.1 -0.1)">
       <use xlink:href="#DejaVuSans-34"/>
       <use x="63.623047" xlink:href="#DejaVuSans-30"/>
       <use x="127.246094" xlink:href="#DejaVuSans-30"/>
       <use x="190.869141" xlink:href="#DejaVuSans-30"/>
      </g>
     </g>
    </g>
    <g id="ytick_7">
     <g id="line2d_14">
      <g>
       <use style="stroke:#000000;stroke-width:0.8;" x="144" xlink:href="#m9fba5e8a16" y="151.2"/>
      </g>
     </g>
     <g id="text_14">
      <!-- 6000 -->
      <g transform="translate(111.55 154.999219)scale(0.1 -0.1)">
       <use xlink:href="#DejaVuSans-36"/>
       <use x="63.623047" xlink:href="#DejaVuSans-30"/>
       <use x="127.246094" xlink:href="#DejaVuSans-30"/>
       <use x="190.869141" xlink:href="#DejaVuSans-30"/>
      </g>
     </g>
    </g>
   </g>
   <g id="line2d_15">
    <path clip-path="url(#p22b387f12d)" d="M 590.4 768.96 
L 590.4 103.68 
" style="fill:none;stroke:#1f77b4;stroke-linecap:square;stroke-width:1.5;"/>
   </g>
   <g id="line2d_16">
    <path clip-path="url(#p22b387f12d)" d="M 144 436.32 
L 1036.8 436.32 
" style="fill:none;stroke:#1f77b4;stroke-linecap:square;stroke-width:1.5;"/>
   </g>
   <g id="line2d_17">
    <defs>
     <path d="M 0 1.333333 
C 0.353604 1.333333 0.692773 1.192845 0.942809 0.942809 
C 1.192845 0.692773 1.333333 0.353604 1.333333 0 
C 1.333333 -0.353604 1.192845 -0.692773 0.942809 -0.942809 
C 0.692773 -1.192845 0.353604 -1.333333 0 -1.333333 
C -0.353604 -1.333333 -0.692773 -1.192845 -0.942809 -0.942809 
C -1.192845 -0.692773 -1.333333 -0.353604 -1.333333 0 
C -1.333333 0.353604 -1.192845 0.692773 -0.942809 0.942809 
C -0.692773 1.192845 -0.353604 1.333333 0 1.333333 
z
" id="m070966acfb" style="stroke:#ff0000;"/>
    </defs>
    <g clip-path="url(#p22b387f12d)">
     <use style="fill:#ff0000;stroke:#ff0000;" x="898.341431" xlink:href="#m070966acfb" y="455.828292"/>
     <use style="fill:#ff0000;stroke:#ff0000;" x="936.819278" xlink:href="#m070966acfb" y="446.885336"/>
     <use style="fill:#ff0000;stroke:#ff0000;" x="647.996488" xlink:href="#m070966acfb" y="435.160997"/>
     <use style="fill:#ff0000;stroke:#ff0000;" x="655.298356" xlink:href="#m070966acfb" y="417.209627"/>
     <use style="fill:#ff0000;stroke:#ff0000;" x="888.236426" xlink:href="#m070966acfb" y="317.459094"/>
     <use style="fill:#ff0000;stroke:#ff0000;" x="831.930069" xlink:href="#m070966acfb" y="329.177367"/>
     <use style="fill:#ff0000;stroke:#ff0000;" x="828.968839" xlink:href="#m070966acfb" y="319.559328"/>
     <use style="fill:#ff0000;stroke:#ff0000;" x="783.464321" xlink:href="#m070966acfb" y="311.398576"/>
     <use style="fill:#ff0000;stroke:#ff0000;" x="768.158982" xlink:href="#m070966acfb" y="310.48362"/>
     <use style="fill:#ff0000;stroke:#ff0000;" x="685.053337" xlink:href="#m070966acfb" y="307.423909"/>
     <use style="fill:#ff0000;stroke:#ff0000;" x="632.087236" xlink:href="#m070966acfb" y="306.305694"/>
     <use style="fill:#ff0000;stroke:#ff0000;" x="619.086881" xlink:href="#m070966acfb" y="324.559314"/>
     <use style="fill:#ff0000;stroke:#ff0000;" x="608.004806" xlink:href="#m070966acfb" y="304.962872"/>
     <use style="fill:#ff0000;stroke:#ff0000;" x="452.701839" xlink:href="#m070966acfb" y="302.297058"/>
     <use style="fill:#ff0000;stroke:#ff0000;" x="438.801296" xlink:href="#m070966acfb" y="301.618391"/>
     <use style="fill:#ff0000;stroke:#ff0000;" x="396.779337" xlink:href="#m070966acfb" y="315.991549"/>
     <use style="fill:#ff0000;stroke:#ff0000;" x="398.064617" xlink:href="#m070966acfb" y="346.218786"/>
     <use style="fill:#ff0000;stroke:#ff0000;" x="388.366471" xlink:href="#m070966acfb" y="350.710171"/>
     <use style="fill:#ff0000;stroke:#ff0000;" x="373.385921" xlink:href="#m070966acfb" y="353.53517"/>
     <use style="fill:#ff0000;stroke:#ff0000;" x="372.83082" xlink:href="#m070966acfb" y="362.382375"/>
     <use style="fill:#ff0000;stroke:#ff0000;" x="395.311901" xlink:href="#m070966acfb" y="392.48148"/>
     <use style="fill:#ff0000;stroke:#ff0000;" x="375.427464" xlink:href="#m070966acfb" y="395.637123"/>
     <use style="fill:#ff0000;stroke:#ff0000;" x="368.206099" xlink:href="#m070966acfb" y="424.560691"/>
     <use style="fill:#ff0000;stroke:#ff0000;" x="537.119417" xlink:href="#m070966acfb" y="436.157591"/>
     <use style="fill:#ff0000;stroke:#ff0000;" x="537.403431" xlink:href="#m070966acfb" y="450.571704"/>
     <use style="fill:#ff0000;stroke:#ff0000;" x="395.460431" xlink:href="#m070966acfb" y="524.683741"/>
     <use style="fill:#ff0000;stroke:#ff0000;" x="432.216406" xlink:href="#m070966acfb" y="515.592233"/>
     <use style="fill:#ff0000;stroke:#ff0000;" x="450.820932" xlink:href="#m070966acfb" y="520.685746"/>
     <use style="fill:#ff0000;stroke:#ff0000;" x="460.475315" xlink:href="#m070966acfb" y="538.620564"/>
     <use style="fill:#ff0000;stroke:#ff0000;" x="497.608822" xlink:href="#m070966acfb" y="516.654582"/>
     <use style="fill:#ff0000;stroke:#ff0000;" x="510.338721" xlink:href="#m070966acfb" y="527.585592"/>
     <use style="fill:#ff0000;stroke:#ff0000;" x="541.351749" xlink:href="#m070966acfb" y="522.685528"/>
     <use style="fill:#ff0000;stroke:#ff0000;" x="569.247547" xlink:href="#m070966acfb" y="523.894047"/>
     <use style="fill:#ff0000;stroke:#ff0000;" x="572.147514" xlink:href="#m070966acfb" y="535.852289"/>
     <use style="fill:#ff0000;stroke:#ff0000;" x="583.543638" xlink:href="#m070966acfb" y="541.488413"/>
     <use style="fill:#ff0000;stroke:#ff0000;" x="590.170344" xlink:href="#m070966acfb" y="525.966317"/>
     <use style="fill:#ff0000;stroke:#ff0000;" x="601.943897" xlink:href="#m070966acfb" y="535.263576"/>
     <use style="fill:#ff0000;stroke:#ff0000;" x="609.017894" xlink:href="#m070966acfb" y="542.144413"/>
     <use style="fill:#ff0000;stroke:#ff0000;" x="610.34736" xlink:href="#m070966acfb" y="519.034178"/>
     <use style="fill:#ff0000;stroke:#ff0000;" x="664.69246" xlink:href="#m070966acfb" y="522.231986"/>
     <use style="fill:#ff0000;stroke:#ff0000;" x="696.713901" xlink:href="#m070966acfb" y="548.805183"/>
     <use style="fill:#ff0000;stroke:#ff0000;" x="732.780717" xlink:href="#m070966acfb" y="524.266328"/>
     <use style="fill:#ff0000;stroke:#ff0000;" x="746.535786" xlink:href="#m070966acfb" y="516.18923"/>
     <use style="fill:#ff0000;stroke:#ff0000;" x="763.764813" xlink:href="#m070966acfb" y="516.896708"/>
     <use style="fill:#ff0000;stroke:#ff0000;" x="782.643124" xlink:href="#m070966acfb" y="517.213517"/>
     <use style="fill:#ff0000;stroke:#ff0000;" x="804.675063" xlink:href="#m070966acfb" y="517.511191"/>
     <use style="fill:#ff0000;stroke:#ff0000;" x="922.480583" xlink:href="#m070966acfb" y="549.335685"/>
     <use style="fill:#ff0000;stroke:#ff0000;" x="932.093492" xlink:href="#m070966acfb" y="501.428092"/>
    </g>
   </g>
   <g id="line2d_18">
    <defs>
     <path d="M -0.5 0.5 
L 0.5 0.5 
L 0.5 -0.5 
L -0.5 -0.5 
z
" id="mf12a2177cc" style="stroke:#1f77b4;stroke-linejoin:miter;"/>
    </defs>
    <g clip-path="url(#p22b387f12d)">
     <use style="fill:#1f77b4;stroke:#1f77b4;stroke-linejoin:miter;" x="898.341431" xlink:href="#mf12a2177cc" y="455.828292"/>
     <use style="fill:#1f77b4;stroke:#1f77b4;stroke-linejoin:miter;" x="936.819278" xlink:href="#mf12a2177cc" y="446.885336"/>
     <use style="fill:#1f77b4;stroke:#1f77b4;stroke-linejoin:miter;" x="647.996488" xlink:href="#mf12a2177cc" y="435.160997"/>
     <use style="fill:#1f77b4;stroke:#1f77b4;stroke-linejoin:miter;" x="647.219597" xlink:href="#mf12a2177cc" y="433.301296"/>
     <use style="fill:#1f77b4;stroke:#1f77b4;stroke-linejoin:miter;" x="647.168077" xlink:href="#mf12a2177cc" y="431.371781"/>
     <use style="fill:#1f77b4;stroke:#1f77b4;stroke-linejoin:miter;" x="648.007354" xlink:href="#mf12a2177cc" y="429.401014"/>
     <use style="fill:#1f77b4;stroke:#1f77b4;stroke-linejoin:miter;" x="648.540259" xlink:href="#mf12a2177cc" y="427.357915"/>
     <use style="fill:#1f77b4;stroke:#1f77b4;stroke-linejoin:miter;" x="648.438876" xlink:href="#mf12a2177cc" y="425.336325"/>
     <use style="fill:#1f77b4;stroke:#1f77b4;stroke-linejoin:miter;" x="648.753057" xlink:href="#mf12a2177cc" y="423.246202"/>
     <use style="fill:#1f77b4;stroke:#1f77b4;stroke-linejoin:miter;" x="650.514049" xlink:href="#mf12a2177cc" y="420.745499"/>
     <use style="fill:#1f77b4;stroke:#1f77b4;stroke-linejoin:miter;" x="655.298356" xlink:href="#mf12a2177cc" y="417.209627"/>
     <use style="fill:#1f77b4;stroke:#1f77b4;stroke-linejoin:miter;" x="888.236426" xlink:href="#mf12a2177cc" y="317.459094"/>
     <use style="fill:#1f77b4;stroke:#1f77b4;stroke-linejoin:miter;" x="831.930069" xlink:href="#mf12a2177cc" y="329.177367"/>
     <use style="fill:#1f77b4;stroke:#1f77b4;stroke-linejoin:miter;" x="828.968839" xlink:href="#mf12a2177cc" y="319.559328"/>
     <use style="fill:#1f77b4;stroke:#1f77b4;stroke-linejoin:miter;" x="783.464321" xlink:href="#mf12a2177cc" y="311.398576"/>
     <use style="fill:#1f77b4;stroke:#1f77b4;stroke-linejoin:miter;" x="768.158982" xlink:href="#mf12a2177cc" y="310.48362"/>
     <use style="fill:#1f77b4;stroke:#1f77b4;stroke-linejoin:miter;" x="685.053337" xlink:href="#mf12a2177cc" y="307.423909"/>
     <use style="fill:#1f77b4;stroke:#1f77b4;stroke-linejoin:miter;" x="674.983453" xlink:href="#mf12a2177cc" y="307.893766"/>
     <use style="fill:#1f77b4;stroke:#1f77b4;stroke-linejoin:miter;" x="665.893386" xlink:href="#mf12a2177cc" y="307.710958"/>
     <use style="fill:#1f77b4;stroke:#1f77b4;stroke-linejoin:miter;" x="657.134517" xlink:href="#mf12a2177cc" y="307.300288"/>
     <use style="fill:#1f77b4;stroke:#1f77b4;stroke-linejoin:miter;" x="648.298932" xlink:href="#mf12a2177cc" y="307.492813"/>
     <use style="fill:#1f77b4;stroke:#1f77b4;stroke-linejoin:miter;" x="640.337603" xlink:href="#mf12a2177cc" y="306.681279"/>
     <use style="fill:#1f77b4;stroke:#1f77b4;stroke-linejoin:miter;" x="632.087236" xlink:href="#mf12a2177cc" y="306.305694"/>
     <use style="fill:#1f77b4;stroke:#1f77b4;stroke-linejoin:miter;" x="619.086881" xlink:href="#mf12a2177cc" y="324.559314"/>
     <use style="fill:#1f77b4;stroke:#1f77b4;stroke-linejoin:miter;" x="608.004806" xlink:href="#mf12a2177cc" y="304.962872"/>
     <use style="fill:#1f77b4;stroke:#1f77b4;stroke-linejoin:miter;" x="600.069837" xlink:href="#mf12a2177cc" y="305.648437"/>
     <use style="fill:#1f77b4;stroke:#1f77b4;stroke-linejoin:miter;" x="592.335054" xlink:href="#mf12a2177cc" y="304.139105"/>
     <use style="fill:#1f77b4;stroke:#1f77b4;stroke-linejoin:miter;" x="584.472629" xlink:href="#mf12a2177cc" y="304.692404"/>
     <use style="fill:#1f77b4;stroke:#1f77b4;stroke-linejoin:miter;" x="576.445382" xlink:href="#mf12a2177cc" y="304.195276"/>
     <use style="fill:#1f77b4;stroke:#1f77b4;stroke-linejoin:miter;" x="568.594574" xlink:href="#mf12a2177cc" y="304.283788"/>
     <use style="fill:#1f77b4;stroke:#1f77b4;stroke-linejoin:miter;" x="560.5021" xlink:href="#mf12a2177cc" y="303.853239"/>
     <use style="fill:#1f77b4;stroke:#1f77b4;stroke-linejoin:miter;" x="552.181222" xlink:href="#mf12a2177cc" y="303.405879"/>
     <use style="fill:#1f77b4;stroke:#1f77b4;stroke-linejoin:miter;" x="543.793489" xlink:href="#mf12a2177cc" y="303.229996"/>
     <use style="fill:#1f77b4;stroke:#1f77b4;stroke-linejoin:miter;" x="535.077454" xlink:href="#mf12a2177cc" y="303.043137"/>
     <use style="fill:#1f77b4;stroke:#1f77b4;stroke-linejoin:miter;" x="525.83311" xlink:href="#mf12a2177cc" y="302.199909"/>
     <use style="fill:#1f77b4;stroke:#1f77b4;stroke-linejoin:miter;" x="516.951676" xlink:href="#mf12a2177cc" y="302.435817"/>
     <use style="fill:#1f77b4;stroke:#1f77b4;stroke-linejoin:miter;" x="507.16243" xlink:href="#mf12a2177cc" y="301.969253"/>
     <use style="fill:#1f77b4;stroke:#1f77b4;stroke-linejoin:miter;" x="496.804738" xlink:href="#mf12a2177cc" y="301.447103"/>
     <use style="fill:#1f77b4;stroke:#1f77b4;stroke-linejoin:miter;" x="487.90393" xlink:href="#mf12a2177cc" y="303.195617"/>
     <use style="fill:#1f77b4;stroke:#1f77b4;stroke-linejoin:miter;" x="476.533068" xlink:href="#mf12a2177cc" y="302.651239"/>
     <use style="fill:#1f77b4;stroke:#1f77b4;stroke-linejoin:miter;" x="465.197624" xlink:href="#mf12a2177cc" y="302.76973"/>
     <use style="fill:#1f77b4;stroke:#1f77b4;stroke-linejoin:miter;" x="452.701839" xlink:href="#mf12a2177cc" y="302.297058"/>
     <use style="fill:#1f77b4;stroke:#1f77b4;stroke-linejoin:miter;" x="438.801296" xlink:href="#mf12a2177cc" y="301.618391"/>
     <use style="fill:#1f77b4;stroke:#1f77b4;stroke-linejoin:miter;" x="424.844614" xlink:href="#mf12a2177cc" y="301.911151"/>
     <use style="fill:#1f77b4;stroke:#1f77b4;stroke-linejoin:miter;" x="416.723912" xlink:href="#mf12a2177cc" y="307.255751"/>
     <use style="fill:#1f77b4;stroke:#1f77b4;stroke-linejoin:miter;" x="402.155303" xlink:href="#mf12a2177cc" y="308.205396"/>
     <use style="fill:#1f77b4;stroke:#1f77b4;stroke-linejoin:miter;" x="396.779337" xlink:href="#mf12a2177cc" y="315.991549"/>
     <use style="fill:#1f77b4;stroke:#1f77b4;stroke-linejoin:miter;" x="398.064617" xlink:href="#mf12a2177cc" y="346.218786"/>
     <use style="fill:#1f77b4;stroke:#1f77b4;stroke-linejoin:miter;" x="388.366471" xlink:href="#mf12a2177cc" y="350.710171"/>
     <use style="fill:#1f77b4;stroke:#1f77b4;stroke-linejoin:miter;" x="373.385921" xlink:href="#mf12a2177cc" y="353.53517"/>
     <use style="fill:#1f77b4;stroke:#1f77b4;stroke-linejoin:miter;" x="372.83082" xlink:href="#mf12a2177cc" y="362.382375"/>
     <use style="fill:#1f77b4;stroke:#1f77b4;stroke-linejoin:miter;" x="395.311901" xlink:href="#mf12a2177cc" y="392.48148"/>
     <use style="fill:#1f77b4;stroke:#1f77b4;stroke-linejoin:miter;" x="375.427464" xlink:href="#mf12a2177cc" y="395.637123"/>
     <use style="fill:#1f77b4;stroke:#1f77b4;stroke-linejoin:miter;" x="370.191302" xlink:href="#mf12a2177cc" y="402.189023"/>
     <use style="fill:#1f77b4;stroke:#1f77b4;stroke-linejoin:miter;" x="369.471351" xlink:href="#mf12a2177cc" y="409.739092"/>
     <use style="fill:#1f77b4;stroke:#1f77b4;stroke-linejoin:miter;" x="368.769595" xlink:href="#mf12a2177cc" y="417.138418"/>
     <use style="fill:#1f77b4;stroke:#1f77b4;stroke-linejoin:miter;" x="368.206099" xlink:href="#mf12a2177cc" y="424.560691"/>
     <use style="fill:#1f77b4;stroke:#1f77b4;stroke-linejoin:miter;" x="537.119417" xlink:href="#mf12a2177cc" y="436.157591"/>
     <use style="fill:#1f77b4;stroke:#1f77b4;stroke-linejoin:miter;" x="537.282" xlink:href="#mf12a2177cc" y="437.767063"/>
     <use style="fill:#1f77b4;stroke:#1f77b4;stroke-linejoin:miter;" x="537.234816" xlink:href="#mf12a2177cc" y="439.579256"/>
     <use style="fill:#1f77b4;stroke:#1f77b4;stroke-linejoin:miter;" x="537.384965" xlink:href="#mf12a2177cc" y="441.334692"/>
     <use style="fill:#1f77b4;stroke:#1f77b4;stroke-linejoin:miter;" x="537.52717" xlink:href="#mf12a2177cc" y="443.08995"/>
     <use style="fill:#1f77b4;stroke:#1f77b4;stroke-linejoin:miter;" x="537.437806" xlink:href="#mf12a2177cc" y="444.866236"/>
     <use style="fill:#1f77b4;stroke:#1f77b4;stroke-linejoin:miter;" x="537.39472" xlink:href="#mf12a2177cc" y="446.718819"/>
     <use style="fill:#1f77b4;stroke:#1f77b4;stroke-linejoin:miter;" x="537.16459" xlink:href="#mf12a2177cc" y="448.661268"/>
     <use style="fill:#1f77b4;stroke:#1f77b4;stroke-linejoin:miter;" x="537.403431" xlink:href="#mf12a2177cc" y="450.571704"/>
     <use style="fill:#1f77b4;stroke:#1f77b4;stroke-linejoin:miter;" x="395.460431" xlink:href="#mf12a2177cc" y="524.683741"/>
     <use style="fill:#1f77b4;stroke:#1f77b4;stroke-linejoin:miter;" x="432.216406" xlink:href="#mf12a2177cc" y="515.592233"/>
     <use style="fill:#1f77b4;stroke:#1f77b4;stroke-linejoin:miter;" x="443.432728" xlink:href="#mf12a2177cc" y="517.402563"/>
     <use style="fill:#1f77b4;stroke:#1f77b4;stroke-linejoin:miter;" x="450.820932" xlink:href="#mf12a2177cc" y="520.685746"/>
     <use style="fill:#1f77b4;stroke:#1f77b4;stroke-linejoin:miter;" x="444.796288" xlink:href="#mf12a2177cc" y="532.41669"/>
     <use style="fill:#1f77b4;stroke:#1f77b4;stroke-linejoin:miter;" x="450.799221" xlink:href="#mf12a2177cc" y="537.105331"/>
     <use style="fill:#1f77b4;stroke:#1f77b4;stroke-linejoin:miter;" x="460.475315" xlink:href="#mf12a2177cc" y="538.620564"/>
     <use style="fill:#1f77b4;stroke:#1f77b4;stroke-linejoin:miter;" x="497.608822" xlink:href="#mf12a2177cc" y="516.654582"/>
     <use style="fill:#1f77b4;stroke:#1f77b4;stroke-linejoin:miter;" x="504.91484" xlink:href="#mf12a2177cc" y="517.259471"/>
     <use style="fill:#1f77b4;stroke:#1f77b4;stroke-linejoin:miter;" x="508.10333" xlink:href="#mf12a2177cc" y="521.750246"/>
     <use style="fill:#1f77b4;stroke:#1f77b4;stroke-linejoin:miter;" x="510.338721" xlink:href="#mf12a2177cc" y="527.585592"/>
     <use style="fill:#1f77b4;stroke:#1f77b4;stroke-linejoin:miter;" x="541.351749" xlink:href="#mf12a2177cc" y="522.685528"/>
     <use style="fill:#1f77b4;stroke:#1f77b4;stroke-linejoin:miter;" x="547.70391" xlink:href="#mf12a2177cc" y="521.983618"/>
     <use style="fill:#1f77b4;stroke:#1f77b4;stroke-linejoin:miter;" x="569.247547" xlink:href="#mf12a2177cc" y="523.894047"/>
     <use style="fill:#1f77b4;stroke:#1f77b4;stroke-linejoin:miter;" x="572.147514" xlink:href="#mf12a2177cc" y="535.852289"/>
     <use style="fill:#1f77b4;stroke:#1f77b4;stroke-linejoin:miter;" x="577.495223" xlink:href="#mf12a2177cc" y="540.659415"/>
     <use style="fill:#1f77b4;stroke:#1f77b4;stroke-linejoin:miter;" x="583.543638" xlink:href="#mf12a2177cc" y="541.488413"/>
     <use style="fill:#1f77b4;stroke:#1f77b4;stroke-linejoin:miter;" x="590.170344" xlink:href="#mf12a2177cc" y="525.966317"/>
     <use style="fill:#1f77b4;stroke:#1f77b4;stroke-linejoin:miter;" x="595.623676" xlink:href="#mf12a2177cc" y="530.792765"/>
     <use style="fill:#1f77b4;stroke:#1f77b4;stroke-linejoin:miter;" x="601.943897" xlink:href="#mf12a2177cc" y="535.263576"/>
     <use style="fill:#1f77b4;stroke:#1f77b4;stroke-linejoin:miter;" x="609.017894" xlink:href="#mf12a2177cc" y="542.144413"/>
     <use style="fill:#1f77b4;stroke:#1f77b4;stroke-linejoin:miter;" x="610.34736" xlink:href="#mf12a2177cc" y="519.034178"/>
     <use style="fill:#1f77b4;stroke:#1f77b4;stroke-linejoin:miter;" x="615.669986" xlink:href="#mf12a2177cc" y="519.855011"/>
     <use style="fill:#1f77b4;stroke:#1f77b4;stroke-linejoin:miter;" x="620.973324" xlink:href="#mf12a2177cc" y="519.973508"/>
     <use style="fill:#1f77b4;stroke:#1f77b4;stroke-linejoin:miter;" x="625.885839" xlink:href="#mf12a2177cc" y="518.926888"/>
     <use style="fill:#1f77b4;stroke:#1f77b4;stroke-linejoin:miter;" x="632.600451" xlink:href="#mf12a2177cc" y="521.486967"/>
     <use style="fill:#1f77b4;stroke:#1f77b4;stroke-linejoin:miter;" x="638.725049" xlink:href="#mf12a2177cc" y="521.997381"/>
     <use style="fill:#1f77b4;stroke:#1f77b4;stroke-linejoin:miter;" x="645.222213" xlink:href="#mf12a2177cc" y="522.632102"/>
     <use style="fill:#1f77b4;stroke:#1f77b4;stroke-linejoin:miter;" x="651.746234" xlink:href="#mf12a2177cc" y="522.976284"/>
     <use style="fill:#1f77b4;stroke:#1f77b4;stroke-linejoin:miter;" x="658.354133" xlink:href="#mf12a2177cc" y="522.985331"/>
     <use style="fill:#1f77b4;stroke:#1f77b4;stroke-linejoin:miter;" x="664.69246" xlink:href="#mf12a2177cc" y="522.231986"/>
     <use style="fill:#1f77b4;stroke:#1f77b4;stroke-linejoin:miter;" x="696.713901" xlink:href="#mf12a2177cc" y="548.805183"/>
     <use style="fill:#1f77b4;stroke:#1f77b4;stroke-linejoin:miter;" x="701.659261" xlink:href="#mf12a2177cc" y="543.575861"/>
     <use style="fill:#1f77b4;stroke:#1f77b4;stroke-linejoin:miter;" x="706.239318" xlink:href="#mf12a2177cc" y="538.340496"/>
     <use style="fill:#1f77b4;stroke:#1f77b4;stroke-linejoin:miter;" x="709.996981" xlink:href="#mf12a2177cc" y="532.675706"/>
     <use style="fill:#1f77b4;stroke:#1f77b4;stroke-linejoin:miter;" x="714.604774" xlink:href="#mf12a2177cc" y="527.868464"/>
     <use style="fill:#1f77b4;stroke:#1f77b4;stroke-linejoin:miter;" x="719.310348" xlink:href="#mf12a2177cc" y="523.335101"/>
     <use style="fill:#1f77b4;stroke:#1f77b4;stroke-linejoin:miter;" x="732.780717" xlink:href="#mf12a2177cc" y="524.266328"/>
     <use style="fill:#1f77b4;stroke:#1f77b4;stroke-linejoin:miter;" x="743.597823" xlink:href="#mf12a2177cc" y="522.343536"/>
     <use style="fill:#1f77b4;stroke:#1f77b4;stroke-linejoin:miter;" x="746.535786" xlink:href="#mf12a2177cc" y="516.18923"/>
     <use style="fill:#1f77b4;stroke:#1f77b4;stroke-linejoin:miter;" x="763.764813" xlink:href="#mf12a2177cc" y="516.896708"/>
     <use style="fill:#1f77b4;stroke:#1f77b4;stroke-linejoin:miter;" x="782.643124" xlink:href="#mf12a2177cc" y="517.213517"/>
     <use style="fill:#1f77b4;stroke:#1f77b4;stroke-linejoin:miter;" x="804.675063" xlink:href="#mf12a2177cc" y="517.511191"/>
     <use style="fill:#1f77b4;stroke:#1f77b4;stroke-linejoin:miter;" x="922.480583" xlink:href="#mf12a2177cc" y="549.335685"/>
     <use style="fill:#1f77b4;stroke:#1f77b4;stroke-linejoin:miter;" x="930.178127" xlink:href="#mf12a2177cc" y="538.615201"/>
     <use style="fill:#1f77b4;stroke:#1f77b4;stroke-linejoin:miter;" x="932.093492" xlink:href="#mf12a2177cc" y="501.428092"/>
    </g>
   </g>
   <g id="patch_3">
    <path d="M 144 768.96 
L 144 103.68 
" style="fill:none;stroke:#000000;stroke-linecap:square;stroke-linejoin:miter;stroke-width:0.8;"/>
   </g>
   <g id="patch_4">
    <path d="M 1036.8 768.96 
L 1036.8 103.68 
" style="fill:none;stroke:#000000;stroke-linecap:square;stroke-linejoin:miter;stroke-width:0.8;"/>
   </g>
   <g id="patch_5">
    <path d="M 144 768.96 
L 1036.8 768.96 
" style="fill:none;stroke:#000000;stroke-linecap:square;stroke-linejoin:miter;stroke-width:0.8;"/>
   </g>
   <g id="patch_6">
    <path d="M 144 103.68 
L 1036.8 103.68 
" style="fill:none;stroke:#000000;stroke-linecap:square;stroke-linejoin:miter;stroke-width:0.8;"/>
   </g>
  </g>
 </g>
 <defs>
  <clipPath id="p22b387f12d">
   <rect height="665.28" width="892.8" x="144" y="103.68"/>
  </clipPath>
 </defs>
</svg>
