<?xml version="1.0" encoding="utf-8" standalone="no"?>
<!DOCTYPE svg PUBLIC "-//W3C//DTD SVG 1.1//EN"
  "http://www.w3.org/Graphics/SVG/1.1/DTD/svg11.dtd">
<!-- Created with matplotlib (http://matplotlib.org/) -->
<svg height="864pt" version="1.1" viewBox="0 0 1152 864" width="1152pt" xmlns="http://www.w3.org/2000/svg" xmlns:xlink="http://www.w3.org/1999/xlink">
 <defs>
  <style type="text/css">
*{stroke-linecap:butt;stroke-linejoin:round;}
  </style>
 </defs>
 <g id="figure_1">
  <g id="patch_1">
   <path d="M 0 864 
L 1152 864 
L 1152 0 
L 0 0 
z
" style="fill:#ffffff;"/>
  </g>
  <g id="axes_1">
   <g id="patch_2">
    <path d="M 144 768.96 
L 1036.8 768.96 
L 1036.8 103.68 
L 144 103.68 
z
" style="fill:#ffffff;"/>
   </g>
   <g id="matplotlib.axis_1">
    <g id="xtick_1">
     <g id="line2d_1">
      <defs>
       <path d="M 0 0 
L 0 3.5 
" id="mb2fc9d6c62" style="stroke:#000000;stroke-width:0.8;"/>
      </defs>
      <g>
       <use style="stroke:#000000;stroke-width:0.8;" x="207.771429" xlink:href="#mb2fc9d6c62" y="768.96"/>
      </g>
     </g>
     <g id="text_1">
      <!-- −6000 -->
      <defs>
       <path d="M 10.59375 35.5 
L 73.1875 35.5 
L 73.1875 27.203125 
L 10.59375 27.203125 
z
" id="DejaVuSans-2212"/>
       <path d="M 33.015625 40.375 
Q 26.375 40.375 22.484375 35.828125 
Q 18.609375 31.296875 18.609375 23.390625 
Q 18.609375 15.53125 22.484375 10.953125 
Q 26.375 6.390625 33.015625 6.390625 
Q 39.65625 6.390625 43.53125 10.953125 
Q 47.40625 15.53125 47.40625 23.390625 
Q 47.40625 31.296875 43.53125 35.828125 
Q 39.65625 40.375 33.015625 40.375 
z
M 52.59375 71.296875 
L 52.59375 62.3125 
Q 48.875 64.0625 45.09375 64.984375 
Q 41.3125 65.921875 37.59375 65.921875 
Q 27.828125 65.921875 22.671875 59.328125 
Q 17.53125 52.734375 16.796875 39.40625 
Q 19.671875 43.65625 24.015625 45.921875 
Q 28.375 48.1875 33.59375 48.1875 
Q 44.578125 48.1875 50.953125 41.515625 
Q 57.328125 34.859375 57.328125 23.390625 
Q 57.328125 12.15625 50.6875 5.359375 
Q 44.046875 -1.421875 33.015625 -1.421875 
Q 20.359375 -1.421875 13.671875 8.265625 
Q 6.984375 17.96875 6.984375 36.375 
Q 6.984375 53.65625 15.1875 63.9375 
Q 23.390625 74.21875 37.203125 74.21875 
Q 40.921875 74.21875 44.703125 73.484375 
Q 48.484375 72.75 52.59375 71.296875 
z
" id="DejaVuSans-36"/>
       <path d="M 31.78125 66.40625 
Q 24.171875 66.40625 20.328125 58.90625 
Q 16.5 51.421875 16.5 36.375 
Q 16.5 21.390625 20.328125 13.890625 
Q 24.171875 6.390625 31.78125 6.390625 
Q 39.453125 6.390625 43.28125 13.890625 
Q 47.125 21.390625 47.125 36.375 
Q 47.125 51.421875 43.28125 58.90625 
Q 39.453125 66.40625 31.78125 66.40625 
z
M 31.78125 74.21875 
Q 44.046875 74.21875 50.515625 64.515625 
Q 56.984375 54.828125 56.984375 36.375 
Q 56.984375 17.96875 50.515625 8.265625 
Q 44.046875 -1.421875 31.78125 -1.421875 
Q 19.53125 -1.421875 13.0625 8.265625 
Q 6.59375 17.96875 6.59375 36.375 
Q 6.59375 54.828125 13.0625 64.515625 
Q 19.53125 74.21875 31.78125 74.21875 
z
" id="DejaVuSans-30"/>
      </defs>
      <g transform="translate(190.856585 783.558437)scale(0.1 -0.1)">
       <use xlink:href="#DejaVuSans-2212"/>
       <use x="83.789062" xlink:href="#DejaVuSans-36"/>
       <use x="147.412109" xlink:href="#DejaVuSans-30"/>
       <use x="211.035156" xlink:href="#DejaVuSans-30"/>
       <use x="274.658203" xlink:href="#DejaVuSans-30"/>
      </g>
     </g>
    </g>
    <g id="xtick_2">
     <g id="line2d_2">
      <g>
       <use style="stroke:#000000;stroke-width:0.8;" x="335.314286" xlink:href="#mb2fc9d6c62" y="768.96"/>
      </g>
     </g>
     <g id="text_2">
      <!-- −4000 -->
      <defs>
       <path d="M 37.796875 64.3125 
L 12.890625 25.390625 
L 37.796875 25.390625 
z
M 35.203125 72.90625 
L 47.609375 72.90625 
L 47.609375 25.390625 
L 58.015625 25.390625 
L 58.015625 17.1875 
L 47.609375 17.1875 
L 47.609375 0 
L 37.796875 0 
L 37.796875 17.1875 
L 4.890625 17.1875 
L 4.890625 26.703125 
z
" id="DejaVuSans-34"/>
      </defs>
      <g transform="translate(318.399442 783.558437)scale(0.1 -0.1)">
       <use xlink:href="#DejaVuSans-2212"/>
       <use x="83.789062" xlink:href="#DejaVuSans-34"/>
       <use x="147.412109" xlink:href="#DejaVuSans-30"/>
       <use x="211.035156" xlink:href="#DejaVuSans-30"/>
       <use x="274.658203" xlink:href="#DejaVuSans-30"/>
      </g>
     </g>
    </g>
    <g id="xtick_3">
     <g id="line2d_3">
      <g>
       <use style="stroke:#000000;stroke-width:0.8;" x="462.857143" xlink:href="#mb2fc9d6c62" y="768.96"/>
      </g>
     </g>
     <g id="text_3">
      <!-- −2000 -->
      <defs>
       <path d="M 19.1875 8.296875 
L 53.609375 8.296875 
L 53.609375 0 
L 7.328125 0 
L 7.328125 8.296875 
Q 12.9375 14.109375 22.625 23.890625 
Q 32.328125 33.6875 34.8125 36.53125 
Q 39.546875 41.84375 41.421875 45.53125 
Q 43.3125 49.21875 43.3125 52.78125 
Q 43.3125 58.59375 39.234375 62.25 
Q 35.15625 65.921875 28.609375 65.921875 
Q 23.96875 65.921875 18.8125 64.3125 
Q 13.671875 62.703125 7.8125 59.421875 
L 7.8125 69.390625 
Q 13.765625 71.78125 18.9375 73 
Q 24.125 74.21875 28.421875 74.21875 
Q 39.75 74.21875 46.484375 68.546875 
Q 53.21875 62.890625 53.21875 53.421875 
Q 53.21875 48.921875 51.53125 44.890625 
Q 49.859375 40.875 45.40625 35.40625 
Q 44.1875 33.984375 37.640625 27.21875 
Q 31.109375 20.453125 19.1875 8.296875 
z
" id="DejaVuSans-32"/>
      </defs>
      <g transform="translate(445.942299 783.558437)scale(0.1 -0.1)">
       <use xlink:href="#DejaVuSans-2212"/>
       <use x="83.789062" xlink:href="#DejaVuSans-32"/>
       <use x="147.412109" xlink:href="#DejaVuSans-30"/>
       <use x="211.035156" xlink:href="#DejaVuSans-30"/>
       <use x="274.658203" xlink:href="#DejaVuSans-30"/>
      </g>
     </g>
    </g>
    <g id="xtick_4">
     <g id="line2d_4">
      <g>
       <use style="stroke:#000000;stroke-width:0.8;" x="590.4" xlink:href="#mb2fc9d6c62" y="768.96"/>
      </g>
     </g>
     <g id="text_4">
      <!-- 0 -->
      <g transform="translate(587.21875 783.558437)scale(0.1 -0.1)">
       <use xlink:href="#DejaVuSans-30"/>
      </g>
     </g>
    </g>
    <g id="xtick_5">
     <g id="line2d_5">
      <g>
       <use style="stroke:#000000;stroke-width:0.8;" x="717.942857" xlink:href="#mb2fc9d6c62" y="768.96"/>
      </g>
     </g>
     <g id="text_5">
      <!-- 2000 -->
      <g transform="translate(705.217857 783.558437)scale(0.1 -0.1)">
       <use xlink:href="#DejaVuSans-32"/>
       <use x="63.623047" xlink:href="#DejaVuSans-30"/>
       <use x="127.246094" xlink:href="#DejaVuSans-30"/>
       <use x="190.869141" xlink:href="#DejaVuSans-30"/>
      </g>
     </g>
    </g>
    <g id="xtick_6">
     <g id="line2d_6">
      <g>
       <use style="stroke:#000000;stroke-width:0.8;" x="845.485714" xlink:href="#mb2fc9d6c62" y="768.96"/>
      </g>
     </g>
     <g id="text_6">
      <!-- 4000 -->
      <g transform="translate(832.760714 783.558437)scale(0.1 -0.1)">
       <use xlink:href="#DejaVuSans-34"/>
       <use x="63.623047" xlink:href="#DejaVuSans-30"/>
       <use x="127.246094" xlink:href="#DejaVuSans-30"/>
       <use x="190.869141" xlink:href="#DejaVuSans-30"/>
      </g>
     </g>
    </g>
    <g id="xtick_7">
     <g id="line2d_7">
      <g>
       <use style="stroke:#000000;stroke-width:0.8;" x="973.028571" xlink:href="#mb2fc9d6c62" y="768.96"/>
      </g>
     </g>
     <g id="text_7">
      <!-- 6000 -->
      <g transform="translate(960.303571 783.558437)scale(0.1 -0.1)">
       <use xlink:href="#DejaVuSans-36"/>
       <use x="63.623047" xlink:href="#DejaVuSans-30"/>
       <use x="127.246094" xlink:href="#DejaVuSans-30"/>
       <use x="190.869141" xlink:href="#DejaVuSans-30"/>
      </g>
     </g>
    </g>
   </g>
   <g id="matplotlib.axis_2">
    <g id="ytick_1">
     <g id="line2d_8">
      <defs>
       <path d="M 0 0 
L -3.5 0 
" id="m97d85a52d8" style="stroke:#000000;stroke-width:0.8;"/>
      </defs>
      <g>
       <use style="stroke:#000000;stroke-width:0.8;" x="144" xlink:href="#m97d85a52d8" y="721.44"/>
      </g>
     </g>
     <g id="text_8">
      <!-- −6000 -->
      <g transform="translate(103.170312 725.239219)scale(0.1 -0.1)">
       <use xlink:href="#DejaVuSans-2212"/>
       <use x="83.789062" xlink:href="#DejaVuSans-36"/>
       <use x="147.412109" xlink:href="#DejaVuSans-30"/>
       <use x="211.035156" xlink:href="#DejaVuSans-30"/>
       <use x="274.658203" xlink:href="#DejaVuSans-30"/>
      </g>
     </g>
    </g>
    <g id="ytick_2">
     <g id="line2d_9">
      <g>
       <use style="stroke:#000000;stroke-width:0.8;" x="144" xlink:href="#m97d85a52d8" y="626.4"/>
      </g>
     </g>
     <g id="text_9">
      <!-- −4000 -->
      <g transform="translate(103.170312 630.199219)scale(0.1 -0.1)">
       <use xlink:href="#DejaVuSans-2212"/>
       <use x="83.789062" xlink:href="#DejaVuSans-34"/>
       <use x="147.412109" xlink:href="#DejaVuSans-30"/>
       <use x="211.035156" xlink:href="#DejaVuSans-30"/>
       <use x="274.658203" xlink:href="#DejaVuSans-30"/>
      </g>
     </g>
    </g>
    <g id="ytick_3">
     <g id="line2d_10">
      <g>
       <use style="stroke:#000000;stroke-width:0.8;" x="144" xlink:href="#m97d85a52d8" y="531.36"/>
      </g>
     </g>
     <g id="text_10">
      <!-- −2000 -->
      <g transform="translate(103.170312 535.159219)scale(0.1 -0.1)">
       <use xlink:href="#DejaVuSans-2212"/>
       <use x="83.789062" xlink:href="#DejaVuSans-32"/>
       <use x="147.412109" xlink:href="#DejaVuSans-30"/>
       <use x="211.035156" xlink:href="#DejaVuSans-30"/>
       <use x="274.658203" xlink:href="#DejaVuSans-30"/>
      </g>
     </g>
    </g>
    <g id="ytick_4">
     <g id="line2d_11">
      <g>
       <use style="stroke:#000000;stroke-width:0.8;" x="144" xlink:href="#m97d85a52d8" y="436.32"/>
      </g>
     </g>
     <g id="text_11">
      <!-- 0 -->
      <g transform="translate(130.6375 440.119219)scale(0.1 -0.1)">
       <use xlink:href="#DejaVuSans-30"/>
      </g>
     </g>
    </g>
    <g id="ytick_5">
     <g id="line2d_12">
      <g>
       <use style="stroke:#000000;stroke-width:0.8;" x="144" xlink:href="#m97d85a52d8" y="341.28"/>
      </g>
     </g>
     <g id="text_12">
      <!-- 2000 -->
      <g transform="translate(111.55 345.079219)scale(0.1 -0.1)">
       <use xlink:href="#DejaVuSans-32"/>
       <use x="63.623047" xlink:href="#DejaVuSans-30"/>
       <use x="127.246094" xlink:href="#DejaVuSans-30"/>
       <use x="190.869141" xlink:href="#DejaVuSans-30"/>
      </g>
     </g>
    </g>
    <g id="ytick_6">
     <g id="line2d_13">
      <g>
       <use style="stroke:#000000;stroke-width:0.8;" x="144" xlink:href="#m97d85a52d8" y="246.24"/>
      </g>
     </g>
     <g id="text_13">
      <!-- 4000 -->
      <g transform="translate(111.55 250.039219)scale(0.1 -0.1)">
       <use xlink:href="#DejaVuSans-34"/>
       <use x="63.623047" xlink:href="#DejaVuSans-30"/>
       <use x="127.246094" xlink:href="#DejaVuSans-30"/>
       <use x="190.869141" xlink:href="#DejaVuSans-30"/>
      </g>
     </g>
    </g>
    <g id="ytick_7">
     <g id="line2d_14">
      <g>
       <use style="stroke:#000000;stroke-width:0.8;" x="144" xlink:href="#m97d85a52d8" y="151.2"/>
      </g>
     </g>
     <g id="text_14">
      <!-- 6000 -->
      <g transform="translate(111.55 154.999219)scale(0.1 -0.1)">
       <use xlink:href="#DejaVuSans-36"/>
       <use x="63.623047" xlink:href="#DejaVuSans-30"/>
       <use x="127.246094" xlink:href="#DejaVuSans-30"/>
       <use x="190.869141" xlink:href="#DejaVuSans-30"/>
      </g>
     </g>
    </g>
   </g>
   <g id="line2d_15">
    <path clip-path="url(#p6b80182746)" d="M 590.4 768.96 
L 590.4 103.68 
" style="fill:none;stroke:#1f77b4;stroke-linecap:square;stroke-width:1.5;"/>
   </g>
   <g id="line2d_16">
    <path clip-path="url(#p6b80182746)" d="M 144 436.32 
L 1036.8 436.32 
" style="fill:none;stroke:#1f77b4;stroke-linecap:square;stroke-width:1.5;"/>
   </g>
   <g id="line2d_17">
    <defs>
     <path d="M 0 1.333333 
C 0.353604 1.333333 0.692773 1.192845 0.942809 0.942809 
C 1.192845 0.692773 1.333333 0.353604 1.333333 0 
C 1.333333 -0.353604 1.192845 -0.692773 0.942809 -0.942809 
C 0.692773 -1.192845 0.353604 -1.333333 0 -1.333333 
C -0.353604 -1.333333 -0.692773 -1.192845 -0.942809 -0.942809 
C -1.192845 -0.692773 -1.333333 -0.353604 -1.333333 0 
C -1.333333 0.353604 -1.192845 0.692773 -0.942809 0.942809 
C -0.692773 1.192845 -0.353604 1.333333 0 1.333333 
z
" id="med9ed12632" style="stroke:#ff0000;"/>
    </defs>
    <g clip-path="url(#p6b80182746)">
     <use style="fill:#ff0000;stroke:#ff0000;" x="897.670357" xlink:href="#med9ed12632" y="454.214363"/>
     <use style="fill:#ff0000;stroke:#ff0000;" x="951.609831" xlink:href="#med9ed12632" y="444.102768"/>
     <use style="fill:#ff0000;stroke:#ff0000;" x="938.553212" xlink:href="#med9ed12632" y="417.823359"/>
     <use style="fill:#ff0000;stroke:#ff0000;" x="918.412402" xlink:href="#med9ed12632" y="406.579341"/>
     <use style="fill:#ff0000;stroke:#ff0000;" x="656.938269" xlink:href="#med9ed12632" y="413.199654"/>
     <use style="fill:#ff0000;stroke:#ff0000;" x="658.640784" xlink:href="#med9ed12632" y="402.662861"/>
     <use style="fill:#ff0000;stroke:#ff0000;" x="659.521272" xlink:href="#med9ed12632" y="394.494448"/>
     <use style="fill:#ff0000;stroke:#ff0000;" x="764.717184" xlink:href="#med9ed12632" y="310.333604"/>
     <use style="fill:#ff0000;stroke:#ff0000;" x="685.188292" xlink:href="#med9ed12632" y="307.573833"/>
     <use style="fill:#ff0000;stroke:#ff0000;" x="626.108511" xlink:href="#med9ed12632" y="306.800602"/>
     <use style="fill:#ff0000;stroke:#ff0000;" x="613.315181" xlink:href="#med9ed12632" y="324.158343"/>
     <use style="fill:#ff0000;stroke:#ff0000;" x="608.261015" xlink:href="#med9ed12632" y="305.220898"/>
     <use style="fill:#ff0000;stroke:#ff0000;" x="455.488785" xlink:href="#med9ed12632" y="302.987036"/>
     <use style="fill:#ff0000;stroke:#ff0000;" x="440.281204" xlink:href="#med9ed12632" y="302.415005"/>
     <use style="fill:#ff0000;stroke:#ff0000;" x="395.563656" xlink:href="#med9ed12632" y="307.518258"/>
     <use style="fill:#ff0000;stroke:#ff0000;" x="393.814788" xlink:href="#med9ed12632" y="319.013692"/>
     <use style="fill:#ff0000;stroke:#ff0000;" x="397.429762" xlink:href="#med9ed12632" y="343.161964"/>
     <use style="fill:#ff0000;stroke:#ff0000;" x="373.784743" xlink:href="#med9ed12632" y="353.242373"/>
     <use style="fill:#ff0000;stroke:#ff0000;" x="372.202207" xlink:href="#med9ed12632" y="362.810544"/>
     <use style="fill:#ff0000;stroke:#ff0000;" x="377.708937" xlink:href="#med9ed12632" y="391.808017"/>
     <use style="fill:#ff0000;stroke:#ff0000;" x="369.923868" xlink:href="#med9ed12632" y="424.156173"/>
     <use style="fill:#ff0000;stroke:#ff0000;" x="537.087371" xlink:href="#med9ed12632" y="436.189995"/>
     <use style="fill:#ff0000;stroke:#ff0000;" x="537.435914" xlink:href="#med9ed12632" y="450.392898"/>
     <use style="fill:#ff0000;stroke:#ff0000;" x="379.139486" xlink:href="#med9ed12632" y="516.477037"/>
     <use style="fill:#ff0000;stroke:#ff0000;" x="405.23288" xlink:href="#med9ed12632" y="535.080762"/>
     <use style="fill:#ff0000;stroke:#ff0000;" x="435.585259" xlink:href="#med9ed12632" y="528.08304"/>
     <use style="fill:#ff0000;stroke:#ff0000;" x="451.131602" xlink:href="#med9ed12632" y="537.360343"/>
     <use style="fill:#ff0000;stroke:#ff0000;" x="499.4979" xlink:href="#med9ed12632" y="517.179742"/>
     <use style="fill:#ff0000;stroke:#ff0000;" x="508.338896" xlink:href="#med9ed12632" y="525.918731"/>
     <use style="fill:#ff0000;stroke:#ff0000;" x="506.574003" xlink:href="#med9ed12632" y="538.251802"/>
     <use style="fill:#ff0000;stroke:#ff0000;" x="522.258373" xlink:href="#med9ed12632" y="529.535354"/>
     <use style="fill:#ff0000;stroke:#ff0000;" x="541.591645" xlink:href="#med9ed12632" y="522.722292"/>
     <use style="fill:#ff0000;stroke:#ff0000;" x="566.38562" xlink:href="#med9ed12632" y="524.768448"/>
     <use style="fill:#ff0000;stroke:#ff0000;" x="570.621587" xlink:href="#med9ed12632" y="532.951179"/>
     <use style="fill:#ff0000;stroke:#ff0000;" x="583.088152" xlink:href="#med9ed12632" y="540.828989"/>
     <use style="fill:#ff0000;stroke:#ff0000;" x="590.301367" xlink:href="#med9ed12632" y="526.15653"/>
     <use style="fill:#ff0000;stroke:#ff0000;" x="596.915792" xlink:href="#med9ed12632" y="539.157526"/>
     <use style="fill:#ff0000;stroke:#ff0000;" x="611.193794" xlink:href="#med9ed12632" y="539.997663"/>
     <use style="fill:#ff0000;stroke:#ff0000;" x="613.029387" xlink:href="#med9ed12632" y="519.086509"/>
     <use style="fill:#ff0000;stroke:#ff0000;" x="669.865557" xlink:href="#med9ed12632" y="523.800236"/>
     <use style="fill:#ff0000;stroke:#ff0000;" x="700.352383" xlink:href="#med9ed12632" y="545.853566"/>
     <use style="fill:#ff0000;stroke:#ff0000;" x="720.792681" xlink:href="#med9ed12632" y="523.280127"/>
     <use style="fill:#ff0000;stroke:#ff0000;" x="736.459923" xlink:href="#med9ed12632" y="524.406303"/>
     <use style="fill:#ff0000;stroke:#ff0000;" x="738.331151" xlink:href="#med9ed12632" y="516.362728"/>
     <use style="fill:#ff0000;stroke:#ff0000;" x="754.363747" xlink:href="#med9ed12632" y="516.233919"/>
     <use style="fill:#ff0000;stroke:#ff0000;" x="774.520877" xlink:href="#med9ed12632" y="516.63366"/>
     <use style="fill:#ff0000;stroke:#ff0000;" x="800.085407" xlink:href="#med9ed12632" y="517.820856"/>
     <use style="fill:#ff0000;stroke:#ff0000;" x="921.092009" xlink:href="#med9ed12632" y="550.1652"/>
     <use style="fill:#ff0000;stroke:#ff0000;" x="928.264527" xlink:href="#med9ed12632" y="537.799567"/>
     <use style="fill:#ff0000;stroke:#ff0000;" x="931.458818" xlink:href="#med9ed12632" y="483.494466"/>
    </g>
   </g>
   <g id="line2d_18">
    <defs>
     <path d="M -0.5 0.5 
L 0.5 0.5 
L 0.5 -0.5 
L -0.5 -0.5 
z
" id="m3ebf144b5d" style="stroke:#1f77b4;stroke-linejoin:miter;"/>
    </defs>
    <g clip-path="url(#p6b80182746)">
     <use style="fill:#1f77b4;stroke:#1f77b4;stroke-linejoin:miter;" x="897.670357" xlink:href="#m3ebf144b5d" y="454.214363"/>
     <use style="fill:#1f77b4;stroke:#1f77b4;stroke-linejoin:miter;" x="951.609831" xlink:href="#m3ebf144b5d" y="444.102768"/>
     <use style="fill:#1f77b4;stroke:#1f77b4;stroke-linejoin:miter;" x="938.553212" xlink:href="#m3ebf144b5d" y="417.823359"/>
     <use style="fill:#1f77b4;stroke:#1f77b4;stroke-linejoin:miter;" x="918.412402" xlink:href="#m3ebf144b5d" y="406.579341"/>
     <use style="fill:#1f77b4;stroke:#1f77b4;stroke-linejoin:miter;" x="656.938269" xlink:href="#m3ebf144b5d" y="413.199654"/>
     <use style="fill:#1f77b4;stroke:#1f77b4;stroke-linejoin:miter;" x="653.254793" xlink:href="#m3ebf144b5d" y="411.547266"/>
     <use style="fill:#1f77b4;stroke:#1f77b4;stroke-linejoin:miter;" x="651.488378" xlink:href="#m3ebf144b5d" y="409.204406"/>
     <use style="fill:#1f77b4;stroke:#1f77b4;stroke-linejoin:miter;" x="658.640784" xlink:href="#m3ebf144b5d" y="402.662861"/>
     <use style="fill:#1f77b4;stroke:#1f77b4;stroke-linejoin:miter;" x="660.263989" xlink:href="#m3ebf144b5d" y="398.126238"/>
     <use style="fill:#1f77b4;stroke:#1f77b4;stroke-linejoin:miter;" x="659.521272" xlink:href="#m3ebf144b5d" y="394.494448"/>
     <use style="fill:#1f77b4;stroke:#1f77b4;stroke-linejoin:miter;" x="764.717184" xlink:href="#m3ebf144b5d" y="310.333604"/>
     <use style="fill:#1f77b4;stroke:#1f77b4;stroke-linejoin:miter;" x="685.188292" xlink:href="#m3ebf144b5d" y="307.573833"/>
     <use style="fill:#1f77b4;stroke:#1f77b4;stroke-linejoin:miter;" x="674.162669" xlink:href="#m3ebf144b5d" y="307.635013"/>
     <use style="fill:#1f77b4;stroke:#1f77b4;stroke-linejoin:miter;" x="663.966262" xlink:href="#m3ebf144b5d" y="307.273021"/>
     <use style="fill:#1f77b4;stroke:#1f77b4;stroke-linejoin:miter;" x="653.782133" xlink:href="#m3ebf144b5d" y="307.541203"/>
     <use style="fill:#1f77b4;stroke:#1f77b4;stroke-linejoin:miter;" x="644.12949" xlink:href="#m3ebf144b5d" y="307.874259"/>
     <use style="fill:#1f77b4;stroke:#1f77b4;stroke-linejoin:miter;" x="635.23301" xlink:href="#m3ebf144b5d" y="306.704166"/>
     <use style="fill:#1f77b4;stroke:#1f77b4;stroke-linejoin:miter;" x="626.108511" xlink:href="#m3ebf144b5d" y="306.800602"/>
     <use style="fill:#1f77b4;stroke:#1f77b4;stroke-linejoin:miter;" x="613.315181" xlink:href="#m3ebf144b5d" y="324.158343"/>
     <use style="fill:#1f77b4;stroke:#1f77b4;stroke-linejoin:miter;" x="608.261015" xlink:href="#m3ebf144b5d" y="305.220898"/>
     <use style="fill:#1f77b4;stroke:#1f77b4;stroke-linejoin:miter;" x="599.357304" xlink:href="#m3ebf144b5d" y="305.548868"/>
     <use style="fill:#1f77b4;stroke:#1f77b4;stroke-linejoin:miter;" x="590.54478" xlink:href="#m3ebf144b5d" y="304.452044"/>
     <use style="fill:#1f77b4;stroke:#1f77b4;stroke-linejoin:miter;" x="581.750903" xlink:href="#m3ebf144b5d" y="304.395496"/>
     <use style="fill:#1f77b4;stroke:#1f77b4;stroke-linejoin:miter;" x="572.740569" xlink:href="#m3ebf144b5d" y="304.190901"/>
     <use style="fill:#1f77b4;stroke:#1f77b4;stroke-linejoin:miter;" x="563.745279" xlink:href="#m3ebf144b5d" y="303.913853"/>
     <use style="fill:#1f77b4;stroke:#1f77b4;stroke-linejoin:miter;" x="554.461132" xlink:href="#m3ebf144b5d" y="303.392492"/>
     <use style="fill:#1f77b4;stroke:#1f77b4;stroke-linejoin:miter;" x="545.077257" xlink:href="#m3ebf144b5d" y="303.339464"/>
     <use style="fill:#1f77b4;stroke:#1f77b4;stroke-linejoin:miter;" x="535.540715" xlink:href="#m3ebf144b5d" y="303.259945"/>
     <use style="fill:#1f77b4;stroke:#1f77b4;stroke-linejoin:miter;" x="525.276977" xlink:href="#m3ebf144b5d" y="302.652581"/>
     <use style="fill:#1f77b4;stroke:#1f77b4;stroke-linejoin:miter;" x="514.869727" xlink:href="#m3ebf144b5d" y="302.307106"/>
     <use style="fill:#1f77b4;stroke:#1f77b4;stroke-linejoin:miter;" x="503.695951" xlink:href="#m3ebf144b5d" y="301.622515"/>
     <use style="fill:#1f77b4;stroke:#1f77b4;stroke-linejoin:miter;" x="493.388989" xlink:href="#m3ebf144b5d" y="303.267042"/>
     <use style="fill:#1f77b4;stroke:#1f77b4;stroke-linejoin:miter;" x="481.429737" xlink:href="#m3ebf144b5d" y="302.998207"/>
     <use style="fill:#1f77b4;stroke:#1f77b4;stroke-linejoin:miter;" x="468.950881" xlink:href="#m3ebf144b5d" y="302.935526"/>
     <use style="fill:#1f77b4;stroke:#1f77b4;stroke-linejoin:miter;" x="455.488785" xlink:href="#m3ebf144b5d" y="302.987036"/>
     <use style="fill:#1f77b4;stroke:#1f77b4;stroke-linejoin:miter;" x="440.281204" xlink:href="#m3ebf144b5d" y="302.415005"/>
     <use style="fill:#1f77b4;stroke:#1f77b4;stroke-linejoin:miter;" x="423.272088" xlink:href="#m3ebf144b5d" y="301.375042"/>
     <use style="fill:#1f77b4;stroke:#1f77b4;stroke-linejoin:miter;" x="413.192269" xlink:href="#m3ebf144b5d" y="306.909912"/>
     <use style="fill:#1f77b4;stroke:#1f77b4;stroke-linejoin:miter;" x="395.563656" xlink:href="#m3ebf144b5d" y="307.518258"/>
     <use style="fill:#1f77b4;stroke:#1f77b4;stroke-linejoin:miter;" x="393.814788" xlink:href="#m3ebf144b5d" y="319.013692"/>
     <use style="fill:#1f77b4;stroke:#1f77b4;stroke-linejoin:miter;" x="397.429762" xlink:href="#m3ebf144b5d" y="343.161964"/>
     <use style="fill:#1f77b4;stroke:#1f77b4;stroke-linejoin:miter;" x="389.888397" xlink:href="#m3ebf144b5d" y="349.784229"/>
     <use style="fill:#1f77b4;stroke:#1f77b4;stroke-linejoin:miter;" x="373.784743" xlink:href="#m3ebf144b5d" y="353.242373"/>
     <use style="fill:#1f77b4;stroke:#1f77b4;stroke-linejoin:miter;" x="372.202207" xlink:href="#m3ebf144b5d" y="362.810544"/>
     <use style="fill:#1f77b4;stroke:#1f77b4;stroke-linejoin:miter;" x="377.708937" xlink:href="#m3ebf144b5d" y="391.808017"/>
     <use style="fill:#1f77b4;stroke:#1f77b4;stroke-linejoin:miter;" x="380.636699" xlink:href="#m3ebf144b5d" y="400.727112"/>
     <use style="fill:#1f77b4;stroke:#1f77b4;stroke-linejoin:miter;" x="369.24023" xlink:href="#m3ebf144b5d" y="407.400365"/>
     <use style="fill:#1f77b4;stroke:#1f77b4;stroke-linejoin:miter;" x="369.201601" xlink:href="#m3ebf144b5d" y="415.85343"/>
     <use style="fill:#1f77b4;stroke:#1f77b4;stroke-linejoin:miter;" x="369.923868" xlink:href="#m3ebf144b5d" y="424.156173"/>
     <use style="fill:#1f77b4;stroke:#1f77b4;stroke-linejoin:miter;" x="537.087371" xlink:href="#m3ebf144b5d" y="436.189995"/>
     <use style="fill:#1f77b4;stroke:#1f77b4;stroke-linejoin:miter;" x="537.289051" xlink:href="#m3ebf144b5d" y="438.177714"/>
     <use style="fill:#1f77b4;stroke:#1f77b4;stroke-linejoin:miter;" x="537.407719" xlink:href="#m3ebf144b5d" y="440.08964"/>
     <use style="fill:#1f77b4;stroke:#1f77b4;stroke-linejoin:miter;" x="537.430551" xlink:href="#m3ebf144b5d" y="442.108949"/>
     <use style="fill:#1f77b4;stroke:#1f77b4;stroke-linejoin:miter;" x="537.451857" xlink:href="#m3ebf144b5d" y="444.033931"/>
     <use style="fill:#1f77b4;stroke:#1f77b4;stroke-linejoin:miter;" x="537.510511" xlink:href="#m3ebf144b5d" y="446.146316"/>
     <use style="fill:#1f77b4;stroke:#1f77b4;stroke-linejoin:miter;" x="537.091811" xlink:href="#m3ebf144b5d" y="448.239892"/>
     <use style="fill:#1f77b4;stroke:#1f77b4;stroke-linejoin:miter;" x="537.435914" xlink:href="#m3ebf144b5d" y="450.392898"/>
     <use style="fill:#1f77b4;stroke:#1f77b4;stroke-linejoin:miter;" x="379.139486" xlink:href="#m3ebf144b5d" y="516.477037"/>
     <use style="fill:#1f77b4;stroke:#1f77b4;stroke-linejoin:miter;" x="396.279497" xlink:href="#m3ebf144b5d" y="519.414098"/>
     <use style="fill:#1f77b4;stroke:#1f77b4;stroke-linejoin:miter;" x="400.468141" xlink:href="#m3ebf144b5d" y="527.245979"/>
     <use style="fill:#1f77b4;stroke:#1f77b4;stroke-linejoin:miter;" x="405.23288" xlink:href="#m3ebf144b5d" y="535.080762"/>
     <use style="fill:#1f77b4;stroke:#1f77b4;stroke-linejoin:miter;" x="435.585259" xlink:href="#m3ebf144b5d" y="528.08304"/>
     <use style="fill:#1f77b4;stroke:#1f77b4;stroke-linejoin:miter;" x="441.969224" xlink:href="#m3ebf144b5d" y="533.638491"/>
     <use style="fill:#1f77b4;stroke:#1f77b4;stroke-linejoin:miter;" x="451.131602" xlink:href="#m3ebf144b5d" y="537.360343"/>
     <use style="fill:#1f77b4;stroke:#1f77b4;stroke-linejoin:miter;" x="499.4979" xlink:href="#m3ebf144b5d" y="517.179742"/>
     <use style="fill:#1f77b4;stroke:#1f77b4;stroke-linejoin:miter;" x="507.714664" xlink:href="#m3ebf144b5d" y="517.714351"/>
     <use style="fill:#1f77b4;stroke:#1f77b4;stroke-linejoin:miter;" x="508.338896" xlink:href="#m3ebf144b5d" y="525.918731"/>
     <use style="fill:#1f77b4;stroke:#1f77b4;stroke-linejoin:miter;" x="506.574003" xlink:href="#m3ebf144b5d" y="538.251802"/>
     <use style="fill:#1f77b4;stroke:#1f77b4;stroke-linejoin:miter;" x="522.258373" xlink:href="#m3ebf144b5d" y="529.535354"/>
     <use style="fill:#1f77b4;stroke:#1f77b4;stroke-linejoin:miter;" x="541.591645" xlink:href="#m3ebf144b5d" y="522.722292"/>
     <use style="fill:#1f77b4;stroke:#1f77b4;stroke-linejoin:miter;" x="548.107248" xlink:href="#m3ebf144b5d" y="522.98006"/>
     <use style="fill:#1f77b4;stroke:#1f77b4;stroke-linejoin:miter;" x="558.313227" xlink:href="#m3ebf144b5d" y="530.143345"/>
     <use style="fill:#1f77b4;stroke:#1f77b4;stroke-linejoin:miter;" x="566.38562" xlink:href="#m3ebf144b5d" y="524.768448"/>
     <use style="fill:#1f77b4;stroke:#1f77b4;stroke-linejoin:miter;" x="570.621587" xlink:href="#m3ebf144b5d" y="532.951179"/>
     <use style="fill:#1f77b4;stroke:#1f77b4;stroke-linejoin:miter;" x="575.972487" xlink:href="#m3ebf144b5d" y="540.799412"/>
     <use style="fill:#1f77b4;stroke:#1f77b4;stroke-linejoin:miter;" x="583.088152" xlink:href="#m3ebf144b5d" y="540.828989"/>
     <use style="fill:#1f77b4;stroke:#1f77b4;stroke-linejoin:miter;" x="590.301367" xlink:href="#m3ebf144b5d" y="526.15653"/>
     <use style="fill:#1f77b4;stroke:#1f77b4;stroke-linejoin:miter;" x="596.915792" xlink:href="#m3ebf144b5d" y="539.157526"/>
     <use style="fill:#1f77b4;stroke:#1f77b4;stroke-linejoin:miter;" x="603.54725" xlink:href="#m3ebf144b5d" y="534.961416"/>
     <use style="fill:#1f77b4;stroke:#1f77b4;stroke-linejoin:miter;" x="611.193794" xlink:href="#m3ebf144b5d" y="539.997663"/>
     <use style="fill:#1f77b4;stroke:#1f77b4;stroke-linejoin:miter;" x="613.029387" xlink:href="#m3ebf144b5d" y="519.086509"/>
     <use style="fill:#1f77b4;stroke:#1f77b4;stroke-linejoin:miter;" x="619.188181" xlink:href="#m3ebf144b5d" y="520.116009"/>
     <use style="fill:#1f77b4;stroke:#1f77b4;stroke-linejoin:miter;" x="624.592507" xlink:href="#m3ebf144b5d" y="518.296627"/>
     <use style="fill:#1f77b4;stroke:#1f77b4;stroke-linejoin:miter;" x="632.072498" xlink:href="#m3ebf144b5d" y="521.492113"/>
     <use style="fill:#1f77b4;stroke:#1f77b4;stroke-linejoin:miter;" x="638.888601" xlink:href="#m3ebf144b5d" y="521.829995"/>
     <use style="fill:#1f77b4;stroke:#1f77b4;stroke-linejoin:miter;" x="646.107485" xlink:href="#m3ebf144b5d" y="522.50143"/>
     <use style="fill:#1f77b4;stroke:#1f77b4;stroke-linejoin:miter;" x="653.286061" xlink:href="#m3ebf144b5d" y="522.4018"/>
     <use style="fill:#1f77b4;stroke:#1f77b4;stroke-linejoin:miter;" x="661.161717" xlink:href="#m3ebf144b5d" y="523.107759"/>
     <use style="fill:#1f77b4;stroke:#1f77b4;stroke-linejoin:miter;" x="669.865557" xlink:href="#m3ebf144b5d" y="523.800236"/>
     <use style="fill:#1f77b4;stroke:#1f77b4;stroke-linejoin:miter;" x="700.352383" xlink:href="#m3ebf144b5d" y="545.853566"/>
     <use style="fill:#1f77b4;stroke:#1f77b4;stroke-linejoin:miter;" x="704.896737" xlink:href="#m3ebf144b5d" y="539.132305"/>
     <use style="fill:#1f77b4;stroke:#1f77b4;stroke-linejoin:miter;" x="709.363908" xlink:href="#m3ebf144b5d" y="533.061551"/>
     <use style="fill:#1f77b4;stroke:#1f77b4;stroke-linejoin:miter;" x="715.000183" xlink:href="#m3ebf144b5d" y="528.009751"/>
     <use style="fill:#1f77b4;stroke:#1f77b4;stroke-linejoin:miter;" x="720.792681" xlink:href="#m3ebf144b5d" y="523.280127"/>
     <use style="fill:#1f77b4;stroke:#1f77b4;stroke-linejoin:miter;" x="736.459923" xlink:href="#m3ebf144b5d" y="524.406303"/>
     <use style="fill:#1f77b4;stroke:#1f77b4;stroke-linejoin:miter;" x="738.331151" xlink:href="#m3ebf144b5d" y="516.362728"/>
     <use style="fill:#1f77b4;stroke:#1f77b4;stroke-linejoin:miter;" x="754.363747" xlink:href="#m3ebf144b5d" y="516.233919"/>
     <use style="fill:#1f77b4;stroke:#1f77b4;stroke-linejoin:miter;" x="774.520877" xlink:href="#m3ebf144b5d" y="516.63366"/>
     <use style="fill:#1f77b4;stroke:#1f77b4;stroke-linejoin:miter;" x="800.085407" xlink:href="#m3ebf144b5d" y="517.820856"/>
     <use style="fill:#1f77b4;stroke:#1f77b4;stroke-linejoin:miter;" x="921.092009" xlink:href="#m3ebf144b5d" y="550.1652"/>
     <use style="fill:#1f77b4;stroke:#1f77b4;stroke-linejoin:miter;" x="928.264527" xlink:href="#m3ebf144b5d" y="537.799567"/>
     <use style="fill:#1f77b4;stroke:#1f77b4;stroke-linejoin:miter;" x="931.458818" xlink:href="#m3ebf144b5d" y="483.494466"/>
    </g>
   </g>
   <g id="patch_3">
    <path d="M 144 768.96 
L 144 103.68 
" style="fill:none;stroke:#000000;stroke-linecap:square;stroke-linejoin:miter;stroke-width:0.8;"/>
   </g>
   <g id="patch_4">
    <path d="M 1036.8 768.96 
L 1036.8 103.68 
" style="fill:none;stroke:#000000;stroke-linecap:square;stroke-linejoin:miter;stroke-width:0.8;"/>
   </g>
   <g id="patch_5">
    <path d="M 144 768.96 
L 1036.8 768.96 
" style="fill:none;stroke:#000000;stroke-linecap:square;stroke-linejoin:miter;stroke-width:0.8;"/>
   </g>
   <g id="patch_6">
    <path d="M 144 103.68 
L 1036.8 103.68 
" style="fill:none;stroke:#000000;stroke-linecap:square;stroke-linejoin:miter;stroke-width:0.8;"/>
   </g>
  </g>
 </g>
 <defs>
  <clipPath id="p6b80182746">
   <rect height="665.28" width="892.8" x="144" y="103.68"/>
  </clipPath>
 </defs>
</svg>
