<?xml version="1.0" encoding="utf-8" standalone="no"?>
<!DOCTYPE svg PUBLIC "-//W3C//DTD SVG 1.1//EN"
  "http://www.w3.org/Graphics/SVG/1.1/DTD/svg11.dtd">
<!-- Created with matplotlib (http://matplotlib.org/) -->
<svg height="864pt" version="1.1" viewBox="0 0 1152 864" width="1152pt" xmlns="http://www.w3.org/2000/svg" xmlns:xlink="http://www.w3.org/1999/xlink">
 <defs>
  <style type="text/css">
*{stroke-linecap:butt;stroke-linejoin:round;}
  </style>
 </defs>
 <g id="figure_1">
  <g id="patch_1">
   <path d="M 0 864 
L 1152 864 
L 1152 0 
L 0 0 
z
" style="fill:#ffffff;"/>
  </g>
  <g id="axes_1">
   <g id="patch_2">
    <path d="M 144 768.96 
L 1036.8 768.96 
L 1036.8 103.68 
L 144 103.68 
z
" style="fill:#ffffff;"/>
   </g>
   <g id="matplotlib.axis_1">
    <g id="xtick_1">
     <g id="line2d_1">
      <defs>
       <path d="M 0 0 
L 0 3.5 
" id="md45a6e620e" style="stroke:#000000;stroke-width:0.8;"/>
      </defs>
      <g>
       <use style="stroke:#000000;stroke-width:0.8;" x="207.771429" xlink:href="#md45a6e620e" y="768.96"/>
      </g>
     </g>
     <g id="text_1">
      <!-- −6000 -->
      <defs>
       <path d="M 10.59375 35.5 
L 73.1875 35.5 
L 73.1875 27.203125 
L 10.59375 27.203125 
z
" id="DejaVuSans-2212"/>
       <path d="M 33.015625 40.375 
Q 26.375 40.375 22.484375 35.828125 
Q 18.609375 31.296875 18.609375 23.390625 
Q 18.609375 15.53125 22.484375 10.953125 
Q 26.375 6.390625 33.015625 6.390625 
Q 39.65625 6.390625 43.53125 10.953125 
Q 47.40625 15.53125 47.40625 23.390625 
Q 47.40625 31.296875 43.53125 35.828125 
Q 39.65625 40.375 33.015625 40.375 
z
M 52.59375 71.296875 
L 52.59375 62.3125 
Q 48.875 64.0625 45.09375 64.984375 
Q 41.3125 65.921875 37.59375 65.921875 
Q 27.828125 65.921875 22.671875 59.328125 
Q 17.53125 52.734375 16.796875 39.40625 
Q 19.671875 43.65625 24.015625 45.921875 
Q 28.375 48.1875 33.59375 48.1875 
Q 44.578125 48.1875 50.953125 41.515625 
Q 57.328125 34.859375 57.328125 23.390625 
Q 57.328125 12.15625 50.6875 5.359375 
Q 44.046875 -1.421875 33.015625 -1.421875 
Q 20.359375 -1.421875 13.671875 8.265625 
Q 6.984375 17.96875 6.984375 36.375 
Q 6.984375 53.65625 15.1875 63.9375 
Q 23.390625 74.21875 37.203125 74.21875 
Q 40.921875 74.21875 44.703125 73.484375 
Q 48.484375 72.75 52.59375 71.296875 
z
" id="DejaVuSans-36"/>
       <path d="M 31.78125 66.40625 
Q 24.171875 66.40625 20.328125 58.90625 
Q 16.5 51.421875 16.5 36.375 
Q 16.5 21.390625 20.328125 13.890625 
Q 24.171875 6.390625 31.78125 6.390625 
Q 39.453125 6.390625 43.28125 13.890625 
Q 47.125 21.390625 47.125 36.375 
Q 47.125 51.421875 43.28125 58.90625 
Q 39.453125 66.40625 31.78125 66.40625 
z
M 31.78125 74.21875 
Q 44.046875 74.21875 50.515625 64.515625 
Q 56.984375 54.828125 56.984375 36.375 
Q 56.984375 17.96875 50.515625 8.265625 
Q 44.046875 -1.421875 31.78125 -1.421875 
Q 19.53125 -1.421875 13.0625 8.265625 
Q 6.59375 17.96875 6.59375 36.375 
Q 6.59375 54.828125 13.0625 64.515625 
Q 19.53125 74.21875 31.78125 74.21875 
z
" id="DejaVuSans-30"/>
      </defs>
      <g transform="translate(190.856585 783.558437)scale(0.1 -0.1)">
       <use xlink:href="#DejaVuSans-2212"/>
       <use x="83.789062" xlink:href="#DejaVuSans-36"/>
       <use x="147.412109" xlink:href="#DejaVuSans-30"/>
       <use x="211.035156" xlink:href="#DejaVuSans-30"/>
       <use x="274.658203" xlink:href="#DejaVuSans-30"/>
      </g>
     </g>
    </g>
    <g id="xtick_2">
     <g id="line2d_2">
      <g>
       <use style="stroke:#000000;stroke-width:0.8;" x="335.314286" xlink:href="#md45a6e620e" y="768.96"/>
      </g>
     </g>
     <g id="text_2">
      <!-- −4000 -->
      <defs>
       <path d="M 37.796875 64.3125 
L 12.890625 25.390625 
L 37.796875 25.390625 
z
M 35.203125 72.90625 
L 47.609375 72.90625 
L 47.609375 25.390625 
L 58.015625 25.390625 
L 58.015625 17.1875 
L 47.609375 17.1875 
L 47.609375 0 
L 37.796875 0 
L 37.796875 17.1875 
L 4.890625 17.1875 
L 4.890625 26.703125 
z
" id="DejaVuSans-34"/>
      </defs>
      <g transform="translate(318.399442 783.558437)scale(0.1 -0.1)">
       <use xlink:href="#DejaVuSans-2212"/>
       <use x="83.789062" xlink:href="#DejaVuSans-34"/>
       <use x="147.412109" xlink:href="#DejaVuSans-30"/>
       <use x="211.035156" xlink:href="#DejaVuSans-30"/>
       <use x="274.658203" xlink:href="#DejaVuSans-30"/>
      </g>
     </g>
    </g>
    <g id="xtick_3">
     <g id="line2d_3">
      <g>
       <use style="stroke:#000000;stroke-width:0.8;" x="462.857143" xlink:href="#md45a6e620e" y="768.96"/>
      </g>
     </g>
     <g id="text_3">
      <!-- −2000 -->
      <defs>
       <path d="M 19.1875 8.296875 
L 53.609375 8.296875 
L 53.609375 0 
L 7.328125 0 
L 7.328125 8.296875 
Q 12.9375 14.109375 22.625 23.890625 
Q 32.328125 33.6875 34.8125 36.53125 
Q 39.546875 41.84375 41.421875 45.53125 
Q 43.3125 49.21875 43.3125 52.78125 
Q 43.3125 58.59375 39.234375 62.25 
Q 35.15625 65.921875 28.609375 65.921875 
Q 23.96875 65.921875 18.8125 64.3125 
Q 13.671875 62.703125 7.8125 59.421875 
L 7.8125 69.390625 
Q 13.765625 71.78125 18.9375 73 
Q 24.125 74.21875 28.421875 74.21875 
Q 39.75 74.21875 46.484375 68.546875 
Q 53.21875 62.890625 53.21875 53.421875 
Q 53.21875 48.921875 51.53125 44.890625 
Q 49.859375 40.875 45.40625 35.40625 
Q 44.1875 33.984375 37.640625 27.21875 
Q 31.109375 20.453125 19.1875 8.296875 
z
" id="DejaVuSans-32"/>
      </defs>
      <g transform="translate(445.942299 783.558437)scale(0.1 -0.1)">
       <use xlink:href="#DejaVuSans-2212"/>
       <use x="83.789062" xlink:href="#DejaVuSans-32"/>
       <use x="147.412109" xlink:href="#DejaVuSans-30"/>
       <use x="211.035156" xlink:href="#DejaVuSans-30"/>
       <use x="274.658203" xlink:href="#DejaVuSans-30"/>
      </g>
     </g>
    </g>
    <g id="xtick_4">
     <g id="line2d_4">
      <g>
       <use style="stroke:#000000;stroke-width:0.8;" x="590.4" xlink:href="#md45a6e620e" y="768.96"/>
      </g>
     </g>
     <g id="text_4">
      <!-- 0 -->
      <g transform="translate(587.21875 783.558437)scale(0.1 -0.1)">
       <use xlink:href="#DejaVuSans-30"/>
      </g>
     </g>
    </g>
    <g id="xtick_5">
     <g id="line2d_5">
      <g>
       <use style="stroke:#000000;stroke-width:0.8;" x="717.942857" xlink:href="#md45a6e620e" y="768.96"/>
      </g>
     </g>
     <g id="text_5">
      <!-- 2000 -->
      <g transform="translate(705.217857 783.558437)scale(0.1 -0.1)">
       <use xlink:href="#DejaVuSans-32"/>
       <use x="63.623047" xlink:href="#DejaVuSans-30"/>
       <use x="127.246094" xlink:href="#DejaVuSans-30"/>
       <use x="190.869141" xlink:href="#DejaVuSans-30"/>
      </g>
     </g>
    </g>
    <g id="xtick_6">
     <g id="line2d_6">
      <g>
       <use style="stroke:#000000;stroke-width:0.8;" x="845.485714" xlink:href="#md45a6e620e" y="768.96"/>
      </g>
     </g>
     <g id="text_6">
      <!-- 4000 -->
      <g transform="translate(832.760714 783.558437)scale(0.1 -0.1)">
       <use xlink:href="#DejaVuSans-34"/>
       <use x="63.623047" xlink:href="#DejaVuSans-30"/>
       <use x="127.246094" xlink:href="#DejaVuSans-30"/>
       <use x="190.869141" xlink:href="#DejaVuSans-30"/>
      </g>
     </g>
    </g>
    <g id="xtick_7">
     <g id="line2d_7">
      <g>
       <use style="stroke:#000000;stroke-width:0.8;" x="973.028571" xlink:href="#md45a6e620e" y="768.96"/>
      </g>
     </g>
     <g id="text_7">
      <!-- 6000 -->
      <g transform="translate(960.303571 783.558437)scale(0.1 -0.1)">
       <use xlink:href="#DejaVuSans-36"/>
       <use x="63.623047" xlink:href="#DejaVuSans-30"/>
       <use x="127.246094" xlink:href="#DejaVuSans-30"/>
       <use x="190.869141" xlink:href="#DejaVuSans-30"/>
      </g>
     </g>
    </g>
   </g>
   <g id="matplotlib.axis_2">
    <g id="ytick_1">
     <g id="line2d_8">
      <defs>
       <path d="M 0 0 
L -3.5 0 
" id="m0a17a77c46" style="stroke:#000000;stroke-width:0.8;"/>
      </defs>
      <g>
       <use style="stroke:#000000;stroke-width:0.8;" x="144" xlink:href="#m0a17a77c46" y="721.44"/>
      </g>
     </g>
     <g id="text_8">
      <!-- −6000 -->
      <g transform="translate(103.170312 725.239219)scale(0.1 -0.1)">
       <use xlink:href="#DejaVuSans-2212"/>
       <use x="83.789062" xlink:href="#DejaVuSans-36"/>
       <use x="147.412109" xlink:href="#DejaVuSans-30"/>
       <use x="211.035156" xlink:href="#DejaVuSans-30"/>
       <use x="274.658203" xlink:href="#DejaVuSans-30"/>
      </g>
     </g>
    </g>
    <g id="ytick_2">
     <g id="line2d_9">
      <g>
       <use style="stroke:#000000;stroke-width:0.8;" x="144" xlink:href="#m0a17a77c46" y="626.4"/>
      </g>
     </g>
     <g id="text_9">
      <!-- −4000 -->
      <g transform="translate(103.170312 630.199219)scale(0.1 -0.1)">
       <use xlink:href="#DejaVuSans-2212"/>
       <use x="83.789062" xlink:href="#DejaVuSans-34"/>
       <use x="147.412109" xlink:href="#DejaVuSans-30"/>
       <use x="211.035156" xlink:href="#DejaVuSans-30"/>
       <use x="274.658203" xlink:href="#DejaVuSans-30"/>
      </g>
     </g>
    </g>
    <g id="ytick_3">
     <g id="line2d_10">
      <g>
       <use style="stroke:#000000;stroke-width:0.8;" x="144" xlink:href="#m0a17a77c46" y="531.36"/>
      </g>
     </g>
     <g id="text_10">
      <!-- −2000 -->
      <g transform="translate(103.170312 535.159219)scale(0.1 -0.1)">
       <use xlink:href="#DejaVuSans-2212"/>
       <use x="83.789062" xlink:href="#DejaVuSans-32"/>
       <use x="147.412109" xlink:href="#DejaVuSans-30"/>
       <use x="211.035156" xlink:href="#DejaVuSans-30"/>
       <use x="274.658203" xlink:href="#DejaVuSans-30"/>
      </g>
     </g>
    </g>
    <g id="ytick_4">
     <g id="line2d_11">
      <g>
       <use style="stroke:#000000;stroke-width:0.8;" x="144" xlink:href="#m0a17a77c46" y="436.32"/>
      </g>
     </g>
     <g id="text_11">
      <!-- 0 -->
      <g transform="translate(130.6375 440.119219)scale(0.1 -0.1)">
       <use xlink:href="#DejaVuSans-30"/>
      </g>
     </g>
    </g>
    <g id="ytick_5">
     <g id="line2d_12">
      <g>
       <use style="stroke:#000000;stroke-width:0.8;" x="144" xlink:href="#m0a17a77c46" y="341.28"/>
      </g>
     </g>
     <g id="text_12">
      <!-- 2000 -->
      <g transform="translate(111.55 345.079219)scale(0.1 -0.1)">
       <use xlink:href="#DejaVuSans-32"/>
       <use x="63.623047" xlink:href="#DejaVuSans-30"/>
       <use x="127.246094" xlink:href="#DejaVuSans-30"/>
       <use x="190.869141" xlink:href="#DejaVuSans-30"/>
      </g>
     </g>
    </g>
    <g id="ytick_6">
     <g id="line2d_13">
      <g>
       <use style="stroke:#000000;stroke-width:0.8;" x="144" xlink:href="#m0a17a77c46" y="246.24"/>
      </g>
     </g>
     <g id="text_13">
      <!-- 4000 -->
      <g transform="translate(111.55 250.039219)scale(0.1 -0.1)">
       <use xlink:href="#DejaVuSans-34"/>
       <use x="63.623047" xlink:href="#DejaVuSans-30"/>
       <use x="127.246094" xlink:href="#DejaVuSans-30"/>
       <use x="190.869141" xlink:href="#DejaVuSans-30"/>
      </g>
     </g>
    </g>
    <g id="ytick_7">
     <g id="line2d_14">
      <g>
       <use style="stroke:#000000;stroke-width:0.8;" x="144" xlink:href="#m0a17a77c46" y="151.2"/>
      </g>
     </g>
     <g id="text_14">
      <!-- 6000 -->
      <g transform="translate(111.55 154.999219)scale(0.1 -0.1)">
       <use xlink:href="#DejaVuSans-36"/>
       <use x="63.623047" xlink:href="#DejaVuSans-30"/>
       <use x="127.246094" xlink:href="#DejaVuSans-30"/>
       <use x="190.869141" xlink:href="#DejaVuSans-30"/>
      </g>
     </g>
    </g>
   </g>
   <g id="line2d_15">
    <path clip-path="url(#p1994de5037)" d="M 590.4 768.96 
L 590.4 103.68 
" style="fill:none;stroke:#1f77b4;stroke-linecap:square;stroke-width:1.5;"/>
   </g>
   <g id="line2d_16">
    <path clip-path="url(#p1994de5037)" d="M 144 436.32 
L 1036.8 436.32 
" style="fill:none;stroke:#1f77b4;stroke-linecap:square;stroke-width:1.5;"/>
   </g>
   <g id="line2d_17">
    <defs>
     <path d="M 0 1.333333 
C 0.353604 1.333333 0.692773 1.192845 0.942809 0.942809 
C 1.192845 0.692773 1.333333 0.353604 1.333333 0 
C 1.333333 -0.353604 1.192845 -0.692773 0.942809 -0.942809 
C 0.692773 -1.192845 0.353604 -1.333333 0 -1.333333 
C -0.353604 -1.333333 -0.692773 -1.192845 -0.942809 -0.942809 
C -1.192845 -0.692773 -1.333333 -0.353604 -1.333333 0 
C -1.333333 0.353604 -1.192845 0.692773 -0.942809 0.942809 
C -0.692773 1.192845 -0.353604 1.333333 0 1.333333 
z
" id="mdb617064b2" style="stroke:#ff0000;"/>
    </defs>
    <g clip-path="url(#p1994de5037)">
     <use style="fill:#ff0000;stroke:#ff0000;" x="691.976512" xlink:href="#mdb617064b2" y="438.529266"/>
     <use style="fill:#ff0000;stroke:#ff0000;" x="690.959587" xlink:href="#mdb617064b2" y="412.130804"/>
     <use style="fill:#ff0000;stroke:#ff0000;" x="857.844448" xlink:href="#mdb617064b2" y="319.660538"/>
     <use style="fill:#ff0000;stroke:#ff0000;" x="829.368558" xlink:href="#mdb617064b2" y="317.898468"/>
     <use style="fill:#ff0000;stroke:#ff0000;" x="813.521324" xlink:href="#mdb617064b2" y="311.600833"/>
     <use style="fill:#ff0000;stroke:#ff0000;" x="788.868384" xlink:href="#mdb617064b2" y="311.535898"/>
     <use style="fill:#ff0000;stroke:#ff0000;" x="769.338026" xlink:href="#mdb617064b2" y="310.063401"/>
     <use style="fill:#ff0000;stroke:#ff0000;" x="678.271781" xlink:href="#mdb617064b2" y="307.72423"/>
     <use style="fill:#ff0000;stroke:#ff0000;" x="633.58377" xlink:href="#mdb617064b2" y="306.503761"/>
     <use style="fill:#ff0000;stroke:#ff0000;" x="618.508285" xlink:href="#mdb617064b2" y="324.163475"/>
     <use style="fill:#ff0000;stroke:#ff0000;" x="612.722292" xlink:href="#mdb617064b2" y="305.852588"/>
     <use style="fill:#ff0000;stroke:#ff0000;" x="464.779758" xlink:href="#mdb617064b2" y="303.176539"/>
     <use style="fill:#ff0000;stroke:#ff0000;" x="448.658429" xlink:href="#mdb617064b2" y="302.866031"/>
     <use style="fill:#ff0000;stroke:#ff0000;" x="430.598522" xlink:href="#mdb617064b2" y="302.16989"/>
     <use style="fill:#ff0000;stroke:#ff0000;" x="398.218807" xlink:href="#mdb617064b2" y="307.941363"/>
     <use style="fill:#ff0000;stroke:#ff0000;" x="392.685214" xlink:href="#mdb617064b2" y="318.734791"/>
     <use style="fill:#ff0000;stroke:#ff0000;" x="398.401708" xlink:href="#mdb617064b2" y="346.757298"/>
     <use style="fill:#ff0000;stroke:#ff0000;" x="372.8418" xlink:href="#mdb617064b2" y="359.103167"/>
     <use style="fill:#ff0000;stroke:#ff0000;" x="377.136329" xlink:href="#mdb617064b2" y="391.921871"/>
     <use style="fill:#ff0000;stroke:#ff0000;" x="376.773717" xlink:href="#mdb617064b2" y="420.203101"/>
     <use style="fill:#ff0000;stroke:#ff0000;" x="367.561126" xlink:href="#mdb617064b2" y="428.979319"/>
     <use style="fill:#ff0000;stroke:#ff0000;" x="537.307798" xlink:href="#mdb617064b2" y="437.636735"/>
     <use style="fill:#ff0000;stroke:#ff0000;" x="537.476355" xlink:href="#mdb617064b2" y="451.631318"/>
     <use style="fill:#ff0000;stroke:#ff0000;" x="395.505337" xlink:href="#mdb617064b2" y="519.745481"/>
     <use style="fill:#ff0000;stroke:#ff0000;" x="407.152055" xlink:href="#mdb617064b2" y="525.47338"/>
     <use style="fill:#ff0000;stroke:#ff0000;" x="443.761901" xlink:href="#mdb617064b2" y="517.174832"/>
     <use style="fill:#ff0000;stroke:#ff0000;" x="441.522993" xlink:href="#mdb617064b2" y="528.534479"/>
     <use style="fill:#ff0000;stroke:#ff0000;" x="459.984834" xlink:href="#mdb617064b2" y="537.780495"/>
     <use style="fill:#ff0000;stroke:#ff0000;" x="498.43286" xlink:href="#mdb617064b2" y="516.914113"/>
     <use style="fill:#ff0000;stroke:#ff0000;" x="509.246867" xlink:href="#mdb617064b2" y="526.290886"/>
     <use style="fill:#ff0000;stroke:#ff0000;" x="546.375134" xlink:href="#mdb617064b2" y="522.766629"/>
     <use style="fill:#ff0000;stroke:#ff0000;" x="567.641419" xlink:href="#mdb617064b2" y="523.18605"/>
     <use style="fill:#ff0000;stroke:#ff0000;" x="572.165002" xlink:href="#mdb617064b2" y="534.95473"/>
     <use style="fill:#ff0000;stroke:#ff0000;" x="579.008444" xlink:href="#mdb617064b2" y="540.542651"/>
     <use style="fill:#ff0000;stroke:#ff0000;" x="587.64327" xlink:href="#mdb617064b2" y="525.978591"/>
     <use style="fill:#ff0000;stroke:#ff0000;" x="602.588251" xlink:href="#mdb617064b2" y="535.161008"/>
     <use style="fill:#ff0000;stroke:#ff0000;" x="611.568703" xlink:href="#mdb617064b2" y="542.262187"/>
     <use style="fill:#ff0000;stroke:#ff0000;" x="613.799266" xlink:href="#mdb617064b2" y="519.01612"/>
     <use style="fill:#ff0000;stroke:#ff0000;" x="670.582301" xlink:href="#mdb617064b2" y="523.407515"/>
     <use style="fill:#ff0000;stroke:#ff0000;" x="701.382379" xlink:href="#mdb617064b2" y="543.974816"/>
     <use style="fill:#ff0000;stroke:#ff0000;" x="756.274257" xlink:href="#mdb617064b2" y="516.158154"/>
     <use style="fill:#ff0000;stroke:#ff0000;" x="779.747689" xlink:href="#mdb617064b2" y="516.707154"/>
     <use style="fill:#ff0000;stroke:#ff0000;" x="926.578506" xlink:href="#mdb617064b2" y="544.270244"/>
     <use style="fill:#ff0000;stroke:#ff0000;" x="935.294231" xlink:href="#mdb617064b2" y="482.793502"/>
    </g>
   </g>
   <g id="line2d_18">
    <defs>
     <path d="M -0.5 0.5 
L 0.5 0.5 
L 0.5 -0.5 
L -0.5 -0.5 
z
" id="me71d6a7ae2" style="stroke:#1f77b4;stroke-linejoin:miter;"/>
    </defs>
    <g clip-path="url(#p1994de5037)">
     <use style="fill:#1f77b4;stroke:#1f77b4;stroke-linejoin:miter;" x="691.976512" xlink:href="#me71d6a7ae2" y="438.529266"/>
     <use style="fill:#1f77b4;stroke:#1f77b4;stroke-linejoin:miter;" x="691.150984" xlink:href="#me71d6a7ae2" y="434.210651"/>
     <use style="fill:#1f77b4;stroke:#1f77b4;stroke-linejoin:miter;" x="686.01985" xlink:href="#me71d6a7ae2" y="430.164551"/>
     <use style="fill:#1f77b4;stroke:#1f77b4;stroke-linejoin:miter;" x="684.656071" xlink:href="#me71d6a7ae2" y="426.214482"/>
     <use style="fill:#1f77b4;stroke:#1f77b4;stroke-linejoin:miter;" x="686.027606" xlink:href="#me71d6a7ae2" y="421.94378"/>
     <use style="fill:#1f77b4;stroke:#1f77b4;stroke-linejoin:miter;" x="687.038851" xlink:href="#me71d6a7ae2" y="417.507868"/>
     <use style="fill:#1f77b4;stroke:#1f77b4;stroke-linejoin:miter;" x="690.959587" xlink:href="#me71d6a7ae2" y="412.130804"/>
     <use style="fill:#1f77b4;stroke:#1f77b4;stroke-linejoin:miter;" x="857.844448" xlink:href="#me71d6a7ae2" y="319.660538"/>
     <use style="fill:#1f77b4;stroke:#1f77b4;stroke-linejoin:miter;" x="829.368558" xlink:href="#me71d6a7ae2" y="317.898468"/>
     <use style="fill:#1f77b4;stroke:#1f77b4;stroke-linejoin:miter;" x="813.521324" xlink:href="#me71d6a7ae2" y="311.600833"/>
     <use style="fill:#1f77b4;stroke:#1f77b4;stroke-linejoin:miter;" x="788.868384" xlink:href="#me71d6a7ae2" y="311.535898"/>
     <use style="fill:#1f77b4;stroke:#1f77b4;stroke-linejoin:miter;" x="769.338026" xlink:href="#me71d6a7ae2" y="310.063401"/>
     <use style="fill:#1f77b4;stroke:#1f77b4;stroke-linejoin:miter;" x="678.271781" xlink:href="#me71d6a7ae2" y="307.72423"/>
     <use style="fill:#1f77b4;stroke:#1f77b4;stroke-linejoin:miter;" x="666.359375" xlink:href="#me71d6a7ae2" y="307.396182"/>
     <use style="fill:#1f77b4;stroke:#1f77b4;stroke-linejoin:miter;" x="654.45168" xlink:href="#me71d6a7ae2" y="308.130859"/>
     <use style="fill:#1f77b4;stroke:#1f77b4;stroke-linejoin:miter;" x="643.965359" xlink:href="#me71d6a7ae2" y="307.525231"/>
     <use style="fill:#1f77b4;stroke:#1f77b4;stroke-linejoin:miter;" x="633.58377" xlink:href="#me71d6a7ae2" y="306.503761"/>
     <use style="fill:#1f77b4;stroke:#1f77b4;stroke-linejoin:miter;" x="618.508285" xlink:href="#me71d6a7ae2" y="324.163475"/>
     <use style="fill:#1f77b4;stroke:#1f77b4;stroke-linejoin:miter;" x="612.722292" xlink:href="#me71d6a7ae2" y="305.852588"/>
     <use style="fill:#1f77b4;stroke:#1f77b4;stroke-linejoin:miter;" x="602.88786" xlink:href="#me71d6a7ae2" y="304.280535"/>
     <use style="fill:#1f77b4;stroke:#1f77b4;stroke-linejoin:miter;" x="592.723922" xlink:href="#me71d6a7ae2" y="304.035654"/>
     <use style="fill:#1f77b4;stroke:#1f77b4;stroke-linejoin:miter;" x="582.523473" xlink:href="#me71d6a7ae2" y="304.36863"/>
     <use style="fill:#1f77b4;stroke:#1f77b4;stroke-linejoin:miter;" x="572.34408" xlink:href="#me71d6a7ae2" y="304.149011"/>
     <use style="fill:#1f77b4;stroke:#1f77b4;stroke-linejoin:miter;" x="562.020343" xlink:href="#me71d6a7ae2" y="303.968686"/>
     <use style="fill:#1f77b4;stroke:#1f77b4;stroke-linejoin:miter;" x="551.462114" xlink:href="#me71d6a7ae2" y="303.558306"/>
     <use style="fill:#1f77b4;stroke:#1f77b4;stroke-linejoin:miter;" x="540.622534" xlink:href="#me71d6a7ae2" y="302.993367"/>
     <use style="fill:#1f77b4;stroke:#1f77b4;stroke-linejoin:miter;" x="529.434007" xlink:href="#me71d6a7ae2" y="303.086141"/>
     <use style="fill:#1f77b4;stroke:#1f77b4;stroke-linejoin:miter;" x="517.542788" xlink:href="#me71d6a7ae2" y="302.577081"/>
     <use style="fill:#1f77b4;stroke:#1f77b4;stroke-linejoin:miter;" x="505.015665" xlink:href="#me71d6a7ae2" y="301.890888"/>
     <use style="fill:#1f77b4;stroke:#1f77b4;stroke-linejoin:miter;" x="492.974814" xlink:href="#me71d6a7ae2" y="303.21863"/>
     <use style="fill:#1f77b4;stroke:#1f77b4;stroke-linejoin:miter;" x="479.302294" xlink:href="#me71d6a7ae2" y="303.108752"/>
     <use style="fill:#1f77b4;stroke:#1f77b4;stroke-linejoin:miter;" x="464.779758" xlink:href="#me71d6a7ae2" y="303.176539"/>
     <use style="fill:#1f77b4;stroke:#1f77b4;stroke-linejoin:miter;" x="448.658429" xlink:href="#me71d6a7ae2" y="302.866031"/>
     <use style="fill:#1f77b4;stroke:#1f77b4;stroke-linejoin:miter;" x="430.598522" xlink:href="#me71d6a7ae2" y="302.16989"/>
     <use style="fill:#1f77b4;stroke:#1f77b4;stroke-linejoin:miter;" x="398.218807" xlink:href="#me71d6a7ae2" y="307.941363"/>
     <use style="fill:#1f77b4;stroke:#1f77b4;stroke-linejoin:miter;" x="392.685214" xlink:href="#me71d6a7ae2" y="318.734791"/>
     <use style="fill:#1f77b4;stroke:#1f77b4;stroke-linejoin:miter;" x="398.401708" xlink:href="#me71d6a7ae2" y="346.757298"/>
     <use style="fill:#1f77b4;stroke:#1f77b4;stroke-linejoin:miter;" x="382.235856" xlink:href="#me71d6a7ae2" y="351.165482"/>
     <use style="fill:#1f77b4;stroke:#1f77b4;stroke-linejoin:miter;" x="372.8418" xlink:href="#me71d6a7ae2" y="359.103167"/>
     <use style="fill:#1f77b4;stroke:#1f77b4;stroke-linejoin:miter;" x="377.136329" xlink:href="#me71d6a7ae2" y="391.921871"/>
     <use style="fill:#1f77b4;stroke:#1f77b4;stroke-linejoin:miter;" x="374.228714" xlink:href="#me71d6a7ae2" y="401.069472"/>
     <use style="fill:#1f77b4;stroke:#1f77b4;stroke-linejoin:miter;" x="369.045098" xlink:href="#me71d6a7ae2" y="409.918529"/>
     <use style="fill:#1f77b4;stroke:#1f77b4;stroke-linejoin:miter;" x="376.773717" xlink:href="#me71d6a7ae2" y="420.203101"/>
     <use style="fill:#1f77b4;stroke:#1f77b4;stroke-linejoin:miter;" x="367.561126" xlink:href="#me71d6a7ae2" y="428.979319"/>
     <use style="fill:#1f77b4;stroke:#1f77b4;stroke-linejoin:miter;" x="537.307798" xlink:href="#me71d6a7ae2" y="437.636735"/>
     <use style="fill:#1f77b4;stroke:#1f77b4;stroke-linejoin:miter;" x="537.44184" xlink:href="#me71d6a7ae2" y="439.848431"/>
     <use style="fill:#1f77b4;stroke:#1f77b4;stroke-linejoin:miter;" x="537.35168" xlink:href="#me71d6a7ae2" y="442.117568"/>
     <use style="fill:#1f77b4;stroke:#1f77b4;stroke-linejoin:miter;" x="537.316674" xlink:href="#me71d6a7ae2" y="444.37892"/>
     <use style="fill:#1f77b4;stroke:#1f77b4;stroke-linejoin:miter;" x="537.344498" xlink:href="#me71d6a7ae2" y="446.763266"/>
     <use style="fill:#1f77b4;stroke:#1f77b4;stroke-linejoin:miter;" x="537.586649" xlink:href="#me71d6a7ae2" y="449.178271"/>
     <use style="fill:#1f77b4;stroke:#1f77b4;stroke-linejoin:miter;" x="537.476355" xlink:href="#me71d6a7ae2" y="451.631318"/>
     <use style="fill:#1f77b4;stroke:#1f77b4;stroke-linejoin:miter;" x="395.505337" xlink:href="#me71d6a7ae2" y="519.745481"/>
     <use style="fill:#1f77b4;stroke:#1f77b4;stroke-linejoin:miter;" x="407.152055" xlink:href="#me71d6a7ae2" y="525.47338"/>
     <use style="fill:#1f77b4;stroke:#1f77b4;stroke-linejoin:miter;" x="443.761901" xlink:href="#me71d6a7ae2" y="517.174832"/>
     <use style="fill:#1f77b4;stroke:#1f77b4;stroke-linejoin:miter;" x="441.522993" xlink:href="#me71d6a7ae2" y="528.534479"/>
     <use style="fill:#1f77b4;stroke:#1f77b4;stroke-linejoin:miter;" x="445.26583" xlink:href="#me71d6a7ae2" y="537.059759"/>
     <use style="fill:#1f77b4;stroke:#1f77b4;stroke-linejoin:miter;" x="459.984834" xlink:href="#me71d6a7ae2" y="537.780495"/>
     <use style="fill:#1f77b4;stroke:#1f77b4;stroke-linejoin:miter;" x="498.43286" xlink:href="#me71d6a7ae2" y="516.914113"/>
     <use style="fill:#1f77b4;stroke:#1f77b4;stroke-linejoin:miter;" x="507.57995" xlink:href="#me71d6a7ae2" y="517.846962"/>
     <use style="fill:#1f77b4;stroke:#1f77b4;stroke-linejoin:miter;" x="509.246867" xlink:href="#me71d6a7ae2" y="526.290886"/>
     <use style="fill:#1f77b4;stroke:#1f77b4;stroke-linejoin:miter;" x="546.375134" xlink:href="#me71d6a7ae2" y="522.766629"/>
     <use style="fill:#1f77b4;stroke:#1f77b4;stroke-linejoin:miter;" x="567.641419" xlink:href="#me71d6a7ae2" y="523.18605"/>
     <use style="fill:#1f77b4;stroke:#1f77b4;stroke-linejoin:miter;" x="572.165002" xlink:href="#me71d6a7ae2" y="534.95473"/>
     <use style="fill:#1f77b4;stroke:#1f77b4;stroke-linejoin:miter;" x="579.008444" xlink:href="#me71d6a7ae2" y="540.542651"/>
     <use style="fill:#1f77b4;stroke:#1f77b4;stroke-linejoin:miter;" x="587.64327" xlink:href="#me71d6a7ae2" y="525.978591"/>
     <use style="fill:#1f77b4;stroke:#1f77b4;stroke-linejoin:miter;" x="594.594091" xlink:href="#me71d6a7ae2" y="528.705433"/>
     <use style="fill:#1f77b4;stroke:#1f77b4;stroke-linejoin:miter;" x="602.588251" xlink:href="#me71d6a7ae2" y="535.161008"/>
     <use style="fill:#1f77b4;stroke:#1f77b4;stroke-linejoin:miter;" x="611.568703" xlink:href="#me71d6a7ae2" y="542.262187"/>
     <use style="fill:#1f77b4;stroke:#1f77b4;stroke-linejoin:miter;" x="613.799266" xlink:href="#me71d6a7ae2" y="519.01612"/>
     <use style="fill:#1f77b4;stroke:#1f77b4;stroke-linejoin:miter;" x="620.793758" xlink:href="#me71d6a7ae2" y="520.022141"/>
     <use style="fill:#1f77b4;stroke:#1f77b4;stroke-linejoin:miter;" x="627.681412" xlink:href="#me71d6a7ae2" y="519.877406"/>
     <use style="fill:#1f77b4;stroke:#1f77b4;stroke-linejoin:miter;" x="635.619591" xlink:href="#me71d6a7ae2" y="521.45323"/>
     <use style="fill:#1f77b4;stroke:#1f77b4;stroke-linejoin:miter;" x="643.698482" xlink:href="#me71d6a7ae2" y="522.101141"/>
     <use style="fill:#1f77b4;stroke:#1f77b4;stroke-linejoin:miter;" x="652.193068" xlink:href="#me71d6a7ae2" y="522.692133"/>
     <use style="fill:#1f77b4;stroke:#1f77b4;stroke-linejoin:miter;" x="660.861098" xlink:href="#me71d6a7ae2" y="522.951872"/>
     <use style="fill:#1f77b4;stroke:#1f77b4;stroke-linejoin:miter;" x="670.582301" xlink:href="#me71d6a7ae2" y="523.407515"/>
     <use style="fill:#1f77b4;stroke:#1f77b4;stroke-linejoin:miter;" x="701.382379" xlink:href="#me71d6a7ae2" y="543.974816"/>
     <use style="fill:#1f77b4;stroke:#1f77b4;stroke-linejoin:miter;" x="706.645789" xlink:href="#me71d6a7ae2" y="536.628142"/>
     <use style="fill:#1f77b4;stroke:#1f77b4;stroke-linejoin:miter;" x="712.028148" xlink:href="#me71d6a7ae2" y="529.968143"/>
     <use style="fill:#1f77b4;stroke:#1f77b4;stroke-linejoin:miter;" x="733.09234" xlink:href="#me71d6a7ae2" y="523.873347"/>
     <use style="fill:#1f77b4;stroke:#1f77b4;stroke-linejoin:miter;" x="738.86926" xlink:href="#me71d6a7ae2" y="517.0231"/>
     <use style="fill:#1f77b4;stroke:#1f77b4;stroke-linejoin:miter;" x="756.274257" xlink:href="#me71d6a7ae2" y="516.158154"/>
     <use style="fill:#1f77b4;stroke:#1f77b4;stroke-linejoin:miter;" x="779.747689" xlink:href="#me71d6a7ae2" y="516.707154"/>
     <use style="fill:#1f77b4;stroke:#1f77b4;stroke-linejoin:miter;" x="926.578506" xlink:href="#me71d6a7ae2" y="544.270244"/>
     <use style="fill:#1f77b4;stroke:#1f77b4;stroke-linejoin:miter;" x="935.294231" xlink:href="#me71d6a7ae2" y="482.793502"/>
    </g>
   </g>
   <g id="patch_3">
    <path d="M 144 768.96 
L 144 103.68 
" style="fill:none;stroke:#000000;stroke-linecap:square;stroke-linejoin:miter;stroke-width:0.8;"/>
   </g>
   <g id="patch_4">
    <path d="M 1036.8 768.96 
L 1036.8 103.68 
" style="fill:none;stroke:#000000;stroke-linecap:square;stroke-linejoin:miter;stroke-width:0.8;"/>
   </g>
   <g id="patch_5">
    <path d="M 144 768.96 
L 1036.8 768.96 
" style="fill:none;stroke:#000000;stroke-linecap:square;stroke-linejoin:miter;stroke-width:0.8;"/>
   </g>
   <g id="patch_6">
    <path d="M 144 103.68 
L 1036.8 103.68 
" style="fill:none;stroke:#000000;stroke-linecap:square;stroke-linejoin:miter;stroke-width:0.8;"/>
   </g>
  </g>
 </g>
 <defs>
  <clipPath id="p1994de5037">
   <rect height="665.28" width="892.8" x="144" y="103.68"/>
  </clipPath>
 </defs>
</svg>
