<?xml version="1.0" encoding="utf-8" standalone="no"?>
<!DOCTYPE svg PUBLIC "-//W3C//DTD SVG 1.1//EN"
  "http://www.w3.org/Graphics/SVG/1.1/DTD/svg11.dtd">
<!-- Created with matplotlib (http://matplotlib.org/) -->
<svg height="864pt" version="1.1" viewBox="0 0 1152 864" width="1152pt" xmlns="http://www.w3.org/2000/svg" xmlns:xlink="http://www.w3.org/1999/xlink">
 <defs>
  <style type="text/css">
*{stroke-linecap:butt;stroke-linejoin:round;}
  </style>
 </defs>
 <g id="figure_1">
  <g id="patch_1">
   <path d="M 0 864 
L 1152 864 
L 1152 0 
L 0 0 
z
" style="fill:#ffffff;"/>
  </g>
  <g id="axes_1">
   <g id="patch_2">
    <path d="M 144 768.96 
L 1036.8 768.96 
L 1036.8 103.68 
L 144 103.68 
z
" style="fill:#ffffff;"/>
   </g>
   <g id="matplotlib.axis_1">
    <g id="xtick_1">
     <g id="line2d_1">
      <defs>
       <path d="M 0 0 
L 0 3.5 
" id="md66d3a8e03" style="stroke:#000000;stroke-width:0.8;"/>
      </defs>
      <g>
       <use style="stroke:#000000;stroke-width:0.8;" x="207.771429" xlink:href="#md66d3a8e03" y="768.96"/>
      </g>
     </g>
     <g id="text_1">
      <!-- −6000 -->
      <defs>
       <path d="M 10.59375 35.5 
L 73.1875 35.5 
L 73.1875 27.203125 
L 10.59375 27.203125 
z
" id="DejaVuSans-2212"/>
       <path d="M 33.015625 40.375 
Q 26.375 40.375 22.484375 35.828125 
Q 18.609375 31.296875 18.609375 23.390625 
Q 18.609375 15.53125 22.484375 10.953125 
Q 26.375 6.390625 33.015625 6.390625 
Q 39.65625 6.390625 43.53125 10.953125 
Q 47.40625 15.53125 47.40625 23.390625 
Q 47.40625 31.296875 43.53125 35.828125 
Q 39.65625 40.375 33.015625 40.375 
z
M 52.59375 71.296875 
L 52.59375 62.3125 
Q 48.875 64.0625 45.09375 64.984375 
Q 41.3125 65.921875 37.59375 65.921875 
Q 27.828125 65.921875 22.671875 59.328125 
Q 17.53125 52.734375 16.796875 39.40625 
Q 19.671875 43.65625 24.015625 45.921875 
Q 28.375 48.1875 33.59375 48.1875 
Q 44.578125 48.1875 50.953125 41.515625 
Q 57.328125 34.859375 57.328125 23.390625 
Q 57.328125 12.15625 50.6875 5.359375 
Q 44.046875 -1.421875 33.015625 -1.421875 
Q 20.359375 -1.421875 13.671875 8.265625 
Q 6.984375 17.96875 6.984375 36.375 
Q 6.984375 53.65625 15.1875 63.9375 
Q 23.390625 74.21875 37.203125 74.21875 
Q 40.921875 74.21875 44.703125 73.484375 
Q 48.484375 72.75 52.59375 71.296875 
z
" id="DejaVuSans-36"/>
       <path d="M 31.78125 66.40625 
Q 24.171875 66.40625 20.328125 58.90625 
Q 16.5 51.421875 16.5 36.375 
Q 16.5 21.390625 20.328125 13.890625 
Q 24.171875 6.390625 31.78125 6.390625 
Q 39.453125 6.390625 43.28125 13.890625 
Q 47.125 21.390625 47.125 36.375 
Q 47.125 51.421875 43.28125 58.90625 
Q 39.453125 66.40625 31.78125 66.40625 
z
M 31.78125 74.21875 
Q 44.046875 74.21875 50.515625 64.515625 
Q 56.984375 54.828125 56.984375 36.375 
Q 56.984375 17.96875 50.515625 8.265625 
Q 44.046875 -1.421875 31.78125 -1.421875 
Q 19.53125 -1.421875 13.0625 8.265625 
Q 6.59375 17.96875 6.59375 36.375 
Q 6.59375 54.828125 13.0625 64.515625 
Q 19.53125 74.21875 31.78125 74.21875 
z
" id="DejaVuSans-30"/>
      </defs>
      <g transform="translate(190.856585 783.558437)scale(0.1 -0.1)">
       <use xlink:href="#DejaVuSans-2212"/>
       <use x="83.789062" xlink:href="#DejaVuSans-36"/>
       <use x="147.412109" xlink:href="#DejaVuSans-30"/>
       <use x="211.035156" xlink:href="#DejaVuSans-30"/>
       <use x="274.658203" xlink:href="#DejaVuSans-30"/>
      </g>
     </g>
    </g>
    <g id="xtick_2">
     <g id="line2d_2">
      <g>
       <use style="stroke:#000000;stroke-width:0.8;" x="335.314286" xlink:href="#md66d3a8e03" y="768.96"/>
      </g>
     </g>
     <g id="text_2">
      <!-- −4000 -->
      <defs>
       <path d="M 37.796875 64.3125 
L 12.890625 25.390625 
L 37.796875 25.390625 
z
M 35.203125 72.90625 
L 47.609375 72.90625 
L 47.609375 25.390625 
L 58.015625 25.390625 
L 58.015625 17.1875 
L 47.609375 17.1875 
L 47.609375 0 
L 37.796875 0 
L 37.796875 17.1875 
L 4.890625 17.1875 
L 4.890625 26.703125 
z
" id="DejaVuSans-34"/>
      </defs>
      <g transform="translate(318.399442 783.558437)scale(0.1 -0.1)">
       <use xlink:href="#DejaVuSans-2212"/>
       <use x="83.789062" xlink:href="#DejaVuSans-34"/>
       <use x="147.412109" xlink:href="#DejaVuSans-30"/>
       <use x="211.035156" xlink:href="#DejaVuSans-30"/>
       <use x="274.658203" xlink:href="#DejaVuSans-30"/>
      </g>
     </g>
    </g>
    <g id="xtick_3">
     <g id="line2d_3">
      <g>
       <use style="stroke:#000000;stroke-width:0.8;" x="462.857143" xlink:href="#md66d3a8e03" y="768.96"/>
      </g>
     </g>
     <g id="text_3">
      <!-- −2000 -->
      <defs>
       <path d="M 19.1875 8.296875 
L 53.609375 8.296875 
L 53.609375 0 
L 7.328125 0 
L 7.328125 8.296875 
Q 12.9375 14.109375 22.625 23.890625 
Q 32.328125 33.6875 34.8125 36.53125 
Q 39.546875 41.84375 41.421875 45.53125 
Q 43.3125 49.21875 43.3125 52.78125 
Q 43.3125 58.59375 39.234375 62.25 
Q 35.15625 65.921875 28.609375 65.921875 
Q 23.96875 65.921875 18.8125 64.3125 
Q 13.671875 62.703125 7.8125 59.421875 
L 7.8125 69.390625 
Q 13.765625 71.78125 18.9375 73 
Q 24.125 74.21875 28.421875 74.21875 
Q 39.75 74.21875 46.484375 68.546875 
Q 53.21875 62.890625 53.21875 53.421875 
Q 53.21875 48.921875 51.53125 44.890625 
Q 49.859375 40.875 45.40625 35.40625 
Q 44.1875 33.984375 37.640625 27.21875 
Q 31.109375 20.453125 19.1875 8.296875 
z
" id="DejaVuSans-32"/>
      </defs>
      <g transform="translate(445.942299 783.558437)scale(0.1 -0.1)">
       <use xlink:href="#DejaVuSans-2212"/>
       <use x="83.789062" xlink:href="#DejaVuSans-32"/>
       <use x="147.412109" xlink:href="#DejaVuSans-30"/>
       <use x="211.035156" xlink:href="#DejaVuSans-30"/>
       <use x="274.658203" xlink:href="#DejaVuSans-30"/>
      </g>
     </g>
    </g>
    <g id="xtick_4">
     <g id="line2d_4">
      <g>
       <use style="stroke:#000000;stroke-width:0.8;" x="590.4" xlink:href="#md66d3a8e03" y="768.96"/>
      </g>
     </g>
     <g id="text_4">
      <!-- 0 -->
      <g transform="translate(587.21875 783.558437)scale(0.1 -0.1)">
       <use xlink:href="#DejaVuSans-30"/>
      </g>
     </g>
    </g>
    <g id="xtick_5">
     <g id="line2d_5">
      <g>
       <use style="stroke:#000000;stroke-width:0.8;" x="717.942857" xlink:href="#md66d3a8e03" y="768.96"/>
      </g>
     </g>
     <g id="text_5">
      <!-- 2000 -->
      <g transform="translate(705.217857 783.558437)scale(0.1 -0.1)">
       <use xlink:href="#DejaVuSans-32"/>
       <use x="63.623047" xlink:href="#DejaVuSans-30"/>
       <use x="127.246094" xlink:href="#DejaVuSans-30"/>
       <use x="190.869141" xlink:href="#DejaVuSans-30"/>
      </g>
     </g>
    </g>
    <g id="xtick_6">
     <g id="line2d_6">
      <g>
       <use style="stroke:#000000;stroke-width:0.8;" x="845.485714" xlink:href="#md66d3a8e03" y="768.96"/>
      </g>
     </g>
     <g id="text_6">
      <!-- 4000 -->
      <g transform="translate(832.760714 783.558437)scale(0.1 -0.1)">
       <use xlink:href="#DejaVuSans-34"/>
       <use x="63.623047" xlink:href="#DejaVuSans-30"/>
       <use x="127.246094" xlink:href="#DejaVuSans-30"/>
       <use x="190.869141" xlink:href="#DejaVuSans-30"/>
      </g>
     </g>
    </g>
    <g id="xtick_7">
     <g id="line2d_7">
      <g>
       <use style="stroke:#000000;stroke-width:0.8;" x="973.028571" xlink:href="#md66d3a8e03" y="768.96"/>
      </g>
     </g>
     <g id="text_7">
      <!-- 6000 -->
      <g transform="translate(960.303571 783.558437)scale(0.1 -0.1)">
       <use xlink:href="#DejaVuSans-36"/>
       <use x="63.623047" xlink:href="#DejaVuSans-30"/>
       <use x="127.246094" xlink:href="#DejaVuSans-30"/>
       <use x="190.869141" xlink:href="#DejaVuSans-30"/>
      </g>
     </g>
    </g>
   </g>
   <g id="matplotlib.axis_2">
    <g id="ytick_1">
     <g id="line2d_8">
      <defs>
       <path d="M 0 0 
L -3.5 0 
" id="m8ce75ad05d" style="stroke:#000000;stroke-width:0.8;"/>
      </defs>
      <g>
       <use style="stroke:#000000;stroke-width:0.8;" x="144" xlink:href="#m8ce75ad05d" y="721.44"/>
      </g>
     </g>
     <g id="text_8">
      <!-- −6000 -->
      <g transform="translate(103.170312 725.239219)scale(0.1 -0.1)">
       <use xlink:href="#DejaVuSans-2212"/>
       <use x="83.789062" xlink:href="#DejaVuSans-36"/>
       <use x="147.412109" xlink:href="#DejaVuSans-30"/>
       <use x="211.035156" xlink:href="#DejaVuSans-30"/>
       <use x="274.658203" xlink:href="#DejaVuSans-30"/>
      </g>
     </g>
    </g>
    <g id="ytick_2">
     <g id="line2d_9">
      <g>
       <use style="stroke:#000000;stroke-width:0.8;" x="144" xlink:href="#m8ce75ad05d" y="626.4"/>
      </g>
     </g>
     <g id="text_9">
      <!-- −4000 -->
      <g transform="translate(103.170312 630.199219)scale(0.1 -0.1)">
       <use xlink:href="#DejaVuSans-2212"/>
       <use x="83.789062" xlink:href="#DejaVuSans-34"/>
       <use x="147.412109" xlink:href="#DejaVuSans-30"/>
       <use x="211.035156" xlink:href="#DejaVuSans-30"/>
       <use x="274.658203" xlink:href="#DejaVuSans-30"/>
      </g>
     </g>
    </g>
    <g id="ytick_3">
     <g id="line2d_10">
      <g>
       <use style="stroke:#000000;stroke-width:0.8;" x="144" xlink:href="#m8ce75ad05d" y="531.36"/>
      </g>
     </g>
     <g id="text_10">
      <!-- −2000 -->
      <g transform="translate(103.170312 535.159219)scale(0.1 -0.1)">
       <use xlink:href="#DejaVuSans-2212"/>
       <use x="83.789062" xlink:href="#DejaVuSans-32"/>
       <use x="147.412109" xlink:href="#DejaVuSans-30"/>
       <use x="211.035156" xlink:href="#DejaVuSans-30"/>
       <use x="274.658203" xlink:href="#DejaVuSans-30"/>
      </g>
     </g>
    </g>
    <g id="ytick_4">
     <g id="line2d_11">
      <g>
       <use style="stroke:#000000;stroke-width:0.8;" x="144" xlink:href="#m8ce75ad05d" y="436.32"/>
      </g>
     </g>
     <g id="text_11">
      <!-- 0 -->
      <g transform="translate(130.6375 440.119219)scale(0.1 -0.1)">
       <use xlink:href="#DejaVuSans-30"/>
      </g>
     </g>
    </g>
    <g id="ytick_5">
     <g id="line2d_12">
      <g>
       <use style="stroke:#000000;stroke-width:0.8;" x="144" xlink:href="#m8ce75ad05d" y="341.28"/>
      </g>
     </g>
     <g id="text_12">
      <!-- 2000 -->
      <g transform="translate(111.55 345.079219)scale(0.1 -0.1)">
       <use xlink:href="#DejaVuSans-32"/>
       <use x="63.623047" xlink:href="#DejaVuSans-30"/>
       <use x="127.246094" xlink:href="#DejaVuSans-30"/>
       <use x="190.869141" xlink:href="#DejaVuSans-30"/>
      </g>
     </g>
    </g>
    <g id="ytick_6">
     <g id="line2d_13">
      <g>
       <use style="stroke:#000000;stroke-width:0.8;" x="144" xlink:href="#m8ce75ad05d" y="246.24"/>
      </g>
     </g>
     <g id="text_13">
      <!-- 4000 -->
      <g transform="translate(111.55 250.039219)scale(0.1 -0.1)">
       <use xlink:href="#DejaVuSans-34"/>
       <use x="63.623047" xlink:href="#DejaVuSans-30"/>
       <use x="127.246094" xlink:href="#DejaVuSans-30"/>
       <use x="190.869141" xlink:href="#DejaVuSans-30"/>
      </g>
     </g>
    </g>
    <g id="ytick_7">
     <g id="line2d_14">
      <g>
       <use style="stroke:#000000;stroke-width:0.8;" x="144" xlink:href="#m8ce75ad05d" y="151.2"/>
      </g>
     </g>
     <g id="text_14">
      <!-- 6000 -->
      <g transform="translate(111.55 154.999219)scale(0.1 -0.1)">
       <use xlink:href="#DejaVuSans-36"/>
       <use x="63.623047" xlink:href="#DejaVuSans-30"/>
       <use x="127.246094" xlink:href="#DejaVuSans-30"/>
       <use x="190.869141" xlink:href="#DejaVuSans-30"/>
      </g>
     </g>
    </g>
   </g>
   <g id="line2d_15">
    <path clip-path="url(#p0e093d5dc8)" d="M 590.4 768.96 
L 590.4 103.68 
" style="fill:none;stroke:#1f77b4;stroke-linecap:square;stroke-width:1.5;"/>
   </g>
   <g id="line2d_16">
    <path clip-path="url(#p0e093d5dc8)" d="M 144 436.32 
L 1036.8 436.32 
" style="fill:none;stroke:#1f77b4;stroke-linecap:square;stroke-width:1.5;"/>
   </g>
   <g id="line2d_17">
    <defs>
     <path d="M 0 1.333333 
C 0.353604 1.333333 0.692773 1.192845 0.942809 0.942809 
C 1.192845 0.692773 1.333333 0.353604 1.333333 0 
C 1.333333 -0.353604 1.192845 -0.692773 0.942809 -0.942809 
C 0.692773 -1.192845 0.353604 -1.333333 0 -1.333333 
C -0.353604 -1.333333 -0.692773 -1.192845 -0.942809 -0.942809 
C -1.192845 -0.692773 -1.333333 -0.353604 -1.333333 0 
C -1.333333 0.353604 -1.192845 0.692773 -0.942809 0.942809 
C -0.692773 1.192845 -0.353604 1.333333 0 1.333333 
z
" id="m05388b7cd8" style="stroke:#ff0000;"/>
    </defs>
    <g clip-path="url(#p0e093d5dc8)">
     <use style="fill:#ff0000;stroke:#ff0000;" x="898.693559" xlink:href="#m05388b7cd8" y="452.447133"/>
     <use style="fill:#ff0000;stroke:#ff0000;" x="691.9396" xlink:href="#m05388b7cd8" y="436.546975"/>
     <use style="fill:#ff0000;stroke:#ff0000;" x="688.649372" xlink:href="#m05388b7cd8" y="415.067375"/>
     <use style="fill:#ff0000;stroke:#ff0000;" x="886.413888" xlink:href="#m05388b7cd8" y="316.244137"/>
     <use style="fill:#ff0000;stroke:#ff0000;" x="851.822632" xlink:href="#m05388b7cd8" y="315.25797"/>
     <use style="fill:#ff0000;stroke:#ff0000;" x="804.00929" xlink:href="#m05388b7cd8" y="310.132465"/>
     <use style="fill:#ff0000;stroke:#ff0000;" x="779.706386" xlink:href="#m05388b7cd8" y="310.553915"/>
     <use style="fill:#ff0000;stroke:#ff0000;" x="685.009775" xlink:href="#m05388b7cd8" y="307.649933"/>
     <use style="fill:#ff0000;stroke:#ff0000;" x="628.745037" xlink:href="#m05388b7cd8" y="306.429024"/>
     <use style="fill:#ff0000;stroke:#ff0000;" x="614.435422" xlink:href="#m05388b7cd8" y="324.228455"/>
     <use style="fill:#ff0000;stroke:#ff0000;" x="608.256184" xlink:href="#m05388b7cd8" y="305.256356"/>
     <use style="fill:#ff0000;stroke:#ff0000;" x="472.084998" xlink:href="#m05388b7cd8" y="302.246971"/>
     <use style="fill:#ff0000;stroke:#ff0000;" x="457.693808" xlink:href="#m05388b7cd8" y="303.137496"/>
     <use style="fill:#ff0000;stroke:#ff0000;" x="439.345884" xlink:href="#m05388b7cd8" y="301.356445"/>
     <use style="fill:#ff0000;stroke:#ff0000;" x="421.583561" xlink:href="#m05388b7cd8" y="302.009538"/>
     <use style="fill:#ff0000;stroke:#ff0000;" x="406.855759" xlink:href="#m05388b7cd8" y="306.104074"/>
     <use style="fill:#ff0000;stroke:#ff0000;" x="388.118393" xlink:href="#m05388b7cd8" y="308.291606"/>
     <use style="fill:#ff0000;stroke:#ff0000;" x="393.207797" xlink:href="#m05388b7cd8" y="349.765727"/>
     <use style="fill:#ff0000;stroke:#ff0000;" x="373.628813" xlink:href="#m05388b7cd8" y="353.182569"/>
     <use style="fill:#ff0000;stroke:#ff0000;" x="372.073873" xlink:href="#m05388b7cd8" y="364.099097"/>
     <use style="fill:#ff0000;stroke:#ff0000;" x="405.637868" xlink:href="#m05388b7cd8" y="393.364057"/>
     <use style="fill:#ff0000;stroke:#ff0000;" x="374.707247" xlink:href="#m05388b7cd8" y="395.967085"/>
     <use style="fill:#ff0000;stroke:#ff0000;" x="368.708605" xlink:href="#m05388b7cd8" y="423.998528"/>
     <use style="fill:#ff0000;stroke:#ff0000;" x="537.135011" xlink:href="#m05388b7cd8" y="436.395768"/>
     <use style="fill:#ff0000;stroke:#ff0000;" x="537.419781" xlink:href="#m05388b7cd8" y="450.288064"/>
     <use style="fill:#ff0000;stroke:#ff0000;" x="396.433824" xlink:href="#m05388b7cd8" y="524.458663"/>
     <use style="fill:#ff0000;stroke:#ff0000;" x="432.29231" xlink:href="#m05388b7cd8" y="517.908986"/>
     <use style="fill:#ff0000;stroke:#ff0000;" x="452.279055" xlink:href="#m05388b7cd8" y="537.351257"/>
     <use style="fill:#ff0000;stroke:#ff0000;" x="502.706814" xlink:href="#m05388b7cd8" y="517.330769"/>
     <use style="fill:#ff0000;stroke:#ff0000;" x="508.457171" xlink:href="#m05388b7cd8" y="521.530003"/>
     <use style="fill:#ff0000;stroke:#ff0000;" x="503.403315" xlink:href="#m05388b7cd8" y="538.261268"/>
     <use style="fill:#ff0000;stroke:#ff0000;" x="521.199414" xlink:href="#m05388b7cd8" y="528.870041"/>
     <use style="fill:#ff0000;stroke:#ff0000;" x="542.327492" xlink:href="#m05388b7cd8" y="522.668171"/>
     <use style="fill:#ff0000;stroke:#ff0000;" x="582.644643" xlink:href="#m05388b7cd8" y="541.120586"/>
     <use style="fill:#ff0000;stroke:#ff0000;" x="590.82803" xlink:href="#m05388b7cd8" y="526.286675"/>
     <use style="fill:#ff0000;stroke:#ff0000;" x="605.961084" xlink:href="#m05388b7cd8" y="534.981496"/>
     <use style="fill:#ff0000;stroke:#ff0000;" x="610.41965" xlink:href="#m05388b7cd8" y="519.857297"/>
     <use style="fill:#ff0000;stroke:#ff0000;" x="631.713187" xlink:href="#m05388b7cd8" y="521.551361"/>
     <use style="fill:#ff0000;stroke:#ff0000;" x="608.168455" xlink:href="#m05388b7cd8" y="465.457516"/>
     <use style="fill:#ff0000;stroke:#ff0000;" x="610.08823" xlink:href="#m05388b7cd8" y="464.241755"/>
     <use style="fill:#ff0000;stroke:#ff0000;" x="698.06866" xlink:href="#m05388b7cd8" y="547.575145"/>
     <use style="fill:#ff0000;stroke:#ff0000;" x="741.83779" xlink:href="#m05388b7cd8" y="524.385554"/>
     <use style="fill:#ff0000;stroke:#ff0000;" x="745.212273" xlink:href="#m05388b7cd8" y="515.88304"/>
     <use style="fill:#ff0000;stroke:#ff0000;" x="767.764447" xlink:href="#m05388b7cd8" y="516.815943"/>
     <use style="fill:#ff0000;stroke:#ff0000;" x="792.321911" xlink:href="#m05388b7cd8" y="516.692145"/>
     <use style="fill:#ff0000;stroke:#ff0000;" x="921.402035" xlink:href="#m05388b7cd8" y="551.416639"/>
     <use style="fill:#ff0000;stroke:#ff0000;" x="930.366682" xlink:href="#m05388b7cd8" y="537.468516"/>
    </g>
   </g>
   <g id="line2d_18">
    <defs>
     <path d="M -0.5 0.5 
L 0.5 0.5 
L 0.5 -0.5 
L -0.5 -0.5 
z
" id="m39467c4a82" style="stroke:#1f77b4;stroke-linejoin:miter;"/>
    </defs>
    <g clip-path="url(#p0e093d5dc8)">
     <use style="fill:#1f77b4;stroke:#1f77b4;stroke-linejoin:miter;" x="898.693559" xlink:href="#m39467c4a82" y="452.447133"/>
     <use style="fill:#1f77b4;stroke:#1f77b4;stroke-linejoin:miter;" x="691.9396" xlink:href="#m39467c4a82" y="436.546975"/>
     <use style="fill:#1f77b4;stroke:#1f77b4;stroke-linejoin:miter;" x="687.833771" xlink:href="#m39467c4a82" y="432.256841"/>
     <use style="fill:#1f77b4;stroke:#1f77b4;stroke-linejoin:miter;" x="684.738189" xlink:href="#m39467c4a82" y="428.368902"/>
     <use style="fill:#1f77b4;stroke:#1f77b4;stroke-linejoin:miter;" x="684.641554" xlink:href="#m39467c4a82" y="424.312252"/>
     <use style="fill:#1f77b4;stroke:#1f77b4;stroke-linejoin:miter;" x="684.984364" xlink:href="#m39467c4a82" y="420.088755"/>
     <use style="fill:#1f77b4;stroke:#1f77b4;stroke-linejoin:miter;" x="688.649372" xlink:href="#m39467c4a82" y="415.067375"/>
     <use style="fill:#1f77b4;stroke:#1f77b4;stroke-linejoin:miter;" x="886.413888" xlink:href="#m39467c4a82" y="316.244137"/>
     <use style="fill:#1f77b4;stroke:#1f77b4;stroke-linejoin:miter;" x="851.822632" xlink:href="#m39467c4a82" y="315.25797"/>
     <use style="fill:#1f77b4;stroke:#1f77b4;stroke-linejoin:miter;" x="804.00929" xlink:href="#m39467c4a82" y="310.132465"/>
     <use style="fill:#1f77b4;stroke:#1f77b4;stroke-linejoin:miter;" x="779.706386" xlink:href="#m39467c4a82" y="310.553915"/>
     <use style="fill:#1f77b4;stroke:#1f77b4;stroke-linejoin:miter;" x="685.009775" xlink:href="#m39467c4a82" y="307.649933"/>
     <use style="fill:#1f77b4;stroke:#1f77b4;stroke-linejoin:miter;" x="672.417011" xlink:href="#m39467c4a82" y="307.827321"/>
     <use style="fill:#1f77b4;stroke:#1f77b4;stroke-linejoin:miter;" x="661.468258" xlink:href="#m39467c4a82" y="306.369755"/>
     <use style="fill:#1f77b4;stroke:#1f77b4;stroke-linejoin:miter;" x="649.36336" xlink:href="#m39467c4a82" y="308.263455"/>
     <use style="fill:#1f77b4;stroke:#1f77b4;stroke-linejoin:miter;" x="639.180964" xlink:href="#m39467c4a82" y="306.893487"/>
     <use style="fill:#1f77b4;stroke:#1f77b4;stroke-linejoin:miter;" x="628.745037" xlink:href="#m39467c4a82" y="306.429024"/>
     <use style="fill:#1f77b4;stroke:#1f77b4;stroke-linejoin:miter;" x="614.435422" xlink:href="#m39467c4a82" y="324.228455"/>
     <use style="fill:#1f77b4;stroke:#1f77b4;stroke-linejoin:miter;" x="608.256184" xlink:href="#m39467c4a82" y="305.256356"/>
     <use style="fill:#1f77b4;stroke:#1f77b4;stroke-linejoin:miter;" x="598.282111" xlink:href="#m39467c4a82" y="302.63264"/>
     <use style="fill:#1f77b4;stroke:#1f77b4;stroke-linejoin:miter;" x="588.126942" xlink:href="#m39467c4a82" y="304.177735"/>
     <use style="fill:#1f77b4;stroke:#1f77b4;stroke-linejoin:miter;" x="577.84469" xlink:href="#m39467c4a82" y="304.081621"/>
     <use style="fill:#1f77b4;stroke:#1f77b4;stroke-linejoin:miter;" x="567.779298" xlink:href="#m39467c4a82" y="304.108466"/>
     <use style="fill:#1f77b4;stroke:#1f77b4;stroke-linejoin:miter;" x="557.382549" xlink:href="#m39467c4a82" y="303.975214"/>
     <use style="fill:#1f77b4;stroke:#1f77b4;stroke-linejoin:miter;" x="546.633061" xlink:href="#m39467c4a82" y="303.197172"/>
     <use style="fill:#1f77b4;stroke:#1f77b4;stroke-linejoin:miter;" x="535.467789" xlink:href="#m39467c4a82" y="302.953517"/>
     <use style="fill:#1f77b4;stroke:#1f77b4;stroke-linejoin:miter;" x="524.055539" xlink:href="#m39467c4a82" y="302.986528"/>
     <use style="fill:#1f77b4;stroke:#1f77b4;stroke-linejoin:miter;" x="511.942179" xlink:href="#m39467c4a82" y="302.362423"/>
     <use style="fill:#1f77b4;stroke:#1f77b4;stroke-linejoin:miter;" x="498.739574" xlink:href="#m39467c4a82" y="301.27018"/>
     <use style="fill:#1f77b4;stroke:#1f77b4;stroke-linejoin:miter;" x="486.940196" xlink:href="#m39467c4a82" y="303.459101"/>
     <use style="fill:#1f77b4;stroke:#1f77b4;stroke-linejoin:miter;" x="472.084998" xlink:href="#m39467c4a82" y="302.246971"/>
     <use style="fill:#1f77b4;stroke:#1f77b4;stroke-linejoin:miter;" x="457.693808" xlink:href="#m39467c4a82" y="303.137496"/>
     <use style="fill:#1f77b4;stroke:#1f77b4;stroke-linejoin:miter;" x="439.345884" xlink:href="#m39467c4a82" y="301.356445"/>
     <use style="fill:#1f77b4;stroke:#1f77b4;stroke-linejoin:miter;" x="421.583561" xlink:href="#m39467c4a82" y="302.009538"/>
     <use style="fill:#1f77b4;stroke:#1f77b4;stroke-linejoin:miter;" x="406.855759" xlink:href="#m39467c4a82" y="306.104074"/>
     <use style="fill:#1f77b4;stroke:#1f77b4;stroke-linejoin:miter;" x="388.118393" xlink:href="#m39467c4a82" y="308.291606"/>
     <use style="fill:#1f77b4;stroke:#1f77b4;stroke-linejoin:miter;" x="393.207797" xlink:href="#m39467c4a82" y="349.765727"/>
     <use style="fill:#1f77b4;stroke:#1f77b4;stroke-linejoin:miter;" x="373.628813" xlink:href="#m39467c4a82" y="353.182569"/>
     <use style="fill:#1f77b4;stroke:#1f77b4;stroke-linejoin:miter;" x="372.073873" xlink:href="#m39467c4a82" y="364.099097"/>
     <use style="fill:#1f77b4;stroke:#1f77b4;stroke-linejoin:miter;" x="405.637868" xlink:href="#m39467c4a82" y="393.364057"/>
     <use style="fill:#1f77b4;stroke:#1f77b4;stroke-linejoin:miter;" x="374.707247" xlink:href="#m39467c4a82" y="395.967085"/>
     <use style="fill:#1f77b4;stroke:#1f77b4;stroke-linejoin:miter;" x="370.363965" xlink:href="#m39467c4a82" y="405.005437"/>
     <use style="fill:#1f77b4;stroke:#1f77b4;stroke-linejoin:miter;" x="368.256384" xlink:href="#m39467c4a82" y="414.343466"/>
     <use style="fill:#1f77b4;stroke:#1f77b4;stroke-linejoin:miter;" x="368.708605" xlink:href="#m39467c4a82" y="423.998528"/>
     <use style="fill:#1f77b4;stroke:#1f77b4;stroke-linejoin:miter;" x="537.135011" xlink:href="#m39467c4a82" y="436.395768"/>
     <use style="fill:#1f77b4;stroke:#1f77b4;stroke-linejoin:miter;" x="537.306873" xlink:href="#m39467c4a82" y="438.653149"/>
     <use style="fill:#1f77b4;stroke:#1f77b4;stroke-linejoin:miter;" x="537.339711" xlink:href="#m39467c4a82" y="440.85761"/>
     <use style="fill:#1f77b4;stroke:#1f77b4;stroke-linejoin:miter;" x="537.434658" xlink:href="#m39467c4a82" y="443.179387"/>
     <use style="fill:#1f77b4;stroke:#1f77b4;stroke-linejoin:miter;" x="537.469318" xlink:href="#m39467c4a82" y="445.459874"/>
     <use style="fill:#1f77b4;stroke:#1f77b4;stroke-linejoin:miter;" x="537.508452" xlink:href="#m39467c4a82" y="447.866094"/>
     <use style="fill:#1f77b4;stroke:#1f77b4;stroke-linejoin:miter;" x="537.419781" xlink:href="#m39467c4a82" y="450.288064"/>
     <use style="fill:#1f77b4;stroke:#1f77b4;stroke-linejoin:miter;" x="396.433824" xlink:href="#m39467c4a82" y="524.458663"/>
     <use style="fill:#1f77b4;stroke:#1f77b4;stroke-linejoin:miter;" x="432.29231" xlink:href="#m39467c4a82" y="517.908986"/>
     <use style="fill:#1f77b4;stroke:#1f77b4;stroke-linejoin:miter;" x="438.516944" xlink:href="#m39467c4a82" y="524.694162"/>
     <use style="fill:#1f77b4;stroke:#1f77b4;stroke-linejoin:miter;" x="443.124523" xlink:href="#m39467c4a82" y="532.404169"/>
     <use style="fill:#1f77b4;stroke:#1f77b4;stroke-linejoin:miter;" x="452.279055" xlink:href="#m39467c4a82" y="537.351257"/>
     <use style="fill:#1f77b4;stroke:#1f77b4;stroke-linejoin:miter;" x="502.706814" xlink:href="#m39467c4a82" y="517.330769"/>
     <use style="fill:#1f77b4;stroke:#1f77b4;stroke-linejoin:miter;" x="508.457171" xlink:href="#m39467c4a82" y="521.530003"/>
     <use style="fill:#1f77b4;stroke:#1f77b4;stroke-linejoin:miter;" x="503.403315" xlink:href="#m39467c4a82" y="538.261268"/>
     <use style="fill:#1f77b4;stroke:#1f77b4;stroke-linejoin:miter;" x="521.199414" xlink:href="#m39467c4a82" y="528.870041"/>
     <use style="fill:#1f77b4;stroke:#1f77b4;stroke-linejoin:miter;" x="542.327492" xlink:href="#m39467c4a82" y="522.668171"/>
     <use style="fill:#1f77b4;stroke:#1f77b4;stroke-linejoin:miter;" x="548.037217" xlink:href="#m39467c4a82" y="526.556158"/>
     <use style="fill:#1f77b4;stroke:#1f77b4;stroke-linejoin:miter;" x="554.085895" xlink:href="#m39467c4a82" y="530.013562"/>
     <use style="fill:#1f77b4;stroke:#1f77b4;stroke-linejoin:miter;" x="561.627444" xlink:href="#m39467c4a82" y="530.238767"/>
     <use style="fill:#1f77b4;stroke:#1f77b4;stroke-linejoin:miter;" x="568.409328" xlink:href="#m39467c4a82" y="533.107069"/>
     <use style="fill:#1f77b4;stroke:#1f77b4;stroke-linejoin:miter;" x="574.808884" xlink:href="#m39467c4a82" y="540.049092"/>
     <use style="fill:#1f77b4;stroke:#1f77b4;stroke-linejoin:miter;" x="582.644643" xlink:href="#m39467c4a82" y="541.120586"/>
     <use style="fill:#1f77b4;stroke:#1f77b4;stroke-linejoin:miter;" x="590.82803" xlink:href="#m39467c4a82" y="526.286675"/>
     <use style="fill:#1f77b4;stroke:#1f77b4;stroke-linejoin:miter;" x="598.343866" xlink:href="#m39467c4a82" y="535.317423"/>
     <use style="fill:#1f77b4;stroke:#1f77b4;stroke-linejoin:miter;" x="605.961084" xlink:href="#m39467c4a82" y="534.981496"/>
     <use style="fill:#1f77b4;stroke:#1f77b4;stroke-linejoin:miter;" x="610.41965" xlink:href="#m39467c4a82" y="519.857297"/>
     <use style="fill:#1f77b4;stroke:#1f77b4;stroke-linejoin:miter;" x="617.060377" xlink:href="#m39467c4a82" y="520.1764"/>
     <use style="fill:#1f77b4;stroke:#1f77b4;stroke-linejoin:miter;" x="623.372894" xlink:href="#m39467c4a82" y="518.362786"/>
     <use style="fill:#1f77b4;stroke:#1f77b4;stroke-linejoin:miter;" x="631.713187" xlink:href="#m39467c4a82" y="521.551361"/>
     <use style="fill:#1f77b4;stroke:#1f77b4;stroke-linejoin:miter;" x="608.168455" xlink:href="#m39467c4a82" y="465.457516"/>
     <use style="fill:#1f77b4;stroke:#1f77b4;stroke-linejoin:miter;" x="610.08823" xlink:href="#m39467c4a82" y="464.241755"/>
     <use style="fill:#1f77b4;stroke:#1f77b4;stroke-linejoin:miter;" x="698.06866" xlink:href="#m39467c4a82" y="547.575145"/>
     <use style="fill:#1f77b4;stroke:#1f77b4;stroke-linejoin:miter;" x="703.844963" xlink:href="#m39467c4a82" y="540.421223"/>
     <use style="fill:#1f77b4;stroke:#1f77b4;stroke-linejoin:miter;" x="708.685037" xlink:href="#m39467c4a82" y="533.249872"/>
     <use style="fill:#1f77b4;stroke:#1f77b4;stroke-linejoin:miter;" x="717.30271" xlink:href="#m39467c4a82" y="529.094837"/>
     <use style="fill:#1f77b4;stroke:#1f77b4;stroke-linejoin:miter;" x="723.973001" xlink:href="#m39467c4a82" y="523.416582"/>
     <use style="fill:#1f77b4;stroke:#1f77b4;stroke-linejoin:miter;" x="741.83779" xlink:href="#m39467c4a82" y="524.385554"/>
     <use style="fill:#1f77b4;stroke:#1f77b4;stroke-linejoin:miter;" x="745.212273" xlink:href="#m39467c4a82" y="515.88304"/>
     <use style="fill:#1f77b4;stroke:#1f77b4;stroke-linejoin:miter;" x="767.764447" xlink:href="#m39467c4a82" y="516.815943"/>
     <use style="fill:#1f77b4;stroke:#1f77b4;stroke-linejoin:miter;" x="792.321911" xlink:href="#m39467c4a82" y="516.692145"/>
     <use style="fill:#1f77b4;stroke:#1f77b4;stroke-linejoin:miter;" x="921.402035" xlink:href="#m39467c4a82" y="551.416639"/>
     <use style="fill:#1f77b4;stroke:#1f77b4;stroke-linejoin:miter;" x="930.366682" xlink:href="#m39467c4a82" y="537.468516"/>
    </g>
   </g>
   <g id="patch_3">
    <path d="M 144 768.96 
L 144 103.68 
" style="fill:none;stroke:#000000;stroke-linecap:square;stroke-linejoin:miter;stroke-width:0.8;"/>
   </g>
   <g id="patch_4">
    <path d="M 1036.8 768.96 
L 1036.8 103.68 
" style="fill:none;stroke:#000000;stroke-linecap:square;stroke-linejoin:miter;stroke-width:0.8;"/>
   </g>
   <g id="patch_5">
    <path d="M 144 768.96 
L 1036.8 768.96 
" style="fill:none;stroke:#000000;stroke-linecap:square;stroke-linejoin:miter;stroke-width:0.8;"/>
   </g>
   <g id="patch_6">
    <path d="M 144 103.68 
L 1036.8 103.68 
" style="fill:none;stroke:#000000;stroke-linecap:square;stroke-linejoin:miter;stroke-width:0.8;"/>
   </g>
  </g>
 </g>
 <defs>
  <clipPath id="p0e093d5dc8">
   <rect height="665.28" width="892.8" x="144" y="103.68"/>
  </clipPath>
 </defs>
</svg>
