<?xml version="1.0" encoding="utf-8" standalone="no"?>
<!DOCTYPE svg PUBLIC "-//W3C//DTD SVG 1.1//EN"
  "http://www.w3.org/Graphics/SVG/1.1/DTD/svg11.dtd">
<!-- Created with matplotlib (http://matplotlib.org/) -->
<svg height="864pt" version="1.1" viewBox="0 0 1152 864" width="1152pt" xmlns="http://www.w3.org/2000/svg" xmlns:xlink="http://www.w3.org/1999/xlink">
 <defs>
  <style type="text/css">
*{stroke-linecap:butt;stroke-linejoin:round;}
  </style>
 </defs>
 <g id="figure_1">
  <g id="patch_1">
   <path d="M 0 864 
L 1152 864 
L 1152 0 
L 0 0 
z
" style="fill:#ffffff;"/>
  </g>
  <g id="axes_1">
   <g id="patch_2">
    <path d="M 144 768.96 
L 1036.8 768.96 
L 1036.8 103.68 
L 144 103.68 
z
" style="fill:#ffffff;"/>
   </g>
   <g id="matplotlib.axis_1">
    <g id="xtick_1">
     <g id="line2d_1">
      <defs>
       <path d="M 0 0 
L 0 3.5 
" id="mf02888e9da" style="stroke:#000000;stroke-width:0.8;"/>
      </defs>
      <g>
       <use style="stroke:#000000;stroke-width:0.8;" x="207.771429" xlink:href="#mf02888e9da" y="768.96"/>
      </g>
     </g>
     <g id="text_1">
      <!-- −6000 -->
      <defs>
       <path d="M 10.59375 35.5 
L 73.1875 35.5 
L 73.1875 27.203125 
L 10.59375 27.203125 
z
" id="DejaVuSans-2212"/>
       <path d="M 33.015625 40.375 
Q 26.375 40.375 22.484375 35.828125 
Q 18.609375 31.296875 18.609375 23.390625 
Q 18.609375 15.53125 22.484375 10.953125 
Q 26.375 6.390625 33.015625 6.390625 
Q 39.65625 6.390625 43.53125 10.953125 
Q 47.40625 15.53125 47.40625 23.390625 
Q 47.40625 31.296875 43.53125 35.828125 
Q 39.65625 40.375 33.015625 40.375 
z
M 52.59375 71.296875 
L 52.59375 62.3125 
Q 48.875 64.0625 45.09375 64.984375 
Q 41.3125 65.921875 37.59375 65.921875 
Q 27.828125 65.921875 22.671875 59.328125 
Q 17.53125 52.734375 16.796875 39.40625 
Q 19.671875 43.65625 24.015625 45.921875 
Q 28.375 48.1875 33.59375 48.1875 
Q 44.578125 48.1875 50.953125 41.515625 
Q 57.328125 34.859375 57.328125 23.390625 
Q 57.328125 12.15625 50.6875 5.359375 
Q 44.046875 -1.421875 33.015625 -1.421875 
Q 20.359375 -1.421875 13.671875 8.265625 
Q 6.984375 17.96875 6.984375 36.375 
Q 6.984375 53.65625 15.1875 63.9375 
Q 23.390625 74.21875 37.203125 74.21875 
Q 40.921875 74.21875 44.703125 73.484375 
Q 48.484375 72.75 52.59375 71.296875 
z
" id="DejaVuSans-36"/>
       <path d="M 31.78125 66.40625 
Q 24.171875 66.40625 20.328125 58.90625 
Q 16.5 51.421875 16.5 36.375 
Q 16.5 21.390625 20.328125 13.890625 
Q 24.171875 6.390625 31.78125 6.390625 
Q 39.453125 6.390625 43.28125 13.890625 
Q 47.125 21.390625 47.125 36.375 
Q 47.125 51.421875 43.28125 58.90625 
Q 39.453125 66.40625 31.78125 66.40625 
z
M 31.78125 74.21875 
Q 44.046875 74.21875 50.515625 64.515625 
Q 56.984375 54.828125 56.984375 36.375 
Q 56.984375 17.96875 50.515625 8.265625 
Q 44.046875 -1.421875 31.78125 -1.421875 
Q 19.53125 -1.421875 13.0625 8.265625 
Q 6.59375 17.96875 6.59375 36.375 
Q 6.59375 54.828125 13.0625 64.515625 
Q 19.53125 74.21875 31.78125 74.21875 
z
" id="DejaVuSans-30"/>
      </defs>
      <g transform="translate(190.856585 783.558437)scale(0.1 -0.1)">
       <use xlink:href="#DejaVuSans-2212"/>
       <use x="83.789062" xlink:href="#DejaVuSans-36"/>
       <use x="147.412109" xlink:href="#DejaVuSans-30"/>
       <use x="211.035156" xlink:href="#DejaVuSans-30"/>
       <use x="274.658203" xlink:href="#DejaVuSans-30"/>
      </g>
     </g>
    </g>
    <g id="xtick_2">
     <g id="line2d_2">
      <g>
       <use style="stroke:#000000;stroke-width:0.8;" x="335.314286" xlink:href="#mf02888e9da" y="768.96"/>
      </g>
     </g>
     <g id="text_2">
      <!-- −4000 -->
      <defs>
       <path d="M 37.796875 64.3125 
L 12.890625 25.390625 
L 37.796875 25.390625 
z
M 35.203125 72.90625 
L 47.609375 72.90625 
L 47.609375 25.390625 
L 58.015625 25.390625 
L 58.015625 17.1875 
L 47.609375 17.1875 
L 47.609375 0 
L 37.796875 0 
L 37.796875 17.1875 
L 4.890625 17.1875 
L 4.890625 26.703125 
z
" id="DejaVuSans-34"/>
      </defs>
      <g transform="translate(318.399442 783.558437)scale(0.1 -0.1)">
       <use xlink:href="#DejaVuSans-2212"/>
       <use x="83.789062" xlink:href="#DejaVuSans-34"/>
       <use x="147.412109" xlink:href="#DejaVuSans-30"/>
       <use x="211.035156" xlink:href="#DejaVuSans-30"/>
       <use x="274.658203" xlink:href="#DejaVuSans-30"/>
      </g>
     </g>
    </g>
    <g id="xtick_3">
     <g id="line2d_3">
      <g>
       <use style="stroke:#000000;stroke-width:0.8;" x="462.857143" xlink:href="#mf02888e9da" y="768.96"/>
      </g>
     </g>
     <g id="text_3">
      <!-- −2000 -->
      <defs>
       <path d="M 19.1875 8.296875 
L 53.609375 8.296875 
L 53.609375 0 
L 7.328125 0 
L 7.328125 8.296875 
Q 12.9375 14.109375 22.625 23.890625 
Q 32.328125 33.6875 34.8125 36.53125 
Q 39.546875 41.84375 41.421875 45.53125 
Q 43.3125 49.21875 43.3125 52.78125 
Q 43.3125 58.59375 39.234375 62.25 
Q 35.15625 65.921875 28.609375 65.921875 
Q 23.96875 65.921875 18.8125 64.3125 
Q 13.671875 62.703125 7.8125 59.421875 
L 7.8125 69.390625 
Q 13.765625 71.78125 18.9375 73 
Q 24.125 74.21875 28.421875 74.21875 
Q 39.75 74.21875 46.484375 68.546875 
Q 53.21875 62.890625 53.21875 53.421875 
Q 53.21875 48.921875 51.53125 44.890625 
Q 49.859375 40.875 45.40625 35.40625 
Q 44.1875 33.984375 37.640625 27.21875 
Q 31.109375 20.453125 19.1875 8.296875 
z
" id="DejaVuSans-32"/>
      </defs>
      <g transform="translate(445.942299 783.558437)scale(0.1 -0.1)">
       <use xlink:href="#DejaVuSans-2212"/>
       <use x="83.789062" xlink:href="#DejaVuSans-32"/>
       <use x="147.412109" xlink:href="#DejaVuSans-30"/>
       <use x="211.035156" xlink:href="#DejaVuSans-30"/>
       <use x="274.658203" xlink:href="#DejaVuSans-30"/>
      </g>
     </g>
    </g>
    <g id="xtick_4">
     <g id="line2d_4">
      <g>
       <use style="stroke:#000000;stroke-width:0.8;" x="590.4" xlink:href="#mf02888e9da" y="768.96"/>
      </g>
     </g>
     <g id="text_4">
      <!-- 0 -->
      <g transform="translate(587.21875 783.558437)scale(0.1 -0.1)">
       <use xlink:href="#DejaVuSans-30"/>
      </g>
     </g>
    </g>
    <g id="xtick_5">
     <g id="line2d_5">
      <g>
       <use style="stroke:#000000;stroke-width:0.8;" x="717.942857" xlink:href="#mf02888e9da" y="768.96"/>
      </g>
     </g>
     <g id="text_5">
      <!-- 2000 -->
      <g transform="translate(705.217857 783.558437)scale(0.1 -0.1)">
       <use xlink:href="#DejaVuSans-32"/>
       <use x="63.623047" xlink:href="#DejaVuSans-30"/>
       <use x="127.246094" xlink:href="#DejaVuSans-30"/>
       <use x="190.869141" xlink:href="#DejaVuSans-30"/>
      </g>
     </g>
    </g>
    <g id="xtick_6">
     <g id="line2d_6">
      <g>
       <use style="stroke:#000000;stroke-width:0.8;" x="845.485714" xlink:href="#mf02888e9da" y="768.96"/>
      </g>
     </g>
     <g id="text_6">
      <!-- 4000 -->
      <g transform="translate(832.760714 783.558437)scale(0.1 -0.1)">
       <use xlink:href="#DejaVuSans-34"/>
       <use x="63.623047" xlink:href="#DejaVuSans-30"/>
       <use x="127.246094" xlink:href="#DejaVuSans-30"/>
       <use x="190.869141" xlink:href="#DejaVuSans-30"/>
      </g>
     </g>
    </g>
    <g id="xtick_7">
     <g id="line2d_7">
      <g>
       <use style="stroke:#000000;stroke-width:0.8;" x="973.028571" xlink:href="#mf02888e9da" y="768.96"/>
      </g>
     </g>
     <g id="text_7">
      <!-- 6000 -->
      <g transform="translate(960.303571 783.558437)scale(0.1 -0.1)">
       <use xlink:href="#DejaVuSans-36"/>
       <use x="63.623047" xlink:href="#DejaVuSans-30"/>
       <use x="127.246094" xlink:href="#DejaVuSans-30"/>
       <use x="190.869141" xlink:href="#DejaVuSans-30"/>
      </g>
     </g>
    </g>
   </g>
   <g id="matplotlib.axis_2">
    <g id="ytick_1">
     <g id="line2d_8">
      <defs>
       <path d="M 0 0 
L -3.5 0 
" id="me30e11d71b" style="stroke:#000000;stroke-width:0.8;"/>
      </defs>
      <g>
       <use style="stroke:#000000;stroke-width:0.8;" x="144" xlink:href="#me30e11d71b" y="721.44"/>
      </g>
     </g>
     <g id="text_8">
      <!-- −6000 -->
      <g transform="translate(103.170312 725.239219)scale(0.1 -0.1)">
       <use xlink:href="#DejaVuSans-2212"/>
       <use x="83.789062" xlink:href="#DejaVuSans-36"/>
       <use x="147.412109" xlink:href="#DejaVuSans-30"/>
       <use x="211.035156" xlink:href="#DejaVuSans-30"/>
       <use x="274.658203" xlink:href="#DejaVuSans-30"/>
      </g>
     </g>
    </g>
    <g id="ytick_2">
     <g id="line2d_9">
      <g>
       <use style="stroke:#000000;stroke-width:0.8;" x="144" xlink:href="#me30e11d71b" y="626.4"/>
      </g>
     </g>
     <g id="text_9">
      <!-- −4000 -->
      <g transform="translate(103.170312 630.199219)scale(0.1 -0.1)">
       <use xlink:href="#DejaVuSans-2212"/>
       <use x="83.789062" xlink:href="#DejaVuSans-34"/>
       <use x="147.412109" xlink:href="#DejaVuSans-30"/>
       <use x="211.035156" xlink:href="#DejaVuSans-30"/>
       <use x="274.658203" xlink:href="#DejaVuSans-30"/>
      </g>
     </g>
    </g>
    <g id="ytick_3">
     <g id="line2d_10">
      <g>
       <use style="stroke:#000000;stroke-width:0.8;" x="144" xlink:href="#me30e11d71b" y="531.36"/>
      </g>
     </g>
     <g id="text_10">
      <!-- −2000 -->
      <g transform="translate(103.170312 535.159219)scale(0.1 -0.1)">
       <use xlink:href="#DejaVuSans-2212"/>
       <use x="83.789062" xlink:href="#DejaVuSans-32"/>
       <use x="147.412109" xlink:href="#DejaVuSans-30"/>
       <use x="211.035156" xlink:href="#DejaVuSans-30"/>
       <use x="274.658203" xlink:href="#DejaVuSans-30"/>
      </g>
     </g>
    </g>
    <g id="ytick_4">
     <g id="line2d_11">
      <g>
       <use style="stroke:#000000;stroke-width:0.8;" x="144" xlink:href="#me30e11d71b" y="436.32"/>
      </g>
     </g>
     <g id="text_11">
      <!-- 0 -->
      <g transform="translate(130.6375 440.119219)scale(0.1 -0.1)">
       <use xlink:href="#DejaVuSans-30"/>
      </g>
     </g>
    </g>
    <g id="ytick_5">
     <g id="line2d_12">
      <g>
       <use style="stroke:#000000;stroke-width:0.8;" x="144" xlink:href="#me30e11d71b" y="341.28"/>
      </g>
     </g>
     <g id="text_12">
      <!-- 2000 -->
      <g transform="translate(111.55 345.079219)scale(0.1 -0.1)">
       <use xlink:href="#DejaVuSans-32"/>
       <use x="63.623047" xlink:href="#DejaVuSans-30"/>
       <use x="127.246094" xlink:href="#DejaVuSans-30"/>
       <use x="190.869141" xlink:href="#DejaVuSans-30"/>
      </g>
     </g>
    </g>
    <g id="ytick_6">
     <g id="line2d_13">
      <g>
       <use style="stroke:#000000;stroke-width:0.8;" x="144" xlink:href="#me30e11d71b" y="246.24"/>
      </g>
     </g>
     <g id="text_13">
      <!-- 4000 -->
      <g transform="translate(111.55 250.039219)scale(0.1 -0.1)">
       <use xlink:href="#DejaVuSans-34"/>
       <use x="63.623047" xlink:href="#DejaVuSans-30"/>
       <use x="127.246094" xlink:href="#DejaVuSans-30"/>
       <use x="190.869141" xlink:href="#DejaVuSans-30"/>
      </g>
     </g>
    </g>
    <g id="ytick_7">
     <g id="line2d_14">
      <g>
       <use style="stroke:#000000;stroke-width:0.8;" x="144" xlink:href="#me30e11d71b" y="151.2"/>
      </g>
     </g>
     <g id="text_14">
      <!-- 6000 -->
      <g transform="translate(111.55 154.999219)scale(0.1 -0.1)">
       <use xlink:href="#DejaVuSans-36"/>
       <use x="63.623047" xlink:href="#DejaVuSans-30"/>
       <use x="127.246094" xlink:href="#DejaVuSans-30"/>
       <use x="190.869141" xlink:href="#DejaVuSans-30"/>
      </g>
     </g>
    </g>
   </g>
   <g id="line2d_15">
    <path clip-path="url(#pd30ca192de)" d="M 590.4 768.96 
L 590.4 103.68 
" style="fill:none;stroke:#1f77b4;stroke-linecap:square;stroke-width:1.5;"/>
   </g>
   <g id="line2d_16">
    <path clip-path="url(#pd30ca192de)" d="M 144 436.32 
L 1036.8 436.32 
" style="fill:none;stroke:#1f77b4;stroke-linecap:square;stroke-width:1.5;"/>
   </g>
   <g id="line2d_17">
    <defs>
     <path d="M 0 1.333333 
C 0.353604 1.333333 0.692773 1.192845 0.942809 0.942809 
C 1.192845 0.692773 1.333333 0.353604 1.333333 0 
C 1.333333 -0.353604 1.192845 -0.692773 0.942809 -0.942809 
C 0.692773 -1.192845 0.353604 -1.333333 0 -1.333333 
C -0.353604 -1.333333 -0.692773 -1.192845 -0.942809 -0.942809 
C -1.192845 -0.692773 -1.333333 -0.353604 -1.333333 0 
C -1.333333 0.353604 -1.192845 0.692773 -0.942809 0.942809 
C -0.692773 1.192845 -0.353604 1.333333 0 1.333333 
z
" id="ma8f33bd592" style="stroke:#ff0000;"/>
    </defs>
    <g clip-path="url(#pd30ca192de)">
     <use style="fill:#ff0000;stroke:#ff0000;" x="695.292367" xlink:href="#ma8f33bd592" y="439.284247"/>
     <use style="fill:#ff0000;stroke:#ff0000;" x="691.912697" xlink:href="#ma8f33bd592" y="414.495612"/>
     <use style="fill:#ff0000;stroke:#ff0000;" x="919.199851" xlink:href="#ma8f33bd592" y="314.746479"/>
     <use style="fill:#ff0000;stroke:#ff0000;" x="871.970879" xlink:href="#ma8f33bd592" y="314.64821"/>
     <use style="fill:#ff0000;stroke:#ff0000;" x="830.289894" xlink:href="#ma8f33bd592" y="316.808091"/>
     <use style="fill:#ff0000;stroke:#ff0000;" x="810.69015" xlink:href="#ma8f33bd592" y="310.64623"/>
     <use style="fill:#ff0000;stroke:#ff0000;" x="783.556795" xlink:href="#ma8f33bd592" y="310.717791"/>
     <use style="fill:#ff0000;stroke:#ff0000;" x="762.656118" xlink:href="#ma8f33bd592" y="308.937808"/>
     <use style="fill:#ff0000;stroke:#ff0000;" x="678.401658" xlink:href="#ma8f33bd592" y="307.36026"/>
     <use style="fill:#ff0000;stroke:#ff0000;" x="628.571703" xlink:href="#ma8f33bd592" y="306.510133"/>
     <use style="fill:#ff0000;stroke:#ff0000;" x="613.327178" xlink:href="#ma8f33bd592" y="324.09962"/>
     <use style="fill:#ff0000;stroke:#ff0000;" x="605.483286" xlink:href="#ma8f33bd592" y="305.384954"/>
     <use style="fill:#ff0000;stroke:#ff0000;" x="480.780826" xlink:href="#ma8f33bd592" y="303.349684"/>
     <use style="fill:#ff0000;stroke:#ff0000;" x="464.56762" xlink:href="#ma8f33bd592" y="303.49135"/>
     <use style="fill:#ff0000;stroke:#ff0000;" x="446.238367" xlink:href="#ma8f33bd592" y="302.846123"/>
     <use style="fill:#ff0000;stroke:#ff0000;" x="426.322819" xlink:href="#ma8f33bd592" y="302.819224"/>
     <use style="fill:#ff0000;stroke:#ff0000;" x="408.610497" xlink:href="#ma8f33bd592" y="306.146392"/>
     <use style="fill:#ff0000;stroke:#ff0000;" x="390.227476" xlink:href="#ma8f33bd592" y="310.185643"/>
     <use style="fill:#ff0000;stroke:#ff0000;" x="398.156745" xlink:href="#ma8f33bd592" y="343.78999"/>
     <use style="fill:#ff0000;stroke:#ff0000;" x="373.172292" xlink:href="#ma8f33bd592" y="359.166302"/>
     <use style="fill:#ff0000;stroke:#ff0000;" x="411.167196" xlink:href="#ma8f33bd592" y="392.723161"/>
     <use style="fill:#ff0000;stroke:#ff0000;" x="372.395658" xlink:href="#ma8f33bd592" y="394.402503"/>
     <use style="fill:#ff0000;stroke:#ff0000;" x="369.076637" xlink:href="#ma8f33bd592" y="426.278106"/>
     <use style="fill:#ff0000;stroke:#ff0000;" x="537.133967" xlink:href="#ma8f33bd592" y="437.261887"/>
     <use style="fill:#ff0000;stroke:#ff0000;" x="537.399134" xlink:href="#ma8f33bd592" y="450.208734"/>
     <use style="fill:#ff0000;stroke:#ff0000;" x="400.547281" xlink:href="#ma8f33bd592" y="527.644737"/>
     <use style="fill:#ff0000;stroke:#ff0000;" x="443.986807" xlink:href="#ma8f33bd592" y="517.281273"/>
     <use style="fill:#ff0000;stroke:#ff0000;" x="449.920653" xlink:href="#ma8f33bd592" y="536.802977"/>
     <use style="fill:#ff0000;stroke:#ff0000;" x="502.853709" xlink:href="#ma8f33bd592" y="517.738871"/>
     <use style="fill:#ff0000;stroke:#ff0000;" x="508.571981" xlink:href="#ma8f33bd592" y="523.1492"/>
     <use style="fill:#ff0000;stroke:#ff0000;" x="506.515692" xlink:href="#ma8f33bd592" y="538.322707"/>
     <use style="fill:#ff0000;stroke:#ff0000;" x="547.574509" xlink:href="#ma8f33bd592" y="522.099866"/>
     <use style="fill:#ff0000;stroke:#ff0000;" x="584.547149" xlink:href="#ma8f33bd592" y="541.474515"/>
     <use style="fill:#ff0000;stroke:#ff0000;" x="593.317819" xlink:href="#ma8f33bd592" y="526.90267"/>
     <use style="fill:#ff0000;stroke:#ff0000;" x="602.176182" xlink:href="#ma8f33bd592" y="535.069474"/>
     <use style="fill:#ff0000;stroke:#ff0000;" x="611.665855" xlink:href="#ma8f33bd592" y="540.028607"/>
     <use style="fill:#ff0000;stroke:#ff0000;" x="614.899343" xlink:href="#ma8f33bd592" y="519.094523"/>
     <use style="fill:#ff0000;stroke:#ff0000;" x="669.813304" xlink:href="#ma8f33bd592" y="523.640079"/>
     <use style="fill:#ff0000;stroke:#ff0000;" x="701.627442" xlink:href="#ma8f33bd592" y="543.969259"/>
     <use style="fill:#ff0000;stroke:#ff0000;" x="722.234782" xlink:href="#ma8f33bd592" y="523.09062"/>
     <use style="fill:#ff0000;stroke:#ff0000;" x="741.659086" xlink:href="#ma8f33bd592" y="524.034606"/>
     <use style="fill:#ff0000;stroke:#ff0000;" x="747.946895" xlink:href="#ma8f33bd592" y="515.785643"/>
     <use style="fill:#ff0000;stroke:#ff0000;" x="772.608867" xlink:href="#ma8f33bd592" y="516.197867"/>
     <use style="fill:#ff0000;stroke:#ff0000;" x="802.519639" xlink:href="#ma8f33bd592" y="516.423411"/>
     <use style="fill:#ff0000;stroke:#ff0000;" x="925.186532" xlink:href="#ma8f33bd592" y="544.06535"/>
    </g>
   </g>
   <g id="line2d_18">
    <defs>
     <path d="M -0.5 0.5 
L 0.5 0.5 
L 0.5 -0.5 
L -0.5 -0.5 
z
" id="m01f969ec5f" style="stroke:#1f77b4;stroke-linejoin:miter;"/>
    </defs>
    <g clip-path="url(#pd30ca192de)">
     <use style="fill:#1f77b4;stroke:#1f77b4;stroke-linejoin:miter;" x="695.292367" xlink:href="#m01f969ec5f" y="439.284247"/>
     <use style="fill:#1f77b4;stroke:#1f77b4;stroke-linejoin:miter;" x="691.616928" xlink:href="#m01f969ec5f" y="434.303815"/>
     <use style="fill:#1f77b4;stroke:#1f77b4;stroke-linejoin:miter;" x="687.808816" xlink:href="#m01f969ec5f" y="429.730189"/>
     <use style="fill:#1f77b4;stroke:#1f77b4;stroke-linejoin:miter;" x="688.121967" xlink:href="#m01f969ec5f" y="425.010477"/>
     <use style="fill:#1f77b4;stroke:#1f77b4;stroke-linejoin:miter;" x="688.387266" xlink:href="#m01f969ec5f" y="420.153562"/>
     <use style="fill:#1f77b4;stroke:#1f77b4;stroke-linejoin:miter;" x="691.912697" xlink:href="#m01f969ec5f" y="414.495612"/>
     <use style="fill:#1f77b4;stroke:#1f77b4;stroke-linejoin:miter;" x="919.199851" xlink:href="#m01f969ec5f" y="314.746479"/>
     <use style="fill:#1f77b4;stroke:#1f77b4;stroke-linejoin:miter;" x="871.970879" xlink:href="#m01f969ec5f" y="314.64821"/>
     <use style="fill:#1f77b4;stroke:#1f77b4;stroke-linejoin:miter;" x="830.289894" xlink:href="#m01f969ec5f" y="316.808091"/>
     <use style="fill:#1f77b4;stroke:#1f77b4;stroke-linejoin:miter;" x="810.69015" xlink:href="#m01f969ec5f" y="310.64623"/>
     <use style="fill:#1f77b4;stroke:#1f77b4;stroke-linejoin:miter;" x="783.556795" xlink:href="#m01f969ec5f" y="310.717791"/>
     <use style="fill:#1f77b4;stroke:#1f77b4;stroke-linejoin:miter;" x="762.656118" xlink:href="#m01f969ec5f" y="308.937808"/>
     <use style="fill:#1f77b4;stroke:#1f77b4;stroke-linejoin:miter;" x="678.401658" xlink:href="#m01f969ec5f" y="307.36026"/>
     <use style="fill:#1f77b4;stroke:#1f77b4;stroke-linejoin:miter;" x="665.222224" xlink:href="#m01f969ec5f" y="306.936916"/>
     <use style="fill:#1f77b4;stroke:#1f77b4;stroke-linejoin:miter;" x="652.506573" xlink:href="#m01f969ec5f" y="306.75496"/>
     <use style="fill:#1f77b4;stroke:#1f77b4;stroke-linejoin:miter;" x="640.437878" xlink:href="#m01f969ec5f" y="306.554416"/>
     <use style="fill:#1f77b4;stroke:#1f77b4;stroke-linejoin:miter;" x="628.571703" xlink:href="#m01f969ec5f" y="306.510133"/>
     <use style="fill:#1f77b4;stroke:#1f77b4;stroke-linejoin:miter;" x="613.327178" xlink:href="#m01f969ec5f" y="324.09962"/>
     <use style="fill:#1f77b4;stroke:#1f77b4;stroke-linejoin:miter;" x="605.483286" xlink:href="#m01f969ec5f" y="305.384954"/>
     <use style="fill:#1f77b4;stroke:#1f77b4;stroke-linejoin:miter;" x="594.389715" xlink:href="#m01f969ec5f" y="304.996488"/>
     <use style="fill:#1f77b4;stroke:#1f77b4;stroke-linejoin:miter;" x="582.954094" xlink:href="#m01f969ec5f" y="304.283405"/>
     <use style="fill:#1f77b4;stroke:#1f77b4;stroke-linejoin:miter;" x="571.613632" xlink:href="#m01f969ec5f" y="304.169712"/>
     <use style="fill:#1f77b4;stroke:#1f77b4;stroke-linejoin:miter;" x="559.93667" xlink:href="#m01f969ec5f" y="303.780152"/>
     <use style="fill:#1f77b4;stroke:#1f77b4;stroke-linejoin:miter;" x="548.121268" xlink:href="#m01f969ec5f" y="303.821637"/>
     <use style="fill:#1f77b4;stroke:#1f77b4;stroke-linejoin:miter;" x="535.75628" xlink:href="#m01f969ec5f" y="303.136163"/>
     <use style="fill:#1f77b4;stroke:#1f77b4;stroke-linejoin:miter;" x="522.925296" xlink:href="#m01f969ec5f" y="302.730473"/>
     <use style="fill:#1f77b4;stroke:#1f77b4;stroke-linejoin:miter;" x="509.411202" xlink:href="#m01f969ec5f" y="302.640752"/>
     <use style="fill:#1f77b4;stroke:#1f77b4;stroke-linejoin:miter;" x="495.670055" xlink:href="#m01f969ec5f" y="303.123408"/>
     <use style="fill:#1f77b4;stroke:#1f77b4;stroke-linejoin:miter;" x="480.780826" xlink:href="#m01f969ec5f" y="303.349684"/>
     <use style="fill:#1f77b4;stroke:#1f77b4;stroke-linejoin:miter;" x="464.56762" xlink:href="#m01f969ec5f" y="303.49135"/>
     <use style="fill:#1f77b4;stroke:#1f77b4;stroke-linejoin:miter;" x="446.238367" xlink:href="#m01f969ec5f" y="302.846123"/>
     <use style="fill:#1f77b4;stroke:#1f77b4;stroke-linejoin:miter;" x="426.322819" xlink:href="#m01f969ec5f" y="302.819224"/>
     <use style="fill:#1f77b4;stroke:#1f77b4;stroke-linejoin:miter;" x="408.610497" xlink:href="#m01f969ec5f" y="306.146392"/>
     <use style="fill:#1f77b4;stroke:#1f77b4;stroke-linejoin:miter;" x="390.227476" xlink:href="#m01f969ec5f" y="310.185643"/>
     <use style="fill:#1f77b4;stroke:#1f77b4;stroke-linejoin:miter;" x="398.156745" xlink:href="#m01f969ec5f" y="343.78999"/>
     <use style="fill:#1f77b4;stroke:#1f77b4;stroke-linejoin:miter;" x="387.209099" xlink:href="#m01f969ec5f" y="351.634777"/>
     <use style="fill:#1f77b4;stroke:#1f77b4;stroke-linejoin:miter;" x="373.172292" xlink:href="#m01f969ec5f" y="359.166302"/>
     <use style="fill:#1f77b4;stroke:#1f77b4;stroke-linejoin:miter;" x="411.167196" xlink:href="#m01f969ec5f" y="392.723161"/>
     <use style="fill:#1f77b4;stroke:#1f77b4;stroke-linejoin:miter;" x="372.395658" xlink:href="#m01f969ec5f" y="394.402503"/>
     <use style="fill:#1f77b4;stroke:#1f77b4;stroke-linejoin:miter;" x="370.712707" xlink:href="#m01f969ec5f" y="405.101338"/>
     <use style="fill:#1f77b4;stroke:#1f77b4;stroke-linejoin:miter;" x="369.073501" xlink:href="#m01f969ec5f" y="415.658875"/>
     <use style="fill:#1f77b4;stroke:#1f77b4;stroke-linejoin:miter;" x="369.076637" xlink:href="#m01f969ec5f" y="426.278106"/>
     <use style="fill:#1f77b4;stroke:#1f77b4;stroke-linejoin:miter;" x="537.133967" xlink:href="#m01f969ec5f" y="437.261887"/>
     <use style="fill:#1f77b4;stroke:#1f77b4;stroke-linejoin:miter;" x="537.2925" xlink:href="#m01f969ec5f" y="439.803996"/>
     <use style="fill:#1f77b4;stroke:#1f77b4;stroke-linejoin:miter;" x="537.43561" xlink:href="#m01f969ec5f" y="442.29543"/>
     <use style="fill:#1f77b4;stroke:#1f77b4;stroke-linejoin:miter;" x="537.609205" xlink:href="#m01f969ec5f" y="444.838578"/>
     <use style="fill:#1f77b4;stroke:#1f77b4;stroke-linejoin:miter;" x="537.843537" xlink:href="#m01f969ec5f" y="447.445871"/>
     <use style="fill:#1f77b4;stroke:#1f77b4;stroke-linejoin:miter;" x="537.399134" xlink:href="#m01f969ec5f" y="450.208734"/>
     <use style="fill:#1f77b4;stroke:#1f77b4;stroke-linejoin:miter;" x="400.547281" xlink:href="#m01f969ec5f" y="527.644737"/>
     <use style="fill:#1f77b4;stroke:#1f77b4;stroke-linejoin:miter;" x="443.986807" xlink:href="#m01f969ec5f" y="517.281273"/>
     <use style="fill:#1f77b4;stroke:#1f77b4;stroke-linejoin:miter;" x="447.325776" xlink:href="#m01f969ec5f" y="526.425254"/>
     <use style="fill:#1f77b4;stroke:#1f77b4;stroke-linejoin:miter;" x="449.920653" xlink:href="#m01f969ec5f" y="536.802977"/>
     <use style="fill:#1f77b4;stroke:#1f77b4;stroke-linejoin:miter;" x="502.853709" xlink:href="#m01f969ec5f" y="517.738871"/>
     <use style="fill:#1f77b4;stroke:#1f77b4;stroke-linejoin:miter;" x="508.571981" xlink:href="#m01f969ec5f" y="523.1492"/>
     <use style="fill:#1f77b4;stroke:#1f77b4;stroke-linejoin:miter;" x="506.515692" xlink:href="#m01f969ec5f" y="538.322707"/>
     <use style="fill:#1f77b4;stroke:#1f77b4;stroke-linejoin:miter;" x="547.574509" xlink:href="#m01f969ec5f" y="522.099866"/>
     <use style="fill:#1f77b4;stroke:#1f77b4;stroke-linejoin:miter;" x="560.906736" xlink:href="#m01f969ec5f" y="529.882702"/>
     <use style="fill:#1f77b4;stroke:#1f77b4;stroke-linejoin:miter;" x="568.436779" xlink:href="#m01f969ec5f" y="533.146676"/>
     <use style="fill:#1f77b4;stroke:#1f77b4;stroke-linejoin:miter;" x="575.720297" xlink:href="#m01f969ec5f" y="540.122909"/>
     <use style="fill:#1f77b4;stroke:#1f77b4;stroke-linejoin:miter;" x="584.547149" xlink:href="#m01f969ec5f" y="541.474515"/>
     <use style="fill:#1f77b4;stroke:#1f77b4;stroke-linejoin:miter;" x="593.317819" xlink:href="#m01f969ec5f" y="526.90267"/>
     <use style="fill:#1f77b4;stroke:#1f77b4;stroke-linejoin:miter;" x="602.176182" xlink:href="#m01f969ec5f" y="535.069474"/>
     <use style="fill:#1f77b4;stroke:#1f77b4;stroke-linejoin:miter;" x="611.665855" xlink:href="#m01f969ec5f" y="540.028607"/>
     <use style="fill:#1f77b4;stroke:#1f77b4;stroke-linejoin:miter;" x="614.899343" xlink:href="#m01f969ec5f" y="519.094523"/>
     <use style="fill:#1f77b4;stroke:#1f77b4;stroke-linejoin:miter;" x="622.591222" xlink:href="#m01f969ec5f" y="519.376164"/>
     <use style="fill:#1f77b4;stroke:#1f77b4;stroke-linejoin:miter;" x="631.29361" xlink:href="#m01f969ec5f" y="521.411308"/>
     <use style="fill:#1f77b4;stroke:#1f77b4;stroke-linejoin:miter;" x="639.825794" xlink:href="#m01f969ec5f" y="521.531534"/>
     <use style="fill:#1f77b4;stroke:#1f77b4;stroke-linejoin:miter;" x="648.91366" xlink:href="#m01f969ec5f" y="522.009474"/>
     <use style="fill:#1f77b4;stroke:#1f77b4;stroke-linejoin:miter;" x="658.418087" xlink:href="#m01f969ec5f" y="522.365114"/>
     <use style="fill:#1f77b4;stroke:#1f77b4;stroke-linejoin:miter;" x="669.813304" xlink:href="#m01f969ec5f" y="523.640079"/>
     <use style="fill:#1f77b4;stroke:#1f77b4;stroke-linejoin:miter;" x="701.627442" xlink:href="#m01f969ec5f" y="543.969259"/>
     <use style="fill:#1f77b4;stroke:#1f77b4;stroke-linejoin:miter;" x="707.827945" xlink:href="#m01f969ec5f" y="536.097774"/>
     <use style="fill:#1f77b4;stroke:#1f77b4;stroke-linejoin:miter;" x="713.865581" xlink:href="#m01f969ec5f" y="528.673698"/>
     <use style="fill:#1f77b4;stroke:#1f77b4;stroke-linejoin:miter;" x="722.234782" xlink:href="#m01f969ec5f" y="523.09062"/>
     <use style="fill:#1f77b4;stroke:#1f77b4;stroke-linejoin:miter;" x="741.659086" xlink:href="#m01f969ec5f" y="524.034606"/>
     <use style="fill:#1f77b4;stroke:#1f77b4;stroke-linejoin:miter;" x="747.946895" xlink:href="#m01f969ec5f" y="515.785643"/>
     <use style="fill:#1f77b4;stroke:#1f77b4;stroke-linejoin:miter;" x="772.608867" xlink:href="#m01f969ec5f" y="516.197867"/>
     <use style="fill:#1f77b4;stroke:#1f77b4;stroke-linejoin:miter;" x="802.519639" xlink:href="#m01f969ec5f" y="516.423411"/>
     <use style="fill:#1f77b4;stroke:#1f77b4;stroke-linejoin:miter;" x="925.186532" xlink:href="#m01f969ec5f" y="544.06535"/>
    </g>
   </g>
   <g id="patch_3">
    <path d="M 144 768.96 
L 144 103.68 
" style="fill:none;stroke:#000000;stroke-linecap:square;stroke-linejoin:miter;stroke-width:0.8;"/>
   </g>
   <g id="patch_4">
    <path d="M 1036.8 768.96 
L 1036.8 103.68 
" style="fill:none;stroke:#000000;stroke-linecap:square;stroke-linejoin:miter;stroke-width:0.8;"/>
   </g>
   <g id="patch_5">
    <path d="M 144 768.96 
L 1036.8 768.96 
" style="fill:none;stroke:#000000;stroke-linecap:square;stroke-linejoin:miter;stroke-width:0.8;"/>
   </g>
   <g id="patch_6">
    <path d="M 144 103.68 
L 1036.8 103.68 
" style="fill:none;stroke:#000000;stroke-linecap:square;stroke-linejoin:miter;stroke-width:0.8;"/>
   </g>
  </g>
 </g>
 <defs>
  <clipPath id="pd30ca192de">
   <rect height="665.28" width="892.8" x="144" y="103.68"/>
  </clipPath>
 </defs>
</svg>
