<?xml version="1.0" encoding="utf-8" standalone="no"?>
<!DOCTYPE svg PUBLIC "-//W3C//DTD SVG 1.1//EN"
  "http://www.w3.org/Graphics/SVG/1.1/DTD/svg11.dtd">
<!-- Created with matplotlib (http://matplotlib.org/) -->
<svg height="864pt" version="1.1" viewBox="0 0 1152 864" width="1152pt" xmlns="http://www.w3.org/2000/svg" xmlns:xlink="http://www.w3.org/1999/xlink">
 <defs>
  <style type="text/css">
*{stroke-linecap:butt;stroke-linejoin:round;}
  </style>
 </defs>
 <g id="figure_1">
  <g id="patch_1">
   <path d="M 0 864 
L 1152 864 
L 1152 0 
L 0 0 
z
" style="fill:#ffffff;"/>
  </g>
  <g id="axes_1">
   <g id="patch_2">
    <path d="M 144 768.96 
L 1036.8 768.96 
L 1036.8 103.68 
L 144 103.68 
z
" style="fill:#ffffff;"/>
   </g>
   <g id="matplotlib.axis_1">
    <g id="xtick_1">
     <g id="line2d_1">
      <defs>
       <path d="M 0 0 
L 0 3.5 
" id="ma1f28803c7" style="stroke:#000000;stroke-width:0.8;"/>
      </defs>
      <g>
       <use style="stroke:#000000;stroke-width:0.8;" x="207.771429" xlink:href="#ma1f28803c7" y="768.96"/>
      </g>
     </g>
     <g id="text_1">
      <!-- −6000 -->
      <defs>
       <path d="M 10.59375 35.5 
L 73.1875 35.5 
L 73.1875 27.203125 
L 10.59375 27.203125 
z
" id="DejaVuSans-2212"/>
       <path d="M 33.015625 40.375 
Q 26.375 40.375 22.484375 35.828125 
Q 18.609375 31.296875 18.609375 23.390625 
Q 18.609375 15.53125 22.484375 10.953125 
Q 26.375 6.390625 33.015625 6.390625 
Q 39.65625 6.390625 43.53125 10.953125 
Q 47.40625 15.53125 47.40625 23.390625 
Q 47.40625 31.296875 43.53125 35.828125 
Q 39.65625 40.375 33.015625 40.375 
z
M 52.59375 71.296875 
L 52.59375 62.3125 
Q 48.875 64.0625 45.09375 64.984375 
Q 41.3125 65.921875 37.59375 65.921875 
Q 27.828125 65.921875 22.671875 59.328125 
Q 17.53125 52.734375 16.796875 39.40625 
Q 19.671875 43.65625 24.015625 45.921875 
Q 28.375 48.1875 33.59375 48.1875 
Q 44.578125 48.1875 50.953125 41.515625 
Q 57.328125 34.859375 57.328125 23.390625 
Q 57.328125 12.15625 50.6875 5.359375 
Q 44.046875 -1.421875 33.015625 -1.421875 
Q 20.359375 -1.421875 13.671875 8.265625 
Q 6.984375 17.96875 6.984375 36.375 
Q 6.984375 53.65625 15.1875 63.9375 
Q 23.390625 74.21875 37.203125 74.21875 
Q 40.921875 74.21875 44.703125 73.484375 
Q 48.484375 72.75 52.59375 71.296875 
z
" id="DejaVuSans-36"/>
       <path d="M 31.78125 66.40625 
Q 24.171875 66.40625 20.328125 58.90625 
Q 16.5 51.421875 16.5 36.375 
Q 16.5 21.390625 20.328125 13.890625 
Q 24.171875 6.390625 31.78125 6.390625 
Q 39.453125 6.390625 43.28125 13.890625 
Q 47.125 21.390625 47.125 36.375 
Q 47.125 51.421875 43.28125 58.90625 
Q 39.453125 66.40625 31.78125 66.40625 
z
M 31.78125 74.21875 
Q 44.046875 74.21875 50.515625 64.515625 
Q 56.984375 54.828125 56.984375 36.375 
Q 56.984375 17.96875 50.515625 8.265625 
Q 44.046875 -1.421875 31.78125 -1.421875 
Q 19.53125 -1.421875 13.0625 8.265625 
Q 6.59375 17.96875 6.59375 36.375 
Q 6.59375 54.828125 13.0625 64.515625 
Q 19.53125 74.21875 31.78125 74.21875 
z
" id="DejaVuSans-30"/>
      </defs>
      <g transform="translate(190.856585 783.558437)scale(0.1 -0.1)">
       <use xlink:href="#DejaVuSans-2212"/>
       <use x="83.789062" xlink:href="#DejaVuSans-36"/>
       <use x="147.412109" xlink:href="#DejaVuSans-30"/>
       <use x="211.035156" xlink:href="#DejaVuSans-30"/>
       <use x="274.658203" xlink:href="#DejaVuSans-30"/>
      </g>
     </g>
    </g>
    <g id="xtick_2">
     <g id="line2d_2">
      <g>
       <use style="stroke:#000000;stroke-width:0.8;" x="335.314286" xlink:href="#ma1f28803c7" y="768.96"/>
      </g>
     </g>
     <g id="text_2">
      <!-- −4000 -->
      <defs>
       <path d="M 37.796875 64.3125 
L 12.890625 25.390625 
L 37.796875 25.390625 
z
M 35.203125 72.90625 
L 47.609375 72.90625 
L 47.609375 25.390625 
L 58.015625 25.390625 
L 58.015625 17.1875 
L 47.609375 17.1875 
L 47.609375 0 
L 37.796875 0 
L 37.796875 17.1875 
L 4.890625 17.1875 
L 4.890625 26.703125 
z
" id="DejaVuSans-34"/>
      </defs>
      <g transform="translate(318.399442 783.558437)scale(0.1 -0.1)">
       <use xlink:href="#DejaVuSans-2212"/>
       <use x="83.789062" xlink:href="#DejaVuSans-34"/>
       <use x="147.412109" xlink:href="#DejaVuSans-30"/>
       <use x="211.035156" xlink:href="#DejaVuSans-30"/>
       <use x="274.658203" xlink:href="#DejaVuSans-30"/>
      </g>
     </g>
    </g>
    <g id="xtick_3">
     <g id="line2d_3">
      <g>
       <use style="stroke:#000000;stroke-width:0.8;" x="462.857143" xlink:href="#ma1f28803c7" y="768.96"/>
      </g>
     </g>
     <g id="text_3">
      <!-- −2000 -->
      <defs>
       <path d="M 19.1875 8.296875 
L 53.609375 8.296875 
L 53.609375 0 
L 7.328125 0 
L 7.328125 8.296875 
Q 12.9375 14.109375 22.625 23.890625 
Q 32.328125 33.6875 34.8125 36.53125 
Q 39.546875 41.84375 41.421875 45.53125 
Q 43.3125 49.21875 43.3125 52.78125 
Q 43.3125 58.59375 39.234375 62.25 
Q 35.15625 65.921875 28.609375 65.921875 
Q 23.96875 65.921875 18.8125 64.3125 
Q 13.671875 62.703125 7.8125 59.421875 
L 7.8125 69.390625 
Q 13.765625 71.78125 18.9375 73 
Q 24.125 74.21875 28.421875 74.21875 
Q 39.75 74.21875 46.484375 68.546875 
Q 53.21875 62.890625 53.21875 53.421875 
Q 53.21875 48.921875 51.53125 44.890625 
Q 49.859375 40.875 45.40625 35.40625 
Q 44.1875 33.984375 37.640625 27.21875 
Q 31.109375 20.453125 19.1875 8.296875 
z
" id="DejaVuSans-32"/>
      </defs>
      <g transform="translate(445.942299 783.558437)scale(0.1 -0.1)">
       <use xlink:href="#DejaVuSans-2212"/>
       <use x="83.789062" xlink:href="#DejaVuSans-32"/>
       <use x="147.412109" xlink:href="#DejaVuSans-30"/>
       <use x="211.035156" xlink:href="#DejaVuSans-30"/>
       <use x="274.658203" xlink:href="#DejaVuSans-30"/>
      </g>
     </g>
    </g>
    <g id="xtick_4">
     <g id="line2d_4">
      <g>
       <use style="stroke:#000000;stroke-width:0.8;" x="590.4" xlink:href="#ma1f28803c7" y="768.96"/>
      </g>
     </g>
     <g id="text_4">
      <!-- 0 -->
      <g transform="translate(587.21875 783.558437)scale(0.1 -0.1)">
       <use xlink:href="#DejaVuSans-30"/>
      </g>
     </g>
    </g>
    <g id="xtick_5">
     <g id="line2d_5">
      <g>
       <use style="stroke:#000000;stroke-width:0.8;" x="717.942857" xlink:href="#ma1f28803c7" y="768.96"/>
      </g>
     </g>
     <g id="text_5">
      <!-- 2000 -->
      <g transform="translate(705.217857 783.558437)scale(0.1 -0.1)">
       <use xlink:href="#DejaVuSans-32"/>
       <use x="63.623047" xlink:href="#DejaVuSans-30"/>
       <use x="127.246094" xlink:href="#DejaVuSans-30"/>
       <use x="190.869141" xlink:href="#DejaVuSans-30"/>
      </g>
     </g>
    </g>
    <g id="xtick_6">
     <g id="line2d_6">
      <g>
       <use style="stroke:#000000;stroke-width:0.8;" x="845.485714" xlink:href="#ma1f28803c7" y="768.96"/>
      </g>
     </g>
     <g id="text_6">
      <!-- 4000 -->
      <g transform="translate(832.760714 783.558437)scale(0.1 -0.1)">
       <use xlink:href="#DejaVuSans-34"/>
       <use x="63.623047" xlink:href="#DejaVuSans-30"/>
       <use x="127.246094" xlink:href="#DejaVuSans-30"/>
       <use x="190.869141" xlink:href="#DejaVuSans-30"/>
      </g>
     </g>
    </g>
    <g id="xtick_7">
     <g id="line2d_7">
      <g>
       <use style="stroke:#000000;stroke-width:0.8;" x="973.028571" xlink:href="#ma1f28803c7" y="768.96"/>
      </g>
     </g>
     <g id="text_7">
      <!-- 6000 -->
      <g transform="translate(960.303571 783.558437)scale(0.1 -0.1)">
       <use xlink:href="#DejaVuSans-36"/>
       <use x="63.623047" xlink:href="#DejaVuSans-30"/>
       <use x="127.246094" xlink:href="#DejaVuSans-30"/>
       <use x="190.869141" xlink:href="#DejaVuSans-30"/>
      </g>
     </g>
    </g>
   </g>
   <g id="matplotlib.axis_2">
    <g id="ytick_1">
     <g id="line2d_8">
      <defs>
       <path d="M 0 0 
L -3.5 0 
" id="me76dfb9aaf" style="stroke:#000000;stroke-width:0.8;"/>
      </defs>
      <g>
       <use style="stroke:#000000;stroke-width:0.8;" x="144" xlink:href="#me76dfb9aaf" y="721.44"/>
      </g>
     </g>
     <g id="text_8">
      <!-- −6000 -->
      <g transform="translate(103.170312 725.239219)scale(0.1 -0.1)">
       <use xlink:href="#DejaVuSans-2212"/>
       <use x="83.789062" xlink:href="#DejaVuSans-36"/>
       <use x="147.412109" xlink:href="#DejaVuSans-30"/>
       <use x="211.035156" xlink:href="#DejaVuSans-30"/>
       <use x="274.658203" xlink:href="#DejaVuSans-30"/>
      </g>
     </g>
    </g>
    <g id="ytick_2">
     <g id="line2d_9">
      <g>
       <use style="stroke:#000000;stroke-width:0.8;" x="144" xlink:href="#me76dfb9aaf" y="626.4"/>
      </g>
     </g>
     <g id="text_9">
      <!-- −4000 -->
      <g transform="translate(103.170312 630.199219)scale(0.1 -0.1)">
       <use xlink:href="#DejaVuSans-2212"/>
       <use x="83.789062" xlink:href="#DejaVuSans-34"/>
       <use x="147.412109" xlink:href="#DejaVuSans-30"/>
       <use x="211.035156" xlink:href="#DejaVuSans-30"/>
       <use x="274.658203" xlink:href="#DejaVuSans-30"/>
      </g>
     </g>
    </g>
    <g id="ytick_3">
     <g id="line2d_10">
      <g>
       <use style="stroke:#000000;stroke-width:0.8;" x="144" xlink:href="#me76dfb9aaf" y="531.36"/>
      </g>
     </g>
     <g id="text_10">
      <!-- −2000 -->
      <g transform="translate(103.170312 535.159219)scale(0.1 -0.1)">
       <use xlink:href="#DejaVuSans-2212"/>
       <use x="83.789062" xlink:href="#DejaVuSans-32"/>
       <use x="147.412109" xlink:href="#DejaVuSans-30"/>
       <use x="211.035156" xlink:href="#DejaVuSans-30"/>
       <use x="274.658203" xlink:href="#DejaVuSans-30"/>
      </g>
     </g>
    </g>
    <g id="ytick_4">
     <g id="line2d_11">
      <g>
       <use style="stroke:#000000;stroke-width:0.8;" x="144" xlink:href="#me76dfb9aaf" y="436.32"/>
      </g>
     </g>
     <g id="text_11">
      <!-- 0 -->
      <g transform="translate(130.6375 440.119219)scale(0.1 -0.1)">
       <use xlink:href="#DejaVuSans-30"/>
      </g>
     </g>
    </g>
    <g id="ytick_5">
     <g id="line2d_12">
      <g>
       <use style="stroke:#000000;stroke-width:0.8;" x="144" xlink:href="#me76dfb9aaf" y="341.28"/>
      </g>
     </g>
     <g id="text_12">
      <!-- 2000 -->
      <g transform="translate(111.55 345.079219)scale(0.1 -0.1)">
       <use xlink:href="#DejaVuSans-32"/>
       <use x="63.623047" xlink:href="#DejaVuSans-30"/>
       <use x="127.246094" xlink:href="#DejaVuSans-30"/>
       <use x="190.869141" xlink:href="#DejaVuSans-30"/>
      </g>
     </g>
    </g>
    <g id="ytick_6">
     <g id="line2d_13">
      <g>
       <use style="stroke:#000000;stroke-width:0.8;" x="144" xlink:href="#me76dfb9aaf" y="246.24"/>
      </g>
     </g>
     <g id="text_13">
      <!-- 4000 -->
      <g transform="translate(111.55 250.039219)scale(0.1 -0.1)">
       <use xlink:href="#DejaVuSans-34"/>
       <use x="63.623047" xlink:href="#DejaVuSans-30"/>
       <use x="127.246094" xlink:href="#DejaVuSans-30"/>
       <use x="190.869141" xlink:href="#DejaVuSans-30"/>
      </g>
     </g>
    </g>
    <g id="ytick_7">
     <g id="line2d_14">
      <g>
       <use style="stroke:#000000;stroke-width:0.8;" x="144" xlink:href="#me76dfb9aaf" y="151.2"/>
      </g>
     </g>
     <g id="text_14">
      <!-- 6000 -->
      <g transform="translate(111.55 154.999219)scale(0.1 -0.1)">
       <use xlink:href="#DejaVuSans-36"/>
       <use x="63.623047" xlink:href="#DejaVuSans-30"/>
       <use x="127.246094" xlink:href="#DejaVuSans-30"/>
       <use x="190.869141" xlink:href="#DejaVuSans-30"/>
      </g>
     </g>
    </g>
   </g>
   <g id="line2d_15">
    <path clip-path="url(#pcc28e623a0)" d="M 590.4 768.96 
L 590.4 103.68 
" style="fill:none;stroke:#1f77b4;stroke-linecap:square;stroke-width:1.5;"/>
   </g>
   <g id="line2d_16">
    <path clip-path="url(#pcc28e623a0)" d="M 144 436.32 
L 1036.8 436.32 
" style="fill:none;stroke:#1f77b4;stroke-linecap:square;stroke-width:1.5;"/>
   </g>
   <g id="line2d_17">
    <defs>
     <path d="M 0 1.333333 
C 0.353604 1.333333 0.692773 1.192845 0.942809 0.942809 
C 1.192845 0.692773 1.333333 0.353604 1.333333 0 
C 1.333333 -0.353604 1.192845 -0.692773 0.942809 -0.942809 
C 0.692773 -1.192845 0.353604 -1.333333 0 -1.333333 
C -0.353604 -1.333333 -0.692773 -1.192845 -0.942809 -0.942809 
C -1.192845 -0.692773 -1.333333 -0.353604 -1.333333 0 
C -1.333333 0.353604 -1.192845 0.692773 -0.942809 0.942809 
C -0.692773 1.192845 -0.353604 1.333333 0 1.333333 
z
" id="m8635aee14d" style="stroke:#ff0000;"/>
    </defs>
    <g clip-path="url(#pcc28e623a0)">
     <use style="fill:#ff0000;stroke:#ff0000;" x="898.011359" xlink:href="#m8635aee14d" y="452.223003"/>
     <use style="fill:#ff0000;stroke:#ff0000;" x="692.481928" xlink:href="#m8635aee14d" y="436.46521"/>
     <use style="fill:#ff0000;stroke:#ff0000;" x="687.952491" xlink:href="#m8635aee14d" y="415.153621"/>
     <use style="fill:#ff0000;stroke:#ff0000;" x="883.930576" xlink:href="#m8635aee14d" y="317.019397"/>
     <use style="fill:#ff0000;stroke:#ff0000;" x="852.08593" xlink:href="#m8635aee14d" y="314.988559"/>
     <use style="fill:#ff0000;stroke:#ff0000;" x="803.363555" xlink:href="#m8635aee14d" y="310.443436"/>
     <use style="fill:#ff0000;stroke:#ff0000;" x="780.097592" xlink:href="#m8635aee14d" y="310.363189"/>
     <use style="fill:#ff0000;stroke:#ff0000;" x="685.10394" xlink:href="#m8635aee14d" y="307.688404"/>
     <use style="fill:#ff0000;stroke:#ff0000;" x="628.881309" xlink:href="#m8635aee14d" y="306.305413"/>
     <use style="fill:#ff0000;stroke:#ff0000;" x="614.635437" xlink:href="#m8635aee14d" y="324.276438"/>
     <use style="fill:#ff0000;stroke:#ff0000;" x="608.404945" xlink:href="#m8635aee14d" y="305.231831"/>
     <use style="fill:#ff0000;stroke:#ff0000;" x="473.244592" xlink:href="#m8635aee14d" y="303.086641"/>
     <use style="fill:#ff0000;stroke:#ff0000;" x="458.166612" xlink:href="#m8635aee14d" y="303.157317"/>
     <use style="fill:#ff0000;stroke:#ff0000;" x="440.822754" xlink:href="#m8635aee14d" y="302.156135"/>
     <use style="fill:#ff0000;stroke:#ff0000;" x="421.890993" xlink:href="#m8635aee14d" y="301.519204"/>
     <use style="fill:#ff0000;stroke:#ff0000;" x="407.624283" xlink:href="#m8635aee14d" y="305.796931"/>
     <use style="fill:#ff0000;stroke:#ff0000;" x="387.459043" xlink:href="#m8635aee14d" y="307.091381"/>
     <use style="fill:#ff0000;stroke:#ff0000;" x="392.533277" xlink:href="#m8635aee14d" y="348.818479"/>
     <use style="fill:#ff0000;stroke:#ff0000;" x="374.252103" xlink:href="#m8635aee14d" y="352.698024"/>
     <use style="fill:#ff0000;stroke:#ff0000;" x="372.278281" xlink:href="#m8635aee14d" y="363.582277"/>
     <use style="fill:#ff0000;stroke:#ff0000;" x="406.692366" xlink:href="#m8635aee14d" y="393.240247"/>
     <use style="fill:#ff0000;stroke:#ff0000;" x="373.557735" xlink:href="#m8635aee14d" y="395.283282"/>
     <use style="fill:#ff0000;stroke:#ff0000;" x="368.975246" xlink:href="#m8635aee14d" y="423.424988"/>
     <use style="fill:#ff0000;stroke:#ff0000;" x="537.10306" xlink:href="#m8635aee14d" y="436.276678"/>
     <use style="fill:#ff0000;stroke:#ff0000;" x="537.399134" xlink:href="#m8635aee14d" y="450.208734"/>
     <use style="fill:#ff0000;stroke:#ff0000;" x="396.297446" xlink:href="#m8635aee14d" y="523.76483"/>
     <use style="fill:#ff0000;stroke:#ff0000;" x="432.220469" xlink:href="#m8635aee14d" y="517.3293"/>
     <use style="fill:#ff0000;stroke:#ff0000;" x="451.122905" xlink:href="#m8635aee14d" y="537.421799"/>
     <use style="fill:#ff0000;stroke:#ff0000;" x="501.880059" xlink:href="#m8635aee14d" y="517.458643"/>
     <use style="fill:#ff0000;stroke:#ff0000;" x="508.447717" xlink:href="#m8635aee14d" y="520.807732"/>
     <use style="fill:#ff0000;stroke:#ff0000;" x="503.527123" xlink:href="#m8635aee14d" y="537.263001"/>
     <use style="fill:#ff0000;stroke:#ff0000;" x="520.546117" xlink:href="#m8635aee14d" y="528.733498"/>
     <use style="fill:#ff0000;stroke:#ff0000;" x="541.705044" xlink:href="#m8635aee14d" y="522.719159"/>
     <use style="fill:#ff0000;stroke:#ff0000;" x="582.053788" xlink:href="#m8635aee14d" y="540.809757"/>
     <use style="fill:#ff0000;stroke:#ff0000;" x="590.235808" xlink:href="#m8635aee14d" y="526.049557"/>
     <use style="fill:#ff0000;stroke:#ff0000;" x="597.744539" xlink:href="#m8635aee14d" y="537.068301"/>
     <use style="fill:#ff0000;stroke:#ff0000;" x="605.293136" xlink:href="#m8635aee14d" y="534.919172"/>
     <use style="fill:#ff0000;stroke:#ff0000;" x="609.836921" xlink:href="#m8635aee14d" y="519.656354"/>
     <use style="fill:#ff0000;stroke:#ff0000;" x="631.036871" xlink:href="#m8635aee14d" y="521.756918"/>
     <use style="fill:#ff0000;stroke:#ff0000;" x="607.681509" xlink:href="#m8635aee14d" y="464.865429"/>
     <use style="fill:#ff0000;stroke:#ff0000;" x="610.036285" xlink:href="#m8635aee14d" y="464.409489"/>
     <use style="fill:#ff0000;stroke:#ff0000;" x="697.563396" xlink:href="#m8635aee14d" y="548.400455"/>
     <use style="fill:#ff0000;stroke:#ff0000;" x="739.180009" xlink:href="#m8635aee14d" y="523.964381"/>
     <use style="fill:#ff0000;stroke:#ff0000;" x="742.545947" xlink:href="#m8635aee14d" y="515.474656"/>
     <use style="fill:#ff0000;stroke:#ff0000;" x="764.763973" xlink:href="#m8635aee14d" y="516.575751"/>
     <use style="fill:#ff0000;stroke:#ff0000;" x="789.772965" xlink:href="#m8635aee14d" y="517.036689"/>
     <use style="fill:#ff0000;stroke:#ff0000;" x="920.341299" xlink:href="#m8635aee14d" y="553.095534"/>
     <use style="fill:#ff0000;stroke:#ff0000;" x="928.400932" xlink:href="#m8635aee14d" y="538.719896"/>
     <use style="fill:#ff0000;stroke:#ff0000;" x="900.377901" xlink:href="#m8635aee14d" y="500.648827"/>
    </g>
   </g>
   <g id="line2d_18">
    <defs>
     <path d="M -0.5 0.5 
L 0.5 0.5 
L 0.5 -0.5 
L -0.5 -0.5 
z
" id="m55648567e6" style="stroke:#1f77b4;stroke-linejoin:miter;"/>
    </defs>
    <g clip-path="url(#pcc28e623a0)">
     <use style="fill:#1f77b4;stroke:#1f77b4;stroke-linejoin:miter;" x="898.011359" xlink:href="#m55648567e6" y="452.223003"/>
     <use style="fill:#1f77b4;stroke:#1f77b4;stroke-linejoin:miter;" x="692.481928" xlink:href="#m55648567e6" y="436.46521"/>
     <use style="fill:#1f77b4;stroke:#1f77b4;stroke-linejoin:miter;" x="687.082662" xlink:href="#m55648567e6" y="432.248745"/>
     <use style="fill:#1f77b4;stroke:#1f77b4;stroke-linejoin:miter;" x="684.209607" xlink:href="#m55648567e6" y="428.374836"/>
     <use style="fill:#1f77b4;stroke:#1f77b4;stroke-linejoin:miter;" x="684.987279" xlink:href="#m55648567e6" y="424.268201"/>
     <use style="fill:#1f77b4;stroke:#1f77b4;stroke-linejoin:miter;" x="684.857779" xlink:href="#m55648567e6" y="420.049827"/>
     <use style="fill:#1f77b4;stroke:#1f77b4;stroke-linejoin:miter;" x="687.952491" xlink:href="#m55648567e6" y="415.153621"/>
     <use style="fill:#1f77b4;stroke:#1f77b4;stroke-linejoin:miter;" x="883.930576" xlink:href="#m55648567e6" y="317.019397"/>
     <use style="fill:#1f77b4;stroke:#1f77b4;stroke-linejoin:miter;" x="852.08593" xlink:href="#m55648567e6" y="314.988559"/>
     <use style="fill:#1f77b4;stroke:#1f77b4;stroke-linejoin:miter;" x="803.363555" xlink:href="#m55648567e6" y="310.443436"/>
     <use style="fill:#1f77b4;stroke:#1f77b4;stroke-linejoin:miter;" x="780.097592" xlink:href="#m55648567e6" y="310.363189"/>
     <use style="fill:#1f77b4;stroke:#1f77b4;stroke-linejoin:miter;" x="685.10394" xlink:href="#m55648567e6" y="307.688404"/>
     <use style="fill:#1f77b4;stroke:#1f77b4;stroke-linejoin:miter;" x="672.797241" xlink:href="#m55648567e6" y="307.593828"/>
     <use style="fill:#1f77b4;stroke:#1f77b4;stroke-linejoin:miter;" x="661.550622" xlink:href="#m55648567e6" y="306.523103"/>
     <use style="fill:#1f77b4;stroke:#1f77b4;stroke-linejoin:miter;" x="649.457081" xlink:href="#m55648567e6" y="308.287438"/>
     <use style="fill:#1f77b4;stroke:#1f77b4;stroke-linejoin:miter;" x="639.470041" xlink:href="#m55648567e6" y="306.534484"/>
     <use style="fill:#1f77b4;stroke:#1f77b4;stroke-linejoin:miter;" x="628.881309" xlink:href="#m55648567e6" y="306.305413"/>
     <use style="fill:#1f77b4;stroke:#1f77b4;stroke-linejoin:miter;" x="614.635437" xlink:href="#m55648567e6" y="324.276438"/>
     <use style="fill:#1f77b4;stroke:#1f77b4;stroke-linejoin:miter;" x="608.404945" xlink:href="#m55648567e6" y="305.231831"/>
     <use style="fill:#1f77b4;stroke:#1f77b4;stroke-linejoin:miter;" x="598.377836" xlink:href="#m55648567e6" y="302.671468"/>
     <use style="fill:#1f77b4;stroke:#1f77b4;stroke-linejoin:miter;" x="588.317019" xlink:href="#m55648567e6" y="303.962141"/>
     <use style="fill:#1f77b4;stroke:#1f77b4;stroke-linejoin:miter;" x="578.153765" xlink:href="#m55648567e6" y="304.267969"/>
     <use style="fill:#1f77b4;stroke:#1f77b4;stroke-linejoin:miter;" x="567.930473" xlink:href="#m55648567e6" y="304.130077"/>
     <use style="fill:#1f77b4;stroke:#1f77b4;stroke-linejoin:miter;" x="557.510457" xlink:href="#m55648567e6" y="303.88504"/>
     <use style="fill:#1f77b4;stroke:#1f77b4;stroke-linejoin:miter;" x="546.779713" xlink:href="#m55648567e6" y="303.329428"/>
     <use style="fill:#1f77b4;stroke:#1f77b4;stroke-linejoin:miter;" x="535.709667" xlink:href="#m55648567e6" y="303.022554"/>
     <use style="fill:#1f77b4;stroke:#1f77b4;stroke-linejoin:miter;" x="524.264897" xlink:href="#m55648567e6" y="302.624873"/>
     <use style="fill:#1f77b4;stroke:#1f77b4;stroke-linejoin:miter;" x="512.371734" xlink:href="#m55648567e6" y="302.598775"/>
     <use style="fill:#1f77b4;stroke:#1f77b4;stroke-linejoin:miter;" x="499.394842" xlink:href="#m55648567e6" y="301.689105"/>
     <use style="fill:#1f77b4;stroke:#1f77b4;stroke-linejoin:miter;" x="487.361314" xlink:href="#m55648567e6" y="303.332377"/>
     <use style="fill:#1f77b4;stroke:#1f77b4;stroke-linejoin:miter;" x="473.244592" xlink:href="#m55648567e6" y="303.086641"/>
     <use style="fill:#1f77b4;stroke:#1f77b4;stroke-linejoin:miter;" x="458.166612" xlink:href="#m55648567e6" y="303.157317"/>
     <use style="fill:#1f77b4;stroke:#1f77b4;stroke-linejoin:miter;" x="440.822754" xlink:href="#m55648567e6" y="302.156135"/>
     <use style="fill:#1f77b4;stroke:#1f77b4;stroke-linejoin:miter;" x="421.890993" xlink:href="#m55648567e6" y="301.519204"/>
     <use style="fill:#1f77b4;stroke:#1f77b4;stroke-linejoin:miter;" x="407.624283" xlink:href="#m55648567e6" y="305.796931"/>
     <use style="fill:#1f77b4;stroke:#1f77b4;stroke-linejoin:miter;" x="387.459043" xlink:href="#m55648567e6" y="307.091381"/>
     <use style="fill:#1f77b4;stroke:#1f77b4;stroke-linejoin:miter;" x="392.533277" xlink:href="#m55648567e6" y="348.818479"/>
     <use style="fill:#1f77b4;stroke:#1f77b4;stroke-linejoin:miter;" x="374.252103" xlink:href="#m55648567e6" y="352.698024"/>
     <use style="fill:#1f77b4;stroke:#1f77b4;stroke-linejoin:miter;" x="372.278281" xlink:href="#m55648567e6" y="363.582277"/>
     <use style="fill:#1f77b4;stroke:#1f77b4;stroke-linejoin:miter;" x="406.692366" xlink:href="#m55648567e6" y="393.240247"/>
     <use style="fill:#1f77b4;stroke:#1f77b4;stroke-linejoin:miter;" x="373.557735" xlink:href="#m55648567e6" y="395.283282"/>
     <use style="fill:#1f77b4;stroke:#1f77b4;stroke-linejoin:miter;" x="370.565265" xlink:href="#m55648567e6" y="404.478108"/>
     <use style="fill:#1f77b4;stroke:#1f77b4;stroke-linejoin:miter;" x="368.187247" xlink:href="#m55648567e6" y="413.922922"/>
     <use style="fill:#1f77b4;stroke:#1f77b4;stroke-linejoin:miter;" x="368.975246" xlink:href="#m55648567e6" y="423.424988"/>
     <use style="fill:#1f77b4;stroke:#1f77b4;stroke-linejoin:miter;" x="537.10306" xlink:href="#m55648567e6" y="436.276678"/>
     <use style="fill:#1f77b4;stroke:#1f77b4;stroke-linejoin:miter;" x="537.316085" xlink:href="#m55648567e6" y="438.566157"/>
     <use style="fill:#1f77b4;stroke:#1f77b4;stroke-linejoin:miter;" x="537.304222" xlink:href="#m55648567e6" y="440.729513"/>
     <use style="fill:#1f77b4;stroke:#1f77b4;stroke-linejoin:miter;" x="537.480941" xlink:href="#m55648567e6" y="443.02946"/>
     <use style="fill:#1f77b4;stroke:#1f77b4;stroke-linejoin:miter;" x="537.539229" xlink:href="#m55648567e6" y="445.368606"/>
     <use style="fill:#1f77b4;stroke:#1f77b4;stroke-linejoin:miter;" x="537.484484" xlink:href="#m55648567e6" y="447.719697"/>
     <use style="fill:#1f77b4;stroke:#1f77b4;stroke-linejoin:miter;" x="537.399134" xlink:href="#m55648567e6" y="450.208734"/>
     <use style="fill:#1f77b4;stroke:#1f77b4;stroke-linejoin:miter;" x="396.297446" xlink:href="#m55648567e6" y="523.76483"/>
     <use style="fill:#1f77b4;stroke:#1f77b4;stroke-linejoin:miter;" x="432.220469" xlink:href="#m55648567e6" y="517.3293"/>
     <use style="fill:#1f77b4;stroke:#1f77b4;stroke-linejoin:miter;" x="436.311372" xlink:href="#m55648567e6" y="525.17375"/>
     <use style="fill:#1f77b4;stroke:#1f77b4;stroke-linejoin:miter;" x="447.536963" xlink:href="#m55648567e6" y="528.96278"/>
     <use style="fill:#1f77b4;stroke:#1f77b4;stroke-linejoin:miter;" x="451.122905" xlink:href="#m55648567e6" y="537.421799"/>
     <use style="fill:#1f77b4;stroke:#1f77b4;stroke-linejoin:miter;" x="501.880059" xlink:href="#m55648567e6" y="517.458643"/>
     <use style="fill:#1f77b4;stroke:#1f77b4;stroke-linejoin:miter;" x="508.447717" xlink:href="#m55648567e6" y="520.807732"/>
     <use style="fill:#1f77b4;stroke:#1f77b4;stroke-linejoin:miter;" x="503.527123" xlink:href="#m55648567e6" y="537.263001"/>
     <use style="fill:#1f77b4;stroke:#1f77b4;stroke-linejoin:miter;" x="520.546117" xlink:href="#m55648567e6" y="528.733498"/>
     <use style="fill:#1f77b4;stroke:#1f77b4;stroke-linejoin:miter;" x="541.705044" xlink:href="#m55648567e6" y="522.719159"/>
     <use style="fill:#1f77b4;stroke:#1f77b4;stroke-linejoin:miter;" x="548.030045" xlink:href="#m55648567e6" y="525.092978"/>
     <use style="fill:#1f77b4;stroke:#1f77b4;stroke-linejoin:miter;" x="553.316143" xlink:href="#m55648567e6" y="530.551884"/>
     <use style="fill:#1f77b4;stroke:#1f77b4;stroke-linejoin:miter;" x="560.983758" xlink:href="#m55648567e6" y="530.445153"/>
     <use style="fill:#1f77b4;stroke:#1f77b4;stroke-linejoin:miter;" x="567.78274" xlink:href="#m55648567e6" y="533.292148"/>
     <use style="fill:#1f77b4;stroke:#1f77b4;stroke-linejoin:miter;" x="574.167398" xlink:href="#m55648567e6" y="539.970517"/>
     <use style="fill:#1f77b4;stroke:#1f77b4;stroke-linejoin:miter;" x="582.053788" xlink:href="#m55648567e6" y="540.809757"/>
     <use style="fill:#1f77b4;stroke:#1f77b4;stroke-linejoin:miter;" x="590.235808" xlink:href="#m55648567e6" y="526.049557"/>
     <use style="fill:#1f77b4;stroke:#1f77b4;stroke-linejoin:miter;" x="597.744539" xlink:href="#m55648567e6" y="537.068301"/>
     <use style="fill:#1f77b4;stroke:#1f77b4;stroke-linejoin:miter;" x="605.293136" xlink:href="#m55648567e6" y="534.919172"/>
     <use style="fill:#1f77b4;stroke:#1f77b4;stroke-linejoin:miter;" x="609.836921" xlink:href="#m55648567e6" y="519.656354"/>
     <use style="fill:#1f77b4;stroke:#1f77b4;stroke-linejoin:miter;" x="616.561885" xlink:href="#m55648567e6" y="520.239141"/>
     <use style="fill:#1f77b4;stroke:#1f77b4;stroke-linejoin:miter;" x="622.72197" xlink:href="#m55648567e6" y="518.617898"/>
     <use style="fill:#1f77b4;stroke:#1f77b4;stroke-linejoin:miter;" x="631.036871" xlink:href="#m55648567e6" y="521.756918"/>
     <use style="fill:#1f77b4;stroke:#1f77b4;stroke-linejoin:miter;" x="607.681509" xlink:href="#m55648567e6" y="464.865429"/>
     <use style="fill:#1f77b4;stroke:#1f77b4;stroke-linejoin:miter;" x="610.036285" xlink:href="#m55648567e6" y="464.409489"/>
     <use style="fill:#1f77b4;stroke:#1f77b4;stroke-linejoin:miter;" x="697.563396" xlink:href="#m55648567e6" y="548.400455"/>
     <use style="fill:#1f77b4;stroke:#1f77b4;stroke-linejoin:miter;" x="703.057781" xlink:href="#m55648567e6" y="541.092793"/>
     <use style="fill:#1f77b4;stroke:#1f77b4;stroke-linejoin:miter;" x="709.093256" xlink:href="#m55648567e6" y="534.656619"/>
     <use style="fill:#1f77b4;stroke:#1f77b4;stroke-linejoin:miter;" x="714.731755" xlink:href="#m55648567e6" y="528.262461"/>
     <use style="fill:#1f77b4;stroke:#1f77b4;stroke-linejoin:miter;" x="722.071868" xlink:href="#m55648567e6" y="523.174106"/>
     <use style="fill:#1f77b4;stroke:#1f77b4;stroke-linejoin:miter;" x="739.180009" xlink:href="#m55648567e6" y="523.964381"/>
     <use style="fill:#1f77b4;stroke:#1f77b4;stroke-linejoin:miter;" x="742.545947" xlink:href="#m55648567e6" y="515.474656"/>
     <use style="fill:#1f77b4;stroke:#1f77b4;stroke-linejoin:miter;" x="764.763973" xlink:href="#m55648567e6" y="516.575751"/>
     <use style="fill:#1f77b4;stroke:#1f77b4;stroke-linejoin:miter;" x="789.772965" xlink:href="#m55648567e6" y="517.036689"/>
     <use style="fill:#1f77b4;stroke:#1f77b4;stroke-linejoin:miter;" x="920.341299" xlink:href="#m55648567e6" y="553.095534"/>
     <use style="fill:#1f77b4;stroke:#1f77b4;stroke-linejoin:miter;" x="928.400932" xlink:href="#m55648567e6" y="538.719896"/>
     <use style="fill:#1f77b4;stroke:#1f77b4;stroke-linejoin:miter;" x="900.377901" xlink:href="#m55648567e6" y="500.648827"/>
    </g>
   </g>
   <g id="patch_3">
    <path d="M 144 768.96 
L 144 103.68 
" style="fill:none;stroke:#000000;stroke-linecap:square;stroke-linejoin:miter;stroke-width:0.8;"/>
   </g>
   <g id="patch_4">
    <path d="M 1036.8 768.96 
L 1036.8 103.68 
" style="fill:none;stroke:#000000;stroke-linecap:square;stroke-linejoin:miter;stroke-width:0.8;"/>
   </g>
   <g id="patch_5">
    <path d="M 144 768.96 
L 1036.8 768.96 
" style="fill:none;stroke:#000000;stroke-linecap:square;stroke-linejoin:miter;stroke-width:0.8;"/>
   </g>
   <g id="patch_6">
    <path d="M 144 103.68 
L 1036.8 103.68 
" style="fill:none;stroke:#000000;stroke-linecap:square;stroke-linejoin:miter;stroke-width:0.8;"/>
   </g>
  </g>
 </g>
 <defs>
  <clipPath id="pcc28e623a0">
   <rect height="665.28" width="892.8" x="144" y="103.68"/>
  </clipPath>
 </defs>
</svg>
