<?xml version="1.0" encoding="utf-8" standalone="no"?>
<!DOCTYPE svg PUBLIC "-//W3C//DTD SVG 1.1//EN"
  "http://www.w3.org/Graphics/SVG/1.1/DTD/svg11.dtd">
<!-- Created with matplotlib (http://matplotlib.org/) -->
<svg height="864pt" version="1.1" viewBox="0 0 1152 864" width="1152pt" xmlns="http://www.w3.org/2000/svg" xmlns:xlink="http://www.w3.org/1999/xlink">
 <defs>
  <style type="text/css">
*{stroke-linecap:butt;stroke-linejoin:round;}
  </style>
 </defs>
 <g id="figure_1">
  <g id="patch_1">
   <path d="M 0 864 
L 1152 864 
L 1152 0 
L 0 0 
z
" style="fill:#ffffff;"/>
  </g>
  <g id="axes_1">
   <g id="patch_2">
    <path d="M 144 768.96 
L 1036.8 768.96 
L 1036.8 103.68 
L 144 103.68 
z
" style="fill:#ffffff;"/>
   </g>
   <g id="matplotlib.axis_1">
    <g id="xtick_1">
     <g id="line2d_1">
      <defs>
       <path d="M 0 0 
L 0 3.5 
" id="me97b1b61fa" style="stroke:#000000;stroke-width:0.8;"/>
      </defs>
      <g>
       <use style="stroke:#000000;stroke-width:0.8;" x="207.771429" xlink:href="#me97b1b61fa" y="768.96"/>
      </g>
     </g>
     <g id="text_1">
      <!-- −6000 -->
      <defs>
       <path d="M 10.59375 35.5 
L 73.1875 35.5 
L 73.1875 27.203125 
L 10.59375 27.203125 
z
" id="DejaVuSans-2212"/>
       <path d="M 33.015625 40.375 
Q 26.375 40.375 22.484375 35.828125 
Q 18.609375 31.296875 18.609375 23.390625 
Q 18.609375 15.53125 22.484375 10.953125 
Q 26.375 6.390625 33.015625 6.390625 
Q 39.65625 6.390625 43.53125 10.953125 
Q 47.40625 15.53125 47.40625 23.390625 
Q 47.40625 31.296875 43.53125 35.828125 
Q 39.65625 40.375 33.015625 40.375 
z
M 52.59375 71.296875 
L 52.59375 62.3125 
Q 48.875 64.0625 45.09375 64.984375 
Q 41.3125 65.921875 37.59375 65.921875 
Q 27.828125 65.921875 22.671875 59.328125 
Q 17.53125 52.734375 16.796875 39.40625 
Q 19.671875 43.65625 24.015625 45.921875 
Q 28.375 48.1875 33.59375 48.1875 
Q 44.578125 48.1875 50.953125 41.515625 
Q 57.328125 34.859375 57.328125 23.390625 
Q 57.328125 12.15625 50.6875 5.359375 
Q 44.046875 -1.421875 33.015625 -1.421875 
Q 20.359375 -1.421875 13.671875 8.265625 
Q 6.984375 17.96875 6.984375 36.375 
Q 6.984375 53.65625 15.1875 63.9375 
Q 23.390625 74.21875 37.203125 74.21875 
Q 40.921875 74.21875 44.703125 73.484375 
Q 48.484375 72.75 52.59375 71.296875 
z
" id="DejaVuSans-36"/>
       <path d="M 31.78125 66.40625 
Q 24.171875 66.40625 20.328125 58.90625 
Q 16.5 51.421875 16.5 36.375 
Q 16.5 21.390625 20.328125 13.890625 
Q 24.171875 6.390625 31.78125 6.390625 
Q 39.453125 6.390625 43.28125 13.890625 
Q 47.125 21.390625 47.125 36.375 
Q 47.125 51.421875 43.28125 58.90625 
Q 39.453125 66.40625 31.78125 66.40625 
z
M 31.78125 74.21875 
Q 44.046875 74.21875 50.515625 64.515625 
Q 56.984375 54.828125 56.984375 36.375 
Q 56.984375 17.96875 50.515625 8.265625 
Q 44.046875 -1.421875 31.78125 -1.421875 
Q 19.53125 -1.421875 13.0625 8.265625 
Q 6.59375 17.96875 6.59375 36.375 
Q 6.59375 54.828125 13.0625 64.515625 
Q 19.53125 74.21875 31.78125 74.21875 
z
" id="DejaVuSans-30"/>
      </defs>
      <g transform="translate(190.856585 783.558437)scale(0.1 -0.1)">
       <use xlink:href="#DejaVuSans-2212"/>
       <use x="83.789062" xlink:href="#DejaVuSans-36"/>
       <use x="147.412109" xlink:href="#DejaVuSans-30"/>
       <use x="211.035156" xlink:href="#DejaVuSans-30"/>
       <use x="274.658203" xlink:href="#DejaVuSans-30"/>
      </g>
     </g>
    </g>
    <g id="xtick_2">
     <g id="line2d_2">
      <g>
       <use style="stroke:#000000;stroke-width:0.8;" x="335.314286" xlink:href="#me97b1b61fa" y="768.96"/>
      </g>
     </g>
     <g id="text_2">
      <!-- −4000 -->
      <defs>
       <path d="M 37.796875 64.3125 
L 12.890625 25.390625 
L 37.796875 25.390625 
z
M 35.203125 72.90625 
L 47.609375 72.90625 
L 47.609375 25.390625 
L 58.015625 25.390625 
L 58.015625 17.1875 
L 47.609375 17.1875 
L 47.609375 0 
L 37.796875 0 
L 37.796875 17.1875 
L 4.890625 17.1875 
L 4.890625 26.703125 
z
" id="DejaVuSans-34"/>
      </defs>
      <g transform="translate(318.399442 783.558437)scale(0.1 -0.1)">
       <use xlink:href="#DejaVuSans-2212"/>
       <use x="83.789062" xlink:href="#DejaVuSans-34"/>
       <use x="147.412109" xlink:href="#DejaVuSans-30"/>
       <use x="211.035156" xlink:href="#DejaVuSans-30"/>
       <use x="274.658203" xlink:href="#DejaVuSans-30"/>
      </g>
     </g>
    </g>
    <g id="xtick_3">
     <g id="line2d_3">
      <g>
       <use style="stroke:#000000;stroke-width:0.8;" x="462.857143" xlink:href="#me97b1b61fa" y="768.96"/>
      </g>
     </g>
     <g id="text_3">
      <!-- −2000 -->
      <defs>
       <path d="M 19.1875 8.296875 
L 53.609375 8.296875 
L 53.609375 0 
L 7.328125 0 
L 7.328125 8.296875 
Q 12.9375 14.109375 22.625 23.890625 
Q 32.328125 33.6875 34.8125 36.53125 
Q 39.546875 41.84375 41.421875 45.53125 
Q 43.3125 49.21875 43.3125 52.78125 
Q 43.3125 58.59375 39.234375 62.25 
Q 35.15625 65.921875 28.609375 65.921875 
Q 23.96875 65.921875 18.8125 64.3125 
Q 13.671875 62.703125 7.8125 59.421875 
L 7.8125 69.390625 
Q 13.765625 71.78125 18.9375 73 
Q 24.125 74.21875 28.421875 74.21875 
Q 39.75 74.21875 46.484375 68.546875 
Q 53.21875 62.890625 53.21875 53.421875 
Q 53.21875 48.921875 51.53125 44.890625 
Q 49.859375 40.875 45.40625 35.40625 
Q 44.1875 33.984375 37.640625 27.21875 
Q 31.109375 20.453125 19.1875 8.296875 
z
" id="DejaVuSans-32"/>
      </defs>
      <g transform="translate(445.942299 783.558437)scale(0.1 -0.1)">
       <use xlink:href="#DejaVuSans-2212"/>
       <use x="83.789062" xlink:href="#DejaVuSans-32"/>
       <use x="147.412109" xlink:href="#DejaVuSans-30"/>
       <use x="211.035156" xlink:href="#DejaVuSans-30"/>
       <use x="274.658203" xlink:href="#DejaVuSans-30"/>
      </g>
     </g>
    </g>
    <g id="xtick_4">
     <g id="line2d_4">
      <g>
       <use style="stroke:#000000;stroke-width:0.8;" x="590.4" xlink:href="#me97b1b61fa" y="768.96"/>
      </g>
     </g>
     <g id="text_4">
      <!-- 0 -->
      <g transform="translate(587.21875 783.558437)scale(0.1 -0.1)">
       <use xlink:href="#DejaVuSans-30"/>
      </g>
     </g>
    </g>
    <g id="xtick_5">
     <g id="line2d_5">
      <g>
       <use style="stroke:#000000;stroke-width:0.8;" x="717.942857" xlink:href="#me97b1b61fa" y="768.96"/>
      </g>
     </g>
     <g id="text_5">
      <!-- 2000 -->
      <g transform="translate(705.217857 783.558437)scale(0.1 -0.1)">
       <use xlink:href="#DejaVuSans-32"/>
       <use x="63.623047" xlink:href="#DejaVuSans-30"/>
       <use x="127.246094" xlink:href="#DejaVuSans-30"/>
       <use x="190.869141" xlink:href="#DejaVuSans-30"/>
      </g>
     </g>
    </g>
    <g id="xtick_6">
     <g id="line2d_6">
      <g>
       <use style="stroke:#000000;stroke-width:0.8;" x="845.485714" xlink:href="#me97b1b61fa" y="768.96"/>
      </g>
     </g>
     <g id="text_6">
      <!-- 4000 -->
      <g transform="translate(832.760714 783.558437)scale(0.1 -0.1)">
       <use xlink:href="#DejaVuSans-34"/>
       <use x="63.623047" xlink:href="#DejaVuSans-30"/>
       <use x="127.246094" xlink:href="#DejaVuSans-30"/>
       <use x="190.869141" xlink:href="#DejaVuSans-30"/>
      </g>
     </g>
    </g>
    <g id="xtick_7">
     <g id="line2d_7">
      <g>
       <use style="stroke:#000000;stroke-width:0.8;" x="973.028571" xlink:href="#me97b1b61fa" y="768.96"/>
      </g>
     </g>
     <g id="text_7">
      <!-- 6000 -->
      <g transform="translate(960.303571 783.558437)scale(0.1 -0.1)">
       <use xlink:href="#DejaVuSans-36"/>
       <use x="63.623047" xlink:href="#DejaVuSans-30"/>
       <use x="127.246094" xlink:href="#DejaVuSans-30"/>
       <use x="190.869141" xlink:href="#DejaVuSans-30"/>
      </g>
     </g>
    </g>
   </g>
   <g id="matplotlib.axis_2">
    <g id="ytick_1">
     <g id="line2d_8">
      <defs>
       <path d="M 0 0 
L -3.5 0 
" id="m4c4ec178fc" style="stroke:#000000;stroke-width:0.8;"/>
      </defs>
      <g>
       <use style="stroke:#000000;stroke-width:0.8;" x="144" xlink:href="#m4c4ec178fc" y="721.44"/>
      </g>
     </g>
     <g id="text_8">
      <!-- −6000 -->
      <g transform="translate(103.170312 725.239219)scale(0.1 -0.1)">
       <use xlink:href="#DejaVuSans-2212"/>
       <use x="83.789062" xlink:href="#DejaVuSans-36"/>
       <use x="147.412109" xlink:href="#DejaVuSans-30"/>
       <use x="211.035156" xlink:href="#DejaVuSans-30"/>
       <use x="274.658203" xlink:href="#DejaVuSans-30"/>
      </g>
     </g>
    </g>
    <g id="ytick_2">
     <g id="line2d_9">
      <g>
       <use style="stroke:#000000;stroke-width:0.8;" x="144" xlink:href="#m4c4ec178fc" y="626.4"/>
      </g>
     </g>
     <g id="text_9">
      <!-- −4000 -->
      <g transform="translate(103.170312 630.199219)scale(0.1 -0.1)">
       <use xlink:href="#DejaVuSans-2212"/>
       <use x="83.789062" xlink:href="#DejaVuSans-34"/>
       <use x="147.412109" xlink:href="#DejaVuSans-30"/>
       <use x="211.035156" xlink:href="#DejaVuSans-30"/>
       <use x="274.658203" xlink:href="#DejaVuSans-30"/>
      </g>
     </g>
    </g>
    <g id="ytick_3">
     <g id="line2d_10">
      <g>
       <use style="stroke:#000000;stroke-width:0.8;" x="144" xlink:href="#m4c4ec178fc" y="531.36"/>
      </g>
     </g>
     <g id="text_10">
      <!-- −2000 -->
      <g transform="translate(103.170312 535.159219)scale(0.1 -0.1)">
       <use xlink:href="#DejaVuSans-2212"/>
       <use x="83.789062" xlink:href="#DejaVuSans-32"/>
       <use x="147.412109" xlink:href="#DejaVuSans-30"/>
       <use x="211.035156" xlink:href="#DejaVuSans-30"/>
       <use x="274.658203" xlink:href="#DejaVuSans-30"/>
      </g>
     </g>
    </g>
    <g id="ytick_4">
     <g id="line2d_11">
      <g>
       <use style="stroke:#000000;stroke-width:0.8;" x="144" xlink:href="#m4c4ec178fc" y="436.32"/>
      </g>
     </g>
     <g id="text_11">
      <!-- 0 -->
      <g transform="translate(130.6375 440.119219)scale(0.1 -0.1)">
       <use xlink:href="#DejaVuSans-30"/>
      </g>
     </g>
    </g>
    <g id="ytick_5">
     <g id="line2d_12">
      <g>
       <use style="stroke:#000000;stroke-width:0.8;" x="144" xlink:href="#m4c4ec178fc" y="341.28"/>
      </g>
     </g>
     <g id="text_12">
      <!-- 2000 -->
      <g transform="translate(111.55 345.079219)scale(0.1 -0.1)">
       <use xlink:href="#DejaVuSans-32"/>
       <use x="63.623047" xlink:href="#DejaVuSans-30"/>
       <use x="127.246094" xlink:href="#DejaVuSans-30"/>
       <use x="190.869141" xlink:href="#DejaVuSans-30"/>
      </g>
     </g>
    </g>
    <g id="ytick_6">
     <g id="line2d_13">
      <g>
       <use style="stroke:#000000;stroke-width:0.8;" x="144" xlink:href="#m4c4ec178fc" y="246.24"/>
      </g>
     </g>
     <g id="text_13">
      <!-- 4000 -->
      <g transform="translate(111.55 250.039219)scale(0.1 -0.1)">
       <use xlink:href="#DejaVuSans-34"/>
       <use x="63.623047" xlink:href="#DejaVuSans-30"/>
       <use x="127.246094" xlink:href="#DejaVuSans-30"/>
       <use x="190.869141" xlink:href="#DejaVuSans-30"/>
      </g>
     </g>
    </g>
    <g id="ytick_7">
     <g id="line2d_14">
      <g>
       <use style="stroke:#000000;stroke-width:0.8;" x="144" xlink:href="#m4c4ec178fc" y="151.2"/>
      </g>
     </g>
     <g id="text_14">
      <!-- 6000 -->
      <g transform="translate(111.55 154.999219)scale(0.1 -0.1)">
       <use xlink:href="#DejaVuSans-36"/>
       <use x="63.623047" xlink:href="#DejaVuSans-30"/>
       <use x="127.246094" xlink:href="#DejaVuSans-30"/>
       <use x="190.869141" xlink:href="#DejaVuSans-30"/>
      </g>
     </g>
    </g>
   </g>
   <g id="line2d_15">
    <path clip-path="url(#p3bfd3ebe88)" d="M 590.4 768.96 
L 590.4 103.68 
" style="fill:none;stroke:#1f77b4;stroke-linecap:square;stroke-width:1.5;"/>
   </g>
   <g id="line2d_16">
    <path clip-path="url(#p3bfd3ebe88)" d="M 144 436.32 
L 1036.8 436.32 
" style="fill:none;stroke:#1f77b4;stroke-linecap:square;stroke-width:1.5;"/>
   </g>
   <g id="line2d_17">
    <defs>
     <path d="M 0 1.333333 
C 0.353604 1.333333 0.692773 1.192845 0.942809 0.942809 
C 1.192845 0.692773 1.333333 0.353604 1.333333 0 
C 1.333333 -0.353604 1.192845 -0.692773 0.942809 -0.942809 
C 0.692773 -1.192845 0.353604 -1.333333 0 -1.333333 
C -0.353604 -1.333333 -0.692773 -1.192845 -0.942809 -0.942809 
C -1.192845 -0.692773 -1.333333 -0.353604 -1.333333 0 
C -1.333333 0.353604 -1.192845 0.692773 -0.942809 0.942809 
C -0.692773 1.192845 -0.353604 1.333333 0 1.333333 
z
" id="mb6b538ed95" style="stroke:#ff0000;"/>
    </defs>
    <g clip-path="url(#p3bfd3ebe88)">
     <use style="fill:#ff0000;stroke:#ff0000;" x="691.437721" xlink:href="#mb6b538ed95" y="437.962821"/>
     <use style="fill:#ff0000;stroke:#ff0000;" x="690.993287" xlink:href="#mb6b538ed95" y="411.557148"/>
     <use style="fill:#ff0000;stroke:#ff0000;" x="833.09618" xlink:href="#mb6b538ed95" y="328.593273"/>
     <use style="fill:#ff0000;stroke:#ff0000;" x="811.517133" xlink:href="#mb6b538ed95" y="310.885666"/>
     <use style="fill:#ff0000;stroke:#ff0000;" x="785.822956" xlink:href="#mb6b538ed95" y="311.672408"/>
     <use style="fill:#ff0000;stroke:#ff0000;" x="767.26905" xlink:href="#mb6b538ed95" y="309.60062"/>
     <use style="fill:#ff0000;stroke:#ff0000;" x="676.723475" xlink:href="#mb6b538ed95" y="307.568081"/>
     <use style="fill:#ff0000;stroke:#ff0000;" x="632.299868" xlink:href="#mb6b538ed95" y="306.270346"/>
     <use style="fill:#ff0000;stroke:#ff0000;" x="617.278405" xlink:href="#mb6b538ed95" y="324.515131"/>
     <use style="fill:#ff0000;stroke:#ff0000;" x="611.387009" xlink:href="#mb6b538ed95" y="306.315882"/>
     <use style="fill:#ff0000;stroke:#ff0000;" x="463.004703" xlink:href="#mb6b538ed95" y="303.079328"/>
     <use style="fill:#ff0000;stroke:#ff0000;" x="446.440083" xlink:href="#mb6b538ed95" y="302.435928"/>
     <use style="fill:#ff0000;stroke:#ff0000;" x="428.06312" xlink:href="#mb6b538ed95" y="301.898658"/>
     <use style="fill:#ff0000;stroke:#ff0000;" x="415.831484" xlink:href="#mb6b538ed95" y="307.368552"/>
     <use style="fill:#ff0000;stroke:#ff0000;" x="395.84159" xlink:href="#mb6b538ed95" y="308.054835"/>
     <use style="fill:#ff0000;stroke:#ff0000;" x="390.737018" xlink:href="#mb6b538ed95" y="319.227659"/>
     <use style="fill:#ff0000;stroke:#ff0000;" x="397.174285" xlink:href="#mb6b538ed95" y="347.599462"/>
     <use style="fill:#ff0000;stroke:#ff0000;" x="375.822574" xlink:href="#mb6b538ed95" y="349.955352"/>
     <use style="fill:#ff0000;stroke:#ff0000;" x="372.646883" xlink:href="#mb6b538ed95" y="360.440766"/>
     <use style="fill:#ff0000;stroke:#ff0000;" x="374.535841" xlink:href="#mb6b538ed95" y="392.513394"/>
     <use style="fill:#ff0000;stroke:#ff0000;" x="369.461365" xlink:href="#mb6b538ed95" y="411.164075"/>
     <use style="fill:#ff0000;stroke:#ff0000;" x="381.493315" xlink:href="#mb6b538ed95" y="421.716285"/>
     <use style="fill:#ff0000;stroke:#ff0000;" x="367.653953" xlink:href="#mb6b538ed95" y="430.206531"/>
     <use style="fill:#ff0000;stroke:#ff0000;" x="537.286363" xlink:href="#mb6b538ed95" y="437.853413"/>
     <use style="fill:#ff0000;stroke:#ff0000;" x="537.345141" xlink:href="#mb6b538ed95" y="451.967799"/>
     <use style="fill:#ff0000;stroke:#ff0000;" x="396.111298" xlink:href="#mb6b538ed95" y="520.856965"/>
     <use style="fill:#ff0000;stroke:#ff0000;" x="429.511508" xlink:href="#mb6b538ed95" y="515.954466"/>
     <use style="fill:#ff0000;stroke:#ff0000;" x="447.665003" xlink:href="#mb6b538ed95" y="536.812341"/>
     <use style="fill:#ff0000;stroke:#ff0000;" x="461.251156" xlink:href="#mb6b538ed95" y="538.120838"/>
     <use style="fill:#ff0000;stroke:#ff0000;" x="499.388657" xlink:href="#mb6b538ed95" y="517.1425"/>
     <use style="fill:#ff0000;stroke:#ff0000;" x="507.946362" xlink:href="#mb6b538ed95" y="518.646646"/>
     <use style="fill:#ff0000;stroke:#ff0000;" x="547.724169" xlink:href="#mb6b538ed95" y="522.014567"/>
     <use style="fill:#ff0000;stroke:#ff0000;" x="568.511158" xlink:href="#mb6b538ed95" y="522.874901"/>
     <use style="fill:#ff0000;stroke:#ff0000;" x="572.316764" xlink:href="#mb6b538ed95" y="538.242636"/>
     <use style="fill:#ff0000;stroke:#ff0000;" x="579.893157" xlink:href="#mb6b538ed95" y="540.903994"/>
     <use style="fill:#ff0000;stroke:#ff0000;" x="588.466717" xlink:href="#mb6b538ed95" y="525.84797"/>
     <use style="fill:#ff0000;stroke:#ff0000;" x="611.836107" xlink:href="#mb6b538ed95" y="539.167653"/>
     <use style="fill:#ff0000;stroke:#ff0000;" x="614.528752" xlink:href="#mb6b538ed95" y="519.021217"/>
     <use style="fill:#ff0000;stroke:#ff0000;" x="662.096582" xlink:href="#mb6b538ed95" y="523.183169"/>
     <use style="fill:#ff0000;stroke:#ff0000;" x="702.041113" xlink:href="#mb6b538ed95" y="542.978906"/>
     <use style="fill:#ff0000;stroke:#ff0000;" x="735.127691" xlink:href="#mb6b538ed95" y="523.895292"/>
     <use style="fill:#ff0000;stroke:#ff0000;" x="738.620031" xlink:href="#mb6b538ed95" y="515.557004"/>
     <use style="fill:#ff0000;stroke:#ff0000;" x="759.547902" xlink:href="#mb6b538ed95" y="516.42475"/>
     <use style="fill:#ff0000;stroke:#ff0000;" x="782.904699" xlink:href="#mb6b538ed95" y="516.551463"/>
     <use style="fill:#ff0000;stroke:#ff0000;" x="915.543955" xlink:href="#mb6b538ed95" y="555.145161"/>
     <use style="fill:#ff0000;stroke:#ff0000;" x="926.802851" xlink:href="#mb6b538ed95" y="541.999615"/>
     <use style="fill:#ff0000;stroke:#ff0000;" x="934.864946" xlink:href="#mb6b538ed95" y="480.714343"/>
    </g>
   </g>
   <g id="line2d_18">
    <defs>
     <path d="M -0.5 0.5 
L 0.5 0.5 
L 0.5 -0.5 
L -0.5 -0.5 
z
" id="m26c7d2c743" style="stroke:#1f77b4;stroke-linejoin:miter;"/>
    </defs>
    <g clip-path="url(#p3bfd3ebe88)">
     <use style="fill:#1f77b4;stroke:#1f77b4;stroke-linejoin:miter;" x="691.437721" xlink:href="#m26c7d2c743" y="437.962821"/>
     <use style="fill:#1f77b4;stroke:#1f77b4;stroke-linejoin:miter;" x="692.356196" xlink:href="#m26c7d2c743" y="433.666936"/>
     <use style="fill:#1f77b4;stroke:#1f77b4;stroke-linejoin:miter;" x="685.870908" xlink:href="#m26c7d2c743" y="429.724342"/>
     <use style="fill:#1f77b4;stroke:#1f77b4;stroke-linejoin:miter;" x="684.537899" xlink:href="#m26c7d2c743" y="425.699384"/>
     <use style="fill:#1f77b4;stroke:#1f77b4;stroke-linejoin:miter;" x="685.955521" xlink:href="#m26c7d2c743" y="421.3879"/>
     <use style="fill:#1f77b4;stroke:#1f77b4;stroke-linejoin:miter;" x="686.943925" xlink:href="#m26c7d2c743" y="416.917302"/>
     <use style="fill:#1f77b4;stroke:#1f77b4;stroke-linejoin:miter;" x="690.993287" xlink:href="#m26c7d2c743" y="411.557148"/>
     <use style="fill:#1f77b4;stroke:#1f77b4;stroke-linejoin:miter;" x="833.09618" xlink:href="#m26c7d2c743" y="328.593273"/>
     <use style="fill:#1f77b4;stroke:#1f77b4;stroke-linejoin:miter;" x="828.693918" xlink:href="#m26c7d2c743" y="316.337792"/>
     <use style="fill:#1f77b4;stroke:#1f77b4;stroke-linejoin:miter;" x="811.517133" xlink:href="#m26c7d2c743" y="310.885666"/>
     <use style="fill:#1f77b4;stroke:#1f77b4;stroke-linejoin:miter;" x="785.822956" xlink:href="#m26c7d2c743" y="311.672408"/>
     <use style="fill:#1f77b4;stroke:#1f77b4;stroke-linejoin:miter;" x="767.26905" xlink:href="#m26c7d2c743" y="309.60062"/>
     <use style="fill:#1f77b4;stroke:#1f77b4;stroke-linejoin:miter;" x="676.723475" xlink:href="#m26c7d2c743" y="307.568081"/>
     <use style="fill:#1f77b4;stroke:#1f77b4;stroke-linejoin:miter;" x="665.077109" xlink:href="#m26c7d2c743" y="307.187848"/>
     <use style="fill:#1f77b4;stroke:#1f77b4;stroke-linejoin:miter;" x="653.421318" xlink:href="#m26c7d2c743" y="307.404982"/>
     <use style="fill:#1f77b4;stroke:#1f77b4;stroke-linejoin:miter;" x="642.462228" xlink:href="#m26c7d2c743" y="307.419136"/>
     <use style="fill:#1f77b4;stroke:#1f77b4;stroke-linejoin:miter;" x="632.299868" xlink:href="#m26c7d2c743" y="306.270346"/>
     <use style="fill:#1f77b4;stroke:#1f77b4;stroke-linejoin:miter;" x="617.278405" xlink:href="#m26c7d2c743" y="324.515131"/>
     <use style="fill:#1f77b4;stroke:#1f77b4;stroke-linejoin:miter;" x="611.387009" xlink:href="#m26c7d2c743" y="306.315882"/>
     <use style="fill:#1f77b4;stroke:#1f77b4;stroke-linejoin:miter;" x="601.466521" xlink:href="#m26c7d2c743" y="305.019582"/>
     <use style="fill:#1f77b4;stroke:#1f77b4;stroke-linejoin:miter;" x="591.416192" xlink:href="#m26c7d2c743" y="304.097768"/>
     <use style="fill:#1f77b4;stroke:#1f77b4;stroke-linejoin:miter;" x="581.299247" xlink:href="#m26c7d2c743" y="304.162559"/>
     <use style="fill:#1f77b4;stroke:#1f77b4;stroke-linejoin:miter;" x="571.119735" xlink:href="#m26c7d2c743" y="304.137517"/>
     <use style="fill:#1f77b4;stroke:#1f77b4;stroke-linejoin:miter;" x="560.81658" xlink:href="#m26c7d2c743" y="303.92243"/>
     <use style="fill:#1f77b4;stroke:#1f77b4;stroke-linejoin:miter;" x="550.178756" xlink:href="#m26c7d2c743" y="303.697843"/>
     <use style="fill:#1f77b4;stroke:#1f77b4;stroke-linejoin:miter;" x="538.998154" xlink:href="#m26c7d2c743" y="302.742729"/>
     <use style="fill:#1f77b4;stroke:#1f77b4;stroke-linejoin:miter;" x="527.808868" xlink:href="#m26c7d2c743" y="302.410277"/>
     <use style="fill:#1f77b4;stroke:#1f77b4;stroke-linejoin:miter;" x="516.199046" xlink:href="#m26c7d2c743" y="302.627884"/>
     <use style="fill:#1f77b4;stroke:#1f77b4;stroke-linejoin:miter;" x="503.553273" xlink:href="#m26c7d2c743" y="301.871304"/>
     <use style="fill:#1f77b4;stroke:#1f77b4;stroke-linejoin:miter;" x="491.333805" xlink:href="#m26c7d2c743" y="302.887333"/>
     <use style="fill:#1f77b4;stroke:#1f77b4;stroke-linejoin:miter;" x="477.902702" xlink:href="#m26c7d2c743" y="303.298951"/>
     <use style="fill:#1f77b4;stroke:#1f77b4;stroke-linejoin:miter;" x="463.004703" xlink:href="#m26c7d2c743" y="303.079328"/>
     <use style="fill:#1f77b4;stroke:#1f77b4;stroke-linejoin:miter;" x="446.440083" xlink:href="#m26c7d2c743" y="302.435928"/>
     <use style="fill:#1f77b4;stroke:#1f77b4;stroke-linejoin:miter;" x="428.06312" xlink:href="#m26c7d2c743" y="301.898658"/>
     <use style="fill:#1f77b4;stroke:#1f77b4;stroke-linejoin:miter;" x="415.831484" xlink:href="#m26c7d2c743" y="307.368552"/>
     <use style="fill:#1f77b4;stroke:#1f77b4;stroke-linejoin:miter;" x="395.84159" xlink:href="#m26c7d2c743" y="308.054835"/>
     <use style="fill:#1f77b4;stroke:#1f77b4;stroke-linejoin:miter;" x="390.737018" xlink:href="#m26c7d2c743" y="319.227659"/>
     <use style="fill:#1f77b4;stroke:#1f77b4;stroke-linejoin:miter;" x="397.174285" xlink:href="#m26c7d2c743" y="347.599462"/>
     <use style="fill:#1f77b4;stroke:#1f77b4;stroke-linejoin:miter;" x="375.822574" xlink:href="#m26c7d2c743" y="349.955352"/>
     <use style="fill:#1f77b4;stroke:#1f77b4;stroke-linejoin:miter;" x="372.646883" xlink:href="#m26c7d2c743" y="360.440766"/>
     <use style="fill:#1f77b4;stroke:#1f77b4;stroke-linejoin:miter;" x="374.535841" xlink:href="#m26c7d2c743" y="392.513394"/>
     <use style="fill:#1f77b4;stroke:#1f77b4;stroke-linejoin:miter;" x="370.869775" xlink:href="#m26c7d2c743" y="401.6887"/>
     <use style="fill:#1f77b4;stroke:#1f77b4;stroke-linejoin:miter;" x="369.461365" xlink:href="#m26c7d2c743" y="411.164075"/>
     <use style="fill:#1f77b4;stroke:#1f77b4;stroke-linejoin:miter;" x="381.493315" xlink:href="#m26c7d2c743" y="421.716285"/>
     <use style="fill:#1f77b4;stroke:#1f77b4;stroke-linejoin:miter;" x="367.653953" xlink:href="#m26c7d2c743" y="430.206531"/>
     <use style="fill:#1f77b4;stroke:#1f77b4;stroke-linejoin:miter;" x="537.286363" xlink:href="#m26c7d2c743" y="437.853413"/>
     <use style="fill:#1f77b4;stroke:#1f77b4;stroke-linejoin:miter;" x="537.364267" xlink:href="#m26c7d2c743" y="440.12536"/>
     <use style="fill:#1f77b4;stroke:#1f77b4;stroke-linejoin:miter;" x="537.370005" xlink:href="#m26c7d2c743" y="442.368988"/>
     <use style="fill:#1f77b4;stroke:#1f77b4;stroke-linejoin:miter;" x="537.544231" xlink:href="#m26c7d2c743" y="444.669319"/>
     <use style="fill:#1f77b4;stroke:#1f77b4;stroke-linejoin:miter;" x="537.656951" xlink:href="#m26c7d2c743" y="447.034976"/>
     <use style="fill:#1f77b4;stroke:#1f77b4;stroke-linejoin:miter;" x="537.404451" xlink:href="#m26c7d2c743" y="449.449475"/>
     <use style="fill:#1f77b4;stroke:#1f77b4;stroke-linejoin:miter;" x="537.345141" xlink:href="#m26c7d2c743" y="451.967799"/>
     <use style="fill:#1f77b4;stroke:#1f77b4;stroke-linejoin:miter;" x="396.111298" xlink:href="#m26c7d2c743" y="520.856965"/>
     <use style="fill:#1f77b4;stroke:#1f77b4;stroke-linejoin:miter;" x="429.511508" xlink:href="#m26c7d2c743" y="515.954466"/>
     <use style="fill:#1f77b4;stroke:#1f77b4;stroke-linejoin:miter;" x="443.445871" xlink:href="#m26c7d2c743" y="518.370339"/>
     <use style="fill:#1f77b4;stroke:#1f77b4;stroke-linejoin:miter;" x="446.682072" xlink:href="#m26c7d2c743" y="526.630565"/>
     <use style="fill:#1f77b4;stroke:#1f77b4;stroke-linejoin:miter;" x="447.665003" xlink:href="#m26c7d2c743" y="536.812341"/>
     <use style="fill:#1f77b4;stroke:#1f77b4;stroke-linejoin:miter;" x="461.251156" xlink:href="#m26c7d2c743" y="538.120838"/>
     <use style="fill:#1f77b4;stroke:#1f77b4;stroke-linejoin:miter;" x="499.388657" xlink:href="#m26c7d2c743" y="517.1425"/>
     <use style="fill:#1f77b4;stroke:#1f77b4;stroke-linejoin:miter;" x="507.946362" xlink:href="#m26c7d2c743" y="518.646646"/>
     <use style="fill:#1f77b4;stroke:#1f77b4;stroke-linejoin:miter;" x="547.724169" xlink:href="#m26c7d2c743" y="522.014567"/>
     <use style="fill:#1f77b4;stroke:#1f77b4;stroke-linejoin:miter;" x="568.511158" xlink:href="#m26c7d2c743" y="522.874901"/>
     <use style="fill:#1f77b4;stroke:#1f77b4;stroke-linejoin:miter;" x="572.316764" xlink:href="#m26c7d2c743" y="538.242636"/>
     <use style="fill:#1f77b4;stroke:#1f77b4;stroke-linejoin:miter;" x="579.893157" xlink:href="#m26c7d2c743" y="540.903994"/>
     <use style="fill:#1f77b4;stroke:#1f77b4;stroke-linejoin:miter;" x="588.466717" xlink:href="#m26c7d2c743" y="525.84797"/>
     <use style="fill:#1f77b4;stroke:#1f77b4;stroke-linejoin:miter;" x="595.455622" xlink:href="#m26c7d2c743" y="529.608885"/>
     <use style="fill:#1f77b4;stroke:#1f77b4;stroke-linejoin:miter;" x="603.553553" xlink:href="#m26c7d2c743" y="535.008703"/>
     <use style="fill:#1f77b4;stroke:#1f77b4;stroke-linejoin:miter;" x="611.836107" xlink:href="#m26c7d2c743" y="539.167653"/>
     <use style="fill:#1f77b4;stroke:#1f77b4;stroke-linejoin:miter;" x="614.528752" xlink:href="#m26c7d2c743" y="519.021217"/>
     <use style="fill:#1f77b4;stroke:#1f77b4;stroke-linejoin:miter;" x="621.554592" xlink:href="#m26c7d2c743" y="519.854342"/>
     <use style="fill:#1f77b4;stroke:#1f77b4;stroke-linejoin:miter;" x="629.029713" xlink:href="#m26c7d2c743" y="521.118957"/>
     <use style="fill:#1f77b4;stroke:#1f77b4;stroke-linejoin:miter;" x="636.549223" xlink:href="#m26c7d2c743" y="521.368024"/>
     <use style="fill:#1f77b4;stroke:#1f77b4;stroke-linejoin:miter;" x="644.65618" xlink:href="#m26c7d2c743" y="522.043029"/>
     <use style="fill:#1f77b4;stroke:#1f77b4;stroke-linejoin:miter;" x="652.988332" xlink:href="#m26c7d2c743" y="522.441149"/>
     <use style="fill:#1f77b4;stroke:#1f77b4;stroke-linejoin:miter;" x="662.096582" xlink:href="#m26c7d2c743" y="523.183169"/>
     <use style="fill:#1f77b4;stroke:#1f77b4;stroke-linejoin:miter;" x="702.041113" xlink:href="#m26c7d2c743" y="542.978906"/>
     <use style="fill:#1f77b4;stroke:#1f77b4;stroke-linejoin:miter;" x="707.78137" xlink:href="#m26c7d2c743" y="536.222958"/>
     <use style="fill:#1f77b4;stroke:#1f77b4;stroke-linejoin:miter;" x="712.882128" xlink:href="#m26c7d2c743" y="529.348067"/>
     <use style="fill:#1f77b4;stroke:#1f77b4;stroke-linejoin:miter;" x="735.127691" xlink:href="#m26c7d2c743" y="523.895292"/>
     <use style="fill:#1f77b4;stroke:#1f77b4;stroke-linejoin:miter;" x="738.620031" xlink:href="#m26c7d2c743" y="515.557004"/>
     <use style="fill:#1f77b4;stroke:#1f77b4;stroke-linejoin:miter;" x="759.547902" xlink:href="#m26c7d2c743" y="516.42475"/>
     <use style="fill:#1f77b4;stroke:#1f77b4;stroke-linejoin:miter;" x="782.904699" xlink:href="#m26c7d2c743" y="516.551463"/>
     <use style="fill:#1f77b4;stroke:#1f77b4;stroke-linejoin:miter;" x="915.543955" xlink:href="#m26c7d2c743" y="555.145161"/>
     <use style="fill:#1f77b4;stroke:#1f77b4;stroke-linejoin:miter;" x="926.802851" xlink:href="#m26c7d2c743" y="541.999615"/>
     <use style="fill:#1f77b4;stroke:#1f77b4;stroke-linejoin:miter;" x="934.864946" xlink:href="#m26c7d2c743" y="480.714343"/>
    </g>
   </g>
   <g id="patch_3">
    <path d="M 144 768.96 
L 144 103.68 
" style="fill:none;stroke:#000000;stroke-linecap:square;stroke-linejoin:miter;stroke-width:0.8;"/>
   </g>
   <g id="patch_4">
    <path d="M 1036.8 768.96 
L 1036.8 103.68 
" style="fill:none;stroke:#000000;stroke-linecap:square;stroke-linejoin:miter;stroke-width:0.8;"/>
   </g>
   <g id="patch_5">
    <path d="M 144 768.96 
L 1036.8 768.96 
" style="fill:none;stroke:#000000;stroke-linecap:square;stroke-linejoin:miter;stroke-width:0.8;"/>
   </g>
   <g id="patch_6">
    <path d="M 144 103.68 
L 1036.8 103.68 
" style="fill:none;stroke:#000000;stroke-linecap:square;stroke-linejoin:miter;stroke-width:0.8;"/>
   </g>
  </g>
 </g>
 <defs>
  <clipPath id="p3bfd3ebe88">
   <rect height="665.28" width="892.8" x="144" y="103.68"/>
  </clipPath>
 </defs>
</svg>
