<?xml version="1.0" encoding="utf-8" standalone="no"?>
<!DOCTYPE svg PUBLIC "-//W3C//DTD SVG 1.1//EN"
  "http://www.w3.org/Graphics/SVG/1.1/DTD/svg11.dtd">
<!-- Created with matplotlib (http://matplotlib.org/) -->
<svg height="864pt" version="1.1" viewBox="0 0 1152 864" width="1152pt" xmlns="http://www.w3.org/2000/svg" xmlns:xlink="http://www.w3.org/1999/xlink">
 <defs>
  <style type="text/css">
*{stroke-linecap:butt;stroke-linejoin:round;}
  </style>
 </defs>
 <g id="figure_1">
  <g id="patch_1">
   <path d="M 0 864 
L 1152 864 
L 1152 0 
L 0 0 
z
" style="fill:#ffffff;"/>
  </g>
  <g id="axes_1">
   <g id="patch_2">
    <path d="M 144 768.96 
L 1036.8 768.96 
L 1036.8 103.68 
L 144 103.68 
z
" style="fill:#ffffff;"/>
   </g>
   <g id="matplotlib.axis_1">
    <g id="xtick_1">
     <g id="line2d_1">
      <defs>
       <path d="M 0 0 
L 0 3.5 
" id="m4547e5b52b" style="stroke:#000000;stroke-width:0.8;"/>
      </defs>
      <g>
       <use style="stroke:#000000;stroke-width:0.8;" x="207.771429" xlink:href="#m4547e5b52b" y="768.96"/>
      </g>
     </g>
     <g id="text_1">
      <!-- −6000 -->
      <defs>
       <path d="M 10.59375 35.5 
L 73.1875 35.5 
L 73.1875 27.203125 
L 10.59375 27.203125 
z
" id="DejaVuSans-2212"/>
       <path d="M 33.015625 40.375 
Q 26.375 40.375 22.484375 35.828125 
Q 18.609375 31.296875 18.609375 23.390625 
Q 18.609375 15.53125 22.484375 10.953125 
Q 26.375 6.390625 33.015625 6.390625 
Q 39.65625 6.390625 43.53125 10.953125 
Q 47.40625 15.53125 47.40625 23.390625 
Q 47.40625 31.296875 43.53125 35.828125 
Q 39.65625 40.375 33.015625 40.375 
z
M 52.59375 71.296875 
L 52.59375 62.3125 
Q 48.875 64.0625 45.09375 64.984375 
Q 41.3125 65.921875 37.59375 65.921875 
Q 27.828125 65.921875 22.671875 59.328125 
Q 17.53125 52.734375 16.796875 39.40625 
Q 19.671875 43.65625 24.015625 45.921875 
Q 28.375 48.1875 33.59375 48.1875 
Q 44.578125 48.1875 50.953125 41.515625 
Q 57.328125 34.859375 57.328125 23.390625 
Q 57.328125 12.15625 50.6875 5.359375 
Q 44.046875 -1.421875 33.015625 -1.421875 
Q 20.359375 -1.421875 13.671875 8.265625 
Q 6.984375 17.96875 6.984375 36.375 
Q 6.984375 53.65625 15.1875 63.9375 
Q 23.390625 74.21875 37.203125 74.21875 
Q 40.921875 74.21875 44.703125 73.484375 
Q 48.484375 72.75 52.59375 71.296875 
z
" id="DejaVuSans-36"/>
       <path d="M 31.78125 66.40625 
Q 24.171875 66.40625 20.328125 58.90625 
Q 16.5 51.421875 16.5 36.375 
Q 16.5 21.390625 20.328125 13.890625 
Q 24.171875 6.390625 31.78125 6.390625 
Q 39.453125 6.390625 43.28125 13.890625 
Q 47.125 21.390625 47.125 36.375 
Q 47.125 51.421875 43.28125 58.90625 
Q 39.453125 66.40625 31.78125 66.40625 
z
M 31.78125 74.21875 
Q 44.046875 74.21875 50.515625 64.515625 
Q 56.984375 54.828125 56.984375 36.375 
Q 56.984375 17.96875 50.515625 8.265625 
Q 44.046875 -1.421875 31.78125 -1.421875 
Q 19.53125 -1.421875 13.0625 8.265625 
Q 6.59375 17.96875 6.59375 36.375 
Q 6.59375 54.828125 13.0625 64.515625 
Q 19.53125 74.21875 31.78125 74.21875 
z
" id="DejaVuSans-30"/>
      </defs>
      <g transform="translate(190.856585 783.558437)scale(0.1 -0.1)">
       <use xlink:href="#DejaVuSans-2212"/>
       <use x="83.789062" xlink:href="#DejaVuSans-36"/>
       <use x="147.412109" xlink:href="#DejaVuSans-30"/>
       <use x="211.035156" xlink:href="#DejaVuSans-30"/>
       <use x="274.658203" xlink:href="#DejaVuSans-30"/>
      </g>
     </g>
    </g>
    <g id="xtick_2">
     <g id="line2d_2">
      <g>
       <use style="stroke:#000000;stroke-width:0.8;" x="335.314286" xlink:href="#m4547e5b52b" y="768.96"/>
      </g>
     </g>
     <g id="text_2">
      <!-- −4000 -->
      <defs>
       <path d="M 37.796875 64.3125 
L 12.890625 25.390625 
L 37.796875 25.390625 
z
M 35.203125 72.90625 
L 47.609375 72.90625 
L 47.609375 25.390625 
L 58.015625 25.390625 
L 58.015625 17.1875 
L 47.609375 17.1875 
L 47.609375 0 
L 37.796875 0 
L 37.796875 17.1875 
L 4.890625 17.1875 
L 4.890625 26.703125 
z
" id="DejaVuSans-34"/>
      </defs>
      <g transform="translate(318.399442 783.558437)scale(0.1 -0.1)">
       <use xlink:href="#DejaVuSans-2212"/>
       <use x="83.789062" xlink:href="#DejaVuSans-34"/>
       <use x="147.412109" xlink:href="#DejaVuSans-30"/>
       <use x="211.035156" xlink:href="#DejaVuSans-30"/>
       <use x="274.658203" xlink:href="#DejaVuSans-30"/>
      </g>
     </g>
    </g>
    <g id="xtick_3">
     <g id="line2d_3">
      <g>
       <use style="stroke:#000000;stroke-width:0.8;" x="462.857143" xlink:href="#m4547e5b52b" y="768.96"/>
      </g>
     </g>
     <g id="text_3">
      <!-- −2000 -->
      <defs>
       <path d="M 19.1875 8.296875 
L 53.609375 8.296875 
L 53.609375 0 
L 7.328125 0 
L 7.328125 8.296875 
Q 12.9375 14.109375 22.625 23.890625 
Q 32.328125 33.6875 34.8125 36.53125 
Q 39.546875 41.84375 41.421875 45.53125 
Q 43.3125 49.21875 43.3125 52.78125 
Q 43.3125 58.59375 39.234375 62.25 
Q 35.15625 65.921875 28.609375 65.921875 
Q 23.96875 65.921875 18.8125 64.3125 
Q 13.671875 62.703125 7.8125 59.421875 
L 7.8125 69.390625 
Q 13.765625 71.78125 18.9375 73 
Q 24.125 74.21875 28.421875 74.21875 
Q 39.75 74.21875 46.484375 68.546875 
Q 53.21875 62.890625 53.21875 53.421875 
Q 53.21875 48.921875 51.53125 44.890625 
Q 49.859375 40.875 45.40625 35.40625 
Q 44.1875 33.984375 37.640625 27.21875 
Q 31.109375 20.453125 19.1875 8.296875 
z
" id="DejaVuSans-32"/>
      </defs>
      <g transform="translate(445.942299 783.558437)scale(0.1 -0.1)">
       <use xlink:href="#DejaVuSans-2212"/>
       <use x="83.789062" xlink:href="#DejaVuSans-32"/>
       <use x="147.412109" xlink:href="#DejaVuSans-30"/>
       <use x="211.035156" xlink:href="#DejaVuSans-30"/>
       <use x="274.658203" xlink:href="#DejaVuSans-30"/>
      </g>
     </g>
    </g>
    <g id="xtick_4">
     <g id="line2d_4">
      <g>
       <use style="stroke:#000000;stroke-width:0.8;" x="590.4" xlink:href="#m4547e5b52b" y="768.96"/>
      </g>
     </g>
     <g id="text_4">
      <!-- 0 -->
      <g transform="translate(587.21875 783.558437)scale(0.1 -0.1)">
       <use xlink:href="#DejaVuSans-30"/>
      </g>
     </g>
    </g>
    <g id="xtick_5">
     <g id="line2d_5">
      <g>
       <use style="stroke:#000000;stroke-width:0.8;" x="717.942857" xlink:href="#m4547e5b52b" y="768.96"/>
      </g>
     </g>
     <g id="text_5">
      <!-- 2000 -->
      <g transform="translate(705.217857 783.558437)scale(0.1 -0.1)">
       <use xlink:href="#DejaVuSans-32"/>
       <use x="63.623047" xlink:href="#DejaVuSans-30"/>
       <use x="127.246094" xlink:href="#DejaVuSans-30"/>
       <use x="190.869141" xlink:href="#DejaVuSans-30"/>
      </g>
     </g>
    </g>
    <g id="xtick_6">
     <g id="line2d_6">
      <g>
       <use style="stroke:#000000;stroke-width:0.8;" x="845.485714" xlink:href="#m4547e5b52b" y="768.96"/>
      </g>
     </g>
     <g id="text_6">
      <!-- 4000 -->
      <g transform="translate(832.760714 783.558437)scale(0.1 -0.1)">
       <use xlink:href="#DejaVuSans-34"/>
       <use x="63.623047" xlink:href="#DejaVuSans-30"/>
       <use x="127.246094" xlink:href="#DejaVuSans-30"/>
       <use x="190.869141" xlink:href="#DejaVuSans-30"/>
      </g>
     </g>
    </g>
    <g id="xtick_7">
     <g id="line2d_7">
      <g>
       <use style="stroke:#000000;stroke-width:0.8;" x="973.028571" xlink:href="#m4547e5b52b" y="768.96"/>
      </g>
     </g>
     <g id="text_7">
      <!-- 6000 -->
      <g transform="translate(960.303571 783.558437)scale(0.1 -0.1)">
       <use xlink:href="#DejaVuSans-36"/>
       <use x="63.623047" xlink:href="#DejaVuSans-30"/>
       <use x="127.246094" xlink:href="#DejaVuSans-30"/>
       <use x="190.869141" xlink:href="#DejaVuSans-30"/>
      </g>
     </g>
    </g>
   </g>
   <g id="matplotlib.axis_2">
    <g id="ytick_1">
     <g id="line2d_8">
      <defs>
       <path d="M 0 0 
L -3.5 0 
" id="m9c86d80b59" style="stroke:#000000;stroke-width:0.8;"/>
      </defs>
      <g>
       <use style="stroke:#000000;stroke-width:0.8;" x="144" xlink:href="#m9c86d80b59" y="721.44"/>
      </g>
     </g>
     <g id="text_8">
      <!-- −6000 -->
      <g transform="translate(103.170312 725.239219)scale(0.1 -0.1)">
       <use xlink:href="#DejaVuSans-2212"/>
       <use x="83.789062" xlink:href="#DejaVuSans-36"/>
       <use x="147.412109" xlink:href="#DejaVuSans-30"/>
       <use x="211.035156" xlink:href="#DejaVuSans-30"/>
       <use x="274.658203" xlink:href="#DejaVuSans-30"/>
      </g>
     </g>
    </g>
    <g id="ytick_2">
     <g id="line2d_9">
      <g>
       <use style="stroke:#000000;stroke-width:0.8;" x="144" xlink:href="#m9c86d80b59" y="626.4"/>
      </g>
     </g>
     <g id="text_9">
      <!-- −4000 -->
      <g transform="translate(103.170312 630.199219)scale(0.1 -0.1)">
       <use xlink:href="#DejaVuSans-2212"/>
       <use x="83.789062" xlink:href="#DejaVuSans-34"/>
       <use x="147.412109" xlink:href="#DejaVuSans-30"/>
       <use x="211.035156" xlink:href="#DejaVuSans-30"/>
       <use x="274.658203" xlink:href="#DejaVuSans-30"/>
      </g>
     </g>
    </g>
    <g id="ytick_3">
     <g id="line2d_10">
      <g>
       <use style="stroke:#000000;stroke-width:0.8;" x="144" xlink:href="#m9c86d80b59" y="531.36"/>
      </g>
     </g>
     <g id="text_10">
      <!-- −2000 -->
      <g transform="translate(103.170312 535.159219)scale(0.1 -0.1)">
       <use xlink:href="#DejaVuSans-2212"/>
       <use x="83.789062" xlink:href="#DejaVuSans-32"/>
       <use x="147.412109" xlink:href="#DejaVuSans-30"/>
       <use x="211.035156" xlink:href="#DejaVuSans-30"/>
       <use x="274.658203" xlink:href="#DejaVuSans-30"/>
      </g>
     </g>
    </g>
    <g id="ytick_4">
     <g id="line2d_11">
      <g>
       <use style="stroke:#000000;stroke-width:0.8;" x="144" xlink:href="#m9c86d80b59" y="436.32"/>
      </g>
     </g>
     <g id="text_11">
      <!-- 0 -->
      <g transform="translate(130.6375 440.119219)scale(0.1 -0.1)">
       <use xlink:href="#DejaVuSans-30"/>
      </g>
     </g>
    </g>
    <g id="ytick_5">
     <g id="line2d_12">
      <g>
       <use style="stroke:#000000;stroke-width:0.8;" x="144" xlink:href="#m9c86d80b59" y="341.28"/>
      </g>
     </g>
     <g id="text_12">
      <!-- 2000 -->
      <g transform="translate(111.55 345.079219)scale(0.1 -0.1)">
       <use xlink:href="#DejaVuSans-32"/>
       <use x="63.623047" xlink:href="#DejaVuSans-30"/>
       <use x="127.246094" xlink:href="#DejaVuSans-30"/>
       <use x="190.869141" xlink:href="#DejaVuSans-30"/>
      </g>
     </g>
    </g>
    <g id="ytick_6">
     <g id="line2d_13">
      <g>
       <use style="stroke:#000000;stroke-width:0.8;" x="144" xlink:href="#m9c86d80b59" y="246.24"/>
      </g>
     </g>
     <g id="text_13">
      <!-- 4000 -->
      <g transform="translate(111.55 250.039219)scale(0.1 -0.1)">
       <use xlink:href="#DejaVuSans-34"/>
       <use x="63.623047" xlink:href="#DejaVuSans-30"/>
       <use x="127.246094" xlink:href="#DejaVuSans-30"/>
       <use x="190.869141" xlink:href="#DejaVuSans-30"/>
      </g>
     </g>
    </g>
    <g id="ytick_7">
     <g id="line2d_14">
      <g>
       <use style="stroke:#000000;stroke-width:0.8;" x="144" xlink:href="#m9c86d80b59" y="151.2"/>
      </g>
     </g>
     <g id="text_14">
      <!-- 6000 -->
      <g transform="translate(111.55 154.999219)scale(0.1 -0.1)">
       <use xlink:href="#DejaVuSans-36"/>
       <use x="63.623047" xlink:href="#DejaVuSans-30"/>
       <use x="127.246094" xlink:href="#DejaVuSans-30"/>
       <use x="190.869141" xlink:href="#DejaVuSans-30"/>
      </g>
     </g>
    </g>
   </g>
   <g id="line2d_15">
    <path clip-path="url(#pf6ea0932dc)" d="M 590.4 768.96 
L 590.4 103.68 
" style="fill:none;stroke:#1f77b4;stroke-linecap:square;stroke-width:1.5;"/>
   </g>
   <g id="line2d_16">
    <path clip-path="url(#pf6ea0932dc)" d="M 144 436.32 
L 1036.8 436.32 
" style="fill:none;stroke:#1f77b4;stroke-linecap:square;stroke-width:1.5;"/>
   </g>
   <g id="line2d_17">
    <defs>
     <path d="M 0 1.333333 
C 0.353604 1.333333 0.692773 1.192845 0.942809 0.942809 
C 1.192845 0.692773 1.333333 0.353604 1.333333 0 
C 1.333333 -0.353604 1.192845 -0.692773 0.942809 -0.942809 
C 0.692773 -1.192845 0.353604 -1.333333 0 -1.333333 
C -0.353604 -1.333333 -0.692773 -1.192845 -0.942809 -0.942809 
C -1.192845 -0.692773 -1.333333 -0.353604 -1.333333 0 
C -1.333333 0.353604 -1.192845 0.692773 -0.942809 0.942809 
C -0.692773 1.192845 -0.353604 1.333333 0 1.333333 
z
" id="m829d792a85" style="stroke:#ff0000;"/>
    </defs>
    <g clip-path="url(#pf6ea0932dc)">
     <use style="fill:#ff0000;stroke:#ff0000;" x="696.425064" xlink:href="#m829d792a85" y="438.949519"/>
     <use style="fill:#ff0000;stroke:#ff0000;" x="693.489134" xlink:href="#m829d792a85" y="413.770396"/>
     <use style="fill:#ff0000;stroke:#ff0000;" x="856.258537" xlink:href="#m829d792a85" y="320.134594"/>
     <use style="fill:#ff0000;stroke:#ff0000;" x="829.609647" xlink:href="#m829d792a85" y="315.735058"/>
     <use style="fill:#ff0000;stroke:#ff0000;" x="808.980697" xlink:href="#m829d792a85" y="310.490425"/>
     <use style="fill:#ff0000;stroke:#ff0000;" x="782.270819" xlink:href="#m829d792a85" y="310.381671"/>
     <use style="fill:#ff0000;stroke:#ff0000;" x="677.445096" xlink:href="#m829d792a85" y="307.372525"/>
     <use style="fill:#ff0000;stroke:#ff0000;" x="627.751626" xlink:href="#m829d792a85" y="306.766545"/>
     <use style="fill:#ff0000;stroke:#ff0000;" x="612.596943" xlink:href="#m829d792a85" y="323.970096"/>
     <use style="fill:#ff0000;stroke:#ff0000;" x="604.827954" xlink:href="#m829d792a85" y="305.200914"/>
     <use style="fill:#ff0000;stroke:#ff0000;" x="479.823247" xlink:href="#m829d792a85" y="303.329254"/>
     <use style="fill:#ff0000;stroke:#ff0000;" x="463.400522" xlink:href="#m829d792a85" y="303.263098"/>
     <use style="fill:#ff0000;stroke:#ff0000;" x="445.023258" xlink:href="#m829d792a85" y="302.768231"/>
     <use style="fill:#ff0000;stroke:#ff0000;" x="424.624386" xlink:href="#m829d792a85" y="302.320368"/>
     <use style="fill:#ff0000;stroke:#ff0000;" x="392.616581" xlink:href="#m829d792a85" y="312.515993"/>
     <use style="fill:#ff0000;stroke:#ff0000;" x="397.207669" xlink:href="#m829d792a85" y="344.054832"/>
     <use style="fill:#ff0000;stroke:#ff0000;" x="372.562305" xlink:href="#m829d792a85" y="359.708808"/>
     <use style="fill:#ff0000;stroke:#ff0000;" x="410.566401" xlink:href="#m829d792a85" y="393.102114"/>
     <use style="fill:#ff0000;stroke:#ff0000;" x="371.563582" xlink:href="#m829d792a85" y="394.763851"/>
     <use style="fill:#ff0000;stroke:#ff0000;" x="368.237898" xlink:href="#m829d792a85" y="426.783702"/>
     <use style="fill:#ff0000;stroke:#ff0000;" x="537.262881" xlink:href="#m829d792a85" y="437.302825"/>
     <use style="fill:#ff0000;stroke:#ff0000;" x="537.414986" xlink:href="#m829d792a85" y="450.313563"/>
     <use style="fill:#ff0000;stroke:#ff0000;" x="400.661779" xlink:href="#m829d792a85" y="528.191695"/>
     <use style="fill:#ff0000;stroke:#ff0000;" x="443.925894" xlink:href="#m829d792a85" y="517.777453"/>
     <use style="fill:#ff0000;stroke:#ff0000;" x="450.288913" xlink:href="#m829d792a85" y="537.088073"/>
     <use style="fill:#ff0000;stroke:#ff0000;" x="503.420598" xlink:href="#m829d792a85" y="517.483458"/>
     <use style="fill:#ff0000;stroke:#ff0000;" x="508.497576" xlink:href="#m829d792a85" y="523.632556"/>
     <use style="fill:#ff0000;stroke:#ff0000;" x="507.16745" xlink:href="#m829d792a85" y="537.965209"/>
     <use style="fill:#ff0000;stroke:#ff0000;" x="547.84786" xlink:href="#m829d792a85" y="522.124709"/>
     <use style="fill:#ff0000;stroke:#ff0000;" x="584.863168" xlink:href="#m829d792a85" y="541.329459"/>
     <use style="fill:#ff0000;stroke:#ff0000;" x="593.55152" xlink:href="#m829d792a85" y="526.945858"/>
     <use style="fill:#ff0000;stroke:#ff0000;" x="602.443552" xlink:href="#m829d792a85" y="535.170856"/>
     <use style="fill:#ff0000;stroke:#ff0000;" x="611.790009" xlink:href="#m829d792a85" y="539.68989"/>
     <use style="fill:#ff0000;stroke:#ff0000;" x="615.229992" xlink:href="#m829d792a85" y="519.137183"/>
     <use style="fill:#ff0000;stroke:#ff0000;" x="670.036856" xlink:href="#m829d792a85" y="523.526956"/>
     <use style="fill:#ff0000;stroke:#ff0000;" x="701.757031" xlink:href="#m829d792a85" y="543.609632"/>
     <use style="fill:#ff0000;stroke:#ff0000;" x="722.803939" xlink:href="#m829d792a85" y="523.130511"/>
     <use style="fill:#ff0000;stroke:#ff0000;" x="742.520487" xlink:href="#m829d792a85" y="524.137731"/>
     <use style="fill:#ff0000;stroke:#ff0000;" x="748.824385" xlink:href="#m829d792a85" y="515.900058"/>
     <use style="fill:#ff0000;stroke:#ff0000;" x="773.212109" xlink:href="#m829d792a85" y="516.112662"/>
     <use style="fill:#ff0000;stroke:#ff0000;" x="803.364186" xlink:href="#m829d792a85" y="516.416262"/>
     <use style="fill:#ff0000;stroke:#ff0000;" x="927.429236" xlink:href="#m829d792a85" y="544.299889"/>
    </g>
   </g>
   <g id="line2d_18">
    <defs>
     <path d="M -0.5 0.5 
L 0.5 0.5 
L 0.5 -0.5 
L -0.5 -0.5 
z
" id="m8e944cd409" style="stroke:#1f77b4;stroke-linejoin:miter;"/>
    </defs>
    <g clip-path="url(#pf6ea0932dc)">
     <use style="fill:#1f77b4;stroke:#1f77b4;stroke-linejoin:miter;" x="696.425064" xlink:href="#m8e944cd409" y="438.949519"/>
     <use style="fill:#1f77b4;stroke:#1f77b4;stroke-linejoin:miter;" x="691.157116" xlink:href="#m8e944cd409" y="433.964605"/>
     <use style="fill:#1f77b4;stroke:#1f77b4;stroke-linejoin:miter;" x="688.739989" xlink:href="#m8e944cd409" y="429.364852"/>
     <use style="fill:#1f77b4;stroke:#1f77b4;stroke-linejoin:miter;" x="688.893489" xlink:href="#m8e944cd409" y="424.613523"/>
     <use style="fill:#1f77b4;stroke:#1f77b4;stroke-linejoin:miter;" x="689.545163" xlink:href="#m8e944cd409" y="419.602858"/>
     <use style="fill:#1f77b4;stroke:#1f77b4;stroke-linejoin:miter;" x="693.489134" xlink:href="#m8e944cd409" y="413.770396"/>
     <use style="fill:#1f77b4;stroke:#1f77b4;stroke-linejoin:miter;" x="856.258537" xlink:href="#m8e944cd409" y="320.134594"/>
     <use style="fill:#1f77b4;stroke:#1f77b4;stroke-linejoin:miter;" x="829.609647" xlink:href="#m8e944cd409" y="315.735058"/>
     <use style="fill:#1f77b4;stroke:#1f77b4;stroke-linejoin:miter;" x="808.980697" xlink:href="#m8e944cd409" y="310.490425"/>
     <use style="fill:#1f77b4;stroke:#1f77b4;stroke-linejoin:miter;" x="782.270819" xlink:href="#m8e944cd409" y="310.381671"/>
     <use style="fill:#1f77b4;stroke:#1f77b4;stroke-linejoin:miter;" x="677.445096" xlink:href="#m8e944cd409" y="307.372525"/>
     <use style="fill:#1f77b4;stroke:#1f77b4;stroke-linejoin:miter;" x="664.07586" xlink:href="#m8e944cd409" y="307.178645"/>
     <use style="fill:#1f77b4;stroke:#1f77b4;stroke-linejoin:miter;" x="651.312937" xlink:href="#m8e944cd409" y="307.473076"/>
     <use style="fill:#1f77b4;stroke:#1f77b4;stroke-linejoin:miter;" x="639.604015" xlink:href="#m8e944cd409" y="306.451549"/>
     <use style="fill:#1f77b4;stroke:#1f77b4;stroke-linejoin:miter;" x="627.751626" xlink:href="#m8e944cd409" y="306.766545"/>
     <use style="fill:#1f77b4;stroke:#1f77b4;stroke-linejoin:miter;" x="612.596943" xlink:href="#m8e944cd409" y="323.970096"/>
     <use style="fill:#1f77b4;stroke:#1f77b4;stroke-linejoin:miter;" x="604.827954" xlink:href="#m8e944cd409" y="305.200914"/>
     <use style="fill:#1f77b4;stroke:#1f77b4;stroke-linejoin:miter;" x="593.696563" xlink:href="#m8e944cd409" y="303.868897"/>
     <use style="fill:#1f77b4;stroke:#1f77b4;stroke-linejoin:miter;" x="582.279837" xlink:href="#m8e944cd409" y="304.341153"/>
     <use style="fill:#1f77b4;stroke:#1f77b4;stroke-linejoin:miter;" x="570.947126" xlink:href="#m8e944cd409" y="304.294976"/>
     <use style="fill:#1f77b4;stroke:#1f77b4;stroke-linejoin:miter;" x="559.354764" xlink:href="#m8e944cd409" y="303.855147"/>
     <use style="fill:#1f77b4;stroke:#1f77b4;stroke-linejoin:miter;" x="547.528392" xlink:href="#m8e944cd409" y="303.890799"/>
     <use style="fill:#1f77b4;stroke:#1f77b4;stroke-linejoin:miter;" x="535.041263" xlink:href="#m8e944cd409" y="303.21316"/>
     <use style="fill:#1f77b4;stroke:#1f77b4;stroke-linejoin:miter;" x="522.144892" xlink:href="#m8e944cd409" y="302.734666"/>
     <use style="fill:#1f77b4;stroke:#1f77b4;stroke-linejoin:miter;" x="508.507406" xlink:href="#m8e944cd409" y="302.320001"/>
     <use style="fill:#1f77b4;stroke:#1f77b4;stroke-linejoin:miter;" x="495.191321" xlink:href="#m8e944cd409" y="303.676724"/>
     <use style="fill:#1f77b4;stroke:#1f77b4;stroke-linejoin:miter;" x="479.823247" xlink:href="#m8e944cd409" y="303.329254"/>
     <use style="fill:#1f77b4;stroke:#1f77b4;stroke-linejoin:miter;" x="463.400522" xlink:href="#m8e944cd409" y="303.263098"/>
     <use style="fill:#1f77b4;stroke:#1f77b4;stroke-linejoin:miter;" x="445.023258" xlink:href="#m8e944cd409" y="302.768231"/>
     <use style="fill:#1f77b4;stroke:#1f77b4;stroke-linejoin:miter;" x="424.624386" xlink:href="#m8e944cd409" y="302.320368"/>
     <use style="fill:#1f77b4;stroke:#1f77b4;stroke-linejoin:miter;" x="407.359432" xlink:href="#m8e944cd409" y="306.106384"/>
     <use style="fill:#1f77b4;stroke:#1f77b4;stroke-linejoin:miter;" x="392.616581" xlink:href="#m8e944cd409" y="312.515993"/>
     <use style="fill:#1f77b4;stroke:#1f77b4;stroke-linejoin:miter;" x="397.207669" xlink:href="#m8e944cd409" y="344.054832"/>
     <use style="fill:#1f77b4;stroke:#1f77b4;stroke-linejoin:miter;" x="385.256798" xlink:href="#m8e944cd409" y="351.585673"/>
     <use style="fill:#1f77b4;stroke:#1f77b4;stroke-linejoin:miter;" x="372.562305" xlink:href="#m8e944cd409" y="359.708808"/>
     <use style="fill:#1f77b4;stroke:#1f77b4;stroke-linejoin:miter;" x="410.566401" xlink:href="#m8e944cd409" y="393.102114"/>
     <use style="fill:#1f77b4;stroke:#1f77b4;stroke-linejoin:miter;" x="371.563582" xlink:href="#m8e944cd409" y="394.763851"/>
     <use style="fill:#1f77b4;stroke:#1f77b4;stroke-linejoin:miter;" x="370.227621" xlink:href="#m8e944cd409" y="405.54217"/>
     <use style="fill:#1f77b4;stroke:#1f77b4;stroke-linejoin:miter;" x="368.627345" xlink:href="#m8e944cd409" y="416.120552"/>
     <use style="fill:#1f77b4;stroke:#1f77b4;stroke-linejoin:miter;" x="368.237898" xlink:href="#m8e944cd409" y="426.783702"/>
     <use style="fill:#1f77b4;stroke:#1f77b4;stroke-linejoin:miter;" x="537.262881" xlink:href="#m8e944cd409" y="437.302825"/>
     <use style="fill:#1f77b4;stroke:#1f77b4;stroke-linejoin:miter;" x="537.484349" xlink:href="#m8e944cd409" y="439.802247"/>
     <use style="fill:#1f77b4;stroke:#1f77b4;stroke-linejoin:miter;" x="537.457675" xlink:href="#m8e944cd409" y="442.403037"/>
     <use style="fill:#1f77b4;stroke:#1f77b4;stroke-linejoin:miter;" x="537.509938" xlink:href="#m8e944cd409" y="445.000984"/>
     <use style="fill:#1f77b4;stroke:#1f77b4;stroke-linejoin:miter;" x="537.849691" xlink:href="#m8e944cd409" y="447.548507"/>
     <use style="fill:#1f77b4;stroke:#1f77b4;stroke-linejoin:miter;" x="537.414986" xlink:href="#m8e944cd409" y="450.313563"/>
     <use style="fill:#1f77b4;stroke:#1f77b4;stroke-linejoin:miter;" x="400.661779" xlink:href="#m8e944cd409" y="528.191695"/>
     <use style="fill:#1f77b4;stroke:#1f77b4;stroke-linejoin:miter;" x="443.925894" xlink:href="#m8e944cd409" y="517.777453"/>
     <use style="fill:#1f77b4;stroke:#1f77b4;stroke-linejoin:miter;" x="446.821009" xlink:href="#m8e944cd409" y="527.194242"/>
     <use style="fill:#1f77b4;stroke:#1f77b4;stroke-linejoin:miter;" x="450.288913" xlink:href="#m8e944cd409" y="537.088073"/>
     <use style="fill:#1f77b4;stroke:#1f77b4;stroke-linejoin:miter;" x="503.420598" xlink:href="#m8e944cd409" y="517.483458"/>
     <use style="fill:#1f77b4;stroke:#1f77b4;stroke-linejoin:miter;" x="508.497576" xlink:href="#m8e944cd409" y="523.632556"/>
     <use style="fill:#1f77b4;stroke:#1f77b4;stroke-linejoin:miter;" x="507.16745" xlink:href="#m8e944cd409" y="537.965209"/>
     <use style="fill:#1f77b4;stroke:#1f77b4;stroke-linejoin:miter;" x="547.84786" xlink:href="#m8e944cd409" y="522.124709"/>
     <use style="fill:#1f77b4;stroke:#1f77b4;stroke-linejoin:miter;" x="561.132022" xlink:href="#m8e944cd409" y="530.202514"/>
     <use style="fill:#1f77b4;stroke:#1f77b4;stroke-linejoin:miter;" x="568.64416" xlink:href="#m8e944cd409" y="533.196759"/>
     <use style="fill:#1f77b4;stroke:#1f77b4;stroke-linejoin:miter;" x="576.021443" xlink:href="#m8e944cd409" y="540.444884"/>
     <use style="fill:#1f77b4;stroke:#1f77b4;stroke-linejoin:miter;" x="584.863168" xlink:href="#m8e944cd409" y="541.329459"/>
     <use style="fill:#1f77b4;stroke:#1f77b4;stroke-linejoin:miter;" x="593.55152" xlink:href="#m8e944cd409" y="526.945858"/>
     <use style="fill:#1f77b4;stroke:#1f77b4;stroke-linejoin:miter;" x="602.443552" xlink:href="#m8e944cd409" y="535.170856"/>
     <use style="fill:#1f77b4;stroke:#1f77b4;stroke-linejoin:miter;" x="611.790009" xlink:href="#m8e944cd409" y="539.68989"/>
     <use style="fill:#1f77b4;stroke:#1f77b4;stroke-linejoin:miter;" x="615.229992" xlink:href="#m8e944cd409" y="519.137183"/>
     <use style="fill:#1f77b4;stroke:#1f77b4;stroke-linejoin:miter;" x="622.647117" xlink:href="#m8e944cd409" y="518.844569"/>
     <use style="fill:#1f77b4;stroke:#1f77b4;stroke-linejoin:miter;" x="631.629165" xlink:href="#m8e944cd409" y="521.523436"/>
     <use style="fill:#1f77b4;stroke:#1f77b4;stroke-linejoin:miter;" x="639.930911" xlink:href="#m8e944cd409" y="521.394047"/>
     <use style="fill:#1f77b4;stroke:#1f77b4;stroke-linejoin:miter;" x="649.207966" xlink:href="#m8e944cd409" y="521.977603"/>
     <use style="fill:#1f77b4;stroke:#1f77b4;stroke-linejoin:miter;" x="658.725668" xlink:href="#m8e944cd409" y="522.271121"/>
     <use style="fill:#1f77b4;stroke:#1f77b4;stroke-linejoin:miter;" x="670.036856" xlink:href="#m8e944cd409" y="523.526956"/>
     <use style="fill:#1f77b4;stroke:#1f77b4;stroke-linejoin:miter;" x="701.757031" xlink:href="#m8e944cd409" y="543.609632"/>
     <use style="fill:#1f77b4;stroke:#1f77b4;stroke-linejoin:miter;" x="708.178154" xlink:href="#m8e944cd409" y="536.010805"/>
     <use style="fill:#1f77b4;stroke:#1f77b4;stroke-linejoin:miter;" x="714.000361" xlink:href="#m8e944cd409" y="528.371984"/>
     <use style="fill:#1f77b4;stroke:#1f77b4;stroke-linejoin:miter;" x="722.803939" xlink:href="#m8e944cd409" y="523.130511"/>
     <use style="fill:#1f77b4;stroke:#1f77b4;stroke-linejoin:miter;" x="742.520487" xlink:href="#m8e944cd409" y="524.137731"/>
     <use style="fill:#1f77b4;stroke:#1f77b4;stroke-linejoin:miter;" x="748.824385" xlink:href="#m8e944cd409" y="515.900058"/>
     <use style="fill:#1f77b4;stroke:#1f77b4;stroke-linejoin:miter;" x="773.212109" xlink:href="#m8e944cd409" y="516.112662"/>
     <use style="fill:#1f77b4;stroke:#1f77b4;stroke-linejoin:miter;" x="803.364186" xlink:href="#m8e944cd409" y="516.416262"/>
     <use style="fill:#1f77b4;stroke:#1f77b4;stroke-linejoin:miter;" x="927.429236" xlink:href="#m8e944cd409" y="544.299889"/>
    </g>
   </g>
   <g id="patch_3">
    <path d="M 144 768.96 
L 144 103.68 
" style="fill:none;stroke:#000000;stroke-linecap:square;stroke-linejoin:miter;stroke-width:0.8;"/>
   </g>
   <g id="patch_4">
    <path d="M 1036.8 768.96 
L 1036.8 103.68 
" style="fill:none;stroke:#000000;stroke-linecap:square;stroke-linejoin:miter;stroke-width:0.8;"/>
   </g>
   <g id="patch_5">
    <path d="M 144 768.96 
L 1036.8 768.96 
" style="fill:none;stroke:#000000;stroke-linecap:square;stroke-linejoin:miter;stroke-width:0.8;"/>
   </g>
   <g id="patch_6">
    <path d="M 144 103.68 
L 1036.8 103.68 
" style="fill:none;stroke:#000000;stroke-linecap:square;stroke-linejoin:miter;stroke-width:0.8;"/>
   </g>
  </g>
 </g>
 <defs>
  <clipPath id="pf6ea0932dc">
   <rect height="665.28" width="892.8" x="144" y="103.68"/>
  </clipPath>
 </defs>
</svg>
