<?xml version="1.0" encoding="utf-8" standalone="no"?>
<!DOCTYPE svg PUBLIC "-//W3C//DTD SVG 1.1//EN"
  "http://www.w3.org/Graphics/SVG/1.1/DTD/svg11.dtd">
<!-- Created with matplotlib (http://matplotlib.org/) -->
<svg height="864pt" version="1.1" viewBox="0 0 1152 864" width="1152pt" xmlns="http://www.w3.org/2000/svg" xmlns:xlink="http://www.w3.org/1999/xlink">
 <defs>
  <style type="text/css">
*{stroke-linecap:butt;stroke-linejoin:round;}
  </style>
 </defs>
 <g id="figure_1">
  <g id="patch_1">
   <path d="M 0 864 
L 1152 864 
L 1152 0 
L 0 0 
z
" style="fill:#ffffff;"/>
  </g>
  <g id="axes_1">
   <g id="patch_2">
    <path d="M 144 768.96 
L 1036.8 768.96 
L 1036.8 103.68 
L 144 103.68 
z
" style="fill:#ffffff;"/>
   </g>
   <g id="matplotlib.axis_1">
    <g id="xtick_1">
     <g id="line2d_1">
      <defs>
       <path d="M 0 0 
L 0 3.5 
" id="m69f2ea82c4" style="stroke:#000000;stroke-width:0.8;"/>
      </defs>
      <g>
       <use style="stroke:#000000;stroke-width:0.8;" x="207.771429" xlink:href="#m69f2ea82c4" y="768.96"/>
      </g>
     </g>
     <g id="text_1">
      <!-- −6000 -->
      <defs>
       <path d="M 10.59375 35.5 
L 73.1875 35.5 
L 73.1875 27.203125 
L 10.59375 27.203125 
z
" id="DejaVuSans-2212"/>
       <path d="M 33.015625 40.375 
Q 26.375 40.375 22.484375 35.828125 
Q 18.609375 31.296875 18.609375 23.390625 
Q 18.609375 15.53125 22.484375 10.953125 
Q 26.375 6.390625 33.015625 6.390625 
Q 39.65625 6.390625 43.53125 10.953125 
Q 47.40625 15.53125 47.40625 23.390625 
Q 47.40625 31.296875 43.53125 35.828125 
Q 39.65625 40.375 33.015625 40.375 
z
M 52.59375 71.296875 
L 52.59375 62.3125 
Q 48.875 64.0625 45.09375 64.984375 
Q 41.3125 65.921875 37.59375 65.921875 
Q 27.828125 65.921875 22.671875 59.328125 
Q 17.53125 52.734375 16.796875 39.40625 
Q 19.671875 43.65625 24.015625 45.921875 
Q 28.375 48.1875 33.59375 48.1875 
Q 44.578125 48.1875 50.953125 41.515625 
Q 57.328125 34.859375 57.328125 23.390625 
Q 57.328125 12.15625 50.6875 5.359375 
Q 44.046875 -1.421875 33.015625 -1.421875 
Q 20.359375 -1.421875 13.671875 8.265625 
Q 6.984375 17.96875 6.984375 36.375 
Q 6.984375 53.65625 15.1875 63.9375 
Q 23.390625 74.21875 37.203125 74.21875 
Q 40.921875 74.21875 44.703125 73.484375 
Q 48.484375 72.75 52.59375 71.296875 
z
" id="DejaVuSans-36"/>
       <path d="M 31.78125 66.40625 
Q 24.171875 66.40625 20.328125 58.90625 
Q 16.5 51.421875 16.5 36.375 
Q 16.5 21.390625 20.328125 13.890625 
Q 24.171875 6.390625 31.78125 6.390625 
Q 39.453125 6.390625 43.28125 13.890625 
Q 47.125 21.390625 47.125 36.375 
Q 47.125 51.421875 43.28125 58.90625 
Q 39.453125 66.40625 31.78125 66.40625 
z
M 31.78125 74.21875 
Q 44.046875 74.21875 50.515625 64.515625 
Q 56.984375 54.828125 56.984375 36.375 
Q 56.984375 17.96875 50.515625 8.265625 
Q 44.046875 -1.421875 31.78125 -1.421875 
Q 19.53125 -1.421875 13.0625 8.265625 
Q 6.59375 17.96875 6.59375 36.375 
Q 6.59375 54.828125 13.0625 64.515625 
Q 19.53125 74.21875 31.78125 74.21875 
z
" id="DejaVuSans-30"/>
      </defs>
      <g transform="translate(190.856585 783.558437)scale(0.1 -0.1)">
       <use xlink:href="#DejaVuSans-2212"/>
       <use x="83.789062" xlink:href="#DejaVuSans-36"/>
       <use x="147.412109" xlink:href="#DejaVuSans-30"/>
       <use x="211.035156" xlink:href="#DejaVuSans-30"/>
       <use x="274.658203" xlink:href="#DejaVuSans-30"/>
      </g>
     </g>
    </g>
    <g id="xtick_2">
     <g id="line2d_2">
      <g>
       <use style="stroke:#000000;stroke-width:0.8;" x="335.314286" xlink:href="#m69f2ea82c4" y="768.96"/>
      </g>
     </g>
     <g id="text_2">
      <!-- −4000 -->
      <defs>
       <path d="M 37.796875 64.3125 
L 12.890625 25.390625 
L 37.796875 25.390625 
z
M 35.203125 72.90625 
L 47.609375 72.90625 
L 47.609375 25.390625 
L 58.015625 25.390625 
L 58.015625 17.1875 
L 47.609375 17.1875 
L 47.609375 0 
L 37.796875 0 
L 37.796875 17.1875 
L 4.890625 17.1875 
L 4.890625 26.703125 
z
" id="DejaVuSans-34"/>
      </defs>
      <g transform="translate(318.399442 783.558437)scale(0.1 -0.1)">
       <use xlink:href="#DejaVuSans-2212"/>
       <use x="83.789062" xlink:href="#DejaVuSans-34"/>
       <use x="147.412109" xlink:href="#DejaVuSans-30"/>
       <use x="211.035156" xlink:href="#DejaVuSans-30"/>
       <use x="274.658203" xlink:href="#DejaVuSans-30"/>
      </g>
     </g>
    </g>
    <g id="xtick_3">
     <g id="line2d_3">
      <g>
       <use style="stroke:#000000;stroke-width:0.8;" x="462.857143" xlink:href="#m69f2ea82c4" y="768.96"/>
      </g>
     </g>
     <g id="text_3">
      <!-- −2000 -->
      <defs>
       <path d="M 19.1875 8.296875 
L 53.609375 8.296875 
L 53.609375 0 
L 7.328125 0 
L 7.328125 8.296875 
Q 12.9375 14.109375 22.625 23.890625 
Q 32.328125 33.6875 34.8125 36.53125 
Q 39.546875 41.84375 41.421875 45.53125 
Q 43.3125 49.21875 43.3125 52.78125 
Q 43.3125 58.59375 39.234375 62.25 
Q 35.15625 65.921875 28.609375 65.921875 
Q 23.96875 65.921875 18.8125 64.3125 
Q 13.671875 62.703125 7.8125 59.421875 
L 7.8125 69.390625 
Q 13.765625 71.78125 18.9375 73 
Q 24.125 74.21875 28.421875 74.21875 
Q 39.75 74.21875 46.484375 68.546875 
Q 53.21875 62.890625 53.21875 53.421875 
Q 53.21875 48.921875 51.53125 44.890625 
Q 49.859375 40.875 45.40625 35.40625 
Q 44.1875 33.984375 37.640625 27.21875 
Q 31.109375 20.453125 19.1875 8.296875 
z
" id="DejaVuSans-32"/>
      </defs>
      <g transform="translate(445.942299 783.558437)scale(0.1 -0.1)">
       <use xlink:href="#DejaVuSans-2212"/>
       <use x="83.789062" xlink:href="#DejaVuSans-32"/>
       <use x="147.412109" xlink:href="#DejaVuSans-30"/>
       <use x="211.035156" xlink:href="#DejaVuSans-30"/>
       <use x="274.658203" xlink:href="#DejaVuSans-30"/>
      </g>
     </g>
    </g>
    <g id="xtick_4">
     <g id="line2d_4">
      <g>
       <use style="stroke:#000000;stroke-width:0.8;" x="590.4" xlink:href="#m69f2ea82c4" y="768.96"/>
      </g>
     </g>
     <g id="text_4">
      <!-- 0 -->
      <g transform="translate(587.21875 783.558437)scale(0.1 -0.1)">
       <use xlink:href="#DejaVuSans-30"/>
      </g>
     </g>
    </g>
    <g id="xtick_5">
     <g id="line2d_5">
      <g>
       <use style="stroke:#000000;stroke-width:0.8;" x="717.942857" xlink:href="#m69f2ea82c4" y="768.96"/>
      </g>
     </g>
     <g id="text_5">
      <!-- 2000 -->
      <g transform="translate(705.217857 783.558437)scale(0.1 -0.1)">
       <use xlink:href="#DejaVuSans-32"/>
       <use x="63.623047" xlink:href="#DejaVuSans-30"/>
       <use x="127.246094" xlink:href="#DejaVuSans-30"/>
       <use x="190.869141" xlink:href="#DejaVuSans-30"/>
      </g>
     </g>
    </g>
    <g id="xtick_6">
     <g id="line2d_6">
      <g>
       <use style="stroke:#000000;stroke-width:0.8;" x="845.485714" xlink:href="#m69f2ea82c4" y="768.96"/>
      </g>
     </g>
     <g id="text_6">
      <!-- 4000 -->
      <g transform="translate(832.760714 783.558437)scale(0.1 -0.1)">
       <use xlink:href="#DejaVuSans-34"/>
       <use x="63.623047" xlink:href="#DejaVuSans-30"/>
       <use x="127.246094" xlink:href="#DejaVuSans-30"/>
       <use x="190.869141" xlink:href="#DejaVuSans-30"/>
      </g>
     </g>
    </g>
    <g id="xtick_7">
     <g id="line2d_7">
      <g>
       <use style="stroke:#000000;stroke-width:0.8;" x="973.028571" xlink:href="#m69f2ea82c4" y="768.96"/>
      </g>
     </g>
     <g id="text_7">
      <!-- 6000 -->
      <g transform="translate(960.303571 783.558437)scale(0.1 -0.1)">
       <use xlink:href="#DejaVuSans-36"/>
       <use x="63.623047" xlink:href="#DejaVuSans-30"/>
       <use x="127.246094" xlink:href="#DejaVuSans-30"/>
       <use x="190.869141" xlink:href="#DejaVuSans-30"/>
      </g>
     </g>
    </g>
   </g>
   <g id="matplotlib.axis_2">
    <g id="ytick_1">
     <g id="line2d_8">
      <defs>
       <path d="M 0 0 
L -3.5 0 
" id="m513d84691c" style="stroke:#000000;stroke-width:0.8;"/>
      </defs>
      <g>
       <use style="stroke:#000000;stroke-width:0.8;" x="144" xlink:href="#m513d84691c" y="721.44"/>
      </g>
     </g>
     <g id="text_8">
      <!-- −6000 -->
      <g transform="translate(103.170312 725.239219)scale(0.1 -0.1)">
       <use xlink:href="#DejaVuSans-2212"/>
       <use x="83.789062" xlink:href="#DejaVuSans-36"/>
       <use x="147.412109" xlink:href="#DejaVuSans-30"/>
       <use x="211.035156" xlink:href="#DejaVuSans-30"/>
       <use x="274.658203" xlink:href="#DejaVuSans-30"/>
      </g>
     </g>
    </g>
    <g id="ytick_2">
     <g id="line2d_9">
      <g>
       <use style="stroke:#000000;stroke-width:0.8;" x="144" xlink:href="#m513d84691c" y="626.4"/>
      </g>
     </g>
     <g id="text_9">
      <!-- −4000 -->
      <g transform="translate(103.170312 630.199219)scale(0.1 -0.1)">
       <use xlink:href="#DejaVuSans-2212"/>
       <use x="83.789062" xlink:href="#DejaVuSans-34"/>
       <use x="147.412109" xlink:href="#DejaVuSans-30"/>
       <use x="211.035156" xlink:href="#DejaVuSans-30"/>
       <use x="274.658203" xlink:href="#DejaVuSans-30"/>
      </g>
     </g>
    </g>
    <g id="ytick_3">
     <g id="line2d_10">
      <g>
       <use style="stroke:#000000;stroke-width:0.8;" x="144" xlink:href="#m513d84691c" y="531.36"/>
      </g>
     </g>
     <g id="text_10">
      <!-- −2000 -->
      <g transform="translate(103.170312 535.159219)scale(0.1 -0.1)">
       <use xlink:href="#DejaVuSans-2212"/>
       <use x="83.789062" xlink:href="#DejaVuSans-32"/>
       <use x="147.412109" xlink:href="#DejaVuSans-30"/>
       <use x="211.035156" xlink:href="#DejaVuSans-30"/>
       <use x="274.658203" xlink:href="#DejaVuSans-30"/>
      </g>
     </g>
    </g>
    <g id="ytick_4">
     <g id="line2d_11">
      <g>
       <use style="stroke:#000000;stroke-width:0.8;" x="144" xlink:href="#m513d84691c" y="436.32"/>
      </g>
     </g>
     <g id="text_11">
      <!-- 0 -->
      <g transform="translate(130.6375 440.119219)scale(0.1 -0.1)">
       <use xlink:href="#DejaVuSans-30"/>
      </g>
     </g>
    </g>
    <g id="ytick_5">
     <g id="line2d_12">
      <g>
       <use style="stroke:#000000;stroke-width:0.8;" x="144" xlink:href="#m513d84691c" y="341.28"/>
      </g>
     </g>
     <g id="text_12">
      <!-- 2000 -->
      <g transform="translate(111.55 345.079219)scale(0.1 -0.1)">
       <use xlink:href="#DejaVuSans-32"/>
       <use x="63.623047" xlink:href="#DejaVuSans-30"/>
       <use x="127.246094" xlink:href="#DejaVuSans-30"/>
       <use x="190.869141" xlink:href="#DejaVuSans-30"/>
      </g>
     </g>
    </g>
    <g id="ytick_6">
     <g id="line2d_13">
      <g>
       <use style="stroke:#000000;stroke-width:0.8;" x="144" xlink:href="#m513d84691c" y="246.24"/>
      </g>
     </g>
     <g id="text_13">
      <!-- 4000 -->
      <g transform="translate(111.55 250.039219)scale(0.1 -0.1)">
       <use xlink:href="#DejaVuSans-34"/>
       <use x="63.623047" xlink:href="#DejaVuSans-30"/>
       <use x="127.246094" xlink:href="#DejaVuSans-30"/>
       <use x="190.869141" xlink:href="#DejaVuSans-30"/>
      </g>
     </g>
    </g>
    <g id="ytick_7">
     <g id="line2d_14">
      <g>
       <use style="stroke:#000000;stroke-width:0.8;" x="144" xlink:href="#m513d84691c" y="151.2"/>
      </g>
     </g>
     <g id="text_14">
      <!-- 6000 -->
      <g transform="translate(111.55 154.999219)scale(0.1 -0.1)">
       <use xlink:href="#DejaVuSans-36"/>
       <use x="63.623047" xlink:href="#DejaVuSans-30"/>
       <use x="127.246094" xlink:href="#DejaVuSans-30"/>
       <use x="190.869141" xlink:href="#DejaVuSans-30"/>
      </g>
     </g>
    </g>
   </g>
   <g id="line2d_15">
    <path clip-path="url(#pd8d2eee9b8)" d="M 590.4 768.96 
L 590.4 103.68 
" style="fill:none;stroke:#1f77b4;stroke-linecap:square;stroke-width:1.5;"/>
   </g>
   <g id="line2d_16">
    <path clip-path="url(#pd8d2eee9b8)" d="M 144 436.32 
L 1036.8 436.32 
" style="fill:none;stroke:#1f77b4;stroke-linecap:square;stroke-width:1.5;"/>
   </g>
   <g id="line2d_17">
    <defs>
     <path d="M 0 1.333333 
C 0.353604 1.333333 0.692773 1.192845 0.942809 0.942809 
C 1.192845 0.692773 1.333333 0.353604 1.333333 0 
C 1.333333 -0.353604 1.192845 -0.692773 0.942809 -0.942809 
C 0.692773 -1.192845 0.353604 -1.333333 0 -1.333333 
C -0.353604 -1.333333 -0.692773 -1.192845 -0.942809 -0.942809 
C -1.192845 -0.692773 -1.333333 -0.353604 -1.333333 0 
C -1.333333 0.353604 -1.192845 0.692773 -0.942809 0.942809 
C -0.692773 1.192845 -0.353604 1.333333 0 1.333333 
z
" id="m56601aa760" style="stroke:#ff0000;"/>
    </defs>
    <g clip-path="url(#pd8d2eee9b8)">
     <use style="fill:#ff0000;stroke:#ff0000;" x="895.141959" xlink:href="#m56601aa760" y="450.333246"/>
     <use style="fill:#ff0000;stroke:#ff0000;" x="910.556102" xlink:href="#m56601aa760" y="441.916127"/>
     <use style="fill:#ff0000;stroke:#ff0000;" x="938.783497" xlink:href="#m56601aa760" y="422.714841"/>
     <use style="fill:#ff0000;stroke:#ff0000;" x="918.810967" xlink:href="#m56601aa760" y="413.968064"/>
     <use style="fill:#ff0000;stroke:#ff0000;" x="918.881203" xlink:href="#m56601aa760" y="404.502584"/>
     <use style="fill:#ff0000;stroke:#ff0000;" x="735.196541" xlink:href="#m56601aa760" y="404.455513"/>
     <use style="fill:#ff0000;stroke:#ff0000;" x="937.430871" xlink:href="#m56601aa760" y="316.59311"/>
     <use style="fill:#ff0000;stroke:#ff0000;" x="877.903001" xlink:href="#m56601aa760" y="316.188474"/>
     <use style="fill:#ff0000;stroke:#ff0000;" x="828.641398" xlink:href="#m56601aa760" y="318.049226"/>
     <use style="fill:#ff0000;stroke:#ff0000;" x="786.96114" xlink:href="#m56601aa760" y="312.11835"/>
     <use style="fill:#ff0000;stroke:#ff0000;" x="774.306812" xlink:href="#m56601aa760" y="310.814493"/>
     <use style="fill:#ff0000;stroke:#ff0000;" x="680.987419" xlink:href="#m56601aa760" y="308.35829"/>
     <use style="fill:#ff0000;stroke:#ff0000;" x="636.029056" xlink:href="#m56601aa760" y="306.600581"/>
     <use style="fill:#ff0000;stroke:#ff0000;" x="617.354529" xlink:href="#m56601aa760" y="325.418615"/>
     <use style="fill:#ff0000;stroke:#ff0000;" x="615.334739" xlink:href="#m56601aa760" y="306.427583"/>
     <use style="fill:#ff0000;stroke:#ff0000;" x="450.500394" xlink:href="#m56601aa760" y="302.437974"/>
     <use style="fill:#ff0000;stroke:#ff0000;" x="438.084872" xlink:href="#m56601aa760" y="301.430713"/>
     <use style="fill:#ff0000;stroke:#ff0000;" x="407.290019" xlink:href="#m56601aa760" y="307.472127"/>
     <use style="fill:#ff0000;stroke:#ff0000;" x="392.434086" xlink:href="#m56601aa760" y="307.235872"/>
     <use style="fill:#ff0000;stroke:#ff0000;" x="395.773232" xlink:href="#m56601aa760" y="318.943842"/>
     <use style="fill:#ff0000;stroke:#ff0000;" x="398.938905" xlink:href="#m56601aa760" y="345.921083"/>
     <use style="fill:#ff0000;stroke:#ff0000;" x="390.285427" xlink:href="#m56601aa760" y="349.62943"/>
     <use style="fill:#ff0000;stroke:#ff0000;" x="373.524931" xlink:href="#m56601aa760" y="358.207043"/>
     <use style="fill:#ff0000;stroke:#ff0000;" x="396.76701" xlink:href="#m56601aa760" y="392.507799"/>
     <use style="fill:#ff0000;stroke:#ff0000;" x="372.581697" xlink:href="#m56601aa760" y="393.634732"/>
     <use style="fill:#ff0000;stroke:#ff0000;" x="379.983143" xlink:href="#m56601aa760" y="420.056361"/>
     <use style="fill:#ff0000;stroke:#ff0000;" x="368.262549" xlink:href="#m56601aa760" y="425.516041"/>
     <use style="fill:#ff0000;stroke:#ff0000;" x="537.246959" xlink:href="#m56601aa760" y="436.15798"/>
     <use style="fill:#ff0000;stroke:#ff0000;" x="537.12388" xlink:href="#m56601aa760" y="451.80809"/>
     <use style="fill:#ff0000;stroke:#ff0000;" x="395.53211" xlink:href="#m56601aa760" y="523.785499"/>
     <use style="fill:#ff0000;stroke:#ff0000;" x="429.111038" xlink:href="#m56601aa760" y="515.352117"/>
     <use style="fill:#ff0000;stroke:#ff0000;" x="404.706215" xlink:href="#m56601aa760" y="534.735266"/>
     <use style="fill:#ff0000;stroke:#ff0000;" x="433.99828" xlink:href="#m56601aa760" y="526.304484"/>
     <use style="fill:#ff0000;stroke:#ff0000;" x="460.655142" xlink:href="#m56601aa760" y="537.978036"/>
     <use style="fill:#ff0000;stroke:#ff0000;" x="494.449488" xlink:href="#m56601aa760" y="517.803699"/>
     <use style="fill:#ff0000;stroke:#ff0000;" x="507.315886" xlink:href="#m56601aa760" y="525.668446"/>
     <use style="fill:#ff0000;stroke:#ff0000;" x="502.90737" xlink:href="#m56601aa760" y="538.166399"/>
     <use style="fill:#ff0000;stroke:#ff0000;" x="544.784308" xlink:href="#m56601aa760" y="522.473474"/>
     <use style="fill:#ff0000;stroke:#ff0000;" x="561.813003" xlink:href="#m56601aa760" y="529.868192"/>
     <use style="fill:#ff0000;stroke:#ff0000;" x="568.654419" xlink:href="#m56601aa760" y="523.088323"/>
     <use style="fill:#ff0000;stroke:#ff0000;" x="570.807479" xlink:href="#m56601aa760" y="533.64498"/>
     <use style="fill:#ff0000;stroke:#ff0000;" x="574.711284" xlink:href="#m56601aa760" y="540.698432"/>
     <use style="fill:#ff0000;stroke:#ff0000;" x="585.423837" xlink:href="#m56601aa760" y="540.869544"/>
     <use style="fill:#ff0000;stroke:#ff0000;" x="590.896358" xlink:href="#m56601aa760" y="526.737924"/>
     <use style="fill:#ff0000;stroke:#ff0000;" x="606.312578" xlink:href="#m56601aa760" y="534.890533"/>
     <use style="fill:#ff0000;stroke:#ff0000;" x="608.52158" xlink:href="#m56601aa760" y="519.664324"/>
     <use style="fill:#ff0000;stroke:#ff0000;" x="621.98273" xlink:href="#m56601aa760" y="519.592201"/>
     <use style="fill:#ff0000;stroke:#ff0000;" x="619.26112" xlink:href="#m56601aa760" y="502.081829"/>
     <use style="fill:#ff0000;stroke:#ff0000;" x="641.122944" xlink:href="#m56601aa760" y="481.339503"/>
     <use style="fill:#ff0000;stroke:#ff0000;" x="717.336038" xlink:href="#m56601aa760" y="527.911976"/>
     <use style="fill:#ff0000;stroke:#ff0000;" x="732.975205" xlink:href="#m56601aa760" y="524.63114"/>
     <use style="fill:#ff0000;stroke:#ff0000;" x="745.42087" xlink:href="#m56601aa760" y="524.758167"/>
     <use style="fill:#ff0000;stroke:#ff0000;" x="741.654869" xlink:href="#m56601aa760" y="515.882897"/>
     <use style="fill:#ff0000;stroke:#ff0000;" x="756.334299" xlink:href="#m56601aa760" y="516.809728"/>
     <use style="fill:#ff0000;stroke:#ff0000;" x="770.936934" xlink:href="#m56601aa760" y="516.853959"/>
     <use style="fill:#ff0000;stroke:#ff0000;" x="790.100761" xlink:href="#m56601aa760" y="517.854005"/>
     <use style="fill:#ff0000;stroke:#ff0000;" x="911.541236" xlink:href="#m56601aa760" y="556.61097"/>
     <use style="fill:#ff0000;stroke:#ff0000;" x="928.863866" xlink:href="#m56601aa760" y="539.823214"/>
     <use style="fill:#ff0000;stroke:#ff0000;" x="899.581867" xlink:href="#m56601aa760" y="501.093368"/>
    </g>
   </g>
   <g id="line2d_18">
    <defs>
     <path d="M -0.5 0.5 
L 0.5 0.5 
L 0.5 -0.5 
L -0.5 -0.5 
z
" id="ma6f6a970e6" style="stroke:#1f77b4;stroke-linejoin:miter;"/>
    </defs>
    <g clip-path="url(#pd8d2eee9b8)">
     <use style="fill:#1f77b4;stroke:#1f77b4;stroke-linejoin:miter;" x="895.141959" xlink:href="#ma6f6a970e6" y="450.333246"/>
     <use style="fill:#1f77b4;stroke:#1f77b4;stroke-linejoin:miter;" x="910.556102" xlink:href="#ma6f6a970e6" y="441.916127"/>
     <use style="fill:#1f77b4;stroke:#1f77b4;stroke-linejoin:miter;" x="938.783497" xlink:href="#ma6f6a970e6" y="422.714841"/>
     <use style="fill:#1f77b4;stroke:#1f77b4;stroke-linejoin:miter;" x="918.810967" xlink:href="#ma6f6a970e6" y="413.968064"/>
     <use style="fill:#1f77b4;stroke:#1f77b4;stroke-linejoin:miter;" x="918.881203" xlink:href="#ma6f6a970e6" y="404.502584"/>
     <use style="fill:#1f77b4;stroke:#1f77b4;stroke-linejoin:miter;" x="735.196541" xlink:href="#ma6f6a970e6" y="404.455513"/>
     <use style="fill:#1f77b4;stroke:#1f77b4;stroke-linejoin:miter;" x="937.430871" xlink:href="#ma6f6a970e6" y="316.59311"/>
     <use style="fill:#1f77b4;stroke:#1f77b4;stroke-linejoin:miter;" x="877.903001" xlink:href="#ma6f6a970e6" y="316.188474"/>
     <use style="fill:#1f77b4;stroke:#1f77b4;stroke-linejoin:miter;" x="828.641398" xlink:href="#ma6f6a970e6" y="318.049226"/>
     <use style="fill:#1f77b4;stroke:#1f77b4;stroke-linejoin:miter;" x="786.96114" xlink:href="#ma6f6a970e6" y="312.11835"/>
     <use style="fill:#1f77b4;stroke:#1f77b4;stroke-linejoin:miter;" x="774.306812" xlink:href="#ma6f6a970e6" y="310.814493"/>
     <use style="fill:#1f77b4;stroke:#1f77b4;stroke-linejoin:miter;" x="680.987419" xlink:href="#ma6f6a970e6" y="308.35829"/>
     <use style="fill:#1f77b4;stroke:#1f77b4;stroke-linejoin:miter;" x="673.311824" xlink:href="#ma6f6a970e6" y="307.513856"/>
     <use style="fill:#1f77b4;stroke:#1f77b4;stroke-linejoin:miter;" x="665.220375" xlink:href="#ma6f6a970e6" y="307.712851"/>
     <use style="fill:#1f77b4;stroke:#1f77b4;stroke-linejoin:miter;" x="658.001451" xlink:href="#ma6f6a970e6" y="306.888017"/>
     <use style="fill:#1f77b4;stroke:#1f77b4;stroke-linejoin:miter;" x="650.191142" xlink:href="#ma6f6a970e6" y="307.382733"/>
     <use style="fill:#1f77b4;stroke:#1f77b4;stroke-linejoin:miter;" x="642.847836" xlink:href="#ma6f6a970e6" y="307.356995"/>
     <use style="fill:#1f77b4;stroke:#1f77b4;stroke-linejoin:miter;" x="636.029056" xlink:href="#ma6f6a970e6" y="306.600581"/>
     <use style="fill:#1f77b4;stroke:#1f77b4;stroke-linejoin:miter;" x="617.354529" xlink:href="#ma6f6a970e6" y="325.418615"/>
     <use style="fill:#1f77b4;stroke:#1f77b4;stroke-linejoin:miter;" x="615.334739" xlink:href="#ma6f6a970e6" y="306.427583"/>
     <use style="fill:#1f77b4;stroke:#1f77b4;stroke-linejoin:miter;" x="608.273897" xlink:href="#ma6f6a970e6" y="305.126344"/>
     <use style="fill:#1f77b4;stroke:#1f77b4;stroke-linejoin:miter;" x="601.561069" xlink:href="#ma6f6a970e6" y="305.607317"/>
     <use style="fill:#1f77b4;stroke:#1f77b4;stroke-linejoin:miter;" x="594.818649" xlink:href="#ma6f6a970e6" y="305.111066"/>
     <use style="fill:#1f77b4;stroke:#1f77b4;stroke-linejoin:miter;" x="588.122038" xlink:href="#ma6f6a970e6" y="303.892638"/>
     <use style="fill:#1f77b4;stroke:#1f77b4;stroke-linejoin:miter;" x="581.289443" xlink:href="#ma6f6a970e6" y="304.020187"/>
     <use style="fill:#1f77b4;stroke:#1f77b4;stroke-linejoin:miter;" x="574.354238" xlink:href="#ma6f6a970e6" y="304.219809"/>
     <use style="fill:#1f77b4;stroke:#1f77b4;stroke-linejoin:miter;" x="567.543505" xlink:href="#ma6f6a970e6" y="304.16692"/>
     <use style="fill:#1f77b4;stroke:#1f77b4;stroke-linejoin:miter;" x="560.599063" xlink:href="#ma6f6a970e6" y="303.841107"/>
     <use style="fill:#1f77b4;stroke:#1f77b4;stroke-linejoin:miter;" x="553.482323" xlink:href="#ma6f6a970e6" y="303.881241"/>
     <use style="fill:#1f77b4;stroke:#1f77b4;stroke-linejoin:miter;" x="546.160237" xlink:href="#ma6f6a970e6" y="303.173832"/>
     <use style="fill:#1f77b4;stroke:#1f77b4;stroke-linejoin:miter;" x="538.775622" xlink:href="#ma6f6a970e6" y="302.988211"/>
     <use style="fill:#1f77b4;stroke:#1f77b4;stroke-linejoin:miter;" x="531.156315" xlink:href="#ma6f6a970e6" y="302.442738"/>
     <use style="fill:#1f77b4;stroke:#1f77b4;stroke-linejoin:miter;" x="523.312968" xlink:href="#ma6f6a970e6" y="302.279707"/>
     <use style="fill:#1f77b4;stroke:#1f77b4;stroke-linejoin:miter;" x="515.464788" xlink:href="#ma6f6a970e6" y="302.443485"/>
     <use style="fill:#1f77b4;stroke:#1f77b4;stroke-linejoin:miter;" x="506.843321" xlink:href="#ma6f6a970e6" y="301.647253"/>
     <use style="fill:#1f77b4;stroke:#1f77b4;stroke-linejoin:miter;" x="498.616118" xlink:href="#ma6f6a970e6" y="302.089618"/>
     <use style="fill:#1f77b4;stroke:#1f77b4;stroke-linejoin:miter;" x="490.361128" xlink:href="#ma6f6a970e6" y="302.8689"/>
     <use style="fill:#1f77b4;stroke:#1f77b4;stroke-linejoin:miter;" x="481.124659" xlink:href="#ma6f6a970e6" y="302.788942"/>
     <use style="fill:#1f77b4;stroke:#1f77b4;stroke-linejoin:miter;" x="471.941048" xlink:href="#ma6f6a970e6" y="303.114938"/>
     <use style="fill:#1f77b4;stroke:#1f77b4;stroke-linejoin:miter;" x="461.38115" xlink:href="#ma6f6a970e6" y="302.542636"/>
     <use style="fill:#1f77b4;stroke:#1f77b4;stroke-linejoin:miter;" x="450.500394" xlink:href="#ma6f6a970e6" y="302.437974"/>
     <use style="fill:#1f77b4;stroke:#1f77b4;stroke-linejoin:miter;" x="438.084872" xlink:href="#ma6f6a970e6" y="301.430713"/>
     <use style="fill:#1f77b4;stroke:#1f77b4;stroke-linejoin:miter;" x="425.549735" xlink:href="#ma6f6a970e6" y="301.157746"/>
     <use style="fill:#1f77b4;stroke:#1f77b4;stroke-linejoin:miter;" x="407.290019" xlink:href="#ma6f6a970e6" y="307.472127"/>
     <use style="fill:#1f77b4;stroke:#1f77b4;stroke-linejoin:miter;" x="392.434086" xlink:href="#ma6f6a970e6" y="307.235872"/>
     <use style="fill:#1f77b4;stroke:#1f77b4;stroke-linejoin:miter;" x="395.773232" xlink:href="#ma6f6a970e6" y="318.943842"/>
     <use style="fill:#1f77b4;stroke:#1f77b4;stroke-linejoin:miter;" x="398.938905" xlink:href="#ma6f6a970e6" y="345.921083"/>
     <use style="fill:#1f77b4;stroke:#1f77b4;stroke-linejoin:miter;" x="390.285427" xlink:href="#ma6f6a970e6" y="349.62943"/>
     <use style="fill:#1f77b4;stroke:#1f77b4;stroke-linejoin:miter;" x="375.364219" xlink:href="#ma6f6a970e6" y="351.120827"/>
     <use style="fill:#1f77b4;stroke:#1f77b4;stroke-linejoin:miter;" x="373.524931" xlink:href="#ma6f6a970e6" y="358.207043"/>
     <use style="fill:#1f77b4;stroke:#1f77b4;stroke-linejoin:miter;" x="396.76701" xlink:href="#ma6f6a970e6" y="392.507799"/>
     <use style="fill:#1f77b4;stroke:#1f77b4;stroke-linejoin:miter;" x="372.581697" xlink:href="#ma6f6a970e6" y="393.634732"/>
     <use style="fill:#1f77b4;stroke:#1f77b4;stroke-linejoin:miter;" x="373.297678" xlink:href="#ma6f6a970e6" y="400.408781"/>
     <use style="fill:#1f77b4;stroke:#1f77b4;stroke-linejoin:miter;" x="369.498975" xlink:href="#ma6f6a970e6" y="406.32238"/>
     <use style="fill:#1f77b4;stroke:#1f77b4;stroke-linejoin:miter;" x="369.077458" xlink:href="#ma6f6a970e6" y="412.774845"/>
     <use style="fill:#1f77b4;stroke:#1f77b4;stroke-linejoin:miter;" x="379.983143" xlink:href="#ma6f6a970e6" y="420.056361"/>
     <use style="fill:#1f77b4;stroke:#1f77b4;stroke-linejoin:miter;" x="368.262549" xlink:href="#ma6f6a970e6" y="425.516041"/>
     <use style="fill:#1f77b4;stroke:#1f77b4;stroke-linejoin:miter;" x="537.246959" xlink:href="#ma6f6a970e6" y="436.15798"/>
     <use style="fill:#1f77b4;stroke:#1f77b4;stroke-linejoin:miter;" x="537.317374" xlink:href="#ma6f6a970e6" y="437.485331"/>
     <use style="fill:#1f77b4;stroke:#1f77b4;stroke-linejoin:miter;" x="537.368031" xlink:href="#ma6f6a970e6" y="438.996702"/>
     <use style="fill:#1f77b4;stroke:#1f77b4;stroke-linejoin:miter;" x="537.315279" xlink:href="#ma6f6a970e6" y="440.586672"/>
     <use style="fill:#1f77b4;stroke:#1f77b4;stroke-linejoin:miter;" x="537.368482" xlink:href="#ma6f6a970e6" y="442.038695"/>
     <use style="fill:#1f77b4;stroke:#1f77b4;stroke-linejoin:miter;" x="537.383805" xlink:href="#ma6f6a970e6" y="443.575092"/>
     <use style="fill:#1f77b4;stroke:#1f77b4;stroke-linejoin:miter;" x="537.342852" xlink:href="#ma6f6a970e6" y="445.152845"/>
     <use style="fill:#1f77b4;stroke:#1f77b4;stroke-linejoin:miter;" x="537.375498" xlink:href="#ma6f6a970e6" y="446.711069"/>
     <use style="fill:#1f77b4;stroke:#1f77b4;stroke-linejoin:miter;" x="537.449843" xlink:href="#ma6f6a970e6" y="448.383034"/>
     <use style="fill:#1f77b4;stroke:#1f77b4;stroke-linejoin:miter;" x="537.408683" xlink:href="#ma6f6a970e6" y="450.049125"/>
     <use style="fill:#1f77b4;stroke:#1f77b4;stroke-linejoin:miter;" x="537.12388" xlink:href="#ma6f6a970e6" y="451.80809"/>
     <use style="fill:#1f77b4;stroke:#1f77b4;stroke-linejoin:miter;" x="395.53211" xlink:href="#ma6f6a970e6" y="523.785499"/>
     <use style="fill:#1f77b4;stroke:#1f77b4;stroke-linejoin:miter;" x="429.111038" xlink:href="#ma6f6a970e6" y="515.352117"/>
     <use style="fill:#1f77b4;stroke:#1f77b4;stroke-linejoin:miter;" x="404.706215" xlink:href="#ma6f6a970e6" y="534.735266"/>
     <use style="fill:#1f77b4;stroke:#1f77b4;stroke-linejoin:miter;" x="433.99828" xlink:href="#ma6f6a970e6" y="526.304484"/>
     <use style="fill:#1f77b4;stroke:#1f77b4;stroke-linejoin:miter;" x="444.604577" xlink:href="#ma6f6a970e6" y="527.077549"/>
     <use style="fill:#1f77b4;stroke:#1f77b4;stroke-linejoin:miter;" x="444.103541" xlink:href="#ma6f6a970e6" y="534.584774"/>
     <use style="fill:#1f77b4;stroke:#1f77b4;stroke-linejoin:miter;" x="451.568281" xlink:href="#ma6f6a970e6" y="537.098499"/>
     <use style="fill:#1f77b4;stroke:#1f77b4;stroke-linejoin:miter;" x="460.655142" xlink:href="#ma6f6a970e6" y="537.978036"/>
     <use style="fill:#1f77b4;stroke:#1f77b4;stroke-linejoin:miter;" x="494.449488" xlink:href="#ma6f6a970e6" y="517.803699"/>
     <use style="fill:#1f77b4;stroke:#1f77b4;stroke-linejoin:miter;" x="502.610929" xlink:href="#ma6f6a970e6" y="517.01326"/>
     <use style="fill:#1f77b4;stroke:#1f77b4;stroke-linejoin:miter;" x="507.016962" xlink:href="#ma6f6a970e6" y="519.196789"/>
     <use style="fill:#1f77b4;stroke:#1f77b4;stroke-linejoin:miter;" x="507.315886" xlink:href="#ma6f6a970e6" y="525.668446"/>
     <use style="fill:#1f77b4;stroke:#1f77b4;stroke-linejoin:miter;" x="502.90737" xlink:href="#ma6f6a970e6" y="538.166399"/>
     <use style="fill:#1f77b4;stroke:#1f77b4;stroke-linejoin:miter;" x="544.784308" xlink:href="#ma6f6a970e6" y="522.473474"/>
     <use style="fill:#1f77b4;stroke:#1f77b4;stroke-linejoin:miter;" x="547.618461" xlink:href="#ma6f6a970e6" y="527.051029"/>
     <use style="fill:#1f77b4;stroke:#1f77b4;stroke-linejoin:miter;" x="556.672002" xlink:href="#ma6f6a970e6" y="529.810865"/>
     <use style="fill:#1f77b4;stroke:#1f77b4;stroke-linejoin:miter;" x="561.813003" xlink:href="#ma6f6a970e6" y="529.868192"/>
     <use style="fill:#1f77b4;stroke:#1f77b4;stroke-linejoin:miter;" x="568.654419" xlink:href="#ma6f6a970e6" y="523.088323"/>
     <use style="fill:#1f77b4;stroke:#1f77b4;stroke-linejoin:miter;" x="570.807479" xlink:href="#ma6f6a970e6" y="533.64498"/>
     <use style="fill:#1f77b4;stroke:#1f77b4;stroke-linejoin:miter;" x="574.711284" xlink:href="#ma6f6a970e6" y="540.698432"/>
     <use style="fill:#1f77b4;stroke:#1f77b4;stroke-linejoin:miter;" x="580.132133" xlink:href="#ma6f6a970e6" y="540.821878"/>
     <use style="fill:#1f77b4;stroke:#1f77b4;stroke-linejoin:miter;" x="585.423837" xlink:href="#ma6f6a970e6" y="540.869544"/>
     <use style="fill:#1f77b4;stroke:#1f77b4;stroke-linejoin:miter;" x="590.896358" xlink:href="#ma6f6a970e6" y="526.737924"/>
     <use style="fill:#1f77b4;stroke:#1f77b4;stroke-linejoin:miter;" x="595.700804" xlink:href="#ma6f6a970e6" y="530.933064"/>
     <use style="fill:#1f77b4;stroke:#1f77b4;stroke-linejoin:miter;" x="601.325582" xlink:href="#ma6f6a970e6" y="535.278712"/>
     <use style="fill:#1f77b4;stroke:#1f77b4;stroke-linejoin:miter;" x="606.312578" xlink:href="#ma6f6a970e6" y="534.890533"/>
     <use style="fill:#1f77b4;stroke:#1f77b4;stroke-linejoin:miter;" x="608.52158" xlink:href="#ma6f6a970e6" y="519.664324"/>
     <use style="fill:#1f77b4;stroke:#1f77b4;stroke-linejoin:miter;" x="612.726401" xlink:href="#ma6f6a970e6" y="519.132186"/>
     <use style="fill:#1f77b4;stroke:#1f77b4;stroke-linejoin:miter;" x="617.587785" xlink:href="#ma6f6a970e6" y="520.30231"/>
     <use style="fill:#1f77b4;stroke:#1f77b4;stroke-linejoin:miter;" x="621.98273" xlink:href="#ma6f6a970e6" y="519.592201"/>
     <use style="fill:#1f77b4;stroke:#1f77b4;stroke-linejoin:miter;" x="619.26112" xlink:href="#ma6f6a970e6" y="502.081829"/>
     <use style="fill:#1f77b4;stroke:#1f77b4;stroke-linejoin:miter;" x="620.900961" xlink:href="#ma6f6a970e6" y="497.567001"/>
     <use style="fill:#1f77b4;stroke:#1f77b4;stroke-linejoin:miter;" x="622.185895" xlink:href="#ma6f6a970e6" y="493.194811"/>
     <use style="fill:#1f77b4;stroke:#1f77b4;stroke-linejoin:miter;" x="624.621753" xlink:href="#ma6f6a970e6" y="491.280156"/>
     <use style="fill:#1f77b4;stroke:#1f77b4;stroke-linejoin:miter;" x="626.596779" xlink:href="#ma6f6a970e6" y="489.042947"/>
     <use style="fill:#1f77b4;stroke:#1f77b4;stroke-linejoin:miter;" x="628.810999" xlink:href="#ma6f6a970e6" y="487.363631"/>
     <use style="fill:#1f77b4;stroke:#1f77b4;stroke-linejoin:miter;" x="631.18338" xlink:href="#ma6f6a970e6" y="486.247865"/>
     <use style="fill:#1f77b4;stroke:#1f77b4;stroke-linejoin:miter;" x="633.61465" xlink:href="#ma6f6a970e6" y="484.885365"/>
     <use style="fill:#1f77b4;stroke:#1f77b4;stroke-linejoin:miter;" x="635.450066" xlink:href="#ma6f6a970e6" y="483.031617"/>
     <use style="fill:#1f77b4;stroke:#1f77b4;stroke-linejoin:miter;" x="637.949964" xlink:href="#ma6f6a970e6" y="481.875906"/>
     <use style="fill:#1f77b4;stroke:#1f77b4;stroke-linejoin:miter;" x="641.122944" xlink:href="#ma6f6a970e6" y="481.339503"/>
     <use style="fill:#1f77b4;stroke:#1f77b4;stroke-linejoin:miter;" x="717.336038" xlink:href="#ma6f6a970e6" y="527.911976"/>
     <use style="fill:#1f77b4;stroke:#1f77b4;stroke-linejoin:miter;" x="720.831459" xlink:href="#ma6f6a970e6" y="523.497118"/>
     <use style="fill:#1f77b4;stroke:#1f77b4;stroke-linejoin:miter;" x="732.975205" xlink:href="#ma6f6a970e6" y="524.63114"/>
     <use style="fill:#1f77b4;stroke:#1f77b4;stroke-linejoin:miter;" x="745.42087" xlink:href="#ma6f6a970e6" y="524.758167"/>
     <use style="fill:#1f77b4;stroke:#1f77b4;stroke-linejoin:miter;" x="741.654869" xlink:href="#ma6f6a970e6" y="515.882897"/>
     <use style="fill:#1f77b4;stroke:#1f77b4;stroke-linejoin:miter;" x="756.334299" xlink:href="#ma6f6a970e6" y="516.809728"/>
     <use style="fill:#1f77b4;stroke:#1f77b4;stroke-linejoin:miter;" x="770.936934" xlink:href="#ma6f6a970e6" y="516.853959"/>
     <use style="fill:#1f77b4;stroke:#1f77b4;stroke-linejoin:miter;" x="790.100761" xlink:href="#ma6f6a970e6" y="517.854005"/>
     <use style="fill:#1f77b4;stroke:#1f77b4;stroke-linejoin:miter;" x="911.541236" xlink:href="#ma6f6a970e6" y="556.61097"/>
     <use style="fill:#1f77b4;stroke:#1f77b4;stroke-linejoin:miter;" x="922.241868" xlink:href="#ma6f6a970e6" y="549.010036"/>
     <use style="fill:#1f77b4;stroke:#1f77b4;stroke-linejoin:miter;" x="928.863866" xlink:href="#ma6f6a970e6" y="539.823214"/>
     <use style="fill:#1f77b4;stroke:#1f77b4;stroke-linejoin:miter;" x="899.581867" xlink:href="#ma6f6a970e6" y="501.093368"/>
    </g>
   </g>
   <g id="patch_3">
    <path d="M 144 768.96 
L 144 103.68 
" style="fill:none;stroke:#000000;stroke-linecap:square;stroke-linejoin:miter;stroke-width:0.8;"/>
   </g>
   <g id="patch_4">
    <path d="M 1036.8 768.96 
L 1036.8 103.68 
" style="fill:none;stroke:#000000;stroke-linecap:square;stroke-linejoin:miter;stroke-width:0.8;"/>
   </g>
   <g id="patch_5">
    <path d="M 144 768.96 
L 1036.8 768.96 
" style="fill:none;stroke:#000000;stroke-linecap:square;stroke-linejoin:miter;stroke-width:0.8;"/>
   </g>
   <g id="patch_6">
    <path d="M 144 103.68 
L 1036.8 103.68 
" style="fill:none;stroke:#000000;stroke-linecap:square;stroke-linejoin:miter;stroke-width:0.8;"/>
   </g>
  </g>
 </g>
 <defs>
  <clipPath id="pd8d2eee9b8">
   <rect height="665.28" width="892.8" x="144" y="103.68"/>
  </clipPath>
 </defs>
</svg>
