<?xml version="1.0" encoding="utf-8" standalone="no"?>
<!DOCTYPE svg PUBLIC "-//W3C//DTD SVG 1.1//EN"
  "http://www.w3.org/Graphics/SVG/1.1/DTD/svg11.dtd">
<!-- Created with matplotlib (http://matplotlib.org/) -->
<svg height="864pt" version="1.1" viewBox="0 0 1152 864" width="1152pt" xmlns="http://www.w3.org/2000/svg" xmlns:xlink="http://www.w3.org/1999/xlink">
 <defs>
  <style type="text/css">
*{stroke-linecap:butt;stroke-linejoin:round;}
  </style>
 </defs>
 <g id="figure_1">
  <g id="patch_1">
   <path d="M 0 864 
L 1152 864 
L 1152 0 
L 0 0 
z
" style="fill:#ffffff;"/>
  </g>
  <g id="axes_1">
   <g id="patch_2">
    <path d="M 144 768.96 
L 1036.8 768.96 
L 1036.8 103.68 
L 144 103.68 
z
" style="fill:#ffffff;"/>
   </g>
   <g id="matplotlib.axis_1">
    <g id="xtick_1">
     <g id="line2d_1">
      <defs>
       <path d="M 0 0 
L 0 3.5 
" id="m4b1d46bdf8" style="stroke:#000000;stroke-width:0.8;"/>
      </defs>
      <g>
       <use style="stroke:#000000;stroke-width:0.8;" x="207.771429" xlink:href="#m4b1d46bdf8" y="768.96"/>
      </g>
     </g>
     <g id="text_1">
      <!-- −6000 -->
      <defs>
       <path d="M 10.59375 35.5 
L 73.1875 35.5 
L 73.1875 27.203125 
L 10.59375 27.203125 
z
" id="DejaVuSans-2212"/>
       <path d="M 33.015625 40.375 
Q 26.375 40.375 22.484375 35.828125 
Q 18.609375 31.296875 18.609375 23.390625 
Q 18.609375 15.53125 22.484375 10.953125 
Q 26.375 6.390625 33.015625 6.390625 
Q 39.65625 6.390625 43.53125 10.953125 
Q 47.40625 15.53125 47.40625 23.390625 
Q 47.40625 31.296875 43.53125 35.828125 
Q 39.65625 40.375 33.015625 40.375 
z
M 52.59375 71.296875 
L 52.59375 62.3125 
Q 48.875 64.0625 45.09375 64.984375 
Q 41.3125 65.921875 37.59375 65.921875 
Q 27.828125 65.921875 22.671875 59.328125 
Q 17.53125 52.734375 16.796875 39.40625 
Q 19.671875 43.65625 24.015625 45.921875 
Q 28.375 48.1875 33.59375 48.1875 
Q 44.578125 48.1875 50.953125 41.515625 
Q 57.328125 34.859375 57.328125 23.390625 
Q 57.328125 12.15625 50.6875 5.359375 
Q 44.046875 -1.421875 33.015625 -1.421875 
Q 20.359375 -1.421875 13.671875 8.265625 
Q 6.984375 17.96875 6.984375 36.375 
Q 6.984375 53.65625 15.1875 63.9375 
Q 23.390625 74.21875 37.203125 74.21875 
Q 40.921875 74.21875 44.703125 73.484375 
Q 48.484375 72.75 52.59375 71.296875 
z
" id="DejaVuSans-36"/>
       <path d="M 31.78125 66.40625 
Q 24.171875 66.40625 20.328125 58.90625 
Q 16.5 51.421875 16.5 36.375 
Q 16.5 21.390625 20.328125 13.890625 
Q 24.171875 6.390625 31.78125 6.390625 
Q 39.453125 6.390625 43.28125 13.890625 
Q 47.125 21.390625 47.125 36.375 
Q 47.125 51.421875 43.28125 58.90625 
Q 39.453125 66.40625 31.78125 66.40625 
z
M 31.78125 74.21875 
Q 44.046875 74.21875 50.515625 64.515625 
Q 56.984375 54.828125 56.984375 36.375 
Q 56.984375 17.96875 50.515625 8.265625 
Q 44.046875 -1.421875 31.78125 -1.421875 
Q 19.53125 -1.421875 13.0625 8.265625 
Q 6.59375 17.96875 6.59375 36.375 
Q 6.59375 54.828125 13.0625 64.515625 
Q 19.53125 74.21875 31.78125 74.21875 
z
" id="DejaVuSans-30"/>
      </defs>
      <g transform="translate(190.856585 783.558437)scale(0.1 -0.1)">
       <use xlink:href="#DejaVuSans-2212"/>
       <use x="83.789062" xlink:href="#DejaVuSans-36"/>
       <use x="147.412109" xlink:href="#DejaVuSans-30"/>
       <use x="211.035156" xlink:href="#DejaVuSans-30"/>
       <use x="274.658203" xlink:href="#DejaVuSans-30"/>
      </g>
     </g>
    </g>
    <g id="xtick_2">
     <g id="line2d_2">
      <g>
       <use style="stroke:#000000;stroke-width:0.8;" x="335.314286" xlink:href="#m4b1d46bdf8" y="768.96"/>
      </g>
     </g>
     <g id="text_2">
      <!-- −4000 -->
      <defs>
       <path d="M 37.796875 64.3125 
L 12.890625 25.390625 
L 37.796875 25.390625 
z
M 35.203125 72.90625 
L 47.609375 72.90625 
L 47.609375 25.390625 
L 58.015625 25.390625 
L 58.015625 17.1875 
L 47.609375 17.1875 
L 47.609375 0 
L 37.796875 0 
L 37.796875 17.1875 
L 4.890625 17.1875 
L 4.890625 26.703125 
z
" id="DejaVuSans-34"/>
      </defs>
      <g transform="translate(318.399442 783.558437)scale(0.1 -0.1)">
       <use xlink:href="#DejaVuSans-2212"/>
       <use x="83.789062" xlink:href="#DejaVuSans-34"/>
       <use x="147.412109" xlink:href="#DejaVuSans-30"/>
       <use x="211.035156" xlink:href="#DejaVuSans-30"/>
       <use x="274.658203" xlink:href="#DejaVuSans-30"/>
      </g>
     </g>
    </g>
    <g id="xtick_3">
     <g id="line2d_3">
      <g>
       <use style="stroke:#000000;stroke-width:0.8;" x="462.857143" xlink:href="#m4b1d46bdf8" y="768.96"/>
      </g>
     </g>
     <g id="text_3">
      <!-- −2000 -->
      <defs>
       <path d="M 19.1875 8.296875 
L 53.609375 8.296875 
L 53.609375 0 
L 7.328125 0 
L 7.328125 8.296875 
Q 12.9375 14.109375 22.625 23.890625 
Q 32.328125 33.6875 34.8125 36.53125 
Q 39.546875 41.84375 41.421875 45.53125 
Q 43.3125 49.21875 43.3125 52.78125 
Q 43.3125 58.59375 39.234375 62.25 
Q 35.15625 65.921875 28.609375 65.921875 
Q 23.96875 65.921875 18.8125 64.3125 
Q 13.671875 62.703125 7.8125 59.421875 
L 7.8125 69.390625 
Q 13.765625 71.78125 18.9375 73 
Q 24.125 74.21875 28.421875 74.21875 
Q 39.75 74.21875 46.484375 68.546875 
Q 53.21875 62.890625 53.21875 53.421875 
Q 53.21875 48.921875 51.53125 44.890625 
Q 49.859375 40.875 45.40625 35.40625 
Q 44.1875 33.984375 37.640625 27.21875 
Q 31.109375 20.453125 19.1875 8.296875 
z
" id="DejaVuSans-32"/>
      </defs>
      <g transform="translate(445.942299 783.558437)scale(0.1 -0.1)">
       <use xlink:href="#DejaVuSans-2212"/>
       <use x="83.789062" xlink:href="#DejaVuSans-32"/>
       <use x="147.412109" xlink:href="#DejaVuSans-30"/>
       <use x="211.035156" xlink:href="#DejaVuSans-30"/>
       <use x="274.658203" xlink:href="#DejaVuSans-30"/>
      </g>
     </g>
    </g>
    <g id="xtick_4">
     <g id="line2d_4">
      <g>
       <use style="stroke:#000000;stroke-width:0.8;" x="590.4" xlink:href="#m4b1d46bdf8" y="768.96"/>
      </g>
     </g>
     <g id="text_4">
      <!-- 0 -->
      <g transform="translate(587.21875 783.558437)scale(0.1 -0.1)">
       <use xlink:href="#DejaVuSans-30"/>
      </g>
     </g>
    </g>
    <g id="xtick_5">
     <g id="line2d_5">
      <g>
       <use style="stroke:#000000;stroke-width:0.8;" x="717.942857" xlink:href="#m4b1d46bdf8" y="768.96"/>
      </g>
     </g>
     <g id="text_5">
      <!-- 2000 -->
      <g transform="translate(705.217857 783.558437)scale(0.1 -0.1)">
       <use xlink:href="#DejaVuSans-32"/>
       <use x="63.623047" xlink:href="#DejaVuSans-30"/>
       <use x="127.246094" xlink:href="#DejaVuSans-30"/>
       <use x="190.869141" xlink:href="#DejaVuSans-30"/>
      </g>
     </g>
    </g>
    <g id="xtick_6">
     <g id="line2d_6">
      <g>
       <use style="stroke:#000000;stroke-width:0.8;" x="845.485714" xlink:href="#m4b1d46bdf8" y="768.96"/>
      </g>
     </g>
     <g id="text_6">
      <!-- 4000 -->
      <g transform="translate(832.760714 783.558437)scale(0.1 -0.1)">
       <use xlink:href="#DejaVuSans-34"/>
       <use x="63.623047" xlink:href="#DejaVuSans-30"/>
       <use x="127.246094" xlink:href="#DejaVuSans-30"/>
       <use x="190.869141" xlink:href="#DejaVuSans-30"/>
      </g>
     </g>
    </g>
    <g id="xtick_7">
     <g id="line2d_7">
      <g>
       <use style="stroke:#000000;stroke-width:0.8;" x="973.028571" xlink:href="#m4b1d46bdf8" y="768.96"/>
      </g>
     </g>
     <g id="text_7">
      <!-- 6000 -->
      <g transform="translate(960.303571 783.558437)scale(0.1 -0.1)">
       <use xlink:href="#DejaVuSans-36"/>
       <use x="63.623047" xlink:href="#DejaVuSans-30"/>
       <use x="127.246094" xlink:href="#DejaVuSans-30"/>
       <use x="190.869141" xlink:href="#DejaVuSans-30"/>
      </g>
     </g>
    </g>
   </g>
   <g id="matplotlib.axis_2">
    <g id="ytick_1">
     <g id="line2d_8">
      <defs>
       <path d="M 0 0 
L -3.5 0 
" id="meb58758522" style="stroke:#000000;stroke-width:0.8;"/>
      </defs>
      <g>
       <use style="stroke:#000000;stroke-width:0.8;" x="144" xlink:href="#meb58758522" y="721.44"/>
      </g>
     </g>
     <g id="text_8">
      <!-- −6000 -->
      <g transform="translate(103.170312 725.239219)scale(0.1 -0.1)">
       <use xlink:href="#DejaVuSans-2212"/>
       <use x="83.789062" xlink:href="#DejaVuSans-36"/>
       <use x="147.412109" xlink:href="#DejaVuSans-30"/>
       <use x="211.035156" xlink:href="#DejaVuSans-30"/>
       <use x="274.658203" xlink:href="#DejaVuSans-30"/>
      </g>
     </g>
    </g>
    <g id="ytick_2">
     <g id="line2d_9">
      <g>
       <use style="stroke:#000000;stroke-width:0.8;" x="144" xlink:href="#meb58758522" y="626.4"/>
      </g>
     </g>
     <g id="text_9">
      <!-- −4000 -->
      <g transform="translate(103.170312 630.199219)scale(0.1 -0.1)">
       <use xlink:href="#DejaVuSans-2212"/>
       <use x="83.789062" xlink:href="#DejaVuSans-34"/>
       <use x="147.412109" xlink:href="#DejaVuSans-30"/>
       <use x="211.035156" xlink:href="#DejaVuSans-30"/>
       <use x="274.658203" xlink:href="#DejaVuSans-30"/>
      </g>
     </g>
    </g>
    <g id="ytick_3">
     <g id="line2d_10">
      <g>
       <use style="stroke:#000000;stroke-width:0.8;" x="144" xlink:href="#meb58758522" y="531.36"/>
      </g>
     </g>
     <g id="text_10">
      <!-- −2000 -->
      <g transform="translate(103.170312 535.159219)scale(0.1 -0.1)">
       <use xlink:href="#DejaVuSans-2212"/>
       <use x="83.789062" xlink:href="#DejaVuSans-32"/>
       <use x="147.412109" xlink:href="#DejaVuSans-30"/>
       <use x="211.035156" xlink:href="#DejaVuSans-30"/>
       <use x="274.658203" xlink:href="#DejaVuSans-30"/>
      </g>
     </g>
    </g>
    <g id="ytick_4">
     <g id="line2d_11">
      <g>
       <use style="stroke:#000000;stroke-width:0.8;" x="144" xlink:href="#meb58758522" y="436.32"/>
      </g>
     </g>
     <g id="text_11">
      <!-- 0 -->
      <g transform="translate(130.6375 440.119219)scale(0.1 -0.1)">
       <use xlink:href="#DejaVuSans-30"/>
      </g>
     </g>
    </g>
    <g id="ytick_5">
     <g id="line2d_12">
      <g>
       <use style="stroke:#000000;stroke-width:0.8;" x="144" xlink:href="#meb58758522" y="341.28"/>
      </g>
     </g>
     <g id="text_12">
      <!-- 2000 -->
      <g transform="translate(111.55 345.079219)scale(0.1 -0.1)">
       <use xlink:href="#DejaVuSans-32"/>
       <use x="63.623047" xlink:href="#DejaVuSans-30"/>
       <use x="127.246094" xlink:href="#DejaVuSans-30"/>
       <use x="190.869141" xlink:href="#DejaVuSans-30"/>
      </g>
     </g>
    </g>
    <g id="ytick_6">
     <g id="line2d_13">
      <g>
       <use style="stroke:#000000;stroke-width:0.8;" x="144" xlink:href="#meb58758522" y="246.24"/>
      </g>
     </g>
     <g id="text_13">
      <!-- 4000 -->
      <g transform="translate(111.55 250.039219)scale(0.1 -0.1)">
       <use xlink:href="#DejaVuSans-34"/>
       <use x="63.623047" xlink:href="#DejaVuSans-30"/>
       <use x="127.246094" xlink:href="#DejaVuSans-30"/>
       <use x="190.869141" xlink:href="#DejaVuSans-30"/>
      </g>
     </g>
    </g>
    <g id="ytick_7">
     <g id="line2d_14">
      <g>
       <use style="stroke:#000000;stroke-width:0.8;" x="144" xlink:href="#meb58758522" y="151.2"/>
      </g>
     </g>
     <g id="text_14">
      <!-- 6000 -->
      <g transform="translate(111.55 154.999219)scale(0.1 -0.1)">
       <use xlink:href="#DejaVuSans-36"/>
       <use x="63.623047" xlink:href="#DejaVuSans-30"/>
       <use x="127.246094" xlink:href="#DejaVuSans-30"/>
       <use x="190.869141" xlink:href="#DejaVuSans-30"/>
      </g>
     </g>
    </g>
   </g>
   <g id="line2d_15">
    <path clip-path="url(#p9e2576c409)" d="M 590.4 768.96 
L 590.4 103.68 
" style="fill:none;stroke:#1f77b4;stroke-linecap:square;stroke-width:1.5;"/>
   </g>
   <g id="line2d_16">
    <path clip-path="url(#p9e2576c409)" d="M 144 436.32 
L 1036.8 436.32 
" style="fill:none;stroke:#1f77b4;stroke-linecap:square;stroke-width:1.5;"/>
   </g>
   <g id="line2d_17">
    <defs>
     <path d="M 0 1.333333 
C 0.353604 1.333333 0.692773 1.192845 0.942809 0.942809 
C 1.192845 0.692773 1.333333 0.353604 1.333333 0 
C 1.333333 -0.353604 1.192845 -0.692773 0.942809 -0.942809 
C 0.692773 -1.192845 0.353604 -1.333333 0 -1.333333 
C -0.353604 -1.333333 -0.692773 -1.192845 -0.942809 -0.942809 
C -1.192845 -0.692773 -1.333333 -0.353604 -1.333333 0 
C -1.333333 0.353604 -1.192845 0.692773 -0.942809 0.942809 
C -0.692773 1.192845 -0.353604 1.333333 0 1.333333 
z
" id="m9bd90ae9f7" style="stroke:#ff0000;"/>
    </defs>
    <g clip-path="url(#p9e2576c409)">
     <use style="fill:#ff0000;stroke:#ff0000;" x="664.920975" xlink:href="#m9bd90ae9f7" y="426.622196"/>
     <use style="fill:#ff0000;stroke:#ff0000;" x="877.441914" xlink:href="#m9bd90ae9f7" y="316.304453"/>
     <use style="fill:#ff0000;stroke:#ff0000;" x="848.450922" xlink:href="#m9bd90ae9f7" y="316.819373"/>
     <use style="fill:#ff0000;stroke:#ff0000;" x="829.433912" xlink:href="#m9bd90ae9f7" y="314.402303"/>
     <use style="fill:#ff0000;stroke:#ff0000;" x="812.477515" xlink:href="#m9bd90ae9f7" y="311.831321"/>
     <use style="fill:#ff0000;stroke:#ff0000;" x="793.84883" xlink:href="#m9bd90ae9f7" y="311.348796"/>
     <use style="fill:#ff0000;stroke:#ff0000;" x="777.150282" xlink:href="#m9bd90ae9f7" y="310.814298"/>
     <use style="fill:#ff0000;stroke:#ff0000;" x="762.37365" xlink:href="#m9bd90ae9f7" y="309.907436"/>
     <use style="fill:#ff0000;stroke:#ff0000;" x="680.592325" xlink:href="#m9bd90ae9f7" y="307.814496"/>
     <use style="fill:#ff0000;stroke:#ff0000;" x="636.547599" xlink:href="#m9bd90ae9f7" y="306.997481"/>
     <use style="fill:#ff0000;stroke:#ff0000;" x="615.997955" xlink:href="#m9bd90ae9f7" y="325.493427"/>
     <use style="fill:#ff0000;stroke:#ff0000;" x="612.264953" xlink:href="#m9bd90ae9f7" y="306.264548"/>
     <use style="fill:#ff0000;stroke:#ff0000;" x="460.166321" xlink:href="#m9bd90ae9f7" y="302.595567"/>
     <use style="fill:#ff0000;stroke:#ff0000;" x="446.879464" xlink:href="#m9bd90ae9f7" y="301.870517"/>
     <use style="fill:#ff0000;stroke:#ff0000;" x="432.678629" xlink:href="#m9bd90ae9f7" y="301.565613"/>
     <use style="fill:#ff0000;stroke:#ff0000;" x="393.43388" xlink:href="#m9bd90ae9f7" y="307.179359"/>
     <use style="fill:#ff0000;stroke:#ff0000;" x="393.594544" xlink:href="#m9bd90ae9f7" y="318.553712"/>
     <use style="fill:#ff0000;stroke:#ff0000;" x="393.575627" xlink:href="#m9bd90ae9f7" y="347.86729"/>
     <use style="fill:#ff0000;stroke:#ff0000;" x="375.586894" xlink:href="#m9bd90ae9f7" y="349.182639"/>
     <use style="fill:#ff0000;stroke:#ff0000;" x="373.769128" xlink:href="#m9bd90ae9f7" y="357.533295"/>
     <use style="fill:#ff0000;stroke:#ff0000;" x="412.629651" xlink:href="#m9bd90ae9f7" y="392.678791"/>
     <use style="fill:#ff0000;stroke:#ff0000;" x="377.068387" xlink:href="#m9bd90ae9f7" y="391.486821"/>
     <use style="fill:#ff0000;stroke:#ff0000;" x="381.747587" xlink:href="#m9bd90ae9f7" y="399.88835"/>
     <use style="fill:#ff0000;stroke:#ff0000;" x="381.484061" xlink:href="#m9bd90ae9f7" y="421.287251"/>
     <use style="fill:#ff0000;stroke:#ff0000;" x="368.827332" xlink:href="#m9bd90ae9f7" y="427.667089"/>
     <use style="fill:#ff0000;stroke:#ff0000;" x="537.265779" xlink:href="#m9bd90ae9f7" y="436.762715"/>
     <use style="fill:#ff0000;stroke:#ff0000;" x="537.503836" xlink:href="#m9bd90ae9f7" y="451.253452"/>
     <use style="fill:#ff0000;stroke:#ff0000;" x="396.506439" xlink:href="#m9bd90ae9f7" y="519.159819"/>
     <use style="fill:#ff0000;stroke:#ff0000;" x="395.464405" xlink:href="#m9bd90ae9f7" y="528.359412"/>
     <use style="fill:#ff0000;stroke:#ff0000;" x="428.969035" xlink:href="#m9bd90ae9f7" y="520.402858"/>
     <use style="fill:#ff0000;stroke:#ff0000;" x="447.875277" xlink:href="#m9bd90ae9f7" y="525.583825"/>
     <use style="fill:#ff0000;stroke:#ff0000;" x="444.558826" xlink:href="#m9bd90ae9f7" y="536.175419"/>
     <use style="fill:#ff0000;stroke:#ff0000;" x="455.168356" xlink:href="#m9bd90ae9f7" y="537.530038"/>
     <use style="fill:#ff0000;stroke:#ff0000;" x="500.500819" xlink:href="#m9bd90ae9f7" y="517.044938"/>
     <use style="fill:#ff0000;stroke:#ff0000;" x="507.563041" xlink:href="#m9bd90ae9f7" y="525.766913"/>
     <use style="fill:#ff0000;stroke:#ff0000;" x="504.352756" xlink:href="#m9bd90ae9f7" y="538.497421"/>
     <use style="fill:#ff0000;stroke:#ff0000;" x="520.530512" xlink:href="#m9bd90ae9f7" y="528.167467"/>
     <use style="fill:#ff0000;stroke:#ff0000;" x="544.23921" xlink:href="#m9bd90ae9f7" y="522.196941"/>
     <use style="fill:#ff0000;stroke:#ff0000;" x="579.955149" xlink:href="#m9bd90ae9f7" y="540.669183"/>
     <use style="fill:#ff0000;stroke:#ff0000;" x="587.113951" xlink:href="#m9bd90ae9f7" y="526.08753"/>
     <use style="fill:#ff0000;stroke:#ff0000;" x="611.175073" xlink:href="#m9bd90ae9f7" y="539.519254"/>
     <use style="fill:#ff0000;stroke:#ff0000;" x="612.399132" xlink:href="#m9bd90ae9f7" y="518.73268"/>
     <use style="fill:#ff0000;stroke:#ff0000;" x="661.241801" xlink:href="#m9bd90ae9f7" y="523.099287"/>
     <use style="fill:#ff0000;stroke:#ff0000;" x="703.097899" xlink:href="#m9bd90ae9f7" y="540.779373"/>
     <use style="fill:#ff0000;stroke:#ff0000;" x="738.670514" xlink:href="#m9bd90ae9f7" y="524.499643"/>
     <use style="fill:#ff0000;stroke:#ff0000;" x="738.19613" xlink:href="#m9bd90ae9f7" y="516.197968"/>
     <use style="fill:#ff0000;stroke:#ff0000;" x="752.994866" xlink:href="#m9bd90ae9f7" y="516.228869"/>
     <use style="fill:#ff0000;stroke:#ff0000;" x="771.046367" xlink:href="#m9bd90ae9f7" y="516.902774"/>
     <use style="fill:#ff0000;stroke:#ff0000;" x="791.101245" xlink:href="#m9bd90ae9f7" y="517.205062"/>
     <use style="fill:#ff0000;stroke:#ff0000;" x="917.811206" xlink:href="#m9bd90ae9f7" y="555.314147"/>
     <use style="fill:#ff0000;stroke:#ff0000;" x="926.397443" xlink:href="#m9bd90ae9f7" y="544.941494"/>
     <use style="fill:#ff0000;stroke:#ff0000;" x="647.253363" xlink:href="#m9bd90ae9f7" y="443.361959"/>
    </g>
   </g>
   <g id="line2d_18">
    <defs>
     <path d="M -0.5 0.5 
L 0.5 0.5 
L 0.5 -0.5 
L -0.5 -0.5 
z
" id="mf9face8fe9" style="stroke:#1f77b4;stroke-linejoin:miter;"/>
    </defs>
    <g clip-path="url(#p9e2576c409)">
     <use style="fill:#1f77b4;stroke:#1f77b4;stroke-linejoin:miter;" x="648.71955" xlink:href="#mf9face8fe9" y="442.077458"/>
     <use style="fill:#1f77b4;stroke:#1f77b4;stroke-linejoin:miter;" x="649.607389" xlink:href="#mf9face8fe9" y="440.192041"/>
     <use style="fill:#1f77b4;stroke:#1f77b4;stroke-linejoin:miter;" x="652.323846" xlink:href="#mf9face8fe9" y="438.385091"/>
     <use style="fill:#1f77b4;stroke:#1f77b4;stroke-linejoin:miter;" x="651.636494" xlink:href="#mf9face8fe9" y="436.282668"/>
     <use style="fill:#1f77b4;stroke:#1f77b4;stroke-linejoin:miter;" x="652.599803" xlink:href="#mf9face8fe9" y="434.334354"/>
     <use style="fill:#1f77b4;stroke:#1f77b4;stroke-linejoin:miter;" x="653.987715" xlink:href="#mf9face8fe9" y="432.135451"/>
     <use style="fill:#1f77b4;stroke:#1f77b4;stroke-linejoin:miter;" x="658.259583" xlink:href="#mf9face8fe9" y="429.676844"/>
     <use style="fill:#1f77b4;stroke:#1f77b4;stroke-linejoin:miter;" x="664.920975" xlink:href="#mf9face8fe9" y="426.622196"/>
     <use style="fill:#1f77b4;stroke:#1f77b4;stroke-linejoin:miter;" x="877.441914" xlink:href="#mf9face8fe9" y="316.304453"/>
     <use style="fill:#1f77b4;stroke:#1f77b4;stroke-linejoin:miter;" x="848.450922" xlink:href="#mf9face8fe9" y="316.819373"/>
     <use style="fill:#1f77b4;stroke:#1f77b4;stroke-linejoin:miter;" x="829.433912" xlink:href="#mf9face8fe9" y="314.402303"/>
     <use style="fill:#1f77b4;stroke:#1f77b4;stroke-linejoin:miter;" x="812.477515" xlink:href="#mf9face8fe9" y="311.831321"/>
     <use style="fill:#1f77b4;stroke:#1f77b4;stroke-linejoin:miter;" x="793.84883" xlink:href="#mf9face8fe9" y="311.348796"/>
     <use style="fill:#1f77b4;stroke:#1f77b4;stroke-linejoin:miter;" x="777.150282" xlink:href="#mf9face8fe9" y="310.814298"/>
     <use style="fill:#1f77b4;stroke:#1f77b4;stroke-linejoin:miter;" x="762.37365" xlink:href="#mf9face8fe9" y="309.907436"/>
     <use style="fill:#1f77b4;stroke:#1f77b4;stroke-linejoin:miter;" x="680.592325" xlink:href="#mf9face8fe9" y="307.814496"/>
     <use style="fill:#1f77b4;stroke:#1f77b4;stroke-linejoin:miter;" x="670.969256" xlink:href="#mf9face8fe9" y="307.935861"/>
     <use style="fill:#1f77b4;stroke:#1f77b4;stroke-linejoin:miter;" x="662.48127" xlink:href="#mf9face8fe9" y="306.847123"/>
     <use style="fill:#1f77b4;stroke:#1f77b4;stroke-linejoin:miter;" x="653.501308" xlink:href="#mf9face8fe9" y="307.022119"/>
     <use style="fill:#1f77b4;stroke:#1f77b4;stroke-linejoin:miter;" x="644.515725" xlink:href="#mf9face8fe9" y="307.814902"/>
     <use style="fill:#1f77b4;stroke:#1f77b4;stroke-linejoin:miter;" x="636.547599" xlink:href="#mf9face8fe9" y="306.997481"/>
     <use style="fill:#1f77b4;stroke:#1f77b4;stroke-linejoin:miter;" x="615.997955" xlink:href="#mf9face8fe9" y="325.493427"/>
     <use style="fill:#1f77b4;stroke:#1f77b4;stroke-linejoin:miter;" x="612.264953" xlink:href="#mf9face8fe9" y="306.264548"/>
     <use style="fill:#1f77b4;stroke:#1f77b4;stroke-linejoin:miter;" x="604.692565" xlink:href="#mf9face8fe9" y="304.668246"/>
     <use style="fill:#1f77b4;stroke:#1f77b4;stroke-linejoin:miter;" x="596.87902" xlink:href="#mf9face8fe9" y="303.268404"/>
     <use style="fill:#1f77b4;stroke:#1f77b4;stroke-linejoin:miter;" x="588.997451" xlink:href="#mf9face8fe9" y="304.171013"/>
     <use style="fill:#1f77b4;stroke:#1f77b4;stroke-linejoin:miter;" x="581.082588" xlink:href="#mf9face8fe9" y="304.527836"/>
     <use style="fill:#1f77b4;stroke:#1f77b4;stroke-linejoin:miter;" x="573.145998" xlink:href="#mf9face8fe9" y="304.304395"/>
     <use style="fill:#1f77b4;stroke:#1f77b4;stroke-linejoin:miter;" x="565.108299" xlink:href="#mf9face8fe9" y="304.053466"/>
     <use style="fill:#1f77b4;stroke:#1f77b4;stroke-linejoin:miter;" x="556.974405" xlink:href="#mf9face8fe9" y="303.548596"/>
     <use style="fill:#1f77b4;stroke:#1f77b4;stroke-linejoin:miter;" x="548.762809" xlink:href="#mf9face8fe9" y="303.745483"/>
     <use style="fill:#1f77b4;stroke:#1f77b4;stroke-linejoin:miter;" x="540.060113" xlink:href="#mf9face8fe9" y="303.036621"/>
     <use style="fill:#1f77b4;stroke:#1f77b4;stroke-linejoin:miter;" x="531.254315" xlink:href="#mf9face8fe9" y="302.41868"/>
     <use style="fill:#1f77b4;stroke:#1f77b4;stroke-linejoin:miter;" x="522.204729" xlink:href="#mf9face8fe9" y="302.412694"/>
     <use style="fill:#1f77b4;stroke:#1f77b4;stroke-linejoin:miter;" x="512.820603" xlink:href="#mf9face8fe9" y="302.169194"/>
     <use style="fill:#1f77b4;stroke:#1f77b4;stroke-linejoin:miter;" x="502.880756" xlink:href="#mf9face8fe9" y="301.770335"/>
     <use style="fill:#1f77b4;stroke:#1f77b4;stroke-linejoin:miter;" x="493.65748" xlink:href="#mf9face8fe9" y="302.942431"/>
     <use style="fill:#1f77b4;stroke:#1f77b4;stroke-linejoin:miter;" x="482.848373" xlink:href="#mf9face8fe9" y="302.526236"/>
     <use style="fill:#1f77b4;stroke:#1f77b4;stroke-linejoin:miter;" x="472.299156" xlink:href="#mf9face8fe9" y="303.123556"/>
     <use style="fill:#1f77b4;stroke:#1f77b4;stroke-linejoin:miter;" x="460.166321" xlink:href="#mf9face8fe9" y="302.595567"/>
     <use style="fill:#1f77b4;stroke:#1f77b4;stroke-linejoin:miter;" x="446.879464" xlink:href="#mf9face8fe9" y="301.870517"/>
     <use style="fill:#1f77b4;stroke:#1f77b4;stroke-linejoin:miter;" x="432.678629" xlink:href="#mf9face8fe9" y="301.565613"/>
     <use style="fill:#1f77b4;stroke:#1f77b4;stroke-linejoin:miter;" x="419.976563" xlink:href="#mf9face8fe9" y="302.862277"/>
     <use style="fill:#1f77b4;stroke:#1f77b4;stroke-linejoin:miter;" x="407.079559" xlink:href="#mf9face8fe9" y="305.121771"/>
     <use style="fill:#1f77b4;stroke:#1f77b4;stroke-linejoin:miter;" x="393.43388" xlink:href="#mf9face8fe9" y="307.179359"/>
     <use style="fill:#1f77b4;stroke:#1f77b4;stroke-linejoin:miter;" x="393.594544" xlink:href="#mf9face8fe9" y="318.553712"/>
     <use style="fill:#1f77b4;stroke:#1f77b4;stroke-linejoin:miter;" x="393.575627" xlink:href="#mf9face8fe9" y="347.86729"/>
     <use style="fill:#1f77b4;stroke:#1f77b4;stroke-linejoin:miter;" x="375.586894" xlink:href="#mf9face8fe9" y="349.182639"/>
     <use style="fill:#1f77b4;stroke:#1f77b4;stroke-linejoin:miter;" x="373.769128" xlink:href="#mf9face8fe9" y="357.533295"/>
     <use style="fill:#1f77b4;stroke:#1f77b4;stroke-linejoin:miter;" x="412.629651" xlink:href="#mf9face8fe9" y="392.678791"/>
     <use style="fill:#1f77b4;stroke:#1f77b4;stroke-linejoin:miter;" x="377.068387" xlink:href="#mf9face8fe9" y="391.486821"/>
     <use style="fill:#1f77b4;stroke:#1f77b4;stroke-linejoin:miter;" x="381.747587" xlink:href="#mf9face8fe9" y="399.88835"/>
     <use style="fill:#1f77b4;stroke:#1f77b4;stroke-linejoin:miter;" x="369.874151" xlink:href="#mf9face8fe9" y="405.399968"/>
     <use style="fill:#1f77b4;stroke:#1f77b4;stroke-linejoin:miter;" x="369.051681" xlink:href="#mf9face8fe9" y="412.909778"/>
     <use style="fill:#1f77b4;stroke:#1f77b4;stroke-linejoin:miter;" x="381.484061" xlink:href="#mf9face8fe9" y="421.287251"/>
     <use style="fill:#1f77b4;stroke:#1f77b4;stroke-linejoin:miter;" x="368.827332" xlink:href="#mf9face8fe9" y="427.667089"/>
     <use style="fill:#1f77b4;stroke:#1f77b4;stroke-linejoin:miter;" x="537.265779" xlink:href="#mf9face8fe9" y="436.762715"/>
     <use style="fill:#1f77b4;stroke:#1f77b4;stroke-linejoin:miter;" x="537.285904" xlink:href="#mf9face8fe9" y="438.589091"/>
     <use style="fill:#1f77b4;stroke:#1f77b4;stroke-linejoin:miter;" x="537.287521" xlink:href="#mf9face8fe9" y="440.272526"/>
     <use style="fill:#1f77b4;stroke:#1f77b4;stroke-linejoin:miter;" x="537.315894" xlink:href="#mf9face8fe9" y="442.099442"/>
     <use style="fill:#1f77b4;stroke:#1f77b4;stroke-linejoin:miter;" x="537.41272" xlink:href="#mf9face8fe9" y="443.88324"/>
     <use style="fill:#1f77b4;stroke:#1f77b4;stroke-linejoin:miter;" x="537.571818" xlink:href="#mf9face8fe9" y="445.578019"/>
     <use style="fill:#1f77b4;stroke:#1f77b4;stroke-linejoin:miter;" x="537.467281" xlink:href="#mf9face8fe9" y="447.502276"/>
     <use style="fill:#1f77b4;stroke:#1f77b4;stroke-linejoin:miter;" x="537.370913" xlink:href="#mf9face8fe9" y="449.374066"/>
     <use style="fill:#1f77b4;stroke:#1f77b4;stroke-linejoin:miter;" x="537.503836" xlink:href="#mf9face8fe9" y="451.253452"/>
     <use style="fill:#1f77b4;stroke:#1f77b4;stroke-linejoin:miter;" x="396.506439" xlink:href="#mf9face8fe9" y="519.159819"/>
     <use style="fill:#1f77b4;stroke:#1f77b4;stroke-linejoin:miter;" x="395.464405" xlink:href="#mf9face8fe9" y="528.359412"/>
     <use style="fill:#1f77b4;stroke:#1f77b4;stroke-linejoin:miter;" x="428.969035" xlink:href="#mf9face8fe9" y="520.402858"/>
     <use style="fill:#1f77b4;stroke:#1f77b4;stroke-linejoin:miter;" x="435.996348" xlink:href="#mf9face8fe9" y="524.655147"/>
     <use style="fill:#1f77b4;stroke:#1f77b4;stroke-linejoin:miter;" x="447.875277" xlink:href="#mf9face8fe9" y="525.583825"/>
     <use style="fill:#1f77b4;stroke:#1f77b4;stroke-linejoin:miter;" x="444.558826" xlink:href="#mf9face8fe9" y="536.175419"/>
     <use style="fill:#1f77b4;stroke:#1f77b4;stroke-linejoin:miter;" x="455.168356" xlink:href="#mf9face8fe9" y="537.530038"/>
     <use style="fill:#1f77b4;stroke:#1f77b4;stroke-linejoin:miter;" x="500.500819" xlink:href="#mf9face8fe9" y="517.044938"/>
     <use style="fill:#1f77b4;stroke:#1f77b4;stroke-linejoin:miter;" x="507.715598" xlink:href="#mf9face8fe9" y="517.759573"/>
     <use style="fill:#1f77b4;stroke:#1f77b4;stroke-linejoin:miter;" x="507.563041" xlink:href="#mf9face8fe9" y="525.766913"/>
     <use style="fill:#1f77b4;stroke:#1f77b4;stroke-linejoin:miter;" x="504.352756" xlink:href="#mf9face8fe9" y="538.497421"/>
     <use style="fill:#1f77b4;stroke:#1f77b4;stroke-linejoin:miter;" x="520.530512" xlink:href="#mf9face8fe9" y="528.167467"/>
     <use style="fill:#1f77b4;stroke:#1f77b4;stroke-linejoin:miter;" x="544.23921" xlink:href="#mf9face8fe9" y="522.196941"/>
     <use style="fill:#1f77b4;stroke:#1f77b4;stroke-linejoin:miter;" x="547.774581" xlink:href="#mf9face8fe9" y="526.877826"/>
     <use style="fill:#1f77b4;stroke:#1f77b4;stroke-linejoin:miter;" x="564.194593" xlink:href="#mf9face8fe9" y="530.072655"/>
     <use style="fill:#1f77b4;stroke:#1f77b4;stroke-linejoin:miter;" x="569.496091" xlink:href="#mf9face8fe9" y="531.965041"/>
     <use style="fill:#1f77b4;stroke:#1f77b4;stroke-linejoin:miter;" x="573.901896" xlink:href="#mf9face8fe9" y="539.947238"/>
     <use style="fill:#1f77b4;stroke:#1f77b4;stroke-linejoin:miter;" x="579.955149" xlink:href="#mf9face8fe9" y="540.669183"/>
     <use style="fill:#1f77b4;stroke:#1f77b4;stroke-linejoin:miter;" x="587.113951" xlink:href="#mf9face8fe9" y="526.08753"/>
     <use style="fill:#1f77b4;stroke:#1f77b4;stroke-linejoin:miter;" x="592.35329" xlink:href="#mf9face8fe9" y="526.77449"/>
     <use style="fill:#1f77b4;stroke:#1f77b4;stroke-linejoin:miter;" x="598.231418" xlink:href="#mf9face8fe9" y="535.274796"/>
     <use style="fill:#1f77b4;stroke:#1f77b4;stroke-linejoin:miter;" x="604.46459" xlink:href="#mf9face8fe9" y="534.998654"/>
     <use style="fill:#1f77b4;stroke:#1f77b4;stroke-linejoin:miter;" x="611.175073" xlink:href="#mf9face8fe9" y="539.519254"/>
     <use style="fill:#1f77b4;stroke:#1f77b4;stroke-linejoin:miter;" x="612.399132" xlink:href="#mf9face8fe9" y="518.73268"/>
     <use style="fill:#1f77b4;stroke:#1f77b4;stroke-linejoin:miter;" x="617.949234" xlink:href="#mf9face8fe9" y="520.114572"/>
     <use style="fill:#1f77b4;stroke:#1f77b4;stroke-linejoin:miter;" x="622.584804" xlink:href="#mf9face8fe9" y="518.103152"/>
     <use style="fill:#1f77b4;stroke:#1f77b4;stroke-linejoin:miter;" x="629.529579" xlink:href="#mf9face8fe9" y="521.832997"/>
     <use style="fill:#1f77b4;stroke:#1f77b4;stroke-linejoin:miter;" x="635.148209" xlink:href="#mf9face8fe9" y="521.51488"/>
     <use style="fill:#1f77b4;stroke:#1f77b4;stroke-linejoin:miter;" x="641.203473" xlink:href="#mf9face8fe9" y="521.912476"/>
     <use style="fill:#1f77b4;stroke:#1f77b4;stroke-linejoin:miter;" x="647.637787" xlink:href="#mf9face8fe9" y="522.39384"/>
     <use style="fill:#1f77b4;stroke:#1f77b4;stroke-linejoin:miter;" x="654.243749" xlink:href="#mf9face8fe9" y="522.756054"/>
     <use style="fill:#1f77b4;stroke:#1f77b4;stroke-linejoin:miter;" x="661.241801" xlink:href="#mf9face8fe9" y="523.099287"/>
     <use style="fill:#1f77b4;stroke:#1f77b4;stroke-linejoin:miter;" x="703.097899" xlink:href="#mf9face8fe9" y="540.779373"/>
     <use style="fill:#1f77b4;stroke:#1f77b4;stroke-linejoin:miter;" x="707.915661" xlink:href="#mf9face8fe9" y="535.898077"/>
     <use style="fill:#1f77b4;stroke:#1f77b4;stroke-linejoin:miter;" x="711.989188" xlink:href="#mf9face8fe9" y="530.656216"/>
     <use style="fill:#1f77b4;stroke:#1f77b4;stroke-linejoin:miter;" x="717.460068" xlink:href="#mf9face8fe9" y="526.512324"/>
     <use style="fill:#1f77b4;stroke:#1f77b4;stroke-linejoin:miter;" x="724.760725" xlink:href="#mf9face8fe9" y="523.59331"/>
     <use style="fill:#1f77b4;stroke:#1f77b4;stroke-linejoin:miter;" x="738.670514" xlink:href="#mf9face8fe9" y="524.499643"/>
     <use style="fill:#1f77b4;stroke:#1f77b4;stroke-linejoin:miter;" x="738.19613" xlink:href="#mf9face8fe9" y="516.197968"/>
     <use style="fill:#1f77b4;stroke:#1f77b4;stroke-linejoin:miter;" x="752.994866" xlink:href="#mf9face8fe9" y="516.228869"/>
     <use style="fill:#1f77b4;stroke:#1f77b4;stroke-linejoin:miter;" x="771.046367" xlink:href="#mf9face8fe9" y="516.902774"/>
     <use style="fill:#1f77b4;stroke:#1f77b4;stroke-linejoin:miter;" x="791.101245" xlink:href="#mf9face8fe9" y="517.205062"/>
     <use style="fill:#1f77b4;stroke:#1f77b4;stroke-linejoin:miter;" x="917.811206" xlink:href="#mf9face8fe9" y="555.314147"/>
     <use style="fill:#1f77b4;stroke:#1f77b4;stroke-linejoin:miter;" x="926.397443" xlink:href="#mf9face8fe9" y="544.941494"/>
     <use style="fill:#1f77b4;stroke:#1f77b4;stroke-linejoin:miter;" x="647.253363" xlink:href="#mf9face8fe9" y="443.361959"/>
    </g>
   </g>
   <g id="patch_3">
    <path d="M 144 768.96 
L 144 103.68 
" style="fill:none;stroke:#000000;stroke-linecap:square;stroke-linejoin:miter;stroke-width:0.8;"/>
   </g>
   <g id="patch_4">
    <path d="M 1036.8 768.96 
L 1036.8 103.68 
" style="fill:none;stroke:#000000;stroke-linecap:square;stroke-linejoin:miter;stroke-width:0.8;"/>
   </g>
   <g id="patch_5">
    <path d="M 144 768.96 
L 1036.8 768.96 
" style="fill:none;stroke:#000000;stroke-linecap:square;stroke-linejoin:miter;stroke-width:0.8;"/>
   </g>
   <g id="patch_6">
    <path d="M 144 103.68 
L 1036.8 103.68 
" style="fill:none;stroke:#000000;stroke-linecap:square;stroke-linejoin:miter;stroke-width:0.8;"/>
   </g>
  </g>
 </g>
 <defs>
  <clipPath id="p9e2576c409">
   <rect height="665.28" width="892.8" x="144" y="103.68"/>
  </clipPath>
 </defs>
</svg>
