<?xml version="1.0" encoding="utf-8" standalone="no"?>
<!DOCTYPE svg PUBLIC "-//W3C//DTD SVG 1.1//EN"
  "http://www.w3.org/Graphics/SVG/1.1/DTD/svg11.dtd">
<!-- Created with matplotlib (http://matplotlib.org/) -->
<svg height="864pt" version="1.1" viewBox="0 0 1152 864" width="1152pt" xmlns="http://www.w3.org/2000/svg" xmlns:xlink="http://www.w3.org/1999/xlink">
 <defs>
  <style type="text/css">
*{stroke-linecap:butt;stroke-linejoin:round;}
  </style>
 </defs>
 <g id="figure_1">
  <g id="patch_1">
   <path d="M 0 864 
L 1152 864 
L 1152 0 
L 0 0 
z
" style="fill:#ffffff;"/>
  </g>
  <g id="axes_1">
   <g id="patch_2">
    <path d="M 144 768.96 
L 1036.8 768.96 
L 1036.8 103.68 
L 144 103.68 
z
" style="fill:#ffffff;"/>
   </g>
   <g id="matplotlib.axis_1">
    <g id="xtick_1">
     <g id="line2d_1">
      <defs>
       <path d="M 0 0 
L 0 3.5 
" id="md8dd6c7203" style="stroke:#000000;stroke-width:0.8;"/>
      </defs>
      <g>
       <use style="stroke:#000000;stroke-width:0.8;" x="207.771429" xlink:href="#md8dd6c7203" y="768.96"/>
      </g>
     </g>
     <g id="text_1">
      <!-- −6000 -->
      <defs>
       <path d="M 10.59375 35.5 
L 73.1875 35.5 
L 73.1875 27.203125 
L 10.59375 27.203125 
z
" id="DejaVuSans-2212"/>
       <path d="M 33.015625 40.375 
Q 26.375 40.375 22.484375 35.828125 
Q 18.609375 31.296875 18.609375 23.390625 
Q 18.609375 15.53125 22.484375 10.953125 
Q 26.375 6.390625 33.015625 6.390625 
Q 39.65625 6.390625 43.53125 10.953125 
Q 47.40625 15.53125 47.40625 23.390625 
Q 47.40625 31.296875 43.53125 35.828125 
Q 39.65625 40.375 33.015625 40.375 
z
M 52.59375 71.296875 
L 52.59375 62.3125 
Q 48.875 64.0625 45.09375 64.984375 
Q 41.3125 65.921875 37.59375 65.921875 
Q 27.828125 65.921875 22.671875 59.328125 
Q 17.53125 52.734375 16.796875 39.40625 
Q 19.671875 43.65625 24.015625 45.921875 
Q 28.375 48.1875 33.59375 48.1875 
Q 44.578125 48.1875 50.953125 41.515625 
Q 57.328125 34.859375 57.328125 23.390625 
Q 57.328125 12.15625 50.6875 5.359375 
Q 44.046875 -1.421875 33.015625 -1.421875 
Q 20.359375 -1.421875 13.671875 8.265625 
Q 6.984375 17.96875 6.984375 36.375 
Q 6.984375 53.65625 15.1875 63.9375 
Q 23.390625 74.21875 37.203125 74.21875 
Q 40.921875 74.21875 44.703125 73.484375 
Q 48.484375 72.75 52.59375 71.296875 
z
" id="DejaVuSans-36"/>
       <path d="M 31.78125 66.40625 
Q 24.171875 66.40625 20.328125 58.90625 
Q 16.5 51.421875 16.5 36.375 
Q 16.5 21.390625 20.328125 13.890625 
Q 24.171875 6.390625 31.78125 6.390625 
Q 39.453125 6.390625 43.28125 13.890625 
Q 47.125 21.390625 47.125 36.375 
Q 47.125 51.421875 43.28125 58.90625 
Q 39.453125 66.40625 31.78125 66.40625 
z
M 31.78125 74.21875 
Q 44.046875 74.21875 50.515625 64.515625 
Q 56.984375 54.828125 56.984375 36.375 
Q 56.984375 17.96875 50.515625 8.265625 
Q 44.046875 -1.421875 31.78125 -1.421875 
Q 19.53125 -1.421875 13.0625 8.265625 
Q 6.59375 17.96875 6.59375 36.375 
Q 6.59375 54.828125 13.0625 64.515625 
Q 19.53125 74.21875 31.78125 74.21875 
z
" id="DejaVuSans-30"/>
      </defs>
      <g transform="translate(190.856585 783.558437)scale(0.1 -0.1)">
       <use xlink:href="#DejaVuSans-2212"/>
       <use x="83.789062" xlink:href="#DejaVuSans-36"/>
       <use x="147.412109" xlink:href="#DejaVuSans-30"/>
       <use x="211.035156" xlink:href="#DejaVuSans-30"/>
       <use x="274.658203" xlink:href="#DejaVuSans-30"/>
      </g>
     </g>
    </g>
    <g id="xtick_2">
     <g id="line2d_2">
      <g>
       <use style="stroke:#000000;stroke-width:0.8;" x="335.314286" xlink:href="#md8dd6c7203" y="768.96"/>
      </g>
     </g>
     <g id="text_2">
      <!-- −4000 -->
      <defs>
       <path d="M 37.796875 64.3125 
L 12.890625 25.390625 
L 37.796875 25.390625 
z
M 35.203125 72.90625 
L 47.609375 72.90625 
L 47.609375 25.390625 
L 58.015625 25.390625 
L 58.015625 17.1875 
L 47.609375 17.1875 
L 47.609375 0 
L 37.796875 0 
L 37.796875 17.1875 
L 4.890625 17.1875 
L 4.890625 26.703125 
z
" id="DejaVuSans-34"/>
      </defs>
      <g transform="translate(318.399442 783.558437)scale(0.1 -0.1)">
       <use xlink:href="#DejaVuSans-2212"/>
       <use x="83.789062" xlink:href="#DejaVuSans-34"/>
       <use x="147.412109" xlink:href="#DejaVuSans-30"/>
       <use x="211.035156" xlink:href="#DejaVuSans-30"/>
       <use x="274.658203" xlink:href="#DejaVuSans-30"/>
      </g>
     </g>
    </g>
    <g id="xtick_3">
     <g id="line2d_3">
      <g>
       <use style="stroke:#000000;stroke-width:0.8;" x="462.857143" xlink:href="#md8dd6c7203" y="768.96"/>
      </g>
     </g>
     <g id="text_3">
      <!-- −2000 -->
      <defs>
       <path d="M 19.1875 8.296875 
L 53.609375 8.296875 
L 53.609375 0 
L 7.328125 0 
L 7.328125 8.296875 
Q 12.9375 14.109375 22.625 23.890625 
Q 32.328125 33.6875 34.8125 36.53125 
Q 39.546875 41.84375 41.421875 45.53125 
Q 43.3125 49.21875 43.3125 52.78125 
Q 43.3125 58.59375 39.234375 62.25 
Q 35.15625 65.921875 28.609375 65.921875 
Q 23.96875 65.921875 18.8125 64.3125 
Q 13.671875 62.703125 7.8125 59.421875 
L 7.8125 69.390625 
Q 13.765625 71.78125 18.9375 73 
Q 24.125 74.21875 28.421875 74.21875 
Q 39.75 74.21875 46.484375 68.546875 
Q 53.21875 62.890625 53.21875 53.421875 
Q 53.21875 48.921875 51.53125 44.890625 
Q 49.859375 40.875 45.40625 35.40625 
Q 44.1875 33.984375 37.640625 27.21875 
Q 31.109375 20.453125 19.1875 8.296875 
z
" id="DejaVuSans-32"/>
      </defs>
      <g transform="translate(445.942299 783.558437)scale(0.1 -0.1)">
       <use xlink:href="#DejaVuSans-2212"/>
       <use x="83.789062" xlink:href="#DejaVuSans-32"/>
       <use x="147.412109" xlink:href="#DejaVuSans-30"/>
       <use x="211.035156" xlink:href="#DejaVuSans-30"/>
       <use x="274.658203" xlink:href="#DejaVuSans-30"/>
      </g>
     </g>
    </g>
    <g id="xtick_4">
     <g id="line2d_4">
      <g>
       <use style="stroke:#000000;stroke-width:0.8;" x="590.4" xlink:href="#md8dd6c7203" y="768.96"/>
      </g>
     </g>
     <g id="text_4">
      <!-- 0 -->
      <g transform="translate(587.21875 783.558437)scale(0.1 -0.1)">
       <use xlink:href="#DejaVuSans-30"/>
      </g>
     </g>
    </g>
    <g id="xtick_5">
     <g id="line2d_5">
      <g>
       <use style="stroke:#000000;stroke-width:0.8;" x="717.942857" xlink:href="#md8dd6c7203" y="768.96"/>
      </g>
     </g>
     <g id="text_5">
      <!-- 2000 -->
      <g transform="translate(705.217857 783.558437)scale(0.1 -0.1)">
       <use xlink:href="#DejaVuSans-32"/>
       <use x="63.623047" xlink:href="#DejaVuSans-30"/>
       <use x="127.246094" xlink:href="#DejaVuSans-30"/>
       <use x="190.869141" xlink:href="#DejaVuSans-30"/>
      </g>
     </g>
    </g>
    <g id="xtick_6">
     <g id="line2d_6">
      <g>
       <use style="stroke:#000000;stroke-width:0.8;" x="845.485714" xlink:href="#md8dd6c7203" y="768.96"/>
      </g>
     </g>
     <g id="text_6">
      <!-- 4000 -->
      <g transform="translate(832.760714 783.558437)scale(0.1 -0.1)">
       <use xlink:href="#DejaVuSans-34"/>
       <use x="63.623047" xlink:href="#DejaVuSans-30"/>
       <use x="127.246094" xlink:href="#DejaVuSans-30"/>
       <use x="190.869141" xlink:href="#DejaVuSans-30"/>
      </g>
     </g>
    </g>
    <g id="xtick_7">
     <g id="line2d_7">
      <g>
       <use style="stroke:#000000;stroke-width:0.8;" x="973.028571" xlink:href="#md8dd6c7203" y="768.96"/>
      </g>
     </g>
     <g id="text_7">
      <!-- 6000 -->
      <g transform="translate(960.303571 783.558437)scale(0.1 -0.1)">
       <use xlink:href="#DejaVuSans-36"/>
       <use x="63.623047" xlink:href="#DejaVuSans-30"/>
       <use x="127.246094" xlink:href="#DejaVuSans-30"/>
       <use x="190.869141" xlink:href="#DejaVuSans-30"/>
      </g>
     </g>
    </g>
   </g>
   <g id="matplotlib.axis_2">
    <g id="ytick_1">
     <g id="line2d_8">
      <defs>
       <path d="M 0 0 
L -3.5 0 
" id="mb9cb150d25" style="stroke:#000000;stroke-width:0.8;"/>
      </defs>
      <g>
       <use style="stroke:#000000;stroke-width:0.8;" x="144" xlink:href="#mb9cb150d25" y="721.44"/>
      </g>
     </g>
     <g id="text_8">
      <!-- −6000 -->
      <g transform="translate(103.170312 725.239219)scale(0.1 -0.1)">
       <use xlink:href="#DejaVuSans-2212"/>
       <use x="83.789062" xlink:href="#DejaVuSans-36"/>
       <use x="147.412109" xlink:href="#DejaVuSans-30"/>
       <use x="211.035156" xlink:href="#DejaVuSans-30"/>
       <use x="274.658203" xlink:href="#DejaVuSans-30"/>
      </g>
     </g>
    </g>
    <g id="ytick_2">
     <g id="line2d_9">
      <g>
       <use style="stroke:#000000;stroke-width:0.8;" x="144" xlink:href="#mb9cb150d25" y="626.4"/>
      </g>
     </g>
     <g id="text_9">
      <!-- −4000 -->
      <g transform="translate(103.170312 630.199219)scale(0.1 -0.1)">
       <use xlink:href="#DejaVuSans-2212"/>
       <use x="83.789062" xlink:href="#DejaVuSans-34"/>
       <use x="147.412109" xlink:href="#DejaVuSans-30"/>
       <use x="211.035156" xlink:href="#DejaVuSans-30"/>
       <use x="274.658203" xlink:href="#DejaVuSans-30"/>
      </g>
     </g>
    </g>
    <g id="ytick_3">
     <g id="line2d_10">
      <g>
       <use style="stroke:#000000;stroke-width:0.8;" x="144" xlink:href="#mb9cb150d25" y="531.36"/>
      </g>
     </g>
     <g id="text_10">
      <!-- −2000 -->
      <g transform="translate(103.170312 535.159219)scale(0.1 -0.1)">
       <use xlink:href="#DejaVuSans-2212"/>
       <use x="83.789062" xlink:href="#DejaVuSans-32"/>
       <use x="147.412109" xlink:href="#DejaVuSans-30"/>
       <use x="211.035156" xlink:href="#DejaVuSans-30"/>
       <use x="274.658203" xlink:href="#DejaVuSans-30"/>
      </g>
     </g>
    </g>
    <g id="ytick_4">
     <g id="line2d_11">
      <g>
       <use style="stroke:#000000;stroke-width:0.8;" x="144" xlink:href="#mb9cb150d25" y="436.32"/>
      </g>
     </g>
     <g id="text_11">
      <!-- 0 -->
      <g transform="translate(130.6375 440.119219)scale(0.1 -0.1)">
       <use xlink:href="#DejaVuSans-30"/>
      </g>
     </g>
    </g>
    <g id="ytick_5">
     <g id="line2d_12">
      <g>
       <use style="stroke:#000000;stroke-width:0.8;" x="144" xlink:href="#mb9cb150d25" y="341.28"/>
      </g>
     </g>
     <g id="text_12">
      <!-- 2000 -->
      <g transform="translate(111.55 345.079219)scale(0.1 -0.1)">
       <use xlink:href="#DejaVuSans-32"/>
       <use x="63.623047" xlink:href="#DejaVuSans-30"/>
       <use x="127.246094" xlink:href="#DejaVuSans-30"/>
       <use x="190.869141" xlink:href="#DejaVuSans-30"/>
      </g>
     </g>
    </g>
    <g id="ytick_6">
     <g id="line2d_13">
      <g>
       <use style="stroke:#000000;stroke-width:0.8;" x="144" xlink:href="#mb9cb150d25" y="246.24"/>
      </g>
     </g>
     <g id="text_13">
      <!-- 4000 -->
      <g transform="translate(111.55 250.039219)scale(0.1 -0.1)">
       <use xlink:href="#DejaVuSans-34"/>
       <use x="63.623047" xlink:href="#DejaVuSans-30"/>
       <use x="127.246094" xlink:href="#DejaVuSans-30"/>
       <use x="190.869141" xlink:href="#DejaVuSans-30"/>
      </g>
     </g>
    </g>
    <g id="ytick_7">
     <g id="line2d_14">
      <g>
       <use style="stroke:#000000;stroke-width:0.8;" x="144" xlink:href="#mb9cb150d25" y="151.2"/>
      </g>
     </g>
     <g id="text_14">
      <!-- 6000 -->
      <g transform="translate(111.55 154.999219)scale(0.1 -0.1)">
       <use xlink:href="#DejaVuSans-36"/>
       <use x="63.623047" xlink:href="#DejaVuSans-30"/>
       <use x="127.246094" xlink:href="#DejaVuSans-30"/>
       <use x="190.869141" xlink:href="#DejaVuSans-30"/>
      </g>
     </g>
    </g>
   </g>
   <g id="line2d_15">
    <path clip-path="url(#p3948f11fae)" d="M 590.4 768.96 
L 590.4 103.68 
" style="fill:none;stroke:#1f77b4;stroke-linecap:square;stroke-width:1.5;"/>
   </g>
   <g id="line2d_16">
    <path clip-path="url(#p3948f11fae)" d="M 144 436.32 
L 1036.8 436.32 
" style="fill:none;stroke:#1f77b4;stroke-linecap:square;stroke-width:1.5;"/>
   </g>
   <g id="line2d_17">
    <defs>
     <path d="M 0 1.333333 
C 0.353604 1.333333 0.692773 1.192845 0.942809 0.942809 
C 1.192845 0.692773 1.333333 0.353604 1.333333 0 
C 1.333333 -0.353604 1.192845 -0.692773 0.942809 -0.942809 
C 0.692773 -1.192845 0.353604 -1.333333 0 -1.333333 
C -0.353604 -1.333333 -0.692773 -1.192845 -0.942809 -0.942809 
C -1.192845 -0.692773 -1.333333 -0.353604 -1.333333 0 
C -1.333333 0.353604 -1.192845 0.692773 -0.942809 0.942809 
C -0.692773 1.192845 -0.353604 1.333333 0 1.333333 
z
" id="m7b425ec6a9" style="stroke:#ff0000;"/>
    </defs>
    <g clip-path="url(#p3948f11fae)">
     <use style="fill:#ff0000;stroke:#ff0000;" x="939.687156" xlink:href="#m7b425ec6a9" y="420.329637"/>
     <use style="fill:#ff0000;stroke:#ff0000;" x="917.960352" xlink:href="#m7b425ec6a9" y="408.914487"/>
     <use style="fill:#ff0000;stroke:#ff0000;" x="666.525596" xlink:href="#m7b425ec6a9" y="413.975095"/>
     <use style="fill:#ff0000;stroke:#ff0000;" x="660.99307" xlink:href="#m7b425ec6a9" y="394.36027"/>
     <use style="fill:#ff0000;stroke:#ff0000;" x="686.737638" xlink:href="#m7b425ec6a9" y="307.72396"/>
     <use style="fill:#ff0000;stroke:#ff0000;" x="627.486048" xlink:href="#m7b425ec6a9" y="306.481255"/>
     <use style="fill:#ff0000;stroke:#ff0000;" x="614.417813" xlink:href="#m7b425ec6a9" y="324.310574"/>
     <use style="fill:#ff0000;stroke:#ff0000;" x="609.449744" xlink:href="#m7b425ec6a9" y="305.385548"/>
     <use style="fill:#ff0000;stroke:#ff0000;" x="457.145536" xlink:href="#m7b425ec6a9" y="302.967542"/>
     <use style="fill:#ff0000;stroke:#ff0000;" x="442.021612" xlink:href="#m7b425ec6a9" y="302.341872"/>
     <use style="fill:#ff0000;stroke:#ff0000;" x="398.134435" xlink:href="#m7b425ec6a9" y="307.673439"/>
     <use style="fill:#ff0000;stroke:#ff0000;" x="396.471851" xlink:href="#m7b425ec6a9" y="319.169373"/>
     <use style="fill:#ff0000;stroke:#ff0000;" x="392.389701" xlink:href="#m7b425ec6a9" y="349.677417"/>
     <use style="fill:#ff0000;stroke:#ff0000;" x="374.707022" xlink:href="#m7b425ec6a9" y="352.484112"/>
     <use style="fill:#ff0000;stroke:#ff0000;" x="372.035111" xlink:href="#m7b425ec6a9" y="361.736414"/>
     <use style="fill:#ff0000;stroke:#ff0000;" x="382.052161" xlink:href="#m7b425ec6a9" y="391.847808"/>
     <use style="fill:#ff0000;stroke:#ff0000;" x="368.989478" xlink:href="#m7b425ec6a9" y="423.290004"/>
     <use style="fill:#ff0000;stroke:#ff0000;" x="537.28864" xlink:href="#m7b425ec6a9" y="437.896586"/>
     <use style="fill:#ff0000;stroke:#ff0000;" x="537.348929" xlink:href="#m7b425ec6a9" y="450.209778"/>
     <use style="fill:#ff0000;stroke:#ff0000;" x="364.359791" xlink:href="#m7b425ec6a9" y="521.103766"/>
     <use style="fill:#ff0000;stroke:#ff0000;" x="395.730482" xlink:href="#m7b425ec6a9" y="518.914133"/>
     <use style="fill:#ff0000;stroke:#ff0000;" x="404.728221" xlink:href="#m7b425ec6a9" y="534.553251"/>
     <use style="fill:#ff0000;stroke:#ff0000;" x="443.03198" xlink:href="#m7b425ec6a9" y="532.253136"/>
     <use style="fill:#ff0000;stroke:#ff0000;" x="450.084962" xlink:href="#m7b425ec6a9" y="537.289845"/>
     <use style="fill:#ff0000;stroke:#ff0000;" x="498.980116" xlink:href="#m7b425ec6a9" y="517.057131"/>
     <use style="fill:#ff0000;stroke:#ff0000;" x="507.879277" xlink:href="#m7b425ec6a9" y="525.842612"/>
     <use style="fill:#ff0000;stroke:#ff0000;" x="506.025563" xlink:href="#m7b425ec6a9" y="538.293439"/>
     <use style="fill:#ff0000;stroke:#ff0000;" x="521.819672" xlink:href="#m7b425ec6a9" y="529.288761"/>
     <use style="fill:#ff0000;stroke:#ff0000;" x="541.076408" xlink:href="#m7b425ec6a9" y="522.972767"/>
     <use style="fill:#ff0000;stroke:#ff0000;" x="570.532276" xlink:href="#m7b425ec6a9" y="532.15972"/>
     <use style="fill:#ff0000;stroke:#ff0000;" x="582.765102" xlink:href="#m7b425ec6a9" y="540.007116"/>
     <use style="fill:#ff0000;stroke:#ff0000;" x="589.973779" xlink:href="#m7b425ec6a9" y="525.906517"/>
     <use style="fill:#ff0000;stroke:#ff0000;" x="611.152598" xlink:href="#m7b425ec6a9" y="541.359344"/>
     <use style="fill:#ff0000;stroke:#ff0000;" x="612.787012" xlink:href="#m7b425ec6a9" y="519.1231"/>
     <use style="fill:#ff0000;stroke:#ff0000;" x="669.660813" xlink:href="#m7b425ec6a9" y="523.831661"/>
     <use style="fill:#ff0000;stroke:#ff0000;" x="700.287328" xlink:href="#m7b425ec6a9" y="546.038084"/>
     <use style="fill:#ff0000;stroke:#ff0000;" x="720.618329" xlink:href="#m7b425ec6a9" y="523.211519"/>
     <use style="fill:#ff0000;stroke:#ff0000;" x="735.793478" xlink:href="#m7b425ec6a9" y="524.151174"/>
     <use style="fill:#ff0000;stroke:#ff0000;" x="738.556243" xlink:href="#m7b425ec6a9" y="516.576519"/>
     <use style="fill:#ff0000;stroke:#ff0000;" x="753.800898" xlink:href="#m7b425ec6a9" y="516.007012"/>
     <use style="fill:#ff0000;stroke:#ff0000;" x="774.491477" xlink:href="#m7b425ec6a9" y="516.671072"/>
     <use style="fill:#ff0000;stroke:#ff0000;" x="799.647208" xlink:href="#m7b425ec6a9" y="517.650536"/>
     <use style="fill:#ff0000;stroke:#ff0000;" x="920.793296" xlink:href="#m7b425ec6a9" y="550.306867"/>
     <use style="fill:#ff0000;stroke:#ff0000;" x="928.419584" xlink:href="#m7b425ec6a9" y="537.925997"/>
     <use style="fill:#ff0000;stroke:#ff0000;" x="932.35392" xlink:href="#m7b425ec6a9" y="483.546395"/>
    </g>
   </g>
   <g id="line2d_18">
    <defs>
     <path d="M -0.5 0.5 
L 0.5 0.5 
L 0.5 -0.5 
L -0.5 -0.5 
z
" id="m8be88109cb" style="stroke:#1f77b4;stroke-linejoin:miter;"/>
    </defs>
    <g clip-path="url(#p3948f11fae)">
     <use style="fill:#1f77b4;stroke:#1f77b4;stroke-linejoin:miter;" x="936.674147" xlink:href="#m8be88109cb" y="446.317082"/>
     <use style="fill:#1f77b4;stroke:#1f77b4;stroke-linejoin:miter;" x="939.687156" xlink:href="#m8be88109cb" y="420.329637"/>
     <use style="fill:#1f77b4;stroke:#1f77b4;stroke-linejoin:miter;" x="917.960352" xlink:href="#m8be88109cb" y="408.914487"/>
     <use style="fill:#1f77b4;stroke:#1f77b4;stroke-linejoin:miter;" x="666.525596" xlink:href="#m8be88109cb" y="413.975095"/>
     <use style="fill:#1f77b4;stroke:#1f77b4;stroke-linejoin:miter;" x="661.561877" xlink:href="#m8be88109cb" y="412.189089"/>
     <use style="fill:#1f77b4;stroke:#1f77b4;stroke-linejoin:miter;" x="658.852805" xlink:href="#m8be88109cb" y="410.013747"/>
     <use style="fill:#1f77b4;stroke:#1f77b4;stroke-linejoin:miter;" x="661.184064" xlink:href="#m8be88109cb" y="405.694491"/>
     <use style="fill:#1f77b4;stroke:#1f77b4;stroke-linejoin:miter;" x="662.57317" xlink:href="#m8be88109cb" y="401.477783"/>
     <use style="fill:#1f77b4;stroke:#1f77b4;stroke-linejoin:miter;" x="662.546794" xlink:href="#m8be88109cb" y="397.61762"/>
     <use style="fill:#1f77b4;stroke:#1f77b4;stroke-linejoin:miter;" x="660.99307" xlink:href="#m8be88109cb" y="394.36027"/>
     <use style="fill:#1f77b4;stroke:#1f77b4;stroke-linejoin:miter;" x="686.737638" xlink:href="#m8be88109cb" y="307.72396"/>
     <use style="fill:#1f77b4;stroke:#1f77b4;stroke-linejoin:miter;" x="675.770793" xlink:href="#m8be88109cb" y="307.851865"/>
     <use style="fill:#1f77b4;stroke:#1f77b4;stroke-linejoin:miter;" x="665.504973" xlink:href="#m8be88109cb" y="307.416361"/>
     <use style="fill:#1f77b4;stroke:#1f77b4;stroke-linejoin:miter;" x="654.976613" xlink:href="#m8be88109cb" y="308.150276"/>
     <use style="fill:#1f77b4;stroke:#1f77b4;stroke-linejoin:miter;" x="645.814863" xlink:href="#m8be88109cb" y="307.199407"/>
     <use style="fill:#1f77b4;stroke:#1f77b4;stroke-linejoin:miter;" x="636.549381" xlink:href="#m8be88109cb" y="306.850326"/>
     <use style="fill:#1f77b4;stroke:#1f77b4;stroke-linejoin:miter;" x="627.486048" xlink:href="#m8be88109cb" y="306.481255"/>
     <use style="fill:#1f77b4;stroke:#1f77b4;stroke-linejoin:miter;" x="614.417813" xlink:href="#m8be88109cb" y="324.310574"/>
     <use style="fill:#1f77b4;stroke:#1f77b4;stroke-linejoin:miter;" x="609.449744" xlink:href="#m8be88109cb" y="305.385548"/>
     <use style="fill:#1f77b4;stroke:#1f77b4;stroke-linejoin:miter;" x="600.521294" xlink:href="#m8be88109cb" y="305.393728"/>
     <use style="fill:#1f77b4;stroke:#1f77b4;stroke-linejoin:miter;" x="591.798136" xlink:href="#m8be88109cb" y="304.5868"/>
     <use style="fill:#1f77b4;stroke:#1f77b4;stroke-linejoin:miter;" x="582.915878" xlink:href="#m8be88109cb" y="304.462964"/>
     <use style="fill:#1f77b4;stroke:#1f77b4;stroke-linejoin:miter;" x="573.976348" xlink:href="#m8be88109cb" y="304.317184"/>
     <use style="fill:#1f77b4;stroke:#1f77b4;stroke-linejoin:miter;" x="565.044518" xlink:href="#m8be88109cb" y="304.492283"/>
     <use style="fill:#1f77b4;stroke:#1f77b4;stroke-linejoin:miter;" x="555.845725" xlink:href="#m8be88109cb" y="304.048003"/>
     <use style="fill:#1f77b4;stroke:#1f77b4;stroke-linejoin:miter;" x="546.367538" xlink:href="#m8be88109cb" y="303.331453"/>
     <use style="fill:#1f77b4;stroke:#1f77b4;stroke-linejoin:miter;" x="536.764499" xlink:href="#m8be88109cb" y="303.392522"/>
     <use style="fill:#1f77b4;stroke:#1f77b4;stroke-linejoin:miter;" x="526.501443" xlink:href="#m8be88109cb" y="302.324846"/>
     <use style="fill:#1f77b4;stroke:#1f77b4;stroke-linejoin:miter;" x="516.364097" xlink:href="#m8be88109cb" y="302.615639"/>
     <use style="fill:#1f77b4;stroke:#1f77b4;stroke-linejoin:miter;" x="505.088391" xlink:href="#m8be88109cb" y="301.720716"/>
     <use style="fill:#1f77b4;stroke:#1f77b4;stroke-linejoin:miter;" x="494.935667" xlink:href="#m8be88109cb" y="303.320551"/>
     <use style="fill:#1f77b4;stroke:#1f77b4;stroke-linejoin:miter;" x="482.832774" xlink:href="#m8be88109cb" y="302.754832"/>
     <use style="fill:#1f77b4;stroke:#1f77b4;stroke-linejoin:miter;" x="470.683504" xlink:href="#m8be88109cb" y="303.125402"/>
     <use style="fill:#1f77b4;stroke:#1f77b4;stroke-linejoin:miter;" x="457.145536" xlink:href="#m8be88109cb" y="302.967542"/>
     <use style="fill:#1f77b4;stroke:#1f77b4;stroke-linejoin:miter;" x="442.021612" xlink:href="#m8be88109cb" y="302.341872"/>
     <use style="fill:#1f77b4;stroke:#1f77b4;stroke-linejoin:miter;" x="425.676565" xlink:href="#m8be88109cb" y="301.778647"/>
     <use style="fill:#1f77b4;stroke:#1f77b4;stroke-linejoin:miter;" x="415.97683" xlink:href="#m8be88109cb" y="307.546174"/>
     <use style="fill:#1f77b4;stroke:#1f77b4;stroke-linejoin:miter;" x="398.134435" xlink:href="#m8be88109cb" y="307.673439"/>
     <use style="fill:#1f77b4;stroke:#1f77b4;stroke-linejoin:miter;" x="396.471851" xlink:href="#m8be88109cb" y="319.169373"/>
     <use style="fill:#1f77b4;stroke:#1f77b4;stroke-linejoin:miter;" x="392.389701" xlink:href="#m8be88109cb" y="349.677417"/>
     <use style="fill:#1f77b4;stroke:#1f77b4;stroke-linejoin:miter;" x="374.707022" xlink:href="#m8be88109cb" y="352.484112"/>
     <use style="fill:#1f77b4;stroke:#1f77b4;stroke-linejoin:miter;" x="372.035111" xlink:href="#m8be88109cb" y="361.736414"/>
     <use style="fill:#1f77b4;stroke:#1f77b4;stroke-linejoin:miter;" x="382.052161" xlink:href="#m8be88109cb" y="391.847808"/>
     <use style="fill:#1f77b4;stroke:#1f77b4;stroke-linejoin:miter;" x="381.202018" xlink:href="#m8be88109cb" y="400.062061"/>
     <use style="fill:#1f77b4;stroke:#1f77b4;stroke-linejoin:miter;" x="369.433401" xlink:href="#m8be88109cb" y="406.591758"/>
     <use style="fill:#1f77b4;stroke:#1f77b4;stroke-linejoin:miter;" x="368.153224" xlink:href="#m8be88109cb" y="414.93045"/>
     <use style="fill:#1f77b4;stroke:#1f77b4;stroke-linejoin:miter;" x="368.989478" xlink:href="#m8be88109cb" y="423.290004"/>
     <use style="fill:#1f77b4;stroke:#1f77b4;stroke-linejoin:miter;" x="537.28864" xlink:href="#m8be88109cb" y="437.896586"/>
     <use style="fill:#1f77b4;stroke:#1f77b4;stroke-linejoin:miter;" x="537.413975" xlink:href="#m8be88109cb" y="439.882851"/>
     <use style="fill:#1f77b4;stroke:#1f77b4;stroke-linejoin:miter;" x="537.438367" xlink:href="#m8be88109cb" y="441.899367"/>
     <use style="fill:#1f77b4;stroke:#1f77b4;stroke-linejoin:miter;" x="537.41549" xlink:href="#m8be88109cb" y="443.894007"/>
     <use style="fill:#1f77b4;stroke:#1f77b4;stroke-linejoin:miter;" x="537.484448" xlink:href="#m8be88109cb" y="445.968612"/>
     <use style="fill:#1f77b4;stroke:#1f77b4;stroke-linejoin:miter;" x="537.203585" xlink:href="#m8be88109cb" y="448.061876"/>
     <use style="fill:#1f77b4;stroke:#1f77b4;stroke-linejoin:miter;" x="537.348929" xlink:href="#m8be88109cb" y="450.209778"/>
     <use style="fill:#1f77b4;stroke:#1f77b4;stroke-linejoin:miter;" x="364.359791" xlink:href="#m8be88109cb" y="521.103766"/>
     <use style="fill:#1f77b4;stroke:#1f77b4;stroke-linejoin:miter;" x="395.730482" xlink:href="#m8be88109cb" y="518.914133"/>
     <use style="fill:#1f77b4;stroke:#1f77b4;stroke-linejoin:miter;" x="395.24375" xlink:href="#m8be88109cb" y="528.964594"/>
     <use style="fill:#1f77b4;stroke:#1f77b4;stroke-linejoin:miter;" x="404.728221" xlink:href="#m8be88109cb" y="534.553251"/>
     <use style="fill:#1f77b4;stroke:#1f77b4;stroke-linejoin:miter;" x="443.03198" xlink:href="#m8be88109cb" y="532.253136"/>
     <use style="fill:#1f77b4;stroke:#1f77b4;stroke-linejoin:miter;" x="450.084962" xlink:href="#m8be88109cb" y="537.289845"/>
     <use style="fill:#1f77b4;stroke:#1f77b4;stroke-linejoin:miter;" x="498.980116" xlink:href="#m8be88109cb" y="517.057131"/>
     <use style="fill:#1f77b4;stroke:#1f77b4;stroke-linejoin:miter;" x="507.358387" xlink:href="#m8be88109cb" y="517.557509"/>
     <use style="fill:#1f77b4;stroke:#1f77b4;stroke-linejoin:miter;" x="507.879277" xlink:href="#m8be88109cb" y="525.842612"/>
     <use style="fill:#1f77b4;stroke:#1f77b4;stroke-linejoin:miter;" x="506.025563" xlink:href="#m8be88109cb" y="538.293439"/>
     <use style="fill:#1f77b4;stroke:#1f77b4;stroke-linejoin:miter;" x="521.819672" xlink:href="#m8be88109cb" y="529.288761"/>
     <use style="fill:#1f77b4;stroke:#1f77b4;stroke-linejoin:miter;" x="541.076408" xlink:href="#m8be88109cb" y="522.972767"/>
     <use style="fill:#1f77b4;stroke:#1f77b4;stroke-linejoin:miter;" x="547.951047" xlink:href="#m8be88109cb" y="522.785859"/>
     <use style="fill:#1f77b4;stroke:#1f77b4;stroke-linejoin:miter;" x="557.752434" xlink:href="#m8be88109cb" y="530.600347"/>
     <use style="fill:#1f77b4;stroke:#1f77b4;stroke-linejoin:miter;" x="565.623996" xlink:href="#m8be88109cb" y="526.435087"/>
     <use style="fill:#1f77b4;stroke:#1f77b4;stroke-linejoin:miter;" x="570.532276" xlink:href="#m8be88109cb" y="532.15972"/>
     <use style="fill:#1f77b4;stroke:#1f77b4;stroke-linejoin:miter;" x="575.674939" xlink:href="#m8be88109cb" y="540.991374"/>
     <use style="fill:#1f77b4;stroke:#1f77b4;stroke-linejoin:miter;" x="582.765102" xlink:href="#m8be88109cb" y="540.007116"/>
     <use style="fill:#1f77b4;stroke:#1f77b4;stroke-linejoin:miter;" x="589.973779" xlink:href="#m8be88109cb" y="525.906517"/>
     <use style="fill:#1f77b4;stroke:#1f77b4;stroke-linejoin:miter;" x="596.36728" xlink:href="#m8be88109cb" y="535.073422"/>
     <use style="fill:#1f77b4;stroke:#1f77b4;stroke-linejoin:miter;" x="603.263043" xlink:href="#m8be88109cb" y="535.018027"/>
     <use style="fill:#1f77b4;stroke:#1f77b4;stroke-linejoin:miter;" x="611.152598" xlink:href="#m8be88109cb" y="541.359344"/>
     <use style="fill:#1f77b4;stroke:#1f77b4;stroke-linejoin:miter;" x="612.787012" xlink:href="#m8be88109cb" y="519.1231"/>
     <use style="fill:#1f77b4;stroke:#1f77b4;stroke-linejoin:miter;" x="619.026954" xlink:href="#m8be88109cb" y="520.122156"/>
     <use style="fill:#1f77b4;stroke:#1f77b4;stroke-linejoin:miter;" x="624.284838" xlink:href="#m8be88109cb" y="518.268089"/>
     <use style="fill:#1f77b4;stroke:#1f77b4;stroke-linejoin:miter;" x="631.870526" xlink:href="#m8be88109cb" y="521.584744"/>
     <use style="fill:#1f77b4;stroke:#1f77b4;stroke-linejoin:miter;" x="638.74404" xlink:href="#m8be88109cb" y="521.965656"/>
     <use style="fill:#1f77b4;stroke:#1f77b4;stroke-linejoin:miter;" x="645.873846" xlink:href="#m8be88109cb" y="522.44014"/>
     <use style="fill:#1f77b4;stroke:#1f77b4;stroke-linejoin:miter;" x="653.157753" xlink:href="#m8be88109cb" y="522.561907"/>
     <use style="fill:#1f77b4;stroke:#1f77b4;stroke-linejoin:miter;" x="660.971051" xlink:href="#m8be88109cb" y="523.193921"/>
     <use style="fill:#1f77b4;stroke:#1f77b4;stroke-linejoin:miter;" x="669.660813" xlink:href="#m8be88109cb" y="523.831661"/>
     <use style="fill:#1f77b4;stroke:#1f77b4;stroke-linejoin:miter;" x="700.287328" xlink:href="#m8be88109cb" y="546.038084"/>
     <use style="fill:#1f77b4;stroke:#1f77b4;stroke-linejoin:miter;" x="704.959686" xlink:href="#m8be88109cb" y="539.41747"/>
     <use style="fill:#1f77b4;stroke:#1f77b4;stroke-linejoin:miter;" x="709.039332" xlink:href="#m8be88109cb" y="533.009143"/>
     <use style="fill:#1f77b4;stroke:#1f77b4;stroke-linejoin:miter;" x="714.933478" xlink:href="#m8be88109cb" y="528.110744"/>
     <use style="fill:#1f77b4;stroke:#1f77b4;stroke-linejoin:miter;" x="720.618329" xlink:href="#m8be88109cb" y="523.211519"/>
     <use style="fill:#1f77b4;stroke:#1f77b4;stroke-linejoin:miter;" x="735.793478" xlink:href="#m8be88109cb" y="524.151174"/>
     <use style="fill:#1f77b4;stroke:#1f77b4;stroke-linejoin:miter;" x="738.556243" xlink:href="#m8be88109cb" y="516.576519"/>
     <use style="fill:#1f77b4;stroke:#1f77b4;stroke-linejoin:miter;" x="753.800898" xlink:href="#m8be88109cb" y="516.007012"/>
     <use style="fill:#1f77b4;stroke:#1f77b4;stroke-linejoin:miter;" x="774.491477" xlink:href="#m8be88109cb" y="516.671072"/>
     <use style="fill:#1f77b4;stroke:#1f77b4;stroke-linejoin:miter;" x="799.647208" xlink:href="#m8be88109cb" y="517.650536"/>
     <use style="fill:#1f77b4;stroke:#1f77b4;stroke-linejoin:miter;" x="920.793296" xlink:href="#m8be88109cb" y="550.306867"/>
     <use style="fill:#1f77b4;stroke:#1f77b4;stroke-linejoin:miter;" x="928.419584" xlink:href="#m8be88109cb" y="537.925997"/>
     <use style="fill:#1f77b4;stroke:#1f77b4;stroke-linejoin:miter;" x="932.35392" xlink:href="#m8be88109cb" y="483.546395"/>
    </g>
   </g>
   <g id="patch_3">
    <path d="M 144 768.96 
L 144 103.68 
" style="fill:none;stroke:#000000;stroke-linecap:square;stroke-linejoin:miter;stroke-width:0.8;"/>
   </g>
   <g id="patch_4">
    <path d="M 1036.8 768.96 
L 1036.8 103.68 
" style="fill:none;stroke:#000000;stroke-linecap:square;stroke-linejoin:miter;stroke-width:0.8;"/>
   </g>
   <g id="patch_5">
    <path d="M 144 768.96 
L 1036.8 768.96 
" style="fill:none;stroke:#000000;stroke-linecap:square;stroke-linejoin:miter;stroke-width:0.8;"/>
   </g>
   <g id="patch_6">
    <path d="M 144 103.68 
L 1036.8 103.68 
" style="fill:none;stroke:#000000;stroke-linecap:square;stroke-linejoin:miter;stroke-width:0.8;"/>
   </g>
  </g>
 </g>
 <defs>
  <clipPath id="p3948f11fae">
   <rect height="665.28" width="892.8" x="144" y="103.68"/>
  </clipPath>
 </defs>
</svg>
