<?xml version="1.0" encoding="utf-8" standalone="no"?>
<!DOCTYPE svg PUBLIC "-//W3C//DTD SVG 1.1//EN"
  "http://www.w3.org/Graphics/SVG/1.1/DTD/svg11.dtd">
<!-- Created with matplotlib (http://matplotlib.org/) -->
<svg height="864pt" version="1.1" viewBox="0 0 1152 864" width="1152pt" xmlns="http://www.w3.org/2000/svg" xmlns:xlink="http://www.w3.org/1999/xlink">
 <defs>
  <style type="text/css">
*{stroke-linecap:butt;stroke-linejoin:round;}
  </style>
 </defs>
 <g id="figure_1">
  <g id="patch_1">
   <path d="M 0 864 
L 1152 864 
L 1152 0 
L 0 0 
z
" style="fill:#ffffff;"/>
  </g>
  <g id="axes_1">
   <g id="patch_2">
    <path d="M 144 768.96 
L 1036.8 768.96 
L 1036.8 103.68 
L 144 103.68 
z
" style="fill:#ffffff;"/>
   </g>
   <g id="matplotlib.axis_1">
    <g id="xtick_1">
     <g id="line2d_1">
      <defs>
       <path d="M 0 0 
L 0 3.5 
" id="m6702b98769" style="stroke:#000000;stroke-width:0.8;"/>
      </defs>
      <g>
       <use style="stroke:#000000;stroke-width:0.8;" x="207.771429" xlink:href="#m6702b98769" y="768.96"/>
      </g>
     </g>
     <g id="text_1">
      <!-- −6000 -->
      <defs>
       <path d="M 10.59375 35.5 
L 73.1875 35.5 
L 73.1875 27.203125 
L 10.59375 27.203125 
z
" id="DejaVuSans-2212"/>
       <path d="M 33.015625 40.375 
Q 26.375 40.375 22.484375 35.828125 
Q 18.609375 31.296875 18.609375 23.390625 
Q 18.609375 15.53125 22.484375 10.953125 
Q 26.375 6.390625 33.015625 6.390625 
Q 39.65625 6.390625 43.53125 10.953125 
Q 47.40625 15.53125 47.40625 23.390625 
Q 47.40625 31.296875 43.53125 35.828125 
Q 39.65625 40.375 33.015625 40.375 
z
M 52.59375 71.296875 
L 52.59375 62.3125 
Q 48.875 64.0625 45.09375 64.984375 
Q 41.3125 65.921875 37.59375 65.921875 
Q 27.828125 65.921875 22.671875 59.328125 
Q 17.53125 52.734375 16.796875 39.40625 
Q 19.671875 43.65625 24.015625 45.921875 
Q 28.375 48.1875 33.59375 48.1875 
Q 44.578125 48.1875 50.953125 41.515625 
Q 57.328125 34.859375 57.328125 23.390625 
Q 57.328125 12.15625 50.6875 5.359375 
Q 44.046875 -1.421875 33.015625 -1.421875 
Q 20.359375 -1.421875 13.671875 8.265625 
Q 6.984375 17.96875 6.984375 36.375 
Q 6.984375 53.65625 15.1875 63.9375 
Q 23.390625 74.21875 37.203125 74.21875 
Q 40.921875 74.21875 44.703125 73.484375 
Q 48.484375 72.75 52.59375 71.296875 
z
" id="DejaVuSans-36"/>
       <path d="M 31.78125 66.40625 
Q 24.171875 66.40625 20.328125 58.90625 
Q 16.5 51.421875 16.5 36.375 
Q 16.5 21.390625 20.328125 13.890625 
Q 24.171875 6.390625 31.78125 6.390625 
Q 39.453125 6.390625 43.28125 13.890625 
Q 47.125 21.390625 47.125 36.375 
Q 47.125 51.421875 43.28125 58.90625 
Q 39.453125 66.40625 31.78125 66.40625 
z
M 31.78125 74.21875 
Q 44.046875 74.21875 50.515625 64.515625 
Q 56.984375 54.828125 56.984375 36.375 
Q 56.984375 17.96875 50.515625 8.265625 
Q 44.046875 -1.421875 31.78125 -1.421875 
Q 19.53125 -1.421875 13.0625 8.265625 
Q 6.59375 17.96875 6.59375 36.375 
Q 6.59375 54.828125 13.0625 64.515625 
Q 19.53125 74.21875 31.78125 74.21875 
z
" id="DejaVuSans-30"/>
      </defs>
      <g transform="translate(190.856585 783.558437)scale(0.1 -0.1)">
       <use xlink:href="#DejaVuSans-2212"/>
       <use x="83.789062" xlink:href="#DejaVuSans-36"/>
       <use x="147.412109" xlink:href="#DejaVuSans-30"/>
       <use x="211.035156" xlink:href="#DejaVuSans-30"/>
       <use x="274.658203" xlink:href="#DejaVuSans-30"/>
      </g>
     </g>
    </g>
    <g id="xtick_2">
     <g id="line2d_2">
      <g>
       <use style="stroke:#000000;stroke-width:0.8;" x="335.314286" xlink:href="#m6702b98769" y="768.96"/>
      </g>
     </g>
     <g id="text_2">
      <!-- −4000 -->
      <defs>
       <path d="M 37.796875 64.3125 
L 12.890625 25.390625 
L 37.796875 25.390625 
z
M 35.203125 72.90625 
L 47.609375 72.90625 
L 47.609375 25.390625 
L 58.015625 25.390625 
L 58.015625 17.1875 
L 47.609375 17.1875 
L 47.609375 0 
L 37.796875 0 
L 37.796875 17.1875 
L 4.890625 17.1875 
L 4.890625 26.703125 
z
" id="DejaVuSans-34"/>
      </defs>
      <g transform="translate(318.399442 783.558437)scale(0.1 -0.1)">
       <use xlink:href="#DejaVuSans-2212"/>
       <use x="83.789062" xlink:href="#DejaVuSans-34"/>
       <use x="147.412109" xlink:href="#DejaVuSans-30"/>
       <use x="211.035156" xlink:href="#DejaVuSans-30"/>
       <use x="274.658203" xlink:href="#DejaVuSans-30"/>
      </g>
     </g>
    </g>
    <g id="xtick_3">
     <g id="line2d_3">
      <g>
       <use style="stroke:#000000;stroke-width:0.8;" x="462.857143" xlink:href="#m6702b98769" y="768.96"/>
      </g>
     </g>
     <g id="text_3">
      <!-- −2000 -->
      <defs>
       <path d="M 19.1875 8.296875 
L 53.609375 8.296875 
L 53.609375 0 
L 7.328125 0 
L 7.328125 8.296875 
Q 12.9375 14.109375 22.625 23.890625 
Q 32.328125 33.6875 34.8125 36.53125 
Q 39.546875 41.84375 41.421875 45.53125 
Q 43.3125 49.21875 43.3125 52.78125 
Q 43.3125 58.59375 39.234375 62.25 
Q 35.15625 65.921875 28.609375 65.921875 
Q 23.96875 65.921875 18.8125 64.3125 
Q 13.671875 62.703125 7.8125 59.421875 
L 7.8125 69.390625 
Q 13.765625 71.78125 18.9375 73 
Q 24.125 74.21875 28.421875 74.21875 
Q 39.75 74.21875 46.484375 68.546875 
Q 53.21875 62.890625 53.21875 53.421875 
Q 53.21875 48.921875 51.53125 44.890625 
Q 49.859375 40.875 45.40625 35.40625 
Q 44.1875 33.984375 37.640625 27.21875 
Q 31.109375 20.453125 19.1875 8.296875 
z
" id="DejaVuSans-32"/>
      </defs>
      <g transform="translate(445.942299 783.558437)scale(0.1 -0.1)">
       <use xlink:href="#DejaVuSans-2212"/>
       <use x="83.789062" xlink:href="#DejaVuSans-32"/>
       <use x="147.412109" xlink:href="#DejaVuSans-30"/>
       <use x="211.035156" xlink:href="#DejaVuSans-30"/>
       <use x="274.658203" xlink:href="#DejaVuSans-30"/>
      </g>
     </g>
    </g>
    <g id="xtick_4">
     <g id="line2d_4">
      <g>
       <use style="stroke:#000000;stroke-width:0.8;" x="590.4" xlink:href="#m6702b98769" y="768.96"/>
      </g>
     </g>
     <g id="text_4">
      <!-- 0 -->
      <g transform="translate(587.21875 783.558437)scale(0.1 -0.1)">
       <use xlink:href="#DejaVuSans-30"/>
      </g>
     </g>
    </g>
    <g id="xtick_5">
     <g id="line2d_5">
      <g>
       <use style="stroke:#000000;stroke-width:0.8;" x="717.942857" xlink:href="#m6702b98769" y="768.96"/>
      </g>
     </g>
     <g id="text_5">
      <!-- 2000 -->
      <g transform="translate(705.217857 783.558437)scale(0.1 -0.1)">
       <use xlink:href="#DejaVuSans-32"/>
       <use x="63.623047" xlink:href="#DejaVuSans-30"/>
       <use x="127.246094" xlink:href="#DejaVuSans-30"/>
       <use x="190.869141" xlink:href="#DejaVuSans-30"/>
      </g>
     </g>
    </g>
    <g id="xtick_6">
     <g id="line2d_6">
      <g>
       <use style="stroke:#000000;stroke-width:0.8;" x="845.485714" xlink:href="#m6702b98769" y="768.96"/>
      </g>
     </g>
     <g id="text_6">
      <!-- 4000 -->
      <g transform="translate(832.760714 783.558437)scale(0.1 -0.1)">
       <use xlink:href="#DejaVuSans-34"/>
       <use x="63.623047" xlink:href="#DejaVuSans-30"/>
       <use x="127.246094" xlink:href="#DejaVuSans-30"/>
       <use x="190.869141" xlink:href="#DejaVuSans-30"/>
      </g>
     </g>
    </g>
    <g id="xtick_7">
     <g id="line2d_7">
      <g>
       <use style="stroke:#000000;stroke-width:0.8;" x="973.028571" xlink:href="#m6702b98769" y="768.96"/>
      </g>
     </g>
     <g id="text_7">
      <!-- 6000 -->
      <g transform="translate(960.303571 783.558437)scale(0.1 -0.1)">
       <use xlink:href="#DejaVuSans-36"/>
       <use x="63.623047" xlink:href="#DejaVuSans-30"/>
       <use x="127.246094" xlink:href="#DejaVuSans-30"/>
       <use x="190.869141" xlink:href="#DejaVuSans-30"/>
      </g>
     </g>
    </g>
   </g>
   <g id="matplotlib.axis_2">
    <g id="ytick_1">
     <g id="line2d_8">
      <defs>
       <path d="M 0 0 
L -3.5 0 
" id="m42f19ed55c" style="stroke:#000000;stroke-width:0.8;"/>
      </defs>
      <g>
       <use style="stroke:#000000;stroke-width:0.8;" x="144" xlink:href="#m42f19ed55c" y="721.44"/>
      </g>
     </g>
     <g id="text_8">
      <!-- −6000 -->
      <g transform="translate(103.170312 725.239219)scale(0.1 -0.1)">
       <use xlink:href="#DejaVuSans-2212"/>
       <use x="83.789062" xlink:href="#DejaVuSans-36"/>
       <use x="147.412109" xlink:href="#DejaVuSans-30"/>
       <use x="211.035156" xlink:href="#DejaVuSans-30"/>
       <use x="274.658203" xlink:href="#DejaVuSans-30"/>
      </g>
     </g>
    </g>
    <g id="ytick_2">
     <g id="line2d_9">
      <g>
       <use style="stroke:#000000;stroke-width:0.8;" x="144" xlink:href="#m42f19ed55c" y="626.4"/>
      </g>
     </g>
     <g id="text_9">
      <!-- −4000 -->
      <g transform="translate(103.170312 630.199219)scale(0.1 -0.1)">
       <use xlink:href="#DejaVuSans-2212"/>
       <use x="83.789062" xlink:href="#DejaVuSans-34"/>
       <use x="147.412109" xlink:href="#DejaVuSans-30"/>
       <use x="211.035156" xlink:href="#DejaVuSans-30"/>
       <use x="274.658203" xlink:href="#DejaVuSans-30"/>
      </g>
     </g>
    </g>
    <g id="ytick_3">
     <g id="line2d_10">
      <g>
       <use style="stroke:#000000;stroke-width:0.8;" x="144" xlink:href="#m42f19ed55c" y="531.36"/>
      </g>
     </g>
     <g id="text_10">
      <!-- −2000 -->
      <g transform="translate(103.170312 535.159219)scale(0.1 -0.1)">
       <use xlink:href="#DejaVuSans-2212"/>
       <use x="83.789062" xlink:href="#DejaVuSans-32"/>
       <use x="147.412109" xlink:href="#DejaVuSans-30"/>
       <use x="211.035156" xlink:href="#DejaVuSans-30"/>
       <use x="274.658203" xlink:href="#DejaVuSans-30"/>
      </g>
     </g>
    </g>
    <g id="ytick_4">
     <g id="line2d_11">
      <g>
       <use style="stroke:#000000;stroke-width:0.8;" x="144" xlink:href="#m42f19ed55c" y="436.32"/>
      </g>
     </g>
     <g id="text_11">
      <!-- 0 -->
      <g transform="translate(130.6375 440.119219)scale(0.1 -0.1)">
       <use xlink:href="#DejaVuSans-30"/>
      </g>
     </g>
    </g>
    <g id="ytick_5">
     <g id="line2d_12">
      <g>
       <use style="stroke:#000000;stroke-width:0.8;" x="144" xlink:href="#m42f19ed55c" y="341.28"/>
      </g>
     </g>
     <g id="text_12">
      <!-- 2000 -->
      <g transform="translate(111.55 345.079219)scale(0.1 -0.1)">
       <use xlink:href="#DejaVuSans-32"/>
       <use x="63.623047" xlink:href="#DejaVuSans-30"/>
       <use x="127.246094" xlink:href="#DejaVuSans-30"/>
       <use x="190.869141" xlink:href="#DejaVuSans-30"/>
      </g>
     </g>
    </g>
    <g id="ytick_6">
     <g id="line2d_13">
      <g>
       <use style="stroke:#000000;stroke-width:0.8;" x="144" xlink:href="#m42f19ed55c" y="246.24"/>
      </g>
     </g>
     <g id="text_13">
      <!-- 4000 -->
      <g transform="translate(111.55 250.039219)scale(0.1 -0.1)">
       <use xlink:href="#DejaVuSans-34"/>
       <use x="63.623047" xlink:href="#DejaVuSans-30"/>
       <use x="127.246094" xlink:href="#DejaVuSans-30"/>
       <use x="190.869141" xlink:href="#DejaVuSans-30"/>
      </g>
     </g>
    </g>
    <g id="ytick_7">
     <g id="line2d_14">
      <g>
       <use style="stroke:#000000;stroke-width:0.8;" x="144" xlink:href="#m42f19ed55c" y="151.2"/>
      </g>
     </g>
     <g id="text_14">
      <!-- 6000 -->
      <g transform="translate(111.55 154.999219)scale(0.1 -0.1)">
       <use xlink:href="#DejaVuSans-36"/>
       <use x="63.623047" xlink:href="#DejaVuSans-30"/>
       <use x="127.246094" xlink:href="#DejaVuSans-30"/>
       <use x="190.869141" xlink:href="#DejaVuSans-30"/>
      </g>
     </g>
    </g>
   </g>
   <g id="line2d_15">
    <path clip-path="url(#p201ab1c25e)" d="M 590.4 768.96 
L 590.4 103.68 
" style="fill:none;stroke:#1f77b4;stroke-linecap:square;stroke-width:1.5;"/>
   </g>
   <g id="line2d_16">
    <path clip-path="url(#p201ab1c25e)" d="M 144 436.32 
L 1036.8 436.32 
" style="fill:none;stroke:#1f77b4;stroke-linecap:square;stroke-width:1.5;"/>
   </g>
   <g id="line2d_17">
    <defs>
     <path d="M 0 1.333333 
C 0.353604 1.333333 0.692773 1.192845 0.942809 0.942809 
C 1.192845 0.692773 1.333333 0.353604 1.333333 0 
C 1.333333 -0.353604 1.192845 -0.692773 0.942809 -0.942809 
C 0.692773 -1.192845 0.353604 -1.333333 0 -1.333333 
C -0.353604 -1.333333 -0.692773 -1.192845 -0.942809 -0.942809 
C -1.192845 -0.692773 -1.333333 -0.353604 -1.333333 0 
C -1.333333 0.353604 -1.192845 0.692773 -0.942809 0.942809 
C -0.692773 1.192845 -0.353604 1.333333 0 1.333333 
z
" id="m1ee5237e84" style="stroke:#ff0000;"/>
    </defs>
    <g clip-path="url(#p201ab1c25e)">
     <use style="fill:#ff0000;stroke:#ff0000;" x="898.532625" xlink:href="#m1ee5237e84" y="452.627499"/>
     <use style="fill:#ff0000;stroke:#ff0000;" x="908.770589" xlink:href="#m1ee5237e84" y="441.367086"/>
     <use style="fill:#ff0000;stroke:#ff0000;" x="938.003872" xlink:href="#m1ee5237e84" y="415.863533"/>
     <use style="fill:#ff0000;stroke:#ff0000;" x="918.086505" xlink:href="#m1ee5237e84" y="404.647273"/>
     <use style="fill:#ff0000;stroke:#ff0000;" x="670.69414" xlink:href="#m1ee5237e84" y="424.605132"/>
     <use style="fill:#ff0000;stroke:#ff0000;" x="666.598894" xlink:href="#m1ee5237e84" y="398.066134"/>
     <use style="fill:#ff0000;stroke:#ff0000;" x="690.469001" xlink:href="#m1ee5237e84" y="381.048453"/>
     <use style="fill:#ff0000;stroke:#ff0000;" x="798.087276" xlink:href="#m1ee5237e84" y="310.857581"/>
     <use style="fill:#ff0000;stroke:#ff0000;" x="777.71895" xlink:href="#m1ee5237e84" y="310.983262"/>
     <use style="fill:#ff0000;stroke:#ff0000;" x="681.799328" xlink:href="#m1ee5237e84" y="308.060196"/>
     <use style="fill:#ff0000;stroke:#ff0000;" x="632.770658" xlink:href="#m1ee5237e84" y="306.061675"/>
     <use style="fill:#ff0000;stroke:#ff0000;" x="618.853894" xlink:href="#m1ee5237e84" y="324.308602"/>
     <use style="fill:#ff0000;stroke:#ff0000;" x="614.611121" xlink:href="#m1ee5237e84" y="306.1477"/>
     <use style="fill:#ff0000;stroke:#ff0000;" x="463.905634" xlink:href="#m1ee5237e84" y="302.792558"/>
     <use style="fill:#ff0000;stroke:#ff0000;" x="449.677118" xlink:href="#m1ee5237e84" y="302.55545"/>
     <use style="fill:#ff0000;stroke:#ff0000;" x="433.78743" xlink:href="#m1ee5237e84" y="301.996173"/>
     <use style="fill:#ff0000;stroke:#ff0000;" x="407.345823" xlink:href="#m1ee5237e84" y="307.72234"/>
     <use style="fill:#ff0000;stroke:#ff0000;" x="388.178366" xlink:href="#m1ee5237e84" y="307.76259"/>
     <use style="fill:#ff0000;stroke:#ff0000;" x="397.212122" xlink:href="#m1ee5237e84" y="347.237245"/>
     <use style="fill:#ff0000;stroke:#ff0000;" x="373.826828" xlink:href="#m1ee5237e84" y="357.445263"/>
     <use style="fill:#ff0000;stroke:#ff0000;" x="404.615955" xlink:href="#m1ee5237e84" y="393.292127"/>
     <use style="fill:#ff0000;stroke:#ff0000;" x="371.85551" xlink:href="#m1ee5237e84" y="394.393366"/>
     <use style="fill:#ff0000;stroke:#ff0000;" x="369.47058" xlink:href="#m1ee5237e84" y="411.119179"/>
     <use style="fill:#ff0000;stroke:#ff0000;" x="377.667857" xlink:href="#m1ee5237e84" y="420.226885"/>
     <use style="fill:#ff0000;stroke:#ff0000;" x="368.381806" xlink:href="#m1ee5237e84" y="427.875877"/>
     <use style="fill:#ff0000;stroke:#ff0000;" x="537.288079" xlink:href="#m1ee5237e84" y="437.075597"/>
     <use style="fill:#ff0000;stroke:#ff0000;" x="537.409397" xlink:href="#m1ee5237e84" y="451.50218"/>
     <use style="fill:#ff0000;stroke:#ff0000;" x="395.909914" xlink:href="#m1ee5237e84" y="524.479995"/>
     <use style="fill:#ff0000;stroke:#ff0000;" x="432.409523" xlink:href="#m1ee5237e84" y="516.525404"/>
     <use style="fill:#ff0000;stroke:#ff0000;" x="444.787779" xlink:href="#m1ee5237e84" y="537.060497"/>
     <use style="fill:#ff0000;stroke:#ff0000;" x="457.610918" xlink:href="#m1ee5237e84" y="537.838877"/>
     <use style="fill:#ff0000;stroke:#ff0000;" x="493.552741" xlink:href="#m1ee5237e84" y="518.339383"/>
     <use style="fill:#ff0000;stroke:#ff0000;" x="508.157659" xlink:href="#m1ee5237e84" y="521.940049"/>
     <use style="fill:#ff0000;stroke:#ff0000;" x="503.251422" xlink:href="#m1ee5237e84" y="537.159219"/>
     <use style="fill:#ff0000;stroke:#ff0000;" x="544.982813" xlink:href="#m1ee5237e84" y="523.488179"/>
     <use style="fill:#ff0000;stroke:#ff0000;" x="547.132474" xlink:href="#m1ee5237e84" y="533.029503"/>
     <use style="fill:#ff0000;stroke:#ff0000;" x="580.262987" xlink:href="#m1ee5237e84" y="540.662217"/>
     <use style="fill:#ff0000;stroke:#ff0000;" x="588.00644" xlink:href="#m1ee5237e84" y="525.901206"/>
     <use style="fill:#ff0000;stroke:#ff0000;" x="600.827205" xlink:href="#m1ee5237e84" y="535.391979"/>
     <use style="fill:#ff0000;stroke:#ff0000;" x="608.398265" xlink:href="#m1ee5237e84" y="538.62243"/>
     <use style="fill:#ff0000;stroke:#ff0000;" x="610.843058" xlink:href="#m1ee5237e84" y="519.015268"/>
     <use style="fill:#ff0000;stroke:#ff0000;" x="666.867438" xlink:href="#m1ee5237e84" y="523.644713"/>
     <use style="fill:#ff0000;stroke:#ff0000;" x="698.545531" xlink:href="#m1ee5237e84" y="547.875414"/>
     <use style="fill:#ff0000;stroke:#ff0000;" x="731.166729" xlink:href="#m1ee5237e84" y="523.947191"/>
     <use style="fill:#ff0000;stroke:#ff0000;" x="748.898262" xlink:href="#m1ee5237e84" y="516.030893"/>
     <use style="fill:#ff0000;stroke:#ff0000;" x="769.167538" xlink:href="#m1ee5237e84" y="516.856276"/>
     <use style="fill:#ff0000;stroke:#ff0000;" x="791.26013" xlink:href="#m1ee5237e84" y="517.110896"/>
     <use style="fill:#ff0000;stroke:#ff0000;" x="920.459324" xlink:href="#m1ee5237e84" y="554.290242"/>
     <use style="fill:#ff0000;stroke:#ff0000;" x="934.759174" xlink:href="#m1ee5237e84" y="500.893292"/>
    </g>
   </g>
   <g id="line2d_18">
    <defs>
     <path d="M -0.5 0.5 
L 0.5 0.5 
L 0.5 -0.5 
L -0.5 -0.5 
z
" id="mde302d1db4" style="stroke:#1f77b4;stroke-linejoin:miter;"/>
    </defs>
    <g clip-path="url(#p201ab1c25e)">
     <use style="fill:#1f77b4;stroke:#1f77b4;stroke-linejoin:miter;" x="898.532625" xlink:href="#mde302d1db4" y="452.627499"/>
     <use style="fill:#1f77b4;stroke:#1f77b4;stroke-linejoin:miter;" x="908.770589" xlink:href="#mde302d1db4" y="441.367086"/>
     <use style="fill:#1f77b4;stroke:#1f77b4;stroke-linejoin:miter;" x="938.003872" xlink:href="#mde302d1db4" y="415.863533"/>
     <use style="fill:#1f77b4;stroke:#1f77b4;stroke-linejoin:miter;" x="918.086505" xlink:href="#mde302d1db4" y="404.647273"/>
     <use style="fill:#1f77b4;stroke:#1f77b4;stroke-linejoin:miter;" x="670.69414" xlink:href="#mde302d1db4" y="424.605132"/>
     <use style="fill:#1f77b4;stroke:#1f77b4;stroke-linejoin:miter;" x="669.928323" xlink:href="#mde302d1db4" y="421.595953"/>
     <use style="fill:#1f77b4;stroke:#1f77b4;stroke-linejoin:miter;" x="672.09607" xlink:href="#mde302d1db4" y="417.889493"/>
     <use style="fill:#1f77b4;stroke:#1f77b4;stroke-linejoin:miter;" x="670.611075" xlink:href="#mde302d1db4" y="414.952269"/>
     <use style="fill:#1f77b4;stroke:#1f77b4;stroke-linejoin:miter;" x="668.677114" xlink:href="#mde302d1db4" y="412.047414"/>
     <use style="fill:#1f77b4;stroke:#1f77b4;stroke-linejoin:miter;" x="665.69307" xlink:href="#mde302d1db4" y="409.652904"/>
     <use style="fill:#1f77b4;stroke:#1f77b4;stroke-linejoin:miter;" x="665.403628" xlink:href="#mde302d1db4" y="406.230375"/>
     <use style="fill:#1f77b4;stroke:#1f77b4;stroke-linejoin:miter;" x="667.549778" xlink:href="#mde302d1db4" y="401.62757"/>
     <use style="fill:#1f77b4;stroke:#1f77b4;stroke-linejoin:miter;" x="666.598894" xlink:href="#mde302d1db4" y="398.066134"/>
     <use style="fill:#1f77b4;stroke:#1f77b4;stroke-linejoin:miter;" x="690.469001" xlink:href="#mde302d1db4" y="381.048453"/>
     <use style="fill:#1f77b4;stroke:#1f77b4;stroke-linejoin:miter;" x="798.087276" xlink:href="#mde302d1db4" y="310.857581"/>
     <use style="fill:#1f77b4;stroke:#1f77b4;stroke-linejoin:miter;" x="777.71895" xlink:href="#mde302d1db4" y="310.983262"/>
     <use style="fill:#1f77b4;stroke:#1f77b4;stroke-linejoin:miter;" x="681.799328" xlink:href="#mde302d1db4" y="308.060196"/>
     <use style="fill:#1f77b4;stroke:#1f77b4;stroke-linejoin:miter;" x="671.245491" xlink:href="#mde302d1db4" y="307.769875"/>
     <use style="fill:#1f77b4;stroke:#1f77b4;stroke-linejoin:miter;" x="661.627505" xlink:href="#mde302d1db4" y="306.585025"/>
     <use style="fill:#1f77b4;stroke:#1f77b4;stroke-linejoin:miter;" x="651.017636" xlink:href="#mde302d1db4" y="307.874213"/>
     <use style="fill:#1f77b4;stroke:#1f77b4;stroke-linejoin:miter;" x="641.888071" xlink:href="#mde302d1db4" y="306.795458"/>
     <use style="fill:#1f77b4;stroke:#1f77b4;stroke-linejoin:miter;" x="632.770658" xlink:href="#mde302d1db4" y="306.061675"/>
     <use style="fill:#1f77b4;stroke:#1f77b4;stroke-linejoin:miter;" x="618.853894" xlink:href="#mde302d1db4" y="324.308602"/>
     <use style="fill:#1f77b4;stroke:#1f77b4;stroke-linejoin:miter;" x="614.611121" xlink:href="#mde302d1db4" y="306.1477"/>
     <use style="fill:#1f77b4;stroke:#1f77b4;stroke-linejoin:miter;" x="605.568136" xlink:href="#mde302d1db4" y="305.068447"/>
     <use style="fill:#1f77b4;stroke:#1f77b4;stroke-linejoin:miter;" x="596.721072" xlink:href="#mde302d1db4" y="303.513822"/>
     <use style="fill:#1f77b4;stroke:#1f77b4;stroke-linejoin:miter;" x="587.838857" xlink:href="#mde302d1db4" y="304.287592"/>
     <use style="fill:#1f77b4;stroke:#1f77b4;stroke-linejoin:miter;" x="578.927115" xlink:href="#mde302d1db4" y="304.229409"/>
     <use style="fill:#1f77b4;stroke:#1f77b4;stroke-linejoin:miter;" x="569.927293" xlink:href="#mde302d1db4" y="304.34475"/>
     <use style="fill:#1f77b4;stroke:#1f77b4;stroke-linejoin:miter;" x="560.793014" xlink:href="#mde302d1db4" y="303.816962"/>
     <use style="fill:#1f77b4;stroke:#1f77b4;stroke-linejoin:miter;" x="551.5413" xlink:href="#mde302d1db4" y="303.654859"/>
     <use style="fill:#1f77b4;stroke:#1f77b4;stroke-linejoin:miter;" x="541.883592" xlink:href="#mde302d1db4" y="303.141686"/>
     <use style="fill:#1f77b4;stroke:#1f77b4;stroke-linejoin:miter;" x="532.089965" xlink:href="#mde302d1db4" y="302.964805"/>
     <use style="fill:#1f77b4;stroke:#1f77b4;stroke-linejoin:miter;" x="521.790086" xlink:href="#mde302d1db4" y="302.479485"/>
     <use style="fill:#1f77b4;stroke:#1f77b4;stroke-linejoin:miter;" x="511.097308" xlink:href="#mde302d1db4" y="302.119558"/>
     <use style="fill:#1f77b4;stroke:#1f77b4;stroke-linejoin:miter;" x="499.855009" xlink:href="#mde302d1db4" y="301.822558"/>
     <use style="fill:#1f77b4;stroke:#1f77b4;stroke-linejoin:miter;" x="488.810902" xlink:href="#mde302d1db4" y="302.605334"/>
     <use style="fill:#1f77b4;stroke:#1f77b4;stroke-linejoin:miter;" x="477.17478" xlink:href="#mde302d1db4" y="303.163904"/>
     <use style="fill:#1f77b4;stroke:#1f77b4;stroke-linejoin:miter;" x="463.905634" xlink:href="#mde302d1db4" y="302.792558"/>
     <use style="fill:#1f77b4;stroke:#1f77b4;stroke-linejoin:miter;" x="449.677118" xlink:href="#mde302d1db4" y="302.55545"/>
     <use style="fill:#1f77b4;stroke:#1f77b4;stroke-linejoin:miter;" x="433.78743" xlink:href="#mde302d1db4" y="301.996173"/>
     <use style="fill:#1f77b4;stroke:#1f77b4;stroke-linejoin:miter;" x="419.075277" xlink:href="#mde302d1db4" y="303.323382"/>
     <use style="fill:#1f77b4;stroke:#1f77b4;stroke-linejoin:miter;" x="407.345823" xlink:href="#mde302d1db4" y="307.72234"/>
     <use style="fill:#1f77b4;stroke:#1f77b4;stroke-linejoin:miter;" x="388.178366" xlink:href="#mde302d1db4" y="307.76259"/>
     <use style="fill:#1f77b4;stroke:#1f77b4;stroke-linejoin:miter;" x="397.212122" xlink:href="#mde302d1db4" y="347.237245"/>
     <use style="fill:#1f77b4;stroke:#1f77b4;stroke-linejoin:miter;" x="382.687815" xlink:href="#mde302d1db4" y="350.80024"/>
     <use style="fill:#1f77b4;stroke:#1f77b4;stroke-linejoin:miter;" x="373.826828" xlink:href="#mde302d1db4" y="357.445263"/>
     <use style="fill:#1f77b4;stroke:#1f77b4;stroke-linejoin:miter;" x="404.615955" xlink:href="#mde302d1db4" y="393.292127"/>
     <use style="fill:#1f77b4;stroke:#1f77b4;stroke-linejoin:miter;" x="371.85551" xlink:href="#mde302d1db4" y="394.393366"/>
     <use style="fill:#1f77b4;stroke:#1f77b4;stroke-linejoin:miter;" x="370.582592" xlink:href="#mde302d1db4" y="402.715427"/>
     <use style="fill:#1f77b4;stroke:#1f77b4;stroke-linejoin:miter;" x="369.47058" xlink:href="#mde302d1db4" y="411.119179"/>
     <use style="fill:#1f77b4;stroke:#1f77b4;stroke-linejoin:miter;" x="377.667857" xlink:href="#mde302d1db4" y="420.226885"/>
     <use style="fill:#1f77b4;stroke:#1f77b4;stroke-linejoin:miter;" x="368.381806" xlink:href="#mde302d1db4" y="427.875877"/>
     <use style="fill:#1f77b4;stroke:#1f77b4;stroke-linejoin:miter;" x="537.288079" xlink:href="#mde302d1db4" y="437.075597"/>
     <use style="fill:#1f77b4;stroke:#1f77b4;stroke-linejoin:miter;" x="537.373979" xlink:href="#mde302d1db4" y="439.061358"/>
     <use style="fill:#1f77b4;stroke:#1f77b4;stroke-linejoin:miter;" x="537.379178" xlink:href="#mde302d1db4" y="441.007132"/>
     <use style="fill:#1f77b4;stroke:#1f77b4;stroke-linejoin:miter;" x="537.426435" xlink:href="#mde302d1db4" y="443.003146"/>
     <use style="fill:#1f77b4;stroke:#1f77b4;stroke-linejoin:miter;" x="537.422894" xlink:href="#mde302d1db4" y="445.037849"/>
     <use style="fill:#1f77b4;stroke:#1f77b4;stroke-linejoin:miter;" x="537.726674" xlink:href="#mde302d1db4" y="447.089839"/>
     <use style="fill:#1f77b4;stroke:#1f77b4;stroke-linejoin:miter;" x="537.387759" xlink:href="#mde302d1db4" y="449.298268"/>
     <use style="fill:#1f77b4;stroke:#1f77b4;stroke-linejoin:miter;" x="537.409397" xlink:href="#mde302d1db4" y="451.50218"/>
     <use style="fill:#1f77b4;stroke:#1f77b4;stroke-linejoin:miter;" x="395.909914" xlink:href="#mde302d1db4" y="524.479995"/>
     <use style="fill:#1f77b4;stroke:#1f77b4;stroke-linejoin:miter;" x="432.409523" xlink:href="#mde302d1db4" y="516.525404"/>
     <use style="fill:#1f77b4;stroke:#1f77b4;stroke-linejoin:miter;" x="441.609002" xlink:href="#mde302d1db4" y="520.344049"/>
     <use style="fill:#1f77b4;stroke:#1f77b4;stroke-linejoin:miter;" x="445.1149" xlink:href="#mde302d1db4" y="527.161625"/>
     <use style="fill:#1f77b4;stroke:#1f77b4;stroke-linejoin:miter;" x="444.787779" xlink:href="#mde302d1db4" y="537.060497"/>
     <use style="fill:#1f77b4;stroke:#1f77b4;stroke-linejoin:miter;" x="457.610918" xlink:href="#mde302d1db4" y="537.838877"/>
     <use style="fill:#1f77b4;stroke:#1f77b4;stroke-linejoin:miter;" x="493.552741" xlink:href="#mde302d1db4" y="518.339383"/>
     <use style="fill:#1f77b4;stroke:#1f77b4;stroke-linejoin:miter;" x="504.25298" xlink:href="#mde302d1db4" y="517.293798"/>
     <use style="fill:#1f77b4;stroke:#1f77b4;stroke-linejoin:miter;" x="508.157659" xlink:href="#mde302d1db4" y="521.940049"/>
     <use style="fill:#1f77b4;stroke:#1f77b4;stroke-linejoin:miter;" x="503.251422" xlink:href="#mde302d1db4" y="537.159219"/>
     <use style="fill:#1f77b4;stroke:#1f77b4;stroke-linejoin:miter;" x="544.982813" xlink:href="#mde302d1db4" y="523.488179"/>
     <use style="fill:#1f77b4;stroke:#1f77b4;stroke-linejoin:miter;" x="547.132474" xlink:href="#mde302d1db4" y="533.029503"/>
     <use style="fill:#1f77b4;stroke:#1f77b4;stroke-linejoin:miter;" x="567.987592" xlink:href="#mde302d1db4" y="533.354718"/>
     <use style="fill:#1f77b4;stroke:#1f77b4;stroke-linejoin:miter;" x="573.304022" xlink:href="#mde302d1db4" y="540.072953"/>
     <use style="fill:#1f77b4;stroke:#1f77b4;stroke-linejoin:miter;" x="580.262987" xlink:href="#mde302d1db4" y="540.662217"/>
     <use style="fill:#1f77b4;stroke:#1f77b4;stroke-linejoin:miter;" x="588.00644" xlink:href="#mde302d1db4" y="525.901206"/>
     <use style="fill:#1f77b4;stroke:#1f77b4;stroke-linejoin:miter;" x="600.827205" xlink:href="#mde302d1db4" y="535.391979"/>
     <use style="fill:#1f77b4;stroke:#1f77b4;stroke-linejoin:miter;" x="608.398265" xlink:href="#mde302d1db4" y="538.62243"/>
     <use style="fill:#1f77b4;stroke:#1f77b4;stroke-linejoin:miter;" x="610.843058" xlink:href="#mde302d1db4" y="519.015268"/>
     <use style="fill:#1f77b4;stroke:#1f77b4;stroke-linejoin:miter;" x="617.024663" xlink:href="#mde302d1db4" y="520.268154"/>
     <use style="fill:#1f77b4;stroke:#1f77b4;stroke-linejoin:miter;" x="622.480943" xlink:href="#mde302d1db4" y="518.670247"/>
     <use style="fill:#1f77b4;stroke:#1f77b4;stroke-linejoin:miter;" x="629.941274" xlink:href="#mde302d1db4" y="521.815742"/>
     <use style="fill:#1f77b4;stroke:#1f77b4;stroke-linejoin:miter;" x="636.558344" xlink:href="#mde302d1db4" y="522.056883"/>
     <use style="fill:#1f77b4;stroke:#1f77b4;stroke-linejoin:miter;" x="643.487208" xlink:href="#mde302d1db4" y="522.252332"/>
     <use style="fill:#1f77b4;stroke:#1f77b4;stroke-linejoin:miter;" x="651.083315" xlink:href="#mde302d1db4" y="522.953753"/>
     <use style="fill:#1f77b4;stroke:#1f77b4;stroke-linejoin:miter;" x="658.619199" xlink:href="#mde302d1db4" y="523.268937"/>
     <use style="fill:#1f77b4;stroke:#1f77b4;stroke-linejoin:miter;" x="666.867438" xlink:href="#mde302d1db4" y="523.644713"/>
     <use style="fill:#1f77b4;stroke:#1f77b4;stroke-linejoin:miter;" x="698.545531" xlink:href="#mde302d1db4" y="547.875414"/>
     <use style="fill:#1f77b4;stroke:#1f77b4;stroke-linejoin:miter;" x="702.968062" xlink:href="#mde302d1db4" y="541.009353"/>
     <use style="fill:#1f77b4;stroke:#1f77b4;stroke-linejoin:miter;" x="708.159054" xlink:href="#mde302d1db4" y="535.230663"/>
     <use style="fill:#1f77b4;stroke:#1f77b4;stroke-linejoin:miter;" x="712.748146" xlink:href="#mde302d1db4" y="529.246304"/>
     <use style="fill:#1f77b4;stroke:#1f77b4;stroke-linejoin:miter;" x="731.166729" xlink:href="#mde302d1db4" y="523.947191"/>
     <use style="fill:#1f77b4;stroke:#1f77b4;stroke-linejoin:miter;" x="742.861607" xlink:href="#mde302d1db4" y="521.590601"/>
     <use style="fill:#1f77b4;stroke:#1f77b4;stroke-linejoin:miter;" x="748.898262" xlink:href="#mde302d1db4" y="516.030893"/>
     <use style="fill:#1f77b4;stroke:#1f77b4;stroke-linejoin:miter;" x="769.167538" xlink:href="#mde302d1db4" y="516.856276"/>
     <use style="fill:#1f77b4;stroke:#1f77b4;stroke-linejoin:miter;" x="791.26013" xlink:href="#mde302d1db4" y="517.110896"/>
     <use style="fill:#1f77b4;stroke:#1f77b4;stroke-linejoin:miter;" x="920.459324" xlink:href="#mde302d1db4" y="554.290242"/>
     <use style="fill:#1f77b4;stroke:#1f77b4;stroke-linejoin:miter;" x="928.160954" xlink:href="#mde302d1db4" y="541.860862"/>
     <use style="fill:#1f77b4;stroke:#1f77b4;stroke-linejoin:miter;" x="934.759174" xlink:href="#mde302d1db4" y="500.893292"/>
    </g>
   </g>
   <g id="patch_3">
    <path d="M 144 768.96 
L 144 103.68 
" style="fill:none;stroke:#000000;stroke-linecap:square;stroke-linejoin:miter;stroke-width:0.8;"/>
   </g>
   <g id="patch_4">
    <path d="M 1036.8 768.96 
L 1036.8 103.68 
" style="fill:none;stroke:#000000;stroke-linecap:square;stroke-linejoin:miter;stroke-width:0.8;"/>
   </g>
   <g id="patch_5">
    <path d="M 144 768.96 
L 1036.8 768.96 
" style="fill:none;stroke:#000000;stroke-linecap:square;stroke-linejoin:miter;stroke-width:0.8;"/>
   </g>
   <g id="patch_6">
    <path d="M 144 103.68 
L 1036.8 103.68 
" style="fill:none;stroke:#000000;stroke-linecap:square;stroke-linejoin:miter;stroke-width:0.8;"/>
   </g>
  </g>
 </g>
 <defs>
  <clipPath id="p201ab1c25e">
   <rect height="665.28" width="892.8" x="144" y="103.68"/>
  </clipPath>
 </defs>
</svg>
