<?xml version="1.0" encoding="utf-8" standalone="no"?>
<!DOCTYPE svg PUBLIC "-//W3C//DTD SVG 1.1//EN"
  "http://www.w3.org/Graphics/SVG/1.1/DTD/svg11.dtd">
<!-- Created with matplotlib (http://matplotlib.org/) -->
<svg height="864pt" version="1.1" viewBox="0 0 1152 864" width="1152pt" xmlns="http://www.w3.org/2000/svg" xmlns:xlink="http://www.w3.org/1999/xlink">
 <defs>
  <style type="text/css">
*{stroke-linecap:butt;stroke-linejoin:round;}
  </style>
 </defs>
 <g id="figure_1">
  <g id="patch_1">
   <path d="M 0 864 
L 1152 864 
L 1152 0 
L 0 0 
z
" style="fill:#ffffff;"/>
  </g>
  <g id="axes_1">
   <g id="patch_2">
    <path d="M 144 768.96 
L 1036.8 768.96 
L 1036.8 103.68 
L 144 103.68 
z
" style="fill:#ffffff;"/>
   </g>
   <g id="matplotlib.axis_1">
    <g id="xtick_1">
     <g id="line2d_1">
      <defs>
       <path d="M 0 0 
L 0 3.5 
" id="m3723e81dcf" style="stroke:#000000;stroke-width:0.8;"/>
      </defs>
      <g>
       <use style="stroke:#000000;stroke-width:0.8;" x="207.771429" xlink:href="#m3723e81dcf" y="768.96"/>
      </g>
     </g>
     <g id="text_1">
      <!-- −6000 -->
      <defs>
       <path d="M 10.59375 35.5 
L 73.1875 35.5 
L 73.1875 27.203125 
L 10.59375 27.203125 
z
" id="DejaVuSans-2212"/>
       <path d="M 33.015625 40.375 
Q 26.375 40.375 22.484375 35.828125 
Q 18.609375 31.296875 18.609375 23.390625 
Q 18.609375 15.53125 22.484375 10.953125 
Q 26.375 6.390625 33.015625 6.390625 
Q 39.65625 6.390625 43.53125 10.953125 
Q 47.40625 15.53125 47.40625 23.390625 
Q 47.40625 31.296875 43.53125 35.828125 
Q 39.65625 40.375 33.015625 40.375 
z
M 52.59375 71.296875 
L 52.59375 62.3125 
Q 48.875 64.0625 45.09375 64.984375 
Q 41.3125 65.921875 37.59375 65.921875 
Q 27.828125 65.921875 22.671875 59.328125 
Q 17.53125 52.734375 16.796875 39.40625 
Q 19.671875 43.65625 24.015625 45.921875 
Q 28.375 48.1875 33.59375 48.1875 
Q 44.578125 48.1875 50.953125 41.515625 
Q 57.328125 34.859375 57.328125 23.390625 
Q 57.328125 12.15625 50.6875 5.359375 
Q 44.046875 -1.421875 33.015625 -1.421875 
Q 20.359375 -1.421875 13.671875 8.265625 
Q 6.984375 17.96875 6.984375 36.375 
Q 6.984375 53.65625 15.1875 63.9375 
Q 23.390625 74.21875 37.203125 74.21875 
Q 40.921875 74.21875 44.703125 73.484375 
Q 48.484375 72.75 52.59375 71.296875 
z
" id="DejaVuSans-36"/>
       <path d="M 31.78125 66.40625 
Q 24.171875 66.40625 20.328125 58.90625 
Q 16.5 51.421875 16.5 36.375 
Q 16.5 21.390625 20.328125 13.890625 
Q 24.171875 6.390625 31.78125 6.390625 
Q 39.453125 6.390625 43.28125 13.890625 
Q 47.125 21.390625 47.125 36.375 
Q 47.125 51.421875 43.28125 58.90625 
Q 39.453125 66.40625 31.78125 66.40625 
z
M 31.78125 74.21875 
Q 44.046875 74.21875 50.515625 64.515625 
Q 56.984375 54.828125 56.984375 36.375 
Q 56.984375 17.96875 50.515625 8.265625 
Q 44.046875 -1.421875 31.78125 -1.421875 
Q 19.53125 -1.421875 13.0625 8.265625 
Q 6.59375 17.96875 6.59375 36.375 
Q 6.59375 54.828125 13.0625 64.515625 
Q 19.53125 74.21875 31.78125 74.21875 
z
" id="DejaVuSans-30"/>
      </defs>
      <g transform="translate(190.856585 783.558437)scale(0.1 -0.1)">
       <use xlink:href="#DejaVuSans-2212"/>
       <use x="83.789062" xlink:href="#DejaVuSans-36"/>
       <use x="147.412109" xlink:href="#DejaVuSans-30"/>
       <use x="211.035156" xlink:href="#DejaVuSans-30"/>
       <use x="274.658203" xlink:href="#DejaVuSans-30"/>
      </g>
     </g>
    </g>
    <g id="xtick_2">
     <g id="line2d_2">
      <g>
       <use style="stroke:#000000;stroke-width:0.8;" x="335.314286" xlink:href="#m3723e81dcf" y="768.96"/>
      </g>
     </g>
     <g id="text_2">
      <!-- −4000 -->
      <defs>
       <path d="M 37.796875 64.3125 
L 12.890625 25.390625 
L 37.796875 25.390625 
z
M 35.203125 72.90625 
L 47.609375 72.90625 
L 47.609375 25.390625 
L 58.015625 25.390625 
L 58.015625 17.1875 
L 47.609375 17.1875 
L 47.609375 0 
L 37.796875 0 
L 37.796875 17.1875 
L 4.890625 17.1875 
L 4.890625 26.703125 
z
" id="DejaVuSans-34"/>
      </defs>
      <g transform="translate(318.399442 783.558437)scale(0.1 -0.1)">
       <use xlink:href="#DejaVuSans-2212"/>
       <use x="83.789062" xlink:href="#DejaVuSans-34"/>
       <use x="147.412109" xlink:href="#DejaVuSans-30"/>
       <use x="211.035156" xlink:href="#DejaVuSans-30"/>
       <use x="274.658203" xlink:href="#DejaVuSans-30"/>
      </g>
     </g>
    </g>
    <g id="xtick_3">
     <g id="line2d_3">
      <g>
       <use style="stroke:#000000;stroke-width:0.8;" x="462.857143" xlink:href="#m3723e81dcf" y="768.96"/>
      </g>
     </g>
     <g id="text_3">
      <!-- −2000 -->
      <defs>
       <path d="M 19.1875 8.296875 
L 53.609375 8.296875 
L 53.609375 0 
L 7.328125 0 
L 7.328125 8.296875 
Q 12.9375 14.109375 22.625 23.890625 
Q 32.328125 33.6875 34.8125 36.53125 
Q 39.546875 41.84375 41.421875 45.53125 
Q 43.3125 49.21875 43.3125 52.78125 
Q 43.3125 58.59375 39.234375 62.25 
Q 35.15625 65.921875 28.609375 65.921875 
Q 23.96875 65.921875 18.8125 64.3125 
Q 13.671875 62.703125 7.8125 59.421875 
L 7.8125 69.390625 
Q 13.765625 71.78125 18.9375 73 
Q 24.125 74.21875 28.421875 74.21875 
Q 39.75 74.21875 46.484375 68.546875 
Q 53.21875 62.890625 53.21875 53.421875 
Q 53.21875 48.921875 51.53125 44.890625 
Q 49.859375 40.875 45.40625 35.40625 
Q 44.1875 33.984375 37.640625 27.21875 
Q 31.109375 20.453125 19.1875 8.296875 
z
" id="DejaVuSans-32"/>
      </defs>
      <g transform="translate(445.942299 783.558437)scale(0.1 -0.1)">
       <use xlink:href="#DejaVuSans-2212"/>
       <use x="83.789062" xlink:href="#DejaVuSans-32"/>
       <use x="147.412109" xlink:href="#DejaVuSans-30"/>
       <use x="211.035156" xlink:href="#DejaVuSans-30"/>
       <use x="274.658203" xlink:href="#DejaVuSans-30"/>
      </g>
     </g>
    </g>
    <g id="xtick_4">
     <g id="line2d_4">
      <g>
       <use style="stroke:#000000;stroke-width:0.8;" x="590.4" xlink:href="#m3723e81dcf" y="768.96"/>
      </g>
     </g>
     <g id="text_4">
      <!-- 0 -->
      <g transform="translate(587.21875 783.558437)scale(0.1 -0.1)">
       <use xlink:href="#DejaVuSans-30"/>
      </g>
     </g>
    </g>
    <g id="xtick_5">
     <g id="line2d_5">
      <g>
       <use style="stroke:#000000;stroke-width:0.8;" x="717.942857" xlink:href="#m3723e81dcf" y="768.96"/>
      </g>
     </g>
     <g id="text_5">
      <!-- 2000 -->
      <g transform="translate(705.217857 783.558437)scale(0.1 -0.1)">
       <use xlink:href="#DejaVuSans-32"/>
       <use x="63.623047" xlink:href="#DejaVuSans-30"/>
       <use x="127.246094" xlink:href="#DejaVuSans-30"/>
       <use x="190.869141" xlink:href="#DejaVuSans-30"/>
      </g>
     </g>
    </g>
    <g id="xtick_6">
     <g id="line2d_6">
      <g>
       <use style="stroke:#000000;stroke-width:0.8;" x="845.485714" xlink:href="#m3723e81dcf" y="768.96"/>
      </g>
     </g>
     <g id="text_6">
      <!-- 4000 -->
      <g transform="translate(832.760714 783.558437)scale(0.1 -0.1)">
       <use xlink:href="#DejaVuSans-34"/>
       <use x="63.623047" xlink:href="#DejaVuSans-30"/>
       <use x="127.246094" xlink:href="#DejaVuSans-30"/>
       <use x="190.869141" xlink:href="#DejaVuSans-30"/>
      </g>
     </g>
    </g>
    <g id="xtick_7">
     <g id="line2d_7">
      <g>
       <use style="stroke:#000000;stroke-width:0.8;" x="973.028571" xlink:href="#m3723e81dcf" y="768.96"/>
      </g>
     </g>
     <g id="text_7">
      <!-- 6000 -->
      <g transform="translate(960.303571 783.558437)scale(0.1 -0.1)">
       <use xlink:href="#DejaVuSans-36"/>
       <use x="63.623047" xlink:href="#DejaVuSans-30"/>
       <use x="127.246094" xlink:href="#DejaVuSans-30"/>
       <use x="190.869141" xlink:href="#DejaVuSans-30"/>
      </g>
     </g>
    </g>
   </g>
   <g id="matplotlib.axis_2">
    <g id="ytick_1">
     <g id="line2d_8">
      <defs>
       <path d="M 0 0 
L -3.5 0 
" id="mfd5bac21fe" style="stroke:#000000;stroke-width:0.8;"/>
      </defs>
      <g>
       <use style="stroke:#000000;stroke-width:0.8;" x="144" xlink:href="#mfd5bac21fe" y="721.44"/>
      </g>
     </g>
     <g id="text_8">
      <!-- −6000 -->
      <g transform="translate(103.170312 725.239219)scale(0.1 -0.1)">
       <use xlink:href="#DejaVuSans-2212"/>
       <use x="83.789062" xlink:href="#DejaVuSans-36"/>
       <use x="147.412109" xlink:href="#DejaVuSans-30"/>
       <use x="211.035156" xlink:href="#DejaVuSans-30"/>
       <use x="274.658203" xlink:href="#DejaVuSans-30"/>
      </g>
     </g>
    </g>
    <g id="ytick_2">
     <g id="line2d_9">
      <g>
       <use style="stroke:#000000;stroke-width:0.8;" x="144" xlink:href="#mfd5bac21fe" y="626.4"/>
      </g>
     </g>
     <g id="text_9">
      <!-- −4000 -->
      <g transform="translate(103.170312 630.199219)scale(0.1 -0.1)">
       <use xlink:href="#DejaVuSans-2212"/>
       <use x="83.789062" xlink:href="#DejaVuSans-34"/>
       <use x="147.412109" xlink:href="#DejaVuSans-30"/>
       <use x="211.035156" xlink:href="#DejaVuSans-30"/>
       <use x="274.658203" xlink:href="#DejaVuSans-30"/>
      </g>
     </g>
    </g>
    <g id="ytick_3">
     <g id="line2d_10">
      <g>
       <use style="stroke:#000000;stroke-width:0.8;" x="144" xlink:href="#mfd5bac21fe" y="531.36"/>
      </g>
     </g>
     <g id="text_10">
      <!-- −2000 -->
      <g transform="translate(103.170312 535.159219)scale(0.1 -0.1)">
       <use xlink:href="#DejaVuSans-2212"/>
       <use x="83.789062" xlink:href="#DejaVuSans-32"/>
       <use x="147.412109" xlink:href="#DejaVuSans-30"/>
       <use x="211.035156" xlink:href="#DejaVuSans-30"/>
       <use x="274.658203" xlink:href="#DejaVuSans-30"/>
      </g>
     </g>
    </g>
    <g id="ytick_4">
     <g id="line2d_11">
      <g>
       <use style="stroke:#000000;stroke-width:0.8;" x="144" xlink:href="#mfd5bac21fe" y="436.32"/>
      </g>
     </g>
     <g id="text_11">
      <!-- 0 -->
      <g transform="translate(130.6375 440.119219)scale(0.1 -0.1)">
       <use xlink:href="#DejaVuSans-30"/>
      </g>
     </g>
    </g>
    <g id="ytick_5">
     <g id="line2d_12">
      <g>
       <use style="stroke:#000000;stroke-width:0.8;" x="144" xlink:href="#mfd5bac21fe" y="341.28"/>
      </g>
     </g>
     <g id="text_12">
      <!-- 2000 -->
      <g transform="translate(111.55 345.079219)scale(0.1 -0.1)">
       <use xlink:href="#DejaVuSans-32"/>
       <use x="63.623047" xlink:href="#DejaVuSans-30"/>
       <use x="127.246094" xlink:href="#DejaVuSans-30"/>
       <use x="190.869141" xlink:href="#DejaVuSans-30"/>
      </g>
     </g>
    </g>
    <g id="ytick_6">
     <g id="line2d_13">
      <g>
       <use style="stroke:#000000;stroke-width:0.8;" x="144" xlink:href="#mfd5bac21fe" y="246.24"/>
      </g>
     </g>
     <g id="text_13">
      <!-- 4000 -->
      <g transform="translate(111.55 250.039219)scale(0.1 -0.1)">
       <use xlink:href="#DejaVuSans-34"/>
       <use x="63.623047" xlink:href="#DejaVuSans-30"/>
       <use x="127.246094" xlink:href="#DejaVuSans-30"/>
       <use x="190.869141" xlink:href="#DejaVuSans-30"/>
      </g>
     </g>
    </g>
    <g id="ytick_7">
     <g id="line2d_14">
      <g>
       <use style="stroke:#000000;stroke-width:0.8;" x="144" xlink:href="#mfd5bac21fe" y="151.2"/>
      </g>
     </g>
     <g id="text_14">
      <!-- 6000 -->
      <g transform="translate(111.55 154.999219)scale(0.1 -0.1)">
       <use xlink:href="#DejaVuSans-36"/>
       <use x="63.623047" xlink:href="#DejaVuSans-30"/>
       <use x="127.246094" xlink:href="#DejaVuSans-30"/>
       <use x="190.869141" xlink:href="#DejaVuSans-30"/>
      </g>
     </g>
    </g>
   </g>
   <g id="line2d_15">
    <path clip-path="url(#p34307630b7)" d="M 590.4 768.96 
L 590.4 103.68 
" style="fill:none;stroke:#1f77b4;stroke-linecap:square;stroke-width:1.5;"/>
   </g>
   <g id="line2d_16">
    <path clip-path="url(#p34307630b7)" d="M 144 436.32 
L 1036.8 436.32 
" style="fill:none;stroke:#1f77b4;stroke-linecap:square;stroke-width:1.5;"/>
   </g>
   <g id="line2d_17">
    <defs>
     <path d="M 0 1.333333 
C 0.353604 1.333333 0.692773 1.192845 0.942809 0.942809 
C 1.192845 0.692773 1.333333 0.353604 1.333333 0 
C 1.333333 -0.353604 1.192845 -0.692773 0.942809 -0.942809 
C 0.692773 -1.192845 0.353604 -1.333333 0 -1.333333 
C -0.353604 -1.333333 -0.692773 -1.192845 -0.942809 -0.942809 
C -1.192845 -0.692773 -1.333333 -0.353604 -1.333333 0 
C -1.333333 0.353604 -1.192845 0.692773 -0.942809 0.942809 
C -0.692773 1.192845 -0.353604 1.333333 0 1.333333 
z
" id="m322a7d697e" style="stroke:#ff0000;"/>
    </defs>
    <g clip-path="url(#p34307630b7)">
     <use style="fill:#ff0000;stroke:#ff0000;" x="694.076088" xlink:href="#m322a7d697e" y="436.130386"/>
     <use style="fill:#ff0000;stroke:#ff0000;" x="691.60757" xlink:href="#m322a7d697e" y="416.486624"/>
     <use style="fill:#ff0000;stroke:#ff0000;" x="939.518947" xlink:href="#m322a7d697e" y="314.923715"/>
     <use style="fill:#ff0000;stroke:#ff0000;" x="886.311158" xlink:href="#m322a7d697e" y="315.583301"/>
     <use style="fill:#ff0000;stroke:#ff0000;" x="841.659081" xlink:href="#m322a7d697e" y="317.472504"/>
     <use style="fill:#ff0000;stroke:#ff0000;" x="689.280835" xlink:href="#m322a7d697e" y="381.829152"/>
     <use style="fill:#ff0000;stroke:#ff0000;" x="792.90047" xlink:href="#m322a7d697e" y="310.960694"/>
     <use style="fill:#ff0000;stroke:#ff0000;" x="769.812634" xlink:href="#m322a7d697e" y="309.866748"/>
     <use style="fill:#ff0000;stroke:#ff0000;" x="683.332637" xlink:href="#m322a7d697e" y="307.944089"/>
     <use style="fill:#ff0000;stroke:#ff0000;" x="632.886483" xlink:href="#m322a7d697e" y="306.63286"/>
     <use style="fill:#ff0000;stroke:#ff0000;" x="616.858058" xlink:href="#m322a7d697e" y="324.507725"/>
     <use style="fill:#ff0000;stroke:#ff0000;" x="609.740138" xlink:href="#m322a7d697e" y="306.042651"/>
     <use style="fill:#ff0000;stroke:#ff0000;" x="470.896252" xlink:href="#m322a7d697e" y="303.205132"/>
     <use style="fill:#ff0000;stroke:#ff0000;" x="453.680954" xlink:href="#m322a7d697e" y="303.17483"/>
     <use style="fill:#ff0000;stroke:#ff0000;" x="433.820854" xlink:href="#m322a7d697e" y="302.541511"/>
     <use style="fill:#ff0000;stroke:#ff0000;" x="397.407597" xlink:href="#m322a7d697e" y="308.386395"/>
     <use style="fill:#ff0000;stroke:#ff0000;" x="389.977855" xlink:href="#m322a7d697e" y="319.834113"/>
     <use style="fill:#ff0000;stroke:#ff0000;" x="392.076043" xlink:href="#m322a7d697e" y="348.834121"/>
     <use style="fill:#ff0000;stroke:#ff0000;" x="373.300342" xlink:href="#m322a7d697e" y="353.94746"/>
     <use style="fill:#ff0000;stroke:#ff0000;" x="383.564817" xlink:href="#m322a7d697e" y="392.44344"/>
     <use style="fill:#ff0000;stroke:#ff0000;" x="368.902163" xlink:href="#m322a7d697e" y="422.19729"/>
     <use style="fill:#ff0000;stroke:#ff0000;" x="537.166927" xlink:href="#m322a7d697e" y="436.233459"/>
     <use style="fill:#ff0000;stroke:#ff0000;" x="537.242397" xlink:href="#m322a7d697e" y="451.935663"/>
     <use style="fill:#ff0000;stroke:#ff0000;" x="396.59217" xlink:href="#m322a7d697e" y="524.33269"/>
     <use style="fill:#ff0000;stroke:#ff0000;" x="430.3592" xlink:href="#m322a7d697e" y="520.018114"/>
     <use style="fill:#ff0000;stroke:#ff0000;" x="458.694937" xlink:href="#m322a7d697e" y="538.059504"/>
     <use style="fill:#ff0000;stroke:#ff0000;" x="498.729487" xlink:href="#m322a7d697e" y="517.054861"/>
     <use style="fill:#ff0000;stroke:#ff0000;" x="520.832363" xlink:href="#m322a7d697e" y="528.649003"/>
     <use style="fill:#ff0000;stroke:#ff0000;" x="543.986941" xlink:href="#m322a7d697e" y="522.326315"/>
     <use style="fill:#ff0000;stroke:#ff0000;" x="547.535451" xlink:href="#m322a7d697e" y="532.565987"/>
     <use style="fill:#ff0000;stroke:#ff0000;" x="557.336526" xlink:href="#m322a7d697e" y="530.003998"/>
     <use style="fill:#ff0000;stroke:#ff0000;" x="567.532884" xlink:href="#m322a7d697e" y="523.727054"/>
     <use style="fill:#ff0000;stroke:#ff0000;" x="572.501355" xlink:href="#m322a7d697e" y="537.841369"/>
     <use style="fill:#ff0000;stroke:#ff0000;" x="580.983315" xlink:href="#m322a7d697e" y="540.759222"/>
     <use style="fill:#ff0000;stroke:#ff0000;" x="590.170466" xlink:href="#m322a7d697e" y="525.918797"/>
     <use style="fill:#ff0000;stroke:#ff0000;" x="607.049741" xlink:href="#m322a7d697e" y="534.918691"/>
     <use style="fill:#ff0000;stroke:#ff0000;" x="611.889368" xlink:href="#m322a7d697e" y="519.182453"/>
     <use style="fill:#ff0000;stroke:#ff0000;" x="664.182959" xlink:href="#m322a7d697e" y="522.207562"/>
     <use style="fill:#ff0000;stroke:#ff0000;" x="699.003686" xlink:href="#m322a7d697e" y="547.451691"/>
     <use style="fill:#ff0000;stroke:#ff0000;" x="738.982256" xlink:href="#m322a7d697e" y="515.567854"/>
     <use style="fill:#ff0000;stroke:#ff0000;" x="761.909454" xlink:href="#m322a7d697e" y="516.082792"/>
     <use style="fill:#ff0000;stroke:#ff0000;" x="789.868557" xlink:href="#m322a7d697e" y="516.655891"/>
     <use style="fill:#ff0000;stroke:#ff0000;" x="921.56468" xlink:href="#m322a7d697e" y="550.818257"/>
     <use style="fill:#ff0000;stroke:#ff0000;" x="934.383371" xlink:href="#m322a7d697e" y="499.709045"/>
     <use style="fill:#ff0000;stroke:#ff0000;" x="932.937236" xlink:href="#m322a7d697e" y="482.691586"/>
    </g>
   </g>
   <g id="line2d_18">
    <defs>
     <path d="M -0.5 0.5 
L 0.5 0.5 
L 0.5 -0.5 
L -0.5 -0.5 
z
" id="m8d833d21c5" style="stroke:#1f77b4;stroke-linejoin:miter;"/>
    </defs>
    <g clip-path="url(#p34307630b7)">
     <use style="fill:#1f77b4;stroke:#1f77b4;stroke-linejoin:miter;" x="694.076088" xlink:href="#m8d833d21c5" y="436.130386"/>
     <use style="fill:#1f77b4;stroke:#1f77b4;stroke-linejoin:miter;" x="688.737042" xlink:href="#m8d833d21c5" y="431.396747"/>
     <use style="fill:#1f77b4;stroke:#1f77b4;stroke-linejoin:miter;" x="688.470328" xlink:href="#m8d833d21c5" y="426.739617"/>
     <use style="fill:#1f77b4;stroke:#1f77b4;stroke-linejoin:miter;" x="687.643765" xlink:href="#m8d833d21c5" y="422.091151"/>
     <use style="fill:#1f77b4;stroke:#1f77b4;stroke-linejoin:miter;" x="691.60757" xlink:href="#m8d833d21c5" y="416.486624"/>
     <use style="fill:#1f77b4;stroke:#1f77b4;stroke-linejoin:miter;" x="939.518947" xlink:href="#m8d833d21c5" y="314.923715"/>
     <use style="fill:#1f77b4;stroke:#1f77b4;stroke-linejoin:miter;" x="886.311158" xlink:href="#m8d833d21c5" y="315.583301"/>
     <use style="fill:#1f77b4;stroke:#1f77b4;stroke-linejoin:miter;" x="841.659081" xlink:href="#m8d833d21c5" y="317.472504"/>
     <use style="fill:#1f77b4;stroke:#1f77b4;stroke-linejoin:miter;" x="689.280835" xlink:href="#m8d833d21c5" y="381.829152"/>
     <use style="fill:#1f77b4;stroke:#1f77b4;stroke-linejoin:miter;" x="792.90047" xlink:href="#m8d833d21c5" y="310.960694"/>
     <use style="fill:#1f77b4;stroke:#1f77b4;stroke-linejoin:miter;" x="769.812634" xlink:href="#m8d833d21c5" y="309.866748"/>
     <use style="fill:#1f77b4;stroke:#1f77b4;stroke-linejoin:miter;" x="683.332637" xlink:href="#m8d833d21c5" y="307.944089"/>
     <use style="fill:#1f77b4;stroke:#1f77b4;stroke-linejoin:miter;" x="669.679637" xlink:href="#m8d833d21c5" y="307.713058"/>
     <use style="fill:#1f77b4;stroke:#1f77b4;stroke-linejoin:miter;" x="657.054239" xlink:href="#m8d833d21c5" y="307.035414"/>
     <use style="fill:#1f77b4;stroke:#1f77b4;stroke-linejoin:miter;" x="644.688503" xlink:href="#m8d833d21c5" y="307.158058"/>
     <use style="fill:#1f77b4;stroke:#1f77b4;stroke-linejoin:miter;" x="632.886483" xlink:href="#m8d833d21c5" y="306.63286"/>
     <use style="fill:#1f77b4;stroke:#1f77b4;stroke-linejoin:miter;" x="616.858058" xlink:href="#m8d833d21c5" y="324.507725"/>
     <use style="fill:#1f77b4;stroke:#1f77b4;stroke-linejoin:miter;" x="609.740138" xlink:href="#m8d833d21c5" y="306.042651"/>
     <use style="fill:#1f77b4;stroke:#1f77b4;stroke-linejoin:miter;" x="598.561852" xlink:href="#m8d833d21c5" y="304.449615"/>
     <use style="fill:#1f77b4;stroke:#1f77b4;stroke-linejoin:miter;" x="587.310688" xlink:href="#m8d833d21c5" y="304.43645"/>
     <use style="fill:#1f77b4;stroke:#1f77b4;stroke-linejoin:miter;" x="575.95413" xlink:href="#m8d833d21c5" y="304.15308"/>
     <use style="fill:#1f77b4;stroke:#1f77b4;stroke-linejoin:miter;" x="564.513758" xlink:href="#m8d833d21c5" y="304.297439"/>
     <use style="fill:#1f77b4;stroke:#1f77b4;stroke-linejoin:miter;" x="552.887722" xlink:href="#m8d833d21c5" y="303.92548"/>
     <use style="fill:#1f77b4;stroke:#1f77b4;stroke-linejoin:miter;" x="540.513186" xlink:href="#m8d833d21c5" y="303.262745"/>
     <use style="fill:#1f77b4;stroke:#1f77b4;stroke-linejoin:miter;" x="527.85267" xlink:href="#m8d833d21c5" y="302.73859"/>
     <use style="fill:#1f77b4;stroke:#1f77b4;stroke-linejoin:miter;" x="514.730493" xlink:href="#m8d833d21c5" y="302.673019"/>
     <use style="fill:#1f77b4;stroke:#1f77b4;stroke-linejoin:miter;" x="500.5893" xlink:href="#m8d833d21c5" y="302.000591"/>
     <use style="fill:#1f77b4;stroke:#1f77b4;stroke-linejoin:miter;" x="486.650748" xlink:href="#m8d833d21c5" y="303.254637"/>
     <use style="fill:#1f77b4;stroke:#1f77b4;stroke-linejoin:miter;" x="470.896252" xlink:href="#m8d833d21c5" y="303.205132"/>
     <use style="fill:#1f77b4;stroke:#1f77b4;stroke-linejoin:miter;" x="453.680954" xlink:href="#m8d833d21c5" y="303.17483"/>
     <use style="fill:#1f77b4;stroke:#1f77b4;stroke-linejoin:miter;" x="433.820854" xlink:href="#m8d833d21c5" y="302.541511"/>
     <use style="fill:#1f77b4;stroke:#1f77b4;stroke-linejoin:miter;" x="397.407597" xlink:href="#m8d833d21c5" y="308.386395"/>
     <use style="fill:#1f77b4;stroke:#1f77b4;stroke-linejoin:miter;" x="389.977855" xlink:href="#m8d833d21c5" y="319.834113"/>
     <use style="fill:#1f77b4;stroke:#1f77b4;stroke-linejoin:miter;" x="392.076043" xlink:href="#m8d833d21c5" y="348.834121"/>
     <use style="fill:#1f77b4;stroke:#1f77b4;stroke-linejoin:miter;" x="373.300342" xlink:href="#m8d833d21c5" y="353.94746"/>
     <use style="fill:#1f77b4;stroke:#1f77b4;stroke-linejoin:miter;" x="383.564817" xlink:href="#m8d833d21c5" y="392.44344"/>
     <use style="fill:#1f77b4;stroke:#1f77b4;stroke-linejoin:miter;" x="373.128795" xlink:href="#m8d833d21c5" y="401.260066"/>
     <use style="fill:#1f77b4;stroke:#1f77b4;stroke-linejoin:miter;" x="369.113562" xlink:href="#m8d833d21c5" y="411.446505"/>
     <use style="fill:#1f77b4;stroke:#1f77b4;stroke-linejoin:miter;" x="368.902163" xlink:href="#m8d833d21c5" y="422.19729"/>
     <use style="fill:#1f77b4;stroke:#1f77b4;stroke-linejoin:miter;" x="537.166927" xlink:href="#m8d833d21c5" y="436.233459"/>
     <use style="fill:#1f77b4;stroke:#1f77b4;stroke-linejoin:miter;" x="537.137017" xlink:href="#m8d833d21c5" y="438.725787"/>
     <use style="fill:#1f77b4;stroke:#1f77b4;stroke-linejoin:miter;" x="537.421482" xlink:href="#m8d833d21c5" y="441.265616"/>
     <use style="fill:#1f77b4;stroke:#1f77b4;stroke-linejoin:miter;" x="537.373113" xlink:href="#m8d833d21c5" y="443.855386"/>
     <use style="fill:#1f77b4;stroke:#1f77b4;stroke-linejoin:miter;" x="537.597304" xlink:href="#m8d833d21c5" y="446.449925"/>
     <use style="fill:#1f77b4;stroke:#1f77b4;stroke-linejoin:miter;" x="537.537537" xlink:href="#m8d833d21c5" y="449.142688"/>
     <use style="fill:#1f77b4;stroke:#1f77b4;stroke-linejoin:miter;" x="537.242397" xlink:href="#m8d833d21c5" y="451.935663"/>
     <use style="fill:#1f77b4;stroke:#1f77b4;stroke-linejoin:miter;" x="396.59217" xlink:href="#m8d833d21c5" y="524.33269"/>
     <use style="fill:#1f77b4;stroke:#1f77b4;stroke-linejoin:miter;" x="430.3592" xlink:href="#m8d833d21c5" y="520.018114"/>
     <use style="fill:#1f77b4;stroke:#1f77b4;stroke-linejoin:miter;" x="443.502332" xlink:href="#m8d833d21c5" y="524.12384"/>
     <use style="fill:#1f77b4;stroke:#1f77b4;stroke-linejoin:miter;" x="445.838939" xlink:href="#m8d833d21c5" y="534.543097"/>
     <use style="fill:#1f77b4;stroke:#1f77b4;stroke-linejoin:miter;" x="458.694937" xlink:href="#m8d833d21c5" y="538.059504"/>
     <use style="fill:#1f77b4;stroke:#1f77b4;stroke-linejoin:miter;" x="498.729487" xlink:href="#m8d833d21c5" y="517.054861"/>
     <use style="fill:#1f77b4;stroke:#1f77b4;stroke-linejoin:miter;" x="508.260885" xlink:href="#m8d833d21c5" y="518.894991"/>
     <use style="fill:#1f77b4;stroke:#1f77b4;stroke-linejoin:miter;" x="510.910977" xlink:href="#m8d833d21c5" y="527.693072"/>
     <use style="fill:#1f77b4;stroke:#1f77b4;stroke-linejoin:miter;" x="520.832363" xlink:href="#m8d833d21c5" y="528.649003"/>
     <use style="fill:#1f77b4;stroke:#1f77b4;stroke-linejoin:miter;" x="543.986941" xlink:href="#m8d833d21c5" y="522.326315"/>
     <use style="fill:#1f77b4;stroke:#1f77b4;stroke-linejoin:miter;" x="547.535451" xlink:href="#m8d833d21c5" y="532.565987"/>
     <use style="fill:#1f77b4;stroke:#1f77b4;stroke-linejoin:miter;" x="557.336526" xlink:href="#m8d833d21c5" y="530.003998"/>
     <use style="fill:#1f77b4;stroke:#1f77b4;stroke-linejoin:miter;" x="567.532884" xlink:href="#m8d833d21c5" y="523.727054"/>
     <use style="fill:#1f77b4;stroke:#1f77b4;stroke-linejoin:miter;" x="572.501355" xlink:href="#m8d833d21c5" y="537.841369"/>
     <use style="fill:#1f77b4;stroke:#1f77b4;stroke-linejoin:miter;" x="580.983315" xlink:href="#m8d833d21c5" y="540.759222"/>
     <use style="fill:#1f77b4;stroke:#1f77b4;stroke-linejoin:miter;" x="590.170466" xlink:href="#m8d833d21c5" y="525.918797"/>
     <use style="fill:#1f77b4;stroke:#1f77b4;stroke-linejoin:miter;" x="598.37914" xlink:href="#m8d833d21c5" y="535.303947"/>
     <use style="fill:#1f77b4;stroke:#1f77b4;stroke-linejoin:miter;" x="607.049741" xlink:href="#m8d833d21c5" y="534.918691"/>
     <use style="fill:#1f77b4;stroke:#1f77b4;stroke-linejoin:miter;" x="611.889368" xlink:href="#m8d833d21c5" y="519.182453"/>
     <use style="fill:#1f77b4;stroke:#1f77b4;stroke-linejoin:miter;" x="619.670534" xlink:href="#m8d833d21c5" y="519.998618"/>
     <use style="fill:#1f77b4;stroke:#1f77b4;stroke-linejoin:miter;" x="626.94176" xlink:href="#m8d833d21c5" y="518.896073"/>
     <use style="fill:#1f77b4;stroke:#1f77b4;stroke-linejoin:miter;" x="636.172504" xlink:href="#m8d833d21c5" y="521.340204"/>
     <use style="fill:#1f77b4;stroke:#1f77b4;stroke-linejoin:miter;" x="645.117376" xlink:href="#m8d833d21c5" y="522.103768"/>
     <use style="fill:#1f77b4;stroke:#1f77b4;stroke-linejoin:miter;" x="654.561735" xlink:href="#m8d833d21c5" y="522.462204"/>
     <use style="fill:#1f77b4;stroke:#1f77b4;stroke-linejoin:miter;" x="664.182959" xlink:href="#m8d833d21c5" y="522.207562"/>
     <use style="fill:#1f77b4;stroke:#1f77b4;stroke-linejoin:miter;" x="699.003686" xlink:href="#m8d833d21c5" y="547.451691"/>
     <use style="fill:#1f77b4;stroke:#1f77b4;stroke-linejoin:miter;" x="705.513071" xlink:href="#m8d833d21c5" y="539.399408"/>
     <use style="fill:#1f77b4;stroke:#1f77b4;stroke-linejoin:miter;" x="711.553707" xlink:href="#m8d833d21c5" y="531.818717"/>
     <use style="fill:#1f77b4;stroke:#1f77b4;stroke-linejoin:miter;" x="733.427314" xlink:href="#m8d833d21c5" y="523.738018"/>
     <use style="fill:#1f77b4;stroke:#1f77b4;stroke-linejoin:miter;" x="738.982256" xlink:href="#m8d833d21c5" y="515.567854"/>
     <use style="fill:#1f77b4;stroke:#1f77b4;stroke-linejoin:miter;" x="761.909454" xlink:href="#m8d833d21c5" y="516.082792"/>
     <use style="fill:#1f77b4;stroke:#1f77b4;stroke-linejoin:miter;" x="789.868557" xlink:href="#m8d833d21c5" y="516.655891"/>
     <use style="fill:#1f77b4;stroke:#1f77b4;stroke-linejoin:miter;" x="921.56468" xlink:href="#m8d833d21c5" y="550.818257"/>
     <use style="fill:#1f77b4;stroke:#1f77b4;stroke-linejoin:miter;" x="934.383371" xlink:href="#m8d833d21c5" y="499.709045"/>
     <use style="fill:#1f77b4;stroke:#1f77b4;stroke-linejoin:miter;" x="932.937236" xlink:href="#m8d833d21c5" y="482.691586"/>
    </g>
   </g>
   <g id="patch_3">
    <path d="M 144 768.96 
L 144 103.68 
" style="fill:none;stroke:#000000;stroke-linecap:square;stroke-linejoin:miter;stroke-width:0.8;"/>
   </g>
   <g id="patch_4">
    <path d="M 1036.8 768.96 
L 1036.8 103.68 
" style="fill:none;stroke:#000000;stroke-linecap:square;stroke-linejoin:miter;stroke-width:0.8;"/>
   </g>
   <g id="patch_5">
    <path d="M 144 768.96 
L 1036.8 768.96 
" style="fill:none;stroke:#000000;stroke-linecap:square;stroke-linejoin:miter;stroke-width:0.8;"/>
   </g>
   <g id="patch_6">
    <path d="M 144 103.68 
L 1036.8 103.68 
" style="fill:none;stroke:#000000;stroke-linecap:square;stroke-linejoin:miter;stroke-width:0.8;"/>
   </g>
  </g>
 </g>
 <defs>
  <clipPath id="p34307630b7">
   <rect height="665.28" width="892.8" x="144" y="103.68"/>
  </clipPath>
 </defs>
</svg>
