<?xml version="1.0" encoding="utf-8" standalone="no"?>
<!DOCTYPE svg PUBLIC "-//W3C//DTD SVG 1.1//EN"
  "http://www.w3.org/Graphics/SVG/1.1/DTD/svg11.dtd">
<!-- Created with matplotlib (http://matplotlib.org/) -->
<svg height="864pt" version="1.1" viewBox="0 0 1152 864" width="1152pt" xmlns="http://www.w3.org/2000/svg" xmlns:xlink="http://www.w3.org/1999/xlink">
 <defs>
  <style type="text/css">
*{stroke-linecap:butt;stroke-linejoin:round;}
  </style>
 </defs>
 <g id="figure_1">
  <g id="patch_1">
   <path d="M 0 864 
L 1152 864 
L 1152 0 
L 0 0 
z
" style="fill:#ffffff;"/>
  </g>
  <g id="axes_1">
   <g id="patch_2">
    <path d="M 144 768.96 
L 1036.8 768.96 
L 1036.8 103.68 
L 144 103.68 
z
" style="fill:#ffffff;"/>
   </g>
   <g id="matplotlib.axis_1">
    <g id="xtick_1">
     <g id="line2d_1">
      <defs>
       <path d="M 0 0 
L 0 3.5 
" id="m0a5d316c32" style="stroke:#000000;stroke-width:0.8;"/>
      </defs>
      <g>
       <use style="stroke:#000000;stroke-width:0.8;" x="207.771429" xlink:href="#m0a5d316c32" y="768.96"/>
      </g>
     </g>
     <g id="text_1">
      <!-- −6000 -->
      <defs>
       <path d="M 10.59375 35.5 
L 73.1875 35.5 
L 73.1875 27.203125 
L 10.59375 27.203125 
z
" id="DejaVuSans-2212"/>
       <path d="M 33.015625 40.375 
Q 26.375 40.375 22.484375 35.828125 
Q 18.609375 31.296875 18.609375 23.390625 
Q 18.609375 15.53125 22.484375 10.953125 
Q 26.375 6.390625 33.015625 6.390625 
Q 39.65625 6.390625 43.53125 10.953125 
Q 47.40625 15.53125 47.40625 23.390625 
Q 47.40625 31.296875 43.53125 35.828125 
Q 39.65625 40.375 33.015625 40.375 
z
M 52.59375 71.296875 
L 52.59375 62.3125 
Q 48.875 64.0625 45.09375 64.984375 
Q 41.3125 65.921875 37.59375 65.921875 
Q 27.828125 65.921875 22.671875 59.328125 
Q 17.53125 52.734375 16.796875 39.40625 
Q 19.671875 43.65625 24.015625 45.921875 
Q 28.375 48.1875 33.59375 48.1875 
Q 44.578125 48.1875 50.953125 41.515625 
Q 57.328125 34.859375 57.328125 23.390625 
Q 57.328125 12.15625 50.6875 5.359375 
Q 44.046875 -1.421875 33.015625 -1.421875 
Q 20.359375 -1.421875 13.671875 8.265625 
Q 6.984375 17.96875 6.984375 36.375 
Q 6.984375 53.65625 15.1875 63.9375 
Q 23.390625 74.21875 37.203125 74.21875 
Q 40.921875 74.21875 44.703125 73.484375 
Q 48.484375 72.75 52.59375 71.296875 
z
" id="DejaVuSans-36"/>
       <path d="M 31.78125 66.40625 
Q 24.171875 66.40625 20.328125 58.90625 
Q 16.5 51.421875 16.5 36.375 
Q 16.5 21.390625 20.328125 13.890625 
Q 24.171875 6.390625 31.78125 6.390625 
Q 39.453125 6.390625 43.28125 13.890625 
Q 47.125 21.390625 47.125 36.375 
Q 47.125 51.421875 43.28125 58.90625 
Q 39.453125 66.40625 31.78125 66.40625 
z
M 31.78125 74.21875 
Q 44.046875 74.21875 50.515625 64.515625 
Q 56.984375 54.828125 56.984375 36.375 
Q 56.984375 17.96875 50.515625 8.265625 
Q 44.046875 -1.421875 31.78125 -1.421875 
Q 19.53125 -1.421875 13.0625 8.265625 
Q 6.59375 17.96875 6.59375 36.375 
Q 6.59375 54.828125 13.0625 64.515625 
Q 19.53125 74.21875 31.78125 74.21875 
z
" id="DejaVuSans-30"/>
      </defs>
      <g transform="translate(190.856585 783.558437)scale(0.1 -0.1)">
       <use xlink:href="#DejaVuSans-2212"/>
       <use x="83.789062" xlink:href="#DejaVuSans-36"/>
       <use x="147.412109" xlink:href="#DejaVuSans-30"/>
       <use x="211.035156" xlink:href="#DejaVuSans-30"/>
       <use x="274.658203" xlink:href="#DejaVuSans-30"/>
      </g>
     </g>
    </g>
    <g id="xtick_2">
     <g id="line2d_2">
      <g>
       <use style="stroke:#000000;stroke-width:0.8;" x="335.314286" xlink:href="#m0a5d316c32" y="768.96"/>
      </g>
     </g>
     <g id="text_2">
      <!-- −4000 -->
      <defs>
       <path d="M 37.796875 64.3125 
L 12.890625 25.390625 
L 37.796875 25.390625 
z
M 35.203125 72.90625 
L 47.609375 72.90625 
L 47.609375 25.390625 
L 58.015625 25.390625 
L 58.015625 17.1875 
L 47.609375 17.1875 
L 47.609375 0 
L 37.796875 0 
L 37.796875 17.1875 
L 4.890625 17.1875 
L 4.890625 26.703125 
z
" id="DejaVuSans-34"/>
      </defs>
      <g transform="translate(318.399442 783.558437)scale(0.1 -0.1)">
       <use xlink:href="#DejaVuSans-2212"/>
       <use x="83.789062" xlink:href="#DejaVuSans-34"/>
       <use x="147.412109" xlink:href="#DejaVuSans-30"/>
       <use x="211.035156" xlink:href="#DejaVuSans-30"/>
       <use x="274.658203" xlink:href="#DejaVuSans-30"/>
      </g>
     </g>
    </g>
    <g id="xtick_3">
     <g id="line2d_3">
      <g>
       <use style="stroke:#000000;stroke-width:0.8;" x="462.857143" xlink:href="#m0a5d316c32" y="768.96"/>
      </g>
     </g>
     <g id="text_3">
      <!-- −2000 -->
      <defs>
       <path d="M 19.1875 8.296875 
L 53.609375 8.296875 
L 53.609375 0 
L 7.328125 0 
L 7.328125 8.296875 
Q 12.9375 14.109375 22.625 23.890625 
Q 32.328125 33.6875 34.8125 36.53125 
Q 39.546875 41.84375 41.421875 45.53125 
Q 43.3125 49.21875 43.3125 52.78125 
Q 43.3125 58.59375 39.234375 62.25 
Q 35.15625 65.921875 28.609375 65.921875 
Q 23.96875 65.921875 18.8125 64.3125 
Q 13.671875 62.703125 7.8125 59.421875 
L 7.8125 69.390625 
Q 13.765625 71.78125 18.9375 73 
Q 24.125 74.21875 28.421875 74.21875 
Q 39.75 74.21875 46.484375 68.546875 
Q 53.21875 62.890625 53.21875 53.421875 
Q 53.21875 48.921875 51.53125 44.890625 
Q 49.859375 40.875 45.40625 35.40625 
Q 44.1875 33.984375 37.640625 27.21875 
Q 31.109375 20.453125 19.1875 8.296875 
z
" id="DejaVuSans-32"/>
      </defs>
      <g transform="translate(445.942299 783.558437)scale(0.1 -0.1)">
       <use xlink:href="#DejaVuSans-2212"/>
       <use x="83.789062" xlink:href="#DejaVuSans-32"/>
       <use x="147.412109" xlink:href="#DejaVuSans-30"/>
       <use x="211.035156" xlink:href="#DejaVuSans-30"/>
       <use x="274.658203" xlink:href="#DejaVuSans-30"/>
      </g>
     </g>
    </g>
    <g id="xtick_4">
     <g id="line2d_4">
      <g>
       <use style="stroke:#000000;stroke-width:0.8;" x="590.4" xlink:href="#m0a5d316c32" y="768.96"/>
      </g>
     </g>
     <g id="text_4">
      <!-- 0 -->
      <g transform="translate(587.21875 783.558437)scale(0.1 -0.1)">
       <use xlink:href="#DejaVuSans-30"/>
      </g>
     </g>
    </g>
    <g id="xtick_5">
     <g id="line2d_5">
      <g>
       <use style="stroke:#000000;stroke-width:0.8;" x="717.942857" xlink:href="#m0a5d316c32" y="768.96"/>
      </g>
     </g>
     <g id="text_5">
      <!-- 2000 -->
      <g transform="translate(705.217857 783.558437)scale(0.1 -0.1)">
       <use xlink:href="#DejaVuSans-32"/>
       <use x="63.623047" xlink:href="#DejaVuSans-30"/>
       <use x="127.246094" xlink:href="#DejaVuSans-30"/>
       <use x="190.869141" xlink:href="#DejaVuSans-30"/>
      </g>
     </g>
    </g>
    <g id="xtick_6">
     <g id="line2d_6">
      <g>
       <use style="stroke:#000000;stroke-width:0.8;" x="845.485714" xlink:href="#m0a5d316c32" y="768.96"/>
      </g>
     </g>
     <g id="text_6">
      <!-- 4000 -->
      <g transform="translate(832.760714 783.558437)scale(0.1 -0.1)">
       <use xlink:href="#DejaVuSans-34"/>
       <use x="63.623047" xlink:href="#DejaVuSans-30"/>
       <use x="127.246094" xlink:href="#DejaVuSans-30"/>
       <use x="190.869141" xlink:href="#DejaVuSans-30"/>
      </g>
     </g>
    </g>
    <g id="xtick_7">
     <g id="line2d_7">
      <g>
       <use style="stroke:#000000;stroke-width:0.8;" x="973.028571" xlink:href="#m0a5d316c32" y="768.96"/>
      </g>
     </g>
     <g id="text_7">
      <!-- 6000 -->
      <g transform="translate(960.303571 783.558437)scale(0.1 -0.1)">
       <use xlink:href="#DejaVuSans-36"/>
       <use x="63.623047" xlink:href="#DejaVuSans-30"/>
       <use x="127.246094" xlink:href="#DejaVuSans-30"/>
       <use x="190.869141" xlink:href="#DejaVuSans-30"/>
      </g>
     </g>
    </g>
   </g>
   <g id="matplotlib.axis_2">
    <g id="ytick_1">
     <g id="line2d_8">
      <defs>
       <path d="M 0 0 
L -3.5 0 
" id="m5b0081a1bc" style="stroke:#000000;stroke-width:0.8;"/>
      </defs>
      <g>
       <use style="stroke:#000000;stroke-width:0.8;" x="144" xlink:href="#m5b0081a1bc" y="721.44"/>
      </g>
     </g>
     <g id="text_8">
      <!-- −6000 -->
      <g transform="translate(103.170312 725.239219)scale(0.1 -0.1)">
       <use xlink:href="#DejaVuSans-2212"/>
       <use x="83.789062" xlink:href="#DejaVuSans-36"/>
       <use x="147.412109" xlink:href="#DejaVuSans-30"/>
       <use x="211.035156" xlink:href="#DejaVuSans-30"/>
       <use x="274.658203" xlink:href="#DejaVuSans-30"/>
      </g>
     </g>
    </g>
    <g id="ytick_2">
     <g id="line2d_9">
      <g>
       <use style="stroke:#000000;stroke-width:0.8;" x="144" xlink:href="#m5b0081a1bc" y="626.4"/>
      </g>
     </g>
     <g id="text_9">
      <!-- −4000 -->
      <g transform="translate(103.170312 630.199219)scale(0.1 -0.1)">
       <use xlink:href="#DejaVuSans-2212"/>
       <use x="83.789062" xlink:href="#DejaVuSans-34"/>
       <use x="147.412109" xlink:href="#DejaVuSans-30"/>
       <use x="211.035156" xlink:href="#DejaVuSans-30"/>
       <use x="274.658203" xlink:href="#DejaVuSans-30"/>
      </g>
     </g>
    </g>
    <g id="ytick_3">
     <g id="line2d_10">
      <g>
       <use style="stroke:#000000;stroke-width:0.8;" x="144" xlink:href="#m5b0081a1bc" y="531.36"/>
      </g>
     </g>
     <g id="text_10">
      <!-- −2000 -->
      <g transform="translate(103.170312 535.159219)scale(0.1 -0.1)">
       <use xlink:href="#DejaVuSans-2212"/>
       <use x="83.789062" xlink:href="#DejaVuSans-32"/>
       <use x="147.412109" xlink:href="#DejaVuSans-30"/>
       <use x="211.035156" xlink:href="#DejaVuSans-30"/>
       <use x="274.658203" xlink:href="#DejaVuSans-30"/>
      </g>
     </g>
    </g>
    <g id="ytick_4">
     <g id="line2d_11">
      <g>
       <use style="stroke:#000000;stroke-width:0.8;" x="144" xlink:href="#m5b0081a1bc" y="436.32"/>
      </g>
     </g>
     <g id="text_11">
      <!-- 0 -->
      <g transform="translate(130.6375 440.119219)scale(0.1 -0.1)">
       <use xlink:href="#DejaVuSans-30"/>
      </g>
     </g>
    </g>
    <g id="ytick_5">
     <g id="line2d_12">
      <g>
       <use style="stroke:#000000;stroke-width:0.8;" x="144" xlink:href="#m5b0081a1bc" y="341.28"/>
      </g>
     </g>
     <g id="text_12">
      <!-- 2000 -->
      <g transform="translate(111.55 345.079219)scale(0.1 -0.1)">
       <use xlink:href="#DejaVuSans-32"/>
       <use x="63.623047" xlink:href="#DejaVuSans-30"/>
       <use x="127.246094" xlink:href="#DejaVuSans-30"/>
       <use x="190.869141" xlink:href="#DejaVuSans-30"/>
      </g>
     </g>
    </g>
    <g id="ytick_6">
     <g id="line2d_13">
      <g>
       <use style="stroke:#000000;stroke-width:0.8;" x="144" xlink:href="#m5b0081a1bc" y="246.24"/>
      </g>
     </g>
     <g id="text_13">
      <!-- 4000 -->
      <g transform="translate(111.55 250.039219)scale(0.1 -0.1)">
       <use xlink:href="#DejaVuSans-34"/>
       <use x="63.623047" xlink:href="#DejaVuSans-30"/>
       <use x="127.246094" xlink:href="#DejaVuSans-30"/>
       <use x="190.869141" xlink:href="#DejaVuSans-30"/>
      </g>
     </g>
    </g>
    <g id="ytick_7">
     <g id="line2d_14">
      <g>
       <use style="stroke:#000000;stroke-width:0.8;" x="144" xlink:href="#m5b0081a1bc" y="151.2"/>
      </g>
     </g>
     <g id="text_14">
      <!-- 6000 -->
      <g transform="translate(111.55 154.999219)scale(0.1 -0.1)">
       <use xlink:href="#DejaVuSans-36"/>
       <use x="63.623047" xlink:href="#DejaVuSans-30"/>
       <use x="127.246094" xlink:href="#DejaVuSans-30"/>
       <use x="190.869141" xlink:href="#DejaVuSans-30"/>
      </g>
     </g>
    </g>
   </g>
   <g id="line2d_15">
    <path clip-path="url(#p3dede192c6)" d="M 590.4 768.96 
L 590.4 103.68 
" style="fill:none;stroke:#1f77b4;stroke-linecap:square;stroke-width:1.5;"/>
   </g>
   <g id="line2d_16">
    <path clip-path="url(#p3dede192c6)" d="M 144 436.32 
L 1036.8 436.32 
" style="fill:none;stroke:#1f77b4;stroke-linecap:square;stroke-width:1.5;"/>
   </g>
   <g id="line2d_17">
    <defs>
     <path d="M 0 1.333333 
C 0.353604 1.333333 0.692773 1.192845 0.942809 0.942809 
C 1.192845 0.692773 1.333333 0.353604 1.333333 0 
C 1.333333 -0.353604 1.192845 -0.692773 0.942809 -0.942809 
C 0.692773 -1.192845 0.353604 -1.333333 0 -1.333333 
C -0.353604 -1.333333 -0.692773 -1.192845 -0.942809 -0.942809 
C -1.192845 -0.692773 -1.333333 -0.353604 -1.333333 0 
C -1.333333 0.353604 -1.192845 0.692773 -0.942809 0.942809 
C -0.692773 1.192845 -0.353604 1.333333 0 1.333333 
z
" id="mf2e2aaa7d2" style="stroke:#ff0000;"/>
    </defs>
    <g clip-path="url(#p3dede192c6)">
     <use style="fill:#ff0000;stroke:#ff0000;" x="648.288138" xlink:href="#mf2e2aaa7d2" y="441.592555"/>
     <use style="fill:#ff0000;stroke:#ff0000;" x="659.389393" xlink:href="#mf2e2aaa7d2" y="421.957498"/>
     <use style="fill:#ff0000;stroke:#ff0000;" x="940.35838" xlink:href="#mf2e2aaa7d2" y="316.273292"/>
     <use style="fill:#ff0000;stroke:#ff0000;" x="872.818915" xlink:href="#mf2e2aaa7d2" y="315.505712"/>
     <use style="fill:#ff0000;stroke:#ff0000;" x="834.186906" xlink:href="#mf2e2aaa7d2" y="320.937387"/>
     <use style="fill:#ff0000;stroke:#ff0000;" x="809.620664" xlink:href="#mf2e2aaa7d2" y="310.973489"/>
     <use style="fill:#ff0000;stroke:#ff0000;" x="789.361754" xlink:href="#mf2e2aaa7d2" y="311.640419"/>
     <use style="fill:#ff0000;stroke:#ff0000;" x="774.009326" xlink:href="#mf2e2aaa7d2" y="310.46756"/>
     <use style="fill:#ff0000;stroke:#ff0000;" x="678.340554" xlink:href="#mf2e2aaa7d2" y="307.710336"/>
     <use style="fill:#ff0000;stroke:#ff0000;" x="634.675621" xlink:href="#mf2e2aaa7d2" y="306.708149"/>
     <use style="fill:#ff0000;stroke:#ff0000;" x="614.34357" xlink:href="#mf2e2aaa7d2" y="325.240166"/>
     <use style="fill:#ff0000;stroke:#ff0000;" x="610.582383" xlink:href="#mf2e2aaa7d2" y="305.276516"/>
     <use style="fill:#ff0000;stroke:#ff0000;" x="457.027077" xlink:href="#mf2e2aaa7d2" y="302.544608"/>
     <use style="fill:#ff0000;stroke:#ff0000;" x="443.593016" xlink:href="#mf2e2aaa7d2" y="301.904468"/>
     <use style="fill:#ff0000;stroke:#ff0000;" x="407.493187" xlink:href="#mf2e2aaa7d2" y="308.316414"/>
     <use style="fill:#ff0000;stroke:#ff0000;" x="385.900865" xlink:href="#mf2e2aaa7d2" y="305.30619"/>
     <use style="fill:#ff0000;stroke:#ff0000;" x="391.722065" xlink:href="#mf2e2aaa7d2" y="320.197118"/>
     <use style="fill:#ff0000;stroke:#ff0000;" x="397.432541" xlink:href="#mf2e2aaa7d2" y="342.940461"/>
     <use style="fill:#ff0000;stroke:#ff0000;" x="374.797023" xlink:href="#mf2e2aaa7d2" y="351.233003"/>
     <use style="fill:#ff0000;stroke:#ff0000;" x="372.893085" xlink:href="#mf2e2aaa7d2" y="359.771087"/>
     <use style="fill:#ff0000;stroke:#ff0000;" x="406.62001" xlink:href="#mf2e2aaa7d2" y="392.976884"/>
     <use style="fill:#ff0000;stroke:#ff0000;" x="372.112775" xlink:href="#mf2e2aaa7d2" y="392.545373"/>
     <use style="fill:#ff0000;stroke:#ff0000;" x="367.745714" xlink:href="#mf2e2aaa7d2" y="429.665295"/>
     <use style="fill:#ff0000;stroke:#ff0000;" x="537.325922" xlink:href="#mf2e2aaa7d2" y="437.280076"/>
     <use style="fill:#ff0000;stroke:#ff0000;" x="537.229906" xlink:href="#mf2e2aaa7d2" y="451.976796"/>
     <use style="fill:#ff0000;stroke:#ff0000;" x="395.321232" xlink:href="#mf2e2aaa7d2" y="522.106883"/>
     <use style="fill:#ff0000;stroke:#ff0000;" x="414.472193" xlink:href="#mf2e2aaa7d2" y="521.963002"/>
     <use style="fill:#ff0000;stroke:#ff0000;" x="442.558043" xlink:href="#mf2e2aaa7d2" y="515.582642"/>
     <use style="fill:#ff0000;stroke:#ff0000;" x="458.807843" xlink:href="#mf2e2aaa7d2" y="537.529457"/>
     <use style="fill:#ff0000;stroke:#ff0000;" x="493.494098" xlink:href="#mf2e2aaa7d2" y="517.984018"/>
     <use style="fill:#ff0000;stroke:#ff0000;" x="521.949107" xlink:href="#mf2e2aaa7d2" y="529.233308"/>
     <use style="fill:#ff0000;stroke:#ff0000;" x="544.989108" xlink:href="#mf2e2aaa7d2" y="524.114151"/>
     <use style="fill:#ff0000;stroke:#ff0000;" x="547.41414" xlink:href="#mf2e2aaa7d2" y="531.533731"/>
     <use style="fill:#ff0000;stroke:#ff0000;" x="568.152556" xlink:href="#mf2e2aaa7d2" y="522.231333"/>
     <use style="fill:#ff0000;stroke:#ff0000;" x="571.149876" xlink:href="#mf2e2aaa7d2" y="533.02241"/>
     <use style="fill:#ff0000;stroke:#ff0000;" x="581.945792" xlink:href="#mf2e2aaa7d2" y="540.721625"/>
     <use style="fill:#ff0000;stroke:#ff0000;" x="588.729504" xlink:href="#mf2e2aaa7d2" y="525.815264"/>
     <use style="fill:#ff0000;stroke:#ff0000;" x="606.261278" xlink:href="#mf2e2aaa7d2" y="535.026738"/>
     <use style="fill:#ff0000;stroke:#ff0000;" x="609.047779" xlink:href="#mf2e2aaa7d2" y="519.63598"/>
     <use style="fill:#ff0000;stroke:#ff0000;" x="672.038708" xlink:href="#mf2e2aaa7d2" y="524.318954"/>
     <use style="fill:#ff0000;stroke:#ff0000;" x="700.56869" xlink:href="#mf2e2aaa7d2" y="545.138142"/>
     <use style="fill:#ff0000;stroke:#ff0000;" x="729.113154" xlink:href="#mf2e2aaa7d2" y="523.920632"/>
     <use style="fill:#ff0000;stroke:#ff0000;" x="743.338038" xlink:href="#mf2e2aaa7d2" y="524.709201"/>
     <use style="fill:#ff0000;stroke:#ff0000;" x="742.017897" xlink:href="#mf2e2aaa7d2" y="515.705114"/>
     <use style="fill:#ff0000;stroke:#ff0000;" x="759.68658" xlink:href="#mf2e2aaa7d2" y="516.925766"/>
     <use style="fill:#ff0000;stroke:#ff0000;" x="777.55506" xlink:href="#mf2e2aaa7d2" y="517.14222"/>
     <use style="fill:#ff0000;stroke:#ff0000;" x="799.955065" xlink:href="#mf2e2aaa7d2" y="517.878565"/>
     <use style="fill:#ff0000;stroke:#ff0000;" x="919.420132" xlink:href="#mf2e2aaa7d2" y="551.461106"/>
     <use style="fill:#ff0000;stroke:#ff0000;" x="928.507561" xlink:href="#mf2e2aaa7d2" y="541.242813"/>
     <use style="fill:#ff0000;stroke:#ff0000;" x="934.405784" xlink:href="#mf2e2aaa7d2" y="481.087271"/>
    </g>
   </g>
   <g id="line2d_18">
    <defs>
     <path d="M -0.5 0.5 
L 0.5 0.5 
L 0.5 -0.5 
L -0.5 -0.5 
z
" id="m8c0b11b18d" style="stroke:#1f77b4;stroke-linejoin:miter;"/>
    </defs>
    <g clip-path="url(#p3dede192c6)">
     <use style="fill:#1f77b4;stroke:#1f77b4;stroke-linejoin:miter;" x="648.288138" xlink:href="#m8c0b11b18d" y="441.592555"/>
     <use style="fill:#1f77b4;stroke:#1f77b4;stroke-linejoin:miter;" x="646.420087" xlink:href="#m8c0b11b18d" y="439.502254"/>
     <use style="fill:#1f77b4;stroke:#1f77b4;stroke-linejoin:miter;" x="646.856299" xlink:href="#m8c0b11b18d" y="437.674229"/>
     <use style="fill:#1f77b4;stroke:#1f77b4;stroke-linejoin:miter;" x="647.503014" xlink:href="#m8c0b11b18d" y="435.797795"/>
     <use style="fill:#1f77b4;stroke:#1f77b4;stroke-linejoin:miter;" x="649.156705" xlink:href="#m8c0b11b18d" y="433.917649"/>
     <use style="fill:#1f77b4;stroke:#1f77b4;stroke-linejoin:miter;" x="648.731716" xlink:href="#m8c0b11b18d" y="431.979068"/>
     <use style="fill:#1f77b4;stroke:#1f77b4;stroke-linejoin:miter;" x="649.23568" xlink:href="#m8c0b11b18d" y="429.963202"/>
     <use style="fill:#1f77b4;stroke:#1f77b4;stroke-linejoin:miter;" x="650.79359" xlink:href="#m8c0b11b18d" y="427.82677"/>
     <use style="fill:#1f77b4;stroke:#1f77b4;stroke-linejoin:miter;" x="654.895669" xlink:href="#m8c0b11b18d" y="425.058766"/>
     <use style="fill:#1f77b4;stroke:#1f77b4;stroke-linejoin:miter;" x="659.389393" xlink:href="#m8c0b11b18d" y="421.957498"/>
     <use style="fill:#1f77b4;stroke:#1f77b4;stroke-linejoin:miter;" x="940.35838" xlink:href="#m8c0b11b18d" y="316.273292"/>
     <use style="fill:#1f77b4;stroke:#1f77b4;stroke-linejoin:miter;" x="872.818915" xlink:href="#m8c0b11b18d" y="315.505712"/>
     <use style="fill:#1f77b4;stroke:#1f77b4;stroke-linejoin:miter;" x="834.186906" xlink:href="#m8c0b11b18d" y="320.937387"/>
     <use style="fill:#1f77b4;stroke:#1f77b4;stroke-linejoin:miter;" x="809.620664" xlink:href="#m8c0b11b18d" y="310.973489"/>
     <use style="fill:#1f77b4;stroke:#1f77b4;stroke-linejoin:miter;" x="789.361754" xlink:href="#m8c0b11b18d" y="311.640419"/>
     <use style="fill:#1f77b4;stroke:#1f77b4;stroke-linejoin:miter;" x="774.009326" xlink:href="#m8c0b11b18d" y="310.46756"/>
     <use style="fill:#1f77b4;stroke:#1f77b4;stroke-linejoin:miter;" x="678.340554" xlink:href="#m8c0b11b18d" y="307.710336"/>
     <use style="fill:#1f77b4;stroke:#1f77b4;stroke-linejoin:miter;" x="668.907939" xlink:href="#m8c0b11b18d" y="307.672292"/>
     <use style="fill:#1f77b4;stroke:#1f77b4;stroke-linejoin:miter;" x="660.176915" xlink:href="#m8c0b11b18d" y="307.120792"/>
     <use style="fill:#1f77b4;stroke:#1f77b4;stroke-linejoin:miter;" x="650.722235" xlink:href="#m8c0b11b18d" y="308.388689"/>
     <use style="fill:#1f77b4;stroke:#1f77b4;stroke-linejoin:miter;" x="643.059338" xlink:href="#m8c0b11b18d" y="306.709604"/>
     <use style="fill:#1f77b4;stroke:#1f77b4;stroke-linejoin:miter;" x="634.675621" xlink:href="#m8c0b11b18d" y="306.708149"/>
     <use style="fill:#1f77b4;stroke:#1f77b4;stroke-linejoin:miter;" x="614.34357" xlink:href="#m8c0b11b18d" y="325.240166"/>
     <use style="fill:#1f77b4;stroke:#1f77b4;stroke-linejoin:miter;" x="610.582383" xlink:href="#m8c0b11b18d" y="305.276516"/>
     <use style="fill:#1f77b4;stroke:#1f77b4;stroke-linejoin:miter;" x="602.826801" xlink:href="#m8c0b11b18d" y="303.896245"/>
     <use style="fill:#1f77b4;stroke:#1f77b4;stroke-linejoin:miter;" x="594.917137" xlink:href="#m8c0b11b18d" y="305.041625"/>
     <use style="fill:#1f77b4;stroke:#1f77b4;stroke-linejoin:miter;" x="587.106098" xlink:href="#m8c0b11b18d" y="303.975799"/>
     <use style="fill:#1f77b4;stroke:#1f77b4;stroke-linejoin:miter;" x="579.214167" xlink:href="#m8c0b11b18d" y="304.180028"/>
     <use style="fill:#1f77b4;stroke:#1f77b4;stroke-linejoin:miter;" x="571.199041" xlink:href="#m8c0b11b18d" y="304.346198"/>
     <use style="fill:#1f77b4;stroke:#1f77b4;stroke-linejoin:miter;" x="563.178935" xlink:href="#m8c0b11b18d" y="303.569225"/>
     <use style="fill:#1f77b4;stroke:#1f77b4;stroke-linejoin:miter;" x="555.012968" xlink:href="#m8c0b11b18d" y="303.564654"/>
     <use style="fill:#1f77b4;stroke:#1f77b4;stroke-linejoin:miter;" x="546.597301" xlink:href="#m8c0b11b18d" y="303.558456"/>
     <use style="fill:#1f77b4;stroke:#1f77b4;stroke-linejoin:miter;" x="537.923605" xlink:href="#m8c0b11b18d" y="302.974931"/>
     <use style="fill:#1f77b4;stroke:#1f77b4;stroke-linejoin:miter;" x="529.081445" xlink:href="#m8c0b11b18d" y="302.673705"/>
     <use style="fill:#1f77b4;stroke:#1f77b4;stroke-linejoin:miter;" x="519.81547" xlink:href="#m8c0b11b18d" y="302.259319"/>
     <use style="fill:#1f77b4;stroke:#1f77b4;stroke-linejoin:miter;" x="510.372447" xlink:href="#m8c0b11b18d" y="302.085664"/>
     <use style="fill:#1f77b4;stroke:#1f77b4;stroke-linejoin:miter;" x="500.39686" xlink:href="#m8c0b11b18d" y="301.620766"/>
     <use style="fill:#1f77b4;stroke:#1f77b4;stroke-linejoin:miter;" x="490.880839" xlink:href="#m8c0b11b18d" y="302.707655"/>
     <use style="fill:#1f77b4;stroke:#1f77b4;stroke-linejoin:miter;" x="480.178876" xlink:href="#m8c0b11b18d" y="302.537719"/>
     <use style="fill:#1f77b4;stroke:#1f77b4;stroke-linejoin:miter;" x="468.958541" xlink:href="#m8c0b11b18d" y="302.630287"/>
     <use style="fill:#1f77b4;stroke:#1f77b4;stroke-linejoin:miter;" x="457.027077" xlink:href="#m8c0b11b18d" y="302.544608"/>
     <use style="fill:#1f77b4;stroke:#1f77b4;stroke-linejoin:miter;" x="443.593016" xlink:href="#m8c0b11b18d" y="301.904468"/>
     <use style="fill:#1f77b4;stroke:#1f77b4;stroke-linejoin:miter;" x="429.421034" xlink:href="#m8c0b11b18d" y="301.773803"/>
     <use style="fill:#1f77b4;stroke:#1f77b4;stroke-linejoin:miter;" x="417.643391" xlink:href="#m8c0b11b18d" y="304.17338"/>
     <use style="fill:#1f77b4;stroke:#1f77b4;stroke-linejoin:miter;" x="407.493187" xlink:href="#m8c0b11b18d" y="308.316414"/>
     <use style="fill:#1f77b4;stroke:#1f77b4;stroke-linejoin:miter;" x="385.900865" xlink:href="#m8c0b11b18d" y="305.30619"/>
     <use style="fill:#1f77b4;stroke:#1f77b4;stroke-linejoin:miter;" x="391.722065" xlink:href="#m8c0b11b18d" y="320.197118"/>
     <use style="fill:#1f77b4;stroke:#1f77b4;stroke-linejoin:miter;" x="397.432541" xlink:href="#m8c0b11b18d" y="342.940461"/>
     <use style="fill:#1f77b4;stroke:#1f77b4;stroke-linejoin:miter;" x="392.26597" xlink:href="#m8c0b11b18d" y="349.623277"/>
     <use style="fill:#1f77b4;stroke:#1f77b4;stroke-linejoin:miter;" x="374.797023" xlink:href="#m8c0b11b18d" y="351.233003"/>
     <use style="fill:#1f77b4;stroke:#1f77b4;stroke-linejoin:miter;" x="372.893085" xlink:href="#m8c0b11b18d" y="359.771087"/>
     <use style="fill:#1f77b4;stroke:#1f77b4;stroke-linejoin:miter;" x="406.62001" xlink:href="#m8c0b11b18d" y="392.976884"/>
     <use style="fill:#1f77b4;stroke:#1f77b4;stroke-linejoin:miter;" x="372.112775" xlink:href="#m8c0b11b18d" y="392.545373"/>
     <use style="fill:#1f77b4;stroke:#1f77b4;stroke-linejoin:miter;" x="373.70727" xlink:href="#m8c0b11b18d" y="400.568929"/>
     <use style="fill:#1f77b4;stroke:#1f77b4;stroke-linejoin:miter;" x="369.528024" xlink:href="#m8c0b11b18d" y="407.484261"/>
     <use style="fill:#1f77b4;stroke:#1f77b4;stroke-linejoin:miter;" x="369.710535" xlink:href="#m8c0b11b18d" y="415.034733"/>
     <use style="fill:#1f77b4;stroke:#1f77b4;stroke-linejoin:miter;" x="369.320769" xlink:href="#m8c0b11b18d" y="422.314485"/>
     <use style="fill:#1f77b4;stroke:#1f77b4;stroke-linejoin:miter;" x="367.745714" xlink:href="#m8c0b11b18d" y="429.665295"/>
     <use style="fill:#1f77b4;stroke:#1f77b4;stroke-linejoin:miter;" x="537.325922" xlink:href="#m8c0b11b18d" y="437.280076"/>
     <use style="fill:#1f77b4;stroke:#1f77b4;stroke-linejoin:miter;" x="537.405788" xlink:href="#m8c0b11b18d" y="439.059714"/>
     <use style="fill:#1f77b4;stroke:#1f77b4;stroke-linejoin:miter;" x="537.334747" xlink:href="#m8c0b11b18d" y="440.825262"/>
     <use style="fill:#1f77b4;stroke:#1f77b4;stroke-linejoin:miter;" x="537.372428" xlink:href="#m8c0b11b18d" y="442.61156"/>
     <use style="fill:#1f77b4;stroke:#1f77b4;stroke-linejoin:miter;" x="537.27572" xlink:href="#m8c0b11b18d" y="444.407627"/>
     <use style="fill:#1f77b4;stroke:#1f77b4;stroke-linejoin:miter;" x="537.502244" xlink:href="#m8c0b11b18d" y="446.17069"/>
     <use style="fill:#1f77b4;stroke:#1f77b4;stroke-linejoin:miter;" x="537.118555" xlink:href="#m8c0b11b18d" y="448.057093"/>
     <use style="fill:#1f77b4;stroke:#1f77b4;stroke-linejoin:miter;" x="537.554583" xlink:href="#m8c0b11b18d" y="449.89107"/>
     <use style="fill:#1f77b4;stroke:#1f77b4;stroke-linejoin:miter;" x="537.229906" xlink:href="#m8c0b11b18d" y="451.976796"/>
     <use style="fill:#1f77b4;stroke:#1f77b4;stroke-linejoin:miter;" x="395.321232" xlink:href="#m8c0b11b18d" y="522.106883"/>
     <use style="fill:#1f77b4;stroke:#1f77b4;stroke-linejoin:miter;" x="414.472193" xlink:href="#m8c0b11b18d" y="521.963002"/>
     <use style="fill:#1f77b4;stroke:#1f77b4;stroke-linejoin:miter;" x="442.558043" xlink:href="#m8c0b11b18d" y="515.582642"/>
     <use style="fill:#1f77b4;stroke:#1f77b4;stroke-linejoin:miter;" x="447.633052" xlink:href="#m8c0b11b18d" y="528.138428"/>
     <use style="fill:#1f77b4;stroke:#1f77b4;stroke-linejoin:miter;" x="447.46194" xlink:href="#m8c0b11b18d" y="536.790505"/>
     <use style="fill:#1f77b4;stroke:#1f77b4;stroke-linejoin:miter;" x="458.807843" xlink:href="#m8c0b11b18d" y="537.529457"/>
     <use style="fill:#1f77b4;stroke:#1f77b4;stroke-linejoin:miter;" x="493.494098" xlink:href="#m8c0b11b18d" y="517.984018"/>
     <use style="fill:#1f77b4;stroke:#1f77b4;stroke-linejoin:miter;" x="502.917971" xlink:href="#m8c0b11b18d" y="517.045564"/>
     <use style="fill:#1f77b4;stroke:#1f77b4;stroke-linejoin:miter;" x="507.359859" xlink:href="#m8c0b11b18d" y="520.422423"/>
     <use style="fill:#1f77b4;stroke:#1f77b4;stroke-linejoin:miter;" x="510.376064" xlink:href="#m8c0b11b18d" y="525.195961"/>
     <use style="fill:#1f77b4;stroke:#1f77b4;stroke-linejoin:miter;" x="521.949107" xlink:href="#m8c0b11b18d" y="529.233308"/>
     <use style="fill:#1f77b4;stroke:#1f77b4;stroke-linejoin:miter;" x="544.989108" xlink:href="#m8c0b11b18d" y="524.114151"/>
     <use style="fill:#1f77b4;stroke:#1f77b4;stroke-linejoin:miter;" x="547.41414" xlink:href="#m8c0b11b18d" y="531.533731"/>
     <use style="fill:#1f77b4;stroke:#1f77b4;stroke-linejoin:miter;" x="568.152556" xlink:href="#m8c0b11b18d" y="522.231333"/>
     <use style="fill:#1f77b4;stroke:#1f77b4;stroke-linejoin:miter;" x="571.149876" xlink:href="#m8c0b11b18d" y="533.02241"/>
     <use style="fill:#1f77b4;stroke:#1f77b4;stroke-linejoin:miter;" x="575.726466" xlink:href="#m8c0b11b18d" y="540.6251"/>
     <use style="fill:#1f77b4;stroke:#1f77b4;stroke-linejoin:miter;" x="581.945792" xlink:href="#m8c0b11b18d" y="540.721625"/>
     <use style="fill:#1f77b4;stroke:#1f77b4;stroke-linejoin:miter;" x="588.729504" xlink:href="#m8c0b11b18d" y="525.815264"/>
     <use style="fill:#1f77b4;stroke:#1f77b4;stroke-linejoin:miter;" x="600.196643" xlink:href="#m8c0b11b18d" y="535.284762"/>
     <use style="fill:#1f77b4;stroke:#1f77b4;stroke-linejoin:miter;" x="606.261278" xlink:href="#m8c0b11b18d" y="535.026738"/>
     <use style="fill:#1f77b4;stroke:#1f77b4;stroke-linejoin:miter;" x="609.047779" xlink:href="#m8c0b11b18d" y="519.63598"/>
     <use style="fill:#1f77b4;stroke:#1f77b4;stroke-linejoin:miter;" x="614.088212" xlink:href="#m8c0b11b18d" y="519.031168"/>
     <use style="fill:#1f77b4;stroke:#1f77b4;stroke-linejoin:miter;" x="619.58406" xlink:href="#m8c0b11b18d" y="520.125853"/>
     <use style="fill:#1f77b4;stroke:#1f77b4;stroke-linejoin:miter;" x="624.218265" xlink:href="#m8c0b11b18d" y="518.345499"/>
     <use style="fill:#1f77b4;stroke:#1f77b4;stroke-linejoin:miter;" x="631.140547" xlink:href="#m8c0b11b18d" y="521.679063"/>
     <use style="fill:#1f77b4;stroke:#1f77b4;stroke-linejoin:miter;" x="637.183953" xlink:href="#m8c0b11b18d" y="521.932529"/>
     <use style="fill:#1f77b4;stroke:#1f77b4;stroke-linejoin:miter;" x="643.31173" xlink:href="#m8c0b11b18d" y="522.338544"/>
     <use style="fill:#1f77b4;stroke:#1f77b4;stroke-linejoin:miter;" x="649.369707" xlink:href="#m8c0b11b18d" y="521.982602"/>
     <use style="fill:#1f77b4;stroke:#1f77b4;stroke-linejoin:miter;" x="656.347308" xlink:href="#m8c0b11b18d" y="522.736657"/>
     <use style="fill:#1f77b4;stroke:#1f77b4;stroke-linejoin:miter;" x="663.825085" xlink:href="#m8c0b11b18d" y="523.403617"/>
     <use style="fill:#1f77b4;stroke:#1f77b4;stroke-linejoin:miter;" x="672.038708" xlink:href="#m8c0b11b18d" y="524.318954"/>
     <use style="fill:#1f77b4;stroke:#1f77b4;stroke-linejoin:miter;" x="700.56869" xlink:href="#m8c0b11b18d" y="545.138142"/>
     <use style="fill:#1f77b4;stroke:#1f77b4;stroke-linejoin:miter;" x="704.60986" xlink:href="#m8c0b11b18d" y="539.216842"/>
     <use style="fill:#1f77b4;stroke:#1f77b4;stroke-linejoin:miter;" x="708.543735" xlink:href="#m8c0b11b18d" y="533.666103"/>
     <use style="fill:#1f77b4;stroke:#1f77b4;stroke-linejoin:miter;" x="713.290881" xlink:href="#m8c0b11b18d" y="528.897928"/>
     <use style="fill:#1f77b4;stroke:#1f77b4;stroke-linejoin:miter;" x="729.113154" xlink:href="#m8c0b11b18d" y="523.920632"/>
     <use style="fill:#1f77b4;stroke:#1f77b4;stroke-linejoin:miter;" x="743.338038" xlink:href="#m8c0b11b18d" y="524.709201"/>
     <use style="fill:#1f77b4;stroke:#1f77b4;stroke-linejoin:miter;" x="742.017897" xlink:href="#m8c0b11b18d" y="515.705114"/>
     <use style="fill:#1f77b4;stroke:#1f77b4;stroke-linejoin:miter;" x="759.68658" xlink:href="#m8c0b11b18d" y="516.925766"/>
     <use style="fill:#1f77b4;stroke:#1f77b4;stroke-linejoin:miter;" x="777.55506" xlink:href="#m8c0b11b18d" y="517.14222"/>
     <use style="fill:#1f77b4;stroke:#1f77b4;stroke-linejoin:miter;" x="799.955065" xlink:href="#m8c0b11b18d" y="517.878565"/>
     <use style="fill:#1f77b4;stroke:#1f77b4;stroke-linejoin:miter;" x="919.420132" xlink:href="#m8c0b11b18d" y="551.461106"/>
     <use style="fill:#1f77b4;stroke:#1f77b4;stroke-linejoin:miter;" x="928.507561" xlink:href="#m8c0b11b18d" y="541.242813"/>
     <use style="fill:#1f77b4;stroke:#1f77b4;stroke-linejoin:miter;" x="934.405784" xlink:href="#m8c0b11b18d" y="481.087271"/>
    </g>
   </g>
   <g id="patch_3">
    <path d="M 144 768.96 
L 144 103.68 
" style="fill:none;stroke:#000000;stroke-linecap:square;stroke-linejoin:miter;stroke-width:0.8;"/>
   </g>
   <g id="patch_4">
    <path d="M 1036.8 768.96 
L 1036.8 103.68 
" style="fill:none;stroke:#000000;stroke-linecap:square;stroke-linejoin:miter;stroke-width:0.8;"/>
   </g>
   <g id="patch_5">
    <path d="M 144 768.96 
L 1036.8 768.96 
" style="fill:none;stroke:#000000;stroke-linecap:square;stroke-linejoin:miter;stroke-width:0.8;"/>
   </g>
   <g id="patch_6">
    <path d="M 144 103.68 
L 1036.8 103.68 
" style="fill:none;stroke:#000000;stroke-linecap:square;stroke-linejoin:miter;stroke-width:0.8;"/>
   </g>
  </g>
 </g>
 <defs>
  <clipPath id="p3dede192c6">
   <rect height="665.28" width="892.8" x="144" y="103.68"/>
  </clipPath>
 </defs>
</svg>
