<?xml version="1.0" encoding="utf-8" standalone="no"?>
<!DOCTYPE svg PUBLIC "-//W3C//DTD SVG 1.1//EN"
  "http://www.w3.org/Graphics/SVG/1.1/DTD/svg11.dtd">
<!-- Created with matplotlib (http://matplotlib.org/) -->
<svg height="864pt" version="1.1" viewBox="0 0 1152 864" width="1152pt" xmlns="http://www.w3.org/2000/svg" xmlns:xlink="http://www.w3.org/1999/xlink">
 <defs>
  <style type="text/css">
*{stroke-linecap:butt;stroke-linejoin:round;}
  </style>
 </defs>
 <g id="figure_1">
  <g id="patch_1">
   <path d="M 0 864 
L 1152 864 
L 1152 0 
L 0 0 
z
" style="fill:#ffffff;"/>
  </g>
  <g id="axes_1">
   <g id="patch_2">
    <path d="M 144 768.96 
L 1036.8 768.96 
L 1036.8 103.68 
L 144 103.68 
z
" style="fill:#ffffff;"/>
   </g>
   <g id="matplotlib.axis_1">
    <g id="xtick_1">
     <g id="line2d_1">
      <defs>
       <path d="M 0 0 
L 0 3.5 
" id="m3ed4b9eacc" style="stroke:#000000;stroke-width:0.8;"/>
      </defs>
      <g>
       <use style="stroke:#000000;stroke-width:0.8;" x="207.771429" xlink:href="#m3ed4b9eacc" y="768.96"/>
      </g>
     </g>
     <g id="text_1">
      <!-- −6000 -->
      <defs>
       <path d="M 10.59375 35.5 
L 73.1875 35.5 
L 73.1875 27.203125 
L 10.59375 27.203125 
z
" id="DejaVuSans-2212"/>
       <path d="M 33.015625 40.375 
Q 26.375 40.375 22.484375 35.828125 
Q 18.609375 31.296875 18.609375 23.390625 
Q 18.609375 15.53125 22.484375 10.953125 
Q 26.375 6.390625 33.015625 6.390625 
Q 39.65625 6.390625 43.53125 10.953125 
Q 47.40625 15.53125 47.40625 23.390625 
Q 47.40625 31.296875 43.53125 35.828125 
Q 39.65625 40.375 33.015625 40.375 
z
M 52.59375 71.296875 
L 52.59375 62.3125 
Q 48.875 64.0625 45.09375 64.984375 
Q 41.3125 65.921875 37.59375 65.921875 
Q 27.828125 65.921875 22.671875 59.328125 
Q 17.53125 52.734375 16.796875 39.40625 
Q 19.671875 43.65625 24.015625 45.921875 
Q 28.375 48.1875 33.59375 48.1875 
Q 44.578125 48.1875 50.953125 41.515625 
Q 57.328125 34.859375 57.328125 23.390625 
Q 57.328125 12.15625 50.6875 5.359375 
Q 44.046875 -1.421875 33.015625 -1.421875 
Q 20.359375 -1.421875 13.671875 8.265625 
Q 6.984375 17.96875 6.984375 36.375 
Q 6.984375 53.65625 15.1875 63.9375 
Q 23.390625 74.21875 37.203125 74.21875 
Q 40.921875 74.21875 44.703125 73.484375 
Q 48.484375 72.75 52.59375 71.296875 
z
" id="DejaVuSans-36"/>
       <path d="M 31.78125 66.40625 
Q 24.171875 66.40625 20.328125 58.90625 
Q 16.5 51.421875 16.5 36.375 
Q 16.5 21.390625 20.328125 13.890625 
Q 24.171875 6.390625 31.78125 6.390625 
Q 39.453125 6.390625 43.28125 13.890625 
Q 47.125 21.390625 47.125 36.375 
Q 47.125 51.421875 43.28125 58.90625 
Q 39.453125 66.40625 31.78125 66.40625 
z
M 31.78125 74.21875 
Q 44.046875 74.21875 50.515625 64.515625 
Q 56.984375 54.828125 56.984375 36.375 
Q 56.984375 17.96875 50.515625 8.265625 
Q 44.046875 -1.421875 31.78125 -1.421875 
Q 19.53125 -1.421875 13.0625 8.265625 
Q 6.59375 17.96875 6.59375 36.375 
Q 6.59375 54.828125 13.0625 64.515625 
Q 19.53125 74.21875 31.78125 74.21875 
z
" id="DejaVuSans-30"/>
      </defs>
      <g transform="translate(190.856585 783.558437)scale(0.1 -0.1)">
       <use xlink:href="#DejaVuSans-2212"/>
       <use x="83.789062" xlink:href="#DejaVuSans-36"/>
       <use x="147.412109" xlink:href="#DejaVuSans-30"/>
       <use x="211.035156" xlink:href="#DejaVuSans-30"/>
       <use x="274.658203" xlink:href="#DejaVuSans-30"/>
      </g>
     </g>
    </g>
    <g id="xtick_2">
     <g id="line2d_2">
      <g>
       <use style="stroke:#000000;stroke-width:0.8;" x="335.314286" xlink:href="#m3ed4b9eacc" y="768.96"/>
      </g>
     </g>
     <g id="text_2">
      <!-- −4000 -->
      <defs>
       <path d="M 37.796875 64.3125 
L 12.890625 25.390625 
L 37.796875 25.390625 
z
M 35.203125 72.90625 
L 47.609375 72.90625 
L 47.609375 25.390625 
L 58.015625 25.390625 
L 58.015625 17.1875 
L 47.609375 17.1875 
L 47.609375 0 
L 37.796875 0 
L 37.796875 17.1875 
L 4.890625 17.1875 
L 4.890625 26.703125 
z
" id="DejaVuSans-34"/>
      </defs>
      <g transform="translate(318.399442 783.558437)scale(0.1 -0.1)">
       <use xlink:href="#DejaVuSans-2212"/>
       <use x="83.789062" xlink:href="#DejaVuSans-34"/>
       <use x="147.412109" xlink:href="#DejaVuSans-30"/>
       <use x="211.035156" xlink:href="#DejaVuSans-30"/>
       <use x="274.658203" xlink:href="#DejaVuSans-30"/>
      </g>
     </g>
    </g>
    <g id="xtick_3">
     <g id="line2d_3">
      <g>
       <use style="stroke:#000000;stroke-width:0.8;" x="462.857143" xlink:href="#m3ed4b9eacc" y="768.96"/>
      </g>
     </g>
     <g id="text_3">
      <!-- −2000 -->
      <defs>
       <path d="M 19.1875 8.296875 
L 53.609375 8.296875 
L 53.609375 0 
L 7.328125 0 
L 7.328125 8.296875 
Q 12.9375 14.109375 22.625 23.890625 
Q 32.328125 33.6875 34.8125 36.53125 
Q 39.546875 41.84375 41.421875 45.53125 
Q 43.3125 49.21875 43.3125 52.78125 
Q 43.3125 58.59375 39.234375 62.25 
Q 35.15625 65.921875 28.609375 65.921875 
Q 23.96875 65.921875 18.8125 64.3125 
Q 13.671875 62.703125 7.8125 59.421875 
L 7.8125 69.390625 
Q 13.765625 71.78125 18.9375 73 
Q 24.125 74.21875 28.421875 74.21875 
Q 39.75 74.21875 46.484375 68.546875 
Q 53.21875 62.890625 53.21875 53.421875 
Q 53.21875 48.921875 51.53125 44.890625 
Q 49.859375 40.875 45.40625 35.40625 
Q 44.1875 33.984375 37.640625 27.21875 
Q 31.109375 20.453125 19.1875 8.296875 
z
" id="DejaVuSans-32"/>
      </defs>
      <g transform="translate(445.942299 783.558437)scale(0.1 -0.1)">
       <use xlink:href="#DejaVuSans-2212"/>
       <use x="83.789062" xlink:href="#DejaVuSans-32"/>
       <use x="147.412109" xlink:href="#DejaVuSans-30"/>
       <use x="211.035156" xlink:href="#DejaVuSans-30"/>
       <use x="274.658203" xlink:href="#DejaVuSans-30"/>
      </g>
     </g>
    </g>
    <g id="xtick_4">
     <g id="line2d_4">
      <g>
       <use style="stroke:#000000;stroke-width:0.8;" x="590.4" xlink:href="#m3ed4b9eacc" y="768.96"/>
      </g>
     </g>
     <g id="text_4">
      <!-- 0 -->
      <g transform="translate(587.21875 783.558437)scale(0.1 -0.1)">
       <use xlink:href="#DejaVuSans-30"/>
      </g>
     </g>
    </g>
    <g id="xtick_5">
     <g id="line2d_5">
      <g>
       <use style="stroke:#000000;stroke-width:0.8;" x="717.942857" xlink:href="#m3ed4b9eacc" y="768.96"/>
      </g>
     </g>
     <g id="text_5">
      <!-- 2000 -->
      <g transform="translate(705.217857 783.558437)scale(0.1 -0.1)">
       <use xlink:href="#DejaVuSans-32"/>
       <use x="63.623047" xlink:href="#DejaVuSans-30"/>
       <use x="127.246094" xlink:href="#DejaVuSans-30"/>
       <use x="190.869141" xlink:href="#DejaVuSans-30"/>
      </g>
     </g>
    </g>
    <g id="xtick_6">
     <g id="line2d_6">
      <g>
       <use style="stroke:#000000;stroke-width:0.8;" x="845.485714" xlink:href="#m3ed4b9eacc" y="768.96"/>
      </g>
     </g>
     <g id="text_6">
      <!-- 4000 -->
      <g transform="translate(832.760714 783.558437)scale(0.1 -0.1)">
       <use xlink:href="#DejaVuSans-34"/>
       <use x="63.623047" xlink:href="#DejaVuSans-30"/>
       <use x="127.246094" xlink:href="#DejaVuSans-30"/>
       <use x="190.869141" xlink:href="#DejaVuSans-30"/>
      </g>
     </g>
    </g>
    <g id="xtick_7">
     <g id="line2d_7">
      <g>
       <use style="stroke:#000000;stroke-width:0.8;" x="973.028571" xlink:href="#m3ed4b9eacc" y="768.96"/>
      </g>
     </g>
     <g id="text_7">
      <!-- 6000 -->
      <g transform="translate(960.303571 783.558437)scale(0.1 -0.1)">
       <use xlink:href="#DejaVuSans-36"/>
       <use x="63.623047" xlink:href="#DejaVuSans-30"/>
       <use x="127.246094" xlink:href="#DejaVuSans-30"/>
       <use x="190.869141" xlink:href="#DejaVuSans-30"/>
      </g>
     </g>
    </g>
   </g>
   <g id="matplotlib.axis_2">
    <g id="ytick_1">
     <g id="line2d_8">
      <defs>
       <path d="M 0 0 
L -3.5 0 
" id="mdde3bfa44c" style="stroke:#000000;stroke-width:0.8;"/>
      </defs>
      <g>
       <use style="stroke:#000000;stroke-width:0.8;" x="144" xlink:href="#mdde3bfa44c" y="721.44"/>
      </g>
     </g>
     <g id="text_8">
      <!-- −6000 -->
      <g transform="translate(103.170312 725.239219)scale(0.1 -0.1)">
       <use xlink:href="#DejaVuSans-2212"/>
       <use x="83.789062" xlink:href="#DejaVuSans-36"/>
       <use x="147.412109" xlink:href="#DejaVuSans-30"/>
       <use x="211.035156" xlink:href="#DejaVuSans-30"/>
       <use x="274.658203" xlink:href="#DejaVuSans-30"/>
      </g>
     </g>
    </g>
    <g id="ytick_2">
     <g id="line2d_9">
      <g>
       <use style="stroke:#000000;stroke-width:0.8;" x="144" xlink:href="#mdde3bfa44c" y="626.4"/>
      </g>
     </g>
     <g id="text_9">
      <!-- −4000 -->
      <g transform="translate(103.170312 630.199219)scale(0.1 -0.1)">
       <use xlink:href="#DejaVuSans-2212"/>
       <use x="83.789062" xlink:href="#DejaVuSans-34"/>
       <use x="147.412109" xlink:href="#DejaVuSans-30"/>
       <use x="211.035156" xlink:href="#DejaVuSans-30"/>
       <use x="274.658203" xlink:href="#DejaVuSans-30"/>
      </g>
     </g>
    </g>
    <g id="ytick_3">
     <g id="line2d_10">
      <g>
       <use style="stroke:#000000;stroke-width:0.8;" x="144" xlink:href="#mdde3bfa44c" y="531.36"/>
      </g>
     </g>
     <g id="text_10">
      <!-- −2000 -->
      <g transform="translate(103.170312 535.159219)scale(0.1 -0.1)">
       <use xlink:href="#DejaVuSans-2212"/>
       <use x="83.789062" xlink:href="#DejaVuSans-32"/>
       <use x="147.412109" xlink:href="#DejaVuSans-30"/>
       <use x="211.035156" xlink:href="#DejaVuSans-30"/>
       <use x="274.658203" xlink:href="#DejaVuSans-30"/>
      </g>
     </g>
    </g>
    <g id="ytick_4">
     <g id="line2d_11">
      <g>
       <use style="stroke:#000000;stroke-width:0.8;" x="144" xlink:href="#mdde3bfa44c" y="436.32"/>
      </g>
     </g>
     <g id="text_11">
      <!-- 0 -->
      <g transform="translate(130.6375 440.119219)scale(0.1 -0.1)">
       <use xlink:href="#DejaVuSans-30"/>
      </g>
     </g>
    </g>
    <g id="ytick_5">
     <g id="line2d_12">
      <g>
       <use style="stroke:#000000;stroke-width:0.8;" x="144" xlink:href="#mdde3bfa44c" y="341.28"/>
      </g>
     </g>
     <g id="text_12">
      <!-- 2000 -->
      <g transform="translate(111.55 345.079219)scale(0.1 -0.1)">
       <use xlink:href="#DejaVuSans-32"/>
       <use x="63.623047" xlink:href="#DejaVuSans-30"/>
       <use x="127.246094" xlink:href="#DejaVuSans-30"/>
       <use x="190.869141" xlink:href="#DejaVuSans-30"/>
      </g>
     </g>
    </g>
    <g id="ytick_6">
     <g id="line2d_13">
      <g>
       <use style="stroke:#000000;stroke-width:0.8;" x="144" xlink:href="#mdde3bfa44c" y="246.24"/>
      </g>
     </g>
     <g id="text_13">
      <!-- 4000 -->
      <g transform="translate(111.55 250.039219)scale(0.1 -0.1)">
       <use xlink:href="#DejaVuSans-34"/>
       <use x="63.623047" xlink:href="#DejaVuSans-30"/>
       <use x="127.246094" xlink:href="#DejaVuSans-30"/>
       <use x="190.869141" xlink:href="#DejaVuSans-30"/>
      </g>
     </g>
    </g>
    <g id="ytick_7">
     <g id="line2d_14">
      <g>
       <use style="stroke:#000000;stroke-width:0.8;" x="144" xlink:href="#mdde3bfa44c" y="151.2"/>
      </g>
     </g>
     <g id="text_14">
      <!-- 6000 -->
      <g transform="translate(111.55 154.999219)scale(0.1 -0.1)">
       <use xlink:href="#DejaVuSans-36"/>
       <use x="63.623047" xlink:href="#DejaVuSans-30"/>
       <use x="127.246094" xlink:href="#DejaVuSans-30"/>
       <use x="190.869141" xlink:href="#DejaVuSans-30"/>
      </g>
     </g>
    </g>
   </g>
   <g id="line2d_15">
    <path clip-path="url(#p501019e3f8)" d="M 590.4 768.96 
L 590.4 103.68 
" style="fill:none;stroke:#1f77b4;stroke-linecap:square;stroke-width:1.5;"/>
   </g>
   <g id="line2d_16">
    <path clip-path="url(#p501019e3f8)" d="M 144 436.32 
L 1036.8 436.32 
" style="fill:none;stroke:#1f77b4;stroke-linecap:square;stroke-width:1.5;"/>
   </g>
   <g id="line2d_17">
    <defs>
     <path d="M 0 1.333333 
C 0.353604 1.333333 0.692773 1.192845 0.942809 0.942809 
C 1.192845 0.692773 1.333333 0.353604 1.333333 0 
C 1.333333 -0.353604 1.192845 -0.692773 0.942809 -0.942809 
C 0.692773 -1.192845 0.353604 -1.333333 0 -1.333333 
C -0.353604 -1.333333 -0.692773 -1.192845 -0.942809 -0.942809 
C -1.192845 -0.692773 -1.333333 -0.353604 -1.333333 0 
C -1.333333 0.353604 -1.192845 0.692773 -0.942809 0.942809 
C -0.692773 1.192845 -0.353604 1.333333 0 1.333333 
z
" id="mf9b1484119" style="stroke:#ff0000;"/>
    </defs>
    <g clip-path="url(#p501019e3f8)">
     <use style="fill:#ff0000;stroke:#ff0000;" x="894.460276" xlink:href="#mf9b1484119" y="448.627989"/>
     <use style="fill:#ff0000;stroke:#ff0000;" x="941.059805" xlink:href="#mf9b1484119" y="437.460135"/>
     <use style="fill:#ff0000;stroke:#ff0000;" x="918.651136" xlink:href="#mf9b1484119" y="412.70037"/>
     <use style="fill:#ff0000;stroke:#ff0000;" x="941.344042" xlink:href="#mf9b1484119" y="397.89302"/>
     <use style="fill:#ff0000;stroke:#ff0000;" x="672.493054" xlink:href="#mf9b1484119" y="416.683318"/>
     <use style="fill:#ff0000;stroke:#ff0000;" x="666.499248" xlink:href="#mf9b1484119" y="392.487517"/>
     <use style="fill:#ff0000;stroke:#ff0000;" x="678.427224" xlink:href="#mf9b1484119" y="307.930005"/>
     <use style="fill:#ff0000;stroke:#ff0000;" x="630.163107" xlink:href="#mf9b1484119" y="305.374558"/>
     <use style="fill:#ff0000;stroke:#ff0000;" x="616.084496" xlink:href="#mf9b1484119" y="325.480433"/>
     <use style="fill:#ff0000;stroke:#ff0000;" x="611.495656" xlink:href="#mf9b1484119" y="305.942725"/>
     <use style="fill:#ff0000;stroke:#ff0000;" x="459.472579" xlink:href="#mf9b1484119" y="302.575014"/>
     <use style="fill:#ff0000;stroke:#ff0000;" x="445.076157" xlink:href="#mf9b1484119" y="302.36943"/>
     <use style="fill:#ff0000;stroke:#ff0000;" x="429.129809" xlink:href="#mf9b1484119" y="302.047299"/>
     <use style="fill:#ff0000;stroke:#ff0000;" x="402.437182" xlink:href="#mf9b1484119" y="308.186905"/>
     <use style="fill:#ff0000;stroke:#ff0000;" x="397.163552" xlink:href="#mf9b1484119" y="317.357847"/>
     <use style="fill:#ff0000;stroke:#ff0000;" x="393.844825" xlink:href="#mf9b1484119" y="348.64062"/>
     <use style="fill:#ff0000;stroke:#ff0000;" x="374.92315" xlink:href="#mf9b1484119" y="350.777498"/>
     <use style="fill:#ff0000;stroke:#ff0000;" x="372.7613" xlink:href="#mf9b1484119" y="360.426731"/>
     <use style="fill:#ff0000;stroke:#ff0000;" x="391.01731" xlink:href="#mf9b1484119" y="392.487121"/>
     <use style="fill:#ff0000;stroke:#ff0000;" x="382.259838" xlink:href="#mf9b1484119" y="398.950037"/>
     <use style="fill:#ff0000;stroke:#ff0000;" x="369.919546" xlink:href="#mf9b1484119" y="405.220733"/>
     <use style="fill:#ff0000;stroke:#ff0000;" x="368.157156" xlink:href="#mf9b1484119" y="430.356008"/>
     <use style="fill:#ff0000;stroke:#ff0000;" x="537.340637" xlink:href="#mf9b1484119" y="437.65751"/>
     <use style="fill:#ff0000;stroke:#ff0000;" x="537.656769" xlink:href="#mf9b1484119" y="452.037278"/>
     <use style="fill:#ff0000;stroke:#ff0000;" x="399.948583" xlink:href="#mf9b1484119" y="525.484665"/>
     <use style="fill:#ff0000;stroke:#ff0000;" x="422.999203" xlink:href="#mf9b1484119" y="523.867245"/>
     <use style="fill:#ff0000;stroke:#ff0000;" x="460.882911" xlink:href="#mf9b1484119" y="538.188282"/>
     <use style="fill:#ff0000;stroke:#ff0000;" x="498.080106" xlink:href="#mf9b1484119" y="516.955516"/>
     <use style="fill:#ff0000;stroke:#ff0000;" x="507.763274" xlink:href="#mf9b1484119" y="525.032206"/>
     <use style="fill:#ff0000;stroke:#ff0000;" x="504.865681" xlink:href="#mf9b1484119" y="538.568324"/>
     <use style="fill:#ff0000;stroke:#ff0000;" x="521.472362" xlink:href="#mf9b1484119" y="528.860805"/>
     <use style="fill:#ff0000;stroke:#ff0000;" x="547.744447" xlink:href="#mf9b1484119" y="522.045514"/>
     <use style="fill:#ff0000;stroke:#ff0000;" x="582.299605" xlink:href="#mf9b1484119" y="540.118402"/>
     <use style="fill:#ff0000;stroke:#ff0000;" x="589.613134" xlink:href="#mf9b1484119" y="525.905161"/>
     <use style="fill:#ff0000;stroke:#ff0000;" x="602.992046" xlink:href="#mf9b1484119" y="534.894227"/>
     <use style="fill:#ff0000;stroke:#ff0000;" x="611.127121" xlink:href="#mf9b1484119" y="543.667099"/>
     <use style="fill:#ff0000;stroke:#ff0000;" x="612.40003" xlink:href="#mf9b1484119" y="518.853671"/>
     <use style="fill:#ff0000;stroke:#ff0000;" x="660.670775" xlink:href="#mf9b1484119" y="523.037667"/>
     <use style="fill:#ff0000;stroke:#ff0000;" x="699.821958" xlink:href="#mf9b1484119" y="545.822425"/>
     <use style="fill:#ff0000;stroke:#ff0000;" x="720.6297" xlink:href="#mf9b1484119" y="523.362267"/>
     <use style="fill:#ff0000;stroke:#ff0000;" x="735.766306" xlink:href="#mf9b1484119" y="524.232712"/>
     <use style="fill:#ff0000;stroke:#ff0000;" x="738.284045" xlink:href="#mf9b1484119" y="516.612948"/>
     <use style="fill:#ff0000;stroke:#ff0000;" x="753.795888" xlink:href="#mf9b1484119" y="516.099454"/>
     <use style="fill:#ff0000;stroke:#ff0000;" x="774.033822" xlink:href="#mf9b1484119" y="516.571589"/>
     <use style="fill:#ff0000;stroke:#ff0000;" x="799.617436" xlink:href="#mf9b1484119" y="517.693055"/>
     <use style="fill:#ff0000;stroke:#ff0000;" x="921.008632" xlink:href="#mf9b1484119" y="550.299584"/>
     <use style="fill:#ff0000;stroke:#ff0000;" x="928.848826" xlink:href="#mf9b1484119" y="537.895122"/>
     <use style="fill:#ff0000;stroke:#ff0000;" x="932.405656" xlink:href="#mf9b1484119" y="483.337912"/>
    </g>
   </g>
   <g id="line2d_18">
    <defs>
     <path d="M -0.5 0.5 
L 0.5 0.5 
L 0.5 -0.5 
L -0.5 -0.5 
z
" id="m8c6729c66f" style="stroke:#1f77b4;stroke-linejoin:miter;"/>
    </defs>
    <g clip-path="url(#p501019e3f8)">
     <use style="fill:#1f77b4;stroke:#1f77b4;stroke-linejoin:miter;" x="894.460276" xlink:href="#m8c6729c66f" y="448.627989"/>
     <use style="fill:#1f77b4;stroke:#1f77b4;stroke-linejoin:miter;" x="941.059805" xlink:href="#m8c6729c66f" y="437.460135"/>
     <use style="fill:#1f77b4;stroke:#1f77b4;stroke-linejoin:miter;" x="918.651136" xlink:href="#m8c6729c66f" y="412.70037"/>
     <use style="fill:#1f77b4;stroke:#1f77b4;stroke-linejoin:miter;" x="941.344042" xlink:href="#m8c6729c66f" y="397.89302"/>
     <use style="fill:#1f77b4;stroke:#1f77b4;stroke-linejoin:miter;" x="672.493054" xlink:href="#m8c6729c66f" y="416.683318"/>
     <use style="fill:#1f77b4;stroke:#1f77b4;stroke-linejoin:miter;" x="665.384289" xlink:href="#m8c6729c66f" y="415.202967"/>
     <use style="fill:#1f77b4;stroke:#1f77b4;stroke-linejoin:miter;" x="662.886859" xlink:href="#m8c6729c66f" y="412.711163"/>
     <use style="fill:#1f77b4;stroke:#1f77b4;stroke-linejoin:miter;" x="666.362577" xlink:href="#m8c6729c66f" y="408.232889"/>
     <use style="fill:#1f77b4;stroke:#1f77b4;stroke-linejoin:miter;" x="665.486608" xlink:href="#m8c6729c66f" y="404.98558"/>
     <use style="fill:#1f77b4;stroke:#1f77b4;stroke-linejoin:miter;" x="663.752661" xlink:href="#m8c6729c66f" y="402.061194"/>
     <use style="fill:#1f77b4;stroke:#1f77b4;stroke-linejoin:miter;" x="662.530397" xlink:href="#m8c6729c66f" y="398.750194"/>
     <use style="fill:#1f77b4;stroke:#1f77b4;stroke-linejoin:miter;" x="666.499248" xlink:href="#m8c6729c66f" y="392.487517"/>
     <use style="fill:#1f77b4;stroke:#1f77b4;stroke-linejoin:miter;" x="678.427224" xlink:href="#m8c6729c66f" y="307.930005"/>
     <use style="fill:#1f77b4;stroke:#1f77b4;stroke-linejoin:miter;" x="668.08853" xlink:href="#m8c6729c66f" y="307.526616"/>
     <use style="fill:#1f77b4;stroke:#1f77b4;stroke-linejoin:miter;" x="657.982137" xlink:href="#m8c6729c66f" y="307.341433"/>
     <use style="fill:#1f77b4;stroke:#1f77b4;stroke-linejoin:miter;" x="648.281886" xlink:href="#m8c6729c66f" y="307.062675"/>
     <use style="fill:#1f77b4;stroke:#1f77b4;stroke-linejoin:miter;" x="638.716585" xlink:href="#m8c6729c66f" y="307.179085"/>
     <use style="fill:#1f77b4;stroke:#1f77b4;stroke-linejoin:miter;" x="630.163107" xlink:href="#m8c6729c66f" y="305.374558"/>
     <use style="fill:#1f77b4;stroke:#1f77b4;stroke-linejoin:miter;" x="616.084496" xlink:href="#m8c6729c66f" y="325.480433"/>
     <use style="fill:#1f77b4;stroke:#1f77b4;stroke-linejoin:miter;" x="611.495656" xlink:href="#m8c6729c66f" y="305.942725"/>
     <use style="fill:#1f77b4;stroke:#1f77b4;stroke-linejoin:miter;" x="602.836188" xlink:href="#m8c6729c66f" y="304.313555"/>
     <use style="fill:#1f77b4;stroke:#1f77b4;stroke-linejoin:miter;" x="593.937974" xlink:href="#m8c6729c66f" y="303.908003"/>
     <use style="fill:#1f77b4;stroke:#1f77b4;stroke-linejoin:miter;" x="584.9709" xlink:href="#m8c6729c66f" y="303.907907"/>
     <use style="fill:#1f77b4;stroke:#1f77b4;stroke-linejoin:miter;" x="575.990891" xlink:href="#m8c6729c66f" y="304.04358"/>
     <use style="fill:#1f77b4;stroke:#1f77b4;stroke-linejoin:miter;" x="566.99909" xlink:href="#m8c6729c66f" y="304.147939"/>
     <use style="fill:#1f77b4;stroke:#1f77b4;stroke-linejoin:miter;" x="557.892856" xlink:href="#m8c6729c66f" y="304.013783"/>
     <use style="fill:#1f77b4;stroke:#1f77b4;stroke-linejoin:miter;" x="548.661016" xlink:href="#m8c6729c66f" y="303.909693"/>
     <use style="fill:#1f77b4;stroke:#1f77b4;stroke-linejoin:miter;" x="538.850725" xlink:href="#m8c6729c66f" y="303.454304"/>
     <use style="fill:#1f77b4;stroke:#1f77b4;stroke-linejoin:miter;" x="528.873195" xlink:href="#m8c6729c66f" y="302.814784"/>
     <use style="fill:#1f77b4;stroke:#1f77b4;stroke-linejoin:miter;" x="518.623358" xlink:href="#m8c6729c66f" y="302.470506"/>
     <use style="fill:#1f77b4;stroke:#1f77b4;stroke-linejoin:miter;" x="507.7289" xlink:href="#m8c6729c66f" y="302.114973"/>
     <use style="fill:#1f77b4;stroke:#1f77b4;stroke-linejoin:miter;" x="496.721407" xlink:href="#m8c6729c66f" y="302.402954"/>
     <use style="fill:#1f77b4;stroke:#1f77b4;stroke-linejoin:miter;" x="485.469485" xlink:href="#m8c6729c66f" y="302.998127"/>
     <use style="fill:#1f77b4;stroke:#1f77b4;stroke-linejoin:miter;" x="472.833919" xlink:href="#m8c6729c66f" y="302.619609"/>
     <use style="fill:#1f77b4;stroke:#1f77b4;stroke-linejoin:miter;" x="459.472579" xlink:href="#m8c6729c66f" y="302.575014"/>
     <use style="fill:#1f77b4;stroke:#1f77b4;stroke-linejoin:miter;" x="445.076157" xlink:href="#m8c6729c66f" y="302.36943"/>
     <use style="fill:#1f77b4;stroke:#1f77b4;stroke-linejoin:miter;" x="429.129809" xlink:href="#m8c6729c66f" y="302.047299"/>
     <use style="fill:#1f77b4;stroke:#1f77b4;stroke-linejoin:miter;" x="402.437182" xlink:href="#m8c6729c66f" y="308.186905"/>
     <use style="fill:#1f77b4;stroke:#1f77b4;stroke-linejoin:miter;" x="397.163552" xlink:href="#m8c6729c66f" y="317.357847"/>
     <use style="fill:#1f77b4;stroke:#1f77b4;stroke-linejoin:miter;" x="393.844825" xlink:href="#m8c6729c66f" y="348.64062"/>
     <use style="fill:#1f77b4;stroke:#1f77b4;stroke-linejoin:miter;" x="374.92315" xlink:href="#m8c6729c66f" y="350.777498"/>
     <use style="fill:#1f77b4;stroke:#1f77b4;stroke-linejoin:miter;" x="372.7613" xlink:href="#m8c6729c66f" y="360.426731"/>
     <use style="fill:#1f77b4;stroke:#1f77b4;stroke-linejoin:miter;" x="391.01731" xlink:href="#m8c6729c66f" y="392.487121"/>
     <use style="fill:#1f77b4;stroke:#1f77b4;stroke-linejoin:miter;" x="382.259838" xlink:href="#m8c6729c66f" y="398.950037"/>
     <use style="fill:#1f77b4;stroke:#1f77b4;stroke-linejoin:miter;" x="369.919546" xlink:href="#m8c6729c66f" y="405.220733"/>
     <use style="fill:#1f77b4;stroke:#1f77b4;stroke-linejoin:miter;" x="369.271696" xlink:href="#m8c6729c66f" y="413.711837"/>
     <use style="fill:#1f77b4;stroke:#1f77b4;stroke-linejoin:miter;" x="368.107674" xlink:href="#m8c6729c66f" y="422.010115"/>
     <use style="fill:#1f77b4;stroke:#1f77b4;stroke-linejoin:miter;" x="368.157156" xlink:href="#m8c6729c66f" y="430.356008"/>
     <use style="fill:#1f77b4;stroke:#1f77b4;stroke-linejoin:miter;" x="537.340637" xlink:href="#m8c6729c66f" y="437.65751"/>
     <use style="fill:#1f77b4;stroke:#1f77b4;stroke-linejoin:miter;" x="537.273818" xlink:href="#m8c6729c66f" y="439.642087"/>
     <use style="fill:#1f77b4;stroke:#1f77b4;stroke-linejoin:miter;" x="537.400474" xlink:href="#m8c6729c66f" y="441.607057"/>
     <use style="fill:#1f77b4;stroke:#1f77b4;stroke-linejoin:miter;" x="537.386813" xlink:href="#m8c6729c66f" y="443.652661"/>
     <use style="fill:#1f77b4;stroke:#1f77b4;stroke-linejoin:miter;" x="537.538856" xlink:href="#m8c6729c66f" y="445.629152"/>
     <use style="fill:#1f77b4;stroke:#1f77b4;stroke-linejoin:miter;" x="537.339703" xlink:href="#m8c6729c66f" y="447.774258"/>
     <use style="fill:#1f77b4;stroke:#1f77b4;stroke-linejoin:miter;" x="537.569855" xlink:href="#m8c6729c66f" y="449.851126"/>
     <use style="fill:#1f77b4;stroke:#1f77b4;stroke-linejoin:miter;" x="537.656769" xlink:href="#m8c6729c66f" y="452.037278"/>
     <use style="fill:#1f77b4;stroke:#1f77b4;stroke-linejoin:miter;" x="399.948583" xlink:href="#m8c6729c66f" y="525.484665"/>
     <use style="fill:#1f77b4;stroke:#1f77b4;stroke-linejoin:miter;" x="422.999203" xlink:href="#m8c6729c66f" y="523.867245"/>
     <use style="fill:#1f77b4;stroke:#1f77b4;stroke-linejoin:miter;" x="440.513954" xlink:href="#m8c6729c66f" y="523.434171"/>
     <use style="fill:#1f77b4;stroke:#1f77b4;stroke-linejoin:miter;" x="446.327291" xlink:href="#m8c6729c66f" y="529.029307"/>
     <use style="fill:#1f77b4;stroke:#1f77b4;stroke-linejoin:miter;" x="448.976858" xlink:href="#m8c6729c66f" y="536.927307"/>
     <use style="fill:#1f77b4;stroke:#1f77b4;stroke-linejoin:miter;" x="460.882911" xlink:href="#m8c6729c66f" y="538.188282"/>
     <use style="fill:#1f77b4;stroke:#1f77b4;stroke-linejoin:miter;" x="498.080106" xlink:href="#m8c6729c66f" y="516.955516"/>
     <use style="fill:#1f77b4;stroke:#1f77b4;stroke-linejoin:miter;" x="506.601162" xlink:href="#m8c6729c66f" y="517.514608"/>
     <use style="fill:#1f77b4;stroke:#1f77b4;stroke-linejoin:miter;" x="507.763274" xlink:href="#m8c6729c66f" y="525.032206"/>
     <use style="fill:#1f77b4;stroke:#1f77b4;stroke-linejoin:miter;" x="504.865681" xlink:href="#m8c6729c66f" y="538.568324"/>
     <use style="fill:#1f77b4;stroke:#1f77b4;stroke-linejoin:miter;" x="521.472362" xlink:href="#m8c6729c66f" y="528.860805"/>
     <use style="fill:#1f77b4;stroke:#1f77b4;stroke-linejoin:miter;" x="547.744447" xlink:href="#m8c6729c66f" y="522.045514"/>
     <use style="fill:#1f77b4;stroke:#1f77b4;stroke-linejoin:miter;" x="557.245365" xlink:href="#m8c6729c66f" y="530.57573"/>
     <use style="fill:#1f77b4;stroke:#1f77b4;stroke-linejoin:miter;" x="564.067169" xlink:href="#m8c6729c66f" y="530.016415"/>
     <use style="fill:#1f77b4;stroke:#1f77b4;stroke-linejoin:miter;" x="575.252653" xlink:href="#m8c6729c66f" y="540.432141"/>
     <use style="fill:#1f77b4;stroke:#1f77b4;stroke-linejoin:miter;" x="582.299605" xlink:href="#m8c6729c66f" y="540.118402"/>
     <use style="fill:#1f77b4;stroke:#1f77b4;stroke-linejoin:miter;" x="589.613134" xlink:href="#m8c6729c66f" y="525.905161"/>
     <use style="fill:#1f77b4;stroke:#1f77b4;stroke-linejoin:miter;" x="595.814869" xlink:href="#m8c6729c66f" y="529.906858"/>
     <use style="fill:#1f77b4;stroke:#1f77b4;stroke-linejoin:miter;" x="602.992046" xlink:href="#m8c6729c66f" y="534.894227"/>
     <use style="fill:#1f77b4;stroke:#1f77b4;stroke-linejoin:miter;" x="611.127121" xlink:href="#m8c6729c66f" y="543.667099"/>
     <use style="fill:#1f77b4;stroke:#1f77b4;stroke-linejoin:miter;" x="612.40003" xlink:href="#m8c6729c66f" y="518.853671"/>
     <use style="fill:#1f77b4;stroke:#1f77b4;stroke-linejoin:miter;" x="618.647124" xlink:href="#m8c6729c66f" y="520.156947"/>
     <use style="fill:#1f77b4;stroke:#1f77b4;stroke-linejoin:miter;" x="624.028188" xlink:href="#m8c6729c66f" y="518.20254"/>
     <use style="fill:#1f77b4;stroke:#1f77b4;stroke-linejoin:miter;" x="631.66702" xlink:href="#m8c6729c66f" y="521.601666"/>
     <use style="fill:#1f77b4;stroke:#1f77b4;stroke-linejoin:miter;" x="638.306983" xlink:href="#m8c6729c66f" y="521.908868"/>
     <use style="fill:#1f77b4;stroke:#1f77b4;stroke-linejoin:miter;" x="645.725919" xlink:href="#m8c6729c66f" y="522.571973"/>
     <use style="fill:#1f77b4;stroke:#1f77b4;stroke-linejoin:miter;" x="652.594777" xlink:href="#m8c6729c66f" y="522.23504"/>
     <use style="fill:#1f77b4;stroke:#1f77b4;stroke-linejoin:miter;" x="660.670775" xlink:href="#m8c6729c66f" y="523.037667"/>
     <use style="fill:#1f77b4;stroke:#1f77b4;stroke-linejoin:miter;" x="699.821958" xlink:href="#m8c6729c66f" y="545.822425"/>
     <use style="fill:#1f77b4;stroke:#1f77b4;stroke-linejoin:miter;" x="704.770926" xlink:href="#m8c6729c66f" y="539.533773"/>
     <use style="fill:#1f77b4;stroke:#1f77b4;stroke-linejoin:miter;" x="709.051368" xlink:href="#m8c6729c66f" y="533.177953"/>
     <use style="fill:#1f77b4;stroke:#1f77b4;stroke-linejoin:miter;" x="714.832658" xlink:href="#m8c6729c66f" y="528.186633"/>
     <use style="fill:#1f77b4;stroke:#1f77b4;stroke-linejoin:miter;" x="720.6297" xlink:href="#m8c6729c66f" y="523.362267"/>
     <use style="fill:#1f77b4;stroke:#1f77b4;stroke-linejoin:miter;" x="735.766306" xlink:href="#m8c6729c66f" y="524.232712"/>
     <use style="fill:#1f77b4;stroke:#1f77b4;stroke-linejoin:miter;" x="738.284045" xlink:href="#m8c6729c66f" y="516.612948"/>
     <use style="fill:#1f77b4;stroke:#1f77b4;stroke-linejoin:miter;" x="753.795888" xlink:href="#m8c6729c66f" y="516.099454"/>
     <use style="fill:#1f77b4;stroke:#1f77b4;stroke-linejoin:miter;" x="774.033822" xlink:href="#m8c6729c66f" y="516.571589"/>
     <use style="fill:#1f77b4;stroke:#1f77b4;stroke-linejoin:miter;" x="799.617436" xlink:href="#m8c6729c66f" y="517.693055"/>
     <use style="fill:#1f77b4;stroke:#1f77b4;stroke-linejoin:miter;" x="921.008632" xlink:href="#m8c6729c66f" y="550.299584"/>
     <use style="fill:#1f77b4;stroke:#1f77b4;stroke-linejoin:miter;" x="928.848826" xlink:href="#m8c6729c66f" y="537.895122"/>
     <use style="fill:#1f77b4;stroke:#1f77b4;stroke-linejoin:miter;" x="932.405656" xlink:href="#m8c6729c66f" y="483.337912"/>
    </g>
   </g>
   <g id="patch_3">
    <path d="M 144 768.96 
L 144 103.68 
" style="fill:none;stroke:#000000;stroke-linecap:square;stroke-linejoin:miter;stroke-width:0.8;"/>
   </g>
   <g id="patch_4">
    <path d="M 1036.8 768.96 
L 1036.8 103.68 
" style="fill:none;stroke:#000000;stroke-linecap:square;stroke-linejoin:miter;stroke-width:0.8;"/>
   </g>
   <g id="patch_5">
    <path d="M 144 768.96 
L 1036.8 768.96 
" style="fill:none;stroke:#000000;stroke-linecap:square;stroke-linejoin:miter;stroke-width:0.8;"/>
   </g>
   <g id="patch_6">
    <path d="M 144 103.68 
L 1036.8 103.68 
" style="fill:none;stroke:#000000;stroke-linecap:square;stroke-linejoin:miter;stroke-width:0.8;"/>
   </g>
  </g>
 </g>
 <defs>
  <clipPath id="p501019e3f8">
   <rect height="665.28" width="892.8" x="144" y="103.68"/>
  </clipPath>
 </defs>
</svg>
