<?xml version="1.0" encoding="utf-8" standalone="no"?>
<!DOCTYPE svg PUBLIC "-//W3C//DTD SVG 1.1//EN"
  "http://www.w3.org/Graphics/SVG/1.1/DTD/svg11.dtd">
<!-- Created with matplotlib (http://matplotlib.org/) -->
<svg height="864pt" version="1.1" viewBox="0 0 1152 864" width="1152pt" xmlns="http://www.w3.org/2000/svg" xmlns:xlink="http://www.w3.org/1999/xlink">
 <defs>
  <style type="text/css">
*{stroke-linecap:butt;stroke-linejoin:round;}
  </style>
 </defs>
 <g id="figure_1">
  <g id="patch_1">
   <path d="M 0 864 
L 1152 864 
L 1152 0 
L 0 0 
z
" style="fill:#ffffff;"/>
  </g>
  <g id="axes_1">
   <g id="patch_2">
    <path d="M 144 768.96 
L 1036.8 768.96 
L 1036.8 103.68 
L 144 103.68 
z
" style="fill:#ffffff;"/>
   </g>
   <g id="matplotlib.axis_1">
    <g id="xtick_1">
     <g id="line2d_1">
      <defs>
       <path d="M 0 0 
L 0 3.5 
" id="m740f506de7" style="stroke:#000000;stroke-width:0.8;"/>
      </defs>
      <g>
       <use style="stroke:#000000;stroke-width:0.8;" x="207.771429" xlink:href="#m740f506de7" y="768.96"/>
      </g>
     </g>
     <g id="text_1">
      <!-- −6000 -->
      <defs>
       <path d="M 10.59375 35.5 
L 73.1875 35.5 
L 73.1875 27.203125 
L 10.59375 27.203125 
z
" id="DejaVuSans-2212"/>
       <path d="M 33.015625 40.375 
Q 26.375 40.375 22.484375 35.828125 
Q 18.609375 31.296875 18.609375 23.390625 
Q 18.609375 15.53125 22.484375 10.953125 
Q 26.375 6.390625 33.015625 6.390625 
Q 39.65625 6.390625 43.53125 10.953125 
Q 47.40625 15.53125 47.40625 23.390625 
Q 47.40625 31.296875 43.53125 35.828125 
Q 39.65625 40.375 33.015625 40.375 
z
M 52.59375 71.296875 
L 52.59375 62.3125 
Q 48.875 64.0625 45.09375 64.984375 
Q 41.3125 65.921875 37.59375 65.921875 
Q 27.828125 65.921875 22.671875 59.328125 
Q 17.53125 52.734375 16.796875 39.40625 
Q 19.671875 43.65625 24.015625 45.921875 
Q 28.375 48.1875 33.59375 48.1875 
Q 44.578125 48.1875 50.953125 41.515625 
Q 57.328125 34.859375 57.328125 23.390625 
Q 57.328125 12.15625 50.6875 5.359375 
Q 44.046875 -1.421875 33.015625 -1.421875 
Q 20.359375 -1.421875 13.671875 8.265625 
Q 6.984375 17.96875 6.984375 36.375 
Q 6.984375 53.65625 15.1875 63.9375 
Q 23.390625 74.21875 37.203125 74.21875 
Q 40.921875 74.21875 44.703125 73.484375 
Q 48.484375 72.75 52.59375 71.296875 
z
" id="DejaVuSans-36"/>
       <path d="M 31.78125 66.40625 
Q 24.171875 66.40625 20.328125 58.90625 
Q 16.5 51.421875 16.5 36.375 
Q 16.5 21.390625 20.328125 13.890625 
Q 24.171875 6.390625 31.78125 6.390625 
Q 39.453125 6.390625 43.28125 13.890625 
Q 47.125 21.390625 47.125 36.375 
Q 47.125 51.421875 43.28125 58.90625 
Q 39.453125 66.40625 31.78125 66.40625 
z
M 31.78125 74.21875 
Q 44.046875 74.21875 50.515625 64.515625 
Q 56.984375 54.828125 56.984375 36.375 
Q 56.984375 17.96875 50.515625 8.265625 
Q 44.046875 -1.421875 31.78125 -1.421875 
Q 19.53125 -1.421875 13.0625 8.265625 
Q 6.59375 17.96875 6.59375 36.375 
Q 6.59375 54.828125 13.0625 64.515625 
Q 19.53125 74.21875 31.78125 74.21875 
z
" id="DejaVuSans-30"/>
      </defs>
      <g transform="translate(190.856585 783.558437)scale(0.1 -0.1)">
       <use xlink:href="#DejaVuSans-2212"/>
       <use x="83.789062" xlink:href="#DejaVuSans-36"/>
       <use x="147.412109" xlink:href="#DejaVuSans-30"/>
       <use x="211.035156" xlink:href="#DejaVuSans-30"/>
       <use x="274.658203" xlink:href="#DejaVuSans-30"/>
      </g>
     </g>
    </g>
    <g id="xtick_2">
     <g id="line2d_2">
      <g>
       <use style="stroke:#000000;stroke-width:0.8;" x="335.314286" xlink:href="#m740f506de7" y="768.96"/>
      </g>
     </g>
     <g id="text_2">
      <!-- −4000 -->
      <defs>
       <path d="M 37.796875 64.3125 
L 12.890625 25.390625 
L 37.796875 25.390625 
z
M 35.203125 72.90625 
L 47.609375 72.90625 
L 47.609375 25.390625 
L 58.015625 25.390625 
L 58.015625 17.1875 
L 47.609375 17.1875 
L 47.609375 0 
L 37.796875 0 
L 37.796875 17.1875 
L 4.890625 17.1875 
L 4.890625 26.703125 
z
" id="DejaVuSans-34"/>
      </defs>
      <g transform="translate(318.399442 783.558437)scale(0.1 -0.1)">
       <use xlink:href="#DejaVuSans-2212"/>
       <use x="83.789062" xlink:href="#DejaVuSans-34"/>
       <use x="147.412109" xlink:href="#DejaVuSans-30"/>
       <use x="211.035156" xlink:href="#DejaVuSans-30"/>
       <use x="274.658203" xlink:href="#DejaVuSans-30"/>
      </g>
     </g>
    </g>
    <g id="xtick_3">
     <g id="line2d_3">
      <g>
       <use style="stroke:#000000;stroke-width:0.8;" x="462.857143" xlink:href="#m740f506de7" y="768.96"/>
      </g>
     </g>
     <g id="text_3">
      <!-- −2000 -->
      <defs>
       <path d="M 19.1875 8.296875 
L 53.609375 8.296875 
L 53.609375 0 
L 7.328125 0 
L 7.328125 8.296875 
Q 12.9375 14.109375 22.625 23.890625 
Q 32.328125 33.6875 34.8125 36.53125 
Q 39.546875 41.84375 41.421875 45.53125 
Q 43.3125 49.21875 43.3125 52.78125 
Q 43.3125 58.59375 39.234375 62.25 
Q 35.15625 65.921875 28.609375 65.921875 
Q 23.96875 65.921875 18.8125 64.3125 
Q 13.671875 62.703125 7.8125 59.421875 
L 7.8125 69.390625 
Q 13.765625 71.78125 18.9375 73 
Q 24.125 74.21875 28.421875 74.21875 
Q 39.75 74.21875 46.484375 68.546875 
Q 53.21875 62.890625 53.21875 53.421875 
Q 53.21875 48.921875 51.53125 44.890625 
Q 49.859375 40.875 45.40625 35.40625 
Q 44.1875 33.984375 37.640625 27.21875 
Q 31.109375 20.453125 19.1875 8.296875 
z
" id="DejaVuSans-32"/>
      </defs>
      <g transform="translate(445.942299 783.558437)scale(0.1 -0.1)">
       <use xlink:href="#DejaVuSans-2212"/>
       <use x="83.789062" xlink:href="#DejaVuSans-32"/>
       <use x="147.412109" xlink:href="#DejaVuSans-30"/>
       <use x="211.035156" xlink:href="#DejaVuSans-30"/>
       <use x="274.658203" xlink:href="#DejaVuSans-30"/>
      </g>
     </g>
    </g>
    <g id="xtick_4">
     <g id="line2d_4">
      <g>
       <use style="stroke:#000000;stroke-width:0.8;" x="590.4" xlink:href="#m740f506de7" y="768.96"/>
      </g>
     </g>
     <g id="text_4">
      <!-- 0 -->
      <g transform="translate(587.21875 783.558437)scale(0.1 -0.1)">
       <use xlink:href="#DejaVuSans-30"/>
      </g>
     </g>
    </g>
    <g id="xtick_5">
     <g id="line2d_5">
      <g>
       <use style="stroke:#000000;stroke-width:0.8;" x="717.942857" xlink:href="#m740f506de7" y="768.96"/>
      </g>
     </g>
     <g id="text_5">
      <!-- 2000 -->
      <g transform="translate(705.217857 783.558437)scale(0.1 -0.1)">
       <use xlink:href="#DejaVuSans-32"/>
       <use x="63.623047" xlink:href="#DejaVuSans-30"/>
       <use x="127.246094" xlink:href="#DejaVuSans-30"/>
       <use x="190.869141" xlink:href="#DejaVuSans-30"/>
      </g>
     </g>
    </g>
    <g id="xtick_6">
     <g id="line2d_6">
      <g>
       <use style="stroke:#000000;stroke-width:0.8;" x="845.485714" xlink:href="#m740f506de7" y="768.96"/>
      </g>
     </g>
     <g id="text_6">
      <!-- 4000 -->
      <g transform="translate(832.760714 783.558437)scale(0.1 -0.1)">
       <use xlink:href="#DejaVuSans-34"/>
       <use x="63.623047" xlink:href="#DejaVuSans-30"/>
       <use x="127.246094" xlink:href="#DejaVuSans-30"/>
       <use x="190.869141" xlink:href="#DejaVuSans-30"/>
      </g>
     </g>
    </g>
    <g id="xtick_7">
     <g id="line2d_7">
      <g>
       <use style="stroke:#000000;stroke-width:0.8;" x="973.028571" xlink:href="#m740f506de7" y="768.96"/>
      </g>
     </g>
     <g id="text_7">
      <!-- 6000 -->
      <g transform="translate(960.303571 783.558437)scale(0.1 -0.1)">
       <use xlink:href="#DejaVuSans-36"/>
       <use x="63.623047" xlink:href="#DejaVuSans-30"/>
       <use x="127.246094" xlink:href="#DejaVuSans-30"/>
       <use x="190.869141" xlink:href="#DejaVuSans-30"/>
      </g>
     </g>
    </g>
   </g>
   <g id="matplotlib.axis_2">
    <g id="ytick_1">
     <g id="line2d_8">
      <defs>
       <path d="M 0 0 
L -3.5 0 
" id="m4284723373" style="stroke:#000000;stroke-width:0.8;"/>
      </defs>
      <g>
       <use style="stroke:#000000;stroke-width:0.8;" x="144" xlink:href="#m4284723373" y="721.44"/>
      </g>
     </g>
     <g id="text_8">
      <!-- −6000 -->
      <g transform="translate(103.170312 725.239219)scale(0.1 -0.1)">
       <use xlink:href="#DejaVuSans-2212"/>
       <use x="83.789062" xlink:href="#DejaVuSans-36"/>
       <use x="147.412109" xlink:href="#DejaVuSans-30"/>
       <use x="211.035156" xlink:href="#DejaVuSans-30"/>
       <use x="274.658203" xlink:href="#DejaVuSans-30"/>
      </g>
     </g>
    </g>
    <g id="ytick_2">
     <g id="line2d_9">
      <g>
       <use style="stroke:#000000;stroke-width:0.8;" x="144" xlink:href="#m4284723373" y="626.4"/>
      </g>
     </g>
     <g id="text_9">
      <!-- −4000 -->
      <g transform="translate(103.170312 630.199219)scale(0.1 -0.1)">
       <use xlink:href="#DejaVuSans-2212"/>
       <use x="83.789062" xlink:href="#DejaVuSans-34"/>
       <use x="147.412109" xlink:href="#DejaVuSans-30"/>
       <use x="211.035156" xlink:href="#DejaVuSans-30"/>
       <use x="274.658203" xlink:href="#DejaVuSans-30"/>
      </g>
     </g>
    </g>
    <g id="ytick_3">
     <g id="line2d_10">
      <g>
       <use style="stroke:#000000;stroke-width:0.8;" x="144" xlink:href="#m4284723373" y="531.36"/>
      </g>
     </g>
     <g id="text_10">
      <!-- −2000 -->
      <g transform="translate(103.170312 535.159219)scale(0.1 -0.1)">
       <use xlink:href="#DejaVuSans-2212"/>
       <use x="83.789062" xlink:href="#DejaVuSans-32"/>
       <use x="147.412109" xlink:href="#DejaVuSans-30"/>
       <use x="211.035156" xlink:href="#DejaVuSans-30"/>
       <use x="274.658203" xlink:href="#DejaVuSans-30"/>
      </g>
     </g>
    </g>
    <g id="ytick_4">
     <g id="line2d_11">
      <g>
       <use style="stroke:#000000;stroke-width:0.8;" x="144" xlink:href="#m4284723373" y="436.32"/>
      </g>
     </g>
     <g id="text_11">
      <!-- 0 -->
      <g transform="translate(130.6375 440.119219)scale(0.1 -0.1)">
       <use xlink:href="#DejaVuSans-30"/>
      </g>
     </g>
    </g>
    <g id="ytick_5">
     <g id="line2d_12">
      <g>
       <use style="stroke:#000000;stroke-width:0.8;" x="144" xlink:href="#m4284723373" y="341.28"/>
      </g>
     </g>
     <g id="text_12">
      <!-- 2000 -->
      <g transform="translate(111.55 345.079219)scale(0.1 -0.1)">
       <use xlink:href="#DejaVuSans-32"/>
       <use x="63.623047" xlink:href="#DejaVuSans-30"/>
       <use x="127.246094" xlink:href="#DejaVuSans-30"/>
       <use x="190.869141" xlink:href="#DejaVuSans-30"/>
      </g>
     </g>
    </g>
    <g id="ytick_6">
     <g id="line2d_13">
      <g>
       <use style="stroke:#000000;stroke-width:0.8;" x="144" xlink:href="#m4284723373" y="246.24"/>
      </g>
     </g>
     <g id="text_13">
      <!-- 4000 -->
      <g transform="translate(111.55 250.039219)scale(0.1 -0.1)">
       <use xlink:href="#DejaVuSans-34"/>
       <use x="63.623047" xlink:href="#DejaVuSans-30"/>
       <use x="127.246094" xlink:href="#DejaVuSans-30"/>
       <use x="190.869141" xlink:href="#DejaVuSans-30"/>
      </g>
     </g>
    </g>
    <g id="ytick_7">
     <g id="line2d_14">
      <g>
       <use style="stroke:#000000;stroke-width:0.8;" x="144" xlink:href="#m4284723373" y="151.2"/>
      </g>
     </g>
     <g id="text_14">
      <!-- 6000 -->
      <g transform="translate(111.55 154.999219)scale(0.1 -0.1)">
       <use xlink:href="#DejaVuSans-36"/>
       <use x="63.623047" xlink:href="#DejaVuSans-30"/>
       <use x="127.246094" xlink:href="#DejaVuSans-30"/>
       <use x="190.869141" xlink:href="#DejaVuSans-30"/>
      </g>
     </g>
    </g>
   </g>
   <g id="line2d_15">
    <path clip-path="url(#pc95deeaf6b)" d="M 590.4 768.96 
L 590.4 103.68 
" style="fill:none;stroke:#1f77b4;stroke-linecap:square;stroke-width:1.5;"/>
   </g>
   <g id="line2d_16">
    <path clip-path="url(#pc95deeaf6b)" d="M 144 436.32 
L 1036.8 436.32 
" style="fill:none;stroke:#1f77b4;stroke-linecap:square;stroke-width:1.5;"/>
   </g>
   <g id="line2d_17">
    <defs>
     <path d="M 0 1.333333 
C 0.353604 1.333333 0.692773 1.192845 0.942809 0.942809 
C 1.192845 0.692773 1.333333 0.353604 1.333333 0 
C 1.333333 -0.353604 1.192845 -0.692773 0.942809 -0.942809 
C 0.692773 -1.192845 0.353604 -1.333333 0 -1.333333 
C -0.353604 -1.333333 -0.692773 -1.192845 -0.942809 -0.942809 
C -1.192845 -0.692773 -1.333333 -0.353604 -1.333333 0 
C -1.333333 0.353604 -1.192845 0.692773 -0.942809 0.942809 
C -0.692773 1.192845 -0.353604 1.333333 0 1.333333 
z
" id="m6db62e7e61" style="stroke:#ff0000;"/>
    </defs>
    <g clip-path="url(#pc95deeaf6b)">
     <use style="fill:#ff0000;stroke:#ff0000;" x="646.450182" xlink:href="#m6db62e7e61" y="438.13215"/>
     <use style="fill:#ff0000;stroke:#ff0000;" x="655.878675" xlink:href="#m6db62e7e61" y="420.833423"/>
     <use style="fill:#ff0000;stroke:#ff0000;" x="877.485826" xlink:href="#m6db62e7e61" y="316.362788"/>
     <use style="fill:#ff0000;stroke:#ff0000;" x="848.429987" xlink:href="#m6db62e7e61" y="316.97439"/>
     <use style="fill:#ff0000;stroke:#ff0000;" x="829.373253" xlink:href="#m6db62e7e61" y="314.504543"/>
     <use style="fill:#ff0000;stroke:#ff0000;" x="813.519242" xlink:href="#m6db62e7e61" y="311.460232"/>
     <use style="fill:#ff0000;stroke:#ff0000;" x="793.221434" xlink:href="#m6db62e7e61" y="311.734183"/>
     <use style="fill:#ff0000;stroke:#ff0000;" x="777.196207" xlink:href="#m6db62e7e61" y="310.852253"/>
     <use style="fill:#ff0000;stroke:#ff0000;" x="761.999848" xlink:href="#m6db62e7e61" y="310.250992"/>
     <use style="fill:#ff0000;stroke:#ff0000;" x="680.257288" xlink:href="#m6db62e7e61" y="308.206792"/>
     <use style="fill:#ff0000;stroke:#ff0000;" x="628.374565" xlink:href="#m6db62e7e61" y="306.84282"/>
     <use style="fill:#ff0000;stroke:#ff0000;" x="615.957395" xlink:href="#m6db62e7e61" y="325.488229"/>
     <use style="fill:#ff0000;stroke:#ff0000;" x="612.255044" xlink:href="#m6db62e7e61" y="306.323487"/>
     <use style="fill:#ff0000;stroke:#ff0000;" x="459.803933" xlink:href="#m6db62e7e61" y="302.453995"/>
     <use style="fill:#ff0000;stroke:#ff0000;" x="446.731898" xlink:href="#m6db62e7e61" y="301.958057"/>
     <use style="fill:#ff0000;stroke:#ff0000;" x="432.737305" xlink:href="#m6db62e7e61" y="301.763969"/>
     <use style="fill:#ff0000;stroke:#ff0000;" x="407.719846" xlink:href="#m6db62e7e61" y="305.722666"/>
     <use style="fill:#ff0000;stroke:#ff0000;" x="393.017316" xlink:href="#m6db62e7e61" y="307.190619"/>
     <use style="fill:#ff0000;stroke:#ff0000;" x="393.783075" xlink:href="#m6db62e7e61" y="318.929178"/>
     <use style="fill:#ff0000;stroke:#ff0000;" x="393.774128" xlink:href="#m6db62e7e61" y="348.174311"/>
     <use style="fill:#ff0000;stroke:#ff0000;" x="376.02363" xlink:href="#m6db62e7e61" y="349.529142"/>
     <use style="fill:#ff0000;stroke:#ff0000;" x="374.255995" xlink:href="#m6db62e7e61" y="357.927792"/>
     <use style="fill:#ff0000;stroke:#ff0000;" x="412.004592" xlink:href="#m6db62e7e61" y="392.726187"/>
     <use style="fill:#ff0000;stroke:#ff0000;" x="376.693902" xlink:href="#m6db62e7e61" y="391.689282"/>
     <use style="fill:#ff0000;stroke:#ff0000;" x="381.605755" xlink:href="#m6db62e7e61" y="400.132036"/>
     <use style="fill:#ff0000;stroke:#ff0000;" x="377.944422" xlink:href="#m6db62e7e61" y="421.16327"/>
     <use style="fill:#ff0000;stroke:#ff0000;" x="368.378724" xlink:href="#m6db62e7e61" y="427.920994"/>
     <use style="fill:#ff0000;stroke:#ff0000;" x="537.283538" xlink:href="#m6db62e7e61" y="436.870522"/>
     <use style="fill:#ff0000;stroke:#ff0000;" x="537.627657" xlink:href="#m6db62e7e61" y="451.328968"/>
     <use style="fill:#ff0000;stroke:#ff0000;" x="396.564241" xlink:href="#m6db62e7e61" y="519.449449"/>
     <use style="fill:#ff0000;stroke:#ff0000;" x="407.082058" xlink:href="#m6db62e7e61" y="531.969354"/>
     <use style="fill:#ff0000;stroke:#ff0000;" x="435.29381" xlink:href="#m6db62e7e61" y="525.358043"/>
     <use style="fill:#ff0000;stroke:#ff0000;" x="450.207924" xlink:href="#m6db62e7e61" y="524.512505"/>
     <use style="fill:#ff0000;stroke:#ff0000;" x="445.03617" xlink:href="#m6db62e7e61" y="536.175955"/>
     <use style="fill:#ff0000;stroke:#ff0000;" x="455.775922" xlink:href="#m6db62e7e61" y="537.460741"/>
     <use style="fill:#ff0000;stroke:#ff0000;" x="500.730889" xlink:href="#m6db62e7e61" y="517.01731"/>
     <use style="fill:#ff0000;stroke:#ff0000;" x="507.58554" xlink:href="#m6db62e7e61" y="525.951615"/>
     <use style="fill:#ff0000;stroke:#ff0000;" x="504.544681" xlink:href="#m6db62e7e61" y="538.516955"/>
     <use style="fill:#ff0000;stroke:#ff0000;" x="520.510411" xlink:href="#m6db62e7e61" y="528.486605"/>
     <use style="fill:#ff0000;stroke:#ff0000;" x="544.298016" xlink:href="#m6db62e7e61" y="522.291245"/>
     <use style="fill:#ff0000;stroke:#ff0000;" x="565.096423" xlink:href="#m6db62e7e61" y="527.84608"/>
     <use style="fill:#ff0000;stroke:#ff0000;" x="580.295439" xlink:href="#m6db62e7e61" y="540.723519"/>
     <use style="fill:#ff0000;stroke:#ff0000;" x="587.247449" xlink:href="#m6db62e7e61" y="526.030768"/>
     <use style="fill:#ff0000;stroke:#ff0000;" x="611.358617" xlink:href="#m6db62e7e61" y="539.282364"/>
     <use style="fill:#ff0000;stroke:#ff0000;" x="612.675179" xlink:href="#m6db62e7e61" y="519.176194"/>
     <use style="fill:#ff0000;stroke:#ff0000;" x="669.313691" xlink:href="#m6db62e7e61" y="523.705132"/>
     <use style="fill:#ff0000;stroke:#ff0000;" x="703.364264" xlink:href="#m6db62e7e61" y="540.909397"/>
     <use style="fill:#ff0000;stroke:#ff0000;" x="739.278502" xlink:href="#m6db62e7e61" y="524.712749"/>
     <use style="fill:#ff0000;stroke:#ff0000;" x="738.439262" xlink:href="#m6db62e7e61" y="516.008455"/>
     <use style="fill:#ff0000;stroke:#ff0000;" x="753.409932" xlink:href="#m6db62e7e61" y="516.147957"/>
     <use style="fill:#ff0000;stroke:#ff0000;" x="771.649621" xlink:href="#m6db62e7e61" y="516.822055"/>
     <use style="fill:#ff0000;stroke:#ff0000;" x="791.99745" xlink:href="#m6db62e7e61" y="517.143143"/>
     <use style="fill:#ff0000;stroke:#ff0000;" x="917.369361" xlink:href="#m6db62e7e61" y="554.660458"/>
     <use style="fill:#ff0000;stroke:#ff0000;" x="927.557582" xlink:href="#m6db62e7e61" y="544.828432"/>
     <use style="fill:#ff0000;stroke:#ff0000;" x="899.743702" xlink:href="#m6db62e7e61" y="501.059447"/>
     <use style="fill:#ff0000;stroke:#ff0000;" x="934.122634" xlink:href="#m6db62e7e61" y="484.513511"/>
    </g>
   </g>
   <g id="line2d_18">
    <defs>
     <path d="M -0.5 0.5 
L 0.5 0.5 
L 0.5 -0.5 
L -0.5 -0.5 
z
" id="ma051836d2d" style="stroke:#1f77b4;stroke-linejoin:miter;"/>
    </defs>
    <g clip-path="url(#pc95deeaf6b)">
     <use style="fill:#1f77b4;stroke:#1f77b4;stroke-linejoin:miter;" x="646.450182" xlink:href="#ma051836d2d" y="438.13215"/>
     <use style="fill:#1f77b4;stroke:#1f77b4;stroke-linejoin:miter;" x="646.263564" xlink:href="#ma051836d2d" y="436.206479"/>
     <use style="fill:#1f77b4;stroke:#1f77b4;stroke-linejoin:miter;" x="646.838617" xlink:href="#ma051836d2d" y="434.334397"/>
     <use style="fill:#1f77b4;stroke:#1f77b4;stroke-linejoin:miter;" x="647.693266" xlink:href="#ma051836d2d" y="432.502735"/>
     <use style="fill:#1f77b4;stroke:#1f77b4;stroke-linejoin:miter;" x="648.233672" xlink:href="#ma051836d2d" y="430.454972"/>
     <use style="fill:#1f77b4;stroke:#1f77b4;stroke-linejoin:miter;" x="648.397227" xlink:href="#ma051836d2d" y="428.492869"/>
     <use style="fill:#1f77b4;stroke:#1f77b4;stroke-linejoin:miter;" x="648.832327" xlink:href="#ma051836d2d" y="426.45508"/>
     <use style="fill:#1f77b4;stroke:#1f77b4;stroke-linejoin:miter;" x="651.216478" xlink:href="#ma051836d2d" y="424.004694"/>
     <use style="fill:#1f77b4;stroke:#1f77b4;stroke-linejoin:miter;" x="655.878675" xlink:href="#ma051836d2d" y="420.833423"/>
     <use style="fill:#1f77b4;stroke:#1f77b4;stroke-linejoin:miter;" x="877.485826" xlink:href="#ma051836d2d" y="316.362788"/>
     <use style="fill:#1f77b4;stroke:#1f77b4;stroke-linejoin:miter;" x="848.429987" xlink:href="#ma051836d2d" y="316.97439"/>
     <use style="fill:#1f77b4;stroke:#1f77b4;stroke-linejoin:miter;" x="829.373253" xlink:href="#ma051836d2d" y="314.504543"/>
     <use style="fill:#1f77b4;stroke:#1f77b4;stroke-linejoin:miter;" x="813.519242" xlink:href="#ma051836d2d" y="311.460232"/>
     <use style="fill:#1f77b4;stroke:#1f77b4;stroke-linejoin:miter;" x="793.221434" xlink:href="#ma051836d2d" y="311.734183"/>
     <use style="fill:#1f77b4;stroke:#1f77b4;stroke-linejoin:miter;" x="777.196207" xlink:href="#ma051836d2d" y="310.852253"/>
     <use style="fill:#1f77b4;stroke:#1f77b4;stroke-linejoin:miter;" x="761.999848" xlink:href="#ma051836d2d" y="310.250992"/>
     <use style="fill:#1f77b4;stroke:#1f77b4;stroke-linejoin:miter;" x="680.257288" xlink:href="#ma051836d2d" y="308.206792"/>
     <use style="fill:#1f77b4;stroke:#1f77b4;stroke-linejoin:miter;" x="670.989764" xlink:href="#ma051836d2d" y="307.811865"/>
     <use style="fill:#1f77b4;stroke:#1f77b4;stroke-linejoin:miter;" x="662.537671" xlink:href="#ma051836d2d" y="306.645915"/>
     <use style="fill:#1f77b4;stroke:#1f77b4;stroke-linejoin:miter;" x="653.391948" xlink:href="#ma051836d2d" y="306.916686"/>
     <use style="fill:#1f77b4;stroke:#1f77b4;stroke-linejoin:miter;" x="644.630847" xlink:href="#ma051836d2d" y="307.418486"/>
     <use style="fill:#1f77b4;stroke:#1f77b4;stroke-linejoin:miter;" x="636.72206" xlink:href="#ma051836d2d" y="306.650977"/>
     <use style="fill:#1f77b4;stroke:#1f77b4;stroke-linejoin:miter;" x="628.374565" xlink:href="#ma051836d2d" y="306.84282"/>
     <use style="fill:#1f77b4;stroke:#1f77b4;stroke-linejoin:miter;" x="615.957395" xlink:href="#ma051836d2d" y="325.488229"/>
     <use style="fill:#1f77b4;stroke:#1f77b4;stroke-linejoin:miter;" x="612.255044" xlink:href="#ma051836d2d" y="306.323487"/>
     <use style="fill:#1f77b4;stroke:#1f77b4;stroke-linejoin:miter;" x="604.566231" xlink:href="#ma051836d2d" y="305.387683"/>
     <use style="fill:#1f77b4;stroke:#1f77b4;stroke-linejoin:miter;" x="596.717681" xlink:href="#ma051836d2d" y="303.585057"/>
     <use style="fill:#1f77b4;stroke:#1f77b4;stroke-linejoin:miter;" x="588.851111" xlink:href="#ma051836d2d" y="304.064996"/>
     <use style="fill:#1f77b4;stroke:#1f77b4;stroke-linejoin:miter;" x="580.965787" xlink:href="#ma051836d2d" y="304.246925"/>
     <use style="fill:#1f77b4;stroke:#1f77b4;stroke-linejoin:miter;" x="572.938689" xlink:href="#ma051836d2d" y="304.212094"/>
     <use style="fill:#1f77b4;stroke:#1f77b4;stroke-linejoin:miter;" x="564.997018" xlink:href="#ma051836d2d" y="304.245326"/>
     <use style="fill:#1f77b4;stroke:#1f77b4;stroke-linejoin:miter;" x="556.864073" xlink:href="#ma051836d2d" y="303.709112"/>
     <use style="fill:#1f77b4;stroke:#1f77b4;stroke-linejoin:miter;" x="548.478733" xlink:href="#ma051836d2d" y="303.331432"/>
     <use style="fill:#1f77b4;stroke:#1f77b4;stroke-linejoin:miter;" x="539.795656" xlink:href="#ma051836d2d" y="302.894704"/>
     <use style="fill:#1f77b4;stroke:#1f77b4;stroke-linejoin:miter;" x="531.25617" xlink:href="#ma051836d2d" y="302.668386"/>
     <use style="fill:#1f77b4;stroke:#1f77b4;stroke-linejoin:miter;" x="522.106727" xlink:href="#ma051836d2d" y="302.44043"/>
     <use style="fill:#1f77b4;stroke:#1f77b4;stroke-linejoin:miter;" x="512.584845" xlink:href="#ma051836d2d" y="302.063847"/>
     <use style="fill:#1f77b4;stroke:#1f77b4;stroke-linejoin:miter;" x="502.62858" xlink:href="#ma051836d2d" y="301.663442"/>
     <use style="fill:#1f77b4;stroke:#1f77b4;stroke-linejoin:miter;" x="493.366828" xlink:href="#ma051836d2d" y="302.802969"/>
     <use style="fill:#1f77b4;stroke:#1f77b4;stroke-linejoin:miter;" x="482.488429" xlink:href="#ma051836d2d" y="302.410042"/>
     <use style="fill:#1f77b4;stroke:#1f77b4;stroke-linejoin:miter;" x="471.968169" xlink:href="#ma051836d2d" y="302.987561"/>
     <use style="fill:#1f77b4;stroke:#1f77b4;stroke-linejoin:miter;" x="459.803933" xlink:href="#ma051836d2d" y="302.453995"/>
     <use style="fill:#1f77b4;stroke:#1f77b4;stroke-linejoin:miter;" x="446.731898" xlink:href="#ma051836d2d" y="301.958057"/>
     <use style="fill:#1f77b4;stroke:#1f77b4;stroke-linejoin:miter;" x="432.737305" xlink:href="#ma051836d2d" y="301.763969"/>
     <use style="fill:#1f77b4;stroke:#1f77b4;stroke-linejoin:miter;" x="419.968344" xlink:href="#ma051836d2d" y="303.147039"/>
     <use style="fill:#1f77b4;stroke:#1f77b4;stroke-linejoin:miter;" x="407.719846" xlink:href="#ma051836d2d" y="305.722666"/>
     <use style="fill:#1f77b4;stroke:#1f77b4;stroke-linejoin:miter;" x="393.017316" xlink:href="#ma051836d2d" y="307.190619"/>
     <use style="fill:#1f77b4;stroke:#1f77b4;stroke-linejoin:miter;" x="393.783075" xlink:href="#ma051836d2d" y="318.929178"/>
     <use style="fill:#1f77b4;stroke:#1f77b4;stroke-linejoin:miter;" x="393.774128" xlink:href="#ma051836d2d" y="348.174311"/>
     <use style="fill:#1f77b4;stroke:#1f77b4;stroke-linejoin:miter;" x="376.02363" xlink:href="#ma051836d2d" y="349.529142"/>
     <use style="fill:#1f77b4;stroke:#1f77b4;stroke-linejoin:miter;" x="374.255995" xlink:href="#ma051836d2d" y="357.927792"/>
     <use style="fill:#1f77b4;stroke:#1f77b4;stroke-linejoin:miter;" x="412.004592" xlink:href="#ma051836d2d" y="392.726187"/>
     <use style="fill:#1f77b4;stroke:#1f77b4;stroke-linejoin:miter;" x="376.693902" xlink:href="#ma051836d2d" y="391.689282"/>
     <use style="fill:#1f77b4;stroke:#1f77b4;stroke-linejoin:miter;" x="381.605755" xlink:href="#ma051836d2d" y="400.132036"/>
     <use style="fill:#1f77b4;stroke:#1f77b4;stroke-linejoin:miter;" x="369.963278" xlink:href="#ma051836d2d" y="405.690666"/>
     <use style="fill:#1f77b4;stroke:#1f77b4;stroke-linejoin:miter;" x="368.868188" xlink:href="#ma051836d2d" y="413.028129"/>
     <use style="fill:#1f77b4;stroke:#1f77b4;stroke-linejoin:miter;" x="377.944422" xlink:href="#ma051836d2d" y="421.16327"/>
     <use style="fill:#1f77b4;stroke:#1f77b4;stroke-linejoin:miter;" x="368.378724" xlink:href="#ma051836d2d" y="427.920994"/>
     <use style="fill:#1f77b4;stroke:#1f77b4;stroke-linejoin:miter;" x="537.283538" xlink:href="#ma051836d2d" y="436.870522"/>
     <use style="fill:#1f77b4;stroke:#1f77b4;stroke-linejoin:miter;" x="537.290105" xlink:href="#ma051836d2d" y="438.643056"/>
     <use style="fill:#1f77b4;stroke:#1f77b4;stroke-linejoin:miter;" x="537.284839" xlink:href="#ma051836d2d" y="440.370861"/>
     <use style="fill:#1f77b4;stroke:#1f77b4;stroke-linejoin:miter;" x="537.378109" xlink:href="#ma051836d2d" y="442.169723"/>
     <use style="fill:#1f77b4;stroke:#1f77b4;stroke-linejoin:miter;" x="537.384175" xlink:href="#ma051836d2d" y="443.898484"/>
     <use style="fill:#1f77b4;stroke:#1f77b4;stroke-linejoin:miter;" x="537.524919" xlink:href="#ma051836d2d" y="445.688349"/>
     <use style="fill:#1f77b4;stroke:#1f77b4;stroke-linejoin:miter;" x="537.613497" xlink:href="#ma051836d2d" y="447.494569"/>
     <use style="fill:#1f77b4;stroke:#1f77b4;stroke-linejoin:miter;" x="537.267639" xlink:href="#ma051836d2d" y="449.519352"/>
     <use style="fill:#1f77b4;stroke:#1f77b4;stroke-linejoin:miter;" x="537.627657" xlink:href="#ma051836d2d" y="451.328968"/>
     <use style="fill:#1f77b4;stroke:#1f77b4;stroke-linejoin:miter;" x="396.564241" xlink:href="#ma051836d2d" y="519.449449"/>
     <use style="fill:#1f77b4;stroke:#1f77b4;stroke-linejoin:miter;" x="395.633006" xlink:href="#ma051836d2d" y="528.557392"/>
     <use style="fill:#1f77b4;stroke:#1f77b4;stroke-linejoin:miter;" x="407.082058" xlink:href="#ma051836d2d" y="531.969354"/>
     <use style="fill:#1f77b4;stroke:#1f77b4;stroke-linejoin:miter;" x="435.29381" xlink:href="#ma051836d2d" y="525.358043"/>
     <use style="fill:#1f77b4;stroke:#1f77b4;stroke-linejoin:miter;" x="450.207924" xlink:href="#ma051836d2d" y="524.512505"/>
     <use style="fill:#1f77b4;stroke:#1f77b4;stroke-linejoin:miter;" x="445.03617" xlink:href="#ma051836d2d" y="536.175955"/>
     <use style="fill:#1f77b4;stroke:#1f77b4;stroke-linejoin:miter;" x="455.775922" xlink:href="#ma051836d2d" y="537.460741"/>
     <use style="fill:#1f77b4;stroke:#1f77b4;stroke-linejoin:miter;" x="500.730889" xlink:href="#ma051836d2d" y="517.01731"/>
     <use style="fill:#1f77b4;stroke:#1f77b4;stroke-linejoin:miter;" x="507.749479" xlink:href="#ma051836d2d" y="517.957316"/>
     <use style="fill:#1f77b4;stroke:#1f77b4;stroke-linejoin:miter;" x="507.58554" xlink:href="#ma051836d2d" y="525.951615"/>
     <use style="fill:#1f77b4;stroke:#1f77b4;stroke-linejoin:miter;" x="504.544681" xlink:href="#ma051836d2d" y="538.516955"/>
     <use style="fill:#1f77b4;stroke:#1f77b4;stroke-linejoin:miter;" x="520.510411" xlink:href="#ma051836d2d" y="528.486605"/>
     <use style="fill:#1f77b4;stroke:#1f77b4;stroke-linejoin:miter;" x="544.298016" xlink:href="#ma051836d2d" y="522.291245"/>
     <use style="fill:#1f77b4;stroke:#1f77b4;stroke-linejoin:miter;" x="547.621328" xlink:href="#ma051836d2d" y="527.442036"/>
     <use style="fill:#1f77b4;stroke:#1f77b4;stroke-linejoin:miter;" x="565.096423" xlink:href="#ma051836d2d" y="527.84608"/>
     <use style="fill:#1f77b4;stroke:#1f77b4;stroke-linejoin:miter;" x="574.063685" xlink:href="#ma051836d2d" y="540.140892"/>
     <use style="fill:#1f77b4;stroke:#1f77b4;stroke-linejoin:miter;" x="580.295439" xlink:href="#ma051836d2d" y="540.723519"/>
     <use style="fill:#1f77b4;stroke:#1f77b4;stroke-linejoin:miter;" x="587.247449" xlink:href="#ma051836d2d" y="526.030768"/>
     <use style="fill:#1f77b4;stroke:#1f77b4;stroke-linejoin:miter;" x="592.516581" xlink:href="#ma051836d2d" y="526.677396"/>
     <use style="fill:#1f77b4;stroke:#1f77b4;stroke-linejoin:miter;" x="598.52209" xlink:href="#ma051836d2d" y="535.273687"/>
     <use style="fill:#1f77b4;stroke:#1f77b4;stroke-linejoin:miter;" x="604.617541" xlink:href="#ma051836d2d" y="535.046224"/>
     <use style="fill:#1f77b4;stroke:#1f77b4;stroke-linejoin:miter;" x="611.358617" xlink:href="#ma051836d2d" y="539.282364"/>
     <use style="fill:#1f77b4;stroke:#1f77b4;stroke-linejoin:miter;" x="612.675179" xlink:href="#ma051836d2d" y="519.176194"/>
     <use style="fill:#1f77b4;stroke:#1f77b4;stroke-linejoin:miter;" x="618.121614" xlink:href="#ma051836d2d" y="520.144177"/>
     <use style="fill:#1f77b4;stroke:#1f77b4;stroke-linejoin:miter;" x="622.658144" xlink:href="#ma051836d2d" y="518.124253"/>
     <use style="fill:#1f77b4;stroke:#1f77b4;stroke-linejoin:miter;" x="629.629195" xlink:href="#ma051836d2d" y="521.66953"/>
     <use style="fill:#1f77b4;stroke:#1f77b4;stroke-linejoin:miter;" x="635.20846" xlink:href="#ma051836d2d" y="521.561092"/>
     <use style="fill:#1f77b4;stroke:#1f77b4;stroke-linejoin:miter;" x="641.456077" xlink:href="#ma051836d2d" y="521.958987"/>
     <use style="fill:#1f77b4;stroke:#1f77b4;stroke-linejoin:miter;" x="647.822657" xlink:href="#ma051836d2d" y="522.25909"/>
     <use style="fill:#1f77b4;stroke:#1f77b4;stroke-linejoin:miter;" x="654.70332" xlink:href="#ma051836d2d" y="523.042037"/>
     <use style="fill:#1f77b4;stroke:#1f77b4;stroke-linejoin:miter;" x="661.598416" xlink:href="#ma051836d2d" y="523.215586"/>
     <use style="fill:#1f77b4;stroke:#1f77b4;stroke-linejoin:miter;" x="669.313691" xlink:href="#ma051836d2d" y="523.705132"/>
     <use style="fill:#1f77b4;stroke:#1f77b4;stroke-linejoin:miter;" x="703.364264" xlink:href="#ma051836d2d" y="540.909397"/>
     <use style="fill:#1f77b4;stroke:#1f77b4;stroke-linejoin:miter;" x="707.845804" xlink:href="#ma051836d2d" y="535.674851"/>
     <use style="fill:#1f77b4;stroke:#1f77b4;stroke-linejoin:miter;" x="711.940513" xlink:href="#ma051836d2d" y="530.361447"/>
     <use style="fill:#1f77b4;stroke:#1f77b4;stroke-linejoin:miter;" x="717.327998" xlink:href="#ma051836d2d" y="526.271093"/>
     <use style="fill:#1f77b4;stroke:#1f77b4;stroke-linejoin:miter;" x="725.14102" xlink:href="#ma051836d2d" y="523.647768"/>
     <use style="fill:#1f77b4;stroke:#1f77b4;stroke-linejoin:miter;" x="739.278502" xlink:href="#ma051836d2d" y="524.712749"/>
     <use style="fill:#1f77b4;stroke:#1f77b4;stroke-linejoin:miter;" x="738.439262" xlink:href="#ma051836d2d" y="516.008455"/>
     <use style="fill:#1f77b4;stroke:#1f77b4;stroke-linejoin:miter;" x="753.409932" xlink:href="#ma051836d2d" y="516.147957"/>
     <use style="fill:#1f77b4;stroke:#1f77b4;stroke-linejoin:miter;" x="771.649621" xlink:href="#ma051836d2d" y="516.822055"/>
     <use style="fill:#1f77b4;stroke:#1f77b4;stroke-linejoin:miter;" x="791.99745" xlink:href="#ma051836d2d" y="517.143143"/>
     <use style="fill:#1f77b4;stroke:#1f77b4;stroke-linejoin:miter;" x="917.369361" xlink:href="#ma051836d2d" y="554.660458"/>
     <use style="fill:#1f77b4;stroke:#1f77b4;stroke-linejoin:miter;" x="927.557582" xlink:href="#ma051836d2d" y="544.828432"/>
     <use style="fill:#1f77b4;stroke:#1f77b4;stroke-linejoin:miter;" x="899.743702" xlink:href="#ma051836d2d" y="501.059447"/>
     <use style="fill:#1f77b4;stroke:#1f77b4;stroke-linejoin:miter;" x="934.122634" xlink:href="#ma051836d2d" y="484.513511"/>
    </g>
   </g>
   <g id="patch_3">
    <path d="M 144 768.96 
L 144 103.68 
" style="fill:none;stroke:#000000;stroke-linecap:square;stroke-linejoin:miter;stroke-width:0.8;"/>
   </g>
   <g id="patch_4">
    <path d="M 1036.8 768.96 
L 1036.8 103.68 
" style="fill:none;stroke:#000000;stroke-linecap:square;stroke-linejoin:miter;stroke-width:0.8;"/>
   </g>
   <g id="patch_5">
    <path d="M 144 768.96 
L 1036.8 768.96 
" style="fill:none;stroke:#000000;stroke-linecap:square;stroke-linejoin:miter;stroke-width:0.8;"/>
   </g>
   <g id="patch_6">
    <path d="M 144 103.68 
L 1036.8 103.68 
" style="fill:none;stroke:#000000;stroke-linecap:square;stroke-linejoin:miter;stroke-width:0.8;"/>
   </g>
  </g>
 </g>
 <defs>
  <clipPath id="pc95deeaf6b">
   <rect height="665.28" width="892.8" x="144" y="103.68"/>
  </clipPath>
 </defs>
</svg>
